%TF.GenerationSoftware,KiCad,Pcbnew,(5.1.9)-1*%
%TF.CreationDate,2021-04-11T18:01:06+01:00*%
%TF.ProjectId,RGBtoHDMI-Adapter Type A,52474274-6f48-4444-9d49-2d4164617074,1*%
%TF.SameCoordinates,Original*%
%TF.FileFunction,Copper,L1,Top*%
%TF.FilePolarity,Positive*%
%FSLAX46Y46*%
G04 Gerber Fmt 4.6, Leading zero omitted, Abs format (unit mm)*
G04 Created by KiCad (PCBNEW (5.1.9)-1) date 2021-04-11 18:01:06*
%MOMM*%
%LPD*%
G01*
G04 APERTURE LIST*
%TA.AperFunction,ComponentPad*%
%ADD10O,1.700000X1.700000*%
%TD*%
%TA.AperFunction,ComponentPad*%
%ADD11R,1.700000X1.700000*%
%TD*%
%TA.AperFunction,ViaPad*%
%ADD12C,0.800000*%
%TD*%
%TA.AperFunction,Conductor*%
%ADD13C,0.250000*%
%TD*%
%TA.AperFunction,Conductor*%
%ADD14C,0.400000*%
%TD*%
%TA.AperFunction,Conductor*%
%ADD15C,0.254000*%
%TD*%
%TA.AperFunction,Conductor*%
%ADD16C,0.100000*%
%TD*%
G04 APERTURE END LIST*
D10*
%TO.P,J3,40*%
%TO.N,Pin40*%
X93345000Y-93980000D03*
%TO.P,J3,39*%
%TO.N,Pin39*%
X90805000Y-93980000D03*
%TO.P,J3,38*%
%TO.N,Pin38*%
X93345000Y-91440000D03*
%TO.P,J3,37*%
%TO.N,Pin37*%
X90805000Y-91440000D03*
%TO.P,J3,36*%
%TO.N,Pin36*%
X93345000Y-88900000D03*
%TO.P,J3,35*%
%TO.N,Pin35*%
X90805000Y-88900000D03*
%TO.P,J3,34*%
%TO.N,Pin34*%
X93345000Y-86360000D03*
%TO.P,J3,33*%
%TO.N,Pin33*%
X90805000Y-86360000D03*
%TO.P,J3,32*%
%TO.N,Pin32*%
X93345000Y-83820000D03*
%TO.P,J3,31*%
%TO.N,Pin31*%
X90805000Y-83820000D03*
%TO.P,J3,30*%
%TO.N,Pin30*%
X93345000Y-81280000D03*
%TO.P,J3,29*%
%TO.N,Pin29*%
X90805000Y-81280000D03*
%TO.P,J3,28*%
%TO.N,Pin28*%
X93345000Y-78740000D03*
%TO.P,J3,27*%
%TO.N,Pin27*%
X90805000Y-78740000D03*
%TO.P,J3,26*%
%TO.N,Pin26*%
X93345000Y-76200000D03*
%TO.P,J3,25*%
%TO.N,Pin25*%
X90805000Y-76200000D03*
%TO.P,J3,24*%
%TO.N,Pin24*%
X93345000Y-73660000D03*
%TO.P,J3,23*%
%TO.N,Pin23*%
X90805000Y-73660000D03*
%TO.P,J3,22*%
%TO.N,Pin22*%
X93345000Y-71120000D03*
%TO.P,J3,21*%
%TO.N,Pin21*%
X90805000Y-71120000D03*
%TO.P,J3,20*%
%TO.N,Pin20*%
X93345000Y-68580000D03*
%TO.P,J3,19*%
%TO.N,Pin19*%
X90805000Y-68580000D03*
%TO.P,J3,18*%
%TO.N,Pin18*%
X93345000Y-66040000D03*
%TO.P,J3,17*%
%TO.N,Pin17*%
X90805000Y-66040000D03*
%TO.P,J3,16*%
%TO.N,Pin16*%
X93345000Y-63500000D03*
%TO.P,J3,15*%
%TO.N,Pin15*%
X90805000Y-63500000D03*
%TO.P,J3,14*%
%TO.N,Pin14*%
X93345000Y-60960000D03*
%TO.P,J3,13*%
%TO.N,Pin13*%
X90805000Y-60960000D03*
%TO.P,J3,12*%
%TO.N,Pin12*%
X93345000Y-58420000D03*
%TO.P,J3,11*%
%TO.N,Pin11*%
X90805000Y-58420000D03*
%TO.P,J3,10*%
%TO.N,Pin10*%
X93345000Y-55880000D03*
%TO.P,J3,9*%
%TO.N,GND*%
X90805000Y-55880000D03*
%TO.P,J3,8*%
%TO.N,Pin8*%
X93345000Y-53340000D03*
%TO.P,J3,7*%
%TO.N,Pin7*%
X90805000Y-53340000D03*
%TO.P,J3,6*%
%TO.N,GND*%
X93345000Y-50800000D03*
%TO.P,J3,5*%
%TO.N,Pin5*%
X90805000Y-50800000D03*
%TO.P,J3,4*%
%TO.N,Pin4*%
X93345000Y-48260000D03*
%TO.P,J3,3*%
%TO.N,Pin3*%
X90805000Y-48260000D03*
%TO.P,J3,2*%
%TO.N,Pin2*%
X93345000Y-45720000D03*
D11*
%TO.P,J3,1*%
%TO.N,Pin1*%
X90805000Y-45720000D03*
%TD*%
D10*
%TO.P,J2,40*%
%TO.N,Pin40*%
X99695000Y-93980000D03*
%TO.P,J2,39*%
%TO.N,Pin39*%
X97155000Y-93980000D03*
%TO.P,J2,38*%
%TO.N,Pin38*%
X99695000Y-91440000D03*
%TO.P,J2,37*%
%TO.N,Pin37*%
X97155000Y-91440000D03*
%TO.P,J2,36*%
%TO.N,Pin36*%
X99695000Y-88900000D03*
%TO.P,J2,35*%
%TO.N,Pin35*%
X97155000Y-88900000D03*
%TO.P,J2,34*%
%TO.N,Pin34*%
X99695000Y-86360000D03*
%TO.P,J2,33*%
%TO.N,Pin33*%
X97155000Y-86360000D03*
%TO.P,J2,32*%
%TO.N,Pin32*%
X99695000Y-83820000D03*
%TO.P,J2,31*%
%TO.N,Pin31*%
X97155000Y-83820000D03*
%TO.P,J2,30*%
%TO.N,Pin30*%
X99695000Y-81280000D03*
%TO.P,J2,29*%
%TO.N,Pin29*%
X97155000Y-81280000D03*
%TO.P,J2,28*%
%TO.N,Pin28*%
X99695000Y-78740000D03*
%TO.P,J2,27*%
%TO.N,Pin27*%
X97155000Y-78740000D03*
%TO.P,J2,26*%
%TO.N,Pin26*%
X99695000Y-76200000D03*
%TO.P,J2,25*%
%TO.N,Pin25*%
X97155000Y-76200000D03*
%TO.P,J2,24*%
%TO.N,Pin24*%
X99695000Y-73660000D03*
%TO.P,J2,23*%
%TO.N,Pin23*%
X97155000Y-73660000D03*
%TO.P,J2,22*%
%TO.N,Pin22*%
X99695000Y-71120000D03*
%TO.P,J2,21*%
%TO.N,Pin21*%
X97155000Y-71120000D03*
%TO.P,J2,20*%
%TO.N,Pin20*%
X99695000Y-68580000D03*
%TO.P,J2,19*%
%TO.N,Pin19*%
X97155000Y-68580000D03*
%TO.P,J2,18*%
%TO.N,Pin18*%
X99695000Y-66040000D03*
%TO.P,J2,17*%
%TO.N,Pin17*%
X97155000Y-66040000D03*
%TO.P,J2,16*%
%TO.N,Pin16*%
X99695000Y-63500000D03*
%TO.P,J2,15*%
%TO.N,Pin15*%
X97155000Y-63500000D03*
%TO.P,J2,14*%
%TO.N,Pin14*%
X99695000Y-60960000D03*
%TO.P,J2,13*%
%TO.N,Pin13*%
X97155000Y-60960000D03*
%TO.P,J2,12*%
%TO.N,Pin12*%
X99695000Y-58420000D03*
%TO.P,J2,11*%
%TO.N,Pin11*%
X97155000Y-58420000D03*
%TO.P,J2,10*%
%TO.N,Pin10*%
X99695000Y-55880000D03*
%TO.P,J2,9*%
%TO.N,GND*%
X97155000Y-55880000D03*
%TO.P,J2,8*%
%TO.N,Pin8*%
X99695000Y-53340000D03*
%TO.P,J2,7*%
%TO.N,Pin7*%
X97155000Y-53340000D03*
%TO.P,J2,6*%
%TO.N,GND*%
X99695000Y-50800000D03*
%TO.P,J2,5*%
%TO.N,Pin5*%
X97155000Y-50800000D03*
%TO.P,J2,4*%
%TO.N,Pin4*%
X99695000Y-48260000D03*
%TO.P,J2,3*%
%TO.N,Pin3*%
X97155000Y-48260000D03*
%TO.P,J2,2*%
%TO.N,Pin2*%
X99695000Y-45720000D03*
D11*
%TO.P,J2,1*%
%TO.N,Pin1*%
X97155000Y-45720000D03*
%TD*%
D10*
%TO.P,J1,40*%
%TO.N,Pin40*%
X103505000Y-88900000D03*
%TO.P,J1,39*%
%TO.N,Pin39*%
X106045000Y-88900000D03*
%TO.P,J1,38*%
%TO.N,Pin38*%
X103505000Y-86360000D03*
%TO.P,J1,37*%
%TO.N,Pin37*%
X106045000Y-86360000D03*
%TO.P,J1,36*%
%TO.N,Pin36*%
X103505000Y-83820000D03*
%TO.P,J1,35*%
%TO.N,Pin35*%
X106045000Y-83820000D03*
%TO.P,J1,34*%
%TO.N,Pin34*%
X103505000Y-81280000D03*
%TO.P,J1,33*%
%TO.N,Pin33*%
X106045000Y-81280000D03*
%TO.P,J1,32*%
%TO.N,Pin32*%
X103505000Y-78740000D03*
%TO.P,J1,31*%
%TO.N,Pin31*%
X106045000Y-78740000D03*
%TO.P,J1,30*%
%TO.N,Pin30*%
X103505000Y-76200000D03*
%TO.P,J1,29*%
%TO.N,Pin29*%
X106045000Y-76200000D03*
%TO.P,J1,28*%
%TO.N,Pin28*%
X103505000Y-73660000D03*
%TO.P,J1,27*%
%TO.N,Pin27*%
X106045000Y-73660000D03*
%TO.P,J1,26*%
%TO.N,Pin26*%
X103505000Y-71120000D03*
%TO.P,J1,25*%
%TO.N,Pin25*%
X106045000Y-71120000D03*
%TO.P,J1,24*%
%TO.N,Pin24*%
X103505000Y-68580000D03*
%TO.P,J1,23*%
%TO.N,Pin23*%
X106045000Y-68580000D03*
%TO.P,J1,22*%
%TO.N,Pin22*%
X103505000Y-66040000D03*
%TO.P,J1,21*%
%TO.N,Pin21*%
X106045000Y-66040000D03*
%TO.P,J1,20*%
%TO.N,Pin20*%
X103505000Y-63500000D03*
%TO.P,J1,19*%
%TO.N,Pin19*%
X106045000Y-63500000D03*
%TO.P,J1,18*%
%TO.N,Pin18*%
X103505000Y-60960000D03*
%TO.P,J1,17*%
%TO.N,Pin17*%
X106045000Y-60960000D03*
%TO.P,J1,16*%
%TO.N,Pin16*%
X103505000Y-58420000D03*
%TO.P,J1,15*%
%TO.N,Pin15*%
X106045000Y-58420000D03*
%TO.P,J1,14*%
%TO.N,Pin14*%
X103505000Y-55880000D03*
%TO.P,J1,13*%
%TO.N,Pin13*%
X106045000Y-55880000D03*
%TO.P,J1,12*%
%TO.N,Pin12*%
X103505000Y-53340000D03*
%TO.P,J1,11*%
%TO.N,Pin11*%
X106045000Y-53340000D03*
%TO.P,J1,10*%
%TO.N,Pin10*%
X103505000Y-50800000D03*
%TO.P,J1,9*%
%TO.N,GND*%
X106045000Y-50800000D03*
%TO.P,J1,8*%
%TO.N,Pin8*%
X103505000Y-48260000D03*
%TO.P,J1,7*%
%TO.N,Pin7*%
X106045000Y-48260000D03*
%TO.P,J1,6*%
%TO.N,GND*%
X103505000Y-45720000D03*
%TO.P,J1,5*%
%TO.N,Pin5*%
X106045000Y-45720000D03*
%TO.P,J1,4*%
%TO.N,Pin4*%
X103505000Y-43180000D03*
%TO.P,J1,3*%
%TO.N,Pin3*%
X106045000Y-43180000D03*
%TO.P,J1,2*%
%TO.N,Pin2*%
X103505000Y-40640000D03*
D11*
%TO.P,J1,1*%
%TO.N,Pin1*%
X106045000Y-40640000D03*
%TD*%
D12*
%TO.N,GND*%
X102057200Y-90297000D03*
X95250000Y-60960000D03*
X95250000Y-63500000D03*
X95250000Y-66040000D03*
X95250000Y-53340000D03*
X95250000Y-50800000D03*
X95250000Y-45720000D03*
X95250000Y-71120000D03*
X95250000Y-73660000D03*
X95250000Y-76200000D03*
X95250000Y-78740000D03*
X95250000Y-81280000D03*
X95250000Y-83820000D03*
X95250000Y-86360000D03*
X95250000Y-88900000D03*
X95250000Y-91440000D03*
X95250000Y-93980000D03*
X95250000Y-68580000D03*
X95250000Y-58420000D03*
X95250000Y-55880000D03*
X95250000Y-48260000D03*
%TD*%
D13*
%TO.N,Pin40*%
X99695000Y-93912081D02*
X99695000Y-93980000D01*
X103505000Y-90102081D02*
X99695000Y-93912081D01*
X103505000Y-88900000D02*
X103505000Y-90102081D01*
X94589600Y-95224600D02*
X93345000Y-93980000D01*
X98450400Y-95224600D02*
X94589600Y-95224600D01*
X99695000Y-93980000D02*
X98450400Y-95224600D01*
%TO.N,Pin38*%
X98425000Y-92710000D02*
X94615000Y-92710000D01*
X94615000Y-92710000D02*
X93345000Y-91440000D01*
X99695000Y-91440000D02*
X98425000Y-92710000D01*
X101473000Y-89662000D02*
X99695000Y-91440000D01*
X101473000Y-88392000D02*
X101473000Y-89662000D01*
X103505000Y-86360000D02*
X101473000Y-88392000D01*
%TO.N,Pin36*%
X98425000Y-90170000D02*
X94615000Y-90170000D01*
X94615000Y-90170000D02*
X93345000Y-88900000D01*
X99695000Y-88900000D02*
X98425000Y-90170000D01*
X101473000Y-87122000D02*
X99695000Y-88900000D01*
X101473000Y-85852000D02*
X101473000Y-87122000D01*
X103505000Y-83820000D02*
X101473000Y-85852000D01*
%TO.N,Pin34*%
X94615000Y-87630000D02*
X93345000Y-86360000D01*
X98425000Y-87630000D02*
X94615000Y-87630000D01*
X99695000Y-86360000D02*
X98425000Y-87630000D01*
X101473000Y-84582000D02*
X99695000Y-86360000D01*
X101473000Y-83312000D02*
X101473000Y-84582000D01*
X103505000Y-81280000D02*
X101473000Y-83312000D01*
%TO.N,Pin32*%
X94589600Y-85064600D02*
X93345000Y-83820000D01*
X98450400Y-85064600D02*
X94589600Y-85064600D01*
X99695000Y-83820000D02*
X98450400Y-85064600D01*
X101473000Y-82042000D02*
X99695000Y-83820000D01*
X101473000Y-80772000D02*
X101473000Y-82042000D01*
X103505000Y-78740000D02*
X101473000Y-80772000D01*
%TO.N,Pin30*%
X94615000Y-82550000D02*
X93345000Y-81280000D01*
X98425000Y-82550000D02*
X94615000Y-82550000D01*
X99695000Y-81280000D02*
X98425000Y-82550000D01*
X101473000Y-79502000D02*
X99695000Y-81280000D01*
X101473000Y-78232000D02*
X101473000Y-79502000D01*
X103505000Y-76200000D02*
X101473000Y-78232000D01*
%TO.N,Pin28*%
X94615000Y-80010000D02*
X93345000Y-78740000D01*
X98425000Y-80010000D02*
X94615000Y-80010000D01*
X99695000Y-78740000D02*
X98425000Y-80010000D01*
X101473000Y-76962000D02*
X99695000Y-78740000D01*
X101473000Y-75692000D02*
X101473000Y-76962000D01*
X103505000Y-73660000D02*
X101473000Y-75692000D01*
%TO.N,Pin26*%
X94589600Y-77444600D02*
X93345000Y-76200000D01*
X98450400Y-77444600D02*
X94589600Y-77444600D01*
X99695000Y-76200000D02*
X98450400Y-77444600D01*
X101473000Y-74422000D02*
X99695000Y-76200000D01*
X101473000Y-73152000D02*
X101473000Y-74422000D01*
X103505000Y-71120000D02*
X101473000Y-73152000D01*
%TO.N,Pin24*%
X98425000Y-74930000D02*
X94615000Y-74930000D01*
X94615000Y-74930000D02*
X93345000Y-73660000D01*
X99695000Y-73660000D02*
X98425000Y-74930000D01*
X101473000Y-71882000D02*
X99695000Y-73660000D01*
X101473000Y-70612000D02*
X101473000Y-71882000D01*
X103505000Y-68580000D02*
X101473000Y-70612000D01*
%TO.N,Pin22*%
X94589600Y-72364600D02*
X93345000Y-71120000D01*
X98450400Y-72364600D02*
X94589600Y-72364600D01*
X99695000Y-71120000D02*
X98450400Y-72364600D01*
X101473000Y-69342000D02*
X99695000Y-71120000D01*
X101473000Y-68072000D02*
X101473000Y-69342000D01*
X103505000Y-66040000D02*
X101473000Y-68072000D01*
%TO.N,Pin20*%
X94615000Y-69850000D02*
X93345000Y-68580000D01*
X98425000Y-69850000D02*
X94615000Y-69850000D01*
X99695000Y-68580000D02*
X98425000Y-69850000D01*
X101473000Y-66802000D02*
X99695000Y-68580000D01*
X101473000Y-65532000D02*
X101473000Y-66802000D01*
X103505000Y-63500000D02*
X101473000Y-65532000D01*
%TO.N,Pin18*%
X94615000Y-67310000D02*
X93345000Y-66040000D01*
X98425000Y-67310000D02*
X94615000Y-67310000D01*
X99695000Y-66040000D02*
X98425000Y-67310000D01*
X101473000Y-64262000D02*
X99695000Y-66040000D01*
X101473000Y-62992000D02*
X101473000Y-64262000D01*
X103505000Y-60960000D02*
X101473000Y-62992000D01*
%TO.N,Pin16*%
X94564200Y-64719200D02*
X93345000Y-63500000D01*
X98475800Y-64719200D02*
X94564200Y-64719200D01*
X99695000Y-63500000D02*
X98475800Y-64719200D01*
X101473000Y-61722000D02*
X99695000Y-63500000D01*
X101473000Y-60452000D02*
X101473000Y-61722000D01*
X103505000Y-58420000D02*
X101473000Y-60452000D01*
%TO.N,Pin14*%
X94589600Y-62204600D02*
X93345000Y-60960000D01*
X98450400Y-62204600D02*
X94589600Y-62204600D01*
X99695000Y-60960000D02*
X98450400Y-62204600D01*
X101473000Y-59182000D02*
X99695000Y-60960000D01*
X101473000Y-57912000D02*
X101473000Y-59182000D01*
X103505000Y-55880000D02*
X101473000Y-57912000D01*
%TO.N,Pin12*%
X94615000Y-59690000D02*
X93345000Y-58420000D01*
X98425000Y-59690000D02*
X94615000Y-59690000D01*
X99695000Y-58420000D02*
X98425000Y-59690000D01*
X101473000Y-56642000D02*
X99695000Y-58420000D01*
X101473000Y-55372000D02*
X101473000Y-56642000D01*
X103505000Y-53340000D02*
X101473000Y-55372000D01*
%TO.N,Pin10*%
X94615000Y-57150000D02*
X93345000Y-55880000D01*
X98425000Y-57150000D02*
X95250000Y-57150000D01*
X99695000Y-55880000D02*
X98425000Y-57150000D01*
X95250000Y-57150000D02*
X94615000Y-57150000D01*
X101473000Y-54102000D02*
X99695000Y-55880000D01*
X101473000Y-52832000D02*
X101473000Y-54102000D01*
X103505000Y-50800000D02*
X101473000Y-52832000D01*
%TO.N,Pin8*%
X94589600Y-54584600D02*
X93345000Y-53340000D01*
X98450400Y-54584600D02*
X94589600Y-54584600D01*
X99695000Y-53340000D02*
X98450400Y-54584600D01*
X101473000Y-51562000D02*
X99695000Y-53340000D01*
X101473000Y-50292000D02*
X101473000Y-51562000D01*
X103505000Y-48260000D02*
X101473000Y-50292000D01*
D14*
%TO.N,Pin4*%
X94615000Y-49530000D02*
X93345000Y-48260000D01*
X98425000Y-49530000D02*
X94615000Y-49530000D01*
X99695000Y-48260000D02*
X98425000Y-49530000D01*
X101549200Y-46405800D02*
X99695000Y-48260000D01*
X101549200Y-45135800D02*
X101549200Y-46405800D01*
X103505000Y-43180000D02*
X101549200Y-45135800D01*
%TO.N,Pin2*%
X99695000Y-42545000D02*
X99695000Y-45720000D01*
X101600000Y-40640000D02*
X99695000Y-42545000D01*
X103505000Y-40640000D02*
X101600000Y-40640000D01*
X93345000Y-45694600D02*
X93345000Y-45720000D01*
X95224600Y-43815000D02*
X93345000Y-45694600D01*
X97790000Y-43815000D02*
X95224600Y-43815000D01*
X99695000Y-45720000D02*
X97790000Y-43815000D01*
%TD*%
D15*
%TO.N,GND*%
X107486099Y-37242270D02*
X107528524Y-37255079D01*
X107567647Y-37275881D01*
X107601987Y-37303888D01*
X107630235Y-37338034D01*
X107651312Y-37377016D01*
X107664415Y-37419343D01*
X107671001Y-37482002D01*
X107671000Y-96246140D01*
X107664730Y-96310100D01*
X107651921Y-96352523D01*
X107631119Y-96391647D01*
X107603110Y-96425989D01*
X107568966Y-96454235D01*
X107529984Y-96475312D01*
X107487657Y-96488415D01*
X107425008Y-96495000D01*
X89681860Y-96495000D01*
X89617900Y-96488730D01*
X89575477Y-96475921D01*
X89536353Y-96455119D01*
X89502011Y-96427110D01*
X89473765Y-96392966D01*
X89452688Y-96353984D01*
X89439585Y-96311657D01*
X89433000Y-96249008D01*
X89433000Y-93858757D01*
X89574000Y-93858757D01*
X89574000Y-94101243D01*
X89621307Y-94339069D01*
X89714102Y-94563097D01*
X89848820Y-94764717D01*
X90020283Y-94936180D01*
X90221903Y-95070898D01*
X90445931Y-95163693D01*
X90683757Y-95211000D01*
X90926243Y-95211000D01*
X91164069Y-95163693D01*
X91388097Y-95070898D01*
X91589717Y-94936180D01*
X91761180Y-94764717D01*
X91895898Y-94563097D01*
X91988693Y-94339069D01*
X92036000Y-94101243D01*
X92036000Y-93858757D01*
X91988693Y-93620931D01*
X91895898Y-93396903D01*
X91761180Y-93195283D01*
X91589717Y-93023820D01*
X91388097Y-92889102D01*
X91164069Y-92796307D01*
X90926243Y-92749000D01*
X90683757Y-92749000D01*
X90445931Y-92796307D01*
X90221903Y-92889102D01*
X90020283Y-93023820D01*
X89848820Y-93195283D01*
X89714102Y-93396903D01*
X89621307Y-93620931D01*
X89574000Y-93858757D01*
X89433000Y-93858757D01*
X89433000Y-91318757D01*
X89574000Y-91318757D01*
X89574000Y-91561243D01*
X89621307Y-91799069D01*
X89714102Y-92023097D01*
X89848820Y-92224717D01*
X90020283Y-92396180D01*
X90221903Y-92530898D01*
X90445931Y-92623693D01*
X90683757Y-92671000D01*
X90926243Y-92671000D01*
X91164069Y-92623693D01*
X91388097Y-92530898D01*
X91589717Y-92396180D01*
X91761180Y-92224717D01*
X91895898Y-92023097D01*
X91988693Y-91799069D01*
X92036000Y-91561243D01*
X92036000Y-91318757D01*
X91988693Y-91080931D01*
X91895898Y-90856903D01*
X91761180Y-90655283D01*
X91589717Y-90483820D01*
X91388097Y-90349102D01*
X91164069Y-90256307D01*
X90926243Y-90209000D01*
X90683757Y-90209000D01*
X90445931Y-90256307D01*
X90221903Y-90349102D01*
X90020283Y-90483820D01*
X89848820Y-90655283D01*
X89714102Y-90856903D01*
X89621307Y-91080931D01*
X89574000Y-91318757D01*
X89433000Y-91318757D01*
X89433000Y-88778757D01*
X89574000Y-88778757D01*
X89574000Y-89021243D01*
X89621307Y-89259069D01*
X89714102Y-89483097D01*
X89848820Y-89684717D01*
X90020283Y-89856180D01*
X90221903Y-89990898D01*
X90445931Y-90083693D01*
X90683757Y-90131000D01*
X90926243Y-90131000D01*
X91164069Y-90083693D01*
X91388097Y-89990898D01*
X91589717Y-89856180D01*
X91761180Y-89684717D01*
X91895898Y-89483097D01*
X91988693Y-89259069D01*
X92036000Y-89021243D01*
X92036000Y-88778757D01*
X91988693Y-88540931D01*
X91895898Y-88316903D01*
X91761180Y-88115283D01*
X91589717Y-87943820D01*
X91388097Y-87809102D01*
X91164069Y-87716307D01*
X90926243Y-87669000D01*
X90683757Y-87669000D01*
X90445931Y-87716307D01*
X90221903Y-87809102D01*
X90020283Y-87943820D01*
X89848820Y-88115283D01*
X89714102Y-88316903D01*
X89621307Y-88540931D01*
X89574000Y-88778757D01*
X89433000Y-88778757D01*
X89433000Y-86238757D01*
X89574000Y-86238757D01*
X89574000Y-86481243D01*
X89621307Y-86719069D01*
X89714102Y-86943097D01*
X89848820Y-87144717D01*
X90020283Y-87316180D01*
X90221903Y-87450898D01*
X90445931Y-87543693D01*
X90683757Y-87591000D01*
X90926243Y-87591000D01*
X91164069Y-87543693D01*
X91388097Y-87450898D01*
X91589717Y-87316180D01*
X91761180Y-87144717D01*
X91895898Y-86943097D01*
X91988693Y-86719069D01*
X92036000Y-86481243D01*
X92036000Y-86238757D01*
X91988693Y-86000931D01*
X91895898Y-85776903D01*
X91761180Y-85575283D01*
X91589717Y-85403820D01*
X91388097Y-85269102D01*
X91164069Y-85176307D01*
X90926243Y-85129000D01*
X90683757Y-85129000D01*
X90445931Y-85176307D01*
X90221903Y-85269102D01*
X90020283Y-85403820D01*
X89848820Y-85575283D01*
X89714102Y-85776903D01*
X89621307Y-86000931D01*
X89574000Y-86238757D01*
X89433000Y-86238757D01*
X89433000Y-83698757D01*
X89574000Y-83698757D01*
X89574000Y-83941243D01*
X89621307Y-84179069D01*
X89714102Y-84403097D01*
X89848820Y-84604717D01*
X90020283Y-84776180D01*
X90221903Y-84910898D01*
X90445931Y-85003693D01*
X90683757Y-85051000D01*
X90926243Y-85051000D01*
X91164069Y-85003693D01*
X91388097Y-84910898D01*
X91589717Y-84776180D01*
X91761180Y-84604717D01*
X91895898Y-84403097D01*
X91988693Y-84179069D01*
X92036000Y-83941243D01*
X92036000Y-83698757D01*
X91988693Y-83460931D01*
X91895898Y-83236903D01*
X91761180Y-83035283D01*
X91589717Y-82863820D01*
X91388097Y-82729102D01*
X91164069Y-82636307D01*
X90926243Y-82589000D01*
X90683757Y-82589000D01*
X90445931Y-82636307D01*
X90221903Y-82729102D01*
X90020283Y-82863820D01*
X89848820Y-83035283D01*
X89714102Y-83236903D01*
X89621307Y-83460931D01*
X89574000Y-83698757D01*
X89433000Y-83698757D01*
X89433000Y-81158757D01*
X89574000Y-81158757D01*
X89574000Y-81401243D01*
X89621307Y-81639069D01*
X89714102Y-81863097D01*
X89848820Y-82064717D01*
X90020283Y-82236180D01*
X90221903Y-82370898D01*
X90445931Y-82463693D01*
X90683757Y-82511000D01*
X90926243Y-82511000D01*
X91164069Y-82463693D01*
X91388097Y-82370898D01*
X91589717Y-82236180D01*
X91761180Y-82064717D01*
X91895898Y-81863097D01*
X91988693Y-81639069D01*
X92036000Y-81401243D01*
X92036000Y-81158757D01*
X91988693Y-80920931D01*
X91895898Y-80696903D01*
X91761180Y-80495283D01*
X91589717Y-80323820D01*
X91388097Y-80189102D01*
X91164069Y-80096307D01*
X90926243Y-80049000D01*
X90683757Y-80049000D01*
X90445931Y-80096307D01*
X90221903Y-80189102D01*
X90020283Y-80323820D01*
X89848820Y-80495283D01*
X89714102Y-80696903D01*
X89621307Y-80920931D01*
X89574000Y-81158757D01*
X89433000Y-81158757D01*
X89433000Y-78618757D01*
X89574000Y-78618757D01*
X89574000Y-78861243D01*
X89621307Y-79099069D01*
X89714102Y-79323097D01*
X89848820Y-79524717D01*
X90020283Y-79696180D01*
X90221903Y-79830898D01*
X90445931Y-79923693D01*
X90683757Y-79971000D01*
X90926243Y-79971000D01*
X91164069Y-79923693D01*
X91388097Y-79830898D01*
X91589717Y-79696180D01*
X91761180Y-79524717D01*
X91895898Y-79323097D01*
X91988693Y-79099069D01*
X92036000Y-78861243D01*
X92036000Y-78618757D01*
X91988693Y-78380931D01*
X91895898Y-78156903D01*
X91761180Y-77955283D01*
X91589717Y-77783820D01*
X91388097Y-77649102D01*
X91164069Y-77556307D01*
X90926243Y-77509000D01*
X90683757Y-77509000D01*
X90445931Y-77556307D01*
X90221903Y-77649102D01*
X90020283Y-77783820D01*
X89848820Y-77955283D01*
X89714102Y-78156903D01*
X89621307Y-78380931D01*
X89574000Y-78618757D01*
X89433000Y-78618757D01*
X89433000Y-76078757D01*
X89574000Y-76078757D01*
X89574000Y-76321243D01*
X89621307Y-76559069D01*
X89714102Y-76783097D01*
X89848820Y-76984717D01*
X90020283Y-77156180D01*
X90221903Y-77290898D01*
X90445931Y-77383693D01*
X90683757Y-77431000D01*
X90926243Y-77431000D01*
X91164069Y-77383693D01*
X91388097Y-77290898D01*
X91589717Y-77156180D01*
X91761180Y-76984717D01*
X91895898Y-76783097D01*
X91988693Y-76559069D01*
X92036000Y-76321243D01*
X92036000Y-76078757D01*
X91988693Y-75840931D01*
X91895898Y-75616903D01*
X91761180Y-75415283D01*
X91589717Y-75243820D01*
X91388097Y-75109102D01*
X91164069Y-75016307D01*
X90926243Y-74969000D01*
X90683757Y-74969000D01*
X90445931Y-75016307D01*
X90221903Y-75109102D01*
X90020283Y-75243820D01*
X89848820Y-75415283D01*
X89714102Y-75616903D01*
X89621307Y-75840931D01*
X89574000Y-76078757D01*
X89433000Y-76078757D01*
X89433000Y-73538757D01*
X89574000Y-73538757D01*
X89574000Y-73781243D01*
X89621307Y-74019069D01*
X89714102Y-74243097D01*
X89848820Y-74444717D01*
X90020283Y-74616180D01*
X90221903Y-74750898D01*
X90445931Y-74843693D01*
X90683757Y-74891000D01*
X90926243Y-74891000D01*
X91164069Y-74843693D01*
X91388097Y-74750898D01*
X91589717Y-74616180D01*
X91761180Y-74444717D01*
X91895898Y-74243097D01*
X91988693Y-74019069D01*
X92036000Y-73781243D01*
X92036000Y-73538757D01*
X91988693Y-73300931D01*
X91895898Y-73076903D01*
X91761180Y-72875283D01*
X91589717Y-72703820D01*
X91388097Y-72569102D01*
X91164069Y-72476307D01*
X90926243Y-72429000D01*
X90683757Y-72429000D01*
X90445931Y-72476307D01*
X90221903Y-72569102D01*
X90020283Y-72703820D01*
X89848820Y-72875283D01*
X89714102Y-73076903D01*
X89621307Y-73300931D01*
X89574000Y-73538757D01*
X89433000Y-73538757D01*
X89433000Y-70998757D01*
X89574000Y-70998757D01*
X89574000Y-71241243D01*
X89621307Y-71479069D01*
X89714102Y-71703097D01*
X89848820Y-71904717D01*
X90020283Y-72076180D01*
X90221903Y-72210898D01*
X90445931Y-72303693D01*
X90683757Y-72351000D01*
X90926243Y-72351000D01*
X91164069Y-72303693D01*
X91388097Y-72210898D01*
X91589717Y-72076180D01*
X91761180Y-71904717D01*
X91895898Y-71703097D01*
X91988693Y-71479069D01*
X92036000Y-71241243D01*
X92036000Y-70998757D01*
X91988693Y-70760931D01*
X91895898Y-70536903D01*
X91761180Y-70335283D01*
X91589717Y-70163820D01*
X91388097Y-70029102D01*
X91164069Y-69936307D01*
X90926243Y-69889000D01*
X90683757Y-69889000D01*
X90445931Y-69936307D01*
X90221903Y-70029102D01*
X90020283Y-70163820D01*
X89848820Y-70335283D01*
X89714102Y-70536903D01*
X89621307Y-70760931D01*
X89574000Y-70998757D01*
X89433000Y-70998757D01*
X89433000Y-68458757D01*
X89574000Y-68458757D01*
X89574000Y-68701243D01*
X89621307Y-68939069D01*
X89714102Y-69163097D01*
X89848820Y-69364717D01*
X90020283Y-69536180D01*
X90221903Y-69670898D01*
X90445931Y-69763693D01*
X90683757Y-69811000D01*
X90926243Y-69811000D01*
X91164069Y-69763693D01*
X91388097Y-69670898D01*
X91589717Y-69536180D01*
X91761180Y-69364717D01*
X91895898Y-69163097D01*
X91988693Y-68939069D01*
X92036000Y-68701243D01*
X92036000Y-68458757D01*
X91988693Y-68220931D01*
X91895898Y-67996903D01*
X91761180Y-67795283D01*
X91589717Y-67623820D01*
X91388097Y-67489102D01*
X91164069Y-67396307D01*
X90926243Y-67349000D01*
X90683757Y-67349000D01*
X90445931Y-67396307D01*
X90221903Y-67489102D01*
X90020283Y-67623820D01*
X89848820Y-67795283D01*
X89714102Y-67996903D01*
X89621307Y-68220931D01*
X89574000Y-68458757D01*
X89433000Y-68458757D01*
X89433000Y-65918757D01*
X89574000Y-65918757D01*
X89574000Y-66161243D01*
X89621307Y-66399069D01*
X89714102Y-66623097D01*
X89848820Y-66824717D01*
X90020283Y-66996180D01*
X90221903Y-67130898D01*
X90445931Y-67223693D01*
X90683757Y-67271000D01*
X90926243Y-67271000D01*
X91164069Y-67223693D01*
X91388097Y-67130898D01*
X91589717Y-66996180D01*
X91761180Y-66824717D01*
X91895898Y-66623097D01*
X91988693Y-66399069D01*
X92036000Y-66161243D01*
X92036000Y-65918757D01*
X91988693Y-65680931D01*
X91895898Y-65456903D01*
X91761180Y-65255283D01*
X91589717Y-65083820D01*
X91388097Y-64949102D01*
X91164069Y-64856307D01*
X90926243Y-64809000D01*
X90683757Y-64809000D01*
X90445931Y-64856307D01*
X90221903Y-64949102D01*
X90020283Y-65083820D01*
X89848820Y-65255283D01*
X89714102Y-65456903D01*
X89621307Y-65680931D01*
X89574000Y-65918757D01*
X89433000Y-65918757D01*
X89433000Y-63378757D01*
X89574000Y-63378757D01*
X89574000Y-63621243D01*
X89621307Y-63859069D01*
X89714102Y-64083097D01*
X89848820Y-64284717D01*
X90020283Y-64456180D01*
X90221903Y-64590898D01*
X90445931Y-64683693D01*
X90683757Y-64731000D01*
X90926243Y-64731000D01*
X91164069Y-64683693D01*
X91388097Y-64590898D01*
X91589717Y-64456180D01*
X91761180Y-64284717D01*
X91895898Y-64083097D01*
X91988693Y-63859069D01*
X92036000Y-63621243D01*
X92036000Y-63378757D01*
X91988693Y-63140931D01*
X91895898Y-62916903D01*
X91761180Y-62715283D01*
X91589717Y-62543820D01*
X91388097Y-62409102D01*
X91164069Y-62316307D01*
X90926243Y-62269000D01*
X90683757Y-62269000D01*
X90445931Y-62316307D01*
X90221903Y-62409102D01*
X90020283Y-62543820D01*
X89848820Y-62715283D01*
X89714102Y-62916903D01*
X89621307Y-63140931D01*
X89574000Y-63378757D01*
X89433000Y-63378757D01*
X89433000Y-60838757D01*
X89574000Y-60838757D01*
X89574000Y-61081243D01*
X89621307Y-61319069D01*
X89714102Y-61543097D01*
X89848820Y-61744717D01*
X90020283Y-61916180D01*
X90221903Y-62050898D01*
X90445931Y-62143693D01*
X90683757Y-62191000D01*
X90926243Y-62191000D01*
X91164069Y-62143693D01*
X91388097Y-62050898D01*
X91589717Y-61916180D01*
X91761180Y-61744717D01*
X91895898Y-61543097D01*
X91988693Y-61319069D01*
X92036000Y-61081243D01*
X92036000Y-60838757D01*
X91988693Y-60600931D01*
X91895898Y-60376903D01*
X91761180Y-60175283D01*
X91589717Y-60003820D01*
X91388097Y-59869102D01*
X91164069Y-59776307D01*
X90926243Y-59729000D01*
X90683757Y-59729000D01*
X90445931Y-59776307D01*
X90221903Y-59869102D01*
X90020283Y-60003820D01*
X89848820Y-60175283D01*
X89714102Y-60376903D01*
X89621307Y-60600931D01*
X89574000Y-60838757D01*
X89433000Y-60838757D01*
X89433000Y-58298757D01*
X89574000Y-58298757D01*
X89574000Y-58541243D01*
X89621307Y-58779069D01*
X89714102Y-59003097D01*
X89848820Y-59204717D01*
X90020283Y-59376180D01*
X90221903Y-59510898D01*
X90445931Y-59603693D01*
X90683757Y-59651000D01*
X90926243Y-59651000D01*
X91164069Y-59603693D01*
X91388097Y-59510898D01*
X91589717Y-59376180D01*
X91761180Y-59204717D01*
X91895898Y-59003097D01*
X91988693Y-58779069D01*
X92036000Y-58541243D01*
X92036000Y-58298757D01*
X91988693Y-58060931D01*
X91895898Y-57836903D01*
X91761180Y-57635283D01*
X91589717Y-57463820D01*
X91388097Y-57329102D01*
X91164069Y-57236307D01*
X90926243Y-57189000D01*
X90683757Y-57189000D01*
X90445931Y-57236307D01*
X90221903Y-57329102D01*
X90020283Y-57463820D01*
X89848820Y-57635283D01*
X89714102Y-57836903D01*
X89621307Y-58060931D01*
X89574000Y-58298757D01*
X89433000Y-58298757D01*
X89433000Y-56196980D01*
X89615511Y-56196980D01*
X89639866Y-56277288D01*
X89739761Y-56496961D01*
X89880592Y-56692924D01*
X90056948Y-56857647D01*
X90262051Y-56984799D01*
X90488019Y-57069495D01*
X90678000Y-57009187D01*
X90678000Y-56007000D01*
X90932000Y-56007000D01*
X90932000Y-57009187D01*
X91121981Y-57069495D01*
X91347949Y-56984799D01*
X91553052Y-56857647D01*
X91729408Y-56692924D01*
X91870239Y-56496961D01*
X91970134Y-56277288D01*
X91994489Y-56196980D01*
X91933627Y-56007000D01*
X90932000Y-56007000D01*
X90678000Y-56007000D01*
X89676373Y-56007000D01*
X89615511Y-56196980D01*
X89433000Y-56196980D01*
X89433000Y-55563020D01*
X89615511Y-55563020D01*
X89676373Y-55753000D01*
X90678000Y-55753000D01*
X90678000Y-54750813D01*
X90932000Y-54750813D01*
X90932000Y-55753000D01*
X91933627Y-55753000D01*
X91994489Y-55563020D01*
X91970134Y-55482712D01*
X91870239Y-55263039D01*
X91729408Y-55067076D01*
X91553052Y-54902353D01*
X91347949Y-54775201D01*
X91121981Y-54690505D01*
X90932000Y-54750813D01*
X90678000Y-54750813D01*
X90488019Y-54690505D01*
X90262051Y-54775201D01*
X90056948Y-54902353D01*
X89880592Y-55067076D01*
X89739761Y-55263039D01*
X89639866Y-55482712D01*
X89615511Y-55563020D01*
X89433000Y-55563020D01*
X89433000Y-53218757D01*
X89574000Y-53218757D01*
X89574000Y-53461243D01*
X89621307Y-53699069D01*
X89714102Y-53923097D01*
X89848820Y-54124717D01*
X90020283Y-54296180D01*
X90221903Y-54430898D01*
X90445931Y-54523693D01*
X90683757Y-54571000D01*
X90926243Y-54571000D01*
X91164069Y-54523693D01*
X91388097Y-54430898D01*
X91589717Y-54296180D01*
X91761180Y-54124717D01*
X91895898Y-53923097D01*
X91988693Y-53699069D01*
X92036000Y-53461243D01*
X92036000Y-53218757D01*
X92114000Y-53218757D01*
X92114000Y-53461243D01*
X92161307Y-53699069D01*
X92254102Y-53923097D01*
X92388820Y-54124717D01*
X92560283Y-54296180D01*
X92761903Y-54430898D01*
X92985931Y-54523693D01*
X93223757Y-54571000D01*
X93466243Y-54571000D01*
X93704069Y-54523693D01*
X93781167Y-54491758D01*
X94214228Y-54924820D01*
X94230073Y-54944127D01*
X94307121Y-55007359D01*
X94395025Y-55054345D01*
X94490406Y-55083278D01*
X94500294Y-55084252D01*
X94564746Y-55090600D01*
X94564753Y-55090600D01*
X94589599Y-55093047D01*
X94614445Y-55090600D01*
X96213686Y-55090600D01*
X96089761Y-55263039D01*
X95989866Y-55482712D01*
X95965511Y-55563020D01*
X96026373Y-55753000D01*
X97028000Y-55753000D01*
X97028000Y-55733000D01*
X97282000Y-55733000D01*
X97282000Y-55753000D01*
X98283627Y-55753000D01*
X98344489Y-55563020D01*
X98320134Y-55482712D01*
X98220239Y-55263039D01*
X98096314Y-55090600D01*
X98425554Y-55090600D01*
X98450400Y-55093047D01*
X98475246Y-55090600D01*
X98475254Y-55090600D01*
X98549593Y-55083278D01*
X98644975Y-55054345D01*
X98732879Y-55007359D01*
X98809927Y-54944127D01*
X98825776Y-54924815D01*
X99258833Y-54491758D01*
X99335931Y-54523693D01*
X99573757Y-54571000D01*
X99816243Y-54571000D01*
X100054069Y-54523693D01*
X100278097Y-54430898D01*
X100479717Y-54296180D01*
X100651180Y-54124717D01*
X100785898Y-53923097D01*
X100878693Y-53699069D01*
X100926000Y-53461243D01*
X100926000Y-53218757D01*
X100878693Y-52980931D01*
X100846758Y-52903833D01*
X100969574Y-52781018D01*
X100967000Y-52807147D01*
X100967000Y-52807154D01*
X100964553Y-52832000D01*
X100967000Y-52856847D01*
X100967001Y-53892407D01*
X100131167Y-54728242D01*
X100054069Y-54696307D01*
X99816243Y-54649000D01*
X99573757Y-54649000D01*
X99335931Y-54696307D01*
X99111903Y-54789102D01*
X98910283Y-54923820D01*
X98738820Y-55095283D01*
X98604102Y-55296903D01*
X98511307Y-55520931D01*
X98464000Y-55758757D01*
X98464000Y-56001243D01*
X98511307Y-56239069D01*
X98543242Y-56316167D01*
X98215409Y-56644000D01*
X98114568Y-56644000D01*
X98220239Y-56496961D01*
X98320134Y-56277288D01*
X98344489Y-56196980D01*
X98283627Y-56007000D01*
X97282000Y-56007000D01*
X97282000Y-56027000D01*
X97028000Y-56027000D01*
X97028000Y-56007000D01*
X96026373Y-56007000D01*
X95965511Y-56196980D01*
X95989866Y-56277288D01*
X96089761Y-56496961D01*
X96195432Y-56644000D01*
X94824592Y-56644000D01*
X94496758Y-56316167D01*
X94528693Y-56239069D01*
X94576000Y-56001243D01*
X94576000Y-55758757D01*
X94528693Y-55520931D01*
X94435898Y-55296903D01*
X94301180Y-55095283D01*
X94129717Y-54923820D01*
X93928097Y-54789102D01*
X93704069Y-54696307D01*
X93466243Y-54649000D01*
X93223757Y-54649000D01*
X92985931Y-54696307D01*
X92761903Y-54789102D01*
X92560283Y-54923820D01*
X92388820Y-55095283D01*
X92254102Y-55296903D01*
X92161307Y-55520931D01*
X92114000Y-55758757D01*
X92114000Y-56001243D01*
X92161307Y-56239069D01*
X92254102Y-56463097D01*
X92388820Y-56664717D01*
X92560283Y-56836180D01*
X92761903Y-56970898D01*
X92985931Y-57063693D01*
X93223757Y-57111000D01*
X93466243Y-57111000D01*
X93704069Y-57063693D01*
X93781167Y-57031758D01*
X94239628Y-57490220D01*
X94255473Y-57509527D01*
X94332521Y-57572759D01*
X94420425Y-57619745D01*
X94515806Y-57648678D01*
X94525694Y-57649652D01*
X94590146Y-57656000D01*
X94590153Y-57656000D01*
X94614999Y-57658447D01*
X94639845Y-57656000D01*
X96184977Y-57656000D01*
X96064102Y-57836903D01*
X95971307Y-58060931D01*
X95924000Y-58298757D01*
X95924000Y-58541243D01*
X95971307Y-58779069D01*
X96064102Y-59003097D01*
X96184977Y-59184000D01*
X94824592Y-59184000D01*
X94496758Y-58856167D01*
X94528693Y-58779069D01*
X94576000Y-58541243D01*
X94576000Y-58298757D01*
X94528693Y-58060931D01*
X94435898Y-57836903D01*
X94301180Y-57635283D01*
X94129717Y-57463820D01*
X93928097Y-57329102D01*
X93704069Y-57236307D01*
X93466243Y-57189000D01*
X93223757Y-57189000D01*
X92985931Y-57236307D01*
X92761903Y-57329102D01*
X92560283Y-57463820D01*
X92388820Y-57635283D01*
X92254102Y-57836903D01*
X92161307Y-58060931D01*
X92114000Y-58298757D01*
X92114000Y-58541243D01*
X92161307Y-58779069D01*
X92254102Y-59003097D01*
X92388820Y-59204717D01*
X92560283Y-59376180D01*
X92761903Y-59510898D01*
X92985931Y-59603693D01*
X93223757Y-59651000D01*
X93466243Y-59651000D01*
X93704069Y-59603693D01*
X93781167Y-59571758D01*
X94239628Y-60030220D01*
X94255473Y-60049527D01*
X94332521Y-60112759D01*
X94420425Y-60159745D01*
X94515806Y-60188678D01*
X94525694Y-60189652D01*
X94590146Y-60196000D01*
X94590153Y-60196000D01*
X94614999Y-60198447D01*
X94639845Y-60196000D01*
X96184977Y-60196000D01*
X96064102Y-60376903D01*
X95971307Y-60600931D01*
X95924000Y-60838757D01*
X95924000Y-61081243D01*
X95971307Y-61319069D01*
X96064102Y-61543097D01*
X96168006Y-61698600D01*
X94799192Y-61698600D01*
X94496758Y-61396167D01*
X94528693Y-61319069D01*
X94576000Y-61081243D01*
X94576000Y-60838757D01*
X94528693Y-60600931D01*
X94435898Y-60376903D01*
X94301180Y-60175283D01*
X94129717Y-60003820D01*
X93928097Y-59869102D01*
X93704069Y-59776307D01*
X93466243Y-59729000D01*
X93223757Y-59729000D01*
X92985931Y-59776307D01*
X92761903Y-59869102D01*
X92560283Y-60003820D01*
X92388820Y-60175283D01*
X92254102Y-60376903D01*
X92161307Y-60600931D01*
X92114000Y-60838757D01*
X92114000Y-61081243D01*
X92161307Y-61319069D01*
X92254102Y-61543097D01*
X92388820Y-61744717D01*
X92560283Y-61916180D01*
X92761903Y-62050898D01*
X92985931Y-62143693D01*
X93223757Y-62191000D01*
X93466243Y-62191000D01*
X93704069Y-62143693D01*
X93781167Y-62111758D01*
X94214228Y-62544820D01*
X94230073Y-62564127D01*
X94307121Y-62627359D01*
X94395025Y-62674345D01*
X94490406Y-62703278D01*
X94500294Y-62704252D01*
X94564746Y-62710600D01*
X94564753Y-62710600D01*
X94589599Y-62713047D01*
X94614445Y-62710600D01*
X96203503Y-62710600D01*
X96198820Y-62715283D01*
X96064102Y-62916903D01*
X95971307Y-63140931D01*
X95924000Y-63378757D01*
X95924000Y-63621243D01*
X95971307Y-63859069D01*
X96064102Y-64083097D01*
X96151034Y-64213200D01*
X94773792Y-64213200D01*
X94496758Y-63936167D01*
X94528693Y-63859069D01*
X94576000Y-63621243D01*
X94576000Y-63378757D01*
X94528693Y-63140931D01*
X94435898Y-62916903D01*
X94301180Y-62715283D01*
X94129717Y-62543820D01*
X93928097Y-62409102D01*
X93704069Y-62316307D01*
X93466243Y-62269000D01*
X93223757Y-62269000D01*
X92985931Y-62316307D01*
X92761903Y-62409102D01*
X92560283Y-62543820D01*
X92388820Y-62715283D01*
X92254102Y-62916903D01*
X92161307Y-63140931D01*
X92114000Y-63378757D01*
X92114000Y-63621243D01*
X92161307Y-63859069D01*
X92254102Y-64083097D01*
X92388820Y-64284717D01*
X92560283Y-64456180D01*
X92761903Y-64590898D01*
X92985931Y-64683693D01*
X93223757Y-64731000D01*
X93466243Y-64731000D01*
X93704069Y-64683693D01*
X93781167Y-64651758D01*
X94188828Y-65059420D01*
X94204673Y-65078727D01*
X94281721Y-65141959D01*
X94369625Y-65188945D01*
X94465006Y-65217878D01*
X94474894Y-65218852D01*
X94539346Y-65225200D01*
X94539353Y-65225200D01*
X94564199Y-65227647D01*
X94589045Y-65225200D01*
X96228903Y-65225200D01*
X96198820Y-65255283D01*
X96064102Y-65456903D01*
X95971307Y-65680931D01*
X95924000Y-65918757D01*
X95924000Y-66161243D01*
X95971307Y-66399069D01*
X96064102Y-66623097D01*
X96184977Y-66804000D01*
X94824592Y-66804000D01*
X94496758Y-66476167D01*
X94528693Y-66399069D01*
X94576000Y-66161243D01*
X94576000Y-65918757D01*
X94528693Y-65680931D01*
X94435898Y-65456903D01*
X94301180Y-65255283D01*
X94129717Y-65083820D01*
X93928097Y-64949102D01*
X93704069Y-64856307D01*
X93466243Y-64809000D01*
X93223757Y-64809000D01*
X92985931Y-64856307D01*
X92761903Y-64949102D01*
X92560283Y-65083820D01*
X92388820Y-65255283D01*
X92254102Y-65456903D01*
X92161307Y-65680931D01*
X92114000Y-65918757D01*
X92114000Y-66161243D01*
X92161307Y-66399069D01*
X92254102Y-66623097D01*
X92388820Y-66824717D01*
X92560283Y-66996180D01*
X92761903Y-67130898D01*
X92985931Y-67223693D01*
X93223757Y-67271000D01*
X93466243Y-67271000D01*
X93704069Y-67223693D01*
X93781167Y-67191758D01*
X94239628Y-67650220D01*
X94255473Y-67669527D01*
X94332521Y-67732759D01*
X94420425Y-67779745D01*
X94515806Y-67808678D01*
X94525694Y-67809652D01*
X94590146Y-67816000D01*
X94590153Y-67816000D01*
X94614999Y-67818447D01*
X94639845Y-67816000D01*
X96184977Y-67816000D01*
X96064102Y-67996903D01*
X95971307Y-68220931D01*
X95924000Y-68458757D01*
X95924000Y-68701243D01*
X95971307Y-68939069D01*
X96064102Y-69163097D01*
X96184977Y-69344000D01*
X94824592Y-69344000D01*
X94496758Y-69016167D01*
X94528693Y-68939069D01*
X94576000Y-68701243D01*
X94576000Y-68458757D01*
X94528693Y-68220931D01*
X94435898Y-67996903D01*
X94301180Y-67795283D01*
X94129717Y-67623820D01*
X93928097Y-67489102D01*
X93704069Y-67396307D01*
X93466243Y-67349000D01*
X93223757Y-67349000D01*
X92985931Y-67396307D01*
X92761903Y-67489102D01*
X92560283Y-67623820D01*
X92388820Y-67795283D01*
X92254102Y-67996903D01*
X92161307Y-68220931D01*
X92114000Y-68458757D01*
X92114000Y-68701243D01*
X92161307Y-68939069D01*
X92254102Y-69163097D01*
X92388820Y-69364717D01*
X92560283Y-69536180D01*
X92761903Y-69670898D01*
X92985931Y-69763693D01*
X93223757Y-69811000D01*
X93466243Y-69811000D01*
X93704069Y-69763693D01*
X93781167Y-69731758D01*
X94239628Y-70190220D01*
X94255473Y-70209527D01*
X94332521Y-70272759D01*
X94420425Y-70319745D01*
X94515806Y-70348678D01*
X94525694Y-70349652D01*
X94590146Y-70356000D01*
X94590153Y-70356000D01*
X94614999Y-70358447D01*
X94639845Y-70356000D01*
X96184977Y-70356000D01*
X96064102Y-70536903D01*
X95971307Y-70760931D01*
X95924000Y-70998757D01*
X95924000Y-71241243D01*
X95971307Y-71479069D01*
X96064102Y-71703097D01*
X96168006Y-71858600D01*
X94799192Y-71858600D01*
X94496758Y-71556167D01*
X94528693Y-71479069D01*
X94576000Y-71241243D01*
X94576000Y-70998757D01*
X94528693Y-70760931D01*
X94435898Y-70536903D01*
X94301180Y-70335283D01*
X94129717Y-70163820D01*
X93928097Y-70029102D01*
X93704069Y-69936307D01*
X93466243Y-69889000D01*
X93223757Y-69889000D01*
X92985931Y-69936307D01*
X92761903Y-70029102D01*
X92560283Y-70163820D01*
X92388820Y-70335283D01*
X92254102Y-70536903D01*
X92161307Y-70760931D01*
X92114000Y-70998757D01*
X92114000Y-71241243D01*
X92161307Y-71479069D01*
X92254102Y-71703097D01*
X92388820Y-71904717D01*
X92560283Y-72076180D01*
X92761903Y-72210898D01*
X92985931Y-72303693D01*
X93223757Y-72351000D01*
X93466243Y-72351000D01*
X93704069Y-72303693D01*
X93781167Y-72271758D01*
X94214228Y-72704820D01*
X94230073Y-72724127D01*
X94307121Y-72787359D01*
X94395025Y-72834345D01*
X94490406Y-72863278D01*
X94500294Y-72864252D01*
X94564746Y-72870600D01*
X94564753Y-72870600D01*
X94589599Y-72873047D01*
X94614445Y-72870600D01*
X96203503Y-72870600D01*
X96198820Y-72875283D01*
X96064102Y-73076903D01*
X95971307Y-73300931D01*
X95924000Y-73538757D01*
X95924000Y-73781243D01*
X95971307Y-74019069D01*
X96064102Y-74243097D01*
X96184977Y-74424000D01*
X94824592Y-74424000D01*
X94496758Y-74096167D01*
X94528693Y-74019069D01*
X94576000Y-73781243D01*
X94576000Y-73538757D01*
X94528693Y-73300931D01*
X94435898Y-73076903D01*
X94301180Y-72875283D01*
X94129717Y-72703820D01*
X93928097Y-72569102D01*
X93704069Y-72476307D01*
X93466243Y-72429000D01*
X93223757Y-72429000D01*
X92985931Y-72476307D01*
X92761903Y-72569102D01*
X92560283Y-72703820D01*
X92388820Y-72875283D01*
X92254102Y-73076903D01*
X92161307Y-73300931D01*
X92114000Y-73538757D01*
X92114000Y-73781243D01*
X92161307Y-74019069D01*
X92254102Y-74243097D01*
X92388820Y-74444717D01*
X92560283Y-74616180D01*
X92761903Y-74750898D01*
X92985931Y-74843693D01*
X93223757Y-74891000D01*
X93466243Y-74891000D01*
X93704069Y-74843693D01*
X93781167Y-74811758D01*
X94239628Y-75270220D01*
X94255473Y-75289527D01*
X94332521Y-75352759D01*
X94420425Y-75399745D01*
X94515806Y-75428678D01*
X94525694Y-75429652D01*
X94590146Y-75436000D01*
X94590153Y-75436000D01*
X94614999Y-75438447D01*
X94639845Y-75436000D01*
X96184977Y-75436000D01*
X96064102Y-75616903D01*
X95971307Y-75840931D01*
X95924000Y-76078757D01*
X95924000Y-76321243D01*
X95971307Y-76559069D01*
X96064102Y-76783097D01*
X96168006Y-76938600D01*
X94799192Y-76938600D01*
X94496758Y-76636167D01*
X94528693Y-76559069D01*
X94576000Y-76321243D01*
X94576000Y-76078757D01*
X94528693Y-75840931D01*
X94435898Y-75616903D01*
X94301180Y-75415283D01*
X94129717Y-75243820D01*
X93928097Y-75109102D01*
X93704069Y-75016307D01*
X93466243Y-74969000D01*
X93223757Y-74969000D01*
X92985931Y-75016307D01*
X92761903Y-75109102D01*
X92560283Y-75243820D01*
X92388820Y-75415283D01*
X92254102Y-75616903D01*
X92161307Y-75840931D01*
X92114000Y-76078757D01*
X92114000Y-76321243D01*
X92161307Y-76559069D01*
X92254102Y-76783097D01*
X92388820Y-76984717D01*
X92560283Y-77156180D01*
X92761903Y-77290898D01*
X92985931Y-77383693D01*
X93223757Y-77431000D01*
X93466243Y-77431000D01*
X93704069Y-77383693D01*
X93781167Y-77351758D01*
X94214228Y-77784820D01*
X94230073Y-77804127D01*
X94307121Y-77867359D01*
X94395025Y-77914345D01*
X94490406Y-77943278D01*
X94500294Y-77944252D01*
X94564746Y-77950600D01*
X94564753Y-77950600D01*
X94589599Y-77953047D01*
X94614445Y-77950600D01*
X96203503Y-77950600D01*
X96198820Y-77955283D01*
X96064102Y-78156903D01*
X95971307Y-78380931D01*
X95924000Y-78618757D01*
X95924000Y-78861243D01*
X95971307Y-79099069D01*
X96064102Y-79323097D01*
X96184977Y-79504000D01*
X94824592Y-79504000D01*
X94496758Y-79176167D01*
X94528693Y-79099069D01*
X94576000Y-78861243D01*
X94576000Y-78618757D01*
X94528693Y-78380931D01*
X94435898Y-78156903D01*
X94301180Y-77955283D01*
X94129717Y-77783820D01*
X93928097Y-77649102D01*
X93704069Y-77556307D01*
X93466243Y-77509000D01*
X93223757Y-77509000D01*
X92985931Y-77556307D01*
X92761903Y-77649102D01*
X92560283Y-77783820D01*
X92388820Y-77955283D01*
X92254102Y-78156903D01*
X92161307Y-78380931D01*
X92114000Y-78618757D01*
X92114000Y-78861243D01*
X92161307Y-79099069D01*
X92254102Y-79323097D01*
X92388820Y-79524717D01*
X92560283Y-79696180D01*
X92761903Y-79830898D01*
X92985931Y-79923693D01*
X93223757Y-79971000D01*
X93466243Y-79971000D01*
X93704069Y-79923693D01*
X93781167Y-79891758D01*
X94239628Y-80350220D01*
X94255473Y-80369527D01*
X94332521Y-80432759D01*
X94420425Y-80479745D01*
X94515806Y-80508678D01*
X94525694Y-80509652D01*
X94590146Y-80516000D01*
X94590153Y-80516000D01*
X94614999Y-80518447D01*
X94639845Y-80516000D01*
X96184977Y-80516000D01*
X96064102Y-80696903D01*
X95971307Y-80920931D01*
X95924000Y-81158757D01*
X95924000Y-81401243D01*
X95971307Y-81639069D01*
X96064102Y-81863097D01*
X96184977Y-82044000D01*
X94824592Y-82044000D01*
X94496758Y-81716167D01*
X94528693Y-81639069D01*
X94576000Y-81401243D01*
X94576000Y-81158757D01*
X94528693Y-80920931D01*
X94435898Y-80696903D01*
X94301180Y-80495283D01*
X94129717Y-80323820D01*
X93928097Y-80189102D01*
X93704069Y-80096307D01*
X93466243Y-80049000D01*
X93223757Y-80049000D01*
X92985931Y-80096307D01*
X92761903Y-80189102D01*
X92560283Y-80323820D01*
X92388820Y-80495283D01*
X92254102Y-80696903D01*
X92161307Y-80920931D01*
X92114000Y-81158757D01*
X92114000Y-81401243D01*
X92161307Y-81639069D01*
X92254102Y-81863097D01*
X92388820Y-82064717D01*
X92560283Y-82236180D01*
X92761903Y-82370898D01*
X92985931Y-82463693D01*
X93223757Y-82511000D01*
X93466243Y-82511000D01*
X93704069Y-82463693D01*
X93781167Y-82431758D01*
X94239628Y-82890220D01*
X94255473Y-82909527D01*
X94332521Y-82972759D01*
X94420425Y-83019745D01*
X94515806Y-83048678D01*
X94525694Y-83049652D01*
X94590146Y-83056000D01*
X94590153Y-83056000D01*
X94614999Y-83058447D01*
X94639845Y-83056000D01*
X96184977Y-83056000D01*
X96064102Y-83236903D01*
X95971307Y-83460931D01*
X95924000Y-83698757D01*
X95924000Y-83941243D01*
X95971307Y-84179069D01*
X96064102Y-84403097D01*
X96168006Y-84558600D01*
X94799192Y-84558600D01*
X94496758Y-84256167D01*
X94528693Y-84179069D01*
X94576000Y-83941243D01*
X94576000Y-83698757D01*
X94528693Y-83460931D01*
X94435898Y-83236903D01*
X94301180Y-83035283D01*
X94129717Y-82863820D01*
X93928097Y-82729102D01*
X93704069Y-82636307D01*
X93466243Y-82589000D01*
X93223757Y-82589000D01*
X92985931Y-82636307D01*
X92761903Y-82729102D01*
X92560283Y-82863820D01*
X92388820Y-83035283D01*
X92254102Y-83236903D01*
X92161307Y-83460931D01*
X92114000Y-83698757D01*
X92114000Y-83941243D01*
X92161307Y-84179069D01*
X92254102Y-84403097D01*
X92388820Y-84604717D01*
X92560283Y-84776180D01*
X92761903Y-84910898D01*
X92985931Y-85003693D01*
X93223757Y-85051000D01*
X93466243Y-85051000D01*
X93704069Y-85003693D01*
X93781167Y-84971758D01*
X94214228Y-85404820D01*
X94230073Y-85424127D01*
X94307121Y-85487359D01*
X94395025Y-85534345D01*
X94490406Y-85563278D01*
X94500294Y-85564252D01*
X94564746Y-85570600D01*
X94564753Y-85570600D01*
X94589599Y-85573047D01*
X94614445Y-85570600D01*
X96203503Y-85570600D01*
X96198820Y-85575283D01*
X96064102Y-85776903D01*
X95971307Y-86000931D01*
X95924000Y-86238757D01*
X95924000Y-86481243D01*
X95971307Y-86719069D01*
X96064102Y-86943097D01*
X96184977Y-87124000D01*
X94824592Y-87124000D01*
X94496758Y-86796167D01*
X94528693Y-86719069D01*
X94576000Y-86481243D01*
X94576000Y-86238757D01*
X94528693Y-86000931D01*
X94435898Y-85776903D01*
X94301180Y-85575283D01*
X94129717Y-85403820D01*
X93928097Y-85269102D01*
X93704069Y-85176307D01*
X93466243Y-85129000D01*
X93223757Y-85129000D01*
X92985931Y-85176307D01*
X92761903Y-85269102D01*
X92560283Y-85403820D01*
X92388820Y-85575283D01*
X92254102Y-85776903D01*
X92161307Y-86000931D01*
X92114000Y-86238757D01*
X92114000Y-86481243D01*
X92161307Y-86719069D01*
X92254102Y-86943097D01*
X92388820Y-87144717D01*
X92560283Y-87316180D01*
X92761903Y-87450898D01*
X92985931Y-87543693D01*
X93223757Y-87591000D01*
X93466243Y-87591000D01*
X93704069Y-87543693D01*
X93781167Y-87511758D01*
X94239628Y-87970220D01*
X94255473Y-87989527D01*
X94332521Y-88052759D01*
X94420425Y-88099745D01*
X94515806Y-88128678D01*
X94525694Y-88129652D01*
X94590146Y-88136000D01*
X94590153Y-88136000D01*
X94614999Y-88138447D01*
X94639845Y-88136000D01*
X96184977Y-88136000D01*
X96064102Y-88316903D01*
X95971307Y-88540931D01*
X95924000Y-88778757D01*
X95924000Y-89021243D01*
X95971307Y-89259069D01*
X96064102Y-89483097D01*
X96184977Y-89664000D01*
X94824592Y-89664000D01*
X94496758Y-89336167D01*
X94528693Y-89259069D01*
X94576000Y-89021243D01*
X94576000Y-88778757D01*
X94528693Y-88540931D01*
X94435898Y-88316903D01*
X94301180Y-88115283D01*
X94129717Y-87943820D01*
X93928097Y-87809102D01*
X93704069Y-87716307D01*
X93466243Y-87669000D01*
X93223757Y-87669000D01*
X92985931Y-87716307D01*
X92761903Y-87809102D01*
X92560283Y-87943820D01*
X92388820Y-88115283D01*
X92254102Y-88316903D01*
X92161307Y-88540931D01*
X92114000Y-88778757D01*
X92114000Y-89021243D01*
X92161307Y-89259069D01*
X92254102Y-89483097D01*
X92388820Y-89684717D01*
X92560283Y-89856180D01*
X92761903Y-89990898D01*
X92985931Y-90083693D01*
X93223757Y-90131000D01*
X93466243Y-90131000D01*
X93704069Y-90083693D01*
X93781167Y-90051758D01*
X94239628Y-90510220D01*
X94255473Y-90529527D01*
X94332521Y-90592759D01*
X94420425Y-90639745D01*
X94515806Y-90668678D01*
X94525694Y-90669652D01*
X94590146Y-90676000D01*
X94590153Y-90676000D01*
X94614999Y-90678447D01*
X94639845Y-90676000D01*
X96184977Y-90676000D01*
X96064102Y-90856903D01*
X95971307Y-91080931D01*
X95924000Y-91318757D01*
X95924000Y-91561243D01*
X95971307Y-91799069D01*
X96064102Y-92023097D01*
X96184977Y-92204000D01*
X94824592Y-92204000D01*
X94496758Y-91876167D01*
X94528693Y-91799069D01*
X94576000Y-91561243D01*
X94576000Y-91318757D01*
X94528693Y-91080931D01*
X94435898Y-90856903D01*
X94301180Y-90655283D01*
X94129717Y-90483820D01*
X93928097Y-90349102D01*
X93704069Y-90256307D01*
X93466243Y-90209000D01*
X93223757Y-90209000D01*
X92985931Y-90256307D01*
X92761903Y-90349102D01*
X92560283Y-90483820D01*
X92388820Y-90655283D01*
X92254102Y-90856903D01*
X92161307Y-91080931D01*
X92114000Y-91318757D01*
X92114000Y-91561243D01*
X92161307Y-91799069D01*
X92254102Y-92023097D01*
X92388820Y-92224717D01*
X92560283Y-92396180D01*
X92761903Y-92530898D01*
X92985931Y-92623693D01*
X93223757Y-92671000D01*
X93466243Y-92671000D01*
X93704069Y-92623693D01*
X93781167Y-92591758D01*
X94239628Y-93050220D01*
X94255473Y-93069527D01*
X94332521Y-93132759D01*
X94420425Y-93179745D01*
X94515806Y-93208678D01*
X94525694Y-93209652D01*
X94590146Y-93216000D01*
X94590153Y-93216000D01*
X94614999Y-93218447D01*
X94639845Y-93216000D01*
X96184977Y-93216000D01*
X96064102Y-93396903D01*
X95971307Y-93620931D01*
X95924000Y-93858757D01*
X95924000Y-94101243D01*
X95971307Y-94339069D01*
X96064102Y-94563097D01*
X96168006Y-94718600D01*
X94799192Y-94718600D01*
X94496758Y-94416167D01*
X94528693Y-94339069D01*
X94576000Y-94101243D01*
X94576000Y-93858757D01*
X94528693Y-93620931D01*
X94435898Y-93396903D01*
X94301180Y-93195283D01*
X94129717Y-93023820D01*
X93928097Y-92889102D01*
X93704069Y-92796307D01*
X93466243Y-92749000D01*
X93223757Y-92749000D01*
X92985931Y-92796307D01*
X92761903Y-92889102D01*
X92560283Y-93023820D01*
X92388820Y-93195283D01*
X92254102Y-93396903D01*
X92161307Y-93620931D01*
X92114000Y-93858757D01*
X92114000Y-94101243D01*
X92161307Y-94339069D01*
X92254102Y-94563097D01*
X92388820Y-94764717D01*
X92560283Y-94936180D01*
X92761903Y-95070898D01*
X92985931Y-95163693D01*
X93223757Y-95211000D01*
X93466243Y-95211000D01*
X93704069Y-95163693D01*
X93781167Y-95131758D01*
X94214228Y-95564820D01*
X94230073Y-95584127D01*
X94307121Y-95647359D01*
X94395025Y-95694345D01*
X94490406Y-95723278D01*
X94500294Y-95724252D01*
X94564746Y-95730600D01*
X94564753Y-95730600D01*
X94589599Y-95733047D01*
X94614445Y-95730600D01*
X98425554Y-95730600D01*
X98450400Y-95733047D01*
X98475246Y-95730600D01*
X98475254Y-95730600D01*
X98549593Y-95723278D01*
X98644975Y-95694345D01*
X98732879Y-95647359D01*
X98809927Y-95584127D01*
X98825776Y-95564815D01*
X99258833Y-95131758D01*
X99335931Y-95163693D01*
X99573757Y-95211000D01*
X99816243Y-95211000D01*
X100054069Y-95163693D01*
X100278097Y-95070898D01*
X100479717Y-94936180D01*
X100651180Y-94764717D01*
X100785898Y-94563097D01*
X100878693Y-94339069D01*
X100926000Y-94101243D01*
X100926000Y-93858757D01*
X100878693Y-93620931D01*
X100826865Y-93495807D01*
X103845220Y-90477453D01*
X103864527Y-90461608D01*
X103927759Y-90384560D01*
X103974745Y-90296656D01*
X104003678Y-90201274D01*
X104011000Y-90126935D01*
X104013448Y-90102081D01*
X104011000Y-90077227D01*
X104011000Y-90022832D01*
X104088097Y-89990898D01*
X104289717Y-89856180D01*
X104461180Y-89684717D01*
X104595898Y-89483097D01*
X104688693Y-89259069D01*
X104736000Y-89021243D01*
X104736000Y-88778757D01*
X104814000Y-88778757D01*
X104814000Y-89021243D01*
X104861307Y-89259069D01*
X104954102Y-89483097D01*
X105088820Y-89684717D01*
X105260283Y-89856180D01*
X105461903Y-89990898D01*
X105685931Y-90083693D01*
X105923757Y-90131000D01*
X106166243Y-90131000D01*
X106404069Y-90083693D01*
X106628097Y-89990898D01*
X106829717Y-89856180D01*
X107001180Y-89684717D01*
X107135898Y-89483097D01*
X107228693Y-89259069D01*
X107276000Y-89021243D01*
X107276000Y-88778757D01*
X107228693Y-88540931D01*
X107135898Y-88316903D01*
X107001180Y-88115283D01*
X106829717Y-87943820D01*
X106628097Y-87809102D01*
X106404069Y-87716307D01*
X106166243Y-87669000D01*
X105923757Y-87669000D01*
X105685931Y-87716307D01*
X105461903Y-87809102D01*
X105260283Y-87943820D01*
X105088820Y-88115283D01*
X104954102Y-88316903D01*
X104861307Y-88540931D01*
X104814000Y-88778757D01*
X104736000Y-88778757D01*
X104688693Y-88540931D01*
X104595898Y-88316903D01*
X104461180Y-88115283D01*
X104289717Y-87943820D01*
X104088097Y-87809102D01*
X103864069Y-87716307D01*
X103626243Y-87669000D01*
X103383757Y-87669000D01*
X103145931Y-87716307D01*
X102921903Y-87809102D01*
X102720283Y-87943820D01*
X102548820Y-88115283D01*
X102414102Y-88316903D01*
X102321307Y-88540931D01*
X102274000Y-88778757D01*
X102274000Y-89021243D01*
X102321307Y-89259069D01*
X102414102Y-89483097D01*
X102548820Y-89684717D01*
X102720283Y-89856180D01*
X102909127Y-89982362D01*
X100083141Y-92808349D01*
X100054069Y-92796307D01*
X99816243Y-92749000D01*
X99573757Y-92749000D01*
X99335931Y-92796307D01*
X99111903Y-92889102D01*
X98910283Y-93023820D01*
X98738820Y-93195283D01*
X98604102Y-93396903D01*
X98511307Y-93620931D01*
X98464000Y-93858757D01*
X98464000Y-94101243D01*
X98511307Y-94339069D01*
X98543242Y-94416167D01*
X98240809Y-94718600D01*
X98141994Y-94718600D01*
X98245898Y-94563097D01*
X98338693Y-94339069D01*
X98386000Y-94101243D01*
X98386000Y-93858757D01*
X98338693Y-93620931D01*
X98245898Y-93396903D01*
X98125023Y-93216000D01*
X98400154Y-93216000D01*
X98425000Y-93218447D01*
X98449846Y-93216000D01*
X98449854Y-93216000D01*
X98524193Y-93208678D01*
X98619575Y-93179745D01*
X98707479Y-93132759D01*
X98784527Y-93069527D01*
X98800376Y-93050215D01*
X99258833Y-92591758D01*
X99335931Y-92623693D01*
X99573757Y-92671000D01*
X99816243Y-92671000D01*
X100054069Y-92623693D01*
X100278097Y-92530898D01*
X100479717Y-92396180D01*
X100651180Y-92224717D01*
X100785898Y-92023097D01*
X100878693Y-91799069D01*
X100926000Y-91561243D01*
X100926000Y-91318757D01*
X100878693Y-91080931D01*
X100846758Y-91003833D01*
X101813220Y-90037372D01*
X101832527Y-90021527D01*
X101895759Y-89944479D01*
X101942745Y-89856575D01*
X101971678Y-89761193D01*
X101979000Y-89686854D01*
X101981448Y-89662000D01*
X101979000Y-89637146D01*
X101979000Y-88601591D01*
X103068833Y-87511758D01*
X103145931Y-87543693D01*
X103383757Y-87591000D01*
X103626243Y-87591000D01*
X103864069Y-87543693D01*
X104088097Y-87450898D01*
X104289717Y-87316180D01*
X104461180Y-87144717D01*
X104595898Y-86943097D01*
X104688693Y-86719069D01*
X104736000Y-86481243D01*
X104736000Y-86238757D01*
X104814000Y-86238757D01*
X104814000Y-86481243D01*
X104861307Y-86719069D01*
X104954102Y-86943097D01*
X105088820Y-87144717D01*
X105260283Y-87316180D01*
X105461903Y-87450898D01*
X105685931Y-87543693D01*
X105923757Y-87591000D01*
X106166243Y-87591000D01*
X106404069Y-87543693D01*
X106628097Y-87450898D01*
X106829717Y-87316180D01*
X107001180Y-87144717D01*
X107135898Y-86943097D01*
X107228693Y-86719069D01*
X107276000Y-86481243D01*
X107276000Y-86238757D01*
X107228693Y-86000931D01*
X107135898Y-85776903D01*
X107001180Y-85575283D01*
X106829717Y-85403820D01*
X106628097Y-85269102D01*
X106404069Y-85176307D01*
X106166243Y-85129000D01*
X105923757Y-85129000D01*
X105685931Y-85176307D01*
X105461903Y-85269102D01*
X105260283Y-85403820D01*
X105088820Y-85575283D01*
X104954102Y-85776903D01*
X104861307Y-86000931D01*
X104814000Y-86238757D01*
X104736000Y-86238757D01*
X104688693Y-86000931D01*
X104595898Y-85776903D01*
X104461180Y-85575283D01*
X104289717Y-85403820D01*
X104088097Y-85269102D01*
X103864069Y-85176307D01*
X103626243Y-85129000D01*
X103383757Y-85129000D01*
X103145931Y-85176307D01*
X102921903Y-85269102D01*
X102720283Y-85403820D01*
X102548820Y-85575283D01*
X102414102Y-85776903D01*
X102321307Y-86000931D01*
X102274000Y-86238757D01*
X102274000Y-86481243D01*
X102321307Y-86719069D01*
X102353242Y-86796167D01*
X101976427Y-87172982D01*
X101979000Y-87146854D01*
X101981448Y-87122000D01*
X101979000Y-87097146D01*
X101979000Y-86061591D01*
X103068833Y-84971758D01*
X103145931Y-85003693D01*
X103383757Y-85051000D01*
X103626243Y-85051000D01*
X103864069Y-85003693D01*
X104088097Y-84910898D01*
X104289717Y-84776180D01*
X104461180Y-84604717D01*
X104595898Y-84403097D01*
X104688693Y-84179069D01*
X104736000Y-83941243D01*
X104736000Y-83698757D01*
X104814000Y-83698757D01*
X104814000Y-83941243D01*
X104861307Y-84179069D01*
X104954102Y-84403097D01*
X105088820Y-84604717D01*
X105260283Y-84776180D01*
X105461903Y-84910898D01*
X105685931Y-85003693D01*
X105923757Y-85051000D01*
X106166243Y-85051000D01*
X106404069Y-85003693D01*
X106628097Y-84910898D01*
X106829717Y-84776180D01*
X107001180Y-84604717D01*
X107135898Y-84403097D01*
X107228693Y-84179069D01*
X107276000Y-83941243D01*
X107276000Y-83698757D01*
X107228693Y-83460931D01*
X107135898Y-83236903D01*
X107001180Y-83035283D01*
X106829717Y-82863820D01*
X106628097Y-82729102D01*
X106404069Y-82636307D01*
X106166243Y-82589000D01*
X105923757Y-82589000D01*
X105685931Y-82636307D01*
X105461903Y-82729102D01*
X105260283Y-82863820D01*
X105088820Y-83035283D01*
X104954102Y-83236903D01*
X104861307Y-83460931D01*
X104814000Y-83698757D01*
X104736000Y-83698757D01*
X104688693Y-83460931D01*
X104595898Y-83236903D01*
X104461180Y-83035283D01*
X104289717Y-82863820D01*
X104088097Y-82729102D01*
X103864069Y-82636307D01*
X103626243Y-82589000D01*
X103383757Y-82589000D01*
X103145931Y-82636307D01*
X102921903Y-82729102D01*
X102720283Y-82863820D01*
X102548820Y-83035283D01*
X102414102Y-83236903D01*
X102321307Y-83460931D01*
X102274000Y-83698757D01*
X102274000Y-83941243D01*
X102321307Y-84179069D01*
X102353242Y-84256167D01*
X101976427Y-84632982D01*
X101979000Y-84606854D01*
X101981448Y-84582000D01*
X101979000Y-84557146D01*
X101979000Y-83521591D01*
X103068833Y-82431758D01*
X103145931Y-82463693D01*
X103383757Y-82511000D01*
X103626243Y-82511000D01*
X103864069Y-82463693D01*
X104088097Y-82370898D01*
X104289717Y-82236180D01*
X104461180Y-82064717D01*
X104595898Y-81863097D01*
X104688693Y-81639069D01*
X104736000Y-81401243D01*
X104736000Y-81158757D01*
X104814000Y-81158757D01*
X104814000Y-81401243D01*
X104861307Y-81639069D01*
X104954102Y-81863097D01*
X105088820Y-82064717D01*
X105260283Y-82236180D01*
X105461903Y-82370898D01*
X105685931Y-82463693D01*
X105923757Y-82511000D01*
X106166243Y-82511000D01*
X106404069Y-82463693D01*
X106628097Y-82370898D01*
X106829717Y-82236180D01*
X107001180Y-82064717D01*
X107135898Y-81863097D01*
X107228693Y-81639069D01*
X107276000Y-81401243D01*
X107276000Y-81158757D01*
X107228693Y-80920931D01*
X107135898Y-80696903D01*
X107001180Y-80495283D01*
X106829717Y-80323820D01*
X106628097Y-80189102D01*
X106404069Y-80096307D01*
X106166243Y-80049000D01*
X105923757Y-80049000D01*
X105685931Y-80096307D01*
X105461903Y-80189102D01*
X105260283Y-80323820D01*
X105088820Y-80495283D01*
X104954102Y-80696903D01*
X104861307Y-80920931D01*
X104814000Y-81158757D01*
X104736000Y-81158757D01*
X104688693Y-80920931D01*
X104595898Y-80696903D01*
X104461180Y-80495283D01*
X104289717Y-80323820D01*
X104088097Y-80189102D01*
X103864069Y-80096307D01*
X103626243Y-80049000D01*
X103383757Y-80049000D01*
X103145931Y-80096307D01*
X102921903Y-80189102D01*
X102720283Y-80323820D01*
X102548820Y-80495283D01*
X102414102Y-80696903D01*
X102321307Y-80920931D01*
X102274000Y-81158757D01*
X102274000Y-81401243D01*
X102321307Y-81639069D01*
X102353242Y-81716167D01*
X101976427Y-82092982D01*
X101979000Y-82066854D01*
X101981448Y-82042000D01*
X101979000Y-82017146D01*
X101979000Y-80981591D01*
X103068833Y-79891758D01*
X103145931Y-79923693D01*
X103383757Y-79971000D01*
X103626243Y-79971000D01*
X103864069Y-79923693D01*
X104088097Y-79830898D01*
X104289717Y-79696180D01*
X104461180Y-79524717D01*
X104595898Y-79323097D01*
X104688693Y-79099069D01*
X104736000Y-78861243D01*
X104736000Y-78618757D01*
X104814000Y-78618757D01*
X104814000Y-78861243D01*
X104861307Y-79099069D01*
X104954102Y-79323097D01*
X105088820Y-79524717D01*
X105260283Y-79696180D01*
X105461903Y-79830898D01*
X105685931Y-79923693D01*
X105923757Y-79971000D01*
X106166243Y-79971000D01*
X106404069Y-79923693D01*
X106628097Y-79830898D01*
X106829717Y-79696180D01*
X107001180Y-79524717D01*
X107135898Y-79323097D01*
X107228693Y-79099069D01*
X107276000Y-78861243D01*
X107276000Y-78618757D01*
X107228693Y-78380931D01*
X107135898Y-78156903D01*
X107001180Y-77955283D01*
X106829717Y-77783820D01*
X106628097Y-77649102D01*
X106404069Y-77556307D01*
X106166243Y-77509000D01*
X105923757Y-77509000D01*
X105685931Y-77556307D01*
X105461903Y-77649102D01*
X105260283Y-77783820D01*
X105088820Y-77955283D01*
X104954102Y-78156903D01*
X104861307Y-78380931D01*
X104814000Y-78618757D01*
X104736000Y-78618757D01*
X104688693Y-78380931D01*
X104595898Y-78156903D01*
X104461180Y-77955283D01*
X104289717Y-77783820D01*
X104088097Y-77649102D01*
X103864069Y-77556307D01*
X103626243Y-77509000D01*
X103383757Y-77509000D01*
X103145931Y-77556307D01*
X102921903Y-77649102D01*
X102720283Y-77783820D01*
X102548820Y-77955283D01*
X102414102Y-78156903D01*
X102321307Y-78380931D01*
X102274000Y-78618757D01*
X102274000Y-78861243D01*
X102321307Y-79099069D01*
X102353242Y-79176167D01*
X101976427Y-79552982D01*
X101979000Y-79526854D01*
X101981448Y-79502000D01*
X101979000Y-79477146D01*
X101979000Y-78441591D01*
X103068833Y-77351758D01*
X103145931Y-77383693D01*
X103383757Y-77431000D01*
X103626243Y-77431000D01*
X103864069Y-77383693D01*
X104088097Y-77290898D01*
X104289717Y-77156180D01*
X104461180Y-76984717D01*
X104595898Y-76783097D01*
X104688693Y-76559069D01*
X104736000Y-76321243D01*
X104736000Y-76078757D01*
X104814000Y-76078757D01*
X104814000Y-76321243D01*
X104861307Y-76559069D01*
X104954102Y-76783097D01*
X105088820Y-76984717D01*
X105260283Y-77156180D01*
X105461903Y-77290898D01*
X105685931Y-77383693D01*
X105923757Y-77431000D01*
X106166243Y-77431000D01*
X106404069Y-77383693D01*
X106628097Y-77290898D01*
X106829717Y-77156180D01*
X107001180Y-76984717D01*
X107135898Y-76783097D01*
X107228693Y-76559069D01*
X107276000Y-76321243D01*
X107276000Y-76078757D01*
X107228693Y-75840931D01*
X107135898Y-75616903D01*
X107001180Y-75415283D01*
X106829717Y-75243820D01*
X106628097Y-75109102D01*
X106404069Y-75016307D01*
X106166243Y-74969000D01*
X105923757Y-74969000D01*
X105685931Y-75016307D01*
X105461903Y-75109102D01*
X105260283Y-75243820D01*
X105088820Y-75415283D01*
X104954102Y-75616903D01*
X104861307Y-75840931D01*
X104814000Y-76078757D01*
X104736000Y-76078757D01*
X104688693Y-75840931D01*
X104595898Y-75616903D01*
X104461180Y-75415283D01*
X104289717Y-75243820D01*
X104088097Y-75109102D01*
X103864069Y-75016307D01*
X103626243Y-74969000D01*
X103383757Y-74969000D01*
X103145931Y-75016307D01*
X102921903Y-75109102D01*
X102720283Y-75243820D01*
X102548820Y-75415283D01*
X102414102Y-75616903D01*
X102321307Y-75840931D01*
X102274000Y-76078757D01*
X102274000Y-76321243D01*
X102321307Y-76559069D01*
X102353242Y-76636167D01*
X101976427Y-77012982D01*
X101979000Y-76986854D01*
X101981448Y-76962000D01*
X101979000Y-76937146D01*
X101979000Y-75901591D01*
X103068833Y-74811758D01*
X103145931Y-74843693D01*
X103383757Y-74891000D01*
X103626243Y-74891000D01*
X103864069Y-74843693D01*
X104088097Y-74750898D01*
X104289717Y-74616180D01*
X104461180Y-74444717D01*
X104595898Y-74243097D01*
X104688693Y-74019069D01*
X104736000Y-73781243D01*
X104736000Y-73538757D01*
X104814000Y-73538757D01*
X104814000Y-73781243D01*
X104861307Y-74019069D01*
X104954102Y-74243097D01*
X105088820Y-74444717D01*
X105260283Y-74616180D01*
X105461903Y-74750898D01*
X105685931Y-74843693D01*
X105923757Y-74891000D01*
X106166243Y-74891000D01*
X106404069Y-74843693D01*
X106628097Y-74750898D01*
X106829717Y-74616180D01*
X107001180Y-74444717D01*
X107135898Y-74243097D01*
X107228693Y-74019069D01*
X107276000Y-73781243D01*
X107276000Y-73538757D01*
X107228693Y-73300931D01*
X107135898Y-73076903D01*
X107001180Y-72875283D01*
X106829717Y-72703820D01*
X106628097Y-72569102D01*
X106404069Y-72476307D01*
X106166243Y-72429000D01*
X105923757Y-72429000D01*
X105685931Y-72476307D01*
X105461903Y-72569102D01*
X105260283Y-72703820D01*
X105088820Y-72875283D01*
X104954102Y-73076903D01*
X104861307Y-73300931D01*
X104814000Y-73538757D01*
X104736000Y-73538757D01*
X104688693Y-73300931D01*
X104595898Y-73076903D01*
X104461180Y-72875283D01*
X104289717Y-72703820D01*
X104088097Y-72569102D01*
X103864069Y-72476307D01*
X103626243Y-72429000D01*
X103383757Y-72429000D01*
X103145931Y-72476307D01*
X102921903Y-72569102D01*
X102720283Y-72703820D01*
X102548820Y-72875283D01*
X102414102Y-73076903D01*
X102321307Y-73300931D01*
X102274000Y-73538757D01*
X102274000Y-73781243D01*
X102321307Y-74019069D01*
X102353242Y-74096167D01*
X101976427Y-74472982D01*
X101979000Y-74446854D01*
X101981448Y-74422000D01*
X101979000Y-74397146D01*
X101979000Y-73361591D01*
X103068833Y-72271758D01*
X103145931Y-72303693D01*
X103383757Y-72351000D01*
X103626243Y-72351000D01*
X103864069Y-72303693D01*
X104088097Y-72210898D01*
X104289717Y-72076180D01*
X104461180Y-71904717D01*
X104595898Y-71703097D01*
X104688693Y-71479069D01*
X104736000Y-71241243D01*
X104736000Y-70998757D01*
X104814000Y-70998757D01*
X104814000Y-71241243D01*
X104861307Y-71479069D01*
X104954102Y-71703097D01*
X105088820Y-71904717D01*
X105260283Y-72076180D01*
X105461903Y-72210898D01*
X105685931Y-72303693D01*
X105923757Y-72351000D01*
X106166243Y-72351000D01*
X106404069Y-72303693D01*
X106628097Y-72210898D01*
X106829717Y-72076180D01*
X107001180Y-71904717D01*
X107135898Y-71703097D01*
X107228693Y-71479069D01*
X107276000Y-71241243D01*
X107276000Y-70998757D01*
X107228693Y-70760931D01*
X107135898Y-70536903D01*
X107001180Y-70335283D01*
X106829717Y-70163820D01*
X106628097Y-70029102D01*
X106404069Y-69936307D01*
X106166243Y-69889000D01*
X105923757Y-69889000D01*
X105685931Y-69936307D01*
X105461903Y-70029102D01*
X105260283Y-70163820D01*
X105088820Y-70335283D01*
X104954102Y-70536903D01*
X104861307Y-70760931D01*
X104814000Y-70998757D01*
X104736000Y-70998757D01*
X104688693Y-70760931D01*
X104595898Y-70536903D01*
X104461180Y-70335283D01*
X104289717Y-70163820D01*
X104088097Y-70029102D01*
X103864069Y-69936307D01*
X103626243Y-69889000D01*
X103383757Y-69889000D01*
X103145931Y-69936307D01*
X102921903Y-70029102D01*
X102720283Y-70163820D01*
X102548820Y-70335283D01*
X102414102Y-70536903D01*
X102321307Y-70760931D01*
X102274000Y-70998757D01*
X102274000Y-71241243D01*
X102321307Y-71479069D01*
X102353242Y-71556167D01*
X101976427Y-71932982D01*
X101979000Y-71906854D01*
X101981448Y-71882000D01*
X101979000Y-71857146D01*
X101979000Y-70821591D01*
X103068833Y-69731758D01*
X103145931Y-69763693D01*
X103383757Y-69811000D01*
X103626243Y-69811000D01*
X103864069Y-69763693D01*
X104088097Y-69670898D01*
X104289717Y-69536180D01*
X104461180Y-69364717D01*
X104595898Y-69163097D01*
X104688693Y-68939069D01*
X104736000Y-68701243D01*
X104736000Y-68458757D01*
X104814000Y-68458757D01*
X104814000Y-68701243D01*
X104861307Y-68939069D01*
X104954102Y-69163097D01*
X105088820Y-69364717D01*
X105260283Y-69536180D01*
X105461903Y-69670898D01*
X105685931Y-69763693D01*
X105923757Y-69811000D01*
X106166243Y-69811000D01*
X106404069Y-69763693D01*
X106628097Y-69670898D01*
X106829717Y-69536180D01*
X107001180Y-69364717D01*
X107135898Y-69163097D01*
X107228693Y-68939069D01*
X107276000Y-68701243D01*
X107276000Y-68458757D01*
X107228693Y-68220931D01*
X107135898Y-67996903D01*
X107001180Y-67795283D01*
X106829717Y-67623820D01*
X106628097Y-67489102D01*
X106404069Y-67396307D01*
X106166243Y-67349000D01*
X105923757Y-67349000D01*
X105685931Y-67396307D01*
X105461903Y-67489102D01*
X105260283Y-67623820D01*
X105088820Y-67795283D01*
X104954102Y-67996903D01*
X104861307Y-68220931D01*
X104814000Y-68458757D01*
X104736000Y-68458757D01*
X104688693Y-68220931D01*
X104595898Y-67996903D01*
X104461180Y-67795283D01*
X104289717Y-67623820D01*
X104088097Y-67489102D01*
X103864069Y-67396307D01*
X103626243Y-67349000D01*
X103383757Y-67349000D01*
X103145931Y-67396307D01*
X102921903Y-67489102D01*
X102720283Y-67623820D01*
X102548820Y-67795283D01*
X102414102Y-67996903D01*
X102321307Y-68220931D01*
X102274000Y-68458757D01*
X102274000Y-68701243D01*
X102321307Y-68939069D01*
X102353242Y-69016167D01*
X101976427Y-69392982D01*
X101979000Y-69366854D01*
X101981448Y-69342000D01*
X101979000Y-69317146D01*
X101979000Y-68281591D01*
X103068833Y-67191758D01*
X103145931Y-67223693D01*
X103383757Y-67271000D01*
X103626243Y-67271000D01*
X103864069Y-67223693D01*
X104088097Y-67130898D01*
X104289717Y-66996180D01*
X104461180Y-66824717D01*
X104595898Y-66623097D01*
X104688693Y-66399069D01*
X104736000Y-66161243D01*
X104736000Y-65918757D01*
X104814000Y-65918757D01*
X104814000Y-66161243D01*
X104861307Y-66399069D01*
X104954102Y-66623097D01*
X105088820Y-66824717D01*
X105260283Y-66996180D01*
X105461903Y-67130898D01*
X105685931Y-67223693D01*
X105923757Y-67271000D01*
X106166243Y-67271000D01*
X106404069Y-67223693D01*
X106628097Y-67130898D01*
X106829717Y-66996180D01*
X107001180Y-66824717D01*
X107135898Y-66623097D01*
X107228693Y-66399069D01*
X107276000Y-66161243D01*
X107276000Y-65918757D01*
X107228693Y-65680931D01*
X107135898Y-65456903D01*
X107001180Y-65255283D01*
X106829717Y-65083820D01*
X106628097Y-64949102D01*
X106404069Y-64856307D01*
X106166243Y-64809000D01*
X105923757Y-64809000D01*
X105685931Y-64856307D01*
X105461903Y-64949102D01*
X105260283Y-65083820D01*
X105088820Y-65255283D01*
X104954102Y-65456903D01*
X104861307Y-65680931D01*
X104814000Y-65918757D01*
X104736000Y-65918757D01*
X104688693Y-65680931D01*
X104595898Y-65456903D01*
X104461180Y-65255283D01*
X104289717Y-65083820D01*
X104088097Y-64949102D01*
X103864069Y-64856307D01*
X103626243Y-64809000D01*
X103383757Y-64809000D01*
X103145931Y-64856307D01*
X102921903Y-64949102D01*
X102720283Y-65083820D01*
X102548820Y-65255283D01*
X102414102Y-65456903D01*
X102321307Y-65680931D01*
X102274000Y-65918757D01*
X102274000Y-66161243D01*
X102321307Y-66399069D01*
X102353242Y-66476167D01*
X101976427Y-66852982D01*
X101979000Y-66826854D01*
X101981448Y-66802000D01*
X101979000Y-66777146D01*
X101979000Y-65741591D01*
X103068833Y-64651758D01*
X103145931Y-64683693D01*
X103383757Y-64731000D01*
X103626243Y-64731000D01*
X103864069Y-64683693D01*
X104088097Y-64590898D01*
X104289717Y-64456180D01*
X104461180Y-64284717D01*
X104595898Y-64083097D01*
X104688693Y-63859069D01*
X104736000Y-63621243D01*
X104736000Y-63378757D01*
X104814000Y-63378757D01*
X104814000Y-63621243D01*
X104861307Y-63859069D01*
X104954102Y-64083097D01*
X105088820Y-64284717D01*
X105260283Y-64456180D01*
X105461903Y-64590898D01*
X105685931Y-64683693D01*
X105923757Y-64731000D01*
X106166243Y-64731000D01*
X106404069Y-64683693D01*
X106628097Y-64590898D01*
X106829717Y-64456180D01*
X107001180Y-64284717D01*
X107135898Y-64083097D01*
X107228693Y-63859069D01*
X107276000Y-63621243D01*
X107276000Y-63378757D01*
X107228693Y-63140931D01*
X107135898Y-62916903D01*
X107001180Y-62715283D01*
X106829717Y-62543820D01*
X106628097Y-62409102D01*
X106404069Y-62316307D01*
X106166243Y-62269000D01*
X105923757Y-62269000D01*
X105685931Y-62316307D01*
X105461903Y-62409102D01*
X105260283Y-62543820D01*
X105088820Y-62715283D01*
X104954102Y-62916903D01*
X104861307Y-63140931D01*
X104814000Y-63378757D01*
X104736000Y-63378757D01*
X104688693Y-63140931D01*
X104595898Y-62916903D01*
X104461180Y-62715283D01*
X104289717Y-62543820D01*
X104088097Y-62409102D01*
X103864069Y-62316307D01*
X103626243Y-62269000D01*
X103383757Y-62269000D01*
X103145931Y-62316307D01*
X102921903Y-62409102D01*
X102720283Y-62543820D01*
X102548820Y-62715283D01*
X102414102Y-62916903D01*
X102321307Y-63140931D01*
X102274000Y-63378757D01*
X102274000Y-63621243D01*
X102321307Y-63859069D01*
X102353242Y-63936167D01*
X101976427Y-64312982D01*
X101979000Y-64286854D01*
X101981448Y-64262000D01*
X101979000Y-64237146D01*
X101979000Y-63201591D01*
X103068833Y-62111758D01*
X103145931Y-62143693D01*
X103383757Y-62191000D01*
X103626243Y-62191000D01*
X103864069Y-62143693D01*
X104088097Y-62050898D01*
X104289717Y-61916180D01*
X104461180Y-61744717D01*
X104595898Y-61543097D01*
X104688693Y-61319069D01*
X104736000Y-61081243D01*
X104736000Y-60838757D01*
X104814000Y-60838757D01*
X104814000Y-61081243D01*
X104861307Y-61319069D01*
X104954102Y-61543097D01*
X105088820Y-61744717D01*
X105260283Y-61916180D01*
X105461903Y-62050898D01*
X105685931Y-62143693D01*
X105923757Y-62191000D01*
X106166243Y-62191000D01*
X106404069Y-62143693D01*
X106628097Y-62050898D01*
X106829717Y-61916180D01*
X107001180Y-61744717D01*
X107135898Y-61543097D01*
X107228693Y-61319069D01*
X107276000Y-61081243D01*
X107276000Y-60838757D01*
X107228693Y-60600931D01*
X107135898Y-60376903D01*
X107001180Y-60175283D01*
X106829717Y-60003820D01*
X106628097Y-59869102D01*
X106404069Y-59776307D01*
X106166243Y-59729000D01*
X105923757Y-59729000D01*
X105685931Y-59776307D01*
X105461903Y-59869102D01*
X105260283Y-60003820D01*
X105088820Y-60175283D01*
X104954102Y-60376903D01*
X104861307Y-60600931D01*
X104814000Y-60838757D01*
X104736000Y-60838757D01*
X104688693Y-60600931D01*
X104595898Y-60376903D01*
X104461180Y-60175283D01*
X104289717Y-60003820D01*
X104088097Y-59869102D01*
X103864069Y-59776307D01*
X103626243Y-59729000D01*
X103383757Y-59729000D01*
X103145931Y-59776307D01*
X102921903Y-59869102D01*
X102720283Y-60003820D01*
X102548820Y-60175283D01*
X102414102Y-60376903D01*
X102321307Y-60600931D01*
X102274000Y-60838757D01*
X102274000Y-61081243D01*
X102321307Y-61319069D01*
X102353242Y-61396167D01*
X101976427Y-61772982D01*
X101979000Y-61746854D01*
X101981448Y-61722000D01*
X101979000Y-61697146D01*
X101979000Y-60661591D01*
X103068833Y-59571758D01*
X103145931Y-59603693D01*
X103383757Y-59651000D01*
X103626243Y-59651000D01*
X103864069Y-59603693D01*
X104088097Y-59510898D01*
X104289717Y-59376180D01*
X104461180Y-59204717D01*
X104595898Y-59003097D01*
X104688693Y-58779069D01*
X104736000Y-58541243D01*
X104736000Y-58298757D01*
X104814000Y-58298757D01*
X104814000Y-58541243D01*
X104861307Y-58779069D01*
X104954102Y-59003097D01*
X105088820Y-59204717D01*
X105260283Y-59376180D01*
X105461903Y-59510898D01*
X105685931Y-59603693D01*
X105923757Y-59651000D01*
X106166243Y-59651000D01*
X106404069Y-59603693D01*
X106628097Y-59510898D01*
X106829717Y-59376180D01*
X107001180Y-59204717D01*
X107135898Y-59003097D01*
X107228693Y-58779069D01*
X107276000Y-58541243D01*
X107276000Y-58298757D01*
X107228693Y-58060931D01*
X107135898Y-57836903D01*
X107001180Y-57635283D01*
X106829717Y-57463820D01*
X106628097Y-57329102D01*
X106404069Y-57236307D01*
X106166243Y-57189000D01*
X105923757Y-57189000D01*
X105685931Y-57236307D01*
X105461903Y-57329102D01*
X105260283Y-57463820D01*
X105088820Y-57635283D01*
X104954102Y-57836903D01*
X104861307Y-58060931D01*
X104814000Y-58298757D01*
X104736000Y-58298757D01*
X104688693Y-58060931D01*
X104595898Y-57836903D01*
X104461180Y-57635283D01*
X104289717Y-57463820D01*
X104088097Y-57329102D01*
X103864069Y-57236307D01*
X103626243Y-57189000D01*
X103383757Y-57189000D01*
X103145931Y-57236307D01*
X102921903Y-57329102D01*
X102720283Y-57463820D01*
X102548820Y-57635283D01*
X102414102Y-57836903D01*
X102321307Y-58060931D01*
X102274000Y-58298757D01*
X102274000Y-58541243D01*
X102321307Y-58779069D01*
X102353242Y-58856167D01*
X101976427Y-59232982D01*
X101979000Y-59206854D01*
X101981448Y-59182000D01*
X101979000Y-59157146D01*
X101979000Y-58121591D01*
X103068833Y-57031758D01*
X103145931Y-57063693D01*
X103383757Y-57111000D01*
X103626243Y-57111000D01*
X103864069Y-57063693D01*
X104088097Y-56970898D01*
X104289717Y-56836180D01*
X104461180Y-56664717D01*
X104595898Y-56463097D01*
X104688693Y-56239069D01*
X104736000Y-56001243D01*
X104736000Y-55758757D01*
X104814000Y-55758757D01*
X104814000Y-56001243D01*
X104861307Y-56239069D01*
X104954102Y-56463097D01*
X105088820Y-56664717D01*
X105260283Y-56836180D01*
X105461903Y-56970898D01*
X105685931Y-57063693D01*
X105923757Y-57111000D01*
X106166243Y-57111000D01*
X106404069Y-57063693D01*
X106628097Y-56970898D01*
X106829717Y-56836180D01*
X107001180Y-56664717D01*
X107135898Y-56463097D01*
X107228693Y-56239069D01*
X107276000Y-56001243D01*
X107276000Y-55758757D01*
X107228693Y-55520931D01*
X107135898Y-55296903D01*
X107001180Y-55095283D01*
X106829717Y-54923820D01*
X106628097Y-54789102D01*
X106404069Y-54696307D01*
X106166243Y-54649000D01*
X105923757Y-54649000D01*
X105685931Y-54696307D01*
X105461903Y-54789102D01*
X105260283Y-54923820D01*
X105088820Y-55095283D01*
X104954102Y-55296903D01*
X104861307Y-55520931D01*
X104814000Y-55758757D01*
X104736000Y-55758757D01*
X104688693Y-55520931D01*
X104595898Y-55296903D01*
X104461180Y-55095283D01*
X104289717Y-54923820D01*
X104088097Y-54789102D01*
X103864069Y-54696307D01*
X103626243Y-54649000D01*
X103383757Y-54649000D01*
X103145931Y-54696307D01*
X102921903Y-54789102D01*
X102720283Y-54923820D01*
X102548820Y-55095283D01*
X102414102Y-55296903D01*
X102321307Y-55520931D01*
X102274000Y-55758757D01*
X102274000Y-56001243D01*
X102321307Y-56239069D01*
X102353242Y-56316167D01*
X101976427Y-56692982D01*
X101979000Y-56666854D01*
X101981448Y-56642000D01*
X101979000Y-56617146D01*
X101979000Y-55581591D01*
X103068833Y-54491758D01*
X103145931Y-54523693D01*
X103383757Y-54571000D01*
X103626243Y-54571000D01*
X103864069Y-54523693D01*
X104088097Y-54430898D01*
X104289717Y-54296180D01*
X104461180Y-54124717D01*
X104595898Y-53923097D01*
X104688693Y-53699069D01*
X104736000Y-53461243D01*
X104736000Y-53218757D01*
X104814000Y-53218757D01*
X104814000Y-53461243D01*
X104861307Y-53699069D01*
X104954102Y-53923097D01*
X105088820Y-54124717D01*
X105260283Y-54296180D01*
X105461903Y-54430898D01*
X105685931Y-54523693D01*
X105923757Y-54571000D01*
X106166243Y-54571000D01*
X106404069Y-54523693D01*
X106628097Y-54430898D01*
X106829717Y-54296180D01*
X107001180Y-54124717D01*
X107135898Y-53923097D01*
X107228693Y-53699069D01*
X107276000Y-53461243D01*
X107276000Y-53218757D01*
X107228693Y-52980931D01*
X107135898Y-52756903D01*
X107001180Y-52555283D01*
X106829717Y-52383820D01*
X106628097Y-52249102D01*
X106404069Y-52156307D01*
X106166243Y-52109000D01*
X105923757Y-52109000D01*
X105685931Y-52156307D01*
X105461903Y-52249102D01*
X105260283Y-52383820D01*
X105088820Y-52555283D01*
X104954102Y-52756903D01*
X104861307Y-52980931D01*
X104814000Y-53218757D01*
X104736000Y-53218757D01*
X104688693Y-52980931D01*
X104595898Y-52756903D01*
X104461180Y-52555283D01*
X104289717Y-52383820D01*
X104088097Y-52249102D01*
X103864069Y-52156307D01*
X103626243Y-52109000D01*
X103383757Y-52109000D01*
X103145931Y-52156307D01*
X102921903Y-52249102D01*
X102720283Y-52383820D01*
X102548820Y-52555283D01*
X102414102Y-52756903D01*
X102321307Y-52980931D01*
X102274000Y-53218757D01*
X102274000Y-53461243D01*
X102321307Y-53699069D01*
X102353242Y-53776167D01*
X101976427Y-54152982D01*
X101979000Y-54126854D01*
X101981448Y-54102000D01*
X101979000Y-54077146D01*
X101979000Y-53041591D01*
X103068833Y-51951758D01*
X103145931Y-51983693D01*
X103383757Y-52031000D01*
X103626243Y-52031000D01*
X103864069Y-51983693D01*
X104088097Y-51890898D01*
X104289717Y-51756180D01*
X104461180Y-51584717D01*
X104595898Y-51383097D01*
X104688693Y-51159069D01*
X104697065Y-51116980D01*
X104855511Y-51116980D01*
X104879866Y-51197288D01*
X104979761Y-51416961D01*
X105120592Y-51612924D01*
X105296948Y-51777647D01*
X105502051Y-51904799D01*
X105728019Y-51989495D01*
X105918000Y-51929187D01*
X105918000Y-50927000D01*
X106172000Y-50927000D01*
X106172000Y-51929187D01*
X106361981Y-51989495D01*
X106587949Y-51904799D01*
X106793052Y-51777647D01*
X106969408Y-51612924D01*
X107110239Y-51416961D01*
X107210134Y-51197288D01*
X107234489Y-51116980D01*
X107173627Y-50927000D01*
X106172000Y-50927000D01*
X105918000Y-50927000D01*
X104916373Y-50927000D01*
X104855511Y-51116980D01*
X104697065Y-51116980D01*
X104736000Y-50921243D01*
X104736000Y-50678757D01*
X104697066Y-50483020D01*
X104855511Y-50483020D01*
X104916373Y-50673000D01*
X105918000Y-50673000D01*
X105918000Y-49670813D01*
X106172000Y-49670813D01*
X106172000Y-50673000D01*
X107173627Y-50673000D01*
X107234489Y-50483020D01*
X107210134Y-50402712D01*
X107110239Y-50183039D01*
X106969408Y-49987076D01*
X106793052Y-49822353D01*
X106587949Y-49695201D01*
X106361981Y-49610505D01*
X106172000Y-49670813D01*
X105918000Y-49670813D01*
X105728019Y-49610505D01*
X105502051Y-49695201D01*
X105296948Y-49822353D01*
X105120592Y-49987076D01*
X104979761Y-50183039D01*
X104879866Y-50402712D01*
X104855511Y-50483020D01*
X104697066Y-50483020D01*
X104688693Y-50440931D01*
X104595898Y-50216903D01*
X104461180Y-50015283D01*
X104289717Y-49843820D01*
X104088097Y-49709102D01*
X103864069Y-49616307D01*
X103626243Y-49569000D01*
X103383757Y-49569000D01*
X103145931Y-49616307D01*
X102921903Y-49709102D01*
X102720283Y-49843820D01*
X102548820Y-50015283D01*
X102414102Y-50216903D01*
X102321307Y-50440931D01*
X102274000Y-50678757D01*
X102274000Y-50921243D01*
X102321307Y-51159069D01*
X102353242Y-51236167D01*
X101976427Y-51612982D01*
X101979000Y-51586854D01*
X101981448Y-51562000D01*
X101979000Y-51537146D01*
X101979000Y-50501591D01*
X103068833Y-49411758D01*
X103145931Y-49443693D01*
X103383757Y-49491000D01*
X103626243Y-49491000D01*
X103864069Y-49443693D01*
X104088097Y-49350898D01*
X104289717Y-49216180D01*
X104461180Y-49044717D01*
X104595898Y-48843097D01*
X104688693Y-48619069D01*
X104736000Y-48381243D01*
X104736000Y-48138757D01*
X104814000Y-48138757D01*
X104814000Y-48381243D01*
X104861307Y-48619069D01*
X104954102Y-48843097D01*
X105088820Y-49044717D01*
X105260283Y-49216180D01*
X105461903Y-49350898D01*
X105685931Y-49443693D01*
X105923757Y-49491000D01*
X106166243Y-49491000D01*
X106404069Y-49443693D01*
X106628097Y-49350898D01*
X106829717Y-49216180D01*
X107001180Y-49044717D01*
X107135898Y-48843097D01*
X107228693Y-48619069D01*
X107276000Y-48381243D01*
X107276000Y-48138757D01*
X107228693Y-47900931D01*
X107135898Y-47676903D01*
X107001180Y-47475283D01*
X106829717Y-47303820D01*
X106628097Y-47169102D01*
X106404069Y-47076307D01*
X106166243Y-47029000D01*
X105923757Y-47029000D01*
X105685931Y-47076307D01*
X105461903Y-47169102D01*
X105260283Y-47303820D01*
X105088820Y-47475283D01*
X104954102Y-47676903D01*
X104861307Y-47900931D01*
X104814000Y-48138757D01*
X104736000Y-48138757D01*
X104688693Y-47900931D01*
X104595898Y-47676903D01*
X104461180Y-47475283D01*
X104289717Y-47303820D01*
X104088097Y-47169102D01*
X103864069Y-47076307D01*
X103626243Y-47029000D01*
X103383757Y-47029000D01*
X103145931Y-47076307D01*
X102921903Y-47169102D01*
X102720283Y-47303820D01*
X102548820Y-47475283D01*
X102414102Y-47676903D01*
X102321307Y-47900931D01*
X102274000Y-48138757D01*
X102274000Y-48381243D01*
X102321307Y-48619069D01*
X102353242Y-48696167D01*
X101132785Y-49916624D01*
X101113473Y-49932473D01*
X101050241Y-50009521D01*
X101003255Y-50097426D01*
X100974322Y-50192808D01*
X100967000Y-50267147D01*
X100967000Y-50267154D01*
X100964553Y-50292000D01*
X100967000Y-50316847D01*
X100967001Y-51352407D01*
X100131167Y-52188242D01*
X100054069Y-52156307D01*
X99816243Y-52109000D01*
X99573757Y-52109000D01*
X99335931Y-52156307D01*
X99111903Y-52249102D01*
X98910283Y-52383820D01*
X98738820Y-52555283D01*
X98604102Y-52756903D01*
X98511307Y-52980931D01*
X98464000Y-53218757D01*
X98464000Y-53461243D01*
X98511307Y-53699069D01*
X98543242Y-53776167D01*
X98240809Y-54078600D01*
X98141994Y-54078600D01*
X98245898Y-53923097D01*
X98338693Y-53699069D01*
X98386000Y-53461243D01*
X98386000Y-53218757D01*
X98338693Y-52980931D01*
X98245898Y-52756903D01*
X98111180Y-52555283D01*
X97939717Y-52383820D01*
X97738097Y-52249102D01*
X97514069Y-52156307D01*
X97276243Y-52109000D01*
X97033757Y-52109000D01*
X96795931Y-52156307D01*
X96571903Y-52249102D01*
X96370283Y-52383820D01*
X96198820Y-52555283D01*
X96064102Y-52756903D01*
X95971307Y-52980931D01*
X95924000Y-53218757D01*
X95924000Y-53461243D01*
X95971307Y-53699069D01*
X96064102Y-53923097D01*
X96168006Y-54078600D01*
X94799192Y-54078600D01*
X94496758Y-53776167D01*
X94528693Y-53699069D01*
X94576000Y-53461243D01*
X94576000Y-53218757D01*
X94528693Y-52980931D01*
X94435898Y-52756903D01*
X94301180Y-52555283D01*
X94129717Y-52383820D01*
X93928097Y-52249102D01*
X93704069Y-52156307D01*
X93466243Y-52109000D01*
X93223757Y-52109000D01*
X92985931Y-52156307D01*
X92761903Y-52249102D01*
X92560283Y-52383820D01*
X92388820Y-52555283D01*
X92254102Y-52756903D01*
X92161307Y-52980931D01*
X92114000Y-53218757D01*
X92036000Y-53218757D01*
X91988693Y-52980931D01*
X91895898Y-52756903D01*
X91761180Y-52555283D01*
X91589717Y-52383820D01*
X91388097Y-52249102D01*
X91164069Y-52156307D01*
X90926243Y-52109000D01*
X90683757Y-52109000D01*
X90445931Y-52156307D01*
X90221903Y-52249102D01*
X90020283Y-52383820D01*
X89848820Y-52555283D01*
X89714102Y-52756903D01*
X89621307Y-52980931D01*
X89574000Y-53218757D01*
X89433000Y-53218757D01*
X89433000Y-50678757D01*
X89574000Y-50678757D01*
X89574000Y-50921243D01*
X89621307Y-51159069D01*
X89714102Y-51383097D01*
X89848820Y-51584717D01*
X90020283Y-51756180D01*
X90221903Y-51890898D01*
X90445931Y-51983693D01*
X90683757Y-52031000D01*
X90926243Y-52031000D01*
X91164069Y-51983693D01*
X91388097Y-51890898D01*
X91589717Y-51756180D01*
X91761180Y-51584717D01*
X91895898Y-51383097D01*
X91988693Y-51159069D01*
X91997065Y-51116980D01*
X92155511Y-51116980D01*
X92179866Y-51197288D01*
X92279761Y-51416961D01*
X92420592Y-51612924D01*
X92596948Y-51777647D01*
X92802051Y-51904799D01*
X93028019Y-51989495D01*
X93218000Y-51929187D01*
X93218000Y-50927000D01*
X93472000Y-50927000D01*
X93472000Y-51929187D01*
X93661981Y-51989495D01*
X93887949Y-51904799D01*
X94093052Y-51777647D01*
X94269408Y-51612924D01*
X94410239Y-51416961D01*
X94510134Y-51197288D01*
X94534489Y-51116980D01*
X94473627Y-50927000D01*
X93472000Y-50927000D01*
X93218000Y-50927000D01*
X92216373Y-50927000D01*
X92155511Y-51116980D01*
X91997065Y-51116980D01*
X92036000Y-50921243D01*
X92036000Y-50678757D01*
X91997066Y-50483020D01*
X92155511Y-50483020D01*
X92216373Y-50673000D01*
X93218000Y-50673000D01*
X93218000Y-49670813D01*
X93028019Y-49610505D01*
X92802051Y-49695201D01*
X92596948Y-49822353D01*
X92420592Y-49987076D01*
X92279761Y-50183039D01*
X92179866Y-50402712D01*
X92155511Y-50483020D01*
X91997066Y-50483020D01*
X91988693Y-50440931D01*
X91895898Y-50216903D01*
X91761180Y-50015283D01*
X91589717Y-49843820D01*
X91388097Y-49709102D01*
X91164069Y-49616307D01*
X90926243Y-49569000D01*
X90683757Y-49569000D01*
X90445931Y-49616307D01*
X90221903Y-49709102D01*
X90020283Y-49843820D01*
X89848820Y-50015283D01*
X89714102Y-50216903D01*
X89621307Y-50440931D01*
X89574000Y-50678757D01*
X89433000Y-50678757D01*
X89433000Y-48138757D01*
X89574000Y-48138757D01*
X89574000Y-48381243D01*
X89621307Y-48619069D01*
X89714102Y-48843097D01*
X89848820Y-49044717D01*
X90020283Y-49216180D01*
X90221903Y-49350898D01*
X90445931Y-49443693D01*
X90683757Y-49491000D01*
X90926243Y-49491000D01*
X91164069Y-49443693D01*
X91388097Y-49350898D01*
X91589717Y-49216180D01*
X91761180Y-49044717D01*
X91895898Y-48843097D01*
X91988693Y-48619069D01*
X92036000Y-48381243D01*
X92036000Y-48138757D01*
X91988693Y-47900931D01*
X91895898Y-47676903D01*
X91761180Y-47475283D01*
X91589717Y-47303820D01*
X91388097Y-47169102D01*
X91164069Y-47076307D01*
X90926243Y-47029000D01*
X90683757Y-47029000D01*
X90445931Y-47076307D01*
X90221903Y-47169102D01*
X90020283Y-47303820D01*
X89848820Y-47475283D01*
X89714102Y-47676903D01*
X89621307Y-47900931D01*
X89574000Y-48138757D01*
X89433000Y-48138757D01*
X89433000Y-44870000D01*
X89572157Y-44870000D01*
X89572157Y-46570000D01*
X89579513Y-46644689D01*
X89601299Y-46716508D01*
X89636678Y-46782696D01*
X89684289Y-46840711D01*
X89742304Y-46888322D01*
X89808492Y-46923701D01*
X89880311Y-46945487D01*
X89955000Y-46952843D01*
X91655000Y-46952843D01*
X91729689Y-46945487D01*
X91801508Y-46923701D01*
X91867696Y-46888322D01*
X91925711Y-46840711D01*
X91973322Y-46782696D01*
X92008701Y-46716508D01*
X92030487Y-46644689D01*
X92037843Y-46570000D01*
X92037843Y-45598757D01*
X92114000Y-45598757D01*
X92114000Y-45841243D01*
X92161307Y-46079069D01*
X92254102Y-46303097D01*
X92388820Y-46504717D01*
X92560283Y-46676180D01*
X92761903Y-46810898D01*
X92985931Y-46903693D01*
X93223757Y-46951000D01*
X93466243Y-46951000D01*
X93704069Y-46903693D01*
X93928097Y-46810898D01*
X94129717Y-46676180D01*
X94301180Y-46504717D01*
X94435898Y-46303097D01*
X94528693Y-46079069D01*
X94576000Y-45841243D01*
X94576000Y-45598757D01*
X94528693Y-45360931D01*
X94520385Y-45340873D01*
X95465259Y-44396000D01*
X97549343Y-44396000D01*
X97640500Y-44487157D01*
X96305000Y-44487157D01*
X96230311Y-44494513D01*
X96158492Y-44516299D01*
X96092304Y-44551678D01*
X96034289Y-44599289D01*
X95986678Y-44657304D01*
X95951299Y-44723492D01*
X95929513Y-44795311D01*
X95922157Y-44870000D01*
X95922157Y-46570000D01*
X95929513Y-46644689D01*
X95951299Y-46716508D01*
X95986678Y-46782696D01*
X96034289Y-46840711D01*
X96092304Y-46888322D01*
X96158492Y-46923701D01*
X96230311Y-46945487D01*
X96305000Y-46952843D01*
X98005000Y-46952843D01*
X98079689Y-46945487D01*
X98151508Y-46923701D01*
X98217696Y-46888322D01*
X98275711Y-46840711D01*
X98323322Y-46782696D01*
X98358701Y-46716508D01*
X98380487Y-46644689D01*
X98387843Y-46570000D01*
X98387843Y-45234501D01*
X98512176Y-45358833D01*
X98511307Y-45360931D01*
X98464000Y-45598757D01*
X98464000Y-45841243D01*
X98511307Y-46079069D01*
X98604102Y-46303097D01*
X98738820Y-46504717D01*
X98910283Y-46676180D01*
X99111903Y-46810898D01*
X99335931Y-46903693D01*
X99573757Y-46951000D01*
X99816243Y-46951000D01*
X100054069Y-46903693D01*
X100278097Y-46810898D01*
X100411743Y-46721599D01*
X100056166Y-47077176D01*
X100054069Y-47076307D01*
X99816243Y-47029000D01*
X99573757Y-47029000D01*
X99335931Y-47076307D01*
X99111903Y-47169102D01*
X98910283Y-47303820D01*
X98738820Y-47475283D01*
X98604102Y-47676903D01*
X98511307Y-47900931D01*
X98464000Y-48138757D01*
X98464000Y-48381243D01*
X98511307Y-48619069D01*
X98512176Y-48621167D01*
X98184343Y-48949000D01*
X98175136Y-48949000D01*
X98245898Y-48843097D01*
X98338693Y-48619069D01*
X98386000Y-48381243D01*
X98386000Y-48138757D01*
X98338693Y-47900931D01*
X98245898Y-47676903D01*
X98111180Y-47475283D01*
X97939717Y-47303820D01*
X97738097Y-47169102D01*
X97514069Y-47076307D01*
X97276243Y-47029000D01*
X97033757Y-47029000D01*
X96795931Y-47076307D01*
X96571903Y-47169102D01*
X96370283Y-47303820D01*
X96198820Y-47475283D01*
X96064102Y-47676903D01*
X95971307Y-47900931D01*
X95924000Y-48138757D01*
X95924000Y-48381243D01*
X95971307Y-48619069D01*
X96064102Y-48843097D01*
X96134864Y-48949000D01*
X94855658Y-48949000D01*
X94527824Y-48621167D01*
X94528693Y-48619069D01*
X94576000Y-48381243D01*
X94576000Y-48138757D01*
X94528693Y-47900931D01*
X94435898Y-47676903D01*
X94301180Y-47475283D01*
X94129717Y-47303820D01*
X93928097Y-47169102D01*
X93704069Y-47076307D01*
X93466243Y-47029000D01*
X93223757Y-47029000D01*
X92985931Y-47076307D01*
X92761903Y-47169102D01*
X92560283Y-47303820D01*
X92388820Y-47475283D01*
X92254102Y-47676903D01*
X92161307Y-47900931D01*
X92114000Y-48138757D01*
X92114000Y-48381243D01*
X92161307Y-48619069D01*
X92254102Y-48843097D01*
X92388820Y-49044717D01*
X92560283Y-49216180D01*
X92761903Y-49350898D01*
X92985931Y-49443693D01*
X93223757Y-49491000D01*
X93466243Y-49491000D01*
X93704069Y-49443693D01*
X93706167Y-49442824D01*
X94073695Y-49810353D01*
X93887949Y-49695201D01*
X93661981Y-49610505D01*
X93472000Y-49670813D01*
X93472000Y-50673000D01*
X94473627Y-50673000D01*
X94534489Y-50483020D01*
X94510134Y-50402712D01*
X94410239Y-50183039D01*
X94288523Y-50013673D01*
X94290652Y-50015421D01*
X94391585Y-50069371D01*
X94501104Y-50102593D01*
X94586460Y-50111000D01*
X94586462Y-50111000D01*
X94614999Y-50113811D01*
X94643536Y-50111000D01*
X96134864Y-50111000D01*
X96064102Y-50216903D01*
X95971307Y-50440931D01*
X95924000Y-50678757D01*
X95924000Y-50921243D01*
X95971307Y-51159069D01*
X96064102Y-51383097D01*
X96198820Y-51584717D01*
X96370283Y-51756180D01*
X96571903Y-51890898D01*
X96795931Y-51983693D01*
X97033757Y-52031000D01*
X97276243Y-52031000D01*
X97514069Y-51983693D01*
X97738097Y-51890898D01*
X97939717Y-51756180D01*
X98111180Y-51584717D01*
X98245898Y-51383097D01*
X98338693Y-51159069D01*
X98347065Y-51116980D01*
X98505511Y-51116980D01*
X98529866Y-51197288D01*
X98629761Y-51416961D01*
X98770592Y-51612924D01*
X98946948Y-51777647D01*
X99152051Y-51904799D01*
X99378019Y-51989495D01*
X99568000Y-51929187D01*
X99568000Y-50927000D01*
X99822000Y-50927000D01*
X99822000Y-51929187D01*
X100011981Y-51989495D01*
X100237949Y-51904799D01*
X100443052Y-51777647D01*
X100619408Y-51612924D01*
X100760239Y-51416961D01*
X100860134Y-51197288D01*
X100884489Y-51116980D01*
X100823627Y-50927000D01*
X99822000Y-50927000D01*
X99568000Y-50927000D01*
X98566373Y-50927000D01*
X98505511Y-51116980D01*
X98347065Y-51116980D01*
X98386000Y-50921243D01*
X98386000Y-50678757D01*
X98338693Y-50440931D01*
X98245898Y-50216903D01*
X98175136Y-50111000D01*
X98396460Y-50111000D01*
X98425000Y-50113811D01*
X98453540Y-50111000D01*
X98538896Y-50102593D01*
X98648415Y-50069371D01*
X98749348Y-50015421D01*
X98751477Y-50013673D01*
X98629761Y-50183039D01*
X98529866Y-50402712D01*
X98505511Y-50483020D01*
X98566373Y-50673000D01*
X99568000Y-50673000D01*
X99568000Y-49670813D01*
X99822000Y-49670813D01*
X99822000Y-50673000D01*
X100823627Y-50673000D01*
X100884489Y-50483020D01*
X100860134Y-50402712D01*
X100760239Y-50183039D01*
X100619408Y-49987076D01*
X100443052Y-49822353D01*
X100237949Y-49695201D01*
X100011981Y-49610505D01*
X99822000Y-49670813D01*
X99568000Y-49670813D01*
X99378019Y-49610505D01*
X99152051Y-49695201D01*
X98966303Y-49810354D01*
X99333833Y-49442824D01*
X99335931Y-49443693D01*
X99573757Y-49491000D01*
X99816243Y-49491000D01*
X100054069Y-49443693D01*
X100278097Y-49350898D01*
X100479717Y-49216180D01*
X100651180Y-49044717D01*
X100785898Y-48843097D01*
X100878693Y-48619069D01*
X100926000Y-48381243D01*
X100926000Y-48138757D01*
X100878693Y-47900931D01*
X100877824Y-47898834D01*
X101939851Y-46836808D01*
X101962017Y-46818617D01*
X101991497Y-46782696D01*
X102034621Y-46730148D01*
X102088571Y-46629215D01*
X102121793Y-46519696D01*
X102133011Y-46405800D01*
X102130200Y-46377260D01*
X102130200Y-46036980D01*
X102315511Y-46036980D01*
X102339866Y-46117288D01*
X102439761Y-46336961D01*
X102580592Y-46532924D01*
X102756948Y-46697647D01*
X102962051Y-46824799D01*
X103188019Y-46909495D01*
X103378000Y-46849187D01*
X103378000Y-45847000D01*
X103632000Y-45847000D01*
X103632000Y-46849187D01*
X103821981Y-46909495D01*
X104047949Y-46824799D01*
X104253052Y-46697647D01*
X104429408Y-46532924D01*
X104570239Y-46336961D01*
X104670134Y-46117288D01*
X104694489Y-46036980D01*
X104633627Y-45847000D01*
X103632000Y-45847000D01*
X103378000Y-45847000D01*
X102376373Y-45847000D01*
X102315511Y-46036980D01*
X102130200Y-46036980D01*
X102130200Y-45598757D01*
X104814000Y-45598757D01*
X104814000Y-45841243D01*
X104861307Y-46079069D01*
X104954102Y-46303097D01*
X105088820Y-46504717D01*
X105260283Y-46676180D01*
X105461903Y-46810898D01*
X105685931Y-46903693D01*
X105923757Y-46951000D01*
X106166243Y-46951000D01*
X106404069Y-46903693D01*
X106628097Y-46810898D01*
X106829717Y-46676180D01*
X107001180Y-46504717D01*
X107135898Y-46303097D01*
X107228693Y-46079069D01*
X107276000Y-45841243D01*
X107276000Y-45598757D01*
X107228693Y-45360931D01*
X107135898Y-45136903D01*
X107001180Y-44935283D01*
X106829717Y-44763820D01*
X106628097Y-44629102D01*
X106404069Y-44536307D01*
X106166243Y-44489000D01*
X105923757Y-44489000D01*
X105685931Y-44536307D01*
X105461903Y-44629102D01*
X105260283Y-44763820D01*
X105088820Y-44935283D01*
X104954102Y-45136903D01*
X104861307Y-45360931D01*
X104814000Y-45598757D01*
X102130200Y-45598757D01*
X102130200Y-45376457D01*
X102532085Y-44974572D01*
X102439761Y-45103039D01*
X102339866Y-45322712D01*
X102315511Y-45403020D01*
X102376373Y-45593000D01*
X103378000Y-45593000D01*
X103378000Y-44590813D01*
X103632000Y-44590813D01*
X103632000Y-45593000D01*
X104633627Y-45593000D01*
X104694489Y-45403020D01*
X104670134Y-45322712D01*
X104570239Y-45103039D01*
X104429408Y-44907076D01*
X104253052Y-44742353D01*
X104047949Y-44615201D01*
X103821981Y-44530505D01*
X103632000Y-44590813D01*
X103378000Y-44590813D01*
X103188019Y-44530505D01*
X102962051Y-44615201D01*
X102776304Y-44730353D01*
X103143833Y-44362824D01*
X103145931Y-44363693D01*
X103383757Y-44411000D01*
X103626243Y-44411000D01*
X103864069Y-44363693D01*
X104088097Y-44270898D01*
X104289717Y-44136180D01*
X104461180Y-43964717D01*
X104595898Y-43763097D01*
X104688693Y-43539069D01*
X104736000Y-43301243D01*
X104736000Y-43058757D01*
X104814000Y-43058757D01*
X104814000Y-43301243D01*
X104861307Y-43539069D01*
X104954102Y-43763097D01*
X105088820Y-43964717D01*
X105260283Y-44136180D01*
X105461903Y-44270898D01*
X105685931Y-44363693D01*
X105923757Y-44411000D01*
X106166243Y-44411000D01*
X106404069Y-44363693D01*
X106628097Y-44270898D01*
X106829717Y-44136180D01*
X107001180Y-43964717D01*
X107135898Y-43763097D01*
X107228693Y-43539069D01*
X107276000Y-43301243D01*
X107276000Y-43058757D01*
X107228693Y-42820931D01*
X107135898Y-42596903D01*
X107001180Y-42395283D01*
X106829717Y-42223820D01*
X106628097Y-42089102D01*
X106404069Y-41996307D01*
X106166243Y-41949000D01*
X105923757Y-41949000D01*
X105685931Y-41996307D01*
X105461903Y-42089102D01*
X105260283Y-42223820D01*
X105088820Y-42395283D01*
X104954102Y-42596903D01*
X104861307Y-42820931D01*
X104814000Y-43058757D01*
X104736000Y-43058757D01*
X104688693Y-42820931D01*
X104595898Y-42596903D01*
X104461180Y-42395283D01*
X104289717Y-42223820D01*
X104088097Y-42089102D01*
X103864069Y-41996307D01*
X103626243Y-41949000D01*
X103383757Y-41949000D01*
X103145931Y-41996307D01*
X102921903Y-42089102D01*
X102720283Y-42223820D01*
X102548820Y-42395283D01*
X102414102Y-42596903D01*
X102321307Y-42820931D01*
X102274000Y-43058757D01*
X102274000Y-43301243D01*
X102321307Y-43539069D01*
X102322176Y-43541167D01*
X101158560Y-44704783D01*
X101136383Y-44722983D01*
X101077026Y-44795311D01*
X101063779Y-44811453D01*
X101009829Y-44912386D01*
X100976607Y-45021905D01*
X100965389Y-45135800D01*
X100968200Y-45164340D01*
X100968201Y-46165140D01*
X100696599Y-46436742D01*
X100785898Y-46303097D01*
X100878693Y-46079069D01*
X100926000Y-45841243D01*
X100926000Y-45598757D01*
X100878693Y-45360931D01*
X100785898Y-45136903D01*
X100651180Y-44935283D01*
X100479717Y-44763820D01*
X100278097Y-44629102D01*
X100276000Y-44628233D01*
X100276000Y-42785657D01*
X101840658Y-41221000D01*
X102413233Y-41221000D01*
X102414102Y-41223097D01*
X102548820Y-41424717D01*
X102720283Y-41596180D01*
X102921903Y-41730898D01*
X103145931Y-41823693D01*
X103383757Y-41871000D01*
X103626243Y-41871000D01*
X103864069Y-41823693D01*
X104088097Y-41730898D01*
X104289717Y-41596180D01*
X104461180Y-41424717D01*
X104595898Y-41223097D01*
X104688693Y-40999069D01*
X104736000Y-40761243D01*
X104736000Y-40518757D01*
X104688693Y-40280931D01*
X104595898Y-40056903D01*
X104461180Y-39855283D01*
X104395897Y-39790000D01*
X104812157Y-39790000D01*
X104812157Y-41490000D01*
X104819513Y-41564689D01*
X104841299Y-41636508D01*
X104876678Y-41702696D01*
X104924289Y-41760711D01*
X104982304Y-41808322D01*
X105048492Y-41843701D01*
X105120311Y-41865487D01*
X105195000Y-41872843D01*
X106895000Y-41872843D01*
X106969689Y-41865487D01*
X107041508Y-41843701D01*
X107107696Y-41808322D01*
X107165711Y-41760711D01*
X107213322Y-41702696D01*
X107248701Y-41636508D01*
X107270487Y-41564689D01*
X107277843Y-41490000D01*
X107277843Y-39790000D01*
X107270487Y-39715311D01*
X107248701Y-39643492D01*
X107213322Y-39577304D01*
X107165711Y-39519289D01*
X107107696Y-39471678D01*
X107041508Y-39436299D01*
X106969689Y-39414513D01*
X106895000Y-39407157D01*
X105195000Y-39407157D01*
X105120311Y-39414513D01*
X105048492Y-39436299D01*
X104982304Y-39471678D01*
X104924289Y-39519289D01*
X104876678Y-39577304D01*
X104841299Y-39643492D01*
X104819513Y-39715311D01*
X104812157Y-39790000D01*
X104395897Y-39790000D01*
X104289717Y-39683820D01*
X104088097Y-39549102D01*
X103864069Y-39456307D01*
X103626243Y-39409000D01*
X103383757Y-39409000D01*
X103145931Y-39456307D01*
X102921903Y-39549102D01*
X102720283Y-39683820D01*
X102548820Y-39855283D01*
X102414102Y-40056903D01*
X102413233Y-40059000D01*
X101628540Y-40059000D01*
X101600000Y-40056189D01*
X101571460Y-40059000D01*
X101486104Y-40067407D01*
X101376585Y-40100629D01*
X101275652Y-40154579D01*
X101187183Y-40227183D01*
X101168987Y-40249355D01*
X99304360Y-42113983D01*
X99282183Y-42132183D01*
X99209580Y-42220652D01*
X99209579Y-42220653D01*
X99155629Y-42321586D01*
X99122407Y-42431105D01*
X99111189Y-42545000D01*
X99114000Y-42573540D01*
X99114001Y-44317343D01*
X98221017Y-43424360D01*
X98202817Y-43402183D01*
X98114348Y-43329579D01*
X98013415Y-43275629D01*
X97903896Y-43242407D01*
X97818540Y-43234000D01*
X97790000Y-43231189D01*
X97761460Y-43234000D01*
X95253140Y-43234000D01*
X95224600Y-43231189D01*
X95196060Y-43234000D01*
X95110704Y-43242407D01*
X95001185Y-43275629D01*
X94900252Y-43329579D01*
X94811783Y-43402183D01*
X94793592Y-43424349D01*
X93685357Y-44532585D01*
X93466243Y-44489000D01*
X93223757Y-44489000D01*
X92985931Y-44536307D01*
X92761903Y-44629102D01*
X92560283Y-44763820D01*
X92388820Y-44935283D01*
X92254102Y-45136903D01*
X92161307Y-45360931D01*
X92114000Y-45598757D01*
X92037843Y-45598757D01*
X92037843Y-44870000D01*
X92030487Y-44795311D01*
X92008701Y-44723492D01*
X91973322Y-44657304D01*
X91925711Y-44599289D01*
X91867696Y-44551678D01*
X91801508Y-44516299D01*
X91729689Y-44494513D01*
X91655000Y-44487157D01*
X89955000Y-44487157D01*
X89880311Y-44494513D01*
X89808492Y-44516299D01*
X89742304Y-44551678D01*
X89684289Y-44599289D01*
X89636678Y-44657304D01*
X89601299Y-44723492D01*
X89579513Y-44795311D01*
X89572157Y-44870000D01*
X89433000Y-44870000D01*
X89433000Y-37484851D01*
X89439270Y-37420901D01*
X89452079Y-37378476D01*
X89472881Y-37339353D01*
X89500888Y-37305013D01*
X89535034Y-37276765D01*
X89574016Y-37255688D01*
X89616343Y-37242585D01*
X89678992Y-37236000D01*
X107422149Y-37236000D01*
X107486099Y-37242270D01*
%TA.AperFunction,Conductor*%
D16*
G36*
X107486099Y-37242270D02*
G01*
X107528524Y-37255079D01*
X107567647Y-37275881D01*
X107601987Y-37303888D01*
X107630235Y-37338034D01*
X107651312Y-37377016D01*
X107664415Y-37419343D01*
X107671001Y-37482002D01*
X107671000Y-96246140D01*
X107664730Y-96310100D01*
X107651921Y-96352523D01*
X107631119Y-96391647D01*
X107603110Y-96425989D01*
X107568966Y-96454235D01*
X107529984Y-96475312D01*
X107487657Y-96488415D01*
X107425008Y-96495000D01*
X89681860Y-96495000D01*
X89617900Y-96488730D01*
X89575477Y-96475921D01*
X89536353Y-96455119D01*
X89502011Y-96427110D01*
X89473765Y-96392966D01*
X89452688Y-96353984D01*
X89439585Y-96311657D01*
X89433000Y-96249008D01*
X89433000Y-93858757D01*
X89574000Y-93858757D01*
X89574000Y-94101243D01*
X89621307Y-94339069D01*
X89714102Y-94563097D01*
X89848820Y-94764717D01*
X90020283Y-94936180D01*
X90221903Y-95070898D01*
X90445931Y-95163693D01*
X90683757Y-95211000D01*
X90926243Y-95211000D01*
X91164069Y-95163693D01*
X91388097Y-95070898D01*
X91589717Y-94936180D01*
X91761180Y-94764717D01*
X91895898Y-94563097D01*
X91988693Y-94339069D01*
X92036000Y-94101243D01*
X92036000Y-93858757D01*
X91988693Y-93620931D01*
X91895898Y-93396903D01*
X91761180Y-93195283D01*
X91589717Y-93023820D01*
X91388097Y-92889102D01*
X91164069Y-92796307D01*
X90926243Y-92749000D01*
X90683757Y-92749000D01*
X90445931Y-92796307D01*
X90221903Y-92889102D01*
X90020283Y-93023820D01*
X89848820Y-93195283D01*
X89714102Y-93396903D01*
X89621307Y-93620931D01*
X89574000Y-93858757D01*
X89433000Y-93858757D01*
X89433000Y-91318757D01*
X89574000Y-91318757D01*
X89574000Y-91561243D01*
X89621307Y-91799069D01*
X89714102Y-92023097D01*
X89848820Y-92224717D01*
X90020283Y-92396180D01*
X90221903Y-92530898D01*
X90445931Y-92623693D01*
X90683757Y-92671000D01*
X90926243Y-92671000D01*
X91164069Y-92623693D01*
X91388097Y-92530898D01*
X91589717Y-92396180D01*
X91761180Y-92224717D01*
X91895898Y-92023097D01*
X91988693Y-91799069D01*
X92036000Y-91561243D01*
X92036000Y-91318757D01*
X91988693Y-91080931D01*
X91895898Y-90856903D01*
X91761180Y-90655283D01*
X91589717Y-90483820D01*
X91388097Y-90349102D01*
X91164069Y-90256307D01*
X90926243Y-90209000D01*
X90683757Y-90209000D01*
X90445931Y-90256307D01*
X90221903Y-90349102D01*
X90020283Y-90483820D01*
X89848820Y-90655283D01*
X89714102Y-90856903D01*
X89621307Y-91080931D01*
X89574000Y-91318757D01*
X89433000Y-91318757D01*
X89433000Y-88778757D01*
X89574000Y-88778757D01*
X89574000Y-89021243D01*
X89621307Y-89259069D01*
X89714102Y-89483097D01*
X89848820Y-89684717D01*
X90020283Y-89856180D01*
X90221903Y-89990898D01*
X90445931Y-90083693D01*
X90683757Y-90131000D01*
X90926243Y-90131000D01*
X91164069Y-90083693D01*
X91388097Y-89990898D01*
X91589717Y-89856180D01*
X91761180Y-89684717D01*
X91895898Y-89483097D01*
X91988693Y-89259069D01*
X92036000Y-89021243D01*
X92036000Y-88778757D01*
X91988693Y-88540931D01*
X91895898Y-88316903D01*
X91761180Y-88115283D01*
X91589717Y-87943820D01*
X91388097Y-87809102D01*
X91164069Y-87716307D01*
X90926243Y-87669000D01*
X90683757Y-87669000D01*
X90445931Y-87716307D01*
X90221903Y-87809102D01*
X90020283Y-87943820D01*
X89848820Y-88115283D01*
X89714102Y-88316903D01*
X89621307Y-88540931D01*
X89574000Y-88778757D01*
X89433000Y-88778757D01*
X89433000Y-86238757D01*
X89574000Y-86238757D01*
X89574000Y-86481243D01*
X89621307Y-86719069D01*
X89714102Y-86943097D01*
X89848820Y-87144717D01*
X90020283Y-87316180D01*
X90221903Y-87450898D01*
X90445931Y-87543693D01*
X90683757Y-87591000D01*
X90926243Y-87591000D01*
X91164069Y-87543693D01*
X91388097Y-87450898D01*
X91589717Y-87316180D01*
X91761180Y-87144717D01*
X91895898Y-86943097D01*
X91988693Y-86719069D01*
X92036000Y-86481243D01*
X92036000Y-86238757D01*
X91988693Y-86000931D01*
X91895898Y-85776903D01*
X91761180Y-85575283D01*
X91589717Y-85403820D01*
X91388097Y-85269102D01*
X91164069Y-85176307D01*
X90926243Y-85129000D01*
X90683757Y-85129000D01*
X90445931Y-85176307D01*
X90221903Y-85269102D01*
X90020283Y-85403820D01*
X89848820Y-85575283D01*
X89714102Y-85776903D01*
X89621307Y-86000931D01*
X89574000Y-86238757D01*
X89433000Y-86238757D01*
X89433000Y-83698757D01*
X89574000Y-83698757D01*
X89574000Y-83941243D01*
X89621307Y-84179069D01*
X89714102Y-84403097D01*
X89848820Y-84604717D01*
X90020283Y-84776180D01*
X90221903Y-84910898D01*
X90445931Y-85003693D01*
X90683757Y-85051000D01*
X90926243Y-85051000D01*
X91164069Y-85003693D01*
X91388097Y-84910898D01*
X91589717Y-84776180D01*
X91761180Y-84604717D01*
X91895898Y-84403097D01*
X91988693Y-84179069D01*
X92036000Y-83941243D01*
X92036000Y-83698757D01*
X91988693Y-83460931D01*
X91895898Y-83236903D01*
X91761180Y-83035283D01*
X91589717Y-82863820D01*
X91388097Y-82729102D01*
X91164069Y-82636307D01*
X90926243Y-82589000D01*
X90683757Y-82589000D01*
X90445931Y-82636307D01*
X90221903Y-82729102D01*
X90020283Y-82863820D01*
X89848820Y-83035283D01*
X89714102Y-83236903D01*
X89621307Y-83460931D01*
X89574000Y-83698757D01*
X89433000Y-83698757D01*
X89433000Y-81158757D01*
X89574000Y-81158757D01*
X89574000Y-81401243D01*
X89621307Y-81639069D01*
X89714102Y-81863097D01*
X89848820Y-82064717D01*
X90020283Y-82236180D01*
X90221903Y-82370898D01*
X90445931Y-82463693D01*
X90683757Y-82511000D01*
X90926243Y-82511000D01*
X91164069Y-82463693D01*
X91388097Y-82370898D01*
X91589717Y-82236180D01*
X91761180Y-82064717D01*
X91895898Y-81863097D01*
X91988693Y-81639069D01*
X92036000Y-81401243D01*
X92036000Y-81158757D01*
X91988693Y-80920931D01*
X91895898Y-80696903D01*
X91761180Y-80495283D01*
X91589717Y-80323820D01*
X91388097Y-80189102D01*
X91164069Y-80096307D01*
X90926243Y-80049000D01*
X90683757Y-80049000D01*
X90445931Y-80096307D01*
X90221903Y-80189102D01*
X90020283Y-80323820D01*
X89848820Y-80495283D01*
X89714102Y-80696903D01*
X89621307Y-80920931D01*
X89574000Y-81158757D01*
X89433000Y-81158757D01*
X89433000Y-78618757D01*
X89574000Y-78618757D01*
X89574000Y-78861243D01*
X89621307Y-79099069D01*
X89714102Y-79323097D01*
X89848820Y-79524717D01*
X90020283Y-79696180D01*
X90221903Y-79830898D01*
X90445931Y-79923693D01*
X90683757Y-79971000D01*
X90926243Y-79971000D01*
X91164069Y-79923693D01*
X91388097Y-79830898D01*
X91589717Y-79696180D01*
X91761180Y-79524717D01*
X91895898Y-79323097D01*
X91988693Y-79099069D01*
X92036000Y-78861243D01*
X92036000Y-78618757D01*
X91988693Y-78380931D01*
X91895898Y-78156903D01*
X91761180Y-77955283D01*
X91589717Y-77783820D01*
X91388097Y-77649102D01*
X91164069Y-77556307D01*
X90926243Y-77509000D01*
X90683757Y-77509000D01*
X90445931Y-77556307D01*
X90221903Y-77649102D01*
X90020283Y-77783820D01*
X89848820Y-77955283D01*
X89714102Y-78156903D01*
X89621307Y-78380931D01*
X89574000Y-78618757D01*
X89433000Y-78618757D01*
X89433000Y-76078757D01*
X89574000Y-76078757D01*
X89574000Y-76321243D01*
X89621307Y-76559069D01*
X89714102Y-76783097D01*
X89848820Y-76984717D01*
X90020283Y-77156180D01*
X90221903Y-77290898D01*
X90445931Y-77383693D01*
X90683757Y-77431000D01*
X90926243Y-77431000D01*
X91164069Y-77383693D01*
X91388097Y-77290898D01*
X91589717Y-77156180D01*
X91761180Y-76984717D01*
X91895898Y-76783097D01*
X91988693Y-76559069D01*
X92036000Y-76321243D01*
X92036000Y-76078757D01*
X91988693Y-75840931D01*
X91895898Y-75616903D01*
X91761180Y-75415283D01*
X91589717Y-75243820D01*
X91388097Y-75109102D01*
X91164069Y-75016307D01*
X90926243Y-74969000D01*
X90683757Y-74969000D01*
X90445931Y-75016307D01*
X90221903Y-75109102D01*
X90020283Y-75243820D01*
X89848820Y-75415283D01*
X89714102Y-75616903D01*
X89621307Y-75840931D01*
X89574000Y-76078757D01*
X89433000Y-76078757D01*
X89433000Y-73538757D01*
X89574000Y-73538757D01*
X89574000Y-73781243D01*
X89621307Y-74019069D01*
X89714102Y-74243097D01*
X89848820Y-74444717D01*
X90020283Y-74616180D01*
X90221903Y-74750898D01*
X90445931Y-74843693D01*
X90683757Y-74891000D01*
X90926243Y-74891000D01*
X91164069Y-74843693D01*
X91388097Y-74750898D01*
X91589717Y-74616180D01*
X91761180Y-74444717D01*
X91895898Y-74243097D01*
X91988693Y-74019069D01*
X92036000Y-73781243D01*
X92036000Y-73538757D01*
X91988693Y-73300931D01*
X91895898Y-73076903D01*
X91761180Y-72875283D01*
X91589717Y-72703820D01*
X91388097Y-72569102D01*
X91164069Y-72476307D01*
X90926243Y-72429000D01*
X90683757Y-72429000D01*
X90445931Y-72476307D01*
X90221903Y-72569102D01*
X90020283Y-72703820D01*
X89848820Y-72875283D01*
X89714102Y-73076903D01*
X89621307Y-73300931D01*
X89574000Y-73538757D01*
X89433000Y-73538757D01*
X89433000Y-70998757D01*
X89574000Y-70998757D01*
X89574000Y-71241243D01*
X89621307Y-71479069D01*
X89714102Y-71703097D01*
X89848820Y-71904717D01*
X90020283Y-72076180D01*
X90221903Y-72210898D01*
X90445931Y-72303693D01*
X90683757Y-72351000D01*
X90926243Y-72351000D01*
X91164069Y-72303693D01*
X91388097Y-72210898D01*
X91589717Y-72076180D01*
X91761180Y-71904717D01*
X91895898Y-71703097D01*
X91988693Y-71479069D01*
X92036000Y-71241243D01*
X92036000Y-70998757D01*
X91988693Y-70760931D01*
X91895898Y-70536903D01*
X91761180Y-70335283D01*
X91589717Y-70163820D01*
X91388097Y-70029102D01*
X91164069Y-69936307D01*
X90926243Y-69889000D01*
X90683757Y-69889000D01*
X90445931Y-69936307D01*
X90221903Y-70029102D01*
X90020283Y-70163820D01*
X89848820Y-70335283D01*
X89714102Y-70536903D01*
X89621307Y-70760931D01*
X89574000Y-70998757D01*
X89433000Y-70998757D01*
X89433000Y-68458757D01*
X89574000Y-68458757D01*
X89574000Y-68701243D01*
X89621307Y-68939069D01*
X89714102Y-69163097D01*
X89848820Y-69364717D01*
X90020283Y-69536180D01*
X90221903Y-69670898D01*
X90445931Y-69763693D01*
X90683757Y-69811000D01*
X90926243Y-69811000D01*
X91164069Y-69763693D01*
X91388097Y-69670898D01*
X91589717Y-69536180D01*
X91761180Y-69364717D01*
X91895898Y-69163097D01*
X91988693Y-68939069D01*
X92036000Y-68701243D01*
X92036000Y-68458757D01*
X91988693Y-68220931D01*
X91895898Y-67996903D01*
X91761180Y-67795283D01*
X91589717Y-67623820D01*
X91388097Y-67489102D01*
X91164069Y-67396307D01*
X90926243Y-67349000D01*
X90683757Y-67349000D01*
X90445931Y-67396307D01*
X90221903Y-67489102D01*
X90020283Y-67623820D01*
X89848820Y-67795283D01*
X89714102Y-67996903D01*
X89621307Y-68220931D01*
X89574000Y-68458757D01*
X89433000Y-68458757D01*
X89433000Y-65918757D01*
X89574000Y-65918757D01*
X89574000Y-66161243D01*
X89621307Y-66399069D01*
X89714102Y-66623097D01*
X89848820Y-66824717D01*
X90020283Y-66996180D01*
X90221903Y-67130898D01*
X90445931Y-67223693D01*
X90683757Y-67271000D01*
X90926243Y-67271000D01*
X91164069Y-67223693D01*
X91388097Y-67130898D01*
X91589717Y-66996180D01*
X91761180Y-66824717D01*
X91895898Y-66623097D01*
X91988693Y-66399069D01*
X92036000Y-66161243D01*
X92036000Y-65918757D01*
X91988693Y-65680931D01*
X91895898Y-65456903D01*
X91761180Y-65255283D01*
X91589717Y-65083820D01*
X91388097Y-64949102D01*
X91164069Y-64856307D01*
X90926243Y-64809000D01*
X90683757Y-64809000D01*
X90445931Y-64856307D01*
X90221903Y-64949102D01*
X90020283Y-65083820D01*
X89848820Y-65255283D01*
X89714102Y-65456903D01*
X89621307Y-65680931D01*
X89574000Y-65918757D01*
X89433000Y-65918757D01*
X89433000Y-63378757D01*
X89574000Y-63378757D01*
X89574000Y-63621243D01*
X89621307Y-63859069D01*
X89714102Y-64083097D01*
X89848820Y-64284717D01*
X90020283Y-64456180D01*
X90221903Y-64590898D01*
X90445931Y-64683693D01*
X90683757Y-64731000D01*
X90926243Y-64731000D01*
X91164069Y-64683693D01*
X91388097Y-64590898D01*
X91589717Y-64456180D01*
X91761180Y-64284717D01*
X91895898Y-64083097D01*
X91988693Y-63859069D01*
X92036000Y-63621243D01*
X92036000Y-63378757D01*
X91988693Y-63140931D01*
X91895898Y-62916903D01*
X91761180Y-62715283D01*
X91589717Y-62543820D01*
X91388097Y-62409102D01*
X91164069Y-62316307D01*
X90926243Y-62269000D01*
X90683757Y-62269000D01*
X90445931Y-62316307D01*
X90221903Y-62409102D01*
X90020283Y-62543820D01*
X89848820Y-62715283D01*
X89714102Y-62916903D01*
X89621307Y-63140931D01*
X89574000Y-63378757D01*
X89433000Y-63378757D01*
X89433000Y-60838757D01*
X89574000Y-60838757D01*
X89574000Y-61081243D01*
X89621307Y-61319069D01*
X89714102Y-61543097D01*
X89848820Y-61744717D01*
X90020283Y-61916180D01*
X90221903Y-62050898D01*
X90445931Y-62143693D01*
X90683757Y-62191000D01*
X90926243Y-62191000D01*
X91164069Y-62143693D01*
X91388097Y-62050898D01*
X91589717Y-61916180D01*
X91761180Y-61744717D01*
X91895898Y-61543097D01*
X91988693Y-61319069D01*
X92036000Y-61081243D01*
X92036000Y-60838757D01*
X91988693Y-60600931D01*
X91895898Y-60376903D01*
X91761180Y-60175283D01*
X91589717Y-60003820D01*
X91388097Y-59869102D01*
X91164069Y-59776307D01*
X90926243Y-59729000D01*
X90683757Y-59729000D01*
X90445931Y-59776307D01*
X90221903Y-59869102D01*
X90020283Y-60003820D01*
X89848820Y-60175283D01*
X89714102Y-60376903D01*
X89621307Y-60600931D01*
X89574000Y-60838757D01*
X89433000Y-60838757D01*
X89433000Y-58298757D01*
X89574000Y-58298757D01*
X89574000Y-58541243D01*
X89621307Y-58779069D01*
X89714102Y-59003097D01*
X89848820Y-59204717D01*
X90020283Y-59376180D01*
X90221903Y-59510898D01*
X90445931Y-59603693D01*
X90683757Y-59651000D01*
X90926243Y-59651000D01*
X91164069Y-59603693D01*
X91388097Y-59510898D01*
X91589717Y-59376180D01*
X91761180Y-59204717D01*
X91895898Y-59003097D01*
X91988693Y-58779069D01*
X92036000Y-58541243D01*
X92036000Y-58298757D01*
X91988693Y-58060931D01*
X91895898Y-57836903D01*
X91761180Y-57635283D01*
X91589717Y-57463820D01*
X91388097Y-57329102D01*
X91164069Y-57236307D01*
X90926243Y-57189000D01*
X90683757Y-57189000D01*
X90445931Y-57236307D01*
X90221903Y-57329102D01*
X90020283Y-57463820D01*
X89848820Y-57635283D01*
X89714102Y-57836903D01*
X89621307Y-58060931D01*
X89574000Y-58298757D01*
X89433000Y-58298757D01*
X89433000Y-56196980D01*
X89615511Y-56196980D01*
X89639866Y-56277288D01*
X89739761Y-56496961D01*
X89880592Y-56692924D01*
X90056948Y-56857647D01*
X90262051Y-56984799D01*
X90488019Y-57069495D01*
X90678000Y-57009187D01*
X90678000Y-56007000D01*
X90932000Y-56007000D01*
X90932000Y-57009187D01*
X91121981Y-57069495D01*
X91347949Y-56984799D01*
X91553052Y-56857647D01*
X91729408Y-56692924D01*
X91870239Y-56496961D01*
X91970134Y-56277288D01*
X91994489Y-56196980D01*
X91933627Y-56007000D01*
X90932000Y-56007000D01*
X90678000Y-56007000D01*
X89676373Y-56007000D01*
X89615511Y-56196980D01*
X89433000Y-56196980D01*
X89433000Y-55563020D01*
X89615511Y-55563020D01*
X89676373Y-55753000D01*
X90678000Y-55753000D01*
X90678000Y-54750813D01*
X90932000Y-54750813D01*
X90932000Y-55753000D01*
X91933627Y-55753000D01*
X91994489Y-55563020D01*
X91970134Y-55482712D01*
X91870239Y-55263039D01*
X91729408Y-55067076D01*
X91553052Y-54902353D01*
X91347949Y-54775201D01*
X91121981Y-54690505D01*
X90932000Y-54750813D01*
X90678000Y-54750813D01*
X90488019Y-54690505D01*
X90262051Y-54775201D01*
X90056948Y-54902353D01*
X89880592Y-55067076D01*
X89739761Y-55263039D01*
X89639866Y-55482712D01*
X89615511Y-55563020D01*
X89433000Y-55563020D01*
X89433000Y-53218757D01*
X89574000Y-53218757D01*
X89574000Y-53461243D01*
X89621307Y-53699069D01*
X89714102Y-53923097D01*
X89848820Y-54124717D01*
X90020283Y-54296180D01*
X90221903Y-54430898D01*
X90445931Y-54523693D01*
X90683757Y-54571000D01*
X90926243Y-54571000D01*
X91164069Y-54523693D01*
X91388097Y-54430898D01*
X91589717Y-54296180D01*
X91761180Y-54124717D01*
X91895898Y-53923097D01*
X91988693Y-53699069D01*
X92036000Y-53461243D01*
X92036000Y-53218757D01*
X92114000Y-53218757D01*
X92114000Y-53461243D01*
X92161307Y-53699069D01*
X92254102Y-53923097D01*
X92388820Y-54124717D01*
X92560283Y-54296180D01*
X92761903Y-54430898D01*
X92985931Y-54523693D01*
X93223757Y-54571000D01*
X93466243Y-54571000D01*
X93704069Y-54523693D01*
X93781167Y-54491758D01*
X94214228Y-54924820D01*
X94230073Y-54944127D01*
X94307121Y-55007359D01*
X94395025Y-55054345D01*
X94490406Y-55083278D01*
X94500294Y-55084252D01*
X94564746Y-55090600D01*
X94564753Y-55090600D01*
X94589599Y-55093047D01*
X94614445Y-55090600D01*
X96213686Y-55090600D01*
X96089761Y-55263039D01*
X95989866Y-55482712D01*
X95965511Y-55563020D01*
X96026373Y-55753000D01*
X97028000Y-55753000D01*
X97028000Y-55733000D01*
X97282000Y-55733000D01*
X97282000Y-55753000D01*
X98283627Y-55753000D01*
X98344489Y-55563020D01*
X98320134Y-55482712D01*
X98220239Y-55263039D01*
X98096314Y-55090600D01*
X98425554Y-55090600D01*
X98450400Y-55093047D01*
X98475246Y-55090600D01*
X98475254Y-55090600D01*
X98549593Y-55083278D01*
X98644975Y-55054345D01*
X98732879Y-55007359D01*
X98809927Y-54944127D01*
X98825776Y-54924815D01*
X99258833Y-54491758D01*
X99335931Y-54523693D01*
X99573757Y-54571000D01*
X99816243Y-54571000D01*
X100054069Y-54523693D01*
X100278097Y-54430898D01*
X100479717Y-54296180D01*
X100651180Y-54124717D01*
X100785898Y-53923097D01*
X100878693Y-53699069D01*
X100926000Y-53461243D01*
X100926000Y-53218757D01*
X100878693Y-52980931D01*
X100846758Y-52903833D01*
X100969574Y-52781018D01*
X100967000Y-52807147D01*
X100967000Y-52807154D01*
X100964553Y-52832000D01*
X100967000Y-52856847D01*
X100967001Y-53892407D01*
X100131167Y-54728242D01*
X100054069Y-54696307D01*
X99816243Y-54649000D01*
X99573757Y-54649000D01*
X99335931Y-54696307D01*
X99111903Y-54789102D01*
X98910283Y-54923820D01*
X98738820Y-55095283D01*
X98604102Y-55296903D01*
X98511307Y-55520931D01*
X98464000Y-55758757D01*
X98464000Y-56001243D01*
X98511307Y-56239069D01*
X98543242Y-56316167D01*
X98215409Y-56644000D01*
X98114568Y-56644000D01*
X98220239Y-56496961D01*
X98320134Y-56277288D01*
X98344489Y-56196980D01*
X98283627Y-56007000D01*
X97282000Y-56007000D01*
X97282000Y-56027000D01*
X97028000Y-56027000D01*
X97028000Y-56007000D01*
X96026373Y-56007000D01*
X95965511Y-56196980D01*
X95989866Y-56277288D01*
X96089761Y-56496961D01*
X96195432Y-56644000D01*
X94824592Y-56644000D01*
X94496758Y-56316167D01*
X94528693Y-56239069D01*
X94576000Y-56001243D01*
X94576000Y-55758757D01*
X94528693Y-55520931D01*
X94435898Y-55296903D01*
X94301180Y-55095283D01*
X94129717Y-54923820D01*
X93928097Y-54789102D01*
X93704069Y-54696307D01*
X93466243Y-54649000D01*
X93223757Y-54649000D01*
X92985931Y-54696307D01*
X92761903Y-54789102D01*
X92560283Y-54923820D01*
X92388820Y-55095283D01*
X92254102Y-55296903D01*
X92161307Y-55520931D01*
X92114000Y-55758757D01*
X92114000Y-56001243D01*
X92161307Y-56239069D01*
X92254102Y-56463097D01*
X92388820Y-56664717D01*
X92560283Y-56836180D01*
X92761903Y-56970898D01*
X92985931Y-57063693D01*
X93223757Y-57111000D01*
X93466243Y-57111000D01*
X93704069Y-57063693D01*
X93781167Y-57031758D01*
X94239628Y-57490220D01*
X94255473Y-57509527D01*
X94332521Y-57572759D01*
X94420425Y-57619745D01*
X94515806Y-57648678D01*
X94525694Y-57649652D01*
X94590146Y-57656000D01*
X94590153Y-57656000D01*
X94614999Y-57658447D01*
X94639845Y-57656000D01*
X96184977Y-57656000D01*
X96064102Y-57836903D01*
X95971307Y-58060931D01*
X95924000Y-58298757D01*
X95924000Y-58541243D01*
X95971307Y-58779069D01*
X96064102Y-59003097D01*
X96184977Y-59184000D01*
X94824592Y-59184000D01*
X94496758Y-58856167D01*
X94528693Y-58779069D01*
X94576000Y-58541243D01*
X94576000Y-58298757D01*
X94528693Y-58060931D01*
X94435898Y-57836903D01*
X94301180Y-57635283D01*
X94129717Y-57463820D01*
X93928097Y-57329102D01*
X93704069Y-57236307D01*
X93466243Y-57189000D01*
X93223757Y-57189000D01*
X92985931Y-57236307D01*
X92761903Y-57329102D01*
X92560283Y-57463820D01*
X92388820Y-57635283D01*
X92254102Y-57836903D01*
X92161307Y-58060931D01*
X92114000Y-58298757D01*
X92114000Y-58541243D01*
X92161307Y-58779069D01*
X92254102Y-59003097D01*
X92388820Y-59204717D01*
X92560283Y-59376180D01*
X92761903Y-59510898D01*
X92985931Y-59603693D01*
X93223757Y-59651000D01*
X93466243Y-59651000D01*
X93704069Y-59603693D01*
X93781167Y-59571758D01*
X94239628Y-60030220D01*
X94255473Y-60049527D01*
X94332521Y-60112759D01*
X94420425Y-60159745D01*
X94515806Y-60188678D01*
X94525694Y-60189652D01*
X94590146Y-60196000D01*
X94590153Y-60196000D01*
X94614999Y-60198447D01*
X94639845Y-60196000D01*
X96184977Y-60196000D01*
X96064102Y-60376903D01*
X95971307Y-60600931D01*
X95924000Y-60838757D01*
X95924000Y-61081243D01*
X95971307Y-61319069D01*
X96064102Y-61543097D01*
X96168006Y-61698600D01*
X94799192Y-61698600D01*
X94496758Y-61396167D01*
X94528693Y-61319069D01*
X94576000Y-61081243D01*
X94576000Y-60838757D01*
X94528693Y-60600931D01*
X94435898Y-60376903D01*
X94301180Y-60175283D01*
X94129717Y-60003820D01*
X93928097Y-59869102D01*
X93704069Y-59776307D01*
X93466243Y-59729000D01*
X93223757Y-59729000D01*
X92985931Y-59776307D01*
X92761903Y-59869102D01*
X92560283Y-60003820D01*
X92388820Y-60175283D01*
X92254102Y-60376903D01*
X92161307Y-60600931D01*
X92114000Y-60838757D01*
X92114000Y-61081243D01*
X92161307Y-61319069D01*
X92254102Y-61543097D01*
X92388820Y-61744717D01*
X92560283Y-61916180D01*
X92761903Y-62050898D01*
X92985931Y-62143693D01*
X93223757Y-62191000D01*
X93466243Y-62191000D01*
X93704069Y-62143693D01*
X93781167Y-62111758D01*
X94214228Y-62544820D01*
X94230073Y-62564127D01*
X94307121Y-62627359D01*
X94395025Y-62674345D01*
X94490406Y-62703278D01*
X94500294Y-62704252D01*
X94564746Y-62710600D01*
X94564753Y-62710600D01*
X94589599Y-62713047D01*
X94614445Y-62710600D01*
X96203503Y-62710600D01*
X96198820Y-62715283D01*
X96064102Y-62916903D01*
X95971307Y-63140931D01*
X95924000Y-63378757D01*
X95924000Y-63621243D01*
X95971307Y-63859069D01*
X96064102Y-64083097D01*
X96151034Y-64213200D01*
X94773792Y-64213200D01*
X94496758Y-63936167D01*
X94528693Y-63859069D01*
X94576000Y-63621243D01*
X94576000Y-63378757D01*
X94528693Y-63140931D01*
X94435898Y-62916903D01*
X94301180Y-62715283D01*
X94129717Y-62543820D01*
X93928097Y-62409102D01*
X93704069Y-62316307D01*
X93466243Y-62269000D01*
X93223757Y-62269000D01*
X92985931Y-62316307D01*
X92761903Y-62409102D01*
X92560283Y-62543820D01*
X92388820Y-62715283D01*
X92254102Y-62916903D01*
X92161307Y-63140931D01*
X92114000Y-63378757D01*
X92114000Y-63621243D01*
X92161307Y-63859069D01*
X92254102Y-64083097D01*
X92388820Y-64284717D01*
X92560283Y-64456180D01*
X92761903Y-64590898D01*
X92985931Y-64683693D01*
X93223757Y-64731000D01*
X93466243Y-64731000D01*
X93704069Y-64683693D01*
X93781167Y-64651758D01*
X94188828Y-65059420D01*
X94204673Y-65078727D01*
X94281721Y-65141959D01*
X94369625Y-65188945D01*
X94465006Y-65217878D01*
X94474894Y-65218852D01*
X94539346Y-65225200D01*
X94539353Y-65225200D01*
X94564199Y-65227647D01*
X94589045Y-65225200D01*
X96228903Y-65225200D01*
X96198820Y-65255283D01*
X96064102Y-65456903D01*
X95971307Y-65680931D01*
X95924000Y-65918757D01*
X95924000Y-66161243D01*
X95971307Y-66399069D01*
X96064102Y-66623097D01*
X96184977Y-66804000D01*
X94824592Y-66804000D01*
X94496758Y-66476167D01*
X94528693Y-66399069D01*
X94576000Y-66161243D01*
X94576000Y-65918757D01*
X94528693Y-65680931D01*
X94435898Y-65456903D01*
X94301180Y-65255283D01*
X94129717Y-65083820D01*
X93928097Y-64949102D01*
X93704069Y-64856307D01*
X93466243Y-64809000D01*
X93223757Y-64809000D01*
X92985931Y-64856307D01*
X92761903Y-64949102D01*
X92560283Y-65083820D01*
X92388820Y-65255283D01*
X92254102Y-65456903D01*
X92161307Y-65680931D01*
X92114000Y-65918757D01*
X92114000Y-66161243D01*
X92161307Y-66399069D01*
X92254102Y-66623097D01*
X92388820Y-66824717D01*
X92560283Y-66996180D01*
X92761903Y-67130898D01*
X92985931Y-67223693D01*
X93223757Y-67271000D01*
X93466243Y-67271000D01*
X93704069Y-67223693D01*
X93781167Y-67191758D01*
X94239628Y-67650220D01*
X94255473Y-67669527D01*
X94332521Y-67732759D01*
X94420425Y-67779745D01*
X94515806Y-67808678D01*
X94525694Y-67809652D01*
X94590146Y-67816000D01*
X94590153Y-67816000D01*
X94614999Y-67818447D01*
X94639845Y-67816000D01*
X96184977Y-67816000D01*
X96064102Y-67996903D01*
X95971307Y-68220931D01*
X95924000Y-68458757D01*
X95924000Y-68701243D01*
X95971307Y-68939069D01*
X96064102Y-69163097D01*
X96184977Y-69344000D01*
X94824592Y-69344000D01*
X94496758Y-69016167D01*
X94528693Y-68939069D01*
X94576000Y-68701243D01*
X94576000Y-68458757D01*
X94528693Y-68220931D01*
X94435898Y-67996903D01*
X94301180Y-67795283D01*
X94129717Y-67623820D01*
X93928097Y-67489102D01*
X93704069Y-67396307D01*
X93466243Y-67349000D01*
X93223757Y-67349000D01*
X92985931Y-67396307D01*
X92761903Y-67489102D01*
X92560283Y-67623820D01*
X92388820Y-67795283D01*
X92254102Y-67996903D01*
X92161307Y-68220931D01*
X92114000Y-68458757D01*
X92114000Y-68701243D01*
X92161307Y-68939069D01*
X92254102Y-69163097D01*
X92388820Y-69364717D01*
X92560283Y-69536180D01*
X92761903Y-69670898D01*
X92985931Y-69763693D01*
X93223757Y-69811000D01*
X93466243Y-69811000D01*
X93704069Y-69763693D01*
X93781167Y-69731758D01*
X94239628Y-70190220D01*
X94255473Y-70209527D01*
X94332521Y-70272759D01*
X94420425Y-70319745D01*
X94515806Y-70348678D01*
X94525694Y-70349652D01*
X94590146Y-70356000D01*
X94590153Y-70356000D01*
X94614999Y-70358447D01*
X94639845Y-70356000D01*
X96184977Y-70356000D01*
X96064102Y-70536903D01*
X95971307Y-70760931D01*
X95924000Y-70998757D01*
X95924000Y-71241243D01*
X95971307Y-71479069D01*
X96064102Y-71703097D01*
X96168006Y-71858600D01*
X94799192Y-71858600D01*
X94496758Y-71556167D01*
X94528693Y-71479069D01*
X94576000Y-71241243D01*
X94576000Y-70998757D01*
X94528693Y-70760931D01*
X94435898Y-70536903D01*
X94301180Y-70335283D01*
X94129717Y-70163820D01*
X93928097Y-70029102D01*
X93704069Y-69936307D01*
X93466243Y-69889000D01*
X93223757Y-69889000D01*
X92985931Y-69936307D01*
X92761903Y-70029102D01*
X92560283Y-70163820D01*
X92388820Y-70335283D01*
X92254102Y-70536903D01*
X92161307Y-70760931D01*
X92114000Y-70998757D01*
X92114000Y-71241243D01*
X92161307Y-71479069D01*
X92254102Y-71703097D01*
X92388820Y-71904717D01*
X92560283Y-72076180D01*
X92761903Y-72210898D01*
X92985931Y-72303693D01*
X93223757Y-72351000D01*
X93466243Y-72351000D01*
X93704069Y-72303693D01*
X93781167Y-72271758D01*
X94214228Y-72704820D01*
X94230073Y-72724127D01*
X94307121Y-72787359D01*
X94395025Y-72834345D01*
X94490406Y-72863278D01*
X94500294Y-72864252D01*
X94564746Y-72870600D01*
X94564753Y-72870600D01*
X94589599Y-72873047D01*
X94614445Y-72870600D01*
X96203503Y-72870600D01*
X96198820Y-72875283D01*
X96064102Y-73076903D01*
X95971307Y-73300931D01*
X95924000Y-73538757D01*
X95924000Y-73781243D01*
X95971307Y-74019069D01*
X96064102Y-74243097D01*
X96184977Y-74424000D01*
X94824592Y-74424000D01*
X94496758Y-74096167D01*
X94528693Y-74019069D01*
X94576000Y-73781243D01*
X94576000Y-73538757D01*
X94528693Y-73300931D01*
X94435898Y-73076903D01*
X94301180Y-72875283D01*
X94129717Y-72703820D01*
X93928097Y-72569102D01*
X93704069Y-72476307D01*
X93466243Y-72429000D01*
X93223757Y-72429000D01*
X92985931Y-72476307D01*
X92761903Y-72569102D01*
X92560283Y-72703820D01*
X92388820Y-72875283D01*
X92254102Y-73076903D01*
X92161307Y-73300931D01*
X92114000Y-73538757D01*
X92114000Y-73781243D01*
X92161307Y-74019069D01*
X92254102Y-74243097D01*
X92388820Y-74444717D01*
X92560283Y-74616180D01*
X92761903Y-74750898D01*
X92985931Y-74843693D01*
X93223757Y-74891000D01*
X93466243Y-74891000D01*
X93704069Y-74843693D01*
X93781167Y-74811758D01*
X94239628Y-75270220D01*
X94255473Y-75289527D01*
X94332521Y-75352759D01*
X94420425Y-75399745D01*
X94515806Y-75428678D01*
X94525694Y-75429652D01*
X94590146Y-75436000D01*
X94590153Y-75436000D01*
X94614999Y-75438447D01*
X94639845Y-75436000D01*
X96184977Y-75436000D01*
X96064102Y-75616903D01*
X95971307Y-75840931D01*
X95924000Y-76078757D01*
X95924000Y-76321243D01*
X95971307Y-76559069D01*
X96064102Y-76783097D01*
X96168006Y-76938600D01*
X94799192Y-76938600D01*
X94496758Y-76636167D01*
X94528693Y-76559069D01*
X94576000Y-76321243D01*
X94576000Y-76078757D01*
X94528693Y-75840931D01*
X94435898Y-75616903D01*
X94301180Y-75415283D01*
X94129717Y-75243820D01*
X93928097Y-75109102D01*
X93704069Y-75016307D01*
X93466243Y-74969000D01*
X93223757Y-74969000D01*
X92985931Y-75016307D01*
X92761903Y-75109102D01*
X92560283Y-75243820D01*
X92388820Y-75415283D01*
X92254102Y-75616903D01*
X92161307Y-75840931D01*
X92114000Y-76078757D01*
X92114000Y-76321243D01*
X92161307Y-76559069D01*
X92254102Y-76783097D01*
X92388820Y-76984717D01*
X92560283Y-77156180D01*
X92761903Y-77290898D01*
X92985931Y-77383693D01*
X93223757Y-77431000D01*
X93466243Y-77431000D01*
X93704069Y-77383693D01*
X93781167Y-77351758D01*
X94214228Y-77784820D01*
X94230073Y-77804127D01*
X94307121Y-77867359D01*
X94395025Y-77914345D01*
X94490406Y-77943278D01*
X94500294Y-77944252D01*
X94564746Y-77950600D01*
X94564753Y-77950600D01*
X94589599Y-77953047D01*
X94614445Y-77950600D01*
X96203503Y-77950600D01*
X96198820Y-77955283D01*
X96064102Y-78156903D01*
X95971307Y-78380931D01*
X95924000Y-78618757D01*
X95924000Y-78861243D01*
X95971307Y-79099069D01*
X96064102Y-79323097D01*
X96184977Y-79504000D01*
X94824592Y-79504000D01*
X94496758Y-79176167D01*
X94528693Y-79099069D01*
X94576000Y-78861243D01*
X94576000Y-78618757D01*
X94528693Y-78380931D01*
X94435898Y-78156903D01*
X94301180Y-77955283D01*
X94129717Y-77783820D01*
X93928097Y-77649102D01*
X93704069Y-77556307D01*
X93466243Y-77509000D01*
X93223757Y-77509000D01*
X92985931Y-77556307D01*
X92761903Y-77649102D01*
X92560283Y-77783820D01*
X92388820Y-77955283D01*
X92254102Y-78156903D01*
X92161307Y-78380931D01*
X92114000Y-78618757D01*
X92114000Y-78861243D01*
X92161307Y-79099069D01*
X92254102Y-79323097D01*
X92388820Y-79524717D01*
X92560283Y-79696180D01*
X92761903Y-79830898D01*
X92985931Y-79923693D01*
X93223757Y-79971000D01*
X93466243Y-79971000D01*
X93704069Y-79923693D01*
X93781167Y-79891758D01*
X94239628Y-80350220D01*
X94255473Y-80369527D01*
X94332521Y-80432759D01*
X94420425Y-80479745D01*
X94515806Y-80508678D01*
X94525694Y-80509652D01*
X94590146Y-80516000D01*
X94590153Y-80516000D01*
X94614999Y-80518447D01*
X94639845Y-80516000D01*
X96184977Y-80516000D01*
X96064102Y-80696903D01*
X95971307Y-80920931D01*
X95924000Y-81158757D01*
X95924000Y-81401243D01*
X95971307Y-81639069D01*
X96064102Y-81863097D01*
X96184977Y-82044000D01*
X94824592Y-82044000D01*
X94496758Y-81716167D01*
X94528693Y-81639069D01*
X94576000Y-81401243D01*
X94576000Y-81158757D01*
X94528693Y-80920931D01*
X94435898Y-80696903D01*
X94301180Y-80495283D01*
X94129717Y-80323820D01*
X93928097Y-80189102D01*
X93704069Y-80096307D01*
X93466243Y-80049000D01*
X93223757Y-80049000D01*
X92985931Y-80096307D01*
X92761903Y-80189102D01*
X92560283Y-80323820D01*
X92388820Y-80495283D01*
X92254102Y-80696903D01*
X92161307Y-80920931D01*
X92114000Y-81158757D01*
X92114000Y-81401243D01*
X92161307Y-81639069D01*
X92254102Y-81863097D01*
X92388820Y-82064717D01*
X92560283Y-82236180D01*
X92761903Y-82370898D01*
X92985931Y-82463693D01*
X93223757Y-82511000D01*
X93466243Y-82511000D01*
X93704069Y-82463693D01*
X93781167Y-82431758D01*
X94239628Y-82890220D01*
X94255473Y-82909527D01*
X94332521Y-82972759D01*
X94420425Y-83019745D01*
X94515806Y-83048678D01*
X94525694Y-83049652D01*
X94590146Y-83056000D01*
X94590153Y-83056000D01*
X94614999Y-83058447D01*
X94639845Y-83056000D01*
X96184977Y-83056000D01*
X96064102Y-83236903D01*
X95971307Y-83460931D01*
X95924000Y-83698757D01*
X95924000Y-83941243D01*
X95971307Y-84179069D01*
X96064102Y-84403097D01*
X96168006Y-84558600D01*
X94799192Y-84558600D01*
X94496758Y-84256167D01*
X94528693Y-84179069D01*
X94576000Y-83941243D01*
X94576000Y-83698757D01*
X94528693Y-83460931D01*
X94435898Y-83236903D01*
X94301180Y-83035283D01*
X94129717Y-82863820D01*
X93928097Y-82729102D01*
X93704069Y-82636307D01*
X93466243Y-82589000D01*
X93223757Y-82589000D01*
X92985931Y-82636307D01*
X92761903Y-82729102D01*
X92560283Y-82863820D01*
X92388820Y-83035283D01*
X92254102Y-83236903D01*
X92161307Y-83460931D01*
X92114000Y-83698757D01*
X92114000Y-83941243D01*
X92161307Y-84179069D01*
X92254102Y-84403097D01*
X92388820Y-84604717D01*
X92560283Y-84776180D01*
X92761903Y-84910898D01*
X92985931Y-85003693D01*
X93223757Y-85051000D01*
X93466243Y-85051000D01*
X93704069Y-85003693D01*
X93781167Y-84971758D01*
X94214228Y-85404820D01*
X94230073Y-85424127D01*
X94307121Y-85487359D01*
X94395025Y-85534345D01*
X94490406Y-85563278D01*
X94500294Y-85564252D01*
X94564746Y-85570600D01*
X94564753Y-85570600D01*
X94589599Y-85573047D01*
X94614445Y-85570600D01*
X96203503Y-85570600D01*
X96198820Y-85575283D01*
X96064102Y-85776903D01*
X95971307Y-86000931D01*
X95924000Y-86238757D01*
X95924000Y-86481243D01*
X95971307Y-86719069D01*
X96064102Y-86943097D01*
X96184977Y-87124000D01*
X94824592Y-87124000D01*
X94496758Y-86796167D01*
X94528693Y-86719069D01*
X94576000Y-86481243D01*
X94576000Y-86238757D01*
X94528693Y-86000931D01*
X94435898Y-85776903D01*
X94301180Y-85575283D01*
X94129717Y-85403820D01*
X93928097Y-85269102D01*
X93704069Y-85176307D01*
X93466243Y-85129000D01*
X93223757Y-85129000D01*
X92985931Y-85176307D01*
X92761903Y-85269102D01*
X92560283Y-85403820D01*
X92388820Y-85575283D01*
X92254102Y-85776903D01*
X92161307Y-86000931D01*
X92114000Y-86238757D01*
X92114000Y-86481243D01*
X92161307Y-86719069D01*
X92254102Y-86943097D01*
X92388820Y-87144717D01*
X92560283Y-87316180D01*
X92761903Y-87450898D01*
X92985931Y-87543693D01*
X93223757Y-87591000D01*
X93466243Y-87591000D01*
X93704069Y-87543693D01*
X93781167Y-87511758D01*
X94239628Y-87970220D01*
X94255473Y-87989527D01*
X94332521Y-88052759D01*
X94420425Y-88099745D01*
X94515806Y-88128678D01*
X94525694Y-88129652D01*
X94590146Y-88136000D01*
X94590153Y-88136000D01*
X94614999Y-88138447D01*
X94639845Y-88136000D01*
X96184977Y-88136000D01*
X96064102Y-88316903D01*
X95971307Y-88540931D01*
X95924000Y-88778757D01*
X95924000Y-89021243D01*
X95971307Y-89259069D01*
X96064102Y-89483097D01*
X96184977Y-89664000D01*
X94824592Y-89664000D01*
X94496758Y-89336167D01*
X94528693Y-89259069D01*
X94576000Y-89021243D01*
X94576000Y-88778757D01*
X94528693Y-88540931D01*
X94435898Y-88316903D01*
X94301180Y-88115283D01*
X94129717Y-87943820D01*
X93928097Y-87809102D01*
X93704069Y-87716307D01*
X93466243Y-87669000D01*
X93223757Y-87669000D01*
X92985931Y-87716307D01*
X92761903Y-87809102D01*
X92560283Y-87943820D01*
X92388820Y-88115283D01*
X92254102Y-88316903D01*
X92161307Y-88540931D01*
X92114000Y-88778757D01*
X92114000Y-89021243D01*
X92161307Y-89259069D01*
X92254102Y-89483097D01*
X92388820Y-89684717D01*
X92560283Y-89856180D01*
X92761903Y-89990898D01*
X92985931Y-90083693D01*
X93223757Y-90131000D01*
X93466243Y-90131000D01*
X93704069Y-90083693D01*
X93781167Y-90051758D01*
X94239628Y-90510220D01*
X94255473Y-90529527D01*
X94332521Y-90592759D01*
X94420425Y-90639745D01*
X94515806Y-90668678D01*
X94525694Y-90669652D01*
X94590146Y-90676000D01*
X94590153Y-90676000D01*
X94614999Y-90678447D01*
X94639845Y-90676000D01*
X96184977Y-90676000D01*
X96064102Y-90856903D01*
X95971307Y-91080931D01*
X95924000Y-91318757D01*
X95924000Y-91561243D01*
X95971307Y-91799069D01*
X96064102Y-92023097D01*
X96184977Y-92204000D01*
X94824592Y-92204000D01*
X94496758Y-91876167D01*
X94528693Y-91799069D01*
X94576000Y-91561243D01*
X94576000Y-91318757D01*
X94528693Y-91080931D01*
X94435898Y-90856903D01*
X94301180Y-90655283D01*
X94129717Y-90483820D01*
X93928097Y-90349102D01*
X93704069Y-90256307D01*
X93466243Y-90209000D01*
X93223757Y-90209000D01*
X92985931Y-90256307D01*
X92761903Y-90349102D01*
X92560283Y-90483820D01*
X92388820Y-90655283D01*
X92254102Y-90856903D01*
X92161307Y-91080931D01*
X92114000Y-91318757D01*
X92114000Y-91561243D01*
X92161307Y-91799069D01*
X92254102Y-92023097D01*
X92388820Y-92224717D01*
X92560283Y-92396180D01*
X92761903Y-92530898D01*
X92985931Y-92623693D01*
X93223757Y-92671000D01*
X93466243Y-92671000D01*
X93704069Y-92623693D01*
X93781167Y-92591758D01*
X94239628Y-93050220D01*
X94255473Y-93069527D01*
X94332521Y-93132759D01*
X94420425Y-93179745D01*
X94515806Y-93208678D01*
X94525694Y-93209652D01*
X94590146Y-93216000D01*
X94590153Y-93216000D01*
X94614999Y-93218447D01*
X94639845Y-93216000D01*
X96184977Y-93216000D01*
X96064102Y-93396903D01*
X95971307Y-93620931D01*
X95924000Y-93858757D01*
X95924000Y-94101243D01*
X95971307Y-94339069D01*
X96064102Y-94563097D01*
X96168006Y-94718600D01*
X94799192Y-94718600D01*
X94496758Y-94416167D01*
X94528693Y-94339069D01*
X94576000Y-94101243D01*
X94576000Y-93858757D01*
X94528693Y-93620931D01*
X94435898Y-93396903D01*
X94301180Y-93195283D01*
X94129717Y-93023820D01*
X93928097Y-92889102D01*
X93704069Y-92796307D01*
X93466243Y-92749000D01*
X93223757Y-92749000D01*
X92985931Y-92796307D01*
X92761903Y-92889102D01*
X92560283Y-93023820D01*
X92388820Y-93195283D01*
X92254102Y-93396903D01*
X92161307Y-93620931D01*
X92114000Y-93858757D01*
X92114000Y-94101243D01*
X92161307Y-94339069D01*
X92254102Y-94563097D01*
X92388820Y-94764717D01*
X92560283Y-94936180D01*
X92761903Y-95070898D01*
X92985931Y-95163693D01*
X93223757Y-95211000D01*
X93466243Y-95211000D01*
X93704069Y-95163693D01*
X93781167Y-95131758D01*
X94214228Y-95564820D01*
X94230073Y-95584127D01*
X94307121Y-95647359D01*
X94395025Y-95694345D01*
X94490406Y-95723278D01*
X94500294Y-95724252D01*
X94564746Y-95730600D01*
X94564753Y-95730600D01*
X94589599Y-95733047D01*
X94614445Y-95730600D01*
X98425554Y-95730600D01*
X98450400Y-95733047D01*
X98475246Y-95730600D01*
X98475254Y-95730600D01*
X98549593Y-95723278D01*
X98644975Y-95694345D01*
X98732879Y-95647359D01*
X98809927Y-95584127D01*
X98825776Y-95564815D01*
X99258833Y-95131758D01*
X99335931Y-95163693D01*
X99573757Y-95211000D01*
X99816243Y-95211000D01*
X100054069Y-95163693D01*
X100278097Y-95070898D01*
X100479717Y-94936180D01*
X100651180Y-94764717D01*
X100785898Y-94563097D01*
X100878693Y-94339069D01*
X100926000Y-94101243D01*
X100926000Y-93858757D01*
X100878693Y-93620931D01*
X100826865Y-93495807D01*
X103845220Y-90477453D01*
X103864527Y-90461608D01*
X103927759Y-90384560D01*
X103974745Y-90296656D01*
X104003678Y-90201274D01*
X104011000Y-90126935D01*
X104013448Y-90102081D01*
X104011000Y-90077227D01*
X104011000Y-90022832D01*
X104088097Y-89990898D01*
X104289717Y-89856180D01*
X104461180Y-89684717D01*
X104595898Y-89483097D01*
X104688693Y-89259069D01*
X104736000Y-89021243D01*
X104736000Y-88778757D01*
X104814000Y-88778757D01*
X104814000Y-89021243D01*
X104861307Y-89259069D01*
X104954102Y-89483097D01*
X105088820Y-89684717D01*
X105260283Y-89856180D01*
X105461903Y-89990898D01*
X105685931Y-90083693D01*
X105923757Y-90131000D01*
X106166243Y-90131000D01*
X106404069Y-90083693D01*
X106628097Y-89990898D01*
X106829717Y-89856180D01*
X107001180Y-89684717D01*
X107135898Y-89483097D01*
X107228693Y-89259069D01*
X107276000Y-89021243D01*
X107276000Y-88778757D01*
X107228693Y-88540931D01*
X107135898Y-88316903D01*
X107001180Y-88115283D01*
X106829717Y-87943820D01*
X106628097Y-87809102D01*
X106404069Y-87716307D01*
X106166243Y-87669000D01*
X105923757Y-87669000D01*
X105685931Y-87716307D01*
X105461903Y-87809102D01*
X105260283Y-87943820D01*
X105088820Y-88115283D01*
X104954102Y-88316903D01*
X104861307Y-88540931D01*
X104814000Y-88778757D01*
X104736000Y-88778757D01*
X104688693Y-88540931D01*
X104595898Y-88316903D01*
X104461180Y-88115283D01*
X104289717Y-87943820D01*
X104088097Y-87809102D01*
X103864069Y-87716307D01*
X103626243Y-87669000D01*
X103383757Y-87669000D01*
X103145931Y-87716307D01*
X102921903Y-87809102D01*
X102720283Y-87943820D01*
X102548820Y-88115283D01*
X102414102Y-88316903D01*
X102321307Y-88540931D01*
X102274000Y-88778757D01*
X102274000Y-89021243D01*
X102321307Y-89259069D01*
X102414102Y-89483097D01*
X102548820Y-89684717D01*
X102720283Y-89856180D01*
X102909127Y-89982362D01*
X100083141Y-92808349D01*
X100054069Y-92796307D01*
X99816243Y-92749000D01*
X99573757Y-92749000D01*
X99335931Y-92796307D01*
X99111903Y-92889102D01*
X98910283Y-93023820D01*
X98738820Y-93195283D01*
X98604102Y-93396903D01*
X98511307Y-93620931D01*
X98464000Y-93858757D01*
X98464000Y-94101243D01*
X98511307Y-94339069D01*
X98543242Y-94416167D01*
X98240809Y-94718600D01*
X98141994Y-94718600D01*
X98245898Y-94563097D01*
X98338693Y-94339069D01*
X98386000Y-94101243D01*
X98386000Y-93858757D01*
X98338693Y-93620931D01*
X98245898Y-93396903D01*
X98125023Y-93216000D01*
X98400154Y-93216000D01*
X98425000Y-93218447D01*
X98449846Y-93216000D01*
X98449854Y-93216000D01*
X98524193Y-93208678D01*
X98619575Y-93179745D01*
X98707479Y-93132759D01*
X98784527Y-93069527D01*
X98800376Y-93050215D01*
X99258833Y-92591758D01*
X99335931Y-92623693D01*
X99573757Y-92671000D01*
X99816243Y-92671000D01*
X100054069Y-92623693D01*
X100278097Y-92530898D01*
X100479717Y-92396180D01*
X100651180Y-92224717D01*
X100785898Y-92023097D01*
X100878693Y-91799069D01*
X100926000Y-91561243D01*
X100926000Y-91318757D01*
X100878693Y-91080931D01*
X100846758Y-91003833D01*
X101813220Y-90037372D01*
X101832527Y-90021527D01*
X101895759Y-89944479D01*
X101942745Y-89856575D01*
X101971678Y-89761193D01*
X101979000Y-89686854D01*
X101981448Y-89662000D01*
X101979000Y-89637146D01*
X101979000Y-88601591D01*
X103068833Y-87511758D01*
X103145931Y-87543693D01*
X103383757Y-87591000D01*
X103626243Y-87591000D01*
X103864069Y-87543693D01*
X104088097Y-87450898D01*
X104289717Y-87316180D01*
X104461180Y-87144717D01*
X104595898Y-86943097D01*
X104688693Y-86719069D01*
X104736000Y-86481243D01*
X104736000Y-86238757D01*
X104814000Y-86238757D01*
X104814000Y-86481243D01*
X104861307Y-86719069D01*
X104954102Y-86943097D01*
X105088820Y-87144717D01*
X105260283Y-87316180D01*
X105461903Y-87450898D01*
X105685931Y-87543693D01*
X105923757Y-87591000D01*
X106166243Y-87591000D01*
X106404069Y-87543693D01*
X106628097Y-87450898D01*
X106829717Y-87316180D01*
X107001180Y-87144717D01*
X107135898Y-86943097D01*
X107228693Y-86719069D01*
X107276000Y-86481243D01*
X107276000Y-86238757D01*
X107228693Y-86000931D01*
X107135898Y-85776903D01*
X107001180Y-85575283D01*
X106829717Y-85403820D01*
X106628097Y-85269102D01*
X106404069Y-85176307D01*
X106166243Y-85129000D01*
X105923757Y-85129000D01*
X105685931Y-85176307D01*
X105461903Y-85269102D01*
X105260283Y-85403820D01*
X105088820Y-85575283D01*
X104954102Y-85776903D01*
X104861307Y-86000931D01*
X104814000Y-86238757D01*
X104736000Y-86238757D01*
X104688693Y-86000931D01*
X104595898Y-85776903D01*
X104461180Y-85575283D01*
X104289717Y-85403820D01*
X104088097Y-85269102D01*
X103864069Y-85176307D01*
X103626243Y-85129000D01*
X103383757Y-85129000D01*
X103145931Y-85176307D01*
X102921903Y-85269102D01*
X102720283Y-85403820D01*
X102548820Y-85575283D01*
X102414102Y-85776903D01*
X102321307Y-86000931D01*
X102274000Y-86238757D01*
X102274000Y-86481243D01*
X102321307Y-86719069D01*
X102353242Y-86796167D01*
X101976427Y-87172982D01*
X101979000Y-87146854D01*
X101981448Y-87122000D01*
X101979000Y-87097146D01*
X101979000Y-86061591D01*
X103068833Y-84971758D01*
X103145931Y-85003693D01*
X103383757Y-85051000D01*
X103626243Y-85051000D01*
X103864069Y-85003693D01*
X104088097Y-84910898D01*
X104289717Y-84776180D01*
X104461180Y-84604717D01*
X104595898Y-84403097D01*
X104688693Y-84179069D01*
X104736000Y-83941243D01*
X104736000Y-83698757D01*
X104814000Y-83698757D01*
X104814000Y-83941243D01*
X104861307Y-84179069D01*
X104954102Y-84403097D01*
X105088820Y-84604717D01*
X105260283Y-84776180D01*
X105461903Y-84910898D01*
X105685931Y-85003693D01*
X105923757Y-85051000D01*
X106166243Y-85051000D01*
X106404069Y-85003693D01*
X106628097Y-84910898D01*
X106829717Y-84776180D01*
X107001180Y-84604717D01*
X107135898Y-84403097D01*
X107228693Y-84179069D01*
X107276000Y-83941243D01*
X107276000Y-83698757D01*
X107228693Y-83460931D01*
X107135898Y-83236903D01*
X107001180Y-83035283D01*
X106829717Y-82863820D01*
X106628097Y-82729102D01*
X106404069Y-82636307D01*
X106166243Y-82589000D01*
X105923757Y-82589000D01*
X105685931Y-82636307D01*
X105461903Y-82729102D01*
X105260283Y-82863820D01*
X105088820Y-83035283D01*
X104954102Y-83236903D01*
X104861307Y-83460931D01*
X104814000Y-83698757D01*
X104736000Y-83698757D01*
X104688693Y-83460931D01*
X104595898Y-83236903D01*
X104461180Y-83035283D01*
X104289717Y-82863820D01*
X104088097Y-82729102D01*
X103864069Y-82636307D01*
X103626243Y-82589000D01*
X103383757Y-82589000D01*
X103145931Y-82636307D01*
X102921903Y-82729102D01*
X102720283Y-82863820D01*
X102548820Y-83035283D01*
X102414102Y-83236903D01*
X102321307Y-83460931D01*
X102274000Y-83698757D01*
X102274000Y-83941243D01*
X102321307Y-84179069D01*
X102353242Y-84256167D01*
X101976427Y-84632982D01*
X101979000Y-84606854D01*
X101981448Y-84582000D01*
X101979000Y-84557146D01*
X101979000Y-83521591D01*
X103068833Y-82431758D01*
X103145931Y-82463693D01*
X103383757Y-82511000D01*
X103626243Y-82511000D01*
X103864069Y-82463693D01*
X104088097Y-82370898D01*
X104289717Y-82236180D01*
X104461180Y-82064717D01*
X104595898Y-81863097D01*
X104688693Y-81639069D01*
X104736000Y-81401243D01*
X104736000Y-81158757D01*
X104814000Y-81158757D01*
X104814000Y-81401243D01*
X104861307Y-81639069D01*
X104954102Y-81863097D01*
X105088820Y-82064717D01*
X105260283Y-82236180D01*
X105461903Y-82370898D01*
X105685931Y-82463693D01*
X105923757Y-82511000D01*
X106166243Y-82511000D01*
X106404069Y-82463693D01*
X106628097Y-82370898D01*
X106829717Y-82236180D01*
X107001180Y-82064717D01*
X107135898Y-81863097D01*
X107228693Y-81639069D01*
X107276000Y-81401243D01*
X107276000Y-81158757D01*
X107228693Y-80920931D01*
X107135898Y-80696903D01*
X107001180Y-80495283D01*
X106829717Y-80323820D01*
X106628097Y-80189102D01*
X106404069Y-80096307D01*
X106166243Y-80049000D01*
X105923757Y-80049000D01*
X105685931Y-80096307D01*
X105461903Y-80189102D01*
X105260283Y-80323820D01*
X105088820Y-80495283D01*
X104954102Y-80696903D01*
X104861307Y-80920931D01*
X104814000Y-81158757D01*
X104736000Y-81158757D01*
X104688693Y-80920931D01*
X104595898Y-80696903D01*
X104461180Y-80495283D01*
X104289717Y-80323820D01*
X104088097Y-80189102D01*
X103864069Y-80096307D01*
X103626243Y-80049000D01*
X103383757Y-80049000D01*
X103145931Y-80096307D01*
X102921903Y-80189102D01*
X102720283Y-80323820D01*
X102548820Y-80495283D01*
X102414102Y-80696903D01*
X102321307Y-80920931D01*
X102274000Y-81158757D01*
X102274000Y-81401243D01*
X102321307Y-81639069D01*
X102353242Y-81716167D01*
X101976427Y-82092982D01*
X101979000Y-82066854D01*
X101981448Y-82042000D01*
X101979000Y-82017146D01*
X101979000Y-80981591D01*
X103068833Y-79891758D01*
X103145931Y-79923693D01*
X103383757Y-79971000D01*
X103626243Y-79971000D01*
X103864069Y-79923693D01*
X104088097Y-79830898D01*
X104289717Y-79696180D01*
X104461180Y-79524717D01*
X104595898Y-79323097D01*
X104688693Y-79099069D01*
X104736000Y-78861243D01*
X104736000Y-78618757D01*
X104814000Y-78618757D01*
X104814000Y-78861243D01*
X104861307Y-79099069D01*
X104954102Y-79323097D01*
X105088820Y-79524717D01*
X105260283Y-79696180D01*
X105461903Y-79830898D01*
X105685931Y-79923693D01*
X105923757Y-79971000D01*
X106166243Y-79971000D01*
X106404069Y-79923693D01*
X106628097Y-79830898D01*
X106829717Y-79696180D01*
X107001180Y-79524717D01*
X107135898Y-79323097D01*
X107228693Y-79099069D01*
X107276000Y-78861243D01*
X107276000Y-78618757D01*
X107228693Y-78380931D01*
X107135898Y-78156903D01*
X107001180Y-77955283D01*
X106829717Y-77783820D01*
X106628097Y-77649102D01*
X106404069Y-77556307D01*
X106166243Y-77509000D01*
X105923757Y-77509000D01*
X105685931Y-77556307D01*
X105461903Y-77649102D01*
X105260283Y-77783820D01*
X105088820Y-77955283D01*
X104954102Y-78156903D01*
X104861307Y-78380931D01*
X104814000Y-78618757D01*
X104736000Y-78618757D01*
X104688693Y-78380931D01*
X104595898Y-78156903D01*
X104461180Y-77955283D01*
X104289717Y-77783820D01*
X104088097Y-77649102D01*
X103864069Y-77556307D01*
X103626243Y-77509000D01*
X103383757Y-77509000D01*
X103145931Y-77556307D01*
X102921903Y-77649102D01*
X102720283Y-77783820D01*
X102548820Y-77955283D01*
X102414102Y-78156903D01*
X102321307Y-78380931D01*
X102274000Y-78618757D01*
X102274000Y-78861243D01*
X102321307Y-79099069D01*
X102353242Y-79176167D01*
X101976427Y-79552982D01*
X101979000Y-79526854D01*
X101981448Y-79502000D01*
X101979000Y-79477146D01*
X101979000Y-78441591D01*
X103068833Y-77351758D01*
X103145931Y-77383693D01*
X103383757Y-77431000D01*
X103626243Y-77431000D01*
X103864069Y-77383693D01*
X104088097Y-77290898D01*
X104289717Y-77156180D01*
X104461180Y-76984717D01*
X104595898Y-76783097D01*
X104688693Y-76559069D01*
X104736000Y-76321243D01*
X104736000Y-76078757D01*
X104814000Y-76078757D01*
X104814000Y-76321243D01*
X104861307Y-76559069D01*
X104954102Y-76783097D01*
X105088820Y-76984717D01*
X105260283Y-77156180D01*
X105461903Y-77290898D01*
X105685931Y-77383693D01*
X105923757Y-77431000D01*
X106166243Y-77431000D01*
X106404069Y-77383693D01*
X106628097Y-77290898D01*
X106829717Y-77156180D01*
X107001180Y-76984717D01*
X107135898Y-76783097D01*
X107228693Y-76559069D01*
X107276000Y-76321243D01*
X107276000Y-76078757D01*
X107228693Y-75840931D01*
X107135898Y-75616903D01*
X107001180Y-75415283D01*
X106829717Y-75243820D01*
X106628097Y-75109102D01*
X106404069Y-75016307D01*
X106166243Y-74969000D01*
X105923757Y-74969000D01*
X105685931Y-75016307D01*
X105461903Y-75109102D01*
X105260283Y-75243820D01*
X105088820Y-75415283D01*
X104954102Y-75616903D01*
X104861307Y-75840931D01*
X104814000Y-76078757D01*
X104736000Y-76078757D01*
X104688693Y-75840931D01*
X104595898Y-75616903D01*
X104461180Y-75415283D01*
X104289717Y-75243820D01*
X104088097Y-75109102D01*
X103864069Y-75016307D01*
X103626243Y-74969000D01*
X103383757Y-74969000D01*
X103145931Y-75016307D01*
X102921903Y-75109102D01*
X102720283Y-75243820D01*
X102548820Y-75415283D01*
X102414102Y-75616903D01*
X102321307Y-75840931D01*
X102274000Y-76078757D01*
X102274000Y-76321243D01*
X102321307Y-76559069D01*
X102353242Y-76636167D01*
X101976427Y-77012982D01*
X101979000Y-76986854D01*
X101981448Y-76962000D01*
X101979000Y-76937146D01*
X101979000Y-75901591D01*
X103068833Y-74811758D01*
X103145931Y-74843693D01*
X103383757Y-74891000D01*
X103626243Y-74891000D01*
X103864069Y-74843693D01*
X104088097Y-74750898D01*
X104289717Y-74616180D01*
X104461180Y-74444717D01*
X104595898Y-74243097D01*
X104688693Y-74019069D01*
X104736000Y-73781243D01*
X104736000Y-73538757D01*
X104814000Y-73538757D01*
X104814000Y-73781243D01*
X104861307Y-74019069D01*
X104954102Y-74243097D01*
X105088820Y-74444717D01*
X105260283Y-74616180D01*
X105461903Y-74750898D01*
X105685931Y-74843693D01*
X105923757Y-74891000D01*
X106166243Y-74891000D01*
X106404069Y-74843693D01*
X106628097Y-74750898D01*
X106829717Y-74616180D01*
X107001180Y-74444717D01*
X107135898Y-74243097D01*
X107228693Y-74019069D01*
X107276000Y-73781243D01*
X107276000Y-73538757D01*
X107228693Y-73300931D01*
X107135898Y-73076903D01*
X107001180Y-72875283D01*
X106829717Y-72703820D01*
X106628097Y-72569102D01*
X106404069Y-72476307D01*
X106166243Y-72429000D01*
X105923757Y-72429000D01*
X105685931Y-72476307D01*
X105461903Y-72569102D01*
X105260283Y-72703820D01*
X105088820Y-72875283D01*
X104954102Y-73076903D01*
X104861307Y-73300931D01*
X104814000Y-73538757D01*
X104736000Y-73538757D01*
X104688693Y-73300931D01*
X104595898Y-73076903D01*
X104461180Y-72875283D01*
X104289717Y-72703820D01*
X104088097Y-72569102D01*
X103864069Y-72476307D01*
X103626243Y-72429000D01*
X103383757Y-72429000D01*
X103145931Y-72476307D01*
X102921903Y-72569102D01*
X102720283Y-72703820D01*
X102548820Y-72875283D01*
X102414102Y-73076903D01*
X102321307Y-73300931D01*
X102274000Y-73538757D01*
X102274000Y-73781243D01*
X102321307Y-74019069D01*
X102353242Y-74096167D01*
X101976427Y-74472982D01*
X101979000Y-74446854D01*
X101981448Y-74422000D01*
X101979000Y-74397146D01*
X101979000Y-73361591D01*
X103068833Y-72271758D01*
X103145931Y-72303693D01*
X103383757Y-72351000D01*
X103626243Y-72351000D01*
X103864069Y-72303693D01*
X104088097Y-72210898D01*
X104289717Y-72076180D01*
X104461180Y-71904717D01*
X104595898Y-71703097D01*
X104688693Y-71479069D01*
X104736000Y-71241243D01*
X104736000Y-70998757D01*
X104814000Y-70998757D01*
X104814000Y-71241243D01*
X104861307Y-71479069D01*
X104954102Y-71703097D01*
X105088820Y-71904717D01*
X105260283Y-72076180D01*
X105461903Y-72210898D01*
X105685931Y-72303693D01*
X105923757Y-72351000D01*
X106166243Y-72351000D01*
X106404069Y-72303693D01*
X106628097Y-72210898D01*
X106829717Y-72076180D01*
X107001180Y-71904717D01*
X107135898Y-71703097D01*
X107228693Y-71479069D01*
X107276000Y-71241243D01*
X107276000Y-70998757D01*
X107228693Y-70760931D01*
X107135898Y-70536903D01*
X107001180Y-70335283D01*
X106829717Y-70163820D01*
X106628097Y-70029102D01*
X106404069Y-69936307D01*
X106166243Y-69889000D01*
X105923757Y-69889000D01*
X105685931Y-69936307D01*
X105461903Y-70029102D01*
X105260283Y-70163820D01*
X105088820Y-70335283D01*
X104954102Y-70536903D01*
X104861307Y-70760931D01*
X104814000Y-70998757D01*
X104736000Y-70998757D01*
X104688693Y-70760931D01*
X104595898Y-70536903D01*
X104461180Y-70335283D01*
X104289717Y-70163820D01*
X104088097Y-70029102D01*
X103864069Y-69936307D01*
X103626243Y-69889000D01*
X103383757Y-69889000D01*
X103145931Y-69936307D01*
X102921903Y-70029102D01*
X102720283Y-70163820D01*
X102548820Y-70335283D01*
X102414102Y-70536903D01*
X102321307Y-70760931D01*
X102274000Y-70998757D01*
X102274000Y-71241243D01*
X102321307Y-71479069D01*
X102353242Y-71556167D01*
X101976427Y-71932982D01*
X101979000Y-71906854D01*
X101981448Y-71882000D01*
X101979000Y-71857146D01*
X101979000Y-70821591D01*
X103068833Y-69731758D01*
X103145931Y-69763693D01*
X103383757Y-69811000D01*
X103626243Y-69811000D01*
X103864069Y-69763693D01*
X104088097Y-69670898D01*
X104289717Y-69536180D01*
X104461180Y-69364717D01*
X104595898Y-69163097D01*
X104688693Y-68939069D01*
X104736000Y-68701243D01*
X104736000Y-68458757D01*
X104814000Y-68458757D01*
X104814000Y-68701243D01*
X104861307Y-68939069D01*
X104954102Y-69163097D01*
X105088820Y-69364717D01*
X105260283Y-69536180D01*
X105461903Y-69670898D01*
X105685931Y-69763693D01*
X105923757Y-69811000D01*
X106166243Y-69811000D01*
X106404069Y-69763693D01*
X106628097Y-69670898D01*
X106829717Y-69536180D01*
X107001180Y-69364717D01*
X107135898Y-69163097D01*
X107228693Y-68939069D01*
X107276000Y-68701243D01*
X107276000Y-68458757D01*
X107228693Y-68220931D01*
X107135898Y-67996903D01*
X107001180Y-67795283D01*
X106829717Y-67623820D01*
X106628097Y-67489102D01*
X106404069Y-67396307D01*
X106166243Y-67349000D01*
X105923757Y-67349000D01*
X105685931Y-67396307D01*
X105461903Y-67489102D01*
X105260283Y-67623820D01*
X105088820Y-67795283D01*
X104954102Y-67996903D01*
X104861307Y-68220931D01*
X104814000Y-68458757D01*
X104736000Y-68458757D01*
X104688693Y-68220931D01*
X104595898Y-67996903D01*
X104461180Y-67795283D01*
X104289717Y-67623820D01*
X104088097Y-67489102D01*
X103864069Y-67396307D01*
X103626243Y-67349000D01*
X103383757Y-67349000D01*
X103145931Y-67396307D01*
X102921903Y-67489102D01*
X102720283Y-67623820D01*
X102548820Y-67795283D01*
X102414102Y-67996903D01*
X102321307Y-68220931D01*
X102274000Y-68458757D01*
X102274000Y-68701243D01*
X102321307Y-68939069D01*
X102353242Y-69016167D01*
X101976427Y-69392982D01*
X101979000Y-69366854D01*
X101981448Y-69342000D01*
X101979000Y-69317146D01*
X101979000Y-68281591D01*
X103068833Y-67191758D01*
X103145931Y-67223693D01*
X103383757Y-67271000D01*
X103626243Y-67271000D01*
X103864069Y-67223693D01*
X104088097Y-67130898D01*
X104289717Y-66996180D01*
X104461180Y-66824717D01*
X104595898Y-66623097D01*
X104688693Y-66399069D01*
X104736000Y-66161243D01*
X104736000Y-65918757D01*
X104814000Y-65918757D01*
X104814000Y-66161243D01*
X104861307Y-66399069D01*
X104954102Y-66623097D01*
X105088820Y-66824717D01*
X105260283Y-66996180D01*
X105461903Y-67130898D01*
X105685931Y-67223693D01*
X105923757Y-67271000D01*
X106166243Y-67271000D01*
X106404069Y-67223693D01*
X106628097Y-67130898D01*
X106829717Y-66996180D01*
X107001180Y-66824717D01*
X107135898Y-66623097D01*
X107228693Y-66399069D01*
X107276000Y-66161243D01*
X107276000Y-65918757D01*
X107228693Y-65680931D01*
X107135898Y-65456903D01*
X107001180Y-65255283D01*
X106829717Y-65083820D01*
X106628097Y-64949102D01*
X106404069Y-64856307D01*
X106166243Y-64809000D01*
X105923757Y-64809000D01*
X105685931Y-64856307D01*
X105461903Y-64949102D01*
X105260283Y-65083820D01*
X105088820Y-65255283D01*
X104954102Y-65456903D01*
X104861307Y-65680931D01*
X104814000Y-65918757D01*
X104736000Y-65918757D01*
X104688693Y-65680931D01*
X104595898Y-65456903D01*
X104461180Y-65255283D01*
X104289717Y-65083820D01*
X104088097Y-64949102D01*
X103864069Y-64856307D01*
X103626243Y-64809000D01*
X103383757Y-64809000D01*
X103145931Y-64856307D01*
X102921903Y-64949102D01*
X102720283Y-65083820D01*
X102548820Y-65255283D01*
X102414102Y-65456903D01*
X102321307Y-65680931D01*
X102274000Y-65918757D01*
X102274000Y-66161243D01*
X102321307Y-66399069D01*
X102353242Y-66476167D01*
X101976427Y-66852982D01*
X101979000Y-66826854D01*
X101981448Y-66802000D01*
X101979000Y-66777146D01*
X101979000Y-65741591D01*
X103068833Y-64651758D01*
X103145931Y-64683693D01*
X103383757Y-64731000D01*
X103626243Y-64731000D01*
X103864069Y-64683693D01*
X104088097Y-64590898D01*
X104289717Y-64456180D01*
X104461180Y-64284717D01*
X104595898Y-64083097D01*
X104688693Y-63859069D01*
X104736000Y-63621243D01*
X104736000Y-63378757D01*
X104814000Y-63378757D01*
X104814000Y-63621243D01*
X104861307Y-63859069D01*
X104954102Y-64083097D01*
X105088820Y-64284717D01*
X105260283Y-64456180D01*
X105461903Y-64590898D01*
X105685931Y-64683693D01*
X105923757Y-64731000D01*
X106166243Y-64731000D01*
X106404069Y-64683693D01*
X106628097Y-64590898D01*
X106829717Y-64456180D01*
X107001180Y-64284717D01*
X107135898Y-64083097D01*
X107228693Y-63859069D01*
X107276000Y-63621243D01*
X107276000Y-63378757D01*
X107228693Y-63140931D01*
X107135898Y-62916903D01*
X107001180Y-62715283D01*
X106829717Y-62543820D01*
X106628097Y-62409102D01*
X106404069Y-62316307D01*
X106166243Y-62269000D01*
X105923757Y-62269000D01*
X105685931Y-62316307D01*
X105461903Y-62409102D01*
X105260283Y-62543820D01*
X105088820Y-62715283D01*
X104954102Y-62916903D01*
X104861307Y-63140931D01*
X104814000Y-63378757D01*
X104736000Y-63378757D01*
X104688693Y-63140931D01*
X104595898Y-62916903D01*
X104461180Y-62715283D01*
X104289717Y-62543820D01*
X104088097Y-62409102D01*
X103864069Y-62316307D01*
X103626243Y-62269000D01*
X103383757Y-62269000D01*
X103145931Y-62316307D01*
X102921903Y-62409102D01*
X102720283Y-62543820D01*
X102548820Y-62715283D01*
X102414102Y-62916903D01*
X102321307Y-63140931D01*
X102274000Y-63378757D01*
X102274000Y-63621243D01*
X102321307Y-63859069D01*
X102353242Y-63936167D01*
X101976427Y-64312982D01*
X101979000Y-64286854D01*
X101981448Y-64262000D01*
X101979000Y-64237146D01*
X101979000Y-63201591D01*
X103068833Y-62111758D01*
X103145931Y-62143693D01*
X103383757Y-62191000D01*
X103626243Y-62191000D01*
X103864069Y-62143693D01*
X104088097Y-62050898D01*
X104289717Y-61916180D01*
X104461180Y-61744717D01*
X104595898Y-61543097D01*
X104688693Y-61319069D01*
X104736000Y-61081243D01*
X104736000Y-60838757D01*
X104814000Y-60838757D01*
X104814000Y-61081243D01*
X104861307Y-61319069D01*
X104954102Y-61543097D01*
X105088820Y-61744717D01*
X105260283Y-61916180D01*
X105461903Y-62050898D01*
X105685931Y-62143693D01*
X105923757Y-62191000D01*
X106166243Y-62191000D01*
X106404069Y-62143693D01*
X106628097Y-62050898D01*
X106829717Y-61916180D01*
X107001180Y-61744717D01*
X107135898Y-61543097D01*
X107228693Y-61319069D01*
X107276000Y-61081243D01*
X107276000Y-60838757D01*
X107228693Y-60600931D01*
X107135898Y-60376903D01*
X107001180Y-60175283D01*
X106829717Y-60003820D01*
X106628097Y-59869102D01*
X106404069Y-59776307D01*
X106166243Y-59729000D01*
X105923757Y-59729000D01*
X105685931Y-59776307D01*
X105461903Y-59869102D01*
X105260283Y-60003820D01*
X105088820Y-60175283D01*
X104954102Y-60376903D01*
X104861307Y-60600931D01*
X104814000Y-60838757D01*
X104736000Y-60838757D01*
X104688693Y-60600931D01*
X104595898Y-60376903D01*
X104461180Y-60175283D01*
X104289717Y-60003820D01*
X104088097Y-59869102D01*
X103864069Y-59776307D01*
X103626243Y-59729000D01*
X103383757Y-59729000D01*
X103145931Y-59776307D01*
X102921903Y-59869102D01*
X102720283Y-60003820D01*
X102548820Y-60175283D01*
X102414102Y-60376903D01*
X102321307Y-60600931D01*
X102274000Y-60838757D01*
X102274000Y-61081243D01*
X102321307Y-61319069D01*
X102353242Y-61396167D01*
X101976427Y-61772982D01*
X101979000Y-61746854D01*
X101981448Y-61722000D01*
X101979000Y-61697146D01*
X101979000Y-60661591D01*
X103068833Y-59571758D01*
X103145931Y-59603693D01*
X103383757Y-59651000D01*
X103626243Y-59651000D01*
X103864069Y-59603693D01*
X104088097Y-59510898D01*
X104289717Y-59376180D01*
X104461180Y-59204717D01*
X104595898Y-59003097D01*
X104688693Y-58779069D01*
X104736000Y-58541243D01*
X104736000Y-58298757D01*
X104814000Y-58298757D01*
X104814000Y-58541243D01*
X104861307Y-58779069D01*
X104954102Y-59003097D01*
X105088820Y-59204717D01*
X105260283Y-59376180D01*
X105461903Y-59510898D01*
X105685931Y-59603693D01*
X105923757Y-59651000D01*
X106166243Y-59651000D01*
X106404069Y-59603693D01*
X106628097Y-59510898D01*
X106829717Y-59376180D01*
X107001180Y-59204717D01*
X107135898Y-59003097D01*
X107228693Y-58779069D01*
X107276000Y-58541243D01*
X107276000Y-58298757D01*
X107228693Y-58060931D01*
X107135898Y-57836903D01*
X107001180Y-57635283D01*
X106829717Y-57463820D01*
X106628097Y-57329102D01*
X106404069Y-57236307D01*
X106166243Y-57189000D01*
X105923757Y-57189000D01*
X105685931Y-57236307D01*
X105461903Y-57329102D01*
X105260283Y-57463820D01*
X105088820Y-57635283D01*
X104954102Y-57836903D01*
X104861307Y-58060931D01*
X104814000Y-58298757D01*
X104736000Y-58298757D01*
X104688693Y-58060931D01*
X104595898Y-57836903D01*
X104461180Y-57635283D01*
X104289717Y-57463820D01*
X104088097Y-57329102D01*
X103864069Y-57236307D01*
X103626243Y-57189000D01*
X103383757Y-57189000D01*
X103145931Y-57236307D01*
X102921903Y-57329102D01*
X102720283Y-57463820D01*
X102548820Y-57635283D01*
X102414102Y-57836903D01*
X102321307Y-58060931D01*
X102274000Y-58298757D01*
X102274000Y-58541243D01*
X102321307Y-58779069D01*
X102353242Y-58856167D01*
X101976427Y-59232982D01*
X101979000Y-59206854D01*
X101981448Y-59182000D01*
X101979000Y-59157146D01*
X101979000Y-58121591D01*
X103068833Y-57031758D01*
X103145931Y-57063693D01*
X103383757Y-57111000D01*
X103626243Y-57111000D01*
X103864069Y-57063693D01*
X104088097Y-56970898D01*
X104289717Y-56836180D01*
X104461180Y-56664717D01*
X104595898Y-56463097D01*
X104688693Y-56239069D01*
X104736000Y-56001243D01*
X104736000Y-55758757D01*
X104814000Y-55758757D01*
X104814000Y-56001243D01*
X104861307Y-56239069D01*
X104954102Y-56463097D01*
X105088820Y-56664717D01*
X105260283Y-56836180D01*
X105461903Y-56970898D01*
X105685931Y-57063693D01*
X105923757Y-57111000D01*
X106166243Y-57111000D01*
X106404069Y-57063693D01*
X106628097Y-56970898D01*
X106829717Y-56836180D01*
X107001180Y-56664717D01*
X107135898Y-56463097D01*
X107228693Y-56239069D01*
X107276000Y-56001243D01*
X107276000Y-55758757D01*
X107228693Y-55520931D01*
X107135898Y-55296903D01*
X107001180Y-55095283D01*
X106829717Y-54923820D01*
X106628097Y-54789102D01*
X106404069Y-54696307D01*
X106166243Y-54649000D01*
X105923757Y-54649000D01*
X105685931Y-54696307D01*
X105461903Y-54789102D01*
X105260283Y-54923820D01*
X105088820Y-55095283D01*
X104954102Y-55296903D01*
X104861307Y-55520931D01*
X104814000Y-55758757D01*
X104736000Y-55758757D01*
X104688693Y-55520931D01*
X104595898Y-55296903D01*
X104461180Y-55095283D01*
X104289717Y-54923820D01*
X104088097Y-54789102D01*
X103864069Y-54696307D01*
X103626243Y-54649000D01*
X103383757Y-54649000D01*
X103145931Y-54696307D01*
X102921903Y-54789102D01*
X102720283Y-54923820D01*
X102548820Y-55095283D01*
X102414102Y-55296903D01*
X102321307Y-55520931D01*
X102274000Y-55758757D01*
X102274000Y-56001243D01*
X102321307Y-56239069D01*
X102353242Y-56316167D01*
X101976427Y-56692982D01*
X101979000Y-56666854D01*
X101981448Y-56642000D01*
X101979000Y-56617146D01*
X101979000Y-55581591D01*
X103068833Y-54491758D01*
X103145931Y-54523693D01*
X103383757Y-54571000D01*
X103626243Y-54571000D01*
X103864069Y-54523693D01*
X104088097Y-54430898D01*
X104289717Y-54296180D01*
X104461180Y-54124717D01*
X104595898Y-53923097D01*
X104688693Y-53699069D01*
X104736000Y-53461243D01*
X104736000Y-53218757D01*
X104814000Y-53218757D01*
X104814000Y-53461243D01*
X104861307Y-53699069D01*
X104954102Y-53923097D01*
X105088820Y-54124717D01*
X105260283Y-54296180D01*
X105461903Y-54430898D01*
X105685931Y-54523693D01*
X105923757Y-54571000D01*
X106166243Y-54571000D01*
X106404069Y-54523693D01*
X106628097Y-54430898D01*
X106829717Y-54296180D01*
X107001180Y-54124717D01*
X107135898Y-53923097D01*
X107228693Y-53699069D01*
X107276000Y-53461243D01*
X107276000Y-53218757D01*
X107228693Y-52980931D01*
X107135898Y-52756903D01*
X107001180Y-52555283D01*
X106829717Y-52383820D01*
X106628097Y-52249102D01*
X106404069Y-52156307D01*
X106166243Y-52109000D01*
X105923757Y-52109000D01*
X105685931Y-52156307D01*
X105461903Y-52249102D01*
X105260283Y-52383820D01*
X105088820Y-52555283D01*
X104954102Y-52756903D01*
X104861307Y-52980931D01*
X104814000Y-53218757D01*
X104736000Y-53218757D01*
X104688693Y-52980931D01*
X104595898Y-52756903D01*
X104461180Y-52555283D01*
X104289717Y-52383820D01*
X104088097Y-52249102D01*
X103864069Y-52156307D01*
X103626243Y-52109000D01*
X103383757Y-52109000D01*
X103145931Y-52156307D01*
X102921903Y-52249102D01*
X102720283Y-52383820D01*
X102548820Y-52555283D01*
X102414102Y-52756903D01*
X102321307Y-52980931D01*
X102274000Y-53218757D01*
X102274000Y-53461243D01*
X102321307Y-53699069D01*
X102353242Y-53776167D01*
X101976427Y-54152982D01*
X101979000Y-54126854D01*
X101981448Y-54102000D01*
X101979000Y-54077146D01*
X101979000Y-53041591D01*
X103068833Y-51951758D01*
X103145931Y-51983693D01*
X103383757Y-52031000D01*
X103626243Y-52031000D01*
X103864069Y-51983693D01*
X104088097Y-51890898D01*
X104289717Y-51756180D01*
X104461180Y-51584717D01*
X104595898Y-51383097D01*
X104688693Y-51159069D01*
X104697065Y-51116980D01*
X104855511Y-51116980D01*
X104879866Y-51197288D01*
X104979761Y-51416961D01*
X105120592Y-51612924D01*
X105296948Y-51777647D01*
X105502051Y-51904799D01*
X105728019Y-51989495D01*
X105918000Y-51929187D01*
X105918000Y-50927000D01*
X106172000Y-50927000D01*
X106172000Y-51929187D01*
X106361981Y-51989495D01*
X106587949Y-51904799D01*
X106793052Y-51777647D01*
X106969408Y-51612924D01*
X107110239Y-51416961D01*
X107210134Y-51197288D01*
X107234489Y-51116980D01*
X107173627Y-50927000D01*
X106172000Y-50927000D01*
X105918000Y-50927000D01*
X104916373Y-50927000D01*
X104855511Y-51116980D01*
X104697065Y-51116980D01*
X104736000Y-50921243D01*
X104736000Y-50678757D01*
X104697066Y-50483020D01*
X104855511Y-50483020D01*
X104916373Y-50673000D01*
X105918000Y-50673000D01*
X105918000Y-49670813D01*
X106172000Y-49670813D01*
X106172000Y-50673000D01*
X107173627Y-50673000D01*
X107234489Y-50483020D01*
X107210134Y-50402712D01*
X107110239Y-50183039D01*
X106969408Y-49987076D01*
X106793052Y-49822353D01*
X106587949Y-49695201D01*
X106361981Y-49610505D01*
X106172000Y-49670813D01*
X105918000Y-49670813D01*
X105728019Y-49610505D01*
X105502051Y-49695201D01*
X105296948Y-49822353D01*
X105120592Y-49987076D01*
X104979761Y-50183039D01*
X104879866Y-50402712D01*
X104855511Y-50483020D01*
X104697066Y-50483020D01*
X104688693Y-50440931D01*
X104595898Y-50216903D01*
X104461180Y-50015283D01*
X104289717Y-49843820D01*
X104088097Y-49709102D01*
X103864069Y-49616307D01*
X103626243Y-49569000D01*
X103383757Y-49569000D01*
X103145931Y-49616307D01*
X102921903Y-49709102D01*
X102720283Y-49843820D01*
X102548820Y-50015283D01*
X102414102Y-50216903D01*
X102321307Y-50440931D01*
X102274000Y-50678757D01*
X102274000Y-50921243D01*
X102321307Y-51159069D01*
X102353242Y-51236167D01*
X101976427Y-51612982D01*
X101979000Y-51586854D01*
X101981448Y-51562000D01*
X101979000Y-51537146D01*
X101979000Y-50501591D01*
X103068833Y-49411758D01*
X103145931Y-49443693D01*
X103383757Y-49491000D01*
X103626243Y-49491000D01*
X103864069Y-49443693D01*
X104088097Y-49350898D01*
X104289717Y-49216180D01*
X104461180Y-49044717D01*
X104595898Y-48843097D01*
X104688693Y-48619069D01*
X104736000Y-48381243D01*
X104736000Y-48138757D01*
X104814000Y-48138757D01*
X104814000Y-48381243D01*
X104861307Y-48619069D01*
X104954102Y-48843097D01*
X105088820Y-49044717D01*
X105260283Y-49216180D01*
X105461903Y-49350898D01*
X105685931Y-49443693D01*
X105923757Y-49491000D01*
X106166243Y-49491000D01*
X106404069Y-49443693D01*
X106628097Y-49350898D01*
X106829717Y-49216180D01*
X107001180Y-49044717D01*
X107135898Y-48843097D01*
X107228693Y-48619069D01*
X107276000Y-48381243D01*
X107276000Y-48138757D01*
X107228693Y-47900931D01*
X107135898Y-47676903D01*
X107001180Y-47475283D01*
X106829717Y-47303820D01*
X106628097Y-47169102D01*
X106404069Y-47076307D01*
X106166243Y-47029000D01*
X105923757Y-47029000D01*
X105685931Y-47076307D01*
X105461903Y-47169102D01*
X105260283Y-47303820D01*
X105088820Y-47475283D01*
X104954102Y-47676903D01*
X104861307Y-47900931D01*
X104814000Y-48138757D01*
X104736000Y-48138757D01*
X104688693Y-47900931D01*
X104595898Y-47676903D01*
X104461180Y-47475283D01*
X104289717Y-47303820D01*
X104088097Y-47169102D01*
X103864069Y-47076307D01*
X103626243Y-47029000D01*
X103383757Y-47029000D01*
X103145931Y-47076307D01*
X102921903Y-47169102D01*
X102720283Y-47303820D01*
X102548820Y-47475283D01*
X102414102Y-47676903D01*
X102321307Y-47900931D01*
X102274000Y-48138757D01*
X102274000Y-48381243D01*
X102321307Y-48619069D01*
X102353242Y-48696167D01*
X101132785Y-49916624D01*
X101113473Y-49932473D01*
X101050241Y-50009521D01*
X101003255Y-50097426D01*
X100974322Y-50192808D01*
X100967000Y-50267147D01*
X100967000Y-50267154D01*
X100964553Y-50292000D01*
X100967000Y-50316847D01*
X100967001Y-51352407D01*
X100131167Y-52188242D01*
X100054069Y-52156307D01*
X99816243Y-52109000D01*
X99573757Y-52109000D01*
X99335931Y-52156307D01*
X99111903Y-52249102D01*
X98910283Y-52383820D01*
X98738820Y-52555283D01*
X98604102Y-52756903D01*
X98511307Y-52980931D01*
X98464000Y-53218757D01*
X98464000Y-53461243D01*
X98511307Y-53699069D01*
X98543242Y-53776167D01*
X98240809Y-54078600D01*
X98141994Y-54078600D01*
X98245898Y-53923097D01*
X98338693Y-53699069D01*
X98386000Y-53461243D01*
X98386000Y-53218757D01*
X98338693Y-52980931D01*
X98245898Y-52756903D01*
X98111180Y-52555283D01*
X97939717Y-52383820D01*
X97738097Y-52249102D01*
X97514069Y-52156307D01*
X97276243Y-52109000D01*
X97033757Y-52109000D01*
X96795931Y-52156307D01*
X96571903Y-52249102D01*
X96370283Y-52383820D01*
X96198820Y-52555283D01*
X96064102Y-52756903D01*
X95971307Y-52980931D01*
X95924000Y-53218757D01*
X95924000Y-53461243D01*
X95971307Y-53699069D01*
X96064102Y-53923097D01*
X96168006Y-54078600D01*
X94799192Y-54078600D01*
X94496758Y-53776167D01*
X94528693Y-53699069D01*
X94576000Y-53461243D01*
X94576000Y-53218757D01*
X94528693Y-52980931D01*
X94435898Y-52756903D01*
X94301180Y-52555283D01*
X94129717Y-52383820D01*
X93928097Y-52249102D01*
X93704069Y-52156307D01*
X93466243Y-52109000D01*
X93223757Y-52109000D01*
X92985931Y-52156307D01*
X92761903Y-52249102D01*
X92560283Y-52383820D01*
X92388820Y-52555283D01*
X92254102Y-52756903D01*
X92161307Y-52980931D01*
X92114000Y-53218757D01*
X92036000Y-53218757D01*
X91988693Y-52980931D01*
X91895898Y-52756903D01*
X91761180Y-52555283D01*
X91589717Y-52383820D01*
X91388097Y-52249102D01*
X91164069Y-52156307D01*
X90926243Y-52109000D01*
X90683757Y-52109000D01*
X90445931Y-52156307D01*
X90221903Y-52249102D01*
X90020283Y-52383820D01*
X89848820Y-52555283D01*
X89714102Y-52756903D01*
X89621307Y-52980931D01*
X89574000Y-53218757D01*
X89433000Y-53218757D01*
X89433000Y-50678757D01*
X89574000Y-50678757D01*
X89574000Y-50921243D01*
X89621307Y-51159069D01*
X89714102Y-51383097D01*
X89848820Y-51584717D01*
X90020283Y-51756180D01*
X90221903Y-51890898D01*
X90445931Y-51983693D01*
X90683757Y-52031000D01*
X90926243Y-52031000D01*
X91164069Y-51983693D01*
X91388097Y-51890898D01*
X91589717Y-51756180D01*
X91761180Y-51584717D01*
X91895898Y-51383097D01*
X91988693Y-51159069D01*
X91997065Y-51116980D01*
X92155511Y-51116980D01*
X92179866Y-51197288D01*
X92279761Y-51416961D01*
X92420592Y-51612924D01*
X92596948Y-51777647D01*
X92802051Y-51904799D01*
X93028019Y-51989495D01*
X93218000Y-51929187D01*
X93218000Y-50927000D01*
X93472000Y-50927000D01*
X93472000Y-51929187D01*
X93661981Y-51989495D01*
X93887949Y-51904799D01*
X94093052Y-51777647D01*
X94269408Y-51612924D01*
X94410239Y-51416961D01*
X94510134Y-51197288D01*
X94534489Y-51116980D01*
X94473627Y-50927000D01*
X93472000Y-50927000D01*
X93218000Y-50927000D01*
X92216373Y-50927000D01*
X92155511Y-51116980D01*
X91997065Y-51116980D01*
X92036000Y-50921243D01*
X92036000Y-50678757D01*
X91997066Y-50483020D01*
X92155511Y-50483020D01*
X92216373Y-50673000D01*
X93218000Y-50673000D01*
X93218000Y-49670813D01*
X93028019Y-49610505D01*
X92802051Y-49695201D01*
X92596948Y-49822353D01*
X92420592Y-49987076D01*
X92279761Y-50183039D01*
X92179866Y-50402712D01*
X92155511Y-50483020D01*
X91997066Y-50483020D01*
X91988693Y-50440931D01*
X91895898Y-50216903D01*
X91761180Y-50015283D01*
X91589717Y-49843820D01*
X91388097Y-49709102D01*
X91164069Y-49616307D01*
X90926243Y-49569000D01*
X90683757Y-49569000D01*
X90445931Y-49616307D01*
X90221903Y-49709102D01*
X90020283Y-49843820D01*
X89848820Y-50015283D01*
X89714102Y-50216903D01*
X89621307Y-50440931D01*
X89574000Y-50678757D01*
X89433000Y-50678757D01*
X89433000Y-48138757D01*
X89574000Y-48138757D01*
X89574000Y-48381243D01*
X89621307Y-48619069D01*
X89714102Y-48843097D01*
X89848820Y-49044717D01*
X90020283Y-49216180D01*
X90221903Y-49350898D01*
X90445931Y-49443693D01*
X90683757Y-49491000D01*
X90926243Y-49491000D01*
X91164069Y-49443693D01*
X91388097Y-49350898D01*
X91589717Y-49216180D01*
X91761180Y-49044717D01*
X91895898Y-48843097D01*
X91988693Y-48619069D01*
X92036000Y-48381243D01*
X92036000Y-48138757D01*
X91988693Y-47900931D01*
X91895898Y-47676903D01*
X91761180Y-47475283D01*
X91589717Y-47303820D01*
X91388097Y-47169102D01*
X91164069Y-47076307D01*
X90926243Y-47029000D01*
X90683757Y-47029000D01*
X90445931Y-47076307D01*
X90221903Y-47169102D01*
X90020283Y-47303820D01*
X89848820Y-47475283D01*
X89714102Y-47676903D01*
X89621307Y-47900931D01*
X89574000Y-48138757D01*
X89433000Y-48138757D01*
X89433000Y-44870000D01*
X89572157Y-44870000D01*
X89572157Y-46570000D01*
X89579513Y-46644689D01*
X89601299Y-46716508D01*
X89636678Y-46782696D01*
X89684289Y-46840711D01*
X89742304Y-46888322D01*
X89808492Y-46923701D01*
X89880311Y-46945487D01*
X89955000Y-46952843D01*
X91655000Y-46952843D01*
X91729689Y-46945487D01*
X91801508Y-46923701D01*
X91867696Y-46888322D01*
X91925711Y-46840711D01*
X91973322Y-46782696D01*
X92008701Y-46716508D01*
X92030487Y-46644689D01*
X92037843Y-46570000D01*
X92037843Y-45598757D01*
X92114000Y-45598757D01*
X92114000Y-45841243D01*
X92161307Y-46079069D01*
X92254102Y-46303097D01*
X92388820Y-46504717D01*
X92560283Y-46676180D01*
X92761903Y-46810898D01*
X92985931Y-46903693D01*
X93223757Y-46951000D01*
X93466243Y-46951000D01*
X93704069Y-46903693D01*
X93928097Y-46810898D01*
X94129717Y-46676180D01*
X94301180Y-46504717D01*
X94435898Y-46303097D01*
X94528693Y-46079069D01*
X94576000Y-45841243D01*
X94576000Y-45598757D01*
X94528693Y-45360931D01*
X94520385Y-45340873D01*
X95465259Y-44396000D01*
X97549343Y-44396000D01*
X97640500Y-44487157D01*
X96305000Y-44487157D01*
X96230311Y-44494513D01*
X96158492Y-44516299D01*
X96092304Y-44551678D01*
X96034289Y-44599289D01*
X95986678Y-44657304D01*
X95951299Y-44723492D01*
X95929513Y-44795311D01*
X95922157Y-44870000D01*
X95922157Y-46570000D01*
X95929513Y-46644689D01*
X95951299Y-46716508D01*
X95986678Y-46782696D01*
X96034289Y-46840711D01*
X96092304Y-46888322D01*
X96158492Y-46923701D01*
X96230311Y-46945487D01*
X96305000Y-46952843D01*
X98005000Y-46952843D01*
X98079689Y-46945487D01*
X98151508Y-46923701D01*
X98217696Y-46888322D01*
X98275711Y-46840711D01*
X98323322Y-46782696D01*
X98358701Y-46716508D01*
X98380487Y-46644689D01*
X98387843Y-46570000D01*
X98387843Y-45234501D01*
X98512176Y-45358833D01*
X98511307Y-45360931D01*
X98464000Y-45598757D01*
X98464000Y-45841243D01*
X98511307Y-46079069D01*
X98604102Y-46303097D01*
X98738820Y-46504717D01*
X98910283Y-46676180D01*
X99111903Y-46810898D01*
X99335931Y-46903693D01*
X99573757Y-46951000D01*
X99816243Y-46951000D01*
X100054069Y-46903693D01*
X100278097Y-46810898D01*
X100411743Y-46721599D01*
X100056166Y-47077176D01*
X100054069Y-47076307D01*
X99816243Y-47029000D01*
X99573757Y-47029000D01*
X99335931Y-47076307D01*
X99111903Y-47169102D01*
X98910283Y-47303820D01*
X98738820Y-47475283D01*
X98604102Y-47676903D01*
X98511307Y-47900931D01*
X98464000Y-48138757D01*
X98464000Y-48381243D01*
X98511307Y-48619069D01*
X98512176Y-48621167D01*
X98184343Y-48949000D01*
X98175136Y-48949000D01*
X98245898Y-48843097D01*
X98338693Y-48619069D01*
X98386000Y-48381243D01*
X98386000Y-48138757D01*
X98338693Y-47900931D01*
X98245898Y-47676903D01*
X98111180Y-47475283D01*
X97939717Y-47303820D01*
X97738097Y-47169102D01*
X97514069Y-47076307D01*
X97276243Y-47029000D01*
X97033757Y-47029000D01*
X96795931Y-47076307D01*
X96571903Y-47169102D01*
X96370283Y-47303820D01*
X96198820Y-47475283D01*
X96064102Y-47676903D01*
X95971307Y-47900931D01*
X95924000Y-48138757D01*
X95924000Y-48381243D01*
X95971307Y-48619069D01*
X96064102Y-48843097D01*
X96134864Y-48949000D01*
X94855658Y-48949000D01*
X94527824Y-48621167D01*
X94528693Y-48619069D01*
X94576000Y-48381243D01*
X94576000Y-48138757D01*
X94528693Y-47900931D01*
X94435898Y-47676903D01*
X94301180Y-47475283D01*
X94129717Y-47303820D01*
X93928097Y-47169102D01*
X93704069Y-47076307D01*
X93466243Y-47029000D01*
X93223757Y-47029000D01*
X92985931Y-47076307D01*
X92761903Y-47169102D01*
X92560283Y-47303820D01*
X92388820Y-47475283D01*
X92254102Y-47676903D01*
X92161307Y-47900931D01*
X92114000Y-48138757D01*
X92114000Y-48381243D01*
X92161307Y-48619069D01*
X92254102Y-48843097D01*
X92388820Y-49044717D01*
X92560283Y-49216180D01*
X92761903Y-49350898D01*
X92985931Y-49443693D01*
X93223757Y-49491000D01*
X93466243Y-49491000D01*
X93704069Y-49443693D01*
X93706167Y-49442824D01*
X94073695Y-49810353D01*
X93887949Y-49695201D01*
X93661981Y-49610505D01*
X93472000Y-49670813D01*
X93472000Y-50673000D01*
X94473627Y-50673000D01*
X94534489Y-50483020D01*
X94510134Y-50402712D01*
X94410239Y-50183039D01*
X94288523Y-50013673D01*
X94290652Y-50015421D01*
X94391585Y-50069371D01*
X94501104Y-50102593D01*
X94586460Y-50111000D01*
X94586462Y-50111000D01*
X94614999Y-50113811D01*
X94643536Y-50111000D01*
X96134864Y-50111000D01*
X96064102Y-50216903D01*
X95971307Y-50440931D01*
X95924000Y-50678757D01*
X95924000Y-50921243D01*
X95971307Y-51159069D01*
X96064102Y-51383097D01*
X96198820Y-51584717D01*
X96370283Y-51756180D01*
X96571903Y-51890898D01*
X96795931Y-51983693D01*
X97033757Y-52031000D01*
X97276243Y-52031000D01*
X97514069Y-51983693D01*
X97738097Y-51890898D01*
X97939717Y-51756180D01*
X98111180Y-51584717D01*
X98245898Y-51383097D01*
X98338693Y-51159069D01*
X98347065Y-51116980D01*
X98505511Y-51116980D01*
X98529866Y-51197288D01*
X98629761Y-51416961D01*
X98770592Y-51612924D01*
X98946948Y-51777647D01*
X99152051Y-51904799D01*
X99378019Y-51989495D01*
X99568000Y-51929187D01*
X99568000Y-50927000D01*
X99822000Y-50927000D01*
X99822000Y-51929187D01*
X100011981Y-51989495D01*
X100237949Y-51904799D01*
X100443052Y-51777647D01*
X100619408Y-51612924D01*
X100760239Y-51416961D01*
X100860134Y-51197288D01*
X100884489Y-51116980D01*
X100823627Y-50927000D01*
X99822000Y-50927000D01*
X99568000Y-50927000D01*
X98566373Y-50927000D01*
X98505511Y-51116980D01*
X98347065Y-51116980D01*
X98386000Y-50921243D01*
X98386000Y-50678757D01*
X98338693Y-50440931D01*
X98245898Y-50216903D01*
X98175136Y-50111000D01*
X98396460Y-50111000D01*
X98425000Y-50113811D01*
X98453540Y-50111000D01*
X98538896Y-50102593D01*
X98648415Y-50069371D01*
X98749348Y-50015421D01*
X98751477Y-50013673D01*
X98629761Y-50183039D01*
X98529866Y-50402712D01*
X98505511Y-50483020D01*
X98566373Y-50673000D01*
X99568000Y-50673000D01*
X99568000Y-49670813D01*
X99822000Y-49670813D01*
X99822000Y-50673000D01*
X100823627Y-50673000D01*
X100884489Y-50483020D01*
X100860134Y-50402712D01*
X100760239Y-50183039D01*
X100619408Y-49987076D01*
X100443052Y-49822353D01*
X100237949Y-49695201D01*
X100011981Y-49610505D01*
X99822000Y-49670813D01*
X99568000Y-49670813D01*
X99378019Y-49610505D01*
X99152051Y-49695201D01*
X98966303Y-49810354D01*
X99333833Y-49442824D01*
X99335931Y-49443693D01*
X99573757Y-49491000D01*
X99816243Y-49491000D01*
X100054069Y-49443693D01*
X100278097Y-49350898D01*
X100479717Y-49216180D01*
X100651180Y-49044717D01*
X100785898Y-48843097D01*
X100878693Y-48619069D01*
X100926000Y-48381243D01*
X100926000Y-48138757D01*
X100878693Y-47900931D01*
X100877824Y-47898834D01*
X101939851Y-46836808D01*
X101962017Y-46818617D01*
X101991497Y-46782696D01*
X102034621Y-46730148D01*
X102088571Y-46629215D01*
X102121793Y-46519696D01*
X102133011Y-46405800D01*
X102130200Y-46377260D01*
X102130200Y-46036980D01*
X102315511Y-46036980D01*
X102339866Y-46117288D01*
X102439761Y-46336961D01*
X102580592Y-46532924D01*
X102756948Y-46697647D01*
X102962051Y-46824799D01*
X103188019Y-46909495D01*
X103378000Y-46849187D01*
X103378000Y-45847000D01*
X103632000Y-45847000D01*
X103632000Y-46849187D01*
X103821981Y-46909495D01*
X104047949Y-46824799D01*
X104253052Y-46697647D01*
X104429408Y-46532924D01*
X104570239Y-46336961D01*
X104670134Y-46117288D01*
X104694489Y-46036980D01*
X104633627Y-45847000D01*
X103632000Y-45847000D01*
X103378000Y-45847000D01*
X102376373Y-45847000D01*
X102315511Y-46036980D01*
X102130200Y-46036980D01*
X102130200Y-45598757D01*
X104814000Y-45598757D01*
X104814000Y-45841243D01*
X104861307Y-46079069D01*
X104954102Y-46303097D01*
X105088820Y-46504717D01*
X105260283Y-46676180D01*
X105461903Y-46810898D01*
X105685931Y-46903693D01*
X105923757Y-46951000D01*
X106166243Y-46951000D01*
X106404069Y-46903693D01*
X106628097Y-46810898D01*
X106829717Y-46676180D01*
X107001180Y-46504717D01*
X107135898Y-46303097D01*
X107228693Y-46079069D01*
X107276000Y-45841243D01*
X107276000Y-45598757D01*
X107228693Y-45360931D01*
X107135898Y-45136903D01*
X107001180Y-44935283D01*
X106829717Y-44763820D01*
X106628097Y-44629102D01*
X106404069Y-44536307D01*
X106166243Y-44489000D01*
X105923757Y-44489000D01*
X105685931Y-44536307D01*
X105461903Y-44629102D01*
X105260283Y-44763820D01*
X105088820Y-44935283D01*
X104954102Y-45136903D01*
X104861307Y-45360931D01*
X104814000Y-45598757D01*
X102130200Y-45598757D01*
X102130200Y-45376457D01*
X102532085Y-44974572D01*
X102439761Y-45103039D01*
X102339866Y-45322712D01*
X102315511Y-45403020D01*
X102376373Y-45593000D01*
X103378000Y-45593000D01*
X103378000Y-44590813D01*
X103632000Y-44590813D01*
X103632000Y-45593000D01*
X104633627Y-45593000D01*
X104694489Y-45403020D01*
X104670134Y-45322712D01*
X104570239Y-45103039D01*
X104429408Y-44907076D01*
X104253052Y-44742353D01*
X104047949Y-44615201D01*
X103821981Y-44530505D01*
X103632000Y-44590813D01*
X103378000Y-44590813D01*
X103188019Y-44530505D01*
X102962051Y-44615201D01*
X102776304Y-44730353D01*
X103143833Y-44362824D01*
X103145931Y-44363693D01*
X103383757Y-44411000D01*
X103626243Y-44411000D01*
X103864069Y-44363693D01*
X104088097Y-44270898D01*
X104289717Y-44136180D01*
X104461180Y-43964717D01*
X104595898Y-43763097D01*
X104688693Y-43539069D01*
X104736000Y-43301243D01*
X104736000Y-43058757D01*
X104814000Y-43058757D01*
X104814000Y-43301243D01*
X104861307Y-43539069D01*
X104954102Y-43763097D01*
X105088820Y-43964717D01*
X105260283Y-44136180D01*
X105461903Y-44270898D01*
X105685931Y-44363693D01*
X105923757Y-44411000D01*
X106166243Y-44411000D01*
X106404069Y-44363693D01*
X106628097Y-44270898D01*
X106829717Y-44136180D01*
X107001180Y-43964717D01*
X107135898Y-43763097D01*
X107228693Y-43539069D01*
X107276000Y-43301243D01*
X107276000Y-43058757D01*
X107228693Y-42820931D01*
X107135898Y-42596903D01*
X107001180Y-42395283D01*
X106829717Y-42223820D01*
X106628097Y-42089102D01*
X106404069Y-41996307D01*
X106166243Y-41949000D01*
X105923757Y-41949000D01*
X105685931Y-41996307D01*
X105461903Y-42089102D01*
X105260283Y-42223820D01*
X105088820Y-42395283D01*
X104954102Y-42596903D01*
X104861307Y-42820931D01*
X104814000Y-43058757D01*
X104736000Y-43058757D01*
X104688693Y-42820931D01*
X104595898Y-42596903D01*
X104461180Y-42395283D01*
X104289717Y-42223820D01*
X104088097Y-42089102D01*
X103864069Y-41996307D01*
X103626243Y-41949000D01*
X103383757Y-41949000D01*
X103145931Y-41996307D01*
X102921903Y-42089102D01*
X102720283Y-42223820D01*
X102548820Y-42395283D01*
X102414102Y-42596903D01*
X102321307Y-42820931D01*
X102274000Y-43058757D01*
X102274000Y-43301243D01*
X102321307Y-43539069D01*
X102322176Y-43541167D01*
X101158560Y-44704783D01*
X101136383Y-44722983D01*
X101077026Y-44795311D01*
X101063779Y-44811453D01*
X101009829Y-44912386D01*
X100976607Y-45021905D01*
X100965389Y-45135800D01*
X100968200Y-45164340D01*
X100968201Y-46165140D01*
X100696599Y-46436742D01*
X100785898Y-46303097D01*
X100878693Y-46079069D01*
X100926000Y-45841243D01*
X100926000Y-45598757D01*
X100878693Y-45360931D01*
X100785898Y-45136903D01*
X100651180Y-44935283D01*
X100479717Y-44763820D01*
X100278097Y-44629102D01*
X100276000Y-44628233D01*
X100276000Y-42785657D01*
X101840658Y-41221000D01*
X102413233Y-41221000D01*
X102414102Y-41223097D01*
X102548820Y-41424717D01*
X102720283Y-41596180D01*
X102921903Y-41730898D01*
X103145931Y-41823693D01*
X103383757Y-41871000D01*
X103626243Y-41871000D01*
X103864069Y-41823693D01*
X104088097Y-41730898D01*
X104289717Y-41596180D01*
X104461180Y-41424717D01*
X104595898Y-41223097D01*
X104688693Y-40999069D01*
X104736000Y-40761243D01*
X104736000Y-40518757D01*
X104688693Y-40280931D01*
X104595898Y-40056903D01*
X104461180Y-39855283D01*
X104395897Y-39790000D01*
X104812157Y-39790000D01*
X104812157Y-41490000D01*
X104819513Y-41564689D01*
X104841299Y-41636508D01*
X104876678Y-41702696D01*
X104924289Y-41760711D01*
X104982304Y-41808322D01*
X105048492Y-41843701D01*
X105120311Y-41865487D01*
X105195000Y-41872843D01*
X106895000Y-41872843D01*
X106969689Y-41865487D01*
X107041508Y-41843701D01*
X107107696Y-41808322D01*
X107165711Y-41760711D01*
X107213322Y-41702696D01*
X107248701Y-41636508D01*
X107270487Y-41564689D01*
X107277843Y-41490000D01*
X107277843Y-39790000D01*
X107270487Y-39715311D01*
X107248701Y-39643492D01*
X107213322Y-39577304D01*
X107165711Y-39519289D01*
X107107696Y-39471678D01*
X107041508Y-39436299D01*
X106969689Y-39414513D01*
X106895000Y-39407157D01*
X105195000Y-39407157D01*
X105120311Y-39414513D01*
X105048492Y-39436299D01*
X104982304Y-39471678D01*
X104924289Y-39519289D01*
X104876678Y-39577304D01*
X104841299Y-39643492D01*
X104819513Y-39715311D01*
X104812157Y-39790000D01*
X104395897Y-39790000D01*
X104289717Y-39683820D01*
X104088097Y-39549102D01*
X103864069Y-39456307D01*
X103626243Y-39409000D01*
X103383757Y-39409000D01*
X103145931Y-39456307D01*
X102921903Y-39549102D01*
X102720283Y-39683820D01*
X102548820Y-39855283D01*
X102414102Y-40056903D01*
X102413233Y-40059000D01*
X101628540Y-40059000D01*
X101600000Y-40056189D01*
X101571460Y-40059000D01*
X101486104Y-40067407D01*
X101376585Y-40100629D01*
X101275652Y-40154579D01*
X101187183Y-40227183D01*
X101168987Y-40249355D01*
X99304360Y-42113983D01*
X99282183Y-42132183D01*
X99209580Y-42220652D01*
X99209579Y-42220653D01*
X99155629Y-42321586D01*
X99122407Y-42431105D01*
X99111189Y-42545000D01*
X99114000Y-42573540D01*
X99114001Y-44317343D01*
X98221017Y-43424360D01*
X98202817Y-43402183D01*
X98114348Y-43329579D01*
X98013415Y-43275629D01*
X97903896Y-43242407D01*
X97818540Y-43234000D01*
X97790000Y-43231189D01*
X97761460Y-43234000D01*
X95253140Y-43234000D01*
X95224600Y-43231189D01*
X95196060Y-43234000D01*
X95110704Y-43242407D01*
X95001185Y-43275629D01*
X94900252Y-43329579D01*
X94811783Y-43402183D01*
X94793592Y-43424349D01*
X93685357Y-44532585D01*
X93466243Y-44489000D01*
X93223757Y-44489000D01*
X92985931Y-44536307D01*
X92761903Y-44629102D01*
X92560283Y-44763820D01*
X92388820Y-44935283D01*
X92254102Y-45136903D01*
X92161307Y-45360931D01*
X92114000Y-45598757D01*
X92037843Y-45598757D01*
X92037843Y-44870000D01*
X92030487Y-44795311D01*
X92008701Y-44723492D01*
X91973322Y-44657304D01*
X91925711Y-44599289D01*
X91867696Y-44551678D01*
X91801508Y-44516299D01*
X91729689Y-44494513D01*
X91655000Y-44487157D01*
X89955000Y-44487157D01*
X89880311Y-44494513D01*
X89808492Y-44516299D01*
X89742304Y-44551678D01*
X89684289Y-44599289D01*
X89636678Y-44657304D01*
X89601299Y-44723492D01*
X89579513Y-44795311D01*
X89572157Y-44870000D01*
X89433000Y-44870000D01*
X89433000Y-37484851D01*
X89439270Y-37420901D01*
X89452079Y-37378476D01*
X89472881Y-37339353D01*
X89500888Y-37305013D01*
X89535034Y-37276765D01*
X89574016Y-37255688D01*
X89616343Y-37242585D01*
X89678992Y-37236000D01*
X107422149Y-37236000D01*
X107486099Y-37242270D01*
G37*
%TD.AperFunction*%
%TD*%
M02*
