%TF.GenerationSoftware,KiCad,Pcbnew,(5.1.9)-1*%
%TF.CreationDate,2021-04-11T18:01:07+01:00*%
%TF.ProjectId,RGBtoHDMI-Adapter Type A,52474274-6f48-4444-9d49-2d4164617074,1*%
%TF.SameCoordinates,Original*%
%TF.FileFunction,Copper,L2,Bot*%
%TF.FilePolarity,Positive*%
%FSLAX46Y46*%
G04 Gerber Fmt 4.6, Leading zero omitted, Abs format (unit mm)*
G04 Created by KiCad (PCBNEW (5.1.9)-1) date 2021-04-11 18:01:07*
%MOMM*%
%LPD*%
G01*
G04 APERTURE LIST*
%TA.AperFunction,ComponentPad*%
%ADD10O,1.700000X1.700000*%
%TD*%
%TA.AperFunction,ComponentPad*%
%ADD11R,1.700000X1.700000*%
%TD*%
%TA.AperFunction,ViaPad*%
%ADD12C,0.800000*%
%TD*%
%TA.AperFunction,Conductor*%
%ADD13C,0.250000*%
%TD*%
%TA.AperFunction,Conductor*%
%ADD14C,0.254000*%
%TD*%
%TA.AperFunction,Conductor*%
%ADD15C,0.100000*%
%TD*%
G04 APERTURE END LIST*
D10*
%TO.P,J3,40*%
%TO.N,Pin40*%
X93345000Y-93980000D03*
%TO.P,J3,39*%
%TO.N,Pin39*%
X90805000Y-93980000D03*
%TO.P,J3,38*%
%TO.N,Pin38*%
X93345000Y-91440000D03*
%TO.P,J3,37*%
%TO.N,Pin37*%
X90805000Y-91440000D03*
%TO.P,J3,36*%
%TO.N,Pin36*%
X93345000Y-88900000D03*
%TO.P,J3,35*%
%TO.N,Pin35*%
X90805000Y-88900000D03*
%TO.P,J3,34*%
%TO.N,Pin34*%
X93345000Y-86360000D03*
%TO.P,J3,33*%
%TO.N,Pin33*%
X90805000Y-86360000D03*
%TO.P,J3,32*%
%TO.N,Pin32*%
X93345000Y-83820000D03*
%TO.P,J3,31*%
%TO.N,Pin31*%
X90805000Y-83820000D03*
%TO.P,J3,30*%
%TO.N,Pin30*%
X93345000Y-81280000D03*
%TO.P,J3,29*%
%TO.N,Pin29*%
X90805000Y-81280000D03*
%TO.P,J3,28*%
%TO.N,Pin28*%
X93345000Y-78740000D03*
%TO.P,J3,27*%
%TO.N,Pin27*%
X90805000Y-78740000D03*
%TO.P,J3,26*%
%TO.N,Pin26*%
X93345000Y-76200000D03*
%TO.P,J3,25*%
%TO.N,Pin25*%
X90805000Y-76200000D03*
%TO.P,J3,24*%
%TO.N,Pin24*%
X93345000Y-73660000D03*
%TO.P,J3,23*%
%TO.N,Pin23*%
X90805000Y-73660000D03*
%TO.P,J3,22*%
%TO.N,Pin22*%
X93345000Y-71120000D03*
%TO.P,J3,21*%
%TO.N,Pin21*%
X90805000Y-71120000D03*
%TO.P,J3,20*%
%TO.N,Pin20*%
X93345000Y-68580000D03*
%TO.P,J3,19*%
%TO.N,Pin19*%
X90805000Y-68580000D03*
%TO.P,J3,18*%
%TO.N,Pin18*%
X93345000Y-66040000D03*
%TO.P,J3,17*%
%TO.N,Pin17*%
X90805000Y-66040000D03*
%TO.P,J3,16*%
%TO.N,Pin16*%
X93345000Y-63500000D03*
%TO.P,J3,15*%
%TO.N,Pin15*%
X90805000Y-63500000D03*
%TO.P,J3,14*%
%TO.N,Pin14*%
X93345000Y-60960000D03*
%TO.P,J3,13*%
%TO.N,Pin13*%
X90805000Y-60960000D03*
%TO.P,J3,12*%
%TO.N,Pin12*%
X93345000Y-58420000D03*
%TO.P,J3,11*%
%TO.N,Pin11*%
X90805000Y-58420000D03*
%TO.P,J3,10*%
%TO.N,Pin10*%
X93345000Y-55880000D03*
%TO.P,J3,9*%
%TO.N,GND*%
X90805000Y-55880000D03*
%TO.P,J3,8*%
%TO.N,Pin8*%
X93345000Y-53340000D03*
%TO.P,J3,7*%
%TO.N,Pin7*%
X90805000Y-53340000D03*
%TO.P,J3,6*%
%TO.N,GND*%
X93345000Y-50800000D03*
%TO.P,J3,5*%
%TO.N,Pin5*%
X90805000Y-50800000D03*
%TO.P,J3,4*%
%TO.N,Pin4*%
X93345000Y-48260000D03*
%TO.P,J3,3*%
%TO.N,Pin3*%
X90805000Y-48260000D03*
%TO.P,J3,2*%
%TO.N,Pin2*%
X93345000Y-45720000D03*
D11*
%TO.P,J3,1*%
%TO.N,Pin1*%
X90805000Y-45720000D03*
%TD*%
D10*
%TO.P,J2,40*%
%TO.N,Pin40*%
X99695000Y-93980000D03*
%TO.P,J2,39*%
%TO.N,Pin39*%
X97155000Y-93980000D03*
%TO.P,J2,38*%
%TO.N,Pin38*%
X99695000Y-91440000D03*
%TO.P,J2,37*%
%TO.N,Pin37*%
X97155000Y-91440000D03*
%TO.P,J2,36*%
%TO.N,Pin36*%
X99695000Y-88900000D03*
%TO.P,J2,35*%
%TO.N,Pin35*%
X97155000Y-88900000D03*
%TO.P,J2,34*%
%TO.N,Pin34*%
X99695000Y-86360000D03*
%TO.P,J2,33*%
%TO.N,Pin33*%
X97155000Y-86360000D03*
%TO.P,J2,32*%
%TO.N,Pin32*%
X99695000Y-83820000D03*
%TO.P,J2,31*%
%TO.N,Pin31*%
X97155000Y-83820000D03*
%TO.P,J2,30*%
%TO.N,Pin30*%
X99695000Y-81280000D03*
%TO.P,J2,29*%
%TO.N,Pin29*%
X97155000Y-81280000D03*
%TO.P,J2,28*%
%TO.N,Pin28*%
X99695000Y-78740000D03*
%TO.P,J2,27*%
%TO.N,Pin27*%
X97155000Y-78740000D03*
%TO.P,J2,26*%
%TO.N,Pin26*%
X99695000Y-76200000D03*
%TO.P,J2,25*%
%TO.N,Pin25*%
X97155000Y-76200000D03*
%TO.P,J2,24*%
%TO.N,Pin24*%
X99695000Y-73660000D03*
%TO.P,J2,23*%
%TO.N,Pin23*%
X97155000Y-73660000D03*
%TO.P,J2,22*%
%TO.N,Pin22*%
X99695000Y-71120000D03*
%TO.P,J2,21*%
%TO.N,Pin21*%
X97155000Y-71120000D03*
%TO.P,J2,20*%
%TO.N,Pin20*%
X99695000Y-68580000D03*
%TO.P,J2,19*%
%TO.N,Pin19*%
X97155000Y-68580000D03*
%TO.P,J2,18*%
%TO.N,Pin18*%
X99695000Y-66040000D03*
%TO.P,J2,17*%
%TO.N,Pin17*%
X97155000Y-66040000D03*
%TO.P,J2,16*%
%TO.N,Pin16*%
X99695000Y-63500000D03*
%TO.P,J2,15*%
%TO.N,Pin15*%
X97155000Y-63500000D03*
%TO.P,J2,14*%
%TO.N,Pin14*%
X99695000Y-60960000D03*
%TO.P,J2,13*%
%TO.N,Pin13*%
X97155000Y-60960000D03*
%TO.P,J2,12*%
%TO.N,Pin12*%
X99695000Y-58420000D03*
%TO.P,J2,11*%
%TO.N,Pin11*%
X97155000Y-58420000D03*
%TO.P,J2,10*%
%TO.N,Pin10*%
X99695000Y-55880000D03*
%TO.P,J2,9*%
%TO.N,GND*%
X97155000Y-55880000D03*
%TO.P,J2,8*%
%TO.N,Pin8*%
X99695000Y-53340000D03*
%TO.P,J2,7*%
%TO.N,Pin7*%
X97155000Y-53340000D03*
%TO.P,J2,6*%
%TO.N,GND*%
X99695000Y-50800000D03*
%TO.P,J2,5*%
%TO.N,Pin5*%
X97155000Y-50800000D03*
%TO.P,J2,4*%
%TO.N,Pin4*%
X99695000Y-48260000D03*
%TO.P,J2,3*%
%TO.N,Pin3*%
X97155000Y-48260000D03*
%TO.P,J2,2*%
%TO.N,Pin2*%
X99695000Y-45720000D03*
D11*
%TO.P,J2,1*%
%TO.N,Pin1*%
X97155000Y-45720000D03*
%TD*%
D10*
%TO.P,J1,40*%
%TO.N,Pin40*%
X103505000Y-88900000D03*
%TO.P,J1,39*%
%TO.N,Pin39*%
X106045000Y-88900000D03*
%TO.P,J1,38*%
%TO.N,Pin38*%
X103505000Y-86360000D03*
%TO.P,J1,37*%
%TO.N,Pin37*%
X106045000Y-86360000D03*
%TO.P,J1,36*%
%TO.N,Pin36*%
X103505000Y-83820000D03*
%TO.P,J1,35*%
%TO.N,Pin35*%
X106045000Y-83820000D03*
%TO.P,J1,34*%
%TO.N,Pin34*%
X103505000Y-81280000D03*
%TO.P,J1,33*%
%TO.N,Pin33*%
X106045000Y-81280000D03*
%TO.P,J1,32*%
%TO.N,Pin32*%
X103505000Y-78740000D03*
%TO.P,J1,31*%
%TO.N,Pin31*%
X106045000Y-78740000D03*
%TO.P,J1,30*%
%TO.N,Pin30*%
X103505000Y-76200000D03*
%TO.P,J1,29*%
%TO.N,Pin29*%
X106045000Y-76200000D03*
%TO.P,J1,28*%
%TO.N,Pin28*%
X103505000Y-73660000D03*
%TO.P,J1,27*%
%TO.N,Pin27*%
X106045000Y-73660000D03*
%TO.P,J1,26*%
%TO.N,Pin26*%
X103505000Y-71120000D03*
%TO.P,J1,25*%
%TO.N,Pin25*%
X106045000Y-71120000D03*
%TO.P,J1,24*%
%TO.N,Pin24*%
X103505000Y-68580000D03*
%TO.P,J1,23*%
%TO.N,Pin23*%
X106045000Y-68580000D03*
%TO.P,J1,22*%
%TO.N,Pin22*%
X103505000Y-66040000D03*
%TO.P,J1,21*%
%TO.N,Pin21*%
X106045000Y-66040000D03*
%TO.P,J1,20*%
%TO.N,Pin20*%
X103505000Y-63500000D03*
%TO.P,J1,19*%
%TO.N,Pin19*%
X106045000Y-63500000D03*
%TO.P,J1,18*%
%TO.N,Pin18*%
X103505000Y-60960000D03*
%TO.P,J1,17*%
%TO.N,Pin17*%
X106045000Y-60960000D03*
%TO.P,J1,16*%
%TO.N,Pin16*%
X103505000Y-58420000D03*
%TO.P,J1,15*%
%TO.N,Pin15*%
X106045000Y-58420000D03*
%TO.P,J1,14*%
%TO.N,Pin14*%
X103505000Y-55880000D03*
%TO.P,J1,13*%
%TO.N,Pin13*%
X106045000Y-55880000D03*
%TO.P,J1,12*%
%TO.N,Pin12*%
X103505000Y-53340000D03*
%TO.P,J1,11*%
%TO.N,Pin11*%
X106045000Y-53340000D03*
%TO.P,J1,10*%
%TO.N,Pin10*%
X103505000Y-50800000D03*
%TO.P,J1,9*%
%TO.N,GND*%
X106045000Y-50800000D03*
%TO.P,J1,8*%
%TO.N,Pin8*%
X103505000Y-48260000D03*
%TO.P,J1,7*%
%TO.N,Pin7*%
X106045000Y-48260000D03*
%TO.P,J1,6*%
%TO.N,GND*%
X103505000Y-45720000D03*
%TO.P,J1,5*%
%TO.N,Pin5*%
X106045000Y-45720000D03*
%TO.P,J1,4*%
%TO.N,Pin4*%
X103505000Y-43180000D03*
%TO.P,J1,3*%
%TO.N,Pin3*%
X106045000Y-43180000D03*
%TO.P,J1,2*%
%TO.N,Pin2*%
X103505000Y-40640000D03*
D11*
%TO.P,J1,1*%
%TO.N,Pin1*%
X106045000Y-40640000D03*
%TD*%
D12*
%TO.N,GND*%
X102057200Y-90297000D03*
X95250000Y-60960000D03*
X95250000Y-63500000D03*
X95250000Y-66040000D03*
X95250000Y-53340000D03*
X95250000Y-50800000D03*
X95250000Y-45720000D03*
X95250000Y-71120000D03*
X95250000Y-73660000D03*
X95250000Y-76200000D03*
X95250000Y-78740000D03*
X95250000Y-81280000D03*
X95250000Y-83820000D03*
X95250000Y-86360000D03*
X95250000Y-88900000D03*
X95250000Y-91440000D03*
X95250000Y-93980000D03*
X95250000Y-68580000D03*
X95250000Y-58420000D03*
X95250000Y-55880000D03*
X95250000Y-48260000D03*
%TD*%
D13*
%TO.N,Pin39*%
X98519999Y-92615001D02*
X97155000Y-93980000D01*
X102329999Y-92615001D02*
X98519999Y-92615001D01*
X106045000Y-88900000D02*
X102329999Y-92615001D01*
X92049600Y-95224600D02*
X90805000Y-93980000D01*
X95910400Y-95224600D02*
X92049600Y-95224600D01*
X97155000Y-93980000D02*
X95910400Y-95224600D01*
%TO.N,Pin37*%
X98330001Y-90264999D02*
X97155000Y-91440000D01*
X102799001Y-87535001D02*
X100069003Y-90264999D01*
X104869999Y-87535001D02*
X102799001Y-87535001D01*
X100069003Y-90264999D02*
X98330001Y-90264999D01*
X106045000Y-86360000D02*
X104869999Y-87535001D01*
X92049600Y-92684600D02*
X90805000Y-91440000D01*
X95910400Y-92684600D02*
X92049600Y-92684600D01*
X97155000Y-91440000D02*
X95910400Y-92684600D01*
%TO.N,Pin35*%
X98330001Y-87724999D02*
X97155000Y-88900000D01*
X100069003Y-87724999D02*
X98330001Y-87724999D01*
X102799001Y-84995001D02*
X100069003Y-87724999D01*
X104869999Y-84995001D02*
X102799001Y-84995001D01*
X106045000Y-83820000D02*
X104869999Y-84995001D01*
X92075000Y-90170000D02*
X90805000Y-88900000D01*
X95885000Y-90170000D02*
X92075000Y-90170000D01*
X97155000Y-88900000D02*
X95885000Y-90170000D01*
%TO.N,Pin33*%
X98519999Y-84995001D02*
X97155000Y-86360000D01*
X100259001Y-84995001D02*
X98519999Y-84995001D01*
X102799001Y-82455001D02*
X100259001Y-84995001D01*
X104869999Y-82455001D02*
X102799001Y-82455001D01*
X106045000Y-81280000D02*
X104869999Y-82455001D01*
X92075000Y-87630000D02*
X90805000Y-86360000D01*
X95885000Y-87630000D02*
X92075000Y-87630000D01*
X97155000Y-86360000D02*
X95885000Y-87630000D01*
%TO.N,Pin31*%
X98330001Y-82644999D02*
X97155000Y-83820000D01*
X100400999Y-82644999D02*
X98330001Y-82644999D01*
X104869999Y-79915001D02*
X103130997Y-79915001D01*
X103130997Y-79915001D02*
X100400999Y-82644999D01*
X106045000Y-78740000D02*
X104869999Y-79915001D01*
X92049600Y-85064600D02*
X90805000Y-83820000D01*
X95910400Y-85064600D02*
X92049600Y-85064600D01*
X97155000Y-83820000D02*
X95910400Y-85064600D01*
%TO.N,Pin29*%
X98330001Y-80104999D02*
X97155000Y-81280000D01*
X100069003Y-80104999D02*
X98330001Y-80104999D01*
X102799001Y-77375001D02*
X100069003Y-80104999D01*
X104869999Y-77375001D02*
X102799001Y-77375001D01*
X106045000Y-76200000D02*
X104869999Y-77375001D01*
X92075000Y-82550000D02*
X90805000Y-81280000D01*
X95885000Y-82550000D02*
X92075000Y-82550000D01*
X97155000Y-81280000D02*
X95885000Y-82550000D01*
%TO.N,Pin27*%
X100069003Y-77564999D02*
X98330001Y-77564999D01*
X102799001Y-74835001D02*
X100069003Y-77564999D01*
X104869999Y-74835001D02*
X102799001Y-74835001D01*
X98330001Y-77564999D02*
X97155000Y-78740000D01*
X106045000Y-73660000D02*
X104869999Y-74835001D01*
X92049600Y-79984600D02*
X90805000Y-78740000D01*
X95910400Y-79984600D02*
X92049600Y-79984600D01*
X97155000Y-78740000D02*
X95910400Y-79984600D01*
%TO.N,Pin25*%
X98330001Y-75024999D02*
X97155000Y-76200000D01*
X100069003Y-75024999D02*
X98330001Y-75024999D01*
X102799001Y-72295001D02*
X100069003Y-75024999D01*
X104869999Y-72295001D02*
X102799001Y-72295001D01*
X106045000Y-71120000D02*
X104869999Y-72295001D01*
X95910400Y-77444600D02*
X92049600Y-77444600D01*
X92049600Y-77444600D02*
X90805000Y-76200000D01*
X97155000Y-76200000D02*
X95910400Y-77444600D01*
%TO.N,Pin23*%
X98330001Y-72484999D02*
X97155000Y-73660000D01*
X100400999Y-72484999D02*
X98330001Y-72484999D01*
X103130997Y-69755001D02*
X100400999Y-72484999D01*
X104869999Y-69755001D02*
X103130997Y-69755001D01*
X106045000Y-68580000D02*
X104869999Y-69755001D01*
X92075000Y-74930000D02*
X90805000Y-73660000D01*
X96354002Y-74930000D02*
X92075000Y-74930000D01*
X97155000Y-74129002D02*
X96354002Y-74930000D01*
X97155000Y-73660000D02*
X97155000Y-74129002D01*
%TO.N,Pin21*%
X100069003Y-69944999D02*
X98330001Y-69944999D01*
X98330001Y-69944999D02*
X97155000Y-71120000D01*
X102799001Y-67215001D02*
X100069003Y-69944999D01*
X104869999Y-67215001D02*
X102799001Y-67215001D01*
X106045000Y-66040000D02*
X104869999Y-67215001D01*
X91980001Y-72295001D02*
X90805000Y-71120000D01*
X95979999Y-72295001D02*
X91980001Y-72295001D01*
X97155000Y-71120000D02*
X95979999Y-72295001D01*
%TO.N,Pin19*%
X100259001Y-67215001D02*
X98519999Y-67215001D01*
X98519999Y-67215001D02*
X97155000Y-68580000D01*
X102799001Y-64675001D02*
X100259001Y-67215001D01*
X104869999Y-64675001D02*
X102799001Y-64675001D01*
X106045000Y-63500000D02*
X104869999Y-64675001D01*
X92075000Y-69850000D02*
X90805000Y-68580000D01*
X95885000Y-69850000D02*
X92075000Y-69850000D01*
X97155000Y-68580000D02*
X95885000Y-69850000D01*
%TO.N,Pin17*%
X98330001Y-64864999D02*
X97155000Y-66040000D01*
X100069003Y-64864999D02*
X98330001Y-64864999D01*
X102799001Y-62135001D02*
X100069003Y-64864999D01*
X104869999Y-62135001D02*
X102799001Y-62135001D01*
X106045000Y-60960000D02*
X104869999Y-62135001D01*
X92075000Y-67310000D02*
X90805000Y-66040000D01*
X95885000Y-67310000D02*
X92075000Y-67310000D01*
X97155000Y-66040000D02*
X95885000Y-67310000D01*
%TO.N,Pin15*%
X98330001Y-62324999D02*
X97155000Y-63500000D01*
X102799001Y-59595001D02*
X100069003Y-62324999D01*
X100069003Y-62324999D02*
X98330001Y-62324999D01*
X104869999Y-59595001D02*
X102799001Y-59595001D01*
X106045000Y-58420000D02*
X104869999Y-59595001D01*
X92075000Y-64770000D02*
X90805000Y-63500000D01*
X95885000Y-64770000D02*
X92075000Y-64770000D01*
X97155000Y-63500000D02*
X95885000Y-64770000D01*
%TO.N,Pin13*%
X98330001Y-59784999D02*
X97155000Y-60960000D01*
X100400999Y-59784999D02*
X98330001Y-59784999D01*
X103130997Y-57055001D02*
X100400999Y-59784999D01*
X104869999Y-57055001D02*
X103130997Y-57055001D01*
X106045000Y-55880000D02*
X104869999Y-57055001D01*
X92049600Y-62204600D02*
X90805000Y-60960000D01*
X95910400Y-62204600D02*
X92049600Y-62204600D01*
X97155000Y-60960000D02*
X95910400Y-62204600D01*
%TO.N,Pin11*%
X100069003Y-57244999D02*
X98330001Y-57244999D01*
X102799001Y-54515001D02*
X100069003Y-57244999D01*
X104869999Y-54515001D02*
X102799001Y-54515001D01*
X98330001Y-57244999D02*
X97155000Y-58420000D01*
X106045000Y-53340000D02*
X104869999Y-54515001D01*
X92075000Y-59690000D02*
X90805000Y-58420000D01*
X95885000Y-59690000D02*
X92075000Y-59690000D01*
X97155000Y-58420000D02*
X95885000Y-59690000D01*
%TO.N,Pin7*%
X98519999Y-51975001D02*
X97155000Y-53340000D01*
X100259001Y-51975001D02*
X98519999Y-51975001D01*
X102799001Y-49435001D02*
X100259001Y-51975001D01*
X104869999Y-49435001D02*
X102799001Y-49435001D01*
X106045000Y-48260000D02*
X104869999Y-49435001D01*
X92049600Y-54584600D02*
X90805000Y-53340000D01*
X95910400Y-54584600D02*
X92049600Y-54584600D01*
X97155000Y-53340000D02*
X95910400Y-54584600D01*
%TO.N,Pin5*%
X98330001Y-49624999D02*
X97155000Y-50800000D01*
X100069003Y-49624999D02*
X98330001Y-49624999D01*
X102799001Y-46895001D02*
X100069003Y-49624999D01*
X104869999Y-46895001D02*
X102799001Y-46895001D01*
X106045000Y-45720000D02*
X104869999Y-46895001D01*
X92049600Y-52044600D02*
X90805000Y-50800000D01*
X95910400Y-52044600D02*
X92049600Y-52044600D01*
X97155000Y-50800000D02*
X95910400Y-52044600D01*
%TO.N,Pin3*%
X98330001Y-47084999D02*
X97155000Y-48260000D01*
X100069003Y-47084999D02*
X98330001Y-47084999D01*
X102799001Y-44355001D02*
X100069003Y-47084999D01*
X104869999Y-44355001D02*
X102799001Y-44355001D01*
X106045000Y-43180000D02*
X104869999Y-44355001D01*
X92075000Y-49530000D02*
X90805000Y-48260000D01*
X95885000Y-49530000D02*
X92075000Y-49530000D01*
X97155000Y-48260000D02*
X95885000Y-49530000D01*
%TO.N,Pin1*%
X101059999Y-41815001D02*
X97155000Y-45720000D01*
X104869999Y-41815001D02*
X101059999Y-41815001D01*
X106045000Y-40640000D02*
X104869999Y-41815001D01*
X92075000Y-46990000D02*
X90805000Y-45720000D01*
X95885000Y-46990000D02*
X92075000Y-46990000D01*
X97155000Y-45720000D02*
X95885000Y-46990000D01*
%TD*%
D14*
%TO.N,GND*%
X107486099Y-37242270D02*
X107528524Y-37255079D01*
X107567647Y-37275881D01*
X107601987Y-37303888D01*
X107630235Y-37338034D01*
X107651312Y-37377016D01*
X107664415Y-37419343D01*
X107671001Y-37482002D01*
X107671000Y-96246140D01*
X107664730Y-96310100D01*
X107651921Y-96352523D01*
X107631119Y-96391647D01*
X107603110Y-96425989D01*
X107568966Y-96454235D01*
X107529984Y-96475312D01*
X107487657Y-96488415D01*
X107425008Y-96495000D01*
X89681860Y-96495000D01*
X89617900Y-96488730D01*
X89575477Y-96475921D01*
X89536353Y-96455119D01*
X89502011Y-96427110D01*
X89473765Y-96392966D01*
X89452688Y-96353984D01*
X89439585Y-96311657D01*
X89433000Y-96249008D01*
X89433000Y-58298757D01*
X89574000Y-58298757D01*
X89574000Y-58541243D01*
X89621307Y-58779069D01*
X89714102Y-59003097D01*
X89848820Y-59204717D01*
X90020283Y-59376180D01*
X90221903Y-59510898D01*
X90445931Y-59603693D01*
X90683757Y-59651000D01*
X90926243Y-59651000D01*
X91164069Y-59603693D01*
X91241167Y-59571758D01*
X91699628Y-60030220D01*
X91715473Y-60049527D01*
X91792521Y-60112759D01*
X91880425Y-60159745D01*
X91975806Y-60188678D01*
X91985694Y-60189652D01*
X92050146Y-60196000D01*
X92050153Y-60196000D01*
X92074999Y-60198447D01*
X92099845Y-60196000D01*
X92374977Y-60196000D01*
X92254102Y-60376903D01*
X92161307Y-60600931D01*
X92114000Y-60838757D01*
X92114000Y-61081243D01*
X92161307Y-61319069D01*
X92254102Y-61543097D01*
X92358006Y-61698600D01*
X92259192Y-61698600D01*
X91956758Y-61396167D01*
X91988693Y-61319069D01*
X92036000Y-61081243D01*
X92036000Y-60838757D01*
X91988693Y-60600931D01*
X91895898Y-60376903D01*
X91761180Y-60175283D01*
X91589717Y-60003820D01*
X91388097Y-59869102D01*
X91164069Y-59776307D01*
X90926243Y-59729000D01*
X90683757Y-59729000D01*
X90445931Y-59776307D01*
X90221903Y-59869102D01*
X90020283Y-60003820D01*
X89848820Y-60175283D01*
X89714102Y-60376903D01*
X89621307Y-60600931D01*
X89574000Y-60838757D01*
X89574000Y-61081243D01*
X89621307Y-61319069D01*
X89714102Y-61543097D01*
X89848820Y-61744717D01*
X90020283Y-61916180D01*
X90221903Y-62050898D01*
X90445931Y-62143693D01*
X90683757Y-62191000D01*
X90926243Y-62191000D01*
X91164069Y-62143693D01*
X91241167Y-62111758D01*
X91674228Y-62544820D01*
X91690073Y-62564127D01*
X91767121Y-62627359D01*
X91855025Y-62674345D01*
X91950406Y-62703278D01*
X91960294Y-62704252D01*
X92024746Y-62710600D01*
X92024753Y-62710600D01*
X92049599Y-62713047D01*
X92074445Y-62710600D01*
X92393503Y-62710600D01*
X92388820Y-62715283D01*
X92254102Y-62916903D01*
X92161307Y-63140931D01*
X92114000Y-63378757D01*
X92114000Y-63621243D01*
X92161307Y-63859069D01*
X92254102Y-64083097D01*
X92374977Y-64264000D01*
X92284592Y-64264000D01*
X91956758Y-63936167D01*
X91988693Y-63859069D01*
X92036000Y-63621243D01*
X92036000Y-63378757D01*
X91988693Y-63140931D01*
X91895898Y-62916903D01*
X91761180Y-62715283D01*
X91589717Y-62543820D01*
X91388097Y-62409102D01*
X91164069Y-62316307D01*
X90926243Y-62269000D01*
X90683757Y-62269000D01*
X90445931Y-62316307D01*
X90221903Y-62409102D01*
X90020283Y-62543820D01*
X89848820Y-62715283D01*
X89714102Y-62916903D01*
X89621307Y-63140931D01*
X89574000Y-63378757D01*
X89574000Y-63621243D01*
X89621307Y-63859069D01*
X89714102Y-64083097D01*
X89848820Y-64284717D01*
X90020283Y-64456180D01*
X90221903Y-64590898D01*
X90445931Y-64683693D01*
X90683757Y-64731000D01*
X90926243Y-64731000D01*
X91164069Y-64683693D01*
X91241167Y-64651758D01*
X91699628Y-65110220D01*
X91715473Y-65129527D01*
X91792521Y-65192759D01*
X91880425Y-65239745D01*
X91975806Y-65268678D01*
X91985694Y-65269652D01*
X92050146Y-65276000D01*
X92050153Y-65276000D01*
X92074999Y-65278447D01*
X92099845Y-65276000D01*
X92374977Y-65276000D01*
X92254102Y-65456903D01*
X92161307Y-65680931D01*
X92114000Y-65918757D01*
X92114000Y-66161243D01*
X92161307Y-66399069D01*
X92254102Y-66623097D01*
X92374977Y-66804000D01*
X92284592Y-66804000D01*
X91956758Y-66476167D01*
X91988693Y-66399069D01*
X92036000Y-66161243D01*
X92036000Y-65918757D01*
X91988693Y-65680931D01*
X91895898Y-65456903D01*
X91761180Y-65255283D01*
X91589717Y-65083820D01*
X91388097Y-64949102D01*
X91164069Y-64856307D01*
X90926243Y-64809000D01*
X90683757Y-64809000D01*
X90445931Y-64856307D01*
X90221903Y-64949102D01*
X90020283Y-65083820D01*
X89848820Y-65255283D01*
X89714102Y-65456903D01*
X89621307Y-65680931D01*
X89574000Y-65918757D01*
X89574000Y-66161243D01*
X89621307Y-66399069D01*
X89714102Y-66623097D01*
X89848820Y-66824717D01*
X90020283Y-66996180D01*
X90221903Y-67130898D01*
X90445931Y-67223693D01*
X90683757Y-67271000D01*
X90926243Y-67271000D01*
X91164069Y-67223693D01*
X91241167Y-67191758D01*
X91699628Y-67650220D01*
X91715473Y-67669527D01*
X91792521Y-67732759D01*
X91880425Y-67779745D01*
X91975806Y-67808678D01*
X91985694Y-67809652D01*
X92050146Y-67816000D01*
X92050153Y-67816000D01*
X92074999Y-67818447D01*
X92099845Y-67816000D01*
X92374977Y-67816000D01*
X92254102Y-67996903D01*
X92161307Y-68220931D01*
X92114000Y-68458757D01*
X92114000Y-68701243D01*
X92161307Y-68939069D01*
X92254102Y-69163097D01*
X92374977Y-69344000D01*
X92284592Y-69344000D01*
X91956758Y-69016167D01*
X91988693Y-68939069D01*
X92036000Y-68701243D01*
X92036000Y-68458757D01*
X91988693Y-68220931D01*
X91895898Y-67996903D01*
X91761180Y-67795283D01*
X91589717Y-67623820D01*
X91388097Y-67489102D01*
X91164069Y-67396307D01*
X90926243Y-67349000D01*
X90683757Y-67349000D01*
X90445931Y-67396307D01*
X90221903Y-67489102D01*
X90020283Y-67623820D01*
X89848820Y-67795283D01*
X89714102Y-67996903D01*
X89621307Y-68220931D01*
X89574000Y-68458757D01*
X89574000Y-68701243D01*
X89621307Y-68939069D01*
X89714102Y-69163097D01*
X89848820Y-69364717D01*
X90020283Y-69536180D01*
X90221903Y-69670898D01*
X90445931Y-69763693D01*
X90683757Y-69811000D01*
X90926243Y-69811000D01*
X91164069Y-69763693D01*
X91241167Y-69731758D01*
X91699628Y-70190220D01*
X91715473Y-70209527D01*
X91792521Y-70272759D01*
X91880425Y-70319745D01*
X91975806Y-70348678D01*
X91985694Y-70349652D01*
X92050146Y-70356000D01*
X92050153Y-70356000D01*
X92074999Y-70358447D01*
X92099845Y-70356000D01*
X92374977Y-70356000D01*
X92254102Y-70536903D01*
X92161307Y-70760931D01*
X92114000Y-70998757D01*
X92114000Y-71241243D01*
X92161307Y-71479069D01*
X92254102Y-71703097D01*
X92311501Y-71789001D01*
X92189593Y-71789001D01*
X91956758Y-71556167D01*
X91988693Y-71479069D01*
X92036000Y-71241243D01*
X92036000Y-70998757D01*
X91988693Y-70760931D01*
X91895898Y-70536903D01*
X91761180Y-70335283D01*
X91589717Y-70163820D01*
X91388097Y-70029102D01*
X91164069Y-69936307D01*
X90926243Y-69889000D01*
X90683757Y-69889000D01*
X90445931Y-69936307D01*
X90221903Y-70029102D01*
X90020283Y-70163820D01*
X89848820Y-70335283D01*
X89714102Y-70536903D01*
X89621307Y-70760931D01*
X89574000Y-70998757D01*
X89574000Y-71241243D01*
X89621307Y-71479069D01*
X89714102Y-71703097D01*
X89848820Y-71904717D01*
X90020283Y-72076180D01*
X90221903Y-72210898D01*
X90445931Y-72303693D01*
X90683757Y-72351000D01*
X90926243Y-72351000D01*
X91164069Y-72303693D01*
X91241167Y-72271758D01*
X91604629Y-72635221D01*
X91620474Y-72654528D01*
X91697522Y-72717760D01*
X91785426Y-72764746D01*
X91858608Y-72786945D01*
X91880807Y-72793679D01*
X91890695Y-72794653D01*
X91955147Y-72801001D01*
X91955154Y-72801001D01*
X91980000Y-72803448D01*
X92004846Y-72801001D01*
X92463102Y-72801001D01*
X92388820Y-72875283D01*
X92254102Y-73076903D01*
X92161307Y-73300931D01*
X92114000Y-73538757D01*
X92114000Y-73781243D01*
X92161307Y-74019069D01*
X92254102Y-74243097D01*
X92374977Y-74424000D01*
X92284592Y-74424000D01*
X91956758Y-74096167D01*
X91988693Y-74019069D01*
X92036000Y-73781243D01*
X92036000Y-73538757D01*
X91988693Y-73300931D01*
X91895898Y-73076903D01*
X91761180Y-72875283D01*
X91589717Y-72703820D01*
X91388097Y-72569102D01*
X91164069Y-72476307D01*
X90926243Y-72429000D01*
X90683757Y-72429000D01*
X90445931Y-72476307D01*
X90221903Y-72569102D01*
X90020283Y-72703820D01*
X89848820Y-72875283D01*
X89714102Y-73076903D01*
X89621307Y-73300931D01*
X89574000Y-73538757D01*
X89574000Y-73781243D01*
X89621307Y-74019069D01*
X89714102Y-74243097D01*
X89848820Y-74444717D01*
X90020283Y-74616180D01*
X90221903Y-74750898D01*
X90445931Y-74843693D01*
X90683757Y-74891000D01*
X90926243Y-74891000D01*
X91164069Y-74843693D01*
X91241167Y-74811758D01*
X91699628Y-75270220D01*
X91715473Y-75289527D01*
X91792521Y-75352759D01*
X91880425Y-75399745D01*
X91975806Y-75428678D01*
X91985694Y-75429652D01*
X92050146Y-75436000D01*
X92050153Y-75436000D01*
X92074999Y-75438447D01*
X92099845Y-75436000D01*
X92374977Y-75436000D01*
X92254102Y-75616903D01*
X92161307Y-75840931D01*
X92114000Y-76078757D01*
X92114000Y-76321243D01*
X92161307Y-76559069D01*
X92254102Y-76783097D01*
X92358006Y-76938600D01*
X92259192Y-76938600D01*
X91956758Y-76636167D01*
X91988693Y-76559069D01*
X92036000Y-76321243D01*
X92036000Y-76078757D01*
X91988693Y-75840931D01*
X91895898Y-75616903D01*
X91761180Y-75415283D01*
X91589717Y-75243820D01*
X91388097Y-75109102D01*
X91164069Y-75016307D01*
X90926243Y-74969000D01*
X90683757Y-74969000D01*
X90445931Y-75016307D01*
X90221903Y-75109102D01*
X90020283Y-75243820D01*
X89848820Y-75415283D01*
X89714102Y-75616903D01*
X89621307Y-75840931D01*
X89574000Y-76078757D01*
X89574000Y-76321243D01*
X89621307Y-76559069D01*
X89714102Y-76783097D01*
X89848820Y-76984717D01*
X90020283Y-77156180D01*
X90221903Y-77290898D01*
X90445931Y-77383693D01*
X90683757Y-77431000D01*
X90926243Y-77431000D01*
X91164069Y-77383693D01*
X91241167Y-77351758D01*
X91674228Y-77784820D01*
X91690073Y-77804127D01*
X91767121Y-77867359D01*
X91855025Y-77914345D01*
X91950406Y-77943278D01*
X91960294Y-77944252D01*
X92024746Y-77950600D01*
X92024753Y-77950600D01*
X92049599Y-77953047D01*
X92074445Y-77950600D01*
X92393503Y-77950600D01*
X92388820Y-77955283D01*
X92254102Y-78156903D01*
X92161307Y-78380931D01*
X92114000Y-78618757D01*
X92114000Y-78861243D01*
X92161307Y-79099069D01*
X92254102Y-79323097D01*
X92358006Y-79478600D01*
X92259192Y-79478600D01*
X91956758Y-79176167D01*
X91988693Y-79099069D01*
X92036000Y-78861243D01*
X92036000Y-78618757D01*
X91988693Y-78380931D01*
X91895898Y-78156903D01*
X91761180Y-77955283D01*
X91589717Y-77783820D01*
X91388097Y-77649102D01*
X91164069Y-77556307D01*
X90926243Y-77509000D01*
X90683757Y-77509000D01*
X90445931Y-77556307D01*
X90221903Y-77649102D01*
X90020283Y-77783820D01*
X89848820Y-77955283D01*
X89714102Y-78156903D01*
X89621307Y-78380931D01*
X89574000Y-78618757D01*
X89574000Y-78861243D01*
X89621307Y-79099069D01*
X89714102Y-79323097D01*
X89848820Y-79524717D01*
X90020283Y-79696180D01*
X90221903Y-79830898D01*
X90445931Y-79923693D01*
X90683757Y-79971000D01*
X90926243Y-79971000D01*
X91164069Y-79923693D01*
X91241167Y-79891758D01*
X91674228Y-80324820D01*
X91690073Y-80344127D01*
X91767121Y-80407359D01*
X91855025Y-80454345D01*
X91950406Y-80483278D01*
X91960294Y-80484252D01*
X92024746Y-80490600D01*
X92024753Y-80490600D01*
X92049599Y-80493047D01*
X92074445Y-80490600D01*
X92393503Y-80490600D01*
X92388820Y-80495283D01*
X92254102Y-80696903D01*
X92161307Y-80920931D01*
X92114000Y-81158757D01*
X92114000Y-81401243D01*
X92161307Y-81639069D01*
X92254102Y-81863097D01*
X92374977Y-82044000D01*
X92284592Y-82044000D01*
X91956758Y-81716167D01*
X91988693Y-81639069D01*
X92036000Y-81401243D01*
X92036000Y-81158757D01*
X91988693Y-80920931D01*
X91895898Y-80696903D01*
X91761180Y-80495283D01*
X91589717Y-80323820D01*
X91388097Y-80189102D01*
X91164069Y-80096307D01*
X90926243Y-80049000D01*
X90683757Y-80049000D01*
X90445931Y-80096307D01*
X90221903Y-80189102D01*
X90020283Y-80323820D01*
X89848820Y-80495283D01*
X89714102Y-80696903D01*
X89621307Y-80920931D01*
X89574000Y-81158757D01*
X89574000Y-81401243D01*
X89621307Y-81639069D01*
X89714102Y-81863097D01*
X89848820Y-82064717D01*
X90020283Y-82236180D01*
X90221903Y-82370898D01*
X90445931Y-82463693D01*
X90683757Y-82511000D01*
X90926243Y-82511000D01*
X91164069Y-82463693D01*
X91241167Y-82431758D01*
X91699628Y-82890220D01*
X91715473Y-82909527D01*
X91792521Y-82972759D01*
X91880425Y-83019745D01*
X91975806Y-83048678D01*
X91985694Y-83049652D01*
X92050146Y-83056000D01*
X92050153Y-83056000D01*
X92074999Y-83058447D01*
X92099845Y-83056000D01*
X92374977Y-83056000D01*
X92254102Y-83236903D01*
X92161307Y-83460931D01*
X92114000Y-83698757D01*
X92114000Y-83941243D01*
X92161307Y-84179069D01*
X92254102Y-84403097D01*
X92358006Y-84558600D01*
X92259192Y-84558600D01*
X91956758Y-84256167D01*
X91988693Y-84179069D01*
X92036000Y-83941243D01*
X92036000Y-83698757D01*
X91988693Y-83460931D01*
X91895898Y-83236903D01*
X91761180Y-83035283D01*
X91589717Y-82863820D01*
X91388097Y-82729102D01*
X91164069Y-82636307D01*
X90926243Y-82589000D01*
X90683757Y-82589000D01*
X90445931Y-82636307D01*
X90221903Y-82729102D01*
X90020283Y-82863820D01*
X89848820Y-83035283D01*
X89714102Y-83236903D01*
X89621307Y-83460931D01*
X89574000Y-83698757D01*
X89574000Y-83941243D01*
X89621307Y-84179069D01*
X89714102Y-84403097D01*
X89848820Y-84604717D01*
X90020283Y-84776180D01*
X90221903Y-84910898D01*
X90445931Y-85003693D01*
X90683757Y-85051000D01*
X90926243Y-85051000D01*
X91164069Y-85003693D01*
X91241167Y-84971758D01*
X91674228Y-85404820D01*
X91690073Y-85424127D01*
X91767121Y-85487359D01*
X91855025Y-85534345D01*
X91950406Y-85563278D01*
X91960294Y-85564252D01*
X92024746Y-85570600D01*
X92024753Y-85570600D01*
X92049599Y-85573047D01*
X92074445Y-85570600D01*
X92393503Y-85570600D01*
X92388820Y-85575283D01*
X92254102Y-85776903D01*
X92161307Y-86000931D01*
X92114000Y-86238757D01*
X92114000Y-86481243D01*
X92161307Y-86719069D01*
X92254102Y-86943097D01*
X92374977Y-87124000D01*
X92284592Y-87124000D01*
X91956758Y-86796167D01*
X91988693Y-86719069D01*
X92036000Y-86481243D01*
X92036000Y-86238757D01*
X91988693Y-86000931D01*
X91895898Y-85776903D01*
X91761180Y-85575283D01*
X91589717Y-85403820D01*
X91388097Y-85269102D01*
X91164069Y-85176307D01*
X90926243Y-85129000D01*
X90683757Y-85129000D01*
X90445931Y-85176307D01*
X90221903Y-85269102D01*
X90020283Y-85403820D01*
X89848820Y-85575283D01*
X89714102Y-85776903D01*
X89621307Y-86000931D01*
X89574000Y-86238757D01*
X89574000Y-86481243D01*
X89621307Y-86719069D01*
X89714102Y-86943097D01*
X89848820Y-87144717D01*
X90020283Y-87316180D01*
X90221903Y-87450898D01*
X90445931Y-87543693D01*
X90683757Y-87591000D01*
X90926243Y-87591000D01*
X91164069Y-87543693D01*
X91241167Y-87511758D01*
X91699628Y-87970220D01*
X91715473Y-87989527D01*
X91792521Y-88052759D01*
X91880425Y-88099745D01*
X91975806Y-88128678D01*
X91985694Y-88129652D01*
X92050146Y-88136000D01*
X92050153Y-88136000D01*
X92074999Y-88138447D01*
X92099845Y-88136000D01*
X92374977Y-88136000D01*
X92254102Y-88316903D01*
X92161307Y-88540931D01*
X92114000Y-88778757D01*
X92114000Y-89021243D01*
X92161307Y-89259069D01*
X92254102Y-89483097D01*
X92374977Y-89664000D01*
X92284592Y-89664000D01*
X91956758Y-89336167D01*
X91988693Y-89259069D01*
X92036000Y-89021243D01*
X92036000Y-88778757D01*
X91988693Y-88540931D01*
X91895898Y-88316903D01*
X91761180Y-88115283D01*
X91589717Y-87943820D01*
X91388097Y-87809102D01*
X91164069Y-87716307D01*
X90926243Y-87669000D01*
X90683757Y-87669000D01*
X90445931Y-87716307D01*
X90221903Y-87809102D01*
X90020283Y-87943820D01*
X89848820Y-88115283D01*
X89714102Y-88316903D01*
X89621307Y-88540931D01*
X89574000Y-88778757D01*
X89574000Y-89021243D01*
X89621307Y-89259069D01*
X89714102Y-89483097D01*
X89848820Y-89684717D01*
X90020283Y-89856180D01*
X90221903Y-89990898D01*
X90445931Y-90083693D01*
X90683757Y-90131000D01*
X90926243Y-90131000D01*
X91164069Y-90083693D01*
X91241167Y-90051758D01*
X91699628Y-90510220D01*
X91715473Y-90529527D01*
X91792521Y-90592759D01*
X91880425Y-90639745D01*
X91975806Y-90668678D01*
X91985694Y-90669652D01*
X92050146Y-90676000D01*
X92050153Y-90676000D01*
X92074999Y-90678447D01*
X92099845Y-90676000D01*
X92374977Y-90676000D01*
X92254102Y-90856903D01*
X92161307Y-91080931D01*
X92114000Y-91318757D01*
X92114000Y-91561243D01*
X92161307Y-91799069D01*
X92254102Y-92023097D01*
X92358006Y-92178600D01*
X92259192Y-92178600D01*
X91956758Y-91876167D01*
X91988693Y-91799069D01*
X92036000Y-91561243D01*
X92036000Y-91318757D01*
X91988693Y-91080931D01*
X91895898Y-90856903D01*
X91761180Y-90655283D01*
X91589717Y-90483820D01*
X91388097Y-90349102D01*
X91164069Y-90256307D01*
X90926243Y-90209000D01*
X90683757Y-90209000D01*
X90445931Y-90256307D01*
X90221903Y-90349102D01*
X90020283Y-90483820D01*
X89848820Y-90655283D01*
X89714102Y-90856903D01*
X89621307Y-91080931D01*
X89574000Y-91318757D01*
X89574000Y-91561243D01*
X89621307Y-91799069D01*
X89714102Y-92023097D01*
X89848820Y-92224717D01*
X90020283Y-92396180D01*
X90221903Y-92530898D01*
X90445931Y-92623693D01*
X90683757Y-92671000D01*
X90926243Y-92671000D01*
X91164069Y-92623693D01*
X91241167Y-92591758D01*
X91674228Y-93024820D01*
X91690073Y-93044127D01*
X91767121Y-93107359D01*
X91855025Y-93154345D01*
X91950406Y-93183278D01*
X91960294Y-93184252D01*
X92024746Y-93190600D01*
X92024753Y-93190600D01*
X92049599Y-93193047D01*
X92074445Y-93190600D01*
X92393503Y-93190600D01*
X92388820Y-93195283D01*
X92254102Y-93396903D01*
X92161307Y-93620931D01*
X92114000Y-93858757D01*
X92114000Y-94101243D01*
X92161307Y-94339069D01*
X92254102Y-94563097D01*
X92358006Y-94718600D01*
X92259192Y-94718600D01*
X91956758Y-94416167D01*
X91988693Y-94339069D01*
X92036000Y-94101243D01*
X92036000Y-93858757D01*
X91988693Y-93620931D01*
X91895898Y-93396903D01*
X91761180Y-93195283D01*
X91589717Y-93023820D01*
X91388097Y-92889102D01*
X91164069Y-92796307D01*
X90926243Y-92749000D01*
X90683757Y-92749000D01*
X90445931Y-92796307D01*
X90221903Y-92889102D01*
X90020283Y-93023820D01*
X89848820Y-93195283D01*
X89714102Y-93396903D01*
X89621307Y-93620931D01*
X89574000Y-93858757D01*
X89574000Y-94101243D01*
X89621307Y-94339069D01*
X89714102Y-94563097D01*
X89848820Y-94764717D01*
X90020283Y-94936180D01*
X90221903Y-95070898D01*
X90445931Y-95163693D01*
X90683757Y-95211000D01*
X90926243Y-95211000D01*
X91164069Y-95163693D01*
X91241167Y-95131758D01*
X91674228Y-95564820D01*
X91690073Y-95584127D01*
X91767121Y-95647359D01*
X91855025Y-95694345D01*
X91950406Y-95723278D01*
X91960294Y-95724252D01*
X92024746Y-95730600D01*
X92024753Y-95730600D01*
X92049599Y-95733047D01*
X92074445Y-95730600D01*
X95885554Y-95730600D01*
X95910400Y-95733047D01*
X95935246Y-95730600D01*
X95935254Y-95730600D01*
X96009593Y-95723278D01*
X96104975Y-95694345D01*
X96192879Y-95647359D01*
X96269927Y-95584127D01*
X96285776Y-95564815D01*
X96718833Y-95131758D01*
X96795931Y-95163693D01*
X97033757Y-95211000D01*
X97276243Y-95211000D01*
X97514069Y-95163693D01*
X97738097Y-95070898D01*
X97939717Y-94936180D01*
X98111180Y-94764717D01*
X98245898Y-94563097D01*
X98338693Y-94339069D01*
X98386000Y-94101243D01*
X98386000Y-93858757D01*
X98338693Y-93620931D01*
X98306758Y-93543833D01*
X98729591Y-93121001D01*
X98813102Y-93121001D01*
X98738820Y-93195283D01*
X98604102Y-93396903D01*
X98511307Y-93620931D01*
X98464000Y-93858757D01*
X98464000Y-94101243D01*
X98511307Y-94339069D01*
X98604102Y-94563097D01*
X98738820Y-94764717D01*
X98910283Y-94936180D01*
X99111903Y-95070898D01*
X99335931Y-95163693D01*
X99573757Y-95211000D01*
X99816243Y-95211000D01*
X100054069Y-95163693D01*
X100278097Y-95070898D01*
X100479717Y-94936180D01*
X100651180Y-94764717D01*
X100785898Y-94563097D01*
X100878693Y-94339069D01*
X100926000Y-94101243D01*
X100926000Y-93858757D01*
X100878693Y-93620931D01*
X100785898Y-93396903D01*
X100651180Y-93195283D01*
X100576898Y-93121001D01*
X102305153Y-93121001D01*
X102329999Y-93123448D01*
X102354845Y-93121001D01*
X102354853Y-93121001D01*
X102429192Y-93113679D01*
X102524574Y-93084746D01*
X102612478Y-93037760D01*
X102689526Y-92974528D01*
X102705375Y-92955216D01*
X105608833Y-90051758D01*
X105685931Y-90083693D01*
X105923757Y-90131000D01*
X106166243Y-90131000D01*
X106404069Y-90083693D01*
X106628097Y-89990898D01*
X106829717Y-89856180D01*
X107001180Y-89684717D01*
X107135898Y-89483097D01*
X107228693Y-89259069D01*
X107276000Y-89021243D01*
X107276000Y-88778757D01*
X107228693Y-88540931D01*
X107135898Y-88316903D01*
X107001180Y-88115283D01*
X106829717Y-87943820D01*
X106628097Y-87809102D01*
X106404069Y-87716307D01*
X106166243Y-87669000D01*
X105923757Y-87669000D01*
X105685931Y-87716307D01*
X105461903Y-87809102D01*
X105260283Y-87943820D01*
X105088820Y-88115283D01*
X104954102Y-88316903D01*
X104861307Y-88540931D01*
X104814000Y-88778757D01*
X104814000Y-89021243D01*
X104861307Y-89259069D01*
X104893242Y-89336167D01*
X102120408Y-92109001D01*
X100728499Y-92109001D01*
X100785898Y-92023097D01*
X100878693Y-91799069D01*
X100926000Y-91561243D01*
X100926000Y-91318757D01*
X100878693Y-91080931D01*
X100785898Y-90856903D01*
X100651180Y-90655283D01*
X100522745Y-90526848D01*
X102274785Y-88774808D01*
X102274000Y-88778757D01*
X102274000Y-89021243D01*
X102321307Y-89259069D01*
X102414102Y-89483097D01*
X102548820Y-89684717D01*
X102720283Y-89856180D01*
X102921903Y-89990898D01*
X103145931Y-90083693D01*
X103383757Y-90131000D01*
X103626243Y-90131000D01*
X103864069Y-90083693D01*
X104088097Y-89990898D01*
X104289717Y-89856180D01*
X104461180Y-89684717D01*
X104595898Y-89483097D01*
X104688693Y-89259069D01*
X104736000Y-89021243D01*
X104736000Y-88778757D01*
X104688693Y-88540931D01*
X104595898Y-88316903D01*
X104461180Y-88115283D01*
X104386898Y-88041001D01*
X104845153Y-88041001D01*
X104869999Y-88043448D01*
X104894845Y-88041001D01*
X104894853Y-88041001D01*
X104969192Y-88033679D01*
X105064574Y-88004746D01*
X105152478Y-87957760D01*
X105229526Y-87894528D01*
X105245375Y-87875216D01*
X105608833Y-87511758D01*
X105685931Y-87543693D01*
X105923757Y-87591000D01*
X106166243Y-87591000D01*
X106404069Y-87543693D01*
X106628097Y-87450898D01*
X106829717Y-87316180D01*
X107001180Y-87144717D01*
X107135898Y-86943097D01*
X107228693Y-86719069D01*
X107276000Y-86481243D01*
X107276000Y-86238757D01*
X107228693Y-86000931D01*
X107135898Y-85776903D01*
X107001180Y-85575283D01*
X106829717Y-85403820D01*
X106628097Y-85269102D01*
X106404069Y-85176307D01*
X106166243Y-85129000D01*
X105923757Y-85129000D01*
X105685931Y-85176307D01*
X105461903Y-85269102D01*
X105260283Y-85403820D01*
X105088820Y-85575283D01*
X104954102Y-85776903D01*
X104861307Y-86000931D01*
X104814000Y-86238757D01*
X104814000Y-86481243D01*
X104861307Y-86719069D01*
X104893242Y-86796167D01*
X104660408Y-87029001D01*
X104538499Y-87029001D01*
X104595898Y-86943097D01*
X104688693Y-86719069D01*
X104736000Y-86481243D01*
X104736000Y-86238757D01*
X104688693Y-86000931D01*
X104595898Y-85776903D01*
X104461180Y-85575283D01*
X104386898Y-85501001D01*
X104845153Y-85501001D01*
X104869999Y-85503448D01*
X104894845Y-85501001D01*
X104894853Y-85501001D01*
X104969192Y-85493679D01*
X105064574Y-85464746D01*
X105152478Y-85417760D01*
X105229526Y-85354528D01*
X105245375Y-85335216D01*
X105608833Y-84971758D01*
X105685931Y-85003693D01*
X105923757Y-85051000D01*
X106166243Y-85051000D01*
X106404069Y-85003693D01*
X106628097Y-84910898D01*
X106829717Y-84776180D01*
X107001180Y-84604717D01*
X107135898Y-84403097D01*
X107228693Y-84179069D01*
X107276000Y-83941243D01*
X107276000Y-83698757D01*
X107228693Y-83460931D01*
X107135898Y-83236903D01*
X107001180Y-83035283D01*
X106829717Y-82863820D01*
X106628097Y-82729102D01*
X106404069Y-82636307D01*
X106166243Y-82589000D01*
X105923757Y-82589000D01*
X105685931Y-82636307D01*
X105461903Y-82729102D01*
X105260283Y-82863820D01*
X105088820Y-83035283D01*
X104954102Y-83236903D01*
X104861307Y-83460931D01*
X104814000Y-83698757D01*
X104814000Y-83941243D01*
X104861307Y-84179069D01*
X104893242Y-84256167D01*
X104660408Y-84489001D01*
X104538499Y-84489001D01*
X104595898Y-84403097D01*
X104688693Y-84179069D01*
X104736000Y-83941243D01*
X104736000Y-83698757D01*
X104688693Y-83460931D01*
X104595898Y-83236903D01*
X104461180Y-83035283D01*
X104386898Y-82961001D01*
X104845153Y-82961001D01*
X104869999Y-82963448D01*
X104894845Y-82961001D01*
X104894853Y-82961001D01*
X104969192Y-82953679D01*
X105064574Y-82924746D01*
X105152478Y-82877760D01*
X105229526Y-82814528D01*
X105245375Y-82795216D01*
X105608833Y-82431758D01*
X105685931Y-82463693D01*
X105923757Y-82511000D01*
X106166243Y-82511000D01*
X106404069Y-82463693D01*
X106628097Y-82370898D01*
X106829717Y-82236180D01*
X107001180Y-82064717D01*
X107135898Y-81863097D01*
X107228693Y-81639069D01*
X107276000Y-81401243D01*
X107276000Y-81158757D01*
X107228693Y-80920931D01*
X107135898Y-80696903D01*
X107001180Y-80495283D01*
X106829717Y-80323820D01*
X106628097Y-80189102D01*
X106404069Y-80096307D01*
X106166243Y-80049000D01*
X105923757Y-80049000D01*
X105685931Y-80096307D01*
X105461903Y-80189102D01*
X105260283Y-80323820D01*
X105088820Y-80495283D01*
X104954102Y-80696903D01*
X104861307Y-80920931D01*
X104814000Y-81158757D01*
X104814000Y-81401243D01*
X104861307Y-81639069D01*
X104893242Y-81716167D01*
X104660408Y-81949001D01*
X104538499Y-81949001D01*
X104595898Y-81863097D01*
X104688693Y-81639069D01*
X104736000Y-81401243D01*
X104736000Y-81158757D01*
X104688693Y-80920931D01*
X104595898Y-80696903D01*
X104461180Y-80495283D01*
X104386898Y-80421001D01*
X104845153Y-80421001D01*
X104869999Y-80423448D01*
X104894845Y-80421001D01*
X104894853Y-80421001D01*
X104969192Y-80413679D01*
X105064574Y-80384746D01*
X105152478Y-80337760D01*
X105229526Y-80274528D01*
X105245375Y-80255216D01*
X105608833Y-79891758D01*
X105685931Y-79923693D01*
X105923757Y-79971000D01*
X106166243Y-79971000D01*
X106404069Y-79923693D01*
X106628097Y-79830898D01*
X106829717Y-79696180D01*
X107001180Y-79524717D01*
X107135898Y-79323097D01*
X107228693Y-79099069D01*
X107276000Y-78861243D01*
X107276000Y-78618757D01*
X107228693Y-78380931D01*
X107135898Y-78156903D01*
X107001180Y-77955283D01*
X106829717Y-77783820D01*
X106628097Y-77649102D01*
X106404069Y-77556307D01*
X106166243Y-77509000D01*
X105923757Y-77509000D01*
X105685931Y-77556307D01*
X105461903Y-77649102D01*
X105260283Y-77783820D01*
X105088820Y-77955283D01*
X104954102Y-78156903D01*
X104861307Y-78380931D01*
X104814000Y-78618757D01*
X104814000Y-78861243D01*
X104861307Y-79099069D01*
X104893242Y-79176167D01*
X104660408Y-79409001D01*
X104538499Y-79409001D01*
X104595898Y-79323097D01*
X104688693Y-79099069D01*
X104736000Y-78861243D01*
X104736000Y-78618757D01*
X104688693Y-78380931D01*
X104595898Y-78156903D01*
X104461180Y-77955283D01*
X104386898Y-77881001D01*
X104845153Y-77881001D01*
X104869999Y-77883448D01*
X104894845Y-77881001D01*
X104894853Y-77881001D01*
X104969192Y-77873679D01*
X105064574Y-77844746D01*
X105152478Y-77797760D01*
X105229526Y-77734528D01*
X105245375Y-77715216D01*
X105608833Y-77351758D01*
X105685931Y-77383693D01*
X105923757Y-77431000D01*
X106166243Y-77431000D01*
X106404069Y-77383693D01*
X106628097Y-77290898D01*
X106829717Y-77156180D01*
X107001180Y-76984717D01*
X107135898Y-76783097D01*
X107228693Y-76559069D01*
X107276000Y-76321243D01*
X107276000Y-76078757D01*
X107228693Y-75840931D01*
X107135898Y-75616903D01*
X107001180Y-75415283D01*
X106829717Y-75243820D01*
X106628097Y-75109102D01*
X106404069Y-75016307D01*
X106166243Y-74969000D01*
X105923757Y-74969000D01*
X105685931Y-75016307D01*
X105461903Y-75109102D01*
X105260283Y-75243820D01*
X105088820Y-75415283D01*
X104954102Y-75616903D01*
X104861307Y-75840931D01*
X104814000Y-76078757D01*
X104814000Y-76321243D01*
X104861307Y-76559069D01*
X104893242Y-76636167D01*
X104660408Y-76869001D01*
X104538499Y-76869001D01*
X104595898Y-76783097D01*
X104688693Y-76559069D01*
X104736000Y-76321243D01*
X104736000Y-76078757D01*
X104688693Y-75840931D01*
X104595898Y-75616903D01*
X104461180Y-75415283D01*
X104386898Y-75341001D01*
X104845153Y-75341001D01*
X104869999Y-75343448D01*
X104894845Y-75341001D01*
X104894853Y-75341001D01*
X104969192Y-75333679D01*
X105064574Y-75304746D01*
X105152478Y-75257760D01*
X105229526Y-75194528D01*
X105245375Y-75175216D01*
X105608833Y-74811758D01*
X105685931Y-74843693D01*
X105923757Y-74891000D01*
X106166243Y-74891000D01*
X106404069Y-74843693D01*
X106628097Y-74750898D01*
X106829717Y-74616180D01*
X107001180Y-74444717D01*
X107135898Y-74243097D01*
X107228693Y-74019069D01*
X107276000Y-73781243D01*
X107276000Y-73538757D01*
X107228693Y-73300931D01*
X107135898Y-73076903D01*
X107001180Y-72875283D01*
X106829717Y-72703820D01*
X106628097Y-72569102D01*
X106404069Y-72476307D01*
X106166243Y-72429000D01*
X105923757Y-72429000D01*
X105685931Y-72476307D01*
X105461903Y-72569102D01*
X105260283Y-72703820D01*
X105088820Y-72875283D01*
X104954102Y-73076903D01*
X104861307Y-73300931D01*
X104814000Y-73538757D01*
X104814000Y-73781243D01*
X104861307Y-74019069D01*
X104893242Y-74096167D01*
X104660408Y-74329001D01*
X104538499Y-74329001D01*
X104595898Y-74243097D01*
X104688693Y-74019069D01*
X104736000Y-73781243D01*
X104736000Y-73538757D01*
X104688693Y-73300931D01*
X104595898Y-73076903D01*
X104461180Y-72875283D01*
X104386898Y-72801001D01*
X104845153Y-72801001D01*
X104869999Y-72803448D01*
X104894845Y-72801001D01*
X104894853Y-72801001D01*
X104969192Y-72793679D01*
X105064574Y-72764746D01*
X105152478Y-72717760D01*
X105229526Y-72654528D01*
X105245375Y-72635216D01*
X105608833Y-72271758D01*
X105685931Y-72303693D01*
X105923757Y-72351000D01*
X106166243Y-72351000D01*
X106404069Y-72303693D01*
X106628097Y-72210898D01*
X106829717Y-72076180D01*
X107001180Y-71904717D01*
X107135898Y-71703097D01*
X107228693Y-71479069D01*
X107276000Y-71241243D01*
X107276000Y-70998757D01*
X107228693Y-70760931D01*
X107135898Y-70536903D01*
X107001180Y-70335283D01*
X106829717Y-70163820D01*
X106628097Y-70029102D01*
X106404069Y-69936307D01*
X106166243Y-69889000D01*
X105923757Y-69889000D01*
X105685931Y-69936307D01*
X105461903Y-70029102D01*
X105260283Y-70163820D01*
X105088820Y-70335283D01*
X104954102Y-70536903D01*
X104861307Y-70760931D01*
X104814000Y-70998757D01*
X104814000Y-71241243D01*
X104861307Y-71479069D01*
X104893242Y-71556167D01*
X104660408Y-71789001D01*
X104538499Y-71789001D01*
X104595898Y-71703097D01*
X104688693Y-71479069D01*
X104736000Y-71241243D01*
X104736000Y-70998757D01*
X104688693Y-70760931D01*
X104595898Y-70536903D01*
X104461180Y-70335283D01*
X104386898Y-70261001D01*
X104845153Y-70261001D01*
X104869999Y-70263448D01*
X104894845Y-70261001D01*
X104894853Y-70261001D01*
X104969192Y-70253679D01*
X105064574Y-70224746D01*
X105152478Y-70177760D01*
X105229526Y-70114528D01*
X105245375Y-70095216D01*
X105608833Y-69731758D01*
X105685931Y-69763693D01*
X105923757Y-69811000D01*
X106166243Y-69811000D01*
X106404069Y-69763693D01*
X106628097Y-69670898D01*
X106829717Y-69536180D01*
X107001180Y-69364717D01*
X107135898Y-69163097D01*
X107228693Y-68939069D01*
X107276000Y-68701243D01*
X107276000Y-68458757D01*
X107228693Y-68220931D01*
X107135898Y-67996903D01*
X107001180Y-67795283D01*
X106829717Y-67623820D01*
X106628097Y-67489102D01*
X106404069Y-67396307D01*
X106166243Y-67349000D01*
X105923757Y-67349000D01*
X105685931Y-67396307D01*
X105461903Y-67489102D01*
X105260283Y-67623820D01*
X105088820Y-67795283D01*
X104954102Y-67996903D01*
X104861307Y-68220931D01*
X104814000Y-68458757D01*
X104814000Y-68701243D01*
X104861307Y-68939069D01*
X104893242Y-69016167D01*
X104660408Y-69249001D01*
X104538499Y-69249001D01*
X104595898Y-69163097D01*
X104688693Y-68939069D01*
X104736000Y-68701243D01*
X104736000Y-68458757D01*
X104688693Y-68220931D01*
X104595898Y-67996903D01*
X104461180Y-67795283D01*
X104386898Y-67721001D01*
X104845153Y-67721001D01*
X104869999Y-67723448D01*
X104894845Y-67721001D01*
X104894853Y-67721001D01*
X104969192Y-67713679D01*
X105064574Y-67684746D01*
X105152478Y-67637760D01*
X105229526Y-67574528D01*
X105245375Y-67555216D01*
X105608833Y-67191758D01*
X105685931Y-67223693D01*
X105923757Y-67271000D01*
X106166243Y-67271000D01*
X106404069Y-67223693D01*
X106628097Y-67130898D01*
X106829717Y-66996180D01*
X107001180Y-66824717D01*
X107135898Y-66623097D01*
X107228693Y-66399069D01*
X107276000Y-66161243D01*
X107276000Y-65918757D01*
X107228693Y-65680931D01*
X107135898Y-65456903D01*
X107001180Y-65255283D01*
X106829717Y-65083820D01*
X106628097Y-64949102D01*
X106404069Y-64856307D01*
X106166243Y-64809000D01*
X105923757Y-64809000D01*
X105685931Y-64856307D01*
X105461903Y-64949102D01*
X105260283Y-65083820D01*
X105088820Y-65255283D01*
X104954102Y-65456903D01*
X104861307Y-65680931D01*
X104814000Y-65918757D01*
X104814000Y-66161243D01*
X104861307Y-66399069D01*
X104893242Y-66476167D01*
X104660408Y-66709001D01*
X104538499Y-66709001D01*
X104595898Y-66623097D01*
X104688693Y-66399069D01*
X104736000Y-66161243D01*
X104736000Y-65918757D01*
X104688693Y-65680931D01*
X104595898Y-65456903D01*
X104461180Y-65255283D01*
X104386898Y-65181001D01*
X104845153Y-65181001D01*
X104869999Y-65183448D01*
X104894845Y-65181001D01*
X104894853Y-65181001D01*
X104969192Y-65173679D01*
X105064574Y-65144746D01*
X105152478Y-65097760D01*
X105229526Y-65034528D01*
X105245375Y-65015216D01*
X105608833Y-64651758D01*
X105685931Y-64683693D01*
X105923757Y-64731000D01*
X106166243Y-64731000D01*
X106404069Y-64683693D01*
X106628097Y-64590898D01*
X106829717Y-64456180D01*
X107001180Y-64284717D01*
X107135898Y-64083097D01*
X107228693Y-63859069D01*
X107276000Y-63621243D01*
X107276000Y-63378757D01*
X107228693Y-63140931D01*
X107135898Y-62916903D01*
X107001180Y-62715283D01*
X106829717Y-62543820D01*
X106628097Y-62409102D01*
X106404069Y-62316307D01*
X106166243Y-62269000D01*
X105923757Y-62269000D01*
X105685931Y-62316307D01*
X105461903Y-62409102D01*
X105260283Y-62543820D01*
X105088820Y-62715283D01*
X104954102Y-62916903D01*
X104861307Y-63140931D01*
X104814000Y-63378757D01*
X104814000Y-63621243D01*
X104861307Y-63859069D01*
X104893242Y-63936167D01*
X104660408Y-64169001D01*
X104538499Y-64169001D01*
X104595898Y-64083097D01*
X104688693Y-63859069D01*
X104736000Y-63621243D01*
X104736000Y-63378757D01*
X104688693Y-63140931D01*
X104595898Y-62916903D01*
X104461180Y-62715283D01*
X104386898Y-62641001D01*
X104845153Y-62641001D01*
X104869999Y-62643448D01*
X104894845Y-62641001D01*
X104894853Y-62641001D01*
X104969192Y-62633679D01*
X105064574Y-62604746D01*
X105152478Y-62557760D01*
X105229526Y-62494528D01*
X105245375Y-62475216D01*
X105608833Y-62111758D01*
X105685931Y-62143693D01*
X105923757Y-62191000D01*
X106166243Y-62191000D01*
X106404069Y-62143693D01*
X106628097Y-62050898D01*
X106829717Y-61916180D01*
X107001180Y-61744717D01*
X107135898Y-61543097D01*
X107228693Y-61319069D01*
X107276000Y-61081243D01*
X107276000Y-60838757D01*
X107228693Y-60600931D01*
X107135898Y-60376903D01*
X107001180Y-60175283D01*
X106829717Y-60003820D01*
X106628097Y-59869102D01*
X106404069Y-59776307D01*
X106166243Y-59729000D01*
X105923757Y-59729000D01*
X105685931Y-59776307D01*
X105461903Y-59869102D01*
X105260283Y-60003820D01*
X105088820Y-60175283D01*
X104954102Y-60376903D01*
X104861307Y-60600931D01*
X104814000Y-60838757D01*
X104814000Y-61081243D01*
X104861307Y-61319069D01*
X104893242Y-61396167D01*
X104660408Y-61629001D01*
X104538499Y-61629001D01*
X104595898Y-61543097D01*
X104688693Y-61319069D01*
X104736000Y-61081243D01*
X104736000Y-60838757D01*
X104688693Y-60600931D01*
X104595898Y-60376903D01*
X104461180Y-60175283D01*
X104386898Y-60101001D01*
X104845153Y-60101001D01*
X104869999Y-60103448D01*
X104894845Y-60101001D01*
X104894853Y-60101001D01*
X104969192Y-60093679D01*
X105064574Y-60064746D01*
X105152478Y-60017760D01*
X105229526Y-59954528D01*
X105245375Y-59935216D01*
X105608833Y-59571758D01*
X105685931Y-59603693D01*
X105923757Y-59651000D01*
X106166243Y-59651000D01*
X106404069Y-59603693D01*
X106628097Y-59510898D01*
X106829717Y-59376180D01*
X107001180Y-59204717D01*
X107135898Y-59003097D01*
X107228693Y-58779069D01*
X107276000Y-58541243D01*
X107276000Y-58298757D01*
X107228693Y-58060931D01*
X107135898Y-57836903D01*
X107001180Y-57635283D01*
X106829717Y-57463820D01*
X106628097Y-57329102D01*
X106404069Y-57236307D01*
X106166243Y-57189000D01*
X105923757Y-57189000D01*
X105685931Y-57236307D01*
X105461903Y-57329102D01*
X105260283Y-57463820D01*
X105088820Y-57635283D01*
X104954102Y-57836903D01*
X104861307Y-58060931D01*
X104814000Y-58298757D01*
X104814000Y-58541243D01*
X104861307Y-58779069D01*
X104893242Y-58856167D01*
X104660408Y-59089001D01*
X104538499Y-59089001D01*
X104595898Y-59003097D01*
X104688693Y-58779069D01*
X104736000Y-58541243D01*
X104736000Y-58298757D01*
X104688693Y-58060931D01*
X104595898Y-57836903D01*
X104461180Y-57635283D01*
X104386898Y-57561001D01*
X104845153Y-57561001D01*
X104869999Y-57563448D01*
X104894845Y-57561001D01*
X104894853Y-57561001D01*
X104969192Y-57553679D01*
X105064574Y-57524746D01*
X105152478Y-57477760D01*
X105229526Y-57414528D01*
X105245375Y-57395216D01*
X105608833Y-57031758D01*
X105685931Y-57063693D01*
X105923757Y-57111000D01*
X106166243Y-57111000D01*
X106404069Y-57063693D01*
X106628097Y-56970898D01*
X106829717Y-56836180D01*
X107001180Y-56664717D01*
X107135898Y-56463097D01*
X107228693Y-56239069D01*
X107276000Y-56001243D01*
X107276000Y-55758757D01*
X107228693Y-55520931D01*
X107135898Y-55296903D01*
X107001180Y-55095283D01*
X106829717Y-54923820D01*
X106628097Y-54789102D01*
X106404069Y-54696307D01*
X106166243Y-54649000D01*
X105923757Y-54649000D01*
X105685931Y-54696307D01*
X105461903Y-54789102D01*
X105260283Y-54923820D01*
X105088820Y-55095283D01*
X104954102Y-55296903D01*
X104861307Y-55520931D01*
X104814000Y-55758757D01*
X104814000Y-56001243D01*
X104861307Y-56239069D01*
X104893242Y-56316167D01*
X104660408Y-56549001D01*
X104538499Y-56549001D01*
X104595898Y-56463097D01*
X104688693Y-56239069D01*
X104736000Y-56001243D01*
X104736000Y-55758757D01*
X104688693Y-55520931D01*
X104595898Y-55296903D01*
X104461180Y-55095283D01*
X104386898Y-55021001D01*
X104845153Y-55021001D01*
X104869999Y-55023448D01*
X104894845Y-55021001D01*
X104894853Y-55021001D01*
X104969192Y-55013679D01*
X105064574Y-54984746D01*
X105152478Y-54937760D01*
X105229526Y-54874528D01*
X105245375Y-54855216D01*
X105608833Y-54491758D01*
X105685931Y-54523693D01*
X105923757Y-54571000D01*
X106166243Y-54571000D01*
X106404069Y-54523693D01*
X106628097Y-54430898D01*
X106829717Y-54296180D01*
X107001180Y-54124717D01*
X107135898Y-53923097D01*
X107228693Y-53699069D01*
X107276000Y-53461243D01*
X107276000Y-53218757D01*
X107228693Y-52980931D01*
X107135898Y-52756903D01*
X107001180Y-52555283D01*
X106829717Y-52383820D01*
X106628097Y-52249102D01*
X106404069Y-52156307D01*
X106166243Y-52109000D01*
X105923757Y-52109000D01*
X105685931Y-52156307D01*
X105461903Y-52249102D01*
X105260283Y-52383820D01*
X105088820Y-52555283D01*
X104954102Y-52756903D01*
X104861307Y-52980931D01*
X104814000Y-53218757D01*
X104814000Y-53461243D01*
X104861307Y-53699069D01*
X104893242Y-53776167D01*
X104660408Y-54009001D01*
X104538499Y-54009001D01*
X104595898Y-53923097D01*
X104688693Y-53699069D01*
X104736000Y-53461243D01*
X104736000Y-53218757D01*
X104688693Y-52980931D01*
X104595898Y-52756903D01*
X104461180Y-52555283D01*
X104289717Y-52383820D01*
X104088097Y-52249102D01*
X103864069Y-52156307D01*
X103626243Y-52109000D01*
X103383757Y-52109000D01*
X103145931Y-52156307D01*
X102921903Y-52249102D01*
X102720283Y-52383820D01*
X102548820Y-52555283D01*
X102414102Y-52756903D01*
X102321307Y-52980931D01*
X102274000Y-53218757D01*
X102274000Y-53461243D01*
X102321307Y-53699069D01*
X102414102Y-53923097D01*
X102524332Y-54088068D01*
X102516522Y-54092242D01*
X102439474Y-54155474D01*
X102423630Y-54174780D01*
X100911674Y-55686736D01*
X100878693Y-55520931D01*
X100785898Y-55296903D01*
X100651180Y-55095283D01*
X100479717Y-54923820D01*
X100278097Y-54789102D01*
X100054069Y-54696307D01*
X99816243Y-54649000D01*
X99573757Y-54649000D01*
X99335931Y-54696307D01*
X99111903Y-54789102D01*
X98910283Y-54923820D01*
X98738820Y-55095283D01*
X98604102Y-55296903D01*
X98511307Y-55520931D01*
X98464000Y-55758757D01*
X98464000Y-56001243D01*
X98511307Y-56239069D01*
X98604102Y-56463097D01*
X98738820Y-56664717D01*
X98813102Y-56738999D01*
X98354846Y-56738999D01*
X98330000Y-56736552D01*
X98305154Y-56738999D01*
X98305147Y-56738999D01*
X98240695Y-56745347D01*
X98230807Y-56746321D01*
X98208608Y-56753055D01*
X98135426Y-56775254D01*
X98047522Y-56822240D01*
X97970474Y-56885472D01*
X97954630Y-56904778D01*
X97591167Y-57268242D01*
X97514069Y-57236307D01*
X97276243Y-57189000D01*
X97033757Y-57189000D01*
X96795931Y-57236307D01*
X96571903Y-57329102D01*
X96370283Y-57463820D01*
X96198820Y-57635283D01*
X96064102Y-57836903D01*
X95971307Y-58060931D01*
X95924000Y-58298757D01*
X95924000Y-58541243D01*
X95971307Y-58779069D01*
X96003242Y-58856167D01*
X95675409Y-59184000D01*
X94315023Y-59184000D01*
X94435898Y-59003097D01*
X94528693Y-58779069D01*
X94576000Y-58541243D01*
X94576000Y-58298757D01*
X94528693Y-58060931D01*
X94435898Y-57836903D01*
X94301180Y-57635283D01*
X94129717Y-57463820D01*
X93928097Y-57329102D01*
X93704069Y-57236307D01*
X93466243Y-57189000D01*
X93223757Y-57189000D01*
X92985931Y-57236307D01*
X92761903Y-57329102D01*
X92560283Y-57463820D01*
X92388820Y-57635283D01*
X92254102Y-57836903D01*
X92161307Y-58060931D01*
X92114000Y-58298757D01*
X92114000Y-58541243D01*
X92161307Y-58779069D01*
X92254102Y-59003097D01*
X92374977Y-59184000D01*
X92284592Y-59184000D01*
X91956758Y-58856167D01*
X91988693Y-58779069D01*
X92036000Y-58541243D01*
X92036000Y-58298757D01*
X91988693Y-58060931D01*
X91895898Y-57836903D01*
X91761180Y-57635283D01*
X91589717Y-57463820D01*
X91388097Y-57329102D01*
X91164069Y-57236307D01*
X90926243Y-57189000D01*
X90683757Y-57189000D01*
X90445931Y-57236307D01*
X90221903Y-57329102D01*
X90020283Y-57463820D01*
X89848820Y-57635283D01*
X89714102Y-57836903D01*
X89621307Y-58060931D01*
X89574000Y-58298757D01*
X89433000Y-58298757D01*
X89433000Y-56196980D01*
X89615511Y-56196980D01*
X89639866Y-56277288D01*
X89739761Y-56496961D01*
X89880592Y-56692924D01*
X90056948Y-56857647D01*
X90262051Y-56984799D01*
X90488019Y-57069495D01*
X90678000Y-57009187D01*
X90678000Y-56007000D01*
X90932000Y-56007000D01*
X90932000Y-57009187D01*
X91121981Y-57069495D01*
X91347949Y-56984799D01*
X91553052Y-56857647D01*
X91729408Y-56692924D01*
X91870239Y-56496961D01*
X91970134Y-56277288D01*
X91994489Y-56196980D01*
X91933627Y-56007000D01*
X90932000Y-56007000D01*
X90678000Y-56007000D01*
X89676373Y-56007000D01*
X89615511Y-56196980D01*
X89433000Y-56196980D01*
X89433000Y-55563020D01*
X89615511Y-55563020D01*
X89676373Y-55753000D01*
X90678000Y-55753000D01*
X90678000Y-54750813D01*
X90932000Y-54750813D01*
X90932000Y-55753000D01*
X91933627Y-55753000D01*
X91994489Y-55563020D01*
X91970134Y-55482712D01*
X91870239Y-55263039D01*
X91729408Y-55067076D01*
X91553052Y-54902353D01*
X91347949Y-54775201D01*
X91121981Y-54690505D01*
X90932000Y-54750813D01*
X90678000Y-54750813D01*
X90488019Y-54690505D01*
X90262051Y-54775201D01*
X90056948Y-54902353D01*
X89880592Y-55067076D01*
X89739761Y-55263039D01*
X89639866Y-55482712D01*
X89615511Y-55563020D01*
X89433000Y-55563020D01*
X89433000Y-44870000D01*
X89572157Y-44870000D01*
X89572157Y-46570000D01*
X89579513Y-46644689D01*
X89601299Y-46716508D01*
X89636678Y-46782696D01*
X89684289Y-46840711D01*
X89742304Y-46888322D01*
X89808492Y-46923701D01*
X89880311Y-46945487D01*
X89955000Y-46952843D01*
X91322251Y-46952843D01*
X91699628Y-47330220D01*
X91715473Y-47349527D01*
X91792521Y-47412759D01*
X91880425Y-47459745D01*
X91975806Y-47488678D01*
X91985694Y-47489652D01*
X92050146Y-47496000D01*
X92050153Y-47496000D01*
X92074999Y-47498447D01*
X92099845Y-47496000D01*
X92374977Y-47496000D01*
X92254102Y-47676903D01*
X92161307Y-47900931D01*
X92114000Y-48138757D01*
X92114000Y-48381243D01*
X92161307Y-48619069D01*
X92254102Y-48843097D01*
X92374977Y-49024000D01*
X92284592Y-49024000D01*
X91956758Y-48696167D01*
X91988693Y-48619069D01*
X92036000Y-48381243D01*
X92036000Y-48138757D01*
X91988693Y-47900931D01*
X91895898Y-47676903D01*
X91761180Y-47475283D01*
X91589717Y-47303820D01*
X91388097Y-47169102D01*
X91164069Y-47076307D01*
X90926243Y-47029000D01*
X90683757Y-47029000D01*
X90445931Y-47076307D01*
X90221903Y-47169102D01*
X90020283Y-47303820D01*
X89848820Y-47475283D01*
X89714102Y-47676903D01*
X89621307Y-47900931D01*
X89574000Y-48138757D01*
X89574000Y-48381243D01*
X89621307Y-48619069D01*
X89714102Y-48843097D01*
X89848820Y-49044717D01*
X90020283Y-49216180D01*
X90221903Y-49350898D01*
X90445931Y-49443693D01*
X90683757Y-49491000D01*
X90926243Y-49491000D01*
X91164069Y-49443693D01*
X91241167Y-49411758D01*
X91699628Y-49870220D01*
X91715473Y-49889527D01*
X91792521Y-49952759D01*
X91880425Y-49999745D01*
X91975806Y-50028678D01*
X91985694Y-50029652D01*
X92050146Y-50036000D01*
X92050153Y-50036000D01*
X92074999Y-50038447D01*
X92099845Y-50036000D01*
X92385432Y-50036000D01*
X92279761Y-50183039D01*
X92179866Y-50402712D01*
X92155511Y-50483020D01*
X92216373Y-50673000D01*
X93218000Y-50673000D01*
X93218000Y-50653000D01*
X93472000Y-50653000D01*
X93472000Y-50673000D01*
X94473627Y-50673000D01*
X94534489Y-50483020D01*
X94510134Y-50402712D01*
X94410239Y-50183039D01*
X94304568Y-50036000D01*
X95860154Y-50036000D01*
X95885000Y-50038447D01*
X95909846Y-50036000D01*
X95909854Y-50036000D01*
X95984193Y-50028678D01*
X96079575Y-49999745D01*
X96167479Y-49952759D01*
X96244527Y-49889527D01*
X96260376Y-49870215D01*
X96718833Y-49411758D01*
X96795931Y-49443693D01*
X97033757Y-49491000D01*
X97276243Y-49491000D01*
X97514069Y-49443693D01*
X97738097Y-49350898D01*
X97939717Y-49216180D01*
X98111180Y-49044717D01*
X98245898Y-48843097D01*
X98338693Y-48619069D01*
X98386000Y-48381243D01*
X98386000Y-48138757D01*
X98338693Y-47900931D01*
X98306758Y-47823833D01*
X98539593Y-47590999D01*
X98661501Y-47590999D01*
X98604102Y-47676903D01*
X98511307Y-47900931D01*
X98464000Y-48138757D01*
X98464000Y-48381243D01*
X98511307Y-48619069D01*
X98604102Y-48843097D01*
X98738820Y-49044717D01*
X98813102Y-49118999D01*
X98354846Y-49118999D01*
X98330000Y-49116552D01*
X98305154Y-49118999D01*
X98305147Y-49118999D01*
X98240695Y-49125347D01*
X98230807Y-49126321D01*
X98208608Y-49133055D01*
X98135426Y-49155254D01*
X98047522Y-49202240D01*
X97970474Y-49265472D01*
X97954630Y-49284778D01*
X97591167Y-49648242D01*
X97514069Y-49616307D01*
X97276243Y-49569000D01*
X97033757Y-49569000D01*
X96795931Y-49616307D01*
X96571903Y-49709102D01*
X96370283Y-49843820D01*
X96198820Y-50015283D01*
X96064102Y-50216903D01*
X95971307Y-50440931D01*
X95924000Y-50678757D01*
X95924000Y-50921243D01*
X95971307Y-51159069D01*
X96003242Y-51236167D01*
X95700809Y-51538600D01*
X94322822Y-51538600D01*
X94410239Y-51416961D01*
X94510134Y-51197288D01*
X94534489Y-51116980D01*
X94473627Y-50927000D01*
X93472000Y-50927000D01*
X93472000Y-50947000D01*
X93218000Y-50947000D01*
X93218000Y-50927000D01*
X92216373Y-50927000D01*
X92155511Y-51116980D01*
X92179866Y-51197288D01*
X92279761Y-51416961D01*
X92367178Y-51538600D01*
X92259192Y-51538600D01*
X91956758Y-51236167D01*
X91988693Y-51159069D01*
X92036000Y-50921243D01*
X92036000Y-50678757D01*
X91988693Y-50440931D01*
X91895898Y-50216903D01*
X91761180Y-50015283D01*
X91589717Y-49843820D01*
X91388097Y-49709102D01*
X91164069Y-49616307D01*
X90926243Y-49569000D01*
X90683757Y-49569000D01*
X90445931Y-49616307D01*
X90221903Y-49709102D01*
X90020283Y-49843820D01*
X89848820Y-50015283D01*
X89714102Y-50216903D01*
X89621307Y-50440931D01*
X89574000Y-50678757D01*
X89574000Y-50921243D01*
X89621307Y-51159069D01*
X89714102Y-51383097D01*
X89848820Y-51584717D01*
X90020283Y-51756180D01*
X90221903Y-51890898D01*
X90445931Y-51983693D01*
X90683757Y-52031000D01*
X90926243Y-52031000D01*
X91164069Y-51983693D01*
X91241167Y-51951758D01*
X91674228Y-52384820D01*
X91690073Y-52404127D01*
X91767121Y-52467359D01*
X91855025Y-52514345D01*
X91950406Y-52543278D01*
X91960294Y-52544252D01*
X92024746Y-52550600D01*
X92024753Y-52550600D01*
X92049599Y-52553047D01*
X92074445Y-52550600D01*
X92393503Y-52550600D01*
X92388820Y-52555283D01*
X92254102Y-52756903D01*
X92161307Y-52980931D01*
X92114000Y-53218757D01*
X92114000Y-53461243D01*
X92161307Y-53699069D01*
X92254102Y-53923097D01*
X92358006Y-54078600D01*
X92259192Y-54078600D01*
X91956758Y-53776167D01*
X91988693Y-53699069D01*
X92036000Y-53461243D01*
X92036000Y-53218757D01*
X91988693Y-52980931D01*
X91895898Y-52756903D01*
X91761180Y-52555283D01*
X91589717Y-52383820D01*
X91388097Y-52249102D01*
X91164069Y-52156307D01*
X90926243Y-52109000D01*
X90683757Y-52109000D01*
X90445931Y-52156307D01*
X90221903Y-52249102D01*
X90020283Y-52383820D01*
X89848820Y-52555283D01*
X89714102Y-52756903D01*
X89621307Y-52980931D01*
X89574000Y-53218757D01*
X89574000Y-53461243D01*
X89621307Y-53699069D01*
X89714102Y-53923097D01*
X89848820Y-54124717D01*
X90020283Y-54296180D01*
X90221903Y-54430898D01*
X90445931Y-54523693D01*
X90683757Y-54571000D01*
X90926243Y-54571000D01*
X91164069Y-54523693D01*
X91241167Y-54491758D01*
X91674228Y-54924820D01*
X91690073Y-54944127D01*
X91767121Y-55007359D01*
X91855025Y-55054345D01*
X91950406Y-55083278D01*
X91960294Y-55084252D01*
X92024746Y-55090600D01*
X92024753Y-55090600D01*
X92049599Y-55093047D01*
X92074445Y-55090600D01*
X92393503Y-55090600D01*
X92388820Y-55095283D01*
X92254102Y-55296903D01*
X92161307Y-55520931D01*
X92114000Y-55758757D01*
X92114000Y-56001243D01*
X92161307Y-56239069D01*
X92254102Y-56463097D01*
X92388820Y-56664717D01*
X92560283Y-56836180D01*
X92761903Y-56970898D01*
X92985931Y-57063693D01*
X93223757Y-57111000D01*
X93466243Y-57111000D01*
X93704069Y-57063693D01*
X93928097Y-56970898D01*
X94129717Y-56836180D01*
X94301180Y-56664717D01*
X94435898Y-56463097D01*
X94528693Y-56239069D01*
X94537065Y-56196980D01*
X95965511Y-56196980D01*
X95989866Y-56277288D01*
X96089761Y-56496961D01*
X96230592Y-56692924D01*
X96406948Y-56857647D01*
X96612051Y-56984799D01*
X96838019Y-57069495D01*
X97028000Y-57009187D01*
X97028000Y-56007000D01*
X97282000Y-56007000D01*
X97282000Y-57009187D01*
X97471981Y-57069495D01*
X97697949Y-56984799D01*
X97903052Y-56857647D01*
X98079408Y-56692924D01*
X98220239Y-56496961D01*
X98320134Y-56277288D01*
X98344489Y-56196980D01*
X98283627Y-56007000D01*
X97282000Y-56007000D01*
X97028000Y-56007000D01*
X96026373Y-56007000D01*
X95965511Y-56196980D01*
X94537065Y-56196980D01*
X94576000Y-56001243D01*
X94576000Y-55758757D01*
X94537066Y-55563020D01*
X95965511Y-55563020D01*
X96026373Y-55753000D01*
X97028000Y-55753000D01*
X97028000Y-54750813D01*
X97282000Y-54750813D01*
X97282000Y-55753000D01*
X98283627Y-55753000D01*
X98344489Y-55563020D01*
X98320134Y-55482712D01*
X98220239Y-55263039D01*
X98079408Y-55067076D01*
X97903052Y-54902353D01*
X97697949Y-54775201D01*
X97471981Y-54690505D01*
X97282000Y-54750813D01*
X97028000Y-54750813D01*
X96838019Y-54690505D01*
X96612051Y-54775201D01*
X96406948Y-54902353D01*
X96230592Y-55067076D01*
X96089761Y-55263039D01*
X95989866Y-55482712D01*
X95965511Y-55563020D01*
X94537066Y-55563020D01*
X94528693Y-55520931D01*
X94435898Y-55296903D01*
X94301180Y-55095283D01*
X94296497Y-55090600D01*
X95885554Y-55090600D01*
X95910400Y-55093047D01*
X95935246Y-55090600D01*
X95935254Y-55090600D01*
X96009593Y-55083278D01*
X96104975Y-55054345D01*
X96192879Y-55007359D01*
X96269927Y-54944127D01*
X96285776Y-54924815D01*
X96718833Y-54491758D01*
X96795931Y-54523693D01*
X97033757Y-54571000D01*
X97276243Y-54571000D01*
X97514069Y-54523693D01*
X97738097Y-54430898D01*
X97939717Y-54296180D01*
X98111180Y-54124717D01*
X98245898Y-53923097D01*
X98338693Y-53699069D01*
X98386000Y-53461243D01*
X98386000Y-53218757D01*
X98338693Y-52980931D01*
X98306758Y-52903833D01*
X98729591Y-52481001D01*
X98813102Y-52481001D01*
X98738820Y-52555283D01*
X98604102Y-52756903D01*
X98511307Y-52980931D01*
X98464000Y-53218757D01*
X98464000Y-53461243D01*
X98511307Y-53699069D01*
X98604102Y-53923097D01*
X98738820Y-54124717D01*
X98910283Y-54296180D01*
X99111903Y-54430898D01*
X99335931Y-54523693D01*
X99573757Y-54571000D01*
X99816243Y-54571000D01*
X100054069Y-54523693D01*
X100278097Y-54430898D01*
X100479717Y-54296180D01*
X100651180Y-54124717D01*
X100785898Y-53923097D01*
X100878693Y-53699069D01*
X100926000Y-53461243D01*
X100926000Y-53218757D01*
X100878693Y-52980931D01*
X100785898Y-52756903D01*
X100651180Y-52555283D01*
X100510315Y-52414418D01*
X100541480Y-52397760D01*
X100618528Y-52334528D01*
X100634377Y-52315216D01*
X102274785Y-50674808D01*
X102274000Y-50678757D01*
X102274000Y-50921243D01*
X102321307Y-51159069D01*
X102414102Y-51383097D01*
X102548820Y-51584717D01*
X102720283Y-51756180D01*
X102921903Y-51890898D01*
X103145931Y-51983693D01*
X103383757Y-52031000D01*
X103626243Y-52031000D01*
X103864069Y-51983693D01*
X104088097Y-51890898D01*
X104289717Y-51756180D01*
X104461180Y-51584717D01*
X104595898Y-51383097D01*
X104688693Y-51159069D01*
X104697065Y-51116980D01*
X104855511Y-51116980D01*
X104879866Y-51197288D01*
X104979761Y-51416961D01*
X105120592Y-51612924D01*
X105296948Y-51777647D01*
X105502051Y-51904799D01*
X105728019Y-51989495D01*
X105918000Y-51929187D01*
X105918000Y-50927000D01*
X106172000Y-50927000D01*
X106172000Y-51929187D01*
X106361981Y-51989495D01*
X106587949Y-51904799D01*
X106793052Y-51777647D01*
X106969408Y-51612924D01*
X107110239Y-51416961D01*
X107210134Y-51197288D01*
X107234489Y-51116980D01*
X107173627Y-50927000D01*
X106172000Y-50927000D01*
X105918000Y-50927000D01*
X104916373Y-50927000D01*
X104855511Y-51116980D01*
X104697065Y-51116980D01*
X104736000Y-50921243D01*
X104736000Y-50678757D01*
X104697066Y-50483020D01*
X104855511Y-50483020D01*
X104916373Y-50673000D01*
X105918000Y-50673000D01*
X105918000Y-49670813D01*
X106172000Y-49670813D01*
X106172000Y-50673000D01*
X107173627Y-50673000D01*
X107234489Y-50483020D01*
X107210134Y-50402712D01*
X107110239Y-50183039D01*
X106969408Y-49987076D01*
X106793052Y-49822353D01*
X106587949Y-49695201D01*
X106361981Y-49610505D01*
X106172000Y-49670813D01*
X105918000Y-49670813D01*
X105728019Y-49610505D01*
X105502051Y-49695201D01*
X105296948Y-49822353D01*
X105120592Y-49987076D01*
X104979761Y-50183039D01*
X104879866Y-50402712D01*
X104855511Y-50483020D01*
X104697066Y-50483020D01*
X104688693Y-50440931D01*
X104595898Y-50216903D01*
X104461180Y-50015283D01*
X104386898Y-49941001D01*
X104845153Y-49941001D01*
X104869999Y-49943448D01*
X104894845Y-49941001D01*
X104894853Y-49941001D01*
X104969192Y-49933679D01*
X105064574Y-49904746D01*
X105152478Y-49857760D01*
X105229526Y-49794528D01*
X105245375Y-49775216D01*
X105608833Y-49411758D01*
X105685931Y-49443693D01*
X105923757Y-49491000D01*
X106166243Y-49491000D01*
X106404069Y-49443693D01*
X106628097Y-49350898D01*
X106829717Y-49216180D01*
X107001180Y-49044717D01*
X107135898Y-48843097D01*
X107228693Y-48619069D01*
X107276000Y-48381243D01*
X107276000Y-48138757D01*
X107228693Y-47900931D01*
X107135898Y-47676903D01*
X107001180Y-47475283D01*
X106829717Y-47303820D01*
X106628097Y-47169102D01*
X106404069Y-47076307D01*
X106166243Y-47029000D01*
X105923757Y-47029000D01*
X105685931Y-47076307D01*
X105461903Y-47169102D01*
X105260283Y-47303820D01*
X105088820Y-47475283D01*
X104954102Y-47676903D01*
X104861307Y-47900931D01*
X104814000Y-48138757D01*
X104814000Y-48381243D01*
X104861307Y-48619069D01*
X104893242Y-48696167D01*
X104660408Y-48929001D01*
X104538499Y-48929001D01*
X104595898Y-48843097D01*
X104688693Y-48619069D01*
X104736000Y-48381243D01*
X104736000Y-48138757D01*
X104688693Y-47900931D01*
X104595898Y-47676903D01*
X104461180Y-47475283D01*
X104386898Y-47401001D01*
X104845153Y-47401001D01*
X104869999Y-47403448D01*
X104894845Y-47401001D01*
X104894853Y-47401001D01*
X104969192Y-47393679D01*
X105064574Y-47364746D01*
X105152478Y-47317760D01*
X105229526Y-47254528D01*
X105245375Y-47235216D01*
X105608833Y-46871758D01*
X105685931Y-46903693D01*
X105923757Y-46951000D01*
X106166243Y-46951000D01*
X106404069Y-46903693D01*
X106628097Y-46810898D01*
X106829717Y-46676180D01*
X107001180Y-46504717D01*
X107135898Y-46303097D01*
X107228693Y-46079069D01*
X107276000Y-45841243D01*
X107276000Y-45598757D01*
X107228693Y-45360931D01*
X107135898Y-45136903D01*
X107001180Y-44935283D01*
X106829717Y-44763820D01*
X106628097Y-44629102D01*
X106404069Y-44536307D01*
X106166243Y-44489000D01*
X105923757Y-44489000D01*
X105685931Y-44536307D01*
X105461903Y-44629102D01*
X105260283Y-44763820D01*
X105088820Y-44935283D01*
X104954102Y-45136903D01*
X104861307Y-45360931D01*
X104814000Y-45598757D01*
X104814000Y-45841243D01*
X104861307Y-46079069D01*
X104893242Y-46156167D01*
X104660408Y-46389001D01*
X104532840Y-46389001D01*
X104570239Y-46336961D01*
X104670134Y-46117288D01*
X104694489Y-46036980D01*
X104633627Y-45847000D01*
X103632000Y-45847000D01*
X103632000Y-45867000D01*
X103378000Y-45867000D01*
X103378000Y-45847000D01*
X102376373Y-45847000D01*
X102315511Y-46036980D01*
X102339866Y-46117288D01*
X102439761Y-46336961D01*
X102531304Y-46464341D01*
X102516522Y-46472242D01*
X102439474Y-46535474D01*
X102423630Y-46554780D01*
X100911674Y-48066736D01*
X100878693Y-47900931D01*
X100785898Y-47676903D01*
X100651180Y-47475283D01*
X100522745Y-47346848D01*
X102352163Y-45517430D01*
X102376373Y-45593000D01*
X103378000Y-45593000D01*
X103378000Y-45573000D01*
X103632000Y-45573000D01*
X103632000Y-45593000D01*
X104633627Y-45593000D01*
X104694489Y-45403020D01*
X104670134Y-45322712D01*
X104570239Y-45103039D01*
X104429408Y-44907076D01*
X104380079Y-44861001D01*
X104845153Y-44861001D01*
X104869999Y-44863448D01*
X104894845Y-44861001D01*
X104894853Y-44861001D01*
X104969192Y-44853679D01*
X105064574Y-44824746D01*
X105152478Y-44777760D01*
X105229526Y-44714528D01*
X105245375Y-44695216D01*
X105608833Y-44331758D01*
X105685931Y-44363693D01*
X105923757Y-44411000D01*
X106166243Y-44411000D01*
X106404069Y-44363693D01*
X106628097Y-44270898D01*
X106829717Y-44136180D01*
X107001180Y-43964717D01*
X107135898Y-43763097D01*
X107228693Y-43539069D01*
X107276000Y-43301243D01*
X107276000Y-43058757D01*
X107228693Y-42820931D01*
X107135898Y-42596903D01*
X107001180Y-42395283D01*
X106829717Y-42223820D01*
X106628097Y-42089102D01*
X106404069Y-41996307D01*
X106166243Y-41949000D01*
X105923757Y-41949000D01*
X105685931Y-41996307D01*
X105461903Y-42089102D01*
X105260283Y-42223820D01*
X105088820Y-42395283D01*
X104954102Y-42596903D01*
X104861307Y-42820931D01*
X104814000Y-43058757D01*
X104814000Y-43301243D01*
X104861307Y-43539069D01*
X104893242Y-43616167D01*
X104660408Y-43849001D01*
X104538499Y-43849001D01*
X104595898Y-43763097D01*
X104688693Y-43539069D01*
X104736000Y-43301243D01*
X104736000Y-43058757D01*
X104688693Y-42820931D01*
X104595898Y-42596903D01*
X104461180Y-42395283D01*
X104386898Y-42321001D01*
X104845153Y-42321001D01*
X104869999Y-42323448D01*
X104894845Y-42321001D01*
X104894853Y-42321001D01*
X104969192Y-42313679D01*
X105064574Y-42284746D01*
X105152478Y-42237760D01*
X105229526Y-42174528D01*
X105245375Y-42155216D01*
X105527748Y-41872843D01*
X106895000Y-41872843D01*
X106969689Y-41865487D01*
X107041508Y-41843701D01*
X107107696Y-41808322D01*
X107165711Y-41760711D01*
X107213322Y-41702696D01*
X107248701Y-41636508D01*
X107270487Y-41564689D01*
X107277843Y-41490000D01*
X107277843Y-39790000D01*
X107270487Y-39715311D01*
X107248701Y-39643492D01*
X107213322Y-39577304D01*
X107165711Y-39519289D01*
X107107696Y-39471678D01*
X107041508Y-39436299D01*
X106969689Y-39414513D01*
X106895000Y-39407157D01*
X105195000Y-39407157D01*
X105120311Y-39414513D01*
X105048492Y-39436299D01*
X104982304Y-39471678D01*
X104924289Y-39519289D01*
X104876678Y-39577304D01*
X104841299Y-39643492D01*
X104819513Y-39715311D01*
X104812157Y-39790000D01*
X104812157Y-41157252D01*
X104660408Y-41309001D01*
X104538499Y-41309001D01*
X104595898Y-41223097D01*
X104688693Y-40999069D01*
X104736000Y-40761243D01*
X104736000Y-40518757D01*
X104688693Y-40280931D01*
X104595898Y-40056903D01*
X104461180Y-39855283D01*
X104289717Y-39683820D01*
X104088097Y-39549102D01*
X103864069Y-39456307D01*
X103626243Y-39409000D01*
X103383757Y-39409000D01*
X103145931Y-39456307D01*
X102921903Y-39549102D01*
X102720283Y-39683820D01*
X102548820Y-39855283D01*
X102414102Y-40056903D01*
X102321307Y-40280931D01*
X102274000Y-40518757D01*
X102274000Y-40761243D01*
X102321307Y-40999069D01*
X102414102Y-41223097D01*
X102471501Y-41309001D01*
X101084853Y-41309001D01*
X101059999Y-41306553D01*
X101035145Y-41309001D01*
X100960806Y-41316323D01*
X100865424Y-41345256D01*
X100777520Y-41392242D01*
X100700472Y-41455474D01*
X100684628Y-41474780D01*
X97672252Y-44487157D01*
X96305000Y-44487157D01*
X96230311Y-44494513D01*
X96158492Y-44516299D01*
X96092304Y-44551678D01*
X96034289Y-44599289D01*
X95986678Y-44657304D01*
X95951299Y-44723492D01*
X95929513Y-44795311D01*
X95922157Y-44870000D01*
X95922157Y-46237252D01*
X95675409Y-46484000D01*
X94315023Y-46484000D01*
X94435898Y-46303097D01*
X94528693Y-46079069D01*
X94576000Y-45841243D01*
X94576000Y-45598757D01*
X94528693Y-45360931D01*
X94435898Y-45136903D01*
X94301180Y-44935283D01*
X94129717Y-44763820D01*
X93928097Y-44629102D01*
X93704069Y-44536307D01*
X93466243Y-44489000D01*
X93223757Y-44489000D01*
X92985931Y-44536307D01*
X92761903Y-44629102D01*
X92560283Y-44763820D01*
X92388820Y-44935283D01*
X92254102Y-45136903D01*
X92161307Y-45360931D01*
X92114000Y-45598757D01*
X92114000Y-45841243D01*
X92161307Y-46079069D01*
X92254102Y-46303097D01*
X92374977Y-46484000D01*
X92284592Y-46484000D01*
X92037843Y-46237251D01*
X92037843Y-44870000D01*
X92030487Y-44795311D01*
X92008701Y-44723492D01*
X91973322Y-44657304D01*
X91925711Y-44599289D01*
X91867696Y-44551678D01*
X91801508Y-44516299D01*
X91729689Y-44494513D01*
X91655000Y-44487157D01*
X89955000Y-44487157D01*
X89880311Y-44494513D01*
X89808492Y-44516299D01*
X89742304Y-44551678D01*
X89684289Y-44599289D01*
X89636678Y-44657304D01*
X89601299Y-44723492D01*
X89579513Y-44795311D01*
X89572157Y-44870000D01*
X89433000Y-44870000D01*
X89433000Y-37484851D01*
X89439270Y-37420901D01*
X89452079Y-37378476D01*
X89472881Y-37339353D01*
X89500888Y-37305013D01*
X89535034Y-37276765D01*
X89574016Y-37255688D01*
X89616343Y-37242585D01*
X89678992Y-37236000D01*
X107422149Y-37236000D01*
X107486099Y-37242270D01*
%TA.AperFunction,Conductor*%
D15*
G36*
X107486099Y-37242270D02*
G01*
X107528524Y-37255079D01*
X107567647Y-37275881D01*
X107601987Y-37303888D01*
X107630235Y-37338034D01*
X107651312Y-37377016D01*
X107664415Y-37419343D01*
X107671001Y-37482002D01*
X107671000Y-96246140D01*
X107664730Y-96310100D01*
X107651921Y-96352523D01*
X107631119Y-96391647D01*
X107603110Y-96425989D01*
X107568966Y-96454235D01*
X107529984Y-96475312D01*
X107487657Y-96488415D01*
X107425008Y-96495000D01*
X89681860Y-96495000D01*
X89617900Y-96488730D01*
X89575477Y-96475921D01*
X89536353Y-96455119D01*
X89502011Y-96427110D01*
X89473765Y-96392966D01*
X89452688Y-96353984D01*
X89439585Y-96311657D01*
X89433000Y-96249008D01*
X89433000Y-58298757D01*
X89574000Y-58298757D01*
X89574000Y-58541243D01*
X89621307Y-58779069D01*
X89714102Y-59003097D01*
X89848820Y-59204717D01*
X90020283Y-59376180D01*
X90221903Y-59510898D01*
X90445931Y-59603693D01*
X90683757Y-59651000D01*
X90926243Y-59651000D01*
X91164069Y-59603693D01*
X91241167Y-59571758D01*
X91699628Y-60030220D01*
X91715473Y-60049527D01*
X91792521Y-60112759D01*
X91880425Y-60159745D01*
X91975806Y-60188678D01*
X91985694Y-60189652D01*
X92050146Y-60196000D01*
X92050153Y-60196000D01*
X92074999Y-60198447D01*
X92099845Y-60196000D01*
X92374977Y-60196000D01*
X92254102Y-60376903D01*
X92161307Y-60600931D01*
X92114000Y-60838757D01*
X92114000Y-61081243D01*
X92161307Y-61319069D01*
X92254102Y-61543097D01*
X92358006Y-61698600D01*
X92259192Y-61698600D01*
X91956758Y-61396167D01*
X91988693Y-61319069D01*
X92036000Y-61081243D01*
X92036000Y-60838757D01*
X91988693Y-60600931D01*
X91895898Y-60376903D01*
X91761180Y-60175283D01*
X91589717Y-60003820D01*
X91388097Y-59869102D01*
X91164069Y-59776307D01*
X90926243Y-59729000D01*
X90683757Y-59729000D01*
X90445931Y-59776307D01*
X90221903Y-59869102D01*
X90020283Y-60003820D01*
X89848820Y-60175283D01*
X89714102Y-60376903D01*
X89621307Y-60600931D01*
X89574000Y-60838757D01*
X89574000Y-61081243D01*
X89621307Y-61319069D01*
X89714102Y-61543097D01*
X89848820Y-61744717D01*
X90020283Y-61916180D01*
X90221903Y-62050898D01*
X90445931Y-62143693D01*
X90683757Y-62191000D01*
X90926243Y-62191000D01*
X91164069Y-62143693D01*
X91241167Y-62111758D01*
X91674228Y-62544820D01*
X91690073Y-62564127D01*
X91767121Y-62627359D01*
X91855025Y-62674345D01*
X91950406Y-62703278D01*
X91960294Y-62704252D01*
X92024746Y-62710600D01*
X92024753Y-62710600D01*
X92049599Y-62713047D01*
X92074445Y-62710600D01*
X92393503Y-62710600D01*
X92388820Y-62715283D01*
X92254102Y-62916903D01*
X92161307Y-63140931D01*
X92114000Y-63378757D01*
X92114000Y-63621243D01*
X92161307Y-63859069D01*
X92254102Y-64083097D01*
X92374977Y-64264000D01*
X92284592Y-64264000D01*
X91956758Y-63936167D01*
X91988693Y-63859069D01*
X92036000Y-63621243D01*
X92036000Y-63378757D01*
X91988693Y-63140931D01*
X91895898Y-62916903D01*
X91761180Y-62715283D01*
X91589717Y-62543820D01*
X91388097Y-62409102D01*
X91164069Y-62316307D01*
X90926243Y-62269000D01*
X90683757Y-62269000D01*
X90445931Y-62316307D01*
X90221903Y-62409102D01*
X90020283Y-62543820D01*
X89848820Y-62715283D01*
X89714102Y-62916903D01*
X89621307Y-63140931D01*
X89574000Y-63378757D01*
X89574000Y-63621243D01*
X89621307Y-63859069D01*
X89714102Y-64083097D01*
X89848820Y-64284717D01*
X90020283Y-64456180D01*
X90221903Y-64590898D01*
X90445931Y-64683693D01*
X90683757Y-64731000D01*
X90926243Y-64731000D01*
X91164069Y-64683693D01*
X91241167Y-64651758D01*
X91699628Y-65110220D01*
X91715473Y-65129527D01*
X91792521Y-65192759D01*
X91880425Y-65239745D01*
X91975806Y-65268678D01*
X91985694Y-65269652D01*
X92050146Y-65276000D01*
X92050153Y-65276000D01*
X92074999Y-65278447D01*
X92099845Y-65276000D01*
X92374977Y-65276000D01*
X92254102Y-65456903D01*
X92161307Y-65680931D01*
X92114000Y-65918757D01*
X92114000Y-66161243D01*
X92161307Y-66399069D01*
X92254102Y-66623097D01*
X92374977Y-66804000D01*
X92284592Y-66804000D01*
X91956758Y-66476167D01*
X91988693Y-66399069D01*
X92036000Y-66161243D01*
X92036000Y-65918757D01*
X91988693Y-65680931D01*
X91895898Y-65456903D01*
X91761180Y-65255283D01*
X91589717Y-65083820D01*
X91388097Y-64949102D01*
X91164069Y-64856307D01*
X90926243Y-64809000D01*
X90683757Y-64809000D01*
X90445931Y-64856307D01*
X90221903Y-64949102D01*
X90020283Y-65083820D01*
X89848820Y-65255283D01*
X89714102Y-65456903D01*
X89621307Y-65680931D01*
X89574000Y-65918757D01*
X89574000Y-66161243D01*
X89621307Y-66399069D01*
X89714102Y-66623097D01*
X89848820Y-66824717D01*
X90020283Y-66996180D01*
X90221903Y-67130898D01*
X90445931Y-67223693D01*
X90683757Y-67271000D01*
X90926243Y-67271000D01*
X91164069Y-67223693D01*
X91241167Y-67191758D01*
X91699628Y-67650220D01*
X91715473Y-67669527D01*
X91792521Y-67732759D01*
X91880425Y-67779745D01*
X91975806Y-67808678D01*
X91985694Y-67809652D01*
X92050146Y-67816000D01*
X92050153Y-67816000D01*
X92074999Y-67818447D01*
X92099845Y-67816000D01*
X92374977Y-67816000D01*
X92254102Y-67996903D01*
X92161307Y-68220931D01*
X92114000Y-68458757D01*
X92114000Y-68701243D01*
X92161307Y-68939069D01*
X92254102Y-69163097D01*
X92374977Y-69344000D01*
X92284592Y-69344000D01*
X91956758Y-69016167D01*
X91988693Y-68939069D01*
X92036000Y-68701243D01*
X92036000Y-68458757D01*
X91988693Y-68220931D01*
X91895898Y-67996903D01*
X91761180Y-67795283D01*
X91589717Y-67623820D01*
X91388097Y-67489102D01*
X91164069Y-67396307D01*
X90926243Y-67349000D01*
X90683757Y-67349000D01*
X90445931Y-67396307D01*
X90221903Y-67489102D01*
X90020283Y-67623820D01*
X89848820Y-67795283D01*
X89714102Y-67996903D01*
X89621307Y-68220931D01*
X89574000Y-68458757D01*
X89574000Y-68701243D01*
X89621307Y-68939069D01*
X89714102Y-69163097D01*
X89848820Y-69364717D01*
X90020283Y-69536180D01*
X90221903Y-69670898D01*
X90445931Y-69763693D01*
X90683757Y-69811000D01*
X90926243Y-69811000D01*
X91164069Y-69763693D01*
X91241167Y-69731758D01*
X91699628Y-70190220D01*
X91715473Y-70209527D01*
X91792521Y-70272759D01*
X91880425Y-70319745D01*
X91975806Y-70348678D01*
X91985694Y-70349652D01*
X92050146Y-70356000D01*
X92050153Y-70356000D01*
X92074999Y-70358447D01*
X92099845Y-70356000D01*
X92374977Y-70356000D01*
X92254102Y-70536903D01*
X92161307Y-70760931D01*
X92114000Y-70998757D01*
X92114000Y-71241243D01*
X92161307Y-71479069D01*
X92254102Y-71703097D01*
X92311501Y-71789001D01*
X92189593Y-71789001D01*
X91956758Y-71556167D01*
X91988693Y-71479069D01*
X92036000Y-71241243D01*
X92036000Y-70998757D01*
X91988693Y-70760931D01*
X91895898Y-70536903D01*
X91761180Y-70335283D01*
X91589717Y-70163820D01*
X91388097Y-70029102D01*
X91164069Y-69936307D01*
X90926243Y-69889000D01*
X90683757Y-69889000D01*
X90445931Y-69936307D01*
X90221903Y-70029102D01*
X90020283Y-70163820D01*
X89848820Y-70335283D01*
X89714102Y-70536903D01*
X89621307Y-70760931D01*
X89574000Y-70998757D01*
X89574000Y-71241243D01*
X89621307Y-71479069D01*
X89714102Y-71703097D01*
X89848820Y-71904717D01*
X90020283Y-72076180D01*
X90221903Y-72210898D01*
X90445931Y-72303693D01*
X90683757Y-72351000D01*
X90926243Y-72351000D01*
X91164069Y-72303693D01*
X91241167Y-72271758D01*
X91604629Y-72635221D01*
X91620474Y-72654528D01*
X91697522Y-72717760D01*
X91785426Y-72764746D01*
X91858608Y-72786945D01*
X91880807Y-72793679D01*
X91890695Y-72794653D01*
X91955147Y-72801001D01*
X91955154Y-72801001D01*
X91980000Y-72803448D01*
X92004846Y-72801001D01*
X92463102Y-72801001D01*
X92388820Y-72875283D01*
X92254102Y-73076903D01*
X92161307Y-73300931D01*
X92114000Y-73538757D01*
X92114000Y-73781243D01*
X92161307Y-74019069D01*
X92254102Y-74243097D01*
X92374977Y-74424000D01*
X92284592Y-74424000D01*
X91956758Y-74096167D01*
X91988693Y-74019069D01*
X92036000Y-73781243D01*
X92036000Y-73538757D01*
X91988693Y-73300931D01*
X91895898Y-73076903D01*
X91761180Y-72875283D01*
X91589717Y-72703820D01*
X91388097Y-72569102D01*
X91164069Y-72476307D01*
X90926243Y-72429000D01*
X90683757Y-72429000D01*
X90445931Y-72476307D01*
X90221903Y-72569102D01*
X90020283Y-72703820D01*
X89848820Y-72875283D01*
X89714102Y-73076903D01*
X89621307Y-73300931D01*
X89574000Y-73538757D01*
X89574000Y-73781243D01*
X89621307Y-74019069D01*
X89714102Y-74243097D01*
X89848820Y-74444717D01*
X90020283Y-74616180D01*
X90221903Y-74750898D01*
X90445931Y-74843693D01*
X90683757Y-74891000D01*
X90926243Y-74891000D01*
X91164069Y-74843693D01*
X91241167Y-74811758D01*
X91699628Y-75270220D01*
X91715473Y-75289527D01*
X91792521Y-75352759D01*
X91880425Y-75399745D01*
X91975806Y-75428678D01*
X91985694Y-75429652D01*
X92050146Y-75436000D01*
X92050153Y-75436000D01*
X92074999Y-75438447D01*
X92099845Y-75436000D01*
X92374977Y-75436000D01*
X92254102Y-75616903D01*
X92161307Y-75840931D01*
X92114000Y-76078757D01*
X92114000Y-76321243D01*
X92161307Y-76559069D01*
X92254102Y-76783097D01*
X92358006Y-76938600D01*
X92259192Y-76938600D01*
X91956758Y-76636167D01*
X91988693Y-76559069D01*
X92036000Y-76321243D01*
X92036000Y-76078757D01*
X91988693Y-75840931D01*
X91895898Y-75616903D01*
X91761180Y-75415283D01*
X91589717Y-75243820D01*
X91388097Y-75109102D01*
X91164069Y-75016307D01*
X90926243Y-74969000D01*
X90683757Y-74969000D01*
X90445931Y-75016307D01*
X90221903Y-75109102D01*
X90020283Y-75243820D01*
X89848820Y-75415283D01*
X89714102Y-75616903D01*
X89621307Y-75840931D01*
X89574000Y-76078757D01*
X89574000Y-76321243D01*
X89621307Y-76559069D01*
X89714102Y-76783097D01*
X89848820Y-76984717D01*
X90020283Y-77156180D01*
X90221903Y-77290898D01*
X90445931Y-77383693D01*
X90683757Y-77431000D01*
X90926243Y-77431000D01*
X91164069Y-77383693D01*
X91241167Y-77351758D01*
X91674228Y-77784820D01*
X91690073Y-77804127D01*
X91767121Y-77867359D01*
X91855025Y-77914345D01*
X91950406Y-77943278D01*
X91960294Y-77944252D01*
X92024746Y-77950600D01*
X92024753Y-77950600D01*
X92049599Y-77953047D01*
X92074445Y-77950600D01*
X92393503Y-77950600D01*
X92388820Y-77955283D01*
X92254102Y-78156903D01*
X92161307Y-78380931D01*
X92114000Y-78618757D01*
X92114000Y-78861243D01*
X92161307Y-79099069D01*
X92254102Y-79323097D01*
X92358006Y-79478600D01*
X92259192Y-79478600D01*
X91956758Y-79176167D01*
X91988693Y-79099069D01*
X92036000Y-78861243D01*
X92036000Y-78618757D01*
X91988693Y-78380931D01*
X91895898Y-78156903D01*
X91761180Y-77955283D01*
X91589717Y-77783820D01*
X91388097Y-77649102D01*
X91164069Y-77556307D01*
X90926243Y-77509000D01*
X90683757Y-77509000D01*
X90445931Y-77556307D01*
X90221903Y-77649102D01*
X90020283Y-77783820D01*
X89848820Y-77955283D01*
X89714102Y-78156903D01*
X89621307Y-78380931D01*
X89574000Y-78618757D01*
X89574000Y-78861243D01*
X89621307Y-79099069D01*
X89714102Y-79323097D01*
X89848820Y-79524717D01*
X90020283Y-79696180D01*
X90221903Y-79830898D01*
X90445931Y-79923693D01*
X90683757Y-79971000D01*
X90926243Y-79971000D01*
X91164069Y-79923693D01*
X91241167Y-79891758D01*
X91674228Y-80324820D01*
X91690073Y-80344127D01*
X91767121Y-80407359D01*
X91855025Y-80454345D01*
X91950406Y-80483278D01*
X91960294Y-80484252D01*
X92024746Y-80490600D01*
X92024753Y-80490600D01*
X92049599Y-80493047D01*
X92074445Y-80490600D01*
X92393503Y-80490600D01*
X92388820Y-80495283D01*
X92254102Y-80696903D01*
X92161307Y-80920931D01*
X92114000Y-81158757D01*
X92114000Y-81401243D01*
X92161307Y-81639069D01*
X92254102Y-81863097D01*
X92374977Y-82044000D01*
X92284592Y-82044000D01*
X91956758Y-81716167D01*
X91988693Y-81639069D01*
X92036000Y-81401243D01*
X92036000Y-81158757D01*
X91988693Y-80920931D01*
X91895898Y-80696903D01*
X91761180Y-80495283D01*
X91589717Y-80323820D01*
X91388097Y-80189102D01*
X91164069Y-80096307D01*
X90926243Y-80049000D01*
X90683757Y-80049000D01*
X90445931Y-80096307D01*
X90221903Y-80189102D01*
X90020283Y-80323820D01*
X89848820Y-80495283D01*
X89714102Y-80696903D01*
X89621307Y-80920931D01*
X89574000Y-81158757D01*
X89574000Y-81401243D01*
X89621307Y-81639069D01*
X89714102Y-81863097D01*
X89848820Y-82064717D01*
X90020283Y-82236180D01*
X90221903Y-82370898D01*
X90445931Y-82463693D01*
X90683757Y-82511000D01*
X90926243Y-82511000D01*
X91164069Y-82463693D01*
X91241167Y-82431758D01*
X91699628Y-82890220D01*
X91715473Y-82909527D01*
X91792521Y-82972759D01*
X91880425Y-83019745D01*
X91975806Y-83048678D01*
X91985694Y-83049652D01*
X92050146Y-83056000D01*
X92050153Y-83056000D01*
X92074999Y-83058447D01*
X92099845Y-83056000D01*
X92374977Y-83056000D01*
X92254102Y-83236903D01*
X92161307Y-83460931D01*
X92114000Y-83698757D01*
X92114000Y-83941243D01*
X92161307Y-84179069D01*
X92254102Y-84403097D01*
X92358006Y-84558600D01*
X92259192Y-84558600D01*
X91956758Y-84256167D01*
X91988693Y-84179069D01*
X92036000Y-83941243D01*
X92036000Y-83698757D01*
X91988693Y-83460931D01*
X91895898Y-83236903D01*
X91761180Y-83035283D01*
X91589717Y-82863820D01*
X91388097Y-82729102D01*
X91164069Y-82636307D01*
X90926243Y-82589000D01*
X90683757Y-82589000D01*
X90445931Y-82636307D01*
X90221903Y-82729102D01*
X90020283Y-82863820D01*
X89848820Y-83035283D01*
X89714102Y-83236903D01*
X89621307Y-83460931D01*
X89574000Y-83698757D01*
X89574000Y-83941243D01*
X89621307Y-84179069D01*
X89714102Y-84403097D01*
X89848820Y-84604717D01*
X90020283Y-84776180D01*
X90221903Y-84910898D01*
X90445931Y-85003693D01*
X90683757Y-85051000D01*
X90926243Y-85051000D01*
X91164069Y-85003693D01*
X91241167Y-84971758D01*
X91674228Y-85404820D01*
X91690073Y-85424127D01*
X91767121Y-85487359D01*
X91855025Y-85534345D01*
X91950406Y-85563278D01*
X91960294Y-85564252D01*
X92024746Y-85570600D01*
X92024753Y-85570600D01*
X92049599Y-85573047D01*
X92074445Y-85570600D01*
X92393503Y-85570600D01*
X92388820Y-85575283D01*
X92254102Y-85776903D01*
X92161307Y-86000931D01*
X92114000Y-86238757D01*
X92114000Y-86481243D01*
X92161307Y-86719069D01*
X92254102Y-86943097D01*
X92374977Y-87124000D01*
X92284592Y-87124000D01*
X91956758Y-86796167D01*
X91988693Y-86719069D01*
X92036000Y-86481243D01*
X92036000Y-86238757D01*
X91988693Y-86000931D01*
X91895898Y-85776903D01*
X91761180Y-85575283D01*
X91589717Y-85403820D01*
X91388097Y-85269102D01*
X91164069Y-85176307D01*
X90926243Y-85129000D01*
X90683757Y-85129000D01*
X90445931Y-85176307D01*
X90221903Y-85269102D01*
X90020283Y-85403820D01*
X89848820Y-85575283D01*
X89714102Y-85776903D01*
X89621307Y-86000931D01*
X89574000Y-86238757D01*
X89574000Y-86481243D01*
X89621307Y-86719069D01*
X89714102Y-86943097D01*
X89848820Y-87144717D01*
X90020283Y-87316180D01*
X90221903Y-87450898D01*
X90445931Y-87543693D01*
X90683757Y-87591000D01*
X90926243Y-87591000D01*
X91164069Y-87543693D01*
X91241167Y-87511758D01*
X91699628Y-87970220D01*
X91715473Y-87989527D01*
X91792521Y-88052759D01*
X91880425Y-88099745D01*
X91975806Y-88128678D01*
X91985694Y-88129652D01*
X92050146Y-88136000D01*
X92050153Y-88136000D01*
X92074999Y-88138447D01*
X92099845Y-88136000D01*
X92374977Y-88136000D01*
X92254102Y-88316903D01*
X92161307Y-88540931D01*
X92114000Y-88778757D01*
X92114000Y-89021243D01*
X92161307Y-89259069D01*
X92254102Y-89483097D01*
X92374977Y-89664000D01*
X92284592Y-89664000D01*
X91956758Y-89336167D01*
X91988693Y-89259069D01*
X92036000Y-89021243D01*
X92036000Y-88778757D01*
X91988693Y-88540931D01*
X91895898Y-88316903D01*
X91761180Y-88115283D01*
X91589717Y-87943820D01*
X91388097Y-87809102D01*
X91164069Y-87716307D01*
X90926243Y-87669000D01*
X90683757Y-87669000D01*
X90445931Y-87716307D01*
X90221903Y-87809102D01*
X90020283Y-87943820D01*
X89848820Y-88115283D01*
X89714102Y-88316903D01*
X89621307Y-88540931D01*
X89574000Y-88778757D01*
X89574000Y-89021243D01*
X89621307Y-89259069D01*
X89714102Y-89483097D01*
X89848820Y-89684717D01*
X90020283Y-89856180D01*
X90221903Y-89990898D01*
X90445931Y-90083693D01*
X90683757Y-90131000D01*
X90926243Y-90131000D01*
X91164069Y-90083693D01*
X91241167Y-90051758D01*
X91699628Y-90510220D01*
X91715473Y-90529527D01*
X91792521Y-90592759D01*
X91880425Y-90639745D01*
X91975806Y-90668678D01*
X91985694Y-90669652D01*
X92050146Y-90676000D01*
X92050153Y-90676000D01*
X92074999Y-90678447D01*
X92099845Y-90676000D01*
X92374977Y-90676000D01*
X92254102Y-90856903D01*
X92161307Y-91080931D01*
X92114000Y-91318757D01*
X92114000Y-91561243D01*
X92161307Y-91799069D01*
X92254102Y-92023097D01*
X92358006Y-92178600D01*
X92259192Y-92178600D01*
X91956758Y-91876167D01*
X91988693Y-91799069D01*
X92036000Y-91561243D01*
X92036000Y-91318757D01*
X91988693Y-91080931D01*
X91895898Y-90856903D01*
X91761180Y-90655283D01*
X91589717Y-90483820D01*
X91388097Y-90349102D01*
X91164069Y-90256307D01*
X90926243Y-90209000D01*
X90683757Y-90209000D01*
X90445931Y-90256307D01*
X90221903Y-90349102D01*
X90020283Y-90483820D01*
X89848820Y-90655283D01*
X89714102Y-90856903D01*
X89621307Y-91080931D01*
X89574000Y-91318757D01*
X89574000Y-91561243D01*
X89621307Y-91799069D01*
X89714102Y-92023097D01*
X89848820Y-92224717D01*
X90020283Y-92396180D01*
X90221903Y-92530898D01*
X90445931Y-92623693D01*
X90683757Y-92671000D01*
X90926243Y-92671000D01*
X91164069Y-92623693D01*
X91241167Y-92591758D01*
X91674228Y-93024820D01*
X91690073Y-93044127D01*
X91767121Y-93107359D01*
X91855025Y-93154345D01*
X91950406Y-93183278D01*
X91960294Y-93184252D01*
X92024746Y-93190600D01*
X92024753Y-93190600D01*
X92049599Y-93193047D01*
X92074445Y-93190600D01*
X92393503Y-93190600D01*
X92388820Y-93195283D01*
X92254102Y-93396903D01*
X92161307Y-93620931D01*
X92114000Y-93858757D01*
X92114000Y-94101243D01*
X92161307Y-94339069D01*
X92254102Y-94563097D01*
X92358006Y-94718600D01*
X92259192Y-94718600D01*
X91956758Y-94416167D01*
X91988693Y-94339069D01*
X92036000Y-94101243D01*
X92036000Y-93858757D01*
X91988693Y-93620931D01*
X91895898Y-93396903D01*
X91761180Y-93195283D01*
X91589717Y-93023820D01*
X91388097Y-92889102D01*
X91164069Y-92796307D01*
X90926243Y-92749000D01*
X90683757Y-92749000D01*
X90445931Y-92796307D01*
X90221903Y-92889102D01*
X90020283Y-93023820D01*
X89848820Y-93195283D01*
X89714102Y-93396903D01*
X89621307Y-93620931D01*
X89574000Y-93858757D01*
X89574000Y-94101243D01*
X89621307Y-94339069D01*
X89714102Y-94563097D01*
X89848820Y-94764717D01*
X90020283Y-94936180D01*
X90221903Y-95070898D01*
X90445931Y-95163693D01*
X90683757Y-95211000D01*
X90926243Y-95211000D01*
X91164069Y-95163693D01*
X91241167Y-95131758D01*
X91674228Y-95564820D01*
X91690073Y-95584127D01*
X91767121Y-95647359D01*
X91855025Y-95694345D01*
X91950406Y-95723278D01*
X91960294Y-95724252D01*
X92024746Y-95730600D01*
X92024753Y-95730600D01*
X92049599Y-95733047D01*
X92074445Y-95730600D01*
X95885554Y-95730600D01*
X95910400Y-95733047D01*
X95935246Y-95730600D01*
X95935254Y-95730600D01*
X96009593Y-95723278D01*
X96104975Y-95694345D01*
X96192879Y-95647359D01*
X96269927Y-95584127D01*
X96285776Y-95564815D01*
X96718833Y-95131758D01*
X96795931Y-95163693D01*
X97033757Y-95211000D01*
X97276243Y-95211000D01*
X97514069Y-95163693D01*
X97738097Y-95070898D01*
X97939717Y-94936180D01*
X98111180Y-94764717D01*
X98245898Y-94563097D01*
X98338693Y-94339069D01*
X98386000Y-94101243D01*
X98386000Y-93858757D01*
X98338693Y-93620931D01*
X98306758Y-93543833D01*
X98729591Y-93121001D01*
X98813102Y-93121001D01*
X98738820Y-93195283D01*
X98604102Y-93396903D01*
X98511307Y-93620931D01*
X98464000Y-93858757D01*
X98464000Y-94101243D01*
X98511307Y-94339069D01*
X98604102Y-94563097D01*
X98738820Y-94764717D01*
X98910283Y-94936180D01*
X99111903Y-95070898D01*
X99335931Y-95163693D01*
X99573757Y-95211000D01*
X99816243Y-95211000D01*
X100054069Y-95163693D01*
X100278097Y-95070898D01*
X100479717Y-94936180D01*
X100651180Y-94764717D01*
X100785898Y-94563097D01*
X100878693Y-94339069D01*
X100926000Y-94101243D01*
X100926000Y-93858757D01*
X100878693Y-93620931D01*
X100785898Y-93396903D01*
X100651180Y-93195283D01*
X100576898Y-93121001D01*
X102305153Y-93121001D01*
X102329999Y-93123448D01*
X102354845Y-93121001D01*
X102354853Y-93121001D01*
X102429192Y-93113679D01*
X102524574Y-93084746D01*
X102612478Y-93037760D01*
X102689526Y-92974528D01*
X102705375Y-92955216D01*
X105608833Y-90051758D01*
X105685931Y-90083693D01*
X105923757Y-90131000D01*
X106166243Y-90131000D01*
X106404069Y-90083693D01*
X106628097Y-89990898D01*
X106829717Y-89856180D01*
X107001180Y-89684717D01*
X107135898Y-89483097D01*
X107228693Y-89259069D01*
X107276000Y-89021243D01*
X107276000Y-88778757D01*
X107228693Y-88540931D01*
X107135898Y-88316903D01*
X107001180Y-88115283D01*
X106829717Y-87943820D01*
X106628097Y-87809102D01*
X106404069Y-87716307D01*
X106166243Y-87669000D01*
X105923757Y-87669000D01*
X105685931Y-87716307D01*
X105461903Y-87809102D01*
X105260283Y-87943820D01*
X105088820Y-88115283D01*
X104954102Y-88316903D01*
X104861307Y-88540931D01*
X104814000Y-88778757D01*
X104814000Y-89021243D01*
X104861307Y-89259069D01*
X104893242Y-89336167D01*
X102120408Y-92109001D01*
X100728499Y-92109001D01*
X100785898Y-92023097D01*
X100878693Y-91799069D01*
X100926000Y-91561243D01*
X100926000Y-91318757D01*
X100878693Y-91080931D01*
X100785898Y-90856903D01*
X100651180Y-90655283D01*
X100522745Y-90526848D01*
X102274785Y-88774808D01*
X102274000Y-88778757D01*
X102274000Y-89021243D01*
X102321307Y-89259069D01*
X102414102Y-89483097D01*
X102548820Y-89684717D01*
X102720283Y-89856180D01*
X102921903Y-89990898D01*
X103145931Y-90083693D01*
X103383757Y-90131000D01*
X103626243Y-90131000D01*
X103864069Y-90083693D01*
X104088097Y-89990898D01*
X104289717Y-89856180D01*
X104461180Y-89684717D01*
X104595898Y-89483097D01*
X104688693Y-89259069D01*
X104736000Y-89021243D01*
X104736000Y-88778757D01*
X104688693Y-88540931D01*
X104595898Y-88316903D01*
X104461180Y-88115283D01*
X104386898Y-88041001D01*
X104845153Y-88041001D01*
X104869999Y-88043448D01*
X104894845Y-88041001D01*
X104894853Y-88041001D01*
X104969192Y-88033679D01*
X105064574Y-88004746D01*
X105152478Y-87957760D01*
X105229526Y-87894528D01*
X105245375Y-87875216D01*
X105608833Y-87511758D01*
X105685931Y-87543693D01*
X105923757Y-87591000D01*
X106166243Y-87591000D01*
X106404069Y-87543693D01*
X106628097Y-87450898D01*
X106829717Y-87316180D01*
X107001180Y-87144717D01*
X107135898Y-86943097D01*
X107228693Y-86719069D01*
X107276000Y-86481243D01*
X107276000Y-86238757D01*
X107228693Y-86000931D01*
X107135898Y-85776903D01*
X107001180Y-85575283D01*
X106829717Y-85403820D01*
X106628097Y-85269102D01*
X106404069Y-85176307D01*
X106166243Y-85129000D01*
X105923757Y-85129000D01*
X105685931Y-85176307D01*
X105461903Y-85269102D01*
X105260283Y-85403820D01*
X105088820Y-85575283D01*
X104954102Y-85776903D01*
X104861307Y-86000931D01*
X104814000Y-86238757D01*
X104814000Y-86481243D01*
X104861307Y-86719069D01*
X104893242Y-86796167D01*
X104660408Y-87029001D01*
X104538499Y-87029001D01*
X104595898Y-86943097D01*
X104688693Y-86719069D01*
X104736000Y-86481243D01*
X104736000Y-86238757D01*
X104688693Y-86000931D01*
X104595898Y-85776903D01*
X104461180Y-85575283D01*
X104386898Y-85501001D01*
X104845153Y-85501001D01*
X104869999Y-85503448D01*
X104894845Y-85501001D01*
X104894853Y-85501001D01*
X104969192Y-85493679D01*
X105064574Y-85464746D01*
X105152478Y-85417760D01*
X105229526Y-85354528D01*
X105245375Y-85335216D01*
X105608833Y-84971758D01*
X105685931Y-85003693D01*
X105923757Y-85051000D01*
X106166243Y-85051000D01*
X106404069Y-85003693D01*
X106628097Y-84910898D01*
X106829717Y-84776180D01*
X107001180Y-84604717D01*
X107135898Y-84403097D01*
X107228693Y-84179069D01*
X107276000Y-83941243D01*
X107276000Y-83698757D01*
X107228693Y-83460931D01*
X107135898Y-83236903D01*
X107001180Y-83035283D01*
X106829717Y-82863820D01*
X106628097Y-82729102D01*
X106404069Y-82636307D01*
X106166243Y-82589000D01*
X105923757Y-82589000D01*
X105685931Y-82636307D01*
X105461903Y-82729102D01*
X105260283Y-82863820D01*
X105088820Y-83035283D01*
X104954102Y-83236903D01*
X104861307Y-83460931D01*
X104814000Y-83698757D01*
X104814000Y-83941243D01*
X104861307Y-84179069D01*
X104893242Y-84256167D01*
X104660408Y-84489001D01*
X104538499Y-84489001D01*
X104595898Y-84403097D01*
X104688693Y-84179069D01*
X104736000Y-83941243D01*
X104736000Y-83698757D01*
X104688693Y-83460931D01*
X104595898Y-83236903D01*
X104461180Y-83035283D01*
X104386898Y-82961001D01*
X104845153Y-82961001D01*
X104869999Y-82963448D01*
X104894845Y-82961001D01*
X104894853Y-82961001D01*
X104969192Y-82953679D01*
X105064574Y-82924746D01*
X105152478Y-82877760D01*
X105229526Y-82814528D01*
X105245375Y-82795216D01*
X105608833Y-82431758D01*
X105685931Y-82463693D01*
X105923757Y-82511000D01*
X106166243Y-82511000D01*
X106404069Y-82463693D01*
X106628097Y-82370898D01*
X106829717Y-82236180D01*
X107001180Y-82064717D01*
X107135898Y-81863097D01*
X107228693Y-81639069D01*
X107276000Y-81401243D01*
X107276000Y-81158757D01*
X107228693Y-80920931D01*
X107135898Y-80696903D01*
X107001180Y-80495283D01*
X106829717Y-80323820D01*
X106628097Y-80189102D01*
X106404069Y-80096307D01*
X106166243Y-80049000D01*
X105923757Y-80049000D01*
X105685931Y-80096307D01*
X105461903Y-80189102D01*
X105260283Y-80323820D01*
X105088820Y-80495283D01*
X104954102Y-80696903D01*
X104861307Y-80920931D01*
X104814000Y-81158757D01*
X104814000Y-81401243D01*
X104861307Y-81639069D01*
X104893242Y-81716167D01*
X104660408Y-81949001D01*
X104538499Y-81949001D01*
X104595898Y-81863097D01*
X104688693Y-81639069D01*
X104736000Y-81401243D01*
X104736000Y-81158757D01*
X104688693Y-80920931D01*
X104595898Y-80696903D01*
X104461180Y-80495283D01*
X104386898Y-80421001D01*
X104845153Y-80421001D01*
X104869999Y-80423448D01*
X104894845Y-80421001D01*
X104894853Y-80421001D01*
X104969192Y-80413679D01*
X105064574Y-80384746D01*
X105152478Y-80337760D01*
X105229526Y-80274528D01*
X105245375Y-80255216D01*
X105608833Y-79891758D01*
X105685931Y-79923693D01*
X105923757Y-79971000D01*
X106166243Y-79971000D01*
X106404069Y-79923693D01*
X106628097Y-79830898D01*
X106829717Y-79696180D01*
X107001180Y-79524717D01*
X107135898Y-79323097D01*
X107228693Y-79099069D01*
X107276000Y-78861243D01*
X107276000Y-78618757D01*
X107228693Y-78380931D01*
X107135898Y-78156903D01*
X107001180Y-77955283D01*
X106829717Y-77783820D01*
X106628097Y-77649102D01*
X106404069Y-77556307D01*
X106166243Y-77509000D01*
X105923757Y-77509000D01*
X105685931Y-77556307D01*
X105461903Y-77649102D01*
X105260283Y-77783820D01*
X105088820Y-77955283D01*
X104954102Y-78156903D01*
X104861307Y-78380931D01*
X104814000Y-78618757D01*
X104814000Y-78861243D01*
X104861307Y-79099069D01*
X104893242Y-79176167D01*
X104660408Y-79409001D01*
X104538499Y-79409001D01*
X104595898Y-79323097D01*
X104688693Y-79099069D01*
X104736000Y-78861243D01*
X104736000Y-78618757D01*
X104688693Y-78380931D01*
X104595898Y-78156903D01*
X104461180Y-77955283D01*
X104386898Y-77881001D01*
X104845153Y-77881001D01*
X104869999Y-77883448D01*
X104894845Y-77881001D01*
X104894853Y-77881001D01*
X104969192Y-77873679D01*
X105064574Y-77844746D01*
X105152478Y-77797760D01*
X105229526Y-77734528D01*
X105245375Y-77715216D01*
X105608833Y-77351758D01*
X105685931Y-77383693D01*
X105923757Y-77431000D01*
X106166243Y-77431000D01*
X106404069Y-77383693D01*
X106628097Y-77290898D01*
X106829717Y-77156180D01*
X107001180Y-76984717D01*
X107135898Y-76783097D01*
X107228693Y-76559069D01*
X107276000Y-76321243D01*
X107276000Y-76078757D01*
X107228693Y-75840931D01*
X107135898Y-75616903D01*
X107001180Y-75415283D01*
X106829717Y-75243820D01*
X106628097Y-75109102D01*
X106404069Y-75016307D01*
X106166243Y-74969000D01*
X105923757Y-74969000D01*
X105685931Y-75016307D01*
X105461903Y-75109102D01*
X105260283Y-75243820D01*
X105088820Y-75415283D01*
X104954102Y-75616903D01*
X104861307Y-75840931D01*
X104814000Y-76078757D01*
X104814000Y-76321243D01*
X104861307Y-76559069D01*
X104893242Y-76636167D01*
X104660408Y-76869001D01*
X104538499Y-76869001D01*
X104595898Y-76783097D01*
X104688693Y-76559069D01*
X104736000Y-76321243D01*
X104736000Y-76078757D01*
X104688693Y-75840931D01*
X104595898Y-75616903D01*
X104461180Y-75415283D01*
X104386898Y-75341001D01*
X104845153Y-75341001D01*
X104869999Y-75343448D01*
X104894845Y-75341001D01*
X104894853Y-75341001D01*
X104969192Y-75333679D01*
X105064574Y-75304746D01*
X105152478Y-75257760D01*
X105229526Y-75194528D01*
X105245375Y-75175216D01*
X105608833Y-74811758D01*
X105685931Y-74843693D01*
X105923757Y-74891000D01*
X106166243Y-74891000D01*
X106404069Y-74843693D01*
X106628097Y-74750898D01*
X106829717Y-74616180D01*
X107001180Y-74444717D01*
X107135898Y-74243097D01*
X107228693Y-74019069D01*
X107276000Y-73781243D01*
X107276000Y-73538757D01*
X107228693Y-73300931D01*
X107135898Y-73076903D01*
X107001180Y-72875283D01*
X106829717Y-72703820D01*
X106628097Y-72569102D01*
X106404069Y-72476307D01*
X106166243Y-72429000D01*
X105923757Y-72429000D01*
X105685931Y-72476307D01*
X105461903Y-72569102D01*
X105260283Y-72703820D01*
X105088820Y-72875283D01*
X104954102Y-73076903D01*
X104861307Y-73300931D01*
X104814000Y-73538757D01*
X104814000Y-73781243D01*
X104861307Y-74019069D01*
X104893242Y-74096167D01*
X104660408Y-74329001D01*
X104538499Y-74329001D01*
X104595898Y-74243097D01*
X104688693Y-74019069D01*
X104736000Y-73781243D01*
X104736000Y-73538757D01*
X104688693Y-73300931D01*
X104595898Y-73076903D01*
X104461180Y-72875283D01*
X104386898Y-72801001D01*
X104845153Y-72801001D01*
X104869999Y-72803448D01*
X104894845Y-72801001D01*
X104894853Y-72801001D01*
X104969192Y-72793679D01*
X105064574Y-72764746D01*
X105152478Y-72717760D01*
X105229526Y-72654528D01*
X105245375Y-72635216D01*
X105608833Y-72271758D01*
X105685931Y-72303693D01*
X105923757Y-72351000D01*
X106166243Y-72351000D01*
X106404069Y-72303693D01*
X106628097Y-72210898D01*
X106829717Y-72076180D01*
X107001180Y-71904717D01*
X107135898Y-71703097D01*
X107228693Y-71479069D01*
X107276000Y-71241243D01*
X107276000Y-70998757D01*
X107228693Y-70760931D01*
X107135898Y-70536903D01*
X107001180Y-70335283D01*
X106829717Y-70163820D01*
X106628097Y-70029102D01*
X106404069Y-69936307D01*
X106166243Y-69889000D01*
X105923757Y-69889000D01*
X105685931Y-69936307D01*
X105461903Y-70029102D01*
X105260283Y-70163820D01*
X105088820Y-70335283D01*
X104954102Y-70536903D01*
X104861307Y-70760931D01*
X104814000Y-70998757D01*
X104814000Y-71241243D01*
X104861307Y-71479069D01*
X104893242Y-71556167D01*
X104660408Y-71789001D01*
X104538499Y-71789001D01*
X104595898Y-71703097D01*
X104688693Y-71479069D01*
X104736000Y-71241243D01*
X104736000Y-70998757D01*
X104688693Y-70760931D01*
X104595898Y-70536903D01*
X104461180Y-70335283D01*
X104386898Y-70261001D01*
X104845153Y-70261001D01*
X104869999Y-70263448D01*
X104894845Y-70261001D01*
X104894853Y-70261001D01*
X104969192Y-70253679D01*
X105064574Y-70224746D01*
X105152478Y-70177760D01*
X105229526Y-70114528D01*
X105245375Y-70095216D01*
X105608833Y-69731758D01*
X105685931Y-69763693D01*
X105923757Y-69811000D01*
X106166243Y-69811000D01*
X106404069Y-69763693D01*
X106628097Y-69670898D01*
X106829717Y-69536180D01*
X107001180Y-69364717D01*
X107135898Y-69163097D01*
X107228693Y-68939069D01*
X107276000Y-68701243D01*
X107276000Y-68458757D01*
X107228693Y-68220931D01*
X107135898Y-67996903D01*
X107001180Y-67795283D01*
X106829717Y-67623820D01*
X106628097Y-67489102D01*
X106404069Y-67396307D01*
X106166243Y-67349000D01*
X105923757Y-67349000D01*
X105685931Y-67396307D01*
X105461903Y-67489102D01*
X105260283Y-67623820D01*
X105088820Y-67795283D01*
X104954102Y-67996903D01*
X104861307Y-68220931D01*
X104814000Y-68458757D01*
X104814000Y-68701243D01*
X104861307Y-68939069D01*
X104893242Y-69016167D01*
X104660408Y-69249001D01*
X104538499Y-69249001D01*
X104595898Y-69163097D01*
X104688693Y-68939069D01*
X104736000Y-68701243D01*
X104736000Y-68458757D01*
X104688693Y-68220931D01*
X104595898Y-67996903D01*
X104461180Y-67795283D01*
X104386898Y-67721001D01*
X104845153Y-67721001D01*
X104869999Y-67723448D01*
X104894845Y-67721001D01*
X104894853Y-67721001D01*
X104969192Y-67713679D01*
X105064574Y-67684746D01*
X105152478Y-67637760D01*
X105229526Y-67574528D01*
X105245375Y-67555216D01*
X105608833Y-67191758D01*
X105685931Y-67223693D01*
X105923757Y-67271000D01*
X106166243Y-67271000D01*
X106404069Y-67223693D01*
X106628097Y-67130898D01*
X106829717Y-66996180D01*
X107001180Y-66824717D01*
X107135898Y-66623097D01*
X107228693Y-66399069D01*
X107276000Y-66161243D01*
X107276000Y-65918757D01*
X107228693Y-65680931D01*
X107135898Y-65456903D01*
X107001180Y-65255283D01*
X106829717Y-65083820D01*
X106628097Y-64949102D01*
X106404069Y-64856307D01*
X106166243Y-64809000D01*
X105923757Y-64809000D01*
X105685931Y-64856307D01*
X105461903Y-64949102D01*
X105260283Y-65083820D01*
X105088820Y-65255283D01*
X104954102Y-65456903D01*
X104861307Y-65680931D01*
X104814000Y-65918757D01*
X104814000Y-66161243D01*
X104861307Y-66399069D01*
X104893242Y-66476167D01*
X104660408Y-66709001D01*
X104538499Y-66709001D01*
X104595898Y-66623097D01*
X104688693Y-66399069D01*
X104736000Y-66161243D01*
X104736000Y-65918757D01*
X104688693Y-65680931D01*
X104595898Y-65456903D01*
X104461180Y-65255283D01*
X104386898Y-65181001D01*
X104845153Y-65181001D01*
X104869999Y-65183448D01*
X104894845Y-65181001D01*
X104894853Y-65181001D01*
X104969192Y-65173679D01*
X105064574Y-65144746D01*
X105152478Y-65097760D01*
X105229526Y-65034528D01*
X105245375Y-65015216D01*
X105608833Y-64651758D01*
X105685931Y-64683693D01*
X105923757Y-64731000D01*
X106166243Y-64731000D01*
X106404069Y-64683693D01*
X106628097Y-64590898D01*
X106829717Y-64456180D01*
X107001180Y-64284717D01*
X107135898Y-64083097D01*
X107228693Y-63859069D01*
X107276000Y-63621243D01*
X107276000Y-63378757D01*
X107228693Y-63140931D01*
X107135898Y-62916903D01*
X107001180Y-62715283D01*
X106829717Y-62543820D01*
X106628097Y-62409102D01*
X106404069Y-62316307D01*
X106166243Y-62269000D01*
X105923757Y-62269000D01*
X105685931Y-62316307D01*
X105461903Y-62409102D01*
X105260283Y-62543820D01*
X105088820Y-62715283D01*
X104954102Y-62916903D01*
X104861307Y-63140931D01*
X104814000Y-63378757D01*
X104814000Y-63621243D01*
X104861307Y-63859069D01*
X104893242Y-63936167D01*
X104660408Y-64169001D01*
X104538499Y-64169001D01*
X104595898Y-64083097D01*
X104688693Y-63859069D01*
X104736000Y-63621243D01*
X104736000Y-63378757D01*
X104688693Y-63140931D01*
X104595898Y-62916903D01*
X104461180Y-62715283D01*
X104386898Y-62641001D01*
X104845153Y-62641001D01*
X104869999Y-62643448D01*
X104894845Y-62641001D01*
X104894853Y-62641001D01*
X104969192Y-62633679D01*
X105064574Y-62604746D01*
X105152478Y-62557760D01*
X105229526Y-62494528D01*
X105245375Y-62475216D01*
X105608833Y-62111758D01*
X105685931Y-62143693D01*
X105923757Y-62191000D01*
X106166243Y-62191000D01*
X106404069Y-62143693D01*
X106628097Y-62050898D01*
X106829717Y-61916180D01*
X107001180Y-61744717D01*
X107135898Y-61543097D01*
X107228693Y-61319069D01*
X107276000Y-61081243D01*
X107276000Y-60838757D01*
X107228693Y-60600931D01*
X107135898Y-60376903D01*
X107001180Y-60175283D01*
X106829717Y-60003820D01*
X106628097Y-59869102D01*
X106404069Y-59776307D01*
X106166243Y-59729000D01*
X105923757Y-59729000D01*
X105685931Y-59776307D01*
X105461903Y-59869102D01*
X105260283Y-60003820D01*
X105088820Y-60175283D01*
X104954102Y-60376903D01*
X104861307Y-60600931D01*
X104814000Y-60838757D01*
X104814000Y-61081243D01*
X104861307Y-61319069D01*
X104893242Y-61396167D01*
X104660408Y-61629001D01*
X104538499Y-61629001D01*
X104595898Y-61543097D01*
X104688693Y-61319069D01*
X104736000Y-61081243D01*
X104736000Y-60838757D01*
X104688693Y-60600931D01*
X104595898Y-60376903D01*
X104461180Y-60175283D01*
X104386898Y-60101001D01*
X104845153Y-60101001D01*
X104869999Y-60103448D01*
X104894845Y-60101001D01*
X104894853Y-60101001D01*
X104969192Y-60093679D01*
X105064574Y-60064746D01*
X105152478Y-60017760D01*
X105229526Y-59954528D01*
X105245375Y-59935216D01*
X105608833Y-59571758D01*
X105685931Y-59603693D01*
X105923757Y-59651000D01*
X106166243Y-59651000D01*
X106404069Y-59603693D01*
X106628097Y-59510898D01*
X106829717Y-59376180D01*
X107001180Y-59204717D01*
X107135898Y-59003097D01*
X107228693Y-58779069D01*
X107276000Y-58541243D01*
X107276000Y-58298757D01*
X107228693Y-58060931D01*
X107135898Y-57836903D01*
X107001180Y-57635283D01*
X106829717Y-57463820D01*
X106628097Y-57329102D01*
X106404069Y-57236307D01*
X106166243Y-57189000D01*
X105923757Y-57189000D01*
X105685931Y-57236307D01*
X105461903Y-57329102D01*
X105260283Y-57463820D01*
X105088820Y-57635283D01*
X104954102Y-57836903D01*
X104861307Y-58060931D01*
X104814000Y-58298757D01*
X104814000Y-58541243D01*
X104861307Y-58779069D01*
X104893242Y-58856167D01*
X104660408Y-59089001D01*
X104538499Y-59089001D01*
X104595898Y-59003097D01*
X104688693Y-58779069D01*
X104736000Y-58541243D01*
X104736000Y-58298757D01*
X104688693Y-58060931D01*
X104595898Y-57836903D01*
X104461180Y-57635283D01*
X104386898Y-57561001D01*
X104845153Y-57561001D01*
X104869999Y-57563448D01*
X104894845Y-57561001D01*
X104894853Y-57561001D01*
X104969192Y-57553679D01*
X105064574Y-57524746D01*
X105152478Y-57477760D01*
X105229526Y-57414528D01*
X105245375Y-57395216D01*
X105608833Y-57031758D01*
X105685931Y-57063693D01*
X105923757Y-57111000D01*
X106166243Y-57111000D01*
X106404069Y-57063693D01*
X106628097Y-56970898D01*
X106829717Y-56836180D01*
X107001180Y-56664717D01*
X107135898Y-56463097D01*
X107228693Y-56239069D01*
X107276000Y-56001243D01*
X107276000Y-55758757D01*
X107228693Y-55520931D01*
X107135898Y-55296903D01*
X107001180Y-55095283D01*
X106829717Y-54923820D01*
X106628097Y-54789102D01*
X106404069Y-54696307D01*
X106166243Y-54649000D01*
X105923757Y-54649000D01*
X105685931Y-54696307D01*
X105461903Y-54789102D01*
X105260283Y-54923820D01*
X105088820Y-55095283D01*
X104954102Y-55296903D01*
X104861307Y-55520931D01*
X104814000Y-55758757D01*
X104814000Y-56001243D01*
X104861307Y-56239069D01*
X104893242Y-56316167D01*
X104660408Y-56549001D01*
X104538499Y-56549001D01*
X104595898Y-56463097D01*
X104688693Y-56239069D01*
X104736000Y-56001243D01*
X104736000Y-55758757D01*
X104688693Y-55520931D01*
X104595898Y-55296903D01*
X104461180Y-55095283D01*
X104386898Y-55021001D01*
X104845153Y-55021001D01*
X104869999Y-55023448D01*
X104894845Y-55021001D01*
X104894853Y-55021001D01*
X104969192Y-55013679D01*
X105064574Y-54984746D01*
X105152478Y-54937760D01*
X105229526Y-54874528D01*
X105245375Y-54855216D01*
X105608833Y-54491758D01*
X105685931Y-54523693D01*
X105923757Y-54571000D01*
X106166243Y-54571000D01*
X106404069Y-54523693D01*
X106628097Y-54430898D01*
X106829717Y-54296180D01*
X107001180Y-54124717D01*
X107135898Y-53923097D01*
X107228693Y-53699069D01*
X107276000Y-53461243D01*
X107276000Y-53218757D01*
X107228693Y-52980931D01*
X107135898Y-52756903D01*
X107001180Y-52555283D01*
X106829717Y-52383820D01*
X106628097Y-52249102D01*
X106404069Y-52156307D01*
X106166243Y-52109000D01*
X105923757Y-52109000D01*
X105685931Y-52156307D01*
X105461903Y-52249102D01*
X105260283Y-52383820D01*
X105088820Y-52555283D01*
X104954102Y-52756903D01*
X104861307Y-52980931D01*
X104814000Y-53218757D01*
X104814000Y-53461243D01*
X104861307Y-53699069D01*
X104893242Y-53776167D01*
X104660408Y-54009001D01*
X104538499Y-54009001D01*
X104595898Y-53923097D01*
X104688693Y-53699069D01*
X104736000Y-53461243D01*
X104736000Y-53218757D01*
X104688693Y-52980931D01*
X104595898Y-52756903D01*
X104461180Y-52555283D01*
X104289717Y-52383820D01*
X104088097Y-52249102D01*
X103864069Y-52156307D01*
X103626243Y-52109000D01*
X103383757Y-52109000D01*
X103145931Y-52156307D01*
X102921903Y-52249102D01*
X102720283Y-52383820D01*
X102548820Y-52555283D01*
X102414102Y-52756903D01*
X102321307Y-52980931D01*
X102274000Y-53218757D01*
X102274000Y-53461243D01*
X102321307Y-53699069D01*
X102414102Y-53923097D01*
X102524332Y-54088068D01*
X102516522Y-54092242D01*
X102439474Y-54155474D01*
X102423630Y-54174780D01*
X100911674Y-55686736D01*
X100878693Y-55520931D01*
X100785898Y-55296903D01*
X100651180Y-55095283D01*
X100479717Y-54923820D01*
X100278097Y-54789102D01*
X100054069Y-54696307D01*
X99816243Y-54649000D01*
X99573757Y-54649000D01*
X99335931Y-54696307D01*
X99111903Y-54789102D01*
X98910283Y-54923820D01*
X98738820Y-55095283D01*
X98604102Y-55296903D01*
X98511307Y-55520931D01*
X98464000Y-55758757D01*
X98464000Y-56001243D01*
X98511307Y-56239069D01*
X98604102Y-56463097D01*
X98738820Y-56664717D01*
X98813102Y-56738999D01*
X98354846Y-56738999D01*
X98330000Y-56736552D01*
X98305154Y-56738999D01*
X98305147Y-56738999D01*
X98240695Y-56745347D01*
X98230807Y-56746321D01*
X98208608Y-56753055D01*
X98135426Y-56775254D01*
X98047522Y-56822240D01*
X97970474Y-56885472D01*
X97954630Y-56904778D01*
X97591167Y-57268242D01*
X97514069Y-57236307D01*
X97276243Y-57189000D01*
X97033757Y-57189000D01*
X96795931Y-57236307D01*
X96571903Y-57329102D01*
X96370283Y-57463820D01*
X96198820Y-57635283D01*
X96064102Y-57836903D01*
X95971307Y-58060931D01*
X95924000Y-58298757D01*
X95924000Y-58541243D01*
X95971307Y-58779069D01*
X96003242Y-58856167D01*
X95675409Y-59184000D01*
X94315023Y-59184000D01*
X94435898Y-59003097D01*
X94528693Y-58779069D01*
X94576000Y-58541243D01*
X94576000Y-58298757D01*
X94528693Y-58060931D01*
X94435898Y-57836903D01*
X94301180Y-57635283D01*
X94129717Y-57463820D01*
X93928097Y-57329102D01*
X93704069Y-57236307D01*
X93466243Y-57189000D01*
X93223757Y-57189000D01*
X92985931Y-57236307D01*
X92761903Y-57329102D01*
X92560283Y-57463820D01*
X92388820Y-57635283D01*
X92254102Y-57836903D01*
X92161307Y-58060931D01*
X92114000Y-58298757D01*
X92114000Y-58541243D01*
X92161307Y-58779069D01*
X92254102Y-59003097D01*
X92374977Y-59184000D01*
X92284592Y-59184000D01*
X91956758Y-58856167D01*
X91988693Y-58779069D01*
X92036000Y-58541243D01*
X92036000Y-58298757D01*
X91988693Y-58060931D01*
X91895898Y-57836903D01*
X91761180Y-57635283D01*
X91589717Y-57463820D01*
X91388097Y-57329102D01*
X91164069Y-57236307D01*
X90926243Y-57189000D01*
X90683757Y-57189000D01*
X90445931Y-57236307D01*
X90221903Y-57329102D01*
X90020283Y-57463820D01*
X89848820Y-57635283D01*
X89714102Y-57836903D01*
X89621307Y-58060931D01*
X89574000Y-58298757D01*
X89433000Y-58298757D01*
X89433000Y-56196980D01*
X89615511Y-56196980D01*
X89639866Y-56277288D01*
X89739761Y-56496961D01*
X89880592Y-56692924D01*
X90056948Y-56857647D01*
X90262051Y-56984799D01*
X90488019Y-57069495D01*
X90678000Y-57009187D01*
X90678000Y-56007000D01*
X90932000Y-56007000D01*
X90932000Y-57009187D01*
X91121981Y-57069495D01*
X91347949Y-56984799D01*
X91553052Y-56857647D01*
X91729408Y-56692924D01*
X91870239Y-56496961D01*
X91970134Y-56277288D01*
X91994489Y-56196980D01*
X91933627Y-56007000D01*
X90932000Y-56007000D01*
X90678000Y-56007000D01*
X89676373Y-56007000D01*
X89615511Y-56196980D01*
X89433000Y-56196980D01*
X89433000Y-55563020D01*
X89615511Y-55563020D01*
X89676373Y-55753000D01*
X90678000Y-55753000D01*
X90678000Y-54750813D01*
X90932000Y-54750813D01*
X90932000Y-55753000D01*
X91933627Y-55753000D01*
X91994489Y-55563020D01*
X91970134Y-55482712D01*
X91870239Y-55263039D01*
X91729408Y-55067076D01*
X91553052Y-54902353D01*
X91347949Y-54775201D01*
X91121981Y-54690505D01*
X90932000Y-54750813D01*
X90678000Y-54750813D01*
X90488019Y-54690505D01*
X90262051Y-54775201D01*
X90056948Y-54902353D01*
X89880592Y-55067076D01*
X89739761Y-55263039D01*
X89639866Y-55482712D01*
X89615511Y-55563020D01*
X89433000Y-55563020D01*
X89433000Y-44870000D01*
X89572157Y-44870000D01*
X89572157Y-46570000D01*
X89579513Y-46644689D01*
X89601299Y-46716508D01*
X89636678Y-46782696D01*
X89684289Y-46840711D01*
X89742304Y-46888322D01*
X89808492Y-46923701D01*
X89880311Y-46945487D01*
X89955000Y-46952843D01*
X91322251Y-46952843D01*
X91699628Y-47330220D01*
X91715473Y-47349527D01*
X91792521Y-47412759D01*
X91880425Y-47459745D01*
X91975806Y-47488678D01*
X91985694Y-47489652D01*
X92050146Y-47496000D01*
X92050153Y-47496000D01*
X92074999Y-47498447D01*
X92099845Y-47496000D01*
X92374977Y-47496000D01*
X92254102Y-47676903D01*
X92161307Y-47900931D01*
X92114000Y-48138757D01*
X92114000Y-48381243D01*
X92161307Y-48619069D01*
X92254102Y-48843097D01*
X92374977Y-49024000D01*
X92284592Y-49024000D01*
X91956758Y-48696167D01*
X91988693Y-48619069D01*
X92036000Y-48381243D01*
X92036000Y-48138757D01*
X91988693Y-47900931D01*
X91895898Y-47676903D01*
X91761180Y-47475283D01*
X91589717Y-47303820D01*
X91388097Y-47169102D01*
X91164069Y-47076307D01*
X90926243Y-47029000D01*
X90683757Y-47029000D01*
X90445931Y-47076307D01*
X90221903Y-47169102D01*
X90020283Y-47303820D01*
X89848820Y-47475283D01*
X89714102Y-47676903D01*
X89621307Y-47900931D01*
X89574000Y-48138757D01*
X89574000Y-48381243D01*
X89621307Y-48619069D01*
X89714102Y-48843097D01*
X89848820Y-49044717D01*
X90020283Y-49216180D01*
X90221903Y-49350898D01*
X90445931Y-49443693D01*
X90683757Y-49491000D01*
X90926243Y-49491000D01*
X91164069Y-49443693D01*
X91241167Y-49411758D01*
X91699628Y-49870220D01*
X91715473Y-49889527D01*
X91792521Y-49952759D01*
X91880425Y-49999745D01*
X91975806Y-50028678D01*
X91985694Y-50029652D01*
X92050146Y-50036000D01*
X92050153Y-50036000D01*
X92074999Y-50038447D01*
X92099845Y-50036000D01*
X92385432Y-50036000D01*
X92279761Y-50183039D01*
X92179866Y-50402712D01*
X92155511Y-50483020D01*
X92216373Y-50673000D01*
X93218000Y-50673000D01*
X93218000Y-50653000D01*
X93472000Y-50653000D01*
X93472000Y-50673000D01*
X94473627Y-50673000D01*
X94534489Y-50483020D01*
X94510134Y-50402712D01*
X94410239Y-50183039D01*
X94304568Y-50036000D01*
X95860154Y-50036000D01*
X95885000Y-50038447D01*
X95909846Y-50036000D01*
X95909854Y-50036000D01*
X95984193Y-50028678D01*
X96079575Y-49999745D01*
X96167479Y-49952759D01*
X96244527Y-49889527D01*
X96260376Y-49870215D01*
X96718833Y-49411758D01*
X96795931Y-49443693D01*
X97033757Y-49491000D01*
X97276243Y-49491000D01*
X97514069Y-49443693D01*
X97738097Y-49350898D01*
X97939717Y-49216180D01*
X98111180Y-49044717D01*
X98245898Y-48843097D01*
X98338693Y-48619069D01*
X98386000Y-48381243D01*
X98386000Y-48138757D01*
X98338693Y-47900931D01*
X98306758Y-47823833D01*
X98539593Y-47590999D01*
X98661501Y-47590999D01*
X98604102Y-47676903D01*
X98511307Y-47900931D01*
X98464000Y-48138757D01*
X98464000Y-48381243D01*
X98511307Y-48619069D01*
X98604102Y-48843097D01*
X98738820Y-49044717D01*
X98813102Y-49118999D01*
X98354846Y-49118999D01*
X98330000Y-49116552D01*
X98305154Y-49118999D01*
X98305147Y-49118999D01*
X98240695Y-49125347D01*
X98230807Y-49126321D01*
X98208608Y-49133055D01*
X98135426Y-49155254D01*
X98047522Y-49202240D01*
X97970474Y-49265472D01*
X97954630Y-49284778D01*
X97591167Y-49648242D01*
X97514069Y-49616307D01*
X97276243Y-49569000D01*
X97033757Y-49569000D01*
X96795931Y-49616307D01*
X96571903Y-49709102D01*
X96370283Y-49843820D01*
X96198820Y-50015283D01*
X96064102Y-50216903D01*
X95971307Y-50440931D01*
X95924000Y-50678757D01*
X95924000Y-50921243D01*
X95971307Y-51159069D01*
X96003242Y-51236167D01*
X95700809Y-51538600D01*
X94322822Y-51538600D01*
X94410239Y-51416961D01*
X94510134Y-51197288D01*
X94534489Y-51116980D01*
X94473627Y-50927000D01*
X93472000Y-50927000D01*
X93472000Y-50947000D01*
X93218000Y-50947000D01*
X93218000Y-50927000D01*
X92216373Y-50927000D01*
X92155511Y-51116980D01*
X92179866Y-51197288D01*
X92279761Y-51416961D01*
X92367178Y-51538600D01*
X92259192Y-51538600D01*
X91956758Y-51236167D01*
X91988693Y-51159069D01*
X92036000Y-50921243D01*
X92036000Y-50678757D01*
X91988693Y-50440931D01*
X91895898Y-50216903D01*
X91761180Y-50015283D01*
X91589717Y-49843820D01*
X91388097Y-49709102D01*
X91164069Y-49616307D01*
X90926243Y-49569000D01*
X90683757Y-49569000D01*
X90445931Y-49616307D01*
X90221903Y-49709102D01*
X90020283Y-49843820D01*
X89848820Y-50015283D01*
X89714102Y-50216903D01*
X89621307Y-50440931D01*
X89574000Y-50678757D01*
X89574000Y-50921243D01*
X89621307Y-51159069D01*
X89714102Y-51383097D01*
X89848820Y-51584717D01*
X90020283Y-51756180D01*
X90221903Y-51890898D01*
X90445931Y-51983693D01*
X90683757Y-52031000D01*
X90926243Y-52031000D01*
X91164069Y-51983693D01*
X91241167Y-51951758D01*
X91674228Y-52384820D01*
X91690073Y-52404127D01*
X91767121Y-52467359D01*
X91855025Y-52514345D01*
X91950406Y-52543278D01*
X91960294Y-52544252D01*
X92024746Y-52550600D01*
X92024753Y-52550600D01*
X92049599Y-52553047D01*
X92074445Y-52550600D01*
X92393503Y-52550600D01*
X92388820Y-52555283D01*
X92254102Y-52756903D01*
X92161307Y-52980931D01*
X92114000Y-53218757D01*
X92114000Y-53461243D01*
X92161307Y-53699069D01*
X92254102Y-53923097D01*
X92358006Y-54078600D01*
X92259192Y-54078600D01*
X91956758Y-53776167D01*
X91988693Y-53699069D01*
X92036000Y-53461243D01*
X92036000Y-53218757D01*
X91988693Y-52980931D01*
X91895898Y-52756903D01*
X91761180Y-52555283D01*
X91589717Y-52383820D01*
X91388097Y-52249102D01*
X91164069Y-52156307D01*
X90926243Y-52109000D01*
X90683757Y-52109000D01*
X90445931Y-52156307D01*
X90221903Y-52249102D01*
X90020283Y-52383820D01*
X89848820Y-52555283D01*
X89714102Y-52756903D01*
X89621307Y-52980931D01*
X89574000Y-53218757D01*
X89574000Y-53461243D01*
X89621307Y-53699069D01*
X89714102Y-53923097D01*
X89848820Y-54124717D01*
X90020283Y-54296180D01*
X90221903Y-54430898D01*
X90445931Y-54523693D01*
X90683757Y-54571000D01*
X90926243Y-54571000D01*
X91164069Y-54523693D01*
X91241167Y-54491758D01*
X91674228Y-54924820D01*
X91690073Y-54944127D01*
X91767121Y-55007359D01*
X91855025Y-55054345D01*
X91950406Y-55083278D01*
X91960294Y-55084252D01*
X92024746Y-55090600D01*
X92024753Y-55090600D01*
X92049599Y-55093047D01*
X92074445Y-55090600D01*
X92393503Y-55090600D01*
X92388820Y-55095283D01*
X92254102Y-55296903D01*
X92161307Y-55520931D01*
X92114000Y-55758757D01*
X92114000Y-56001243D01*
X92161307Y-56239069D01*
X92254102Y-56463097D01*
X92388820Y-56664717D01*
X92560283Y-56836180D01*
X92761903Y-56970898D01*
X92985931Y-57063693D01*
X93223757Y-57111000D01*
X93466243Y-57111000D01*
X93704069Y-57063693D01*
X93928097Y-56970898D01*
X94129717Y-56836180D01*
X94301180Y-56664717D01*
X94435898Y-56463097D01*
X94528693Y-56239069D01*
X94537065Y-56196980D01*
X95965511Y-56196980D01*
X95989866Y-56277288D01*
X96089761Y-56496961D01*
X96230592Y-56692924D01*
X96406948Y-56857647D01*
X96612051Y-56984799D01*
X96838019Y-57069495D01*
X97028000Y-57009187D01*
X97028000Y-56007000D01*
X97282000Y-56007000D01*
X97282000Y-57009187D01*
X97471981Y-57069495D01*
X97697949Y-56984799D01*
X97903052Y-56857647D01*
X98079408Y-56692924D01*
X98220239Y-56496961D01*
X98320134Y-56277288D01*
X98344489Y-56196980D01*
X98283627Y-56007000D01*
X97282000Y-56007000D01*
X97028000Y-56007000D01*
X96026373Y-56007000D01*
X95965511Y-56196980D01*
X94537065Y-56196980D01*
X94576000Y-56001243D01*
X94576000Y-55758757D01*
X94537066Y-55563020D01*
X95965511Y-55563020D01*
X96026373Y-55753000D01*
X97028000Y-55753000D01*
X97028000Y-54750813D01*
X97282000Y-54750813D01*
X97282000Y-55753000D01*
X98283627Y-55753000D01*
X98344489Y-55563020D01*
X98320134Y-55482712D01*
X98220239Y-55263039D01*
X98079408Y-55067076D01*
X97903052Y-54902353D01*
X97697949Y-54775201D01*
X97471981Y-54690505D01*
X97282000Y-54750813D01*
X97028000Y-54750813D01*
X96838019Y-54690505D01*
X96612051Y-54775201D01*
X96406948Y-54902353D01*
X96230592Y-55067076D01*
X96089761Y-55263039D01*
X95989866Y-55482712D01*
X95965511Y-55563020D01*
X94537066Y-55563020D01*
X94528693Y-55520931D01*
X94435898Y-55296903D01*
X94301180Y-55095283D01*
X94296497Y-55090600D01*
X95885554Y-55090600D01*
X95910400Y-55093047D01*
X95935246Y-55090600D01*
X95935254Y-55090600D01*
X96009593Y-55083278D01*
X96104975Y-55054345D01*
X96192879Y-55007359D01*
X96269927Y-54944127D01*
X96285776Y-54924815D01*
X96718833Y-54491758D01*
X96795931Y-54523693D01*
X97033757Y-54571000D01*
X97276243Y-54571000D01*
X97514069Y-54523693D01*
X97738097Y-54430898D01*
X97939717Y-54296180D01*
X98111180Y-54124717D01*
X98245898Y-53923097D01*
X98338693Y-53699069D01*
X98386000Y-53461243D01*
X98386000Y-53218757D01*
X98338693Y-52980931D01*
X98306758Y-52903833D01*
X98729591Y-52481001D01*
X98813102Y-52481001D01*
X98738820Y-52555283D01*
X98604102Y-52756903D01*
X98511307Y-52980931D01*
X98464000Y-53218757D01*
X98464000Y-53461243D01*
X98511307Y-53699069D01*
X98604102Y-53923097D01*
X98738820Y-54124717D01*
X98910283Y-54296180D01*
X99111903Y-54430898D01*
X99335931Y-54523693D01*
X99573757Y-54571000D01*
X99816243Y-54571000D01*
X100054069Y-54523693D01*
X100278097Y-54430898D01*
X100479717Y-54296180D01*
X100651180Y-54124717D01*
X100785898Y-53923097D01*
X100878693Y-53699069D01*
X100926000Y-53461243D01*
X100926000Y-53218757D01*
X100878693Y-52980931D01*
X100785898Y-52756903D01*
X100651180Y-52555283D01*
X100510315Y-52414418D01*
X100541480Y-52397760D01*
X100618528Y-52334528D01*
X100634377Y-52315216D01*
X102274785Y-50674808D01*
X102274000Y-50678757D01*
X102274000Y-50921243D01*
X102321307Y-51159069D01*
X102414102Y-51383097D01*
X102548820Y-51584717D01*
X102720283Y-51756180D01*
X102921903Y-51890898D01*
X103145931Y-51983693D01*
X103383757Y-52031000D01*
X103626243Y-52031000D01*
X103864069Y-51983693D01*
X104088097Y-51890898D01*
X104289717Y-51756180D01*
X104461180Y-51584717D01*
X104595898Y-51383097D01*
X104688693Y-51159069D01*
X104697065Y-51116980D01*
X104855511Y-51116980D01*
X104879866Y-51197288D01*
X104979761Y-51416961D01*
X105120592Y-51612924D01*
X105296948Y-51777647D01*
X105502051Y-51904799D01*
X105728019Y-51989495D01*
X105918000Y-51929187D01*
X105918000Y-50927000D01*
X106172000Y-50927000D01*
X106172000Y-51929187D01*
X106361981Y-51989495D01*
X106587949Y-51904799D01*
X106793052Y-51777647D01*
X106969408Y-51612924D01*
X107110239Y-51416961D01*
X107210134Y-51197288D01*
X107234489Y-51116980D01*
X107173627Y-50927000D01*
X106172000Y-50927000D01*
X105918000Y-50927000D01*
X104916373Y-50927000D01*
X104855511Y-51116980D01*
X104697065Y-51116980D01*
X104736000Y-50921243D01*
X104736000Y-50678757D01*
X104697066Y-50483020D01*
X104855511Y-50483020D01*
X104916373Y-50673000D01*
X105918000Y-50673000D01*
X105918000Y-49670813D01*
X106172000Y-49670813D01*
X106172000Y-50673000D01*
X107173627Y-50673000D01*
X107234489Y-50483020D01*
X107210134Y-50402712D01*
X107110239Y-50183039D01*
X106969408Y-49987076D01*
X106793052Y-49822353D01*
X106587949Y-49695201D01*
X106361981Y-49610505D01*
X106172000Y-49670813D01*
X105918000Y-49670813D01*
X105728019Y-49610505D01*
X105502051Y-49695201D01*
X105296948Y-49822353D01*
X105120592Y-49987076D01*
X104979761Y-50183039D01*
X104879866Y-50402712D01*
X104855511Y-50483020D01*
X104697066Y-50483020D01*
X104688693Y-50440931D01*
X104595898Y-50216903D01*
X104461180Y-50015283D01*
X104386898Y-49941001D01*
X104845153Y-49941001D01*
X104869999Y-49943448D01*
X104894845Y-49941001D01*
X104894853Y-49941001D01*
X104969192Y-49933679D01*
X105064574Y-49904746D01*
X105152478Y-49857760D01*
X105229526Y-49794528D01*
X105245375Y-49775216D01*
X105608833Y-49411758D01*
X105685931Y-49443693D01*
X105923757Y-49491000D01*
X106166243Y-49491000D01*
X106404069Y-49443693D01*
X106628097Y-49350898D01*
X106829717Y-49216180D01*
X107001180Y-49044717D01*
X107135898Y-48843097D01*
X107228693Y-48619069D01*
X107276000Y-48381243D01*
X107276000Y-48138757D01*
X107228693Y-47900931D01*
X107135898Y-47676903D01*
X107001180Y-47475283D01*
X106829717Y-47303820D01*
X106628097Y-47169102D01*
X106404069Y-47076307D01*
X106166243Y-47029000D01*
X105923757Y-47029000D01*
X105685931Y-47076307D01*
X105461903Y-47169102D01*
X105260283Y-47303820D01*
X105088820Y-47475283D01*
X104954102Y-47676903D01*
X104861307Y-47900931D01*
X104814000Y-48138757D01*
X104814000Y-48381243D01*
X104861307Y-48619069D01*
X104893242Y-48696167D01*
X104660408Y-48929001D01*
X104538499Y-48929001D01*
X104595898Y-48843097D01*
X104688693Y-48619069D01*
X104736000Y-48381243D01*
X104736000Y-48138757D01*
X104688693Y-47900931D01*
X104595898Y-47676903D01*
X104461180Y-47475283D01*
X104386898Y-47401001D01*
X104845153Y-47401001D01*
X104869999Y-47403448D01*
X104894845Y-47401001D01*
X104894853Y-47401001D01*
X104969192Y-47393679D01*
X105064574Y-47364746D01*
X105152478Y-47317760D01*
X105229526Y-47254528D01*
X105245375Y-47235216D01*
X105608833Y-46871758D01*
X105685931Y-46903693D01*
X105923757Y-46951000D01*
X106166243Y-46951000D01*
X106404069Y-46903693D01*
X106628097Y-46810898D01*
X106829717Y-46676180D01*
X107001180Y-46504717D01*
X107135898Y-46303097D01*
X107228693Y-46079069D01*
X107276000Y-45841243D01*
X107276000Y-45598757D01*
X107228693Y-45360931D01*
X107135898Y-45136903D01*
X107001180Y-44935283D01*
X106829717Y-44763820D01*
X106628097Y-44629102D01*
X106404069Y-44536307D01*
X106166243Y-44489000D01*
X105923757Y-44489000D01*
X105685931Y-44536307D01*
X105461903Y-44629102D01*
X105260283Y-44763820D01*
X105088820Y-44935283D01*
X104954102Y-45136903D01*
X104861307Y-45360931D01*
X104814000Y-45598757D01*
X104814000Y-45841243D01*
X104861307Y-46079069D01*
X104893242Y-46156167D01*
X104660408Y-46389001D01*
X104532840Y-46389001D01*
X104570239Y-46336961D01*
X104670134Y-46117288D01*
X104694489Y-46036980D01*
X104633627Y-45847000D01*
X103632000Y-45847000D01*
X103632000Y-45867000D01*
X103378000Y-45867000D01*
X103378000Y-45847000D01*
X102376373Y-45847000D01*
X102315511Y-46036980D01*
X102339866Y-46117288D01*
X102439761Y-46336961D01*
X102531304Y-46464341D01*
X102516522Y-46472242D01*
X102439474Y-46535474D01*
X102423630Y-46554780D01*
X100911674Y-48066736D01*
X100878693Y-47900931D01*
X100785898Y-47676903D01*
X100651180Y-47475283D01*
X100522745Y-47346848D01*
X102352163Y-45517430D01*
X102376373Y-45593000D01*
X103378000Y-45593000D01*
X103378000Y-45573000D01*
X103632000Y-45573000D01*
X103632000Y-45593000D01*
X104633627Y-45593000D01*
X104694489Y-45403020D01*
X104670134Y-45322712D01*
X104570239Y-45103039D01*
X104429408Y-44907076D01*
X104380079Y-44861001D01*
X104845153Y-44861001D01*
X104869999Y-44863448D01*
X104894845Y-44861001D01*
X104894853Y-44861001D01*
X104969192Y-44853679D01*
X105064574Y-44824746D01*
X105152478Y-44777760D01*
X105229526Y-44714528D01*
X105245375Y-44695216D01*
X105608833Y-44331758D01*
X105685931Y-44363693D01*
X105923757Y-44411000D01*
X106166243Y-44411000D01*
X106404069Y-44363693D01*
X106628097Y-44270898D01*
X106829717Y-44136180D01*
X107001180Y-43964717D01*
X107135898Y-43763097D01*
X107228693Y-43539069D01*
X107276000Y-43301243D01*
X107276000Y-43058757D01*
X107228693Y-42820931D01*
X107135898Y-42596903D01*
X107001180Y-42395283D01*
X106829717Y-42223820D01*
X106628097Y-42089102D01*
X106404069Y-41996307D01*
X106166243Y-41949000D01*
X105923757Y-41949000D01*
X105685931Y-41996307D01*
X105461903Y-42089102D01*
X105260283Y-42223820D01*
X105088820Y-42395283D01*
X104954102Y-42596903D01*
X104861307Y-42820931D01*
X104814000Y-43058757D01*
X104814000Y-43301243D01*
X104861307Y-43539069D01*
X104893242Y-43616167D01*
X104660408Y-43849001D01*
X104538499Y-43849001D01*
X104595898Y-43763097D01*
X104688693Y-43539069D01*
X104736000Y-43301243D01*
X104736000Y-43058757D01*
X104688693Y-42820931D01*
X104595898Y-42596903D01*
X104461180Y-42395283D01*
X104386898Y-42321001D01*
X104845153Y-42321001D01*
X104869999Y-42323448D01*
X104894845Y-42321001D01*
X104894853Y-42321001D01*
X104969192Y-42313679D01*
X105064574Y-42284746D01*
X105152478Y-42237760D01*
X105229526Y-42174528D01*
X105245375Y-42155216D01*
X105527748Y-41872843D01*
X106895000Y-41872843D01*
X106969689Y-41865487D01*
X107041508Y-41843701D01*
X107107696Y-41808322D01*
X107165711Y-41760711D01*
X107213322Y-41702696D01*
X107248701Y-41636508D01*
X107270487Y-41564689D01*
X107277843Y-41490000D01*
X107277843Y-39790000D01*
X107270487Y-39715311D01*
X107248701Y-39643492D01*
X107213322Y-39577304D01*
X107165711Y-39519289D01*
X107107696Y-39471678D01*
X107041508Y-39436299D01*
X106969689Y-39414513D01*
X106895000Y-39407157D01*
X105195000Y-39407157D01*
X105120311Y-39414513D01*
X105048492Y-39436299D01*
X104982304Y-39471678D01*
X104924289Y-39519289D01*
X104876678Y-39577304D01*
X104841299Y-39643492D01*
X104819513Y-39715311D01*
X104812157Y-39790000D01*
X104812157Y-41157252D01*
X104660408Y-41309001D01*
X104538499Y-41309001D01*
X104595898Y-41223097D01*
X104688693Y-40999069D01*
X104736000Y-40761243D01*
X104736000Y-40518757D01*
X104688693Y-40280931D01*
X104595898Y-40056903D01*
X104461180Y-39855283D01*
X104289717Y-39683820D01*
X104088097Y-39549102D01*
X103864069Y-39456307D01*
X103626243Y-39409000D01*
X103383757Y-39409000D01*
X103145931Y-39456307D01*
X102921903Y-39549102D01*
X102720283Y-39683820D01*
X102548820Y-39855283D01*
X102414102Y-40056903D01*
X102321307Y-40280931D01*
X102274000Y-40518757D01*
X102274000Y-40761243D01*
X102321307Y-40999069D01*
X102414102Y-41223097D01*
X102471501Y-41309001D01*
X101084853Y-41309001D01*
X101059999Y-41306553D01*
X101035145Y-41309001D01*
X100960806Y-41316323D01*
X100865424Y-41345256D01*
X100777520Y-41392242D01*
X100700472Y-41455474D01*
X100684628Y-41474780D01*
X97672252Y-44487157D01*
X96305000Y-44487157D01*
X96230311Y-44494513D01*
X96158492Y-44516299D01*
X96092304Y-44551678D01*
X96034289Y-44599289D01*
X95986678Y-44657304D01*
X95951299Y-44723492D01*
X95929513Y-44795311D01*
X95922157Y-44870000D01*
X95922157Y-46237252D01*
X95675409Y-46484000D01*
X94315023Y-46484000D01*
X94435898Y-46303097D01*
X94528693Y-46079069D01*
X94576000Y-45841243D01*
X94576000Y-45598757D01*
X94528693Y-45360931D01*
X94435898Y-45136903D01*
X94301180Y-44935283D01*
X94129717Y-44763820D01*
X93928097Y-44629102D01*
X93704069Y-44536307D01*
X93466243Y-44489000D01*
X93223757Y-44489000D01*
X92985931Y-44536307D01*
X92761903Y-44629102D01*
X92560283Y-44763820D01*
X92388820Y-44935283D01*
X92254102Y-45136903D01*
X92161307Y-45360931D01*
X92114000Y-45598757D01*
X92114000Y-45841243D01*
X92161307Y-46079069D01*
X92254102Y-46303097D01*
X92374977Y-46484000D01*
X92284592Y-46484000D01*
X92037843Y-46237251D01*
X92037843Y-44870000D01*
X92030487Y-44795311D01*
X92008701Y-44723492D01*
X91973322Y-44657304D01*
X91925711Y-44599289D01*
X91867696Y-44551678D01*
X91801508Y-44516299D01*
X91729689Y-44494513D01*
X91655000Y-44487157D01*
X89955000Y-44487157D01*
X89880311Y-44494513D01*
X89808492Y-44516299D01*
X89742304Y-44551678D01*
X89684289Y-44599289D01*
X89636678Y-44657304D01*
X89601299Y-44723492D01*
X89579513Y-44795311D01*
X89572157Y-44870000D01*
X89433000Y-44870000D01*
X89433000Y-37484851D01*
X89439270Y-37420901D01*
X89452079Y-37378476D01*
X89472881Y-37339353D01*
X89500888Y-37305013D01*
X89535034Y-37276765D01*
X89574016Y-37255688D01*
X89616343Y-37242585D01*
X89678992Y-37236000D01*
X107422149Y-37236000D01*
X107486099Y-37242270D01*
G37*
%TD.AperFunction*%
D14*
X98604102Y-90856903D02*
X98511307Y-91080931D01*
X98464000Y-91318757D01*
X98464000Y-91561243D01*
X98511307Y-91799069D01*
X98604102Y-92023097D01*
X98661501Y-92109001D01*
X98544844Y-92109001D01*
X98519998Y-92106554D01*
X98495152Y-92109001D01*
X98495145Y-92109001D01*
X98430693Y-92115349D01*
X98420805Y-92116323D01*
X98325424Y-92145256D01*
X98237520Y-92192242D01*
X98160472Y-92255474D01*
X98144628Y-92274780D01*
X97591167Y-92828242D01*
X97514069Y-92796307D01*
X97276243Y-92749000D01*
X97033757Y-92749000D01*
X96795931Y-92796307D01*
X96571903Y-92889102D01*
X96370283Y-93023820D01*
X96198820Y-93195283D01*
X96064102Y-93396903D01*
X95971307Y-93620931D01*
X95924000Y-93858757D01*
X95924000Y-94101243D01*
X95971307Y-94339069D01*
X96003242Y-94416167D01*
X95700809Y-94718600D01*
X94331994Y-94718600D01*
X94435898Y-94563097D01*
X94528693Y-94339069D01*
X94576000Y-94101243D01*
X94576000Y-93858757D01*
X94528693Y-93620931D01*
X94435898Y-93396903D01*
X94301180Y-93195283D01*
X94296497Y-93190600D01*
X95885554Y-93190600D01*
X95910400Y-93193047D01*
X95935246Y-93190600D01*
X95935254Y-93190600D01*
X96009593Y-93183278D01*
X96104975Y-93154345D01*
X96192879Y-93107359D01*
X96269927Y-93044127D01*
X96285776Y-93024815D01*
X96718833Y-92591758D01*
X96795931Y-92623693D01*
X97033757Y-92671000D01*
X97276243Y-92671000D01*
X97514069Y-92623693D01*
X97738097Y-92530898D01*
X97939717Y-92396180D01*
X98111180Y-92224717D01*
X98245898Y-92023097D01*
X98338693Y-91799069D01*
X98386000Y-91561243D01*
X98386000Y-91318757D01*
X98338693Y-91080931D01*
X98306758Y-91003833D01*
X98539593Y-90770999D01*
X98661501Y-90770999D01*
X98604102Y-90856903D01*
%TA.AperFunction,Conductor*%
D15*
G36*
X98604102Y-90856903D02*
G01*
X98511307Y-91080931D01*
X98464000Y-91318757D01*
X98464000Y-91561243D01*
X98511307Y-91799069D01*
X98604102Y-92023097D01*
X98661501Y-92109001D01*
X98544844Y-92109001D01*
X98519998Y-92106554D01*
X98495152Y-92109001D01*
X98495145Y-92109001D01*
X98430693Y-92115349D01*
X98420805Y-92116323D01*
X98325424Y-92145256D01*
X98237520Y-92192242D01*
X98160472Y-92255474D01*
X98144628Y-92274780D01*
X97591167Y-92828242D01*
X97514069Y-92796307D01*
X97276243Y-92749000D01*
X97033757Y-92749000D01*
X96795931Y-92796307D01*
X96571903Y-92889102D01*
X96370283Y-93023820D01*
X96198820Y-93195283D01*
X96064102Y-93396903D01*
X95971307Y-93620931D01*
X95924000Y-93858757D01*
X95924000Y-94101243D01*
X95971307Y-94339069D01*
X96003242Y-94416167D01*
X95700809Y-94718600D01*
X94331994Y-94718600D01*
X94435898Y-94563097D01*
X94528693Y-94339069D01*
X94576000Y-94101243D01*
X94576000Y-93858757D01*
X94528693Y-93620931D01*
X94435898Y-93396903D01*
X94301180Y-93195283D01*
X94296497Y-93190600D01*
X95885554Y-93190600D01*
X95910400Y-93193047D01*
X95935246Y-93190600D01*
X95935254Y-93190600D01*
X96009593Y-93183278D01*
X96104975Y-93154345D01*
X96192879Y-93107359D01*
X96269927Y-93044127D01*
X96285776Y-93024815D01*
X96718833Y-92591758D01*
X96795931Y-92623693D01*
X97033757Y-92671000D01*
X97276243Y-92671000D01*
X97514069Y-92623693D01*
X97738097Y-92530898D01*
X97939717Y-92396180D01*
X98111180Y-92224717D01*
X98245898Y-92023097D01*
X98338693Y-91799069D01*
X98386000Y-91561243D01*
X98386000Y-91318757D01*
X98338693Y-91080931D01*
X98306758Y-91003833D01*
X98539593Y-90770999D01*
X98661501Y-90770999D01*
X98604102Y-90856903D01*
G37*
%TD.AperFunction*%
D14*
X98604102Y-88316903D02*
X98511307Y-88540931D01*
X98464000Y-88778757D01*
X98464000Y-89021243D01*
X98511307Y-89259069D01*
X98604102Y-89483097D01*
X98738820Y-89684717D01*
X98813102Y-89758999D01*
X98354846Y-89758999D01*
X98330000Y-89756552D01*
X98305154Y-89758999D01*
X98305147Y-89758999D01*
X98240695Y-89765347D01*
X98230807Y-89766321D01*
X98208608Y-89773055D01*
X98135426Y-89795254D01*
X98047522Y-89842240D01*
X97970474Y-89905472D01*
X97954630Y-89924778D01*
X97591167Y-90288242D01*
X97514069Y-90256307D01*
X97276243Y-90209000D01*
X97033757Y-90209000D01*
X96795931Y-90256307D01*
X96571903Y-90349102D01*
X96370283Y-90483820D01*
X96198820Y-90655283D01*
X96064102Y-90856903D01*
X95971307Y-91080931D01*
X95924000Y-91318757D01*
X95924000Y-91561243D01*
X95971307Y-91799069D01*
X96003242Y-91876167D01*
X95700809Y-92178600D01*
X94331994Y-92178600D01*
X94435898Y-92023097D01*
X94528693Y-91799069D01*
X94576000Y-91561243D01*
X94576000Y-91318757D01*
X94528693Y-91080931D01*
X94435898Y-90856903D01*
X94315023Y-90676000D01*
X95860154Y-90676000D01*
X95885000Y-90678447D01*
X95909846Y-90676000D01*
X95909854Y-90676000D01*
X95984193Y-90668678D01*
X96079575Y-90639745D01*
X96167479Y-90592759D01*
X96244527Y-90529527D01*
X96260376Y-90510215D01*
X96718833Y-90051758D01*
X96795931Y-90083693D01*
X97033757Y-90131000D01*
X97276243Y-90131000D01*
X97514069Y-90083693D01*
X97738097Y-89990898D01*
X97939717Y-89856180D01*
X98111180Y-89684717D01*
X98245898Y-89483097D01*
X98338693Y-89259069D01*
X98386000Y-89021243D01*
X98386000Y-88778757D01*
X98338693Y-88540931D01*
X98306758Y-88463833D01*
X98539593Y-88230999D01*
X98661501Y-88230999D01*
X98604102Y-88316903D01*
%TA.AperFunction,Conductor*%
D15*
G36*
X98604102Y-88316903D02*
G01*
X98511307Y-88540931D01*
X98464000Y-88778757D01*
X98464000Y-89021243D01*
X98511307Y-89259069D01*
X98604102Y-89483097D01*
X98738820Y-89684717D01*
X98813102Y-89758999D01*
X98354846Y-89758999D01*
X98330000Y-89756552D01*
X98305154Y-89758999D01*
X98305147Y-89758999D01*
X98240695Y-89765347D01*
X98230807Y-89766321D01*
X98208608Y-89773055D01*
X98135426Y-89795254D01*
X98047522Y-89842240D01*
X97970474Y-89905472D01*
X97954630Y-89924778D01*
X97591167Y-90288242D01*
X97514069Y-90256307D01*
X97276243Y-90209000D01*
X97033757Y-90209000D01*
X96795931Y-90256307D01*
X96571903Y-90349102D01*
X96370283Y-90483820D01*
X96198820Y-90655283D01*
X96064102Y-90856903D01*
X95971307Y-91080931D01*
X95924000Y-91318757D01*
X95924000Y-91561243D01*
X95971307Y-91799069D01*
X96003242Y-91876167D01*
X95700809Y-92178600D01*
X94331994Y-92178600D01*
X94435898Y-92023097D01*
X94528693Y-91799069D01*
X94576000Y-91561243D01*
X94576000Y-91318757D01*
X94528693Y-91080931D01*
X94435898Y-90856903D01*
X94315023Y-90676000D01*
X95860154Y-90676000D01*
X95885000Y-90678447D01*
X95909846Y-90676000D01*
X95909854Y-90676000D01*
X95984193Y-90668678D01*
X96079575Y-90639745D01*
X96167479Y-90592759D01*
X96244527Y-90529527D01*
X96260376Y-90510215D01*
X96718833Y-90051758D01*
X96795931Y-90083693D01*
X97033757Y-90131000D01*
X97276243Y-90131000D01*
X97514069Y-90083693D01*
X97738097Y-89990898D01*
X97939717Y-89856180D01*
X98111180Y-89684717D01*
X98245898Y-89483097D01*
X98338693Y-89259069D01*
X98386000Y-89021243D01*
X98386000Y-88778757D01*
X98338693Y-88540931D01*
X98306758Y-88463833D01*
X98539593Y-88230999D01*
X98661501Y-88230999D01*
X98604102Y-88316903D01*
G37*
%TD.AperFunction*%
D14*
X98738820Y-85575283D02*
X98604102Y-85776903D01*
X98511307Y-86000931D01*
X98464000Y-86238757D01*
X98464000Y-86481243D01*
X98511307Y-86719069D01*
X98604102Y-86943097D01*
X98738820Y-87144717D01*
X98813102Y-87218999D01*
X98354846Y-87218999D01*
X98330000Y-87216552D01*
X98305154Y-87218999D01*
X98305147Y-87218999D01*
X98240695Y-87225347D01*
X98230807Y-87226321D01*
X98208608Y-87233055D01*
X98135426Y-87255254D01*
X98047522Y-87302240D01*
X97970474Y-87365472D01*
X97954630Y-87384778D01*
X97591167Y-87748242D01*
X97514069Y-87716307D01*
X97276243Y-87669000D01*
X97033757Y-87669000D01*
X96795931Y-87716307D01*
X96571903Y-87809102D01*
X96370283Y-87943820D01*
X96198820Y-88115283D01*
X96064102Y-88316903D01*
X95971307Y-88540931D01*
X95924000Y-88778757D01*
X95924000Y-89021243D01*
X95971307Y-89259069D01*
X96003242Y-89336167D01*
X95675409Y-89664000D01*
X94315023Y-89664000D01*
X94435898Y-89483097D01*
X94528693Y-89259069D01*
X94576000Y-89021243D01*
X94576000Y-88778757D01*
X94528693Y-88540931D01*
X94435898Y-88316903D01*
X94315023Y-88136000D01*
X95860154Y-88136000D01*
X95885000Y-88138447D01*
X95909846Y-88136000D01*
X95909854Y-88136000D01*
X95984193Y-88128678D01*
X96079575Y-88099745D01*
X96167479Y-88052759D01*
X96244527Y-87989527D01*
X96260376Y-87970215D01*
X96718833Y-87511758D01*
X96795931Y-87543693D01*
X97033757Y-87591000D01*
X97276243Y-87591000D01*
X97514069Y-87543693D01*
X97738097Y-87450898D01*
X97939717Y-87316180D01*
X98111180Y-87144717D01*
X98245898Y-86943097D01*
X98338693Y-86719069D01*
X98386000Y-86481243D01*
X98386000Y-86238757D01*
X98338693Y-86000931D01*
X98306758Y-85923833D01*
X98729591Y-85501001D01*
X98813102Y-85501001D01*
X98738820Y-85575283D01*
%TA.AperFunction,Conductor*%
D15*
G36*
X98738820Y-85575283D02*
G01*
X98604102Y-85776903D01*
X98511307Y-86000931D01*
X98464000Y-86238757D01*
X98464000Y-86481243D01*
X98511307Y-86719069D01*
X98604102Y-86943097D01*
X98738820Y-87144717D01*
X98813102Y-87218999D01*
X98354846Y-87218999D01*
X98330000Y-87216552D01*
X98305154Y-87218999D01*
X98305147Y-87218999D01*
X98240695Y-87225347D01*
X98230807Y-87226321D01*
X98208608Y-87233055D01*
X98135426Y-87255254D01*
X98047522Y-87302240D01*
X97970474Y-87365472D01*
X97954630Y-87384778D01*
X97591167Y-87748242D01*
X97514069Y-87716307D01*
X97276243Y-87669000D01*
X97033757Y-87669000D01*
X96795931Y-87716307D01*
X96571903Y-87809102D01*
X96370283Y-87943820D01*
X96198820Y-88115283D01*
X96064102Y-88316903D01*
X95971307Y-88540931D01*
X95924000Y-88778757D01*
X95924000Y-89021243D01*
X95971307Y-89259069D01*
X96003242Y-89336167D01*
X95675409Y-89664000D01*
X94315023Y-89664000D01*
X94435898Y-89483097D01*
X94528693Y-89259069D01*
X94576000Y-89021243D01*
X94576000Y-88778757D01*
X94528693Y-88540931D01*
X94435898Y-88316903D01*
X94315023Y-88136000D01*
X95860154Y-88136000D01*
X95885000Y-88138447D01*
X95909846Y-88136000D01*
X95909854Y-88136000D01*
X95984193Y-88128678D01*
X96079575Y-88099745D01*
X96167479Y-88052759D01*
X96244527Y-87989527D01*
X96260376Y-87970215D01*
X96718833Y-87511758D01*
X96795931Y-87543693D01*
X97033757Y-87591000D01*
X97276243Y-87591000D01*
X97514069Y-87543693D01*
X97738097Y-87450898D01*
X97939717Y-87316180D01*
X98111180Y-87144717D01*
X98245898Y-86943097D01*
X98338693Y-86719069D01*
X98386000Y-86481243D01*
X98386000Y-86238757D01*
X98338693Y-86000931D01*
X98306758Y-85923833D01*
X98729591Y-85501001D01*
X98813102Y-85501001D01*
X98738820Y-85575283D01*
G37*
%TD.AperFunction*%
D14*
X98604102Y-83236903D02*
X98511307Y-83460931D01*
X98464000Y-83698757D01*
X98464000Y-83941243D01*
X98511307Y-84179069D01*
X98604102Y-84403097D01*
X98661501Y-84489001D01*
X98544844Y-84489001D01*
X98519998Y-84486554D01*
X98495152Y-84489001D01*
X98495145Y-84489001D01*
X98430693Y-84495349D01*
X98420805Y-84496323D01*
X98325424Y-84525256D01*
X98237520Y-84572242D01*
X98160472Y-84635474D01*
X98144628Y-84654780D01*
X97591167Y-85208242D01*
X97514069Y-85176307D01*
X97276243Y-85129000D01*
X97033757Y-85129000D01*
X96795931Y-85176307D01*
X96571903Y-85269102D01*
X96370283Y-85403820D01*
X96198820Y-85575283D01*
X96064102Y-85776903D01*
X95971307Y-86000931D01*
X95924000Y-86238757D01*
X95924000Y-86481243D01*
X95971307Y-86719069D01*
X96003242Y-86796167D01*
X95675409Y-87124000D01*
X94315023Y-87124000D01*
X94435898Y-86943097D01*
X94528693Y-86719069D01*
X94576000Y-86481243D01*
X94576000Y-86238757D01*
X94528693Y-86000931D01*
X94435898Y-85776903D01*
X94301180Y-85575283D01*
X94296497Y-85570600D01*
X95885554Y-85570600D01*
X95910400Y-85573047D01*
X95935246Y-85570600D01*
X95935254Y-85570600D01*
X96009593Y-85563278D01*
X96104975Y-85534345D01*
X96192879Y-85487359D01*
X96269927Y-85424127D01*
X96285776Y-85404815D01*
X96718833Y-84971758D01*
X96795931Y-85003693D01*
X97033757Y-85051000D01*
X97276243Y-85051000D01*
X97514069Y-85003693D01*
X97738097Y-84910898D01*
X97939717Y-84776180D01*
X98111180Y-84604717D01*
X98245898Y-84403097D01*
X98338693Y-84179069D01*
X98386000Y-83941243D01*
X98386000Y-83698757D01*
X98338693Y-83460931D01*
X98306758Y-83383833D01*
X98539593Y-83150999D01*
X98661501Y-83150999D01*
X98604102Y-83236903D01*
%TA.AperFunction,Conductor*%
D15*
G36*
X98604102Y-83236903D02*
G01*
X98511307Y-83460931D01*
X98464000Y-83698757D01*
X98464000Y-83941243D01*
X98511307Y-84179069D01*
X98604102Y-84403097D01*
X98661501Y-84489001D01*
X98544844Y-84489001D01*
X98519998Y-84486554D01*
X98495152Y-84489001D01*
X98495145Y-84489001D01*
X98430693Y-84495349D01*
X98420805Y-84496323D01*
X98325424Y-84525256D01*
X98237520Y-84572242D01*
X98160472Y-84635474D01*
X98144628Y-84654780D01*
X97591167Y-85208242D01*
X97514069Y-85176307D01*
X97276243Y-85129000D01*
X97033757Y-85129000D01*
X96795931Y-85176307D01*
X96571903Y-85269102D01*
X96370283Y-85403820D01*
X96198820Y-85575283D01*
X96064102Y-85776903D01*
X95971307Y-86000931D01*
X95924000Y-86238757D01*
X95924000Y-86481243D01*
X95971307Y-86719069D01*
X96003242Y-86796167D01*
X95675409Y-87124000D01*
X94315023Y-87124000D01*
X94435898Y-86943097D01*
X94528693Y-86719069D01*
X94576000Y-86481243D01*
X94576000Y-86238757D01*
X94528693Y-86000931D01*
X94435898Y-85776903D01*
X94301180Y-85575283D01*
X94296497Y-85570600D01*
X95885554Y-85570600D01*
X95910400Y-85573047D01*
X95935246Y-85570600D01*
X95935254Y-85570600D01*
X96009593Y-85563278D01*
X96104975Y-85534345D01*
X96192879Y-85487359D01*
X96269927Y-85424127D01*
X96285776Y-85404815D01*
X96718833Y-84971758D01*
X96795931Y-85003693D01*
X97033757Y-85051000D01*
X97276243Y-85051000D01*
X97514069Y-85003693D01*
X97738097Y-84910898D01*
X97939717Y-84776180D01*
X98111180Y-84604717D01*
X98245898Y-84403097D01*
X98338693Y-84179069D01*
X98386000Y-83941243D01*
X98386000Y-83698757D01*
X98338693Y-83460931D01*
X98306758Y-83383833D01*
X98539593Y-83150999D01*
X98661501Y-83150999D01*
X98604102Y-83236903D01*
G37*
%TD.AperFunction*%
D14*
X98604102Y-80696903D02*
X98511307Y-80920931D01*
X98464000Y-81158757D01*
X98464000Y-81401243D01*
X98511307Y-81639069D01*
X98604102Y-81863097D01*
X98738820Y-82064717D01*
X98813102Y-82138999D01*
X98354846Y-82138999D01*
X98330000Y-82136552D01*
X98305154Y-82138999D01*
X98305147Y-82138999D01*
X98240695Y-82145347D01*
X98230807Y-82146321D01*
X98208608Y-82153055D01*
X98135426Y-82175254D01*
X98047522Y-82222240D01*
X97970474Y-82285472D01*
X97954630Y-82304778D01*
X97591167Y-82668242D01*
X97514069Y-82636307D01*
X97276243Y-82589000D01*
X97033757Y-82589000D01*
X96795931Y-82636307D01*
X96571903Y-82729102D01*
X96370283Y-82863820D01*
X96198820Y-83035283D01*
X96064102Y-83236903D01*
X95971307Y-83460931D01*
X95924000Y-83698757D01*
X95924000Y-83941243D01*
X95971307Y-84179069D01*
X96003242Y-84256167D01*
X95700809Y-84558600D01*
X94331994Y-84558600D01*
X94435898Y-84403097D01*
X94528693Y-84179069D01*
X94576000Y-83941243D01*
X94576000Y-83698757D01*
X94528693Y-83460931D01*
X94435898Y-83236903D01*
X94315023Y-83056000D01*
X95860154Y-83056000D01*
X95885000Y-83058447D01*
X95909846Y-83056000D01*
X95909854Y-83056000D01*
X95984193Y-83048678D01*
X96079575Y-83019745D01*
X96167479Y-82972759D01*
X96244527Y-82909527D01*
X96260376Y-82890215D01*
X96718833Y-82431758D01*
X96795931Y-82463693D01*
X97033757Y-82511000D01*
X97276243Y-82511000D01*
X97514069Y-82463693D01*
X97738097Y-82370898D01*
X97939717Y-82236180D01*
X98111180Y-82064717D01*
X98245898Y-81863097D01*
X98338693Y-81639069D01*
X98386000Y-81401243D01*
X98386000Y-81158757D01*
X98338693Y-80920931D01*
X98306758Y-80843833D01*
X98539593Y-80610999D01*
X98661501Y-80610999D01*
X98604102Y-80696903D01*
%TA.AperFunction,Conductor*%
D15*
G36*
X98604102Y-80696903D02*
G01*
X98511307Y-80920931D01*
X98464000Y-81158757D01*
X98464000Y-81401243D01*
X98511307Y-81639069D01*
X98604102Y-81863097D01*
X98738820Y-82064717D01*
X98813102Y-82138999D01*
X98354846Y-82138999D01*
X98330000Y-82136552D01*
X98305154Y-82138999D01*
X98305147Y-82138999D01*
X98240695Y-82145347D01*
X98230807Y-82146321D01*
X98208608Y-82153055D01*
X98135426Y-82175254D01*
X98047522Y-82222240D01*
X97970474Y-82285472D01*
X97954630Y-82304778D01*
X97591167Y-82668242D01*
X97514069Y-82636307D01*
X97276243Y-82589000D01*
X97033757Y-82589000D01*
X96795931Y-82636307D01*
X96571903Y-82729102D01*
X96370283Y-82863820D01*
X96198820Y-83035283D01*
X96064102Y-83236903D01*
X95971307Y-83460931D01*
X95924000Y-83698757D01*
X95924000Y-83941243D01*
X95971307Y-84179069D01*
X96003242Y-84256167D01*
X95700809Y-84558600D01*
X94331994Y-84558600D01*
X94435898Y-84403097D01*
X94528693Y-84179069D01*
X94576000Y-83941243D01*
X94576000Y-83698757D01*
X94528693Y-83460931D01*
X94435898Y-83236903D01*
X94315023Y-83056000D01*
X95860154Y-83056000D01*
X95885000Y-83058447D01*
X95909846Y-83056000D01*
X95909854Y-83056000D01*
X95984193Y-83048678D01*
X96079575Y-83019745D01*
X96167479Y-82972759D01*
X96244527Y-82909527D01*
X96260376Y-82890215D01*
X96718833Y-82431758D01*
X96795931Y-82463693D01*
X97033757Y-82511000D01*
X97276243Y-82511000D01*
X97514069Y-82463693D01*
X97738097Y-82370898D01*
X97939717Y-82236180D01*
X98111180Y-82064717D01*
X98245898Y-81863097D01*
X98338693Y-81639069D01*
X98386000Y-81401243D01*
X98386000Y-81158757D01*
X98338693Y-80920931D01*
X98306758Y-80843833D01*
X98539593Y-80610999D01*
X98661501Y-80610999D01*
X98604102Y-80696903D01*
G37*
%TD.AperFunction*%
D14*
X98604102Y-78156903D02*
X98511307Y-78380931D01*
X98464000Y-78618757D01*
X98464000Y-78861243D01*
X98511307Y-79099069D01*
X98604102Y-79323097D01*
X98738820Y-79524717D01*
X98813102Y-79598999D01*
X98354846Y-79598999D01*
X98330000Y-79596552D01*
X98305154Y-79598999D01*
X98305147Y-79598999D01*
X98240695Y-79605347D01*
X98230807Y-79606321D01*
X98208608Y-79613055D01*
X98135426Y-79635254D01*
X98047522Y-79682240D01*
X97970474Y-79745472D01*
X97954630Y-79764778D01*
X97591167Y-80128242D01*
X97514069Y-80096307D01*
X97276243Y-80049000D01*
X97033757Y-80049000D01*
X96795931Y-80096307D01*
X96571903Y-80189102D01*
X96370283Y-80323820D01*
X96198820Y-80495283D01*
X96064102Y-80696903D01*
X95971307Y-80920931D01*
X95924000Y-81158757D01*
X95924000Y-81401243D01*
X95971307Y-81639069D01*
X96003242Y-81716167D01*
X95675409Y-82044000D01*
X94315023Y-82044000D01*
X94435898Y-81863097D01*
X94528693Y-81639069D01*
X94576000Y-81401243D01*
X94576000Y-81158757D01*
X94528693Y-80920931D01*
X94435898Y-80696903D01*
X94301180Y-80495283D01*
X94296497Y-80490600D01*
X95885554Y-80490600D01*
X95910400Y-80493047D01*
X95935246Y-80490600D01*
X95935254Y-80490600D01*
X96009593Y-80483278D01*
X96104975Y-80454345D01*
X96192879Y-80407359D01*
X96269927Y-80344127D01*
X96285776Y-80324815D01*
X96718833Y-79891758D01*
X96795931Y-79923693D01*
X97033757Y-79971000D01*
X97276243Y-79971000D01*
X97514069Y-79923693D01*
X97738097Y-79830898D01*
X97939717Y-79696180D01*
X98111180Y-79524717D01*
X98245898Y-79323097D01*
X98338693Y-79099069D01*
X98386000Y-78861243D01*
X98386000Y-78618757D01*
X98338693Y-78380931D01*
X98306758Y-78303833D01*
X98539593Y-78070999D01*
X98661501Y-78070999D01*
X98604102Y-78156903D01*
%TA.AperFunction,Conductor*%
D15*
G36*
X98604102Y-78156903D02*
G01*
X98511307Y-78380931D01*
X98464000Y-78618757D01*
X98464000Y-78861243D01*
X98511307Y-79099069D01*
X98604102Y-79323097D01*
X98738820Y-79524717D01*
X98813102Y-79598999D01*
X98354846Y-79598999D01*
X98330000Y-79596552D01*
X98305154Y-79598999D01*
X98305147Y-79598999D01*
X98240695Y-79605347D01*
X98230807Y-79606321D01*
X98208608Y-79613055D01*
X98135426Y-79635254D01*
X98047522Y-79682240D01*
X97970474Y-79745472D01*
X97954630Y-79764778D01*
X97591167Y-80128242D01*
X97514069Y-80096307D01*
X97276243Y-80049000D01*
X97033757Y-80049000D01*
X96795931Y-80096307D01*
X96571903Y-80189102D01*
X96370283Y-80323820D01*
X96198820Y-80495283D01*
X96064102Y-80696903D01*
X95971307Y-80920931D01*
X95924000Y-81158757D01*
X95924000Y-81401243D01*
X95971307Y-81639069D01*
X96003242Y-81716167D01*
X95675409Y-82044000D01*
X94315023Y-82044000D01*
X94435898Y-81863097D01*
X94528693Y-81639069D01*
X94576000Y-81401243D01*
X94576000Y-81158757D01*
X94528693Y-80920931D01*
X94435898Y-80696903D01*
X94301180Y-80495283D01*
X94296497Y-80490600D01*
X95885554Y-80490600D01*
X95910400Y-80493047D01*
X95935246Y-80490600D01*
X95935254Y-80490600D01*
X96009593Y-80483278D01*
X96104975Y-80454345D01*
X96192879Y-80407359D01*
X96269927Y-80344127D01*
X96285776Y-80324815D01*
X96718833Y-79891758D01*
X96795931Y-79923693D01*
X97033757Y-79971000D01*
X97276243Y-79971000D01*
X97514069Y-79923693D01*
X97738097Y-79830898D01*
X97939717Y-79696180D01*
X98111180Y-79524717D01*
X98245898Y-79323097D01*
X98338693Y-79099069D01*
X98386000Y-78861243D01*
X98386000Y-78618757D01*
X98338693Y-78380931D01*
X98306758Y-78303833D01*
X98539593Y-78070999D01*
X98661501Y-78070999D01*
X98604102Y-78156903D01*
G37*
%TD.AperFunction*%
D14*
X98604102Y-75616903D02*
X98511307Y-75840931D01*
X98464000Y-76078757D01*
X98464000Y-76321243D01*
X98511307Y-76559069D01*
X98604102Y-76783097D01*
X98738820Y-76984717D01*
X98813102Y-77058999D01*
X98354846Y-77058999D01*
X98330000Y-77056552D01*
X98305154Y-77058999D01*
X98305147Y-77058999D01*
X98240695Y-77065347D01*
X98230807Y-77066321D01*
X98208608Y-77073055D01*
X98135426Y-77095254D01*
X98047522Y-77142240D01*
X97970474Y-77205472D01*
X97954630Y-77224778D01*
X97591167Y-77588242D01*
X97514069Y-77556307D01*
X97276243Y-77509000D01*
X97033757Y-77509000D01*
X96795931Y-77556307D01*
X96571903Y-77649102D01*
X96370283Y-77783820D01*
X96198820Y-77955283D01*
X96064102Y-78156903D01*
X95971307Y-78380931D01*
X95924000Y-78618757D01*
X95924000Y-78861243D01*
X95971307Y-79099069D01*
X96003242Y-79176167D01*
X95700809Y-79478600D01*
X94331994Y-79478600D01*
X94435898Y-79323097D01*
X94528693Y-79099069D01*
X94576000Y-78861243D01*
X94576000Y-78618757D01*
X94528693Y-78380931D01*
X94435898Y-78156903D01*
X94301180Y-77955283D01*
X94296497Y-77950600D01*
X95885554Y-77950600D01*
X95910400Y-77953047D01*
X95935246Y-77950600D01*
X95935254Y-77950600D01*
X96009593Y-77943278D01*
X96104975Y-77914345D01*
X96192879Y-77867359D01*
X96269927Y-77804127D01*
X96285776Y-77784815D01*
X96718833Y-77351758D01*
X96795931Y-77383693D01*
X97033757Y-77431000D01*
X97276243Y-77431000D01*
X97514069Y-77383693D01*
X97738097Y-77290898D01*
X97939717Y-77156180D01*
X98111180Y-76984717D01*
X98245898Y-76783097D01*
X98338693Y-76559069D01*
X98386000Y-76321243D01*
X98386000Y-76078757D01*
X98338693Y-75840931D01*
X98306758Y-75763833D01*
X98539593Y-75530999D01*
X98661501Y-75530999D01*
X98604102Y-75616903D01*
%TA.AperFunction,Conductor*%
D15*
G36*
X98604102Y-75616903D02*
G01*
X98511307Y-75840931D01*
X98464000Y-76078757D01*
X98464000Y-76321243D01*
X98511307Y-76559069D01*
X98604102Y-76783097D01*
X98738820Y-76984717D01*
X98813102Y-77058999D01*
X98354846Y-77058999D01*
X98330000Y-77056552D01*
X98305154Y-77058999D01*
X98305147Y-77058999D01*
X98240695Y-77065347D01*
X98230807Y-77066321D01*
X98208608Y-77073055D01*
X98135426Y-77095254D01*
X98047522Y-77142240D01*
X97970474Y-77205472D01*
X97954630Y-77224778D01*
X97591167Y-77588242D01*
X97514069Y-77556307D01*
X97276243Y-77509000D01*
X97033757Y-77509000D01*
X96795931Y-77556307D01*
X96571903Y-77649102D01*
X96370283Y-77783820D01*
X96198820Y-77955283D01*
X96064102Y-78156903D01*
X95971307Y-78380931D01*
X95924000Y-78618757D01*
X95924000Y-78861243D01*
X95971307Y-79099069D01*
X96003242Y-79176167D01*
X95700809Y-79478600D01*
X94331994Y-79478600D01*
X94435898Y-79323097D01*
X94528693Y-79099069D01*
X94576000Y-78861243D01*
X94576000Y-78618757D01*
X94528693Y-78380931D01*
X94435898Y-78156903D01*
X94301180Y-77955283D01*
X94296497Y-77950600D01*
X95885554Y-77950600D01*
X95910400Y-77953047D01*
X95935246Y-77950600D01*
X95935254Y-77950600D01*
X96009593Y-77943278D01*
X96104975Y-77914345D01*
X96192879Y-77867359D01*
X96269927Y-77804127D01*
X96285776Y-77784815D01*
X96718833Y-77351758D01*
X96795931Y-77383693D01*
X97033757Y-77431000D01*
X97276243Y-77431000D01*
X97514069Y-77383693D01*
X97738097Y-77290898D01*
X97939717Y-77156180D01*
X98111180Y-76984717D01*
X98245898Y-76783097D01*
X98338693Y-76559069D01*
X98386000Y-76321243D01*
X98386000Y-76078757D01*
X98338693Y-75840931D01*
X98306758Y-75763833D01*
X98539593Y-75530999D01*
X98661501Y-75530999D01*
X98604102Y-75616903D01*
G37*
%TD.AperFunction*%
D14*
X96064102Y-75616903D02*
X95971307Y-75840931D01*
X95924000Y-76078757D01*
X95924000Y-76321243D01*
X95971307Y-76559069D01*
X96003242Y-76636167D01*
X95700809Y-76938600D01*
X94331994Y-76938600D01*
X94435898Y-76783097D01*
X94528693Y-76559069D01*
X94576000Y-76321243D01*
X94576000Y-76078757D01*
X94528693Y-75840931D01*
X94435898Y-75616903D01*
X94315023Y-75436000D01*
X96184977Y-75436000D01*
X96064102Y-75616903D01*
%TA.AperFunction,Conductor*%
D15*
G36*
X96064102Y-75616903D02*
G01*
X95971307Y-75840931D01*
X95924000Y-76078757D01*
X95924000Y-76321243D01*
X95971307Y-76559069D01*
X96003242Y-76636167D01*
X95700809Y-76938600D01*
X94331994Y-76938600D01*
X94435898Y-76783097D01*
X94528693Y-76559069D01*
X94576000Y-76321243D01*
X94576000Y-76078757D01*
X94528693Y-75840931D01*
X94435898Y-75616903D01*
X94315023Y-75436000D01*
X96184977Y-75436000D01*
X96064102Y-75616903D01*
G37*
%TD.AperFunction*%
D14*
X98604102Y-70536903D02*
X98511307Y-70760931D01*
X98464000Y-70998757D01*
X98464000Y-71241243D01*
X98511307Y-71479069D01*
X98604102Y-71703097D01*
X98738820Y-71904717D01*
X98813102Y-71978999D01*
X98354846Y-71978999D01*
X98330000Y-71976552D01*
X98305154Y-71978999D01*
X98305147Y-71978999D01*
X98240695Y-71985347D01*
X98230807Y-71986321D01*
X98208608Y-71993055D01*
X98135426Y-72015254D01*
X98047522Y-72062240D01*
X97970474Y-72125472D01*
X97954630Y-72144778D01*
X97591167Y-72508242D01*
X97514069Y-72476307D01*
X97276243Y-72429000D01*
X97033757Y-72429000D01*
X96795931Y-72476307D01*
X96571903Y-72569102D01*
X96370283Y-72703820D01*
X96198820Y-72875283D01*
X96064102Y-73076903D01*
X95971307Y-73300931D01*
X95924000Y-73538757D01*
X95924000Y-73781243D01*
X95971307Y-74019069D01*
X96064102Y-74243097D01*
X96168729Y-74399682D01*
X96144411Y-74424000D01*
X94315023Y-74424000D01*
X94435898Y-74243097D01*
X94528693Y-74019069D01*
X94576000Y-73781243D01*
X94576000Y-73538757D01*
X94528693Y-73300931D01*
X94435898Y-73076903D01*
X94301180Y-72875283D01*
X94226898Y-72801001D01*
X95955153Y-72801001D01*
X95979999Y-72803448D01*
X96004845Y-72801001D01*
X96004853Y-72801001D01*
X96079192Y-72793679D01*
X96174574Y-72764746D01*
X96262478Y-72717760D01*
X96339526Y-72654528D01*
X96355375Y-72635216D01*
X96718833Y-72271758D01*
X96795931Y-72303693D01*
X97033757Y-72351000D01*
X97276243Y-72351000D01*
X97514069Y-72303693D01*
X97738097Y-72210898D01*
X97939717Y-72076180D01*
X98111180Y-71904717D01*
X98245898Y-71703097D01*
X98338693Y-71479069D01*
X98386000Y-71241243D01*
X98386000Y-70998757D01*
X98338693Y-70760931D01*
X98306758Y-70683833D01*
X98539593Y-70450999D01*
X98661501Y-70450999D01*
X98604102Y-70536903D01*
%TA.AperFunction,Conductor*%
D15*
G36*
X98604102Y-70536903D02*
G01*
X98511307Y-70760931D01*
X98464000Y-70998757D01*
X98464000Y-71241243D01*
X98511307Y-71479069D01*
X98604102Y-71703097D01*
X98738820Y-71904717D01*
X98813102Y-71978999D01*
X98354846Y-71978999D01*
X98330000Y-71976552D01*
X98305154Y-71978999D01*
X98305147Y-71978999D01*
X98240695Y-71985347D01*
X98230807Y-71986321D01*
X98208608Y-71993055D01*
X98135426Y-72015254D01*
X98047522Y-72062240D01*
X97970474Y-72125472D01*
X97954630Y-72144778D01*
X97591167Y-72508242D01*
X97514069Y-72476307D01*
X97276243Y-72429000D01*
X97033757Y-72429000D01*
X96795931Y-72476307D01*
X96571903Y-72569102D01*
X96370283Y-72703820D01*
X96198820Y-72875283D01*
X96064102Y-73076903D01*
X95971307Y-73300931D01*
X95924000Y-73538757D01*
X95924000Y-73781243D01*
X95971307Y-74019069D01*
X96064102Y-74243097D01*
X96168729Y-74399682D01*
X96144411Y-74424000D01*
X94315023Y-74424000D01*
X94435898Y-74243097D01*
X94528693Y-74019069D01*
X94576000Y-73781243D01*
X94576000Y-73538757D01*
X94528693Y-73300931D01*
X94435898Y-73076903D01*
X94301180Y-72875283D01*
X94226898Y-72801001D01*
X95955153Y-72801001D01*
X95979999Y-72803448D01*
X96004845Y-72801001D01*
X96004853Y-72801001D01*
X96079192Y-72793679D01*
X96174574Y-72764746D01*
X96262478Y-72717760D01*
X96339526Y-72654528D01*
X96355375Y-72635216D01*
X96718833Y-72271758D01*
X96795931Y-72303693D01*
X97033757Y-72351000D01*
X97276243Y-72351000D01*
X97514069Y-72303693D01*
X97738097Y-72210898D01*
X97939717Y-72076180D01*
X98111180Y-71904717D01*
X98245898Y-71703097D01*
X98338693Y-71479069D01*
X98386000Y-71241243D01*
X98386000Y-70998757D01*
X98338693Y-70760931D01*
X98306758Y-70683833D01*
X98539593Y-70450999D01*
X98661501Y-70450999D01*
X98604102Y-70536903D01*
G37*
%TD.AperFunction*%
D14*
X98738820Y-67795283D02*
X98604102Y-67996903D01*
X98511307Y-68220931D01*
X98464000Y-68458757D01*
X98464000Y-68701243D01*
X98511307Y-68939069D01*
X98604102Y-69163097D01*
X98738820Y-69364717D01*
X98813102Y-69438999D01*
X98354846Y-69438999D01*
X98330000Y-69436552D01*
X98305154Y-69438999D01*
X98305147Y-69438999D01*
X98240695Y-69445347D01*
X98230807Y-69446321D01*
X98208608Y-69453055D01*
X98135426Y-69475254D01*
X98047522Y-69522240D01*
X97970474Y-69585472D01*
X97954630Y-69604778D01*
X97591167Y-69968242D01*
X97514069Y-69936307D01*
X97276243Y-69889000D01*
X97033757Y-69889000D01*
X96795931Y-69936307D01*
X96571903Y-70029102D01*
X96370283Y-70163820D01*
X96198820Y-70335283D01*
X96064102Y-70536903D01*
X95971307Y-70760931D01*
X95924000Y-70998757D01*
X95924000Y-71241243D01*
X95971307Y-71479069D01*
X96003242Y-71556167D01*
X95770408Y-71789001D01*
X94378499Y-71789001D01*
X94435898Y-71703097D01*
X94528693Y-71479069D01*
X94576000Y-71241243D01*
X94576000Y-70998757D01*
X94528693Y-70760931D01*
X94435898Y-70536903D01*
X94315023Y-70356000D01*
X95860154Y-70356000D01*
X95885000Y-70358447D01*
X95909846Y-70356000D01*
X95909854Y-70356000D01*
X95984193Y-70348678D01*
X96079575Y-70319745D01*
X96167479Y-70272759D01*
X96244527Y-70209527D01*
X96260376Y-70190215D01*
X96718833Y-69731758D01*
X96795931Y-69763693D01*
X97033757Y-69811000D01*
X97276243Y-69811000D01*
X97514069Y-69763693D01*
X97738097Y-69670898D01*
X97939717Y-69536180D01*
X98111180Y-69364717D01*
X98245898Y-69163097D01*
X98338693Y-68939069D01*
X98386000Y-68701243D01*
X98386000Y-68458757D01*
X98338693Y-68220931D01*
X98306758Y-68143833D01*
X98729591Y-67721001D01*
X98813102Y-67721001D01*
X98738820Y-67795283D01*
%TA.AperFunction,Conductor*%
D15*
G36*
X98738820Y-67795283D02*
G01*
X98604102Y-67996903D01*
X98511307Y-68220931D01*
X98464000Y-68458757D01*
X98464000Y-68701243D01*
X98511307Y-68939069D01*
X98604102Y-69163097D01*
X98738820Y-69364717D01*
X98813102Y-69438999D01*
X98354846Y-69438999D01*
X98330000Y-69436552D01*
X98305154Y-69438999D01*
X98305147Y-69438999D01*
X98240695Y-69445347D01*
X98230807Y-69446321D01*
X98208608Y-69453055D01*
X98135426Y-69475254D01*
X98047522Y-69522240D01*
X97970474Y-69585472D01*
X97954630Y-69604778D01*
X97591167Y-69968242D01*
X97514069Y-69936307D01*
X97276243Y-69889000D01*
X97033757Y-69889000D01*
X96795931Y-69936307D01*
X96571903Y-70029102D01*
X96370283Y-70163820D01*
X96198820Y-70335283D01*
X96064102Y-70536903D01*
X95971307Y-70760931D01*
X95924000Y-70998757D01*
X95924000Y-71241243D01*
X95971307Y-71479069D01*
X96003242Y-71556167D01*
X95770408Y-71789001D01*
X94378499Y-71789001D01*
X94435898Y-71703097D01*
X94528693Y-71479069D01*
X94576000Y-71241243D01*
X94576000Y-70998757D01*
X94528693Y-70760931D01*
X94435898Y-70536903D01*
X94315023Y-70356000D01*
X95860154Y-70356000D01*
X95885000Y-70358447D01*
X95909846Y-70356000D01*
X95909854Y-70356000D01*
X95984193Y-70348678D01*
X96079575Y-70319745D01*
X96167479Y-70272759D01*
X96244527Y-70209527D01*
X96260376Y-70190215D01*
X96718833Y-69731758D01*
X96795931Y-69763693D01*
X97033757Y-69811000D01*
X97276243Y-69811000D01*
X97514069Y-69763693D01*
X97738097Y-69670898D01*
X97939717Y-69536180D01*
X98111180Y-69364717D01*
X98245898Y-69163097D01*
X98338693Y-68939069D01*
X98386000Y-68701243D01*
X98386000Y-68458757D01*
X98338693Y-68220931D01*
X98306758Y-68143833D01*
X98729591Y-67721001D01*
X98813102Y-67721001D01*
X98738820Y-67795283D01*
G37*
%TD.AperFunction*%
D14*
X98604102Y-65456903D02*
X98511307Y-65680931D01*
X98464000Y-65918757D01*
X98464000Y-66161243D01*
X98511307Y-66399069D01*
X98604102Y-66623097D01*
X98661501Y-66709001D01*
X98544844Y-66709001D01*
X98519998Y-66706554D01*
X98495152Y-66709001D01*
X98495145Y-66709001D01*
X98430693Y-66715349D01*
X98420805Y-66716323D01*
X98325424Y-66745256D01*
X98237520Y-66792242D01*
X98160472Y-66855474D01*
X98144628Y-66874780D01*
X97591167Y-67428242D01*
X97514069Y-67396307D01*
X97276243Y-67349000D01*
X97033757Y-67349000D01*
X96795931Y-67396307D01*
X96571903Y-67489102D01*
X96370283Y-67623820D01*
X96198820Y-67795283D01*
X96064102Y-67996903D01*
X95971307Y-68220931D01*
X95924000Y-68458757D01*
X95924000Y-68701243D01*
X95971307Y-68939069D01*
X96003242Y-69016167D01*
X95675409Y-69344000D01*
X94315023Y-69344000D01*
X94435898Y-69163097D01*
X94528693Y-68939069D01*
X94576000Y-68701243D01*
X94576000Y-68458757D01*
X94528693Y-68220931D01*
X94435898Y-67996903D01*
X94315023Y-67816000D01*
X95860154Y-67816000D01*
X95885000Y-67818447D01*
X95909846Y-67816000D01*
X95909854Y-67816000D01*
X95984193Y-67808678D01*
X96079575Y-67779745D01*
X96167479Y-67732759D01*
X96244527Y-67669527D01*
X96260376Y-67650215D01*
X96718833Y-67191758D01*
X96795931Y-67223693D01*
X97033757Y-67271000D01*
X97276243Y-67271000D01*
X97514069Y-67223693D01*
X97738097Y-67130898D01*
X97939717Y-66996180D01*
X98111180Y-66824717D01*
X98245898Y-66623097D01*
X98338693Y-66399069D01*
X98386000Y-66161243D01*
X98386000Y-65918757D01*
X98338693Y-65680931D01*
X98306758Y-65603833D01*
X98539593Y-65370999D01*
X98661501Y-65370999D01*
X98604102Y-65456903D01*
%TA.AperFunction,Conductor*%
D15*
G36*
X98604102Y-65456903D02*
G01*
X98511307Y-65680931D01*
X98464000Y-65918757D01*
X98464000Y-66161243D01*
X98511307Y-66399069D01*
X98604102Y-66623097D01*
X98661501Y-66709001D01*
X98544844Y-66709001D01*
X98519998Y-66706554D01*
X98495152Y-66709001D01*
X98495145Y-66709001D01*
X98430693Y-66715349D01*
X98420805Y-66716323D01*
X98325424Y-66745256D01*
X98237520Y-66792242D01*
X98160472Y-66855474D01*
X98144628Y-66874780D01*
X97591167Y-67428242D01*
X97514069Y-67396307D01*
X97276243Y-67349000D01*
X97033757Y-67349000D01*
X96795931Y-67396307D01*
X96571903Y-67489102D01*
X96370283Y-67623820D01*
X96198820Y-67795283D01*
X96064102Y-67996903D01*
X95971307Y-68220931D01*
X95924000Y-68458757D01*
X95924000Y-68701243D01*
X95971307Y-68939069D01*
X96003242Y-69016167D01*
X95675409Y-69344000D01*
X94315023Y-69344000D01*
X94435898Y-69163097D01*
X94528693Y-68939069D01*
X94576000Y-68701243D01*
X94576000Y-68458757D01*
X94528693Y-68220931D01*
X94435898Y-67996903D01*
X94315023Y-67816000D01*
X95860154Y-67816000D01*
X95885000Y-67818447D01*
X95909846Y-67816000D01*
X95909854Y-67816000D01*
X95984193Y-67808678D01*
X96079575Y-67779745D01*
X96167479Y-67732759D01*
X96244527Y-67669527D01*
X96260376Y-67650215D01*
X96718833Y-67191758D01*
X96795931Y-67223693D01*
X97033757Y-67271000D01*
X97276243Y-67271000D01*
X97514069Y-67223693D01*
X97738097Y-67130898D01*
X97939717Y-66996180D01*
X98111180Y-66824717D01*
X98245898Y-66623097D01*
X98338693Y-66399069D01*
X98386000Y-66161243D01*
X98386000Y-65918757D01*
X98338693Y-65680931D01*
X98306758Y-65603833D01*
X98539593Y-65370999D01*
X98661501Y-65370999D01*
X98604102Y-65456903D01*
G37*
%TD.AperFunction*%
D14*
X98604102Y-62916903D02*
X98511307Y-63140931D01*
X98464000Y-63378757D01*
X98464000Y-63621243D01*
X98511307Y-63859069D01*
X98604102Y-64083097D01*
X98738820Y-64284717D01*
X98813102Y-64358999D01*
X98354846Y-64358999D01*
X98330000Y-64356552D01*
X98305154Y-64358999D01*
X98305147Y-64358999D01*
X98240695Y-64365347D01*
X98230807Y-64366321D01*
X98208608Y-64373055D01*
X98135426Y-64395254D01*
X98047522Y-64442240D01*
X97970474Y-64505472D01*
X97954630Y-64524778D01*
X97591167Y-64888242D01*
X97514069Y-64856307D01*
X97276243Y-64809000D01*
X97033757Y-64809000D01*
X96795931Y-64856307D01*
X96571903Y-64949102D01*
X96370283Y-65083820D01*
X96198820Y-65255283D01*
X96064102Y-65456903D01*
X95971307Y-65680931D01*
X95924000Y-65918757D01*
X95924000Y-66161243D01*
X95971307Y-66399069D01*
X96003242Y-66476167D01*
X95675409Y-66804000D01*
X94315023Y-66804000D01*
X94435898Y-66623097D01*
X94528693Y-66399069D01*
X94576000Y-66161243D01*
X94576000Y-65918757D01*
X94528693Y-65680931D01*
X94435898Y-65456903D01*
X94315023Y-65276000D01*
X95860154Y-65276000D01*
X95885000Y-65278447D01*
X95909846Y-65276000D01*
X95909854Y-65276000D01*
X95984193Y-65268678D01*
X96079575Y-65239745D01*
X96167479Y-65192759D01*
X96244527Y-65129527D01*
X96260376Y-65110215D01*
X96718833Y-64651758D01*
X96795931Y-64683693D01*
X97033757Y-64731000D01*
X97276243Y-64731000D01*
X97514069Y-64683693D01*
X97738097Y-64590898D01*
X97939717Y-64456180D01*
X98111180Y-64284717D01*
X98245898Y-64083097D01*
X98338693Y-63859069D01*
X98386000Y-63621243D01*
X98386000Y-63378757D01*
X98338693Y-63140931D01*
X98306758Y-63063833D01*
X98539593Y-62830999D01*
X98661501Y-62830999D01*
X98604102Y-62916903D01*
%TA.AperFunction,Conductor*%
D15*
G36*
X98604102Y-62916903D02*
G01*
X98511307Y-63140931D01*
X98464000Y-63378757D01*
X98464000Y-63621243D01*
X98511307Y-63859069D01*
X98604102Y-64083097D01*
X98738820Y-64284717D01*
X98813102Y-64358999D01*
X98354846Y-64358999D01*
X98330000Y-64356552D01*
X98305154Y-64358999D01*
X98305147Y-64358999D01*
X98240695Y-64365347D01*
X98230807Y-64366321D01*
X98208608Y-64373055D01*
X98135426Y-64395254D01*
X98047522Y-64442240D01*
X97970474Y-64505472D01*
X97954630Y-64524778D01*
X97591167Y-64888242D01*
X97514069Y-64856307D01*
X97276243Y-64809000D01*
X97033757Y-64809000D01*
X96795931Y-64856307D01*
X96571903Y-64949102D01*
X96370283Y-65083820D01*
X96198820Y-65255283D01*
X96064102Y-65456903D01*
X95971307Y-65680931D01*
X95924000Y-65918757D01*
X95924000Y-66161243D01*
X95971307Y-66399069D01*
X96003242Y-66476167D01*
X95675409Y-66804000D01*
X94315023Y-66804000D01*
X94435898Y-66623097D01*
X94528693Y-66399069D01*
X94576000Y-66161243D01*
X94576000Y-65918757D01*
X94528693Y-65680931D01*
X94435898Y-65456903D01*
X94315023Y-65276000D01*
X95860154Y-65276000D01*
X95885000Y-65278447D01*
X95909846Y-65276000D01*
X95909854Y-65276000D01*
X95984193Y-65268678D01*
X96079575Y-65239745D01*
X96167479Y-65192759D01*
X96244527Y-65129527D01*
X96260376Y-65110215D01*
X96718833Y-64651758D01*
X96795931Y-64683693D01*
X97033757Y-64731000D01*
X97276243Y-64731000D01*
X97514069Y-64683693D01*
X97738097Y-64590898D01*
X97939717Y-64456180D01*
X98111180Y-64284717D01*
X98245898Y-64083097D01*
X98338693Y-63859069D01*
X98386000Y-63621243D01*
X98386000Y-63378757D01*
X98338693Y-63140931D01*
X98306758Y-63063833D01*
X98539593Y-62830999D01*
X98661501Y-62830999D01*
X98604102Y-62916903D01*
G37*
%TD.AperFunction*%
D14*
X98604102Y-60376903D02*
X98511307Y-60600931D01*
X98464000Y-60838757D01*
X98464000Y-61081243D01*
X98511307Y-61319069D01*
X98604102Y-61543097D01*
X98738820Y-61744717D01*
X98813102Y-61818999D01*
X98354846Y-61818999D01*
X98330000Y-61816552D01*
X98305154Y-61818999D01*
X98305147Y-61818999D01*
X98240695Y-61825347D01*
X98230807Y-61826321D01*
X98208608Y-61833055D01*
X98135426Y-61855254D01*
X98047522Y-61902240D01*
X97970474Y-61965472D01*
X97954630Y-61984778D01*
X97591167Y-62348242D01*
X97514069Y-62316307D01*
X97276243Y-62269000D01*
X97033757Y-62269000D01*
X96795931Y-62316307D01*
X96571903Y-62409102D01*
X96370283Y-62543820D01*
X96198820Y-62715283D01*
X96064102Y-62916903D01*
X95971307Y-63140931D01*
X95924000Y-63378757D01*
X95924000Y-63621243D01*
X95971307Y-63859069D01*
X96003242Y-63936167D01*
X95675409Y-64264000D01*
X94315023Y-64264000D01*
X94435898Y-64083097D01*
X94528693Y-63859069D01*
X94576000Y-63621243D01*
X94576000Y-63378757D01*
X94528693Y-63140931D01*
X94435898Y-62916903D01*
X94301180Y-62715283D01*
X94296497Y-62710600D01*
X95885554Y-62710600D01*
X95910400Y-62713047D01*
X95935246Y-62710600D01*
X95935254Y-62710600D01*
X96009593Y-62703278D01*
X96104975Y-62674345D01*
X96192879Y-62627359D01*
X96269927Y-62564127D01*
X96285776Y-62544815D01*
X96718833Y-62111758D01*
X96795931Y-62143693D01*
X97033757Y-62191000D01*
X97276243Y-62191000D01*
X97514069Y-62143693D01*
X97738097Y-62050898D01*
X97939717Y-61916180D01*
X98111180Y-61744717D01*
X98245898Y-61543097D01*
X98338693Y-61319069D01*
X98386000Y-61081243D01*
X98386000Y-60838757D01*
X98338693Y-60600931D01*
X98306758Y-60523833D01*
X98539593Y-60290999D01*
X98661501Y-60290999D01*
X98604102Y-60376903D01*
%TA.AperFunction,Conductor*%
D15*
G36*
X98604102Y-60376903D02*
G01*
X98511307Y-60600931D01*
X98464000Y-60838757D01*
X98464000Y-61081243D01*
X98511307Y-61319069D01*
X98604102Y-61543097D01*
X98738820Y-61744717D01*
X98813102Y-61818999D01*
X98354846Y-61818999D01*
X98330000Y-61816552D01*
X98305154Y-61818999D01*
X98305147Y-61818999D01*
X98240695Y-61825347D01*
X98230807Y-61826321D01*
X98208608Y-61833055D01*
X98135426Y-61855254D01*
X98047522Y-61902240D01*
X97970474Y-61965472D01*
X97954630Y-61984778D01*
X97591167Y-62348242D01*
X97514069Y-62316307D01*
X97276243Y-62269000D01*
X97033757Y-62269000D01*
X96795931Y-62316307D01*
X96571903Y-62409102D01*
X96370283Y-62543820D01*
X96198820Y-62715283D01*
X96064102Y-62916903D01*
X95971307Y-63140931D01*
X95924000Y-63378757D01*
X95924000Y-63621243D01*
X95971307Y-63859069D01*
X96003242Y-63936167D01*
X95675409Y-64264000D01*
X94315023Y-64264000D01*
X94435898Y-64083097D01*
X94528693Y-63859069D01*
X94576000Y-63621243D01*
X94576000Y-63378757D01*
X94528693Y-63140931D01*
X94435898Y-62916903D01*
X94301180Y-62715283D01*
X94296497Y-62710600D01*
X95885554Y-62710600D01*
X95910400Y-62713047D01*
X95935246Y-62710600D01*
X95935254Y-62710600D01*
X96009593Y-62703278D01*
X96104975Y-62674345D01*
X96192879Y-62627359D01*
X96269927Y-62564127D01*
X96285776Y-62544815D01*
X96718833Y-62111758D01*
X96795931Y-62143693D01*
X97033757Y-62191000D01*
X97276243Y-62191000D01*
X97514069Y-62143693D01*
X97738097Y-62050898D01*
X97939717Y-61916180D01*
X98111180Y-61744717D01*
X98245898Y-61543097D01*
X98338693Y-61319069D01*
X98386000Y-61081243D01*
X98386000Y-60838757D01*
X98338693Y-60600931D01*
X98306758Y-60523833D01*
X98539593Y-60290999D01*
X98661501Y-60290999D01*
X98604102Y-60376903D01*
G37*
%TD.AperFunction*%
D14*
X98604102Y-57836903D02*
X98511307Y-58060931D01*
X98464000Y-58298757D01*
X98464000Y-58541243D01*
X98511307Y-58779069D01*
X98604102Y-59003097D01*
X98738820Y-59204717D01*
X98813102Y-59278999D01*
X98354846Y-59278999D01*
X98330000Y-59276552D01*
X98305154Y-59278999D01*
X98305147Y-59278999D01*
X98240695Y-59285347D01*
X98230807Y-59286321D01*
X98208608Y-59293055D01*
X98135426Y-59315254D01*
X98047522Y-59362240D01*
X97970474Y-59425472D01*
X97954630Y-59444778D01*
X97591167Y-59808242D01*
X97514069Y-59776307D01*
X97276243Y-59729000D01*
X97033757Y-59729000D01*
X96795931Y-59776307D01*
X96571903Y-59869102D01*
X96370283Y-60003820D01*
X96198820Y-60175283D01*
X96064102Y-60376903D01*
X95971307Y-60600931D01*
X95924000Y-60838757D01*
X95924000Y-61081243D01*
X95971307Y-61319069D01*
X96003242Y-61396167D01*
X95700809Y-61698600D01*
X94331994Y-61698600D01*
X94435898Y-61543097D01*
X94528693Y-61319069D01*
X94576000Y-61081243D01*
X94576000Y-60838757D01*
X94528693Y-60600931D01*
X94435898Y-60376903D01*
X94315023Y-60196000D01*
X95860154Y-60196000D01*
X95885000Y-60198447D01*
X95909846Y-60196000D01*
X95909854Y-60196000D01*
X95984193Y-60188678D01*
X96079575Y-60159745D01*
X96167479Y-60112759D01*
X96244527Y-60049527D01*
X96260376Y-60030215D01*
X96718833Y-59571758D01*
X96795931Y-59603693D01*
X97033757Y-59651000D01*
X97276243Y-59651000D01*
X97514069Y-59603693D01*
X97738097Y-59510898D01*
X97939717Y-59376180D01*
X98111180Y-59204717D01*
X98245898Y-59003097D01*
X98338693Y-58779069D01*
X98386000Y-58541243D01*
X98386000Y-58298757D01*
X98338693Y-58060931D01*
X98306758Y-57983833D01*
X98539593Y-57750999D01*
X98661501Y-57750999D01*
X98604102Y-57836903D01*
%TA.AperFunction,Conductor*%
D15*
G36*
X98604102Y-57836903D02*
G01*
X98511307Y-58060931D01*
X98464000Y-58298757D01*
X98464000Y-58541243D01*
X98511307Y-58779069D01*
X98604102Y-59003097D01*
X98738820Y-59204717D01*
X98813102Y-59278999D01*
X98354846Y-59278999D01*
X98330000Y-59276552D01*
X98305154Y-59278999D01*
X98305147Y-59278999D01*
X98240695Y-59285347D01*
X98230807Y-59286321D01*
X98208608Y-59293055D01*
X98135426Y-59315254D01*
X98047522Y-59362240D01*
X97970474Y-59425472D01*
X97954630Y-59444778D01*
X97591167Y-59808242D01*
X97514069Y-59776307D01*
X97276243Y-59729000D01*
X97033757Y-59729000D01*
X96795931Y-59776307D01*
X96571903Y-59869102D01*
X96370283Y-60003820D01*
X96198820Y-60175283D01*
X96064102Y-60376903D01*
X95971307Y-60600931D01*
X95924000Y-60838757D01*
X95924000Y-61081243D01*
X95971307Y-61319069D01*
X96003242Y-61396167D01*
X95700809Y-61698600D01*
X94331994Y-61698600D01*
X94435898Y-61543097D01*
X94528693Y-61319069D01*
X94576000Y-61081243D01*
X94576000Y-60838757D01*
X94528693Y-60600931D01*
X94435898Y-60376903D01*
X94315023Y-60196000D01*
X95860154Y-60196000D01*
X95885000Y-60198447D01*
X95909846Y-60196000D01*
X95909854Y-60196000D01*
X95984193Y-60188678D01*
X96079575Y-60159745D01*
X96167479Y-60112759D01*
X96244527Y-60049527D01*
X96260376Y-60030215D01*
X96718833Y-59571758D01*
X96795931Y-59603693D01*
X97033757Y-59651000D01*
X97276243Y-59651000D01*
X97514069Y-59603693D01*
X97738097Y-59510898D01*
X97939717Y-59376180D01*
X98111180Y-59204717D01*
X98245898Y-59003097D01*
X98338693Y-58779069D01*
X98386000Y-58541243D01*
X98386000Y-58298757D01*
X98338693Y-58060931D01*
X98306758Y-57983833D01*
X98539593Y-57750999D01*
X98661501Y-57750999D01*
X98604102Y-57836903D01*
G37*
%TD.AperFunction*%
D14*
X98629761Y-50183039D02*
X98529866Y-50402712D01*
X98505511Y-50483020D01*
X98566373Y-50673000D01*
X99568000Y-50673000D01*
X99568000Y-50653000D01*
X99822000Y-50653000D01*
X99822000Y-50673000D01*
X99842000Y-50673000D01*
X99842000Y-50927000D01*
X99822000Y-50927000D01*
X99822000Y-50947000D01*
X99568000Y-50947000D01*
X99568000Y-50927000D01*
X98566373Y-50927000D01*
X98505511Y-51116980D01*
X98529866Y-51197288D01*
X98629761Y-51416961D01*
X98667160Y-51469001D01*
X98544844Y-51469001D01*
X98519998Y-51466554D01*
X98495152Y-51469001D01*
X98495145Y-51469001D01*
X98430693Y-51475349D01*
X98420805Y-51476323D01*
X98325424Y-51505256D01*
X98237520Y-51552242D01*
X98160472Y-51615474D01*
X98144628Y-51634780D01*
X97591167Y-52188242D01*
X97514069Y-52156307D01*
X97276243Y-52109000D01*
X97033757Y-52109000D01*
X96795931Y-52156307D01*
X96571903Y-52249102D01*
X96370283Y-52383820D01*
X96198820Y-52555283D01*
X96064102Y-52756903D01*
X95971307Y-52980931D01*
X95924000Y-53218757D01*
X95924000Y-53461243D01*
X95971307Y-53699069D01*
X96003242Y-53776167D01*
X95700809Y-54078600D01*
X94331994Y-54078600D01*
X94435898Y-53923097D01*
X94528693Y-53699069D01*
X94576000Y-53461243D01*
X94576000Y-53218757D01*
X94528693Y-52980931D01*
X94435898Y-52756903D01*
X94301180Y-52555283D01*
X94296497Y-52550600D01*
X95885554Y-52550600D01*
X95910400Y-52553047D01*
X95935246Y-52550600D01*
X95935254Y-52550600D01*
X96009593Y-52543278D01*
X96104975Y-52514345D01*
X96192879Y-52467359D01*
X96269927Y-52404127D01*
X96285776Y-52384815D01*
X96718833Y-51951758D01*
X96795931Y-51983693D01*
X97033757Y-52031000D01*
X97276243Y-52031000D01*
X97514069Y-51983693D01*
X97738097Y-51890898D01*
X97939717Y-51756180D01*
X98111180Y-51584717D01*
X98245898Y-51383097D01*
X98338693Y-51159069D01*
X98386000Y-50921243D01*
X98386000Y-50678757D01*
X98338693Y-50440931D01*
X98306758Y-50363833D01*
X98539593Y-50130999D01*
X98667160Y-50130999D01*
X98629761Y-50183039D01*
%TA.AperFunction,Conductor*%
D15*
G36*
X98629761Y-50183039D02*
G01*
X98529866Y-50402712D01*
X98505511Y-50483020D01*
X98566373Y-50673000D01*
X99568000Y-50673000D01*
X99568000Y-50653000D01*
X99822000Y-50653000D01*
X99822000Y-50673000D01*
X99842000Y-50673000D01*
X99842000Y-50927000D01*
X99822000Y-50927000D01*
X99822000Y-50947000D01*
X99568000Y-50947000D01*
X99568000Y-50927000D01*
X98566373Y-50927000D01*
X98505511Y-51116980D01*
X98529866Y-51197288D01*
X98629761Y-51416961D01*
X98667160Y-51469001D01*
X98544844Y-51469001D01*
X98519998Y-51466554D01*
X98495152Y-51469001D01*
X98495145Y-51469001D01*
X98430693Y-51475349D01*
X98420805Y-51476323D01*
X98325424Y-51505256D01*
X98237520Y-51552242D01*
X98160472Y-51615474D01*
X98144628Y-51634780D01*
X97591167Y-52188242D01*
X97514069Y-52156307D01*
X97276243Y-52109000D01*
X97033757Y-52109000D01*
X96795931Y-52156307D01*
X96571903Y-52249102D01*
X96370283Y-52383820D01*
X96198820Y-52555283D01*
X96064102Y-52756903D01*
X95971307Y-52980931D01*
X95924000Y-53218757D01*
X95924000Y-53461243D01*
X95971307Y-53699069D01*
X96003242Y-53776167D01*
X95700809Y-54078600D01*
X94331994Y-54078600D01*
X94435898Y-53923097D01*
X94528693Y-53699069D01*
X94576000Y-53461243D01*
X94576000Y-53218757D01*
X94528693Y-52980931D01*
X94435898Y-52756903D01*
X94301180Y-52555283D01*
X94296497Y-52550600D01*
X95885554Y-52550600D01*
X95910400Y-52553047D01*
X95935246Y-52550600D01*
X95935254Y-52550600D01*
X96009593Y-52543278D01*
X96104975Y-52514345D01*
X96192879Y-52467359D01*
X96269927Y-52404127D01*
X96285776Y-52384815D01*
X96718833Y-51951758D01*
X96795931Y-51983693D01*
X97033757Y-52031000D01*
X97276243Y-52031000D01*
X97514069Y-51983693D01*
X97738097Y-51890898D01*
X97939717Y-51756180D01*
X98111180Y-51584717D01*
X98245898Y-51383097D01*
X98338693Y-51159069D01*
X98386000Y-50921243D01*
X98386000Y-50678757D01*
X98338693Y-50440931D01*
X98306758Y-50363833D01*
X98539593Y-50130999D01*
X98667160Y-50130999D01*
X98629761Y-50183039D01*
G37*
%TD.AperFunction*%
D14*
X97591167Y-47108242D02*
X97514069Y-47076307D01*
X97276243Y-47029000D01*
X97033757Y-47029000D01*
X96795931Y-47076307D01*
X96571903Y-47169102D01*
X96370283Y-47303820D01*
X96198820Y-47475283D01*
X96064102Y-47676903D01*
X95971307Y-47900931D01*
X95924000Y-48138757D01*
X95924000Y-48381243D01*
X95971307Y-48619069D01*
X96003242Y-48696167D01*
X95675409Y-49024000D01*
X94315023Y-49024000D01*
X94435898Y-48843097D01*
X94528693Y-48619069D01*
X94576000Y-48381243D01*
X94576000Y-48138757D01*
X94528693Y-47900931D01*
X94435898Y-47676903D01*
X94315023Y-47496000D01*
X95860154Y-47496000D01*
X95885000Y-47498447D01*
X95909846Y-47496000D01*
X95909854Y-47496000D01*
X95984193Y-47488678D01*
X96079575Y-47459745D01*
X96167479Y-47412759D01*
X96244527Y-47349527D01*
X96260376Y-47330215D01*
X96637748Y-46952843D01*
X97746565Y-46952843D01*
X97591167Y-47108242D01*
%TA.AperFunction,Conductor*%
D15*
G36*
X97591167Y-47108242D02*
G01*
X97514069Y-47076307D01*
X97276243Y-47029000D01*
X97033757Y-47029000D01*
X96795931Y-47076307D01*
X96571903Y-47169102D01*
X96370283Y-47303820D01*
X96198820Y-47475283D01*
X96064102Y-47676903D01*
X95971307Y-47900931D01*
X95924000Y-48138757D01*
X95924000Y-48381243D01*
X95971307Y-48619069D01*
X96003242Y-48696167D01*
X95675409Y-49024000D01*
X94315023Y-49024000D01*
X94435898Y-48843097D01*
X94528693Y-48619069D01*
X94576000Y-48381243D01*
X94576000Y-48138757D01*
X94528693Y-47900931D01*
X94435898Y-47676903D01*
X94315023Y-47496000D01*
X95860154Y-47496000D01*
X95885000Y-47498447D01*
X95909846Y-47496000D01*
X95909854Y-47496000D01*
X95984193Y-47488678D01*
X96079575Y-47459745D01*
X96167479Y-47412759D01*
X96244527Y-47349527D01*
X96260376Y-47330215D01*
X96637748Y-46952843D01*
X97746565Y-46952843D01*
X97591167Y-47108242D01*
G37*
%TD.AperFunction*%
%TD*%
M02*
