M48
; DRILL file {KiCad (5.1.9)-1} date 04/11/21 18:01:05
; FORMAT={-:-/ absolute / inch / decimal}
; #@! TF.CreationDate,2021-04-11T18:01:05+01:00
; #@! TF.GenerationSoftware,Kicad,Pcbnew,(5.1.9)-1
; #@! TF.FileFunction,Plated,1,2,PTH
FMAT,2
INCH
T1C0.0157
T2C0.0394
%
G90
G05
T1
X3.75Y-1.8
X3.75Y-1.9
X3.75Y-2.0
X3.75Y-2.1
X3.75Y-2.2
X3.75Y-2.3
X3.75Y-2.4
X3.75Y-2.5
X3.75Y-2.6
X3.75Y-2.7
X3.75Y-2.8
X3.75Y-2.9
X3.75Y-3.0
X3.75Y-3.1
X3.75Y-3.2
X3.75Y-3.3
X3.75Y-3.4
X3.75Y-3.5
X3.75Y-3.6
X3.75Y-3.7
X4.018Y-3.555
T2
X3.575Y-1.8
X3.575Y-1.9
X3.575Y-2.0
X3.575Y-2.1
X3.575Y-2.2
X3.575Y-2.3
X3.575Y-2.4
X3.575Y-2.5
X3.575Y-2.6
X3.575Y-2.7
X3.575Y-2.8
X3.575Y-2.9
X3.575Y-3.0
X3.575Y-3.1
X3.575Y-3.2
X3.575Y-3.3
X3.575Y-3.4
X3.575Y-3.5
X3.575Y-3.6
X3.575Y-3.7
X3.675Y-1.8
X3.675Y-1.9
X3.675Y-2.0
X3.675Y-2.1
X3.675Y-2.2
X3.675Y-2.3
X3.675Y-2.4
X3.675Y-2.5
X3.675Y-2.6
X3.675Y-2.7
X3.675Y-2.8
X3.675Y-2.9
X3.675Y-3.0
X3.675Y-3.1
X3.675Y-3.2
X3.675Y-3.3
X3.675Y-3.4
X3.675Y-3.5
X3.675Y-3.6
X3.675Y-3.7
X3.825Y-1.8
X3.825Y-1.9
X3.825Y-2.0
X3.825Y-2.1
X3.825Y-2.2
X3.825Y-2.3
X3.825Y-2.4
X3.825Y-2.5
X3.825Y-2.6
X3.825Y-2.7
X3.825Y-2.8
X3.825Y-2.9
X3.825Y-3.0
X3.825Y-3.1
X3.825Y-3.2
X3.825Y-3.3
X3.825Y-3.4
X3.825Y-3.5
X3.825Y-3.6
X3.825Y-3.7
X3.925Y-1.8
X3.925Y-1.9
X3.925Y-2.0
X3.925Y-2.1
X3.925Y-2.2
X3.925Y-2.3
X3.925Y-2.4
X3.925Y-2.5
X3.925Y-2.6
X3.925Y-2.7
X3.925Y-2.8
X3.925Y-2.9
X3.925Y-3.0
X3.925Y-3.1
X3.925Y-3.2
X3.925Y-3.3
X3.925Y-3.4
X3.925Y-3.5
X3.925Y-3.6
X3.925Y-3.7
X4.075Y-1.6
X4.075Y-1.7
X4.075Y-1.8
X4.075Y-1.9
X4.075Y-2.0
X4.075Y-2.1
X4.075Y-2.2
X4.075Y-2.3
X4.075Y-2.4
X4.075Y-2.5
X4.075Y-2.6
X4.075Y-2.7
X4.075Y-2.8
X4.075Y-2.9
X4.075Y-3.0
X4.075Y-3.1
X4.075Y-3.2
X4.075Y-3.3
X4.075Y-3.4
X4.075Y-3.5
X4.175Y-1.6
X4.175Y-1.7
X4.175Y-1.8
X4.175Y-1.9
X4.175Y-2.0
X4.175Y-2.1
X4.175Y-2.2
X4.175Y-2.3
X4.175Y-2.4
X4.175Y-2.5
X4.175Y-2.6
X4.175Y-2.7
X4.175Y-2.8
X4.175Y-2.9
X4.175Y-3.0
X4.175Y-3.1
X4.175Y-3.2
X4.175Y-3.3
X4.175Y-3.4
X4.175Y-3.5
T0
M30
