G04 #@! TF.GenerationSoftware,KiCad,Pcbnew,(5.1.9)-1*
G04 #@! TF.CreationDate,2021-03-21T08:25:55+00:00*
G04 #@! TF.ProjectId,RGBtoHDMI Amiga Denise - solarmon,52474274-6f48-4444-9d49-20416d696761,1*
G04 #@! TF.SameCoordinates,Original*
G04 #@! TF.FileFunction,Soldermask,Bot*
G04 #@! TF.FilePolarity,Negative*
%FSLAX46Y46*%
G04 Gerber Fmt 4.6, Leading zero omitted, Abs format (unit mm)*
G04 Created by KiCad (PCBNEW (5.1.9)-1) date 2021-03-21 08:25:55*
%MOMM*%
%LPD*%
G01*
G04 APERTURE LIST*
%ADD10O,1.900000X1.900000*%
%ADD11O,2.000000X2.000000*%
%ADD12C,1.900000*%
G04 APERTURE END LIST*
D10*
X105283000Y-80391000D03*
X107823000Y-80391000D03*
X110363000Y-80391000D03*
X112903000Y-80391000D03*
X115443000Y-80391000D03*
X117983000Y-80391000D03*
X120523000Y-80391000D03*
X123063000Y-80391000D03*
X125603000Y-80391000D03*
X128143000Y-80391000D03*
X130683000Y-80391000D03*
X133223000Y-80391000D03*
X135763000Y-80391000D03*
X138303000Y-80391000D03*
X140843000Y-80391000D03*
X143383000Y-80391000D03*
X145923000Y-80391000D03*
X148463000Y-80391000D03*
X151003000Y-80391000D03*
X153543000Y-80391000D03*
X156083000Y-80391000D03*
X158623000Y-80391000D03*
X161163000Y-80391000D03*
G36*
G01*
X164503000Y-81341000D02*
X162903000Y-81341000D01*
G75*
G02*
X162753000Y-81191000I0J150000D01*
G01*
X162753000Y-79591000D01*
G75*
G02*
X162903000Y-79441000I150000J0D01*
G01*
X164503000Y-79441000D01*
G75*
G02*
X164653000Y-79591000I0J-150000D01*
G01*
X164653000Y-81191000D01*
G75*
G02*
X164503000Y-81341000I-150000J0D01*
G01*
G37*
X105283000Y-65151000D03*
X107823000Y-65151000D03*
X110363000Y-65151000D03*
X112903000Y-65151000D03*
X115443000Y-65151000D03*
X117983000Y-65151000D03*
X120523000Y-65151000D03*
X123063000Y-65151000D03*
X125603000Y-65151000D03*
X128143000Y-65151000D03*
X130683000Y-65151000D03*
X133223000Y-65151000D03*
X135763000Y-65151000D03*
X138303000Y-65151000D03*
X140843000Y-65151000D03*
X143383000Y-65151000D03*
X145923000Y-65151000D03*
X148463000Y-65151000D03*
X151003000Y-65151000D03*
X153543000Y-65151000D03*
X156083000Y-65151000D03*
X158623000Y-65151000D03*
X161163000Y-65151000D03*
G36*
G01*
X164503000Y-66101000D02*
X162903000Y-66101000D01*
G75*
G02*
X162753000Y-65951000I0J150000D01*
G01*
X162753000Y-64351000D01*
G75*
G02*
X162903000Y-64201000I150000J0D01*
G01*
X164503000Y-64201000D01*
G75*
G02*
X164653000Y-64351000I0J-150000D01*
G01*
X164653000Y-65951000D01*
G75*
G02*
X164503000Y-66101000I-150000J0D01*
G01*
G37*
D11*
X206248000Y-80391000D03*
X206248000Y-77851000D03*
X206248000Y-75311000D03*
X206248000Y-72771000D03*
X206248000Y-70231000D03*
G36*
G01*
X205248000Y-68541000D02*
X205248000Y-66841000D01*
G75*
G02*
X205398000Y-66691000I150000J0D01*
G01*
X207098000Y-66691000D01*
G75*
G02*
X207248000Y-66841000I0J-150000D01*
G01*
X207248000Y-68541000D01*
G75*
G02*
X207098000Y-68691000I-150000J0D01*
G01*
X205398000Y-68691000D01*
G75*
G02*
X205248000Y-68541000I0J150000D01*
G01*
G37*
G36*
G01*
X171108000Y-72914000D02*
X172808000Y-72914000D01*
G75*
G02*
X172958000Y-73064000I0J-150000D01*
G01*
X172958000Y-74764000D01*
G75*
G02*
X172808000Y-74914000I-150000J0D01*
G01*
X171108000Y-74914000D01*
G75*
G02*
X170958000Y-74764000I0J150000D01*
G01*
X170958000Y-73064000D01*
G75*
G02*
X171108000Y-72914000I150000J0D01*
G01*
G37*
X169418000Y-73914000D03*
X166878000Y-73914000D03*
X175768000Y-73914000D03*
G36*
G01*
X177458000Y-72914000D02*
X179158000Y-72914000D01*
G75*
G02*
X179308000Y-73064000I0J-150000D01*
G01*
X179308000Y-74764000D01*
G75*
G02*
X179158000Y-74914000I-150000J0D01*
G01*
X177458000Y-74914000D01*
G75*
G02*
X177308000Y-74764000I0J150000D01*
G01*
X177308000Y-73064000D01*
G75*
G02*
X177458000Y-72914000I150000J0D01*
G01*
G37*
X190373000Y-42291000D03*
X190373000Y-44831000D03*
G36*
G01*
X191373000Y-46521000D02*
X191373000Y-48221000D01*
G75*
G02*
X191223000Y-48371000I-150000J0D01*
G01*
X189523000Y-48371000D01*
G75*
G02*
X189373000Y-48221000I0J150000D01*
G01*
X189373000Y-46521000D01*
G75*
G02*
X189523000Y-46371000I150000J0D01*
G01*
X191223000Y-46371000D01*
G75*
G02*
X191373000Y-46521000I0J-150000D01*
G01*
G37*
G36*
G01*
X162903000Y-56581000D02*
X164503000Y-56581000D01*
G75*
G02*
X164653000Y-56731000I0J-150000D01*
G01*
X164653000Y-58331000D01*
G75*
G02*
X164503000Y-58481000I-150000J0D01*
G01*
X162903000Y-58481000D01*
G75*
G02*
X162753000Y-58331000I0J150000D01*
G01*
X162753000Y-56731000D01*
G75*
G02*
X162903000Y-56581000I150000J0D01*
G01*
G37*
D10*
X135763000Y-72771000D03*
X161163000Y-57531000D03*
X138303000Y-72771000D03*
X158623000Y-57531000D03*
X140843000Y-72771000D03*
X156083000Y-57531000D03*
X143383000Y-72771000D03*
X153543000Y-57531000D03*
X145923000Y-72771000D03*
X151003000Y-57531000D03*
X148463000Y-72771000D03*
X148463000Y-57531000D03*
X151003000Y-72771000D03*
X145923000Y-57531000D03*
X153543000Y-72771000D03*
X143383000Y-57531000D03*
X156083000Y-72771000D03*
X140843000Y-57531000D03*
X158623000Y-72771000D03*
X138303000Y-57531000D03*
X161163000Y-72771000D03*
X135763000Y-57531000D03*
X163703000Y-72771000D03*
D12*
X133223000Y-57531000D03*
D10*
X105283000Y-72771000D03*
X130683000Y-57531000D03*
X107823000Y-72771000D03*
X128143000Y-57531000D03*
X110363000Y-72771000D03*
X125603000Y-57531000D03*
X112903000Y-72771000D03*
X123063000Y-57531000D03*
X115443000Y-72771000D03*
X120523000Y-57531000D03*
X117983000Y-72771000D03*
X117983000Y-57531000D03*
X120523000Y-72771000D03*
X115443000Y-57531000D03*
X123063000Y-72771000D03*
X112903000Y-57531000D03*
X125603000Y-72771000D03*
X110363000Y-57531000D03*
X128143000Y-72771000D03*
X107823000Y-57531000D03*
X130683000Y-72771000D03*
X105283000Y-57531000D03*
X133223000Y-72771000D03*
M02*
