G04 #@! TF.GenerationSoftware,KiCad,Pcbnew,(5.1.9)-1*
G04 #@! TF.CreationDate,2021-03-21T08:25:55+00:00*
G04 #@! TF.ProjectId,RGBtoHDMI Amiga Denise - solarmon,52474274-6f48-4444-9d49-20416d696761,1*
G04 #@! TF.SameCoordinates,Original*
G04 #@! TF.FileFunction,Legend,Top*
G04 #@! TF.FilePolarity,Positive*
%FSLAX46Y46*%
G04 Gerber Fmt 4.6, Leading zero omitted, Abs format (unit mm)*
G04 Created by KiCad (PCBNEW (5.1.9)-1) date 2021-03-21 08:25:55*
%MOMM*%
%LPD*%
G01*
G04 APERTURE LIST*
%ADD10C,0.150000*%
%ADD11C,0.187500*%
%ADD12C,0.125000*%
%ADD13C,0.500000*%
%ADD14C,0.400000*%
%ADD15C,0.200000*%
%ADD16C,0.120000*%
%ADD17C,0.100000*%
G04 APERTURE END LIST*
D10*
X203708000Y-77851000D02*
X203581000Y-77851000D01*
X203708000Y-75311000D02*
X203581000Y-75311000D01*
X203708000Y-72771000D02*
X203581000Y-72771000D01*
X194083000Y-42562428D02*
X193883000Y-42276714D01*
X193740142Y-42562428D02*
X193740142Y-41962428D01*
X193968714Y-41962428D01*
X194025857Y-41991000D01*
X194054428Y-42019571D01*
X194083000Y-42076714D01*
X194083000Y-42162428D01*
X194054428Y-42219571D01*
X194025857Y-42248142D01*
X193968714Y-42276714D01*
X193740142Y-42276714D01*
X194311571Y-42019571D02*
X194340142Y-41991000D01*
X194397285Y-41962428D01*
X194540142Y-41962428D01*
X194597285Y-41991000D01*
X194625857Y-42019571D01*
X194654428Y-42076714D01*
X194654428Y-42133857D01*
X194625857Y-42219571D01*
X194283000Y-42562428D01*
X194654428Y-42562428D01*
X204243000Y-40022428D02*
X204043000Y-39736714D01*
X203900142Y-40022428D02*
X203900142Y-39422428D01*
X204128714Y-39422428D01*
X204185857Y-39451000D01*
X204214428Y-39479571D01*
X204243000Y-39536714D01*
X204243000Y-39622428D01*
X204214428Y-39679571D01*
X204185857Y-39708142D01*
X204128714Y-39736714D01*
X203900142Y-39736714D01*
X204443000Y-39422428D02*
X204814428Y-39422428D01*
X204614428Y-39651000D01*
X204700142Y-39651000D01*
X204757285Y-39679571D01*
X204785857Y-39708142D01*
X204814428Y-39765285D01*
X204814428Y-39908142D01*
X204785857Y-39965285D01*
X204757285Y-39993857D01*
X204700142Y-40022428D01*
X204528714Y-40022428D01*
X204471571Y-39993857D01*
X204443000Y-39965285D01*
X204214428Y-41991000D02*
X204157285Y-41962428D01*
X204071571Y-41962428D01*
X203985857Y-41991000D01*
X203928714Y-42048142D01*
X203900142Y-42105285D01*
X203871571Y-42219571D01*
X203871571Y-42305285D01*
X203900142Y-42419571D01*
X203928714Y-42476714D01*
X203985857Y-42533857D01*
X204071571Y-42562428D01*
X204128714Y-42562428D01*
X204214428Y-42533857D01*
X204243000Y-42505285D01*
X204243000Y-42305285D01*
X204128714Y-42305285D01*
X204614428Y-41962428D02*
X204671571Y-41962428D01*
X204728714Y-41991000D01*
X204757285Y-42019571D01*
X204785857Y-42076714D01*
X204814428Y-42191000D01*
X204814428Y-42333857D01*
X204785857Y-42448142D01*
X204757285Y-42505285D01*
X204728714Y-42533857D01*
X204671571Y-42562428D01*
X204614428Y-42562428D01*
X204557285Y-42533857D01*
X204528714Y-42505285D01*
X204500142Y-42448142D01*
X204471571Y-42333857D01*
X204471571Y-42191000D01*
X204500142Y-42076714D01*
X204528714Y-42019571D01*
X204557285Y-41991000D01*
X204614428Y-41962428D01*
X204100142Y-44788142D02*
X204185857Y-44816714D01*
X204214428Y-44845285D01*
X204243000Y-44902428D01*
X204243000Y-44988142D01*
X204214428Y-45045285D01*
X204185857Y-45073857D01*
X204128714Y-45102428D01*
X203900142Y-45102428D01*
X203900142Y-44502428D01*
X204100142Y-44502428D01*
X204157285Y-44531000D01*
X204185857Y-44559571D01*
X204214428Y-44616714D01*
X204214428Y-44673857D01*
X204185857Y-44731000D01*
X204157285Y-44759571D01*
X204100142Y-44788142D01*
X203900142Y-44788142D01*
X204443000Y-44502428D02*
X204814428Y-44502428D01*
X204614428Y-44731000D01*
X204700142Y-44731000D01*
X204757285Y-44759571D01*
X204785857Y-44788142D01*
X204814428Y-44845285D01*
X204814428Y-44988142D01*
X204785857Y-45045285D01*
X204757285Y-45073857D01*
X204700142Y-45102428D01*
X204528714Y-45102428D01*
X204471571Y-45073857D01*
X204443000Y-45045285D01*
X194054428Y-49611000D02*
X193997285Y-49582428D01*
X193911571Y-49582428D01*
X193825857Y-49611000D01*
X193768714Y-49668142D01*
X193740142Y-49725285D01*
X193711571Y-49839571D01*
X193711571Y-49925285D01*
X193740142Y-50039571D01*
X193768714Y-50096714D01*
X193825857Y-50153857D01*
X193911571Y-50182428D01*
X193968714Y-50182428D01*
X194054428Y-50153857D01*
X194083000Y-50125285D01*
X194083000Y-49925285D01*
X193968714Y-49925285D01*
X194654428Y-50182428D02*
X194311571Y-50182428D01*
X194483000Y-50182428D02*
X194483000Y-49582428D01*
X194425857Y-49668142D01*
X194368714Y-49725285D01*
X194311571Y-49753857D01*
X194054428Y-52151000D02*
X193997285Y-52122428D01*
X193911571Y-52122428D01*
X193825857Y-52151000D01*
X193768714Y-52208142D01*
X193740142Y-52265285D01*
X193711571Y-52379571D01*
X193711571Y-52465285D01*
X193740142Y-52579571D01*
X193768714Y-52636714D01*
X193825857Y-52693857D01*
X193911571Y-52722428D01*
X193968714Y-52722428D01*
X194054428Y-52693857D01*
X194083000Y-52665285D01*
X194083000Y-52465285D01*
X193968714Y-52465285D01*
X194311571Y-52179571D02*
X194340142Y-52151000D01*
X194397285Y-52122428D01*
X194540142Y-52122428D01*
X194597285Y-52151000D01*
X194625857Y-52179571D01*
X194654428Y-52236714D01*
X194654428Y-52293857D01*
X194625857Y-52379571D01*
X194283000Y-52722428D01*
X194654428Y-52722428D01*
X204214428Y-54691000D02*
X204157285Y-54662428D01*
X204071571Y-54662428D01*
X203985857Y-54691000D01*
X203928714Y-54748142D01*
X203900142Y-54805285D01*
X203871571Y-54919571D01*
X203871571Y-55005285D01*
X203900142Y-55119571D01*
X203928714Y-55176714D01*
X203985857Y-55233857D01*
X204071571Y-55262428D01*
X204128714Y-55262428D01*
X204214428Y-55233857D01*
X204243000Y-55205285D01*
X204243000Y-55005285D01*
X204128714Y-55005285D01*
X204443000Y-54662428D02*
X204814428Y-54662428D01*
X204614428Y-54891000D01*
X204700142Y-54891000D01*
X204757285Y-54919571D01*
X204785857Y-54948142D01*
X204814428Y-55005285D01*
X204814428Y-55148142D01*
X204785857Y-55205285D01*
X204757285Y-55233857D01*
X204700142Y-55262428D01*
X204528714Y-55262428D01*
X204471571Y-55233857D01*
X204443000Y-55205285D01*
X204243000Y-57802428D02*
X204043000Y-57516714D01*
X203900142Y-57802428D02*
X203900142Y-57202428D01*
X204128714Y-57202428D01*
X204185857Y-57231000D01*
X204214428Y-57259571D01*
X204243000Y-57316714D01*
X204243000Y-57402428D01*
X204214428Y-57459571D01*
X204185857Y-57488142D01*
X204128714Y-57516714D01*
X203900142Y-57516714D01*
X204614428Y-57202428D02*
X204671571Y-57202428D01*
X204728714Y-57231000D01*
X204757285Y-57259571D01*
X204785857Y-57316714D01*
X204814428Y-57431000D01*
X204814428Y-57573857D01*
X204785857Y-57688142D01*
X204757285Y-57745285D01*
X204728714Y-57773857D01*
X204671571Y-57802428D01*
X204614428Y-57802428D01*
X204557285Y-57773857D01*
X204528714Y-57745285D01*
X204500142Y-57688142D01*
X204471571Y-57573857D01*
X204471571Y-57431000D01*
X204500142Y-57316714D01*
X204528714Y-57259571D01*
X204557285Y-57231000D01*
X204614428Y-57202428D01*
X204100142Y-77808142D02*
X204185857Y-77836714D01*
X204214428Y-77865285D01*
X204243000Y-77922428D01*
X204243000Y-78008142D01*
X204214428Y-78065285D01*
X204185857Y-78093857D01*
X204128714Y-78122428D01*
X203900142Y-78122428D01*
X203900142Y-77522428D01*
X204100142Y-77522428D01*
X204157285Y-77551000D01*
X204185857Y-77579571D01*
X204214428Y-77636714D01*
X204214428Y-77693857D01*
X204185857Y-77751000D01*
X204157285Y-77779571D01*
X204100142Y-77808142D01*
X203900142Y-77808142D01*
X204614428Y-77522428D02*
X204671571Y-77522428D01*
X204728714Y-77551000D01*
X204757285Y-77579571D01*
X204785857Y-77636714D01*
X204814428Y-77751000D01*
X204814428Y-77893857D01*
X204785857Y-78008142D01*
X204757285Y-78065285D01*
X204728714Y-78093857D01*
X204671571Y-78122428D01*
X204614428Y-78122428D01*
X204557285Y-78093857D01*
X204528714Y-78065285D01*
X204500142Y-78008142D01*
X204471571Y-77893857D01*
X204471571Y-77751000D01*
X204500142Y-77636714D01*
X204528714Y-77579571D01*
X204557285Y-77551000D01*
X204614428Y-77522428D01*
X204100142Y-75395142D02*
X204185857Y-75423714D01*
X204214428Y-75452285D01*
X204243000Y-75509428D01*
X204243000Y-75595142D01*
X204214428Y-75652285D01*
X204185857Y-75680857D01*
X204128714Y-75709428D01*
X203900142Y-75709428D01*
X203900142Y-75109428D01*
X204100142Y-75109428D01*
X204157285Y-75138000D01*
X204185857Y-75166571D01*
X204214428Y-75223714D01*
X204214428Y-75280857D01*
X204185857Y-75338000D01*
X204157285Y-75366571D01*
X204100142Y-75395142D01*
X203900142Y-75395142D01*
X204814428Y-75709428D02*
X204471571Y-75709428D01*
X204643000Y-75709428D02*
X204643000Y-75109428D01*
X204585857Y-75195142D01*
X204528714Y-75252285D01*
X204471571Y-75280857D01*
X204100142Y-72728142D02*
X204185857Y-72756714D01*
X204214428Y-72785285D01*
X204243000Y-72842428D01*
X204243000Y-72928142D01*
X204214428Y-72985285D01*
X204185857Y-73013857D01*
X204128714Y-73042428D01*
X203900142Y-73042428D01*
X203900142Y-72442428D01*
X204100142Y-72442428D01*
X204157285Y-72471000D01*
X204185857Y-72499571D01*
X204214428Y-72556714D01*
X204214428Y-72613857D01*
X204185857Y-72671000D01*
X204157285Y-72699571D01*
X204100142Y-72728142D01*
X203900142Y-72728142D01*
X204471571Y-72499571D02*
X204500142Y-72471000D01*
X204557285Y-72442428D01*
X204700142Y-72442428D01*
X204757285Y-72471000D01*
X204785857Y-72499571D01*
X204814428Y-72556714D01*
X204814428Y-72613857D01*
X204785857Y-72699571D01*
X204443000Y-73042428D01*
X204814428Y-73042428D01*
X204216000Y-67691000D02*
X203708000Y-67691000D01*
X204216000Y-67691000D02*
X204216000Y-67183000D01*
X202438142Y-66819428D02*
X202438142Y-66219428D01*
X202666714Y-66219428D01*
X202723857Y-66248000D01*
X202752428Y-66276571D01*
X202781000Y-66333714D01*
X202781000Y-66419428D01*
X202752428Y-66476571D01*
X202723857Y-66505142D01*
X202666714Y-66533714D01*
X202438142Y-66533714D01*
X203038142Y-66819428D02*
X203038142Y-66419428D01*
X203038142Y-66219428D02*
X203009571Y-66248000D01*
X203038142Y-66276571D01*
X203066714Y-66248000D01*
X203038142Y-66219428D01*
X203038142Y-66276571D01*
X203666714Y-66762285D02*
X203638142Y-66790857D01*
X203552428Y-66819428D01*
X203495285Y-66819428D01*
X203409571Y-66790857D01*
X203352428Y-66733714D01*
X203323857Y-66676571D01*
X203295285Y-66562285D01*
X203295285Y-66476571D01*
X203323857Y-66362285D01*
X203352428Y-66305142D01*
X203409571Y-66248000D01*
X203495285Y-66219428D01*
X203552428Y-66219428D01*
X203638142Y-66248000D01*
X203666714Y-66276571D01*
X204209571Y-66819428D02*
X203923857Y-66819428D01*
X203923857Y-66219428D01*
X204409571Y-66819428D02*
X204409571Y-66219428D01*
X204752428Y-66819428D02*
X204495285Y-66476571D01*
X204752428Y-66219428D02*
X204409571Y-66562285D01*
X194818000Y-62611000D02*
X194056000Y-62611000D01*
X194056000Y-62103000D02*
X194056000Y-62611000D01*
D11*
X192107571Y-61807285D02*
X192107571Y-61057285D01*
X192393285Y-61057285D01*
X192464714Y-61093000D01*
X192500428Y-61128714D01*
X192536142Y-61200142D01*
X192536142Y-61307285D01*
X192500428Y-61378714D01*
X192464714Y-61414428D01*
X192393285Y-61450142D01*
X192107571Y-61450142D01*
X192857571Y-61807285D02*
X192857571Y-61307285D01*
X192857571Y-61057285D02*
X192821857Y-61093000D01*
X192857571Y-61128714D01*
X192893285Y-61093000D01*
X192857571Y-61057285D01*
X192857571Y-61128714D01*
X193179000Y-61771571D02*
X193286142Y-61807285D01*
X193464714Y-61807285D01*
X193536142Y-61771571D01*
X193571857Y-61735857D01*
X193607571Y-61664428D01*
X193607571Y-61593000D01*
X193571857Y-61521571D01*
X193536142Y-61485857D01*
X193464714Y-61450142D01*
X193321857Y-61414428D01*
X193250428Y-61378714D01*
X193214714Y-61343000D01*
X193179000Y-61271571D01*
X193179000Y-61200142D01*
X193214714Y-61128714D01*
X193250428Y-61093000D01*
X193321857Y-61057285D01*
X193500428Y-61057285D01*
X193607571Y-61093000D01*
X194071857Y-61450142D02*
X194071857Y-61807285D01*
X193821857Y-61057285D02*
X194071857Y-61450142D01*
X194321857Y-61057285D01*
X194571857Y-61807285D02*
X194571857Y-61057285D01*
X195000428Y-61807285D01*
X195000428Y-61057285D01*
X195786142Y-61735857D02*
X195750428Y-61771571D01*
X195643285Y-61807285D01*
X195571857Y-61807285D01*
X195464714Y-61771571D01*
X195393285Y-61700142D01*
X195357571Y-61628714D01*
X195321857Y-61485857D01*
X195321857Y-61378714D01*
X195357571Y-61235857D01*
X195393285Y-61164428D01*
X195464714Y-61093000D01*
X195571857Y-61057285D01*
X195643285Y-61057285D01*
X195750428Y-61093000D01*
X195786142Y-61128714D01*
D10*
X194818000Y-75311000D02*
X194056000Y-75311000D01*
X194056000Y-75311000D02*
X194056000Y-74803000D01*
D11*
X193738571Y-73666000D02*
X193667142Y-73630285D01*
X193560000Y-73630285D01*
X193452857Y-73666000D01*
X193381428Y-73737428D01*
X193345714Y-73808857D01*
X193310000Y-73951714D01*
X193310000Y-74058857D01*
X193345714Y-74201714D01*
X193381428Y-74273142D01*
X193452857Y-74344571D01*
X193560000Y-74380285D01*
X193631428Y-74380285D01*
X193738571Y-74344571D01*
X193774285Y-74308857D01*
X193774285Y-74058857D01*
X193631428Y-74058857D01*
X194095714Y-74380285D02*
X194095714Y-73630285D01*
X194524285Y-74380285D01*
X194524285Y-73630285D01*
X194881428Y-74380285D02*
X194881428Y-73630285D01*
X195060000Y-73630285D01*
X195167142Y-73666000D01*
X195238571Y-73737428D01*
X195274285Y-73808857D01*
X195310000Y-73951714D01*
X195310000Y-74058857D01*
X195274285Y-74201714D01*
X195238571Y-74273142D01*
X195167142Y-74344571D01*
X195060000Y-74380285D01*
X194881428Y-74380285D01*
D10*
X204597000Y-70231000D02*
X204089000Y-70231000D01*
X204597000Y-70739000D02*
X204597000Y-70231000D01*
D11*
X203390571Y-71126000D02*
X203319142Y-71090285D01*
X203212000Y-71090285D01*
X203104857Y-71126000D01*
X203033428Y-71197428D01*
X202997714Y-71268857D01*
X202962000Y-71411714D01*
X202962000Y-71518857D01*
X202997714Y-71661714D01*
X203033428Y-71733142D01*
X203104857Y-71804571D01*
X203212000Y-71840285D01*
X203283428Y-71840285D01*
X203390571Y-71804571D01*
X203426285Y-71768857D01*
X203426285Y-71518857D01*
X203283428Y-71518857D01*
X203747714Y-71840285D02*
X203747714Y-71090285D01*
X204176285Y-71840285D01*
X204176285Y-71090285D01*
X204533428Y-71840285D02*
X204533428Y-71090285D01*
X204712000Y-71090285D01*
X204819142Y-71126000D01*
X204890571Y-71197428D01*
X204926285Y-71268857D01*
X204962000Y-71411714D01*
X204962000Y-71518857D01*
X204926285Y-71661714D01*
X204890571Y-71733142D01*
X204819142Y-71804571D01*
X204712000Y-71840285D01*
X204533428Y-71840285D01*
D10*
X194183000Y-65659000D02*
X194183000Y-65151000D01*
X194945000Y-65151000D02*
X194183000Y-65151000D01*
D11*
X193865571Y-66046000D02*
X193794142Y-66010285D01*
X193687000Y-66010285D01*
X193579857Y-66046000D01*
X193508428Y-66117428D01*
X193472714Y-66188857D01*
X193437000Y-66331714D01*
X193437000Y-66438857D01*
X193472714Y-66581714D01*
X193508428Y-66653142D01*
X193579857Y-66724571D01*
X193687000Y-66760285D01*
X193758428Y-66760285D01*
X193865571Y-66724571D01*
X193901285Y-66688857D01*
X193901285Y-66438857D01*
X193758428Y-66438857D01*
X194222714Y-66760285D02*
X194222714Y-66010285D01*
X194651285Y-66760285D01*
X194651285Y-66010285D01*
X195008428Y-66760285D02*
X195008428Y-66010285D01*
X195187000Y-66010285D01*
X195294142Y-66046000D01*
X195365571Y-66117428D01*
X195401285Y-66188857D01*
X195437000Y-66331714D01*
X195437000Y-66438857D01*
X195401285Y-66581714D01*
X195365571Y-66653142D01*
X195294142Y-66724571D01*
X195187000Y-66760285D01*
X195008428Y-66760285D01*
X193103571Y-57156000D02*
X193032142Y-57120285D01*
X192925000Y-57120285D01*
X192817857Y-57156000D01*
X192746428Y-57227428D01*
X192710714Y-57298857D01*
X192675000Y-57441714D01*
X192675000Y-57548857D01*
X192710714Y-57691714D01*
X192746428Y-57763142D01*
X192817857Y-57834571D01*
X192925000Y-57870285D01*
X192996428Y-57870285D01*
X193103571Y-57834571D01*
X193139285Y-57798857D01*
X193139285Y-57548857D01*
X192996428Y-57548857D01*
X193460714Y-57870285D02*
X193460714Y-57120285D01*
X193889285Y-57870285D01*
X193889285Y-57120285D01*
X194246428Y-57870285D02*
X194246428Y-57120285D01*
X194425000Y-57120285D01*
X194532142Y-57156000D01*
X194603571Y-57227428D01*
X194639285Y-57298857D01*
X194675000Y-57441714D01*
X194675000Y-57548857D01*
X194639285Y-57691714D01*
X194603571Y-57763142D01*
X194532142Y-57834571D01*
X194425000Y-57870285D01*
X194246428Y-57870285D01*
D10*
X204470000Y-49911000D02*
X204470000Y-49403000D01*
X204470000Y-49911000D02*
X203708000Y-49911000D01*
D11*
X203898571Y-48266000D02*
X203827142Y-48230285D01*
X203720000Y-48230285D01*
X203612857Y-48266000D01*
X203541428Y-48337428D01*
X203505714Y-48408857D01*
X203470000Y-48551714D01*
X203470000Y-48658857D01*
X203505714Y-48801714D01*
X203541428Y-48873142D01*
X203612857Y-48944571D01*
X203720000Y-48980285D01*
X203791428Y-48980285D01*
X203898571Y-48944571D01*
X203934285Y-48908857D01*
X203934285Y-48658857D01*
X203791428Y-48658857D01*
X204255714Y-48980285D02*
X204255714Y-48230285D01*
X204684285Y-48980285D01*
X204684285Y-48230285D01*
X205041428Y-48980285D02*
X205041428Y-48230285D01*
X205220000Y-48230285D01*
X205327142Y-48266000D01*
X205398571Y-48337428D01*
X205434285Y-48408857D01*
X205470000Y-48551714D01*
X205470000Y-48658857D01*
X205434285Y-48801714D01*
X205398571Y-48873142D01*
X205327142Y-48944571D01*
X205220000Y-48980285D01*
X205041428Y-48980285D01*
X205041571Y-31756000D02*
X204970142Y-31720285D01*
X204863000Y-31720285D01*
X204755857Y-31756000D01*
X204684428Y-31827428D01*
X204648714Y-31898857D01*
X204613000Y-32041714D01*
X204613000Y-32148857D01*
X204648714Y-32291714D01*
X204684428Y-32363142D01*
X204755857Y-32434571D01*
X204863000Y-32470285D01*
X204934428Y-32470285D01*
X205041571Y-32434571D01*
X205077285Y-32398857D01*
X205077285Y-32148857D01*
X204934428Y-32148857D01*
X205398714Y-32470285D02*
X205398714Y-31720285D01*
X205827285Y-32470285D01*
X205827285Y-31720285D01*
X206184428Y-32470285D02*
X206184428Y-31720285D01*
X206363000Y-31720285D01*
X206470142Y-31756000D01*
X206541571Y-31827428D01*
X206577285Y-31898857D01*
X206613000Y-32041714D01*
X206613000Y-32148857D01*
X206577285Y-32291714D01*
X206541571Y-32363142D01*
X206470142Y-32434571D01*
X206363000Y-32470285D01*
X206184428Y-32470285D01*
D10*
X204470000Y-60579000D02*
X204470000Y-60071000D01*
X204470000Y-60071000D02*
X203708000Y-60071000D01*
D11*
X202767571Y-61394571D02*
X203339000Y-61394571D01*
X203053285Y-61680285D02*
X203053285Y-61108857D01*
X203624714Y-60930285D02*
X204089000Y-60930285D01*
X203839000Y-61216000D01*
X203946142Y-61216000D01*
X204017571Y-61251714D01*
X204053285Y-61287428D01*
X204089000Y-61358857D01*
X204089000Y-61537428D01*
X204053285Y-61608857D01*
X204017571Y-61644571D01*
X203946142Y-61680285D01*
X203731857Y-61680285D01*
X203660428Y-61644571D01*
X203624714Y-61608857D01*
X204303285Y-60930285D02*
X204553285Y-61680285D01*
X204803285Y-60930285D01*
X204981857Y-60930285D02*
X205446142Y-60930285D01*
X205196142Y-61216000D01*
X205303285Y-61216000D01*
X205374714Y-61251714D01*
X205410428Y-61287428D01*
X205446142Y-61358857D01*
X205446142Y-61537428D01*
X205410428Y-61608857D01*
X205374714Y-61644571D01*
X205303285Y-61680285D01*
X205089000Y-61680285D01*
X205017571Y-61644571D01*
X204981857Y-61608857D01*
X201243571Y-82349571D02*
X201815000Y-82349571D01*
X201529285Y-82635285D02*
X201529285Y-82063857D01*
X202100714Y-81885285D02*
X202565000Y-81885285D01*
X202315000Y-82171000D01*
X202422142Y-82171000D01*
X202493571Y-82206714D01*
X202529285Y-82242428D01*
X202565000Y-82313857D01*
X202565000Y-82492428D01*
X202529285Y-82563857D01*
X202493571Y-82599571D01*
X202422142Y-82635285D01*
X202207857Y-82635285D01*
X202136428Y-82599571D01*
X202100714Y-82563857D01*
X202779285Y-81885285D02*
X203029285Y-82635285D01*
X203279285Y-81885285D01*
X203457857Y-81885285D02*
X203922142Y-81885285D01*
X203672142Y-82171000D01*
X203779285Y-82171000D01*
X203850714Y-82206714D01*
X203886428Y-82242428D01*
X203922142Y-82313857D01*
X203922142Y-82492428D01*
X203886428Y-82563857D01*
X203850714Y-82599571D01*
X203779285Y-82635285D01*
X203565000Y-82635285D01*
X203493571Y-82599571D01*
X203457857Y-82563857D01*
X192837714Y-79174571D02*
X193409142Y-79174571D01*
X193123428Y-79460285D02*
X193123428Y-78888857D01*
X194123428Y-78710285D02*
X193766285Y-78710285D01*
X193730571Y-79067428D01*
X193766285Y-79031714D01*
X193837714Y-78996000D01*
X194016285Y-78996000D01*
X194087714Y-79031714D01*
X194123428Y-79067428D01*
X194159142Y-79138857D01*
X194159142Y-79317428D01*
X194123428Y-79388857D01*
X194087714Y-79424571D01*
X194016285Y-79460285D01*
X193837714Y-79460285D01*
X193766285Y-79424571D01*
X193730571Y-79388857D01*
X194373428Y-78710285D02*
X194623428Y-79460285D01*
X194873428Y-78710285D01*
X174327571Y-46292035D02*
X174327571Y-45542035D01*
X174756142Y-46292035D01*
X174756142Y-45542035D01*
X175220428Y-46292035D02*
X175149000Y-46256321D01*
X175113285Y-46220607D01*
X175077571Y-46149178D01*
X175077571Y-45934892D01*
X175113285Y-45863464D01*
X175149000Y-45827750D01*
X175220428Y-45792035D01*
X175327571Y-45792035D01*
X175399000Y-45827750D01*
X175434714Y-45863464D01*
X175470428Y-45934892D01*
X175470428Y-46149178D01*
X175434714Y-46220607D01*
X175399000Y-46256321D01*
X175327571Y-46292035D01*
X175220428Y-46292035D01*
X175791857Y-46292035D02*
X175791857Y-45792035D01*
X175791857Y-45934892D02*
X175827571Y-45863464D01*
X175863285Y-45827750D01*
X175934714Y-45792035D01*
X176006142Y-45792035D01*
X176256142Y-46292035D02*
X176256142Y-45792035D01*
X176256142Y-45863464D02*
X176291857Y-45827750D01*
X176363285Y-45792035D01*
X176470428Y-45792035D01*
X176541857Y-45827750D01*
X176577571Y-45899178D01*
X176577571Y-46292035D01*
X176577571Y-45899178D02*
X176613285Y-45827750D01*
X176684714Y-45792035D01*
X176791857Y-45792035D01*
X176863285Y-45827750D01*
X176899000Y-45899178D01*
X176899000Y-46292035D01*
X177577571Y-46292035D02*
X177577571Y-45899178D01*
X177541857Y-45827750D01*
X177470428Y-45792035D01*
X177327571Y-45792035D01*
X177256142Y-45827750D01*
X177577571Y-46256321D02*
X177506142Y-46292035D01*
X177327571Y-46292035D01*
X177256142Y-46256321D01*
X177220428Y-46184892D01*
X177220428Y-46113464D01*
X177256142Y-46042035D01*
X177327571Y-46006321D01*
X177506142Y-46006321D01*
X177577571Y-45970607D01*
X178041857Y-46292035D02*
X177970428Y-46256321D01*
X177934714Y-46184892D01*
X177934714Y-45542035D01*
X174720428Y-47604535D02*
X174720428Y-46854535D01*
X175006142Y-46854535D01*
X175077571Y-46890250D01*
X175113285Y-46925964D01*
X175149000Y-46997392D01*
X175149000Y-47104535D01*
X175113285Y-47175964D01*
X175077571Y-47211678D01*
X175006142Y-47247392D01*
X174720428Y-47247392D01*
X175470428Y-47604535D02*
X175470428Y-47104535D01*
X175470428Y-46854535D02*
X175434714Y-46890250D01*
X175470428Y-46925964D01*
X175506142Y-46890250D01*
X175470428Y-46854535D01*
X175470428Y-46925964D01*
X176256142Y-47533107D02*
X176220428Y-47568821D01*
X176113285Y-47604535D01*
X176041857Y-47604535D01*
X175934714Y-47568821D01*
X175863285Y-47497392D01*
X175827571Y-47425964D01*
X175791857Y-47283107D01*
X175791857Y-47175964D01*
X175827571Y-47033107D01*
X175863285Y-46961678D01*
X175934714Y-46890250D01*
X176041857Y-46854535D01*
X176113285Y-46854535D01*
X176220428Y-46890250D01*
X176256142Y-46925964D01*
X176934714Y-47604535D02*
X176577571Y-47604535D01*
X176577571Y-46854535D01*
X177184714Y-47604535D02*
X177184714Y-46854535D01*
X177613285Y-47604535D02*
X177291857Y-47175964D01*
X177613285Y-46854535D02*
X177184714Y-47283107D01*
X174022000Y-42609035D02*
X174022000Y-41859035D01*
X174200571Y-41859035D01*
X174307714Y-41894750D01*
X174379142Y-41966178D01*
X174414857Y-42037607D01*
X174450571Y-42180464D01*
X174450571Y-42287607D01*
X174414857Y-42430464D01*
X174379142Y-42501892D01*
X174307714Y-42573321D01*
X174200571Y-42609035D01*
X174022000Y-42609035D01*
X175057714Y-42573321D02*
X174986285Y-42609035D01*
X174843428Y-42609035D01*
X174772000Y-42573321D01*
X174736285Y-42501892D01*
X174736285Y-42216178D01*
X174772000Y-42144750D01*
X174843428Y-42109035D01*
X174986285Y-42109035D01*
X175057714Y-42144750D01*
X175093428Y-42216178D01*
X175093428Y-42287607D01*
X174736285Y-42359035D01*
X175522000Y-42609035D02*
X175450571Y-42573321D01*
X175414857Y-42501892D01*
X175414857Y-41859035D01*
X176129142Y-42609035D02*
X176129142Y-42216178D01*
X176093428Y-42144750D01*
X176022000Y-42109035D01*
X175879142Y-42109035D01*
X175807714Y-42144750D01*
X176129142Y-42573321D02*
X176057714Y-42609035D01*
X175879142Y-42609035D01*
X175807714Y-42573321D01*
X175772000Y-42501892D01*
X175772000Y-42430464D01*
X175807714Y-42359035D01*
X175879142Y-42323321D01*
X176057714Y-42323321D01*
X176129142Y-42287607D01*
X176414857Y-42109035D02*
X176593428Y-42609035D01*
X176772000Y-42109035D02*
X176593428Y-42609035D01*
X176522000Y-42787607D01*
X176486285Y-42823321D01*
X176414857Y-42859035D01*
X177343428Y-42573321D02*
X177272000Y-42609035D01*
X177129142Y-42609035D01*
X177057714Y-42573321D01*
X177022000Y-42501892D01*
X177022000Y-42216178D01*
X177057714Y-42144750D01*
X177129142Y-42109035D01*
X177272000Y-42109035D01*
X177343428Y-42144750D01*
X177379142Y-42216178D01*
X177379142Y-42287607D01*
X177022000Y-42359035D01*
X178022000Y-42609035D02*
X178022000Y-41859035D01*
X178022000Y-42573321D02*
X177950571Y-42609035D01*
X177807714Y-42609035D01*
X177736285Y-42573321D01*
X177700571Y-42537607D01*
X177664857Y-42466178D01*
X177664857Y-42251892D01*
X177700571Y-42180464D01*
X177736285Y-42144750D01*
X177807714Y-42109035D01*
X177950571Y-42109035D01*
X178022000Y-42144750D01*
X174593428Y-43921535D02*
X174593428Y-43171535D01*
X174879142Y-43171535D01*
X174950571Y-43207250D01*
X174986285Y-43242964D01*
X175022000Y-43314392D01*
X175022000Y-43421535D01*
X174986285Y-43492964D01*
X174950571Y-43528678D01*
X174879142Y-43564392D01*
X174593428Y-43564392D01*
X175343428Y-43921535D02*
X175343428Y-43421535D01*
X175343428Y-43171535D02*
X175307714Y-43207250D01*
X175343428Y-43242964D01*
X175379142Y-43207250D01*
X175343428Y-43171535D01*
X175343428Y-43242964D01*
X176129142Y-43850107D02*
X176093428Y-43885821D01*
X175986285Y-43921535D01*
X175914857Y-43921535D01*
X175807714Y-43885821D01*
X175736285Y-43814392D01*
X175700571Y-43742964D01*
X175664857Y-43600107D01*
X175664857Y-43492964D01*
X175700571Y-43350107D01*
X175736285Y-43278678D01*
X175807714Y-43207250D01*
X175914857Y-43171535D01*
X175986285Y-43171535D01*
X176093428Y-43207250D01*
X176129142Y-43242964D01*
X176807714Y-43921535D02*
X176450571Y-43921535D01*
X176450571Y-43171535D01*
X177057714Y-43921535D02*
X177057714Y-43171535D01*
X177486285Y-43921535D02*
X177164857Y-43492964D01*
X177486285Y-43171535D02*
X177057714Y-43600107D01*
X179323952Y-45069333D02*
X179228714Y-45069333D01*
X179038238Y-45164571D01*
X178943000Y-45355047D01*
X178943000Y-46307428D01*
X178847761Y-46497904D01*
X178657285Y-46593142D01*
X178847761Y-46688380D01*
X178943000Y-46878857D01*
X178943000Y-47831238D01*
X179038238Y-48021714D01*
X179228714Y-48116952D01*
X179323952Y-48116952D01*
X179323952Y-41386333D02*
X179228714Y-41386333D01*
X179038238Y-41481571D01*
X178943000Y-41672047D01*
X178943000Y-42624428D01*
X178847761Y-42814904D01*
X178657285Y-42910142D01*
X178847761Y-43005380D01*
X178943000Y-43195857D01*
X178943000Y-44148238D01*
X179038238Y-44338714D01*
X179228714Y-44433952D01*
X179323952Y-44433952D01*
X165846333Y-84836047D02*
X165846333Y-84931285D01*
X165941571Y-85121761D01*
X166132047Y-85217000D01*
X167084428Y-85217000D01*
X167274904Y-85312238D01*
X167370142Y-85502714D01*
X167465380Y-85312238D01*
X167655857Y-85217000D01*
X168608238Y-85217000D01*
X168798714Y-85121761D01*
X168893952Y-84931285D01*
X168893952Y-84836047D01*
X169529333Y-84836047D02*
X169529333Y-84931285D01*
X169624571Y-85121761D01*
X169815047Y-85217000D01*
X170767428Y-85217000D01*
X170957904Y-85312238D01*
X171053142Y-85502714D01*
X171148380Y-85312238D01*
X171338857Y-85217000D01*
X172291238Y-85217000D01*
X172481714Y-85121761D01*
X172576952Y-84931285D01*
X172576952Y-84836047D01*
X174919000Y-84772571D02*
X174919000Y-84915428D01*
X175061857Y-85201142D01*
X175347571Y-85344000D01*
X176776142Y-85344000D01*
X177061857Y-85486857D01*
X177204714Y-85772571D01*
X177347571Y-85486857D01*
X177633285Y-85344000D01*
X179061857Y-85344000D01*
X179347571Y-85201142D01*
X179490428Y-84915428D01*
X179490428Y-84772571D01*
X170708464Y-86096285D02*
X171458464Y-86096285D01*
X171458464Y-86274857D01*
X171422750Y-86382000D01*
X171351321Y-86453428D01*
X171279892Y-86489142D01*
X171137035Y-86524857D01*
X171029892Y-86524857D01*
X170887035Y-86489142D01*
X170815607Y-86453428D01*
X170744178Y-86382000D01*
X170708464Y-86274857D01*
X170708464Y-86096285D01*
X170744178Y-87132000D02*
X170708464Y-87060571D01*
X170708464Y-86917714D01*
X170744178Y-86846285D01*
X170815607Y-86810571D01*
X171101321Y-86810571D01*
X171172750Y-86846285D01*
X171208464Y-86917714D01*
X171208464Y-87060571D01*
X171172750Y-87132000D01*
X171101321Y-87167714D01*
X171029892Y-87167714D01*
X170958464Y-86810571D01*
X171208464Y-87489142D02*
X170708464Y-87489142D01*
X171137035Y-87489142D02*
X171172750Y-87524857D01*
X171208464Y-87596285D01*
X171208464Y-87703428D01*
X171172750Y-87774857D01*
X171101321Y-87810571D01*
X170708464Y-87810571D01*
X170708464Y-88167714D02*
X171208464Y-88167714D01*
X171458464Y-88167714D02*
X171422750Y-88132000D01*
X171387035Y-88167714D01*
X171422750Y-88203428D01*
X171458464Y-88167714D01*
X171387035Y-88167714D01*
X170744178Y-88489142D02*
X170708464Y-88560571D01*
X170708464Y-88703428D01*
X170744178Y-88774857D01*
X170815607Y-88810571D01*
X170851321Y-88810571D01*
X170922750Y-88774857D01*
X170958464Y-88703428D01*
X170958464Y-88596285D01*
X170994178Y-88524857D01*
X171065607Y-88489142D01*
X171101321Y-88489142D01*
X171172750Y-88524857D01*
X171208464Y-88596285D01*
X171208464Y-88703428D01*
X171172750Y-88774857D01*
X170744178Y-89417714D02*
X170708464Y-89346285D01*
X170708464Y-89203428D01*
X170744178Y-89132000D01*
X170815607Y-89096285D01*
X171101321Y-89096285D01*
X171172750Y-89132000D01*
X171208464Y-89203428D01*
X171208464Y-89346285D01*
X171172750Y-89417714D01*
X171101321Y-89453428D01*
X171029892Y-89453428D01*
X170958464Y-89096285D01*
X167611678Y-86310571D02*
X167575964Y-86417714D01*
X167575964Y-86596285D01*
X167611678Y-86667714D01*
X167647392Y-86703428D01*
X167718821Y-86739142D01*
X167790250Y-86739142D01*
X167861678Y-86703428D01*
X167897392Y-86667714D01*
X167933107Y-86596285D01*
X167968821Y-86453428D01*
X168004535Y-86382000D01*
X168040250Y-86346285D01*
X168111678Y-86310571D01*
X168183107Y-86310571D01*
X168254535Y-86346285D01*
X168290250Y-86382000D01*
X168325964Y-86453428D01*
X168325964Y-86632000D01*
X168290250Y-86739142D01*
X168075964Y-87382000D02*
X167575964Y-87382000D01*
X168075964Y-87060571D02*
X167683107Y-87060571D01*
X167611678Y-87096285D01*
X167575964Y-87167714D01*
X167575964Y-87274857D01*
X167611678Y-87346285D01*
X167647392Y-87382000D01*
X168075964Y-87739142D02*
X167325964Y-87739142D01*
X168040250Y-87739142D02*
X168075964Y-87810571D01*
X168075964Y-87953428D01*
X168040250Y-88024857D01*
X168004535Y-88060571D01*
X167933107Y-88096285D01*
X167718821Y-88096285D01*
X167647392Y-88060571D01*
X167611678Y-88024857D01*
X167575964Y-87953428D01*
X167575964Y-87810571D01*
X167611678Y-87739142D01*
X167611678Y-88703428D02*
X167575964Y-88632000D01*
X167575964Y-88489142D01*
X167611678Y-88417714D01*
X167683107Y-88382000D01*
X167968821Y-88382000D01*
X168040250Y-88417714D01*
X168075964Y-88489142D01*
X168075964Y-88632000D01*
X168040250Y-88703428D01*
X167968821Y-88739142D01*
X167897392Y-88739142D01*
X167825964Y-88382000D01*
X167575964Y-89060571D02*
X168075964Y-89060571D01*
X167933107Y-89060571D02*
X168004535Y-89096285D01*
X168040250Y-89132000D01*
X168075964Y-89203428D01*
X168075964Y-89274857D01*
X166263464Y-86096285D02*
X167013464Y-86096285D01*
X167013464Y-86274857D01*
X166977750Y-86382000D01*
X166906321Y-86453428D01*
X166834892Y-86489142D01*
X166692035Y-86524857D01*
X166584892Y-86524857D01*
X166442035Y-86489142D01*
X166370607Y-86453428D01*
X166299178Y-86382000D01*
X166263464Y-86274857D01*
X166263464Y-86096285D01*
X166299178Y-87132000D02*
X166263464Y-87060571D01*
X166263464Y-86917714D01*
X166299178Y-86846285D01*
X166370607Y-86810571D01*
X166656321Y-86810571D01*
X166727750Y-86846285D01*
X166763464Y-86917714D01*
X166763464Y-87060571D01*
X166727750Y-87132000D01*
X166656321Y-87167714D01*
X166584892Y-87167714D01*
X166513464Y-86810571D01*
X166763464Y-87489142D02*
X166263464Y-87489142D01*
X166692035Y-87489142D02*
X166727750Y-87524857D01*
X166763464Y-87596285D01*
X166763464Y-87703428D01*
X166727750Y-87774857D01*
X166656321Y-87810571D01*
X166263464Y-87810571D01*
X166263464Y-88167714D02*
X166763464Y-88167714D01*
X167013464Y-88167714D02*
X166977750Y-88132000D01*
X166942035Y-88167714D01*
X166977750Y-88203428D01*
X167013464Y-88167714D01*
X166942035Y-88167714D01*
X166299178Y-88489142D02*
X166263464Y-88560571D01*
X166263464Y-88703428D01*
X166299178Y-88774857D01*
X166370607Y-88810571D01*
X166406321Y-88810571D01*
X166477750Y-88774857D01*
X166513464Y-88703428D01*
X166513464Y-88596285D01*
X166549178Y-88524857D01*
X166620607Y-88489142D01*
X166656321Y-88489142D01*
X166727750Y-88524857D01*
X166763464Y-88596285D01*
X166763464Y-88703428D01*
X166727750Y-88774857D01*
X166299178Y-89417714D02*
X166263464Y-89346285D01*
X166263464Y-89203428D01*
X166299178Y-89132000D01*
X166370607Y-89096285D01*
X166656321Y-89096285D01*
X166727750Y-89132000D01*
X166763464Y-89203428D01*
X166763464Y-89346285D01*
X166727750Y-89417714D01*
X166656321Y-89453428D01*
X166584892Y-89453428D01*
X166513464Y-89096285D01*
X177345571Y-86491142D02*
X177309857Y-86598285D01*
X177274142Y-86634000D01*
X177202714Y-86669714D01*
X177095571Y-86669714D01*
X177024142Y-86634000D01*
X176988428Y-86598285D01*
X176952714Y-86526857D01*
X176952714Y-86241142D01*
X177702714Y-86241142D01*
X177702714Y-86491142D01*
X177667000Y-86562571D01*
X177631285Y-86598285D01*
X177559857Y-86634000D01*
X177488428Y-86634000D01*
X177417000Y-86598285D01*
X177381285Y-86562571D01*
X177345571Y-86491142D01*
X177345571Y-86241142D01*
X177452714Y-87312571D02*
X176952714Y-87312571D01*
X177452714Y-86991142D02*
X177059857Y-86991142D01*
X176988428Y-87026857D01*
X176952714Y-87098285D01*
X176952714Y-87205428D01*
X176988428Y-87276857D01*
X177024142Y-87312571D01*
X177452714Y-87562571D02*
X177452714Y-87848285D01*
X177702714Y-87669714D02*
X177059857Y-87669714D01*
X176988428Y-87705428D01*
X176952714Y-87776857D01*
X176952714Y-87848285D01*
X177452714Y-87991142D02*
X177452714Y-88276857D01*
X177702714Y-88098285D02*
X177059857Y-88098285D01*
X176988428Y-88134000D01*
X176952714Y-88205428D01*
X176952714Y-88276857D01*
X176952714Y-88634000D02*
X176988428Y-88562571D01*
X177024142Y-88526857D01*
X177095571Y-88491142D01*
X177309857Y-88491142D01*
X177381285Y-88526857D01*
X177417000Y-88562571D01*
X177452714Y-88634000D01*
X177452714Y-88741142D01*
X177417000Y-88812571D01*
X177381285Y-88848285D01*
X177309857Y-88884000D01*
X177095571Y-88884000D01*
X177024142Y-88848285D01*
X176988428Y-88812571D01*
X176952714Y-88741142D01*
X176952714Y-88634000D01*
X177452714Y-89205428D02*
X176952714Y-89205428D01*
X177381285Y-89205428D02*
X177417000Y-89241142D01*
X177452714Y-89312571D01*
X177452714Y-89419714D01*
X177417000Y-89491142D01*
X177345571Y-89526857D01*
X176952714Y-89526857D01*
D12*
X216858940Y-80426714D02*
X217239892Y-80426714D01*
X217477988Y-80283857D02*
X217858940Y-80426714D01*
X217477988Y-80569571D01*
X218739892Y-80141000D02*
X218692273Y-80117190D01*
X218620845Y-80117190D01*
X218549416Y-80141000D01*
X218501797Y-80188619D01*
X218477988Y-80236238D01*
X218454178Y-80331476D01*
X218454178Y-80402904D01*
X218477988Y-80498142D01*
X218501797Y-80545761D01*
X218549416Y-80593380D01*
X218620845Y-80617190D01*
X218668464Y-80617190D01*
X218739892Y-80593380D01*
X218763702Y-80569571D01*
X218763702Y-80402904D01*
X218668464Y-80402904D01*
X218977988Y-80617190D02*
X218977988Y-80117190D01*
X219263702Y-80617190D01*
X219263702Y-80117190D01*
X219501797Y-80617190D02*
X219501797Y-80117190D01*
X219620845Y-80117190D01*
X219692273Y-80141000D01*
X219739892Y-80188619D01*
X219763702Y-80236238D01*
X219787511Y-80331476D01*
X219787511Y-80402904D01*
X219763702Y-80498142D01*
X219739892Y-80545761D01*
X219692273Y-80593380D01*
X219620845Y-80617190D01*
X219501797Y-80617190D01*
X216858940Y-77886714D02*
X217239892Y-77886714D01*
X217477988Y-77743857D02*
X217858940Y-77886714D01*
X217477988Y-78029571D01*
X218477988Y-77886714D02*
X218858940Y-77886714D01*
X218668464Y-78077190D02*
X218668464Y-77696238D01*
X219335130Y-77577190D02*
X219097035Y-77577190D01*
X219073226Y-77815285D01*
X219097035Y-77791476D01*
X219144654Y-77767666D01*
X219263702Y-77767666D01*
X219311321Y-77791476D01*
X219335130Y-77815285D01*
X219358940Y-77862904D01*
X219358940Y-77981952D01*
X219335130Y-78029571D01*
X219311321Y-78053380D01*
X219263702Y-78077190D01*
X219144654Y-78077190D01*
X219097035Y-78053380D01*
X219073226Y-78029571D01*
X219501797Y-77577190D02*
X219668464Y-78077190D01*
X219835130Y-77577190D01*
X208325892Y-80141000D02*
X208278273Y-80117190D01*
X208206845Y-80117190D01*
X208135416Y-80141000D01*
X208087797Y-80188619D01*
X208063988Y-80236238D01*
X208040178Y-80331476D01*
X208040178Y-80402904D01*
X208063988Y-80498142D01*
X208087797Y-80545761D01*
X208135416Y-80593380D01*
X208206845Y-80617190D01*
X208254464Y-80617190D01*
X208325892Y-80593380D01*
X208349702Y-80569571D01*
X208349702Y-80402904D01*
X208254464Y-80402904D01*
X208563988Y-80617190D02*
X208563988Y-80117190D01*
X208849702Y-80617190D01*
X208849702Y-80117190D01*
X209087797Y-80617190D02*
X209087797Y-80117190D01*
X209206845Y-80117190D01*
X209278273Y-80141000D01*
X209325892Y-80188619D01*
X209349702Y-80236238D01*
X209373511Y-80331476D01*
X209373511Y-80402904D01*
X209349702Y-80498142D01*
X209325892Y-80545761D01*
X209278273Y-80593380D01*
X209206845Y-80617190D01*
X209087797Y-80617190D01*
X208063988Y-77886714D02*
X208444940Y-77886714D01*
X208254464Y-78077190D02*
X208254464Y-77696238D01*
X208921130Y-77577190D02*
X208683035Y-77577190D01*
X208659226Y-77815285D01*
X208683035Y-77791476D01*
X208730654Y-77767666D01*
X208849702Y-77767666D01*
X208897321Y-77791476D01*
X208921130Y-77815285D01*
X208944940Y-77862904D01*
X208944940Y-77981952D01*
X208921130Y-78029571D01*
X208897321Y-78053380D01*
X208849702Y-78077190D01*
X208730654Y-78077190D01*
X208683035Y-78053380D01*
X208659226Y-78029571D01*
X209087797Y-77577190D02*
X209254464Y-78077190D01*
X209421130Y-77577190D01*
D13*
X204416000Y-80391000D02*
G75*
G03*
X204416000Y-80391000I-200000J0D01*
G01*
D12*
X217601000Y-72642428D02*
X217143857Y-72813857D01*
X217601000Y-72985285D01*
X217886714Y-72813857D02*
X218343857Y-72813857D01*
X219201000Y-72442428D02*
X219315285Y-72442428D01*
X219372428Y-72471000D01*
X219429571Y-72528142D01*
X219458142Y-72642428D01*
X219458142Y-72842428D01*
X219429571Y-72956714D01*
X219372428Y-73013857D01*
X219315285Y-73042428D01*
X219201000Y-73042428D01*
X219143857Y-73013857D01*
X219086714Y-72956714D01*
X219058142Y-72842428D01*
X219058142Y-72642428D01*
X219086714Y-72528142D01*
X219143857Y-72471000D01*
X219201000Y-72442428D01*
X219686714Y-73013857D02*
X219772428Y-73042428D01*
X219915285Y-73042428D01*
X219972428Y-73013857D01*
X220001000Y-72985285D01*
X220029571Y-72928142D01*
X220029571Y-72871000D01*
X220001000Y-72813857D01*
X219972428Y-72785285D01*
X219915285Y-72756714D01*
X219801000Y-72728142D01*
X219743857Y-72699571D01*
X219715285Y-72671000D01*
X219686714Y-72613857D01*
X219686714Y-72556714D01*
X219715285Y-72499571D01*
X219743857Y-72471000D01*
X219801000Y-72442428D01*
X219943857Y-72442428D01*
X220029571Y-72471000D01*
X220286714Y-73042428D02*
X220286714Y-72442428D01*
X220429571Y-72442428D01*
X220515285Y-72471000D01*
X220572428Y-72528142D01*
X220601000Y-72585285D01*
X220629571Y-72699571D01*
X220629571Y-72785285D01*
X220601000Y-72899571D01*
X220572428Y-72956714D01*
X220515285Y-73013857D01*
X220429571Y-73042428D01*
X220286714Y-73042428D01*
X221343857Y-73042428D02*
X221343857Y-72442428D01*
X221486714Y-72442428D01*
X221572428Y-72471000D01*
X221629571Y-72528142D01*
X221658142Y-72585285D01*
X221686714Y-72699571D01*
X221686714Y-72785285D01*
X221658142Y-72899571D01*
X221629571Y-72956714D01*
X221572428Y-73013857D01*
X221486714Y-73042428D01*
X221343857Y-73042428D01*
X221943857Y-73042428D02*
X221943857Y-72642428D01*
X221943857Y-72442428D02*
X221915285Y-72471000D01*
X221943857Y-72499571D01*
X221972428Y-72471000D01*
X221943857Y-72442428D01*
X221943857Y-72499571D01*
X222201000Y-73013857D02*
X222258142Y-73042428D01*
X222372428Y-73042428D01*
X222429571Y-73013857D01*
X222458142Y-72956714D01*
X222458142Y-72928142D01*
X222429571Y-72871000D01*
X222372428Y-72842428D01*
X222286714Y-72842428D01*
X222229571Y-72813857D01*
X222201000Y-72756714D01*
X222201000Y-72728142D01*
X222229571Y-72671000D01*
X222286714Y-72642428D01*
X222372428Y-72642428D01*
X222429571Y-72671000D01*
X222715285Y-72642428D02*
X222715285Y-73242428D01*
X222715285Y-72671000D02*
X222772428Y-72642428D01*
X222886714Y-72642428D01*
X222943857Y-72671000D01*
X222972428Y-72699571D01*
X223001000Y-72756714D01*
X223001000Y-72928142D01*
X222972428Y-72985285D01*
X222943857Y-73013857D01*
X222886714Y-73042428D01*
X222772428Y-73042428D01*
X222715285Y-73013857D01*
X223343857Y-73042428D02*
X223286714Y-73013857D01*
X223258142Y-72956714D01*
X223258142Y-72442428D01*
X223829571Y-73042428D02*
X223829571Y-72728142D01*
X223801000Y-72671000D01*
X223743857Y-72642428D01*
X223629571Y-72642428D01*
X223572428Y-72671000D01*
X223829571Y-73013857D02*
X223772428Y-73042428D01*
X223629571Y-73042428D01*
X223572428Y-73013857D01*
X223543857Y-72956714D01*
X223543857Y-72899571D01*
X223572428Y-72842428D01*
X223629571Y-72813857D01*
X223772428Y-72813857D01*
X223829571Y-72785285D01*
X224058142Y-72642428D02*
X224201000Y-73042428D01*
X224343857Y-72642428D02*
X224201000Y-73042428D01*
X224143857Y-73185285D01*
X224115285Y-73213857D01*
X224058142Y-73242428D01*
X225029571Y-72728142D02*
X225229571Y-72728142D01*
X225315285Y-73042428D02*
X225029571Y-73042428D01*
X225029571Y-72442428D01*
X225315285Y-72442428D01*
X225572428Y-72642428D02*
X225572428Y-73042428D01*
X225572428Y-72699571D02*
X225601000Y-72671000D01*
X225658142Y-72642428D01*
X225743857Y-72642428D01*
X225801000Y-72671000D01*
X225829571Y-72728142D01*
X225829571Y-73042428D01*
X226372428Y-73042428D02*
X226372428Y-72728142D01*
X226343857Y-72671000D01*
X226286714Y-72642428D01*
X226172428Y-72642428D01*
X226115285Y-72671000D01*
X226372428Y-73013857D02*
X226315285Y-73042428D01*
X226172428Y-73042428D01*
X226115285Y-73013857D01*
X226086714Y-72956714D01*
X226086714Y-72899571D01*
X226115285Y-72842428D01*
X226172428Y-72813857D01*
X226315285Y-72813857D01*
X226372428Y-72785285D01*
X226658142Y-73042428D02*
X226658142Y-72442428D01*
X226658142Y-72671000D02*
X226715285Y-72642428D01*
X226829571Y-72642428D01*
X226886714Y-72671000D01*
X226915285Y-72699571D01*
X226943857Y-72756714D01*
X226943857Y-72928142D01*
X226915285Y-72985285D01*
X226886714Y-73013857D01*
X226829571Y-73042428D01*
X226715285Y-73042428D01*
X226658142Y-73013857D01*
X227286714Y-73042428D02*
X227229571Y-73013857D01*
X227201000Y-72956714D01*
X227201000Y-72442428D01*
X227743857Y-73013857D02*
X227686714Y-73042428D01*
X227572428Y-73042428D01*
X227515285Y-73013857D01*
X227486714Y-72956714D01*
X227486714Y-72728142D01*
X227515285Y-72671000D01*
X227572428Y-72642428D01*
X227686714Y-72642428D01*
X227743857Y-72671000D01*
X227772428Y-72728142D01*
X227772428Y-72785285D01*
X227486714Y-72842428D01*
X228658142Y-73271000D02*
X228629571Y-73242428D01*
X228572428Y-73156714D01*
X228543857Y-73099571D01*
X228515285Y-73013857D01*
X228486714Y-72871000D01*
X228486714Y-72756714D01*
X228515285Y-72613857D01*
X228543857Y-72528142D01*
X228572428Y-72471000D01*
X228629571Y-72385285D01*
X228658142Y-72356714D01*
X228858142Y-72871000D02*
X229143857Y-72871000D01*
X228801000Y-73042428D02*
X229001000Y-72442428D01*
X229201000Y-73042428D01*
X229715285Y-73042428D02*
X229372428Y-73042428D01*
X229543857Y-73042428D02*
X229543857Y-72442428D01*
X229486714Y-72528142D01*
X229429571Y-72585285D01*
X229372428Y-72613857D01*
X230258142Y-72442428D02*
X229972428Y-72442428D01*
X229943857Y-72728142D01*
X229972428Y-72699571D01*
X230029571Y-72671000D01*
X230172428Y-72671000D01*
X230229571Y-72699571D01*
X230258142Y-72728142D01*
X230286714Y-72785285D01*
X230286714Y-72928142D01*
X230258142Y-72985285D01*
X230229571Y-73013857D01*
X230172428Y-73042428D01*
X230029571Y-73042428D01*
X229972428Y-73013857D01*
X229943857Y-72985285D01*
X230486714Y-73271000D02*
X230515285Y-73242428D01*
X230572428Y-73156714D01*
X230601000Y-73099571D01*
X230629571Y-73013857D01*
X230658142Y-72871000D01*
X230658142Y-72756714D01*
X230629571Y-72613857D01*
X230601000Y-72528142D01*
X230572428Y-72471000D01*
X230515285Y-72385285D01*
X230486714Y-72356714D01*
X217586714Y-69975428D02*
X217129571Y-70146857D01*
X217586714Y-70318285D01*
X217872428Y-70146857D02*
X218329571Y-70146857D01*
X219186714Y-69775428D02*
X219300999Y-69775428D01*
X219358142Y-69804000D01*
X219415285Y-69861142D01*
X219443857Y-69975428D01*
X219443857Y-70175428D01*
X219415285Y-70289714D01*
X219358142Y-70346857D01*
X219300999Y-70375428D01*
X219186714Y-70375428D01*
X219129571Y-70346857D01*
X219072428Y-70289714D01*
X219043857Y-70175428D01*
X219043857Y-69975428D01*
X219072428Y-69861142D01*
X219129571Y-69804000D01*
X219186714Y-69775428D01*
X219672428Y-70346857D02*
X219758142Y-70375428D01*
X219900999Y-70375428D01*
X219958142Y-70346857D01*
X219986714Y-70318285D01*
X220015285Y-70261142D01*
X220015285Y-70204000D01*
X219986714Y-70146857D01*
X219958142Y-70118285D01*
X219900999Y-70089714D01*
X219786714Y-70061142D01*
X219729571Y-70032571D01*
X219700999Y-70004000D01*
X219672428Y-69946857D01*
X219672428Y-69889714D01*
X219700999Y-69832571D01*
X219729571Y-69804000D01*
X219786714Y-69775428D01*
X219929571Y-69775428D01*
X220015285Y-69804000D01*
X220272428Y-70375428D02*
X220272428Y-69775428D01*
X220415285Y-69775428D01*
X220500999Y-69804000D01*
X220558142Y-69861142D01*
X220586714Y-69918285D01*
X220615285Y-70032571D01*
X220615285Y-70118285D01*
X220586714Y-70232571D01*
X220558142Y-70289714D01*
X220500999Y-70346857D01*
X220415285Y-70375428D01*
X220272428Y-70375428D01*
X221329571Y-70375428D02*
X221329571Y-69775428D01*
X221472428Y-69775428D01*
X221558142Y-69804000D01*
X221615285Y-69861142D01*
X221643857Y-69918285D01*
X221672428Y-70032571D01*
X221672428Y-70118285D01*
X221643857Y-70232571D01*
X221615285Y-70289714D01*
X221558142Y-70346857D01*
X221472428Y-70375428D01*
X221329571Y-70375428D01*
X221929571Y-70375428D02*
X221929571Y-69975428D01*
X221929571Y-69775428D02*
X221900999Y-69804000D01*
X221929571Y-69832571D01*
X221958142Y-69804000D01*
X221929571Y-69775428D01*
X221929571Y-69832571D01*
X222186714Y-70346857D02*
X222243857Y-70375428D01*
X222358142Y-70375428D01*
X222415285Y-70346857D01*
X222443857Y-70289714D01*
X222443857Y-70261142D01*
X222415285Y-70204000D01*
X222358142Y-70175428D01*
X222272428Y-70175428D01*
X222215285Y-70146857D01*
X222186714Y-70089714D01*
X222186714Y-70061142D01*
X222215285Y-70004000D01*
X222272428Y-69975428D01*
X222358142Y-69975428D01*
X222415285Y-70004000D01*
X222700999Y-69975428D02*
X222700999Y-70575428D01*
X222700999Y-70004000D02*
X222758142Y-69975428D01*
X222872428Y-69975428D01*
X222929571Y-70004000D01*
X222958142Y-70032571D01*
X222986714Y-70089714D01*
X222986714Y-70261142D01*
X222958142Y-70318285D01*
X222929571Y-70346857D01*
X222872428Y-70375428D01*
X222758142Y-70375428D01*
X222700999Y-70346857D01*
X223329571Y-70375428D02*
X223272428Y-70346857D01*
X223243857Y-70289714D01*
X223243857Y-69775428D01*
X223815285Y-70375428D02*
X223815285Y-70061142D01*
X223786714Y-70004000D01*
X223729571Y-69975428D01*
X223615285Y-69975428D01*
X223558142Y-70004000D01*
X223815285Y-70346857D02*
X223758142Y-70375428D01*
X223615285Y-70375428D01*
X223558142Y-70346857D01*
X223529571Y-70289714D01*
X223529571Y-70232571D01*
X223558142Y-70175428D01*
X223615285Y-70146857D01*
X223758142Y-70146857D01*
X223815285Y-70118285D01*
X224043857Y-69975428D02*
X224186714Y-70375428D01*
X224329571Y-69975428D02*
X224186714Y-70375428D01*
X224129571Y-70518285D01*
X224100999Y-70546857D01*
X224043857Y-70575428D01*
X225129571Y-69775428D02*
X225243857Y-69775428D01*
X225300999Y-69804000D01*
X225358142Y-69861142D01*
X225386714Y-69975428D01*
X225386714Y-70175428D01*
X225358142Y-70289714D01*
X225300999Y-70346857D01*
X225243857Y-70375428D01*
X225129571Y-70375428D01*
X225072428Y-70346857D01*
X225015285Y-70289714D01*
X224986714Y-70175428D01*
X224986714Y-69975428D01*
X225015285Y-69861142D01*
X225072428Y-69804000D01*
X225129571Y-69775428D01*
X225900999Y-69975428D02*
X225900999Y-70375428D01*
X225643857Y-69975428D02*
X225643857Y-70289714D01*
X225672428Y-70346857D01*
X225729571Y-70375428D01*
X225815285Y-70375428D01*
X225872428Y-70346857D01*
X225900999Y-70318285D01*
X226100999Y-69975428D02*
X226329571Y-69975428D01*
X226186714Y-69775428D02*
X226186714Y-70289714D01*
X226215285Y-70346857D01*
X226272428Y-70375428D01*
X226329571Y-70375428D01*
X226529571Y-69975428D02*
X226529571Y-70575428D01*
X226529571Y-70004000D02*
X226586714Y-69975428D01*
X226701000Y-69975428D01*
X226758142Y-70004000D01*
X226786714Y-70032571D01*
X226815285Y-70089714D01*
X226815285Y-70261142D01*
X226786714Y-70318285D01*
X226758142Y-70346857D01*
X226701000Y-70375428D01*
X226586714Y-70375428D01*
X226529571Y-70346857D01*
X227329571Y-69975428D02*
X227329571Y-70375428D01*
X227072428Y-69975428D02*
X227072428Y-70289714D01*
X227101000Y-70346857D01*
X227158142Y-70375428D01*
X227243857Y-70375428D01*
X227301000Y-70346857D01*
X227329571Y-70318285D01*
X227529571Y-69975428D02*
X227758142Y-69975428D01*
X227615285Y-69775428D02*
X227615285Y-70289714D01*
X227643857Y-70346857D01*
X227701000Y-70375428D01*
X227758142Y-70375428D01*
X228586714Y-70604000D02*
X228558142Y-70575428D01*
X228501000Y-70489714D01*
X228472428Y-70432571D01*
X228443857Y-70346857D01*
X228415285Y-70204000D01*
X228415285Y-70089714D01*
X228443857Y-69946857D01*
X228472428Y-69861142D01*
X228501000Y-69804000D01*
X228558142Y-69718285D01*
X228586714Y-69689714D01*
X229015285Y-70061142D02*
X229101000Y-70089714D01*
X229129571Y-70118285D01*
X229158142Y-70175428D01*
X229158142Y-70261142D01*
X229129571Y-70318285D01*
X229101000Y-70346857D01*
X229043857Y-70375428D01*
X228815285Y-70375428D01*
X228815285Y-69775428D01*
X229015285Y-69775428D01*
X229072428Y-69804000D01*
X229101000Y-69832571D01*
X229129571Y-69889714D01*
X229129571Y-69946857D01*
X229101000Y-70004000D01*
X229072428Y-70032571D01*
X229015285Y-70061142D01*
X228815285Y-70061142D01*
X229729571Y-70375428D02*
X229386714Y-70375428D01*
X229558142Y-70375428D02*
X229558142Y-69775428D01*
X229501000Y-69861142D01*
X229443857Y-69918285D01*
X229386714Y-69946857D01*
X230272428Y-69775428D02*
X229986714Y-69775428D01*
X229958142Y-70061142D01*
X229986714Y-70032571D01*
X230043857Y-70004000D01*
X230186714Y-70004000D01*
X230243857Y-70032571D01*
X230272428Y-70061142D01*
X230301000Y-70118285D01*
X230301000Y-70261142D01*
X230272428Y-70318285D01*
X230243857Y-70346857D01*
X230186714Y-70375428D01*
X230043857Y-70375428D01*
X229986714Y-70346857D01*
X229958142Y-70318285D01*
X230501000Y-70604000D02*
X230529571Y-70575428D01*
X230586714Y-70489714D01*
X230615285Y-70432571D01*
X230643857Y-70346857D01*
X230672428Y-70204000D01*
X230672428Y-70089714D01*
X230643857Y-69946857D01*
X230615285Y-69861142D01*
X230586714Y-69804000D01*
X230529571Y-69718285D01*
X230501000Y-69689714D01*
D14*
X205105000Y-54102000D02*
G75*
G03*
X205105000Y-54102000I-127000J0D01*
G01*
D12*
X217029285Y-67733857D02*
X217486428Y-67733857D01*
X217772142Y-67562428D02*
X218229285Y-67733857D01*
X217772142Y-67905285D01*
X219086428Y-67362428D02*
X219200714Y-67362428D01*
X219257857Y-67391000D01*
X219315000Y-67448142D01*
X219343571Y-67562428D01*
X219343571Y-67762428D01*
X219315000Y-67876714D01*
X219257857Y-67933857D01*
X219200714Y-67962428D01*
X219086428Y-67962428D01*
X219029285Y-67933857D01*
X218972142Y-67876714D01*
X218943571Y-67762428D01*
X218943571Y-67562428D01*
X218972142Y-67448142D01*
X219029285Y-67391000D01*
X219086428Y-67362428D01*
X219572142Y-67933857D02*
X219657857Y-67962428D01*
X219800714Y-67962428D01*
X219857857Y-67933857D01*
X219886428Y-67905285D01*
X219915000Y-67848142D01*
X219915000Y-67791000D01*
X219886428Y-67733857D01*
X219857857Y-67705285D01*
X219800714Y-67676714D01*
X219686428Y-67648142D01*
X219629285Y-67619571D01*
X219600714Y-67591000D01*
X219572142Y-67533857D01*
X219572142Y-67476714D01*
X219600714Y-67419571D01*
X219629285Y-67391000D01*
X219686428Y-67362428D01*
X219829285Y-67362428D01*
X219915000Y-67391000D01*
X220172142Y-67962428D02*
X220172142Y-67362428D01*
X220315000Y-67362428D01*
X220400714Y-67391000D01*
X220457857Y-67448142D01*
X220486428Y-67505285D01*
X220515000Y-67619571D01*
X220515000Y-67705285D01*
X220486428Y-67819571D01*
X220457857Y-67876714D01*
X220400714Y-67933857D01*
X220315000Y-67962428D01*
X220172142Y-67962428D01*
X221572142Y-67905285D02*
X221543571Y-67933857D01*
X221457857Y-67962428D01*
X221400714Y-67962428D01*
X221315000Y-67933857D01*
X221257857Y-67876714D01*
X221229285Y-67819571D01*
X221200714Y-67705285D01*
X221200714Y-67619571D01*
X221229285Y-67505285D01*
X221257857Y-67448142D01*
X221315000Y-67391000D01*
X221400714Y-67362428D01*
X221457857Y-67362428D01*
X221543571Y-67391000D01*
X221572142Y-67419571D01*
X221800714Y-67933857D02*
X221886428Y-67962428D01*
X222029285Y-67962428D01*
X222086428Y-67933857D01*
X222115000Y-67905285D01*
X222143571Y-67848142D01*
X222143571Y-67791000D01*
X222115000Y-67733857D01*
X222086428Y-67705285D01*
X222029285Y-67676714D01*
X221915000Y-67648142D01*
X221857857Y-67619571D01*
X221829285Y-67591000D01*
X221800714Y-67533857D01*
X221800714Y-67476714D01*
X221829285Y-67419571D01*
X221857857Y-67391000D01*
X221915000Y-67362428D01*
X222057857Y-67362428D01*
X222143571Y-67391000D01*
X222515000Y-67676714D02*
X222515000Y-67962428D01*
X222315000Y-67362428D02*
X222515000Y-67676714D01*
X222715000Y-67362428D01*
X222915000Y-67962428D02*
X222915000Y-67362428D01*
X223257857Y-67962428D01*
X223257857Y-67362428D01*
X223886428Y-67905285D02*
X223857857Y-67933857D01*
X223772142Y-67962428D01*
X223715000Y-67962428D01*
X223629285Y-67933857D01*
X223572142Y-67876714D01*
X223543571Y-67819571D01*
X223515000Y-67705285D01*
X223515000Y-67619571D01*
X223543571Y-67505285D01*
X223572142Y-67448142D01*
X223629285Y-67391000D01*
X223715000Y-67362428D01*
X223772142Y-67362428D01*
X223857857Y-67391000D01*
X223886428Y-67419571D01*
X224772142Y-68191000D02*
X224743571Y-68162428D01*
X224686428Y-68076714D01*
X224657857Y-68019571D01*
X224629285Y-67933857D01*
X224600714Y-67791000D01*
X224600714Y-67676714D01*
X224629285Y-67533857D01*
X224657857Y-67448142D01*
X224686428Y-67391000D01*
X224743571Y-67305285D01*
X224772142Y-67276714D01*
X224972142Y-67791000D02*
X225257857Y-67791000D01*
X224915000Y-67962428D02*
X225115000Y-67362428D01*
X225315000Y-67962428D01*
X225600714Y-67619571D02*
X225543571Y-67591000D01*
X225515000Y-67562428D01*
X225486428Y-67505285D01*
X225486428Y-67476714D01*
X225515000Y-67419571D01*
X225543571Y-67391000D01*
X225600714Y-67362428D01*
X225715000Y-67362428D01*
X225772142Y-67391000D01*
X225800714Y-67419571D01*
X225829285Y-67476714D01*
X225829285Y-67505285D01*
X225800714Y-67562428D01*
X225772142Y-67591000D01*
X225715000Y-67619571D01*
X225600714Y-67619571D01*
X225543571Y-67648142D01*
X225515000Y-67676714D01*
X225486428Y-67733857D01*
X225486428Y-67848142D01*
X225515000Y-67905285D01*
X225543571Y-67933857D01*
X225600714Y-67962428D01*
X225715000Y-67962428D01*
X225772142Y-67933857D01*
X225800714Y-67905285D01*
X225829285Y-67848142D01*
X225829285Y-67733857D01*
X225800714Y-67676714D01*
X225772142Y-67648142D01*
X225715000Y-67619571D01*
X226029285Y-68191000D02*
X226057857Y-68162428D01*
X226115000Y-68076714D01*
X226143571Y-68019571D01*
X226172142Y-67933857D01*
X226200714Y-67791000D01*
X226200714Y-67676714D01*
X226172142Y-67533857D01*
X226143571Y-67448142D01*
X226115000Y-67391000D01*
X226057857Y-67305285D01*
X226029285Y-67276714D01*
X217065142Y-75353857D02*
X217522285Y-75353857D01*
X217808000Y-75182428D02*
X218265142Y-75353857D01*
X217808000Y-75525285D01*
X219122285Y-74982428D02*
X219236571Y-74982428D01*
X219293714Y-75011000D01*
X219350857Y-75068142D01*
X219379428Y-75182428D01*
X219379428Y-75382428D01*
X219350857Y-75496714D01*
X219293714Y-75553857D01*
X219236571Y-75582428D01*
X219122285Y-75582428D01*
X219065142Y-75553857D01*
X219008000Y-75496714D01*
X218979428Y-75382428D01*
X218979428Y-75182428D01*
X219008000Y-75068142D01*
X219065142Y-75011000D01*
X219122285Y-74982428D01*
X219608000Y-75553857D02*
X219693714Y-75582428D01*
X219836571Y-75582428D01*
X219893714Y-75553857D01*
X219922285Y-75525285D01*
X219950857Y-75468142D01*
X219950857Y-75411000D01*
X219922285Y-75353857D01*
X219893714Y-75325285D01*
X219836571Y-75296714D01*
X219722285Y-75268142D01*
X219665142Y-75239571D01*
X219636571Y-75211000D01*
X219608000Y-75153857D01*
X219608000Y-75096714D01*
X219636571Y-75039571D01*
X219665142Y-75011000D01*
X219722285Y-74982428D01*
X219865142Y-74982428D01*
X219950857Y-75011000D01*
X220208000Y-75582428D02*
X220208000Y-74982428D01*
X220350857Y-74982428D01*
X220436571Y-75011000D01*
X220493714Y-75068142D01*
X220522285Y-75125285D01*
X220550857Y-75239571D01*
X220550857Y-75325285D01*
X220522285Y-75439571D01*
X220493714Y-75496714D01*
X220436571Y-75553857D01*
X220350857Y-75582428D01*
X220208000Y-75582428D01*
X221265142Y-75582428D02*
X221265142Y-74982428D01*
X221408000Y-74982428D01*
X221493714Y-75011000D01*
X221550857Y-75068142D01*
X221579428Y-75125285D01*
X221608000Y-75239571D01*
X221608000Y-75325285D01*
X221579428Y-75439571D01*
X221550857Y-75496714D01*
X221493714Y-75553857D01*
X221408000Y-75582428D01*
X221265142Y-75582428D01*
X221865142Y-75582428D02*
X221865142Y-75182428D01*
X221865142Y-74982428D02*
X221836571Y-75011000D01*
X221865142Y-75039571D01*
X221893714Y-75011000D01*
X221865142Y-74982428D01*
X221865142Y-75039571D01*
X222122285Y-75553857D02*
X222179428Y-75582428D01*
X222293714Y-75582428D01*
X222350857Y-75553857D01*
X222379428Y-75496714D01*
X222379428Y-75468142D01*
X222350857Y-75411000D01*
X222293714Y-75382428D01*
X222208000Y-75382428D01*
X222150857Y-75353857D01*
X222122285Y-75296714D01*
X222122285Y-75268142D01*
X222150857Y-75211000D01*
X222208000Y-75182428D01*
X222293714Y-75182428D01*
X222350857Y-75211000D01*
X222636571Y-75182428D02*
X222636571Y-75782428D01*
X222636571Y-75211000D02*
X222693714Y-75182428D01*
X222808000Y-75182428D01*
X222865142Y-75211000D01*
X222893714Y-75239571D01*
X222922285Y-75296714D01*
X222922285Y-75468142D01*
X222893714Y-75525285D01*
X222865142Y-75553857D01*
X222808000Y-75582428D01*
X222693714Y-75582428D01*
X222636571Y-75553857D01*
X223265142Y-75582428D02*
X223208000Y-75553857D01*
X223179428Y-75496714D01*
X223179428Y-74982428D01*
X223750857Y-75582428D02*
X223750857Y-75268142D01*
X223722285Y-75211000D01*
X223665142Y-75182428D01*
X223550857Y-75182428D01*
X223493714Y-75211000D01*
X223750857Y-75553857D02*
X223693714Y-75582428D01*
X223550857Y-75582428D01*
X223493714Y-75553857D01*
X223465142Y-75496714D01*
X223465142Y-75439571D01*
X223493714Y-75382428D01*
X223550857Y-75353857D01*
X223693714Y-75353857D01*
X223750857Y-75325285D01*
X223979428Y-75182428D02*
X224122285Y-75582428D01*
X224265142Y-75182428D02*
X224122285Y-75582428D01*
X224065142Y-75725285D01*
X224036571Y-75753857D01*
X223979428Y-75782428D01*
X225065142Y-74982428D02*
X225179428Y-74982428D01*
X225236571Y-75011000D01*
X225293714Y-75068142D01*
X225322285Y-75182428D01*
X225322285Y-75382428D01*
X225293714Y-75496714D01*
X225236571Y-75553857D01*
X225179428Y-75582428D01*
X225065142Y-75582428D01*
X225008000Y-75553857D01*
X224950857Y-75496714D01*
X224922285Y-75382428D01*
X224922285Y-75182428D01*
X224950857Y-75068142D01*
X225008000Y-75011000D01*
X225065142Y-74982428D01*
X225836571Y-75182428D02*
X225836571Y-75582428D01*
X225579428Y-75182428D02*
X225579428Y-75496714D01*
X225608000Y-75553857D01*
X225665142Y-75582428D01*
X225750857Y-75582428D01*
X225808000Y-75553857D01*
X225836571Y-75525285D01*
X226036571Y-75182428D02*
X226265142Y-75182428D01*
X226122285Y-74982428D02*
X226122285Y-75496714D01*
X226150857Y-75553857D01*
X226208000Y-75582428D01*
X226265142Y-75582428D01*
X226465142Y-75182428D02*
X226465142Y-75782428D01*
X226465142Y-75211000D02*
X226522285Y-75182428D01*
X226636571Y-75182428D01*
X226693714Y-75211000D01*
X226722285Y-75239571D01*
X226750857Y-75296714D01*
X226750857Y-75468142D01*
X226722285Y-75525285D01*
X226693714Y-75553857D01*
X226636571Y-75582428D01*
X226522285Y-75582428D01*
X226465142Y-75553857D01*
X227265142Y-75182428D02*
X227265142Y-75582428D01*
X227008000Y-75182428D02*
X227008000Y-75496714D01*
X227036571Y-75553857D01*
X227093714Y-75582428D01*
X227179428Y-75582428D01*
X227236571Y-75553857D01*
X227265142Y-75525285D01*
X227465142Y-75182428D02*
X227693714Y-75182428D01*
X227550857Y-74982428D02*
X227550857Y-75496714D01*
X227579428Y-75553857D01*
X227636571Y-75582428D01*
X227693714Y-75582428D01*
X228550857Y-75268142D02*
X228636571Y-75296714D01*
X228665142Y-75325285D01*
X228693714Y-75382428D01*
X228693714Y-75468142D01*
X228665142Y-75525285D01*
X228636571Y-75553857D01*
X228579428Y-75582428D01*
X228350857Y-75582428D01*
X228350857Y-74982428D01*
X228550857Y-74982428D01*
X228608000Y-75011000D01*
X228636571Y-75039571D01*
X228665142Y-75096714D01*
X228665142Y-75153857D01*
X228636571Y-75211000D01*
X228608000Y-75239571D01*
X228550857Y-75268142D01*
X228350857Y-75268142D01*
X229208000Y-75182428D02*
X229208000Y-75582428D01*
X228950857Y-75182428D02*
X228950857Y-75496714D01*
X228979428Y-75553857D01*
X229036571Y-75582428D01*
X229122285Y-75582428D01*
X229179428Y-75553857D01*
X229208000Y-75525285D01*
X229408000Y-75182428D02*
X229636571Y-75182428D01*
X229493714Y-75582428D02*
X229493714Y-75068142D01*
X229522285Y-75011000D01*
X229579428Y-74982428D01*
X229636571Y-74982428D01*
X229750857Y-75182428D02*
X229979428Y-75182428D01*
X229836571Y-75582428D02*
X229836571Y-75068142D01*
X229865142Y-75011000D01*
X229922285Y-74982428D01*
X229979428Y-74982428D01*
X230408000Y-75553857D02*
X230350857Y-75582428D01*
X230236571Y-75582428D01*
X230179428Y-75553857D01*
X230150857Y-75496714D01*
X230150857Y-75268142D01*
X230179428Y-75211000D01*
X230236571Y-75182428D01*
X230350857Y-75182428D01*
X230408000Y-75211000D01*
X230436571Y-75268142D01*
X230436571Y-75325285D01*
X230150857Y-75382428D01*
X230693714Y-75582428D02*
X230693714Y-75182428D01*
X230693714Y-75296714D02*
X230722285Y-75239571D01*
X230750857Y-75211000D01*
X230808000Y-75182428D01*
X230865142Y-75182428D01*
X231293714Y-75553857D02*
X231236571Y-75582428D01*
X231122285Y-75582428D01*
X231065142Y-75553857D01*
X231036571Y-75496714D01*
X231036571Y-75268142D01*
X231065142Y-75211000D01*
X231122285Y-75182428D01*
X231236571Y-75182428D01*
X231293714Y-75211000D01*
X231322285Y-75268142D01*
X231322285Y-75325285D01*
X231036571Y-75382428D01*
X231836571Y-75582428D02*
X231836571Y-74982428D01*
X231836571Y-75553857D02*
X231779428Y-75582428D01*
X231665142Y-75582428D01*
X231608000Y-75553857D01*
X231579428Y-75525285D01*
X231550857Y-75468142D01*
X231550857Y-75296714D01*
X231579428Y-75239571D01*
X231608000Y-75211000D01*
X231665142Y-75182428D01*
X231779428Y-75182428D01*
X231836571Y-75211000D01*
X232579428Y-75353857D02*
X233036571Y-75353857D01*
X233693714Y-74982428D02*
X234036571Y-74982428D01*
X233865142Y-75582428D02*
X233865142Y-74982428D01*
X234322285Y-75582428D02*
X234265142Y-75553857D01*
X234236571Y-75525285D01*
X234208000Y-75468142D01*
X234208000Y-75296714D01*
X234236571Y-75239571D01*
X234265142Y-75211000D01*
X234322285Y-75182428D01*
X234408000Y-75182428D01*
X234465142Y-75211000D01*
X234493714Y-75239571D01*
X234522285Y-75296714D01*
X234522285Y-75468142D01*
X234493714Y-75525285D01*
X234465142Y-75553857D01*
X234408000Y-75582428D01*
X234322285Y-75582428D01*
X235208000Y-75411000D02*
X235493714Y-75411000D01*
X235150857Y-75582428D02*
X235350857Y-74982428D01*
X235550857Y-75582428D01*
X235750857Y-75582428D02*
X235750857Y-75182428D01*
X235750857Y-75239571D02*
X235779428Y-75211000D01*
X235836571Y-75182428D01*
X235922285Y-75182428D01*
X235979428Y-75211000D01*
X236008000Y-75268142D01*
X236008000Y-75582428D01*
X236008000Y-75268142D02*
X236036571Y-75211000D01*
X236093714Y-75182428D01*
X236179428Y-75182428D01*
X236236571Y-75211000D01*
X236265142Y-75268142D01*
X236265142Y-75582428D01*
X236550857Y-75582428D02*
X236550857Y-75182428D01*
X236550857Y-74982428D02*
X236522285Y-75011000D01*
X236550857Y-75039571D01*
X236579428Y-75011000D01*
X236550857Y-74982428D01*
X236550857Y-75039571D01*
X237093714Y-75182428D02*
X237093714Y-75668142D01*
X237065142Y-75725285D01*
X237036571Y-75753857D01*
X236979428Y-75782428D01*
X236893714Y-75782428D01*
X236836571Y-75753857D01*
X237093714Y-75553857D02*
X237036571Y-75582428D01*
X236922285Y-75582428D01*
X236865142Y-75553857D01*
X236836571Y-75525285D01*
X236808000Y-75468142D01*
X236808000Y-75296714D01*
X236836571Y-75239571D01*
X236865142Y-75211000D01*
X236922285Y-75182428D01*
X237036571Y-75182428D01*
X237093714Y-75211000D01*
X237636571Y-75582428D02*
X237636571Y-75268142D01*
X237608000Y-75211000D01*
X237550857Y-75182428D01*
X237436571Y-75182428D01*
X237379428Y-75211000D01*
X237636571Y-75553857D02*
X237579428Y-75582428D01*
X237436571Y-75582428D01*
X237379428Y-75553857D01*
X237350857Y-75496714D01*
X237350857Y-75439571D01*
X237379428Y-75382428D01*
X237436571Y-75353857D01*
X237579428Y-75353857D01*
X237636571Y-75325285D01*
X238722285Y-75582428D02*
X238522285Y-75296714D01*
X238379428Y-75582428D02*
X238379428Y-74982428D01*
X238608000Y-74982428D01*
X238665142Y-75011000D01*
X238693714Y-75039571D01*
X238722285Y-75096714D01*
X238722285Y-75182428D01*
X238693714Y-75239571D01*
X238665142Y-75268142D01*
X238608000Y-75296714D01*
X238379428Y-75296714D01*
X239408000Y-74953857D02*
X238893714Y-75725285D01*
X239922285Y-75011000D02*
X239865142Y-74982428D01*
X239779428Y-74982428D01*
X239693714Y-75011000D01*
X239636571Y-75068142D01*
X239608000Y-75125285D01*
X239579428Y-75239571D01*
X239579428Y-75325285D01*
X239608000Y-75439571D01*
X239636571Y-75496714D01*
X239693714Y-75553857D01*
X239779428Y-75582428D01*
X239836571Y-75582428D01*
X239922285Y-75553857D01*
X239950857Y-75525285D01*
X239950857Y-75325285D01*
X239836571Y-75325285D01*
X240636571Y-74953857D02*
X240122285Y-75725285D01*
X241036571Y-75268142D02*
X241122285Y-75296714D01*
X241150857Y-75325285D01*
X241179428Y-75382428D01*
X241179428Y-75468142D01*
X241150857Y-75525285D01*
X241122285Y-75553857D01*
X241065142Y-75582428D01*
X240836571Y-75582428D01*
X240836571Y-74982428D01*
X241036571Y-74982428D01*
X241093714Y-75011000D01*
X241122285Y-75039571D01*
X241150857Y-75096714D01*
X241150857Y-75153857D01*
X241122285Y-75211000D01*
X241093714Y-75239571D01*
X241036571Y-75268142D01*
X240836571Y-75268142D01*
D10*
X189484000Y-44831000D02*
X181229000Y-44831000D01*
D11*
X175645142Y-83385428D02*
X175752285Y-83421142D01*
X175788000Y-83456857D01*
X175823714Y-83528285D01*
X175823714Y-83635428D01*
X175788000Y-83706857D01*
X175752285Y-83742571D01*
X175680857Y-83778285D01*
X175395142Y-83778285D01*
X175395142Y-83028285D01*
X175645142Y-83028285D01*
X175716571Y-83064000D01*
X175752285Y-83099714D01*
X175788000Y-83171142D01*
X175788000Y-83242571D01*
X175752285Y-83314000D01*
X175716571Y-83349714D01*
X175645142Y-83385428D01*
X175395142Y-83385428D01*
X176466571Y-83278285D02*
X176466571Y-83778285D01*
X176145142Y-83278285D02*
X176145142Y-83671142D01*
X176180857Y-83742571D01*
X176252285Y-83778285D01*
X176359428Y-83778285D01*
X176430857Y-83742571D01*
X176466571Y-83706857D01*
X176716571Y-83278285D02*
X177002285Y-83278285D01*
X176823714Y-83028285D02*
X176823714Y-83671142D01*
X176859428Y-83742571D01*
X176930857Y-83778285D01*
X177002285Y-83778285D01*
X177145142Y-83278285D02*
X177430857Y-83278285D01*
X177252285Y-83028285D02*
X177252285Y-83671142D01*
X177288000Y-83742571D01*
X177359428Y-83778285D01*
X177430857Y-83778285D01*
X177788000Y-83778285D02*
X177716571Y-83742571D01*
X177680857Y-83706857D01*
X177645142Y-83635428D01*
X177645142Y-83421142D01*
X177680857Y-83349714D01*
X177716571Y-83314000D01*
X177788000Y-83278285D01*
X177895142Y-83278285D01*
X177966571Y-83314000D01*
X178002285Y-83349714D01*
X178038000Y-83421142D01*
X178038000Y-83635428D01*
X178002285Y-83706857D01*
X177966571Y-83742571D01*
X177895142Y-83778285D01*
X177788000Y-83778285D01*
X178359428Y-83278285D02*
X178359428Y-83778285D01*
X178359428Y-83349714D02*
X178395142Y-83314000D01*
X178466571Y-83278285D01*
X178573714Y-83278285D01*
X178645142Y-83314000D01*
X178680857Y-83385428D01*
X178680857Y-83778285D01*
X181388000Y-41974035D02*
X181388000Y-41224035D01*
X181566571Y-41224035D01*
X181673714Y-41259750D01*
X181745142Y-41331178D01*
X181780857Y-41402607D01*
X181816571Y-41545464D01*
X181816571Y-41652607D01*
X181780857Y-41795464D01*
X181745142Y-41866892D01*
X181673714Y-41938321D01*
X181566571Y-41974035D01*
X181388000Y-41974035D01*
X182423714Y-41938321D02*
X182352285Y-41974035D01*
X182209428Y-41974035D01*
X182138000Y-41938321D01*
X182102285Y-41866892D01*
X182102285Y-41581178D01*
X182138000Y-41509750D01*
X182209428Y-41474035D01*
X182352285Y-41474035D01*
X182423714Y-41509750D01*
X182459428Y-41581178D01*
X182459428Y-41652607D01*
X182102285Y-41724035D01*
X182888000Y-41974035D02*
X182816571Y-41938321D01*
X182780857Y-41866892D01*
X182780857Y-41224035D01*
X183495142Y-41974035D02*
X183495142Y-41581178D01*
X183459428Y-41509750D01*
X183388000Y-41474035D01*
X183245142Y-41474035D01*
X183173714Y-41509750D01*
X183495142Y-41938321D02*
X183423714Y-41974035D01*
X183245142Y-41974035D01*
X183173714Y-41938321D01*
X183138000Y-41866892D01*
X183138000Y-41795464D01*
X183173714Y-41724035D01*
X183245142Y-41688321D01*
X183423714Y-41688321D01*
X183495142Y-41652607D01*
X183780857Y-41474035D02*
X183959428Y-41974035D01*
X184138000Y-41474035D02*
X183959428Y-41974035D01*
X183888000Y-42152607D01*
X183852285Y-42188321D01*
X183780857Y-42224035D01*
X184709428Y-41938321D02*
X184638000Y-41974035D01*
X184495142Y-41974035D01*
X184423714Y-41938321D01*
X184388000Y-41866892D01*
X184388000Y-41581178D01*
X184423714Y-41509750D01*
X184495142Y-41474035D01*
X184638000Y-41474035D01*
X184709428Y-41509750D01*
X184745142Y-41581178D01*
X184745142Y-41652607D01*
X184388000Y-41724035D01*
X185388000Y-41974035D02*
X185388000Y-41224035D01*
X185388000Y-41938321D02*
X185316571Y-41974035D01*
X185173714Y-41974035D01*
X185102285Y-41938321D01*
X185066571Y-41902607D01*
X185030857Y-41831178D01*
X185030857Y-41616892D01*
X185066571Y-41545464D01*
X185102285Y-41509750D01*
X185173714Y-41474035D01*
X185316571Y-41474035D01*
X185388000Y-41509750D01*
X181959428Y-43286535D02*
X181959428Y-42536535D01*
X182245142Y-42536535D01*
X182316571Y-42572250D01*
X182352285Y-42607964D01*
X182388000Y-42679392D01*
X182388000Y-42786535D01*
X182352285Y-42857964D01*
X182316571Y-42893678D01*
X182245142Y-42929392D01*
X181959428Y-42929392D01*
X182709428Y-43286535D02*
X182709428Y-42786535D01*
X182709428Y-42536535D02*
X182673714Y-42572250D01*
X182709428Y-42607964D01*
X182745142Y-42572250D01*
X182709428Y-42536535D01*
X182709428Y-42607964D01*
X183495142Y-43215107D02*
X183459428Y-43250821D01*
X183352285Y-43286535D01*
X183280857Y-43286535D01*
X183173714Y-43250821D01*
X183102285Y-43179392D01*
X183066571Y-43107964D01*
X183030857Y-42965107D01*
X183030857Y-42857964D01*
X183066571Y-42715107D01*
X183102285Y-42643678D01*
X183173714Y-42572250D01*
X183280857Y-42536535D01*
X183352285Y-42536535D01*
X183459428Y-42572250D01*
X183495142Y-42607964D01*
X184173714Y-43286535D02*
X183816571Y-43286535D01*
X183816571Y-42536535D01*
X184423714Y-43286535D02*
X184423714Y-42536535D01*
X184852285Y-43286535D02*
X184530857Y-42857964D01*
X184852285Y-42536535D02*
X184423714Y-42965107D01*
X181312571Y-47054035D02*
X181312571Y-46304035D01*
X181741142Y-47054035D01*
X181741142Y-46304035D01*
X182205428Y-47054035D02*
X182134000Y-47018321D01*
X182098285Y-46982607D01*
X182062571Y-46911178D01*
X182062571Y-46696892D01*
X182098285Y-46625464D01*
X182134000Y-46589750D01*
X182205428Y-46554035D01*
X182312571Y-46554035D01*
X182384000Y-46589750D01*
X182419714Y-46625464D01*
X182455428Y-46696892D01*
X182455428Y-46911178D01*
X182419714Y-46982607D01*
X182384000Y-47018321D01*
X182312571Y-47054035D01*
X182205428Y-47054035D01*
X182776857Y-47054035D02*
X182776857Y-46554035D01*
X182776857Y-46696892D02*
X182812571Y-46625464D01*
X182848285Y-46589750D01*
X182919714Y-46554035D01*
X182991142Y-46554035D01*
X183241142Y-47054035D02*
X183241142Y-46554035D01*
X183241142Y-46625464D02*
X183276857Y-46589750D01*
X183348285Y-46554035D01*
X183455428Y-46554035D01*
X183526857Y-46589750D01*
X183562571Y-46661178D01*
X183562571Y-47054035D01*
X183562571Y-46661178D02*
X183598285Y-46589750D01*
X183669714Y-46554035D01*
X183776857Y-46554035D01*
X183848285Y-46589750D01*
X183884000Y-46661178D01*
X183884000Y-47054035D01*
X184562571Y-47054035D02*
X184562571Y-46661178D01*
X184526857Y-46589750D01*
X184455428Y-46554035D01*
X184312571Y-46554035D01*
X184241142Y-46589750D01*
X184562571Y-47018321D02*
X184491142Y-47054035D01*
X184312571Y-47054035D01*
X184241142Y-47018321D01*
X184205428Y-46946892D01*
X184205428Y-46875464D01*
X184241142Y-46804035D01*
X184312571Y-46768321D01*
X184491142Y-46768321D01*
X184562571Y-46732607D01*
X185026857Y-47054035D02*
X184955428Y-47018321D01*
X184919714Y-46946892D01*
X184919714Y-46304035D01*
X181705428Y-48366535D02*
X181705428Y-47616535D01*
X181991142Y-47616535D01*
X182062571Y-47652250D01*
X182098285Y-47687964D01*
X182134000Y-47759392D01*
X182134000Y-47866535D01*
X182098285Y-47937964D01*
X182062571Y-47973678D01*
X181991142Y-48009392D01*
X181705428Y-48009392D01*
X182455428Y-48366535D02*
X182455428Y-47866535D01*
X182455428Y-47616535D02*
X182419714Y-47652250D01*
X182455428Y-47687964D01*
X182491142Y-47652250D01*
X182455428Y-47616535D01*
X182455428Y-47687964D01*
X183241142Y-48295107D02*
X183205428Y-48330821D01*
X183098285Y-48366535D01*
X183026857Y-48366535D01*
X182919714Y-48330821D01*
X182848285Y-48259392D01*
X182812571Y-48187964D01*
X182776857Y-48045107D01*
X182776857Y-47937964D01*
X182812571Y-47795107D01*
X182848285Y-47723678D01*
X182919714Y-47652250D01*
X183026857Y-47616535D01*
X183098285Y-47616535D01*
X183205428Y-47652250D01*
X183241142Y-47687964D01*
X183919714Y-48366535D02*
X183562571Y-48366535D01*
X183562571Y-47616535D01*
X184169714Y-48366535D02*
X184169714Y-47616535D01*
X184598285Y-48366535D02*
X184276857Y-47937964D01*
X184598285Y-47616535D02*
X184169714Y-48045107D01*
D14*
X182626000Y-54610000D02*
G75*
G03*
X182626000Y-54610000I-127000J0D01*
G01*
D13*
X166189000Y-57531000D02*
G75*
G03*
X166189000Y-57531000I-200000J0D01*
G01*
D15*
X105730476Y-83292904D02*
X105730476Y-82492904D01*
X106035238Y-82492904D01*
X106111428Y-82531000D01*
X106149523Y-82569095D01*
X106187619Y-82645285D01*
X106187619Y-82759571D01*
X106149523Y-82835761D01*
X106111428Y-82873857D01*
X106035238Y-82911952D01*
X105730476Y-82911952D01*
X106987619Y-83216714D02*
X106949523Y-83254809D01*
X106835238Y-83292904D01*
X106759047Y-83292904D01*
X106644761Y-83254809D01*
X106568571Y-83178619D01*
X106530476Y-83102428D01*
X106492380Y-82950047D01*
X106492380Y-82835761D01*
X106530476Y-82683380D01*
X106568571Y-82607190D01*
X106644761Y-82531000D01*
X106759047Y-82492904D01*
X106835238Y-82492904D01*
X106949523Y-82531000D01*
X106987619Y-82569095D01*
X107597142Y-82873857D02*
X107711428Y-82911952D01*
X107749523Y-82950047D01*
X107787619Y-83026238D01*
X107787619Y-83140523D01*
X107749523Y-83216714D01*
X107711428Y-83254809D01*
X107635238Y-83292904D01*
X107330476Y-83292904D01*
X107330476Y-82492904D01*
X107597142Y-82492904D01*
X107673333Y-82531000D01*
X107711428Y-82569095D01*
X107749523Y-82645285D01*
X107749523Y-82721476D01*
X107711428Y-82797666D01*
X107673333Y-82835761D01*
X107597142Y-82873857D01*
X107330476Y-82873857D01*
X109082857Y-83292904D02*
X109082857Y-82492904D01*
X109082857Y-83254809D02*
X109006666Y-83292904D01*
X108854285Y-83292904D01*
X108778095Y-83254809D01*
X108740000Y-83216714D01*
X108701904Y-83140523D01*
X108701904Y-82911952D01*
X108740000Y-82835761D01*
X108778095Y-82797666D01*
X108854285Y-82759571D01*
X109006666Y-82759571D01*
X109082857Y-82797666D01*
X109768571Y-83254809D02*
X109692380Y-83292904D01*
X109540000Y-83292904D01*
X109463809Y-83254809D01*
X109425714Y-83178619D01*
X109425714Y-82873857D01*
X109463809Y-82797666D01*
X109540000Y-82759571D01*
X109692380Y-82759571D01*
X109768571Y-82797666D01*
X109806666Y-82873857D01*
X109806666Y-82950047D01*
X109425714Y-83026238D01*
X110111428Y-83254809D02*
X110187619Y-83292904D01*
X110340000Y-83292904D01*
X110416190Y-83254809D01*
X110454285Y-83178619D01*
X110454285Y-83140523D01*
X110416190Y-83064333D01*
X110340000Y-83026238D01*
X110225714Y-83026238D01*
X110149523Y-82988142D01*
X110111428Y-82911952D01*
X110111428Y-82873857D01*
X110149523Y-82797666D01*
X110225714Y-82759571D01*
X110340000Y-82759571D01*
X110416190Y-82797666D01*
X110797142Y-83292904D02*
X110797142Y-82759571D01*
X110797142Y-82492904D02*
X110759047Y-82531000D01*
X110797142Y-82569095D01*
X110835238Y-82531000D01*
X110797142Y-82492904D01*
X110797142Y-82569095D01*
X111520952Y-82759571D02*
X111520952Y-83407190D01*
X111482857Y-83483380D01*
X111444761Y-83521476D01*
X111368571Y-83559571D01*
X111254285Y-83559571D01*
X111178095Y-83521476D01*
X111520952Y-83254809D02*
X111444761Y-83292904D01*
X111292380Y-83292904D01*
X111216190Y-83254809D01*
X111178095Y-83216714D01*
X111140000Y-83140523D01*
X111140000Y-82911952D01*
X111178095Y-82835761D01*
X111216190Y-82797666D01*
X111292380Y-82759571D01*
X111444761Y-82759571D01*
X111520952Y-82797666D01*
X111901904Y-82759571D02*
X111901904Y-83292904D01*
X111901904Y-82835761D02*
X111940000Y-82797666D01*
X112016190Y-82759571D01*
X112130476Y-82759571D01*
X112206666Y-82797666D01*
X112244761Y-82873857D01*
X112244761Y-83292904D01*
X113235238Y-83292904D02*
X113235238Y-82492904D01*
X113235238Y-82797666D02*
X113311428Y-82759571D01*
X113463809Y-82759571D01*
X113540000Y-82797666D01*
X113578095Y-82835761D01*
X113616190Y-82911952D01*
X113616190Y-83140523D01*
X113578095Y-83216714D01*
X113540000Y-83254809D01*
X113463809Y-83292904D01*
X113311428Y-83292904D01*
X113235238Y-83254809D01*
X113882857Y-82759571D02*
X114073333Y-83292904D01*
X114263809Y-82759571D02*
X114073333Y-83292904D01*
X113997142Y-83483380D01*
X113959047Y-83521476D01*
X113882857Y-83559571D01*
X115140000Y-83254809D02*
X115216190Y-83292904D01*
X115368571Y-83292904D01*
X115444761Y-83254809D01*
X115482857Y-83178619D01*
X115482857Y-83140523D01*
X115444761Y-83064333D01*
X115368571Y-83026238D01*
X115254285Y-83026238D01*
X115178095Y-82988142D01*
X115140000Y-82911952D01*
X115140000Y-82873857D01*
X115178095Y-82797666D01*
X115254285Y-82759571D01*
X115368571Y-82759571D01*
X115444761Y-82797666D01*
X115940000Y-83292904D02*
X115863809Y-83254809D01*
X115825714Y-83216714D01*
X115787619Y-83140523D01*
X115787619Y-82911952D01*
X115825714Y-82835761D01*
X115863809Y-82797666D01*
X115940000Y-82759571D01*
X116054285Y-82759571D01*
X116130476Y-82797666D01*
X116168571Y-82835761D01*
X116206666Y-82911952D01*
X116206666Y-83140523D01*
X116168571Y-83216714D01*
X116130476Y-83254809D01*
X116054285Y-83292904D01*
X115940000Y-83292904D01*
X116663809Y-83292904D02*
X116587619Y-83254809D01*
X116549523Y-83178619D01*
X116549523Y-82492904D01*
X117311428Y-83292904D02*
X117311428Y-82873857D01*
X117273333Y-82797666D01*
X117197142Y-82759571D01*
X117044761Y-82759571D01*
X116968571Y-82797666D01*
X117311428Y-83254809D02*
X117235238Y-83292904D01*
X117044761Y-83292904D01*
X116968571Y-83254809D01*
X116930476Y-83178619D01*
X116930476Y-83102428D01*
X116968571Y-83026238D01*
X117044761Y-82988142D01*
X117235238Y-82988142D01*
X117311428Y-82950047D01*
X117692380Y-83292904D02*
X117692380Y-82759571D01*
X117692380Y-82911952D02*
X117730476Y-82835761D01*
X117768571Y-82797666D01*
X117844761Y-82759571D01*
X117920952Y-82759571D01*
X118187619Y-83292904D02*
X118187619Y-82759571D01*
X118187619Y-82835761D02*
X118225714Y-82797666D01*
X118301904Y-82759571D01*
X118416190Y-82759571D01*
X118492380Y-82797666D01*
X118530476Y-82873857D01*
X118530476Y-83292904D01*
X118530476Y-82873857D02*
X118568571Y-82797666D01*
X118644761Y-82759571D01*
X118759047Y-82759571D01*
X118835238Y-82797666D01*
X118873333Y-82873857D01*
X118873333Y-83292904D01*
X119368571Y-83292904D02*
X119292380Y-83254809D01*
X119254285Y-83216714D01*
X119216190Y-83140523D01*
X119216190Y-82911952D01*
X119254285Y-82835761D01*
X119292380Y-82797666D01*
X119368571Y-82759571D01*
X119482857Y-82759571D01*
X119559047Y-82797666D01*
X119597142Y-82835761D01*
X119635238Y-82911952D01*
X119635238Y-83140523D01*
X119597142Y-83216714D01*
X119559047Y-83254809D01*
X119482857Y-83292904D01*
X119368571Y-83292904D01*
X119978095Y-82759571D02*
X119978095Y-83292904D01*
X119978095Y-82835761D02*
X120016190Y-82797666D01*
X120092380Y-82759571D01*
X120206666Y-82759571D01*
X120282857Y-82797666D01*
X120320952Y-82873857D01*
X120320952Y-83292904D01*
X121540000Y-83597666D02*
X121501904Y-83559571D01*
X121425714Y-83445285D01*
X121387619Y-83369095D01*
X121349523Y-83254809D01*
X121311428Y-83064333D01*
X121311428Y-82911952D01*
X121349523Y-82721476D01*
X121387619Y-82607190D01*
X121425714Y-82531000D01*
X121501904Y-82416714D01*
X121540000Y-82378619D01*
X121844761Y-83292904D02*
X121844761Y-82492904D01*
X122187619Y-83292904D02*
X122187619Y-82873857D01*
X122149523Y-82797666D01*
X122073333Y-82759571D01*
X121959047Y-82759571D01*
X121882857Y-82797666D01*
X121844761Y-82835761D01*
X122454285Y-82759571D02*
X122759047Y-82759571D01*
X122568571Y-82492904D02*
X122568571Y-83178619D01*
X122606666Y-83254809D01*
X122682857Y-83292904D01*
X122759047Y-83292904D01*
X122911428Y-82759571D02*
X123216190Y-82759571D01*
X123025714Y-82492904D02*
X123025714Y-83178619D01*
X123063809Y-83254809D01*
X123140000Y-83292904D01*
X123216190Y-83292904D01*
X123482857Y-82759571D02*
X123482857Y-83559571D01*
X123482857Y-82797666D02*
X123559047Y-82759571D01*
X123711428Y-82759571D01*
X123787619Y-82797666D01*
X123825714Y-82835761D01*
X123863809Y-82911952D01*
X123863809Y-83140523D01*
X123825714Y-83216714D01*
X123787619Y-83254809D01*
X123711428Y-83292904D01*
X123559047Y-83292904D01*
X123482857Y-83254809D01*
X124168571Y-83254809D02*
X124244761Y-83292904D01*
X124397142Y-83292904D01*
X124473333Y-83254809D01*
X124511428Y-83178619D01*
X124511428Y-83140523D01*
X124473333Y-83064333D01*
X124397142Y-83026238D01*
X124282857Y-83026238D01*
X124206666Y-82988142D01*
X124168571Y-82911952D01*
X124168571Y-82873857D01*
X124206666Y-82797666D01*
X124282857Y-82759571D01*
X124397142Y-82759571D01*
X124473333Y-82797666D01*
X124854285Y-83216714D02*
X124892380Y-83254809D01*
X124854285Y-83292904D01*
X124816190Y-83254809D01*
X124854285Y-83216714D01*
X124854285Y-83292904D01*
X124854285Y-82797666D02*
X124892380Y-82835761D01*
X124854285Y-82873857D01*
X124816190Y-82835761D01*
X124854285Y-82797666D01*
X124854285Y-82873857D01*
X125806666Y-82454809D02*
X125120952Y-83483380D01*
X126644761Y-82454809D02*
X125959047Y-83483380D01*
X127254285Y-82759571D02*
X127254285Y-83407190D01*
X127216190Y-83483380D01*
X127178095Y-83521476D01*
X127101904Y-83559571D01*
X126987619Y-83559571D01*
X126911428Y-83521476D01*
X127254285Y-83254809D02*
X127178095Y-83292904D01*
X127025714Y-83292904D01*
X126949523Y-83254809D01*
X126911428Y-83216714D01*
X126873333Y-83140523D01*
X126873333Y-82911952D01*
X126911428Y-82835761D01*
X126949523Y-82797666D01*
X127025714Y-82759571D01*
X127178095Y-82759571D01*
X127254285Y-82797666D01*
X127635238Y-83292904D02*
X127635238Y-82759571D01*
X127635238Y-82492904D02*
X127597142Y-82531000D01*
X127635238Y-82569095D01*
X127673333Y-82531000D01*
X127635238Y-82492904D01*
X127635238Y-82569095D01*
X127901904Y-82759571D02*
X128206666Y-82759571D01*
X128016190Y-82492904D02*
X128016190Y-83178619D01*
X128054285Y-83254809D01*
X128130476Y-83292904D01*
X128206666Y-83292904D01*
X128473333Y-83292904D02*
X128473333Y-82492904D01*
X128816190Y-83292904D02*
X128816190Y-82873857D01*
X128778095Y-82797666D01*
X128701904Y-82759571D01*
X128587619Y-82759571D01*
X128511428Y-82797666D01*
X128473333Y-82835761D01*
X129540000Y-82759571D02*
X129540000Y-83292904D01*
X129197142Y-82759571D02*
X129197142Y-83178619D01*
X129235238Y-83254809D01*
X129311428Y-83292904D01*
X129425714Y-83292904D01*
X129501904Y-83254809D01*
X129540000Y-83216714D01*
X129920952Y-83292904D02*
X129920952Y-82492904D01*
X129920952Y-82797666D02*
X129997142Y-82759571D01*
X130149523Y-82759571D01*
X130225714Y-82797666D01*
X130263809Y-82835761D01*
X130301904Y-82911952D01*
X130301904Y-83140523D01*
X130263809Y-83216714D01*
X130225714Y-83254809D01*
X130149523Y-83292904D01*
X129997142Y-83292904D01*
X129920952Y-83254809D01*
X130644761Y-83216714D02*
X130682857Y-83254809D01*
X130644761Y-83292904D01*
X130606666Y-83254809D01*
X130644761Y-83216714D01*
X130644761Y-83292904D01*
X131368571Y-83254809D02*
X131292380Y-83292904D01*
X131140000Y-83292904D01*
X131063809Y-83254809D01*
X131025714Y-83216714D01*
X130987619Y-83140523D01*
X130987619Y-82911952D01*
X131025714Y-82835761D01*
X131063809Y-82797666D01*
X131140000Y-82759571D01*
X131292380Y-82759571D01*
X131368571Y-82797666D01*
X131825714Y-83292904D02*
X131749523Y-83254809D01*
X131711428Y-83216714D01*
X131673333Y-83140523D01*
X131673333Y-82911952D01*
X131711428Y-82835761D01*
X131749523Y-82797666D01*
X131825714Y-82759571D01*
X131940000Y-82759571D01*
X132016190Y-82797666D01*
X132054285Y-82835761D01*
X132092380Y-82911952D01*
X132092380Y-83140523D01*
X132054285Y-83216714D01*
X132016190Y-83254809D01*
X131940000Y-83292904D01*
X131825714Y-83292904D01*
X132435238Y-83292904D02*
X132435238Y-82759571D01*
X132435238Y-82835761D02*
X132473333Y-82797666D01*
X132549523Y-82759571D01*
X132663809Y-82759571D01*
X132740000Y-82797666D01*
X132778095Y-82873857D01*
X132778095Y-83292904D01*
X132778095Y-82873857D02*
X132816190Y-82797666D01*
X132892380Y-82759571D01*
X133006666Y-82759571D01*
X133082857Y-82797666D01*
X133120952Y-82873857D01*
X133120952Y-83292904D01*
X134073333Y-82454809D02*
X133387619Y-83483380D01*
X134301904Y-83254809D02*
X134378095Y-83292904D01*
X134530476Y-83292904D01*
X134606666Y-83254809D01*
X134644761Y-83178619D01*
X134644761Y-83140523D01*
X134606666Y-83064333D01*
X134530476Y-83026238D01*
X134416190Y-83026238D01*
X134340000Y-82988142D01*
X134301904Y-82911952D01*
X134301904Y-82873857D01*
X134340000Y-82797666D01*
X134416190Y-82759571D01*
X134530476Y-82759571D01*
X134606666Y-82797666D01*
X135101904Y-83292904D02*
X135025714Y-83254809D01*
X134987619Y-83216714D01*
X134949523Y-83140523D01*
X134949523Y-82911952D01*
X134987619Y-82835761D01*
X135025714Y-82797666D01*
X135101904Y-82759571D01*
X135216190Y-82759571D01*
X135292380Y-82797666D01*
X135330476Y-82835761D01*
X135368571Y-82911952D01*
X135368571Y-83140523D01*
X135330476Y-83216714D01*
X135292380Y-83254809D01*
X135216190Y-83292904D01*
X135101904Y-83292904D01*
X135825714Y-83292904D02*
X135749523Y-83254809D01*
X135711428Y-83178619D01*
X135711428Y-82492904D01*
X136473333Y-83292904D02*
X136473333Y-82873857D01*
X136435238Y-82797666D01*
X136359047Y-82759571D01*
X136206666Y-82759571D01*
X136130476Y-82797666D01*
X136473333Y-83254809D02*
X136397142Y-83292904D01*
X136206666Y-83292904D01*
X136130476Y-83254809D01*
X136092380Y-83178619D01*
X136092380Y-83102428D01*
X136130476Y-83026238D01*
X136206666Y-82988142D01*
X136397142Y-82988142D01*
X136473333Y-82950047D01*
X136854285Y-83292904D02*
X136854285Y-82759571D01*
X136854285Y-82911952D02*
X136892380Y-82835761D01*
X136930476Y-82797666D01*
X137006666Y-82759571D01*
X137082857Y-82759571D01*
X137349523Y-83292904D02*
X137349523Y-82759571D01*
X137349523Y-82835761D02*
X137387619Y-82797666D01*
X137463809Y-82759571D01*
X137578095Y-82759571D01*
X137654285Y-82797666D01*
X137692380Y-82873857D01*
X137692380Y-83292904D01*
X137692380Y-82873857D02*
X137730476Y-82797666D01*
X137806666Y-82759571D01*
X137920952Y-82759571D01*
X137997142Y-82797666D01*
X138035238Y-82873857D01*
X138035238Y-83292904D01*
X138530476Y-83292904D02*
X138454285Y-83254809D01*
X138416190Y-83216714D01*
X138378095Y-83140523D01*
X138378095Y-82911952D01*
X138416190Y-82835761D01*
X138454285Y-82797666D01*
X138530476Y-82759571D01*
X138644761Y-82759571D01*
X138720952Y-82797666D01*
X138759047Y-82835761D01*
X138797142Y-82911952D01*
X138797142Y-83140523D01*
X138759047Y-83216714D01*
X138720952Y-83254809D01*
X138644761Y-83292904D01*
X138530476Y-83292904D01*
X139140000Y-82759571D02*
X139140000Y-83292904D01*
X139140000Y-82835761D02*
X139178095Y-82797666D01*
X139254285Y-82759571D01*
X139368571Y-82759571D01*
X139444761Y-82797666D01*
X139482857Y-82873857D01*
X139482857Y-83292904D01*
X139787619Y-83597666D02*
X139825714Y-83559571D01*
X139901904Y-83445285D01*
X139940000Y-83369095D01*
X139978095Y-83254809D01*
X140016190Y-83064333D01*
X140016190Y-82911952D01*
X139978095Y-82721476D01*
X139940000Y-82607190D01*
X139901904Y-82531000D01*
X139825714Y-82416714D01*
X139787619Y-82378619D01*
D10*
X169418000Y-75311000D02*
X169418000Y-83820000D01*
D14*
X168275000Y-63119000D02*
G75*
G03*
X168275000Y-63119000I-127000J0D01*
G01*
X180975000Y-74930000D02*
G75*
G03*
X180975000Y-74930000I-127000J0D01*
G01*
X180975000Y-62865000D02*
G75*
G03*
X180975000Y-62865000I-127000J0D01*
G01*
D11*
X165431571Y-82451321D02*
X165538714Y-82487035D01*
X165717285Y-82487035D01*
X165788714Y-82451321D01*
X165824428Y-82415607D01*
X165860142Y-82344178D01*
X165860142Y-82272750D01*
X165824428Y-82201321D01*
X165788714Y-82165607D01*
X165717285Y-82129892D01*
X165574428Y-82094178D01*
X165503000Y-82058464D01*
X165467285Y-82022750D01*
X165431571Y-81951321D01*
X165431571Y-81879892D01*
X165467285Y-81808464D01*
X165503000Y-81772750D01*
X165574428Y-81737035D01*
X165753000Y-81737035D01*
X165860142Y-81772750D01*
X166503000Y-81987035D02*
X166503000Y-82487035D01*
X166181571Y-81987035D02*
X166181571Y-82379892D01*
X166217285Y-82451321D01*
X166288714Y-82487035D01*
X166395857Y-82487035D01*
X166467285Y-82451321D01*
X166503000Y-82415607D01*
X166860142Y-81987035D02*
X166860142Y-82737035D01*
X166860142Y-82022750D02*
X166931571Y-81987035D01*
X167074428Y-81987035D01*
X167145857Y-82022750D01*
X167181571Y-82058464D01*
X167217285Y-82129892D01*
X167217285Y-82344178D01*
X167181571Y-82415607D01*
X167145857Y-82451321D01*
X167074428Y-82487035D01*
X166931571Y-82487035D01*
X166860142Y-82451321D01*
X167824428Y-82451321D02*
X167753000Y-82487035D01*
X167610142Y-82487035D01*
X167538714Y-82451321D01*
X167503000Y-82379892D01*
X167503000Y-82094178D01*
X167538714Y-82022750D01*
X167610142Y-81987035D01*
X167753000Y-81987035D01*
X167824428Y-82022750D01*
X167860142Y-82094178D01*
X167860142Y-82165607D01*
X167503000Y-82237035D01*
X168181571Y-82487035D02*
X168181571Y-81987035D01*
X168181571Y-82129892D02*
X168217285Y-82058464D01*
X168253000Y-82022750D01*
X168324428Y-81987035D01*
X168395857Y-81987035D01*
X165217285Y-83799535D02*
X165217285Y-83049535D01*
X165395857Y-83049535D01*
X165503000Y-83085250D01*
X165574428Y-83156678D01*
X165610142Y-83228107D01*
X165645857Y-83370964D01*
X165645857Y-83478107D01*
X165610142Y-83620964D01*
X165574428Y-83692392D01*
X165503000Y-83763821D01*
X165395857Y-83799535D01*
X165217285Y-83799535D01*
X166253000Y-83763821D02*
X166181571Y-83799535D01*
X166038714Y-83799535D01*
X165967285Y-83763821D01*
X165931571Y-83692392D01*
X165931571Y-83406678D01*
X165967285Y-83335250D01*
X166038714Y-83299535D01*
X166181571Y-83299535D01*
X166253000Y-83335250D01*
X166288714Y-83406678D01*
X166288714Y-83478107D01*
X165931571Y-83549535D01*
X166610142Y-83299535D02*
X166610142Y-83799535D01*
X166610142Y-83370964D02*
X166645857Y-83335250D01*
X166717285Y-83299535D01*
X166824428Y-83299535D01*
X166895857Y-83335250D01*
X166931571Y-83406678D01*
X166931571Y-83799535D01*
X167288714Y-83799535D02*
X167288714Y-83299535D01*
X167288714Y-83049535D02*
X167253000Y-83085250D01*
X167288714Y-83120964D01*
X167324428Y-83085250D01*
X167288714Y-83049535D01*
X167288714Y-83120964D01*
X167610142Y-83763821D02*
X167681571Y-83799535D01*
X167824428Y-83799535D01*
X167895857Y-83763821D01*
X167931571Y-83692392D01*
X167931571Y-83656678D01*
X167895857Y-83585250D01*
X167824428Y-83549535D01*
X167717285Y-83549535D01*
X167645857Y-83513821D01*
X167610142Y-83442392D01*
X167610142Y-83406678D01*
X167645857Y-83335250D01*
X167717285Y-83299535D01*
X167824428Y-83299535D01*
X167895857Y-83335250D01*
X168538714Y-83763821D02*
X168467285Y-83799535D01*
X168324428Y-83799535D01*
X168253000Y-83763821D01*
X168217285Y-83692392D01*
X168217285Y-83406678D01*
X168253000Y-83335250D01*
X168324428Y-83299535D01*
X168467285Y-83299535D01*
X168538714Y-83335250D01*
X168574428Y-83406678D01*
X168574428Y-83478107D01*
X168217285Y-83549535D01*
X170297285Y-83799535D02*
X170297285Y-83049535D01*
X170475857Y-83049535D01*
X170583000Y-83085250D01*
X170654428Y-83156678D01*
X170690142Y-83228107D01*
X170725857Y-83370964D01*
X170725857Y-83478107D01*
X170690142Y-83620964D01*
X170654428Y-83692392D01*
X170583000Y-83763821D01*
X170475857Y-83799535D01*
X170297285Y-83799535D01*
X171333000Y-83763821D02*
X171261571Y-83799535D01*
X171118714Y-83799535D01*
X171047285Y-83763821D01*
X171011571Y-83692392D01*
X171011571Y-83406678D01*
X171047285Y-83335250D01*
X171118714Y-83299535D01*
X171261571Y-83299535D01*
X171333000Y-83335250D01*
X171368714Y-83406678D01*
X171368714Y-83478107D01*
X171011571Y-83549535D01*
X171690142Y-83299535D02*
X171690142Y-83799535D01*
X171690142Y-83370964D02*
X171725857Y-83335250D01*
X171797285Y-83299535D01*
X171904428Y-83299535D01*
X171975857Y-83335250D01*
X172011571Y-83406678D01*
X172011571Y-83799535D01*
X172368714Y-83799535D02*
X172368714Y-83299535D01*
X172368714Y-83049535D02*
X172333000Y-83085250D01*
X172368714Y-83120964D01*
X172404428Y-83085250D01*
X172368714Y-83049535D01*
X172368714Y-83120964D01*
X172690142Y-83763821D02*
X172761571Y-83799535D01*
X172904428Y-83799535D01*
X172975857Y-83763821D01*
X173011571Y-83692392D01*
X173011571Y-83656678D01*
X172975857Y-83585250D01*
X172904428Y-83549535D01*
X172797285Y-83549535D01*
X172725857Y-83513821D01*
X172690142Y-83442392D01*
X172690142Y-83406678D01*
X172725857Y-83335250D01*
X172797285Y-83299535D01*
X172904428Y-83299535D01*
X172975857Y-83335250D01*
X173618714Y-83763821D02*
X173547285Y-83799535D01*
X173404428Y-83799535D01*
X173333000Y-83763821D01*
X173297285Y-83692392D01*
X173297285Y-83406678D01*
X173333000Y-83335250D01*
X173404428Y-83299535D01*
X173547285Y-83299535D01*
X173618714Y-83335250D01*
X173654428Y-83406678D01*
X173654428Y-83478107D01*
X173297285Y-83549535D01*
D15*
X105870142Y-75250857D02*
X105984428Y-75288952D01*
X106022523Y-75327047D01*
X106060619Y-75403238D01*
X106060619Y-75517523D01*
X106022523Y-75593714D01*
X105984428Y-75631809D01*
X105908238Y-75669904D01*
X105603476Y-75669904D01*
X105603476Y-74869904D01*
X105870142Y-74869904D01*
X105946333Y-74908000D01*
X105984428Y-74946095D01*
X106022523Y-75022285D01*
X106022523Y-75098476D01*
X105984428Y-75174666D01*
X105946333Y-75212761D01*
X105870142Y-75250857D01*
X105603476Y-75250857D01*
X106746333Y-75669904D02*
X106746333Y-75250857D01*
X106708238Y-75174666D01*
X106632047Y-75136571D01*
X106479666Y-75136571D01*
X106403476Y-75174666D01*
X106746333Y-75631809D02*
X106670142Y-75669904D01*
X106479666Y-75669904D01*
X106403476Y-75631809D01*
X106365380Y-75555619D01*
X106365380Y-75479428D01*
X106403476Y-75403238D01*
X106479666Y-75365142D01*
X106670142Y-75365142D01*
X106746333Y-75327047D01*
X107089190Y-75631809D02*
X107165380Y-75669904D01*
X107317761Y-75669904D01*
X107393952Y-75631809D01*
X107432047Y-75555619D01*
X107432047Y-75517523D01*
X107393952Y-75441333D01*
X107317761Y-75403238D01*
X107203476Y-75403238D01*
X107127285Y-75365142D01*
X107089190Y-75288952D01*
X107089190Y-75250857D01*
X107127285Y-75174666D01*
X107203476Y-75136571D01*
X107317761Y-75136571D01*
X107393952Y-75174666D01*
X108079666Y-75631809D02*
X108003476Y-75669904D01*
X107851095Y-75669904D01*
X107774904Y-75631809D01*
X107736809Y-75555619D01*
X107736809Y-75250857D01*
X107774904Y-75174666D01*
X107851095Y-75136571D01*
X108003476Y-75136571D01*
X108079666Y-75174666D01*
X108117761Y-75250857D01*
X108117761Y-75327047D01*
X107736809Y-75403238D01*
X108803476Y-75669904D02*
X108803476Y-74869904D01*
X108803476Y-75631809D02*
X108727285Y-75669904D01*
X108574904Y-75669904D01*
X108498714Y-75631809D01*
X108460619Y-75593714D01*
X108422523Y-75517523D01*
X108422523Y-75288952D01*
X108460619Y-75212761D01*
X108498714Y-75174666D01*
X108574904Y-75136571D01*
X108727285Y-75136571D01*
X108803476Y-75174666D01*
X109908238Y-75669904D02*
X109832047Y-75631809D01*
X109793952Y-75593714D01*
X109755857Y-75517523D01*
X109755857Y-75288952D01*
X109793952Y-75212761D01*
X109832047Y-75174666D01*
X109908238Y-75136571D01*
X110022523Y-75136571D01*
X110098714Y-75174666D01*
X110136809Y-75212761D01*
X110174904Y-75288952D01*
X110174904Y-75517523D01*
X110136809Y-75593714D01*
X110098714Y-75631809D01*
X110022523Y-75669904D01*
X109908238Y-75669904D01*
X110517761Y-75136571D02*
X110517761Y-75669904D01*
X110517761Y-75212761D02*
X110555857Y-75174666D01*
X110632047Y-75136571D01*
X110746333Y-75136571D01*
X110822523Y-75174666D01*
X110860619Y-75250857D01*
X110860619Y-75669904D01*
X111241571Y-75593714D02*
X111279666Y-75631809D01*
X111241571Y-75669904D01*
X111203476Y-75631809D01*
X111241571Y-75593714D01*
X111241571Y-75669904D01*
X111241571Y-75174666D02*
X111279666Y-75212761D01*
X111241571Y-75250857D01*
X111203476Y-75212761D01*
X111241571Y-75174666D01*
X111241571Y-75250857D01*
X106060619Y-77069904D02*
X105793952Y-76688952D01*
X105603476Y-77069904D02*
X105603476Y-76269904D01*
X105908238Y-76269904D01*
X105984428Y-76308000D01*
X106022523Y-76346095D01*
X106060619Y-76422285D01*
X106060619Y-76536571D01*
X106022523Y-76612761D01*
X105984428Y-76650857D01*
X105908238Y-76688952D01*
X105603476Y-76688952D01*
X106822523Y-76308000D02*
X106746333Y-76269904D01*
X106632047Y-76269904D01*
X106517761Y-76308000D01*
X106441571Y-76384190D01*
X106403476Y-76460380D01*
X106365380Y-76612761D01*
X106365380Y-76727047D01*
X106403476Y-76879428D01*
X106441571Y-76955619D01*
X106517761Y-77031809D01*
X106632047Y-77069904D01*
X106708238Y-77069904D01*
X106822523Y-77031809D01*
X106860619Y-76993714D01*
X106860619Y-76727047D01*
X106708238Y-76727047D01*
X107470142Y-76650857D02*
X107584428Y-76688952D01*
X107622523Y-76727047D01*
X107660619Y-76803238D01*
X107660619Y-76917523D01*
X107622523Y-76993714D01*
X107584428Y-77031809D01*
X107508238Y-77069904D01*
X107203476Y-77069904D01*
X107203476Y-76269904D01*
X107470142Y-76269904D01*
X107546333Y-76308000D01*
X107584428Y-76346095D01*
X107622523Y-76422285D01*
X107622523Y-76498476D01*
X107584428Y-76574666D01*
X107546333Y-76612761D01*
X107470142Y-76650857D01*
X107203476Y-76650857D01*
X107889190Y-76536571D02*
X108193952Y-76536571D01*
X108003476Y-76269904D02*
X108003476Y-76955619D01*
X108041571Y-77031809D01*
X108117761Y-77069904D01*
X108193952Y-77069904D01*
X108574904Y-77069904D02*
X108498714Y-77031809D01*
X108460619Y-76993714D01*
X108422523Y-76917523D01*
X108422523Y-76688952D01*
X108460619Y-76612761D01*
X108498714Y-76574666D01*
X108574904Y-76536571D01*
X108689190Y-76536571D01*
X108765380Y-76574666D01*
X108803476Y-76612761D01*
X108841571Y-76688952D01*
X108841571Y-76917523D01*
X108803476Y-76993714D01*
X108765380Y-77031809D01*
X108689190Y-77069904D01*
X108574904Y-77069904D01*
X109184428Y-77069904D02*
X109184428Y-76269904D01*
X109184428Y-76650857D02*
X109641571Y-76650857D01*
X109641571Y-77069904D02*
X109641571Y-76269904D01*
X110022523Y-77069904D02*
X110022523Y-76269904D01*
X110213000Y-76269904D01*
X110327285Y-76308000D01*
X110403476Y-76384190D01*
X110441571Y-76460380D01*
X110479666Y-76612761D01*
X110479666Y-76727047D01*
X110441571Y-76879428D01*
X110403476Y-76955619D01*
X110327285Y-77031809D01*
X110213000Y-77069904D01*
X110022523Y-77069904D01*
X110822523Y-77069904D02*
X110822523Y-76269904D01*
X111089190Y-76841333D01*
X111355857Y-76269904D01*
X111355857Y-77069904D01*
X111736809Y-77069904D02*
X111736809Y-76269904D01*
X112727285Y-77069904D02*
X112727285Y-76269904D01*
X112727285Y-76574666D02*
X112803476Y-76536571D01*
X112955857Y-76536571D01*
X113032047Y-76574666D01*
X113070142Y-76612761D01*
X113108238Y-76688952D01*
X113108238Y-76917523D01*
X113070142Y-76993714D01*
X113032047Y-77031809D01*
X112955857Y-77069904D01*
X112803476Y-77069904D01*
X112727285Y-77031809D01*
X113374904Y-76536571D02*
X113565380Y-77069904D01*
X113755857Y-76536571D02*
X113565380Y-77069904D01*
X113489190Y-77260380D01*
X113451095Y-77298476D01*
X113374904Y-77336571D01*
X114670142Y-77069904D02*
X114670142Y-76269904D01*
X115013000Y-77069904D02*
X115013000Y-76650857D01*
X114974904Y-76574666D01*
X114898714Y-76536571D01*
X114784428Y-76536571D01*
X114708238Y-76574666D01*
X114670142Y-76612761D01*
X115508238Y-77069904D02*
X115432047Y-77031809D01*
X115393952Y-76993714D01*
X115355857Y-76917523D01*
X115355857Y-76688952D01*
X115393952Y-76612761D01*
X115432047Y-76574666D01*
X115508238Y-76536571D01*
X115622523Y-76536571D01*
X115698714Y-76574666D01*
X115736809Y-76612761D01*
X115774904Y-76688952D01*
X115774904Y-76917523D01*
X115736809Y-76993714D01*
X115698714Y-77031809D01*
X115622523Y-77069904D01*
X115508238Y-77069904D01*
X116460619Y-76536571D02*
X116460619Y-77184190D01*
X116422523Y-77260380D01*
X116384428Y-77298476D01*
X116308238Y-77336571D01*
X116193952Y-77336571D01*
X116117761Y-77298476D01*
X116460619Y-77031809D02*
X116384428Y-77069904D01*
X116232047Y-77069904D01*
X116155857Y-77031809D01*
X116117761Y-76993714D01*
X116079666Y-76917523D01*
X116079666Y-76688952D01*
X116117761Y-76612761D01*
X116155857Y-76574666D01*
X116232047Y-76536571D01*
X116384428Y-76536571D01*
X116460619Y-76574666D01*
X116955857Y-77069904D02*
X116879666Y-77031809D01*
X116841571Y-76955619D01*
X116841571Y-76269904D01*
X117565380Y-77031809D02*
X117489190Y-77069904D01*
X117336809Y-77069904D01*
X117260619Y-77031809D01*
X117222523Y-76955619D01*
X117222523Y-76650857D01*
X117260619Y-76574666D01*
X117336809Y-76536571D01*
X117489190Y-76536571D01*
X117565380Y-76574666D01*
X117603476Y-76650857D01*
X117603476Y-76727047D01*
X117222523Y-76803238D01*
X117832047Y-76536571D02*
X118136809Y-76536571D01*
X117946333Y-76269904D02*
X117946333Y-76955619D01*
X117984428Y-77031809D01*
X118060619Y-77069904D01*
X118136809Y-77069904D01*
X118746333Y-76269904D02*
X118593952Y-76269904D01*
X118517761Y-76308000D01*
X118479666Y-76346095D01*
X118403476Y-76460380D01*
X118365380Y-76612761D01*
X118365380Y-76917523D01*
X118403476Y-76993714D01*
X118441571Y-77031809D01*
X118517761Y-77069904D01*
X118670142Y-77069904D01*
X118746333Y-77031809D01*
X118784428Y-76993714D01*
X118822523Y-76917523D01*
X118822523Y-76727047D01*
X118784428Y-76650857D01*
X118746333Y-76612761D01*
X118670142Y-76574666D01*
X118517761Y-76574666D01*
X118441571Y-76612761D01*
X118403476Y-76650857D01*
X118365380Y-76727047D01*
X119089190Y-76269904D02*
X119622523Y-76269904D01*
X119279666Y-77069904D01*
X120765380Y-77374666D02*
X120727285Y-77336571D01*
X120651095Y-77222285D01*
X120613000Y-77146095D01*
X120574904Y-77031809D01*
X120536809Y-76841333D01*
X120536809Y-76688952D01*
X120574904Y-76498476D01*
X120613000Y-76384190D01*
X120651095Y-76308000D01*
X120727285Y-76193714D01*
X120765380Y-76155619D01*
X121070142Y-77069904D02*
X121070142Y-76269904D01*
X121413000Y-77069904D02*
X121413000Y-76650857D01*
X121374904Y-76574666D01*
X121298714Y-76536571D01*
X121184428Y-76536571D01*
X121108238Y-76574666D01*
X121070142Y-76612761D01*
X121679666Y-76536571D02*
X121984428Y-76536571D01*
X121793952Y-76269904D02*
X121793952Y-76955619D01*
X121832047Y-77031809D01*
X121908238Y-77069904D01*
X121984428Y-77069904D01*
X122136809Y-76536571D02*
X122441571Y-76536571D01*
X122251095Y-76269904D02*
X122251095Y-76955619D01*
X122289190Y-77031809D01*
X122365380Y-77069904D01*
X122441571Y-77069904D01*
X122708238Y-76536571D02*
X122708238Y-77336571D01*
X122708238Y-76574666D02*
X122784428Y-76536571D01*
X122936809Y-76536571D01*
X123013000Y-76574666D01*
X123051095Y-76612761D01*
X123089190Y-76688952D01*
X123089190Y-76917523D01*
X123051095Y-76993714D01*
X123013000Y-77031809D01*
X122936809Y-77069904D01*
X122784428Y-77069904D01*
X122708238Y-77031809D01*
X123393952Y-77031809D02*
X123470142Y-77069904D01*
X123622523Y-77069904D01*
X123698714Y-77031809D01*
X123736809Y-76955619D01*
X123736809Y-76917523D01*
X123698714Y-76841333D01*
X123622523Y-76803238D01*
X123508238Y-76803238D01*
X123432047Y-76765142D01*
X123393952Y-76688952D01*
X123393952Y-76650857D01*
X123432047Y-76574666D01*
X123508238Y-76536571D01*
X123622523Y-76536571D01*
X123698714Y-76574666D01*
X124079666Y-76993714D02*
X124117761Y-77031809D01*
X124079666Y-77069904D01*
X124041571Y-77031809D01*
X124079666Y-76993714D01*
X124079666Y-77069904D01*
X124079666Y-76574666D02*
X124117761Y-76612761D01*
X124079666Y-76650857D01*
X124041571Y-76612761D01*
X124079666Y-76574666D01*
X124079666Y-76650857D01*
X125032047Y-76231809D02*
X124346333Y-77260380D01*
X125870142Y-76231809D02*
X125184428Y-77260380D01*
X126479666Y-76536571D02*
X126479666Y-77184190D01*
X126441571Y-77260380D01*
X126403476Y-77298476D01*
X126327285Y-77336571D01*
X126213000Y-77336571D01*
X126136809Y-77298476D01*
X126479666Y-77031809D02*
X126403476Y-77069904D01*
X126251095Y-77069904D01*
X126174904Y-77031809D01*
X126136809Y-76993714D01*
X126098714Y-76917523D01*
X126098714Y-76688952D01*
X126136809Y-76612761D01*
X126174904Y-76574666D01*
X126251095Y-76536571D01*
X126403476Y-76536571D01*
X126479666Y-76574666D01*
X126860619Y-77069904D02*
X126860619Y-76536571D01*
X126860619Y-76269904D02*
X126822523Y-76308000D01*
X126860619Y-76346095D01*
X126898714Y-76308000D01*
X126860619Y-76269904D01*
X126860619Y-76346095D01*
X127127285Y-76536571D02*
X127432047Y-76536571D01*
X127241571Y-76269904D02*
X127241571Y-76955619D01*
X127279666Y-77031809D01*
X127355857Y-77069904D01*
X127432047Y-77069904D01*
X127698714Y-77069904D02*
X127698714Y-76269904D01*
X128041571Y-77069904D02*
X128041571Y-76650857D01*
X128003476Y-76574666D01*
X127927285Y-76536571D01*
X127813000Y-76536571D01*
X127736809Y-76574666D01*
X127698714Y-76612761D01*
X128765380Y-76536571D02*
X128765380Y-77069904D01*
X128422523Y-76536571D02*
X128422523Y-76955619D01*
X128460619Y-77031809D01*
X128536809Y-77069904D01*
X128651095Y-77069904D01*
X128727285Y-77031809D01*
X128765380Y-76993714D01*
X129146333Y-77069904D02*
X129146333Y-76269904D01*
X129146333Y-76574666D02*
X129222523Y-76536571D01*
X129374904Y-76536571D01*
X129451095Y-76574666D01*
X129489190Y-76612761D01*
X129527285Y-76688952D01*
X129527285Y-76917523D01*
X129489190Y-76993714D01*
X129451095Y-77031809D01*
X129374904Y-77069904D01*
X129222523Y-77069904D01*
X129146333Y-77031809D01*
X129870142Y-76993714D02*
X129908238Y-77031809D01*
X129870142Y-77069904D01*
X129832047Y-77031809D01*
X129870142Y-76993714D01*
X129870142Y-77069904D01*
X130593952Y-77031809D02*
X130517761Y-77069904D01*
X130365380Y-77069904D01*
X130289190Y-77031809D01*
X130251095Y-76993714D01*
X130213000Y-76917523D01*
X130213000Y-76688952D01*
X130251095Y-76612761D01*
X130289190Y-76574666D01*
X130365380Y-76536571D01*
X130517761Y-76536571D01*
X130593952Y-76574666D01*
X131051095Y-77069904D02*
X130974904Y-77031809D01*
X130936809Y-76993714D01*
X130898714Y-76917523D01*
X130898714Y-76688952D01*
X130936809Y-76612761D01*
X130974904Y-76574666D01*
X131051095Y-76536571D01*
X131165380Y-76536571D01*
X131241571Y-76574666D01*
X131279666Y-76612761D01*
X131317761Y-76688952D01*
X131317761Y-76917523D01*
X131279666Y-76993714D01*
X131241571Y-77031809D01*
X131165380Y-77069904D01*
X131051095Y-77069904D01*
X131660619Y-77069904D02*
X131660619Y-76536571D01*
X131660619Y-76612761D02*
X131698714Y-76574666D01*
X131774904Y-76536571D01*
X131889190Y-76536571D01*
X131965380Y-76574666D01*
X132003476Y-76650857D01*
X132003476Y-77069904D01*
X132003476Y-76650857D02*
X132041571Y-76574666D01*
X132117761Y-76536571D01*
X132232047Y-76536571D01*
X132308238Y-76574666D01*
X132346333Y-76650857D01*
X132346333Y-77069904D01*
X133298714Y-76231809D02*
X132613000Y-77260380D01*
X133565380Y-77069904D02*
X133565380Y-76269904D01*
X133908238Y-77069904D02*
X133908238Y-76650857D01*
X133870142Y-76574666D01*
X133793952Y-76536571D01*
X133679666Y-76536571D01*
X133603476Y-76574666D01*
X133565380Y-76612761D01*
X134403476Y-77069904D02*
X134327285Y-77031809D01*
X134289190Y-76993714D01*
X134251095Y-76917523D01*
X134251095Y-76688952D01*
X134289190Y-76612761D01*
X134327285Y-76574666D01*
X134403476Y-76536571D01*
X134517761Y-76536571D01*
X134593952Y-76574666D01*
X134632047Y-76612761D01*
X134670142Y-76688952D01*
X134670142Y-76917523D01*
X134632047Y-76993714D01*
X134593952Y-77031809D01*
X134517761Y-77069904D01*
X134403476Y-77069904D01*
X135355857Y-76536571D02*
X135355857Y-77184190D01*
X135317761Y-77260380D01*
X135279666Y-77298476D01*
X135203476Y-77336571D01*
X135089190Y-77336571D01*
X135013000Y-77298476D01*
X135355857Y-77031809D02*
X135279666Y-77069904D01*
X135127285Y-77069904D01*
X135051095Y-77031809D01*
X135013000Y-76993714D01*
X134974904Y-76917523D01*
X134974904Y-76688952D01*
X135013000Y-76612761D01*
X135051095Y-76574666D01*
X135127285Y-76536571D01*
X135279666Y-76536571D01*
X135355857Y-76574666D01*
X135851095Y-77069904D02*
X135774904Y-77031809D01*
X135736809Y-76955619D01*
X135736809Y-76269904D01*
X136460619Y-77031809D02*
X136384428Y-77069904D01*
X136232047Y-77069904D01*
X136155857Y-77031809D01*
X136117761Y-76955619D01*
X136117761Y-76650857D01*
X136155857Y-76574666D01*
X136232047Y-76536571D01*
X136384428Y-76536571D01*
X136460619Y-76574666D01*
X136498714Y-76650857D01*
X136498714Y-76727047D01*
X136117761Y-76803238D01*
X136727285Y-76536571D02*
X137032047Y-76536571D01*
X136841571Y-76269904D02*
X136841571Y-76955619D01*
X136879666Y-77031809D01*
X136955857Y-77069904D01*
X137032047Y-77069904D01*
X137641571Y-76269904D02*
X137489190Y-76269904D01*
X137413000Y-76308000D01*
X137374904Y-76346095D01*
X137298714Y-76460380D01*
X137260619Y-76612761D01*
X137260619Y-76917523D01*
X137298714Y-76993714D01*
X137336809Y-77031809D01*
X137413000Y-77069904D01*
X137565380Y-77069904D01*
X137641571Y-77031809D01*
X137679666Y-76993714D01*
X137717761Y-76917523D01*
X137717761Y-76727047D01*
X137679666Y-76650857D01*
X137641571Y-76612761D01*
X137565380Y-76574666D01*
X137413000Y-76574666D01*
X137336809Y-76612761D01*
X137298714Y-76650857D01*
X137260619Y-76727047D01*
X137984428Y-76269904D02*
X138517761Y-76269904D01*
X138174904Y-77069904D01*
X139393952Y-76231809D02*
X138708238Y-77260380D01*
X140117761Y-77069904D02*
X139851095Y-76688952D01*
X139660619Y-77069904D02*
X139660619Y-76269904D01*
X139965380Y-76269904D01*
X140041571Y-76308000D01*
X140079666Y-76346095D01*
X140117761Y-76422285D01*
X140117761Y-76536571D01*
X140079666Y-76612761D01*
X140041571Y-76650857D01*
X139965380Y-76688952D01*
X139660619Y-76688952D01*
X140879666Y-76308000D02*
X140803476Y-76269904D01*
X140689190Y-76269904D01*
X140574904Y-76308000D01*
X140498714Y-76384190D01*
X140460619Y-76460380D01*
X140422523Y-76612761D01*
X140422523Y-76727047D01*
X140460619Y-76879428D01*
X140498714Y-76955619D01*
X140574904Y-77031809D01*
X140689190Y-77069904D01*
X140765380Y-77069904D01*
X140879666Y-77031809D01*
X140917761Y-76993714D01*
X140917761Y-76727047D01*
X140765380Y-76727047D01*
X141527285Y-76650857D02*
X141641571Y-76688952D01*
X141679666Y-76727047D01*
X141717761Y-76803238D01*
X141717761Y-76917523D01*
X141679666Y-76993714D01*
X141641571Y-77031809D01*
X141565380Y-77069904D01*
X141260619Y-77069904D01*
X141260619Y-76269904D01*
X141527285Y-76269904D01*
X141603476Y-76308000D01*
X141641571Y-76346095D01*
X141679666Y-76422285D01*
X141679666Y-76498476D01*
X141641571Y-76574666D01*
X141603476Y-76612761D01*
X141527285Y-76650857D01*
X141260619Y-76650857D01*
X141946333Y-76536571D02*
X142251095Y-76536571D01*
X142060619Y-76269904D02*
X142060619Y-76955619D01*
X142098714Y-77031809D01*
X142174904Y-77069904D01*
X142251095Y-77069904D01*
X142632047Y-77069904D02*
X142555857Y-77031809D01*
X142517761Y-76993714D01*
X142479666Y-76917523D01*
X142479666Y-76688952D01*
X142517761Y-76612761D01*
X142555857Y-76574666D01*
X142632047Y-76536571D01*
X142746333Y-76536571D01*
X142822523Y-76574666D01*
X142860619Y-76612761D01*
X142898714Y-76688952D01*
X142898714Y-76917523D01*
X142860619Y-76993714D01*
X142822523Y-77031809D01*
X142746333Y-77069904D01*
X142632047Y-77069904D01*
X143241571Y-77069904D02*
X143241571Y-76269904D01*
X143241571Y-76650857D02*
X143698714Y-76650857D01*
X143698714Y-77069904D02*
X143698714Y-76269904D01*
X144079666Y-77069904D02*
X144079666Y-76269904D01*
X144270142Y-76269904D01*
X144384428Y-76308000D01*
X144460619Y-76384190D01*
X144498714Y-76460380D01*
X144536809Y-76612761D01*
X144536809Y-76727047D01*
X144498714Y-76879428D01*
X144460619Y-76955619D01*
X144384428Y-77031809D01*
X144270142Y-77069904D01*
X144079666Y-77069904D01*
X144879666Y-77069904D02*
X144879666Y-76269904D01*
X145146333Y-76841333D01*
X145413000Y-76269904D01*
X145413000Y-77069904D01*
X145793952Y-77069904D02*
X145793952Y-76269904D01*
X146098714Y-77374666D02*
X146136809Y-77336571D01*
X146213000Y-77222285D01*
X146251095Y-77146095D01*
X146289190Y-77031809D01*
X146327285Y-76841333D01*
X146327285Y-76688952D01*
X146289190Y-76498476D01*
X146251095Y-76384190D01*
X146213000Y-76308000D01*
X146136809Y-76193714D01*
X146098714Y-76155619D01*
X105565380Y-78241333D02*
X105946333Y-78241333D01*
X105489190Y-78469904D02*
X105755857Y-77669904D01*
X106022523Y-78469904D01*
X106289190Y-78469904D02*
X106289190Y-77936571D01*
X106289190Y-78012761D02*
X106327285Y-77974666D01*
X106403476Y-77936571D01*
X106517761Y-77936571D01*
X106593952Y-77974666D01*
X106632047Y-78050857D01*
X106632047Y-78469904D01*
X106632047Y-78050857D02*
X106670142Y-77974666D01*
X106746333Y-77936571D01*
X106860619Y-77936571D01*
X106936809Y-77974666D01*
X106974904Y-78050857D01*
X106974904Y-78469904D01*
X107355857Y-78469904D02*
X107355857Y-77936571D01*
X107355857Y-77669904D02*
X107317761Y-77708000D01*
X107355857Y-77746095D01*
X107393952Y-77708000D01*
X107355857Y-77669904D01*
X107355857Y-77746095D01*
X108079666Y-77936571D02*
X108079666Y-78584190D01*
X108041571Y-78660380D01*
X108003476Y-78698476D01*
X107927285Y-78736571D01*
X107813000Y-78736571D01*
X107736809Y-78698476D01*
X108079666Y-78431809D02*
X108003476Y-78469904D01*
X107851095Y-78469904D01*
X107774904Y-78431809D01*
X107736809Y-78393714D01*
X107698714Y-78317523D01*
X107698714Y-78088952D01*
X107736809Y-78012761D01*
X107774904Y-77974666D01*
X107851095Y-77936571D01*
X108003476Y-77936571D01*
X108079666Y-77974666D01*
X108803476Y-78469904D02*
X108803476Y-78050857D01*
X108765380Y-77974666D01*
X108689190Y-77936571D01*
X108536809Y-77936571D01*
X108460619Y-77974666D01*
X108803476Y-78431809D02*
X108727285Y-78469904D01*
X108536809Y-78469904D01*
X108460619Y-78431809D01*
X108422523Y-78355619D01*
X108422523Y-78279428D01*
X108460619Y-78203238D01*
X108536809Y-78165142D01*
X108727285Y-78165142D01*
X108803476Y-78127047D01*
X109793952Y-78469904D02*
X109793952Y-77669904D01*
X109984428Y-77669904D01*
X110098714Y-77708000D01*
X110174904Y-77784190D01*
X110213000Y-77860380D01*
X110251095Y-78012761D01*
X110251095Y-78127047D01*
X110213000Y-78279428D01*
X110174904Y-78355619D01*
X110098714Y-78431809D01*
X109984428Y-78469904D01*
X109793952Y-78469904D01*
X110898714Y-78431809D02*
X110822523Y-78469904D01*
X110670142Y-78469904D01*
X110593952Y-78431809D01*
X110555857Y-78355619D01*
X110555857Y-78050857D01*
X110593952Y-77974666D01*
X110670142Y-77936571D01*
X110822523Y-77936571D01*
X110898714Y-77974666D01*
X110936809Y-78050857D01*
X110936809Y-78127047D01*
X110555857Y-78203238D01*
X111279666Y-77936571D02*
X111279666Y-78469904D01*
X111279666Y-78012761D02*
X111317761Y-77974666D01*
X111393952Y-77936571D01*
X111508238Y-77936571D01*
X111584428Y-77974666D01*
X111622523Y-78050857D01*
X111622523Y-78469904D01*
X112003476Y-78469904D02*
X112003476Y-77936571D01*
X112003476Y-77669904D02*
X111965380Y-77708000D01*
X112003476Y-77746095D01*
X112041571Y-77708000D01*
X112003476Y-77669904D01*
X112003476Y-77746095D01*
X112346333Y-78431809D02*
X112422523Y-78469904D01*
X112574904Y-78469904D01*
X112651095Y-78431809D01*
X112689190Y-78355619D01*
X112689190Y-78317523D01*
X112651095Y-78241333D01*
X112574904Y-78203238D01*
X112460619Y-78203238D01*
X112384428Y-78165142D01*
X112346333Y-78088952D01*
X112346333Y-78050857D01*
X112384428Y-77974666D01*
X112460619Y-77936571D01*
X112574904Y-77936571D01*
X112651095Y-77974666D01*
X113336809Y-78431809D02*
X113260619Y-78469904D01*
X113108238Y-78469904D01*
X113032047Y-78431809D01*
X112993952Y-78355619D01*
X112993952Y-78050857D01*
X113032047Y-77974666D01*
X113108238Y-77936571D01*
X113260619Y-77936571D01*
X113336809Y-77974666D01*
X113374904Y-78050857D01*
X113374904Y-78127047D01*
X112993952Y-78203238D01*
X114670142Y-78469904D02*
X114670142Y-78050857D01*
X114632047Y-77974666D01*
X114555857Y-77936571D01*
X114403476Y-77936571D01*
X114327285Y-77974666D01*
X114670142Y-78431809D02*
X114593952Y-78469904D01*
X114403476Y-78469904D01*
X114327285Y-78431809D01*
X114289190Y-78355619D01*
X114289190Y-78279428D01*
X114327285Y-78203238D01*
X114403476Y-78165142D01*
X114593952Y-78165142D01*
X114670142Y-78127047D01*
X115393952Y-78469904D02*
X115393952Y-77669904D01*
X115393952Y-78431809D02*
X115317761Y-78469904D01*
X115165380Y-78469904D01*
X115089190Y-78431809D01*
X115051095Y-78393714D01*
X115013000Y-78317523D01*
X115013000Y-78088952D01*
X115051095Y-78012761D01*
X115089190Y-77974666D01*
X115165380Y-77936571D01*
X115317761Y-77936571D01*
X115393952Y-77974666D01*
X116117761Y-78469904D02*
X116117761Y-78050857D01*
X116079666Y-77974666D01*
X116003476Y-77936571D01*
X115851095Y-77936571D01*
X115774904Y-77974666D01*
X116117761Y-78431809D02*
X116041571Y-78469904D01*
X115851095Y-78469904D01*
X115774904Y-78431809D01*
X115736809Y-78355619D01*
X115736809Y-78279428D01*
X115774904Y-78203238D01*
X115851095Y-78165142D01*
X116041571Y-78165142D01*
X116117761Y-78127047D01*
X116498714Y-77936571D02*
X116498714Y-78736571D01*
X116498714Y-77974666D02*
X116574904Y-77936571D01*
X116727285Y-77936571D01*
X116803476Y-77974666D01*
X116841571Y-78012761D01*
X116879666Y-78088952D01*
X116879666Y-78317523D01*
X116841571Y-78393714D01*
X116803476Y-78431809D01*
X116727285Y-78469904D01*
X116574904Y-78469904D01*
X116498714Y-78431809D01*
X117108238Y-77936571D02*
X117413000Y-77936571D01*
X117222523Y-77669904D02*
X117222523Y-78355619D01*
X117260619Y-78431809D01*
X117336809Y-78469904D01*
X117413000Y-78469904D01*
X117984428Y-78431809D02*
X117908238Y-78469904D01*
X117755857Y-78469904D01*
X117679666Y-78431809D01*
X117641571Y-78355619D01*
X117641571Y-78050857D01*
X117679666Y-77974666D01*
X117755857Y-77936571D01*
X117908238Y-77936571D01*
X117984428Y-77974666D01*
X118022523Y-78050857D01*
X118022523Y-78127047D01*
X117641571Y-78203238D01*
X118365380Y-78469904D02*
X118365380Y-77936571D01*
X118365380Y-78088952D02*
X118403476Y-78012761D01*
X118441571Y-77974666D01*
X118517761Y-77936571D01*
X118593952Y-77936571D01*
X119470142Y-78469904D02*
X119470142Y-77669904D01*
X119470142Y-77974666D02*
X119546333Y-77936571D01*
X119698714Y-77936571D01*
X119774904Y-77974666D01*
X119813000Y-78012761D01*
X119851095Y-78088952D01*
X119851095Y-78317523D01*
X119813000Y-78393714D01*
X119774904Y-78431809D01*
X119698714Y-78469904D01*
X119546333Y-78469904D01*
X119470142Y-78431809D01*
X120117761Y-77936571D02*
X120308238Y-78469904D01*
X120498714Y-77936571D02*
X120308238Y-78469904D01*
X120232047Y-78660380D01*
X120193952Y-78698476D01*
X120117761Y-78736571D01*
X121755857Y-78431809D02*
X121679666Y-78469904D01*
X121527285Y-78469904D01*
X121451095Y-78431809D01*
X121413000Y-78393714D01*
X121374904Y-78317523D01*
X121374904Y-78088952D01*
X121413000Y-78012761D01*
X121451095Y-77974666D01*
X121527285Y-77936571D01*
X121679666Y-77936571D01*
X121755857Y-77974666D01*
X122251095Y-77669904D02*
X122327285Y-77669904D01*
X122403476Y-77708000D01*
X122441571Y-77746095D01*
X122479666Y-77822285D01*
X122517761Y-77974666D01*
X122517761Y-78165142D01*
X122479666Y-78317523D01*
X122441571Y-78393714D01*
X122403476Y-78431809D01*
X122327285Y-78469904D01*
X122251095Y-78469904D01*
X122174904Y-78431809D01*
X122136809Y-78393714D01*
X122098714Y-78317523D01*
X122060619Y-78165142D01*
X122060619Y-77974666D01*
X122098714Y-77822285D01*
X122136809Y-77746095D01*
X122174904Y-77708000D01*
X122251095Y-77669904D01*
X122860619Y-77936571D02*
X122860619Y-78736571D01*
X122860619Y-77974666D02*
X122936809Y-77936571D01*
X123089190Y-77936571D01*
X123165380Y-77974666D01*
X123203476Y-78012761D01*
X123241571Y-78088952D01*
X123241571Y-78317523D01*
X123203476Y-78393714D01*
X123165380Y-78431809D01*
X123089190Y-78469904D01*
X122936809Y-78469904D01*
X122860619Y-78431809D01*
X123584428Y-77936571D02*
X123584428Y-78736571D01*
X123584428Y-77974666D02*
X123660619Y-77936571D01*
X123813000Y-77936571D01*
X123889190Y-77974666D01*
X123927285Y-78012761D01*
X123965380Y-78088952D01*
X123965380Y-78317523D01*
X123927285Y-78393714D01*
X123889190Y-78431809D01*
X123813000Y-78469904D01*
X123660619Y-78469904D01*
X123584428Y-78431809D01*
X124613000Y-78431809D02*
X124536809Y-78469904D01*
X124384428Y-78469904D01*
X124308238Y-78431809D01*
X124270142Y-78355619D01*
X124270142Y-78050857D01*
X124308238Y-77974666D01*
X124384428Y-77936571D01*
X124536809Y-77936571D01*
X124613000Y-77974666D01*
X124651095Y-78050857D01*
X124651095Y-78127047D01*
X124270142Y-78203238D01*
X124993952Y-78469904D02*
X124993952Y-77936571D01*
X124993952Y-78088952D02*
X125032047Y-78012761D01*
X125070142Y-77974666D01*
X125146333Y-77936571D01*
X125222523Y-77936571D01*
X125832047Y-78469904D02*
X125832047Y-77669904D01*
X125832047Y-78431809D02*
X125755857Y-78469904D01*
X125603476Y-78469904D01*
X125527285Y-78431809D01*
X125489190Y-78393714D01*
X125451095Y-78317523D01*
X125451095Y-78088952D01*
X125489190Y-78012761D01*
X125527285Y-77974666D01*
X125603476Y-77936571D01*
X125755857Y-77936571D01*
X125832047Y-77974666D01*
X126213000Y-78469904D02*
X126213000Y-77936571D01*
X126213000Y-78088952D02*
X126251095Y-78012761D01*
X126289190Y-77974666D01*
X126365380Y-77936571D01*
X126441571Y-77936571D01*
X127051095Y-78469904D02*
X127051095Y-78050857D01*
X127013000Y-77974666D01*
X126936809Y-77936571D01*
X126784428Y-77936571D01*
X126708238Y-77974666D01*
X127051095Y-78431809D02*
X126974904Y-78469904D01*
X126784428Y-78469904D01*
X126708238Y-78431809D01*
X126670142Y-78355619D01*
X126670142Y-78279428D01*
X126708238Y-78203238D01*
X126784428Y-78165142D01*
X126974904Y-78165142D01*
X127051095Y-78127047D01*
X127774904Y-77936571D02*
X127774904Y-78584190D01*
X127736809Y-78660380D01*
X127698714Y-78698476D01*
X127622523Y-78736571D01*
X127508238Y-78736571D01*
X127432047Y-78698476D01*
X127774904Y-78431809D02*
X127698714Y-78469904D01*
X127546333Y-78469904D01*
X127470142Y-78431809D01*
X127432047Y-78393714D01*
X127393952Y-78317523D01*
X127393952Y-78088952D01*
X127432047Y-78012761D01*
X127470142Y-77974666D01*
X127546333Y-77936571D01*
X127698714Y-77936571D01*
X127774904Y-77974666D01*
X128270142Y-78469904D02*
X128193952Y-78431809D01*
X128155857Y-78393714D01*
X128117761Y-78317523D01*
X128117761Y-78088952D01*
X128155857Y-78012761D01*
X128193952Y-77974666D01*
X128270142Y-77936571D01*
X128384428Y-77936571D01*
X128460619Y-77974666D01*
X128498714Y-78012761D01*
X128536809Y-78088952D01*
X128536809Y-78317523D01*
X128498714Y-78393714D01*
X128460619Y-78431809D01*
X128384428Y-78469904D01*
X128270142Y-78469904D01*
X128879666Y-77936571D02*
X128879666Y-78469904D01*
X128879666Y-78012761D02*
X128917761Y-77974666D01*
X128993952Y-77936571D01*
X129108238Y-77936571D01*
X129184428Y-77974666D01*
X129222523Y-78050857D01*
X129222523Y-78469904D01*
X130441571Y-78774666D02*
X130403476Y-78736571D01*
X130327285Y-78622285D01*
X130289190Y-78546095D01*
X130251095Y-78431809D01*
X130213000Y-78241333D01*
X130213000Y-78088952D01*
X130251095Y-77898476D01*
X130289190Y-77784190D01*
X130327285Y-77708000D01*
X130403476Y-77593714D01*
X130441571Y-77555619D01*
X130746333Y-78469904D02*
X130746333Y-77669904D01*
X131089190Y-78469904D02*
X131089190Y-78050857D01*
X131051095Y-77974666D01*
X130974904Y-77936571D01*
X130860619Y-77936571D01*
X130784428Y-77974666D01*
X130746333Y-78012761D01*
X131355857Y-77936571D02*
X131660619Y-77936571D01*
X131470142Y-77669904D02*
X131470142Y-78355619D01*
X131508238Y-78431809D01*
X131584428Y-78469904D01*
X131660619Y-78469904D01*
X131813000Y-77936571D02*
X132117761Y-77936571D01*
X131927285Y-77669904D02*
X131927285Y-78355619D01*
X131965380Y-78431809D01*
X132041571Y-78469904D01*
X132117761Y-78469904D01*
X132384428Y-77936571D02*
X132384428Y-78736571D01*
X132384428Y-77974666D02*
X132460619Y-77936571D01*
X132613000Y-77936571D01*
X132689190Y-77974666D01*
X132727285Y-78012761D01*
X132765380Y-78088952D01*
X132765380Y-78317523D01*
X132727285Y-78393714D01*
X132689190Y-78431809D01*
X132613000Y-78469904D01*
X132460619Y-78469904D01*
X132384428Y-78431809D01*
X133070142Y-78431809D02*
X133146333Y-78469904D01*
X133298714Y-78469904D01*
X133374904Y-78431809D01*
X133413000Y-78355619D01*
X133413000Y-78317523D01*
X133374904Y-78241333D01*
X133298714Y-78203238D01*
X133184428Y-78203238D01*
X133108238Y-78165142D01*
X133070142Y-78088952D01*
X133070142Y-78050857D01*
X133108238Y-77974666D01*
X133184428Y-77936571D01*
X133298714Y-77936571D01*
X133374904Y-77974666D01*
X133755857Y-78393714D02*
X133793952Y-78431809D01*
X133755857Y-78469904D01*
X133717761Y-78431809D01*
X133755857Y-78393714D01*
X133755857Y-78469904D01*
X133755857Y-77974666D02*
X133793952Y-78012761D01*
X133755857Y-78050857D01*
X133717761Y-78012761D01*
X133755857Y-77974666D01*
X133755857Y-78050857D01*
X134708238Y-77631809D02*
X134022523Y-78660380D01*
X135546333Y-77631809D02*
X134860619Y-78660380D01*
X136155857Y-77936571D02*
X136155857Y-78584190D01*
X136117761Y-78660380D01*
X136079666Y-78698476D01*
X136003476Y-78736571D01*
X135889190Y-78736571D01*
X135813000Y-78698476D01*
X136155857Y-78431809D02*
X136079666Y-78469904D01*
X135927285Y-78469904D01*
X135851095Y-78431809D01*
X135813000Y-78393714D01*
X135774904Y-78317523D01*
X135774904Y-78088952D01*
X135813000Y-78012761D01*
X135851095Y-77974666D01*
X135927285Y-77936571D01*
X136079666Y-77936571D01*
X136155857Y-77974666D01*
X136536809Y-78469904D02*
X136536809Y-77936571D01*
X136536809Y-77669904D02*
X136498714Y-77708000D01*
X136536809Y-77746095D01*
X136574904Y-77708000D01*
X136536809Y-77669904D01*
X136536809Y-77746095D01*
X136803476Y-77936571D02*
X137108238Y-77936571D01*
X136917761Y-77669904D02*
X136917761Y-78355619D01*
X136955857Y-78431809D01*
X137032047Y-78469904D01*
X137108238Y-78469904D01*
X137374904Y-78469904D02*
X137374904Y-77669904D01*
X137717761Y-78469904D02*
X137717761Y-78050857D01*
X137679666Y-77974666D01*
X137603476Y-77936571D01*
X137489190Y-77936571D01*
X137413000Y-77974666D01*
X137374904Y-78012761D01*
X138441571Y-77936571D02*
X138441571Y-78469904D01*
X138098714Y-77936571D02*
X138098714Y-78355619D01*
X138136809Y-78431809D01*
X138213000Y-78469904D01*
X138327285Y-78469904D01*
X138403476Y-78431809D01*
X138441571Y-78393714D01*
X138822523Y-78469904D02*
X138822523Y-77669904D01*
X138822523Y-77974666D02*
X138898714Y-77936571D01*
X139051095Y-77936571D01*
X139127285Y-77974666D01*
X139165380Y-78012761D01*
X139203476Y-78088952D01*
X139203476Y-78317523D01*
X139165380Y-78393714D01*
X139127285Y-78431809D01*
X139051095Y-78469904D01*
X138898714Y-78469904D01*
X138822523Y-78431809D01*
X139546333Y-78393714D02*
X139584428Y-78431809D01*
X139546333Y-78469904D01*
X139508238Y-78431809D01*
X139546333Y-78393714D01*
X139546333Y-78469904D01*
X140270142Y-78431809D02*
X140193952Y-78469904D01*
X140041571Y-78469904D01*
X139965380Y-78431809D01*
X139927285Y-78393714D01*
X139889190Y-78317523D01*
X139889190Y-78088952D01*
X139927285Y-78012761D01*
X139965380Y-77974666D01*
X140041571Y-77936571D01*
X140193952Y-77936571D01*
X140270142Y-77974666D01*
X140727285Y-78469904D02*
X140651095Y-78431809D01*
X140613000Y-78393714D01*
X140574904Y-78317523D01*
X140574904Y-78088952D01*
X140613000Y-78012761D01*
X140651095Y-77974666D01*
X140727285Y-77936571D01*
X140841571Y-77936571D01*
X140917761Y-77974666D01*
X140955857Y-78012761D01*
X140993952Y-78088952D01*
X140993952Y-78317523D01*
X140955857Y-78393714D01*
X140917761Y-78431809D01*
X140841571Y-78469904D01*
X140727285Y-78469904D01*
X141336809Y-78469904D02*
X141336809Y-77936571D01*
X141336809Y-78012761D02*
X141374904Y-77974666D01*
X141451095Y-77936571D01*
X141565380Y-77936571D01*
X141641571Y-77974666D01*
X141679666Y-78050857D01*
X141679666Y-78469904D01*
X141679666Y-78050857D02*
X141717761Y-77974666D01*
X141793952Y-77936571D01*
X141908238Y-77936571D01*
X141984428Y-77974666D01*
X142022523Y-78050857D01*
X142022523Y-78469904D01*
X142974904Y-77631809D02*
X142289190Y-78660380D01*
X143584428Y-78431809D02*
X143508238Y-78469904D01*
X143355857Y-78469904D01*
X143279666Y-78431809D01*
X143241571Y-78393714D01*
X143203476Y-78317523D01*
X143203476Y-78088952D01*
X143241571Y-78012761D01*
X143279666Y-77974666D01*
X143355857Y-77936571D01*
X143508238Y-77936571D01*
X143584428Y-77974666D01*
X144079666Y-77669904D02*
X144155857Y-77669904D01*
X144232047Y-77708000D01*
X144270142Y-77746095D01*
X144308238Y-77822285D01*
X144346333Y-77974666D01*
X144346333Y-78165142D01*
X144308238Y-78317523D01*
X144270142Y-78393714D01*
X144232047Y-78431809D01*
X144155857Y-78469904D01*
X144079666Y-78469904D01*
X144003476Y-78431809D01*
X143965380Y-78393714D01*
X143927285Y-78317523D01*
X143889190Y-78165142D01*
X143889190Y-77974666D01*
X143927285Y-77822285D01*
X143965380Y-77746095D01*
X144003476Y-77708000D01*
X144079666Y-77669904D01*
X144689190Y-77936571D02*
X144689190Y-78736571D01*
X144689190Y-77974666D02*
X144765380Y-77936571D01*
X144917761Y-77936571D01*
X144993952Y-77974666D01*
X145032047Y-78012761D01*
X145070142Y-78088952D01*
X145070142Y-78317523D01*
X145032047Y-78393714D01*
X144993952Y-78431809D01*
X144917761Y-78469904D01*
X144765380Y-78469904D01*
X144689190Y-78431809D01*
X145413000Y-77936571D02*
X145413000Y-78736571D01*
X145413000Y-77974666D02*
X145489190Y-77936571D01*
X145641571Y-77936571D01*
X145717761Y-77974666D01*
X145755857Y-78012761D01*
X145793952Y-78088952D01*
X145793952Y-78317523D01*
X145755857Y-78393714D01*
X145717761Y-78431809D01*
X145641571Y-78469904D01*
X145489190Y-78469904D01*
X145413000Y-78431809D01*
X146441571Y-78431809D02*
X146365380Y-78469904D01*
X146212999Y-78469904D01*
X146136809Y-78431809D01*
X146098714Y-78355619D01*
X146098714Y-78050857D01*
X146136809Y-77974666D01*
X146212999Y-77936571D01*
X146365380Y-77936571D01*
X146441571Y-77974666D01*
X146479666Y-78050857D01*
X146479666Y-78127047D01*
X146098714Y-78203238D01*
X146822523Y-78469904D02*
X146822523Y-77936571D01*
X146822523Y-78088952D02*
X146860619Y-78012761D01*
X146898714Y-77974666D01*
X146974904Y-77936571D01*
X147051095Y-77936571D01*
X147660619Y-78469904D02*
X147660619Y-77669904D01*
X147660619Y-78431809D02*
X147584428Y-78469904D01*
X147432047Y-78469904D01*
X147355857Y-78431809D01*
X147317761Y-78393714D01*
X147279666Y-78317523D01*
X147279666Y-78088952D01*
X147317761Y-78012761D01*
X147355857Y-77974666D01*
X147432047Y-77936571D01*
X147584428Y-77936571D01*
X147660619Y-77974666D01*
X148041571Y-78469904D02*
X148041571Y-77936571D01*
X148041571Y-78088952D02*
X148079666Y-78012761D01*
X148117761Y-77974666D01*
X148193952Y-77936571D01*
X148270142Y-77936571D01*
X148879666Y-78469904D02*
X148879666Y-78050857D01*
X148841571Y-77974666D01*
X148765380Y-77936571D01*
X148612999Y-77936571D01*
X148536809Y-77974666D01*
X148879666Y-78431809D02*
X148803476Y-78469904D01*
X148612999Y-78469904D01*
X148536809Y-78431809D01*
X148498714Y-78355619D01*
X148498714Y-78279428D01*
X148536809Y-78203238D01*
X148612999Y-78165142D01*
X148803476Y-78165142D01*
X148879666Y-78127047D01*
X149603476Y-77936571D02*
X149603476Y-78584190D01*
X149565380Y-78660380D01*
X149527285Y-78698476D01*
X149451095Y-78736571D01*
X149336809Y-78736571D01*
X149260619Y-78698476D01*
X149603476Y-78431809D02*
X149527285Y-78469904D01*
X149374904Y-78469904D01*
X149298714Y-78431809D01*
X149260619Y-78393714D01*
X149222523Y-78317523D01*
X149222523Y-78088952D01*
X149260619Y-78012761D01*
X149298714Y-77974666D01*
X149374904Y-77936571D01*
X149527285Y-77936571D01*
X149603476Y-77974666D01*
X150098714Y-78469904D02*
X150022523Y-78431809D01*
X149984428Y-78393714D01*
X149946333Y-78317523D01*
X149946333Y-78088952D01*
X149984428Y-78012761D01*
X150022523Y-77974666D01*
X150098714Y-77936571D01*
X150212999Y-77936571D01*
X150289190Y-77974666D01*
X150327285Y-78012761D01*
X150365380Y-78088952D01*
X150365380Y-78317523D01*
X150327285Y-78393714D01*
X150289190Y-78431809D01*
X150212999Y-78469904D01*
X150098714Y-78469904D01*
X150708238Y-77936571D02*
X150708238Y-78469904D01*
X150708238Y-78012761D02*
X150746333Y-77974666D01*
X150822523Y-77936571D01*
X150936809Y-77936571D01*
X151012999Y-77974666D01*
X151051095Y-78050857D01*
X151051095Y-78469904D01*
X152003476Y-77631809D02*
X151317761Y-78660380D01*
X152232047Y-78241333D02*
X152612999Y-78241333D01*
X152155857Y-78469904D02*
X152422523Y-77669904D01*
X152689190Y-78469904D01*
X152955857Y-78469904D02*
X152955857Y-77936571D01*
X152955857Y-78012761D02*
X152993952Y-77974666D01*
X153070142Y-77936571D01*
X153184428Y-77936571D01*
X153260619Y-77974666D01*
X153298714Y-78050857D01*
X153298714Y-78469904D01*
X153298714Y-78050857D02*
X153336809Y-77974666D01*
X153412999Y-77936571D01*
X153527285Y-77936571D01*
X153603476Y-77974666D01*
X153641571Y-78050857D01*
X153641571Y-78469904D01*
X154022523Y-78469904D02*
X154022523Y-77936571D01*
X154022523Y-77669904D02*
X153984428Y-77708000D01*
X154022523Y-77746095D01*
X154060619Y-77708000D01*
X154022523Y-77669904D01*
X154022523Y-77746095D01*
X154746333Y-77936571D02*
X154746333Y-78584190D01*
X154708238Y-78660380D01*
X154670142Y-78698476D01*
X154593952Y-78736571D01*
X154479666Y-78736571D01*
X154403476Y-78698476D01*
X154746333Y-78431809D02*
X154670142Y-78469904D01*
X154517761Y-78469904D01*
X154441571Y-78431809D01*
X154403476Y-78393714D01*
X154365380Y-78317523D01*
X154365380Y-78088952D01*
X154403476Y-78012761D01*
X154441571Y-77974666D01*
X154517761Y-77936571D01*
X154670142Y-77936571D01*
X154746333Y-77974666D01*
X155470142Y-78469904D02*
X155470142Y-78050857D01*
X155432047Y-77974666D01*
X155355857Y-77936571D01*
X155203476Y-77936571D01*
X155127285Y-77974666D01*
X155470142Y-78431809D02*
X155393952Y-78469904D01*
X155203476Y-78469904D01*
X155127285Y-78431809D01*
X155089190Y-78355619D01*
X155089190Y-78279428D01*
X155127285Y-78203238D01*
X155203476Y-78165142D01*
X155393952Y-78165142D01*
X155470142Y-78127047D01*
X155851095Y-78165142D02*
X156460619Y-78165142D01*
X156841571Y-78469904D02*
X156841571Y-77669904D01*
X157032047Y-77669904D01*
X157146333Y-77708000D01*
X157222523Y-77784190D01*
X157260619Y-77860380D01*
X157298714Y-78012761D01*
X157298714Y-78127047D01*
X157260619Y-78279428D01*
X157222523Y-78355619D01*
X157146333Y-78431809D01*
X157032047Y-78469904D01*
X156841571Y-78469904D01*
X157641571Y-78469904D02*
X157641571Y-77936571D01*
X157641571Y-77669904D02*
X157603476Y-77708000D01*
X157641571Y-77746095D01*
X157679666Y-77708000D01*
X157641571Y-77669904D01*
X157641571Y-77746095D01*
X158365380Y-77936571D02*
X158365380Y-78584190D01*
X158327285Y-78660380D01*
X158289190Y-78698476D01*
X158212999Y-78736571D01*
X158098714Y-78736571D01*
X158022523Y-78698476D01*
X158365380Y-78431809D02*
X158289190Y-78469904D01*
X158136809Y-78469904D01*
X158060619Y-78431809D01*
X158022523Y-78393714D01*
X157984428Y-78317523D01*
X157984428Y-78088952D01*
X158022523Y-78012761D01*
X158060619Y-77974666D01*
X158136809Y-77936571D01*
X158289190Y-77936571D01*
X158365380Y-77974666D01*
X158746333Y-78469904D02*
X158746333Y-77936571D01*
X158746333Y-77669904D02*
X158708238Y-77708000D01*
X158746333Y-77746095D01*
X158784428Y-77708000D01*
X158746333Y-77669904D01*
X158746333Y-77746095D01*
X159012999Y-77936571D02*
X159317761Y-77936571D01*
X159127285Y-77669904D02*
X159127285Y-78355619D01*
X159165380Y-78431809D01*
X159241571Y-78469904D01*
X159317761Y-78469904D01*
X159927285Y-78469904D02*
X159927285Y-78050857D01*
X159889190Y-77974666D01*
X159812999Y-77936571D01*
X159660619Y-77936571D01*
X159584428Y-77974666D01*
X159927285Y-78431809D02*
X159851095Y-78469904D01*
X159660619Y-78469904D01*
X159584428Y-78431809D01*
X159546333Y-78355619D01*
X159546333Y-78279428D01*
X159584428Y-78203238D01*
X159660619Y-78165142D01*
X159851095Y-78165142D01*
X159927285Y-78127047D01*
X160422523Y-78469904D02*
X160346333Y-78431809D01*
X160308238Y-78355619D01*
X160308238Y-77669904D01*
X160727285Y-78165142D02*
X161336809Y-78165142D01*
X161603476Y-77669904D02*
X161870142Y-78469904D01*
X162136809Y-77669904D01*
X162403476Y-78469904D02*
X162403476Y-77936571D01*
X162403476Y-77669904D02*
X162365380Y-77708000D01*
X162403476Y-77746095D01*
X162441571Y-77708000D01*
X162403476Y-77669904D01*
X162403476Y-77746095D01*
X163127285Y-78469904D02*
X163127285Y-77669904D01*
X163127285Y-78431809D02*
X163051095Y-78469904D01*
X162898714Y-78469904D01*
X162822523Y-78431809D01*
X162784428Y-78393714D01*
X162746333Y-78317523D01*
X162746333Y-78088952D01*
X162784428Y-78012761D01*
X162822523Y-77974666D01*
X162898714Y-77936571D01*
X163051095Y-77936571D01*
X163127285Y-77974666D01*
X163812999Y-78431809D02*
X163736809Y-78469904D01*
X163584428Y-78469904D01*
X163508238Y-78431809D01*
X163470142Y-78355619D01*
X163470142Y-78050857D01*
X163508238Y-77974666D01*
X163584428Y-77936571D01*
X163736809Y-77936571D01*
X163812999Y-77974666D01*
X163851095Y-78050857D01*
X163851095Y-78127047D01*
X163470142Y-78203238D01*
X164308238Y-78469904D02*
X164232047Y-78431809D01*
X164193952Y-78393714D01*
X164155857Y-78317523D01*
X164155857Y-78088952D01*
X164193952Y-78012761D01*
X164232047Y-77974666D01*
X164308238Y-77936571D01*
X164422523Y-77936571D01*
X164498714Y-77974666D01*
X164536809Y-78012761D01*
X164574904Y-78088952D01*
X164574904Y-78317523D01*
X164536809Y-78393714D01*
X164498714Y-78431809D01*
X164422523Y-78469904D01*
X164308238Y-78469904D01*
X164841571Y-78774666D02*
X164879666Y-78736571D01*
X164955857Y-78622285D01*
X164993952Y-78546095D01*
X165032047Y-78431809D01*
X165070142Y-78241333D01*
X165070142Y-78088952D01*
X165032047Y-77898476D01*
X164993952Y-77784190D01*
X164955857Y-77708000D01*
X164879666Y-77593714D01*
X164841571Y-77555619D01*
D16*
X204978000Y-81661000D02*
X204978000Y-66421000D01*
X204978000Y-66421000D02*
X207518000Y-66421000D01*
X207518000Y-81661000D02*
X207518000Y-66421000D01*
X204978000Y-81661000D02*
X207518000Y-81661000D01*
X209625000Y-60713252D02*
X209625000Y-60190748D01*
X208205000Y-60713252D02*
X208205000Y-60190748D01*
X207906252Y-51106000D02*
X207383748Y-51106000D01*
X207906252Y-52526000D02*
X207383748Y-52526000D01*
D17*
X206970000Y-53341000D02*
X207345000Y-53341000D01*
X206645000Y-53666000D02*
X206120000Y-53666000D01*
X206645000Y-53566000D02*
X206645000Y-53666000D01*
X206970000Y-53341000D02*
X206645000Y-53566000D01*
X208645000Y-56641000D02*
X208320000Y-56641000D01*
X208645000Y-56341000D02*
X208645000Y-56641000D01*
X206645000Y-56641000D02*
X206945000Y-56641000D01*
X206645000Y-56316000D02*
X206645000Y-56641000D01*
X208645000Y-53341000D02*
X208345000Y-53341000D01*
X208645000Y-53666000D02*
X208645000Y-53341000D01*
D16*
X184520000Y-57236000D02*
X186320000Y-57236000D01*
X186320000Y-54016000D02*
X183370000Y-54016000D01*
X173228000Y-72644000D02*
X173228000Y-75184000D01*
X165608000Y-72644000D02*
X173228000Y-72644000D01*
X165608000Y-75184000D02*
X173228000Y-75184000D01*
X165608000Y-72644000D02*
X165608000Y-75184000D01*
X174498000Y-72644000D02*
X179578000Y-72644000D01*
X179578000Y-72644000D02*
X179578000Y-75184000D01*
X174498000Y-72644000D02*
X174498000Y-75184000D01*
X174498000Y-75184000D02*
X179578000Y-75184000D01*
X191643000Y-41021000D02*
X191643000Y-48641000D01*
X191643000Y-48641000D02*
X189103000Y-48641000D01*
X189103000Y-41021000D02*
X189103000Y-48641000D01*
X191643000Y-41021000D02*
X189103000Y-41021000D01*
X207339000Y-60190748D02*
X207339000Y-60713252D01*
X205919000Y-60190748D02*
X205919000Y-60713252D01*
X185554252Y-53161000D02*
X185031748Y-53161000D01*
X185554252Y-51741000D02*
X185031748Y-51741000D01*
X201863000Y-81721000D02*
X196663000Y-81721000D01*
X196663000Y-81721000D02*
X196663000Y-81151000D01*
X196663000Y-79631000D02*
X196663000Y-78611000D01*
X196663000Y-77091000D02*
X196663000Y-76071000D01*
X196663000Y-74551000D02*
X196663000Y-73531000D01*
X196663000Y-72011000D02*
X196663000Y-70991000D01*
X196663000Y-69471000D02*
X196663000Y-68451000D01*
X196663000Y-66931000D02*
X196663000Y-65911000D01*
X196663000Y-64391000D02*
X196663000Y-63371000D01*
X196663000Y-61851000D02*
X196663000Y-60831000D01*
X196663000Y-59311000D02*
X196663000Y-58291000D01*
X196663000Y-56771000D02*
X196663000Y-55751000D01*
X196663000Y-54231000D02*
X196663000Y-53211000D01*
X196663000Y-51691000D02*
X196663000Y-50671000D01*
X196663000Y-49151000D02*
X196663000Y-48131000D01*
X196663000Y-46611000D02*
X196663000Y-45591000D01*
X196663000Y-44071000D02*
X196663000Y-43051000D01*
X196663000Y-41531000D02*
X196663000Y-40511000D01*
X196663000Y-38991000D02*
X196663000Y-37971000D01*
X196663000Y-36451000D02*
X196663000Y-35431000D01*
X196663000Y-33911000D02*
X196663000Y-32891000D01*
X196663000Y-31371000D02*
X196663000Y-30801000D01*
X201863000Y-30801000D02*
X196663000Y-30801000D01*
X201863000Y-81721000D02*
X201863000Y-81151000D01*
X201863000Y-79631000D02*
X201863000Y-78611000D01*
X201863000Y-77091000D02*
X201863000Y-76071000D01*
X201863000Y-74551000D02*
X201863000Y-73531000D01*
X201863000Y-72011000D02*
X201863000Y-70991000D01*
X201863000Y-69471000D02*
X201863000Y-68451000D01*
X201863000Y-66931000D02*
X201863000Y-65911000D01*
X201863000Y-64391000D02*
X201863000Y-63371000D01*
X201863000Y-61851000D02*
X201863000Y-60831000D01*
X201863000Y-59311000D02*
X201863000Y-58291000D01*
X201863000Y-56771000D02*
X201863000Y-55751000D01*
X201863000Y-54231000D02*
X201863000Y-53211000D01*
X201863000Y-51691000D02*
X201863000Y-50671000D01*
X201863000Y-49151000D02*
X201863000Y-48131000D01*
X201863000Y-46611000D02*
X201863000Y-45591000D01*
X201863000Y-44071000D02*
X201863000Y-43051000D01*
X201863000Y-41531000D02*
X201863000Y-40511000D01*
X201863000Y-38991000D02*
X201863000Y-37971000D01*
X201863000Y-36451000D02*
X201863000Y-35431000D01*
X201863000Y-33911000D02*
X201863000Y-32891000D01*
X201863000Y-31371000D02*
X201863000Y-30801000D01*
X196663000Y-81151000D02*
X195303000Y-81151000D01*
X185554252Y-59996000D02*
X185031748Y-59996000D01*
X185554252Y-61416000D02*
X185031748Y-61416000D01*
X185554252Y-72061000D02*
X185031748Y-72061000D01*
X185554252Y-73481000D02*
X185031748Y-73481000D01*
X172854252Y-60631000D02*
X172331748Y-60631000D01*
X172854252Y-62051000D02*
X172331748Y-62051000D01*
D10*
X170268000Y-63286000D02*
X168918000Y-63286000D01*
X170268000Y-68411000D02*
X174918000Y-68411000D01*
X170268000Y-63161000D02*
X174918000Y-63161000D01*
X170268000Y-68411000D02*
X170268000Y-68186000D01*
X174918000Y-68411000D02*
X174918000Y-68186000D01*
X174918000Y-63161000D02*
X174918000Y-63386000D01*
X170268000Y-63161000D02*
X170268000Y-63286000D01*
X183068000Y-81301000D02*
X187518000Y-81301000D01*
X181543000Y-74401000D02*
X187518000Y-74401000D01*
X181543000Y-62336000D02*
X187518000Y-62336000D01*
X183068000Y-69236000D02*
X187518000Y-69236000D01*
D16*
X192988000Y-73032252D02*
X192988000Y-72509748D01*
X191568000Y-73032252D02*
X191568000Y-72509748D01*
X192988000Y-65412252D02*
X192988000Y-64889748D01*
X191568000Y-65412252D02*
X191568000Y-64889748D01*
X165093000Y-74101000D02*
X165093000Y-56201000D01*
X134373000Y-74101000D02*
X165093000Y-74101000D01*
X134373000Y-56201000D02*
X134373000Y-74101000D01*
X165093000Y-56201000D02*
X134373000Y-56201000D01*
X165033000Y-71611000D02*
X165033000Y-66151000D01*
X134433000Y-71611000D02*
X165033000Y-71611000D01*
X134433000Y-58691000D02*
X134433000Y-71611000D01*
X165033000Y-58691000D02*
X134433000Y-58691000D01*
X165033000Y-64151000D02*
X165033000Y-58691000D01*
X165033000Y-66151000D02*
G75*
G02*
X165033000Y-64151000I0J1000000D01*
G01*
X134613000Y-74101000D02*
X134613000Y-56201000D01*
X103893000Y-74101000D02*
X134613000Y-74101000D01*
X103893000Y-56201000D02*
X103893000Y-74101000D01*
X134613000Y-56201000D02*
X103893000Y-56201000D01*
X134553000Y-71611000D02*
X134553000Y-66151000D01*
X103953000Y-71611000D02*
X134553000Y-71611000D01*
X103953000Y-58691000D02*
X103953000Y-71611000D01*
X134553000Y-58691000D02*
X103953000Y-58691000D01*
X134553000Y-64151000D02*
X134553000Y-58691000D01*
X134553000Y-66151000D02*
G75*
G02*
X134553000Y-64151000I0J1000000D01*
G01*
D10*
X205059571Y-82750428D02*
X204809571Y-82750428D01*
X204809571Y-83143285D02*
X204809571Y-82393285D01*
X205166714Y-82393285D01*
X205702428Y-82750428D02*
X205452428Y-82750428D01*
X205452428Y-83143285D02*
X205452428Y-82393285D01*
X205809571Y-82393285D01*
X206238142Y-82393285D02*
X206381000Y-82393285D01*
X206452428Y-82429000D01*
X206523857Y-82500428D01*
X206559571Y-82643285D01*
X206559571Y-82893285D01*
X206523857Y-83036142D01*
X206452428Y-83107571D01*
X206381000Y-83143285D01*
X206238142Y-83143285D01*
X206166714Y-83107571D01*
X206095285Y-83036142D01*
X206059571Y-82893285D01*
X206059571Y-82643285D01*
X206095285Y-82500428D01*
X206166714Y-82429000D01*
X206238142Y-82393285D01*
X206845285Y-83107571D02*
X206952428Y-83143285D01*
X207131000Y-83143285D01*
X207202428Y-83107571D01*
X207238142Y-83071857D01*
X207273857Y-83000428D01*
X207273857Y-82929000D01*
X207238142Y-82857571D01*
X207202428Y-82821857D01*
X207131000Y-82786142D01*
X206988142Y-82750428D01*
X206916714Y-82714714D01*
X206881000Y-82679000D01*
X206845285Y-82607571D01*
X206845285Y-82536142D01*
X206881000Y-82464714D01*
X206916714Y-82429000D01*
X206988142Y-82393285D01*
X207166714Y-82393285D01*
X207273857Y-82429000D01*
X207595285Y-83143285D02*
X207595285Y-82393285D01*
X207773857Y-82393285D01*
X207881000Y-82429000D01*
X207952428Y-82500428D01*
X207988142Y-82571857D01*
X208023857Y-82714714D01*
X208023857Y-82821857D01*
X207988142Y-82964714D01*
X207952428Y-83036142D01*
X207881000Y-83107571D01*
X207773857Y-83143285D01*
X207595285Y-83143285D01*
X208738142Y-83143285D02*
X208309571Y-83143285D01*
X208523857Y-83143285D02*
X208523857Y-82393285D01*
X208452428Y-82500428D01*
X208381000Y-82571857D01*
X208309571Y-82607571D01*
X208790000Y-63204285D02*
X208540000Y-62847142D01*
X208361428Y-63204285D02*
X208361428Y-62454285D01*
X208647142Y-62454285D01*
X208718571Y-62490000D01*
X208754285Y-62525714D01*
X208790000Y-62597142D01*
X208790000Y-62704285D01*
X208754285Y-62775714D01*
X208718571Y-62811428D01*
X208647142Y-62847142D01*
X208361428Y-62847142D01*
X209040000Y-62454285D02*
X209504285Y-62454285D01*
X209254285Y-62740000D01*
X209361428Y-62740000D01*
X209432857Y-62775714D01*
X209468571Y-62811428D01*
X209504285Y-62882857D01*
X209504285Y-63061428D01*
X209468571Y-63132857D01*
X209432857Y-63168571D01*
X209361428Y-63204285D01*
X209147142Y-63204285D01*
X209075714Y-63168571D01*
X209040000Y-63132857D01*
X207986428Y-63668714D02*
X208022142Y-63633000D01*
X208093571Y-63597285D01*
X208272142Y-63597285D01*
X208343571Y-63633000D01*
X208379285Y-63668714D01*
X208415000Y-63740142D01*
X208415000Y-63811571D01*
X208379285Y-63918714D01*
X207950714Y-64347285D01*
X208415000Y-64347285D01*
X208665000Y-63597285D02*
X209165000Y-63597285D01*
X208843571Y-64347285D01*
X209593571Y-63597285D02*
X209665000Y-63597285D01*
X209736428Y-63633000D01*
X209772142Y-63668714D01*
X209807857Y-63740142D01*
X209843571Y-63883000D01*
X209843571Y-64061571D01*
X209807857Y-64204428D01*
X209772142Y-64275857D01*
X209736428Y-64311571D01*
X209665000Y-64347285D01*
X209593571Y-64347285D01*
X209522142Y-64311571D01*
X209486428Y-64275857D01*
X209450714Y-64204428D01*
X209415000Y-64061571D01*
X209415000Y-63883000D01*
X209450714Y-63740142D01*
X209486428Y-63668714D01*
X209522142Y-63633000D01*
X209593571Y-63597285D01*
X207478333Y-48871142D02*
X207430714Y-48918761D01*
X207287857Y-48966380D01*
X207192619Y-48966380D01*
X207049761Y-48918761D01*
X206954523Y-48823523D01*
X206906904Y-48728285D01*
X206859285Y-48537809D01*
X206859285Y-48394952D01*
X206906904Y-48204476D01*
X206954523Y-48109238D01*
X207049761Y-48014000D01*
X207192619Y-47966380D01*
X207287857Y-47966380D01*
X207430714Y-48014000D01*
X207478333Y-48061619D01*
X208383095Y-47966380D02*
X207906904Y-47966380D01*
X207859285Y-48442571D01*
X207906904Y-48394952D01*
X208002142Y-48347333D01*
X208240238Y-48347333D01*
X208335476Y-48394952D01*
X208383095Y-48442571D01*
X208430714Y-48537809D01*
X208430714Y-48775904D01*
X208383095Y-48871142D01*
X208335476Y-48918761D01*
X208240238Y-48966380D01*
X208002142Y-48966380D01*
X207906904Y-48918761D01*
X207859285Y-48871142D01*
X206484285Y-49996285D02*
X206055714Y-49996285D01*
X206270000Y-49996285D02*
X206270000Y-49246285D01*
X206198571Y-49353428D01*
X206127142Y-49424857D01*
X206055714Y-49460571D01*
X206948571Y-49246285D02*
X207020000Y-49246285D01*
X207091428Y-49282000D01*
X207127142Y-49317714D01*
X207162857Y-49389142D01*
X207198571Y-49532000D01*
X207198571Y-49710571D01*
X207162857Y-49853428D01*
X207127142Y-49924857D01*
X207091428Y-49960571D01*
X207020000Y-49996285D01*
X206948571Y-49996285D01*
X206877142Y-49960571D01*
X206841428Y-49924857D01*
X206805714Y-49853428D01*
X206770000Y-49710571D01*
X206770000Y-49532000D01*
X206805714Y-49389142D01*
X206841428Y-49317714D01*
X206877142Y-49282000D01*
X206948571Y-49246285D01*
X207662857Y-49246285D02*
X207734285Y-49246285D01*
X207805714Y-49282000D01*
X207841428Y-49317714D01*
X207877142Y-49389142D01*
X207912857Y-49532000D01*
X207912857Y-49710571D01*
X207877142Y-49853428D01*
X207841428Y-49924857D01*
X207805714Y-49960571D01*
X207734285Y-49996285D01*
X207662857Y-49996285D01*
X207591428Y-49960571D01*
X207555714Y-49924857D01*
X207520000Y-49853428D01*
X207484285Y-49710571D01*
X207484285Y-49532000D01*
X207520000Y-49389142D01*
X207555714Y-49317714D01*
X207591428Y-49282000D01*
X207662857Y-49246285D01*
X208234285Y-49496285D02*
X208234285Y-49996285D01*
X208234285Y-49567714D02*
X208270000Y-49532000D01*
X208341428Y-49496285D01*
X208448571Y-49496285D01*
X208520000Y-49532000D01*
X208555714Y-49603428D01*
X208555714Y-49996285D01*
X209162857Y-49603428D02*
X208912857Y-49603428D01*
X208912857Y-49996285D02*
X208912857Y-49246285D01*
X209270000Y-49246285D01*
X206883095Y-56983380D02*
X206883095Y-57792904D01*
X206930714Y-57888142D01*
X206978333Y-57935761D01*
X207073571Y-57983380D01*
X207264047Y-57983380D01*
X207359285Y-57935761D01*
X207406904Y-57888142D01*
X207454523Y-57792904D01*
X207454523Y-56983380D01*
X208406904Y-56983380D02*
X207930714Y-56983380D01*
X207883095Y-57459571D01*
X207930714Y-57411952D01*
X208025952Y-57364333D01*
X208264047Y-57364333D01*
X208359285Y-57411952D01*
X208406904Y-57459571D01*
X208454523Y-57554809D01*
X208454523Y-57792904D01*
X208406904Y-57888142D01*
X208359285Y-57935761D01*
X208264047Y-57983380D01*
X208025952Y-57983380D01*
X207930714Y-57935761D01*
X207883095Y-57888142D01*
X184658095Y-57618380D02*
X184658095Y-58427904D01*
X184705714Y-58523142D01*
X184753333Y-58570761D01*
X184848571Y-58618380D01*
X185039047Y-58618380D01*
X185134285Y-58570761D01*
X185181904Y-58523142D01*
X185229523Y-58427904D01*
X185229523Y-57618380D01*
X186134285Y-57951714D02*
X186134285Y-58618380D01*
X185896190Y-57570761D02*
X185658095Y-58285047D01*
X186277142Y-58285047D01*
X168793000Y-71471285D02*
X168793000Y-72007000D01*
X168757285Y-72114142D01*
X168685857Y-72185571D01*
X168578714Y-72221285D01*
X168507285Y-72221285D01*
X169150142Y-72221285D02*
X169150142Y-71471285D01*
X169435857Y-71471285D01*
X169507285Y-71507000D01*
X169543000Y-71542714D01*
X169578714Y-71614142D01*
X169578714Y-71721285D01*
X169543000Y-71792714D01*
X169507285Y-71828428D01*
X169435857Y-71864142D01*
X169150142Y-71864142D01*
X170293000Y-72221285D02*
X169864428Y-72221285D01*
X170078714Y-72221285D02*
X170078714Y-71471285D01*
X170007285Y-71578428D01*
X169935857Y-71649857D01*
X169864428Y-71685571D01*
X176540000Y-71471285D02*
X176540000Y-72007000D01*
X176504285Y-72114142D01*
X176432857Y-72185571D01*
X176325714Y-72221285D01*
X176254285Y-72221285D01*
X177147142Y-71828428D02*
X177254285Y-71864142D01*
X177290000Y-71899857D01*
X177325714Y-71971285D01*
X177325714Y-72078428D01*
X177290000Y-72149857D01*
X177254285Y-72185571D01*
X177182857Y-72221285D01*
X176897142Y-72221285D01*
X176897142Y-71471285D01*
X177147142Y-71471285D01*
X177218571Y-71507000D01*
X177254285Y-71542714D01*
X177290000Y-71614142D01*
X177290000Y-71685571D01*
X177254285Y-71757000D01*
X177218571Y-71792714D01*
X177147142Y-71828428D01*
X176897142Y-71828428D01*
X178040000Y-72221285D02*
X177611428Y-72221285D01*
X177825714Y-72221285D02*
X177825714Y-71471285D01*
X177754285Y-71578428D01*
X177682857Y-71649857D01*
X177611428Y-71685571D01*
X187380666Y-49109380D02*
X187380666Y-49823666D01*
X187333047Y-49966523D01*
X187237809Y-50061761D01*
X187094952Y-50109380D01*
X186999714Y-50109380D01*
X187856857Y-50109380D02*
X187856857Y-49109380D01*
X188237809Y-49109380D01*
X188333047Y-49157000D01*
X188380666Y-49204619D01*
X188428285Y-49299857D01*
X188428285Y-49442714D01*
X188380666Y-49537952D01*
X188333047Y-49585571D01*
X188237809Y-49633190D01*
X187856857Y-49633190D01*
X188809238Y-49204619D02*
X188856857Y-49157000D01*
X188952095Y-49109380D01*
X189190190Y-49109380D01*
X189285428Y-49157000D01*
X189333047Y-49204619D01*
X189380666Y-49299857D01*
X189380666Y-49395095D01*
X189333047Y-49537952D01*
X188761619Y-50109380D01*
X189380666Y-50109380D01*
X206504000Y-63204285D02*
X206254000Y-62847142D01*
X206075428Y-63204285D02*
X206075428Y-62454285D01*
X206361142Y-62454285D01*
X206432571Y-62490000D01*
X206468285Y-62525714D01*
X206504000Y-62597142D01*
X206504000Y-62704285D01*
X206468285Y-62775714D01*
X206432571Y-62811428D01*
X206361142Y-62847142D01*
X206075428Y-62847142D01*
X206789714Y-62525714D02*
X206825428Y-62490000D01*
X206896857Y-62454285D01*
X207075428Y-62454285D01*
X207146857Y-62490000D01*
X207182571Y-62525714D01*
X207218285Y-62597142D01*
X207218285Y-62668571D01*
X207182571Y-62775714D01*
X206754000Y-63204285D01*
X207218285Y-63204285D01*
X206539714Y-64347285D02*
X206111142Y-64347285D01*
X206325428Y-64347285D02*
X206325428Y-63597285D01*
X206254000Y-63704428D01*
X206182571Y-63775857D01*
X206111142Y-63811571D01*
X206861142Y-64347285D02*
X206861142Y-63597285D01*
X206932571Y-64061571D02*
X207146857Y-64347285D01*
X207146857Y-63847285D02*
X206861142Y-64133000D01*
X182374000Y-52718857D02*
X182338285Y-52754571D01*
X182231142Y-52790285D01*
X182159714Y-52790285D01*
X182052571Y-52754571D01*
X181981142Y-52683142D01*
X181945428Y-52611714D01*
X181909714Y-52468857D01*
X181909714Y-52361714D01*
X181945428Y-52218857D01*
X181981142Y-52147428D01*
X182052571Y-52076000D01*
X182159714Y-52040285D01*
X182231142Y-52040285D01*
X182338285Y-52076000D01*
X182374000Y-52111714D01*
X183016857Y-52290285D02*
X183016857Y-52790285D01*
X182838285Y-52004571D02*
X182659714Y-52540285D01*
X183124000Y-52540285D01*
X187666428Y-52722428D02*
X187323571Y-52722428D01*
X187495000Y-52722428D02*
X187495000Y-52122428D01*
X187437857Y-52208142D01*
X187380714Y-52265285D01*
X187323571Y-52293857D01*
X188037857Y-52122428D02*
X188095000Y-52122428D01*
X188152142Y-52151000D01*
X188180714Y-52179571D01*
X188209285Y-52236714D01*
X188237857Y-52351000D01*
X188237857Y-52493857D01*
X188209285Y-52608142D01*
X188180714Y-52665285D01*
X188152142Y-52693857D01*
X188095000Y-52722428D01*
X188037857Y-52722428D01*
X187980714Y-52693857D01*
X187952142Y-52665285D01*
X187923571Y-52608142D01*
X187895000Y-52493857D01*
X187895000Y-52351000D01*
X187923571Y-52236714D01*
X187952142Y-52179571D01*
X187980714Y-52151000D01*
X188037857Y-52122428D01*
X188609285Y-52122428D02*
X188666428Y-52122428D01*
X188723571Y-52151000D01*
X188752142Y-52179571D01*
X188780714Y-52236714D01*
X188809285Y-52351000D01*
X188809285Y-52493857D01*
X188780714Y-52608142D01*
X188752142Y-52665285D01*
X188723571Y-52693857D01*
X188666428Y-52722428D01*
X188609285Y-52722428D01*
X188552142Y-52693857D01*
X188523571Y-52665285D01*
X188495000Y-52608142D01*
X188466428Y-52493857D01*
X188466428Y-52351000D01*
X188495000Y-52236714D01*
X188523571Y-52179571D01*
X188552142Y-52151000D01*
X188609285Y-52122428D01*
X189066428Y-52322428D02*
X189066428Y-52722428D01*
X189066428Y-52379571D02*
X189095000Y-52351000D01*
X189152142Y-52322428D01*
X189237857Y-52322428D01*
X189295000Y-52351000D01*
X189323571Y-52408142D01*
X189323571Y-52722428D01*
X189809285Y-52408142D02*
X189609285Y-52408142D01*
X189609285Y-52722428D02*
X189609285Y-52122428D01*
X189895000Y-52122428D01*
D15*
X197798714Y-83609571D02*
X197798714Y-82109571D01*
X198370142Y-82109571D01*
X198513000Y-82181000D01*
X198584428Y-82252428D01*
X198655857Y-82395285D01*
X198655857Y-82609571D01*
X198584428Y-82752428D01*
X198513000Y-82823857D01*
X198370142Y-82895285D01*
X197798714Y-82895285D01*
X199298714Y-83609571D02*
X199298714Y-82609571D01*
X199298714Y-82109571D02*
X199227285Y-82181000D01*
X199298714Y-82252428D01*
X199370142Y-82181000D01*
X199298714Y-82109571D01*
X199298714Y-82252428D01*
X200298714Y-82109571D02*
X200441571Y-82109571D01*
X200584428Y-82181000D01*
X200655857Y-82252428D01*
X200727285Y-82395285D01*
X200798714Y-82681000D01*
X200798714Y-83038142D01*
X200727285Y-83323857D01*
X200655857Y-83466714D01*
X200584428Y-83538142D01*
X200441571Y-83609571D01*
X200298714Y-83609571D01*
X200155857Y-83538142D01*
X200084428Y-83466714D01*
X200013000Y-83323857D01*
X199941571Y-83038142D01*
X199941571Y-82681000D01*
X200013000Y-82395285D01*
X200084428Y-82252428D01*
X200155857Y-82181000D01*
X200298714Y-82109571D01*
D10*
X182501000Y-60973857D02*
X182465285Y-61009571D01*
X182358142Y-61045285D01*
X182286714Y-61045285D01*
X182179571Y-61009571D01*
X182108142Y-60938142D01*
X182072428Y-60866714D01*
X182036714Y-60723857D01*
X182036714Y-60616714D01*
X182072428Y-60473857D01*
X182108142Y-60402428D01*
X182179571Y-60331000D01*
X182286714Y-60295285D01*
X182358142Y-60295285D01*
X182465285Y-60331000D01*
X182501000Y-60366714D01*
X182751000Y-60295285D02*
X183215285Y-60295285D01*
X182965285Y-60581000D01*
X183072428Y-60581000D01*
X183143857Y-60616714D01*
X183179571Y-60652428D01*
X183215285Y-60723857D01*
X183215285Y-60902428D01*
X183179571Y-60973857D01*
X183143857Y-61009571D01*
X183072428Y-61045285D01*
X182858142Y-61045285D01*
X182786714Y-61009571D01*
X182751000Y-60973857D01*
D12*
X187666428Y-60977428D02*
X187323571Y-60977428D01*
X187495000Y-60977428D02*
X187495000Y-60377428D01*
X187437857Y-60463142D01*
X187380714Y-60520285D01*
X187323571Y-60548857D01*
X188037857Y-60377428D02*
X188095000Y-60377428D01*
X188152142Y-60406000D01*
X188180714Y-60434571D01*
X188209285Y-60491714D01*
X188237857Y-60606000D01*
X188237857Y-60748857D01*
X188209285Y-60863142D01*
X188180714Y-60920285D01*
X188152142Y-60948857D01*
X188095000Y-60977428D01*
X188037857Y-60977428D01*
X187980714Y-60948857D01*
X187952142Y-60920285D01*
X187923571Y-60863142D01*
X187895000Y-60748857D01*
X187895000Y-60606000D01*
X187923571Y-60491714D01*
X187952142Y-60434571D01*
X187980714Y-60406000D01*
X188037857Y-60377428D01*
X188609285Y-60377428D02*
X188666428Y-60377428D01*
X188723571Y-60406000D01*
X188752142Y-60434571D01*
X188780714Y-60491714D01*
X188809285Y-60606000D01*
X188809285Y-60748857D01*
X188780714Y-60863142D01*
X188752142Y-60920285D01*
X188723571Y-60948857D01*
X188666428Y-60977428D01*
X188609285Y-60977428D01*
X188552142Y-60948857D01*
X188523571Y-60920285D01*
X188495000Y-60863142D01*
X188466428Y-60748857D01*
X188466428Y-60606000D01*
X188495000Y-60491714D01*
X188523571Y-60434571D01*
X188552142Y-60406000D01*
X188609285Y-60377428D01*
X189066428Y-60577428D02*
X189066428Y-60977428D01*
X189066428Y-60634571D02*
X189095000Y-60606000D01*
X189152142Y-60577428D01*
X189237857Y-60577428D01*
X189295000Y-60606000D01*
X189323571Y-60663142D01*
X189323571Y-60977428D01*
X189809285Y-60663142D02*
X189609285Y-60663142D01*
X189609285Y-60977428D02*
X189609285Y-60377428D01*
X189895000Y-60377428D01*
D10*
X182501000Y-73038857D02*
X182465285Y-73074571D01*
X182358142Y-73110285D01*
X182286714Y-73110285D01*
X182179571Y-73074571D01*
X182108142Y-73003142D01*
X182072428Y-72931714D01*
X182036714Y-72788857D01*
X182036714Y-72681714D01*
X182072428Y-72538857D01*
X182108142Y-72467428D01*
X182179571Y-72396000D01*
X182286714Y-72360285D01*
X182358142Y-72360285D01*
X182465285Y-72396000D01*
X182501000Y-72431714D01*
X182786714Y-72431714D02*
X182822428Y-72396000D01*
X182893857Y-72360285D01*
X183072428Y-72360285D01*
X183143857Y-72396000D01*
X183179571Y-72431714D01*
X183215285Y-72503142D01*
X183215285Y-72574571D01*
X183179571Y-72681714D01*
X182751000Y-73110285D01*
X183215285Y-73110285D01*
D12*
X187539428Y-72915428D02*
X187196571Y-72915428D01*
X187368000Y-72915428D02*
X187368000Y-72315428D01*
X187310857Y-72401142D01*
X187253714Y-72458285D01*
X187196571Y-72486857D01*
X187910857Y-72315428D02*
X187968000Y-72315428D01*
X188025142Y-72344000D01*
X188053714Y-72372571D01*
X188082285Y-72429714D01*
X188110857Y-72544000D01*
X188110857Y-72686857D01*
X188082285Y-72801142D01*
X188053714Y-72858285D01*
X188025142Y-72886857D01*
X187968000Y-72915428D01*
X187910857Y-72915428D01*
X187853714Y-72886857D01*
X187825142Y-72858285D01*
X187796571Y-72801142D01*
X187768000Y-72686857D01*
X187768000Y-72544000D01*
X187796571Y-72429714D01*
X187825142Y-72372571D01*
X187853714Y-72344000D01*
X187910857Y-72315428D01*
X188482285Y-72315428D02*
X188539428Y-72315428D01*
X188596571Y-72344000D01*
X188625142Y-72372571D01*
X188653714Y-72429714D01*
X188682285Y-72544000D01*
X188682285Y-72686857D01*
X188653714Y-72801142D01*
X188625142Y-72858285D01*
X188596571Y-72886857D01*
X188539428Y-72915428D01*
X188482285Y-72915428D01*
X188425142Y-72886857D01*
X188396571Y-72858285D01*
X188368000Y-72801142D01*
X188339428Y-72686857D01*
X188339428Y-72544000D01*
X188368000Y-72429714D01*
X188396571Y-72372571D01*
X188425142Y-72344000D01*
X188482285Y-72315428D01*
X188939428Y-72515428D02*
X188939428Y-72915428D01*
X188939428Y-72572571D02*
X188968000Y-72544000D01*
X189025142Y-72515428D01*
X189110857Y-72515428D01*
X189168000Y-72544000D01*
X189196571Y-72601142D01*
X189196571Y-72915428D01*
X189682285Y-72601142D02*
X189482285Y-72601142D01*
X189482285Y-72915428D02*
X189482285Y-72315428D01*
X189768000Y-72315428D01*
D10*
X169801000Y-61608857D02*
X169765285Y-61644571D01*
X169658142Y-61680285D01*
X169586714Y-61680285D01*
X169479571Y-61644571D01*
X169408142Y-61573142D01*
X169372428Y-61501714D01*
X169336714Y-61358857D01*
X169336714Y-61251714D01*
X169372428Y-61108857D01*
X169408142Y-61037428D01*
X169479571Y-60966000D01*
X169586714Y-60930285D01*
X169658142Y-60930285D01*
X169765285Y-60966000D01*
X169801000Y-61001714D01*
X170515285Y-61680285D02*
X170086714Y-61680285D01*
X170301000Y-61680285D02*
X170301000Y-60930285D01*
X170229571Y-61037428D01*
X170158142Y-61108857D01*
X170086714Y-61144571D01*
D12*
X174966428Y-61485428D02*
X174623571Y-61485428D01*
X174795000Y-61485428D02*
X174795000Y-60885428D01*
X174737857Y-60971142D01*
X174680714Y-61028285D01*
X174623571Y-61056857D01*
X175337857Y-60885428D02*
X175395000Y-60885428D01*
X175452142Y-60914000D01*
X175480714Y-60942571D01*
X175509285Y-60999714D01*
X175537857Y-61114000D01*
X175537857Y-61256857D01*
X175509285Y-61371142D01*
X175480714Y-61428285D01*
X175452142Y-61456857D01*
X175395000Y-61485428D01*
X175337857Y-61485428D01*
X175280714Y-61456857D01*
X175252142Y-61428285D01*
X175223571Y-61371142D01*
X175195000Y-61256857D01*
X175195000Y-61114000D01*
X175223571Y-60999714D01*
X175252142Y-60942571D01*
X175280714Y-60914000D01*
X175337857Y-60885428D01*
X175909285Y-60885428D02*
X175966428Y-60885428D01*
X176023571Y-60914000D01*
X176052142Y-60942571D01*
X176080714Y-60999714D01*
X176109285Y-61114000D01*
X176109285Y-61256857D01*
X176080714Y-61371142D01*
X176052142Y-61428285D01*
X176023571Y-61456857D01*
X175966428Y-61485428D01*
X175909285Y-61485428D01*
X175852142Y-61456857D01*
X175823571Y-61428285D01*
X175795000Y-61371142D01*
X175766428Y-61256857D01*
X175766428Y-61114000D01*
X175795000Y-60999714D01*
X175823571Y-60942571D01*
X175852142Y-60914000D01*
X175909285Y-60885428D01*
X176366428Y-61085428D02*
X176366428Y-61485428D01*
X176366428Y-61142571D02*
X176395000Y-61114000D01*
X176452142Y-61085428D01*
X176537857Y-61085428D01*
X176595000Y-61114000D01*
X176623571Y-61171142D01*
X176623571Y-61485428D01*
X177109285Y-61171142D02*
X176909285Y-61171142D01*
X176909285Y-61485428D02*
X176909285Y-60885428D01*
X177195000Y-60885428D01*
D10*
X171831095Y-68921380D02*
X171831095Y-69730904D01*
X171878714Y-69826142D01*
X171926333Y-69873761D01*
X172021571Y-69921380D01*
X172212047Y-69921380D01*
X172307285Y-69873761D01*
X172354904Y-69826142D01*
X172402523Y-69730904D01*
X172402523Y-68921380D01*
X173402523Y-69921380D02*
X172831095Y-69921380D01*
X173116809Y-69921380D02*
X173116809Y-68921380D01*
X173021571Y-69064238D01*
X172926333Y-69159476D01*
X172831095Y-69207095D01*
X184658095Y-81621380D02*
X184658095Y-82430904D01*
X184705714Y-82526142D01*
X184753333Y-82573761D01*
X184848571Y-82621380D01*
X185039047Y-82621380D01*
X185134285Y-82573761D01*
X185181904Y-82526142D01*
X185229523Y-82430904D01*
X185229523Y-81621380D01*
X185658095Y-81716619D02*
X185705714Y-81669000D01*
X185800952Y-81621380D01*
X186039047Y-81621380D01*
X186134285Y-81669000D01*
X186181904Y-81716619D01*
X186229523Y-81811857D01*
X186229523Y-81907095D01*
X186181904Y-82049952D01*
X185610476Y-82621380D01*
X186229523Y-82621380D01*
X184658095Y-69556380D02*
X184658095Y-70365904D01*
X184705714Y-70461142D01*
X184753333Y-70508761D01*
X184848571Y-70556380D01*
X185039047Y-70556380D01*
X185134285Y-70508761D01*
X185181904Y-70461142D01*
X185229523Y-70365904D01*
X185229523Y-69556380D01*
X185610476Y-69556380D02*
X186229523Y-69556380D01*
X185896190Y-69937333D01*
X186039047Y-69937333D01*
X186134285Y-69984952D01*
X186181904Y-70032571D01*
X186229523Y-70127809D01*
X186229523Y-70365904D01*
X186181904Y-70461142D01*
X186134285Y-70508761D01*
X186039047Y-70556380D01*
X185753333Y-70556380D01*
X185658095Y-70508761D01*
X185610476Y-70461142D01*
X192153000Y-70625857D02*
X192117285Y-70661571D01*
X192010142Y-70697285D01*
X191938714Y-70697285D01*
X191831571Y-70661571D01*
X191760142Y-70590142D01*
X191724428Y-70518714D01*
X191688714Y-70375857D01*
X191688714Y-70268714D01*
X191724428Y-70125857D01*
X191760142Y-70054428D01*
X191831571Y-69983000D01*
X191938714Y-69947285D01*
X192010142Y-69947285D01*
X192117285Y-69983000D01*
X192153000Y-70018714D01*
X192795857Y-69947285D02*
X192653000Y-69947285D01*
X192581571Y-69983000D01*
X192545857Y-70018714D01*
X192474428Y-70125857D01*
X192438714Y-70268714D01*
X192438714Y-70554428D01*
X192474428Y-70625857D01*
X192510142Y-70661571D01*
X192581571Y-70697285D01*
X192724428Y-70697285D01*
X192795857Y-70661571D01*
X192831571Y-70625857D01*
X192867285Y-70554428D01*
X192867285Y-70375857D01*
X192831571Y-70304428D01*
X192795857Y-70268714D01*
X192724428Y-70233000D01*
X192581571Y-70233000D01*
X192510142Y-70268714D01*
X192474428Y-70304428D01*
X192438714Y-70375857D01*
D12*
X191508142Y-75582428D02*
X191165285Y-75582428D01*
X191336714Y-75582428D02*
X191336714Y-74982428D01*
X191279571Y-75068142D01*
X191222428Y-75125285D01*
X191165285Y-75153857D01*
X191879571Y-74982428D02*
X191936714Y-74982428D01*
X191993857Y-75011000D01*
X192022428Y-75039571D01*
X192051000Y-75096714D01*
X192079571Y-75211000D01*
X192079571Y-75353857D01*
X192051000Y-75468142D01*
X192022428Y-75525285D01*
X191993857Y-75553857D01*
X191936714Y-75582428D01*
X191879571Y-75582428D01*
X191822428Y-75553857D01*
X191793857Y-75525285D01*
X191765285Y-75468142D01*
X191736714Y-75353857D01*
X191736714Y-75211000D01*
X191765285Y-75096714D01*
X191793857Y-75039571D01*
X191822428Y-75011000D01*
X191879571Y-74982428D01*
X192593857Y-75182428D02*
X192593857Y-75582428D01*
X192336714Y-75182428D02*
X192336714Y-75496714D01*
X192365285Y-75553857D01*
X192422428Y-75582428D01*
X192508142Y-75582428D01*
X192565285Y-75553857D01*
X192593857Y-75525285D01*
X193079571Y-75268142D02*
X192879571Y-75268142D01*
X192879571Y-75582428D02*
X192879571Y-74982428D01*
X193165285Y-74982428D01*
D10*
X192153000Y-63077285D02*
X191903000Y-62720142D01*
X191724428Y-63077285D02*
X191724428Y-62327285D01*
X192010142Y-62327285D01*
X192081571Y-62363000D01*
X192117285Y-62398714D01*
X192153000Y-62470142D01*
X192153000Y-62577285D01*
X192117285Y-62648714D01*
X192081571Y-62684428D01*
X192010142Y-62720142D01*
X191724428Y-62720142D01*
X192867285Y-63077285D02*
X192438714Y-63077285D01*
X192653000Y-63077285D02*
X192653000Y-62327285D01*
X192581571Y-62434428D01*
X192510142Y-62505857D01*
X192438714Y-62541571D01*
X192206571Y-67835428D02*
X191863714Y-67835428D01*
X192035142Y-67835428D02*
X192035142Y-67235428D01*
X191978000Y-67321142D01*
X191920857Y-67378285D01*
X191863714Y-67406857D01*
X192463714Y-67835428D02*
X192463714Y-67235428D01*
X192520857Y-67606857D02*
X192692285Y-67835428D01*
X192692285Y-67435428D02*
X192463714Y-67664000D01*
M02*
