M48
INCH,TZ
T1C0.0157
T2C0.0315
T3C0.0394
%
G90
G05
T1
X41200Y-32650
X41450Y-27650
X41950Y-24150
X41950Y-26650
X42950Y-24150
X43050Y-26650
X43950Y-24150
X44100Y-26650
X44950Y-24150
X45000Y-26350
X46950Y-29400
X47450Y-26650
X47900Y-29650
X47950Y-24150
X48450Y-26650
X48950Y-24150
X48950Y-29400
X49450Y-26650
X49950Y-24150
X49950Y-29400
X50450Y-26650
X50800Y-29600
X50950Y-24150
X51450Y-26650
X51950Y-24150
X51950Y-29400
X52450Y-26650
X52950Y-24150
X53450Y-26650
X53950Y-24150
X54450Y-26650
X54950Y-24150
X54950Y-29400
X55450Y-26650
X55950Y-24150
X55950Y-29400
X56450Y-26650
X56950Y-24150
X56950Y-29400
X57450Y-26650
X57950Y-24150
X57950Y-29400
X58450Y-26650
X58950Y-24150
X58950Y-29400
X59450Y-26650
X59950Y-24150
X59950Y-29400
X60450Y-26650
X60950Y-24150
X60950Y-29400
X61450Y-26650
X61950Y-24150
X61950Y-29400
X62450Y-26650
X62950Y-24150
X62950Y-29400
X63450Y-26650
X63950Y-24150
X63950Y-29400
X64450Y-26650
X64950Y-29400
X65800Y-25150
X66200Y-26150
X66200Y-26850
X66700Y-31650
X67288Y-26412
X67300Y-22450
X67550Y-23650
X67550Y-24650
X67650Y-30150
X67900Y-25950
X68050Y-25250
X68350Y-30665
X68450Y-28400
X68500Y-26700
X68502Y-25802
X68950Y-23750
X69111Y-24561
X69250Y-31900
X69600Y-31900
X69800Y-25150
X69850Y-25600
X69900Y-26450
X70050Y-23900
X70250Y-31850
X70400Y-25650
X70700Y-25300
X71200Y-27850
X71250Y-31850
X71700Y-17650
X71700Y-19250
X71800Y-27350
X71800Y-29200
X71950Y-21900
X72250Y-31800
X72300Y-25250
X72300Y-29650
X72400Y-19850
X72550Y-23400
X72550Y-24400
X72550Y-26850
X72550Y-28150
X72550Y-30850
X73050Y-25800
X73104Y-25004
X73200Y-19200
X73200Y-27050
X73300Y-31500
X73350Y-30150
X73400Y-28000
X73650Y-16650
X73650Y-17900
X73750Y-20100
X73900Y-28300
X73900Y-23550
X73995Y-21895
X74100Y-29100
X74128Y-24350
X74200Y-19000
X74550Y-22277
X74700Y-20200
X74750Y-21150
X74950Y-31850
X75000Y-27150
X75100Y-30100
X75150Y-26650
X75200Y-29100
X75650Y-23600
X75900Y-30650
X75900Y-31650
X75950Y-18150
X76050Y-17250
X76200Y-25250
X76200Y-27550
X76200Y-28250
X76300Y-20150
X76300Y-21550
X76300Y-22250
X76450Y-18800
X76500Y-13150
X76500Y-14150
X76550Y-31650
X76558Y-30658
X77000Y-30100
X77450Y-22250
X77450Y-24100
X77450Y-25250
X77900Y-30100
X78450Y-14150
X78650Y-12650
X78650Y-19150
X78700Y-31650
X79450Y-13000
X79450Y-19250
X79450Y-20050
X79450Y-21150
X79450Y-23200
X79450Y-24050
X79450Y-27300
X79450Y-31260
X79500Y-12250
X79627Y-22223
X80200Y-27650
X80237Y-25137
X80250Y-12650
X80950Y-13650
X80950Y-14650
X80950Y-15650
X80950Y-16650
X81200Y-22400
X81200Y-25700
X81350Y-22900
X82150Y-19900
X82200Y-32100
X82300Y-21000
X82300Y-32650
T2
X41450Y-22650
X41450Y-25650
X41450Y-28650
X41450Y-31650
X42450Y-22650
X42450Y-25650
X42450Y-28650
X42450Y-31650
X43450Y-22650
X43450Y-25650
X43450Y-28650
X43450Y-31650
X44450Y-22650
X44450Y-25650
X44450Y-28650
X44450Y-31650
X45450Y-22650
X45450Y-25650
X45450Y-28650
X45450Y-31650
X46450Y-22650
X46450Y-25650
X46450Y-28650
X46450Y-31650
X47450Y-22650
X47450Y-25650
X47450Y-28650
X47450Y-31650
X48450Y-22650
X48450Y-25650
X48450Y-28650
X48450Y-31650
X49450Y-22650
X49450Y-25650
X49450Y-28650
X49450Y-31650
X50450Y-22650
X50450Y-25650
X50450Y-28650
X50450Y-31650
X51450Y-22650
X51450Y-25650
X51450Y-28650
X51450Y-31650
X52450Y-22650
X52450Y-25650
X52450Y-28650
X52450Y-31650
X53450Y-22650
X53450Y-25650
X53450Y-28650
X53450Y-31650
X54450Y-22650
X54450Y-25650
X54450Y-28650
X54450Y-31650
X55450Y-22650
X55450Y-25650
X55450Y-28650
X55450Y-31650
X56450Y-22650
X56450Y-25650
X56450Y-28650
X56450Y-31650
X57450Y-22650
X57450Y-25650
X57450Y-28650
X57450Y-31650
X58450Y-22650
X58450Y-25650
X58450Y-28650
X58450Y-31650
X59450Y-22650
X59450Y-25650
X59450Y-28650
X59450Y-31650
X60450Y-22650
X60450Y-25650
X60450Y-28650
X60450Y-31650
X61450Y-22650
X61450Y-25650
X61450Y-28650
X61450Y-31650
X62450Y-22650
X62450Y-25650
X62450Y-28650
X62450Y-31650
X63450Y-22650
X63450Y-25650
X63450Y-28650
X63450Y-31650
X64450Y-22650
X64450Y-25650
X64450Y-28650
X64450Y-31650
T3
X65700Y-29100
X66700Y-29100
X67700Y-29100
X69200Y-29100
X70200Y-29100
X74950Y-16650
X74950Y-17650
X74950Y-18650
X81200Y-26650
X81200Y-27650
X81200Y-28650
X81200Y-29650
X81200Y-30650
X81200Y-31650
T0
M30
