%TF.GenerationSoftware,KiCad,Pcbnew,(5.1.9)-1*%
%TF.CreationDate,2021-07-28T13:21:10+01:00*%
%TF.ProjectId,RGBtoHDMI Amiga Denise CPLD FFC Rev 1.1,52474274-6f48-4444-9d49-20416d696761,rev?*%
%TF.SameCoordinates,Original*%
%TF.FileFunction,Paste,Top*%
%TF.FilePolarity,Positive*%
%FSLAX46Y46*%
G04 Gerber Fmt 4.6, Leading zero omitted, Abs format (unit mm)*
G04 Created by KiCad (PCBNEW (5.1.9)-1) date 2021-07-28 13:21:10*
%MOMM*%
%LPD*%
G01*
G04 APERTURE LIST*
%ADD10R,0.600000X2.000000*%
%ADD11R,2.500000X3.000000*%
%ADD12R,1.050000X0.600000*%
%ADD13R,1.500000X0.550000*%
%ADD14R,0.550000X1.500000*%
G04 APERTURE END LIST*
D10*
%TO.C,FFC18*%
X140090000Y-101645000D03*
X141090000Y-101645000D03*
X142090000Y-101645000D03*
X143090000Y-101645000D03*
X144090000Y-101645000D03*
X145090000Y-101645000D03*
X146090000Y-101645000D03*
X147090000Y-101645000D03*
X148090000Y-101645000D03*
X149090000Y-101645000D03*
X150090000Y-101645000D03*
X151090000Y-101645000D03*
X152090000Y-101645000D03*
X153090000Y-101645000D03*
X154090000Y-101645000D03*
X155090000Y-101645000D03*
X156090000Y-101645000D03*
X157090000Y-101645000D03*
D11*
X159840000Y-104095000D03*
X137340000Y-104095000D03*
%TD*%
%TO.C,R7*%
G36*
G01*
X116389999Y-90951000D02*
X117290001Y-90951000D01*
G75*
G02*
X117540000Y-91200999I0J-249999D01*
G01*
X117540000Y-91901001D01*
G75*
G02*
X117290001Y-92151000I-249999J0D01*
G01*
X116389999Y-92151000D01*
G75*
G02*
X116140000Y-91901001I0J249999D01*
G01*
X116140000Y-91200999D01*
G75*
G02*
X116389999Y-90951000I249999J0D01*
G01*
G37*
G36*
G01*
X116389999Y-88951000D02*
X117290001Y-88951000D01*
G75*
G02*
X117540000Y-89200999I0J-249999D01*
G01*
X117540000Y-89901001D01*
G75*
G02*
X117290001Y-90151000I-249999J0D01*
G01*
X116389999Y-90151000D01*
G75*
G02*
X116140000Y-89901001I0J249999D01*
G01*
X116140000Y-89200999D01*
G75*
G02*
X116389999Y-88951000I249999J0D01*
G01*
G37*
%TD*%
%TO.C,R6*%
G36*
G01*
X122739999Y-90951000D02*
X123640001Y-90951000D01*
G75*
G02*
X123890000Y-91200999I0J-249999D01*
G01*
X123890000Y-91901001D01*
G75*
G02*
X123640001Y-92151000I-249999J0D01*
G01*
X122739999Y-92151000D01*
G75*
G02*
X122490000Y-91901001I0J249999D01*
G01*
X122490000Y-91200999D01*
G75*
G02*
X122739999Y-90951000I249999J0D01*
G01*
G37*
G36*
G01*
X122739999Y-88951000D02*
X123640001Y-88951000D01*
G75*
G02*
X123890000Y-89200999I0J-249999D01*
G01*
X123890000Y-89901001D01*
G75*
G02*
X123640001Y-90151000I-249999J0D01*
G01*
X122739999Y-90151000D01*
G75*
G02*
X122490000Y-89901001I0J249999D01*
G01*
X122490000Y-89200999D01*
G75*
G02*
X122739999Y-88951000I249999J0D01*
G01*
G37*
%TD*%
%TO.C,C5*%
G36*
G01*
X168090000Y-86835000D02*
X168090000Y-85885000D01*
G75*
G02*
X168340000Y-85635000I250000J0D01*
G01*
X169015000Y-85635000D01*
G75*
G02*
X169265000Y-85885000I0J-250000D01*
G01*
X169265000Y-86835000D01*
G75*
G02*
X169015000Y-87085000I-250000J0D01*
G01*
X168340000Y-87085000D01*
G75*
G02*
X168090000Y-86835000I0J250000D01*
G01*
G37*
G36*
G01*
X166015000Y-86835000D02*
X166015000Y-85885000D01*
G75*
G02*
X166265000Y-85635000I250000J0D01*
G01*
X166940000Y-85635000D01*
G75*
G02*
X167190000Y-85885000I0J-250000D01*
G01*
X167190000Y-86835000D01*
G75*
G02*
X166940000Y-87085000I-250000J0D01*
G01*
X166265000Y-87085000D01*
G75*
G02*
X166015000Y-86835000I0J250000D01*
G01*
G37*
%TD*%
D12*
%TO.C,U2*%
X168990000Y-91120000D03*
X168990000Y-90170000D03*
X168990000Y-89220000D03*
X166290000Y-89220000D03*
X166290000Y-91120000D03*
%TD*%
%TO.C,R5*%
G36*
G01*
X172904999Y-92475000D02*
X173805001Y-92475000D01*
G75*
G02*
X174055000Y-92724999I0J-249999D01*
G01*
X174055000Y-93425001D01*
G75*
G02*
X173805001Y-93675000I-249999J0D01*
G01*
X172904999Y-93675000D01*
G75*
G02*
X172655000Y-93425001I0J249999D01*
G01*
X172655000Y-92724999D01*
G75*
G02*
X172904999Y-92475000I249999J0D01*
G01*
G37*
G36*
G01*
X172904999Y-90475000D02*
X173805001Y-90475000D01*
G75*
G02*
X174055000Y-90724999I0J-249999D01*
G01*
X174055000Y-91425001D01*
G75*
G02*
X173805001Y-91675000I-249999J0D01*
G01*
X172904999Y-91675000D01*
G75*
G02*
X172655000Y-91425001I0J249999D01*
G01*
X172655000Y-90724999D01*
G75*
G02*
X172904999Y-90475000I249999J0D01*
G01*
G37*
%TD*%
%TO.C,R4*%
G36*
G01*
X172904999Y-87395000D02*
X173805001Y-87395000D01*
G75*
G02*
X174055000Y-87644999I0J-249999D01*
G01*
X174055000Y-88345001D01*
G75*
G02*
X173805001Y-88595000I-249999J0D01*
G01*
X172904999Y-88595000D01*
G75*
G02*
X172655000Y-88345001I0J249999D01*
G01*
X172655000Y-87644999D01*
G75*
G02*
X172904999Y-87395000I249999J0D01*
G01*
G37*
G36*
G01*
X172904999Y-85395000D02*
X173805001Y-85395000D01*
G75*
G02*
X174055000Y-85644999I0J-249999D01*
G01*
X174055000Y-86345001D01*
G75*
G02*
X173805001Y-86595000I-249999J0D01*
G01*
X172904999Y-86595000D01*
G75*
G02*
X172655000Y-86345001I0J249999D01*
G01*
X172655000Y-85644999D01*
G75*
G02*
X172904999Y-85395000I249999J0D01*
G01*
G37*
%TD*%
%TO.C,C1*%
G36*
G01*
X164280000Y-81374000D02*
X164280000Y-80424000D01*
G75*
G02*
X164530000Y-80174000I250000J0D01*
G01*
X165205000Y-80174000D01*
G75*
G02*
X165455000Y-80424000I0J-250000D01*
G01*
X165455000Y-81374000D01*
G75*
G02*
X165205000Y-81624000I-250000J0D01*
G01*
X164530000Y-81624000D01*
G75*
G02*
X164280000Y-81374000I0J250000D01*
G01*
G37*
G36*
G01*
X162205000Y-81374000D02*
X162205000Y-80424000D01*
G75*
G02*
X162455000Y-80174000I250000J0D01*
G01*
X163130000Y-80174000D01*
G75*
G02*
X163380000Y-80424000I0J-250000D01*
G01*
X163380000Y-81374000D01*
G75*
G02*
X163130000Y-81624000I-250000J0D01*
G01*
X162455000Y-81624000D01*
G75*
G02*
X162205000Y-81374000I0J250000D01*
G01*
G37*
%TD*%
%TO.C,R3*%
G36*
G01*
X162325000Y-86810001D02*
X162325000Y-85909999D01*
G75*
G02*
X162574999Y-85660000I249999J0D01*
G01*
X163275001Y-85660000D01*
G75*
G02*
X163525000Y-85909999I0J-249999D01*
G01*
X163525000Y-86810001D01*
G75*
G02*
X163275001Y-87060000I-249999J0D01*
G01*
X162574999Y-87060000D01*
G75*
G02*
X162325000Y-86810001I0J249999D01*
G01*
G37*
G36*
G01*
X160325000Y-86810001D02*
X160325000Y-85909999D01*
G75*
G02*
X160574999Y-85660000I249999J0D01*
G01*
X161275001Y-85660000D01*
G75*
G02*
X161525000Y-85909999I0J-249999D01*
G01*
X161525000Y-86810001D01*
G75*
G02*
X161275001Y-87060000I-249999J0D01*
G01*
X160574999Y-87060000D01*
G75*
G02*
X160325000Y-86810001I0J249999D01*
G01*
G37*
%TD*%
%TO.C,R2*%
G36*
G01*
X162325000Y-97859001D02*
X162325000Y-96958999D01*
G75*
G02*
X162574999Y-96709000I249999J0D01*
G01*
X163275001Y-96709000D01*
G75*
G02*
X163525000Y-96958999I0J-249999D01*
G01*
X163525000Y-97859001D01*
G75*
G02*
X163275001Y-98109000I-249999J0D01*
G01*
X162574999Y-98109000D01*
G75*
G02*
X162325000Y-97859001I0J249999D01*
G01*
G37*
G36*
G01*
X160325000Y-97859001D02*
X160325000Y-96958999D01*
G75*
G02*
X160574999Y-96709000I249999J0D01*
G01*
X161275001Y-96709000D01*
G75*
G02*
X161525000Y-96958999I0J-249999D01*
G01*
X161525000Y-97859001D01*
G75*
G02*
X161275001Y-98109000I-249999J0D01*
G01*
X160574999Y-98109000D01*
G75*
G02*
X160325000Y-97859001I0J249999D01*
G01*
G37*
%TD*%
%TO.C,R1*%
G36*
G01*
X129089999Y-90951000D02*
X129990001Y-90951000D01*
G75*
G02*
X130240000Y-91200999I0J-249999D01*
G01*
X130240000Y-91901001D01*
G75*
G02*
X129990001Y-92151000I-249999J0D01*
G01*
X129089999Y-92151000D01*
G75*
G02*
X128840000Y-91901001I0J249999D01*
G01*
X128840000Y-91200999D01*
G75*
G02*
X129089999Y-90951000I249999J0D01*
G01*
G37*
G36*
G01*
X129089999Y-88951000D02*
X129990001Y-88951000D01*
G75*
G02*
X130240000Y-89200999I0J-249999D01*
G01*
X130240000Y-89901001D01*
G75*
G02*
X129990001Y-90151000I-249999J0D01*
G01*
X129089999Y-90151000D01*
G75*
G02*
X128840000Y-89901001I0J249999D01*
G01*
X128840000Y-89200999D01*
G75*
G02*
X129089999Y-88951000I249999J0D01*
G01*
G37*
%TD*%
%TO.C,C4*%
G36*
G01*
X138778000Y-85910000D02*
X137828000Y-85910000D01*
G75*
G02*
X137578000Y-85660000I0J250000D01*
G01*
X137578000Y-84985000D01*
G75*
G02*
X137828000Y-84735000I250000J0D01*
G01*
X138778000Y-84735000D01*
G75*
G02*
X139028000Y-84985000I0J-250000D01*
G01*
X139028000Y-85660000D01*
G75*
G02*
X138778000Y-85910000I-250000J0D01*
G01*
G37*
G36*
G01*
X138778000Y-87985000D02*
X137828000Y-87985000D01*
G75*
G02*
X137578000Y-87735000I0J250000D01*
G01*
X137578000Y-87060000D01*
G75*
G02*
X137828000Y-86810000I250000J0D01*
G01*
X138778000Y-86810000D01*
G75*
G02*
X139028000Y-87060000I0J-250000D01*
G01*
X139028000Y-87735000D01*
G75*
G02*
X138778000Y-87985000I-250000J0D01*
G01*
G37*
%TD*%
%TO.C,C3*%
G36*
G01*
X160434000Y-92652000D02*
X161384000Y-92652000D01*
G75*
G02*
X161634000Y-92902000I0J-250000D01*
G01*
X161634000Y-93577000D01*
G75*
G02*
X161384000Y-93827000I-250000J0D01*
G01*
X160434000Y-93827000D01*
G75*
G02*
X160184000Y-93577000I0J250000D01*
G01*
X160184000Y-92902000D01*
G75*
G02*
X160434000Y-92652000I250000J0D01*
G01*
G37*
G36*
G01*
X160434000Y-90577000D02*
X161384000Y-90577000D01*
G75*
G02*
X161634000Y-90827000I0J-250000D01*
G01*
X161634000Y-91502000D01*
G75*
G02*
X161384000Y-91752000I-250000J0D01*
G01*
X160434000Y-91752000D01*
G75*
G02*
X160184000Y-91502000I0J250000D01*
G01*
X160184000Y-90827000D01*
G75*
G02*
X160434000Y-90577000I250000J0D01*
G01*
G37*
%TD*%
%TO.C,C2*%
G36*
G01*
X147505000Y-79789000D02*
X147505000Y-80739000D01*
G75*
G02*
X147255000Y-80989000I-250000J0D01*
G01*
X146580000Y-80989000D01*
G75*
G02*
X146330000Y-80739000I0J250000D01*
G01*
X146330000Y-79789000D01*
G75*
G02*
X146580000Y-79539000I250000J0D01*
G01*
X147255000Y-79539000D01*
G75*
G02*
X147505000Y-79789000I0J-250000D01*
G01*
G37*
G36*
G01*
X149580000Y-79789000D02*
X149580000Y-80739000D01*
G75*
G02*
X149330000Y-80989000I-250000J0D01*
G01*
X148655000Y-80989000D01*
G75*
G02*
X148405000Y-80739000I0J250000D01*
G01*
X148405000Y-79789000D01*
G75*
G02*
X148655000Y-79539000I250000J0D01*
G01*
X149330000Y-79539000D01*
G75*
G02*
X149580000Y-79789000I0J-250000D01*
G01*
G37*
%TD*%
D13*
%TO.C,U1*%
X142890000Y-94170000D03*
X142890000Y-93370000D03*
X142890000Y-92570000D03*
X142890000Y-91770000D03*
X142890000Y-90970000D03*
X142890000Y-90170000D03*
X142890000Y-89370000D03*
X142890000Y-88570000D03*
X142890000Y-87770000D03*
X142890000Y-86970000D03*
X142890000Y-86170000D03*
D14*
X144590000Y-84470000D03*
X145390000Y-84470000D03*
X146190000Y-84470000D03*
X146990000Y-84470000D03*
X147790000Y-84470000D03*
X148590000Y-84470000D03*
X149390000Y-84470000D03*
X150190000Y-84470000D03*
X150990000Y-84470000D03*
X151790000Y-84470000D03*
X152590000Y-84470000D03*
D13*
X154290000Y-86170000D03*
X154290000Y-86970000D03*
X154290000Y-87770000D03*
X154290000Y-88570000D03*
X154290000Y-89370000D03*
X154290000Y-90170000D03*
X154290000Y-90970000D03*
X154290000Y-91770000D03*
X154290000Y-92570000D03*
X154290000Y-93370000D03*
X154290000Y-94170000D03*
D14*
X152590000Y-95870000D03*
X151790000Y-95870000D03*
X150990000Y-95870000D03*
X150190000Y-95870000D03*
X149390000Y-95870000D03*
X148590000Y-95870000D03*
X147790000Y-95870000D03*
X146990000Y-95870000D03*
X146190000Y-95870000D03*
X145390000Y-95870000D03*
X144590000Y-95870000D03*
%TD*%
M02*
