%TF.GenerationSoftware,KiCad,Pcbnew,(5.1.9)-1*%
%TF.CreationDate,2021-07-28T13:21:10+01:00*%
%TF.ProjectId,RGBtoHDMI Amiga Denise CPLD FFC Rev 1.1,52474274-6f48-4444-9d49-20416d696761,rev?*%
%TF.SameCoordinates,Original*%
%TF.FileFunction,Legend,Top*%
%TF.FilePolarity,Positive*%
%FSLAX46Y46*%
G04 Gerber Fmt 4.6, Leading zero omitted, Abs format (unit mm)*
G04 Created by KiCad (PCBNEW (5.1.9)-1) date 2021-07-28 13:21:10*
%MOMM*%
%LPD*%
G01*
G04 APERTURE LIST*
%ADD10C,0.100000*%
%ADD11C,0.120000*%
%ADD12C,0.300000*%
%ADD13C,0.500000*%
%ADD14C,0.150000*%
%ADD15C,1.000000*%
%ADD16C,0.127000*%
%ADD17C,0.254000*%
G04 APERTURE END LIST*
D10*
X141454285Y-71426428D02*
X141797142Y-71426428D01*
X141625714Y-72026428D02*
X141625714Y-71426428D01*
X141997142Y-72026428D02*
X141997142Y-71426428D01*
X142140000Y-71426428D01*
X142225714Y-71455000D01*
X142282857Y-71512142D01*
X142311428Y-71569285D01*
X142340000Y-71683571D01*
X142340000Y-71769285D01*
X142311428Y-71883571D01*
X142282857Y-71940714D01*
X142225714Y-71997857D01*
X142140000Y-72026428D01*
X141997142Y-72026428D01*
X142711428Y-71426428D02*
X142825714Y-71426428D01*
X142882857Y-71455000D01*
X142940000Y-71512142D01*
X142968571Y-71626428D01*
X142968571Y-71826428D01*
X142940000Y-71940714D01*
X142882857Y-71997857D01*
X142825714Y-72026428D01*
X142711428Y-72026428D01*
X142654285Y-71997857D01*
X142597142Y-71940714D01*
X142568571Y-71826428D01*
X142568571Y-71626428D01*
X142597142Y-71512142D01*
X142654285Y-71455000D01*
X142711428Y-71426428D01*
X128925714Y-77903428D02*
X129268571Y-77903428D01*
X129097142Y-78503428D02*
X129097142Y-77903428D01*
X129468571Y-78503428D02*
X129468571Y-77903428D01*
X129611428Y-77903428D01*
X129697142Y-77932000D01*
X129754285Y-77989142D01*
X129782857Y-78046285D01*
X129811428Y-78160571D01*
X129811428Y-78246285D01*
X129782857Y-78360571D01*
X129754285Y-78417714D01*
X129697142Y-78474857D01*
X129611428Y-78503428D01*
X129468571Y-78503428D01*
X130068571Y-78503428D02*
X130068571Y-77903428D01*
X128740000Y-71426428D02*
X129082857Y-71426428D01*
X128911428Y-72026428D02*
X128911428Y-71426428D01*
X129282857Y-72026428D02*
X129282857Y-71426428D01*
X129482857Y-71855000D01*
X129682857Y-71426428D01*
X129682857Y-72026428D01*
X129940000Y-71997857D02*
X130025714Y-72026428D01*
X130168571Y-72026428D01*
X130225714Y-71997857D01*
X130254285Y-71969285D01*
X130282857Y-71912142D01*
X130282857Y-71855000D01*
X130254285Y-71797857D01*
X130225714Y-71769285D01*
X130168571Y-71740714D01*
X130054285Y-71712142D01*
X129997142Y-71683571D01*
X129968571Y-71655000D01*
X129940000Y-71597857D01*
X129940000Y-71540714D01*
X129968571Y-71483571D01*
X129997142Y-71455000D01*
X130054285Y-71426428D01*
X130197142Y-71426428D01*
X130282857Y-71455000D01*
X116068571Y-71426428D02*
X116411428Y-71426428D01*
X116240000Y-72026428D02*
X116240000Y-71426428D01*
X116954285Y-71969285D02*
X116925714Y-71997857D01*
X116840000Y-72026428D01*
X116782857Y-72026428D01*
X116697142Y-71997857D01*
X116640000Y-71940714D01*
X116611428Y-71883571D01*
X116582857Y-71769285D01*
X116582857Y-71683571D01*
X116611428Y-71569285D01*
X116640000Y-71512142D01*
X116697142Y-71455000D01*
X116782857Y-71426428D01*
X116840000Y-71426428D01*
X116925714Y-71455000D01*
X116954285Y-71483571D01*
X117211428Y-72026428D02*
X117211428Y-71426428D01*
X117554285Y-72026428D02*
X117297142Y-71683571D01*
X117554285Y-71426428D02*
X117211428Y-71769285D01*
X142390785Y-99904428D02*
X142419357Y-99933000D01*
X142447928Y-100018714D01*
X142447928Y-100075857D01*
X142419357Y-100161571D01*
X142362214Y-100218714D01*
X142305071Y-100247285D01*
X142190785Y-100275857D01*
X142105071Y-100275857D01*
X141990785Y-100247285D01*
X141933642Y-100218714D01*
X141876500Y-100161571D01*
X141847928Y-100075857D01*
X141847928Y-100018714D01*
X141876500Y-99933000D01*
X141905071Y-99904428D01*
X142419357Y-99675857D02*
X142447928Y-99590142D01*
X142447928Y-99447285D01*
X142419357Y-99390142D01*
X142390785Y-99361571D01*
X142333642Y-99333000D01*
X142276500Y-99333000D01*
X142219357Y-99361571D01*
X142190785Y-99390142D01*
X142162214Y-99447285D01*
X142133642Y-99561571D01*
X142105071Y-99618714D01*
X142076500Y-99647285D01*
X142019357Y-99675857D01*
X141962214Y-99675857D01*
X141905071Y-99647285D01*
X141876500Y-99618714D01*
X141847928Y-99561571D01*
X141847928Y-99418714D01*
X141876500Y-99333000D01*
X142162214Y-98961571D02*
X142447928Y-98961571D01*
X141847928Y-99161571D02*
X142162214Y-98961571D01*
X141847928Y-98761571D01*
X142447928Y-98561571D02*
X141847928Y-98561571D01*
X142447928Y-98218714D01*
X141847928Y-98218714D01*
X142390785Y-97590142D02*
X142419357Y-97618714D01*
X142447928Y-97704428D01*
X142447928Y-97761571D01*
X142419357Y-97847285D01*
X142362214Y-97904428D01*
X142305071Y-97933000D01*
X142190785Y-97961571D01*
X142105071Y-97961571D01*
X141990785Y-97933000D01*
X141933642Y-97904428D01*
X141876500Y-97847285D01*
X141847928Y-97761571D01*
X141847928Y-97704428D01*
X141876500Y-97618714D01*
X141905071Y-97590142D01*
X145877000Y-99950571D02*
X145848428Y-100007714D01*
X145848428Y-100093428D01*
X145877000Y-100179142D01*
X145934142Y-100236285D01*
X145991285Y-100264857D01*
X146105571Y-100293428D01*
X146191285Y-100293428D01*
X146305571Y-100264857D01*
X146362714Y-100236285D01*
X146419857Y-100179142D01*
X146448428Y-100093428D01*
X146448428Y-100036285D01*
X146419857Y-99950571D01*
X146391285Y-99922000D01*
X146191285Y-99922000D01*
X146191285Y-100036285D01*
X146448428Y-99350571D02*
X146448428Y-99693428D01*
X146448428Y-99522000D02*
X145848428Y-99522000D01*
X145934142Y-99579142D01*
X145991285Y-99636285D01*
X146019857Y-99693428D01*
X146829500Y-99950571D02*
X146800928Y-100007714D01*
X146800928Y-100093428D01*
X146829500Y-100179142D01*
X146886642Y-100236285D01*
X146943785Y-100264857D01*
X147058071Y-100293428D01*
X147143785Y-100293428D01*
X147258071Y-100264857D01*
X147315214Y-100236285D01*
X147372357Y-100179142D01*
X147400928Y-100093428D01*
X147400928Y-100036285D01*
X147372357Y-99950571D01*
X147343785Y-99922000D01*
X147143785Y-99922000D01*
X147143785Y-100036285D01*
X146800928Y-99550571D02*
X146800928Y-99493428D01*
X146829500Y-99436285D01*
X146858071Y-99407714D01*
X146915214Y-99379142D01*
X147029500Y-99350571D01*
X147172357Y-99350571D01*
X147286642Y-99379142D01*
X147343785Y-99407714D01*
X147372357Y-99436285D01*
X147400928Y-99493428D01*
X147400928Y-99550571D01*
X147372357Y-99607714D01*
X147343785Y-99636285D01*
X147286642Y-99664857D01*
X147172357Y-99693428D01*
X147029500Y-99693428D01*
X146915214Y-99664857D01*
X146858071Y-99636285D01*
X146829500Y-99607714D01*
X146800928Y-99550571D01*
X144861000Y-99950571D02*
X144832428Y-100007714D01*
X144832428Y-100093428D01*
X144861000Y-100179142D01*
X144918142Y-100236285D01*
X144975285Y-100264857D01*
X145089571Y-100293428D01*
X145175285Y-100293428D01*
X145289571Y-100264857D01*
X145346714Y-100236285D01*
X145403857Y-100179142D01*
X145432428Y-100093428D01*
X145432428Y-100036285D01*
X145403857Y-99950571D01*
X145375285Y-99922000D01*
X145175285Y-99922000D01*
X145175285Y-100036285D01*
X144889571Y-99693428D02*
X144861000Y-99664857D01*
X144832428Y-99607714D01*
X144832428Y-99464857D01*
X144861000Y-99407714D01*
X144889571Y-99379142D01*
X144946714Y-99350571D01*
X145003857Y-99350571D01*
X145089571Y-99379142D01*
X145432428Y-99722000D01*
X145432428Y-99350571D01*
X143845000Y-99950571D02*
X143816428Y-100007714D01*
X143816428Y-100093428D01*
X143845000Y-100179142D01*
X143902142Y-100236285D01*
X143959285Y-100264857D01*
X144073571Y-100293428D01*
X144159285Y-100293428D01*
X144273571Y-100264857D01*
X144330714Y-100236285D01*
X144387857Y-100179142D01*
X144416428Y-100093428D01*
X144416428Y-100036285D01*
X144387857Y-99950571D01*
X144359285Y-99922000D01*
X144159285Y-99922000D01*
X144159285Y-100036285D01*
X143816428Y-99722000D02*
X143816428Y-99350571D01*
X144045000Y-99550571D01*
X144045000Y-99464857D01*
X144073571Y-99407714D01*
X144102142Y-99379142D01*
X144159285Y-99350571D01*
X144302142Y-99350571D01*
X144359285Y-99379142D01*
X144387857Y-99407714D01*
X144416428Y-99464857D01*
X144416428Y-99636285D01*
X144387857Y-99693428D01*
X144359285Y-99722000D01*
X149118642Y-100064857D02*
X149147214Y-99979142D01*
X149175785Y-99950571D01*
X149232928Y-99922000D01*
X149318642Y-99922000D01*
X149375785Y-99950571D01*
X149404357Y-99979142D01*
X149432928Y-100036285D01*
X149432928Y-100264857D01*
X148832928Y-100264857D01*
X148832928Y-100064857D01*
X148861500Y-100007714D01*
X148890071Y-99979142D01*
X148947214Y-99950571D01*
X149004357Y-99950571D01*
X149061500Y-99979142D01*
X149090071Y-100007714D01*
X149118642Y-100064857D01*
X149118642Y-100264857D01*
X148890071Y-99693428D02*
X148861500Y-99664857D01*
X148832928Y-99607714D01*
X148832928Y-99464857D01*
X148861500Y-99407714D01*
X148890071Y-99379142D01*
X148947214Y-99350571D01*
X149004357Y-99350571D01*
X149090071Y-99379142D01*
X149432928Y-99722000D01*
X149432928Y-99350571D01*
X151087142Y-100064857D02*
X151115714Y-99979142D01*
X151144285Y-99950571D01*
X151201428Y-99922000D01*
X151287142Y-99922000D01*
X151344285Y-99950571D01*
X151372857Y-99979142D01*
X151401428Y-100036285D01*
X151401428Y-100264857D01*
X150801428Y-100264857D01*
X150801428Y-100064857D01*
X150830000Y-100007714D01*
X150858571Y-99979142D01*
X150915714Y-99950571D01*
X150972857Y-99950571D01*
X151030000Y-99979142D01*
X151058571Y-100007714D01*
X151087142Y-100064857D01*
X151087142Y-100264857D01*
X150801428Y-99550571D02*
X150801428Y-99493428D01*
X150830000Y-99436285D01*
X150858571Y-99407714D01*
X150915714Y-99379142D01*
X151030000Y-99350571D01*
X151172857Y-99350571D01*
X151287142Y-99379142D01*
X151344285Y-99407714D01*
X151372857Y-99436285D01*
X151401428Y-99493428D01*
X151401428Y-99550571D01*
X151372857Y-99607714D01*
X151344285Y-99636285D01*
X151287142Y-99664857D01*
X151172857Y-99693428D01*
X151030000Y-99693428D01*
X150915714Y-99664857D01*
X150858571Y-99636285D01*
X150830000Y-99607714D01*
X150801428Y-99550571D01*
X150134642Y-100064857D02*
X150163214Y-99979142D01*
X150191785Y-99950571D01*
X150248928Y-99922000D01*
X150334642Y-99922000D01*
X150391785Y-99950571D01*
X150420357Y-99979142D01*
X150448928Y-100036285D01*
X150448928Y-100264857D01*
X149848928Y-100264857D01*
X149848928Y-100064857D01*
X149877500Y-100007714D01*
X149906071Y-99979142D01*
X149963214Y-99950571D01*
X150020357Y-99950571D01*
X150077500Y-99979142D01*
X150106071Y-100007714D01*
X150134642Y-100064857D01*
X150134642Y-100264857D01*
X150448928Y-99350571D02*
X150448928Y-99693428D01*
X150448928Y-99522000D02*
X149848928Y-99522000D01*
X149934642Y-99579142D01*
X149991785Y-99636285D01*
X150020357Y-99693428D01*
X148102642Y-100064857D02*
X148131214Y-99979142D01*
X148159785Y-99950571D01*
X148216928Y-99922000D01*
X148302642Y-99922000D01*
X148359785Y-99950571D01*
X148388357Y-99979142D01*
X148416928Y-100036285D01*
X148416928Y-100264857D01*
X147816928Y-100264857D01*
X147816928Y-100064857D01*
X147845500Y-100007714D01*
X147874071Y-99979142D01*
X147931214Y-99950571D01*
X147988357Y-99950571D01*
X148045500Y-99979142D01*
X148074071Y-100007714D01*
X148102642Y-100064857D01*
X148102642Y-100264857D01*
X147816928Y-99722000D02*
X147816928Y-99350571D01*
X148045500Y-99550571D01*
X148045500Y-99464857D01*
X148074071Y-99407714D01*
X148102642Y-99379142D01*
X148159785Y-99350571D01*
X148302642Y-99350571D01*
X148359785Y-99379142D01*
X148388357Y-99407714D01*
X148416928Y-99464857D01*
X148416928Y-99636285D01*
X148388357Y-99693428D01*
X148359785Y-99722000D01*
X152353928Y-99922000D02*
X152068214Y-100122000D01*
X152353928Y-100264857D02*
X151753928Y-100264857D01*
X151753928Y-100036285D01*
X151782500Y-99979142D01*
X151811071Y-99950571D01*
X151868214Y-99922000D01*
X151953928Y-99922000D01*
X152011071Y-99950571D01*
X152039642Y-99979142D01*
X152068214Y-100036285D01*
X152068214Y-100264857D01*
X151753928Y-99722000D02*
X151753928Y-99350571D01*
X151982500Y-99550571D01*
X151982500Y-99464857D01*
X152011071Y-99407714D01*
X152039642Y-99379142D01*
X152096785Y-99350571D01*
X152239642Y-99350571D01*
X152296785Y-99379142D01*
X152325357Y-99407714D01*
X152353928Y-99464857D01*
X152353928Y-99636285D01*
X152325357Y-99693428D01*
X152296785Y-99722000D01*
X140131857Y-98379000D02*
X140074714Y-98350428D01*
X139989000Y-98350428D01*
X139903285Y-98379000D01*
X139846142Y-98436142D01*
X139817571Y-98493285D01*
X139789000Y-98607571D01*
X139789000Y-98693285D01*
X139817571Y-98807571D01*
X139846142Y-98864714D01*
X139903285Y-98921857D01*
X139989000Y-98950428D01*
X140046142Y-98950428D01*
X140131857Y-98921857D01*
X140160428Y-98893285D01*
X140160428Y-98693285D01*
X140046142Y-98693285D01*
X140417571Y-98950428D02*
X140417571Y-98350428D01*
X140760428Y-98950428D01*
X140760428Y-98350428D01*
X141046142Y-98950428D02*
X141046142Y-98350428D01*
X141189000Y-98350428D01*
X141274714Y-98379000D01*
X141331857Y-98436142D01*
X141360428Y-98493285D01*
X141389000Y-98607571D01*
X141389000Y-98693285D01*
X141360428Y-98807571D01*
X141331857Y-98864714D01*
X141274714Y-98921857D01*
X141189000Y-98950428D01*
X141046142Y-98950428D01*
X153369928Y-99922000D02*
X153084214Y-100122000D01*
X153369928Y-100264857D02*
X152769928Y-100264857D01*
X152769928Y-100036285D01*
X152798500Y-99979142D01*
X152827071Y-99950571D01*
X152884214Y-99922000D01*
X152969928Y-99922000D01*
X153027071Y-99950571D01*
X153055642Y-99979142D01*
X153084214Y-100036285D01*
X153084214Y-100264857D01*
X152827071Y-99693428D02*
X152798500Y-99664857D01*
X152769928Y-99607714D01*
X152769928Y-99464857D01*
X152798500Y-99407714D01*
X152827071Y-99379142D01*
X152884214Y-99350571D01*
X152941357Y-99350571D01*
X153027071Y-99379142D01*
X153369928Y-99722000D01*
X153369928Y-99350571D01*
X154385928Y-99922000D02*
X154100214Y-100122000D01*
X154385928Y-100264857D02*
X153785928Y-100264857D01*
X153785928Y-100036285D01*
X153814500Y-99979142D01*
X153843071Y-99950571D01*
X153900214Y-99922000D01*
X153985928Y-99922000D01*
X154043071Y-99950571D01*
X154071642Y-99979142D01*
X154100214Y-100036285D01*
X154100214Y-100264857D01*
X154385928Y-99350571D02*
X154385928Y-99693428D01*
X154385928Y-99522000D02*
X153785928Y-99522000D01*
X153871642Y-99579142D01*
X153928785Y-99636285D01*
X153957357Y-99693428D01*
X155338428Y-99922000D02*
X155052714Y-100122000D01*
X155338428Y-100264857D02*
X154738428Y-100264857D01*
X154738428Y-100036285D01*
X154767000Y-99979142D01*
X154795571Y-99950571D01*
X154852714Y-99922000D01*
X154938428Y-99922000D01*
X154995571Y-99950571D01*
X155024142Y-99979142D01*
X155052714Y-100036285D01*
X155052714Y-100264857D01*
X154738428Y-99550571D02*
X154738428Y-99493428D01*
X154767000Y-99436285D01*
X154795571Y-99407714D01*
X154852714Y-99379142D01*
X154967000Y-99350571D01*
X155109857Y-99350571D01*
X155224142Y-99379142D01*
X155281285Y-99407714D01*
X155309857Y-99436285D01*
X155338428Y-99493428D01*
X155338428Y-99550571D01*
X155309857Y-99607714D01*
X155281285Y-99636285D01*
X155224142Y-99664857D01*
X155109857Y-99693428D01*
X154967000Y-99693428D01*
X154852714Y-99664857D01*
X154795571Y-99636285D01*
X154767000Y-99607714D01*
X154738428Y-99550571D01*
X155819571Y-99991857D02*
X156276714Y-99991857D01*
X156048142Y-100220428D02*
X156048142Y-99763285D01*
X156848142Y-99620428D02*
X156562428Y-99620428D01*
X156533857Y-99906142D01*
X156562428Y-99877571D01*
X156619571Y-99849000D01*
X156762428Y-99849000D01*
X156819571Y-99877571D01*
X156848142Y-99906142D01*
X156876714Y-99963285D01*
X156876714Y-100106142D01*
X156848142Y-100163285D01*
X156819571Y-100191857D01*
X156762428Y-100220428D01*
X156619571Y-100220428D01*
X156562428Y-100191857D01*
X156533857Y-100163285D01*
X157048142Y-99620428D02*
X157248142Y-100220428D01*
X157448142Y-99620428D01*
D11*
X140081000Y-99949000D02*
X139700000Y-99314000D01*
X140462000Y-99314000D02*
X140081000Y-99949000D01*
X139700000Y-99314000D02*
X140462000Y-99314000D01*
D10*
X176004000Y-89284285D02*
X176075428Y-89308095D01*
X176099238Y-89331904D01*
X176123047Y-89379523D01*
X176123047Y-89450952D01*
X176099238Y-89498571D01*
X176075428Y-89522380D01*
X176027809Y-89546190D01*
X175837333Y-89546190D01*
X175837333Y-89046190D01*
X176004000Y-89046190D01*
X176051619Y-89070000D01*
X176075428Y-89093809D01*
X176099238Y-89141428D01*
X176099238Y-89189047D01*
X176075428Y-89236666D01*
X176051619Y-89260476D01*
X176004000Y-89284285D01*
X175837333Y-89284285D01*
X176551619Y-89212857D02*
X176551619Y-89546190D01*
X176337333Y-89212857D02*
X176337333Y-89474761D01*
X176361143Y-89522380D01*
X176408762Y-89546190D01*
X176480190Y-89546190D01*
X176527809Y-89522380D01*
X176551619Y-89498571D01*
X176718285Y-89212857D02*
X176908762Y-89212857D01*
X176789714Y-89546190D02*
X176789714Y-89117619D01*
X176813523Y-89070000D01*
X176861143Y-89046190D01*
X176908762Y-89046190D01*
X177004000Y-89212857D02*
X177194476Y-89212857D01*
X177075428Y-89546190D02*
X177075428Y-89117619D01*
X177099238Y-89070000D01*
X177146857Y-89046190D01*
X177194476Y-89046190D01*
X177551619Y-89522380D02*
X177504000Y-89546190D01*
X177408762Y-89546190D01*
X177361143Y-89522380D01*
X177337333Y-89474761D01*
X177337333Y-89284285D01*
X177361143Y-89236666D01*
X177408762Y-89212857D01*
X177504000Y-89212857D01*
X177551619Y-89236666D01*
X177575428Y-89284285D01*
X177575428Y-89331904D01*
X177337333Y-89379523D01*
X177789714Y-89546190D02*
X177789714Y-89212857D01*
X177789714Y-89308095D02*
X177813523Y-89260476D01*
X177837333Y-89236666D01*
X177884952Y-89212857D01*
X177932571Y-89212857D01*
X178289714Y-89522380D02*
X178242095Y-89546190D01*
X178146857Y-89546190D01*
X178099238Y-89522380D01*
X178075428Y-89474761D01*
X178075428Y-89284285D01*
X178099238Y-89236666D01*
X178146857Y-89212857D01*
X178242095Y-89212857D01*
X178289714Y-89236666D01*
X178313523Y-89284285D01*
X178313523Y-89331904D01*
X178075428Y-89379523D01*
X178742095Y-89546190D02*
X178742095Y-89046190D01*
X178742095Y-89522380D02*
X178694476Y-89546190D01*
X178599238Y-89546190D01*
X178551619Y-89522380D01*
X178527809Y-89498571D01*
X178504000Y-89450952D01*
X178504000Y-89308095D01*
X178527809Y-89260476D01*
X178551619Y-89236666D01*
X178599238Y-89212857D01*
X178694476Y-89212857D01*
X178742095Y-89236666D01*
X176289714Y-90396190D02*
X176289714Y-89896190D01*
X176408762Y-89896190D01*
X176480190Y-89920000D01*
X176527809Y-89967619D01*
X176551619Y-90015238D01*
X176575428Y-90110476D01*
X176575428Y-90181904D01*
X176551619Y-90277142D01*
X176527809Y-90324761D01*
X176480190Y-90372380D01*
X176408762Y-90396190D01*
X176289714Y-90396190D01*
X176789714Y-90396190D02*
X176789714Y-90062857D01*
X176789714Y-89896190D02*
X176765904Y-89920000D01*
X176789714Y-89943809D01*
X176813523Y-89920000D01*
X176789714Y-89896190D01*
X176789714Y-89943809D01*
X177004000Y-90372380D02*
X177051619Y-90396190D01*
X177146857Y-90396190D01*
X177194476Y-90372380D01*
X177218285Y-90324761D01*
X177218285Y-90300952D01*
X177194476Y-90253333D01*
X177146857Y-90229523D01*
X177075428Y-90229523D01*
X177027809Y-90205714D01*
X177004000Y-90158095D01*
X177004000Y-90134285D01*
X177027809Y-90086666D01*
X177075428Y-90062857D01*
X177146857Y-90062857D01*
X177194476Y-90086666D01*
X177432571Y-90062857D02*
X177432571Y-90562857D01*
X177432571Y-90086666D02*
X177480190Y-90062857D01*
X177575428Y-90062857D01*
X177623047Y-90086666D01*
X177646857Y-90110476D01*
X177670666Y-90158095D01*
X177670666Y-90300952D01*
X177646857Y-90348571D01*
X177623047Y-90372380D01*
X177575428Y-90396190D01*
X177480190Y-90396190D01*
X177432571Y-90372380D01*
X177956381Y-90396190D02*
X177908762Y-90372380D01*
X177884952Y-90324761D01*
X177884952Y-89896190D01*
X178361143Y-90396190D02*
X178361143Y-90134285D01*
X178337333Y-90086666D01*
X178289714Y-90062857D01*
X178194476Y-90062857D01*
X178146857Y-90086666D01*
X178361143Y-90372380D02*
X178313523Y-90396190D01*
X178194476Y-90396190D01*
X178146857Y-90372380D01*
X178123047Y-90324761D01*
X178123047Y-90277142D01*
X178146857Y-90229523D01*
X178194476Y-90205714D01*
X178313523Y-90205714D01*
X178361143Y-90181904D01*
X178551619Y-90062857D02*
X178670666Y-90396190D01*
X178789714Y-90062857D02*
X178670666Y-90396190D01*
X178623047Y-90515238D01*
X178599238Y-90539047D01*
X178551619Y-90562857D01*
X177813523Y-90746190D02*
X177908762Y-90746190D01*
X177956381Y-90770000D01*
X178004000Y-90817619D01*
X178027809Y-90912857D01*
X178027809Y-91079523D01*
X178004000Y-91174761D01*
X177956381Y-91222380D01*
X177908762Y-91246190D01*
X177813523Y-91246190D01*
X177765904Y-91222380D01*
X177718285Y-91174761D01*
X177694476Y-91079523D01*
X177694476Y-90912857D01*
X177718285Y-90817619D01*
X177765904Y-90770000D01*
X177813523Y-90746190D01*
X178456381Y-90912857D02*
X178456381Y-91246190D01*
X178242095Y-90912857D02*
X178242095Y-91174761D01*
X178265904Y-91222380D01*
X178313523Y-91246190D01*
X178384952Y-91246190D01*
X178432571Y-91222380D01*
X178456381Y-91198571D01*
X178623047Y-90912857D02*
X178813523Y-90912857D01*
X178694476Y-90746190D02*
X178694476Y-91174761D01*
X178718285Y-91222380D01*
X178765904Y-91246190D01*
X178813523Y-91246190D01*
X176289714Y-87431190D02*
X176289714Y-86931190D01*
X176408762Y-86931190D01*
X176480190Y-86955000D01*
X176527809Y-87002619D01*
X176551619Y-87050238D01*
X176575428Y-87145476D01*
X176575428Y-87216904D01*
X176551619Y-87312142D01*
X176527809Y-87359761D01*
X176480190Y-87407380D01*
X176408762Y-87431190D01*
X176289714Y-87431190D01*
X176789714Y-87431190D02*
X176789714Y-87097857D01*
X176789714Y-86931190D02*
X176765904Y-86955000D01*
X176789714Y-86978809D01*
X176813523Y-86955000D01*
X176789714Y-86931190D01*
X176789714Y-86978809D01*
X177004000Y-87407380D02*
X177051619Y-87431190D01*
X177146857Y-87431190D01*
X177194476Y-87407380D01*
X177218285Y-87359761D01*
X177218285Y-87335952D01*
X177194476Y-87288333D01*
X177146857Y-87264523D01*
X177075428Y-87264523D01*
X177027809Y-87240714D01*
X177004000Y-87193095D01*
X177004000Y-87169285D01*
X177027809Y-87121666D01*
X177075428Y-87097857D01*
X177146857Y-87097857D01*
X177194476Y-87121666D01*
X177432571Y-87097857D02*
X177432571Y-87597857D01*
X177432571Y-87121666D02*
X177480190Y-87097857D01*
X177575428Y-87097857D01*
X177623047Y-87121666D01*
X177646857Y-87145476D01*
X177670666Y-87193095D01*
X177670666Y-87335952D01*
X177646857Y-87383571D01*
X177623047Y-87407380D01*
X177575428Y-87431190D01*
X177480190Y-87431190D01*
X177432571Y-87407380D01*
X177956381Y-87431190D02*
X177908762Y-87407380D01*
X177884952Y-87359761D01*
X177884952Y-86931190D01*
X178361143Y-87431190D02*
X178361143Y-87169285D01*
X178337333Y-87121666D01*
X178289714Y-87097857D01*
X178194476Y-87097857D01*
X178146857Y-87121666D01*
X178361143Y-87407380D02*
X178313523Y-87431190D01*
X178194476Y-87431190D01*
X178146857Y-87407380D01*
X178123047Y-87359761D01*
X178123047Y-87312142D01*
X178146857Y-87264523D01*
X178194476Y-87240714D01*
X178313523Y-87240714D01*
X178361143Y-87216904D01*
X178551619Y-87097857D02*
X178670666Y-87431190D01*
X178789714Y-87097857D02*
X178670666Y-87431190D01*
X178623047Y-87550238D01*
X178599238Y-87574047D01*
X178551619Y-87597857D01*
X176480190Y-88019285D02*
X176646857Y-88019285D01*
X176718285Y-88281190D02*
X176480190Y-88281190D01*
X176480190Y-87781190D01*
X176718285Y-87781190D01*
X176932571Y-87947857D02*
X176932571Y-88281190D01*
X176932571Y-87995476D02*
X176956381Y-87971666D01*
X177004000Y-87947857D01*
X177075428Y-87947857D01*
X177123047Y-87971666D01*
X177146857Y-88019285D01*
X177146857Y-88281190D01*
X177599238Y-88281190D02*
X177599238Y-88019285D01*
X177575428Y-87971666D01*
X177527809Y-87947857D01*
X177432571Y-87947857D01*
X177384952Y-87971666D01*
X177599238Y-88257380D02*
X177551619Y-88281190D01*
X177432571Y-88281190D01*
X177384952Y-88257380D01*
X177361143Y-88209761D01*
X177361143Y-88162142D01*
X177384952Y-88114523D01*
X177432571Y-88090714D01*
X177551619Y-88090714D01*
X177599238Y-88066904D01*
X177837333Y-88281190D02*
X177837333Y-87781190D01*
X177837333Y-87971666D02*
X177884952Y-87947857D01*
X177980190Y-87947857D01*
X178027809Y-87971666D01*
X178051619Y-87995476D01*
X178075428Y-88043095D01*
X178075428Y-88185952D01*
X178051619Y-88233571D01*
X178027809Y-88257380D01*
X177980190Y-88281190D01*
X177884952Y-88281190D01*
X177837333Y-88257380D01*
X178361143Y-88281190D02*
X178313523Y-88257380D01*
X178289714Y-88209761D01*
X178289714Y-87781190D01*
X178742095Y-88257380D02*
X178694476Y-88281190D01*
X178599238Y-88281190D01*
X178551619Y-88257380D01*
X178527809Y-88209761D01*
X178527809Y-88019285D01*
X178551619Y-87971666D01*
X178599238Y-87947857D01*
X178694476Y-87947857D01*
X178742095Y-87971666D01*
X178765904Y-88019285D01*
X178765904Y-88066904D01*
X178527809Y-88114523D01*
X176289714Y-84891190D02*
X176289714Y-84391190D01*
X176408762Y-84391190D01*
X176480190Y-84415000D01*
X176527809Y-84462619D01*
X176551619Y-84510238D01*
X176575428Y-84605476D01*
X176575428Y-84676904D01*
X176551619Y-84772142D01*
X176527809Y-84819761D01*
X176480190Y-84867380D01*
X176408762Y-84891190D01*
X176289714Y-84891190D01*
X176789714Y-84891190D02*
X176789714Y-84557857D01*
X176789714Y-84391190D02*
X176765904Y-84415000D01*
X176789714Y-84438809D01*
X176813523Y-84415000D01*
X176789714Y-84391190D01*
X176789714Y-84438809D01*
X177004000Y-84867380D02*
X177051619Y-84891190D01*
X177146857Y-84891190D01*
X177194476Y-84867380D01*
X177218285Y-84819761D01*
X177218285Y-84795952D01*
X177194476Y-84748333D01*
X177146857Y-84724523D01*
X177075428Y-84724523D01*
X177027809Y-84700714D01*
X177004000Y-84653095D01*
X177004000Y-84629285D01*
X177027809Y-84581666D01*
X177075428Y-84557857D01*
X177146857Y-84557857D01*
X177194476Y-84581666D01*
X177432571Y-84557857D02*
X177432571Y-85057857D01*
X177432571Y-84581666D02*
X177480190Y-84557857D01*
X177575428Y-84557857D01*
X177623047Y-84581666D01*
X177646857Y-84605476D01*
X177670666Y-84653095D01*
X177670666Y-84795952D01*
X177646857Y-84843571D01*
X177623047Y-84867380D01*
X177575428Y-84891190D01*
X177480190Y-84891190D01*
X177432571Y-84867380D01*
X177956381Y-84891190D02*
X177908762Y-84867380D01*
X177884952Y-84819761D01*
X177884952Y-84391190D01*
X178361143Y-84891190D02*
X178361143Y-84629285D01*
X178337333Y-84581666D01*
X178289714Y-84557857D01*
X178194476Y-84557857D01*
X178146857Y-84581666D01*
X178361143Y-84867380D02*
X178313523Y-84891190D01*
X178194476Y-84891190D01*
X178146857Y-84867380D01*
X178123047Y-84819761D01*
X178123047Y-84772142D01*
X178146857Y-84724523D01*
X178194476Y-84700714D01*
X178313523Y-84700714D01*
X178361143Y-84676904D01*
X178551619Y-84557857D02*
X178670666Y-84891190D01*
X178789714Y-84557857D02*
X178670666Y-84891190D01*
X178623047Y-85010238D01*
X178599238Y-85034047D01*
X178551619Y-85057857D01*
X177813523Y-85241190D02*
X177908762Y-85241190D01*
X177956381Y-85265000D01*
X178004000Y-85312619D01*
X178027809Y-85407857D01*
X178027809Y-85574523D01*
X178004000Y-85669761D01*
X177956381Y-85717380D01*
X177908762Y-85741190D01*
X177813523Y-85741190D01*
X177765904Y-85717380D01*
X177718285Y-85669761D01*
X177694476Y-85574523D01*
X177694476Y-85407857D01*
X177718285Y-85312619D01*
X177765904Y-85265000D01*
X177813523Y-85241190D01*
X178456381Y-85407857D02*
X178456381Y-85741190D01*
X178242095Y-85407857D02*
X178242095Y-85669761D01*
X178265904Y-85717380D01*
X178313523Y-85741190D01*
X178384952Y-85741190D01*
X178432571Y-85717380D01*
X178456381Y-85693571D01*
X178623047Y-85407857D02*
X178813523Y-85407857D01*
X178694476Y-85241190D02*
X178694476Y-85669761D01*
X178718285Y-85717380D01*
X178765904Y-85741190D01*
X178813523Y-85741190D01*
X176447571Y-82764285D02*
X176419000Y-82792857D01*
X176333285Y-82821428D01*
X176276142Y-82821428D01*
X176190428Y-82792857D01*
X176133285Y-82735714D01*
X176104714Y-82678571D01*
X176076142Y-82564285D01*
X176076142Y-82478571D01*
X176104714Y-82364285D01*
X176133285Y-82307142D01*
X176190428Y-82250000D01*
X176276142Y-82221428D01*
X176333285Y-82221428D01*
X176419000Y-82250000D01*
X176447571Y-82278571D01*
X176676142Y-82792857D02*
X176761857Y-82821428D01*
X176904714Y-82821428D01*
X176961857Y-82792857D01*
X176990428Y-82764285D01*
X177019000Y-82707142D01*
X177019000Y-82650000D01*
X176990428Y-82592857D01*
X176961857Y-82564285D01*
X176904714Y-82535714D01*
X176790428Y-82507142D01*
X176733285Y-82478571D01*
X176704714Y-82450000D01*
X176676142Y-82392857D01*
X176676142Y-82335714D01*
X176704714Y-82278571D01*
X176733285Y-82250000D01*
X176790428Y-82221428D01*
X176933285Y-82221428D01*
X177019000Y-82250000D01*
X177390428Y-82535714D02*
X177390428Y-82821428D01*
X177190428Y-82221428D02*
X177390428Y-82535714D01*
X177590428Y-82221428D01*
X177790428Y-82821428D02*
X177790428Y-82221428D01*
X178133285Y-82821428D01*
X178133285Y-82221428D01*
X178761857Y-82764285D02*
X178733285Y-82792857D01*
X178647571Y-82821428D01*
X178590428Y-82821428D01*
X178504714Y-82792857D01*
X178447571Y-82735714D01*
X178419000Y-82678571D01*
X178390428Y-82564285D01*
X178390428Y-82478571D01*
X178419000Y-82364285D01*
X178447571Y-82307142D01*
X178504714Y-82250000D01*
X178590428Y-82221428D01*
X178647571Y-82221428D01*
X178733285Y-82250000D01*
X178761857Y-82278571D01*
X171740571Y-78630428D02*
X171740571Y-78030428D01*
X172083428Y-78630428D01*
X172083428Y-78030428D01*
X172712000Y-78573285D02*
X172683428Y-78601857D01*
X172597714Y-78630428D01*
X172540571Y-78630428D01*
X172454857Y-78601857D01*
X172397714Y-78544714D01*
X172369142Y-78487571D01*
X172340571Y-78373285D01*
X172340571Y-78287571D01*
X172369142Y-78173285D01*
X172397714Y-78116142D01*
X172454857Y-78059000D01*
X172540571Y-78030428D01*
X172597714Y-78030428D01*
X172683428Y-78059000D01*
X172712000Y-78087571D01*
X171373857Y-75900000D02*
X171316714Y-75871428D01*
X171231000Y-75871428D01*
X171145285Y-75900000D01*
X171088142Y-75957142D01*
X171059571Y-76014285D01*
X171031000Y-76128571D01*
X171031000Y-76214285D01*
X171059571Y-76328571D01*
X171088142Y-76385714D01*
X171145285Y-76442857D01*
X171231000Y-76471428D01*
X171288142Y-76471428D01*
X171373857Y-76442857D01*
X171402428Y-76414285D01*
X171402428Y-76214285D01*
X171288142Y-76214285D01*
X171659571Y-76471428D02*
X171659571Y-75871428D01*
X172002428Y-76471428D01*
X172002428Y-75871428D01*
X172288142Y-76471428D02*
X172288142Y-75871428D01*
X172431000Y-75871428D01*
X172516714Y-75900000D01*
X172573857Y-75957142D01*
X172602428Y-76014285D01*
X172631000Y-76128571D01*
X172631000Y-76214285D01*
X172602428Y-76328571D01*
X172573857Y-76385714D01*
X172516714Y-76442857D01*
X172431000Y-76471428D01*
X172288142Y-76471428D01*
X171373857Y-73360000D02*
X171316714Y-73331428D01*
X171231000Y-73331428D01*
X171145285Y-73360000D01*
X171088142Y-73417142D01*
X171059571Y-73474285D01*
X171031000Y-73588571D01*
X171031000Y-73674285D01*
X171059571Y-73788571D01*
X171088142Y-73845714D01*
X171145285Y-73902857D01*
X171231000Y-73931428D01*
X171288142Y-73931428D01*
X171373857Y-73902857D01*
X171402428Y-73874285D01*
X171402428Y-73674285D01*
X171288142Y-73674285D01*
X171659571Y-73931428D02*
X171659571Y-73331428D01*
X172002428Y-73931428D01*
X172002428Y-73331428D01*
X172288142Y-73931428D02*
X172288142Y-73331428D01*
X172431000Y-73331428D01*
X172516714Y-73360000D01*
X172573857Y-73417142D01*
X172602428Y-73474285D01*
X172631000Y-73588571D01*
X172631000Y-73674285D01*
X172602428Y-73788571D01*
X172573857Y-73845714D01*
X172516714Y-73902857D01*
X172431000Y-73931428D01*
X172288142Y-73931428D01*
X171059571Y-71797857D02*
X171516714Y-71797857D01*
X171288142Y-72026428D02*
X171288142Y-71569285D01*
X172088142Y-71426428D02*
X171802428Y-71426428D01*
X171773857Y-71712142D01*
X171802428Y-71683571D01*
X171859571Y-71655000D01*
X172002428Y-71655000D01*
X172059571Y-71683571D01*
X172088142Y-71712142D01*
X172116714Y-71769285D01*
X172116714Y-71912142D01*
X172088142Y-71969285D01*
X172059571Y-71997857D01*
X172002428Y-72026428D01*
X171859571Y-72026428D01*
X171802428Y-71997857D01*
X171773857Y-71969285D01*
X172288142Y-71426428D02*
X172488142Y-72026428D01*
X172688142Y-71426428D01*
X165430857Y-104155285D02*
X165430857Y-104691000D01*
X165395142Y-104798142D01*
X165323714Y-104869571D01*
X165216571Y-104905285D01*
X165145142Y-104905285D01*
X166109428Y-104405285D02*
X166109428Y-104905285D01*
X165788000Y-104405285D02*
X165788000Y-104798142D01*
X165823714Y-104869571D01*
X165895142Y-104905285D01*
X166002285Y-104905285D01*
X166073714Y-104869571D01*
X166109428Y-104833857D01*
X166466571Y-104905285D02*
X166466571Y-104405285D01*
X166466571Y-104476714D02*
X166502285Y-104441000D01*
X166573714Y-104405285D01*
X166680857Y-104405285D01*
X166752285Y-104441000D01*
X166788000Y-104512428D01*
X166788000Y-104905285D01*
X166788000Y-104512428D02*
X166823714Y-104441000D01*
X166895142Y-104405285D01*
X167002285Y-104405285D01*
X167073714Y-104441000D01*
X167109428Y-104512428D01*
X167109428Y-104905285D01*
X167466571Y-104405285D02*
X167466571Y-105155285D01*
X167466571Y-104441000D02*
X167538000Y-104405285D01*
X167680857Y-104405285D01*
X167752285Y-104441000D01*
X167788000Y-104476714D01*
X167823714Y-104548142D01*
X167823714Y-104762428D01*
X167788000Y-104833857D01*
X167752285Y-104869571D01*
X167680857Y-104905285D01*
X167538000Y-104905285D01*
X167466571Y-104869571D01*
X168430857Y-104869571D02*
X168359428Y-104905285D01*
X168216571Y-104905285D01*
X168145142Y-104869571D01*
X168109428Y-104798142D01*
X168109428Y-104512428D01*
X168145142Y-104441000D01*
X168216571Y-104405285D01*
X168359428Y-104405285D01*
X168430857Y-104441000D01*
X168466571Y-104512428D01*
X168466571Y-104583857D01*
X168109428Y-104655285D01*
X168788000Y-104905285D02*
X168788000Y-104405285D01*
X168788000Y-104548142D02*
X168823714Y-104476714D01*
X168859428Y-104441000D01*
X168930857Y-104405285D01*
X169002285Y-104405285D01*
X170038000Y-104155285D02*
X170038000Y-104691000D01*
X170002285Y-104798142D01*
X169930857Y-104869571D01*
X169823714Y-104905285D01*
X169752285Y-104905285D01*
X170395142Y-104905285D02*
X170395142Y-104155285D01*
X170680857Y-104155285D01*
X170752285Y-104191000D01*
X170788000Y-104226714D01*
X170823714Y-104298142D01*
X170823714Y-104405285D01*
X170788000Y-104476714D01*
X170752285Y-104512428D01*
X170680857Y-104548142D01*
X170395142Y-104548142D01*
X171538000Y-104905285D02*
X171109428Y-104905285D01*
X171323714Y-104905285D02*
X171323714Y-104155285D01*
X171252285Y-104262428D01*
X171180857Y-104333857D01*
X171109428Y-104369571D01*
X165680857Y-105630285D02*
X165966571Y-105630285D01*
X165788000Y-106130285D02*
X165788000Y-105487428D01*
X165823714Y-105416000D01*
X165895142Y-105380285D01*
X165966571Y-105380285D01*
X166323714Y-106130285D02*
X166252285Y-106094571D01*
X166216571Y-106058857D01*
X166180857Y-105987428D01*
X166180857Y-105773142D01*
X166216571Y-105701714D01*
X166252285Y-105666000D01*
X166323714Y-105630285D01*
X166430857Y-105630285D01*
X166502285Y-105666000D01*
X166538000Y-105701714D01*
X166573714Y-105773142D01*
X166573714Y-105987428D01*
X166538000Y-106058857D01*
X166502285Y-106094571D01*
X166430857Y-106130285D01*
X166323714Y-106130285D01*
X166895142Y-106130285D02*
X166895142Y-105630285D01*
X166895142Y-105773142D02*
X166930857Y-105701714D01*
X166966571Y-105666000D01*
X167038000Y-105630285D01*
X167109428Y-105630285D01*
X167930857Y-105844571D02*
X168502285Y-105844571D01*
X168216571Y-106130285D02*
X168216571Y-105558857D01*
X169216571Y-105380285D02*
X168859428Y-105380285D01*
X168823714Y-105737428D01*
X168859428Y-105701714D01*
X168930857Y-105666000D01*
X169109428Y-105666000D01*
X169180857Y-105701714D01*
X169216571Y-105737428D01*
X169252285Y-105808857D01*
X169252285Y-105987428D01*
X169216571Y-106058857D01*
X169180857Y-106094571D01*
X169109428Y-106130285D01*
X168930857Y-106130285D01*
X168859428Y-106094571D01*
X168823714Y-106058857D01*
X169466571Y-105380285D02*
X169716571Y-106130285D01*
X169966571Y-105380285D01*
X165109428Y-106855285D02*
X165395142Y-106855285D01*
X165216571Y-107355285D02*
X165216571Y-106712428D01*
X165252285Y-106641000D01*
X165323714Y-106605285D01*
X165395142Y-106605285D01*
X165645142Y-107355285D02*
X165645142Y-106855285D01*
X165645142Y-106998142D02*
X165680857Y-106926714D01*
X165716571Y-106891000D01*
X165788000Y-106855285D01*
X165859428Y-106855285D01*
X166216571Y-107355285D02*
X166145142Y-107319571D01*
X166109428Y-107283857D01*
X166073714Y-107212428D01*
X166073714Y-106998142D01*
X166109428Y-106926714D01*
X166145142Y-106891000D01*
X166216571Y-106855285D01*
X166323714Y-106855285D01*
X166395142Y-106891000D01*
X166430857Y-106926714D01*
X166466571Y-106998142D01*
X166466571Y-107212428D01*
X166430857Y-107283857D01*
X166395142Y-107319571D01*
X166323714Y-107355285D01*
X166216571Y-107355285D01*
X166788000Y-107355285D02*
X166788000Y-106855285D01*
X166788000Y-106926714D02*
X166823714Y-106891000D01*
X166895142Y-106855285D01*
X167002285Y-106855285D01*
X167073714Y-106891000D01*
X167109428Y-106962428D01*
X167109428Y-107355285D01*
X167109428Y-106962428D02*
X167145142Y-106891000D01*
X167216571Y-106855285D01*
X167323714Y-106855285D01*
X167395142Y-106891000D01*
X167430857Y-106962428D01*
X167430857Y-107355285D01*
X168609428Y-106962428D02*
X168359428Y-106962428D01*
X168359428Y-107355285D02*
X168359428Y-106605285D01*
X168716571Y-106605285D01*
X169252285Y-106962428D02*
X169002285Y-106962428D01*
X169002285Y-107355285D02*
X169002285Y-106605285D01*
X169359428Y-106605285D01*
X170073714Y-107283857D02*
X170038000Y-107319571D01*
X169930857Y-107355285D01*
X169859428Y-107355285D01*
X169752285Y-107319571D01*
X169680857Y-107248142D01*
X169645142Y-107176714D01*
X169609428Y-107033857D01*
X169609428Y-106926714D01*
X169645142Y-106783857D01*
X169680857Y-106712428D01*
X169752285Y-106641000D01*
X169859428Y-106605285D01*
X169930857Y-106605285D01*
X170038000Y-106641000D01*
X170073714Y-106676714D01*
X177963571Y-102827142D02*
X178049285Y-102855714D01*
X178077857Y-102884285D01*
X178106428Y-102941428D01*
X178106428Y-103027142D01*
X178077857Y-103084285D01*
X178049285Y-103112857D01*
X177992142Y-103141428D01*
X177763571Y-103141428D01*
X177763571Y-102541428D01*
X177963571Y-102541428D01*
X178020714Y-102570000D01*
X178049285Y-102598571D01*
X178077857Y-102655714D01*
X178077857Y-102712857D01*
X178049285Y-102770000D01*
X178020714Y-102798571D01*
X177963571Y-102827142D01*
X177763571Y-102827142D01*
X178277857Y-102541428D02*
X178620714Y-102541428D01*
X178449285Y-103141428D02*
X178449285Y-102541428D01*
X178763571Y-102541428D02*
X179135000Y-102541428D01*
X178935000Y-102770000D01*
X179020714Y-102770000D01*
X179077857Y-102798571D01*
X179106428Y-102827142D01*
X179135000Y-102884285D01*
X179135000Y-103027142D01*
X179106428Y-103084285D01*
X179077857Y-103112857D01*
X179020714Y-103141428D01*
X178849285Y-103141428D01*
X178792142Y-103112857D01*
X178763571Y-103084285D01*
X177963571Y-100287142D02*
X178049285Y-100315714D01*
X178077857Y-100344285D01*
X178106428Y-100401428D01*
X178106428Y-100487142D01*
X178077857Y-100544285D01*
X178049285Y-100572857D01*
X177992142Y-100601428D01*
X177763571Y-100601428D01*
X177763571Y-100001428D01*
X177963571Y-100001428D01*
X178020714Y-100030000D01*
X178049285Y-100058571D01*
X178077857Y-100115714D01*
X178077857Y-100172857D01*
X178049285Y-100230000D01*
X178020714Y-100258571D01*
X177963571Y-100287142D01*
X177763571Y-100287142D01*
X178277857Y-100001428D02*
X178620714Y-100001428D01*
X178449285Y-100601428D02*
X178449285Y-100001428D01*
X178792142Y-100058571D02*
X178820714Y-100030000D01*
X178877857Y-100001428D01*
X179020714Y-100001428D01*
X179077857Y-100030000D01*
X179106428Y-100058571D01*
X179135000Y-100115714D01*
X179135000Y-100172857D01*
X179106428Y-100258571D01*
X178763571Y-100601428D01*
X179135000Y-100601428D01*
X177963571Y-97747142D02*
X178049285Y-97775714D01*
X178077857Y-97804285D01*
X178106428Y-97861428D01*
X178106428Y-97947142D01*
X178077857Y-98004285D01*
X178049285Y-98032857D01*
X177992142Y-98061428D01*
X177763571Y-98061428D01*
X177763571Y-97461428D01*
X177963571Y-97461428D01*
X178020714Y-97490000D01*
X178049285Y-97518571D01*
X178077857Y-97575714D01*
X178077857Y-97632857D01*
X178049285Y-97690000D01*
X178020714Y-97718571D01*
X177963571Y-97747142D01*
X177763571Y-97747142D01*
X178277857Y-97461428D02*
X178620714Y-97461428D01*
X178449285Y-98061428D02*
X178449285Y-97461428D01*
X179135000Y-98061428D02*
X178792142Y-98061428D01*
X178963571Y-98061428D02*
X178963571Y-97461428D01*
X178906428Y-97547142D01*
X178849285Y-97604285D01*
X178792142Y-97632857D01*
X107549476Y-70538619D02*
X107322809Y-70214809D01*
X107160904Y-70538619D02*
X107160904Y-69858619D01*
X107419952Y-69858619D01*
X107484714Y-69891000D01*
X107517095Y-69923380D01*
X107549476Y-69988142D01*
X107549476Y-70085285D01*
X107517095Y-70150047D01*
X107484714Y-70182428D01*
X107419952Y-70214809D01*
X107160904Y-70214809D01*
X108197095Y-69891000D02*
X108132333Y-69858619D01*
X108035190Y-69858619D01*
X107938047Y-69891000D01*
X107873285Y-69955761D01*
X107840904Y-70020523D01*
X107808523Y-70150047D01*
X107808523Y-70247190D01*
X107840904Y-70376714D01*
X107873285Y-70441476D01*
X107938047Y-70506238D01*
X108035190Y-70538619D01*
X108099952Y-70538619D01*
X108197095Y-70506238D01*
X108229476Y-70473857D01*
X108229476Y-70247190D01*
X108099952Y-70247190D01*
X108747571Y-70182428D02*
X108844714Y-70214809D01*
X108877095Y-70247190D01*
X108909476Y-70311952D01*
X108909476Y-70409095D01*
X108877095Y-70473857D01*
X108844714Y-70506238D01*
X108779952Y-70538619D01*
X108520904Y-70538619D01*
X108520904Y-69858619D01*
X108747571Y-69858619D01*
X108812333Y-69891000D01*
X108844714Y-69923380D01*
X108877095Y-69988142D01*
X108877095Y-70052904D01*
X108844714Y-70117666D01*
X108812333Y-70150047D01*
X108747571Y-70182428D01*
X108520904Y-70182428D01*
X109103761Y-70085285D02*
X109362809Y-70085285D01*
X109200904Y-69858619D02*
X109200904Y-70441476D01*
X109233285Y-70506238D01*
X109298047Y-70538619D01*
X109362809Y-70538619D01*
X109686619Y-70538619D02*
X109621857Y-70506238D01*
X109589476Y-70473857D01*
X109557095Y-70409095D01*
X109557095Y-70214809D01*
X109589476Y-70150047D01*
X109621857Y-70117666D01*
X109686619Y-70085285D01*
X109783761Y-70085285D01*
X109848523Y-70117666D01*
X109880904Y-70150047D01*
X109913285Y-70214809D01*
X109913285Y-70409095D01*
X109880904Y-70473857D01*
X109848523Y-70506238D01*
X109783761Y-70538619D01*
X109686619Y-70538619D01*
X110204714Y-70538619D02*
X110204714Y-69858619D01*
X110204714Y-70182428D02*
X110593285Y-70182428D01*
X110593285Y-70538619D02*
X110593285Y-69858619D01*
X110917095Y-70538619D02*
X110917095Y-69858619D01*
X111079000Y-69858619D01*
X111176142Y-69891000D01*
X111240904Y-69955761D01*
X111273285Y-70020523D01*
X111305666Y-70150047D01*
X111305666Y-70247190D01*
X111273285Y-70376714D01*
X111240904Y-70441476D01*
X111176142Y-70506238D01*
X111079000Y-70538619D01*
X110917095Y-70538619D01*
X111597095Y-70538619D02*
X111597095Y-69858619D01*
X111823761Y-70344333D01*
X112050428Y-69858619D01*
X112050428Y-70538619D01*
X112374238Y-70538619D02*
X112374238Y-69858619D01*
X113183761Y-70344333D02*
X113507571Y-70344333D01*
X113119000Y-70538619D02*
X113345666Y-69858619D01*
X113572333Y-70538619D01*
X113799000Y-70538619D02*
X113799000Y-70085285D01*
X113799000Y-70150047D02*
X113831380Y-70117666D01*
X113896142Y-70085285D01*
X113993285Y-70085285D01*
X114058047Y-70117666D01*
X114090428Y-70182428D01*
X114090428Y-70538619D01*
X114090428Y-70182428D02*
X114122809Y-70117666D01*
X114187571Y-70085285D01*
X114284714Y-70085285D01*
X114349476Y-70117666D01*
X114381857Y-70182428D01*
X114381857Y-70538619D01*
X114705666Y-70538619D02*
X114705666Y-70085285D01*
X114705666Y-69858619D02*
X114673285Y-69891000D01*
X114705666Y-69923380D01*
X114738047Y-69891000D01*
X114705666Y-69858619D01*
X114705666Y-69923380D01*
X115320904Y-70085285D02*
X115320904Y-70635761D01*
X115288523Y-70700523D01*
X115256142Y-70732904D01*
X115191380Y-70765285D01*
X115094238Y-70765285D01*
X115029476Y-70732904D01*
X115320904Y-70506238D02*
X115256142Y-70538619D01*
X115126619Y-70538619D01*
X115061857Y-70506238D01*
X115029476Y-70473857D01*
X114997095Y-70409095D01*
X114997095Y-70214809D01*
X115029476Y-70150047D01*
X115061857Y-70117666D01*
X115126619Y-70085285D01*
X115256142Y-70085285D01*
X115320904Y-70117666D01*
X115936142Y-70538619D02*
X115936142Y-70182428D01*
X115903761Y-70117666D01*
X115839000Y-70085285D01*
X115709476Y-70085285D01*
X115644714Y-70117666D01*
X115936142Y-70506238D02*
X115871380Y-70538619D01*
X115709476Y-70538619D01*
X115644714Y-70506238D01*
X115612333Y-70441476D01*
X115612333Y-70376714D01*
X115644714Y-70311952D01*
X115709476Y-70279571D01*
X115871380Y-70279571D01*
X115936142Y-70247190D01*
X116778047Y-70538619D02*
X116778047Y-69858619D01*
X116939952Y-69858619D01*
X117037095Y-69891000D01*
X117101857Y-69955761D01*
X117134238Y-70020523D01*
X117166619Y-70150047D01*
X117166619Y-70247190D01*
X117134238Y-70376714D01*
X117101857Y-70441476D01*
X117037095Y-70506238D01*
X116939952Y-70538619D01*
X116778047Y-70538619D01*
X117717095Y-70506238D02*
X117652333Y-70538619D01*
X117522809Y-70538619D01*
X117458047Y-70506238D01*
X117425666Y-70441476D01*
X117425666Y-70182428D01*
X117458047Y-70117666D01*
X117522809Y-70085285D01*
X117652333Y-70085285D01*
X117717095Y-70117666D01*
X117749476Y-70182428D01*
X117749476Y-70247190D01*
X117425666Y-70311952D01*
X118040904Y-70085285D02*
X118040904Y-70538619D01*
X118040904Y-70150047D02*
X118073285Y-70117666D01*
X118138047Y-70085285D01*
X118235190Y-70085285D01*
X118299952Y-70117666D01*
X118332333Y-70182428D01*
X118332333Y-70538619D01*
X118656142Y-70538619D02*
X118656142Y-70085285D01*
X118656142Y-69858619D02*
X118623761Y-69891000D01*
X118656142Y-69923380D01*
X118688523Y-69891000D01*
X118656142Y-69858619D01*
X118656142Y-69923380D01*
X118947571Y-70506238D02*
X119012333Y-70538619D01*
X119141857Y-70538619D01*
X119206619Y-70506238D01*
X119239000Y-70441476D01*
X119239000Y-70409095D01*
X119206619Y-70344333D01*
X119141857Y-70311952D01*
X119044714Y-70311952D01*
X118979952Y-70279571D01*
X118947571Y-70214809D01*
X118947571Y-70182428D01*
X118979952Y-70117666D01*
X119044714Y-70085285D01*
X119141857Y-70085285D01*
X119206619Y-70117666D01*
X119789476Y-70506238D02*
X119724714Y-70538619D01*
X119595190Y-70538619D01*
X119530428Y-70506238D01*
X119498047Y-70441476D01*
X119498047Y-70182428D01*
X119530428Y-70117666D01*
X119595190Y-70085285D01*
X119724714Y-70085285D01*
X119789476Y-70117666D01*
X119821857Y-70182428D01*
X119821857Y-70247190D01*
X119498047Y-70311952D01*
X121019952Y-70473857D02*
X120987571Y-70506238D01*
X120890428Y-70538619D01*
X120825666Y-70538619D01*
X120728523Y-70506238D01*
X120663761Y-70441476D01*
X120631380Y-70376714D01*
X120599000Y-70247190D01*
X120599000Y-70150047D01*
X120631380Y-70020523D01*
X120663761Y-69955761D01*
X120728523Y-69891000D01*
X120825666Y-69858619D01*
X120890428Y-69858619D01*
X120987571Y-69891000D01*
X121019952Y-69923380D01*
X121311380Y-70538619D02*
X121311380Y-69858619D01*
X121570428Y-69858619D01*
X121635190Y-69891000D01*
X121667571Y-69923380D01*
X121699952Y-69988142D01*
X121699952Y-70085285D01*
X121667571Y-70150047D01*
X121635190Y-70182428D01*
X121570428Y-70214809D01*
X121311380Y-70214809D01*
X122315190Y-70538619D02*
X121991380Y-70538619D01*
X121991380Y-69858619D01*
X122541857Y-70538619D02*
X122541857Y-69858619D01*
X122703761Y-69858619D01*
X122800904Y-69891000D01*
X122865666Y-69955761D01*
X122898047Y-70020523D01*
X122930428Y-70150047D01*
X122930428Y-70247190D01*
X122898047Y-70376714D01*
X122865666Y-70441476D01*
X122800904Y-70506238D01*
X122703761Y-70538619D01*
X122541857Y-70538619D01*
X123966619Y-70182428D02*
X123739952Y-70182428D01*
X123739952Y-70538619D02*
X123739952Y-69858619D01*
X124063761Y-69858619D01*
X124549476Y-70182428D02*
X124322809Y-70182428D01*
X124322809Y-70538619D02*
X124322809Y-69858619D01*
X124646619Y-69858619D01*
X125294238Y-70473857D02*
X125261857Y-70506238D01*
X125164714Y-70538619D01*
X125099952Y-70538619D01*
X125002809Y-70506238D01*
X124938047Y-70441476D01*
X124905666Y-70376714D01*
X124873285Y-70247190D01*
X124873285Y-70150047D01*
X124905666Y-70020523D01*
X124938047Y-69955761D01*
X125002809Y-69891000D01*
X125099952Y-69858619D01*
X125164714Y-69858619D01*
X125261857Y-69891000D01*
X125294238Y-69923380D01*
X126492333Y-70538619D02*
X126265666Y-70214809D01*
X126103761Y-70538619D02*
X126103761Y-69858619D01*
X126362809Y-69858619D01*
X126427571Y-69891000D01*
X126459952Y-69923380D01*
X126492333Y-69988142D01*
X126492333Y-70085285D01*
X126459952Y-70150047D01*
X126427571Y-70182428D01*
X126362809Y-70214809D01*
X126103761Y-70214809D01*
X127042809Y-70506238D02*
X126978047Y-70538619D01*
X126848523Y-70538619D01*
X126783761Y-70506238D01*
X126751380Y-70441476D01*
X126751380Y-70182428D01*
X126783761Y-70117666D01*
X126848523Y-70085285D01*
X126978047Y-70085285D01*
X127042809Y-70117666D01*
X127075190Y-70182428D01*
X127075190Y-70247190D01*
X126751380Y-70311952D01*
X127301857Y-70085285D02*
X127463761Y-70538619D01*
X127625666Y-70085285D01*
X128759000Y-70538619D02*
X128370428Y-70538619D01*
X128564714Y-70538619D02*
X128564714Y-69858619D01*
X128499952Y-69955761D01*
X128435190Y-70020523D01*
X128370428Y-70052904D01*
X129050428Y-70473857D02*
X129082809Y-70506238D01*
X129050428Y-70538619D01*
X129018047Y-70506238D01*
X129050428Y-70473857D01*
X129050428Y-70538619D01*
X129730428Y-70538619D02*
X129341857Y-70538619D01*
X129536142Y-70538619D02*
X129536142Y-69858619D01*
X129471380Y-69955761D01*
X129406619Y-70020523D01*
X129341857Y-70052904D01*
X130701857Y-70765285D02*
X130701857Y-69793857D01*
X131705666Y-70538619D02*
X131705666Y-69858619D01*
X131964714Y-69858619D01*
X132029476Y-69891000D01*
X132061857Y-69923380D01*
X132094238Y-69988142D01*
X132094238Y-70085285D01*
X132061857Y-70150047D01*
X132029476Y-70182428D01*
X131964714Y-70214809D01*
X131705666Y-70214809D01*
X132774238Y-70473857D02*
X132741857Y-70506238D01*
X132644714Y-70538619D01*
X132579952Y-70538619D01*
X132482809Y-70506238D01*
X132418047Y-70441476D01*
X132385666Y-70376714D01*
X132353285Y-70247190D01*
X132353285Y-70150047D01*
X132385666Y-70020523D01*
X132418047Y-69955761D01*
X132482809Y-69891000D01*
X132579952Y-69858619D01*
X132644714Y-69858619D01*
X132741857Y-69891000D01*
X132774238Y-69923380D01*
X133292333Y-70182428D02*
X133389476Y-70214809D01*
X133421857Y-70247190D01*
X133454238Y-70311952D01*
X133454238Y-70409095D01*
X133421857Y-70473857D01*
X133389476Y-70506238D01*
X133324714Y-70538619D01*
X133065666Y-70538619D01*
X133065666Y-69858619D01*
X133292333Y-69858619D01*
X133357095Y-69891000D01*
X133389476Y-69923380D01*
X133421857Y-69988142D01*
X133421857Y-70052904D01*
X133389476Y-70117666D01*
X133357095Y-70150047D01*
X133292333Y-70182428D01*
X133065666Y-70182428D01*
X134263761Y-70538619D02*
X134263761Y-69858619D01*
X134263761Y-70117666D02*
X134328523Y-70085285D01*
X134458047Y-70085285D01*
X134522809Y-70117666D01*
X134555190Y-70150047D01*
X134587571Y-70214809D01*
X134587571Y-70409095D01*
X134555190Y-70473857D01*
X134522809Y-70506238D01*
X134458047Y-70538619D01*
X134328523Y-70538619D01*
X134263761Y-70506238D01*
X134814238Y-70085285D02*
X134976142Y-70538619D01*
X135138047Y-70085285D02*
X134976142Y-70538619D01*
X134911380Y-70700523D01*
X134879000Y-70732904D01*
X134814238Y-70765285D01*
X135882809Y-70506238D02*
X135947571Y-70538619D01*
X136077095Y-70538619D01*
X136141857Y-70506238D01*
X136174238Y-70441476D01*
X136174238Y-70409095D01*
X136141857Y-70344333D01*
X136077095Y-70311952D01*
X135979952Y-70311952D01*
X135915190Y-70279571D01*
X135882809Y-70214809D01*
X135882809Y-70182428D01*
X135915190Y-70117666D01*
X135979952Y-70085285D01*
X136077095Y-70085285D01*
X136141857Y-70117666D01*
X136562809Y-70538619D02*
X136498047Y-70506238D01*
X136465666Y-70473857D01*
X136433285Y-70409095D01*
X136433285Y-70214809D01*
X136465666Y-70150047D01*
X136498047Y-70117666D01*
X136562809Y-70085285D01*
X136659952Y-70085285D01*
X136724714Y-70117666D01*
X136757095Y-70150047D01*
X136789476Y-70214809D01*
X136789476Y-70409095D01*
X136757095Y-70473857D01*
X136724714Y-70506238D01*
X136659952Y-70538619D01*
X136562809Y-70538619D01*
X137178047Y-70538619D02*
X137113285Y-70506238D01*
X137080904Y-70441476D01*
X137080904Y-69858619D01*
X137728523Y-70538619D02*
X137728523Y-70182428D01*
X137696142Y-70117666D01*
X137631380Y-70085285D01*
X137501857Y-70085285D01*
X137437095Y-70117666D01*
X137728523Y-70506238D02*
X137663761Y-70538619D01*
X137501857Y-70538619D01*
X137437095Y-70506238D01*
X137404714Y-70441476D01*
X137404714Y-70376714D01*
X137437095Y-70311952D01*
X137501857Y-70279571D01*
X137663761Y-70279571D01*
X137728523Y-70247190D01*
X138052333Y-70538619D02*
X138052333Y-70085285D01*
X138052333Y-70214809D02*
X138084714Y-70150047D01*
X138117095Y-70117666D01*
X138181857Y-70085285D01*
X138246619Y-70085285D01*
X138473285Y-70538619D02*
X138473285Y-70085285D01*
X138473285Y-70150047D02*
X138505666Y-70117666D01*
X138570428Y-70085285D01*
X138667571Y-70085285D01*
X138732333Y-70117666D01*
X138764714Y-70182428D01*
X138764714Y-70538619D01*
X138764714Y-70182428D02*
X138797095Y-70117666D01*
X138861857Y-70085285D01*
X138959000Y-70085285D01*
X139023761Y-70117666D01*
X139056142Y-70182428D01*
X139056142Y-70538619D01*
X139477095Y-70538619D02*
X139412333Y-70506238D01*
X139379952Y-70473857D01*
X139347571Y-70409095D01*
X139347571Y-70214809D01*
X139379952Y-70150047D01*
X139412333Y-70117666D01*
X139477095Y-70085285D01*
X139574238Y-70085285D01*
X139639000Y-70117666D01*
X139671380Y-70150047D01*
X139703761Y-70214809D01*
X139703761Y-70409095D01*
X139671380Y-70473857D01*
X139639000Y-70506238D01*
X139574238Y-70538619D01*
X139477095Y-70538619D01*
X139995190Y-70085285D02*
X139995190Y-70538619D01*
X139995190Y-70150047D02*
X140027571Y-70117666D01*
X140092333Y-70085285D01*
X140189476Y-70085285D01*
X140254238Y-70117666D01*
X140286619Y-70182428D01*
X140286619Y-70538619D01*
X141290428Y-70765285D02*
X141290428Y-69793857D01*
X142520904Y-70182428D02*
X142618047Y-70214809D01*
X142650428Y-70247190D01*
X142682809Y-70311952D01*
X142682809Y-70409095D01*
X142650428Y-70473857D01*
X142618047Y-70506238D01*
X142553285Y-70538619D01*
X142294238Y-70538619D01*
X142294238Y-69858619D01*
X142520904Y-69858619D01*
X142585666Y-69891000D01*
X142618047Y-69923380D01*
X142650428Y-69988142D01*
X142650428Y-70052904D01*
X142618047Y-70117666D01*
X142585666Y-70150047D01*
X142520904Y-70182428D01*
X142294238Y-70182428D01*
X143265666Y-70538619D02*
X143265666Y-70182428D01*
X143233285Y-70117666D01*
X143168523Y-70085285D01*
X143039000Y-70085285D01*
X142974238Y-70117666D01*
X143265666Y-70506238D02*
X143200904Y-70538619D01*
X143039000Y-70538619D01*
X142974238Y-70506238D01*
X142941857Y-70441476D01*
X142941857Y-70376714D01*
X142974238Y-70311952D01*
X143039000Y-70279571D01*
X143200904Y-70279571D01*
X143265666Y-70247190D01*
X143557095Y-70506238D02*
X143621857Y-70538619D01*
X143751380Y-70538619D01*
X143816142Y-70506238D01*
X143848523Y-70441476D01*
X143848523Y-70409095D01*
X143816142Y-70344333D01*
X143751380Y-70311952D01*
X143654238Y-70311952D01*
X143589476Y-70279571D01*
X143557095Y-70214809D01*
X143557095Y-70182428D01*
X143589476Y-70117666D01*
X143654238Y-70085285D01*
X143751380Y-70085285D01*
X143816142Y-70117666D01*
X144399000Y-70506238D02*
X144334238Y-70538619D01*
X144204714Y-70538619D01*
X144139952Y-70506238D01*
X144107571Y-70441476D01*
X144107571Y-70182428D01*
X144139952Y-70117666D01*
X144204714Y-70085285D01*
X144334238Y-70085285D01*
X144399000Y-70117666D01*
X144431380Y-70182428D01*
X144431380Y-70247190D01*
X144107571Y-70311952D01*
X145014238Y-70538619D02*
X145014238Y-69858619D01*
X145014238Y-70506238D02*
X144949476Y-70538619D01*
X144819952Y-70538619D01*
X144755190Y-70506238D01*
X144722809Y-70473857D01*
X144690428Y-70409095D01*
X144690428Y-70214809D01*
X144722809Y-70150047D01*
X144755190Y-70117666D01*
X144819952Y-70085285D01*
X144949476Y-70085285D01*
X145014238Y-70117666D01*
X145953285Y-70538619D02*
X145888523Y-70506238D01*
X145856142Y-70473857D01*
X145823761Y-70409095D01*
X145823761Y-70214809D01*
X145856142Y-70150047D01*
X145888523Y-70117666D01*
X145953285Y-70085285D01*
X146050428Y-70085285D01*
X146115190Y-70117666D01*
X146147571Y-70150047D01*
X146179952Y-70214809D01*
X146179952Y-70409095D01*
X146147571Y-70473857D01*
X146115190Y-70506238D01*
X146050428Y-70538619D01*
X145953285Y-70538619D01*
X146471380Y-70085285D02*
X146471380Y-70538619D01*
X146471380Y-70150047D02*
X146503761Y-70117666D01*
X146568523Y-70085285D01*
X146665666Y-70085285D01*
X146730428Y-70117666D01*
X146762809Y-70182428D01*
X146762809Y-70538619D01*
X147539952Y-70085285D02*
X147669476Y-70538619D01*
X147799000Y-70214809D01*
X147928523Y-70538619D01*
X148058047Y-70085285D01*
X148414238Y-70538619D02*
X148349476Y-70506238D01*
X148317095Y-70473857D01*
X148284714Y-70409095D01*
X148284714Y-70214809D01*
X148317095Y-70150047D01*
X148349476Y-70117666D01*
X148414238Y-70085285D01*
X148511380Y-70085285D01*
X148576142Y-70117666D01*
X148608523Y-70150047D01*
X148640904Y-70214809D01*
X148640904Y-70409095D01*
X148608523Y-70473857D01*
X148576142Y-70506238D01*
X148511380Y-70538619D01*
X148414238Y-70538619D01*
X148932333Y-70538619D02*
X148932333Y-70085285D01*
X148932333Y-70214809D02*
X148964714Y-70150047D01*
X148997095Y-70117666D01*
X149061857Y-70085285D01*
X149126619Y-70085285D01*
X149353285Y-70538619D02*
X149353285Y-69858619D01*
X149418047Y-70279571D02*
X149612333Y-70538619D01*
X149612333Y-70085285D02*
X149353285Y-70344333D01*
X150421857Y-70538619D02*
X150421857Y-69858619D01*
X150421857Y-70117666D02*
X150486619Y-70085285D01*
X150616142Y-70085285D01*
X150680904Y-70117666D01*
X150713285Y-70150047D01*
X150745666Y-70214809D01*
X150745666Y-70409095D01*
X150713285Y-70473857D01*
X150680904Y-70506238D01*
X150616142Y-70538619D01*
X150486619Y-70538619D01*
X150421857Y-70506238D01*
X150972333Y-70085285D02*
X151134238Y-70538619D01*
X151296142Y-70085285D02*
X151134238Y-70538619D01*
X151069476Y-70700523D01*
X151037095Y-70732904D01*
X150972333Y-70765285D01*
X152397095Y-70538619D02*
X152073285Y-70538619D01*
X152073285Y-69858619D01*
X152623761Y-70538619D02*
X152623761Y-70085285D01*
X152623761Y-69858619D02*
X152591380Y-69891000D01*
X152623761Y-69923380D01*
X152656142Y-69891000D01*
X152623761Y-69858619D01*
X152623761Y-69923380D01*
X152947571Y-70085285D02*
X152947571Y-70538619D01*
X152947571Y-70150047D02*
X152979952Y-70117666D01*
X153044714Y-70085285D01*
X153141857Y-70085285D01*
X153206619Y-70117666D01*
X153239000Y-70182428D01*
X153239000Y-70538619D01*
X153854238Y-70085285D02*
X153854238Y-70538619D01*
X153562809Y-70085285D02*
X153562809Y-70441476D01*
X153595190Y-70506238D01*
X153659952Y-70538619D01*
X153757095Y-70538619D01*
X153821857Y-70506238D01*
X153854238Y-70473857D01*
X154113285Y-70538619D02*
X154469476Y-70085285D01*
X154113285Y-70085285D02*
X154469476Y-70538619D01*
X154922809Y-69858619D02*
X154922809Y-70344333D01*
X154890428Y-70441476D01*
X154825666Y-70506238D01*
X154728523Y-70538619D01*
X154663761Y-70538619D01*
X155505666Y-70506238D02*
X155440904Y-70538619D01*
X155311380Y-70538619D01*
X155246619Y-70506238D01*
X155214238Y-70441476D01*
X155214238Y-70182428D01*
X155246619Y-70117666D01*
X155311380Y-70085285D01*
X155440904Y-70085285D01*
X155505666Y-70117666D01*
X155538047Y-70182428D01*
X155538047Y-70247190D01*
X155214238Y-70311952D01*
X156120904Y-70538619D02*
X156120904Y-69858619D01*
X156120904Y-70506238D02*
X156056142Y-70538619D01*
X155926619Y-70538619D01*
X155861857Y-70506238D01*
X155829476Y-70473857D01*
X155797095Y-70409095D01*
X155797095Y-70214809D01*
X155829476Y-70150047D01*
X155861857Y-70117666D01*
X155926619Y-70085285D01*
X156056142Y-70085285D01*
X156120904Y-70117666D01*
X156444714Y-70538619D02*
X156444714Y-70085285D01*
X156444714Y-69858619D02*
X156412333Y-69891000D01*
X156444714Y-69923380D01*
X156477095Y-69891000D01*
X156444714Y-69858619D01*
X156444714Y-69923380D01*
X156800904Y-70506238D02*
X156800904Y-70538619D01*
X156768523Y-70603380D01*
X156736142Y-70635761D01*
X157610428Y-70538619D02*
X157610428Y-69858619D01*
X158225666Y-70538619D02*
X158225666Y-70182428D01*
X158193285Y-70117666D01*
X158128523Y-70085285D01*
X157999000Y-70085285D01*
X157934238Y-70117666D01*
X158225666Y-70506238D02*
X158160904Y-70538619D01*
X157999000Y-70538619D01*
X157934238Y-70506238D01*
X157901857Y-70441476D01*
X157901857Y-70376714D01*
X157934238Y-70311952D01*
X157999000Y-70279571D01*
X158160904Y-70279571D01*
X158225666Y-70247190D01*
X158549476Y-70085285D02*
X158549476Y-70538619D01*
X158549476Y-70150047D02*
X158581857Y-70117666D01*
X158646619Y-70085285D01*
X158743761Y-70085285D01*
X158808523Y-70117666D01*
X158840904Y-70182428D01*
X158840904Y-70538619D01*
X159132333Y-70506238D02*
X159229476Y-70538619D01*
X159391380Y-70538619D01*
X159456142Y-70506238D01*
X159488523Y-70473857D01*
X159520904Y-70409095D01*
X159520904Y-70344333D01*
X159488523Y-70279571D01*
X159456142Y-70247190D01*
X159391380Y-70214809D01*
X159261857Y-70182428D01*
X159197095Y-70150047D01*
X159164714Y-70117666D01*
X159132333Y-70052904D01*
X159132333Y-69988142D01*
X159164714Y-69923380D01*
X159197095Y-69891000D01*
X159261857Y-69858619D01*
X159423761Y-69858619D01*
X159520904Y-69891000D01*
X160039000Y-70182428D02*
X160136142Y-70214809D01*
X160168523Y-70247190D01*
X160200904Y-70311952D01*
X160200904Y-70409095D01*
X160168523Y-70473857D01*
X160136142Y-70506238D01*
X160071380Y-70538619D01*
X159812333Y-70538619D01*
X159812333Y-69858619D01*
X160039000Y-69858619D01*
X160103761Y-69891000D01*
X160136142Y-69923380D01*
X160168523Y-69988142D01*
X160168523Y-70052904D01*
X160136142Y-70117666D01*
X160103761Y-70150047D01*
X160039000Y-70182428D01*
X159812333Y-70182428D01*
X160524714Y-70506238D02*
X160524714Y-70538619D01*
X160492333Y-70603380D01*
X160459952Y-70635761D01*
X161334238Y-70538619D02*
X161334238Y-69858619D01*
X161625666Y-70538619D02*
X161625666Y-70182428D01*
X161593285Y-70117666D01*
X161528523Y-70085285D01*
X161431380Y-70085285D01*
X161366619Y-70117666D01*
X161334238Y-70150047D01*
X162046619Y-70538619D02*
X161981857Y-70506238D01*
X161949476Y-70473857D01*
X161917095Y-70409095D01*
X161917095Y-70214809D01*
X161949476Y-70150047D01*
X161981857Y-70117666D01*
X162046619Y-70085285D01*
X162143761Y-70085285D01*
X162208523Y-70117666D01*
X162240904Y-70150047D01*
X162273285Y-70214809D01*
X162273285Y-70409095D01*
X162240904Y-70473857D01*
X162208523Y-70506238D01*
X162143761Y-70538619D01*
X162046619Y-70538619D01*
X162856142Y-70085285D02*
X162856142Y-70635761D01*
X162823761Y-70700523D01*
X162791380Y-70732904D01*
X162726619Y-70765285D01*
X162629476Y-70765285D01*
X162564714Y-70732904D01*
X162856142Y-70506238D02*
X162791380Y-70538619D01*
X162661857Y-70538619D01*
X162597095Y-70506238D01*
X162564714Y-70473857D01*
X162532333Y-70409095D01*
X162532333Y-70214809D01*
X162564714Y-70150047D01*
X162597095Y-70117666D01*
X162661857Y-70085285D01*
X162791380Y-70085285D01*
X162856142Y-70117666D01*
X163277095Y-70538619D02*
X163212333Y-70506238D01*
X163179952Y-70441476D01*
X163179952Y-69858619D01*
X163795190Y-70506238D02*
X163730428Y-70538619D01*
X163600904Y-70538619D01*
X163536142Y-70506238D01*
X163503761Y-70441476D01*
X163503761Y-70182428D01*
X163536142Y-70117666D01*
X163600904Y-70085285D01*
X163730428Y-70085285D01*
X163795190Y-70117666D01*
X163827571Y-70182428D01*
X163827571Y-70247190D01*
X163503761Y-70311952D01*
X164021857Y-70085285D02*
X164280904Y-70085285D01*
X164119000Y-69858619D02*
X164119000Y-70441476D01*
X164151380Y-70506238D01*
X164216142Y-70538619D01*
X164280904Y-70538619D01*
X164799000Y-69858619D02*
X164669476Y-69858619D01*
X164604714Y-69891000D01*
X164572333Y-69923380D01*
X164507571Y-70020523D01*
X164475190Y-70150047D01*
X164475190Y-70409095D01*
X164507571Y-70473857D01*
X164539952Y-70506238D01*
X164604714Y-70538619D01*
X164734238Y-70538619D01*
X164799000Y-70506238D01*
X164831380Y-70473857D01*
X164863761Y-70409095D01*
X164863761Y-70247190D01*
X164831380Y-70182428D01*
X164799000Y-70150047D01*
X164734238Y-70117666D01*
X164604714Y-70117666D01*
X164539952Y-70150047D01*
X164507571Y-70182428D01*
X164475190Y-70247190D01*
X165090428Y-69858619D02*
X165543761Y-69858619D01*
X165252333Y-70538619D01*
X166612333Y-70538619D02*
X166612333Y-70182428D01*
X166579952Y-70117666D01*
X166515190Y-70085285D01*
X166385666Y-70085285D01*
X166320904Y-70117666D01*
X166612333Y-70506238D02*
X166547571Y-70538619D01*
X166385666Y-70538619D01*
X166320904Y-70506238D01*
X166288523Y-70441476D01*
X166288523Y-70376714D01*
X166320904Y-70311952D01*
X166385666Y-70279571D01*
X166547571Y-70279571D01*
X166612333Y-70247190D01*
X166936142Y-70085285D02*
X166936142Y-70538619D01*
X166936142Y-70150047D02*
X166968523Y-70117666D01*
X167033285Y-70085285D01*
X167130428Y-70085285D01*
X167195190Y-70117666D01*
X167227571Y-70182428D01*
X167227571Y-70538619D01*
X167842809Y-70538619D02*
X167842809Y-69858619D01*
X167842809Y-70506238D02*
X167778047Y-70538619D01*
X167648523Y-70538619D01*
X167583761Y-70506238D01*
X167551380Y-70473857D01*
X167519000Y-70409095D01*
X167519000Y-70214809D01*
X167551380Y-70150047D01*
X167583761Y-70117666D01*
X167648523Y-70085285D01*
X167778047Y-70085285D01*
X167842809Y-70117666D01*
X168684714Y-70538619D02*
X168684714Y-69858619D01*
X168749476Y-70279571D02*
X168943761Y-70538619D01*
X168943761Y-70085285D02*
X168684714Y-70344333D01*
X169494238Y-70506238D02*
X169429476Y-70538619D01*
X169299952Y-70538619D01*
X169235190Y-70506238D01*
X169202809Y-70441476D01*
X169202809Y-70182428D01*
X169235190Y-70117666D01*
X169299952Y-70085285D01*
X169429476Y-70085285D01*
X169494238Y-70117666D01*
X169526619Y-70182428D01*
X169526619Y-70247190D01*
X169202809Y-70311952D01*
X169818047Y-70538619D02*
X169818047Y-70085285D01*
X169818047Y-69858619D02*
X169785666Y-69891000D01*
X169818047Y-69923380D01*
X169850428Y-69891000D01*
X169818047Y-69858619D01*
X169818047Y-69923380D01*
X170141857Y-70538619D02*
X170141857Y-70085285D01*
X170141857Y-70214809D02*
X170174238Y-70150047D01*
X170206619Y-70117666D01*
X170271380Y-70085285D01*
X170336142Y-70085285D01*
X170465666Y-70085285D02*
X170724714Y-70085285D01*
X170562809Y-70538619D02*
X170562809Y-69955761D01*
X170595190Y-69891000D01*
X170659952Y-69858619D01*
X170724714Y-69858619D01*
X151038714Y-83248476D02*
X151038714Y-82867523D01*
X146974714Y-97345476D02*
X146974714Y-96964523D01*
X155384523Y-90205714D02*
X155765476Y-90205714D01*
X155384523Y-91729714D02*
X155765476Y-91729714D01*
X155575000Y-91920190D02*
X155575000Y-91539238D01*
X141414523Y-87030714D02*
X141795476Y-87030714D01*
X141605000Y-87221190D02*
X141605000Y-86840238D01*
X149987023Y-83093714D02*
X150367976Y-83093714D01*
X150177500Y-83284190D02*
X150177500Y-82903238D01*
X177850857Y-95077000D02*
X177793714Y-95048428D01*
X177708000Y-95048428D01*
X177622285Y-95077000D01*
X177565142Y-95134142D01*
X177536571Y-95191285D01*
X177508000Y-95305571D01*
X177508000Y-95391285D01*
X177536571Y-95505571D01*
X177565142Y-95562714D01*
X177622285Y-95619857D01*
X177708000Y-95648428D01*
X177765142Y-95648428D01*
X177850857Y-95619857D01*
X177879428Y-95591285D01*
X177879428Y-95391285D01*
X177765142Y-95391285D01*
X178136571Y-95648428D02*
X178136571Y-95048428D01*
X178479428Y-95648428D01*
X178479428Y-95048428D01*
X178765142Y-95648428D02*
X178765142Y-95048428D01*
X178908000Y-95048428D01*
X178993714Y-95077000D01*
X179050857Y-95134142D01*
X179079428Y-95191285D01*
X179108000Y-95305571D01*
X179108000Y-95391285D01*
X179079428Y-95505571D01*
X179050857Y-95562714D01*
X178993714Y-95619857D01*
X178908000Y-95648428D01*
X178765142Y-95648428D01*
X177536571Y-92879857D02*
X177993714Y-92879857D01*
X177765142Y-93108428D02*
X177765142Y-92651285D01*
X178565142Y-92508428D02*
X178279428Y-92508428D01*
X178250857Y-92794142D01*
X178279428Y-92765571D01*
X178336571Y-92737000D01*
X178479428Y-92737000D01*
X178536571Y-92765571D01*
X178565142Y-92794142D01*
X178593714Y-92851285D01*
X178593714Y-92994142D01*
X178565142Y-93051285D01*
X178536571Y-93079857D01*
X178479428Y-93108428D01*
X178336571Y-93108428D01*
X178279428Y-93079857D01*
X178250857Y-93051285D01*
X178765142Y-92508428D02*
X178965142Y-93108428D01*
X179165142Y-92508428D01*
X151828571Y-77857000D02*
X151757142Y-77821285D01*
X151650000Y-77821285D01*
X151542857Y-77857000D01*
X151471428Y-77928428D01*
X151435714Y-77999857D01*
X151400000Y-78142714D01*
X151400000Y-78249857D01*
X151435714Y-78392714D01*
X151471428Y-78464142D01*
X151542857Y-78535571D01*
X151650000Y-78571285D01*
X151721428Y-78571285D01*
X151828571Y-78535571D01*
X151864285Y-78499857D01*
X151864285Y-78249857D01*
X151721428Y-78249857D01*
X152185714Y-78571285D02*
X152185714Y-77821285D01*
X152614285Y-78571285D01*
X152614285Y-77821285D01*
X152971428Y-78571285D02*
X152971428Y-77821285D01*
X153150000Y-77821285D01*
X153257142Y-77857000D01*
X153328571Y-77928428D01*
X153364285Y-77999857D01*
X153400000Y-78142714D01*
X153400000Y-78249857D01*
X153364285Y-78392714D01*
X153328571Y-78464142D01*
X153257142Y-78535571D01*
X153150000Y-78571285D01*
X152971428Y-78571285D01*
X161238571Y-78285571D02*
X161810000Y-78285571D01*
X161524285Y-78571285D02*
X161524285Y-77999857D01*
X162095714Y-77821285D02*
X162560000Y-77821285D01*
X162310000Y-78107000D01*
X162417142Y-78107000D01*
X162488571Y-78142714D01*
X162524285Y-78178428D01*
X162560000Y-78249857D01*
X162560000Y-78428428D01*
X162524285Y-78499857D01*
X162488571Y-78535571D01*
X162417142Y-78571285D01*
X162202857Y-78571285D01*
X162131428Y-78535571D01*
X162095714Y-78499857D01*
X162774285Y-77821285D02*
X163024285Y-78571285D01*
X163274285Y-77821285D01*
X163452857Y-77821285D02*
X163917142Y-77821285D01*
X163667142Y-78107000D01*
X163774285Y-78107000D01*
X163845714Y-78142714D01*
X163881428Y-78178428D01*
X163917142Y-78249857D01*
X163917142Y-78428428D01*
X163881428Y-78499857D01*
X163845714Y-78535571D01*
X163774285Y-78571285D01*
X163560000Y-78571285D01*
X163488571Y-78535571D01*
X163452857Y-78499857D01*
X161595714Y-71681571D02*
X162167142Y-71681571D01*
X161881428Y-71967285D02*
X161881428Y-71395857D01*
X162881428Y-71217285D02*
X162524285Y-71217285D01*
X162488571Y-71574428D01*
X162524285Y-71538714D01*
X162595714Y-71503000D01*
X162774285Y-71503000D01*
X162845714Y-71538714D01*
X162881428Y-71574428D01*
X162917142Y-71645857D01*
X162917142Y-71824428D01*
X162881428Y-71895857D01*
X162845714Y-71931571D01*
X162774285Y-71967285D01*
X162595714Y-71967285D01*
X162524285Y-71931571D01*
X162488571Y-71895857D01*
X163131428Y-71217285D02*
X163381428Y-71967285D01*
X163631428Y-71217285D01*
D12*
X169164000Y-92075000D02*
G75*
G03*
X169164000Y-92075000I-127000J0D01*
G01*
D13*
X143510000Y-96266000D02*
G75*
G03*
X143510000Y-96266000I-127000J0D01*
G01*
D14*
X116429285Y-86625857D02*
X116429285Y-86197285D01*
X117179285Y-86411571D02*
X116429285Y-86411571D01*
X117179285Y-85947285D02*
X116429285Y-85947285D01*
X116965000Y-85697285D01*
X116429285Y-85447285D01*
X117179285Y-85447285D01*
X117143571Y-85125857D02*
X117179285Y-85018714D01*
X117179285Y-84840142D01*
X117143571Y-84768714D01*
X117107857Y-84732999D01*
X117036428Y-84697285D01*
X116965000Y-84697285D01*
X116893571Y-84732999D01*
X116857857Y-84768714D01*
X116822142Y-84840142D01*
X116786428Y-84982999D01*
X116750714Y-85054428D01*
X116715000Y-85090142D01*
X116643571Y-85125857D01*
X116572142Y-85125857D01*
X116500714Y-85090142D01*
X116465000Y-85054428D01*
X116429285Y-84982999D01*
X116429285Y-84804428D01*
X116465000Y-84697285D01*
X118969285Y-86161571D02*
X118969285Y-85732999D01*
X119719285Y-85947285D02*
X118969285Y-85947285D01*
X119719285Y-85482999D02*
X118969285Y-85482999D01*
X118969285Y-85304428D01*
X119005000Y-85197285D01*
X119076428Y-85125856D01*
X119147857Y-85090142D01*
X119290714Y-85054428D01*
X119397857Y-85054428D01*
X119540714Y-85090142D01*
X119612142Y-85125856D01*
X119683571Y-85197285D01*
X119719285Y-85304428D01*
X119719285Y-85482999D01*
X119719285Y-84732999D02*
X118969285Y-84732999D01*
X121509285Y-86590142D02*
X121509285Y-86161571D01*
X122259285Y-86375857D02*
X121509285Y-86375857D01*
X122259285Y-85911571D02*
X121509285Y-85911571D01*
X121509285Y-85733000D01*
X121545000Y-85625857D01*
X121616428Y-85554428D01*
X121687857Y-85518714D01*
X121830714Y-85483000D01*
X121937857Y-85483000D01*
X122080714Y-85518714D01*
X122152142Y-85554428D01*
X122223571Y-85625857D01*
X122259285Y-85733000D01*
X122259285Y-85911571D01*
X121509285Y-85018714D02*
X121509285Y-84875857D01*
X121545000Y-84804428D01*
X121616428Y-84733000D01*
X121759285Y-84697285D01*
X122009285Y-84697285D01*
X122152142Y-84733000D01*
X122223571Y-84804428D01*
X122259285Y-84875857D01*
X122259285Y-85018714D01*
X122223571Y-85090142D01*
X122152142Y-85161571D01*
X122009285Y-85197285D01*
X121759285Y-85197285D01*
X121616428Y-85161571D01*
X121545000Y-85090142D01*
X121509285Y-85018714D01*
X124049285Y-86554428D02*
X124049285Y-86125857D01*
X124799285Y-86340143D02*
X124049285Y-86340143D01*
X124727857Y-85447285D02*
X124763571Y-85483000D01*
X124799285Y-85590143D01*
X124799285Y-85661571D01*
X124763571Y-85768714D01*
X124692142Y-85840143D01*
X124620714Y-85875857D01*
X124477857Y-85911571D01*
X124370714Y-85911571D01*
X124227857Y-85875857D01*
X124156428Y-85840143D01*
X124085000Y-85768714D01*
X124049285Y-85661571D01*
X124049285Y-85590143D01*
X124085000Y-85483000D01*
X124120714Y-85447285D01*
X124799285Y-85125857D02*
X124049285Y-85125857D01*
X124799285Y-84697285D02*
X124370714Y-85018714D01*
X124049285Y-84697285D02*
X124477857Y-85125857D01*
X126625000Y-86268713D02*
X126589285Y-86340142D01*
X126589285Y-86447285D01*
X126625000Y-86554427D01*
X126696428Y-86625856D01*
X126767857Y-86661570D01*
X126910714Y-86697285D01*
X127017857Y-86697285D01*
X127160714Y-86661570D01*
X127232142Y-86625856D01*
X127303571Y-86554427D01*
X127339285Y-86447285D01*
X127339285Y-86375856D01*
X127303571Y-86268713D01*
X127267857Y-86232999D01*
X127017857Y-86232999D01*
X127017857Y-86375856D01*
X127339285Y-85911570D02*
X126589285Y-85911570D01*
X127339285Y-85482999D01*
X126589285Y-85482999D01*
X127339285Y-85125856D02*
X126589285Y-85125856D01*
X126589285Y-84947285D01*
X126625000Y-84840142D01*
X126696428Y-84768713D01*
X126767857Y-84732999D01*
X126910714Y-84697285D01*
X127017857Y-84697285D01*
X127160714Y-84732999D01*
X127232142Y-84768713D01*
X127303571Y-84840142D01*
X127339285Y-84947285D01*
X127339285Y-85125856D01*
X129593571Y-87733000D02*
X129593571Y-87161571D01*
X129879285Y-87447285D02*
X129307857Y-87447285D01*
X129129285Y-86875857D02*
X129129285Y-86411571D01*
X129415000Y-86661571D01*
X129415000Y-86554428D01*
X129450714Y-86483000D01*
X129486428Y-86447285D01*
X129557857Y-86411571D01*
X129736428Y-86411571D01*
X129807857Y-86447285D01*
X129843571Y-86483000D01*
X129879285Y-86554428D01*
X129879285Y-86768714D01*
X129843571Y-86840142D01*
X129807857Y-86875857D01*
X129807857Y-86090142D02*
X129843571Y-86054428D01*
X129879285Y-86090142D01*
X129843571Y-86125857D01*
X129807857Y-86090142D01*
X129879285Y-86090142D01*
X129129285Y-85804428D02*
X129129285Y-85340142D01*
X129415000Y-85590142D01*
X129415000Y-85483000D01*
X129450714Y-85411571D01*
X129486428Y-85375857D01*
X129557857Y-85340142D01*
X129736428Y-85340142D01*
X129807857Y-85375857D01*
X129843571Y-85411571D01*
X129879285Y-85483000D01*
X129879285Y-85697285D01*
X129843571Y-85768714D01*
X129807857Y-85804428D01*
X129129285Y-85125857D02*
X129879285Y-84875857D01*
X129129285Y-84625857D01*
D15*
X164973000Y-78359000D02*
G75*
G03*
X164973000Y-78359000I-127000J0D01*
G01*
D16*
%TO.C,BT11*%
X115760000Y-93262000D02*
X115560000Y-93262000D01*
X115760000Y-86062000D02*
X115560000Y-86062000D01*
X109260000Y-93262000D02*
X112960000Y-93262000D01*
X109260000Y-86062000D02*
X112960000Y-86062000D01*
X109260000Y-93262000D02*
X109260000Y-86062000D01*
X115760000Y-86062000D02*
X115760000Y-93262000D01*
D17*
%TO.C,FFC18*%
X138811000Y-101600000D02*
G75*
G03*
X138811000Y-101600000I-127000J0D01*
G01*
X137350000Y-100965000D02*
X137350000Y-102364000D01*
X137350000Y-105826000D02*
X137350000Y-107950000D01*
X137350000Y-100965000D02*
X139559000Y-100965000D01*
X137350000Y-107950000D02*
X159830000Y-107950000D01*
X159830000Y-107950000D02*
X159830000Y-105826000D01*
X159830000Y-100965000D02*
X157621000Y-100965000D01*
X159830000Y-102364000D02*
X159830000Y-100965000D01*
D10*
%TO.C,solarmon*%
X110363000Y-80899000D02*
X110998000Y-80899000D01*
G36*
X110363000Y-82804000D02*
G01*
X109728000Y-82804000D01*
X109728000Y-82169000D01*
X110363000Y-82169000D01*
X110363000Y-82804000D01*
G37*
X110363000Y-82804000D02*
X109728000Y-82804000D01*
X109728000Y-82169000D01*
X110363000Y-82169000D01*
X110363000Y-82804000D01*
G36*
X110998000Y-80899000D02*
G01*
X110363000Y-80899000D01*
X110363000Y-80264000D01*
X110998000Y-80264000D01*
X110998000Y-80899000D01*
G37*
X110998000Y-80899000D02*
X110363000Y-80899000D01*
X110363000Y-80264000D01*
X110998000Y-80264000D01*
X110998000Y-80899000D01*
G36*
X109728000Y-80899000D02*
G01*
X109093000Y-80899000D01*
X109093000Y-80264000D01*
X109728000Y-80264000D01*
X109728000Y-80899000D01*
G37*
X109728000Y-80899000D02*
X109093000Y-80899000D01*
X109093000Y-80264000D01*
X109728000Y-80264000D01*
X109728000Y-80899000D01*
X110363000Y-82169000D02*
X110363000Y-82804000D01*
X109728000Y-82169000D02*
X109728000Y-82804000D01*
X111633000Y-83439000D02*
X112268000Y-83439000D01*
X111633000Y-80264000D02*
X112268000Y-80264000D01*
X111633000Y-79629000D02*
X112268000Y-79629000D01*
X112268000Y-79629000D02*
X112268000Y-84074000D01*
X111633000Y-79629000D02*
X111633000Y-84074000D01*
X111633000Y-84074000D02*
X112268000Y-84074000D01*
X110363000Y-84074000D02*
X110998000Y-84074000D01*
X107823000Y-84074000D02*
X108458000Y-84074000D01*
X110363000Y-83439000D02*
X110363000Y-84074000D01*
X108458000Y-83439000D02*
X108458000Y-84074000D01*
X107823000Y-83439000D02*
X110998000Y-83439000D01*
X107188000Y-82804000D02*
X110998000Y-82804000D01*
X107188000Y-82169000D02*
X112268000Y-82169000D01*
X107188000Y-82804000D02*
X107188000Y-81534000D01*
X107188000Y-81534000D02*
X112268000Y-81534000D01*
X110363000Y-80264000D02*
X110363000Y-80899000D01*
X109728000Y-80264000D02*
X109728000Y-80899000D01*
X109093000Y-80264000D02*
X109093000Y-81534000D01*
X108458000Y-80899000D02*
X109728000Y-80899000D01*
X108458000Y-80264000D02*
X108458000Y-80899000D01*
X110998000Y-78994000D02*
X110998000Y-84074000D01*
X110363000Y-78994000D02*
X110363000Y-79629000D01*
X109728000Y-79629000D02*
X110363000Y-79629000D01*
X109728000Y-78994000D02*
X109728000Y-79629000D01*
X109093000Y-78994000D02*
X109093000Y-79629000D01*
X107823000Y-78994000D02*
X110998000Y-78994000D01*
X107188000Y-80264000D02*
X107188000Y-79629000D01*
X110998000Y-80264000D02*
X107188000Y-80264000D01*
X107823000Y-78994000D02*
X107823000Y-84074000D01*
X107188000Y-79629000D02*
X109093000Y-79629000D01*
D11*
%TO.C,JP1*%
X177225000Y-98849000D02*
X172025000Y-98849000D01*
X172025000Y-98849000D02*
X172025000Y-101509000D01*
X172025000Y-101509000D02*
X177225000Y-101509000D01*
X177225000Y-101509000D02*
X177225000Y-98849000D01*
X176275000Y-101509000D02*
X176275000Y-107509000D01*
X176275000Y-107509000D02*
X175515000Y-107509000D01*
X175515000Y-107509000D02*
X175515000Y-101509000D01*
X176215000Y-101509000D02*
X176215000Y-107509000D01*
X176095000Y-101509000D02*
X176095000Y-107509000D01*
X175975000Y-101509000D02*
X175975000Y-107509000D01*
X175855000Y-101509000D02*
X175855000Y-107509000D01*
X175735000Y-101509000D02*
X175735000Y-107509000D01*
X175615000Y-101509000D02*
X175615000Y-107509000D01*
X176275000Y-98519000D02*
X176275000Y-98849000D01*
X175515000Y-98519000D02*
X175515000Y-98849000D01*
X174625000Y-98849000D02*
X174625000Y-101509000D01*
X173735000Y-101509000D02*
X173735000Y-107509000D01*
X173735000Y-107509000D02*
X172975000Y-107509000D01*
X172975000Y-107509000D02*
X172975000Y-101509000D01*
X173735000Y-98451929D02*
X173735000Y-98849000D01*
X172975000Y-98451929D02*
X172975000Y-98849000D01*
X175895000Y-96139000D02*
X177165000Y-96139000D01*
X177165000Y-96139000D02*
X177165000Y-97409000D01*
%TO.C,FFOSD1*%
X179070000Y-81280000D02*
X180340000Y-81280000D01*
X179070000Y-82550000D02*
X179070000Y-81280000D01*
X181382929Y-103250000D02*
X181780000Y-103250000D01*
X181382929Y-102490000D02*
X181780000Y-102490000D01*
X190440000Y-103250000D02*
X184440000Y-103250000D01*
X190440000Y-102490000D02*
X190440000Y-103250000D01*
X184440000Y-102490000D02*
X190440000Y-102490000D01*
X181780000Y-101600000D02*
X184440000Y-101600000D01*
X181382929Y-100710000D02*
X181780000Y-100710000D01*
X181382929Y-99950000D02*
X181780000Y-99950000D01*
X190440000Y-100710000D02*
X184440000Y-100710000D01*
X190440000Y-99950000D02*
X190440000Y-100710000D01*
X184440000Y-99950000D02*
X190440000Y-99950000D01*
X181780000Y-99060000D02*
X184440000Y-99060000D01*
X181382929Y-98170000D02*
X181780000Y-98170000D01*
X181382929Y-97410000D02*
X181780000Y-97410000D01*
X190440000Y-98170000D02*
X184440000Y-98170000D01*
X190440000Y-97410000D02*
X190440000Y-98170000D01*
X184440000Y-97410000D02*
X190440000Y-97410000D01*
X181780000Y-96520000D02*
X184440000Y-96520000D01*
X181382929Y-95630000D02*
X181780000Y-95630000D01*
X181382929Y-94870000D02*
X181780000Y-94870000D01*
X190440000Y-95630000D02*
X184440000Y-95630000D01*
X190440000Y-94870000D02*
X190440000Y-95630000D01*
X184440000Y-94870000D02*
X190440000Y-94870000D01*
X181780000Y-93980000D02*
X184440000Y-93980000D01*
X181382929Y-93090000D02*
X181780000Y-93090000D01*
X181382929Y-92330000D02*
X181780000Y-92330000D01*
X190440000Y-93090000D02*
X184440000Y-93090000D01*
X190440000Y-92330000D02*
X190440000Y-93090000D01*
X184440000Y-92330000D02*
X190440000Y-92330000D01*
X181780000Y-91440000D02*
X184440000Y-91440000D01*
X181382929Y-90550000D02*
X181780000Y-90550000D01*
X181382929Y-89790000D02*
X181780000Y-89790000D01*
X190440000Y-90550000D02*
X184440000Y-90550000D01*
X190440000Y-89790000D02*
X190440000Y-90550000D01*
X184440000Y-89790000D02*
X190440000Y-89790000D01*
X181780000Y-88900000D02*
X184440000Y-88900000D01*
X181382929Y-88010000D02*
X181780000Y-88010000D01*
X181382929Y-87250000D02*
X181780000Y-87250000D01*
X190440000Y-88010000D02*
X184440000Y-88010000D01*
X190440000Y-87250000D02*
X190440000Y-88010000D01*
X184440000Y-87250000D02*
X190440000Y-87250000D01*
X181780000Y-86360000D02*
X184440000Y-86360000D01*
X181382929Y-85470000D02*
X181780000Y-85470000D01*
X181382929Y-84710000D02*
X181780000Y-84710000D01*
X190440000Y-85470000D02*
X184440000Y-85470000D01*
X190440000Y-84710000D02*
X190440000Y-85470000D01*
X184440000Y-84710000D02*
X190440000Y-84710000D01*
X181780000Y-83820000D02*
X184440000Y-83820000D01*
X181450000Y-82930000D02*
X181780000Y-82930000D01*
X181450000Y-82170000D02*
X181780000Y-82170000D01*
X184440000Y-82830000D02*
X190440000Y-82830000D01*
X184440000Y-82710000D02*
X190440000Y-82710000D01*
X184440000Y-82590000D02*
X190440000Y-82590000D01*
X184440000Y-82470000D02*
X190440000Y-82470000D01*
X184440000Y-82350000D02*
X190440000Y-82350000D01*
X184440000Y-82230000D02*
X190440000Y-82230000D01*
X190440000Y-82930000D02*
X184440000Y-82930000D01*
X190440000Y-82170000D02*
X190440000Y-82930000D01*
X184440000Y-82170000D02*
X190440000Y-82170000D01*
X184440000Y-81220000D02*
X181780000Y-81220000D01*
X184440000Y-104200000D02*
X184440000Y-81220000D01*
X181780000Y-104200000D02*
X184440000Y-104200000D01*
X181780000Y-81220000D02*
X181780000Y-104200000D01*
%TO.C,P1*%
X175303000Y-69790000D02*
X175303000Y-80070000D01*
X175303000Y-80070000D02*
X177963000Y-80070000D01*
X177963000Y-80070000D02*
X177963000Y-69790000D01*
X177963000Y-69790000D02*
X175303000Y-69790000D01*
X177963000Y-70740000D02*
X183963000Y-70740000D01*
X183963000Y-70740000D02*
X183963000Y-71500000D01*
X183963000Y-71500000D02*
X177963000Y-71500000D01*
X177963000Y-70800000D02*
X183963000Y-70800000D01*
X177963000Y-70920000D02*
X183963000Y-70920000D01*
X177963000Y-71040000D02*
X183963000Y-71040000D01*
X177963000Y-71160000D02*
X183963000Y-71160000D01*
X177963000Y-71280000D02*
X183963000Y-71280000D01*
X177963000Y-71400000D02*
X183963000Y-71400000D01*
X174973000Y-70740000D02*
X175303000Y-70740000D01*
X174973000Y-71500000D02*
X175303000Y-71500000D01*
X175303000Y-72390000D02*
X177963000Y-72390000D01*
X177963000Y-73280000D02*
X183963000Y-73280000D01*
X183963000Y-73280000D02*
X183963000Y-74040000D01*
X183963000Y-74040000D02*
X177963000Y-74040000D01*
X174905929Y-73280000D02*
X175303000Y-73280000D01*
X174905929Y-74040000D02*
X175303000Y-74040000D01*
X175303000Y-74930000D02*
X177963000Y-74930000D01*
X177963000Y-75820000D02*
X183963000Y-75820000D01*
X183963000Y-75820000D02*
X183963000Y-76580000D01*
X183963000Y-76580000D02*
X177963000Y-76580000D01*
X174905929Y-75820000D02*
X175303000Y-75820000D01*
X174905929Y-76580000D02*
X175303000Y-76580000D01*
X175303000Y-77470000D02*
X177963000Y-77470000D01*
X177963000Y-78360000D02*
X183963000Y-78360000D01*
X183963000Y-78360000D02*
X183963000Y-79120000D01*
X183963000Y-79120000D02*
X177963000Y-79120000D01*
X174905929Y-78360000D02*
X175303000Y-78360000D01*
X174905929Y-79120000D02*
X175303000Y-79120000D01*
X172593000Y-71120000D02*
X172593000Y-69850000D01*
X172593000Y-69850000D02*
X173863000Y-69850000D01*
%TO.C,R7*%
X117575000Y-90323936D02*
X117575000Y-90778064D01*
X116105000Y-90323936D02*
X116105000Y-90778064D01*
%TO.C,R6*%
X123925000Y-90323936D02*
X123925000Y-90778064D01*
X122455000Y-90323936D02*
X122455000Y-90778064D01*
%TO.C,BT3*%
X120710000Y-98849000D02*
X115510000Y-98849000D01*
X115510000Y-98849000D02*
X115510000Y-101509000D01*
X115510000Y-101509000D02*
X120710000Y-101509000D01*
X120710000Y-101509000D02*
X120710000Y-98849000D01*
X119760000Y-101509000D02*
X119760000Y-107509000D01*
X119760000Y-107509000D02*
X119000000Y-107509000D01*
X119000000Y-107509000D02*
X119000000Y-101509000D01*
X119700000Y-101509000D02*
X119700000Y-107509000D01*
X119580000Y-101509000D02*
X119580000Y-107509000D01*
X119460000Y-101509000D02*
X119460000Y-107509000D01*
X119340000Y-101509000D02*
X119340000Y-107509000D01*
X119220000Y-101509000D02*
X119220000Y-107509000D01*
X119100000Y-101509000D02*
X119100000Y-107509000D01*
X119760000Y-98519000D02*
X119760000Y-98849000D01*
X119000000Y-98519000D02*
X119000000Y-98849000D01*
X118110000Y-98849000D02*
X118110000Y-101509000D01*
X117220000Y-101509000D02*
X117220000Y-107509000D01*
X117220000Y-107509000D02*
X116460000Y-107509000D01*
X116460000Y-107509000D02*
X116460000Y-101509000D01*
X117220000Y-98451929D02*
X117220000Y-98849000D01*
X116460000Y-98451929D02*
X116460000Y-98849000D01*
X119380000Y-96139000D02*
X120650000Y-96139000D01*
X120650000Y-96139000D02*
X120650000Y-97409000D01*
%TO.C,BT2*%
X127060000Y-98849000D02*
X121860000Y-98849000D01*
X121860000Y-98849000D02*
X121860000Y-101509000D01*
X121860000Y-101509000D02*
X127060000Y-101509000D01*
X127060000Y-101509000D02*
X127060000Y-98849000D01*
X126110000Y-101509000D02*
X126110000Y-107509000D01*
X126110000Y-107509000D02*
X125350000Y-107509000D01*
X125350000Y-107509000D02*
X125350000Y-101509000D01*
X126050000Y-101509000D02*
X126050000Y-107509000D01*
X125930000Y-101509000D02*
X125930000Y-107509000D01*
X125810000Y-101509000D02*
X125810000Y-107509000D01*
X125690000Y-101509000D02*
X125690000Y-107509000D01*
X125570000Y-101509000D02*
X125570000Y-107509000D01*
X125450000Y-101509000D02*
X125450000Y-107509000D01*
X126110000Y-98519000D02*
X126110000Y-98849000D01*
X125350000Y-98519000D02*
X125350000Y-98849000D01*
X124460000Y-98849000D02*
X124460000Y-101509000D01*
X123570000Y-101509000D02*
X123570000Y-107509000D01*
X123570000Y-107509000D02*
X122810000Y-107509000D01*
X122810000Y-107509000D02*
X122810000Y-101509000D01*
X123570000Y-98451929D02*
X123570000Y-98849000D01*
X122810000Y-98451929D02*
X122810000Y-98849000D01*
X125730000Y-96139000D02*
X127000000Y-96139000D01*
X127000000Y-96139000D02*
X127000000Y-97409000D01*
%TO.C,C5*%
X167378748Y-87095000D02*
X167901252Y-87095000D01*
X167378748Y-85625000D02*
X167901252Y-85625000D01*
D10*
%TO.C,U2*%
X166640000Y-91495000D02*
X166640000Y-91820000D01*
X166640000Y-91820000D02*
X166940000Y-91820000D01*
X168640000Y-88845000D02*
X168640000Y-88520000D01*
X168640000Y-88520000D02*
X168340000Y-88520000D01*
X166640000Y-88820000D02*
X166640000Y-88520000D01*
X166640000Y-88520000D02*
X166965000Y-88520000D01*
X168315000Y-91820000D02*
X168640000Y-91595000D01*
X168640000Y-91595000D02*
X168640000Y-91495000D01*
X168640000Y-91495000D02*
X169165000Y-91495000D01*
X168315000Y-91820000D02*
X167940000Y-91820000D01*
D11*
%TO.C,R5*%
X172620000Y-91847936D02*
X172620000Y-92302064D01*
X174090000Y-91847936D02*
X174090000Y-92302064D01*
%TO.C,R4*%
X172620000Y-86767936D02*
X172620000Y-87222064D01*
X174090000Y-86767936D02*
X174090000Y-87222064D01*
%TO.C,JTAG1*%
X130870000Y-81220000D02*
X130870000Y-82550000D01*
X129540000Y-81220000D02*
X130870000Y-81220000D01*
X128270000Y-81220000D02*
X128270000Y-83880000D01*
X128270000Y-83880000D02*
X115510000Y-83880000D01*
X128270000Y-81220000D02*
X115510000Y-81220000D01*
X115510000Y-81220000D02*
X115510000Y-83880000D01*
%TO.C,C1*%
X163568748Y-80164000D02*
X164091252Y-80164000D01*
X163568748Y-81634000D02*
X164091252Y-81634000D01*
%TO.C,R3*%
X161697936Y-85625000D02*
X162152064Y-85625000D01*
X161697936Y-87095000D02*
X162152064Y-87095000D01*
%TO.C,R2*%
X161697936Y-96674000D02*
X162152064Y-96674000D01*
X161697936Y-98144000D02*
X162152064Y-98144000D01*
%TO.C,R1*%
X130275000Y-90323936D02*
X130275000Y-90778064D01*
X128805000Y-90323936D02*
X128805000Y-90778064D01*
%TO.C,C4*%
X137568000Y-86621252D02*
X137568000Y-86098748D01*
X139038000Y-86621252D02*
X139038000Y-86098748D01*
%TO.C,C3*%
X161644000Y-91940748D02*
X161644000Y-92463252D01*
X160174000Y-91940748D02*
X160174000Y-92463252D01*
%TO.C,C2*%
X148216252Y-80999000D02*
X147693748Y-80999000D01*
X148216252Y-79529000D02*
X147693748Y-79529000D01*
D14*
%TO.C,U1*%
X143990000Y-95345000D02*
X143990000Y-96620000D01*
X143415000Y-84995000D02*
X143415000Y-85670000D01*
X153765000Y-84995000D02*
X153765000Y-85670000D01*
X153765000Y-95345000D02*
X153765000Y-94670000D01*
X143415000Y-95345000D02*
X143415000Y-94670000D01*
X153765000Y-95345000D02*
X153090000Y-95345000D01*
X153765000Y-84995000D02*
X153090000Y-84995000D01*
X143415000Y-84995000D02*
X144090000Y-84995000D01*
X143415000Y-95345000D02*
X143990000Y-95345000D01*
D11*
%TO.C,J1*%
X163890000Y-72330000D02*
X163890000Y-74930000D01*
X163890000Y-72330000D02*
X112970000Y-72330000D01*
X112970000Y-72330000D02*
X112970000Y-77530000D01*
X161290000Y-77530000D02*
X112970000Y-77530000D01*
X161290000Y-74930000D02*
X161290000Y-77530000D01*
X163890000Y-74930000D02*
X161290000Y-74930000D01*
X163890000Y-77530000D02*
X162560000Y-77530000D01*
X163890000Y-76200000D02*
X163890000Y-77530000D01*
%TO.C,BT1*%
X133350000Y-96139000D02*
X133350000Y-97409000D01*
X132080000Y-96139000D02*
X133350000Y-96139000D01*
X129160000Y-98451929D02*
X129160000Y-98849000D01*
X129920000Y-98451929D02*
X129920000Y-98849000D01*
X129160000Y-107509000D02*
X129160000Y-101509000D01*
X129920000Y-107509000D02*
X129160000Y-107509000D01*
X129920000Y-101509000D02*
X129920000Y-107509000D01*
X130810000Y-98849000D02*
X130810000Y-101509000D01*
X131700000Y-98519000D02*
X131700000Y-98849000D01*
X132460000Y-98519000D02*
X132460000Y-98849000D01*
X131800000Y-101509000D02*
X131800000Y-107509000D01*
X131920000Y-101509000D02*
X131920000Y-107509000D01*
X132040000Y-101509000D02*
X132040000Y-107509000D01*
X132160000Y-101509000D02*
X132160000Y-107509000D01*
X132280000Y-101509000D02*
X132280000Y-107509000D01*
X132400000Y-101509000D02*
X132400000Y-107509000D01*
X131700000Y-107509000D02*
X131700000Y-101509000D01*
X132460000Y-107509000D02*
X131700000Y-107509000D01*
X132460000Y-101509000D02*
X132460000Y-107509000D01*
X133410000Y-101509000D02*
X133410000Y-98849000D01*
X128210000Y-101509000D02*
X133410000Y-101509000D01*
X128210000Y-98849000D02*
X128210000Y-101509000D01*
X133410000Y-98849000D02*
X128210000Y-98849000D01*
%TO.C,BT11*%
D14*
X113861857Y-90671523D02*
X113899952Y-90557238D01*
X113938047Y-90519142D01*
X114014238Y-90481047D01*
X114128523Y-90481047D01*
X114204714Y-90519142D01*
X114242809Y-90557238D01*
X114280904Y-90633428D01*
X114280904Y-90938190D01*
X113480904Y-90938190D01*
X113480904Y-90671523D01*
X113519000Y-90595333D01*
X113557095Y-90557238D01*
X113633285Y-90519142D01*
X113709476Y-90519142D01*
X113785666Y-90557238D01*
X113823761Y-90595333D01*
X113861857Y-90671523D01*
X113861857Y-90938190D01*
X113480904Y-90252476D02*
X113480904Y-89795333D01*
X114280904Y-90023904D02*
X113480904Y-90023904D01*
X114280904Y-89109619D02*
X114280904Y-89566761D01*
X114280904Y-89338190D02*
X113480904Y-89338190D01*
X113595190Y-89414380D01*
X113671380Y-89490571D01*
X113709476Y-89566761D01*
X114280904Y-88347714D02*
X114280904Y-88804857D01*
X114280904Y-88576285D02*
X113480904Y-88576285D01*
X113595190Y-88652476D01*
X113671380Y-88728666D01*
X113709476Y-88804857D01*
%TO.C,FFC18*%
X135019071Y-100149428D02*
X134769071Y-100149428D01*
X134769071Y-100542285D02*
X134769071Y-99792285D01*
X135126214Y-99792285D01*
X135661928Y-100149428D02*
X135411928Y-100149428D01*
X135411928Y-100542285D02*
X135411928Y-99792285D01*
X135769071Y-99792285D01*
X136483357Y-100470857D02*
X136447642Y-100506571D01*
X136340500Y-100542285D01*
X136269071Y-100542285D01*
X136161928Y-100506571D01*
X136090500Y-100435142D01*
X136054785Y-100363714D01*
X136019071Y-100220857D01*
X136019071Y-100113714D01*
X136054785Y-99970857D01*
X136090500Y-99899428D01*
X136161928Y-99828000D01*
X136269071Y-99792285D01*
X136340500Y-99792285D01*
X136447642Y-99828000D01*
X136483357Y-99863714D01*
X137197642Y-100542285D02*
X136769071Y-100542285D01*
X136983357Y-100542285D02*
X136983357Y-99792285D01*
X136911928Y-99899428D01*
X136840500Y-99970857D01*
X136769071Y-100006571D01*
X137626214Y-100113714D02*
X137554785Y-100078000D01*
X137519071Y-100042285D01*
X137483357Y-99970857D01*
X137483357Y-99935142D01*
X137519071Y-99863714D01*
X137554785Y-99828000D01*
X137626214Y-99792285D01*
X137769071Y-99792285D01*
X137840500Y-99828000D01*
X137876214Y-99863714D01*
X137911928Y-99935142D01*
X137911928Y-99970857D01*
X137876214Y-100042285D01*
X137840500Y-100078000D01*
X137769071Y-100113714D01*
X137626214Y-100113714D01*
X137554785Y-100149428D01*
X137519071Y-100185142D01*
X137483357Y-100256571D01*
X137483357Y-100399428D01*
X137519071Y-100470857D01*
X137554785Y-100506571D01*
X137626214Y-100542285D01*
X137769071Y-100542285D01*
X137840500Y-100506571D01*
X137876214Y-100470857D01*
X137911928Y-100399428D01*
X137911928Y-100256571D01*
X137876214Y-100185142D01*
X137840500Y-100149428D01*
X137769071Y-100113714D01*
%TO.C,solarmon*%
X107281571Y-85012571D02*
X107353000Y-85048285D01*
X107495857Y-85048285D01*
X107567285Y-85012571D01*
X107603000Y-84941142D01*
X107603000Y-84905428D01*
X107567285Y-84834000D01*
X107495857Y-84798285D01*
X107388714Y-84798285D01*
X107317285Y-84762571D01*
X107281571Y-84691142D01*
X107281571Y-84655428D01*
X107317285Y-84584000D01*
X107388714Y-84548285D01*
X107495857Y-84548285D01*
X107567285Y-84584000D01*
X108031571Y-85048285D02*
X107960142Y-85012571D01*
X107924428Y-84976857D01*
X107888714Y-84905428D01*
X107888714Y-84691142D01*
X107924428Y-84619714D01*
X107960142Y-84584000D01*
X108031571Y-84548285D01*
X108138714Y-84548285D01*
X108210142Y-84584000D01*
X108245857Y-84619714D01*
X108281571Y-84691142D01*
X108281571Y-84905428D01*
X108245857Y-84976857D01*
X108210142Y-85012571D01*
X108138714Y-85048285D01*
X108031571Y-85048285D01*
X108710142Y-85048285D02*
X108638714Y-85012571D01*
X108603000Y-84941142D01*
X108603000Y-84298285D01*
X109317285Y-85048285D02*
X109317285Y-84655428D01*
X109281571Y-84584000D01*
X109210142Y-84548285D01*
X109067285Y-84548285D01*
X108995857Y-84584000D01*
X109317285Y-85012571D02*
X109245857Y-85048285D01*
X109067285Y-85048285D01*
X108995857Y-85012571D01*
X108960142Y-84941142D01*
X108960142Y-84869714D01*
X108995857Y-84798285D01*
X109067285Y-84762571D01*
X109245857Y-84762571D01*
X109317285Y-84726857D01*
X109674428Y-85048285D02*
X109674428Y-84548285D01*
X109674428Y-84691142D02*
X109710142Y-84619714D01*
X109745857Y-84584000D01*
X109817285Y-84548285D01*
X109888714Y-84548285D01*
X110138714Y-85048285D02*
X110138714Y-84548285D01*
X110138714Y-84619714D02*
X110174428Y-84584000D01*
X110245857Y-84548285D01*
X110353000Y-84548285D01*
X110424428Y-84584000D01*
X110460142Y-84655428D01*
X110460142Y-85048285D01*
X110460142Y-84655428D02*
X110495857Y-84584000D01*
X110567285Y-84548285D01*
X110674428Y-84548285D01*
X110745857Y-84584000D01*
X110781571Y-84655428D01*
X110781571Y-85048285D01*
X111245857Y-85048285D02*
X111174428Y-85012571D01*
X111138714Y-84976857D01*
X111103000Y-84905428D01*
X111103000Y-84691142D01*
X111138714Y-84619714D01*
X111174428Y-84584000D01*
X111245857Y-84548285D01*
X111353000Y-84548285D01*
X111424428Y-84584000D01*
X111460142Y-84619714D01*
X111495857Y-84691142D01*
X111495857Y-84905428D01*
X111460142Y-84976857D01*
X111424428Y-85012571D01*
X111353000Y-85048285D01*
X111245857Y-85048285D01*
X111817285Y-84548285D02*
X111817285Y-85048285D01*
X111817285Y-84619714D02*
X111853000Y-84584000D01*
X111924428Y-84548285D01*
X112031571Y-84548285D01*
X112103000Y-84584000D01*
X112138714Y-84655428D01*
X112138714Y-85048285D01*
%TO.C,JP1*%
X169854666Y-101941380D02*
X169854666Y-102655666D01*
X169807047Y-102798523D01*
X169711809Y-102893761D01*
X169568952Y-102941380D01*
X169473714Y-102941380D01*
X170330857Y-102941380D02*
X170330857Y-101941380D01*
X170711809Y-101941380D01*
X170807047Y-101989000D01*
X170854666Y-102036619D01*
X170902285Y-102131857D01*
X170902285Y-102274714D01*
X170854666Y-102369952D01*
X170807047Y-102417571D01*
X170711809Y-102465190D01*
X170330857Y-102465190D01*
X171854666Y-102941380D02*
X171283238Y-102941380D01*
X171568952Y-102941380D02*
X171568952Y-101941380D01*
X171473714Y-102084238D01*
X171378476Y-102179476D01*
X171283238Y-102227095D01*
%TO.C,FFOSD1*%
X178713095Y-105338571D02*
X178379761Y-105338571D01*
X178379761Y-105862380D02*
X178379761Y-104862380D01*
X178855952Y-104862380D01*
X179570238Y-105338571D02*
X179236904Y-105338571D01*
X179236904Y-105862380D02*
X179236904Y-104862380D01*
X179713095Y-104862380D01*
X180284523Y-104862380D02*
X180475000Y-104862380D01*
X180570238Y-104910000D01*
X180665476Y-105005238D01*
X180713095Y-105195714D01*
X180713095Y-105529047D01*
X180665476Y-105719523D01*
X180570238Y-105814761D01*
X180475000Y-105862380D01*
X180284523Y-105862380D01*
X180189285Y-105814761D01*
X180094047Y-105719523D01*
X180046428Y-105529047D01*
X180046428Y-105195714D01*
X180094047Y-105005238D01*
X180189285Y-104910000D01*
X180284523Y-104862380D01*
X181094047Y-105814761D02*
X181236904Y-105862380D01*
X181475000Y-105862380D01*
X181570238Y-105814761D01*
X181617857Y-105767142D01*
X181665476Y-105671904D01*
X181665476Y-105576666D01*
X181617857Y-105481428D01*
X181570238Y-105433809D01*
X181475000Y-105386190D01*
X181284523Y-105338571D01*
X181189285Y-105290952D01*
X181141666Y-105243333D01*
X181094047Y-105148095D01*
X181094047Y-105052857D01*
X181141666Y-104957619D01*
X181189285Y-104910000D01*
X181284523Y-104862380D01*
X181522619Y-104862380D01*
X181665476Y-104910000D01*
X182094047Y-105862380D02*
X182094047Y-104862380D01*
X182332142Y-104862380D01*
X182475000Y-104910000D01*
X182570238Y-105005238D01*
X182617857Y-105100476D01*
X182665476Y-105290952D01*
X182665476Y-105433809D01*
X182617857Y-105624285D01*
X182570238Y-105719523D01*
X182475000Y-105814761D01*
X182332142Y-105862380D01*
X182094047Y-105862380D01*
X183617857Y-105862380D02*
X183046428Y-105862380D01*
X183332142Y-105862380D02*
X183332142Y-104862380D01*
X183236904Y-105005238D01*
X183141666Y-105100476D01*
X183046428Y-105148095D01*
%TO.C,P1*%
X173124904Y-81097380D02*
X173124904Y-80097380D01*
X173505857Y-80097380D01*
X173601095Y-80145000D01*
X173648714Y-80192619D01*
X173696333Y-80287857D01*
X173696333Y-80430714D01*
X173648714Y-80525952D01*
X173601095Y-80573571D01*
X173505857Y-80621190D01*
X173124904Y-80621190D01*
X174648714Y-81097380D02*
X174077285Y-81097380D01*
X174363000Y-81097380D02*
X174363000Y-80097380D01*
X174267761Y-80240238D01*
X174172523Y-80335476D01*
X174077285Y-80383095D01*
%TO.C,R7*%
X118578333Y-90368380D02*
X118245000Y-89892190D01*
X118006904Y-90368380D02*
X118006904Y-89368380D01*
X118387857Y-89368380D01*
X118483095Y-89416000D01*
X118530714Y-89463619D01*
X118578333Y-89558857D01*
X118578333Y-89701714D01*
X118530714Y-89796952D01*
X118483095Y-89844571D01*
X118387857Y-89892190D01*
X118006904Y-89892190D01*
X118911666Y-89368380D02*
X119578333Y-89368380D01*
X119149761Y-90368380D01*
X118584285Y-91525285D02*
X118155714Y-91525285D01*
X118370000Y-91525285D02*
X118370000Y-90775285D01*
X118298571Y-90882428D01*
X118227142Y-90953857D01*
X118155714Y-90989571D01*
X118905714Y-91525285D02*
X118905714Y-90775285D01*
X119334285Y-91525285D02*
X119012857Y-91096714D01*
X119334285Y-90775285D02*
X118905714Y-91203857D01*
%TO.C,R6*%
X124928333Y-90368380D02*
X124595000Y-89892190D01*
X124356904Y-90368380D02*
X124356904Y-89368380D01*
X124737857Y-89368380D01*
X124833095Y-89416000D01*
X124880714Y-89463619D01*
X124928333Y-89558857D01*
X124928333Y-89701714D01*
X124880714Y-89796952D01*
X124833095Y-89844571D01*
X124737857Y-89892190D01*
X124356904Y-89892190D01*
X125785476Y-89368380D02*
X125595000Y-89368380D01*
X125499761Y-89416000D01*
X125452142Y-89463619D01*
X125356904Y-89606476D01*
X125309285Y-89796952D01*
X125309285Y-90177904D01*
X125356904Y-90273142D01*
X125404523Y-90320761D01*
X125499761Y-90368380D01*
X125690238Y-90368380D01*
X125785476Y-90320761D01*
X125833095Y-90273142D01*
X125880714Y-90177904D01*
X125880714Y-89939809D01*
X125833095Y-89844571D01*
X125785476Y-89796952D01*
X125690238Y-89749333D01*
X125499761Y-89749333D01*
X125404523Y-89796952D01*
X125356904Y-89844571D01*
X125309285Y-89939809D01*
X124934285Y-91525285D02*
X124505714Y-91525285D01*
X124720000Y-91525285D02*
X124720000Y-90775285D01*
X124648571Y-90882428D01*
X124577142Y-90953857D01*
X124505714Y-90989571D01*
X125255714Y-91525285D02*
X125255714Y-90775285D01*
X125684285Y-91525285D02*
X125362857Y-91096714D01*
X125684285Y-90775285D02*
X125255714Y-91203857D01*
%TO.C,BT3*%
X117324285Y-94797571D02*
X117467142Y-94845190D01*
X117514761Y-94892809D01*
X117562380Y-94988047D01*
X117562380Y-95130904D01*
X117514761Y-95226142D01*
X117467142Y-95273761D01*
X117371904Y-95321380D01*
X116990952Y-95321380D01*
X116990952Y-94321380D01*
X117324285Y-94321380D01*
X117419523Y-94369000D01*
X117467142Y-94416619D01*
X117514761Y-94511857D01*
X117514761Y-94607095D01*
X117467142Y-94702333D01*
X117419523Y-94749952D01*
X117324285Y-94797571D01*
X116990952Y-94797571D01*
X117848095Y-94321380D02*
X118419523Y-94321380D01*
X118133809Y-95321380D02*
X118133809Y-94321380D01*
X118657619Y-94321380D02*
X119276666Y-94321380D01*
X118943333Y-94702333D01*
X119086190Y-94702333D01*
X119181428Y-94749952D01*
X119229047Y-94797571D01*
X119276666Y-94892809D01*
X119276666Y-95130904D01*
X119229047Y-95226142D01*
X119181428Y-95273761D01*
X119086190Y-95321380D01*
X118800476Y-95321380D01*
X118705238Y-95273761D01*
X118657619Y-95226142D01*
%TO.C,BT2*%
X123674285Y-94797571D02*
X123817142Y-94845190D01*
X123864761Y-94892809D01*
X123912380Y-94988047D01*
X123912380Y-95130904D01*
X123864761Y-95226142D01*
X123817142Y-95273761D01*
X123721904Y-95321380D01*
X123340952Y-95321380D01*
X123340952Y-94321380D01*
X123674285Y-94321380D01*
X123769523Y-94369000D01*
X123817142Y-94416619D01*
X123864761Y-94511857D01*
X123864761Y-94607095D01*
X123817142Y-94702333D01*
X123769523Y-94749952D01*
X123674285Y-94797571D01*
X123340952Y-94797571D01*
X124198095Y-94321380D02*
X124769523Y-94321380D01*
X124483809Y-95321380D02*
X124483809Y-94321380D01*
X125055238Y-94416619D02*
X125102857Y-94369000D01*
X125198095Y-94321380D01*
X125436190Y-94321380D01*
X125531428Y-94369000D01*
X125579047Y-94416619D01*
X125626666Y-94511857D01*
X125626666Y-94607095D01*
X125579047Y-94749952D01*
X125007619Y-95321380D01*
X125626666Y-95321380D01*
%TO.C,C5*%
X167473333Y-83542142D02*
X167425714Y-83589761D01*
X167282857Y-83637380D01*
X167187619Y-83637380D01*
X167044761Y-83589761D01*
X166949523Y-83494523D01*
X166901904Y-83399285D01*
X166854285Y-83208809D01*
X166854285Y-83065952D01*
X166901904Y-82875476D01*
X166949523Y-82780238D01*
X167044761Y-82685000D01*
X167187619Y-82637380D01*
X167282857Y-82637380D01*
X167425714Y-82685000D01*
X167473333Y-82732619D01*
X168378095Y-82637380D02*
X167901904Y-82637380D01*
X167854285Y-83113571D01*
X167901904Y-83065952D01*
X167997142Y-83018333D01*
X168235238Y-83018333D01*
X168330476Y-83065952D01*
X168378095Y-83113571D01*
X168425714Y-83208809D01*
X168425714Y-83446904D01*
X168378095Y-83542142D01*
X168330476Y-83589761D01*
X168235238Y-83637380D01*
X167997142Y-83637380D01*
X167901904Y-83589761D01*
X167854285Y-83542142D01*
X166479285Y-84667285D02*
X166050714Y-84667285D01*
X166265000Y-84667285D02*
X166265000Y-83917285D01*
X166193571Y-84024428D01*
X166122142Y-84095857D01*
X166050714Y-84131571D01*
X166943571Y-83917285D02*
X167015000Y-83917285D01*
X167086428Y-83953000D01*
X167122142Y-83988714D01*
X167157857Y-84060142D01*
X167193571Y-84203000D01*
X167193571Y-84381571D01*
X167157857Y-84524428D01*
X167122142Y-84595857D01*
X167086428Y-84631571D01*
X167015000Y-84667285D01*
X166943571Y-84667285D01*
X166872142Y-84631571D01*
X166836428Y-84595857D01*
X166800714Y-84524428D01*
X166765000Y-84381571D01*
X166765000Y-84203000D01*
X166800714Y-84060142D01*
X166836428Y-83988714D01*
X166872142Y-83953000D01*
X166943571Y-83917285D01*
X167657857Y-83917285D02*
X167729285Y-83917285D01*
X167800714Y-83953000D01*
X167836428Y-83988714D01*
X167872142Y-84060142D01*
X167907857Y-84203000D01*
X167907857Y-84381571D01*
X167872142Y-84524428D01*
X167836428Y-84595857D01*
X167800714Y-84631571D01*
X167729285Y-84667285D01*
X167657857Y-84667285D01*
X167586428Y-84631571D01*
X167550714Y-84595857D01*
X167515000Y-84524428D01*
X167479285Y-84381571D01*
X167479285Y-84203000D01*
X167515000Y-84060142D01*
X167550714Y-83988714D01*
X167586428Y-83953000D01*
X167657857Y-83917285D01*
X168229285Y-84167285D02*
X168229285Y-84667285D01*
X168229285Y-84238714D02*
X168265000Y-84203000D01*
X168336428Y-84167285D01*
X168443571Y-84167285D01*
X168515000Y-84203000D01*
X168550714Y-84274428D01*
X168550714Y-84667285D01*
X169157857Y-84274428D02*
X168907857Y-84274428D01*
X168907857Y-84667285D02*
X168907857Y-83917285D01*
X169265000Y-83917285D01*
%TO.C,U2*%
X166878095Y-92797380D02*
X166878095Y-93606904D01*
X166925714Y-93702142D01*
X166973333Y-93749761D01*
X167068571Y-93797380D01*
X167259047Y-93797380D01*
X167354285Y-93749761D01*
X167401904Y-93702142D01*
X167449523Y-93606904D01*
X167449523Y-92797380D01*
X167878095Y-92892619D02*
X167925714Y-92845000D01*
X168020952Y-92797380D01*
X168259047Y-92797380D01*
X168354285Y-92845000D01*
X168401904Y-92892619D01*
X168449523Y-92987857D01*
X168449523Y-93083095D01*
X168401904Y-93225952D01*
X167830476Y-93797380D01*
X168449523Y-93797380D01*
%TO.C,R5*%
X171156333Y-91892380D02*
X170823000Y-91416190D01*
X170584904Y-91892380D02*
X170584904Y-90892380D01*
X170965857Y-90892380D01*
X171061095Y-90940000D01*
X171108714Y-90987619D01*
X171156333Y-91082857D01*
X171156333Y-91225714D01*
X171108714Y-91320952D01*
X171061095Y-91368571D01*
X170965857Y-91416190D01*
X170584904Y-91416190D01*
X172061095Y-90892380D02*
X171584904Y-90892380D01*
X171537285Y-91368571D01*
X171584904Y-91320952D01*
X171680142Y-91273333D01*
X171918238Y-91273333D01*
X172013476Y-91320952D01*
X172061095Y-91368571D01*
X172108714Y-91463809D01*
X172108714Y-91701904D01*
X172061095Y-91797142D01*
X172013476Y-91844761D01*
X171918238Y-91892380D01*
X171680142Y-91892380D01*
X171584904Y-91844761D01*
X171537285Y-91797142D01*
X170267428Y-92370714D02*
X170303142Y-92335000D01*
X170374571Y-92299285D01*
X170553142Y-92299285D01*
X170624571Y-92335000D01*
X170660285Y-92370714D01*
X170696000Y-92442142D01*
X170696000Y-92513571D01*
X170660285Y-92620714D01*
X170231714Y-93049285D01*
X170696000Y-93049285D01*
X170946000Y-92299285D02*
X171446000Y-92299285D01*
X171124571Y-93049285D01*
X171874571Y-92299285D02*
X171946000Y-92299285D01*
X172017428Y-92335000D01*
X172053142Y-92370714D01*
X172088857Y-92442142D01*
X172124571Y-92585000D01*
X172124571Y-92763571D01*
X172088857Y-92906428D01*
X172053142Y-92977857D01*
X172017428Y-93013571D01*
X171946000Y-93049285D01*
X171874571Y-93049285D01*
X171803142Y-93013571D01*
X171767428Y-92977857D01*
X171731714Y-92906428D01*
X171696000Y-92763571D01*
X171696000Y-92585000D01*
X171731714Y-92442142D01*
X171767428Y-92370714D01*
X171803142Y-92335000D01*
X171874571Y-92299285D01*
%TO.C,R4*%
X171283333Y-86939380D02*
X170950000Y-86463190D01*
X170711904Y-86939380D02*
X170711904Y-85939380D01*
X171092857Y-85939380D01*
X171188095Y-85987000D01*
X171235714Y-86034619D01*
X171283333Y-86129857D01*
X171283333Y-86272714D01*
X171235714Y-86367952D01*
X171188095Y-86415571D01*
X171092857Y-86463190D01*
X170711904Y-86463190D01*
X172140476Y-86272714D02*
X172140476Y-86939380D01*
X171902380Y-85891761D02*
X171664285Y-86606047D01*
X172283333Y-86606047D01*
X171416285Y-88223285D02*
X170987714Y-88223285D01*
X171202000Y-88223285D02*
X171202000Y-87473285D01*
X171130571Y-87580428D01*
X171059142Y-87651857D01*
X170987714Y-87687571D01*
X171737714Y-88223285D02*
X171737714Y-87473285D01*
X172166285Y-88223285D02*
X171844857Y-87794714D01*
X172166285Y-87473285D02*
X171737714Y-87901857D01*
%TO.C,JTAG1*%
X121547142Y-79462380D02*
X121547142Y-80176666D01*
X121499523Y-80319523D01*
X121404285Y-80414761D01*
X121261428Y-80462380D01*
X121166190Y-80462380D01*
X121880476Y-79462380D02*
X122451904Y-79462380D01*
X122166190Y-80462380D02*
X122166190Y-79462380D01*
X122737619Y-80176666D02*
X123213809Y-80176666D01*
X122642380Y-80462380D02*
X122975714Y-79462380D01*
X123309047Y-80462380D01*
X124166190Y-79510000D02*
X124070952Y-79462380D01*
X123928095Y-79462380D01*
X123785238Y-79510000D01*
X123690000Y-79605238D01*
X123642380Y-79700476D01*
X123594761Y-79890952D01*
X123594761Y-80033809D01*
X123642380Y-80224285D01*
X123690000Y-80319523D01*
X123785238Y-80414761D01*
X123928095Y-80462380D01*
X124023333Y-80462380D01*
X124166190Y-80414761D01*
X124213809Y-80367142D01*
X124213809Y-80033809D01*
X124023333Y-80033809D01*
X125166190Y-80462380D02*
X124594761Y-80462380D01*
X124880476Y-80462380D02*
X124880476Y-79462380D01*
X124785238Y-79605238D01*
X124690000Y-79700476D01*
X124594761Y-79748095D01*
%TO.C,C1*%
X159726333Y-80621142D02*
X159678714Y-80668761D01*
X159535857Y-80716380D01*
X159440619Y-80716380D01*
X159297761Y-80668761D01*
X159202523Y-80573523D01*
X159154904Y-80478285D01*
X159107285Y-80287809D01*
X159107285Y-80144952D01*
X159154904Y-79954476D01*
X159202523Y-79859238D01*
X159297761Y-79764000D01*
X159440619Y-79716380D01*
X159535857Y-79716380D01*
X159678714Y-79764000D01*
X159726333Y-79811619D01*
X160678714Y-80716380D02*
X160107285Y-80716380D01*
X160393000Y-80716380D02*
X160393000Y-79716380D01*
X160297761Y-79859238D01*
X160202523Y-79954476D01*
X160107285Y-80002095D01*
X159089428Y-82000285D02*
X158660857Y-82000285D01*
X158875142Y-82000285D02*
X158875142Y-81250285D01*
X158803714Y-81357428D01*
X158732285Y-81428857D01*
X158660857Y-81464571D01*
X159553714Y-81250285D02*
X159625142Y-81250285D01*
X159696571Y-81286000D01*
X159732285Y-81321714D01*
X159768000Y-81393142D01*
X159803714Y-81536000D01*
X159803714Y-81714571D01*
X159768000Y-81857428D01*
X159732285Y-81928857D01*
X159696571Y-81964571D01*
X159625142Y-82000285D01*
X159553714Y-82000285D01*
X159482285Y-81964571D01*
X159446571Y-81928857D01*
X159410857Y-81857428D01*
X159375142Y-81714571D01*
X159375142Y-81536000D01*
X159410857Y-81393142D01*
X159446571Y-81321714D01*
X159482285Y-81286000D01*
X159553714Y-81250285D01*
X160446571Y-81500285D02*
X160446571Y-82000285D01*
X160125142Y-81500285D02*
X160125142Y-81893142D01*
X160160857Y-81964571D01*
X160232285Y-82000285D01*
X160339428Y-82000285D01*
X160410857Y-81964571D01*
X160446571Y-81928857D01*
X161053714Y-81607428D02*
X160803714Y-81607428D01*
X160803714Y-82000285D02*
X160803714Y-81250285D01*
X161160857Y-81250285D01*
%TO.C,R3*%
X160488333Y-85161380D02*
X160155000Y-84685190D01*
X159916904Y-85161380D02*
X159916904Y-84161380D01*
X160297857Y-84161380D01*
X160393095Y-84209000D01*
X160440714Y-84256619D01*
X160488333Y-84351857D01*
X160488333Y-84494714D01*
X160440714Y-84589952D01*
X160393095Y-84637571D01*
X160297857Y-84685190D01*
X159916904Y-84685190D01*
X160821666Y-84161380D02*
X161440714Y-84161380D01*
X161107380Y-84542333D01*
X161250238Y-84542333D01*
X161345476Y-84589952D01*
X161393095Y-84637571D01*
X161440714Y-84732809D01*
X161440714Y-84970904D01*
X161393095Y-85066142D01*
X161345476Y-85113761D01*
X161250238Y-85161380D01*
X160964523Y-85161380D01*
X160869285Y-85113761D01*
X160821666Y-85066142D01*
X162427142Y-84548285D02*
X162427142Y-85048285D01*
X162248571Y-84262571D02*
X162070000Y-84798285D01*
X162534285Y-84798285D01*
X162820000Y-84976857D02*
X162855714Y-85012571D01*
X162820000Y-85048285D01*
X162784285Y-85012571D01*
X162820000Y-84976857D01*
X162820000Y-85048285D01*
X163105714Y-84298285D02*
X163605714Y-84298285D01*
X163284285Y-85048285D01*
X163891428Y-85048285D02*
X163891428Y-84298285D01*
X164320000Y-85048285D02*
X163998571Y-84619714D01*
X164320000Y-84298285D02*
X163891428Y-84726857D01*
%TO.C,R2*%
X160488333Y-99512380D02*
X160155000Y-99036190D01*
X159916904Y-99512380D02*
X159916904Y-98512380D01*
X160297857Y-98512380D01*
X160393095Y-98560000D01*
X160440714Y-98607619D01*
X160488333Y-98702857D01*
X160488333Y-98845714D01*
X160440714Y-98940952D01*
X160393095Y-98988571D01*
X160297857Y-99036190D01*
X159916904Y-99036190D01*
X160869285Y-98607619D02*
X160916904Y-98560000D01*
X161012142Y-98512380D01*
X161250238Y-98512380D01*
X161345476Y-98560000D01*
X161393095Y-98607619D01*
X161440714Y-98702857D01*
X161440714Y-98798095D01*
X161393095Y-98940952D01*
X160821666Y-99512380D01*
X161440714Y-99512380D01*
X162653285Y-99399285D02*
X162224714Y-99399285D01*
X162439000Y-99399285D02*
X162439000Y-98649285D01*
X162367571Y-98756428D01*
X162296142Y-98827857D01*
X162224714Y-98863571D01*
X162974714Y-99399285D02*
X162974714Y-98649285D01*
X163403285Y-99399285D02*
X163081857Y-98970714D01*
X163403285Y-98649285D02*
X162974714Y-99077857D01*
%TO.C,R1*%
X131278333Y-90368380D02*
X130945000Y-89892190D01*
X130706904Y-90368380D02*
X130706904Y-89368380D01*
X131087857Y-89368380D01*
X131183095Y-89416000D01*
X131230714Y-89463619D01*
X131278333Y-89558857D01*
X131278333Y-89701714D01*
X131230714Y-89796952D01*
X131183095Y-89844571D01*
X131087857Y-89892190D01*
X130706904Y-89892190D01*
X132230714Y-90368380D02*
X131659285Y-90368380D01*
X131945000Y-90368380D02*
X131945000Y-89368380D01*
X131849761Y-89511238D01*
X131754523Y-89606476D01*
X131659285Y-89654095D01*
X131284285Y-91525285D02*
X130855714Y-91525285D01*
X131070000Y-91525285D02*
X131070000Y-90775285D01*
X130998571Y-90882428D01*
X130927142Y-90953857D01*
X130855714Y-90989571D01*
X131605714Y-91525285D02*
X131605714Y-90775285D01*
X132034285Y-91525285D02*
X131712857Y-91096714D01*
X132034285Y-90775285D02*
X131605714Y-91203857D01*
%TO.C,C4*%
X138136333Y-89257142D02*
X138088714Y-89304761D01*
X137945857Y-89352380D01*
X137850619Y-89352380D01*
X137707761Y-89304761D01*
X137612523Y-89209523D01*
X137564904Y-89114285D01*
X137517285Y-88923809D01*
X137517285Y-88780952D01*
X137564904Y-88590476D01*
X137612523Y-88495238D01*
X137707761Y-88400000D01*
X137850619Y-88352380D01*
X137945857Y-88352380D01*
X138088714Y-88400000D01*
X138136333Y-88447619D01*
X138993476Y-88685714D02*
X138993476Y-89352380D01*
X138755380Y-88304761D02*
X138517285Y-89019047D01*
X139136333Y-89019047D01*
X137396285Y-90509285D02*
X136967714Y-90509285D01*
X137182000Y-90509285D02*
X137182000Y-89759285D01*
X137110571Y-89866428D01*
X137039142Y-89937857D01*
X136967714Y-89973571D01*
X137860571Y-89759285D02*
X137932000Y-89759285D01*
X138003428Y-89795000D01*
X138039142Y-89830714D01*
X138074857Y-89902142D01*
X138110571Y-90045000D01*
X138110571Y-90223571D01*
X138074857Y-90366428D01*
X138039142Y-90437857D01*
X138003428Y-90473571D01*
X137932000Y-90509285D01*
X137860571Y-90509285D01*
X137789142Y-90473571D01*
X137753428Y-90437857D01*
X137717714Y-90366428D01*
X137682000Y-90223571D01*
X137682000Y-90045000D01*
X137717714Y-89902142D01*
X137753428Y-89830714D01*
X137789142Y-89795000D01*
X137860571Y-89759285D01*
X138574857Y-89759285D02*
X138646285Y-89759285D01*
X138717714Y-89795000D01*
X138753428Y-89830714D01*
X138789142Y-89902142D01*
X138824857Y-90045000D01*
X138824857Y-90223571D01*
X138789142Y-90366428D01*
X138753428Y-90437857D01*
X138717714Y-90473571D01*
X138646285Y-90509285D01*
X138574857Y-90509285D01*
X138503428Y-90473571D01*
X138467714Y-90437857D01*
X138432000Y-90366428D01*
X138396285Y-90223571D01*
X138396285Y-90045000D01*
X138432000Y-89902142D01*
X138467714Y-89830714D01*
X138503428Y-89795000D01*
X138574857Y-89759285D01*
X139146285Y-90009285D02*
X139146285Y-90509285D01*
X139146285Y-90080714D02*
X139182000Y-90045000D01*
X139253428Y-90009285D01*
X139360571Y-90009285D01*
X139432000Y-90045000D01*
X139467714Y-90116428D01*
X139467714Y-90509285D01*
X140074857Y-90116428D02*
X139824857Y-90116428D01*
X139824857Y-90509285D02*
X139824857Y-89759285D01*
X140182000Y-89759285D01*
%TO.C,C3*%
X160742333Y-89003142D02*
X160694714Y-89050761D01*
X160551857Y-89098380D01*
X160456619Y-89098380D01*
X160313761Y-89050761D01*
X160218523Y-88955523D01*
X160170904Y-88860285D01*
X160123285Y-88669809D01*
X160123285Y-88526952D01*
X160170904Y-88336476D01*
X160218523Y-88241238D01*
X160313761Y-88146000D01*
X160456619Y-88098380D01*
X160551857Y-88098380D01*
X160694714Y-88146000D01*
X160742333Y-88193619D01*
X161075666Y-88098380D02*
X161694714Y-88098380D01*
X161361380Y-88479333D01*
X161504238Y-88479333D01*
X161599476Y-88526952D01*
X161647095Y-88574571D01*
X161694714Y-88669809D01*
X161694714Y-88907904D01*
X161647095Y-89003142D01*
X161599476Y-89050761D01*
X161504238Y-89098380D01*
X161218523Y-89098380D01*
X161123285Y-89050761D01*
X161075666Y-89003142D01*
X159748285Y-90128285D02*
X159319714Y-90128285D01*
X159534000Y-90128285D02*
X159534000Y-89378285D01*
X159462571Y-89485428D01*
X159391142Y-89556857D01*
X159319714Y-89592571D01*
X160212571Y-89378285D02*
X160284000Y-89378285D01*
X160355428Y-89414000D01*
X160391142Y-89449714D01*
X160426857Y-89521142D01*
X160462571Y-89664000D01*
X160462571Y-89842571D01*
X160426857Y-89985428D01*
X160391142Y-90056857D01*
X160355428Y-90092571D01*
X160284000Y-90128285D01*
X160212571Y-90128285D01*
X160141142Y-90092571D01*
X160105428Y-90056857D01*
X160069714Y-89985428D01*
X160034000Y-89842571D01*
X160034000Y-89664000D01*
X160069714Y-89521142D01*
X160105428Y-89449714D01*
X160141142Y-89414000D01*
X160212571Y-89378285D01*
X160926857Y-89378285D02*
X160998285Y-89378285D01*
X161069714Y-89414000D01*
X161105428Y-89449714D01*
X161141142Y-89521142D01*
X161176857Y-89664000D01*
X161176857Y-89842571D01*
X161141142Y-89985428D01*
X161105428Y-90056857D01*
X161069714Y-90092571D01*
X160998285Y-90128285D01*
X160926857Y-90128285D01*
X160855428Y-90092571D01*
X160819714Y-90056857D01*
X160784000Y-89985428D01*
X160748285Y-89842571D01*
X160748285Y-89664000D01*
X160784000Y-89521142D01*
X160819714Y-89449714D01*
X160855428Y-89414000D01*
X160926857Y-89378285D01*
X161498285Y-89628285D02*
X161498285Y-90128285D01*
X161498285Y-89699714D02*
X161534000Y-89664000D01*
X161605428Y-89628285D01*
X161712571Y-89628285D01*
X161784000Y-89664000D01*
X161819714Y-89735428D01*
X161819714Y-90128285D01*
X162426857Y-89735428D02*
X162176857Y-89735428D01*
X162176857Y-90128285D02*
X162176857Y-89378285D01*
X162534000Y-89378285D01*
%TO.C,C2*%
X144168833Y-80049642D02*
X144121214Y-80097261D01*
X143978357Y-80144880D01*
X143883119Y-80144880D01*
X143740261Y-80097261D01*
X143645023Y-80002023D01*
X143597404Y-79906785D01*
X143549785Y-79716309D01*
X143549785Y-79573452D01*
X143597404Y-79382976D01*
X143645023Y-79287738D01*
X143740261Y-79192500D01*
X143883119Y-79144880D01*
X143978357Y-79144880D01*
X144121214Y-79192500D01*
X144168833Y-79240119D01*
X144549785Y-79240119D02*
X144597404Y-79192500D01*
X144692642Y-79144880D01*
X144930738Y-79144880D01*
X145025976Y-79192500D01*
X145073595Y-79240119D01*
X145121214Y-79335357D01*
X145121214Y-79430595D01*
X145073595Y-79573452D01*
X144502166Y-80144880D01*
X145121214Y-80144880D01*
X143174785Y-81174785D02*
X142746214Y-81174785D01*
X142960500Y-81174785D02*
X142960500Y-80424785D01*
X142889071Y-80531928D01*
X142817642Y-80603357D01*
X142746214Y-80639071D01*
X143639071Y-80424785D02*
X143710500Y-80424785D01*
X143781928Y-80460500D01*
X143817642Y-80496214D01*
X143853357Y-80567642D01*
X143889071Y-80710500D01*
X143889071Y-80889071D01*
X143853357Y-81031928D01*
X143817642Y-81103357D01*
X143781928Y-81139071D01*
X143710500Y-81174785D01*
X143639071Y-81174785D01*
X143567642Y-81139071D01*
X143531928Y-81103357D01*
X143496214Y-81031928D01*
X143460500Y-80889071D01*
X143460500Y-80710500D01*
X143496214Y-80567642D01*
X143531928Y-80496214D01*
X143567642Y-80460500D01*
X143639071Y-80424785D01*
X144353357Y-80424785D02*
X144424785Y-80424785D01*
X144496214Y-80460500D01*
X144531928Y-80496214D01*
X144567642Y-80567642D01*
X144603357Y-80710500D01*
X144603357Y-80889071D01*
X144567642Y-81031928D01*
X144531928Y-81103357D01*
X144496214Y-81139071D01*
X144424785Y-81174785D01*
X144353357Y-81174785D01*
X144281928Y-81139071D01*
X144246214Y-81103357D01*
X144210500Y-81031928D01*
X144174785Y-80889071D01*
X144174785Y-80710500D01*
X144210500Y-80567642D01*
X144246214Y-80496214D01*
X144281928Y-80460500D01*
X144353357Y-80424785D01*
X144924785Y-80674785D02*
X144924785Y-81174785D01*
X144924785Y-80746214D02*
X144960500Y-80710500D01*
X145031928Y-80674785D01*
X145139071Y-80674785D01*
X145210500Y-80710500D01*
X145246214Y-80781928D01*
X145246214Y-81174785D01*
X145853357Y-80781928D02*
X145603357Y-80781928D01*
X145603357Y-81174785D02*
X145603357Y-80424785D01*
X145960500Y-80424785D01*
%TO.C,U1*%
X140081095Y-93495880D02*
X140081095Y-94305404D01*
X140128714Y-94400642D01*
X140176333Y-94448261D01*
X140271571Y-94495880D01*
X140462047Y-94495880D01*
X140557285Y-94448261D01*
X140604904Y-94400642D01*
X140652523Y-94305404D01*
X140652523Y-93495880D01*
X141652523Y-94495880D02*
X141081095Y-94495880D01*
X141366809Y-94495880D02*
X141366809Y-93495880D01*
X141271571Y-93638738D01*
X141176333Y-93733976D01*
X141081095Y-93781595D01*
%TO.C,BT1*%
X130024285Y-94797571D02*
X130167142Y-94845190D01*
X130214761Y-94892809D01*
X130262380Y-94988047D01*
X130262380Y-95130904D01*
X130214761Y-95226142D01*
X130167142Y-95273761D01*
X130071904Y-95321380D01*
X129690952Y-95321380D01*
X129690952Y-94321380D01*
X130024285Y-94321380D01*
X130119523Y-94369000D01*
X130167142Y-94416619D01*
X130214761Y-94511857D01*
X130214761Y-94607095D01*
X130167142Y-94702333D01*
X130119523Y-94749952D01*
X130024285Y-94797571D01*
X129690952Y-94797571D01*
X130548095Y-94321380D02*
X131119523Y-94321380D01*
X130833809Y-95321380D02*
X130833809Y-94321380D01*
X131976666Y-95321380D02*
X131405238Y-95321380D01*
X131690952Y-95321380D02*
X131690952Y-94321380D01*
X131595714Y-94464238D01*
X131500476Y-94559476D01*
X131405238Y-94607095D01*
%TD*%
M02*
