%TF.GenerationSoftware,KiCad,Pcbnew,(5.1.9)-1*%
%TF.CreationDate,2021-05-22T07:09:12+01:00*%
%TF.ProjectId,RGBtoHDMI Amiga Denise DIP CPLD,52474274-6f48-4444-9d49-20416d696761,rev?*%
%TF.SameCoordinates,Original*%
%TF.FileFunction,Legend,Bot*%
%TF.FilePolarity,Positive*%
%FSLAX46Y46*%
G04 Gerber Fmt 4.6, Leading zero omitted, Abs format (unit mm)*
G04 Created by KiCad (PCBNEW (5.1.9)-1) date 2021-05-22 07:09:12*
%MOMM*%
%LPD*%
G01*
G04 APERTURE LIST*
%ADD10C,0.150000*%
%ADD11C,0.120000*%
G04 APERTURE END LIST*
D10*
X137772928Y-103971285D02*
X137772928Y-103221285D01*
X137451500Y-103971285D02*
X137451500Y-103578428D01*
X137487214Y-103507000D01*
X137558642Y-103471285D01*
X137665785Y-103471285D01*
X137737214Y-103507000D01*
X137772928Y-103542714D01*
X137201500Y-103471285D02*
X136915785Y-103471285D01*
X137094357Y-103221285D02*
X137094357Y-103864142D01*
X137058642Y-103935571D01*
X136987214Y-103971285D01*
X136915785Y-103971285D01*
X136772928Y-103471285D02*
X136487214Y-103471285D01*
X136665785Y-103221285D02*
X136665785Y-103864142D01*
X136630071Y-103935571D01*
X136558642Y-103971285D01*
X136487214Y-103971285D01*
X136237214Y-103471285D02*
X136237214Y-104221285D01*
X136237214Y-103507000D02*
X136165785Y-103471285D01*
X136022928Y-103471285D01*
X135951500Y-103507000D01*
X135915785Y-103542714D01*
X135880071Y-103614142D01*
X135880071Y-103828428D01*
X135915785Y-103899857D01*
X135951500Y-103935571D01*
X136022928Y-103971285D01*
X136165785Y-103971285D01*
X136237214Y-103935571D01*
X135594357Y-103935571D02*
X135522928Y-103971285D01*
X135380071Y-103971285D01*
X135308642Y-103935571D01*
X135272928Y-103864142D01*
X135272928Y-103828428D01*
X135308642Y-103757000D01*
X135380071Y-103721285D01*
X135487214Y-103721285D01*
X135558642Y-103685571D01*
X135594357Y-103614142D01*
X135594357Y-103578428D01*
X135558642Y-103507000D01*
X135487214Y-103471285D01*
X135380071Y-103471285D01*
X135308642Y-103507000D01*
X134951500Y-103899857D02*
X134915785Y-103935571D01*
X134951500Y-103971285D01*
X134987214Y-103935571D01*
X134951500Y-103899857D01*
X134951500Y-103971285D01*
X134951500Y-103507000D02*
X134915785Y-103542714D01*
X134951500Y-103578428D01*
X134987214Y-103542714D01*
X134951500Y-103507000D01*
X134951500Y-103578428D01*
X134058642Y-103185571D02*
X134701500Y-104149857D01*
X133272928Y-103185571D02*
X133915785Y-104149857D01*
X132701500Y-103471285D02*
X132701500Y-104078428D01*
X132737214Y-104149857D01*
X132772928Y-104185571D01*
X132844357Y-104221285D01*
X132951500Y-104221285D01*
X133022928Y-104185571D01*
X132701500Y-103935571D02*
X132772928Y-103971285D01*
X132915785Y-103971285D01*
X132987214Y-103935571D01*
X133022928Y-103899857D01*
X133058642Y-103828428D01*
X133058642Y-103614142D01*
X133022928Y-103542714D01*
X132987214Y-103507000D01*
X132915785Y-103471285D01*
X132772928Y-103471285D01*
X132701500Y-103507000D01*
X132344357Y-103971285D02*
X132344357Y-103471285D01*
X132344357Y-103221285D02*
X132380071Y-103257000D01*
X132344357Y-103292714D01*
X132308642Y-103257000D01*
X132344357Y-103221285D01*
X132344357Y-103292714D01*
X132094357Y-103471285D02*
X131808642Y-103471285D01*
X131987214Y-103221285D02*
X131987214Y-103864142D01*
X131951500Y-103935571D01*
X131880071Y-103971285D01*
X131808642Y-103971285D01*
X131558642Y-103971285D02*
X131558642Y-103221285D01*
X131237214Y-103971285D02*
X131237214Y-103578428D01*
X131272928Y-103507000D01*
X131344357Y-103471285D01*
X131451500Y-103471285D01*
X131522928Y-103507000D01*
X131558642Y-103542714D01*
X130558642Y-103471285D02*
X130558642Y-103971285D01*
X130880071Y-103471285D02*
X130880071Y-103864142D01*
X130844357Y-103935571D01*
X130772928Y-103971285D01*
X130665785Y-103971285D01*
X130594357Y-103935571D01*
X130558642Y-103899857D01*
X130201500Y-103971285D02*
X130201500Y-103221285D01*
X130201500Y-103507000D02*
X130130071Y-103471285D01*
X129987214Y-103471285D01*
X129915785Y-103507000D01*
X129880071Y-103542714D01*
X129844357Y-103614142D01*
X129844357Y-103828428D01*
X129880071Y-103899857D01*
X129915785Y-103935571D01*
X129987214Y-103971285D01*
X130130071Y-103971285D01*
X130201500Y-103935571D01*
X129522928Y-103899857D02*
X129487214Y-103935571D01*
X129522928Y-103971285D01*
X129558642Y-103935571D01*
X129522928Y-103899857D01*
X129522928Y-103971285D01*
X128844357Y-103935571D02*
X128915785Y-103971285D01*
X129058642Y-103971285D01*
X129130071Y-103935571D01*
X129165785Y-103899857D01*
X129201500Y-103828428D01*
X129201500Y-103614142D01*
X129165785Y-103542714D01*
X129130071Y-103507000D01*
X129058642Y-103471285D01*
X128915785Y-103471285D01*
X128844357Y-103507000D01*
X128415785Y-103971285D02*
X128487214Y-103935571D01*
X128522928Y-103899857D01*
X128558642Y-103828428D01*
X128558642Y-103614142D01*
X128522928Y-103542714D01*
X128487214Y-103507000D01*
X128415785Y-103471285D01*
X128308642Y-103471285D01*
X128237214Y-103507000D01*
X128201500Y-103542714D01*
X128165785Y-103614142D01*
X128165785Y-103828428D01*
X128201500Y-103899857D01*
X128237214Y-103935571D01*
X128308642Y-103971285D01*
X128415785Y-103971285D01*
X127844357Y-103971285D02*
X127844357Y-103471285D01*
X127844357Y-103542714D02*
X127808642Y-103507000D01*
X127737214Y-103471285D01*
X127630071Y-103471285D01*
X127558642Y-103507000D01*
X127522928Y-103578428D01*
X127522928Y-103971285D01*
X127522928Y-103578428D02*
X127487214Y-103507000D01*
X127415785Y-103471285D01*
X127308642Y-103471285D01*
X127237214Y-103507000D01*
X127201500Y-103578428D01*
X127201500Y-103971285D01*
X126308642Y-103185571D02*
X126951500Y-104149857D01*
X126094357Y-103935571D02*
X126022928Y-103971285D01*
X125880071Y-103971285D01*
X125808642Y-103935571D01*
X125772928Y-103864142D01*
X125772928Y-103828428D01*
X125808642Y-103757000D01*
X125880071Y-103721285D01*
X125987214Y-103721285D01*
X126058642Y-103685571D01*
X126094357Y-103614142D01*
X126094357Y-103578428D01*
X126058642Y-103507000D01*
X125987214Y-103471285D01*
X125880071Y-103471285D01*
X125808642Y-103507000D01*
X125344357Y-103971285D02*
X125415785Y-103935571D01*
X125451500Y-103899857D01*
X125487214Y-103828428D01*
X125487214Y-103614142D01*
X125451500Y-103542714D01*
X125415785Y-103507000D01*
X125344357Y-103471285D01*
X125237214Y-103471285D01*
X125165785Y-103507000D01*
X125130071Y-103542714D01*
X125094357Y-103614142D01*
X125094357Y-103828428D01*
X125130071Y-103899857D01*
X125165785Y-103935571D01*
X125237214Y-103971285D01*
X125344357Y-103971285D01*
X124665785Y-103971285D02*
X124737214Y-103935571D01*
X124772928Y-103864142D01*
X124772928Y-103221285D01*
X124058642Y-103971285D02*
X124058642Y-103578428D01*
X124094357Y-103507000D01*
X124165785Y-103471285D01*
X124308642Y-103471285D01*
X124380071Y-103507000D01*
X124058642Y-103935571D02*
X124130071Y-103971285D01*
X124308642Y-103971285D01*
X124380071Y-103935571D01*
X124415785Y-103864142D01*
X124415785Y-103792714D01*
X124380071Y-103721285D01*
X124308642Y-103685571D01*
X124130071Y-103685571D01*
X124058642Y-103649857D01*
X123701499Y-103971285D02*
X123701499Y-103471285D01*
X123701499Y-103614142D02*
X123665785Y-103542714D01*
X123630071Y-103507000D01*
X123558642Y-103471285D01*
X123487214Y-103471285D01*
X123237214Y-103971285D02*
X123237214Y-103471285D01*
X123237214Y-103542714D02*
X123201499Y-103507000D01*
X123130071Y-103471285D01*
X123022928Y-103471285D01*
X122951499Y-103507000D01*
X122915785Y-103578428D01*
X122915785Y-103971285D01*
X122915785Y-103578428D02*
X122880071Y-103507000D01*
X122808642Y-103471285D01*
X122701499Y-103471285D01*
X122630071Y-103507000D01*
X122594357Y-103578428D01*
X122594357Y-103971285D01*
X122130071Y-103971285D02*
X122201499Y-103935571D01*
X122237214Y-103899857D01*
X122272928Y-103828428D01*
X122272928Y-103614142D01*
X122237214Y-103542714D01*
X122201499Y-103507000D01*
X122130071Y-103471285D01*
X122022928Y-103471285D01*
X121951499Y-103507000D01*
X121915785Y-103542714D01*
X121880071Y-103614142D01*
X121880071Y-103828428D01*
X121915785Y-103899857D01*
X121951499Y-103935571D01*
X122022928Y-103971285D01*
X122130071Y-103971285D01*
X121558642Y-103471285D02*
X121558642Y-103971285D01*
X121558642Y-103542714D02*
X121522928Y-103507000D01*
X121451499Y-103471285D01*
X121344357Y-103471285D01*
X121272928Y-103507000D01*
X121237214Y-103578428D01*
X121237214Y-103971285D01*
X120344357Y-103185571D02*
X120987214Y-104149857D01*
X119665785Y-103971285D02*
X119915785Y-103614142D01*
X120094357Y-103971285D02*
X120094357Y-103221285D01*
X119808642Y-103221285D01*
X119737214Y-103257000D01*
X119701500Y-103292714D01*
X119665785Y-103364142D01*
X119665785Y-103471285D01*
X119701500Y-103542714D01*
X119737214Y-103578428D01*
X119808642Y-103614142D01*
X120094357Y-103614142D01*
X118951500Y-103257000D02*
X119022928Y-103221285D01*
X119130071Y-103221285D01*
X119237214Y-103257000D01*
X119308642Y-103328428D01*
X119344357Y-103399857D01*
X119380071Y-103542714D01*
X119380071Y-103649857D01*
X119344357Y-103792714D01*
X119308642Y-103864142D01*
X119237214Y-103935571D01*
X119130071Y-103971285D01*
X119058642Y-103971285D01*
X118951500Y-103935571D01*
X118915785Y-103899857D01*
X118915785Y-103649857D01*
X119058642Y-103649857D01*
X118344357Y-103578428D02*
X118237214Y-103614142D01*
X118201499Y-103649857D01*
X118165785Y-103721285D01*
X118165785Y-103828428D01*
X118201499Y-103899857D01*
X118237214Y-103935571D01*
X118308642Y-103971285D01*
X118594357Y-103971285D01*
X118594357Y-103221285D01*
X118344357Y-103221285D01*
X118272928Y-103257000D01*
X118237214Y-103292714D01*
X118201499Y-103364142D01*
X118201499Y-103435571D01*
X118237214Y-103507000D01*
X118272928Y-103542714D01*
X118344357Y-103578428D01*
X118594357Y-103578428D01*
X117951499Y-103471285D02*
X117665785Y-103471285D01*
X117844357Y-103221285D02*
X117844357Y-103864142D01*
X117808642Y-103935571D01*
X117737214Y-103971285D01*
X117665785Y-103971285D01*
X117308642Y-103971285D02*
X117380071Y-103935571D01*
X117415785Y-103899857D01*
X117451499Y-103828428D01*
X117451499Y-103614142D01*
X117415785Y-103542714D01*
X117380071Y-103507000D01*
X117308642Y-103471285D01*
X117201499Y-103471285D01*
X117130071Y-103507000D01*
X117094357Y-103542714D01*
X117058642Y-103614142D01*
X117058642Y-103828428D01*
X117094357Y-103899857D01*
X117130071Y-103935571D01*
X117201499Y-103971285D01*
X117308642Y-103971285D01*
X116737214Y-103971285D02*
X116737214Y-103221285D01*
X116737214Y-103578428D02*
X116308642Y-103578428D01*
X116308642Y-103971285D02*
X116308642Y-103221285D01*
X115951499Y-103971285D02*
X115951499Y-103221285D01*
X115772928Y-103221285D01*
X115665785Y-103257000D01*
X115594357Y-103328428D01*
X115558642Y-103399857D01*
X115522928Y-103542714D01*
X115522928Y-103649857D01*
X115558642Y-103792714D01*
X115594357Y-103864142D01*
X115665785Y-103935571D01*
X115772928Y-103971285D01*
X115951499Y-103971285D01*
X115201499Y-103971285D02*
X115201499Y-103221285D01*
X114951499Y-103757000D01*
X114701499Y-103221285D01*
X114701499Y-103971285D01*
X114344357Y-103971285D02*
X114344357Y-103221285D01*
X137772928Y-93676785D02*
X137772928Y-92926785D01*
X137451500Y-93676785D02*
X137451500Y-93283928D01*
X137487214Y-93212500D01*
X137558642Y-93176785D01*
X137665785Y-93176785D01*
X137737214Y-93212500D01*
X137772928Y-93248214D01*
X137201500Y-93176785D02*
X136915785Y-93176785D01*
X137094357Y-92926785D02*
X137094357Y-93569642D01*
X137058642Y-93641071D01*
X136987214Y-93676785D01*
X136915785Y-93676785D01*
X136772928Y-93176785D02*
X136487214Y-93176785D01*
X136665785Y-92926785D02*
X136665785Y-93569642D01*
X136630071Y-93641071D01*
X136558642Y-93676785D01*
X136487214Y-93676785D01*
X136237214Y-93176785D02*
X136237214Y-93926785D01*
X136237214Y-93212500D02*
X136165785Y-93176785D01*
X136022928Y-93176785D01*
X135951500Y-93212500D01*
X135915785Y-93248214D01*
X135880071Y-93319642D01*
X135880071Y-93533928D01*
X135915785Y-93605357D01*
X135951500Y-93641071D01*
X136022928Y-93676785D01*
X136165785Y-93676785D01*
X136237214Y-93641071D01*
X135594357Y-93641071D02*
X135522928Y-93676785D01*
X135380071Y-93676785D01*
X135308642Y-93641071D01*
X135272928Y-93569642D01*
X135272928Y-93533928D01*
X135308642Y-93462500D01*
X135380071Y-93426785D01*
X135487214Y-93426785D01*
X135558642Y-93391071D01*
X135594357Y-93319642D01*
X135594357Y-93283928D01*
X135558642Y-93212500D01*
X135487214Y-93176785D01*
X135380071Y-93176785D01*
X135308642Y-93212500D01*
X134951500Y-93605357D02*
X134915785Y-93641071D01*
X134951500Y-93676785D01*
X134987214Y-93641071D01*
X134951500Y-93605357D01*
X134951500Y-93676785D01*
X134951500Y-93212500D02*
X134915785Y-93248214D01*
X134951500Y-93283928D01*
X134987214Y-93248214D01*
X134951500Y-93212500D01*
X134951500Y-93283928D01*
X134058642Y-92891071D02*
X134701500Y-93855357D01*
X133272928Y-92891071D02*
X133915785Y-93855357D01*
X132701500Y-93176785D02*
X132701500Y-93783928D01*
X132737214Y-93855357D01*
X132772928Y-93891071D01*
X132844357Y-93926785D01*
X132951500Y-93926785D01*
X133022928Y-93891071D01*
X132701500Y-93641071D02*
X132772928Y-93676785D01*
X132915785Y-93676785D01*
X132987214Y-93641071D01*
X133022928Y-93605357D01*
X133058642Y-93533928D01*
X133058642Y-93319642D01*
X133022928Y-93248214D01*
X132987214Y-93212500D01*
X132915785Y-93176785D01*
X132772928Y-93176785D01*
X132701500Y-93212500D01*
X132344357Y-93676785D02*
X132344357Y-93176785D01*
X132344357Y-92926785D02*
X132380071Y-92962500D01*
X132344357Y-92998214D01*
X132308642Y-92962500D01*
X132344357Y-92926785D01*
X132344357Y-92998214D01*
X132094357Y-93176785D02*
X131808642Y-93176785D01*
X131987214Y-92926785D02*
X131987214Y-93569642D01*
X131951500Y-93641071D01*
X131880071Y-93676785D01*
X131808642Y-93676785D01*
X131558642Y-93676785D02*
X131558642Y-92926785D01*
X131237214Y-93676785D02*
X131237214Y-93283928D01*
X131272928Y-93212500D01*
X131344357Y-93176785D01*
X131451500Y-93176785D01*
X131522928Y-93212500D01*
X131558642Y-93248214D01*
X130558642Y-93176785D02*
X130558642Y-93676785D01*
X130880071Y-93176785D02*
X130880071Y-93569642D01*
X130844357Y-93641071D01*
X130772928Y-93676785D01*
X130665785Y-93676785D01*
X130594357Y-93641071D01*
X130558642Y-93605357D01*
X130201500Y-93676785D02*
X130201500Y-92926785D01*
X130201500Y-93212500D02*
X130130071Y-93176785D01*
X129987214Y-93176785D01*
X129915785Y-93212500D01*
X129880071Y-93248214D01*
X129844357Y-93319642D01*
X129844357Y-93533928D01*
X129880071Y-93605357D01*
X129915785Y-93641071D01*
X129987214Y-93676785D01*
X130130071Y-93676785D01*
X130201500Y-93641071D01*
X129522928Y-93605357D02*
X129487214Y-93641071D01*
X129522928Y-93676785D01*
X129558642Y-93641071D01*
X129522928Y-93605357D01*
X129522928Y-93676785D01*
X128844357Y-93641071D02*
X128915785Y-93676785D01*
X129058642Y-93676785D01*
X129130071Y-93641071D01*
X129165785Y-93605357D01*
X129201500Y-93533928D01*
X129201500Y-93319642D01*
X129165785Y-93248214D01*
X129130071Y-93212500D01*
X129058642Y-93176785D01*
X128915785Y-93176785D01*
X128844357Y-93212500D01*
X128415785Y-93676785D02*
X128487214Y-93641071D01*
X128522928Y-93605357D01*
X128558642Y-93533928D01*
X128558642Y-93319642D01*
X128522928Y-93248214D01*
X128487214Y-93212500D01*
X128415785Y-93176785D01*
X128308642Y-93176785D01*
X128237214Y-93212500D01*
X128201500Y-93248214D01*
X128165785Y-93319642D01*
X128165785Y-93533928D01*
X128201500Y-93605357D01*
X128237214Y-93641071D01*
X128308642Y-93676785D01*
X128415785Y-93676785D01*
X127844357Y-93676785D02*
X127844357Y-93176785D01*
X127844357Y-93248214D02*
X127808642Y-93212500D01*
X127737214Y-93176785D01*
X127630071Y-93176785D01*
X127558642Y-93212500D01*
X127522928Y-93283928D01*
X127522928Y-93676785D01*
X127522928Y-93283928D02*
X127487214Y-93212500D01*
X127415785Y-93176785D01*
X127308642Y-93176785D01*
X127237214Y-93212500D01*
X127201500Y-93283928D01*
X127201500Y-93676785D01*
X126308642Y-92891071D02*
X126951500Y-93855357D01*
X125701500Y-93676785D02*
X126058642Y-93676785D01*
X126058642Y-92926785D01*
X125451500Y-93676785D02*
X125451500Y-93176785D01*
X125451500Y-92926785D02*
X125487214Y-92962500D01*
X125451500Y-92998214D01*
X125415785Y-92962500D01*
X125451500Y-92926785D01*
X125451500Y-92998214D01*
X125094357Y-93176785D02*
X125094357Y-93676785D01*
X125094357Y-93248214D02*
X125058642Y-93212500D01*
X124987214Y-93176785D01*
X124880071Y-93176785D01*
X124808642Y-93212500D01*
X124772928Y-93283928D01*
X124772928Y-93676785D01*
X124094357Y-93176785D02*
X124094357Y-93676785D01*
X124415785Y-93176785D02*
X124415785Y-93569642D01*
X124380071Y-93641071D01*
X124308642Y-93676785D01*
X124201500Y-93676785D01*
X124130071Y-93641071D01*
X124094357Y-93605357D01*
X123808642Y-93676785D02*
X123415785Y-93176785D01*
X123808642Y-93176785D02*
X123415785Y-93676785D01*
X122915785Y-92926785D02*
X122915785Y-93462500D01*
X122951500Y-93569642D01*
X123022928Y-93641071D01*
X123130071Y-93676785D01*
X123201500Y-93676785D01*
X122272928Y-93641071D02*
X122344357Y-93676785D01*
X122487214Y-93676785D01*
X122558642Y-93641071D01*
X122594357Y-93569642D01*
X122594357Y-93283928D01*
X122558642Y-93212500D01*
X122487214Y-93176785D01*
X122344357Y-93176785D01*
X122272928Y-93212500D01*
X122237214Y-93283928D01*
X122237214Y-93355357D01*
X122594357Y-93426785D01*
X121594357Y-93676785D02*
X121594357Y-92926785D01*
X121594357Y-93641071D02*
X121665785Y-93676785D01*
X121808642Y-93676785D01*
X121880071Y-93641071D01*
X121915785Y-93605357D01*
X121951500Y-93533928D01*
X121951500Y-93319642D01*
X121915785Y-93248214D01*
X121880071Y-93212500D01*
X121808642Y-93176785D01*
X121665785Y-93176785D01*
X121594357Y-93212500D01*
X121237214Y-93676785D02*
X121237214Y-93176785D01*
X121237214Y-92926785D02*
X121272928Y-92962500D01*
X121237214Y-92998214D01*
X121201500Y-92962500D01*
X121237214Y-92926785D01*
X121237214Y-92998214D01*
X120344357Y-92891071D02*
X120987214Y-93855357D01*
X120130071Y-93462500D02*
X119772928Y-93462500D01*
X120201500Y-93676785D02*
X119951500Y-92926785D01*
X119701500Y-93676785D01*
X119451500Y-93676785D02*
X119451500Y-93176785D01*
X119451500Y-93248214D02*
X119415785Y-93212500D01*
X119344357Y-93176785D01*
X119237214Y-93176785D01*
X119165785Y-93212500D01*
X119130071Y-93283928D01*
X119130071Y-93676785D01*
X119130071Y-93283928D02*
X119094357Y-93212500D01*
X119022928Y-93176785D01*
X118915785Y-93176785D01*
X118844357Y-93212500D01*
X118808642Y-93283928D01*
X118808642Y-93676785D01*
X118451500Y-93676785D02*
X118451500Y-93176785D01*
X118451500Y-92926785D02*
X118487214Y-92962500D01*
X118451500Y-92998214D01*
X118415785Y-92962500D01*
X118451500Y-92926785D01*
X118451500Y-92998214D01*
X117772928Y-93176785D02*
X117772928Y-93783928D01*
X117808642Y-93855357D01*
X117844357Y-93891071D01*
X117915785Y-93926785D01*
X118022928Y-93926785D01*
X118094357Y-93891071D01*
X117772928Y-93641071D02*
X117844357Y-93676785D01*
X117987214Y-93676785D01*
X118058642Y-93641071D01*
X118094357Y-93605357D01*
X118130071Y-93533928D01*
X118130071Y-93319642D01*
X118094357Y-93248214D01*
X118058642Y-93212500D01*
X117987214Y-93176785D01*
X117844357Y-93176785D01*
X117772928Y-93212500D01*
X117094357Y-93676785D02*
X117094357Y-93283928D01*
X117130071Y-93212500D01*
X117201500Y-93176785D01*
X117344357Y-93176785D01*
X117415785Y-93212500D01*
X117094357Y-93641071D02*
X117165785Y-93676785D01*
X117344357Y-93676785D01*
X117415785Y-93641071D01*
X117451500Y-93569642D01*
X117451500Y-93498214D01*
X117415785Y-93426785D01*
X117344357Y-93391071D01*
X117165785Y-93391071D01*
X117094357Y-93355357D01*
X116308642Y-93676785D02*
X116558642Y-93319642D01*
X116737214Y-93676785D02*
X116737214Y-92926785D01*
X116451500Y-92926785D01*
X116380071Y-92962500D01*
X116344357Y-92998214D01*
X116308642Y-93069642D01*
X116308642Y-93176785D01*
X116344357Y-93248214D01*
X116380071Y-93283928D01*
X116451500Y-93319642D01*
X116737214Y-93319642D01*
X115594357Y-92962500D02*
X115665785Y-92926785D01*
X115772928Y-92926785D01*
X115880071Y-92962500D01*
X115951500Y-93033928D01*
X115987214Y-93105357D01*
X116022928Y-93248214D01*
X116022928Y-93355357D01*
X115987214Y-93498214D01*
X115951500Y-93569642D01*
X115880071Y-93641071D01*
X115772928Y-93676785D01*
X115701500Y-93676785D01*
X115594357Y-93641071D01*
X115558642Y-93605357D01*
X115558642Y-93355357D01*
X115701500Y-93355357D01*
X114987214Y-93283928D02*
X114880071Y-93319642D01*
X114844357Y-93355357D01*
X114808642Y-93426785D01*
X114808642Y-93533928D01*
X114844357Y-93605357D01*
X114880071Y-93641071D01*
X114951500Y-93676785D01*
X115237214Y-93676785D01*
X115237214Y-92926785D01*
X114987214Y-92926785D01*
X114915785Y-92962500D01*
X114880071Y-92998214D01*
X114844357Y-93069642D01*
X114844357Y-93141071D01*
X114880071Y-93212500D01*
X114915785Y-93248214D01*
X114987214Y-93283928D01*
X115237214Y-93283928D01*
X114594357Y-93176785D02*
X114308642Y-93176785D01*
X114487214Y-92926785D02*
X114487214Y-93569642D01*
X114451500Y-93641071D01*
X114380071Y-93676785D01*
X114308642Y-93676785D01*
X113951500Y-93676785D02*
X114022928Y-93641071D01*
X114058642Y-93605357D01*
X114094357Y-93533928D01*
X114094357Y-93319642D01*
X114058642Y-93248214D01*
X114022928Y-93212500D01*
X113951500Y-93176785D01*
X113844357Y-93176785D01*
X113772928Y-93212500D01*
X113737214Y-93248214D01*
X113701500Y-93319642D01*
X113701500Y-93533928D01*
X113737214Y-93605357D01*
X113772928Y-93641071D01*
X113844357Y-93676785D01*
X113951500Y-93676785D01*
X113380071Y-93676785D02*
X113380071Y-92926785D01*
X113380071Y-93283928D02*
X112951500Y-93283928D01*
X112951500Y-93676785D02*
X112951500Y-92926785D01*
X112594357Y-93676785D02*
X112594357Y-92926785D01*
X112415785Y-92926785D01*
X112308642Y-92962500D01*
X112237214Y-93033928D01*
X112201500Y-93105357D01*
X112165785Y-93248214D01*
X112165785Y-93355357D01*
X112201500Y-93498214D01*
X112237214Y-93569642D01*
X112308642Y-93641071D01*
X112415785Y-93676785D01*
X112594357Y-93676785D01*
X111844357Y-93676785D02*
X111844357Y-92926785D01*
X111594357Y-93462500D01*
X111344357Y-92926785D01*
X111344357Y-93676785D01*
X110987214Y-93676785D02*
X110987214Y-92926785D01*
X137772928Y-94951785D02*
X137772928Y-94201785D01*
X137451500Y-94951785D02*
X137451500Y-94558928D01*
X137487214Y-94487500D01*
X137558642Y-94451785D01*
X137665785Y-94451785D01*
X137737214Y-94487500D01*
X137772928Y-94523214D01*
X137201500Y-94451785D02*
X136915785Y-94451785D01*
X137094357Y-94201785D02*
X137094357Y-94844642D01*
X137058642Y-94916071D01*
X136987214Y-94951785D01*
X136915785Y-94951785D01*
X136772928Y-94451785D02*
X136487214Y-94451785D01*
X136665785Y-94201785D02*
X136665785Y-94844642D01*
X136630071Y-94916071D01*
X136558642Y-94951785D01*
X136487214Y-94951785D01*
X136237214Y-94451785D02*
X136237214Y-95201785D01*
X136237214Y-94487500D02*
X136165785Y-94451785D01*
X136022928Y-94451785D01*
X135951500Y-94487500D01*
X135915785Y-94523214D01*
X135880071Y-94594642D01*
X135880071Y-94808928D01*
X135915785Y-94880357D01*
X135951500Y-94916071D01*
X136022928Y-94951785D01*
X136165785Y-94951785D01*
X136237214Y-94916071D01*
X135594357Y-94916071D02*
X135522928Y-94951785D01*
X135380071Y-94951785D01*
X135308642Y-94916071D01*
X135272928Y-94844642D01*
X135272928Y-94808928D01*
X135308642Y-94737500D01*
X135380071Y-94701785D01*
X135487214Y-94701785D01*
X135558642Y-94666071D01*
X135594357Y-94594642D01*
X135594357Y-94558928D01*
X135558642Y-94487500D01*
X135487214Y-94451785D01*
X135380071Y-94451785D01*
X135308642Y-94487500D01*
X134951500Y-94880357D02*
X134915785Y-94916071D01*
X134951500Y-94951785D01*
X134987214Y-94916071D01*
X134951500Y-94880357D01*
X134951500Y-94951785D01*
X134951500Y-94487500D02*
X134915785Y-94523214D01*
X134951500Y-94558928D01*
X134987214Y-94523214D01*
X134951500Y-94487500D01*
X134951500Y-94558928D01*
X134058642Y-94166071D02*
X134701500Y-95130357D01*
X133272928Y-94166071D02*
X133915785Y-95130357D01*
X132701500Y-94451785D02*
X132701500Y-95058928D01*
X132737214Y-95130357D01*
X132772928Y-95166071D01*
X132844357Y-95201785D01*
X132951500Y-95201785D01*
X133022928Y-95166071D01*
X132701500Y-94916071D02*
X132772928Y-94951785D01*
X132915785Y-94951785D01*
X132987214Y-94916071D01*
X133022928Y-94880357D01*
X133058642Y-94808928D01*
X133058642Y-94594642D01*
X133022928Y-94523214D01*
X132987214Y-94487500D01*
X132915785Y-94451785D01*
X132772928Y-94451785D01*
X132701500Y-94487500D01*
X132344357Y-94951785D02*
X132344357Y-94451785D01*
X132344357Y-94201785D02*
X132380071Y-94237500D01*
X132344357Y-94273214D01*
X132308642Y-94237500D01*
X132344357Y-94201785D01*
X132344357Y-94273214D01*
X132094357Y-94451785D02*
X131808642Y-94451785D01*
X131987214Y-94201785D02*
X131987214Y-94844642D01*
X131951500Y-94916071D01*
X131880071Y-94951785D01*
X131808642Y-94951785D01*
X131558642Y-94951785D02*
X131558642Y-94201785D01*
X131237214Y-94951785D02*
X131237214Y-94558928D01*
X131272928Y-94487500D01*
X131344357Y-94451785D01*
X131451500Y-94451785D01*
X131522928Y-94487500D01*
X131558642Y-94523214D01*
X130558642Y-94451785D02*
X130558642Y-94951785D01*
X130880071Y-94451785D02*
X130880071Y-94844642D01*
X130844357Y-94916071D01*
X130772928Y-94951785D01*
X130665785Y-94951785D01*
X130594357Y-94916071D01*
X130558642Y-94880357D01*
X130201500Y-94951785D02*
X130201500Y-94201785D01*
X130201500Y-94487500D02*
X130130071Y-94451785D01*
X129987214Y-94451785D01*
X129915785Y-94487500D01*
X129880071Y-94523214D01*
X129844357Y-94594642D01*
X129844357Y-94808928D01*
X129880071Y-94880357D01*
X129915785Y-94916071D01*
X129987214Y-94951785D01*
X130130071Y-94951785D01*
X130201500Y-94916071D01*
X129522928Y-94880357D02*
X129487214Y-94916071D01*
X129522928Y-94951785D01*
X129558642Y-94916071D01*
X129522928Y-94880357D01*
X129522928Y-94951785D01*
X128844357Y-94916071D02*
X128915785Y-94951785D01*
X129058642Y-94951785D01*
X129130071Y-94916071D01*
X129165785Y-94880357D01*
X129201500Y-94808928D01*
X129201500Y-94594642D01*
X129165785Y-94523214D01*
X129130071Y-94487500D01*
X129058642Y-94451785D01*
X128915785Y-94451785D01*
X128844357Y-94487500D01*
X128415785Y-94951785D02*
X128487214Y-94916071D01*
X128522928Y-94880357D01*
X128558642Y-94808928D01*
X128558642Y-94594642D01*
X128522928Y-94523214D01*
X128487214Y-94487500D01*
X128415785Y-94451785D01*
X128308642Y-94451785D01*
X128237214Y-94487500D01*
X128201500Y-94523214D01*
X128165785Y-94594642D01*
X128165785Y-94808928D01*
X128201500Y-94880357D01*
X128237214Y-94916071D01*
X128308642Y-94951785D01*
X128415785Y-94951785D01*
X127844357Y-94951785D02*
X127844357Y-94451785D01*
X127844357Y-94523214D02*
X127808642Y-94487500D01*
X127737214Y-94451785D01*
X127630071Y-94451785D01*
X127558642Y-94487500D01*
X127522928Y-94558928D01*
X127522928Y-94951785D01*
X127522928Y-94558928D02*
X127487214Y-94487500D01*
X127415785Y-94451785D01*
X127308642Y-94451785D01*
X127237214Y-94487500D01*
X127201500Y-94558928D01*
X127201500Y-94951785D01*
X126308642Y-94166071D02*
X126951500Y-95130357D01*
X126058642Y-94951785D02*
X126058642Y-94201785D01*
X125380071Y-94951785D02*
X125380071Y-94558928D01*
X125415785Y-94487500D01*
X125487214Y-94451785D01*
X125630071Y-94451785D01*
X125701500Y-94487500D01*
X125380071Y-94916071D02*
X125451500Y-94951785D01*
X125630071Y-94951785D01*
X125701500Y-94916071D01*
X125737214Y-94844642D01*
X125737214Y-94773214D01*
X125701500Y-94701785D01*
X125630071Y-94666071D01*
X125451500Y-94666071D01*
X125380071Y-94630357D01*
X125022928Y-94451785D02*
X125022928Y-94951785D01*
X125022928Y-94523214D02*
X124987214Y-94487500D01*
X124915785Y-94451785D01*
X124808642Y-94451785D01*
X124737214Y-94487500D01*
X124701500Y-94558928D01*
X124701500Y-94951785D01*
X124380071Y-94916071D02*
X124272928Y-94951785D01*
X124094357Y-94951785D01*
X124022928Y-94916071D01*
X123987214Y-94880357D01*
X123951500Y-94808928D01*
X123951500Y-94737500D01*
X123987214Y-94666071D01*
X124022928Y-94630357D01*
X124094357Y-94594642D01*
X124237214Y-94558928D01*
X124308642Y-94523214D01*
X124344357Y-94487500D01*
X124380071Y-94416071D01*
X124380071Y-94344642D01*
X124344357Y-94273214D01*
X124308642Y-94237500D01*
X124237214Y-94201785D01*
X124058642Y-94201785D01*
X123951500Y-94237500D01*
X123380071Y-94558928D02*
X123272928Y-94594642D01*
X123237214Y-94630357D01*
X123201500Y-94701785D01*
X123201500Y-94808928D01*
X123237214Y-94880357D01*
X123272928Y-94916071D01*
X123344357Y-94951785D01*
X123630071Y-94951785D01*
X123630071Y-94201785D01*
X123380071Y-94201785D01*
X123308642Y-94237500D01*
X123272928Y-94273214D01*
X123237214Y-94344642D01*
X123237214Y-94416071D01*
X123272928Y-94487500D01*
X123308642Y-94523214D01*
X123380071Y-94558928D01*
X123630071Y-94558928D01*
X137772928Y-96226785D02*
X137772928Y-95476785D01*
X137451500Y-96226785D02*
X137451500Y-95833928D01*
X137487214Y-95762500D01*
X137558642Y-95726785D01*
X137665785Y-95726785D01*
X137737214Y-95762500D01*
X137772928Y-95798214D01*
X137201500Y-95726785D02*
X136915785Y-95726785D01*
X137094357Y-95476785D02*
X137094357Y-96119642D01*
X137058642Y-96191071D01*
X136987214Y-96226785D01*
X136915785Y-96226785D01*
X136772928Y-95726785D02*
X136487214Y-95726785D01*
X136665785Y-95476785D02*
X136665785Y-96119642D01*
X136630071Y-96191071D01*
X136558642Y-96226785D01*
X136487214Y-96226785D01*
X136237214Y-95726785D02*
X136237214Y-96476785D01*
X136237214Y-95762500D02*
X136165785Y-95726785D01*
X136022928Y-95726785D01*
X135951500Y-95762500D01*
X135915785Y-95798214D01*
X135880071Y-95869642D01*
X135880071Y-96083928D01*
X135915785Y-96155357D01*
X135951500Y-96191071D01*
X136022928Y-96226785D01*
X136165785Y-96226785D01*
X136237214Y-96191071D01*
X135594357Y-96191071D02*
X135522928Y-96226785D01*
X135380071Y-96226785D01*
X135308642Y-96191071D01*
X135272928Y-96119642D01*
X135272928Y-96083928D01*
X135308642Y-96012500D01*
X135380071Y-95976785D01*
X135487214Y-95976785D01*
X135558642Y-95941071D01*
X135594357Y-95869642D01*
X135594357Y-95833928D01*
X135558642Y-95762500D01*
X135487214Y-95726785D01*
X135380071Y-95726785D01*
X135308642Y-95762500D01*
X134951500Y-96155357D02*
X134915785Y-96191071D01*
X134951500Y-96226785D01*
X134987214Y-96191071D01*
X134951500Y-96155357D01*
X134951500Y-96226785D01*
X134951500Y-95762500D02*
X134915785Y-95798214D01*
X134951500Y-95833928D01*
X134987214Y-95798214D01*
X134951500Y-95762500D01*
X134951500Y-95833928D01*
X134058642Y-95441071D02*
X134701500Y-96405357D01*
X133272928Y-95441071D02*
X133915785Y-96405357D01*
X132701500Y-95726785D02*
X132701500Y-96333928D01*
X132737214Y-96405357D01*
X132772928Y-96441071D01*
X132844357Y-96476785D01*
X132951500Y-96476785D01*
X133022928Y-96441071D01*
X132701500Y-96191071D02*
X132772928Y-96226785D01*
X132915785Y-96226785D01*
X132987214Y-96191071D01*
X133022928Y-96155357D01*
X133058642Y-96083928D01*
X133058642Y-95869642D01*
X133022928Y-95798214D01*
X132987214Y-95762500D01*
X132915785Y-95726785D01*
X132772928Y-95726785D01*
X132701500Y-95762500D01*
X132344357Y-96226785D02*
X132344357Y-95726785D01*
X132344357Y-95476785D02*
X132380071Y-95512500D01*
X132344357Y-95548214D01*
X132308642Y-95512500D01*
X132344357Y-95476785D01*
X132344357Y-95548214D01*
X132094357Y-95726785D02*
X131808642Y-95726785D01*
X131987214Y-95476785D02*
X131987214Y-96119642D01*
X131951500Y-96191071D01*
X131880071Y-96226785D01*
X131808642Y-96226785D01*
X131558642Y-96226785D02*
X131558642Y-95476785D01*
X131237214Y-96226785D02*
X131237214Y-95833928D01*
X131272928Y-95762500D01*
X131344357Y-95726785D01*
X131451500Y-95726785D01*
X131522928Y-95762500D01*
X131558642Y-95798214D01*
X130558642Y-95726785D02*
X130558642Y-96226785D01*
X130880071Y-95726785D02*
X130880071Y-96119642D01*
X130844357Y-96191071D01*
X130772928Y-96226785D01*
X130665785Y-96226785D01*
X130594357Y-96191071D01*
X130558642Y-96155357D01*
X130201500Y-96226785D02*
X130201500Y-95476785D01*
X130201500Y-95762500D02*
X130130071Y-95726785D01*
X129987214Y-95726785D01*
X129915785Y-95762500D01*
X129880071Y-95798214D01*
X129844357Y-95869642D01*
X129844357Y-96083928D01*
X129880071Y-96155357D01*
X129915785Y-96191071D01*
X129987214Y-96226785D01*
X130130071Y-96226785D01*
X130201500Y-96191071D01*
X129522928Y-96155357D02*
X129487214Y-96191071D01*
X129522928Y-96226785D01*
X129558642Y-96191071D01*
X129522928Y-96155357D01*
X129522928Y-96226785D01*
X128844357Y-96191071D02*
X128915785Y-96226785D01*
X129058642Y-96226785D01*
X129130071Y-96191071D01*
X129165785Y-96155357D01*
X129201500Y-96083928D01*
X129201500Y-95869642D01*
X129165785Y-95798214D01*
X129130071Y-95762500D01*
X129058642Y-95726785D01*
X128915785Y-95726785D01*
X128844357Y-95762500D01*
X128415785Y-96226785D02*
X128487214Y-96191071D01*
X128522928Y-96155357D01*
X128558642Y-96083928D01*
X128558642Y-95869642D01*
X128522928Y-95798214D01*
X128487214Y-95762500D01*
X128415785Y-95726785D01*
X128308642Y-95726785D01*
X128237214Y-95762500D01*
X128201500Y-95798214D01*
X128165785Y-95869642D01*
X128165785Y-96083928D01*
X128201500Y-96155357D01*
X128237214Y-96191071D01*
X128308642Y-96226785D01*
X128415785Y-96226785D01*
X127844357Y-96226785D02*
X127844357Y-95726785D01*
X127844357Y-95798214D02*
X127808642Y-95762500D01*
X127737214Y-95726785D01*
X127630071Y-95726785D01*
X127558642Y-95762500D01*
X127522928Y-95833928D01*
X127522928Y-96226785D01*
X127522928Y-95833928D02*
X127487214Y-95762500D01*
X127415785Y-95726785D01*
X127308642Y-95726785D01*
X127237214Y-95762500D01*
X127201500Y-95833928D01*
X127201500Y-96226785D01*
X126308642Y-95441071D02*
X126951500Y-96405357D01*
X125737214Y-96191071D02*
X125808642Y-96226785D01*
X125951499Y-96226785D01*
X126022928Y-96191071D01*
X126058642Y-96155357D01*
X126094357Y-96083928D01*
X126094357Y-95869642D01*
X126058642Y-95798214D01*
X126022928Y-95762500D01*
X125951499Y-95726785D01*
X125808642Y-95726785D01*
X125737214Y-95762500D01*
X125272928Y-95476785D02*
X125201500Y-95476785D01*
X125130071Y-95512500D01*
X125094357Y-95548214D01*
X125058642Y-95619642D01*
X125022928Y-95762500D01*
X125022928Y-95941071D01*
X125058642Y-96083928D01*
X125094357Y-96155357D01*
X125130071Y-96191071D01*
X125201500Y-96226785D01*
X125272928Y-96226785D01*
X125344357Y-96191071D01*
X125380071Y-96155357D01*
X125415785Y-96083928D01*
X125451500Y-95941071D01*
X125451500Y-95762500D01*
X125415785Y-95619642D01*
X125380071Y-95548214D01*
X125344357Y-95512500D01*
X125272928Y-95476785D01*
X124701500Y-95726785D02*
X124701500Y-96476785D01*
X124701500Y-95762500D02*
X124630071Y-95726785D01*
X124487214Y-95726785D01*
X124415785Y-95762500D01*
X124380071Y-95798214D01*
X124344357Y-95869642D01*
X124344357Y-96083928D01*
X124380071Y-96155357D01*
X124415785Y-96191071D01*
X124487214Y-96226785D01*
X124630071Y-96226785D01*
X124701500Y-96191071D01*
X124022928Y-95726785D02*
X124022928Y-96476785D01*
X124022928Y-95762500D02*
X123951500Y-95726785D01*
X123808642Y-95726785D01*
X123737214Y-95762500D01*
X123701500Y-95798214D01*
X123665785Y-95869642D01*
X123665785Y-96083928D01*
X123701500Y-96155357D01*
X123737214Y-96191071D01*
X123808642Y-96226785D01*
X123951500Y-96226785D01*
X124022928Y-96191071D01*
X123058642Y-96191071D02*
X123130071Y-96226785D01*
X123272928Y-96226785D01*
X123344357Y-96191071D01*
X123380071Y-96119642D01*
X123380071Y-95833928D01*
X123344357Y-95762500D01*
X123272928Y-95726785D01*
X123130071Y-95726785D01*
X123058642Y-95762500D01*
X123022928Y-95833928D01*
X123022928Y-95905357D01*
X123380071Y-95976785D01*
X122701500Y-96226785D02*
X122701500Y-95726785D01*
X122701500Y-95869642D02*
X122665785Y-95798214D01*
X122630071Y-95762500D01*
X122558642Y-95726785D01*
X122487214Y-95726785D01*
X121915785Y-96226785D02*
X121915785Y-95476785D01*
X121915785Y-96191071D02*
X121987214Y-96226785D01*
X122130071Y-96226785D01*
X122201500Y-96191071D01*
X122237214Y-96155357D01*
X122272928Y-96083928D01*
X122272928Y-95869642D01*
X122237214Y-95798214D01*
X122201500Y-95762500D01*
X122130071Y-95726785D01*
X121987214Y-95726785D01*
X121915785Y-95762500D01*
X121558642Y-96226785D02*
X121558642Y-95726785D01*
X121558642Y-95869642D02*
X121522928Y-95798214D01*
X121487214Y-95762500D01*
X121415785Y-95726785D01*
X121344357Y-95726785D01*
X120772928Y-96226785D02*
X120772928Y-95833928D01*
X120808642Y-95762500D01*
X120880071Y-95726785D01*
X121022928Y-95726785D01*
X121094357Y-95762500D01*
X120772928Y-96191071D02*
X120844357Y-96226785D01*
X121022928Y-96226785D01*
X121094357Y-96191071D01*
X121130071Y-96119642D01*
X121130071Y-96048214D01*
X121094357Y-95976785D01*
X121022928Y-95941071D01*
X120844357Y-95941071D01*
X120772928Y-95905357D01*
X120094357Y-95726785D02*
X120094357Y-96333928D01*
X120130071Y-96405357D01*
X120165785Y-96441071D01*
X120237214Y-96476785D01*
X120344357Y-96476785D01*
X120415785Y-96441071D01*
X120094357Y-96191071D02*
X120165785Y-96226785D01*
X120308642Y-96226785D01*
X120380071Y-96191071D01*
X120415785Y-96155357D01*
X120451499Y-96083928D01*
X120451499Y-95869642D01*
X120415785Y-95798214D01*
X120380071Y-95762500D01*
X120308642Y-95726785D01*
X120165785Y-95726785D01*
X120094357Y-95762500D01*
X119630071Y-96226785D02*
X119701499Y-96191071D01*
X119737214Y-96155357D01*
X119772928Y-96083928D01*
X119772928Y-95869642D01*
X119737214Y-95798214D01*
X119701499Y-95762500D01*
X119630071Y-95726785D01*
X119522928Y-95726785D01*
X119451499Y-95762500D01*
X119415785Y-95798214D01*
X119380071Y-95869642D01*
X119380071Y-96083928D01*
X119415785Y-96155357D01*
X119451499Y-96191071D01*
X119522928Y-96226785D01*
X119630071Y-96226785D01*
X119058642Y-95726785D02*
X119058642Y-96226785D01*
X119058642Y-95798214D02*
X119022928Y-95762500D01*
X118951499Y-95726785D01*
X118844357Y-95726785D01*
X118772928Y-95762500D01*
X118737214Y-95833928D01*
X118737214Y-96226785D01*
X117844357Y-95441071D02*
X118487214Y-96405357D01*
X117630071Y-96012500D02*
X117272928Y-96012500D01*
X117701499Y-96226785D02*
X117451499Y-95476785D01*
X117201499Y-96226785D01*
X116951499Y-96226785D02*
X116951499Y-95726785D01*
X116951499Y-95798214D02*
X116915785Y-95762500D01*
X116844357Y-95726785D01*
X116737214Y-95726785D01*
X116665785Y-95762500D01*
X116630071Y-95833928D01*
X116630071Y-96226785D01*
X116630071Y-95833928D02*
X116594357Y-95762500D01*
X116522928Y-95726785D01*
X116415785Y-95726785D01*
X116344357Y-95762500D01*
X116308642Y-95833928D01*
X116308642Y-96226785D01*
X115951499Y-96226785D02*
X115951499Y-95726785D01*
X115951499Y-95476785D02*
X115987214Y-95512500D01*
X115951499Y-95548214D01*
X115915785Y-95512500D01*
X115951499Y-95476785D01*
X115951499Y-95548214D01*
X115272928Y-95726785D02*
X115272928Y-96333928D01*
X115308642Y-96405357D01*
X115344357Y-96441071D01*
X115415785Y-96476785D01*
X115522928Y-96476785D01*
X115594357Y-96441071D01*
X115272928Y-96191071D02*
X115344357Y-96226785D01*
X115487214Y-96226785D01*
X115558642Y-96191071D01*
X115594357Y-96155357D01*
X115630071Y-96083928D01*
X115630071Y-95869642D01*
X115594357Y-95798214D01*
X115558642Y-95762500D01*
X115487214Y-95726785D01*
X115344357Y-95726785D01*
X115272928Y-95762500D01*
X114594357Y-96226785D02*
X114594357Y-95833928D01*
X114630071Y-95762500D01*
X114701499Y-95726785D01*
X114844357Y-95726785D01*
X114915785Y-95762500D01*
X114594357Y-96191071D02*
X114665785Y-96226785D01*
X114844357Y-96226785D01*
X114915785Y-96191071D01*
X114951499Y-96119642D01*
X114951499Y-96048214D01*
X114915785Y-95976785D01*
X114844357Y-95941071D01*
X114665785Y-95941071D01*
X114594357Y-95905357D01*
X114237214Y-95941071D02*
X113665785Y-95941071D01*
X113308642Y-96226785D02*
X113308642Y-95476785D01*
X113130071Y-95476785D01*
X113022928Y-95512500D01*
X112951499Y-95583928D01*
X112915785Y-95655357D01*
X112880071Y-95798214D01*
X112880071Y-95905357D01*
X112915785Y-96048214D01*
X112951499Y-96119642D01*
X113022928Y-96191071D01*
X113130071Y-96226785D01*
X113308642Y-96226785D01*
X112558642Y-96226785D02*
X112558642Y-95726785D01*
X112558642Y-95476785D02*
X112594357Y-95512500D01*
X112558642Y-95548214D01*
X112522928Y-95512500D01*
X112558642Y-95476785D01*
X112558642Y-95548214D01*
X111880071Y-95726785D02*
X111880071Y-96333928D01*
X111915785Y-96405357D01*
X111951499Y-96441071D01*
X112022928Y-96476785D01*
X112130071Y-96476785D01*
X112201499Y-96441071D01*
X111880071Y-96191071D02*
X111951499Y-96226785D01*
X112094357Y-96226785D01*
X112165785Y-96191071D01*
X112201499Y-96155357D01*
X112237214Y-96083928D01*
X112237214Y-95869642D01*
X112201499Y-95798214D01*
X112165785Y-95762500D01*
X112094357Y-95726785D01*
X111951499Y-95726785D01*
X111880071Y-95762500D01*
X111522928Y-96226785D02*
X111522928Y-95726785D01*
X111522928Y-95476785D02*
X111558642Y-95512500D01*
X111522928Y-95548214D01*
X111487214Y-95512500D01*
X111522928Y-95476785D01*
X111522928Y-95548214D01*
X111272928Y-95726785D02*
X110987214Y-95726785D01*
X111165785Y-95476785D02*
X111165785Y-96119642D01*
X111130071Y-96191071D01*
X111058642Y-96226785D01*
X110987214Y-96226785D01*
X110415785Y-96226785D02*
X110415785Y-95833928D01*
X110451499Y-95762500D01*
X110522928Y-95726785D01*
X110665785Y-95726785D01*
X110737214Y-95762500D01*
X110415785Y-96191071D02*
X110487214Y-96226785D01*
X110665785Y-96226785D01*
X110737214Y-96191071D01*
X110772928Y-96119642D01*
X110772928Y-96048214D01*
X110737214Y-95976785D01*
X110665785Y-95941071D01*
X110487214Y-95941071D01*
X110415785Y-95905357D01*
X109951499Y-96226785D02*
X110022928Y-96191071D01*
X110058642Y-96119642D01*
X110058642Y-95476785D01*
X109665785Y-95941071D02*
X109094357Y-95941071D01*
X108844357Y-95476785D02*
X108594357Y-96226785D01*
X108344357Y-95476785D01*
X108094357Y-96226785D02*
X108094357Y-95726785D01*
X108094357Y-95476785D02*
X108130071Y-95512500D01*
X108094357Y-95548214D01*
X108058642Y-95512500D01*
X108094357Y-95476785D01*
X108094357Y-95548214D01*
X107415785Y-96226785D02*
X107415785Y-95476785D01*
X107415785Y-96191071D02*
X107487214Y-96226785D01*
X107630071Y-96226785D01*
X107701499Y-96191071D01*
X107737214Y-96155357D01*
X107772928Y-96083928D01*
X107772928Y-95869642D01*
X107737214Y-95798214D01*
X107701499Y-95762500D01*
X107630071Y-95726785D01*
X107487214Y-95726785D01*
X107415785Y-95762500D01*
X106772928Y-96191071D02*
X106844357Y-96226785D01*
X106987214Y-96226785D01*
X107058642Y-96191071D01*
X107094357Y-96119642D01*
X107094357Y-95833928D01*
X107058642Y-95762500D01*
X106987214Y-95726785D01*
X106844357Y-95726785D01*
X106772928Y-95762500D01*
X106737214Y-95833928D01*
X106737214Y-95905357D01*
X107094357Y-95976785D01*
X106308642Y-96226785D02*
X106380071Y-96191071D01*
X106415785Y-96155357D01*
X106451499Y-96083928D01*
X106451499Y-95869642D01*
X106415785Y-95798214D01*
X106380071Y-95762500D01*
X106308642Y-95726785D01*
X106201499Y-95726785D01*
X106130071Y-95762500D01*
X106094357Y-95798214D01*
X106058642Y-95869642D01*
X106058642Y-96083928D01*
X106094357Y-96155357D01*
X106130071Y-96191071D01*
X106201499Y-96226785D01*
X106308642Y-96226785D01*
X137772928Y-97501785D02*
X137772928Y-96751785D01*
X137451500Y-97501785D02*
X137451500Y-97108928D01*
X137487214Y-97037500D01*
X137558642Y-97001785D01*
X137665785Y-97001785D01*
X137737214Y-97037500D01*
X137772928Y-97073214D01*
X137201500Y-97001785D02*
X136915785Y-97001785D01*
X137094357Y-96751785D02*
X137094357Y-97394642D01*
X137058642Y-97466071D01*
X136987214Y-97501785D01*
X136915785Y-97501785D01*
X136772928Y-97001785D02*
X136487214Y-97001785D01*
X136665785Y-96751785D02*
X136665785Y-97394642D01*
X136630071Y-97466071D01*
X136558642Y-97501785D01*
X136487214Y-97501785D01*
X136237214Y-97001785D02*
X136237214Y-97751785D01*
X136237214Y-97037500D02*
X136165785Y-97001785D01*
X136022928Y-97001785D01*
X135951500Y-97037500D01*
X135915785Y-97073214D01*
X135880071Y-97144642D01*
X135880071Y-97358928D01*
X135915785Y-97430357D01*
X135951500Y-97466071D01*
X136022928Y-97501785D01*
X136165785Y-97501785D01*
X136237214Y-97466071D01*
X135594357Y-97466071D02*
X135522928Y-97501785D01*
X135380071Y-97501785D01*
X135308642Y-97466071D01*
X135272928Y-97394642D01*
X135272928Y-97358928D01*
X135308642Y-97287500D01*
X135380071Y-97251785D01*
X135487214Y-97251785D01*
X135558642Y-97216071D01*
X135594357Y-97144642D01*
X135594357Y-97108928D01*
X135558642Y-97037500D01*
X135487214Y-97001785D01*
X135380071Y-97001785D01*
X135308642Y-97037500D01*
X134951500Y-97430357D02*
X134915785Y-97466071D01*
X134951500Y-97501785D01*
X134987214Y-97466071D01*
X134951500Y-97430357D01*
X134951500Y-97501785D01*
X134951500Y-97037500D02*
X134915785Y-97073214D01*
X134951500Y-97108928D01*
X134987214Y-97073214D01*
X134951500Y-97037500D01*
X134951500Y-97108928D01*
X134058642Y-96716071D02*
X134701500Y-97680357D01*
X133272928Y-96716071D02*
X133915785Y-97680357D01*
X132701500Y-97001785D02*
X132701500Y-97608928D01*
X132737214Y-97680357D01*
X132772928Y-97716071D01*
X132844357Y-97751785D01*
X132951500Y-97751785D01*
X133022928Y-97716071D01*
X132701500Y-97466071D02*
X132772928Y-97501785D01*
X132915785Y-97501785D01*
X132987214Y-97466071D01*
X133022928Y-97430357D01*
X133058642Y-97358928D01*
X133058642Y-97144642D01*
X133022928Y-97073214D01*
X132987214Y-97037500D01*
X132915785Y-97001785D01*
X132772928Y-97001785D01*
X132701500Y-97037500D01*
X132344357Y-97501785D02*
X132344357Y-97001785D01*
X132344357Y-96751785D02*
X132380071Y-96787500D01*
X132344357Y-96823214D01*
X132308642Y-96787500D01*
X132344357Y-96751785D01*
X132344357Y-96823214D01*
X132094357Y-97001785D02*
X131808642Y-97001785D01*
X131987214Y-96751785D02*
X131987214Y-97394642D01*
X131951500Y-97466071D01*
X131880071Y-97501785D01*
X131808642Y-97501785D01*
X131558642Y-97501785D02*
X131558642Y-96751785D01*
X131237214Y-97501785D02*
X131237214Y-97108928D01*
X131272928Y-97037500D01*
X131344357Y-97001785D01*
X131451500Y-97001785D01*
X131522928Y-97037500D01*
X131558642Y-97073214D01*
X130558642Y-97001785D02*
X130558642Y-97501785D01*
X130880071Y-97001785D02*
X130880071Y-97394642D01*
X130844357Y-97466071D01*
X130772928Y-97501785D01*
X130665785Y-97501785D01*
X130594357Y-97466071D01*
X130558642Y-97430357D01*
X130201500Y-97501785D02*
X130201500Y-96751785D01*
X130201500Y-97037500D02*
X130130071Y-97001785D01*
X129987214Y-97001785D01*
X129915785Y-97037500D01*
X129880071Y-97073214D01*
X129844357Y-97144642D01*
X129844357Y-97358928D01*
X129880071Y-97430357D01*
X129915785Y-97466071D01*
X129987214Y-97501785D01*
X130130071Y-97501785D01*
X130201500Y-97466071D01*
X129522928Y-97430357D02*
X129487214Y-97466071D01*
X129522928Y-97501785D01*
X129558642Y-97466071D01*
X129522928Y-97430357D01*
X129522928Y-97501785D01*
X128844357Y-97466071D02*
X128915785Y-97501785D01*
X129058642Y-97501785D01*
X129130071Y-97466071D01*
X129165785Y-97430357D01*
X129201500Y-97358928D01*
X129201500Y-97144642D01*
X129165785Y-97073214D01*
X129130071Y-97037500D01*
X129058642Y-97001785D01*
X128915785Y-97001785D01*
X128844357Y-97037500D01*
X128415785Y-97501785D02*
X128487214Y-97466071D01*
X128522928Y-97430357D01*
X128558642Y-97358928D01*
X128558642Y-97144642D01*
X128522928Y-97073214D01*
X128487214Y-97037500D01*
X128415785Y-97001785D01*
X128308642Y-97001785D01*
X128237214Y-97037500D01*
X128201500Y-97073214D01*
X128165785Y-97144642D01*
X128165785Y-97358928D01*
X128201500Y-97430357D01*
X128237214Y-97466071D01*
X128308642Y-97501785D01*
X128415785Y-97501785D01*
X127844357Y-97501785D02*
X127844357Y-97001785D01*
X127844357Y-97073214D02*
X127808642Y-97037500D01*
X127737214Y-97001785D01*
X127630071Y-97001785D01*
X127558642Y-97037500D01*
X127522928Y-97108928D01*
X127522928Y-97501785D01*
X127522928Y-97108928D02*
X127487214Y-97037500D01*
X127415785Y-97001785D01*
X127308642Y-97001785D01*
X127237214Y-97037500D01*
X127201500Y-97108928D01*
X127201500Y-97501785D01*
X126308642Y-96716071D02*
X126951500Y-97680357D01*
X126058642Y-97501785D02*
X126058642Y-96751785D01*
X125737214Y-97501785D02*
X125737214Y-97108928D01*
X125772928Y-97037500D01*
X125844357Y-97001785D01*
X125951500Y-97001785D01*
X126022928Y-97037500D01*
X126058642Y-97073214D01*
X125272928Y-97501785D02*
X125344357Y-97466071D01*
X125380071Y-97430357D01*
X125415785Y-97358928D01*
X125415785Y-97144642D01*
X125380071Y-97073214D01*
X125344357Y-97037500D01*
X125272928Y-97001785D01*
X125165785Y-97001785D01*
X125094357Y-97037500D01*
X125058642Y-97073214D01*
X125022928Y-97144642D01*
X125022928Y-97358928D01*
X125058642Y-97430357D01*
X125094357Y-97466071D01*
X125165785Y-97501785D01*
X125272928Y-97501785D01*
X124380071Y-97001785D02*
X124380071Y-97608928D01*
X124415785Y-97680357D01*
X124451500Y-97716071D01*
X124522928Y-97751785D01*
X124630071Y-97751785D01*
X124701500Y-97716071D01*
X124380071Y-97466071D02*
X124451500Y-97501785D01*
X124594357Y-97501785D01*
X124665785Y-97466071D01*
X124701500Y-97430357D01*
X124737214Y-97358928D01*
X124737214Y-97144642D01*
X124701500Y-97073214D01*
X124665785Y-97037500D01*
X124594357Y-97001785D01*
X124451500Y-97001785D01*
X124380071Y-97037500D01*
X123915785Y-97501785D02*
X123987214Y-97466071D01*
X124022928Y-97394642D01*
X124022928Y-96751785D01*
X123344357Y-97466071D02*
X123415785Y-97501785D01*
X123558642Y-97501785D01*
X123630071Y-97466071D01*
X123665785Y-97394642D01*
X123665785Y-97108928D01*
X123630071Y-97037500D01*
X123558642Y-97001785D01*
X123415785Y-97001785D01*
X123344357Y-97037500D01*
X123308642Y-97108928D01*
X123308642Y-97180357D01*
X123665785Y-97251785D01*
X123094357Y-97001785D02*
X122808642Y-97001785D01*
X122987214Y-96751785D02*
X122987214Y-97394642D01*
X122951500Y-97466071D01*
X122880071Y-97501785D01*
X122808642Y-97501785D01*
X122237214Y-96751785D02*
X122380071Y-96751785D01*
X122451500Y-96787500D01*
X122487214Y-96823214D01*
X122558642Y-96930357D01*
X122594357Y-97073214D01*
X122594357Y-97358928D01*
X122558642Y-97430357D01*
X122522928Y-97466071D01*
X122451500Y-97501785D01*
X122308642Y-97501785D01*
X122237214Y-97466071D01*
X122201500Y-97430357D01*
X122165785Y-97358928D01*
X122165785Y-97180357D01*
X122201500Y-97108928D01*
X122237214Y-97073214D01*
X122308642Y-97037500D01*
X122451500Y-97037500D01*
X122522928Y-97073214D01*
X122558642Y-97108928D01*
X122594357Y-97180357D01*
X121915785Y-96751785D02*
X121415785Y-96751785D01*
X121737214Y-97501785D01*
X120594357Y-96716071D02*
X121237214Y-97680357D01*
X119915785Y-97501785D02*
X120165785Y-97144642D01*
X120344357Y-97501785D02*
X120344357Y-96751785D01*
X120058642Y-96751785D01*
X119987214Y-96787500D01*
X119951500Y-96823214D01*
X119915785Y-96894642D01*
X119915785Y-97001785D01*
X119951500Y-97073214D01*
X119987214Y-97108928D01*
X120058642Y-97144642D01*
X120344357Y-97144642D01*
X119201500Y-96787500D02*
X119272928Y-96751785D01*
X119380071Y-96751785D01*
X119487214Y-96787500D01*
X119558642Y-96858928D01*
X119594357Y-96930357D01*
X119630071Y-97073214D01*
X119630071Y-97180357D01*
X119594357Y-97323214D01*
X119558642Y-97394642D01*
X119487214Y-97466071D01*
X119380071Y-97501785D01*
X119308642Y-97501785D01*
X119201500Y-97466071D01*
X119165785Y-97430357D01*
X119165785Y-97180357D01*
X119308642Y-97180357D01*
X118594357Y-97108928D02*
X118487214Y-97144642D01*
X118451500Y-97180357D01*
X118415785Y-97251785D01*
X118415785Y-97358928D01*
X118451500Y-97430357D01*
X118487214Y-97466071D01*
X118558642Y-97501785D01*
X118844357Y-97501785D01*
X118844357Y-96751785D01*
X118594357Y-96751785D01*
X118522928Y-96787500D01*
X118487214Y-96823214D01*
X118451500Y-96894642D01*
X118451500Y-96966071D01*
X118487214Y-97037500D01*
X118522928Y-97073214D01*
X118594357Y-97108928D01*
X118844357Y-97108928D01*
X118201499Y-97001785D02*
X117915785Y-97001785D01*
X118094357Y-96751785D02*
X118094357Y-97394642D01*
X118058642Y-97466071D01*
X117987214Y-97501785D01*
X117915785Y-97501785D01*
X117558642Y-97501785D02*
X117630071Y-97466071D01*
X117665785Y-97430357D01*
X117701500Y-97358928D01*
X117701500Y-97144642D01*
X117665785Y-97073214D01*
X117630071Y-97037500D01*
X117558642Y-97001785D01*
X117451500Y-97001785D01*
X117380071Y-97037500D01*
X117344357Y-97073214D01*
X117308642Y-97144642D01*
X117308642Y-97358928D01*
X117344357Y-97430357D01*
X117380071Y-97466071D01*
X117451500Y-97501785D01*
X117558642Y-97501785D01*
X116987214Y-97501785D02*
X116987214Y-96751785D01*
X116987214Y-97108928D02*
X116558642Y-97108928D01*
X116558642Y-97501785D02*
X116558642Y-96751785D01*
X116201500Y-97501785D02*
X116201500Y-96751785D01*
X116022928Y-96751785D01*
X115915785Y-96787500D01*
X115844357Y-96858928D01*
X115808642Y-96930357D01*
X115772928Y-97073214D01*
X115772928Y-97180357D01*
X115808642Y-97323214D01*
X115844357Y-97394642D01*
X115915785Y-97466071D01*
X116022928Y-97501785D01*
X116201500Y-97501785D01*
X115451500Y-97501785D02*
X115451500Y-96751785D01*
X115201500Y-97287500D01*
X114951500Y-96751785D01*
X114951500Y-97501785D01*
X114594357Y-97501785D02*
X114594357Y-96751785D01*
X113701500Y-96716071D02*
X114344357Y-97680357D01*
D11*
%TO.C,R7*%
X164491936Y-69315000D02*
X164946064Y-69315000D01*
X164491936Y-67845000D02*
X164946064Y-67845000D01*
%TO.C,R6*%
X164491936Y-75665000D02*
X164946064Y-75665000D01*
X164491936Y-74195000D02*
X164946064Y-74195000D01*
%TO.C,R3*%
X164491936Y-95985000D02*
X164946064Y-95985000D01*
X164491936Y-94515000D02*
X164946064Y-94515000D01*
%TO.C,R2*%
X155347936Y-107669000D02*
X155802064Y-107669000D01*
X155347936Y-106199000D02*
X155802064Y-106199000D01*
%TO.C,R1*%
X164491936Y-93445000D02*
X164946064Y-93445000D01*
X164491936Y-91975000D02*
X164946064Y-91975000D01*
%TO.C,C4*%
X151992000Y-95623748D02*
X151992000Y-96146252D01*
X150522000Y-95623748D02*
X150522000Y-96146252D01*
%TO.C,C3*%
X154058252Y-98706000D02*
X153535748Y-98706000D01*
X154058252Y-100176000D02*
X153535748Y-100176000D01*
%TO.C,C2*%
X154439252Y-87403000D02*
X153916748Y-87403000D01*
X154439252Y-88873000D02*
X153916748Y-88873000D01*
%TO.C,U4*%
X140393600Y-89940001D02*
X79773600Y-89940000D01*
X79773600Y-89940000D02*
X79773600Y-108179999D01*
X79773600Y-108179999D02*
X140393600Y-108180000D01*
X140393600Y-108180000D02*
X140393600Y-102100000D01*
X140393600Y-102100000D02*
X140033600Y-102100000D01*
X140033600Y-102100000D02*
X140033600Y-96020001D01*
X140033600Y-96020001D02*
X140393600Y-96020001D01*
X140393600Y-96020001D02*
X140393600Y-89940001D01*
%TO.C,R7*%
D10*
X164885666Y-70682380D02*
X165219000Y-70206190D01*
X165457095Y-70682380D02*
X165457095Y-69682380D01*
X165076142Y-69682380D01*
X164980904Y-69730000D01*
X164933285Y-69777619D01*
X164885666Y-69872857D01*
X164885666Y-70015714D01*
X164933285Y-70110952D01*
X164980904Y-70158571D01*
X165076142Y-70206190D01*
X165457095Y-70206190D01*
X164552333Y-69682380D02*
X163885666Y-69682380D01*
X164314238Y-70682380D01*
X164879714Y-67269285D02*
X165308285Y-67269285D01*
X165094000Y-67269285D02*
X165094000Y-66519285D01*
X165165428Y-66626428D01*
X165236857Y-66697857D01*
X165308285Y-66733571D01*
X164558285Y-67269285D02*
X164558285Y-66519285D01*
X164129714Y-67269285D02*
X164451142Y-66840714D01*
X164129714Y-66519285D02*
X164558285Y-66947857D01*
%TO.C,R6*%
X164885666Y-77032380D02*
X165219000Y-76556190D01*
X165457095Y-77032380D02*
X165457095Y-76032380D01*
X165076142Y-76032380D01*
X164980904Y-76080000D01*
X164933285Y-76127619D01*
X164885666Y-76222857D01*
X164885666Y-76365714D01*
X164933285Y-76460952D01*
X164980904Y-76508571D01*
X165076142Y-76556190D01*
X165457095Y-76556190D01*
X164028523Y-76032380D02*
X164219000Y-76032380D01*
X164314238Y-76080000D01*
X164361857Y-76127619D01*
X164457095Y-76270476D01*
X164504714Y-76460952D01*
X164504714Y-76841904D01*
X164457095Y-76937142D01*
X164409476Y-76984761D01*
X164314238Y-77032380D01*
X164123761Y-77032380D01*
X164028523Y-76984761D01*
X163980904Y-76937142D01*
X163933285Y-76841904D01*
X163933285Y-76603809D01*
X163980904Y-76508571D01*
X164028523Y-76460952D01*
X164123761Y-76413333D01*
X164314238Y-76413333D01*
X164409476Y-76460952D01*
X164457095Y-76508571D01*
X164504714Y-76603809D01*
X164879714Y-73619285D02*
X165308285Y-73619285D01*
X165094000Y-73619285D02*
X165094000Y-72869285D01*
X165165428Y-72976428D01*
X165236857Y-73047857D01*
X165308285Y-73083571D01*
X164558285Y-73619285D02*
X164558285Y-72869285D01*
X164129714Y-73619285D02*
X164451142Y-73190714D01*
X164129714Y-72869285D02*
X164558285Y-73297857D01*
%TO.C,R3*%
X168060666Y-95829380D02*
X168394000Y-95353190D01*
X168632095Y-95829380D02*
X168632095Y-94829380D01*
X168251142Y-94829380D01*
X168155904Y-94877000D01*
X168108285Y-94924619D01*
X168060666Y-95019857D01*
X168060666Y-95162714D01*
X168108285Y-95257952D01*
X168155904Y-95305571D01*
X168251142Y-95353190D01*
X168632095Y-95353190D01*
X167727333Y-94829380D02*
X167108285Y-94829380D01*
X167441619Y-95210333D01*
X167298761Y-95210333D01*
X167203523Y-95257952D01*
X167155904Y-95305571D01*
X167108285Y-95400809D01*
X167108285Y-95638904D01*
X167155904Y-95734142D01*
X167203523Y-95781761D01*
X167298761Y-95829380D01*
X167584476Y-95829380D01*
X167679714Y-95781761D01*
X167727333Y-95734142D01*
X162438857Y-95089285D02*
X162438857Y-95589285D01*
X162617428Y-94803571D02*
X162796000Y-95339285D01*
X162331714Y-95339285D01*
X162046000Y-95517857D02*
X162010285Y-95553571D01*
X162046000Y-95589285D01*
X162081714Y-95553571D01*
X162046000Y-95517857D01*
X162046000Y-95589285D01*
X161760285Y-94839285D02*
X161260285Y-94839285D01*
X161581714Y-95589285D01*
X160974571Y-95589285D02*
X160974571Y-94839285D01*
X160546000Y-95589285D02*
X160867428Y-95160714D01*
X160546000Y-94839285D02*
X160974571Y-95267857D01*
%TO.C,R2*%
X158789666Y-106751380D02*
X159123000Y-106275190D01*
X159361095Y-106751380D02*
X159361095Y-105751380D01*
X158980142Y-105751380D01*
X158884904Y-105799000D01*
X158837285Y-105846619D01*
X158789666Y-105941857D01*
X158789666Y-106084714D01*
X158837285Y-106179952D01*
X158884904Y-106227571D01*
X158980142Y-106275190D01*
X159361095Y-106275190D01*
X158408714Y-105846619D02*
X158361095Y-105799000D01*
X158265857Y-105751380D01*
X158027761Y-105751380D01*
X157932523Y-105799000D01*
X157884904Y-105846619D01*
X157837285Y-105941857D01*
X157837285Y-106037095D01*
X157884904Y-106179952D01*
X158456333Y-106751380D01*
X157837285Y-106751380D01*
X158783714Y-107908285D02*
X159212285Y-107908285D01*
X158998000Y-107908285D02*
X158998000Y-107158285D01*
X159069428Y-107265428D01*
X159140857Y-107336857D01*
X159212285Y-107372571D01*
X158462285Y-107908285D02*
X158462285Y-107158285D01*
X158033714Y-107908285D02*
X158355142Y-107479714D01*
X158033714Y-107158285D02*
X158462285Y-107586857D01*
%TO.C,R1*%
X167933666Y-93162380D02*
X168267000Y-92686190D01*
X168505095Y-93162380D02*
X168505095Y-92162380D01*
X168124142Y-92162380D01*
X168028904Y-92210000D01*
X167981285Y-92257619D01*
X167933666Y-92352857D01*
X167933666Y-92495714D01*
X167981285Y-92590952D01*
X168028904Y-92638571D01*
X168124142Y-92686190D01*
X168505095Y-92686190D01*
X166981285Y-93162380D02*
X167552714Y-93162380D01*
X167267000Y-93162380D02*
X167267000Y-92162380D01*
X167362238Y-92305238D01*
X167457476Y-92400476D01*
X167552714Y-92448095D01*
X162212714Y-93049285D02*
X162641285Y-93049285D01*
X162427000Y-93049285D02*
X162427000Y-92299285D01*
X162498428Y-92406428D01*
X162569857Y-92477857D01*
X162641285Y-92513571D01*
X161891285Y-93049285D02*
X161891285Y-92299285D01*
X161462714Y-93049285D02*
X161784142Y-92620714D01*
X161462714Y-92299285D02*
X161891285Y-92727857D01*
%TO.C,C4*%
X148502666Y-95734142D02*
X148550285Y-95781761D01*
X148693142Y-95829380D01*
X148788380Y-95829380D01*
X148931238Y-95781761D01*
X149026476Y-95686523D01*
X149074095Y-95591285D01*
X149121714Y-95400809D01*
X149121714Y-95257952D01*
X149074095Y-95067476D01*
X149026476Y-94972238D01*
X148931238Y-94877000D01*
X148788380Y-94829380D01*
X148693142Y-94829380D01*
X148550285Y-94877000D01*
X148502666Y-94924619D01*
X147645523Y-95162714D02*
X147645523Y-95829380D01*
X147883619Y-94781761D02*
X148121714Y-95496047D01*
X147502666Y-95496047D01*
X149369714Y-97113285D02*
X149798285Y-97113285D01*
X149584000Y-97113285D02*
X149584000Y-96363285D01*
X149655428Y-96470428D01*
X149726857Y-96541857D01*
X149798285Y-96577571D01*
X148905428Y-96363285D02*
X148834000Y-96363285D01*
X148762571Y-96399000D01*
X148726857Y-96434714D01*
X148691142Y-96506142D01*
X148655428Y-96649000D01*
X148655428Y-96827571D01*
X148691142Y-96970428D01*
X148726857Y-97041857D01*
X148762571Y-97077571D01*
X148834000Y-97113285D01*
X148905428Y-97113285D01*
X148976857Y-97077571D01*
X149012571Y-97041857D01*
X149048285Y-96970428D01*
X149084000Y-96827571D01*
X149084000Y-96649000D01*
X149048285Y-96506142D01*
X149012571Y-96434714D01*
X148976857Y-96399000D01*
X148905428Y-96363285D01*
X148191142Y-96363285D02*
X148119714Y-96363285D01*
X148048285Y-96399000D01*
X148012571Y-96434714D01*
X147976857Y-96506142D01*
X147941142Y-96649000D01*
X147941142Y-96827571D01*
X147976857Y-96970428D01*
X148012571Y-97041857D01*
X148048285Y-97077571D01*
X148119714Y-97113285D01*
X148191142Y-97113285D01*
X148262571Y-97077571D01*
X148298285Y-97041857D01*
X148334000Y-96970428D01*
X148369714Y-96827571D01*
X148369714Y-96649000D01*
X148334000Y-96506142D01*
X148298285Y-96434714D01*
X148262571Y-96399000D01*
X148191142Y-96363285D01*
X147619714Y-96613285D02*
X147619714Y-97113285D01*
X147619714Y-96684714D02*
X147584000Y-96649000D01*
X147512571Y-96613285D01*
X147405428Y-96613285D01*
X147334000Y-96649000D01*
X147298285Y-96720428D01*
X147298285Y-97113285D01*
X146691142Y-96720428D02*
X146941142Y-96720428D01*
X146941142Y-97113285D02*
X146941142Y-96363285D01*
X146584000Y-96363285D01*
%TO.C,C3*%
X153265166Y-101512642D02*
X153312785Y-101560261D01*
X153455642Y-101607880D01*
X153550880Y-101607880D01*
X153693738Y-101560261D01*
X153788976Y-101465023D01*
X153836595Y-101369785D01*
X153884214Y-101179309D01*
X153884214Y-101036452D01*
X153836595Y-100845976D01*
X153788976Y-100750738D01*
X153693738Y-100655500D01*
X153550880Y-100607880D01*
X153455642Y-100607880D01*
X153312785Y-100655500D01*
X153265166Y-100703119D01*
X152931833Y-100607880D02*
X152312785Y-100607880D01*
X152646119Y-100988833D01*
X152503261Y-100988833D01*
X152408023Y-101036452D01*
X152360404Y-101084071D01*
X152312785Y-101179309D01*
X152312785Y-101417404D01*
X152360404Y-101512642D01*
X152408023Y-101560261D01*
X152503261Y-101607880D01*
X152788976Y-101607880D01*
X152884214Y-101560261D01*
X152931833Y-101512642D01*
X154259214Y-102701285D02*
X154687785Y-102701285D01*
X154473500Y-102701285D02*
X154473500Y-101951285D01*
X154544928Y-102058428D01*
X154616357Y-102129857D01*
X154687785Y-102165571D01*
X153794928Y-101951285D02*
X153723500Y-101951285D01*
X153652071Y-101987000D01*
X153616357Y-102022714D01*
X153580642Y-102094142D01*
X153544928Y-102237000D01*
X153544928Y-102415571D01*
X153580642Y-102558428D01*
X153616357Y-102629857D01*
X153652071Y-102665571D01*
X153723500Y-102701285D01*
X153794928Y-102701285D01*
X153866357Y-102665571D01*
X153902071Y-102629857D01*
X153937785Y-102558428D01*
X153973500Y-102415571D01*
X153973500Y-102237000D01*
X153937785Y-102094142D01*
X153902071Y-102022714D01*
X153866357Y-101987000D01*
X153794928Y-101951285D01*
X153080642Y-101951285D02*
X153009214Y-101951285D01*
X152937785Y-101987000D01*
X152902071Y-102022714D01*
X152866357Y-102094142D01*
X152830642Y-102237000D01*
X152830642Y-102415571D01*
X152866357Y-102558428D01*
X152902071Y-102629857D01*
X152937785Y-102665571D01*
X153009214Y-102701285D01*
X153080642Y-102701285D01*
X153152071Y-102665571D01*
X153187785Y-102629857D01*
X153223500Y-102558428D01*
X153259214Y-102415571D01*
X153259214Y-102237000D01*
X153223500Y-102094142D01*
X153187785Y-102022714D01*
X153152071Y-101987000D01*
X153080642Y-101951285D01*
X152509214Y-102201285D02*
X152509214Y-102701285D01*
X152509214Y-102272714D02*
X152473500Y-102237000D01*
X152402071Y-102201285D01*
X152294928Y-102201285D01*
X152223500Y-102237000D01*
X152187785Y-102308428D01*
X152187785Y-102701285D01*
X151580642Y-102308428D02*
X151830642Y-102308428D01*
X151830642Y-102701285D02*
X151830642Y-101951285D01*
X151473500Y-101951285D01*
%TO.C,C2*%
X150915666Y-88114142D02*
X150963285Y-88161761D01*
X151106142Y-88209380D01*
X151201380Y-88209380D01*
X151344238Y-88161761D01*
X151439476Y-88066523D01*
X151487095Y-87971285D01*
X151534714Y-87780809D01*
X151534714Y-87637952D01*
X151487095Y-87447476D01*
X151439476Y-87352238D01*
X151344238Y-87257000D01*
X151201380Y-87209380D01*
X151106142Y-87209380D01*
X150963285Y-87257000D01*
X150915666Y-87304619D01*
X150534714Y-87304619D02*
X150487095Y-87257000D01*
X150391857Y-87209380D01*
X150153761Y-87209380D01*
X150058523Y-87257000D01*
X150010904Y-87304619D01*
X149963285Y-87399857D01*
X149963285Y-87495095D01*
X150010904Y-87637952D01*
X150582333Y-88209380D01*
X149963285Y-88209380D01*
X151782714Y-89366285D02*
X152211285Y-89366285D01*
X151997000Y-89366285D02*
X151997000Y-88616285D01*
X152068428Y-88723428D01*
X152139857Y-88794857D01*
X152211285Y-88830571D01*
X151318428Y-88616285D02*
X151247000Y-88616285D01*
X151175571Y-88652000D01*
X151139857Y-88687714D01*
X151104142Y-88759142D01*
X151068428Y-88902000D01*
X151068428Y-89080571D01*
X151104142Y-89223428D01*
X151139857Y-89294857D01*
X151175571Y-89330571D01*
X151247000Y-89366285D01*
X151318428Y-89366285D01*
X151389857Y-89330571D01*
X151425571Y-89294857D01*
X151461285Y-89223428D01*
X151497000Y-89080571D01*
X151497000Y-88902000D01*
X151461285Y-88759142D01*
X151425571Y-88687714D01*
X151389857Y-88652000D01*
X151318428Y-88616285D01*
X150604142Y-88616285D02*
X150532714Y-88616285D01*
X150461285Y-88652000D01*
X150425571Y-88687714D01*
X150389857Y-88759142D01*
X150354142Y-88902000D01*
X150354142Y-89080571D01*
X150389857Y-89223428D01*
X150425571Y-89294857D01*
X150461285Y-89330571D01*
X150532714Y-89366285D01*
X150604142Y-89366285D01*
X150675571Y-89330571D01*
X150711285Y-89294857D01*
X150747000Y-89223428D01*
X150782714Y-89080571D01*
X150782714Y-88902000D01*
X150747000Y-88759142D01*
X150711285Y-88687714D01*
X150675571Y-88652000D01*
X150604142Y-88616285D01*
X150032714Y-88866285D02*
X150032714Y-89366285D01*
X150032714Y-88937714D02*
X149997000Y-88902000D01*
X149925571Y-88866285D01*
X149818428Y-88866285D01*
X149747000Y-88902000D01*
X149711285Y-88973428D01*
X149711285Y-89366285D01*
X149104142Y-88973428D02*
X149354142Y-88973428D01*
X149354142Y-89366285D02*
X149354142Y-88616285D01*
X148997000Y-88616285D01*
%TO.C,U4*%
X140845980Y-98298095D02*
X141655504Y-98298095D01*
X141750742Y-98345714D01*
X141798361Y-98393333D01*
X141845980Y-98488571D01*
X141845980Y-98679047D01*
X141798361Y-98774285D01*
X141750742Y-98821904D01*
X141655504Y-98869523D01*
X140845980Y-98869523D01*
X141179314Y-99774285D02*
X141845980Y-99774285D01*
X140798361Y-99536190D02*
X141512647Y-99298095D01*
X141512647Y-99917142D01*
%TD*%
M02*
