%TF.GenerationSoftware,KiCad,Pcbnew,(5.1.9)-1*%
%TF.CreationDate,2021-05-22T07:09:12+01:00*%
%TF.ProjectId,RGBtoHDMI Amiga Denise DIP CPLD,52474274-6f48-4444-9d49-20416d696761,rev?*%
%TF.SameCoordinates,Original*%
%TF.FileFunction,Profile,NP*%
%FSLAX46Y46*%
G04 Gerber Fmt 4.6, Leading zero omitted, Abs format (unit mm)*
G04 Created by KiCad (PCBNEW (5.1.9)-1) date 2021-05-22 07:09:12*
%MOMM*%
%LPD*%
G01*
G04 APERTURE LIST*
%TA.AperFunction,Profile*%
%ADD10C,0.050000*%
%TD*%
G04 APERTURE END LIST*
D10*
X158115000Y-74295000D02*
G75*
G02*
X156210000Y-76200000I-1905000J0D01*
G01*
X158115000Y-74295000D02*
X158115000Y-67310000D01*
X158115000Y-67310000D02*
G75*
G02*
X160020000Y-65405000I1905000J0D01*
G01*
X167005000Y-65405000D02*
X160020000Y-65405000D01*
X184150000Y-108585000D02*
G75*
G02*
X182245000Y-110490000I-1905000J0D01*
G01*
X182245000Y-56515000D02*
G75*
G02*
X184150000Y-58420000I0J-1905000D01*
G01*
X168910000Y-58420000D02*
G75*
G02*
X170815000Y-56515000I1905000J0D01*
G01*
X168910000Y-63500000D02*
G75*
G02*
X167005000Y-65405000I-1905000J0D01*
G01*
X146050000Y-78105000D02*
G75*
G02*
X147955000Y-76200000I1905000J0D01*
G01*
X146050000Y-80010000D02*
G75*
G02*
X144145000Y-81915000I-1905000J0D01*
G01*
X80899000Y-110490000D02*
G75*
G02*
X78994000Y-108585000I0J1905000D01*
G01*
X78994000Y-83820000D02*
G75*
G02*
X80899000Y-81915000I1905000J0D01*
G01*
X147955000Y-76200000D02*
X156210000Y-76200000D01*
X146050000Y-80010000D02*
X146050000Y-78105000D01*
X170815000Y-56515000D02*
X182245000Y-56515000D01*
X168910000Y-63500000D02*
X168910000Y-58420000D01*
X80899000Y-81915000D02*
X144145000Y-81915000D01*
X78994000Y-108585000D02*
X78994000Y-83820000D01*
X182245000Y-110490000D02*
X80899000Y-110490000D01*
X184150000Y-58420000D02*
X184150000Y-108585000D01*
M02*
