M48
; DRILL file {KiCad (5.1.9)-1} date 05/22/21 07:09:14
; FORMAT={-:-/ absolute / inch / decimal}
; #@! TF.CreationDate,2021-05-22T07:09:14+01:00
; #@! TF.GenerationSoftware,Kicad,Pcbnew,(5.1.9)-1
; #@! TF.FileFunction,Plated,1,2,PTH
FMAT,2
INCH
T1C0.0157
T2C0.0315
T3C0.0394
%
G90
G05
T1
X3.145Y-3.425
X3.145Y-3.5
X3.145Y-4.3
X3.15Y-3.765
X3.15Y-4.025
X3.15Y-4.125
X3.155Y-3.265
X3.185Y-3.69
X3.185Y-3.845
X3.225Y-3.765
X3.23Y-3.425
X3.23Y-3.5
X3.235Y-3.265
X3.235Y-4.025
X3.235Y-4.125
X3.235Y-4.3
X3.25Y-3.69
X3.285Y-3.765
X3.325Y-3.69
X3.335Y-3.265
X3.335Y-3.42
X3.335Y-3.845
X3.335Y-4.025
X3.335Y-4.125
X3.335Y-4.3
X3.385Y-3.69
X3.425Y-3.845
X3.435Y-3.265
X3.435Y-3.42
X3.435Y-3.5
X3.435Y-4.025
X3.435Y-4.125
X3.485Y-3.845
X3.535Y-3.265
X3.535Y-3.66
X3.535Y-4.025
X3.535Y-4.125
X3.57Y-3.845
X3.59Y-3.41
X3.59Y-3.46
X3.59Y-3.515
X3.785Y-3.415
X3.785Y-3.46
X3.785Y-3.515
X3.835Y-4.035
X3.835Y-4.125
X3.935Y-3.42
X3.935Y-3.49
X3.935Y-4.01
X3.935Y-4.125
X4.0325Y-3.7325
X4.035Y-3.42
X4.035Y-3.49
X4.035Y-4.035
X4.035Y-4.125
X4.135Y-3.42
X4.135Y-3.49
X4.135Y-3.73
X4.135Y-4.035
X4.135Y-4.125
X4.135Y-3.855
X4.14Y-3.665
X4.235Y-3.42
X4.235Y-3.49
X4.235Y-3.855
X4.235Y-4.035
X4.235Y-4.125
X4.33Y-3.855
X4.33Y-4.035
X4.33Y-4.125
X4.335Y-3.42
X4.335Y-3.49
X4.435Y-3.42
X4.435Y-3.49
X4.435Y-3.855
X4.435Y-4.035
X4.435Y-4.125
X4.535Y-3.42
X4.535Y-3.49
X4.535Y-3.855
X4.535Y-4.035
X4.535Y-4.125
X4.635Y-3.42
X4.635Y-3.49
X4.635Y-3.855
X4.635Y-4.035
X4.635Y-4.125
X4.735Y-3.42
X4.735Y-3.49
X4.735Y-3.855
X4.735Y-4.035
X4.735Y-4.125
X4.835Y-3.42
X4.835Y-3.49
X4.835Y-3.855
X4.835Y-4.035
X4.835Y-4.125
X4.935Y-3.42
X4.935Y-3.49
X4.935Y-3.855
X4.935Y-4.035
X4.935Y-4.125
X5.035Y-3.42
X5.035Y-3.49
X5.035Y-3.855
X5.035Y-4.035
X5.035Y-4.125
X5.135Y-3.42
X5.135Y-3.49
X5.135Y-3.855
X5.135Y-4.035
X5.135Y-4.125
X5.23Y-3.42
X5.23Y-3.49
X5.235Y-3.855
X5.235Y-4.035
X5.235Y-4.125
X5.335Y-3.42
X5.335Y-3.49
X5.335Y-3.855
X5.335Y-4.035
X5.335Y-4.125
X5.435Y-3.42
X5.435Y-3.49
X5.435Y-3.855
X5.435Y-4.035
X5.435Y-4.125
X5.52Y-3.42
X5.52Y-3.495
X5.545Y-3.855
X5.545Y-4.035
X5.545Y-4.125
X5.595Y-3.57
X5.61Y-3.915
X5.635Y-4.2475
X5.6425Y-3.6575
X5.66Y-4.035
X5.66Y-4.135
X5.705Y-3.64
X5.73Y-4.225
X5.735Y-3.915
X5.77Y-4.035
X5.7775Y-4.25
X5.785Y-4.115
X5.7875Y-3.6325
X5.795Y-3.395
X5.85Y-4.19
X5.86Y-3.35
X5.865Y-3.555
X5.88Y-3.465
X5.885Y-3.995
X5.89Y-4.2425
X5.8925Y-3.6925
X5.8975Y-3.885
X5.9Y-3.15
X5.9Y-3.755
X5.9Y-3.815
X5.95Y-3.32
X5.95Y-4.0
X5.955Y-3.1
X5.97Y-3.9
X5.985Y-3.47
X5.9875Y-4.1525
X6.0Y-3.15
X6.005Y-3.815
X6.01Y-4.185
X6.015Y-3.865
X6.02Y-3.42
X6.02Y-3.685
X6.06Y-3.1025
X6.07Y-3.685
X6.0796Y-3.9896
X6.1025Y-4.1575
X6.1125Y-3.853
X6.115Y-3.54
X6.15Y-3.36
X6.16Y-3.535
X6.165Y-3.695
X6.17Y-3.78
X6.195Y-3.8158
X6.21Y-3.365
X6.2125Y-3.8625
X6.2125Y-3.95
X6.225Y-3.555
X6.255Y-3.345
X6.265Y-3.565
X6.2656Y-4.0744
X6.2675Y-3.4
X6.3Y-3.14
X6.305Y-3.35
X6.33Y-3.585
X6.33Y-4.13
X6.34Y-3.4
X6.35Y-2.65
X6.35Y-2.7
X6.35Y-2.75
X6.35Y-2.8
X6.35Y-2.85
X6.35Y-2.9
X6.35Y-2.95
X6.35Y-3.0
X6.36Y-3.685
X6.3625Y-3.84
X6.365Y-3.545
X6.365Y-3.915
X6.365Y-4.07
X6.38Y-3.785
X6.39Y-3.88
X6.395Y-4.155
X6.405Y-3.82
X6.435Y-4.0475
X6.465Y-4.1517
X6.4775Y-3.3225
X6.48Y-3.055
X6.49Y-3.17
X6.49Y-3.56
X6.5Y-4.04
X6.51Y-3.435
X6.51Y-3.352
X6.5225Y-3.2075
X6.525Y-3.8
X6.525Y-4.18
X6.535Y-3.505
X6.535Y-4.135
X6.55Y-3.14
X6.555Y-3.335
X6.57Y-3.75
X6.575Y-2.65
X6.58Y-4.195
X6.59Y-3.425
X6.605Y-4.065
X6.6125Y-3.22
X6.635Y-4.2156
X6.6359Y-3.7054
X6.6434Y-3.5581
X6.645Y-3.368
X6.65Y-3.19
X6.67Y-3.625
X6.675Y-2.65
X6.69Y-3.37
X6.69Y-4.215
X6.705Y-2.4
X6.705Y-4.155
X6.7076Y-3.5776
X6.7251Y-3.6517
X6.735Y-2.55
X6.9417Y-3.385
X6.965Y-2.5
X6.98Y-2.3
X6.99Y-3.05
X6.99Y-2.58
X6.99Y-2.635
X6.99Y-2.745
X6.99Y-3.55
X6.99Y-3.65
X6.99Y-3.75
X6.995Y-2.8
X7.0Y-2.85
X7.0Y-2.9
X7.055Y-2.5
X7.07Y-2.325
X7.07Y-2.87
X7.07Y-2.95
X7.075Y-2.405
X7.08Y-3.28
X7.08Y-3.355
X7.085Y-2.61
X7.085Y-2.71
X7.115Y-3.19
X7.125Y-2.275
X7.125Y-2.45
X7.175Y-4.2
X7.18Y-2.325
X7.18Y-2.72
X7.185Y-4.1
X7.195Y-4.295
T2
X3.184Y-3.6
X3.184Y-4.2
X3.1848Y-3.325
X3.1848Y-3.925
X3.284Y-3.6
X3.284Y-4.2
X3.2848Y-3.325
X3.2848Y-3.925
X3.384Y-3.6
X3.384Y-4.2
X3.3848Y-3.325
X3.3848Y-3.925
X3.484Y-3.6
X3.484Y-4.2
X3.4848Y-3.325
X3.4848Y-3.925
X3.584Y-3.6
X3.584Y-4.2
X3.5848Y-3.325
X3.5848Y-3.925
X3.684Y-3.6
X3.684Y-4.2
X3.6848Y-3.325
X3.6848Y-3.925
X3.784Y-3.6
X3.784Y-4.2
X3.7848Y-3.325
X3.7848Y-3.925
X3.884Y-3.6
X3.884Y-4.2
X3.8848Y-3.325
X3.8848Y-3.925
X3.984Y-3.6
X3.984Y-4.2
X3.9848Y-3.325
X3.9848Y-3.925
X4.084Y-3.6
X4.084Y-4.2
X4.0848Y-3.325
X4.0848Y-3.925
X4.184Y-3.6
X4.184Y-4.2
X4.1848Y-3.325
X4.1848Y-3.925
X4.284Y-3.6
X4.284Y-4.2
X4.2848Y-3.325
X4.2848Y-3.925
X4.384Y-3.6
X4.384Y-4.2
X4.3848Y-3.325
X4.3848Y-3.925
X4.484Y-3.6
X4.484Y-4.2
X4.4848Y-3.325
X4.4848Y-3.925
X4.584Y-3.6
X4.584Y-4.2
X4.5848Y-3.325
X4.5848Y-3.925
X4.684Y-3.6
X4.684Y-4.2
X4.6848Y-3.325
X4.6848Y-3.925
X4.784Y-3.6
X4.784Y-4.2
X4.7848Y-3.325
X4.7848Y-3.925
X4.884Y-3.6
X4.884Y-4.2
X4.8848Y-3.325
X4.8848Y-3.925
X4.984Y-3.6
X4.984Y-4.2
X4.9848Y-3.325
X4.9848Y-3.925
X5.084Y-3.6
X5.084Y-4.2
X5.0848Y-3.325
X5.0848Y-3.925
X5.184Y-3.6
X5.184Y-4.2
X5.1848Y-3.325
X5.1848Y-3.925
X5.284Y-3.6
X5.284Y-4.2
X5.2848Y-3.325
X5.2848Y-3.925
X5.384Y-3.6
X5.384Y-4.2
X5.3848Y-3.325
X5.3848Y-3.925
X5.484Y-3.6
X5.484Y-4.2
X5.4848Y-3.325
X5.4848Y-3.925
T3
X5.9Y-3.225
X6.0Y-3.225
X6.1Y-3.225
X6.2Y-3.225
X6.3Y-3.225
X6.4Y-3.225
X6.52Y-3.945
X6.62Y-3.945
X6.625Y-2.7
X6.625Y-2.8
X6.625Y-2.95
X6.625Y-3.05
X6.785Y-2.3
X6.785Y-2.4
X6.785Y-2.5
X6.785Y-2.6
X6.785Y-2.7
X6.785Y-2.8
X6.785Y-2.9
X6.785Y-3.0
X6.785Y-3.1
X6.785Y-3.2
X6.785Y-3.3
X6.785Y-3.4
X6.785Y-3.5
X6.785Y-3.6
X6.785Y-3.7
X6.785Y-3.8
X6.785Y-3.9
X6.785Y-4.0
X6.785Y-4.1
X6.785Y-4.2
X6.885Y-2.3
X6.885Y-2.4
X6.885Y-2.5
X6.885Y-2.6
X6.885Y-2.7
X6.885Y-2.8
X6.885Y-2.9
X6.885Y-3.0
X6.885Y-3.1
X6.885Y-3.2
X6.885Y-3.3
X6.885Y-3.4
X6.885Y-3.5
X6.885Y-3.6
X6.885Y-3.7
X6.885Y-3.8
X6.885Y-3.9
X6.885Y-4.0
X6.885Y-4.1
X6.885Y-4.2
X7.09Y-3.5
X7.09Y-3.6
X7.09Y-3.7
X7.09Y-3.8
X7.09Y-3.9
X7.09Y-4.0
X7.09Y-4.1
X7.09Y-4.2
X7.09Y-4.3
T0
M30
