%TF.GenerationSoftware,KiCad,Pcbnew,(5.1.9)-1*%
%TF.CreationDate,2021-05-22T07:09:12+01:00*%
%TF.ProjectId,RGBtoHDMI Amiga Denise DIP CPLD,52474274-6f48-4444-9d49-20416d696761,rev?*%
%TF.SameCoordinates,Original*%
%TF.FileFunction,Soldermask,Bot*%
%TF.FilePolarity,Negative*%
%FSLAX46Y46*%
G04 Gerber Fmt 4.6, Leading zero omitted, Abs format (unit mm)*
G04 Created by KiCad (PCBNEW (5.1.9)-1) date 2021-05-22 07:09:12*
%MOMM*%
%LPD*%
G01*
G04 APERTURE LIST*
%ADD10O,2.000000X2.000000*%
%ADD11O,1.500000X2.300000*%
%ADD12O,1.900000X1.900000*%
G04 APERTURE END LIST*
%TO.C,FFOSD1*%
G36*
G01*
X179086000Y-89750000D02*
X179086000Y-88050000D01*
G75*
G02*
X179236000Y-87900000I150000J0D01*
G01*
X180936000Y-87900000D01*
G75*
G02*
X181086000Y-88050000I0J-150000D01*
G01*
X181086000Y-89750000D01*
G75*
G02*
X180936000Y-89900000I-150000J0D01*
G01*
X179236000Y-89900000D01*
G75*
G02*
X179086000Y-89750000I0J150000D01*
G01*
G37*
D10*
X180086000Y-91440000D03*
X180086000Y-93980000D03*
X180086000Y-96520000D03*
X180086000Y-99060000D03*
X180086000Y-101600000D03*
X180086000Y-104140000D03*
X180086000Y-106680000D03*
X180086000Y-109220000D03*
%TD*%
%TO.C,R7*%
G36*
G01*
X164969000Y-69117502D02*
X164969000Y-68042498D01*
G75*
G02*
X165281498Y-67730000I312498J0D01*
G01*
X166156502Y-67730000D01*
G75*
G02*
X166469000Y-68042498I0J-312498D01*
G01*
X166469000Y-69117502D01*
G75*
G02*
X166156502Y-69430000I-312498J0D01*
G01*
X165281498Y-69430000D01*
G75*
G02*
X164969000Y-69117502I0J312498D01*
G01*
G37*
G36*
G01*
X162969000Y-69117502D02*
X162969000Y-68042498D01*
G75*
G02*
X163281498Y-67730000I312498J0D01*
G01*
X164156502Y-67730000D01*
G75*
G02*
X164469000Y-68042498I0J-312498D01*
G01*
X164469000Y-69117502D01*
G75*
G02*
X164156502Y-69430000I-312498J0D01*
G01*
X163281498Y-69430000D01*
G75*
G02*
X162969000Y-69117502I0J312498D01*
G01*
G37*
%TD*%
%TO.C,R6*%
G36*
G01*
X164969000Y-75467502D02*
X164969000Y-74392498D01*
G75*
G02*
X165281498Y-74080000I312498J0D01*
G01*
X166156502Y-74080000D01*
G75*
G02*
X166469000Y-74392498I0J-312498D01*
G01*
X166469000Y-75467502D01*
G75*
G02*
X166156502Y-75780000I-312498J0D01*
G01*
X165281498Y-75780000D01*
G75*
G02*
X164969000Y-75467502I0J312498D01*
G01*
G37*
G36*
G01*
X162969000Y-75467502D02*
X162969000Y-74392498D01*
G75*
G02*
X163281498Y-74080000I312498J0D01*
G01*
X164156502Y-74080000D01*
G75*
G02*
X164469000Y-74392498I0J-312498D01*
G01*
X164469000Y-75467502D01*
G75*
G02*
X164156502Y-75780000I-312498J0D01*
G01*
X163281498Y-75780000D01*
G75*
G02*
X162969000Y-75467502I0J312498D01*
G01*
G37*
%TD*%
%TO.C,BT3*%
X168275000Y-68580000D03*
G36*
G01*
X169275000Y-70270000D02*
X169275000Y-71970000D01*
G75*
G02*
X169125000Y-72120000I-150000J0D01*
G01*
X167425000Y-72120000D01*
G75*
G02*
X167275000Y-71970000I0J150000D01*
G01*
X167275000Y-70270000D01*
G75*
G02*
X167425000Y-70120000I150000J0D01*
G01*
X169125000Y-70120000D01*
G75*
G02*
X169275000Y-70270000I0J-150000D01*
G01*
G37*
%TD*%
%TO.C,BT2*%
X168275000Y-74930000D03*
G36*
G01*
X169275000Y-76620000D02*
X169275000Y-78320000D01*
G75*
G02*
X169125000Y-78470000I-150000J0D01*
G01*
X167425000Y-78470000D01*
G75*
G02*
X167275000Y-78320000I0J150000D01*
G01*
X167275000Y-76620000D01*
G75*
G02*
X167425000Y-76470000I150000J0D01*
G01*
X169125000Y-76470000D01*
G75*
G02*
X169275000Y-76620000I0J-150000D01*
G01*
G37*
%TD*%
%TO.C,JTAG1*%
X149860000Y-81915000D03*
X152400000Y-81915000D03*
X154940000Y-81915000D03*
X157480000Y-81915000D03*
X160020000Y-81915000D03*
G36*
G01*
X161710000Y-80915000D02*
X163410000Y-80915000D01*
G75*
G02*
X163560000Y-81065000I0J-150000D01*
G01*
X163560000Y-82765000D01*
G75*
G02*
X163410000Y-82915000I-150000J0D01*
G01*
X161710000Y-82915000D01*
G75*
G02*
X161560000Y-82765000I0J150000D01*
G01*
X161560000Y-81065000D01*
G75*
G02*
X161710000Y-80915000I150000J0D01*
G01*
G37*
%TD*%
%TO.C,R3*%
G36*
G01*
X164969000Y-95787502D02*
X164969000Y-94712498D01*
G75*
G02*
X165281498Y-94400000I312498J0D01*
G01*
X166156502Y-94400000D01*
G75*
G02*
X166469000Y-94712498I0J-312498D01*
G01*
X166469000Y-95787502D01*
G75*
G02*
X166156502Y-96100000I-312498J0D01*
G01*
X165281498Y-96100000D01*
G75*
G02*
X164969000Y-95787502I0J312498D01*
G01*
G37*
G36*
G01*
X162969000Y-95787502D02*
X162969000Y-94712498D01*
G75*
G02*
X163281498Y-94400000I312498J0D01*
G01*
X164156502Y-94400000D01*
G75*
G02*
X164469000Y-94712498I0J-312498D01*
G01*
X164469000Y-95787502D01*
G75*
G02*
X164156502Y-96100000I-312498J0D01*
G01*
X163281498Y-96100000D01*
G75*
G02*
X162969000Y-95787502I0J312498D01*
G01*
G37*
%TD*%
%TO.C,R2*%
G36*
G01*
X155825000Y-107471502D02*
X155825000Y-106396498D01*
G75*
G02*
X156137498Y-106084000I312498J0D01*
G01*
X157012502Y-106084000D01*
G75*
G02*
X157325000Y-106396498I0J-312498D01*
G01*
X157325000Y-107471502D01*
G75*
G02*
X157012502Y-107784000I-312498J0D01*
G01*
X156137498Y-107784000D01*
G75*
G02*
X155825000Y-107471502I0J312498D01*
G01*
G37*
G36*
G01*
X153825000Y-107471502D02*
X153825000Y-106396498D01*
G75*
G02*
X154137498Y-106084000I312498J0D01*
G01*
X155012502Y-106084000D01*
G75*
G02*
X155325000Y-106396498I0J-312498D01*
G01*
X155325000Y-107471502D01*
G75*
G02*
X155012502Y-107784000I-312498J0D01*
G01*
X154137498Y-107784000D01*
G75*
G02*
X153825000Y-107471502I0J312498D01*
G01*
G37*
%TD*%
%TO.C,R1*%
G36*
G01*
X164969000Y-93247502D02*
X164969000Y-92172498D01*
G75*
G02*
X165281498Y-91860000I312498J0D01*
G01*
X166156502Y-91860000D01*
G75*
G02*
X166469000Y-92172498I0J-312498D01*
G01*
X166469000Y-93247502D01*
G75*
G02*
X166156502Y-93560000I-312498J0D01*
G01*
X165281498Y-93560000D01*
G75*
G02*
X164969000Y-93247502I0J312498D01*
G01*
G37*
G36*
G01*
X162969000Y-93247502D02*
X162969000Y-92172498D01*
G75*
G02*
X163281498Y-91860000I312498J0D01*
G01*
X164156502Y-91860000D01*
G75*
G02*
X164469000Y-92172498I0J-312498D01*
G01*
X164469000Y-93247502D01*
G75*
G02*
X164156502Y-93560000I-312498J0D01*
G01*
X163281498Y-93560000D01*
G75*
G02*
X162969000Y-93247502I0J312498D01*
G01*
G37*
%TD*%
%TO.C,C4*%
G36*
G01*
X150695829Y-94110000D02*
X151818171Y-94110000D01*
G75*
G02*
X152132000Y-94423829I0J-313829D01*
G01*
X152132000Y-95271171D01*
G75*
G02*
X151818171Y-95585000I-313829J0D01*
G01*
X150695829Y-95585000D01*
G75*
G02*
X150382000Y-95271171I0J313829D01*
G01*
X150382000Y-94423829D01*
G75*
G02*
X150695829Y-94110000I313829J0D01*
G01*
G37*
G36*
G01*
X150695829Y-96185000D02*
X151818171Y-96185000D01*
G75*
G02*
X152132000Y-96498829I0J-313829D01*
G01*
X152132000Y-97346171D01*
G75*
G02*
X151818171Y-97660000I-313829J0D01*
G01*
X150695829Y-97660000D01*
G75*
G02*
X150382000Y-97346171I0J313829D01*
G01*
X150382000Y-96498829D01*
G75*
G02*
X150695829Y-96185000I313829J0D01*
G01*
G37*
%TD*%
%TO.C,C3*%
G36*
G01*
X153497000Y-98879829D02*
X153497000Y-100002171D01*
G75*
G02*
X153183171Y-100316000I-313829J0D01*
G01*
X152335829Y-100316000D01*
G75*
G02*
X152022000Y-100002171I0J313829D01*
G01*
X152022000Y-98879829D01*
G75*
G02*
X152335829Y-98566000I313829J0D01*
G01*
X153183171Y-98566000D01*
G75*
G02*
X153497000Y-98879829I0J-313829D01*
G01*
G37*
G36*
G01*
X155572000Y-98879829D02*
X155572000Y-100002171D01*
G75*
G02*
X155258171Y-100316000I-313829J0D01*
G01*
X154410829Y-100316000D01*
G75*
G02*
X154097000Y-100002171I0J313829D01*
G01*
X154097000Y-98879829D01*
G75*
G02*
X154410829Y-98566000I313829J0D01*
G01*
X155258171Y-98566000D01*
G75*
G02*
X155572000Y-98879829I0J-313829D01*
G01*
G37*
%TD*%
%TO.C,C2*%
G36*
G01*
X153878000Y-87576829D02*
X153878000Y-88699171D01*
G75*
G02*
X153564171Y-89013000I-313829J0D01*
G01*
X152716829Y-89013000D01*
G75*
G02*
X152403000Y-88699171I0J313829D01*
G01*
X152403000Y-87576829D01*
G75*
G02*
X152716829Y-87263000I313829J0D01*
G01*
X153564171Y-87263000D01*
G75*
G02*
X153878000Y-87576829I0J-313829D01*
G01*
G37*
G36*
G01*
X155953000Y-87576829D02*
X155953000Y-88699171D01*
G75*
G02*
X155639171Y-89013000I-313829J0D01*
G01*
X154791829Y-89013000D01*
G75*
G02*
X154478000Y-88699171I0J313829D01*
G01*
X154478000Y-87576829D01*
G75*
G02*
X154791829Y-87263000I313829J0D01*
G01*
X155639171Y-87263000D01*
G75*
G02*
X155953000Y-87576829I0J-313829D01*
G01*
G37*
%TD*%
D11*
%TO.C,U4*%
X80873600Y-91440000D03*
X80873600Y-106680000D03*
X83413600Y-91440000D03*
X83413600Y-106680000D03*
X85953600Y-91440000D03*
X85953600Y-106680000D03*
X88493600Y-91440000D03*
X88493600Y-106680000D03*
X91033600Y-91440000D03*
X91033600Y-106680000D03*
X93573600Y-91440000D03*
X93573600Y-106680000D03*
X96113600Y-91440000D03*
X96113600Y-106680000D03*
X98653600Y-91440000D03*
X98653600Y-106680000D03*
X101193600Y-91440000D03*
X101193600Y-106680000D03*
X103733600Y-91440000D03*
X103733600Y-106680000D03*
X106273600Y-91440000D03*
X106273600Y-106680000D03*
X108813600Y-91440000D03*
X108813600Y-106680000D03*
X111353600Y-91440000D03*
X111353600Y-106680000D03*
X113893600Y-91440000D03*
X113893600Y-106680000D03*
X116433600Y-91440000D03*
X116433600Y-106680000D03*
X118973600Y-91440000D03*
X118973600Y-106680000D03*
X121513600Y-91440000D03*
X121513600Y-106680000D03*
X124053600Y-91440000D03*
X124053600Y-106680000D03*
X126593600Y-91440000D03*
X126593600Y-106680000D03*
X129133600Y-91440000D03*
X129133600Y-106680000D03*
X131673600Y-91440000D03*
X131673600Y-106680000D03*
X134213600Y-91440000D03*
X134213600Y-106680000D03*
X136753600Y-91440000D03*
X136753600Y-106680000D03*
X139293600Y-91440000D03*
X139293600Y-106680000D03*
%TD*%
D10*
%TO.C,J1*%
X172339000Y-106680000D03*
X174879000Y-106680000D03*
X172339000Y-104140000D03*
X174879000Y-104140000D03*
X172339000Y-101600000D03*
X174879000Y-101600000D03*
X172339000Y-99060000D03*
X174879000Y-99060000D03*
X172339000Y-96520000D03*
X174879000Y-96520000D03*
X172339000Y-93980000D03*
X174879000Y-93980000D03*
X172339000Y-91440000D03*
X174879000Y-91440000D03*
X172339000Y-88900000D03*
X174879000Y-88900000D03*
X172339000Y-86360000D03*
X174879000Y-86360000D03*
X172339000Y-83820000D03*
X174879000Y-83820000D03*
X172339000Y-81280000D03*
X174879000Y-81280000D03*
X172339000Y-78740000D03*
X174879000Y-78740000D03*
X172339000Y-76200000D03*
X174879000Y-76200000D03*
X172339000Y-73660000D03*
X174879000Y-73660000D03*
X172339000Y-71120000D03*
X174879000Y-71120000D03*
X172339000Y-68580000D03*
X174879000Y-68580000D03*
X172339000Y-66040000D03*
X174879000Y-66040000D03*
X172339000Y-63500000D03*
X174879000Y-63500000D03*
X172339000Y-60960000D03*
X174879000Y-60960000D03*
X172339000Y-58420000D03*
G36*
G01*
X173879000Y-59270000D02*
X173879000Y-57570000D01*
G75*
G02*
X174029000Y-57420000I150000J0D01*
G01*
X175729000Y-57420000D01*
G75*
G02*
X175879000Y-57570000I0J-150000D01*
G01*
X175879000Y-59270000D01*
G75*
G02*
X175729000Y-59420000I-150000J0D01*
G01*
X174029000Y-59420000D01*
G75*
G02*
X173879000Y-59270000I0J150000D01*
G01*
G37*
%TD*%
D12*
%TO.C,U3*%
X139315000Y-99695000D03*
X80895000Y-84455000D03*
X136775000Y-99695000D03*
X83435000Y-84455000D03*
X134235000Y-99695000D03*
X85975000Y-84455000D03*
X131695000Y-99695000D03*
X88515000Y-84455000D03*
X129155000Y-99695000D03*
X91055000Y-84455000D03*
X126615000Y-99695000D03*
X93595000Y-84455000D03*
X124075000Y-99695000D03*
X96135000Y-84455000D03*
X121535000Y-99695000D03*
X98675000Y-84455000D03*
X118995000Y-99695000D03*
X101215000Y-84455000D03*
X116455000Y-99695000D03*
X103755000Y-84455000D03*
X113915000Y-99695000D03*
X106295000Y-84455000D03*
X111375000Y-99695000D03*
X108835000Y-84455000D03*
X108835000Y-99695000D03*
X111375000Y-84455000D03*
X106295000Y-99695000D03*
X113915000Y-84455000D03*
X103755000Y-99695000D03*
X116455000Y-84455000D03*
X101215000Y-99695000D03*
X118995000Y-84455000D03*
X98675000Y-99695000D03*
X121535000Y-84455000D03*
X96135000Y-99695000D03*
X124075000Y-84455000D03*
X93595000Y-99695000D03*
X126615000Y-84455000D03*
X91055000Y-99695000D03*
X129155000Y-84455000D03*
X88515000Y-99695000D03*
X131695000Y-84455000D03*
X85975000Y-99695000D03*
X134235000Y-84455000D03*
X83435000Y-99695000D03*
X136775000Y-84455000D03*
X80895000Y-99695000D03*
G36*
G01*
X138515000Y-83505000D02*
X140115000Y-83505000D01*
G75*
G02*
X140265000Y-83655000I0J-150000D01*
G01*
X140265000Y-85255000D01*
G75*
G02*
X140115000Y-85405000I-150000J0D01*
G01*
X138515000Y-85405000D01*
G75*
G02*
X138365000Y-85255000I0J150000D01*
G01*
X138365000Y-83655000D01*
G75*
G02*
X138515000Y-83505000I150000J0D01*
G01*
G37*
%TD*%
D10*
%TO.C,BT1*%
X165608000Y-100203000D03*
G36*
G01*
X167298000Y-99203000D02*
X168998000Y-99203000D01*
G75*
G02*
X169148000Y-99353000I0J-150000D01*
G01*
X169148000Y-101053000D01*
G75*
G02*
X168998000Y-101203000I-150000J0D01*
G01*
X167298000Y-101203000D01*
G75*
G02*
X167148000Y-101053000I0J150000D01*
G01*
X167148000Y-99353000D01*
G75*
G02*
X167298000Y-99203000I150000J0D01*
G01*
G37*
%TD*%
M02*
