G04 #@! TF.GenerationSoftware,KiCad,Pcbnew,(5.1.9)-1*
G04 #@! TF.CreationDate,2021-05-18T14:16:41+01:00*
G04 #@! TF.ProjectId,RGBtoHDMI Amiga Denise PLCC SMT Breakout FFC,52474274-6f48-4444-9d49-20416d696761,1*
G04 #@! TF.SameCoordinates,Original*
G04 #@! TF.FileFunction,Soldermask,Bot*
G04 #@! TF.FilePolarity,Negative*
%FSLAX46Y46*%
G04 Gerber Fmt 4.6, Leading zero omitted, Abs format (unit mm)*
G04 Created by KiCad (PCBNEW (5.1.9)-1) date 2021-05-18 14:16:41*
%MOMM*%
%LPD*%
G01*
G04 APERTURE LIST*
%ADD10C,4.600000*%
G04 APERTURE END LIST*
D10*
X168529000Y-72898000D03*
X168529000Y-66548000D03*
X162179000Y-72898000D03*
X162179000Y-66548000D03*
G36*
G01*
X155109000Y-77693000D02*
X155109000Y-76993000D01*
G75*
G02*
X155259000Y-76843000I150000J0D01*
G01*
X157184000Y-76843000D01*
G75*
G02*
X157334000Y-76993000I0J-150000D01*
G01*
X157334000Y-77693000D01*
G75*
G02*
X157184000Y-77843000I-150000J0D01*
G01*
X155259000Y-77843000D01*
G75*
G02*
X155109000Y-77693000I0J150000D01*
G01*
G37*
G36*
G01*
X155109000Y-76423000D02*
X155109000Y-75723000D01*
G75*
G02*
X155259000Y-75573000I150000J0D01*
G01*
X157184000Y-75573000D01*
G75*
G02*
X157334000Y-75723000I0J-150000D01*
G01*
X157334000Y-76423000D01*
G75*
G02*
X157184000Y-76573000I-150000J0D01*
G01*
X155259000Y-76573000D01*
G75*
G02*
X155109000Y-76423000I0J150000D01*
G01*
G37*
G36*
G01*
X155109000Y-75153000D02*
X155109000Y-74453000D01*
G75*
G02*
X155259000Y-74303000I150000J0D01*
G01*
X157184000Y-74303000D01*
G75*
G02*
X157334000Y-74453000I0J-150000D01*
G01*
X157334000Y-75153000D01*
G75*
G02*
X157184000Y-75303000I-150000J0D01*
G01*
X155259000Y-75303000D01*
G75*
G02*
X155109000Y-75153000I0J150000D01*
G01*
G37*
G36*
G01*
X155109000Y-73883000D02*
X155109000Y-73183000D01*
G75*
G02*
X155259000Y-73033000I150000J0D01*
G01*
X157184000Y-73033000D01*
G75*
G02*
X157334000Y-73183000I0J-150000D01*
G01*
X157334000Y-73883000D01*
G75*
G02*
X157184000Y-74033000I-150000J0D01*
G01*
X155259000Y-74033000D01*
G75*
G02*
X155109000Y-73883000I0J150000D01*
G01*
G37*
G36*
G01*
X155109000Y-72613000D02*
X155109000Y-71913000D01*
G75*
G02*
X155259000Y-71763000I150000J0D01*
G01*
X157184000Y-71763000D01*
G75*
G02*
X157334000Y-71913000I0J-150000D01*
G01*
X157334000Y-72613000D01*
G75*
G02*
X157184000Y-72763000I-150000J0D01*
G01*
X155259000Y-72763000D01*
G75*
G02*
X155109000Y-72613000I0J150000D01*
G01*
G37*
G36*
G01*
X155109000Y-71343000D02*
X155109000Y-70643000D01*
G75*
G02*
X155259000Y-70493000I150000J0D01*
G01*
X157184000Y-70493000D01*
G75*
G02*
X157334000Y-70643000I0J-150000D01*
G01*
X157334000Y-71343000D01*
G75*
G02*
X157184000Y-71493000I-150000J0D01*
G01*
X155259000Y-71493000D01*
G75*
G02*
X155109000Y-71343000I0J150000D01*
G01*
G37*
G36*
G01*
X155109000Y-70073000D02*
X155109000Y-69373000D01*
G75*
G02*
X155259000Y-69223000I150000J0D01*
G01*
X157184000Y-69223000D01*
G75*
G02*
X157334000Y-69373000I0J-150000D01*
G01*
X157334000Y-70073000D01*
G75*
G02*
X157184000Y-70223000I-150000J0D01*
G01*
X155259000Y-70223000D01*
G75*
G02*
X155109000Y-70073000I0J150000D01*
G01*
G37*
G36*
G01*
X155109000Y-68803000D02*
X155109000Y-68103000D01*
G75*
G02*
X155259000Y-67953000I150000J0D01*
G01*
X157184000Y-67953000D01*
G75*
G02*
X157334000Y-68103000I0J-150000D01*
G01*
X157334000Y-68803000D01*
G75*
G02*
X157184000Y-68953000I-150000J0D01*
G01*
X155259000Y-68953000D01*
G75*
G02*
X155109000Y-68803000I0J150000D01*
G01*
G37*
G36*
G01*
X155109000Y-67533000D02*
X155109000Y-66833000D01*
G75*
G02*
X155259000Y-66683000I150000J0D01*
G01*
X157184000Y-66683000D01*
G75*
G02*
X157334000Y-66833000I0J-150000D01*
G01*
X157334000Y-67533000D01*
G75*
G02*
X157184000Y-67683000I-150000J0D01*
G01*
X155259000Y-67683000D01*
G75*
G02*
X155109000Y-67533000I0J150000D01*
G01*
G37*
G36*
G01*
X155109000Y-66263000D02*
X155109000Y-65563000D01*
G75*
G02*
X155259000Y-65413000I150000J0D01*
G01*
X157184000Y-65413000D01*
G75*
G02*
X157334000Y-65563000I0J-150000D01*
G01*
X157334000Y-66263000D01*
G75*
G02*
X157184000Y-66413000I-150000J0D01*
G01*
X155259000Y-66413000D01*
G75*
G02*
X155109000Y-66263000I0J150000D01*
G01*
G37*
G36*
G01*
X155109000Y-64993000D02*
X155109000Y-64293000D01*
G75*
G02*
X155259000Y-64143000I150000J0D01*
G01*
X157184000Y-64143000D01*
G75*
G02*
X157334000Y-64293000I0J-150000D01*
G01*
X157334000Y-64993000D01*
G75*
G02*
X157184000Y-65143000I-150000J0D01*
G01*
X155259000Y-65143000D01*
G75*
G02*
X155109000Y-64993000I0J150000D01*
G01*
G37*
G36*
G01*
X155109000Y-63723000D02*
X155109000Y-63023000D01*
G75*
G02*
X155259000Y-62873000I150000J0D01*
G01*
X157184000Y-62873000D01*
G75*
G02*
X157334000Y-63023000I0J-150000D01*
G01*
X157334000Y-63723000D01*
G75*
G02*
X157184000Y-63873000I-150000J0D01*
G01*
X155259000Y-63873000D01*
G75*
G02*
X155109000Y-63723000I0J150000D01*
G01*
G37*
G36*
G01*
X155109000Y-62453000D02*
X155109000Y-61753000D01*
G75*
G02*
X155259000Y-61603000I150000J0D01*
G01*
X157184000Y-61603000D01*
G75*
G02*
X157334000Y-61753000I0J-150000D01*
G01*
X157334000Y-62453000D01*
G75*
G02*
X157184000Y-62603000I-150000J0D01*
G01*
X155259000Y-62603000D01*
G75*
G02*
X155109000Y-62453000I0J150000D01*
G01*
G37*
G36*
G01*
X157234000Y-61553000D02*
X157234000Y-59628000D01*
G75*
G02*
X157384000Y-59478000I150000J0D01*
G01*
X158084000Y-59478000D01*
G75*
G02*
X158234000Y-59628000I0J-150000D01*
G01*
X158234000Y-61553000D01*
G75*
G02*
X158084000Y-61703000I-150000J0D01*
G01*
X157384000Y-61703000D01*
G75*
G02*
X157234000Y-61553000I0J150000D01*
G01*
G37*
G36*
G01*
X158504000Y-61553000D02*
X158504000Y-59628000D01*
G75*
G02*
X158654000Y-59478000I150000J0D01*
G01*
X159354000Y-59478000D01*
G75*
G02*
X159504000Y-59628000I0J-150000D01*
G01*
X159504000Y-61553000D01*
G75*
G02*
X159354000Y-61703000I-150000J0D01*
G01*
X158654000Y-61703000D01*
G75*
G02*
X158504000Y-61553000I0J150000D01*
G01*
G37*
G36*
G01*
X159774000Y-61553000D02*
X159774000Y-59628000D01*
G75*
G02*
X159924000Y-59478000I150000J0D01*
G01*
X160624000Y-59478000D01*
G75*
G02*
X160774000Y-59628000I0J-150000D01*
G01*
X160774000Y-61553000D01*
G75*
G02*
X160624000Y-61703000I-150000J0D01*
G01*
X159924000Y-61703000D01*
G75*
G02*
X159774000Y-61553000I0J150000D01*
G01*
G37*
G36*
G01*
X161044000Y-61553000D02*
X161044000Y-59628000D01*
G75*
G02*
X161194000Y-59478000I150000J0D01*
G01*
X161894000Y-59478000D01*
G75*
G02*
X162044000Y-59628000I0J-150000D01*
G01*
X162044000Y-61553000D01*
G75*
G02*
X161894000Y-61703000I-150000J0D01*
G01*
X161194000Y-61703000D01*
G75*
G02*
X161044000Y-61553000I0J150000D01*
G01*
G37*
G36*
G01*
X162314000Y-61553000D02*
X162314000Y-59628000D01*
G75*
G02*
X162464000Y-59478000I150000J0D01*
G01*
X163164000Y-59478000D01*
G75*
G02*
X163314000Y-59628000I0J-150000D01*
G01*
X163314000Y-61553000D01*
G75*
G02*
X163164000Y-61703000I-150000J0D01*
G01*
X162464000Y-61703000D01*
G75*
G02*
X162314000Y-61553000I0J150000D01*
G01*
G37*
G36*
G01*
X163584000Y-61553000D02*
X163584000Y-59628000D01*
G75*
G02*
X163734000Y-59478000I150000J0D01*
G01*
X164434000Y-59478000D01*
G75*
G02*
X164584000Y-59628000I0J-150000D01*
G01*
X164584000Y-61553000D01*
G75*
G02*
X164434000Y-61703000I-150000J0D01*
G01*
X163734000Y-61703000D01*
G75*
G02*
X163584000Y-61553000I0J150000D01*
G01*
G37*
G36*
G01*
X164854000Y-61553000D02*
X164854000Y-59628000D01*
G75*
G02*
X165004000Y-59478000I150000J0D01*
G01*
X165704000Y-59478000D01*
G75*
G02*
X165854000Y-59628000I0J-150000D01*
G01*
X165854000Y-61553000D01*
G75*
G02*
X165704000Y-61703000I-150000J0D01*
G01*
X165004000Y-61703000D01*
G75*
G02*
X164854000Y-61553000I0J150000D01*
G01*
G37*
G36*
G01*
X166124000Y-61553000D02*
X166124000Y-59628000D01*
G75*
G02*
X166274000Y-59478000I150000J0D01*
G01*
X166974000Y-59478000D01*
G75*
G02*
X167124000Y-59628000I0J-150000D01*
G01*
X167124000Y-61553000D01*
G75*
G02*
X166974000Y-61703000I-150000J0D01*
G01*
X166274000Y-61703000D01*
G75*
G02*
X166124000Y-61553000I0J150000D01*
G01*
G37*
G36*
G01*
X167394000Y-61553000D02*
X167394000Y-59628000D01*
G75*
G02*
X167544000Y-59478000I150000J0D01*
G01*
X168244000Y-59478000D01*
G75*
G02*
X168394000Y-59628000I0J-150000D01*
G01*
X168394000Y-61553000D01*
G75*
G02*
X168244000Y-61703000I-150000J0D01*
G01*
X167544000Y-61703000D01*
G75*
G02*
X167394000Y-61553000I0J150000D01*
G01*
G37*
G36*
G01*
X168664000Y-61553000D02*
X168664000Y-59628000D01*
G75*
G02*
X168814000Y-59478000I150000J0D01*
G01*
X169514000Y-59478000D01*
G75*
G02*
X169664000Y-59628000I0J-150000D01*
G01*
X169664000Y-61553000D01*
G75*
G02*
X169514000Y-61703000I-150000J0D01*
G01*
X168814000Y-61703000D01*
G75*
G02*
X168664000Y-61553000I0J150000D01*
G01*
G37*
G36*
G01*
X169934000Y-61553000D02*
X169934000Y-59628000D01*
G75*
G02*
X170084000Y-59478000I150000J0D01*
G01*
X170784000Y-59478000D01*
G75*
G02*
X170934000Y-59628000I0J-150000D01*
G01*
X170934000Y-61553000D01*
G75*
G02*
X170784000Y-61703000I-150000J0D01*
G01*
X170084000Y-61703000D01*
G75*
G02*
X169934000Y-61553000I0J150000D01*
G01*
G37*
G36*
G01*
X171204000Y-61553000D02*
X171204000Y-59628000D01*
G75*
G02*
X171354000Y-59478000I150000J0D01*
G01*
X172054000Y-59478000D01*
G75*
G02*
X172204000Y-59628000I0J-150000D01*
G01*
X172204000Y-61553000D01*
G75*
G02*
X172054000Y-61703000I-150000J0D01*
G01*
X171354000Y-61703000D01*
G75*
G02*
X171204000Y-61553000I0J150000D01*
G01*
G37*
G36*
G01*
X172474000Y-61553000D02*
X172474000Y-59628000D01*
G75*
G02*
X172624000Y-59478000I150000J0D01*
G01*
X173324000Y-59478000D01*
G75*
G02*
X173474000Y-59628000I0J-150000D01*
G01*
X173474000Y-61553000D01*
G75*
G02*
X173324000Y-61703000I-150000J0D01*
G01*
X172624000Y-61703000D01*
G75*
G02*
X172474000Y-61553000I0J150000D01*
G01*
G37*
G36*
G01*
X173374000Y-62453000D02*
X173374000Y-61753000D01*
G75*
G02*
X173524000Y-61603000I150000J0D01*
G01*
X175449000Y-61603000D01*
G75*
G02*
X175599000Y-61753000I0J-150000D01*
G01*
X175599000Y-62453000D01*
G75*
G02*
X175449000Y-62603000I-150000J0D01*
G01*
X173524000Y-62603000D01*
G75*
G02*
X173374000Y-62453000I0J150000D01*
G01*
G37*
G36*
G01*
X173374000Y-63723000D02*
X173374000Y-63023000D01*
G75*
G02*
X173524000Y-62873000I150000J0D01*
G01*
X175449000Y-62873000D01*
G75*
G02*
X175599000Y-63023000I0J-150000D01*
G01*
X175599000Y-63723000D01*
G75*
G02*
X175449000Y-63873000I-150000J0D01*
G01*
X173524000Y-63873000D01*
G75*
G02*
X173374000Y-63723000I0J150000D01*
G01*
G37*
G36*
G01*
X173374000Y-64993000D02*
X173374000Y-64293000D01*
G75*
G02*
X173524000Y-64143000I150000J0D01*
G01*
X175449000Y-64143000D01*
G75*
G02*
X175599000Y-64293000I0J-150000D01*
G01*
X175599000Y-64993000D01*
G75*
G02*
X175449000Y-65143000I-150000J0D01*
G01*
X173524000Y-65143000D01*
G75*
G02*
X173374000Y-64993000I0J150000D01*
G01*
G37*
G36*
G01*
X173374000Y-66263000D02*
X173374000Y-65563000D01*
G75*
G02*
X173524000Y-65413000I150000J0D01*
G01*
X175449000Y-65413000D01*
G75*
G02*
X175599000Y-65563000I0J-150000D01*
G01*
X175599000Y-66263000D01*
G75*
G02*
X175449000Y-66413000I-150000J0D01*
G01*
X173524000Y-66413000D01*
G75*
G02*
X173374000Y-66263000I0J150000D01*
G01*
G37*
G36*
G01*
X173374000Y-67533000D02*
X173374000Y-66833000D01*
G75*
G02*
X173524000Y-66683000I150000J0D01*
G01*
X175449000Y-66683000D01*
G75*
G02*
X175599000Y-66833000I0J-150000D01*
G01*
X175599000Y-67533000D01*
G75*
G02*
X175449000Y-67683000I-150000J0D01*
G01*
X173524000Y-67683000D01*
G75*
G02*
X173374000Y-67533000I0J150000D01*
G01*
G37*
G36*
G01*
X173374000Y-68803000D02*
X173374000Y-68103000D01*
G75*
G02*
X173524000Y-67953000I150000J0D01*
G01*
X175449000Y-67953000D01*
G75*
G02*
X175599000Y-68103000I0J-150000D01*
G01*
X175599000Y-68803000D01*
G75*
G02*
X175449000Y-68953000I-150000J0D01*
G01*
X173524000Y-68953000D01*
G75*
G02*
X173374000Y-68803000I0J150000D01*
G01*
G37*
G36*
G01*
X173374000Y-70073000D02*
X173374000Y-69373000D01*
G75*
G02*
X173524000Y-69223000I150000J0D01*
G01*
X175449000Y-69223000D01*
G75*
G02*
X175599000Y-69373000I0J-150000D01*
G01*
X175599000Y-70073000D01*
G75*
G02*
X175449000Y-70223000I-150000J0D01*
G01*
X173524000Y-70223000D01*
G75*
G02*
X173374000Y-70073000I0J150000D01*
G01*
G37*
G36*
G01*
X173374000Y-71343000D02*
X173374000Y-70643000D01*
G75*
G02*
X173524000Y-70493000I150000J0D01*
G01*
X175449000Y-70493000D01*
G75*
G02*
X175599000Y-70643000I0J-150000D01*
G01*
X175599000Y-71343000D01*
G75*
G02*
X175449000Y-71493000I-150000J0D01*
G01*
X173524000Y-71493000D01*
G75*
G02*
X173374000Y-71343000I0J150000D01*
G01*
G37*
G36*
G01*
X173374000Y-72613000D02*
X173374000Y-71913000D01*
G75*
G02*
X173524000Y-71763000I150000J0D01*
G01*
X175449000Y-71763000D01*
G75*
G02*
X175599000Y-71913000I0J-150000D01*
G01*
X175599000Y-72613000D01*
G75*
G02*
X175449000Y-72763000I-150000J0D01*
G01*
X173524000Y-72763000D01*
G75*
G02*
X173374000Y-72613000I0J150000D01*
G01*
G37*
G36*
G01*
X173374000Y-73883000D02*
X173374000Y-73183000D01*
G75*
G02*
X173524000Y-73033000I150000J0D01*
G01*
X175449000Y-73033000D01*
G75*
G02*
X175599000Y-73183000I0J-150000D01*
G01*
X175599000Y-73883000D01*
G75*
G02*
X175449000Y-74033000I-150000J0D01*
G01*
X173524000Y-74033000D01*
G75*
G02*
X173374000Y-73883000I0J150000D01*
G01*
G37*
G36*
G01*
X173374000Y-75153000D02*
X173374000Y-74453000D01*
G75*
G02*
X173524000Y-74303000I150000J0D01*
G01*
X175449000Y-74303000D01*
G75*
G02*
X175599000Y-74453000I0J-150000D01*
G01*
X175599000Y-75153000D01*
G75*
G02*
X175449000Y-75303000I-150000J0D01*
G01*
X173524000Y-75303000D01*
G75*
G02*
X173374000Y-75153000I0J150000D01*
G01*
G37*
G36*
G01*
X173374000Y-76423000D02*
X173374000Y-75723000D01*
G75*
G02*
X173524000Y-75573000I150000J0D01*
G01*
X175449000Y-75573000D01*
G75*
G02*
X175599000Y-75723000I0J-150000D01*
G01*
X175599000Y-76423000D01*
G75*
G02*
X175449000Y-76573000I-150000J0D01*
G01*
X173524000Y-76573000D01*
G75*
G02*
X173374000Y-76423000I0J150000D01*
G01*
G37*
G36*
G01*
X173374000Y-77693000D02*
X173374000Y-76993000D01*
G75*
G02*
X173524000Y-76843000I150000J0D01*
G01*
X175449000Y-76843000D01*
G75*
G02*
X175599000Y-76993000I0J-150000D01*
G01*
X175599000Y-77693000D01*
G75*
G02*
X175449000Y-77843000I-150000J0D01*
G01*
X173524000Y-77843000D01*
G75*
G02*
X173374000Y-77693000I0J150000D01*
G01*
G37*
G36*
G01*
X157234000Y-79818000D02*
X157234000Y-77893000D01*
G75*
G02*
X157384000Y-77743000I150000J0D01*
G01*
X158084000Y-77743000D01*
G75*
G02*
X158234000Y-77893000I0J-150000D01*
G01*
X158234000Y-79818000D01*
G75*
G02*
X158084000Y-79968000I-150000J0D01*
G01*
X157384000Y-79968000D01*
G75*
G02*
X157234000Y-79818000I0J150000D01*
G01*
G37*
G36*
G01*
X158504000Y-79818000D02*
X158504000Y-77893000D01*
G75*
G02*
X158654000Y-77743000I150000J0D01*
G01*
X159354000Y-77743000D01*
G75*
G02*
X159504000Y-77893000I0J-150000D01*
G01*
X159504000Y-79818000D01*
G75*
G02*
X159354000Y-79968000I-150000J0D01*
G01*
X158654000Y-79968000D01*
G75*
G02*
X158504000Y-79818000I0J150000D01*
G01*
G37*
G36*
G01*
X159774000Y-79818000D02*
X159774000Y-77893000D01*
G75*
G02*
X159924000Y-77743000I150000J0D01*
G01*
X160624000Y-77743000D01*
G75*
G02*
X160774000Y-77893000I0J-150000D01*
G01*
X160774000Y-79818000D01*
G75*
G02*
X160624000Y-79968000I-150000J0D01*
G01*
X159924000Y-79968000D01*
G75*
G02*
X159774000Y-79818000I0J150000D01*
G01*
G37*
G36*
G01*
X161044000Y-79818000D02*
X161044000Y-77893000D01*
G75*
G02*
X161194000Y-77743000I150000J0D01*
G01*
X161894000Y-77743000D01*
G75*
G02*
X162044000Y-77893000I0J-150000D01*
G01*
X162044000Y-79818000D01*
G75*
G02*
X161894000Y-79968000I-150000J0D01*
G01*
X161194000Y-79968000D01*
G75*
G02*
X161044000Y-79818000I0J150000D01*
G01*
G37*
G36*
G01*
X162314000Y-79818000D02*
X162314000Y-77893000D01*
G75*
G02*
X162464000Y-77743000I150000J0D01*
G01*
X163164000Y-77743000D01*
G75*
G02*
X163314000Y-77893000I0J-150000D01*
G01*
X163314000Y-79818000D01*
G75*
G02*
X163164000Y-79968000I-150000J0D01*
G01*
X162464000Y-79968000D01*
G75*
G02*
X162314000Y-79818000I0J150000D01*
G01*
G37*
G36*
G01*
X163584000Y-79818000D02*
X163584000Y-77893000D01*
G75*
G02*
X163734000Y-77743000I150000J0D01*
G01*
X164434000Y-77743000D01*
G75*
G02*
X164584000Y-77893000I0J-150000D01*
G01*
X164584000Y-79818000D01*
G75*
G02*
X164434000Y-79968000I-150000J0D01*
G01*
X163734000Y-79968000D01*
G75*
G02*
X163584000Y-79818000I0J150000D01*
G01*
G37*
G36*
G01*
X172474000Y-79818000D02*
X172474000Y-77893000D01*
G75*
G02*
X172624000Y-77743000I150000J0D01*
G01*
X173324000Y-77743000D01*
G75*
G02*
X173474000Y-77893000I0J-150000D01*
G01*
X173474000Y-79818000D01*
G75*
G02*
X173324000Y-79968000I-150000J0D01*
G01*
X172624000Y-79968000D01*
G75*
G02*
X172474000Y-79818000I0J150000D01*
G01*
G37*
G36*
G01*
X171204000Y-79818000D02*
X171204000Y-77893000D01*
G75*
G02*
X171354000Y-77743000I150000J0D01*
G01*
X172054000Y-77743000D01*
G75*
G02*
X172204000Y-77893000I0J-150000D01*
G01*
X172204000Y-79818000D01*
G75*
G02*
X172054000Y-79968000I-150000J0D01*
G01*
X171354000Y-79968000D01*
G75*
G02*
X171204000Y-79818000I0J150000D01*
G01*
G37*
G36*
G01*
X169934000Y-79818000D02*
X169934000Y-77893000D01*
G75*
G02*
X170084000Y-77743000I150000J0D01*
G01*
X170784000Y-77743000D01*
G75*
G02*
X170934000Y-77893000I0J-150000D01*
G01*
X170934000Y-79818000D01*
G75*
G02*
X170784000Y-79968000I-150000J0D01*
G01*
X170084000Y-79968000D01*
G75*
G02*
X169934000Y-79818000I0J150000D01*
G01*
G37*
G36*
G01*
X168664000Y-79818000D02*
X168664000Y-77893000D01*
G75*
G02*
X168814000Y-77743000I150000J0D01*
G01*
X169514000Y-77743000D01*
G75*
G02*
X169664000Y-77893000I0J-150000D01*
G01*
X169664000Y-79818000D01*
G75*
G02*
X169514000Y-79968000I-150000J0D01*
G01*
X168814000Y-79968000D01*
G75*
G02*
X168664000Y-79818000I0J150000D01*
G01*
G37*
G36*
G01*
X167394000Y-79818000D02*
X167394000Y-77893000D01*
G75*
G02*
X167544000Y-77743000I150000J0D01*
G01*
X168244000Y-77743000D01*
G75*
G02*
X168394000Y-77893000I0J-150000D01*
G01*
X168394000Y-79818000D01*
G75*
G02*
X168244000Y-79968000I-150000J0D01*
G01*
X167544000Y-79968000D01*
G75*
G02*
X167394000Y-79818000I0J150000D01*
G01*
G37*
G36*
G01*
X166124000Y-79818000D02*
X166124000Y-77893000D01*
G75*
G02*
X166274000Y-77743000I150000J0D01*
G01*
X166974000Y-77743000D01*
G75*
G02*
X167124000Y-77893000I0J-150000D01*
G01*
X167124000Y-79818000D01*
G75*
G02*
X166974000Y-79968000I-150000J0D01*
G01*
X166274000Y-79968000D01*
G75*
G02*
X166124000Y-79818000I0J150000D01*
G01*
G37*
G36*
G01*
X164854000Y-79818000D02*
X164854000Y-77893000D01*
G75*
G02*
X165004000Y-77743000I150000J0D01*
G01*
X165704000Y-77743000D01*
G75*
G02*
X165854000Y-77893000I0J-150000D01*
G01*
X165854000Y-79818000D01*
G75*
G02*
X165704000Y-79968000I-150000J0D01*
G01*
X165004000Y-79968000D01*
G75*
G02*
X164854000Y-79818000I0J150000D01*
G01*
G37*
M02*
