G04 #@! TF.GenerationSoftware,KiCad,Pcbnew,(5.1.9)-1*
G04 #@! TF.CreationDate,2021-05-18T14:16:41+01:00*
G04 #@! TF.ProjectId,RGBtoHDMI Amiga Denise PLCC SMT Breakout FFC,52474274-6f48-4444-9d49-20416d696761,1*
G04 #@! TF.SameCoordinates,Original*
G04 #@! TF.FileFunction,Legend,Top*
G04 #@! TF.FilePolarity,Positive*
%FSLAX46Y46*%
G04 Gerber Fmt 4.6, Leading zero omitted, Abs format (unit mm)*
G04 Created by KiCad (PCBNEW (5.1.9)-1) date 2021-05-18 14:16:41*
%MOMM*%
%LPD*%
G01*
G04 APERTURE LIST*
%ADD10C,0.100000*%
%ADD11C,0.150000*%
%ADD12C,0.254000*%
G04 APERTURE END LIST*
D10*
X152770571Y-42906785D02*
X152770571Y-42156785D01*
X153199142Y-42906785D01*
X153199142Y-42156785D01*
X153663428Y-42906785D02*
X153592000Y-42871071D01*
X153556285Y-42835357D01*
X153520571Y-42763928D01*
X153520571Y-42549642D01*
X153556285Y-42478214D01*
X153592000Y-42442500D01*
X153663428Y-42406785D01*
X153770571Y-42406785D01*
X153842000Y-42442500D01*
X153877714Y-42478214D01*
X153913428Y-42549642D01*
X153913428Y-42763928D01*
X153877714Y-42835357D01*
X153842000Y-42871071D01*
X153770571Y-42906785D01*
X153663428Y-42906785D01*
X154127714Y-42406785D02*
X154413428Y-42406785D01*
X154234857Y-42156785D02*
X154234857Y-42799642D01*
X154270571Y-42871071D01*
X154342000Y-42906785D01*
X154413428Y-42906785D01*
X154949142Y-42871071D02*
X154877714Y-42906785D01*
X154734857Y-42906785D01*
X154663428Y-42871071D01*
X154627714Y-42799642D01*
X154627714Y-42513928D01*
X154663428Y-42442500D01*
X154734857Y-42406785D01*
X154877714Y-42406785D01*
X154949142Y-42442500D01*
X154984857Y-42513928D01*
X154984857Y-42585357D01*
X154627714Y-42656785D01*
X155306285Y-42835357D02*
X155342000Y-42871071D01*
X155306285Y-42906785D01*
X155270571Y-42871071D01*
X155306285Y-42835357D01*
X155306285Y-42906785D01*
X155306285Y-42442500D02*
X155342000Y-42478214D01*
X155306285Y-42513928D01*
X155270571Y-42478214D01*
X155306285Y-42442500D01*
X155306285Y-42513928D01*
X156234857Y-42156785D02*
X156234857Y-42763928D01*
X156270571Y-42835357D01*
X156306285Y-42871071D01*
X156377714Y-42906785D01*
X156520571Y-42906785D01*
X156592000Y-42871071D01*
X156627714Y-42835357D01*
X156663428Y-42763928D01*
X156663428Y-42156785D01*
X156984857Y-42871071D02*
X157056285Y-42906785D01*
X157199142Y-42906785D01*
X157270571Y-42871071D01*
X157306285Y-42799642D01*
X157306285Y-42763928D01*
X157270571Y-42692500D01*
X157199142Y-42656785D01*
X157092000Y-42656785D01*
X157020571Y-42621071D01*
X156984857Y-42549642D01*
X156984857Y-42513928D01*
X157020571Y-42442500D01*
X157092000Y-42406785D01*
X157199142Y-42406785D01*
X157270571Y-42442500D01*
X157913428Y-42871071D02*
X157842000Y-42906785D01*
X157699142Y-42906785D01*
X157627714Y-42871071D01*
X157592000Y-42799642D01*
X157592000Y-42513928D01*
X157627714Y-42442500D01*
X157699142Y-42406785D01*
X157842000Y-42406785D01*
X157913428Y-42442500D01*
X157949142Y-42513928D01*
X157949142Y-42585357D01*
X157592000Y-42656785D01*
X158842000Y-42906785D02*
X158842000Y-42156785D01*
X159127714Y-42156785D01*
X159199142Y-42192500D01*
X159234857Y-42228214D01*
X159270571Y-42299642D01*
X159270571Y-42406785D01*
X159234857Y-42478214D01*
X159199142Y-42513928D01*
X159127714Y-42549642D01*
X158842000Y-42549642D01*
X160020571Y-42835357D02*
X159984857Y-42871071D01*
X159877714Y-42906785D01*
X159806285Y-42906785D01*
X159699142Y-42871071D01*
X159627714Y-42799642D01*
X159592000Y-42728214D01*
X159556285Y-42585357D01*
X159556285Y-42478214D01*
X159592000Y-42335357D01*
X159627714Y-42263928D01*
X159699142Y-42192500D01*
X159806285Y-42156785D01*
X159877714Y-42156785D01*
X159984857Y-42192500D01*
X160020571Y-42228214D01*
X160592000Y-42513928D02*
X160699142Y-42549642D01*
X160734857Y-42585357D01*
X160770571Y-42656785D01*
X160770571Y-42763928D01*
X160734857Y-42835357D01*
X160699142Y-42871071D01*
X160627714Y-42906785D01*
X160342000Y-42906785D01*
X160342000Y-42156785D01*
X160592000Y-42156785D01*
X160663428Y-42192500D01*
X160699142Y-42228214D01*
X160734857Y-42299642D01*
X160734857Y-42371071D01*
X160699142Y-42442500D01*
X160663428Y-42478214D01*
X160592000Y-42513928D01*
X160342000Y-42513928D01*
X161556285Y-42406785D02*
X161842000Y-42406785D01*
X161663428Y-42156785D02*
X161663428Y-42799642D01*
X161699142Y-42871071D01*
X161770571Y-42906785D01*
X161842000Y-42906785D01*
X162092000Y-42906785D02*
X162092000Y-42156785D01*
X162413428Y-42906785D02*
X162413428Y-42513928D01*
X162377714Y-42442500D01*
X162306285Y-42406785D01*
X162199142Y-42406785D01*
X162127714Y-42442500D01*
X162092000Y-42478214D01*
X162770571Y-42906785D02*
X162770571Y-42406785D01*
X162770571Y-42156785D02*
X162734857Y-42192500D01*
X162770571Y-42228214D01*
X162806285Y-42192500D01*
X162770571Y-42156785D01*
X162770571Y-42228214D01*
X163449142Y-42871071D02*
X163377714Y-42906785D01*
X163234857Y-42906785D01*
X163163428Y-42871071D01*
X163127714Y-42835357D01*
X163092000Y-42763928D01*
X163092000Y-42549642D01*
X163127714Y-42478214D01*
X163163428Y-42442500D01*
X163234857Y-42406785D01*
X163377714Y-42406785D01*
X163449142Y-42442500D01*
X163770571Y-42906785D02*
X163770571Y-42156785D01*
X163842000Y-42621071D02*
X164056285Y-42906785D01*
X164056285Y-42406785D02*
X163770571Y-42692500D01*
X164377714Y-42406785D02*
X164377714Y-42906785D01*
X164377714Y-42478214D02*
X164413428Y-42442500D01*
X164484857Y-42406785D01*
X164592000Y-42406785D01*
X164663428Y-42442500D01*
X164699142Y-42513928D01*
X164699142Y-42906785D01*
X165342000Y-42871071D02*
X165270571Y-42906785D01*
X165127714Y-42906785D01*
X165056285Y-42871071D01*
X165020571Y-42799642D01*
X165020571Y-42513928D01*
X165056285Y-42442500D01*
X165127714Y-42406785D01*
X165270571Y-42406785D01*
X165342000Y-42442500D01*
X165377714Y-42513928D01*
X165377714Y-42585357D01*
X165020571Y-42656785D01*
X165663428Y-42871071D02*
X165734857Y-42906785D01*
X165877714Y-42906785D01*
X165949142Y-42871071D01*
X165984857Y-42799642D01*
X165984857Y-42763928D01*
X165949142Y-42692500D01*
X165877714Y-42656785D01*
X165770571Y-42656785D01*
X165699142Y-42621071D01*
X165663428Y-42549642D01*
X165663428Y-42513928D01*
X165699142Y-42442500D01*
X165770571Y-42406785D01*
X165877714Y-42406785D01*
X165949142Y-42442500D01*
X166270571Y-42871071D02*
X166342000Y-42906785D01*
X166484857Y-42906785D01*
X166556285Y-42871071D01*
X166592000Y-42799642D01*
X166592000Y-42763928D01*
X166556285Y-42692500D01*
X166484857Y-42656785D01*
X166377714Y-42656785D01*
X166306285Y-42621071D01*
X166270571Y-42549642D01*
X166270571Y-42513928D01*
X166306285Y-42442500D01*
X166377714Y-42406785D01*
X166484857Y-42406785D01*
X166556285Y-42442500D01*
X167592000Y-42906785D02*
X167520571Y-42871071D01*
X167484857Y-42835357D01*
X167449142Y-42763928D01*
X167449142Y-42549642D01*
X167484857Y-42478214D01*
X167520571Y-42442500D01*
X167592000Y-42406785D01*
X167699142Y-42406785D01*
X167770571Y-42442500D01*
X167806285Y-42478214D01*
X167842000Y-42549642D01*
X167842000Y-42763928D01*
X167806285Y-42835357D01*
X167770571Y-42871071D01*
X167699142Y-42906785D01*
X167592000Y-42906785D01*
X168056285Y-42406785D02*
X168342000Y-42406785D01*
X168163428Y-42906785D02*
X168163428Y-42263928D01*
X168199142Y-42192500D01*
X168270571Y-42156785D01*
X168342000Y-42156785D01*
X169306285Y-42156785D02*
X169377714Y-42156785D01*
X169449142Y-42192500D01*
X169484857Y-42228214D01*
X169520571Y-42299642D01*
X169556285Y-42442500D01*
X169556285Y-42621071D01*
X169520571Y-42763928D01*
X169484857Y-42835357D01*
X169449142Y-42871071D01*
X169377714Y-42906785D01*
X169306285Y-42906785D01*
X169234857Y-42871071D01*
X169199142Y-42835357D01*
X169163428Y-42763928D01*
X169127714Y-42621071D01*
X169127714Y-42442500D01*
X169163428Y-42299642D01*
X169199142Y-42228214D01*
X169234857Y-42192500D01*
X169306285Y-42156785D01*
X169877714Y-42835357D02*
X169913428Y-42871071D01*
X169877714Y-42906785D01*
X169842000Y-42871071D01*
X169877714Y-42835357D01*
X169877714Y-42906785D01*
X170556285Y-42156785D02*
X170413428Y-42156785D01*
X170342000Y-42192500D01*
X170306285Y-42228214D01*
X170234857Y-42335357D01*
X170199142Y-42478214D01*
X170199142Y-42763928D01*
X170234857Y-42835357D01*
X170270571Y-42871071D01*
X170342000Y-42906785D01*
X170484857Y-42906785D01*
X170556285Y-42871071D01*
X170592000Y-42835357D01*
X170627714Y-42763928D01*
X170627714Y-42585357D01*
X170592000Y-42513928D01*
X170556285Y-42478214D01*
X170484857Y-42442500D01*
X170342000Y-42442500D01*
X170270571Y-42478214D01*
X170234857Y-42513928D01*
X170199142Y-42585357D01*
X171520571Y-42906785D02*
X171520571Y-42406785D01*
X171520571Y-42478214D02*
X171556285Y-42442500D01*
X171627714Y-42406785D01*
X171734857Y-42406785D01*
X171806285Y-42442500D01*
X171842000Y-42513928D01*
X171842000Y-42906785D01*
X171842000Y-42513928D02*
X171877714Y-42442500D01*
X171949142Y-42406785D01*
X172056285Y-42406785D01*
X172127714Y-42442500D01*
X172163428Y-42513928D01*
X172163428Y-42906785D01*
X172520571Y-42906785D02*
X172520571Y-42406785D01*
X172520571Y-42478214D02*
X172556285Y-42442500D01*
X172627714Y-42406785D01*
X172734857Y-42406785D01*
X172806285Y-42442500D01*
X172842000Y-42513928D01*
X172842000Y-42906785D01*
X172842000Y-42513928D02*
X172877714Y-42442500D01*
X172949142Y-42406785D01*
X173056285Y-42406785D01*
X173127714Y-42442500D01*
X173163428Y-42513928D01*
X173163428Y-42906785D01*
X152877714Y-44131785D02*
X152806285Y-44096071D01*
X152770571Y-44060357D01*
X152734857Y-43988928D01*
X152734857Y-43774642D01*
X152770571Y-43703214D01*
X152806285Y-43667500D01*
X152877714Y-43631785D01*
X152984857Y-43631785D01*
X153056285Y-43667500D01*
X153092000Y-43703214D01*
X153127714Y-43774642D01*
X153127714Y-43988928D01*
X153092000Y-44060357D01*
X153056285Y-44096071D01*
X152984857Y-44131785D01*
X152877714Y-44131785D01*
X153449142Y-44131785D02*
X153449142Y-43631785D01*
X153449142Y-43774642D02*
X153484857Y-43703214D01*
X153520571Y-43667500D01*
X153592000Y-43631785D01*
X153663428Y-43631785D01*
X154377714Y-43631785D02*
X154663428Y-43631785D01*
X154484857Y-43381785D02*
X154484857Y-44024642D01*
X154520571Y-44096071D01*
X154592000Y-44131785D01*
X154663428Y-44131785D01*
X154913428Y-44131785D02*
X154913428Y-43381785D01*
X155234857Y-44131785D02*
X155234857Y-43738928D01*
X155199142Y-43667500D01*
X155127714Y-43631785D01*
X155020571Y-43631785D01*
X154949142Y-43667500D01*
X154913428Y-43703214D01*
X155592000Y-44131785D02*
X155592000Y-43631785D01*
X155592000Y-43381785D02*
X155556285Y-43417500D01*
X155592000Y-43453214D01*
X155627714Y-43417500D01*
X155592000Y-43381785D01*
X155592000Y-43453214D01*
X155949142Y-43631785D02*
X155949142Y-44131785D01*
X155949142Y-43703214D02*
X155984857Y-43667500D01*
X156056285Y-43631785D01*
X156163428Y-43631785D01*
X156234857Y-43667500D01*
X156270571Y-43738928D01*
X156270571Y-44131785D01*
X156627714Y-43631785D02*
X156627714Y-44131785D01*
X156627714Y-43703214D02*
X156663428Y-43667500D01*
X156734857Y-43631785D01*
X156842000Y-43631785D01*
X156913428Y-43667500D01*
X156949142Y-43738928D01*
X156949142Y-44131785D01*
X157592000Y-44096071D02*
X157520571Y-44131785D01*
X157377714Y-44131785D01*
X157306285Y-44096071D01*
X157270571Y-44024642D01*
X157270571Y-43738928D01*
X157306285Y-43667500D01*
X157377714Y-43631785D01*
X157520571Y-43631785D01*
X157592000Y-43667500D01*
X157627714Y-43738928D01*
X157627714Y-43810357D01*
X157270571Y-43881785D01*
X157949142Y-44131785D02*
X157949142Y-43631785D01*
X157949142Y-43774642D02*
X157984857Y-43703214D01*
X158020571Y-43667500D01*
X158092000Y-43631785D01*
X158163428Y-43631785D01*
X158413428Y-44060357D02*
X158449142Y-44096071D01*
X158413428Y-44131785D01*
X158377714Y-44096071D01*
X158413428Y-44060357D01*
X158413428Y-44131785D01*
D11*
X173482000Y-61087000D02*
G75*
G03*
X173482000Y-61087000I-508000J0D01*
G01*
X178435000Y-56642000D02*
X174244000Y-56642000D01*
D10*
X169072690Y-32468333D02*
X168834595Y-32635000D01*
X169072690Y-32754047D02*
X168572690Y-32754047D01*
X168572690Y-32563571D01*
X168596500Y-32515952D01*
X168620309Y-32492142D01*
X168667928Y-32468333D01*
X168739357Y-32468333D01*
X168786976Y-32492142D01*
X168810785Y-32515952D01*
X168834595Y-32563571D01*
X168834595Y-32754047D01*
X168572690Y-32301666D02*
X168572690Y-31992142D01*
X168763166Y-32158809D01*
X168763166Y-32087380D01*
X168786976Y-32039761D01*
X168810785Y-32015952D01*
X168858404Y-31992142D01*
X168977452Y-31992142D01*
X169025071Y-32015952D01*
X169048880Y-32039761D01*
X169072690Y-32087380D01*
X169072690Y-32230238D01*
X169048880Y-32277857D01*
X169025071Y-32301666D01*
X170088690Y-32468333D02*
X169850595Y-32635000D01*
X170088690Y-32754047D02*
X169588690Y-32754047D01*
X169588690Y-32563571D01*
X169612500Y-32515952D01*
X169636309Y-32492142D01*
X169683928Y-32468333D01*
X169755357Y-32468333D01*
X169802976Y-32492142D01*
X169826785Y-32515952D01*
X169850595Y-32563571D01*
X169850595Y-32754047D01*
X169636309Y-32277857D02*
X169612500Y-32254047D01*
X169588690Y-32206428D01*
X169588690Y-32087380D01*
X169612500Y-32039761D01*
X169636309Y-32015952D01*
X169683928Y-31992142D01*
X169731547Y-31992142D01*
X169802976Y-32015952D01*
X170088690Y-32301666D01*
X170088690Y-31992142D01*
X171104690Y-32468333D02*
X170866595Y-32635000D01*
X171104690Y-32754047D02*
X170604690Y-32754047D01*
X170604690Y-32563571D01*
X170628500Y-32515952D01*
X170652309Y-32492142D01*
X170699928Y-32468333D01*
X170771357Y-32468333D01*
X170818976Y-32492142D01*
X170842785Y-32515952D01*
X170866595Y-32563571D01*
X170866595Y-32754047D01*
X171104690Y-31992142D02*
X171104690Y-32277857D01*
X171104690Y-32135000D02*
X170604690Y-32135000D01*
X170676119Y-32182619D01*
X170723738Y-32230238D01*
X170747547Y-32277857D01*
X164810285Y-32587380D02*
X164834095Y-32515952D01*
X164857904Y-32492142D01*
X164905523Y-32468333D01*
X164976952Y-32468333D01*
X165024571Y-32492142D01*
X165048380Y-32515952D01*
X165072190Y-32563571D01*
X165072190Y-32754047D01*
X164572190Y-32754047D01*
X164572190Y-32587380D01*
X164596000Y-32539761D01*
X164619809Y-32515952D01*
X164667428Y-32492142D01*
X164715047Y-32492142D01*
X164762666Y-32515952D01*
X164786476Y-32539761D01*
X164810285Y-32587380D01*
X164810285Y-32754047D01*
X164572190Y-32301666D02*
X164572190Y-31992142D01*
X164762666Y-32158809D01*
X164762666Y-32087380D01*
X164786476Y-32039761D01*
X164810285Y-32015952D01*
X164857904Y-31992142D01*
X164976952Y-31992142D01*
X165024571Y-32015952D01*
X165048380Y-32039761D01*
X165072190Y-32087380D01*
X165072190Y-32230238D01*
X165048380Y-32277857D01*
X165024571Y-32301666D01*
X165826285Y-32587380D02*
X165850095Y-32515952D01*
X165873904Y-32492142D01*
X165921523Y-32468333D01*
X165992952Y-32468333D01*
X166040571Y-32492142D01*
X166064380Y-32515952D01*
X166088190Y-32563571D01*
X166088190Y-32754047D01*
X165588190Y-32754047D01*
X165588190Y-32587380D01*
X165612000Y-32539761D01*
X165635809Y-32515952D01*
X165683428Y-32492142D01*
X165731047Y-32492142D01*
X165778666Y-32515952D01*
X165802476Y-32539761D01*
X165826285Y-32587380D01*
X165826285Y-32754047D01*
X165635809Y-32277857D02*
X165612000Y-32254047D01*
X165588190Y-32206428D01*
X165588190Y-32087380D01*
X165612000Y-32039761D01*
X165635809Y-32015952D01*
X165683428Y-31992142D01*
X165731047Y-31992142D01*
X165802476Y-32015952D01*
X166088190Y-32301666D01*
X166088190Y-31992142D01*
X166842285Y-32587380D02*
X166866095Y-32515952D01*
X166889904Y-32492142D01*
X166937523Y-32468333D01*
X167008952Y-32468333D01*
X167056571Y-32492142D01*
X167080380Y-32515952D01*
X167104190Y-32563571D01*
X167104190Y-32754047D01*
X166604190Y-32754047D01*
X166604190Y-32587380D01*
X166628000Y-32539761D01*
X166651809Y-32515952D01*
X166699428Y-32492142D01*
X166747047Y-32492142D01*
X166794666Y-32515952D01*
X166818476Y-32539761D01*
X166842285Y-32587380D01*
X166842285Y-32754047D01*
X167104190Y-31992142D02*
X167104190Y-32277857D01*
X167104190Y-32135000D02*
X166604190Y-32135000D01*
X166675619Y-32182619D01*
X166723238Y-32230238D01*
X166747047Y-32277857D01*
X160595500Y-32492142D02*
X160571690Y-32539761D01*
X160571690Y-32611190D01*
X160595500Y-32682619D01*
X160643119Y-32730238D01*
X160690738Y-32754047D01*
X160785976Y-32777857D01*
X160857404Y-32777857D01*
X160952642Y-32754047D01*
X161000261Y-32730238D01*
X161047880Y-32682619D01*
X161071690Y-32611190D01*
X161071690Y-32563571D01*
X161047880Y-32492142D01*
X161024071Y-32468333D01*
X160857404Y-32468333D01*
X160857404Y-32563571D01*
X160571690Y-32301666D02*
X160571690Y-31992142D01*
X160762166Y-32158809D01*
X160762166Y-32087380D01*
X160785976Y-32039761D01*
X160809785Y-32015952D01*
X160857404Y-31992142D01*
X160976452Y-31992142D01*
X161024071Y-32015952D01*
X161047880Y-32039761D01*
X161071690Y-32087380D01*
X161071690Y-32230238D01*
X161047880Y-32277857D01*
X161024071Y-32301666D01*
X161611500Y-32492142D02*
X161587690Y-32539761D01*
X161587690Y-32611190D01*
X161611500Y-32682619D01*
X161659119Y-32730238D01*
X161706738Y-32754047D01*
X161801976Y-32777857D01*
X161873404Y-32777857D01*
X161968642Y-32754047D01*
X162016261Y-32730238D01*
X162063880Y-32682619D01*
X162087690Y-32611190D01*
X162087690Y-32563571D01*
X162063880Y-32492142D01*
X162040071Y-32468333D01*
X161873404Y-32468333D01*
X161873404Y-32563571D01*
X161635309Y-32277857D02*
X161611500Y-32254047D01*
X161587690Y-32206428D01*
X161587690Y-32087380D01*
X161611500Y-32039761D01*
X161635309Y-32015952D01*
X161682928Y-31992142D01*
X161730547Y-31992142D01*
X161801976Y-32015952D01*
X162087690Y-32301666D01*
X162087690Y-31992142D01*
X162627500Y-32492142D02*
X162603690Y-32539761D01*
X162603690Y-32611190D01*
X162627500Y-32682619D01*
X162675119Y-32730238D01*
X162722738Y-32754047D01*
X162817976Y-32777857D01*
X162889404Y-32777857D01*
X162984642Y-32754047D01*
X163032261Y-32730238D01*
X163079880Y-32682619D01*
X163103690Y-32611190D01*
X163103690Y-32563571D01*
X163079880Y-32492142D01*
X163056071Y-32468333D01*
X162889404Y-32468333D01*
X162889404Y-32563571D01*
X163103690Y-31992142D02*
X163103690Y-32277857D01*
X163103690Y-32135000D02*
X162603690Y-32135000D01*
X162675119Y-32182619D01*
X162722738Y-32230238D01*
X162746547Y-32277857D01*
X159055571Y-34047714D02*
X159079380Y-34071524D01*
X159103190Y-34142952D01*
X159103190Y-34190571D01*
X159079380Y-34262000D01*
X159031761Y-34309619D01*
X158984142Y-34333429D01*
X158888904Y-34357238D01*
X158817476Y-34357238D01*
X158722238Y-34333429D01*
X158674619Y-34309619D01*
X158627000Y-34262000D01*
X158603190Y-34190571D01*
X158603190Y-34142952D01*
X158627000Y-34071524D01*
X158650809Y-34047714D01*
X159079380Y-33857238D02*
X159103190Y-33785810D01*
X159103190Y-33666762D01*
X159079380Y-33619143D01*
X159055571Y-33595333D01*
X159007952Y-33571524D01*
X158960333Y-33571524D01*
X158912714Y-33595333D01*
X158888904Y-33619143D01*
X158865095Y-33666762D01*
X158841285Y-33762000D01*
X158817476Y-33809619D01*
X158793666Y-33833429D01*
X158746047Y-33857238D01*
X158698428Y-33857238D01*
X158650809Y-33833429D01*
X158627000Y-33809619D01*
X158603190Y-33762000D01*
X158603190Y-33642952D01*
X158627000Y-33571524D01*
X158865095Y-33262000D02*
X159103190Y-33262000D01*
X158603190Y-33428667D02*
X158865095Y-33262000D01*
X158603190Y-33095333D01*
X159103190Y-32928667D02*
X158603190Y-32928667D01*
X159103190Y-32642952D01*
X158603190Y-32642952D01*
X159055571Y-32119143D02*
X159079380Y-32142952D01*
X159103190Y-32214381D01*
X159103190Y-32262000D01*
X159079380Y-32333429D01*
X159031761Y-32381048D01*
X158984142Y-32404857D01*
X158888904Y-32428667D01*
X158817476Y-32428667D01*
X158722238Y-32404857D01*
X158674619Y-32381048D01*
X158627000Y-32333429D01*
X158603190Y-32262000D01*
X158603190Y-32214381D01*
X158627000Y-32142952D01*
X158650809Y-32119143D01*
X167858285Y-32587380D02*
X167882095Y-32515952D01*
X167905904Y-32492142D01*
X167953523Y-32468333D01*
X168024952Y-32468333D01*
X168072571Y-32492142D01*
X168096380Y-32515952D01*
X168120190Y-32563571D01*
X168120190Y-32754047D01*
X167620190Y-32754047D01*
X167620190Y-32587380D01*
X167644000Y-32539761D01*
X167667809Y-32515952D01*
X167715428Y-32492142D01*
X167763047Y-32492142D01*
X167810666Y-32515952D01*
X167834476Y-32539761D01*
X167858285Y-32587380D01*
X167858285Y-32754047D01*
X167620190Y-32158809D02*
X167620190Y-32111190D01*
X167644000Y-32063571D01*
X167667809Y-32039761D01*
X167715428Y-32015952D01*
X167810666Y-31992142D01*
X167929714Y-31992142D01*
X168024952Y-32015952D01*
X168072571Y-32039761D01*
X168096380Y-32063571D01*
X168120190Y-32111190D01*
X168120190Y-32158809D01*
X168096380Y-32206428D01*
X168072571Y-32230238D01*
X168024952Y-32254047D01*
X167929714Y-32277857D01*
X167810666Y-32277857D01*
X167715428Y-32254047D01*
X167667809Y-32230238D01*
X167644000Y-32206428D01*
X167620190Y-32158809D01*
X163580000Y-32492142D02*
X163556190Y-32539761D01*
X163556190Y-32611190D01*
X163580000Y-32682619D01*
X163627619Y-32730238D01*
X163675238Y-32754047D01*
X163770476Y-32777857D01*
X163841904Y-32777857D01*
X163937142Y-32754047D01*
X163984761Y-32730238D01*
X164032380Y-32682619D01*
X164056190Y-32611190D01*
X164056190Y-32563571D01*
X164032380Y-32492142D01*
X164008571Y-32468333D01*
X163841904Y-32468333D01*
X163841904Y-32563571D01*
X163556190Y-32158809D02*
X163556190Y-32111190D01*
X163580000Y-32063571D01*
X163603809Y-32039761D01*
X163651428Y-32015952D01*
X163746666Y-31992142D01*
X163865714Y-31992142D01*
X163960952Y-32015952D01*
X164008571Y-32039761D01*
X164032380Y-32063571D01*
X164056190Y-32111190D01*
X164056190Y-32158809D01*
X164032380Y-32206428D01*
X164008571Y-32230238D01*
X163960952Y-32254047D01*
X163865714Y-32277857D01*
X163746666Y-32277857D01*
X163651428Y-32254047D01*
X163603809Y-32230238D01*
X163580000Y-32206428D01*
X163556190Y-32158809D01*
X172057190Y-32468333D02*
X171819095Y-32635000D01*
X172057190Y-32754047D02*
X171557190Y-32754047D01*
X171557190Y-32563571D01*
X171581000Y-32515952D01*
X171604809Y-32492142D01*
X171652428Y-32468333D01*
X171723857Y-32468333D01*
X171771476Y-32492142D01*
X171795285Y-32515952D01*
X171819095Y-32563571D01*
X171819095Y-32754047D01*
X171557190Y-32158809D02*
X171557190Y-32111190D01*
X171581000Y-32063571D01*
X171604809Y-32039761D01*
X171652428Y-32015952D01*
X171747666Y-31992142D01*
X171866714Y-31992142D01*
X171961952Y-32015952D01*
X172009571Y-32039761D01*
X172033380Y-32063571D01*
X172057190Y-32111190D01*
X172057190Y-32158809D01*
X172033380Y-32206428D01*
X172009571Y-32230238D01*
X171961952Y-32254047D01*
X171866714Y-32277857D01*
X171747666Y-32277857D01*
X171652428Y-32254047D01*
X171604809Y-32230238D01*
X171581000Y-32206428D01*
X171557190Y-32158809D01*
X156972047Y-33151000D02*
X156924428Y-33127190D01*
X156853000Y-33127190D01*
X156781571Y-33151000D01*
X156733952Y-33198619D01*
X156710142Y-33246238D01*
X156686333Y-33341476D01*
X156686333Y-33412904D01*
X156710142Y-33508142D01*
X156733952Y-33555761D01*
X156781571Y-33603380D01*
X156853000Y-33627190D01*
X156900619Y-33627190D01*
X156972047Y-33603380D01*
X156995857Y-33579571D01*
X156995857Y-33412904D01*
X156900619Y-33412904D01*
X157210142Y-33627190D02*
X157210142Y-33127190D01*
X157495857Y-33627190D01*
X157495857Y-33127190D01*
X157733952Y-33627190D02*
X157733952Y-33127190D01*
X157853000Y-33127190D01*
X157924428Y-33151000D01*
X157972047Y-33198619D01*
X157995857Y-33246238D01*
X158019666Y-33341476D01*
X158019666Y-33412904D01*
X157995857Y-33508142D01*
X157972047Y-33555761D01*
X157924428Y-33603380D01*
X157853000Y-33627190D01*
X157733952Y-33627190D01*
X172712142Y-33436714D02*
X173093095Y-33436714D01*
X172902619Y-33627190D02*
X172902619Y-33246238D01*
X173569285Y-33127190D02*
X173331190Y-33127190D01*
X173307380Y-33365285D01*
X173331190Y-33341476D01*
X173378809Y-33317666D01*
X173497857Y-33317666D01*
X173545476Y-33341476D01*
X173569285Y-33365285D01*
X173593095Y-33412904D01*
X173593095Y-33531952D01*
X173569285Y-33579571D01*
X173545476Y-33603380D01*
X173497857Y-33627190D01*
X173378809Y-33627190D01*
X173331190Y-33603380D01*
X173307380Y-33579571D01*
X173735952Y-33127190D02*
X173902619Y-33627190D01*
X174069285Y-33127190D01*
D11*
X157816571Y-69594428D02*
X157816571Y-69994428D01*
X157673714Y-69365857D02*
X157530857Y-69794428D01*
X157902285Y-69794428D01*
X158245142Y-69394428D02*
X158302285Y-69394428D01*
X158359428Y-69423000D01*
X158388000Y-69451571D01*
X158416571Y-69508714D01*
X158445142Y-69623000D01*
X158445142Y-69765857D01*
X158416571Y-69880142D01*
X158388000Y-69937285D01*
X158359428Y-69965857D01*
X158302285Y-69994428D01*
X158245142Y-69994428D01*
X158188000Y-69965857D01*
X158159428Y-69937285D01*
X158130857Y-69880142D01*
X158102285Y-69765857D01*
X158102285Y-69623000D01*
X158130857Y-69508714D01*
X158159428Y-69451571D01*
X158188000Y-69423000D01*
X158245142Y-69394428D01*
X172478714Y-69994428D02*
X172135857Y-69994428D01*
X172307285Y-69994428D02*
X172307285Y-69394428D01*
X172250142Y-69480142D01*
X172193000Y-69537285D01*
X172135857Y-69565857D01*
X172993000Y-69594428D02*
X172993000Y-69994428D01*
X172850142Y-69365857D02*
X172707285Y-69794428D01*
X173078714Y-69794428D01*
X164896857Y-61958571D02*
X164925428Y-61930000D01*
X164982571Y-61901428D01*
X165125428Y-61901428D01*
X165182571Y-61930000D01*
X165211142Y-61958571D01*
X165239714Y-62015714D01*
X165239714Y-62072857D01*
X165211142Y-62158571D01*
X164868285Y-62501428D01*
X165239714Y-62501428D01*
X165439714Y-61901428D02*
X165839714Y-61901428D01*
X165582571Y-62501428D01*
X165525428Y-77487428D02*
X165182571Y-77487428D01*
X165354000Y-77487428D02*
X165354000Y-76887428D01*
X165296857Y-76973142D01*
X165239714Y-77030285D01*
X165182571Y-77058857D01*
X177419000Y-82804000D02*
X152273000Y-82804000D01*
X178435000Y-81788000D02*
X177419000Y-82804000D01*
X152273000Y-56642000D02*
X152273000Y-82804000D01*
X156464000Y-56642000D02*
X152273000Y-56642000D01*
X178435000Y-81788000D02*
X178435000Y-56642000D01*
X156718000Y-69723000D02*
G75*
G03*
X156718000Y-69723000I-508000J0D01*
G01*
X173482000Y-59944000D02*
G75*
G03*
X173482000Y-59944000I-508000J0D01*
G01*
X172212000Y-60579000D02*
G75*
G03*
X172212000Y-60579000I-508000J0D01*
G01*
X170942000Y-60579000D02*
G75*
G03*
X170942000Y-60579000I-508000J0D01*
G01*
X169672000Y-60579000D02*
G75*
G03*
X169672000Y-60579000I-508000J0D01*
G01*
X168402000Y-60579000D02*
G75*
G03*
X168402000Y-60579000I-508000J0D01*
G01*
X167132000Y-60579000D02*
G75*
G03*
X167132000Y-60579000I-508000J0D01*
G01*
X165862000Y-60579000D02*
G75*
G03*
X165862000Y-60579000I-508000J0D01*
G01*
X164592000Y-60579000D02*
G75*
G03*
X164592000Y-60579000I-508000J0D01*
G01*
X163322000Y-60579000D02*
G75*
G03*
X163322000Y-60579000I-508000J0D01*
G01*
X162052000Y-60579000D02*
G75*
G03*
X162052000Y-60579000I-508000J0D01*
G01*
X160782000Y-60579000D02*
G75*
G03*
X160782000Y-60579000I-508000J0D01*
G01*
X159512000Y-60579000D02*
G75*
G03*
X159512000Y-60579000I-508000J0D01*
G01*
X158242000Y-60579000D02*
G75*
G03*
X158242000Y-60579000I-508000J0D01*
G01*
X156718000Y-63373000D02*
G75*
G03*
X156718000Y-63373000I-508000J0D01*
G01*
X154101857Y-69423000D02*
X154044714Y-69394428D01*
X153959000Y-69394428D01*
X153873285Y-69423000D01*
X153816142Y-69480142D01*
X153787571Y-69537285D01*
X153759000Y-69651571D01*
X153759000Y-69737285D01*
X153787571Y-69851571D01*
X153816142Y-69908714D01*
X153873285Y-69965857D01*
X153959000Y-69994428D01*
X154016142Y-69994428D01*
X154101857Y-69965857D01*
X154130428Y-69937285D01*
X154130428Y-69737285D01*
X154016142Y-69737285D01*
X154387571Y-69994428D02*
X154387571Y-69394428D01*
X154730428Y-69994428D01*
X154730428Y-69394428D01*
X155016142Y-69994428D02*
X155016142Y-69394428D01*
X155159000Y-69394428D01*
X155244714Y-69423000D01*
X155301857Y-69480142D01*
X155330428Y-69537285D01*
X155359000Y-69651571D01*
X155359000Y-69737285D01*
X155330428Y-69851571D01*
X155301857Y-69908714D01*
X155244714Y-69965857D01*
X155159000Y-69994428D01*
X155016142Y-69994428D01*
X173726571Y-60621857D02*
X174183714Y-60621857D01*
X173955142Y-60850428D02*
X173955142Y-60393285D01*
X174755142Y-60250428D02*
X174469428Y-60250428D01*
X174440857Y-60536142D01*
X174469428Y-60507571D01*
X174526571Y-60479000D01*
X174669428Y-60479000D01*
X174726571Y-60507571D01*
X174755142Y-60536142D01*
X174783714Y-60593285D01*
X174783714Y-60736142D01*
X174755142Y-60793285D01*
X174726571Y-60821857D01*
X174669428Y-60850428D01*
X174526571Y-60850428D01*
X174469428Y-60821857D01*
X174440857Y-60793285D01*
X174955142Y-60250428D02*
X175155142Y-60850428D01*
X175355142Y-60250428D01*
X170334000Y-59707428D02*
X170134000Y-59421714D01*
X169991142Y-59707428D02*
X169991142Y-59107428D01*
X170219714Y-59107428D01*
X170276857Y-59136000D01*
X170305428Y-59164571D01*
X170334000Y-59221714D01*
X170334000Y-59307428D01*
X170305428Y-59364571D01*
X170276857Y-59393142D01*
X170219714Y-59421714D01*
X169991142Y-59421714D01*
X170905428Y-59707428D02*
X170562571Y-59707428D01*
X170734000Y-59707428D02*
X170734000Y-59107428D01*
X170676857Y-59193142D01*
X170619714Y-59250285D01*
X170562571Y-59278857D01*
X167794000Y-59707428D02*
X167594000Y-59421714D01*
X167451142Y-59707428D02*
X167451142Y-59107428D01*
X167679714Y-59107428D01*
X167736857Y-59136000D01*
X167765428Y-59164571D01*
X167794000Y-59221714D01*
X167794000Y-59307428D01*
X167765428Y-59364571D01*
X167736857Y-59393142D01*
X167679714Y-59421714D01*
X167451142Y-59421714D01*
X167994000Y-59107428D02*
X168365428Y-59107428D01*
X168165428Y-59336000D01*
X168251142Y-59336000D01*
X168308285Y-59364571D01*
X168336857Y-59393142D01*
X168365428Y-59450285D01*
X168365428Y-59593142D01*
X168336857Y-59650285D01*
X168308285Y-59678857D01*
X168251142Y-59707428D01*
X168079714Y-59707428D01*
X168022571Y-59678857D01*
X167994000Y-59650285D01*
X161415428Y-61422000D02*
X161358285Y-61393428D01*
X161272571Y-61393428D01*
X161186857Y-61422000D01*
X161129714Y-61479142D01*
X161101142Y-61536285D01*
X161072571Y-61650571D01*
X161072571Y-61736285D01*
X161101142Y-61850571D01*
X161129714Y-61907714D01*
X161186857Y-61964857D01*
X161272571Y-61993428D01*
X161329714Y-61993428D01*
X161415428Y-61964857D01*
X161444000Y-61936285D01*
X161444000Y-61736285D01*
X161329714Y-61736285D01*
X161815428Y-61393428D02*
X161872571Y-61393428D01*
X161929714Y-61422000D01*
X161958285Y-61450571D01*
X161986857Y-61507714D01*
X162015428Y-61622000D01*
X162015428Y-61764857D01*
X161986857Y-61879142D01*
X161958285Y-61936285D01*
X161929714Y-61964857D01*
X161872571Y-61993428D01*
X161815428Y-61993428D01*
X161758285Y-61964857D01*
X161729714Y-61936285D01*
X161701142Y-61879142D01*
X161672571Y-61764857D01*
X161672571Y-61622000D01*
X161701142Y-61507714D01*
X161729714Y-61450571D01*
X161758285Y-61422000D01*
X161815428Y-61393428D01*
X153079571Y-63587285D02*
X153051000Y-63615857D01*
X152965285Y-63644428D01*
X152908142Y-63644428D01*
X152822428Y-63615857D01*
X152765285Y-63558714D01*
X152736714Y-63501571D01*
X152708142Y-63387285D01*
X152708142Y-63301571D01*
X152736714Y-63187285D01*
X152765285Y-63130142D01*
X152822428Y-63073000D01*
X152908142Y-63044428D01*
X152965285Y-63044428D01*
X153051000Y-63073000D01*
X153079571Y-63101571D01*
X153308142Y-63615857D02*
X153393857Y-63644428D01*
X153536714Y-63644428D01*
X153593857Y-63615857D01*
X153622428Y-63587285D01*
X153651000Y-63530142D01*
X153651000Y-63473000D01*
X153622428Y-63415857D01*
X153593857Y-63387285D01*
X153536714Y-63358714D01*
X153422428Y-63330142D01*
X153365285Y-63301571D01*
X153336714Y-63273000D01*
X153308142Y-63215857D01*
X153308142Y-63158714D01*
X153336714Y-63101571D01*
X153365285Y-63073000D01*
X153422428Y-63044428D01*
X153565285Y-63044428D01*
X153651000Y-63073000D01*
X154022428Y-63358714D02*
X154022428Y-63644428D01*
X153822428Y-63044428D02*
X154022428Y-63358714D01*
X154222428Y-63044428D01*
X154422428Y-63644428D02*
X154422428Y-63044428D01*
X154765285Y-63644428D01*
X154765285Y-63044428D01*
X155393857Y-63587285D02*
X155365285Y-63615857D01*
X155279571Y-63644428D01*
X155222428Y-63644428D01*
X155136714Y-63615857D01*
X155079571Y-63558714D01*
X155051000Y-63501571D01*
X155022428Y-63387285D01*
X155022428Y-63301571D01*
X155051000Y-63187285D01*
X155079571Y-63130142D01*
X155136714Y-63073000D01*
X155222428Y-63044428D01*
X155279571Y-63044428D01*
X155365285Y-63073000D01*
X155393857Y-63101571D01*
X157605428Y-59136000D02*
X157548285Y-59107428D01*
X157462571Y-59107428D01*
X157376857Y-59136000D01*
X157319714Y-59193142D01*
X157291142Y-59250285D01*
X157262571Y-59364571D01*
X157262571Y-59450285D01*
X157291142Y-59564571D01*
X157319714Y-59621714D01*
X157376857Y-59678857D01*
X157462571Y-59707428D01*
X157519714Y-59707428D01*
X157605428Y-59678857D01*
X157634000Y-59650285D01*
X157634000Y-59450285D01*
X157519714Y-59450285D01*
X157834000Y-59107428D02*
X158205428Y-59107428D01*
X158005428Y-59336000D01*
X158091142Y-59336000D01*
X158148285Y-59364571D01*
X158176857Y-59393142D01*
X158205428Y-59450285D01*
X158205428Y-59593142D01*
X158176857Y-59650285D01*
X158148285Y-59678857D01*
X158091142Y-59707428D01*
X157919714Y-59707428D01*
X157862571Y-59678857D01*
X157834000Y-59650285D01*
X158875428Y-61422000D02*
X158818285Y-61393428D01*
X158732571Y-61393428D01*
X158646857Y-61422000D01*
X158589714Y-61479142D01*
X158561142Y-61536285D01*
X158532571Y-61650571D01*
X158532571Y-61736285D01*
X158561142Y-61850571D01*
X158589714Y-61907714D01*
X158646857Y-61964857D01*
X158732571Y-61993428D01*
X158789714Y-61993428D01*
X158875428Y-61964857D01*
X158904000Y-61936285D01*
X158904000Y-61736285D01*
X158789714Y-61736285D01*
X159132571Y-61450571D02*
X159161142Y-61422000D01*
X159218285Y-61393428D01*
X159361142Y-61393428D01*
X159418285Y-61422000D01*
X159446857Y-61450571D01*
X159475428Y-61507714D01*
X159475428Y-61564857D01*
X159446857Y-61650571D01*
X159104000Y-61993428D01*
X159475428Y-61993428D01*
X160145428Y-59136000D02*
X160088285Y-59107428D01*
X160002571Y-59107428D01*
X159916857Y-59136000D01*
X159859714Y-59193142D01*
X159831142Y-59250285D01*
X159802571Y-59364571D01*
X159802571Y-59450285D01*
X159831142Y-59564571D01*
X159859714Y-59621714D01*
X159916857Y-59678857D01*
X160002571Y-59707428D01*
X160059714Y-59707428D01*
X160145428Y-59678857D01*
X160174000Y-59650285D01*
X160174000Y-59450285D01*
X160059714Y-59450285D01*
X160745428Y-59707428D02*
X160402571Y-59707428D01*
X160574000Y-59707428D02*
X160574000Y-59107428D01*
X160516857Y-59193142D01*
X160459714Y-59250285D01*
X160402571Y-59278857D01*
X162571142Y-59393142D02*
X162656857Y-59421714D01*
X162685428Y-59450285D01*
X162714000Y-59507428D01*
X162714000Y-59593142D01*
X162685428Y-59650285D01*
X162656857Y-59678857D01*
X162599714Y-59707428D01*
X162371142Y-59707428D01*
X162371142Y-59107428D01*
X162571142Y-59107428D01*
X162628285Y-59136000D01*
X162656857Y-59164571D01*
X162685428Y-59221714D01*
X162685428Y-59278857D01*
X162656857Y-59336000D01*
X162628285Y-59364571D01*
X162571142Y-59393142D01*
X162371142Y-59393142D01*
X162914000Y-59107428D02*
X163285428Y-59107428D01*
X163085428Y-59336000D01*
X163171142Y-59336000D01*
X163228285Y-59364571D01*
X163256857Y-59393142D01*
X163285428Y-59450285D01*
X163285428Y-59593142D01*
X163256857Y-59650285D01*
X163228285Y-59678857D01*
X163171142Y-59707428D01*
X162999714Y-59707428D01*
X162942571Y-59678857D01*
X162914000Y-59650285D01*
X165111142Y-59393142D02*
X165196857Y-59421714D01*
X165225428Y-59450285D01*
X165254000Y-59507428D01*
X165254000Y-59593142D01*
X165225428Y-59650285D01*
X165196857Y-59678857D01*
X165139714Y-59707428D01*
X164911142Y-59707428D01*
X164911142Y-59107428D01*
X165111142Y-59107428D01*
X165168285Y-59136000D01*
X165196857Y-59164571D01*
X165225428Y-59221714D01*
X165225428Y-59278857D01*
X165196857Y-59336000D01*
X165168285Y-59364571D01*
X165111142Y-59393142D01*
X164911142Y-59393142D01*
X165825428Y-59707428D02*
X165482571Y-59707428D01*
X165654000Y-59707428D02*
X165654000Y-59107428D01*
X165596857Y-59193142D01*
X165539714Y-59250285D01*
X165482571Y-59278857D01*
X163841142Y-61679142D02*
X163926857Y-61707714D01*
X163955428Y-61736285D01*
X163984000Y-61793428D01*
X163984000Y-61879142D01*
X163955428Y-61936285D01*
X163926857Y-61964857D01*
X163869714Y-61993428D01*
X163641142Y-61993428D01*
X163641142Y-61393428D01*
X163841142Y-61393428D01*
X163898285Y-61422000D01*
X163926857Y-61450571D01*
X163955428Y-61507714D01*
X163955428Y-61564857D01*
X163926857Y-61622000D01*
X163898285Y-61650571D01*
X163841142Y-61679142D01*
X163641142Y-61679142D01*
X164212571Y-61450571D02*
X164241142Y-61422000D01*
X164298285Y-61393428D01*
X164441142Y-61393428D01*
X164498285Y-61422000D01*
X164526857Y-61450571D01*
X164555428Y-61507714D01*
X164555428Y-61564857D01*
X164526857Y-61650571D01*
X164184000Y-61993428D01*
X164555428Y-61993428D01*
X166381142Y-61679142D02*
X166466857Y-61707714D01*
X166495428Y-61736285D01*
X166524000Y-61793428D01*
X166524000Y-61879142D01*
X166495428Y-61936285D01*
X166466857Y-61964857D01*
X166409714Y-61993428D01*
X166181142Y-61993428D01*
X166181142Y-61393428D01*
X166381142Y-61393428D01*
X166438285Y-61422000D01*
X166466857Y-61450571D01*
X166495428Y-61507714D01*
X166495428Y-61564857D01*
X166466857Y-61622000D01*
X166438285Y-61650571D01*
X166381142Y-61679142D01*
X166181142Y-61679142D01*
X166895428Y-61393428D02*
X166952571Y-61393428D01*
X167009714Y-61422000D01*
X167038285Y-61450571D01*
X167066857Y-61507714D01*
X167095428Y-61622000D01*
X167095428Y-61764857D01*
X167066857Y-61879142D01*
X167038285Y-61936285D01*
X167009714Y-61964857D01*
X166952571Y-61993428D01*
X166895428Y-61993428D01*
X166838285Y-61964857D01*
X166809714Y-61936285D01*
X166781142Y-61879142D01*
X166752571Y-61764857D01*
X166752571Y-61622000D01*
X166781142Y-61507714D01*
X166809714Y-61450571D01*
X166838285Y-61422000D01*
X166895428Y-61393428D01*
X169064000Y-61993428D02*
X168864000Y-61707714D01*
X168721142Y-61993428D02*
X168721142Y-61393428D01*
X168949714Y-61393428D01*
X169006857Y-61422000D01*
X169035428Y-61450571D01*
X169064000Y-61507714D01*
X169064000Y-61593428D01*
X169035428Y-61650571D01*
X169006857Y-61679142D01*
X168949714Y-61707714D01*
X168721142Y-61707714D01*
X169292571Y-61450571D02*
X169321142Y-61422000D01*
X169378285Y-61393428D01*
X169521142Y-61393428D01*
X169578285Y-61422000D01*
X169606857Y-61450571D01*
X169635428Y-61507714D01*
X169635428Y-61564857D01*
X169606857Y-61650571D01*
X169264000Y-61993428D01*
X169635428Y-61993428D01*
X171604000Y-61993428D02*
X171404000Y-61707714D01*
X171261142Y-61993428D02*
X171261142Y-61393428D01*
X171489714Y-61393428D01*
X171546857Y-61422000D01*
X171575428Y-61450571D01*
X171604000Y-61507714D01*
X171604000Y-61593428D01*
X171575428Y-61650571D01*
X171546857Y-61679142D01*
X171489714Y-61707714D01*
X171261142Y-61707714D01*
X171975428Y-61393428D02*
X172032571Y-61393428D01*
X172089714Y-61422000D01*
X172118285Y-61450571D01*
X172146857Y-61507714D01*
X172175428Y-61622000D01*
X172175428Y-61764857D01*
X172146857Y-61879142D01*
X172118285Y-61936285D01*
X172089714Y-61964857D01*
X172032571Y-61993428D01*
X171975428Y-61993428D01*
X171918285Y-61964857D01*
X171889714Y-61936285D01*
X171861142Y-61879142D01*
X171832571Y-61764857D01*
X171832571Y-61622000D01*
X171861142Y-61507714D01*
X171889714Y-61450571D01*
X171918285Y-61422000D01*
X171975428Y-61393428D01*
D10*
X153199142Y-35862285D02*
X152949142Y-35505142D01*
X152770571Y-35862285D02*
X152770571Y-35112285D01*
X153056285Y-35112285D01*
X153127714Y-35148000D01*
X153163428Y-35183714D01*
X153199142Y-35255142D01*
X153199142Y-35362285D01*
X153163428Y-35433714D01*
X153127714Y-35469428D01*
X153056285Y-35505142D01*
X152770571Y-35505142D01*
X153913428Y-35148000D02*
X153842000Y-35112285D01*
X153734857Y-35112285D01*
X153627714Y-35148000D01*
X153556285Y-35219428D01*
X153520571Y-35290857D01*
X153484857Y-35433714D01*
X153484857Y-35540857D01*
X153520571Y-35683714D01*
X153556285Y-35755142D01*
X153627714Y-35826571D01*
X153734857Y-35862285D01*
X153806285Y-35862285D01*
X153913428Y-35826571D01*
X153949142Y-35790857D01*
X153949142Y-35540857D01*
X153806285Y-35540857D01*
X154520571Y-35469428D02*
X154627714Y-35505142D01*
X154663428Y-35540857D01*
X154699142Y-35612285D01*
X154699142Y-35719428D01*
X154663428Y-35790857D01*
X154627714Y-35826571D01*
X154556285Y-35862285D01*
X154270571Y-35862285D01*
X154270571Y-35112285D01*
X154520571Y-35112285D01*
X154592000Y-35148000D01*
X154627714Y-35183714D01*
X154663428Y-35255142D01*
X154663428Y-35326571D01*
X154627714Y-35398000D01*
X154592000Y-35433714D01*
X154520571Y-35469428D01*
X154270571Y-35469428D01*
X154913428Y-35362285D02*
X155199142Y-35362285D01*
X155020571Y-35112285D02*
X155020571Y-35755142D01*
X155056285Y-35826571D01*
X155127714Y-35862285D01*
X155199142Y-35862285D01*
X155556285Y-35862285D02*
X155484857Y-35826571D01*
X155449142Y-35790857D01*
X155413428Y-35719428D01*
X155413428Y-35505142D01*
X155449142Y-35433714D01*
X155484857Y-35398000D01*
X155556285Y-35362285D01*
X155663428Y-35362285D01*
X155734857Y-35398000D01*
X155770571Y-35433714D01*
X155806285Y-35505142D01*
X155806285Y-35719428D01*
X155770571Y-35790857D01*
X155734857Y-35826571D01*
X155663428Y-35862285D01*
X155556285Y-35862285D01*
X156127714Y-35862285D02*
X156127714Y-35112285D01*
X156127714Y-35469428D02*
X156556285Y-35469428D01*
X156556285Y-35862285D02*
X156556285Y-35112285D01*
X156913428Y-35862285D02*
X156913428Y-35112285D01*
X157092000Y-35112285D01*
X157199142Y-35148000D01*
X157270571Y-35219428D01*
X157306285Y-35290857D01*
X157342000Y-35433714D01*
X157342000Y-35540857D01*
X157306285Y-35683714D01*
X157270571Y-35755142D01*
X157199142Y-35826571D01*
X157092000Y-35862285D01*
X156913428Y-35862285D01*
X157663428Y-35862285D02*
X157663428Y-35112285D01*
X157913428Y-35648000D01*
X158163428Y-35112285D01*
X158163428Y-35862285D01*
X158520571Y-35862285D02*
X158520571Y-35112285D01*
X159413428Y-35648000D02*
X159770571Y-35648000D01*
X159342000Y-35862285D02*
X159592000Y-35112285D01*
X159842000Y-35862285D01*
X160092000Y-35862285D02*
X160092000Y-35362285D01*
X160092000Y-35433714D02*
X160127714Y-35398000D01*
X160199142Y-35362285D01*
X160306285Y-35362285D01*
X160377714Y-35398000D01*
X160413428Y-35469428D01*
X160413428Y-35862285D01*
X160413428Y-35469428D02*
X160449142Y-35398000D01*
X160520571Y-35362285D01*
X160627714Y-35362285D01*
X160699142Y-35398000D01*
X160734857Y-35469428D01*
X160734857Y-35862285D01*
X161092000Y-35862285D02*
X161092000Y-35362285D01*
X161092000Y-35112285D02*
X161056285Y-35148000D01*
X161092000Y-35183714D01*
X161127714Y-35148000D01*
X161092000Y-35112285D01*
X161092000Y-35183714D01*
X161770571Y-35362285D02*
X161770571Y-35969428D01*
X161734857Y-36040857D01*
X161699142Y-36076571D01*
X161627714Y-36112285D01*
X161520571Y-36112285D01*
X161449142Y-36076571D01*
X161770571Y-35826571D02*
X161699142Y-35862285D01*
X161556285Y-35862285D01*
X161484857Y-35826571D01*
X161449142Y-35790857D01*
X161413428Y-35719428D01*
X161413428Y-35505142D01*
X161449142Y-35433714D01*
X161484857Y-35398000D01*
X161556285Y-35362285D01*
X161699142Y-35362285D01*
X161770571Y-35398000D01*
X162449142Y-35862285D02*
X162449142Y-35469428D01*
X162413428Y-35398000D01*
X162342000Y-35362285D01*
X162199142Y-35362285D01*
X162127714Y-35398000D01*
X162449142Y-35826571D02*
X162377714Y-35862285D01*
X162199142Y-35862285D01*
X162127714Y-35826571D01*
X162092000Y-35755142D01*
X162092000Y-35683714D01*
X162127714Y-35612285D01*
X162199142Y-35576571D01*
X162377714Y-35576571D01*
X162449142Y-35540857D01*
X163377714Y-35862285D02*
X163377714Y-35112285D01*
X163556285Y-35112285D01*
X163663428Y-35148000D01*
X163734857Y-35219428D01*
X163770571Y-35290857D01*
X163806285Y-35433714D01*
X163806285Y-35540857D01*
X163770571Y-35683714D01*
X163734857Y-35755142D01*
X163663428Y-35826571D01*
X163556285Y-35862285D01*
X163377714Y-35862285D01*
X164413428Y-35826571D02*
X164342000Y-35862285D01*
X164199142Y-35862285D01*
X164127714Y-35826571D01*
X164092000Y-35755142D01*
X164092000Y-35469428D01*
X164127714Y-35398000D01*
X164199142Y-35362285D01*
X164342000Y-35362285D01*
X164413428Y-35398000D01*
X164449142Y-35469428D01*
X164449142Y-35540857D01*
X164092000Y-35612285D01*
X164770571Y-35362285D02*
X164770571Y-35862285D01*
X164770571Y-35433714D02*
X164806285Y-35398000D01*
X164877714Y-35362285D01*
X164984857Y-35362285D01*
X165056285Y-35398000D01*
X165092000Y-35469428D01*
X165092000Y-35862285D01*
X165449142Y-35862285D02*
X165449142Y-35362285D01*
X165449142Y-35112285D02*
X165413428Y-35148000D01*
X165449142Y-35183714D01*
X165484857Y-35148000D01*
X165449142Y-35112285D01*
X165449142Y-35183714D01*
X165770571Y-35826571D02*
X165842000Y-35862285D01*
X165984857Y-35862285D01*
X166056285Y-35826571D01*
X166092000Y-35755142D01*
X166092000Y-35719428D01*
X166056285Y-35648000D01*
X165984857Y-35612285D01*
X165877714Y-35612285D01*
X165806285Y-35576571D01*
X165770571Y-35505142D01*
X165770571Y-35469428D01*
X165806285Y-35398000D01*
X165877714Y-35362285D01*
X165984857Y-35362285D01*
X166056285Y-35398000D01*
X166699142Y-35826571D02*
X166627714Y-35862285D01*
X166484857Y-35862285D01*
X166413428Y-35826571D01*
X166377714Y-35755142D01*
X166377714Y-35469428D01*
X166413428Y-35398000D01*
X166484857Y-35362285D01*
X166627714Y-35362285D01*
X166699142Y-35398000D01*
X166734857Y-35469428D01*
X166734857Y-35540857D01*
X166377714Y-35612285D01*
X167627714Y-35469428D02*
X167877714Y-35469428D01*
X167984857Y-35862285D02*
X167627714Y-35862285D01*
X167627714Y-35112285D01*
X167984857Y-35112285D01*
X168734857Y-35790857D02*
X168699142Y-35826571D01*
X168592000Y-35862285D01*
X168520571Y-35862285D01*
X168413428Y-35826571D01*
X168342000Y-35755142D01*
X168306285Y-35683714D01*
X168270571Y-35540857D01*
X168270571Y-35433714D01*
X168306285Y-35290857D01*
X168342000Y-35219428D01*
X168413428Y-35148000D01*
X168520571Y-35112285D01*
X168592000Y-35112285D01*
X168699142Y-35148000D01*
X168734857Y-35183714D01*
X169020571Y-35826571D02*
X169127714Y-35862285D01*
X169306285Y-35862285D01*
X169377714Y-35826571D01*
X169413428Y-35790857D01*
X169449142Y-35719428D01*
X169449142Y-35648000D01*
X169413428Y-35576571D01*
X169377714Y-35540857D01*
X169306285Y-35505142D01*
X169163428Y-35469428D01*
X169092000Y-35433714D01*
X169056285Y-35398000D01*
X169020571Y-35326571D01*
X169020571Y-35255142D01*
X169056285Y-35183714D01*
X169092000Y-35148000D01*
X169163428Y-35112285D01*
X169342000Y-35112285D01*
X169449142Y-35148000D01*
X170342000Y-35862285D02*
X170342000Y-35112285D01*
X170627714Y-35112285D01*
X170699142Y-35148000D01*
X170734857Y-35183714D01*
X170770571Y-35255142D01*
X170770571Y-35362285D01*
X170734857Y-35433714D01*
X170699142Y-35469428D01*
X170627714Y-35505142D01*
X170342000Y-35505142D01*
X171449142Y-35862285D02*
X171092000Y-35862285D01*
X171092000Y-35112285D01*
X172127714Y-35790857D02*
X172092000Y-35826571D01*
X171984857Y-35862285D01*
X171913428Y-35862285D01*
X171806285Y-35826571D01*
X171734857Y-35755142D01*
X171699142Y-35683714D01*
X171663428Y-35540857D01*
X171663428Y-35433714D01*
X171699142Y-35290857D01*
X171734857Y-35219428D01*
X171806285Y-35148000D01*
X171913428Y-35112285D01*
X171984857Y-35112285D01*
X172092000Y-35148000D01*
X172127714Y-35183714D01*
X172877714Y-35790857D02*
X172842000Y-35826571D01*
X172734857Y-35862285D01*
X172663428Y-35862285D01*
X172556285Y-35826571D01*
X172484857Y-35755142D01*
X172449142Y-35683714D01*
X172413428Y-35540857D01*
X172413428Y-35433714D01*
X172449142Y-35290857D01*
X172484857Y-35219428D01*
X172556285Y-35148000D01*
X172663428Y-35112285D01*
X172734857Y-35112285D01*
X172842000Y-35148000D01*
X172877714Y-35183714D01*
X152734857Y-37051571D02*
X152842000Y-37087285D01*
X153020571Y-37087285D01*
X153092000Y-37051571D01*
X153127714Y-37015857D01*
X153163428Y-36944428D01*
X153163428Y-36873000D01*
X153127714Y-36801571D01*
X153092000Y-36765857D01*
X153020571Y-36730142D01*
X152877714Y-36694428D01*
X152806285Y-36658714D01*
X152770571Y-36623000D01*
X152734857Y-36551571D01*
X152734857Y-36480142D01*
X152770571Y-36408714D01*
X152806285Y-36373000D01*
X152877714Y-36337285D01*
X153056285Y-36337285D01*
X153163428Y-36373000D01*
X153484857Y-37087285D02*
X153484857Y-36337285D01*
X153734857Y-36873000D01*
X153984857Y-36337285D01*
X153984857Y-37087285D01*
X154234857Y-36337285D02*
X154663428Y-36337285D01*
X154449142Y-37087285D02*
X154449142Y-36337285D01*
X155734857Y-36694428D02*
X155842000Y-36730142D01*
X155877714Y-36765857D01*
X155913428Y-36837285D01*
X155913428Y-36944428D01*
X155877714Y-37015857D01*
X155842000Y-37051571D01*
X155770571Y-37087285D01*
X155484857Y-37087285D01*
X155484857Y-36337285D01*
X155734857Y-36337285D01*
X155806285Y-36373000D01*
X155842000Y-36408714D01*
X155877714Y-36480142D01*
X155877714Y-36551571D01*
X155842000Y-36623000D01*
X155806285Y-36658714D01*
X155734857Y-36694428D01*
X155484857Y-36694428D01*
X156234857Y-37087285D02*
X156234857Y-36587285D01*
X156234857Y-36730142D02*
X156270571Y-36658714D01*
X156306285Y-36623000D01*
X156377714Y-36587285D01*
X156449142Y-36587285D01*
X156984857Y-37051571D02*
X156913428Y-37087285D01*
X156770571Y-37087285D01*
X156699142Y-37051571D01*
X156663428Y-36980142D01*
X156663428Y-36694428D01*
X156699142Y-36623000D01*
X156770571Y-36587285D01*
X156913428Y-36587285D01*
X156984857Y-36623000D01*
X157020571Y-36694428D01*
X157020571Y-36765857D01*
X156663428Y-36837285D01*
X157663428Y-37087285D02*
X157663428Y-36694428D01*
X157627714Y-36623000D01*
X157556285Y-36587285D01*
X157413428Y-36587285D01*
X157342000Y-36623000D01*
X157663428Y-37051571D02*
X157592000Y-37087285D01*
X157413428Y-37087285D01*
X157342000Y-37051571D01*
X157306285Y-36980142D01*
X157306285Y-36908714D01*
X157342000Y-36837285D01*
X157413428Y-36801571D01*
X157592000Y-36801571D01*
X157663428Y-36765857D01*
X158020571Y-37087285D02*
X158020571Y-36337285D01*
X158092000Y-36801571D02*
X158306285Y-37087285D01*
X158306285Y-36587285D02*
X158020571Y-36873000D01*
X158734857Y-37087285D02*
X158663428Y-37051571D01*
X158627714Y-37015857D01*
X158592000Y-36944428D01*
X158592000Y-36730142D01*
X158627714Y-36658714D01*
X158663428Y-36623000D01*
X158734857Y-36587285D01*
X158842000Y-36587285D01*
X158913428Y-36623000D01*
X158949142Y-36658714D01*
X158984857Y-36730142D01*
X158984857Y-36944428D01*
X158949142Y-37015857D01*
X158913428Y-37051571D01*
X158842000Y-37087285D01*
X158734857Y-37087285D01*
X159627714Y-36587285D02*
X159627714Y-37087285D01*
X159306285Y-36587285D02*
X159306285Y-36980142D01*
X159342000Y-37051571D01*
X159413428Y-37087285D01*
X159520571Y-37087285D01*
X159592000Y-37051571D01*
X159627714Y-37015857D01*
X159877714Y-36587285D02*
X160163428Y-36587285D01*
X159984857Y-36337285D02*
X159984857Y-36980142D01*
X160020571Y-37051571D01*
X160092000Y-37087285D01*
X160163428Y-37087285D01*
X160984857Y-37087285D02*
X160984857Y-36337285D01*
X160984857Y-36694428D02*
X161413428Y-36694428D01*
X161413428Y-37087285D02*
X161413428Y-36337285D01*
X162092000Y-37087285D02*
X162092000Y-36694428D01*
X162056285Y-36623000D01*
X161984857Y-36587285D01*
X161842000Y-36587285D01*
X161770571Y-36623000D01*
X162092000Y-37051571D02*
X162020571Y-37087285D01*
X161842000Y-37087285D01*
X161770571Y-37051571D01*
X161734857Y-36980142D01*
X161734857Y-36908714D01*
X161770571Y-36837285D01*
X161842000Y-36801571D01*
X162020571Y-36801571D01*
X162092000Y-36765857D01*
X162342000Y-36587285D02*
X162627714Y-36587285D01*
X162449142Y-36337285D02*
X162449142Y-36980142D01*
X162484857Y-37051571D01*
X162556285Y-37087285D01*
X162627714Y-37087285D01*
X163699142Y-36694428D02*
X163449142Y-36694428D01*
X163449142Y-37087285D02*
X163449142Y-36337285D01*
X163806285Y-36337285D01*
X164342000Y-36694428D02*
X164092000Y-36694428D01*
X164092000Y-37087285D02*
X164092000Y-36337285D01*
X164449142Y-36337285D01*
X165163428Y-37015857D02*
X165127714Y-37051571D01*
X165020571Y-37087285D01*
X164949142Y-37087285D01*
X164842000Y-37051571D01*
X164770571Y-36980142D01*
X164734857Y-36908714D01*
X164699142Y-36765857D01*
X164699142Y-36658714D01*
X164734857Y-36515857D01*
X164770571Y-36444428D01*
X164842000Y-36373000D01*
X164949142Y-36337285D01*
X165020571Y-36337285D01*
X165127714Y-36373000D01*
X165163428Y-36408714D01*
X152770571Y-39537285D02*
X152770571Y-38787285D01*
X152770571Y-39073000D02*
X152842000Y-39037285D01*
X152984857Y-39037285D01*
X153056285Y-39073000D01*
X153092000Y-39108714D01*
X153127714Y-39180142D01*
X153127714Y-39394428D01*
X153092000Y-39465857D01*
X153056285Y-39501571D01*
X152984857Y-39537285D01*
X152842000Y-39537285D01*
X152770571Y-39501571D01*
X153377714Y-39037285D02*
X153556285Y-39537285D01*
X153734857Y-39037285D02*
X153556285Y-39537285D01*
X153484857Y-39715857D01*
X153449142Y-39751571D01*
X153377714Y-39787285D01*
X154556285Y-39501571D02*
X154627714Y-39537285D01*
X154770571Y-39537285D01*
X154842000Y-39501571D01*
X154877714Y-39430142D01*
X154877714Y-39394428D01*
X154842000Y-39323000D01*
X154770571Y-39287285D01*
X154663428Y-39287285D01*
X154592000Y-39251571D01*
X154556285Y-39180142D01*
X154556285Y-39144428D01*
X154592000Y-39073000D01*
X154663428Y-39037285D01*
X154770571Y-39037285D01*
X154842000Y-39073000D01*
X155306285Y-39537285D02*
X155234857Y-39501571D01*
X155199142Y-39465857D01*
X155163428Y-39394428D01*
X155163428Y-39180142D01*
X155199142Y-39108714D01*
X155234857Y-39073000D01*
X155306285Y-39037285D01*
X155413428Y-39037285D01*
X155484857Y-39073000D01*
X155520571Y-39108714D01*
X155556285Y-39180142D01*
X155556285Y-39394428D01*
X155520571Y-39465857D01*
X155484857Y-39501571D01*
X155413428Y-39537285D01*
X155306285Y-39537285D01*
X155984857Y-39537285D02*
X155913428Y-39501571D01*
X155877714Y-39430142D01*
X155877714Y-38787285D01*
X156592000Y-39537285D02*
X156592000Y-39144428D01*
X156556285Y-39073000D01*
X156484857Y-39037285D01*
X156342000Y-39037285D01*
X156270571Y-39073000D01*
X156592000Y-39501571D02*
X156520571Y-39537285D01*
X156342000Y-39537285D01*
X156270571Y-39501571D01*
X156234857Y-39430142D01*
X156234857Y-39358714D01*
X156270571Y-39287285D01*
X156342000Y-39251571D01*
X156520571Y-39251571D01*
X156592000Y-39215857D01*
X156949142Y-39537285D02*
X156949142Y-39037285D01*
X156949142Y-39180142D02*
X156984857Y-39108714D01*
X157020571Y-39073000D01*
X157092000Y-39037285D01*
X157163428Y-39037285D01*
X157413428Y-39537285D02*
X157413428Y-39037285D01*
X157413428Y-39108714D02*
X157449142Y-39073000D01*
X157520571Y-39037285D01*
X157627714Y-39037285D01*
X157699142Y-39073000D01*
X157734857Y-39144428D01*
X157734857Y-39537285D01*
X157734857Y-39144428D02*
X157770571Y-39073000D01*
X157842000Y-39037285D01*
X157949142Y-39037285D01*
X158020571Y-39073000D01*
X158056285Y-39144428D01*
X158056285Y-39537285D01*
X158520571Y-39537285D02*
X158449142Y-39501571D01*
X158413428Y-39465857D01*
X158377714Y-39394428D01*
X158377714Y-39180142D01*
X158413428Y-39108714D01*
X158449142Y-39073000D01*
X158520571Y-39037285D01*
X158627714Y-39037285D01*
X158699142Y-39073000D01*
X158734857Y-39108714D01*
X158770571Y-39180142D01*
X158770571Y-39394428D01*
X158734857Y-39465857D01*
X158699142Y-39501571D01*
X158627714Y-39537285D01*
X158520571Y-39537285D01*
X159092000Y-39037285D02*
X159092000Y-39537285D01*
X159092000Y-39108714D02*
X159127714Y-39073000D01*
X159199142Y-39037285D01*
X159306285Y-39037285D01*
X159377714Y-39073000D01*
X159413428Y-39144428D01*
X159413428Y-39537285D01*
X152770571Y-40762285D02*
X152770571Y-40012285D01*
X153092000Y-40762285D02*
X153092000Y-40369428D01*
X153056285Y-40298000D01*
X152984857Y-40262285D01*
X152877714Y-40262285D01*
X152806285Y-40298000D01*
X152770571Y-40333714D01*
X153342000Y-40262285D02*
X153627714Y-40262285D01*
X153449142Y-40012285D02*
X153449142Y-40655142D01*
X153484857Y-40726571D01*
X153556285Y-40762285D01*
X153627714Y-40762285D01*
X153770571Y-40262285D02*
X154056285Y-40262285D01*
X153877714Y-40012285D02*
X153877714Y-40655142D01*
X153913428Y-40726571D01*
X153984857Y-40762285D01*
X154056285Y-40762285D01*
X154306285Y-40262285D02*
X154306285Y-41012285D01*
X154306285Y-40298000D02*
X154377714Y-40262285D01*
X154520571Y-40262285D01*
X154592000Y-40298000D01*
X154627714Y-40333714D01*
X154663428Y-40405142D01*
X154663428Y-40619428D01*
X154627714Y-40690857D01*
X154592000Y-40726571D01*
X154520571Y-40762285D01*
X154377714Y-40762285D01*
X154306285Y-40726571D01*
X154949142Y-40726571D02*
X155020571Y-40762285D01*
X155163428Y-40762285D01*
X155234857Y-40726571D01*
X155270571Y-40655142D01*
X155270571Y-40619428D01*
X155234857Y-40548000D01*
X155163428Y-40512285D01*
X155056285Y-40512285D01*
X154984857Y-40476571D01*
X154949142Y-40405142D01*
X154949142Y-40369428D01*
X154984857Y-40298000D01*
X155056285Y-40262285D01*
X155163428Y-40262285D01*
X155234857Y-40298000D01*
X155592000Y-40690857D02*
X155627714Y-40726571D01*
X155592000Y-40762285D01*
X155556285Y-40726571D01*
X155592000Y-40690857D01*
X155592000Y-40762285D01*
X155592000Y-40298000D02*
X155627714Y-40333714D01*
X155592000Y-40369428D01*
X155556285Y-40333714D01*
X155592000Y-40298000D01*
X155592000Y-40369428D01*
X156484857Y-39976571D02*
X155842000Y-40940857D01*
X157270571Y-39976571D02*
X156627714Y-40940857D01*
X157842000Y-40262285D02*
X157842000Y-40869428D01*
X157806285Y-40940857D01*
X157770571Y-40976571D01*
X157699142Y-41012285D01*
X157592000Y-41012285D01*
X157520571Y-40976571D01*
X157842000Y-40726571D02*
X157770571Y-40762285D01*
X157627714Y-40762285D01*
X157556285Y-40726571D01*
X157520571Y-40690857D01*
X157484857Y-40619428D01*
X157484857Y-40405142D01*
X157520571Y-40333714D01*
X157556285Y-40298000D01*
X157627714Y-40262285D01*
X157770571Y-40262285D01*
X157842000Y-40298000D01*
X158199142Y-40762285D02*
X158199142Y-40262285D01*
X158199142Y-40012285D02*
X158163428Y-40048000D01*
X158199142Y-40083714D01*
X158234857Y-40048000D01*
X158199142Y-40012285D01*
X158199142Y-40083714D01*
X158449142Y-40262285D02*
X158734857Y-40262285D01*
X158556285Y-40012285D02*
X158556285Y-40655142D01*
X158592000Y-40726571D01*
X158663428Y-40762285D01*
X158734857Y-40762285D01*
X158984857Y-40762285D02*
X158984857Y-40012285D01*
X159306285Y-40762285D02*
X159306285Y-40369428D01*
X159270571Y-40298000D01*
X159199142Y-40262285D01*
X159092000Y-40262285D01*
X159020571Y-40298000D01*
X158984857Y-40333714D01*
X159984857Y-40262285D02*
X159984857Y-40762285D01*
X159663428Y-40262285D02*
X159663428Y-40655142D01*
X159699142Y-40726571D01*
X159770571Y-40762285D01*
X159877714Y-40762285D01*
X159949142Y-40726571D01*
X159984857Y-40690857D01*
X160342000Y-40762285D02*
X160342000Y-40012285D01*
X160342000Y-40298000D02*
X160413428Y-40262285D01*
X160556285Y-40262285D01*
X160627714Y-40298000D01*
X160663428Y-40333714D01*
X160699142Y-40405142D01*
X160699142Y-40619428D01*
X160663428Y-40690857D01*
X160627714Y-40726571D01*
X160556285Y-40762285D01*
X160413428Y-40762285D01*
X160342000Y-40726571D01*
X161020571Y-40690857D02*
X161056285Y-40726571D01*
X161020571Y-40762285D01*
X160984857Y-40726571D01*
X161020571Y-40690857D01*
X161020571Y-40762285D01*
X161699142Y-40726571D02*
X161627714Y-40762285D01*
X161484857Y-40762285D01*
X161413428Y-40726571D01*
X161377714Y-40690857D01*
X161342000Y-40619428D01*
X161342000Y-40405142D01*
X161377714Y-40333714D01*
X161413428Y-40298000D01*
X161484857Y-40262285D01*
X161627714Y-40262285D01*
X161699142Y-40298000D01*
X162127714Y-40762285D02*
X162056285Y-40726571D01*
X162020571Y-40690857D01*
X161984857Y-40619428D01*
X161984857Y-40405142D01*
X162020571Y-40333714D01*
X162056285Y-40298000D01*
X162127714Y-40262285D01*
X162234857Y-40262285D01*
X162306285Y-40298000D01*
X162342000Y-40333714D01*
X162377714Y-40405142D01*
X162377714Y-40619428D01*
X162342000Y-40690857D01*
X162306285Y-40726571D01*
X162234857Y-40762285D01*
X162127714Y-40762285D01*
X162699142Y-40762285D02*
X162699142Y-40262285D01*
X162699142Y-40333714D02*
X162734857Y-40298000D01*
X162806285Y-40262285D01*
X162913428Y-40262285D01*
X162984857Y-40298000D01*
X163020571Y-40369428D01*
X163020571Y-40762285D01*
X163020571Y-40369428D02*
X163056285Y-40298000D01*
X163127714Y-40262285D01*
X163234857Y-40262285D01*
X163306285Y-40298000D01*
X163342000Y-40369428D01*
X163342000Y-40762285D01*
X164234857Y-39976571D02*
X163592000Y-40940857D01*
X164449142Y-40726571D02*
X164520571Y-40762285D01*
X164663428Y-40762285D01*
X164734857Y-40726571D01*
X164770571Y-40655142D01*
X164770571Y-40619428D01*
X164734857Y-40548000D01*
X164663428Y-40512285D01*
X164556285Y-40512285D01*
X164484857Y-40476571D01*
X164449142Y-40405142D01*
X164449142Y-40369428D01*
X164484857Y-40298000D01*
X164556285Y-40262285D01*
X164663428Y-40262285D01*
X164734857Y-40298000D01*
X165199142Y-40762285D02*
X165127714Y-40726571D01*
X165092000Y-40690857D01*
X165056285Y-40619428D01*
X165056285Y-40405142D01*
X165092000Y-40333714D01*
X165127714Y-40298000D01*
X165199142Y-40262285D01*
X165306285Y-40262285D01*
X165377714Y-40298000D01*
X165413428Y-40333714D01*
X165449142Y-40405142D01*
X165449142Y-40619428D01*
X165413428Y-40690857D01*
X165377714Y-40726571D01*
X165306285Y-40762285D01*
X165199142Y-40762285D01*
X165877714Y-40762285D02*
X165806285Y-40726571D01*
X165770571Y-40655142D01*
X165770571Y-40012285D01*
X166484857Y-40762285D02*
X166484857Y-40369428D01*
X166449142Y-40298000D01*
X166377714Y-40262285D01*
X166234857Y-40262285D01*
X166163428Y-40298000D01*
X166484857Y-40726571D02*
X166413428Y-40762285D01*
X166234857Y-40762285D01*
X166163428Y-40726571D01*
X166127714Y-40655142D01*
X166127714Y-40583714D01*
X166163428Y-40512285D01*
X166234857Y-40476571D01*
X166413428Y-40476571D01*
X166484857Y-40440857D01*
X166842000Y-40762285D02*
X166842000Y-40262285D01*
X166842000Y-40405142D02*
X166877714Y-40333714D01*
X166913428Y-40298000D01*
X166984857Y-40262285D01*
X167056285Y-40262285D01*
X167306285Y-40762285D02*
X167306285Y-40262285D01*
X167306285Y-40333714D02*
X167342000Y-40298000D01*
X167413428Y-40262285D01*
X167520571Y-40262285D01*
X167592000Y-40298000D01*
X167627714Y-40369428D01*
X167627714Y-40762285D01*
X167627714Y-40369428D02*
X167663428Y-40298000D01*
X167734857Y-40262285D01*
X167842000Y-40262285D01*
X167913428Y-40298000D01*
X167949142Y-40369428D01*
X167949142Y-40762285D01*
X168413428Y-40762285D02*
X168342000Y-40726571D01*
X168306285Y-40690857D01*
X168270571Y-40619428D01*
X168270571Y-40405142D01*
X168306285Y-40333714D01*
X168342000Y-40298000D01*
X168413428Y-40262285D01*
X168520571Y-40262285D01*
X168592000Y-40298000D01*
X168627714Y-40333714D01*
X168663428Y-40405142D01*
X168663428Y-40619428D01*
X168627714Y-40690857D01*
X168592000Y-40726571D01*
X168520571Y-40762285D01*
X168413428Y-40762285D01*
X168984857Y-40262285D02*
X168984857Y-40762285D01*
X168984857Y-40333714D02*
X169020571Y-40298000D01*
X169092000Y-40262285D01*
X169199142Y-40262285D01*
X169270571Y-40298000D01*
X169306285Y-40369428D01*
X169306285Y-40762285D01*
X170199142Y-39976571D02*
X169556285Y-40940857D01*
X170877714Y-40762285D02*
X170627714Y-40405142D01*
X170449142Y-40762285D02*
X170449142Y-40012285D01*
X170734857Y-40012285D01*
X170806285Y-40048000D01*
X170842000Y-40083714D01*
X170877714Y-40155142D01*
X170877714Y-40262285D01*
X170842000Y-40333714D01*
X170806285Y-40369428D01*
X170734857Y-40405142D01*
X170449142Y-40405142D01*
X171592000Y-40048000D02*
X171520571Y-40012285D01*
X171413428Y-40012285D01*
X171306285Y-40048000D01*
X171234857Y-40119428D01*
X171199142Y-40190857D01*
X171163428Y-40333714D01*
X171163428Y-40440857D01*
X171199142Y-40583714D01*
X171234857Y-40655142D01*
X171306285Y-40726571D01*
X171413428Y-40762285D01*
X171484857Y-40762285D01*
X171592000Y-40726571D01*
X171627714Y-40690857D01*
X171627714Y-40440857D01*
X171484857Y-40440857D01*
X172199142Y-40369428D02*
X172306285Y-40405142D01*
X172342000Y-40440857D01*
X172377714Y-40512285D01*
X172377714Y-40619428D01*
X172342000Y-40690857D01*
X172306285Y-40726571D01*
X172234857Y-40762285D01*
X171949142Y-40762285D01*
X171949142Y-40012285D01*
X172199142Y-40012285D01*
X172270571Y-40048000D01*
X172306285Y-40083714D01*
X172342000Y-40155142D01*
X172342000Y-40226571D01*
X172306285Y-40298000D01*
X172270571Y-40333714D01*
X172199142Y-40369428D01*
X171949142Y-40369428D01*
X172592000Y-40262285D02*
X172877714Y-40262285D01*
X172699142Y-40012285D02*
X172699142Y-40655142D01*
X172734857Y-40726571D01*
X172806285Y-40762285D01*
X172877714Y-40762285D01*
X173234857Y-40762285D02*
X173163428Y-40726571D01*
X173127714Y-40690857D01*
X173092000Y-40619428D01*
X173092000Y-40405142D01*
X173127714Y-40333714D01*
X173163428Y-40298000D01*
X173234857Y-40262285D01*
X173342000Y-40262285D01*
X173413428Y-40298000D01*
X173449142Y-40333714D01*
X173484857Y-40405142D01*
X173484857Y-40619428D01*
X173449142Y-40690857D01*
X173413428Y-40726571D01*
X173342000Y-40762285D01*
X173234857Y-40762285D01*
X173806285Y-40762285D02*
X173806285Y-40012285D01*
X173806285Y-40369428D02*
X174234857Y-40369428D01*
X174234857Y-40762285D02*
X174234857Y-40012285D01*
X174592000Y-40762285D02*
X174592000Y-40012285D01*
X174770571Y-40012285D01*
X174877714Y-40048000D01*
X174949142Y-40119428D01*
X174984857Y-40190857D01*
X175020571Y-40333714D01*
X175020571Y-40440857D01*
X174984857Y-40583714D01*
X174949142Y-40655142D01*
X174877714Y-40726571D01*
X174770571Y-40762285D01*
X174592000Y-40762285D01*
X175342000Y-40762285D02*
X175342000Y-40012285D01*
X175592000Y-40548000D01*
X175842000Y-40012285D01*
X175842000Y-40762285D01*
X176199142Y-40762285D02*
X176199142Y-40012285D01*
D12*
X173990000Y-32004000D02*
G75*
G03*
X173990000Y-32004000I-127000J0D01*
G01*
X176594000Y-31242000D02*
X176594000Y-29843000D01*
X176594000Y-26381000D02*
X176594000Y-24257000D01*
X176594000Y-31242000D02*
X174385000Y-31242000D01*
X176594000Y-24257000D02*
X154114000Y-24257000D01*
X154114000Y-24257000D02*
X154114000Y-26381000D01*
X154114000Y-31242000D02*
X156323000Y-31242000D01*
X154114000Y-29843000D02*
X154114000Y-31242000D01*
D10*
X155829000Y-47625000D02*
X156464000Y-47625000D01*
G36*
X155829000Y-49530000D02*
G01*
X155194000Y-49530000D01*
X155194000Y-48895000D01*
X155829000Y-48895000D01*
X155829000Y-49530000D01*
G37*
X155829000Y-49530000D02*
X155194000Y-49530000D01*
X155194000Y-48895000D01*
X155829000Y-48895000D01*
X155829000Y-49530000D01*
G36*
X156464000Y-47625000D02*
G01*
X155829000Y-47625000D01*
X155829000Y-46990000D01*
X156464000Y-46990000D01*
X156464000Y-47625000D01*
G37*
X156464000Y-47625000D02*
X155829000Y-47625000D01*
X155829000Y-46990000D01*
X156464000Y-46990000D01*
X156464000Y-47625000D01*
G36*
X155194000Y-47625000D02*
G01*
X154559000Y-47625000D01*
X154559000Y-46990000D01*
X155194000Y-46990000D01*
X155194000Y-47625000D01*
G37*
X155194000Y-47625000D02*
X154559000Y-47625000D01*
X154559000Y-46990000D01*
X155194000Y-46990000D01*
X155194000Y-47625000D01*
X155829000Y-48895000D02*
X155829000Y-49530000D01*
X155194000Y-48895000D02*
X155194000Y-49530000D01*
X157099000Y-50165000D02*
X157734000Y-50165000D01*
X157099000Y-46990000D02*
X157734000Y-46990000D01*
X157099000Y-46355000D02*
X157734000Y-46355000D01*
X157734000Y-46355000D02*
X157734000Y-50800000D01*
X157099000Y-46355000D02*
X157099000Y-50800000D01*
X157099000Y-50800000D02*
X157734000Y-50800000D01*
X155829000Y-50800000D02*
X156464000Y-50800000D01*
X153289000Y-50800000D02*
X153924000Y-50800000D01*
X155829000Y-50165000D02*
X155829000Y-50800000D01*
X153924000Y-50165000D02*
X153924000Y-50800000D01*
X153289000Y-50165000D02*
X156464000Y-50165000D01*
X152654000Y-49530000D02*
X156464000Y-49530000D01*
X152654000Y-48895000D02*
X157734000Y-48895000D01*
X152654000Y-49530000D02*
X152654000Y-48260000D01*
X152654000Y-48260000D02*
X157734000Y-48260000D01*
X155829000Y-46990000D02*
X155829000Y-47625000D01*
X155194000Y-46990000D02*
X155194000Y-47625000D01*
X154559000Y-46990000D02*
X154559000Y-48260000D01*
X153924000Y-47625000D02*
X155194000Y-47625000D01*
X153924000Y-46990000D02*
X153924000Y-47625000D01*
X156464000Y-45720000D02*
X156464000Y-50800000D01*
X155829000Y-45720000D02*
X155829000Y-46355000D01*
X155194000Y-46355000D02*
X155829000Y-46355000D01*
X155194000Y-45720000D02*
X155194000Y-46355000D01*
X154559000Y-45720000D02*
X154559000Y-46355000D01*
X153289000Y-45720000D02*
X156464000Y-45720000D01*
X152654000Y-46990000D02*
X152654000Y-46355000D01*
X156464000Y-46990000D02*
X152654000Y-46990000D01*
X153289000Y-45720000D02*
X153289000Y-50800000D01*
X152654000Y-46355000D02*
X154559000Y-46355000D01*
D11*
X153053071Y-32204428D02*
X152803071Y-32204428D01*
X152803071Y-32597285D02*
X152803071Y-31847285D01*
X153160214Y-31847285D01*
X153695928Y-32204428D02*
X153445928Y-32204428D01*
X153445928Y-32597285D02*
X153445928Y-31847285D01*
X153803071Y-31847285D01*
X154517357Y-32525857D02*
X154481642Y-32561571D01*
X154374500Y-32597285D01*
X154303071Y-32597285D01*
X154195928Y-32561571D01*
X154124500Y-32490142D01*
X154088785Y-32418714D01*
X154053071Y-32275857D01*
X154053071Y-32168714D01*
X154088785Y-32025857D01*
X154124500Y-31954428D01*
X154195928Y-31883000D01*
X154303071Y-31847285D01*
X154374500Y-31847285D01*
X154481642Y-31883000D01*
X154517357Y-31918714D01*
X155231642Y-32597285D02*
X154803071Y-32597285D01*
X155017357Y-32597285D02*
X155017357Y-31847285D01*
X154945928Y-31954428D01*
X154874500Y-32025857D01*
X154803071Y-32061571D01*
X155660214Y-32168714D02*
X155588785Y-32133000D01*
X155553071Y-32097285D01*
X155517357Y-32025857D01*
X155517357Y-31990142D01*
X155553071Y-31918714D01*
X155588785Y-31883000D01*
X155660214Y-31847285D01*
X155803071Y-31847285D01*
X155874500Y-31883000D01*
X155910214Y-31918714D01*
X155945928Y-31990142D01*
X155945928Y-32025857D01*
X155910214Y-32097285D01*
X155874500Y-32133000D01*
X155803071Y-32168714D01*
X155660214Y-32168714D01*
X155588785Y-32204428D01*
X155553071Y-32240142D01*
X155517357Y-32311571D01*
X155517357Y-32454428D01*
X155553071Y-32525857D01*
X155588785Y-32561571D01*
X155660214Y-32597285D01*
X155803071Y-32597285D01*
X155874500Y-32561571D01*
X155910214Y-32525857D01*
X155945928Y-32454428D01*
X155945928Y-32311571D01*
X155910214Y-32240142D01*
X155874500Y-32204428D01*
X155803071Y-32168714D01*
X152747571Y-51865571D02*
X152819000Y-51901285D01*
X152961857Y-51901285D01*
X153033285Y-51865571D01*
X153069000Y-51794142D01*
X153069000Y-51758428D01*
X153033285Y-51687000D01*
X152961857Y-51651285D01*
X152854714Y-51651285D01*
X152783285Y-51615571D01*
X152747571Y-51544142D01*
X152747571Y-51508428D01*
X152783285Y-51437000D01*
X152854714Y-51401285D01*
X152961857Y-51401285D01*
X153033285Y-51437000D01*
X153497571Y-51901285D02*
X153426142Y-51865571D01*
X153390428Y-51829857D01*
X153354714Y-51758428D01*
X153354714Y-51544142D01*
X153390428Y-51472714D01*
X153426142Y-51437000D01*
X153497571Y-51401285D01*
X153604714Y-51401285D01*
X153676142Y-51437000D01*
X153711857Y-51472714D01*
X153747571Y-51544142D01*
X153747571Y-51758428D01*
X153711857Y-51829857D01*
X153676142Y-51865571D01*
X153604714Y-51901285D01*
X153497571Y-51901285D01*
X154176142Y-51901285D02*
X154104714Y-51865571D01*
X154069000Y-51794142D01*
X154069000Y-51151285D01*
X154783285Y-51901285D02*
X154783285Y-51508428D01*
X154747571Y-51437000D01*
X154676142Y-51401285D01*
X154533285Y-51401285D01*
X154461857Y-51437000D01*
X154783285Y-51865571D02*
X154711857Y-51901285D01*
X154533285Y-51901285D01*
X154461857Y-51865571D01*
X154426142Y-51794142D01*
X154426142Y-51722714D01*
X154461857Y-51651285D01*
X154533285Y-51615571D01*
X154711857Y-51615571D01*
X154783285Y-51579857D01*
X155140428Y-51901285D02*
X155140428Y-51401285D01*
X155140428Y-51544142D02*
X155176142Y-51472714D01*
X155211857Y-51437000D01*
X155283285Y-51401285D01*
X155354714Y-51401285D01*
X155604714Y-51901285D02*
X155604714Y-51401285D01*
X155604714Y-51472714D02*
X155640428Y-51437000D01*
X155711857Y-51401285D01*
X155819000Y-51401285D01*
X155890428Y-51437000D01*
X155926142Y-51508428D01*
X155926142Y-51901285D01*
X155926142Y-51508428D02*
X155961857Y-51437000D01*
X156033285Y-51401285D01*
X156140428Y-51401285D01*
X156211857Y-51437000D01*
X156247571Y-51508428D01*
X156247571Y-51901285D01*
X156711857Y-51901285D02*
X156640428Y-51865571D01*
X156604714Y-51829857D01*
X156569000Y-51758428D01*
X156569000Y-51544142D01*
X156604714Y-51472714D01*
X156640428Y-51437000D01*
X156711857Y-51401285D01*
X156819000Y-51401285D01*
X156890428Y-51437000D01*
X156926142Y-51472714D01*
X156961857Y-51544142D01*
X156961857Y-51758428D01*
X156926142Y-51829857D01*
X156890428Y-51865571D01*
X156819000Y-51901285D01*
X156711857Y-51901285D01*
X157283285Y-51401285D02*
X157283285Y-51901285D01*
X157283285Y-51472714D02*
X157319000Y-51437000D01*
X157390428Y-51401285D01*
X157497571Y-51401285D01*
X157569000Y-51437000D01*
X157604714Y-51508428D01*
X157604714Y-51901285D01*
M02*
