G04 #@! TF.GenerationSoftware,KiCad,Pcbnew,(5.1.9)-1*
G04 #@! TF.CreationDate,2021-05-18T14:16:41+01:00*
G04 #@! TF.ProjectId,RGBtoHDMI Amiga Denise PLCC SMT Breakout FFC,52474274-6f48-4444-9d49-20416d696761,1*
G04 #@! TF.SameCoordinates,Original*
G04 #@! TF.FileFunction,Copper,L1,Top*
G04 #@! TF.FilePolarity,Positive*
%FSLAX46Y46*%
G04 Gerber Fmt 4.6, Leading zero omitted, Abs format (unit mm)*
G04 Created by KiCad (PCBNEW (5.1.9)-1) date 2021-05-18 14:16:41*
%MOMM*%
%LPD*%
G01*
G04 APERTURE LIST*
G04 #@! TA.AperFunction,EtchedComponent*
%ADD10C,0.100000*%
G04 #@! TD*
G04 #@! TA.AperFunction,SMDPad,CuDef*
%ADD11R,2.500000X3.000000*%
G04 #@! TD*
G04 #@! TA.AperFunction,SMDPad,CuDef*
%ADD12R,0.600000X2.000000*%
G04 #@! TD*
G04 #@! TA.AperFunction,ViaPad*
%ADD13C,0.600000*%
G04 #@! TD*
G04 #@! TA.AperFunction,Conductor*
%ADD14C,0.250000*%
G04 #@! TD*
G04 #@! TA.AperFunction,Conductor*
%ADD15C,0.400000*%
G04 #@! TD*
G04 #@! TA.AperFunction,Conductor*
%ADD16C,0.254000*%
G04 #@! TD*
G04 #@! TA.AperFunction,Conductor*
%ADD17C,0.100000*%
G04 #@! TD*
G04 APERTURE END LIST*
D10*
G36*
X153924000Y-50800000D02*
G01*
X153289000Y-50800000D01*
X153289000Y-50165000D01*
X153924000Y-50165000D01*
X153924000Y-50800000D01*
G37*
X153924000Y-50800000D02*
X153289000Y-50800000D01*
X153289000Y-50165000D01*
X153924000Y-50165000D01*
X153924000Y-50800000D01*
G36*
X156464000Y-50800000D02*
G01*
X155829000Y-50800000D01*
X155829000Y-50165000D01*
X156464000Y-50165000D01*
X156464000Y-50800000D01*
G37*
X156464000Y-50800000D02*
X155829000Y-50800000D01*
X155829000Y-50165000D01*
X156464000Y-50165000D01*
X156464000Y-50800000D01*
G36*
X156464000Y-49530000D02*
G01*
X155829000Y-49530000D01*
X155829000Y-48895000D01*
X156464000Y-48895000D01*
X156464000Y-49530000D01*
G37*
X156464000Y-49530000D02*
X155829000Y-49530000D01*
X155829000Y-48895000D01*
X156464000Y-48895000D01*
X156464000Y-49530000D01*
G36*
X155194000Y-49530000D02*
G01*
X154559000Y-49530000D01*
X154559000Y-48895000D01*
X155194000Y-48895000D01*
X155194000Y-49530000D01*
G37*
X155194000Y-49530000D02*
X154559000Y-49530000D01*
X154559000Y-48895000D01*
X155194000Y-48895000D01*
X155194000Y-49530000D01*
G36*
X154559000Y-49530000D02*
G01*
X153924000Y-49530000D01*
X153924000Y-48895000D01*
X154559000Y-48895000D01*
X154559000Y-49530000D01*
G37*
X154559000Y-49530000D02*
X153924000Y-49530000D01*
X153924000Y-48895000D01*
X154559000Y-48895000D01*
X154559000Y-49530000D01*
G36*
X153924000Y-49530000D02*
G01*
X153289000Y-49530000D01*
X153289000Y-48895000D01*
X153924000Y-48895000D01*
X153924000Y-49530000D01*
G37*
X153924000Y-49530000D02*
X153289000Y-49530000D01*
X153289000Y-48895000D01*
X153924000Y-48895000D01*
X153924000Y-49530000D01*
G36*
X153924000Y-46990000D02*
G01*
X153289000Y-46990000D01*
X153289000Y-46355000D01*
X153924000Y-46355000D01*
X153924000Y-46990000D01*
G37*
X153924000Y-46990000D02*
X153289000Y-46990000D01*
X153289000Y-46355000D01*
X153924000Y-46355000D01*
X153924000Y-46990000D01*
G36*
X154559000Y-46990000D02*
G01*
X153924000Y-46990000D01*
X153924000Y-46355000D01*
X154559000Y-46355000D01*
X154559000Y-46990000D01*
G37*
X154559000Y-46990000D02*
X153924000Y-46990000D01*
X153924000Y-46355000D01*
X154559000Y-46355000D01*
X154559000Y-46990000D01*
G36*
X155194000Y-46355000D02*
G01*
X154559000Y-46355000D01*
X154559000Y-45720000D01*
X155194000Y-45720000D01*
X155194000Y-46355000D01*
G37*
X155194000Y-46355000D02*
X154559000Y-46355000D01*
X154559000Y-45720000D01*
X155194000Y-45720000D01*
X155194000Y-46355000D01*
G36*
X155194000Y-46990000D02*
G01*
X154559000Y-46990000D01*
X154559000Y-46355000D01*
X155194000Y-46355000D01*
X155194000Y-46990000D01*
G37*
X155194000Y-46990000D02*
X154559000Y-46990000D01*
X154559000Y-46355000D01*
X155194000Y-46355000D01*
X155194000Y-46990000D01*
G36*
X155829000Y-46990000D02*
G01*
X155194000Y-46990000D01*
X155194000Y-46355000D01*
X155829000Y-46355000D01*
X155829000Y-46990000D01*
G37*
X155829000Y-46990000D02*
X155194000Y-46990000D01*
X155194000Y-46355000D01*
X155829000Y-46355000D01*
X155829000Y-46990000D01*
G36*
X156464000Y-46990000D02*
G01*
X155829000Y-46990000D01*
X155829000Y-46355000D01*
X156464000Y-46355000D01*
X156464000Y-46990000D01*
G37*
X156464000Y-46990000D02*
X155829000Y-46990000D01*
X155829000Y-46355000D01*
X156464000Y-46355000D01*
X156464000Y-46990000D01*
G36*
X156464000Y-46355000D02*
G01*
X155829000Y-46355000D01*
X155829000Y-45720000D01*
X156464000Y-45720000D01*
X156464000Y-46355000D01*
G37*
X156464000Y-46355000D02*
X155829000Y-46355000D01*
X155829000Y-45720000D01*
X156464000Y-45720000D01*
X156464000Y-46355000D01*
G36*
X157734000Y-50800000D02*
G01*
X157099000Y-50800000D01*
X157099000Y-50165000D01*
X157734000Y-50165000D01*
X157734000Y-50800000D01*
G37*
X157734000Y-50800000D02*
X157099000Y-50800000D01*
X157099000Y-50165000D01*
X157734000Y-50165000D01*
X157734000Y-50800000D01*
G36*
X157734000Y-46990000D02*
G01*
X157099000Y-46990000D01*
X157099000Y-46355000D01*
X157734000Y-46355000D01*
X157734000Y-46990000D01*
G37*
X157734000Y-46990000D02*
X157099000Y-46990000D01*
X157099000Y-46355000D01*
X157734000Y-46355000D01*
X157734000Y-46990000D01*
D11*
X176604000Y-28112000D03*
X154104000Y-28112000D03*
D12*
X156854000Y-30562000D03*
X157854000Y-30562000D03*
X158854000Y-30562000D03*
X159854000Y-30562000D03*
X160854000Y-30562000D03*
X161854000Y-30562000D03*
X162854000Y-30562000D03*
X163854000Y-30562000D03*
X164854000Y-30562000D03*
X165854000Y-30562000D03*
X166854000Y-30562000D03*
X167854000Y-30562000D03*
X168854000Y-30562000D03*
X169854000Y-30562000D03*
X170854000Y-30562000D03*
X171854000Y-30562000D03*
X172854000Y-30562000D03*
X173854000Y-30562000D03*
D13*
X157861000Y-32512000D03*
X156845000Y-32512000D03*
X156210000Y-69723000D03*
X166624000Y-60579000D03*
X167894000Y-60579000D03*
X169164000Y-60579000D03*
X170434000Y-60579000D03*
X171704000Y-60579000D03*
X172974000Y-61087000D03*
X172974000Y-59944000D03*
X172863000Y-32639000D03*
X173863000Y-32639000D03*
X156210000Y-63373000D03*
X157734000Y-60579000D03*
X159004000Y-60579000D03*
X160274000Y-60579000D03*
X161544000Y-60579000D03*
X162814000Y-60579000D03*
X164084000Y-60579000D03*
X165354000Y-60579000D03*
X164084000Y-78867000D03*
X161544000Y-78867000D03*
X159004000Y-78867000D03*
X156210000Y-77343000D03*
X162814000Y-78867000D03*
X160274000Y-78867000D03*
X156210000Y-76073000D03*
X156210000Y-73533000D03*
X156210000Y-70993000D03*
X156210000Y-68453000D03*
X156210000Y-74803000D03*
X156210000Y-72263000D03*
X156210000Y-64643000D03*
X174498000Y-64643000D03*
X174498000Y-67183000D03*
X174498000Y-69723000D03*
X174498000Y-72263000D03*
X174498000Y-74803000D03*
X174498000Y-63373000D03*
X174498000Y-65913000D03*
X174498000Y-68453000D03*
X174498000Y-70993000D03*
X174498000Y-73533000D03*
X174498000Y-76073000D03*
X170434000Y-78867000D03*
X167894000Y-78867000D03*
X165354000Y-78867000D03*
X174498000Y-77343000D03*
X171704000Y-78867000D03*
X169164000Y-78867000D03*
X166624000Y-78867000D03*
X156210000Y-67183000D03*
X157734000Y-78867000D03*
X156210000Y-62103000D03*
X174498000Y-62103000D03*
X172974000Y-78867000D03*
X156210000Y-65913000D03*
D14*
X167854000Y-58206353D02*
X167854000Y-30628000D01*
X166624000Y-59436353D02*
X167854000Y-58206353D01*
X166624000Y-60579000D02*
X166624000Y-59436353D01*
X168854000Y-55508000D02*
X168854000Y-30628000D01*
X168854000Y-58476000D02*
X168854000Y-55508000D01*
X167894000Y-59436000D02*
X168854000Y-58476000D01*
X167894000Y-60579000D02*
X167894000Y-59436000D01*
X169854000Y-58619000D02*
X169854000Y-30628000D01*
X169164000Y-59309000D02*
X169854000Y-58619000D01*
X169164000Y-60579000D02*
X169164000Y-59309000D01*
X170854000Y-58889000D02*
X170854000Y-30628000D01*
X170561000Y-59182000D02*
X170854000Y-58889000D01*
X170561000Y-60452000D02*
X170561000Y-59182000D01*
X170434000Y-60579000D02*
X170561000Y-60452000D01*
X171854000Y-58905000D02*
X171854000Y-30988000D01*
X171704000Y-59055000D02*
X171854000Y-58905000D01*
X171704000Y-60579000D02*
X171704000Y-59055000D01*
D15*
X172863000Y-32639000D02*
X173863000Y-32639000D01*
X172854000Y-30628000D02*
X172863000Y-32639000D01*
X173854000Y-30628000D02*
X172854000Y-30628000D01*
X173863000Y-32639000D02*
X173854000Y-30628000D01*
D14*
X158854000Y-56030000D02*
X158854000Y-30628000D01*
X154940000Y-59944000D02*
X158854000Y-56030000D01*
X154940000Y-62738000D02*
X154940000Y-59944000D01*
X155575000Y-63373000D02*
X154940000Y-62738000D01*
X156210000Y-63373000D02*
X155575000Y-63373000D01*
X160854000Y-56443000D02*
X160854000Y-30628000D01*
X157734000Y-59563000D02*
X160854000Y-56443000D01*
X157734000Y-60579000D02*
X157734000Y-59563000D01*
X161854000Y-56713000D02*
X161854000Y-30628000D01*
X159004000Y-59563000D02*
X161854000Y-56713000D01*
X159004000Y-60579000D02*
X159004000Y-59563000D01*
X162854000Y-56983000D02*
X162854000Y-30628000D01*
X160274000Y-59563000D02*
X162854000Y-56983000D01*
X160274000Y-60579000D02*
X160274000Y-59563000D01*
X163854000Y-57126000D02*
X163854000Y-30628000D01*
X161544000Y-59436000D02*
X163854000Y-57126000D01*
X161544000Y-60579000D02*
X161544000Y-59436000D01*
X162814000Y-59563000D02*
X164854000Y-57523000D01*
X164854000Y-57523000D02*
X164854000Y-30628000D01*
X162814000Y-60579000D02*
X162814000Y-59563000D01*
X165854000Y-57666000D02*
X165854000Y-30628000D01*
X164084000Y-59436000D02*
X165854000Y-57666000D01*
X164084000Y-60579000D02*
X164084000Y-59436000D01*
X166854000Y-57936000D02*
X166854000Y-30628000D01*
X165354000Y-59436000D02*
X166854000Y-57936000D01*
X165354000Y-60579000D02*
X165354000Y-59436000D01*
D16*
X177650687Y-24610904D02*
X177873545Y-24678189D01*
X178079091Y-24787480D01*
X178259500Y-24934618D01*
X178407885Y-25113986D01*
X178518609Y-25318763D01*
X178587451Y-25541152D01*
X178614001Y-25793762D01*
X178614000Y-81726119D01*
X177484119Y-82856000D01*
X152094000Y-82856000D01*
X152094000Y-78799927D01*
X157053000Y-78799927D01*
X157053000Y-78934073D01*
X157079171Y-79065640D01*
X157130506Y-79189574D01*
X157205033Y-79301112D01*
X157299888Y-79395967D01*
X157411426Y-79470494D01*
X157535360Y-79521829D01*
X157666927Y-79548000D01*
X157801073Y-79548000D01*
X157932640Y-79521829D01*
X158056574Y-79470494D01*
X158168112Y-79395967D01*
X158262967Y-79301112D01*
X158337494Y-79189574D01*
X158369000Y-79113512D01*
X158400506Y-79189574D01*
X158475033Y-79301112D01*
X158569888Y-79395967D01*
X158681426Y-79470494D01*
X158805360Y-79521829D01*
X158936927Y-79548000D01*
X159071073Y-79548000D01*
X159202640Y-79521829D01*
X159326574Y-79470494D01*
X159438112Y-79395967D01*
X159532967Y-79301112D01*
X159607494Y-79189574D01*
X159639000Y-79113512D01*
X159670506Y-79189574D01*
X159745033Y-79301112D01*
X159839888Y-79395967D01*
X159951426Y-79470494D01*
X160075360Y-79521829D01*
X160206927Y-79548000D01*
X160341073Y-79548000D01*
X160472640Y-79521829D01*
X160596574Y-79470494D01*
X160708112Y-79395967D01*
X160802967Y-79301112D01*
X160877494Y-79189574D01*
X160909000Y-79113512D01*
X160940506Y-79189574D01*
X161015033Y-79301112D01*
X161109888Y-79395967D01*
X161221426Y-79470494D01*
X161345360Y-79521829D01*
X161476927Y-79548000D01*
X161611073Y-79548000D01*
X161742640Y-79521829D01*
X161866574Y-79470494D01*
X161978112Y-79395967D01*
X162072967Y-79301112D01*
X162147494Y-79189574D01*
X162179000Y-79113512D01*
X162210506Y-79189574D01*
X162285033Y-79301112D01*
X162379888Y-79395967D01*
X162491426Y-79470494D01*
X162615360Y-79521829D01*
X162746927Y-79548000D01*
X162881073Y-79548000D01*
X163012640Y-79521829D01*
X163136574Y-79470494D01*
X163248112Y-79395967D01*
X163342967Y-79301112D01*
X163417494Y-79189574D01*
X163449000Y-79113512D01*
X163480506Y-79189574D01*
X163555033Y-79301112D01*
X163649888Y-79395967D01*
X163761426Y-79470494D01*
X163885360Y-79521829D01*
X164016927Y-79548000D01*
X164151073Y-79548000D01*
X164282640Y-79521829D01*
X164406574Y-79470494D01*
X164518112Y-79395967D01*
X164612967Y-79301112D01*
X164687494Y-79189574D01*
X164719000Y-79113512D01*
X164750506Y-79189574D01*
X164825033Y-79301112D01*
X164919888Y-79395967D01*
X165031426Y-79470494D01*
X165155360Y-79521829D01*
X165286927Y-79548000D01*
X165421073Y-79548000D01*
X165552640Y-79521829D01*
X165676574Y-79470494D01*
X165788112Y-79395967D01*
X165882967Y-79301112D01*
X165957494Y-79189574D01*
X165989000Y-79113512D01*
X166020506Y-79189574D01*
X166095033Y-79301112D01*
X166189888Y-79395967D01*
X166301426Y-79470494D01*
X166425360Y-79521829D01*
X166556927Y-79548000D01*
X166691073Y-79548000D01*
X166822640Y-79521829D01*
X166946574Y-79470494D01*
X167058112Y-79395967D01*
X167152967Y-79301112D01*
X167227494Y-79189574D01*
X167259000Y-79113512D01*
X167290506Y-79189574D01*
X167365033Y-79301112D01*
X167459888Y-79395967D01*
X167571426Y-79470494D01*
X167695360Y-79521829D01*
X167826927Y-79548000D01*
X167961073Y-79548000D01*
X168092640Y-79521829D01*
X168216574Y-79470494D01*
X168328112Y-79395967D01*
X168422967Y-79301112D01*
X168497494Y-79189574D01*
X168529000Y-79113512D01*
X168560506Y-79189574D01*
X168635033Y-79301112D01*
X168729888Y-79395967D01*
X168841426Y-79470494D01*
X168965360Y-79521829D01*
X169096927Y-79548000D01*
X169231073Y-79548000D01*
X169362640Y-79521829D01*
X169486574Y-79470494D01*
X169598112Y-79395967D01*
X169692967Y-79301112D01*
X169767494Y-79189574D01*
X169799000Y-79113512D01*
X169830506Y-79189574D01*
X169905033Y-79301112D01*
X169999888Y-79395967D01*
X170111426Y-79470494D01*
X170235360Y-79521829D01*
X170366927Y-79548000D01*
X170501073Y-79548000D01*
X170632640Y-79521829D01*
X170756574Y-79470494D01*
X170868112Y-79395967D01*
X170962967Y-79301112D01*
X171037494Y-79189574D01*
X171069000Y-79113512D01*
X171100506Y-79189574D01*
X171175033Y-79301112D01*
X171269888Y-79395967D01*
X171381426Y-79470494D01*
X171505360Y-79521829D01*
X171636927Y-79548000D01*
X171771073Y-79548000D01*
X171902640Y-79521829D01*
X172026574Y-79470494D01*
X172138112Y-79395967D01*
X172232967Y-79301112D01*
X172307494Y-79189574D01*
X172339000Y-79113512D01*
X172370506Y-79189574D01*
X172445033Y-79301112D01*
X172539888Y-79395967D01*
X172651426Y-79470494D01*
X172775360Y-79521829D01*
X172906927Y-79548000D01*
X173041073Y-79548000D01*
X173172640Y-79521829D01*
X173296574Y-79470494D01*
X173408112Y-79395967D01*
X173502967Y-79301112D01*
X173577494Y-79189574D01*
X173628829Y-79065640D01*
X173655000Y-78934073D01*
X173655000Y-78799927D01*
X173628829Y-78668360D01*
X173577494Y-78544426D01*
X173502967Y-78432888D01*
X173408112Y-78338033D01*
X173296574Y-78263506D01*
X173172640Y-78212171D01*
X173041073Y-78186000D01*
X172906927Y-78186000D01*
X172775360Y-78212171D01*
X172651426Y-78263506D01*
X172539888Y-78338033D01*
X172445033Y-78432888D01*
X172370506Y-78544426D01*
X172339000Y-78620488D01*
X172307494Y-78544426D01*
X172232967Y-78432888D01*
X172138112Y-78338033D01*
X172026574Y-78263506D01*
X171902640Y-78212171D01*
X171771073Y-78186000D01*
X171636927Y-78186000D01*
X171505360Y-78212171D01*
X171381426Y-78263506D01*
X171269888Y-78338033D01*
X171175033Y-78432888D01*
X171100506Y-78544426D01*
X171069000Y-78620488D01*
X171037494Y-78544426D01*
X170962967Y-78432888D01*
X170868112Y-78338033D01*
X170756574Y-78263506D01*
X170632640Y-78212171D01*
X170501073Y-78186000D01*
X170366927Y-78186000D01*
X170235360Y-78212171D01*
X170111426Y-78263506D01*
X169999888Y-78338033D01*
X169905033Y-78432888D01*
X169830506Y-78544426D01*
X169799000Y-78620488D01*
X169767494Y-78544426D01*
X169692967Y-78432888D01*
X169598112Y-78338033D01*
X169486574Y-78263506D01*
X169362640Y-78212171D01*
X169231073Y-78186000D01*
X169096927Y-78186000D01*
X168965360Y-78212171D01*
X168841426Y-78263506D01*
X168729888Y-78338033D01*
X168635033Y-78432888D01*
X168560506Y-78544426D01*
X168529000Y-78620488D01*
X168497494Y-78544426D01*
X168422967Y-78432888D01*
X168328112Y-78338033D01*
X168216574Y-78263506D01*
X168092640Y-78212171D01*
X167961073Y-78186000D01*
X167826927Y-78186000D01*
X167695360Y-78212171D01*
X167571426Y-78263506D01*
X167459888Y-78338033D01*
X167365033Y-78432888D01*
X167290506Y-78544426D01*
X167259000Y-78620488D01*
X167227494Y-78544426D01*
X167152967Y-78432888D01*
X167058112Y-78338033D01*
X166946574Y-78263506D01*
X166822640Y-78212171D01*
X166691073Y-78186000D01*
X166556927Y-78186000D01*
X166425360Y-78212171D01*
X166301426Y-78263506D01*
X166189888Y-78338033D01*
X166095033Y-78432888D01*
X166020506Y-78544426D01*
X165989000Y-78620488D01*
X165957494Y-78544426D01*
X165882967Y-78432888D01*
X165788112Y-78338033D01*
X165676574Y-78263506D01*
X165552640Y-78212171D01*
X165421073Y-78186000D01*
X165286927Y-78186000D01*
X165155360Y-78212171D01*
X165031426Y-78263506D01*
X164919888Y-78338033D01*
X164825033Y-78432888D01*
X164750506Y-78544426D01*
X164719000Y-78620488D01*
X164687494Y-78544426D01*
X164612967Y-78432888D01*
X164518112Y-78338033D01*
X164406574Y-78263506D01*
X164282640Y-78212171D01*
X164151073Y-78186000D01*
X164016927Y-78186000D01*
X163885360Y-78212171D01*
X163761426Y-78263506D01*
X163649888Y-78338033D01*
X163555033Y-78432888D01*
X163480506Y-78544426D01*
X163449000Y-78620488D01*
X163417494Y-78544426D01*
X163342967Y-78432888D01*
X163248112Y-78338033D01*
X163136574Y-78263506D01*
X163012640Y-78212171D01*
X162881073Y-78186000D01*
X162746927Y-78186000D01*
X162615360Y-78212171D01*
X162491426Y-78263506D01*
X162379888Y-78338033D01*
X162285033Y-78432888D01*
X162210506Y-78544426D01*
X162179000Y-78620488D01*
X162147494Y-78544426D01*
X162072967Y-78432888D01*
X161978112Y-78338033D01*
X161866574Y-78263506D01*
X161742640Y-78212171D01*
X161611073Y-78186000D01*
X161476927Y-78186000D01*
X161345360Y-78212171D01*
X161221426Y-78263506D01*
X161109888Y-78338033D01*
X161015033Y-78432888D01*
X160940506Y-78544426D01*
X160909000Y-78620488D01*
X160877494Y-78544426D01*
X160802967Y-78432888D01*
X160708112Y-78338033D01*
X160596574Y-78263506D01*
X160472640Y-78212171D01*
X160341073Y-78186000D01*
X160206927Y-78186000D01*
X160075360Y-78212171D01*
X159951426Y-78263506D01*
X159839888Y-78338033D01*
X159745033Y-78432888D01*
X159670506Y-78544426D01*
X159639000Y-78620488D01*
X159607494Y-78544426D01*
X159532967Y-78432888D01*
X159438112Y-78338033D01*
X159326574Y-78263506D01*
X159202640Y-78212171D01*
X159071073Y-78186000D01*
X158936927Y-78186000D01*
X158805360Y-78212171D01*
X158681426Y-78263506D01*
X158569888Y-78338033D01*
X158475033Y-78432888D01*
X158400506Y-78544426D01*
X158369000Y-78620488D01*
X158337494Y-78544426D01*
X158262967Y-78432888D01*
X158168112Y-78338033D01*
X158056574Y-78263506D01*
X157932640Y-78212171D01*
X157801073Y-78186000D01*
X157666927Y-78186000D01*
X157535360Y-78212171D01*
X157411426Y-78263506D01*
X157299888Y-78338033D01*
X157205033Y-78432888D01*
X157130506Y-78544426D01*
X157079171Y-78668360D01*
X157053000Y-78799927D01*
X152094000Y-78799927D01*
X152094000Y-70925927D01*
X155529000Y-70925927D01*
X155529000Y-71060073D01*
X155555171Y-71191640D01*
X155606506Y-71315574D01*
X155681033Y-71427112D01*
X155775888Y-71521967D01*
X155887426Y-71596494D01*
X155963488Y-71628000D01*
X155887426Y-71659506D01*
X155775888Y-71734033D01*
X155681033Y-71828888D01*
X155606506Y-71940426D01*
X155555171Y-72064360D01*
X155529000Y-72195927D01*
X155529000Y-72330073D01*
X155555171Y-72461640D01*
X155606506Y-72585574D01*
X155681033Y-72697112D01*
X155775888Y-72791967D01*
X155887426Y-72866494D01*
X155963488Y-72898000D01*
X155887426Y-72929506D01*
X155775888Y-73004033D01*
X155681033Y-73098888D01*
X155606506Y-73210426D01*
X155555171Y-73334360D01*
X155529000Y-73465927D01*
X155529000Y-73600073D01*
X155555171Y-73731640D01*
X155606506Y-73855574D01*
X155681033Y-73967112D01*
X155775888Y-74061967D01*
X155887426Y-74136494D01*
X155963488Y-74168000D01*
X155887426Y-74199506D01*
X155775888Y-74274033D01*
X155681033Y-74368888D01*
X155606506Y-74480426D01*
X155555171Y-74604360D01*
X155529000Y-74735927D01*
X155529000Y-74870073D01*
X155555171Y-75001640D01*
X155606506Y-75125574D01*
X155681033Y-75237112D01*
X155775888Y-75331967D01*
X155887426Y-75406494D01*
X155963488Y-75438000D01*
X155887426Y-75469506D01*
X155775888Y-75544033D01*
X155681033Y-75638888D01*
X155606506Y-75750426D01*
X155555171Y-75874360D01*
X155529000Y-76005927D01*
X155529000Y-76140073D01*
X155555171Y-76271640D01*
X155606506Y-76395574D01*
X155681033Y-76507112D01*
X155775888Y-76601967D01*
X155887426Y-76676494D01*
X155963488Y-76708000D01*
X155887426Y-76739506D01*
X155775888Y-76814033D01*
X155681033Y-76908888D01*
X155606506Y-77020426D01*
X155555171Y-77144360D01*
X155529000Y-77275927D01*
X155529000Y-77410073D01*
X155555171Y-77541640D01*
X155606506Y-77665574D01*
X155681033Y-77777112D01*
X155775888Y-77871967D01*
X155887426Y-77946494D01*
X156011360Y-77997829D01*
X156142927Y-78024000D01*
X156277073Y-78024000D01*
X156408640Y-77997829D01*
X156532574Y-77946494D01*
X156644112Y-77871967D01*
X156738967Y-77777112D01*
X156813494Y-77665574D01*
X156864829Y-77541640D01*
X156891000Y-77410073D01*
X156891000Y-77275927D01*
X156864829Y-77144360D01*
X156813494Y-77020426D01*
X156738967Y-76908888D01*
X156644112Y-76814033D01*
X156532574Y-76739506D01*
X156456512Y-76708000D01*
X156532574Y-76676494D01*
X156644112Y-76601967D01*
X156738967Y-76507112D01*
X156813494Y-76395574D01*
X156864829Y-76271640D01*
X156891000Y-76140073D01*
X156891000Y-76005927D01*
X156864829Y-75874360D01*
X156813494Y-75750426D01*
X156738967Y-75638888D01*
X156644112Y-75544033D01*
X156532574Y-75469506D01*
X156456512Y-75438000D01*
X156532574Y-75406494D01*
X156644112Y-75331967D01*
X156738967Y-75237112D01*
X156813494Y-75125574D01*
X156864829Y-75001640D01*
X156891000Y-74870073D01*
X156891000Y-74735927D01*
X156864829Y-74604360D01*
X156813494Y-74480426D01*
X156738967Y-74368888D01*
X156644112Y-74274033D01*
X156532574Y-74199506D01*
X156456512Y-74168000D01*
X156532574Y-74136494D01*
X156644112Y-74061967D01*
X156738967Y-73967112D01*
X156813494Y-73855574D01*
X156864829Y-73731640D01*
X156891000Y-73600073D01*
X156891000Y-73465927D01*
X156864829Y-73334360D01*
X156813494Y-73210426D01*
X156738967Y-73098888D01*
X156644112Y-73004033D01*
X156532574Y-72929506D01*
X156456512Y-72898000D01*
X156532574Y-72866494D01*
X156644112Y-72791967D01*
X156738967Y-72697112D01*
X156771302Y-72648718D01*
X159648000Y-72648718D01*
X159648000Y-73147282D01*
X159745265Y-73636265D01*
X159936057Y-74096878D01*
X160213044Y-74511418D01*
X160565582Y-74863956D01*
X160980122Y-75140943D01*
X161440735Y-75331735D01*
X161929718Y-75429000D01*
X162428282Y-75429000D01*
X162917265Y-75331735D01*
X163377878Y-75140943D01*
X163792418Y-74863956D01*
X164144956Y-74511418D01*
X164421943Y-74096878D01*
X164612735Y-73636265D01*
X164710000Y-73147282D01*
X164710000Y-72648718D01*
X165998000Y-72648718D01*
X165998000Y-73147282D01*
X166095265Y-73636265D01*
X166286057Y-74096878D01*
X166563044Y-74511418D01*
X166915582Y-74863956D01*
X167330122Y-75140943D01*
X167790735Y-75331735D01*
X168279718Y-75429000D01*
X168778282Y-75429000D01*
X169267265Y-75331735D01*
X169727878Y-75140943D01*
X170142418Y-74863956D01*
X170494956Y-74511418D01*
X170771943Y-74096878D01*
X170962735Y-73636265D01*
X171060000Y-73147282D01*
X171060000Y-72648718D01*
X170962735Y-72159735D01*
X170771943Y-71699122D01*
X170494956Y-71284582D01*
X170142418Y-70932044D01*
X169727878Y-70655057D01*
X169267265Y-70464265D01*
X168778282Y-70367000D01*
X168279718Y-70367000D01*
X167790735Y-70464265D01*
X167330122Y-70655057D01*
X166915582Y-70932044D01*
X166563044Y-71284582D01*
X166286057Y-71699122D01*
X166095265Y-72159735D01*
X165998000Y-72648718D01*
X164710000Y-72648718D01*
X164612735Y-72159735D01*
X164421943Y-71699122D01*
X164144956Y-71284582D01*
X163792418Y-70932044D01*
X163377878Y-70655057D01*
X162917265Y-70464265D01*
X162428282Y-70367000D01*
X161929718Y-70367000D01*
X161440735Y-70464265D01*
X160980122Y-70655057D01*
X160565582Y-70932044D01*
X160213044Y-71284582D01*
X159936057Y-71699122D01*
X159745265Y-72159735D01*
X159648000Y-72648718D01*
X156771302Y-72648718D01*
X156813494Y-72585574D01*
X156864829Y-72461640D01*
X156891000Y-72330073D01*
X156891000Y-72195927D01*
X156864829Y-72064360D01*
X156813494Y-71940426D01*
X156738967Y-71828888D01*
X156644112Y-71734033D01*
X156532574Y-71659506D01*
X156456512Y-71628000D01*
X156532574Y-71596494D01*
X156644112Y-71521967D01*
X156738967Y-71427112D01*
X156813494Y-71315574D01*
X156864829Y-71191640D01*
X156891000Y-71060073D01*
X156891000Y-70925927D01*
X156864829Y-70794360D01*
X156813494Y-70670426D01*
X156738967Y-70558888D01*
X156644112Y-70464033D01*
X156532574Y-70389506D01*
X156408640Y-70338171D01*
X156277073Y-70312000D01*
X156142927Y-70312000D01*
X156011360Y-70338171D01*
X155887426Y-70389506D01*
X155775888Y-70464033D01*
X155681033Y-70558888D01*
X155606506Y-70670426D01*
X155555171Y-70794360D01*
X155529000Y-70925927D01*
X152094000Y-70925927D01*
X152094000Y-59944000D01*
X154431553Y-59944000D01*
X154434001Y-59968856D01*
X154434000Y-62713154D01*
X154431553Y-62738000D01*
X154434000Y-62762846D01*
X154434000Y-62762853D01*
X154441322Y-62837192D01*
X154470255Y-62932574D01*
X154517241Y-63020479D01*
X154580473Y-63097527D01*
X154599785Y-63113376D01*
X155199628Y-63713220D01*
X155215473Y-63732527D01*
X155292521Y-63795759D01*
X155380425Y-63842745D01*
X155475807Y-63871678D01*
X155575000Y-63881448D01*
X155599854Y-63879000D01*
X155752921Y-63879000D01*
X155775888Y-63901967D01*
X155887426Y-63976494D01*
X155963488Y-64008000D01*
X155887426Y-64039506D01*
X155775888Y-64114033D01*
X155681033Y-64208888D01*
X155606506Y-64320426D01*
X155555171Y-64444360D01*
X155529000Y-64575927D01*
X155529000Y-64710073D01*
X155555171Y-64841640D01*
X155606506Y-64965574D01*
X155681033Y-65077112D01*
X155775888Y-65171967D01*
X155887426Y-65246494D01*
X155963488Y-65278000D01*
X155887426Y-65309506D01*
X155775888Y-65384033D01*
X155681033Y-65478888D01*
X155606506Y-65590426D01*
X155555171Y-65714360D01*
X155529000Y-65845927D01*
X155529000Y-65980073D01*
X155555171Y-66111640D01*
X155606506Y-66235574D01*
X155681033Y-66347112D01*
X155775888Y-66441967D01*
X155887426Y-66516494D01*
X155963488Y-66548000D01*
X155887426Y-66579506D01*
X155775888Y-66654033D01*
X155681033Y-66748888D01*
X155606506Y-66860426D01*
X155555171Y-66984360D01*
X155529000Y-67115927D01*
X155529000Y-67250073D01*
X155555171Y-67381640D01*
X155606506Y-67505574D01*
X155681033Y-67617112D01*
X155775888Y-67711967D01*
X155887426Y-67786494D01*
X155963488Y-67818000D01*
X155887426Y-67849506D01*
X155775888Y-67924033D01*
X155681033Y-68018888D01*
X155606506Y-68130426D01*
X155555171Y-68254360D01*
X155529000Y-68385927D01*
X155529000Y-68520073D01*
X155555171Y-68651640D01*
X155606506Y-68775574D01*
X155681033Y-68887112D01*
X155775888Y-68981967D01*
X155887426Y-69056494D01*
X156011360Y-69107829D01*
X156142927Y-69134000D01*
X156277073Y-69134000D01*
X156408640Y-69107829D01*
X156532574Y-69056494D01*
X156644112Y-68981967D01*
X156738967Y-68887112D01*
X156813494Y-68775574D01*
X156864829Y-68651640D01*
X156891000Y-68520073D01*
X156891000Y-68385927D01*
X156864829Y-68254360D01*
X156813494Y-68130426D01*
X156738967Y-68018888D01*
X156644112Y-67924033D01*
X156532574Y-67849506D01*
X156456512Y-67818000D01*
X156532574Y-67786494D01*
X156644112Y-67711967D01*
X156738967Y-67617112D01*
X156813494Y-67505574D01*
X156864829Y-67381640D01*
X156891000Y-67250073D01*
X156891000Y-67115927D01*
X156864829Y-66984360D01*
X156813494Y-66860426D01*
X156738967Y-66748888D01*
X156644112Y-66654033D01*
X156532574Y-66579506D01*
X156456512Y-66548000D01*
X156532574Y-66516494D01*
X156644112Y-66441967D01*
X156738967Y-66347112D01*
X156771302Y-66298718D01*
X159648000Y-66298718D01*
X159648000Y-66797282D01*
X159745265Y-67286265D01*
X159936057Y-67746878D01*
X160213044Y-68161418D01*
X160565582Y-68513956D01*
X160980122Y-68790943D01*
X161440735Y-68981735D01*
X161929718Y-69079000D01*
X162428282Y-69079000D01*
X162917265Y-68981735D01*
X163377878Y-68790943D01*
X163792418Y-68513956D01*
X164144956Y-68161418D01*
X164421943Y-67746878D01*
X164612735Y-67286265D01*
X164710000Y-66797282D01*
X164710000Y-66298718D01*
X165998000Y-66298718D01*
X165998000Y-66797282D01*
X166095265Y-67286265D01*
X166286057Y-67746878D01*
X166563044Y-68161418D01*
X166915582Y-68513956D01*
X167330122Y-68790943D01*
X167790735Y-68981735D01*
X168279718Y-69079000D01*
X168778282Y-69079000D01*
X169267265Y-68981735D01*
X169727878Y-68790943D01*
X170142418Y-68513956D01*
X170494956Y-68161418D01*
X170771943Y-67746878D01*
X170962735Y-67286265D01*
X171060000Y-66797282D01*
X171060000Y-66298718D01*
X170962735Y-65809735D01*
X170771943Y-65349122D01*
X170494956Y-64934582D01*
X170142418Y-64582044D01*
X169727878Y-64305057D01*
X169267265Y-64114265D01*
X168778282Y-64017000D01*
X168279718Y-64017000D01*
X167790735Y-64114265D01*
X167330122Y-64305057D01*
X166915582Y-64582044D01*
X166563044Y-64934582D01*
X166286057Y-65349122D01*
X166095265Y-65809735D01*
X165998000Y-66298718D01*
X164710000Y-66298718D01*
X164612735Y-65809735D01*
X164421943Y-65349122D01*
X164144956Y-64934582D01*
X163792418Y-64582044D01*
X163377878Y-64305057D01*
X162917265Y-64114265D01*
X162428282Y-64017000D01*
X161929718Y-64017000D01*
X161440735Y-64114265D01*
X160980122Y-64305057D01*
X160565582Y-64582044D01*
X160213044Y-64934582D01*
X159936057Y-65349122D01*
X159745265Y-65809735D01*
X159648000Y-66298718D01*
X156771302Y-66298718D01*
X156813494Y-66235574D01*
X156864829Y-66111640D01*
X156891000Y-65980073D01*
X156891000Y-65845927D01*
X156864829Y-65714360D01*
X156813494Y-65590426D01*
X156738967Y-65478888D01*
X156644112Y-65384033D01*
X156532574Y-65309506D01*
X156456512Y-65278000D01*
X156532574Y-65246494D01*
X156644112Y-65171967D01*
X156738967Y-65077112D01*
X156813494Y-64965574D01*
X156864829Y-64841640D01*
X156891000Y-64710073D01*
X156891000Y-64575927D01*
X156864829Y-64444360D01*
X156813494Y-64320426D01*
X156738967Y-64208888D01*
X156644112Y-64114033D01*
X156532574Y-64039506D01*
X156456512Y-64008000D01*
X156532574Y-63976494D01*
X156644112Y-63901967D01*
X156738967Y-63807112D01*
X156813494Y-63695574D01*
X156864829Y-63571640D01*
X156891000Y-63440073D01*
X156891000Y-63305927D01*
X156864829Y-63174360D01*
X156813494Y-63050426D01*
X156738967Y-62938888D01*
X156644112Y-62844033D01*
X156532574Y-62769506D01*
X156456512Y-62738000D01*
X156532574Y-62706494D01*
X156644112Y-62631967D01*
X156738967Y-62537112D01*
X156813494Y-62425574D01*
X156864829Y-62301640D01*
X156891000Y-62170073D01*
X156891000Y-62035927D01*
X173817000Y-62035927D01*
X173817000Y-62170073D01*
X173843171Y-62301640D01*
X173894506Y-62425574D01*
X173969033Y-62537112D01*
X174063888Y-62631967D01*
X174175426Y-62706494D01*
X174251488Y-62738000D01*
X174175426Y-62769506D01*
X174063888Y-62844033D01*
X173969033Y-62938888D01*
X173894506Y-63050426D01*
X173843171Y-63174360D01*
X173817000Y-63305927D01*
X173817000Y-63440073D01*
X173843171Y-63571640D01*
X173894506Y-63695574D01*
X173969033Y-63807112D01*
X174063888Y-63901967D01*
X174175426Y-63976494D01*
X174251488Y-64008000D01*
X174175426Y-64039506D01*
X174063888Y-64114033D01*
X173969033Y-64208888D01*
X173894506Y-64320426D01*
X173843171Y-64444360D01*
X173817000Y-64575927D01*
X173817000Y-64710073D01*
X173843171Y-64841640D01*
X173894506Y-64965574D01*
X173969033Y-65077112D01*
X174063888Y-65171967D01*
X174175426Y-65246494D01*
X174251488Y-65278000D01*
X174175426Y-65309506D01*
X174063888Y-65384033D01*
X173969033Y-65478888D01*
X173894506Y-65590426D01*
X173843171Y-65714360D01*
X173817000Y-65845927D01*
X173817000Y-65980073D01*
X173843171Y-66111640D01*
X173894506Y-66235574D01*
X173969033Y-66347112D01*
X174063888Y-66441967D01*
X174175426Y-66516494D01*
X174251488Y-66548000D01*
X174175426Y-66579506D01*
X174063888Y-66654033D01*
X173969033Y-66748888D01*
X173894506Y-66860426D01*
X173843171Y-66984360D01*
X173817000Y-67115927D01*
X173817000Y-67250073D01*
X173843171Y-67381640D01*
X173894506Y-67505574D01*
X173969033Y-67617112D01*
X174063888Y-67711967D01*
X174175426Y-67786494D01*
X174251488Y-67818000D01*
X174175426Y-67849506D01*
X174063888Y-67924033D01*
X173969033Y-68018888D01*
X173894506Y-68130426D01*
X173843171Y-68254360D01*
X173817000Y-68385927D01*
X173817000Y-68520073D01*
X173843171Y-68651640D01*
X173894506Y-68775574D01*
X173969033Y-68887112D01*
X174063888Y-68981967D01*
X174175426Y-69056494D01*
X174251488Y-69088000D01*
X174175426Y-69119506D01*
X174063888Y-69194033D01*
X173969033Y-69288888D01*
X173894506Y-69400426D01*
X173843171Y-69524360D01*
X173817000Y-69655927D01*
X173817000Y-69790073D01*
X173843171Y-69921640D01*
X173894506Y-70045574D01*
X173969033Y-70157112D01*
X174063888Y-70251967D01*
X174175426Y-70326494D01*
X174251488Y-70358000D01*
X174175426Y-70389506D01*
X174063888Y-70464033D01*
X173969033Y-70558888D01*
X173894506Y-70670426D01*
X173843171Y-70794360D01*
X173817000Y-70925927D01*
X173817000Y-71060073D01*
X173843171Y-71191640D01*
X173894506Y-71315574D01*
X173969033Y-71427112D01*
X174063888Y-71521967D01*
X174175426Y-71596494D01*
X174251488Y-71628000D01*
X174175426Y-71659506D01*
X174063888Y-71734033D01*
X173969033Y-71828888D01*
X173894506Y-71940426D01*
X173843171Y-72064360D01*
X173817000Y-72195927D01*
X173817000Y-72330073D01*
X173843171Y-72461640D01*
X173894506Y-72585574D01*
X173969033Y-72697112D01*
X174063888Y-72791967D01*
X174175426Y-72866494D01*
X174251488Y-72898000D01*
X174175426Y-72929506D01*
X174063888Y-73004033D01*
X173969033Y-73098888D01*
X173894506Y-73210426D01*
X173843171Y-73334360D01*
X173817000Y-73465927D01*
X173817000Y-73600073D01*
X173843171Y-73731640D01*
X173894506Y-73855574D01*
X173969033Y-73967112D01*
X174063888Y-74061967D01*
X174175426Y-74136494D01*
X174251488Y-74168000D01*
X174175426Y-74199506D01*
X174063888Y-74274033D01*
X173969033Y-74368888D01*
X173894506Y-74480426D01*
X173843171Y-74604360D01*
X173817000Y-74735927D01*
X173817000Y-74870073D01*
X173843171Y-75001640D01*
X173894506Y-75125574D01*
X173969033Y-75237112D01*
X174063888Y-75331967D01*
X174175426Y-75406494D01*
X174251488Y-75438000D01*
X174175426Y-75469506D01*
X174063888Y-75544033D01*
X173969033Y-75638888D01*
X173894506Y-75750426D01*
X173843171Y-75874360D01*
X173817000Y-76005927D01*
X173817000Y-76140073D01*
X173843171Y-76271640D01*
X173894506Y-76395574D01*
X173969033Y-76507112D01*
X174063888Y-76601967D01*
X174175426Y-76676494D01*
X174251488Y-76708000D01*
X174175426Y-76739506D01*
X174063888Y-76814033D01*
X173969033Y-76908888D01*
X173894506Y-77020426D01*
X173843171Y-77144360D01*
X173817000Y-77275927D01*
X173817000Y-77410073D01*
X173843171Y-77541640D01*
X173894506Y-77665574D01*
X173969033Y-77777112D01*
X174063888Y-77871967D01*
X174175426Y-77946494D01*
X174299360Y-77997829D01*
X174430927Y-78024000D01*
X174565073Y-78024000D01*
X174696640Y-77997829D01*
X174820574Y-77946494D01*
X174932112Y-77871967D01*
X175026967Y-77777112D01*
X175101494Y-77665574D01*
X175152829Y-77541640D01*
X175179000Y-77410073D01*
X175179000Y-77275927D01*
X175152829Y-77144360D01*
X175101494Y-77020426D01*
X175026967Y-76908888D01*
X174932112Y-76814033D01*
X174820574Y-76739506D01*
X174744512Y-76708000D01*
X174820574Y-76676494D01*
X174932112Y-76601967D01*
X175026967Y-76507112D01*
X175101494Y-76395574D01*
X175152829Y-76271640D01*
X175179000Y-76140073D01*
X175179000Y-76005927D01*
X175152829Y-75874360D01*
X175101494Y-75750426D01*
X175026967Y-75638888D01*
X174932112Y-75544033D01*
X174820574Y-75469506D01*
X174744512Y-75438000D01*
X174820574Y-75406494D01*
X174932112Y-75331967D01*
X175026967Y-75237112D01*
X175101494Y-75125574D01*
X175152829Y-75001640D01*
X175179000Y-74870073D01*
X175179000Y-74735927D01*
X175152829Y-74604360D01*
X175101494Y-74480426D01*
X175026967Y-74368888D01*
X174932112Y-74274033D01*
X174820574Y-74199506D01*
X174744512Y-74168000D01*
X174820574Y-74136494D01*
X174932112Y-74061967D01*
X175026967Y-73967112D01*
X175101494Y-73855574D01*
X175152829Y-73731640D01*
X175179000Y-73600073D01*
X175179000Y-73465927D01*
X175152829Y-73334360D01*
X175101494Y-73210426D01*
X175026967Y-73098888D01*
X174932112Y-73004033D01*
X174820574Y-72929506D01*
X174744512Y-72898000D01*
X174820574Y-72866494D01*
X174932112Y-72791967D01*
X175026967Y-72697112D01*
X175101494Y-72585574D01*
X175152829Y-72461640D01*
X175179000Y-72330073D01*
X175179000Y-72195927D01*
X175152829Y-72064360D01*
X175101494Y-71940426D01*
X175026967Y-71828888D01*
X174932112Y-71734033D01*
X174820574Y-71659506D01*
X174744512Y-71628000D01*
X174820574Y-71596494D01*
X174932112Y-71521967D01*
X175026967Y-71427112D01*
X175101494Y-71315574D01*
X175152829Y-71191640D01*
X175179000Y-71060073D01*
X175179000Y-70925927D01*
X175152829Y-70794360D01*
X175101494Y-70670426D01*
X175026967Y-70558888D01*
X174932112Y-70464033D01*
X174820574Y-70389506D01*
X174744512Y-70358000D01*
X174820574Y-70326494D01*
X174932112Y-70251967D01*
X175026967Y-70157112D01*
X175101494Y-70045574D01*
X175152829Y-69921640D01*
X175179000Y-69790073D01*
X175179000Y-69655927D01*
X175152829Y-69524360D01*
X175101494Y-69400426D01*
X175026967Y-69288888D01*
X174932112Y-69194033D01*
X174820574Y-69119506D01*
X174744512Y-69088000D01*
X174820574Y-69056494D01*
X174932112Y-68981967D01*
X175026967Y-68887112D01*
X175101494Y-68775574D01*
X175152829Y-68651640D01*
X175179000Y-68520073D01*
X175179000Y-68385927D01*
X175152829Y-68254360D01*
X175101494Y-68130426D01*
X175026967Y-68018888D01*
X174932112Y-67924033D01*
X174820574Y-67849506D01*
X174744512Y-67818000D01*
X174820574Y-67786494D01*
X174932112Y-67711967D01*
X175026967Y-67617112D01*
X175101494Y-67505574D01*
X175152829Y-67381640D01*
X175179000Y-67250073D01*
X175179000Y-67115927D01*
X175152829Y-66984360D01*
X175101494Y-66860426D01*
X175026967Y-66748888D01*
X174932112Y-66654033D01*
X174820574Y-66579506D01*
X174744512Y-66548000D01*
X174820574Y-66516494D01*
X174932112Y-66441967D01*
X175026967Y-66347112D01*
X175101494Y-66235574D01*
X175152829Y-66111640D01*
X175179000Y-65980073D01*
X175179000Y-65845927D01*
X175152829Y-65714360D01*
X175101494Y-65590426D01*
X175026967Y-65478888D01*
X174932112Y-65384033D01*
X174820574Y-65309506D01*
X174744512Y-65278000D01*
X174820574Y-65246494D01*
X174932112Y-65171967D01*
X175026967Y-65077112D01*
X175101494Y-64965574D01*
X175152829Y-64841640D01*
X175179000Y-64710073D01*
X175179000Y-64575927D01*
X175152829Y-64444360D01*
X175101494Y-64320426D01*
X175026967Y-64208888D01*
X174932112Y-64114033D01*
X174820574Y-64039506D01*
X174744512Y-64008000D01*
X174820574Y-63976494D01*
X174932112Y-63901967D01*
X175026967Y-63807112D01*
X175101494Y-63695574D01*
X175152829Y-63571640D01*
X175179000Y-63440073D01*
X175179000Y-63305927D01*
X175152829Y-63174360D01*
X175101494Y-63050426D01*
X175026967Y-62938888D01*
X174932112Y-62844033D01*
X174820574Y-62769506D01*
X174744512Y-62738000D01*
X174820574Y-62706494D01*
X174932112Y-62631967D01*
X175026967Y-62537112D01*
X175101494Y-62425574D01*
X175152829Y-62301640D01*
X175179000Y-62170073D01*
X175179000Y-62035927D01*
X175152829Y-61904360D01*
X175101494Y-61780426D01*
X175026967Y-61668888D01*
X174932112Y-61574033D01*
X174820574Y-61499506D01*
X174696640Y-61448171D01*
X174565073Y-61422000D01*
X174430927Y-61422000D01*
X174299360Y-61448171D01*
X174175426Y-61499506D01*
X174063888Y-61574033D01*
X173969033Y-61668888D01*
X173894506Y-61780426D01*
X173843171Y-61904360D01*
X173817000Y-62035927D01*
X156891000Y-62035927D01*
X156864829Y-61904360D01*
X156813494Y-61780426D01*
X156738967Y-61668888D01*
X156644112Y-61574033D01*
X156532574Y-61499506D01*
X156408640Y-61448171D01*
X156277073Y-61422000D01*
X156142927Y-61422000D01*
X156011360Y-61448171D01*
X155887426Y-61499506D01*
X155775888Y-61574033D01*
X155681033Y-61668888D01*
X155606506Y-61780426D01*
X155555171Y-61904360D01*
X155529000Y-62035927D01*
X155529000Y-62170073D01*
X155555171Y-62301640D01*
X155606506Y-62425574D01*
X155681033Y-62537112D01*
X155775888Y-62631967D01*
X155887426Y-62706494D01*
X155963488Y-62738000D01*
X155887426Y-62769506D01*
X155775888Y-62844033D01*
X155768756Y-62851165D01*
X155446000Y-62528409D01*
X155446000Y-60511927D01*
X157053000Y-60511927D01*
X157053000Y-60646073D01*
X157079171Y-60777640D01*
X157130506Y-60901574D01*
X157205033Y-61013112D01*
X157299888Y-61107967D01*
X157411426Y-61182494D01*
X157535360Y-61233829D01*
X157666927Y-61260000D01*
X157801073Y-61260000D01*
X157932640Y-61233829D01*
X158056574Y-61182494D01*
X158168112Y-61107967D01*
X158262967Y-61013112D01*
X158337494Y-60901574D01*
X158369000Y-60825512D01*
X158400506Y-60901574D01*
X158475033Y-61013112D01*
X158569888Y-61107967D01*
X158681426Y-61182494D01*
X158805360Y-61233829D01*
X158936927Y-61260000D01*
X159071073Y-61260000D01*
X159202640Y-61233829D01*
X159326574Y-61182494D01*
X159438112Y-61107967D01*
X159532967Y-61013112D01*
X159607494Y-60901574D01*
X159639000Y-60825512D01*
X159670506Y-60901574D01*
X159745033Y-61013112D01*
X159839888Y-61107967D01*
X159951426Y-61182494D01*
X160075360Y-61233829D01*
X160206927Y-61260000D01*
X160341073Y-61260000D01*
X160472640Y-61233829D01*
X160596574Y-61182494D01*
X160708112Y-61107967D01*
X160802967Y-61013112D01*
X160877494Y-60901574D01*
X160909000Y-60825512D01*
X160940506Y-60901574D01*
X161015033Y-61013112D01*
X161109888Y-61107967D01*
X161221426Y-61182494D01*
X161345360Y-61233829D01*
X161476927Y-61260000D01*
X161611073Y-61260000D01*
X161742640Y-61233829D01*
X161866574Y-61182494D01*
X161978112Y-61107967D01*
X162072967Y-61013112D01*
X162147494Y-60901574D01*
X162179000Y-60825512D01*
X162210506Y-60901574D01*
X162285033Y-61013112D01*
X162379888Y-61107967D01*
X162491426Y-61182494D01*
X162615360Y-61233829D01*
X162746927Y-61260000D01*
X162881073Y-61260000D01*
X163012640Y-61233829D01*
X163136574Y-61182494D01*
X163248112Y-61107967D01*
X163342967Y-61013112D01*
X163417494Y-60901574D01*
X163449000Y-60825512D01*
X163480506Y-60901574D01*
X163555033Y-61013112D01*
X163649888Y-61107967D01*
X163761426Y-61182494D01*
X163885360Y-61233829D01*
X164016927Y-61260000D01*
X164151073Y-61260000D01*
X164282640Y-61233829D01*
X164406574Y-61182494D01*
X164518112Y-61107967D01*
X164612967Y-61013112D01*
X164687494Y-60901574D01*
X164719000Y-60825512D01*
X164750506Y-60901574D01*
X164825033Y-61013112D01*
X164919888Y-61107967D01*
X165031426Y-61182494D01*
X165155360Y-61233829D01*
X165286927Y-61260000D01*
X165421073Y-61260000D01*
X165552640Y-61233829D01*
X165676574Y-61182494D01*
X165788112Y-61107967D01*
X165882967Y-61013112D01*
X165957494Y-60901574D01*
X165989000Y-60825512D01*
X166020506Y-60901574D01*
X166095033Y-61013112D01*
X166189888Y-61107967D01*
X166301426Y-61182494D01*
X166425360Y-61233829D01*
X166556927Y-61260000D01*
X166691073Y-61260000D01*
X166822640Y-61233829D01*
X166946574Y-61182494D01*
X167058112Y-61107967D01*
X167152967Y-61013112D01*
X167227494Y-60901574D01*
X167259000Y-60825512D01*
X167290506Y-60901574D01*
X167365033Y-61013112D01*
X167459888Y-61107967D01*
X167571426Y-61182494D01*
X167695360Y-61233829D01*
X167826927Y-61260000D01*
X167961073Y-61260000D01*
X168092640Y-61233829D01*
X168216574Y-61182494D01*
X168328112Y-61107967D01*
X168422967Y-61013112D01*
X168497494Y-60901574D01*
X168529000Y-60825512D01*
X168560506Y-60901574D01*
X168635033Y-61013112D01*
X168729888Y-61107967D01*
X168841426Y-61182494D01*
X168965360Y-61233829D01*
X169096927Y-61260000D01*
X169231073Y-61260000D01*
X169362640Y-61233829D01*
X169486574Y-61182494D01*
X169598112Y-61107967D01*
X169692967Y-61013112D01*
X169767494Y-60901574D01*
X169799000Y-60825512D01*
X169830506Y-60901574D01*
X169905033Y-61013112D01*
X169999888Y-61107967D01*
X170111426Y-61182494D01*
X170235360Y-61233829D01*
X170366927Y-61260000D01*
X170501073Y-61260000D01*
X170632640Y-61233829D01*
X170756574Y-61182494D01*
X170868112Y-61107967D01*
X170962967Y-61013112D01*
X171037494Y-60901574D01*
X171069000Y-60825512D01*
X171100506Y-60901574D01*
X171175033Y-61013112D01*
X171269888Y-61107967D01*
X171381426Y-61182494D01*
X171505360Y-61233829D01*
X171636927Y-61260000D01*
X171771073Y-61260000D01*
X171902640Y-61233829D01*
X172026574Y-61182494D01*
X172138112Y-61107967D01*
X172232967Y-61013112D01*
X172307494Y-60901574D01*
X172358829Y-60777640D01*
X172385000Y-60646073D01*
X172385000Y-60511927D01*
X172358829Y-60380360D01*
X172307494Y-60256426D01*
X172232967Y-60144888D01*
X172210000Y-60121921D01*
X172210000Y-59876927D01*
X172293000Y-59876927D01*
X172293000Y-60011073D01*
X172319171Y-60142640D01*
X172370506Y-60266574D01*
X172445033Y-60378112D01*
X172539888Y-60472967D01*
X172603543Y-60515500D01*
X172539888Y-60558033D01*
X172445033Y-60652888D01*
X172370506Y-60764426D01*
X172319171Y-60888360D01*
X172293000Y-61019927D01*
X172293000Y-61154073D01*
X172319171Y-61285640D01*
X172370506Y-61409574D01*
X172445033Y-61521112D01*
X172539888Y-61615967D01*
X172651426Y-61690494D01*
X172775360Y-61741829D01*
X172906927Y-61768000D01*
X173041073Y-61768000D01*
X173172640Y-61741829D01*
X173296574Y-61690494D01*
X173408112Y-61615967D01*
X173502967Y-61521112D01*
X173577494Y-61409574D01*
X173628829Y-61285640D01*
X173655000Y-61154073D01*
X173655000Y-61019927D01*
X173628829Y-60888360D01*
X173577494Y-60764426D01*
X173502967Y-60652888D01*
X173408112Y-60558033D01*
X173344457Y-60515500D01*
X173408112Y-60472967D01*
X173502967Y-60378112D01*
X173577494Y-60266574D01*
X173628829Y-60142640D01*
X173655000Y-60011073D01*
X173655000Y-59876927D01*
X173628829Y-59745360D01*
X173577494Y-59621426D01*
X173502967Y-59509888D01*
X173408112Y-59415033D01*
X173296574Y-59340506D01*
X173172640Y-59289171D01*
X173041073Y-59263000D01*
X172906927Y-59263000D01*
X172775360Y-59289171D01*
X172651426Y-59340506D01*
X172539888Y-59415033D01*
X172445033Y-59509888D01*
X172370506Y-59621426D01*
X172319171Y-59745360D01*
X172293000Y-59876927D01*
X172210000Y-59876927D01*
X172210000Y-59267422D01*
X172213527Y-59264527D01*
X172276759Y-59187479D01*
X172323745Y-59099575D01*
X172352678Y-59004193D01*
X172360000Y-58929854D01*
X172360000Y-58929847D01*
X172362447Y-58905001D01*
X172360000Y-58880155D01*
X172360000Y-33099079D01*
X172428888Y-33167967D01*
X172540426Y-33242494D01*
X172664360Y-33293829D01*
X172795927Y-33320000D01*
X172930073Y-33320000D01*
X173061640Y-33293829D01*
X173185574Y-33242494D01*
X173219239Y-33220000D01*
X173506761Y-33220000D01*
X173540426Y-33242494D01*
X173664360Y-33293829D01*
X173795927Y-33320000D01*
X173930073Y-33320000D01*
X174061640Y-33293829D01*
X174185574Y-33242494D01*
X174297112Y-33167967D01*
X174391967Y-33073112D01*
X174466494Y-32961574D01*
X174517829Y-32837640D01*
X174544000Y-32706073D01*
X174544000Y-32571927D01*
X174517829Y-32440360D01*
X174466494Y-32316426D01*
X174442400Y-32280367D01*
X174440312Y-31813701D01*
X174472322Y-31774696D01*
X174507701Y-31708508D01*
X174529487Y-31636689D01*
X174536843Y-31562000D01*
X174536843Y-29562000D01*
X174529487Y-29487311D01*
X174507701Y-29415492D01*
X174472322Y-29349304D01*
X174424711Y-29291289D01*
X174366696Y-29243678D01*
X174300508Y-29208299D01*
X174228689Y-29186513D01*
X174154000Y-29179157D01*
X173554000Y-29179157D01*
X173479311Y-29186513D01*
X173407492Y-29208299D01*
X173354000Y-29236892D01*
X173300508Y-29208299D01*
X173228689Y-29186513D01*
X173154000Y-29179157D01*
X172554000Y-29179157D01*
X172479311Y-29186513D01*
X172407492Y-29208299D01*
X172354000Y-29236892D01*
X172300508Y-29208299D01*
X172228689Y-29186513D01*
X172154000Y-29179157D01*
X171554000Y-29179157D01*
X171479311Y-29186513D01*
X171407492Y-29208299D01*
X171354000Y-29236892D01*
X171300508Y-29208299D01*
X171228689Y-29186513D01*
X171154000Y-29179157D01*
X170554000Y-29179157D01*
X170479311Y-29186513D01*
X170407492Y-29208299D01*
X170354000Y-29236892D01*
X170300508Y-29208299D01*
X170228689Y-29186513D01*
X170154000Y-29179157D01*
X169554000Y-29179157D01*
X169479311Y-29186513D01*
X169407492Y-29208299D01*
X169354000Y-29236892D01*
X169300508Y-29208299D01*
X169228689Y-29186513D01*
X169154000Y-29179157D01*
X168554000Y-29179157D01*
X168479311Y-29186513D01*
X168407492Y-29208299D01*
X168354000Y-29236892D01*
X168300508Y-29208299D01*
X168228689Y-29186513D01*
X168154000Y-29179157D01*
X167554000Y-29179157D01*
X167479311Y-29186513D01*
X167407492Y-29208299D01*
X167354000Y-29236892D01*
X167300508Y-29208299D01*
X167228689Y-29186513D01*
X167154000Y-29179157D01*
X166554000Y-29179157D01*
X166479311Y-29186513D01*
X166407492Y-29208299D01*
X166354000Y-29236892D01*
X166300508Y-29208299D01*
X166228689Y-29186513D01*
X166154000Y-29179157D01*
X165554000Y-29179157D01*
X165479311Y-29186513D01*
X165407492Y-29208299D01*
X165354000Y-29236892D01*
X165300508Y-29208299D01*
X165228689Y-29186513D01*
X165154000Y-29179157D01*
X164554000Y-29179157D01*
X164479311Y-29186513D01*
X164407492Y-29208299D01*
X164354000Y-29236892D01*
X164300508Y-29208299D01*
X164228689Y-29186513D01*
X164154000Y-29179157D01*
X163554000Y-29179157D01*
X163479311Y-29186513D01*
X163407492Y-29208299D01*
X163354000Y-29236892D01*
X163300508Y-29208299D01*
X163228689Y-29186513D01*
X163154000Y-29179157D01*
X162554000Y-29179157D01*
X162479311Y-29186513D01*
X162407492Y-29208299D01*
X162354000Y-29236892D01*
X162300508Y-29208299D01*
X162228689Y-29186513D01*
X162154000Y-29179157D01*
X161554000Y-29179157D01*
X161479311Y-29186513D01*
X161407492Y-29208299D01*
X161354000Y-29236892D01*
X161300508Y-29208299D01*
X161228689Y-29186513D01*
X161154000Y-29179157D01*
X160554000Y-29179157D01*
X160479311Y-29186513D01*
X160407492Y-29208299D01*
X160354000Y-29236892D01*
X160300508Y-29208299D01*
X160228689Y-29186513D01*
X160154000Y-29179157D01*
X160076250Y-29181000D01*
X159981000Y-29276250D01*
X159981000Y-30435000D01*
X160001000Y-30435000D01*
X160001000Y-30689000D01*
X159981000Y-30689000D01*
X159981000Y-31847750D01*
X160076250Y-31943000D01*
X160154000Y-31944843D01*
X160228689Y-31937487D01*
X160300508Y-31915701D01*
X160348001Y-31890315D01*
X160348000Y-56233408D01*
X157393781Y-59187628D01*
X157374474Y-59203473D01*
X157311242Y-59280521D01*
X157296020Y-59309000D01*
X157264255Y-59368426D01*
X157235322Y-59463808D01*
X157225553Y-59563000D01*
X157228001Y-59587856D01*
X157228000Y-60121921D01*
X157205033Y-60144888D01*
X157130506Y-60256426D01*
X157079171Y-60380360D01*
X157053000Y-60511927D01*
X155446000Y-60511927D01*
X155446000Y-60153591D01*
X159194220Y-56405372D01*
X159213527Y-56389527D01*
X159276759Y-56312479D01*
X159323745Y-56224575D01*
X159352678Y-56129193D01*
X159360000Y-56054854D01*
X159360000Y-56054853D01*
X159362448Y-56030000D01*
X159360000Y-56005146D01*
X159360000Y-31890315D01*
X159407492Y-31915701D01*
X159479311Y-31937487D01*
X159554000Y-31944843D01*
X159631750Y-31943000D01*
X159727000Y-31847750D01*
X159727000Y-30689000D01*
X159707000Y-30689000D01*
X159707000Y-30435000D01*
X159727000Y-30435000D01*
X159727000Y-29276250D01*
X159631750Y-29181000D01*
X159554000Y-29179157D01*
X159479311Y-29186513D01*
X159407492Y-29208299D01*
X159354000Y-29236892D01*
X159300508Y-29208299D01*
X159228689Y-29186513D01*
X159154000Y-29179157D01*
X158554000Y-29179157D01*
X158479311Y-29186513D01*
X158407492Y-29208299D01*
X158354000Y-29236892D01*
X158300508Y-29208299D01*
X158228689Y-29186513D01*
X158154000Y-29179157D01*
X158076250Y-29181000D01*
X157981000Y-29276250D01*
X157981000Y-30435000D01*
X158001000Y-30435000D01*
X158001000Y-30689000D01*
X157981000Y-30689000D01*
X157981000Y-31847750D01*
X158076250Y-31943000D01*
X158154000Y-31944843D01*
X158228689Y-31937487D01*
X158300508Y-31915701D01*
X158348001Y-31890315D01*
X158348000Y-55820408D01*
X154599781Y-59568628D01*
X154580474Y-59584473D01*
X154517242Y-59661521D01*
X154505029Y-59684370D01*
X154470255Y-59749426D01*
X154441322Y-59844808D01*
X154431553Y-59944000D01*
X152094000Y-59944000D01*
X152094000Y-44958000D01*
X152146000Y-44958000D01*
X152146000Y-52578000D01*
X152148440Y-52602776D01*
X152155667Y-52626601D01*
X152167403Y-52648557D01*
X152183197Y-52667803D01*
X152202443Y-52683597D01*
X152224399Y-52695333D01*
X152248224Y-52702560D01*
X152273000Y-52705000D01*
X158115000Y-52705000D01*
X158139776Y-52702560D01*
X158163601Y-52695333D01*
X158185557Y-52683597D01*
X158204803Y-52667803D01*
X158220597Y-52648557D01*
X158232333Y-52626601D01*
X158239560Y-52602776D01*
X158242000Y-52578000D01*
X158242000Y-44958000D01*
X158239560Y-44933224D01*
X158232333Y-44909399D01*
X158220597Y-44887443D01*
X158204803Y-44868197D01*
X158185557Y-44852403D01*
X158163601Y-44840667D01*
X158139776Y-44833440D01*
X158115000Y-44831000D01*
X152273000Y-44831000D01*
X152248224Y-44833440D01*
X152224399Y-44840667D01*
X152202443Y-44852403D01*
X152183197Y-44868197D01*
X152167403Y-44887443D01*
X152155667Y-44909399D01*
X152148440Y-44933224D01*
X152146000Y-44958000D01*
X152094000Y-44958000D01*
X152094000Y-31562000D01*
X156171157Y-31562000D01*
X156178513Y-31636689D01*
X156200299Y-31708508D01*
X156235678Y-31774696D01*
X156283289Y-31832711D01*
X156341304Y-31880322D01*
X156407492Y-31915701D01*
X156479311Y-31937487D01*
X156554000Y-31944843D01*
X156631750Y-31943000D01*
X156727000Y-31847750D01*
X156727000Y-30689000D01*
X156981000Y-30689000D01*
X156981000Y-31847750D01*
X157076250Y-31943000D01*
X157154000Y-31944843D01*
X157228689Y-31937487D01*
X157300508Y-31915701D01*
X157354000Y-31887108D01*
X157407492Y-31915701D01*
X157479311Y-31937487D01*
X157554000Y-31944843D01*
X157631750Y-31943000D01*
X157727000Y-31847750D01*
X157727000Y-30689000D01*
X156981000Y-30689000D01*
X156727000Y-30689000D01*
X156268250Y-30689000D01*
X156173000Y-30784250D01*
X156171157Y-31562000D01*
X152094000Y-31562000D01*
X152094000Y-29562000D01*
X156171157Y-29562000D01*
X156173000Y-30339750D01*
X156268250Y-30435000D01*
X156727000Y-30435000D01*
X156727000Y-29276250D01*
X156981000Y-29276250D01*
X156981000Y-30435000D01*
X157727000Y-30435000D01*
X157727000Y-29276250D01*
X157631750Y-29181000D01*
X157554000Y-29179157D01*
X157479311Y-29186513D01*
X157407492Y-29208299D01*
X157354000Y-29236892D01*
X157300508Y-29208299D01*
X157228689Y-29186513D01*
X157154000Y-29179157D01*
X157076250Y-29181000D01*
X156981000Y-29276250D01*
X156727000Y-29276250D01*
X156631750Y-29181000D01*
X156554000Y-29179157D01*
X156479311Y-29186513D01*
X156407492Y-29208299D01*
X156341304Y-29243678D01*
X156283289Y-29291289D01*
X156235678Y-29349304D01*
X156200299Y-29415492D01*
X156178513Y-29487311D01*
X156171157Y-29562000D01*
X152094000Y-29562000D01*
X152094000Y-25803305D01*
X152118904Y-25549313D01*
X152186189Y-25326455D01*
X152295480Y-25120909D01*
X152442618Y-24940500D01*
X152621986Y-24792115D01*
X152826763Y-24681391D01*
X153049152Y-24612549D01*
X153301753Y-24586000D01*
X177396695Y-24586000D01*
X177650687Y-24610904D01*
G04 #@! TA.AperFunction,Conductor*
D17*
G36*
X177650687Y-24610904D02*
G01*
X177873545Y-24678189D01*
X178079091Y-24787480D01*
X178259500Y-24934618D01*
X178407885Y-25113986D01*
X178518609Y-25318763D01*
X178587451Y-25541152D01*
X178614001Y-25793762D01*
X178614000Y-81726119D01*
X177484119Y-82856000D01*
X152094000Y-82856000D01*
X152094000Y-78799927D01*
X157053000Y-78799927D01*
X157053000Y-78934073D01*
X157079171Y-79065640D01*
X157130506Y-79189574D01*
X157205033Y-79301112D01*
X157299888Y-79395967D01*
X157411426Y-79470494D01*
X157535360Y-79521829D01*
X157666927Y-79548000D01*
X157801073Y-79548000D01*
X157932640Y-79521829D01*
X158056574Y-79470494D01*
X158168112Y-79395967D01*
X158262967Y-79301112D01*
X158337494Y-79189574D01*
X158369000Y-79113512D01*
X158400506Y-79189574D01*
X158475033Y-79301112D01*
X158569888Y-79395967D01*
X158681426Y-79470494D01*
X158805360Y-79521829D01*
X158936927Y-79548000D01*
X159071073Y-79548000D01*
X159202640Y-79521829D01*
X159326574Y-79470494D01*
X159438112Y-79395967D01*
X159532967Y-79301112D01*
X159607494Y-79189574D01*
X159639000Y-79113512D01*
X159670506Y-79189574D01*
X159745033Y-79301112D01*
X159839888Y-79395967D01*
X159951426Y-79470494D01*
X160075360Y-79521829D01*
X160206927Y-79548000D01*
X160341073Y-79548000D01*
X160472640Y-79521829D01*
X160596574Y-79470494D01*
X160708112Y-79395967D01*
X160802967Y-79301112D01*
X160877494Y-79189574D01*
X160909000Y-79113512D01*
X160940506Y-79189574D01*
X161015033Y-79301112D01*
X161109888Y-79395967D01*
X161221426Y-79470494D01*
X161345360Y-79521829D01*
X161476927Y-79548000D01*
X161611073Y-79548000D01*
X161742640Y-79521829D01*
X161866574Y-79470494D01*
X161978112Y-79395967D01*
X162072967Y-79301112D01*
X162147494Y-79189574D01*
X162179000Y-79113512D01*
X162210506Y-79189574D01*
X162285033Y-79301112D01*
X162379888Y-79395967D01*
X162491426Y-79470494D01*
X162615360Y-79521829D01*
X162746927Y-79548000D01*
X162881073Y-79548000D01*
X163012640Y-79521829D01*
X163136574Y-79470494D01*
X163248112Y-79395967D01*
X163342967Y-79301112D01*
X163417494Y-79189574D01*
X163449000Y-79113512D01*
X163480506Y-79189574D01*
X163555033Y-79301112D01*
X163649888Y-79395967D01*
X163761426Y-79470494D01*
X163885360Y-79521829D01*
X164016927Y-79548000D01*
X164151073Y-79548000D01*
X164282640Y-79521829D01*
X164406574Y-79470494D01*
X164518112Y-79395967D01*
X164612967Y-79301112D01*
X164687494Y-79189574D01*
X164719000Y-79113512D01*
X164750506Y-79189574D01*
X164825033Y-79301112D01*
X164919888Y-79395967D01*
X165031426Y-79470494D01*
X165155360Y-79521829D01*
X165286927Y-79548000D01*
X165421073Y-79548000D01*
X165552640Y-79521829D01*
X165676574Y-79470494D01*
X165788112Y-79395967D01*
X165882967Y-79301112D01*
X165957494Y-79189574D01*
X165989000Y-79113512D01*
X166020506Y-79189574D01*
X166095033Y-79301112D01*
X166189888Y-79395967D01*
X166301426Y-79470494D01*
X166425360Y-79521829D01*
X166556927Y-79548000D01*
X166691073Y-79548000D01*
X166822640Y-79521829D01*
X166946574Y-79470494D01*
X167058112Y-79395967D01*
X167152967Y-79301112D01*
X167227494Y-79189574D01*
X167259000Y-79113512D01*
X167290506Y-79189574D01*
X167365033Y-79301112D01*
X167459888Y-79395967D01*
X167571426Y-79470494D01*
X167695360Y-79521829D01*
X167826927Y-79548000D01*
X167961073Y-79548000D01*
X168092640Y-79521829D01*
X168216574Y-79470494D01*
X168328112Y-79395967D01*
X168422967Y-79301112D01*
X168497494Y-79189574D01*
X168529000Y-79113512D01*
X168560506Y-79189574D01*
X168635033Y-79301112D01*
X168729888Y-79395967D01*
X168841426Y-79470494D01*
X168965360Y-79521829D01*
X169096927Y-79548000D01*
X169231073Y-79548000D01*
X169362640Y-79521829D01*
X169486574Y-79470494D01*
X169598112Y-79395967D01*
X169692967Y-79301112D01*
X169767494Y-79189574D01*
X169799000Y-79113512D01*
X169830506Y-79189574D01*
X169905033Y-79301112D01*
X169999888Y-79395967D01*
X170111426Y-79470494D01*
X170235360Y-79521829D01*
X170366927Y-79548000D01*
X170501073Y-79548000D01*
X170632640Y-79521829D01*
X170756574Y-79470494D01*
X170868112Y-79395967D01*
X170962967Y-79301112D01*
X171037494Y-79189574D01*
X171069000Y-79113512D01*
X171100506Y-79189574D01*
X171175033Y-79301112D01*
X171269888Y-79395967D01*
X171381426Y-79470494D01*
X171505360Y-79521829D01*
X171636927Y-79548000D01*
X171771073Y-79548000D01*
X171902640Y-79521829D01*
X172026574Y-79470494D01*
X172138112Y-79395967D01*
X172232967Y-79301112D01*
X172307494Y-79189574D01*
X172339000Y-79113512D01*
X172370506Y-79189574D01*
X172445033Y-79301112D01*
X172539888Y-79395967D01*
X172651426Y-79470494D01*
X172775360Y-79521829D01*
X172906927Y-79548000D01*
X173041073Y-79548000D01*
X173172640Y-79521829D01*
X173296574Y-79470494D01*
X173408112Y-79395967D01*
X173502967Y-79301112D01*
X173577494Y-79189574D01*
X173628829Y-79065640D01*
X173655000Y-78934073D01*
X173655000Y-78799927D01*
X173628829Y-78668360D01*
X173577494Y-78544426D01*
X173502967Y-78432888D01*
X173408112Y-78338033D01*
X173296574Y-78263506D01*
X173172640Y-78212171D01*
X173041073Y-78186000D01*
X172906927Y-78186000D01*
X172775360Y-78212171D01*
X172651426Y-78263506D01*
X172539888Y-78338033D01*
X172445033Y-78432888D01*
X172370506Y-78544426D01*
X172339000Y-78620488D01*
X172307494Y-78544426D01*
X172232967Y-78432888D01*
X172138112Y-78338033D01*
X172026574Y-78263506D01*
X171902640Y-78212171D01*
X171771073Y-78186000D01*
X171636927Y-78186000D01*
X171505360Y-78212171D01*
X171381426Y-78263506D01*
X171269888Y-78338033D01*
X171175033Y-78432888D01*
X171100506Y-78544426D01*
X171069000Y-78620488D01*
X171037494Y-78544426D01*
X170962967Y-78432888D01*
X170868112Y-78338033D01*
X170756574Y-78263506D01*
X170632640Y-78212171D01*
X170501073Y-78186000D01*
X170366927Y-78186000D01*
X170235360Y-78212171D01*
X170111426Y-78263506D01*
X169999888Y-78338033D01*
X169905033Y-78432888D01*
X169830506Y-78544426D01*
X169799000Y-78620488D01*
X169767494Y-78544426D01*
X169692967Y-78432888D01*
X169598112Y-78338033D01*
X169486574Y-78263506D01*
X169362640Y-78212171D01*
X169231073Y-78186000D01*
X169096927Y-78186000D01*
X168965360Y-78212171D01*
X168841426Y-78263506D01*
X168729888Y-78338033D01*
X168635033Y-78432888D01*
X168560506Y-78544426D01*
X168529000Y-78620488D01*
X168497494Y-78544426D01*
X168422967Y-78432888D01*
X168328112Y-78338033D01*
X168216574Y-78263506D01*
X168092640Y-78212171D01*
X167961073Y-78186000D01*
X167826927Y-78186000D01*
X167695360Y-78212171D01*
X167571426Y-78263506D01*
X167459888Y-78338033D01*
X167365033Y-78432888D01*
X167290506Y-78544426D01*
X167259000Y-78620488D01*
X167227494Y-78544426D01*
X167152967Y-78432888D01*
X167058112Y-78338033D01*
X166946574Y-78263506D01*
X166822640Y-78212171D01*
X166691073Y-78186000D01*
X166556927Y-78186000D01*
X166425360Y-78212171D01*
X166301426Y-78263506D01*
X166189888Y-78338033D01*
X166095033Y-78432888D01*
X166020506Y-78544426D01*
X165989000Y-78620488D01*
X165957494Y-78544426D01*
X165882967Y-78432888D01*
X165788112Y-78338033D01*
X165676574Y-78263506D01*
X165552640Y-78212171D01*
X165421073Y-78186000D01*
X165286927Y-78186000D01*
X165155360Y-78212171D01*
X165031426Y-78263506D01*
X164919888Y-78338033D01*
X164825033Y-78432888D01*
X164750506Y-78544426D01*
X164719000Y-78620488D01*
X164687494Y-78544426D01*
X164612967Y-78432888D01*
X164518112Y-78338033D01*
X164406574Y-78263506D01*
X164282640Y-78212171D01*
X164151073Y-78186000D01*
X164016927Y-78186000D01*
X163885360Y-78212171D01*
X163761426Y-78263506D01*
X163649888Y-78338033D01*
X163555033Y-78432888D01*
X163480506Y-78544426D01*
X163449000Y-78620488D01*
X163417494Y-78544426D01*
X163342967Y-78432888D01*
X163248112Y-78338033D01*
X163136574Y-78263506D01*
X163012640Y-78212171D01*
X162881073Y-78186000D01*
X162746927Y-78186000D01*
X162615360Y-78212171D01*
X162491426Y-78263506D01*
X162379888Y-78338033D01*
X162285033Y-78432888D01*
X162210506Y-78544426D01*
X162179000Y-78620488D01*
X162147494Y-78544426D01*
X162072967Y-78432888D01*
X161978112Y-78338033D01*
X161866574Y-78263506D01*
X161742640Y-78212171D01*
X161611073Y-78186000D01*
X161476927Y-78186000D01*
X161345360Y-78212171D01*
X161221426Y-78263506D01*
X161109888Y-78338033D01*
X161015033Y-78432888D01*
X160940506Y-78544426D01*
X160909000Y-78620488D01*
X160877494Y-78544426D01*
X160802967Y-78432888D01*
X160708112Y-78338033D01*
X160596574Y-78263506D01*
X160472640Y-78212171D01*
X160341073Y-78186000D01*
X160206927Y-78186000D01*
X160075360Y-78212171D01*
X159951426Y-78263506D01*
X159839888Y-78338033D01*
X159745033Y-78432888D01*
X159670506Y-78544426D01*
X159639000Y-78620488D01*
X159607494Y-78544426D01*
X159532967Y-78432888D01*
X159438112Y-78338033D01*
X159326574Y-78263506D01*
X159202640Y-78212171D01*
X159071073Y-78186000D01*
X158936927Y-78186000D01*
X158805360Y-78212171D01*
X158681426Y-78263506D01*
X158569888Y-78338033D01*
X158475033Y-78432888D01*
X158400506Y-78544426D01*
X158369000Y-78620488D01*
X158337494Y-78544426D01*
X158262967Y-78432888D01*
X158168112Y-78338033D01*
X158056574Y-78263506D01*
X157932640Y-78212171D01*
X157801073Y-78186000D01*
X157666927Y-78186000D01*
X157535360Y-78212171D01*
X157411426Y-78263506D01*
X157299888Y-78338033D01*
X157205033Y-78432888D01*
X157130506Y-78544426D01*
X157079171Y-78668360D01*
X157053000Y-78799927D01*
X152094000Y-78799927D01*
X152094000Y-70925927D01*
X155529000Y-70925927D01*
X155529000Y-71060073D01*
X155555171Y-71191640D01*
X155606506Y-71315574D01*
X155681033Y-71427112D01*
X155775888Y-71521967D01*
X155887426Y-71596494D01*
X155963488Y-71628000D01*
X155887426Y-71659506D01*
X155775888Y-71734033D01*
X155681033Y-71828888D01*
X155606506Y-71940426D01*
X155555171Y-72064360D01*
X155529000Y-72195927D01*
X155529000Y-72330073D01*
X155555171Y-72461640D01*
X155606506Y-72585574D01*
X155681033Y-72697112D01*
X155775888Y-72791967D01*
X155887426Y-72866494D01*
X155963488Y-72898000D01*
X155887426Y-72929506D01*
X155775888Y-73004033D01*
X155681033Y-73098888D01*
X155606506Y-73210426D01*
X155555171Y-73334360D01*
X155529000Y-73465927D01*
X155529000Y-73600073D01*
X155555171Y-73731640D01*
X155606506Y-73855574D01*
X155681033Y-73967112D01*
X155775888Y-74061967D01*
X155887426Y-74136494D01*
X155963488Y-74168000D01*
X155887426Y-74199506D01*
X155775888Y-74274033D01*
X155681033Y-74368888D01*
X155606506Y-74480426D01*
X155555171Y-74604360D01*
X155529000Y-74735927D01*
X155529000Y-74870073D01*
X155555171Y-75001640D01*
X155606506Y-75125574D01*
X155681033Y-75237112D01*
X155775888Y-75331967D01*
X155887426Y-75406494D01*
X155963488Y-75438000D01*
X155887426Y-75469506D01*
X155775888Y-75544033D01*
X155681033Y-75638888D01*
X155606506Y-75750426D01*
X155555171Y-75874360D01*
X155529000Y-76005927D01*
X155529000Y-76140073D01*
X155555171Y-76271640D01*
X155606506Y-76395574D01*
X155681033Y-76507112D01*
X155775888Y-76601967D01*
X155887426Y-76676494D01*
X155963488Y-76708000D01*
X155887426Y-76739506D01*
X155775888Y-76814033D01*
X155681033Y-76908888D01*
X155606506Y-77020426D01*
X155555171Y-77144360D01*
X155529000Y-77275927D01*
X155529000Y-77410073D01*
X155555171Y-77541640D01*
X155606506Y-77665574D01*
X155681033Y-77777112D01*
X155775888Y-77871967D01*
X155887426Y-77946494D01*
X156011360Y-77997829D01*
X156142927Y-78024000D01*
X156277073Y-78024000D01*
X156408640Y-77997829D01*
X156532574Y-77946494D01*
X156644112Y-77871967D01*
X156738967Y-77777112D01*
X156813494Y-77665574D01*
X156864829Y-77541640D01*
X156891000Y-77410073D01*
X156891000Y-77275927D01*
X156864829Y-77144360D01*
X156813494Y-77020426D01*
X156738967Y-76908888D01*
X156644112Y-76814033D01*
X156532574Y-76739506D01*
X156456512Y-76708000D01*
X156532574Y-76676494D01*
X156644112Y-76601967D01*
X156738967Y-76507112D01*
X156813494Y-76395574D01*
X156864829Y-76271640D01*
X156891000Y-76140073D01*
X156891000Y-76005927D01*
X156864829Y-75874360D01*
X156813494Y-75750426D01*
X156738967Y-75638888D01*
X156644112Y-75544033D01*
X156532574Y-75469506D01*
X156456512Y-75438000D01*
X156532574Y-75406494D01*
X156644112Y-75331967D01*
X156738967Y-75237112D01*
X156813494Y-75125574D01*
X156864829Y-75001640D01*
X156891000Y-74870073D01*
X156891000Y-74735927D01*
X156864829Y-74604360D01*
X156813494Y-74480426D01*
X156738967Y-74368888D01*
X156644112Y-74274033D01*
X156532574Y-74199506D01*
X156456512Y-74168000D01*
X156532574Y-74136494D01*
X156644112Y-74061967D01*
X156738967Y-73967112D01*
X156813494Y-73855574D01*
X156864829Y-73731640D01*
X156891000Y-73600073D01*
X156891000Y-73465927D01*
X156864829Y-73334360D01*
X156813494Y-73210426D01*
X156738967Y-73098888D01*
X156644112Y-73004033D01*
X156532574Y-72929506D01*
X156456512Y-72898000D01*
X156532574Y-72866494D01*
X156644112Y-72791967D01*
X156738967Y-72697112D01*
X156771302Y-72648718D01*
X159648000Y-72648718D01*
X159648000Y-73147282D01*
X159745265Y-73636265D01*
X159936057Y-74096878D01*
X160213044Y-74511418D01*
X160565582Y-74863956D01*
X160980122Y-75140943D01*
X161440735Y-75331735D01*
X161929718Y-75429000D01*
X162428282Y-75429000D01*
X162917265Y-75331735D01*
X163377878Y-75140943D01*
X163792418Y-74863956D01*
X164144956Y-74511418D01*
X164421943Y-74096878D01*
X164612735Y-73636265D01*
X164710000Y-73147282D01*
X164710000Y-72648718D01*
X165998000Y-72648718D01*
X165998000Y-73147282D01*
X166095265Y-73636265D01*
X166286057Y-74096878D01*
X166563044Y-74511418D01*
X166915582Y-74863956D01*
X167330122Y-75140943D01*
X167790735Y-75331735D01*
X168279718Y-75429000D01*
X168778282Y-75429000D01*
X169267265Y-75331735D01*
X169727878Y-75140943D01*
X170142418Y-74863956D01*
X170494956Y-74511418D01*
X170771943Y-74096878D01*
X170962735Y-73636265D01*
X171060000Y-73147282D01*
X171060000Y-72648718D01*
X170962735Y-72159735D01*
X170771943Y-71699122D01*
X170494956Y-71284582D01*
X170142418Y-70932044D01*
X169727878Y-70655057D01*
X169267265Y-70464265D01*
X168778282Y-70367000D01*
X168279718Y-70367000D01*
X167790735Y-70464265D01*
X167330122Y-70655057D01*
X166915582Y-70932044D01*
X166563044Y-71284582D01*
X166286057Y-71699122D01*
X166095265Y-72159735D01*
X165998000Y-72648718D01*
X164710000Y-72648718D01*
X164612735Y-72159735D01*
X164421943Y-71699122D01*
X164144956Y-71284582D01*
X163792418Y-70932044D01*
X163377878Y-70655057D01*
X162917265Y-70464265D01*
X162428282Y-70367000D01*
X161929718Y-70367000D01*
X161440735Y-70464265D01*
X160980122Y-70655057D01*
X160565582Y-70932044D01*
X160213044Y-71284582D01*
X159936057Y-71699122D01*
X159745265Y-72159735D01*
X159648000Y-72648718D01*
X156771302Y-72648718D01*
X156813494Y-72585574D01*
X156864829Y-72461640D01*
X156891000Y-72330073D01*
X156891000Y-72195927D01*
X156864829Y-72064360D01*
X156813494Y-71940426D01*
X156738967Y-71828888D01*
X156644112Y-71734033D01*
X156532574Y-71659506D01*
X156456512Y-71628000D01*
X156532574Y-71596494D01*
X156644112Y-71521967D01*
X156738967Y-71427112D01*
X156813494Y-71315574D01*
X156864829Y-71191640D01*
X156891000Y-71060073D01*
X156891000Y-70925927D01*
X156864829Y-70794360D01*
X156813494Y-70670426D01*
X156738967Y-70558888D01*
X156644112Y-70464033D01*
X156532574Y-70389506D01*
X156408640Y-70338171D01*
X156277073Y-70312000D01*
X156142927Y-70312000D01*
X156011360Y-70338171D01*
X155887426Y-70389506D01*
X155775888Y-70464033D01*
X155681033Y-70558888D01*
X155606506Y-70670426D01*
X155555171Y-70794360D01*
X155529000Y-70925927D01*
X152094000Y-70925927D01*
X152094000Y-59944000D01*
X154431553Y-59944000D01*
X154434001Y-59968856D01*
X154434000Y-62713154D01*
X154431553Y-62738000D01*
X154434000Y-62762846D01*
X154434000Y-62762853D01*
X154441322Y-62837192D01*
X154470255Y-62932574D01*
X154517241Y-63020479D01*
X154580473Y-63097527D01*
X154599785Y-63113376D01*
X155199628Y-63713220D01*
X155215473Y-63732527D01*
X155292521Y-63795759D01*
X155380425Y-63842745D01*
X155475807Y-63871678D01*
X155575000Y-63881448D01*
X155599854Y-63879000D01*
X155752921Y-63879000D01*
X155775888Y-63901967D01*
X155887426Y-63976494D01*
X155963488Y-64008000D01*
X155887426Y-64039506D01*
X155775888Y-64114033D01*
X155681033Y-64208888D01*
X155606506Y-64320426D01*
X155555171Y-64444360D01*
X155529000Y-64575927D01*
X155529000Y-64710073D01*
X155555171Y-64841640D01*
X155606506Y-64965574D01*
X155681033Y-65077112D01*
X155775888Y-65171967D01*
X155887426Y-65246494D01*
X155963488Y-65278000D01*
X155887426Y-65309506D01*
X155775888Y-65384033D01*
X155681033Y-65478888D01*
X155606506Y-65590426D01*
X155555171Y-65714360D01*
X155529000Y-65845927D01*
X155529000Y-65980073D01*
X155555171Y-66111640D01*
X155606506Y-66235574D01*
X155681033Y-66347112D01*
X155775888Y-66441967D01*
X155887426Y-66516494D01*
X155963488Y-66548000D01*
X155887426Y-66579506D01*
X155775888Y-66654033D01*
X155681033Y-66748888D01*
X155606506Y-66860426D01*
X155555171Y-66984360D01*
X155529000Y-67115927D01*
X155529000Y-67250073D01*
X155555171Y-67381640D01*
X155606506Y-67505574D01*
X155681033Y-67617112D01*
X155775888Y-67711967D01*
X155887426Y-67786494D01*
X155963488Y-67818000D01*
X155887426Y-67849506D01*
X155775888Y-67924033D01*
X155681033Y-68018888D01*
X155606506Y-68130426D01*
X155555171Y-68254360D01*
X155529000Y-68385927D01*
X155529000Y-68520073D01*
X155555171Y-68651640D01*
X155606506Y-68775574D01*
X155681033Y-68887112D01*
X155775888Y-68981967D01*
X155887426Y-69056494D01*
X156011360Y-69107829D01*
X156142927Y-69134000D01*
X156277073Y-69134000D01*
X156408640Y-69107829D01*
X156532574Y-69056494D01*
X156644112Y-68981967D01*
X156738967Y-68887112D01*
X156813494Y-68775574D01*
X156864829Y-68651640D01*
X156891000Y-68520073D01*
X156891000Y-68385927D01*
X156864829Y-68254360D01*
X156813494Y-68130426D01*
X156738967Y-68018888D01*
X156644112Y-67924033D01*
X156532574Y-67849506D01*
X156456512Y-67818000D01*
X156532574Y-67786494D01*
X156644112Y-67711967D01*
X156738967Y-67617112D01*
X156813494Y-67505574D01*
X156864829Y-67381640D01*
X156891000Y-67250073D01*
X156891000Y-67115927D01*
X156864829Y-66984360D01*
X156813494Y-66860426D01*
X156738967Y-66748888D01*
X156644112Y-66654033D01*
X156532574Y-66579506D01*
X156456512Y-66548000D01*
X156532574Y-66516494D01*
X156644112Y-66441967D01*
X156738967Y-66347112D01*
X156771302Y-66298718D01*
X159648000Y-66298718D01*
X159648000Y-66797282D01*
X159745265Y-67286265D01*
X159936057Y-67746878D01*
X160213044Y-68161418D01*
X160565582Y-68513956D01*
X160980122Y-68790943D01*
X161440735Y-68981735D01*
X161929718Y-69079000D01*
X162428282Y-69079000D01*
X162917265Y-68981735D01*
X163377878Y-68790943D01*
X163792418Y-68513956D01*
X164144956Y-68161418D01*
X164421943Y-67746878D01*
X164612735Y-67286265D01*
X164710000Y-66797282D01*
X164710000Y-66298718D01*
X165998000Y-66298718D01*
X165998000Y-66797282D01*
X166095265Y-67286265D01*
X166286057Y-67746878D01*
X166563044Y-68161418D01*
X166915582Y-68513956D01*
X167330122Y-68790943D01*
X167790735Y-68981735D01*
X168279718Y-69079000D01*
X168778282Y-69079000D01*
X169267265Y-68981735D01*
X169727878Y-68790943D01*
X170142418Y-68513956D01*
X170494956Y-68161418D01*
X170771943Y-67746878D01*
X170962735Y-67286265D01*
X171060000Y-66797282D01*
X171060000Y-66298718D01*
X170962735Y-65809735D01*
X170771943Y-65349122D01*
X170494956Y-64934582D01*
X170142418Y-64582044D01*
X169727878Y-64305057D01*
X169267265Y-64114265D01*
X168778282Y-64017000D01*
X168279718Y-64017000D01*
X167790735Y-64114265D01*
X167330122Y-64305057D01*
X166915582Y-64582044D01*
X166563044Y-64934582D01*
X166286057Y-65349122D01*
X166095265Y-65809735D01*
X165998000Y-66298718D01*
X164710000Y-66298718D01*
X164612735Y-65809735D01*
X164421943Y-65349122D01*
X164144956Y-64934582D01*
X163792418Y-64582044D01*
X163377878Y-64305057D01*
X162917265Y-64114265D01*
X162428282Y-64017000D01*
X161929718Y-64017000D01*
X161440735Y-64114265D01*
X160980122Y-64305057D01*
X160565582Y-64582044D01*
X160213044Y-64934582D01*
X159936057Y-65349122D01*
X159745265Y-65809735D01*
X159648000Y-66298718D01*
X156771302Y-66298718D01*
X156813494Y-66235574D01*
X156864829Y-66111640D01*
X156891000Y-65980073D01*
X156891000Y-65845927D01*
X156864829Y-65714360D01*
X156813494Y-65590426D01*
X156738967Y-65478888D01*
X156644112Y-65384033D01*
X156532574Y-65309506D01*
X156456512Y-65278000D01*
X156532574Y-65246494D01*
X156644112Y-65171967D01*
X156738967Y-65077112D01*
X156813494Y-64965574D01*
X156864829Y-64841640D01*
X156891000Y-64710073D01*
X156891000Y-64575927D01*
X156864829Y-64444360D01*
X156813494Y-64320426D01*
X156738967Y-64208888D01*
X156644112Y-64114033D01*
X156532574Y-64039506D01*
X156456512Y-64008000D01*
X156532574Y-63976494D01*
X156644112Y-63901967D01*
X156738967Y-63807112D01*
X156813494Y-63695574D01*
X156864829Y-63571640D01*
X156891000Y-63440073D01*
X156891000Y-63305927D01*
X156864829Y-63174360D01*
X156813494Y-63050426D01*
X156738967Y-62938888D01*
X156644112Y-62844033D01*
X156532574Y-62769506D01*
X156456512Y-62738000D01*
X156532574Y-62706494D01*
X156644112Y-62631967D01*
X156738967Y-62537112D01*
X156813494Y-62425574D01*
X156864829Y-62301640D01*
X156891000Y-62170073D01*
X156891000Y-62035927D01*
X173817000Y-62035927D01*
X173817000Y-62170073D01*
X173843171Y-62301640D01*
X173894506Y-62425574D01*
X173969033Y-62537112D01*
X174063888Y-62631967D01*
X174175426Y-62706494D01*
X174251488Y-62738000D01*
X174175426Y-62769506D01*
X174063888Y-62844033D01*
X173969033Y-62938888D01*
X173894506Y-63050426D01*
X173843171Y-63174360D01*
X173817000Y-63305927D01*
X173817000Y-63440073D01*
X173843171Y-63571640D01*
X173894506Y-63695574D01*
X173969033Y-63807112D01*
X174063888Y-63901967D01*
X174175426Y-63976494D01*
X174251488Y-64008000D01*
X174175426Y-64039506D01*
X174063888Y-64114033D01*
X173969033Y-64208888D01*
X173894506Y-64320426D01*
X173843171Y-64444360D01*
X173817000Y-64575927D01*
X173817000Y-64710073D01*
X173843171Y-64841640D01*
X173894506Y-64965574D01*
X173969033Y-65077112D01*
X174063888Y-65171967D01*
X174175426Y-65246494D01*
X174251488Y-65278000D01*
X174175426Y-65309506D01*
X174063888Y-65384033D01*
X173969033Y-65478888D01*
X173894506Y-65590426D01*
X173843171Y-65714360D01*
X173817000Y-65845927D01*
X173817000Y-65980073D01*
X173843171Y-66111640D01*
X173894506Y-66235574D01*
X173969033Y-66347112D01*
X174063888Y-66441967D01*
X174175426Y-66516494D01*
X174251488Y-66548000D01*
X174175426Y-66579506D01*
X174063888Y-66654033D01*
X173969033Y-66748888D01*
X173894506Y-66860426D01*
X173843171Y-66984360D01*
X173817000Y-67115927D01*
X173817000Y-67250073D01*
X173843171Y-67381640D01*
X173894506Y-67505574D01*
X173969033Y-67617112D01*
X174063888Y-67711967D01*
X174175426Y-67786494D01*
X174251488Y-67818000D01*
X174175426Y-67849506D01*
X174063888Y-67924033D01*
X173969033Y-68018888D01*
X173894506Y-68130426D01*
X173843171Y-68254360D01*
X173817000Y-68385927D01*
X173817000Y-68520073D01*
X173843171Y-68651640D01*
X173894506Y-68775574D01*
X173969033Y-68887112D01*
X174063888Y-68981967D01*
X174175426Y-69056494D01*
X174251488Y-69088000D01*
X174175426Y-69119506D01*
X174063888Y-69194033D01*
X173969033Y-69288888D01*
X173894506Y-69400426D01*
X173843171Y-69524360D01*
X173817000Y-69655927D01*
X173817000Y-69790073D01*
X173843171Y-69921640D01*
X173894506Y-70045574D01*
X173969033Y-70157112D01*
X174063888Y-70251967D01*
X174175426Y-70326494D01*
X174251488Y-70358000D01*
X174175426Y-70389506D01*
X174063888Y-70464033D01*
X173969033Y-70558888D01*
X173894506Y-70670426D01*
X173843171Y-70794360D01*
X173817000Y-70925927D01*
X173817000Y-71060073D01*
X173843171Y-71191640D01*
X173894506Y-71315574D01*
X173969033Y-71427112D01*
X174063888Y-71521967D01*
X174175426Y-71596494D01*
X174251488Y-71628000D01*
X174175426Y-71659506D01*
X174063888Y-71734033D01*
X173969033Y-71828888D01*
X173894506Y-71940426D01*
X173843171Y-72064360D01*
X173817000Y-72195927D01*
X173817000Y-72330073D01*
X173843171Y-72461640D01*
X173894506Y-72585574D01*
X173969033Y-72697112D01*
X174063888Y-72791967D01*
X174175426Y-72866494D01*
X174251488Y-72898000D01*
X174175426Y-72929506D01*
X174063888Y-73004033D01*
X173969033Y-73098888D01*
X173894506Y-73210426D01*
X173843171Y-73334360D01*
X173817000Y-73465927D01*
X173817000Y-73600073D01*
X173843171Y-73731640D01*
X173894506Y-73855574D01*
X173969033Y-73967112D01*
X174063888Y-74061967D01*
X174175426Y-74136494D01*
X174251488Y-74168000D01*
X174175426Y-74199506D01*
X174063888Y-74274033D01*
X173969033Y-74368888D01*
X173894506Y-74480426D01*
X173843171Y-74604360D01*
X173817000Y-74735927D01*
X173817000Y-74870073D01*
X173843171Y-75001640D01*
X173894506Y-75125574D01*
X173969033Y-75237112D01*
X174063888Y-75331967D01*
X174175426Y-75406494D01*
X174251488Y-75438000D01*
X174175426Y-75469506D01*
X174063888Y-75544033D01*
X173969033Y-75638888D01*
X173894506Y-75750426D01*
X173843171Y-75874360D01*
X173817000Y-76005927D01*
X173817000Y-76140073D01*
X173843171Y-76271640D01*
X173894506Y-76395574D01*
X173969033Y-76507112D01*
X174063888Y-76601967D01*
X174175426Y-76676494D01*
X174251488Y-76708000D01*
X174175426Y-76739506D01*
X174063888Y-76814033D01*
X173969033Y-76908888D01*
X173894506Y-77020426D01*
X173843171Y-77144360D01*
X173817000Y-77275927D01*
X173817000Y-77410073D01*
X173843171Y-77541640D01*
X173894506Y-77665574D01*
X173969033Y-77777112D01*
X174063888Y-77871967D01*
X174175426Y-77946494D01*
X174299360Y-77997829D01*
X174430927Y-78024000D01*
X174565073Y-78024000D01*
X174696640Y-77997829D01*
X174820574Y-77946494D01*
X174932112Y-77871967D01*
X175026967Y-77777112D01*
X175101494Y-77665574D01*
X175152829Y-77541640D01*
X175179000Y-77410073D01*
X175179000Y-77275927D01*
X175152829Y-77144360D01*
X175101494Y-77020426D01*
X175026967Y-76908888D01*
X174932112Y-76814033D01*
X174820574Y-76739506D01*
X174744512Y-76708000D01*
X174820574Y-76676494D01*
X174932112Y-76601967D01*
X175026967Y-76507112D01*
X175101494Y-76395574D01*
X175152829Y-76271640D01*
X175179000Y-76140073D01*
X175179000Y-76005927D01*
X175152829Y-75874360D01*
X175101494Y-75750426D01*
X175026967Y-75638888D01*
X174932112Y-75544033D01*
X174820574Y-75469506D01*
X174744512Y-75438000D01*
X174820574Y-75406494D01*
X174932112Y-75331967D01*
X175026967Y-75237112D01*
X175101494Y-75125574D01*
X175152829Y-75001640D01*
X175179000Y-74870073D01*
X175179000Y-74735927D01*
X175152829Y-74604360D01*
X175101494Y-74480426D01*
X175026967Y-74368888D01*
X174932112Y-74274033D01*
X174820574Y-74199506D01*
X174744512Y-74168000D01*
X174820574Y-74136494D01*
X174932112Y-74061967D01*
X175026967Y-73967112D01*
X175101494Y-73855574D01*
X175152829Y-73731640D01*
X175179000Y-73600073D01*
X175179000Y-73465927D01*
X175152829Y-73334360D01*
X175101494Y-73210426D01*
X175026967Y-73098888D01*
X174932112Y-73004033D01*
X174820574Y-72929506D01*
X174744512Y-72898000D01*
X174820574Y-72866494D01*
X174932112Y-72791967D01*
X175026967Y-72697112D01*
X175101494Y-72585574D01*
X175152829Y-72461640D01*
X175179000Y-72330073D01*
X175179000Y-72195927D01*
X175152829Y-72064360D01*
X175101494Y-71940426D01*
X175026967Y-71828888D01*
X174932112Y-71734033D01*
X174820574Y-71659506D01*
X174744512Y-71628000D01*
X174820574Y-71596494D01*
X174932112Y-71521967D01*
X175026967Y-71427112D01*
X175101494Y-71315574D01*
X175152829Y-71191640D01*
X175179000Y-71060073D01*
X175179000Y-70925927D01*
X175152829Y-70794360D01*
X175101494Y-70670426D01*
X175026967Y-70558888D01*
X174932112Y-70464033D01*
X174820574Y-70389506D01*
X174744512Y-70358000D01*
X174820574Y-70326494D01*
X174932112Y-70251967D01*
X175026967Y-70157112D01*
X175101494Y-70045574D01*
X175152829Y-69921640D01*
X175179000Y-69790073D01*
X175179000Y-69655927D01*
X175152829Y-69524360D01*
X175101494Y-69400426D01*
X175026967Y-69288888D01*
X174932112Y-69194033D01*
X174820574Y-69119506D01*
X174744512Y-69088000D01*
X174820574Y-69056494D01*
X174932112Y-68981967D01*
X175026967Y-68887112D01*
X175101494Y-68775574D01*
X175152829Y-68651640D01*
X175179000Y-68520073D01*
X175179000Y-68385927D01*
X175152829Y-68254360D01*
X175101494Y-68130426D01*
X175026967Y-68018888D01*
X174932112Y-67924033D01*
X174820574Y-67849506D01*
X174744512Y-67818000D01*
X174820574Y-67786494D01*
X174932112Y-67711967D01*
X175026967Y-67617112D01*
X175101494Y-67505574D01*
X175152829Y-67381640D01*
X175179000Y-67250073D01*
X175179000Y-67115927D01*
X175152829Y-66984360D01*
X175101494Y-66860426D01*
X175026967Y-66748888D01*
X174932112Y-66654033D01*
X174820574Y-66579506D01*
X174744512Y-66548000D01*
X174820574Y-66516494D01*
X174932112Y-66441967D01*
X175026967Y-66347112D01*
X175101494Y-66235574D01*
X175152829Y-66111640D01*
X175179000Y-65980073D01*
X175179000Y-65845927D01*
X175152829Y-65714360D01*
X175101494Y-65590426D01*
X175026967Y-65478888D01*
X174932112Y-65384033D01*
X174820574Y-65309506D01*
X174744512Y-65278000D01*
X174820574Y-65246494D01*
X174932112Y-65171967D01*
X175026967Y-65077112D01*
X175101494Y-64965574D01*
X175152829Y-64841640D01*
X175179000Y-64710073D01*
X175179000Y-64575927D01*
X175152829Y-64444360D01*
X175101494Y-64320426D01*
X175026967Y-64208888D01*
X174932112Y-64114033D01*
X174820574Y-64039506D01*
X174744512Y-64008000D01*
X174820574Y-63976494D01*
X174932112Y-63901967D01*
X175026967Y-63807112D01*
X175101494Y-63695574D01*
X175152829Y-63571640D01*
X175179000Y-63440073D01*
X175179000Y-63305927D01*
X175152829Y-63174360D01*
X175101494Y-63050426D01*
X175026967Y-62938888D01*
X174932112Y-62844033D01*
X174820574Y-62769506D01*
X174744512Y-62738000D01*
X174820574Y-62706494D01*
X174932112Y-62631967D01*
X175026967Y-62537112D01*
X175101494Y-62425574D01*
X175152829Y-62301640D01*
X175179000Y-62170073D01*
X175179000Y-62035927D01*
X175152829Y-61904360D01*
X175101494Y-61780426D01*
X175026967Y-61668888D01*
X174932112Y-61574033D01*
X174820574Y-61499506D01*
X174696640Y-61448171D01*
X174565073Y-61422000D01*
X174430927Y-61422000D01*
X174299360Y-61448171D01*
X174175426Y-61499506D01*
X174063888Y-61574033D01*
X173969033Y-61668888D01*
X173894506Y-61780426D01*
X173843171Y-61904360D01*
X173817000Y-62035927D01*
X156891000Y-62035927D01*
X156864829Y-61904360D01*
X156813494Y-61780426D01*
X156738967Y-61668888D01*
X156644112Y-61574033D01*
X156532574Y-61499506D01*
X156408640Y-61448171D01*
X156277073Y-61422000D01*
X156142927Y-61422000D01*
X156011360Y-61448171D01*
X155887426Y-61499506D01*
X155775888Y-61574033D01*
X155681033Y-61668888D01*
X155606506Y-61780426D01*
X155555171Y-61904360D01*
X155529000Y-62035927D01*
X155529000Y-62170073D01*
X155555171Y-62301640D01*
X155606506Y-62425574D01*
X155681033Y-62537112D01*
X155775888Y-62631967D01*
X155887426Y-62706494D01*
X155963488Y-62738000D01*
X155887426Y-62769506D01*
X155775888Y-62844033D01*
X155768756Y-62851165D01*
X155446000Y-62528409D01*
X155446000Y-60511927D01*
X157053000Y-60511927D01*
X157053000Y-60646073D01*
X157079171Y-60777640D01*
X157130506Y-60901574D01*
X157205033Y-61013112D01*
X157299888Y-61107967D01*
X157411426Y-61182494D01*
X157535360Y-61233829D01*
X157666927Y-61260000D01*
X157801073Y-61260000D01*
X157932640Y-61233829D01*
X158056574Y-61182494D01*
X158168112Y-61107967D01*
X158262967Y-61013112D01*
X158337494Y-60901574D01*
X158369000Y-60825512D01*
X158400506Y-60901574D01*
X158475033Y-61013112D01*
X158569888Y-61107967D01*
X158681426Y-61182494D01*
X158805360Y-61233829D01*
X158936927Y-61260000D01*
X159071073Y-61260000D01*
X159202640Y-61233829D01*
X159326574Y-61182494D01*
X159438112Y-61107967D01*
X159532967Y-61013112D01*
X159607494Y-60901574D01*
X159639000Y-60825512D01*
X159670506Y-60901574D01*
X159745033Y-61013112D01*
X159839888Y-61107967D01*
X159951426Y-61182494D01*
X160075360Y-61233829D01*
X160206927Y-61260000D01*
X160341073Y-61260000D01*
X160472640Y-61233829D01*
X160596574Y-61182494D01*
X160708112Y-61107967D01*
X160802967Y-61013112D01*
X160877494Y-60901574D01*
X160909000Y-60825512D01*
X160940506Y-60901574D01*
X161015033Y-61013112D01*
X161109888Y-61107967D01*
X161221426Y-61182494D01*
X161345360Y-61233829D01*
X161476927Y-61260000D01*
X161611073Y-61260000D01*
X161742640Y-61233829D01*
X161866574Y-61182494D01*
X161978112Y-61107967D01*
X162072967Y-61013112D01*
X162147494Y-60901574D01*
X162179000Y-60825512D01*
X162210506Y-60901574D01*
X162285033Y-61013112D01*
X162379888Y-61107967D01*
X162491426Y-61182494D01*
X162615360Y-61233829D01*
X162746927Y-61260000D01*
X162881073Y-61260000D01*
X163012640Y-61233829D01*
X163136574Y-61182494D01*
X163248112Y-61107967D01*
X163342967Y-61013112D01*
X163417494Y-60901574D01*
X163449000Y-60825512D01*
X163480506Y-60901574D01*
X163555033Y-61013112D01*
X163649888Y-61107967D01*
X163761426Y-61182494D01*
X163885360Y-61233829D01*
X164016927Y-61260000D01*
X164151073Y-61260000D01*
X164282640Y-61233829D01*
X164406574Y-61182494D01*
X164518112Y-61107967D01*
X164612967Y-61013112D01*
X164687494Y-60901574D01*
X164719000Y-60825512D01*
X164750506Y-60901574D01*
X164825033Y-61013112D01*
X164919888Y-61107967D01*
X165031426Y-61182494D01*
X165155360Y-61233829D01*
X165286927Y-61260000D01*
X165421073Y-61260000D01*
X165552640Y-61233829D01*
X165676574Y-61182494D01*
X165788112Y-61107967D01*
X165882967Y-61013112D01*
X165957494Y-60901574D01*
X165989000Y-60825512D01*
X166020506Y-60901574D01*
X166095033Y-61013112D01*
X166189888Y-61107967D01*
X166301426Y-61182494D01*
X166425360Y-61233829D01*
X166556927Y-61260000D01*
X166691073Y-61260000D01*
X166822640Y-61233829D01*
X166946574Y-61182494D01*
X167058112Y-61107967D01*
X167152967Y-61013112D01*
X167227494Y-60901574D01*
X167259000Y-60825512D01*
X167290506Y-60901574D01*
X167365033Y-61013112D01*
X167459888Y-61107967D01*
X167571426Y-61182494D01*
X167695360Y-61233829D01*
X167826927Y-61260000D01*
X167961073Y-61260000D01*
X168092640Y-61233829D01*
X168216574Y-61182494D01*
X168328112Y-61107967D01*
X168422967Y-61013112D01*
X168497494Y-60901574D01*
X168529000Y-60825512D01*
X168560506Y-60901574D01*
X168635033Y-61013112D01*
X168729888Y-61107967D01*
X168841426Y-61182494D01*
X168965360Y-61233829D01*
X169096927Y-61260000D01*
X169231073Y-61260000D01*
X169362640Y-61233829D01*
X169486574Y-61182494D01*
X169598112Y-61107967D01*
X169692967Y-61013112D01*
X169767494Y-60901574D01*
X169799000Y-60825512D01*
X169830506Y-60901574D01*
X169905033Y-61013112D01*
X169999888Y-61107967D01*
X170111426Y-61182494D01*
X170235360Y-61233829D01*
X170366927Y-61260000D01*
X170501073Y-61260000D01*
X170632640Y-61233829D01*
X170756574Y-61182494D01*
X170868112Y-61107967D01*
X170962967Y-61013112D01*
X171037494Y-60901574D01*
X171069000Y-60825512D01*
X171100506Y-60901574D01*
X171175033Y-61013112D01*
X171269888Y-61107967D01*
X171381426Y-61182494D01*
X171505360Y-61233829D01*
X171636927Y-61260000D01*
X171771073Y-61260000D01*
X171902640Y-61233829D01*
X172026574Y-61182494D01*
X172138112Y-61107967D01*
X172232967Y-61013112D01*
X172307494Y-60901574D01*
X172358829Y-60777640D01*
X172385000Y-60646073D01*
X172385000Y-60511927D01*
X172358829Y-60380360D01*
X172307494Y-60256426D01*
X172232967Y-60144888D01*
X172210000Y-60121921D01*
X172210000Y-59876927D01*
X172293000Y-59876927D01*
X172293000Y-60011073D01*
X172319171Y-60142640D01*
X172370506Y-60266574D01*
X172445033Y-60378112D01*
X172539888Y-60472967D01*
X172603543Y-60515500D01*
X172539888Y-60558033D01*
X172445033Y-60652888D01*
X172370506Y-60764426D01*
X172319171Y-60888360D01*
X172293000Y-61019927D01*
X172293000Y-61154073D01*
X172319171Y-61285640D01*
X172370506Y-61409574D01*
X172445033Y-61521112D01*
X172539888Y-61615967D01*
X172651426Y-61690494D01*
X172775360Y-61741829D01*
X172906927Y-61768000D01*
X173041073Y-61768000D01*
X173172640Y-61741829D01*
X173296574Y-61690494D01*
X173408112Y-61615967D01*
X173502967Y-61521112D01*
X173577494Y-61409574D01*
X173628829Y-61285640D01*
X173655000Y-61154073D01*
X173655000Y-61019927D01*
X173628829Y-60888360D01*
X173577494Y-60764426D01*
X173502967Y-60652888D01*
X173408112Y-60558033D01*
X173344457Y-60515500D01*
X173408112Y-60472967D01*
X173502967Y-60378112D01*
X173577494Y-60266574D01*
X173628829Y-60142640D01*
X173655000Y-60011073D01*
X173655000Y-59876927D01*
X173628829Y-59745360D01*
X173577494Y-59621426D01*
X173502967Y-59509888D01*
X173408112Y-59415033D01*
X173296574Y-59340506D01*
X173172640Y-59289171D01*
X173041073Y-59263000D01*
X172906927Y-59263000D01*
X172775360Y-59289171D01*
X172651426Y-59340506D01*
X172539888Y-59415033D01*
X172445033Y-59509888D01*
X172370506Y-59621426D01*
X172319171Y-59745360D01*
X172293000Y-59876927D01*
X172210000Y-59876927D01*
X172210000Y-59267422D01*
X172213527Y-59264527D01*
X172276759Y-59187479D01*
X172323745Y-59099575D01*
X172352678Y-59004193D01*
X172360000Y-58929854D01*
X172360000Y-58929847D01*
X172362447Y-58905001D01*
X172360000Y-58880155D01*
X172360000Y-33099079D01*
X172428888Y-33167967D01*
X172540426Y-33242494D01*
X172664360Y-33293829D01*
X172795927Y-33320000D01*
X172930073Y-33320000D01*
X173061640Y-33293829D01*
X173185574Y-33242494D01*
X173219239Y-33220000D01*
X173506761Y-33220000D01*
X173540426Y-33242494D01*
X173664360Y-33293829D01*
X173795927Y-33320000D01*
X173930073Y-33320000D01*
X174061640Y-33293829D01*
X174185574Y-33242494D01*
X174297112Y-33167967D01*
X174391967Y-33073112D01*
X174466494Y-32961574D01*
X174517829Y-32837640D01*
X174544000Y-32706073D01*
X174544000Y-32571927D01*
X174517829Y-32440360D01*
X174466494Y-32316426D01*
X174442400Y-32280367D01*
X174440312Y-31813701D01*
X174472322Y-31774696D01*
X174507701Y-31708508D01*
X174529487Y-31636689D01*
X174536843Y-31562000D01*
X174536843Y-29562000D01*
X174529487Y-29487311D01*
X174507701Y-29415492D01*
X174472322Y-29349304D01*
X174424711Y-29291289D01*
X174366696Y-29243678D01*
X174300508Y-29208299D01*
X174228689Y-29186513D01*
X174154000Y-29179157D01*
X173554000Y-29179157D01*
X173479311Y-29186513D01*
X173407492Y-29208299D01*
X173354000Y-29236892D01*
X173300508Y-29208299D01*
X173228689Y-29186513D01*
X173154000Y-29179157D01*
X172554000Y-29179157D01*
X172479311Y-29186513D01*
X172407492Y-29208299D01*
X172354000Y-29236892D01*
X172300508Y-29208299D01*
X172228689Y-29186513D01*
X172154000Y-29179157D01*
X171554000Y-29179157D01*
X171479311Y-29186513D01*
X171407492Y-29208299D01*
X171354000Y-29236892D01*
X171300508Y-29208299D01*
X171228689Y-29186513D01*
X171154000Y-29179157D01*
X170554000Y-29179157D01*
X170479311Y-29186513D01*
X170407492Y-29208299D01*
X170354000Y-29236892D01*
X170300508Y-29208299D01*
X170228689Y-29186513D01*
X170154000Y-29179157D01*
X169554000Y-29179157D01*
X169479311Y-29186513D01*
X169407492Y-29208299D01*
X169354000Y-29236892D01*
X169300508Y-29208299D01*
X169228689Y-29186513D01*
X169154000Y-29179157D01*
X168554000Y-29179157D01*
X168479311Y-29186513D01*
X168407492Y-29208299D01*
X168354000Y-29236892D01*
X168300508Y-29208299D01*
X168228689Y-29186513D01*
X168154000Y-29179157D01*
X167554000Y-29179157D01*
X167479311Y-29186513D01*
X167407492Y-29208299D01*
X167354000Y-29236892D01*
X167300508Y-29208299D01*
X167228689Y-29186513D01*
X167154000Y-29179157D01*
X166554000Y-29179157D01*
X166479311Y-29186513D01*
X166407492Y-29208299D01*
X166354000Y-29236892D01*
X166300508Y-29208299D01*
X166228689Y-29186513D01*
X166154000Y-29179157D01*
X165554000Y-29179157D01*
X165479311Y-29186513D01*
X165407492Y-29208299D01*
X165354000Y-29236892D01*
X165300508Y-29208299D01*
X165228689Y-29186513D01*
X165154000Y-29179157D01*
X164554000Y-29179157D01*
X164479311Y-29186513D01*
X164407492Y-29208299D01*
X164354000Y-29236892D01*
X164300508Y-29208299D01*
X164228689Y-29186513D01*
X164154000Y-29179157D01*
X163554000Y-29179157D01*
X163479311Y-29186513D01*
X163407492Y-29208299D01*
X163354000Y-29236892D01*
X163300508Y-29208299D01*
X163228689Y-29186513D01*
X163154000Y-29179157D01*
X162554000Y-29179157D01*
X162479311Y-29186513D01*
X162407492Y-29208299D01*
X162354000Y-29236892D01*
X162300508Y-29208299D01*
X162228689Y-29186513D01*
X162154000Y-29179157D01*
X161554000Y-29179157D01*
X161479311Y-29186513D01*
X161407492Y-29208299D01*
X161354000Y-29236892D01*
X161300508Y-29208299D01*
X161228689Y-29186513D01*
X161154000Y-29179157D01*
X160554000Y-29179157D01*
X160479311Y-29186513D01*
X160407492Y-29208299D01*
X160354000Y-29236892D01*
X160300508Y-29208299D01*
X160228689Y-29186513D01*
X160154000Y-29179157D01*
X160076250Y-29181000D01*
X159981000Y-29276250D01*
X159981000Y-30435000D01*
X160001000Y-30435000D01*
X160001000Y-30689000D01*
X159981000Y-30689000D01*
X159981000Y-31847750D01*
X160076250Y-31943000D01*
X160154000Y-31944843D01*
X160228689Y-31937487D01*
X160300508Y-31915701D01*
X160348001Y-31890315D01*
X160348000Y-56233408D01*
X157393781Y-59187628D01*
X157374474Y-59203473D01*
X157311242Y-59280521D01*
X157296020Y-59309000D01*
X157264255Y-59368426D01*
X157235322Y-59463808D01*
X157225553Y-59563000D01*
X157228001Y-59587856D01*
X157228000Y-60121921D01*
X157205033Y-60144888D01*
X157130506Y-60256426D01*
X157079171Y-60380360D01*
X157053000Y-60511927D01*
X155446000Y-60511927D01*
X155446000Y-60153591D01*
X159194220Y-56405372D01*
X159213527Y-56389527D01*
X159276759Y-56312479D01*
X159323745Y-56224575D01*
X159352678Y-56129193D01*
X159360000Y-56054854D01*
X159360000Y-56054853D01*
X159362448Y-56030000D01*
X159360000Y-56005146D01*
X159360000Y-31890315D01*
X159407492Y-31915701D01*
X159479311Y-31937487D01*
X159554000Y-31944843D01*
X159631750Y-31943000D01*
X159727000Y-31847750D01*
X159727000Y-30689000D01*
X159707000Y-30689000D01*
X159707000Y-30435000D01*
X159727000Y-30435000D01*
X159727000Y-29276250D01*
X159631750Y-29181000D01*
X159554000Y-29179157D01*
X159479311Y-29186513D01*
X159407492Y-29208299D01*
X159354000Y-29236892D01*
X159300508Y-29208299D01*
X159228689Y-29186513D01*
X159154000Y-29179157D01*
X158554000Y-29179157D01*
X158479311Y-29186513D01*
X158407492Y-29208299D01*
X158354000Y-29236892D01*
X158300508Y-29208299D01*
X158228689Y-29186513D01*
X158154000Y-29179157D01*
X158076250Y-29181000D01*
X157981000Y-29276250D01*
X157981000Y-30435000D01*
X158001000Y-30435000D01*
X158001000Y-30689000D01*
X157981000Y-30689000D01*
X157981000Y-31847750D01*
X158076250Y-31943000D01*
X158154000Y-31944843D01*
X158228689Y-31937487D01*
X158300508Y-31915701D01*
X158348001Y-31890315D01*
X158348000Y-55820408D01*
X154599781Y-59568628D01*
X154580474Y-59584473D01*
X154517242Y-59661521D01*
X154505029Y-59684370D01*
X154470255Y-59749426D01*
X154441322Y-59844808D01*
X154431553Y-59944000D01*
X152094000Y-59944000D01*
X152094000Y-44958000D01*
X152146000Y-44958000D01*
X152146000Y-52578000D01*
X152148440Y-52602776D01*
X152155667Y-52626601D01*
X152167403Y-52648557D01*
X152183197Y-52667803D01*
X152202443Y-52683597D01*
X152224399Y-52695333D01*
X152248224Y-52702560D01*
X152273000Y-52705000D01*
X158115000Y-52705000D01*
X158139776Y-52702560D01*
X158163601Y-52695333D01*
X158185557Y-52683597D01*
X158204803Y-52667803D01*
X158220597Y-52648557D01*
X158232333Y-52626601D01*
X158239560Y-52602776D01*
X158242000Y-52578000D01*
X158242000Y-44958000D01*
X158239560Y-44933224D01*
X158232333Y-44909399D01*
X158220597Y-44887443D01*
X158204803Y-44868197D01*
X158185557Y-44852403D01*
X158163601Y-44840667D01*
X158139776Y-44833440D01*
X158115000Y-44831000D01*
X152273000Y-44831000D01*
X152248224Y-44833440D01*
X152224399Y-44840667D01*
X152202443Y-44852403D01*
X152183197Y-44868197D01*
X152167403Y-44887443D01*
X152155667Y-44909399D01*
X152148440Y-44933224D01*
X152146000Y-44958000D01*
X152094000Y-44958000D01*
X152094000Y-31562000D01*
X156171157Y-31562000D01*
X156178513Y-31636689D01*
X156200299Y-31708508D01*
X156235678Y-31774696D01*
X156283289Y-31832711D01*
X156341304Y-31880322D01*
X156407492Y-31915701D01*
X156479311Y-31937487D01*
X156554000Y-31944843D01*
X156631750Y-31943000D01*
X156727000Y-31847750D01*
X156727000Y-30689000D01*
X156981000Y-30689000D01*
X156981000Y-31847750D01*
X157076250Y-31943000D01*
X157154000Y-31944843D01*
X157228689Y-31937487D01*
X157300508Y-31915701D01*
X157354000Y-31887108D01*
X157407492Y-31915701D01*
X157479311Y-31937487D01*
X157554000Y-31944843D01*
X157631750Y-31943000D01*
X157727000Y-31847750D01*
X157727000Y-30689000D01*
X156981000Y-30689000D01*
X156727000Y-30689000D01*
X156268250Y-30689000D01*
X156173000Y-30784250D01*
X156171157Y-31562000D01*
X152094000Y-31562000D01*
X152094000Y-29562000D01*
X156171157Y-29562000D01*
X156173000Y-30339750D01*
X156268250Y-30435000D01*
X156727000Y-30435000D01*
X156727000Y-29276250D01*
X156981000Y-29276250D01*
X156981000Y-30435000D01*
X157727000Y-30435000D01*
X157727000Y-29276250D01*
X157631750Y-29181000D01*
X157554000Y-29179157D01*
X157479311Y-29186513D01*
X157407492Y-29208299D01*
X157354000Y-29236892D01*
X157300508Y-29208299D01*
X157228689Y-29186513D01*
X157154000Y-29179157D01*
X157076250Y-29181000D01*
X156981000Y-29276250D01*
X156727000Y-29276250D01*
X156631750Y-29181000D01*
X156554000Y-29179157D01*
X156479311Y-29186513D01*
X156407492Y-29208299D01*
X156341304Y-29243678D01*
X156283289Y-29291289D01*
X156235678Y-29349304D01*
X156200299Y-29415492D01*
X156178513Y-29487311D01*
X156171157Y-29562000D01*
X152094000Y-29562000D01*
X152094000Y-25803305D01*
X152118904Y-25549313D01*
X152186189Y-25326455D01*
X152295480Y-25120909D01*
X152442618Y-24940500D01*
X152621986Y-24792115D01*
X152826763Y-24681391D01*
X153049152Y-24612549D01*
X153301753Y-24586000D01*
X177396695Y-24586000D01*
X177650687Y-24610904D01*
G37*
G04 #@! TD.AperFunction*
M02*
