G04 #@! TF.GenerationSoftware,KiCad,Pcbnew,(5.1.9)-1*
G04 #@! TF.CreationDate,2021-05-18T14:16:41+01:00*
G04 #@! TF.ProjectId,RGBtoHDMI Amiga Denise PLCC SMT Breakout FFC,52474274-6f48-4444-9d49-20416d696761,1*
G04 #@! TF.SameCoordinates,Original*
G04 #@! TF.FileFunction,Copper,L2,Bot*
G04 #@! TF.FilePolarity,Positive*
%FSLAX46Y46*%
G04 Gerber Fmt 4.6, Leading zero omitted, Abs format (unit mm)*
G04 Created by KiCad (PCBNEW (5.1.9)-1) date 2021-05-18 14:16:41*
%MOMM*%
%LPD*%
G01*
G04 APERTURE LIST*
G04 #@! TA.AperFunction,SMDPad,CuDef*
%ADD10R,1.925000X0.700000*%
G04 #@! TD*
G04 #@! TA.AperFunction,SMDPad,CuDef*
%ADD11R,0.700000X1.925000*%
G04 #@! TD*
G04 #@! TA.AperFunction,ViaPad*
%ADD12C,0.600000*%
G04 #@! TD*
G04 #@! TA.AperFunction,Conductor*
%ADD13C,0.254000*%
G04 #@! TD*
G04 #@! TA.AperFunction,Conductor*
%ADD14C,0.100000*%
G04 #@! TD*
G04 APERTURE END LIST*
D10*
X156221500Y-77343000D03*
X156221500Y-76073000D03*
X156221500Y-74803000D03*
X156221500Y-73533000D03*
X156221500Y-72263000D03*
X156221500Y-70993000D03*
X156221500Y-69723000D03*
X156221500Y-68453000D03*
X156221500Y-67183000D03*
X156221500Y-65913000D03*
X156221500Y-64643000D03*
X156221500Y-63373000D03*
X156221500Y-62103000D03*
D11*
X157734000Y-60590500D03*
X159004000Y-60590500D03*
X160274000Y-60590500D03*
X161544000Y-60590500D03*
X162814000Y-60590500D03*
X164084000Y-60590500D03*
X165354000Y-60590500D03*
X166624000Y-60590500D03*
X167894000Y-60590500D03*
X169164000Y-60590500D03*
X170434000Y-60590500D03*
X171704000Y-60590500D03*
X172974000Y-60590500D03*
D10*
X174486500Y-62103000D03*
X174486500Y-63373000D03*
X174486500Y-64643000D03*
X174486500Y-65913000D03*
X174486500Y-67183000D03*
X174486500Y-68453000D03*
X174486500Y-69723000D03*
X174486500Y-70993000D03*
X174486500Y-72263000D03*
X174486500Y-73533000D03*
X174486500Y-74803000D03*
X174486500Y-76073000D03*
X174486500Y-77343000D03*
D11*
X157734000Y-78855500D03*
X159004000Y-78855500D03*
X160274000Y-78855500D03*
X161544000Y-78855500D03*
X162814000Y-78855500D03*
X164084000Y-78855500D03*
X172974000Y-78855500D03*
X171704000Y-78855500D03*
X170434000Y-78855500D03*
X169164000Y-78855500D03*
X167894000Y-78855500D03*
X166624000Y-78855500D03*
X165354000Y-78855500D03*
D12*
X157861000Y-32512000D03*
X156845000Y-32512000D03*
X156210000Y-69723000D03*
X166624000Y-60579000D03*
X167894000Y-60579000D03*
X169164000Y-60579000D03*
X170434000Y-60579000D03*
X171704000Y-60579000D03*
X172974000Y-61087000D03*
X172974000Y-59944000D03*
X172863000Y-32639000D03*
X173863000Y-32639000D03*
X156210000Y-63373000D03*
X157734000Y-60579000D03*
X159004000Y-60579000D03*
X160274000Y-60579000D03*
X161544000Y-60579000D03*
X162814000Y-60579000D03*
X164084000Y-60579000D03*
X165354000Y-60579000D03*
X164084000Y-78867000D03*
X161544000Y-78867000D03*
X159004000Y-78867000D03*
X156210000Y-77343000D03*
X162814000Y-78867000D03*
X160274000Y-78867000D03*
X156210000Y-76073000D03*
X156210000Y-73533000D03*
X156210000Y-70993000D03*
X156210000Y-68453000D03*
X156210000Y-74803000D03*
X156210000Y-72263000D03*
X156210000Y-64643000D03*
X174498000Y-64643000D03*
X174498000Y-67183000D03*
X174498000Y-69723000D03*
X174498000Y-72263000D03*
X174498000Y-74803000D03*
X174498000Y-63373000D03*
X174498000Y-65913000D03*
X174498000Y-68453000D03*
X174498000Y-70993000D03*
X174498000Y-73533000D03*
X174498000Y-76073000D03*
X170434000Y-78867000D03*
X167894000Y-78867000D03*
X165354000Y-78867000D03*
X174498000Y-77343000D03*
X171704000Y-78867000D03*
X169164000Y-78867000D03*
X166624000Y-78867000D03*
X156210000Y-67183000D03*
X157734000Y-78867000D03*
X156210000Y-62103000D03*
X174498000Y-62103000D03*
X172974000Y-78867000D03*
X156210000Y-65913000D03*
D13*
X177650687Y-24610904D02*
X177873545Y-24678189D01*
X178079091Y-24787480D01*
X178259500Y-24934618D01*
X178407885Y-25113986D01*
X178518609Y-25318763D01*
X178587451Y-25541152D01*
X178614001Y-25793762D01*
X178614000Y-81726119D01*
X177484119Y-82856000D01*
X152094000Y-82856000D01*
X152094000Y-61753000D01*
X154876157Y-61753000D01*
X154876157Y-62453000D01*
X154883513Y-62527689D01*
X154905299Y-62599508D01*
X154940678Y-62665696D01*
X154988289Y-62723711D01*
X155005700Y-62738000D01*
X154988289Y-62752289D01*
X154940678Y-62810304D01*
X154905299Y-62876492D01*
X154883513Y-62948311D01*
X154876157Y-63023000D01*
X154876157Y-63723000D01*
X154883513Y-63797689D01*
X154905299Y-63869508D01*
X154940678Y-63935696D01*
X154988289Y-63993711D01*
X155005700Y-64008000D01*
X154988289Y-64022289D01*
X154940678Y-64080304D01*
X154905299Y-64146492D01*
X154883513Y-64218311D01*
X154876157Y-64293000D01*
X154876157Y-64993000D01*
X154883513Y-65067689D01*
X154905299Y-65139508D01*
X154940678Y-65205696D01*
X154988289Y-65263711D01*
X155005700Y-65278000D01*
X154988289Y-65292289D01*
X154940678Y-65350304D01*
X154905299Y-65416492D01*
X154883513Y-65488311D01*
X154876157Y-65563000D01*
X154876157Y-66263000D01*
X154883513Y-66337689D01*
X154905299Y-66409508D01*
X154940678Y-66475696D01*
X154988289Y-66533711D01*
X155005700Y-66548000D01*
X154988289Y-66562289D01*
X154940678Y-66620304D01*
X154905299Y-66686492D01*
X154883513Y-66758311D01*
X154876157Y-66833000D01*
X154876157Y-67533000D01*
X154883513Y-67607689D01*
X154905299Y-67679508D01*
X154940678Y-67745696D01*
X154988289Y-67803711D01*
X155005700Y-67818000D01*
X154988289Y-67832289D01*
X154940678Y-67890304D01*
X154905299Y-67956492D01*
X154883513Y-68028311D01*
X154876157Y-68103000D01*
X154876157Y-68803000D01*
X154883513Y-68877689D01*
X154905299Y-68949508D01*
X154940678Y-69015696D01*
X154988289Y-69073711D01*
X155005700Y-69088000D01*
X154988289Y-69102289D01*
X154940678Y-69160304D01*
X154905299Y-69226492D01*
X154883513Y-69298311D01*
X154876157Y-69373000D01*
X154878000Y-69500750D01*
X154973250Y-69596000D01*
X156094500Y-69596000D01*
X156094500Y-69576000D01*
X156348500Y-69576000D01*
X156348500Y-69596000D01*
X157469750Y-69596000D01*
X157565000Y-69500750D01*
X157566843Y-69373000D01*
X157559487Y-69298311D01*
X157537701Y-69226492D01*
X157502322Y-69160304D01*
X157454711Y-69102289D01*
X157437300Y-69088000D01*
X157454711Y-69073711D01*
X157502322Y-69015696D01*
X157537701Y-68949508D01*
X157559487Y-68877689D01*
X157566843Y-68803000D01*
X157566843Y-68103000D01*
X157559487Y-68028311D01*
X157537701Y-67956492D01*
X157502322Y-67890304D01*
X157454711Y-67832289D01*
X157437300Y-67818000D01*
X157454711Y-67803711D01*
X157502322Y-67745696D01*
X157537701Y-67679508D01*
X157559487Y-67607689D01*
X157566843Y-67533000D01*
X157566843Y-66833000D01*
X157559487Y-66758311D01*
X157537701Y-66686492D01*
X157502322Y-66620304D01*
X157454711Y-66562289D01*
X157437300Y-66548000D01*
X157454711Y-66533711D01*
X157502322Y-66475696D01*
X157537701Y-66409508D01*
X157559487Y-66337689D01*
X157563325Y-66298718D01*
X159648000Y-66298718D01*
X159648000Y-66797282D01*
X159745265Y-67286265D01*
X159936057Y-67746878D01*
X160213044Y-68161418D01*
X160565582Y-68513956D01*
X160980122Y-68790943D01*
X161440735Y-68981735D01*
X161929718Y-69079000D01*
X162428282Y-69079000D01*
X162917265Y-68981735D01*
X163377878Y-68790943D01*
X163792418Y-68513956D01*
X164144956Y-68161418D01*
X164421943Y-67746878D01*
X164612735Y-67286265D01*
X164710000Y-66797282D01*
X164710000Y-66298718D01*
X165998000Y-66298718D01*
X165998000Y-66797282D01*
X166095265Y-67286265D01*
X166286057Y-67746878D01*
X166563044Y-68161418D01*
X166915582Y-68513956D01*
X167330122Y-68790943D01*
X167790735Y-68981735D01*
X168279718Y-69079000D01*
X168778282Y-69079000D01*
X169267265Y-68981735D01*
X169727878Y-68790943D01*
X170142418Y-68513956D01*
X170494956Y-68161418D01*
X170771943Y-67746878D01*
X170962735Y-67286265D01*
X171060000Y-66797282D01*
X171060000Y-66298718D01*
X170962735Y-65809735D01*
X170771943Y-65349122D01*
X170494956Y-64934582D01*
X170142418Y-64582044D01*
X169727878Y-64305057D01*
X169267265Y-64114265D01*
X168778282Y-64017000D01*
X168279718Y-64017000D01*
X167790735Y-64114265D01*
X167330122Y-64305057D01*
X166915582Y-64582044D01*
X166563044Y-64934582D01*
X166286057Y-65349122D01*
X166095265Y-65809735D01*
X165998000Y-66298718D01*
X164710000Y-66298718D01*
X164612735Y-65809735D01*
X164421943Y-65349122D01*
X164144956Y-64934582D01*
X163792418Y-64582044D01*
X163377878Y-64305057D01*
X162917265Y-64114265D01*
X162428282Y-64017000D01*
X161929718Y-64017000D01*
X161440735Y-64114265D01*
X160980122Y-64305057D01*
X160565582Y-64582044D01*
X160213044Y-64934582D01*
X159936057Y-65349122D01*
X159745265Y-65809735D01*
X159648000Y-66298718D01*
X157563325Y-66298718D01*
X157566843Y-66263000D01*
X157566843Y-65563000D01*
X157559487Y-65488311D01*
X157537701Y-65416492D01*
X157502322Y-65350304D01*
X157454711Y-65292289D01*
X157437300Y-65278000D01*
X157454711Y-65263711D01*
X157502322Y-65205696D01*
X157537701Y-65139508D01*
X157559487Y-65067689D01*
X157566843Y-64993000D01*
X157566843Y-64293000D01*
X157559487Y-64218311D01*
X157537701Y-64146492D01*
X157502322Y-64080304D01*
X157454711Y-64022289D01*
X157437300Y-64008000D01*
X157454711Y-63993711D01*
X157502322Y-63935696D01*
X157537701Y-63869508D01*
X157559487Y-63797689D01*
X157566843Y-63723000D01*
X157566843Y-63023000D01*
X157559487Y-62948311D01*
X157537701Y-62876492D01*
X157502322Y-62810304D01*
X157454711Y-62752289D01*
X157437300Y-62738000D01*
X157454711Y-62723711D01*
X157502322Y-62665696D01*
X157537701Y-62599508D01*
X157559487Y-62527689D01*
X157566843Y-62453000D01*
X157566843Y-61935843D01*
X158084000Y-61935843D01*
X158158689Y-61928487D01*
X158230508Y-61906701D01*
X158296696Y-61871322D01*
X158354711Y-61823711D01*
X158369000Y-61806300D01*
X158383289Y-61823711D01*
X158441304Y-61871322D01*
X158507492Y-61906701D01*
X158579311Y-61928487D01*
X158654000Y-61935843D01*
X159354000Y-61935843D01*
X159428689Y-61928487D01*
X159500508Y-61906701D01*
X159566696Y-61871322D01*
X159624711Y-61823711D01*
X159639000Y-61806300D01*
X159653289Y-61823711D01*
X159711304Y-61871322D01*
X159777492Y-61906701D01*
X159849311Y-61928487D01*
X159924000Y-61935843D01*
X160624000Y-61935843D01*
X160698689Y-61928487D01*
X160770508Y-61906701D01*
X160836696Y-61871322D01*
X160894711Y-61823711D01*
X160909000Y-61806300D01*
X160923289Y-61823711D01*
X160981304Y-61871322D01*
X161047492Y-61906701D01*
X161119311Y-61928487D01*
X161194000Y-61935843D01*
X161894000Y-61935843D01*
X161968689Y-61928487D01*
X162040508Y-61906701D01*
X162106696Y-61871322D01*
X162164711Y-61823711D01*
X162179000Y-61806300D01*
X162193289Y-61823711D01*
X162251304Y-61871322D01*
X162317492Y-61906701D01*
X162389311Y-61928487D01*
X162464000Y-61935843D01*
X163164000Y-61935843D01*
X163238689Y-61928487D01*
X163310508Y-61906701D01*
X163376696Y-61871322D01*
X163434711Y-61823711D01*
X163449000Y-61806300D01*
X163463289Y-61823711D01*
X163521304Y-61871322D01*
X163587492Y-61906701D01*
X163659311Y-61928487D01*
X163734000Y-61935843D01*
X164434000Y-61935843D01*
X164508689Y-61928487D01*
X164580508Y-61906701D01*
X164646696Y-61871322D01*
X164704711Y-61823711D01*
X164719000Y-61806300D01*
X164733289Y-61823711D01*
X164791304Y-61871322D01*
X164857492Y-61906701D01*
X164929311Y-61928487D01*
X165004000Y-61935843D01*
X165704000Y-61935843D01*
X165778689Y-61928487D01*
X165850508Y-61906701D01*
X165916696Y-61871322D01*
X165974711Y-61823711D01*
X165989000Y-61806300D01*
X166003289Y-61823711D01*
X166061304Y-61871322D01*
X166127492Y-61906701D01*
X166199311Y-61928487D01*
X166274000Y-61935843D01*
X166974000Y-61935843D01*
X167048689Y-61928487D01*
X167120508Y-61906701D01*
X167186696Y-61871322D01*
X167244711Y-61823711D01*
X167259000Y-61806300D01*
X167273289Y-61823711D01*
X167331304Y-61871322D01*
X167397492Y-61906701D01*
X167469311Y-61928487D01*
X167544000Y-61935843D01*
X168244000Y-61935843D01*
X168318689Y-61928487D01*
X168390508Y-61906701D01*
X168456696Y-61871322D01*
X168514711Y-61823711D01*
X168529000Y-61806300D01*
X168543289Y-61823711D01*
X168601304Y-61871322D01*
X168667492Y-61906701D01*
X168739311Y-61928487D01*
X168814000Y-61935843D01*
X169514000Y-61935843D01*
X169588689Y-61928487D01*
X169660508Y-61906701D01*
X169726696Y-61871322D01*
X169784711Y-61823711D01*
X169799000Y-61806300D01*
X169813289Y-61823711D01*
X169871304Y-61871322D01*
X169937492Y-61906701D01*
X170009311Y-61928487D01*
X170084000Y-61935843D01*
X170784000Y-61935843D01*
X170858689Y-61928487D01*
X170930508Y-61906701D01*
X170996696Y-61871322D01*
X171054711Y-61823711D01*
X171069000Y-61806300D01*
X171083289Y-61823711D01*
X171141304Y-61871322D01*
X171207492Y-61906701D01*
X171279311Y-61928487D01*
X171354000Y-61935843D01*
X172054000Y-61935843D01*
X172128689Y-61928487D01*
X172200508Y-61906701D01*
X172266696Y-61871322D01*
X172324711Y-61823711D01*
X172339000Y-61806300D01*
X172353289Y-61823711D01*
X172411304Y-61871322D01*
X172477492Y-61906701D01*
X172549311Y-61928487D01*
X172624000Y-61935843D01*
X172712739Y-61935843D01*
X172786860Y-61955704D01*
X172916270Y-61972741D01*
X172966000Y-61976000D01*
X173141157Y-61976000D01*
X173141157Y-62453000D01*
X173148513Y-62527689D01*
X173170299Y-62599508D01*
X173205678Y-62665696D01*
X173253289Y-62723711D01*
X173270700Y-62738000D01*
X173253289Y-62752289D01*
X173205678Y-62810304D01*
X173170299Y-62876492D01*
X173148513Y-62948311D01*
X173141157Y-63023000D01*
X173141157Y-63723000D01*
X173148513Y-63797689D01*
X173170299Y-63869508D01*
X173205678Y-63935696D01*
X173253289Y-63993711D01*
X173270700Y-64008000D01*
X173253289Y-64022289D01*
X173205678Y-64080304D01*
X173170299Y-64146492D01*
X173148513Y-64218311D01*
X173141157Y-64293000D01*
X173141157Y-64993000D01*
X173148513Y-65067689D01*
X173170299Y-65139508D01*
X173205678Y-65205696D01*
X173253289Y-65263711D01*
X173270700Y-65278000D01*
X173253289Y-65292289D01*
X173205678Y-65350304D01*
X173170299Y-65416492D01*
X173148513Y-65488311D01*
X173141157Y-65563000D01*
X173141157Y-66263000D01*
X173148513Y-66337689D01*
X173170299Y-66409508D01*
X173205678Y-66475696D01*
X173253289Y-66533711D01*
X173270700Y-66548000D01*
X173253289Y-66562289D01*
X173205678Y-66620304D01*
X173170299Y-66686492D01*
X173148513Y-66758311D01*
X173141157Y-66833000D01*
X173141157Y-67533000D01*
X173148513Y-67607689D01*
X173170299Y-67679508D01*
X173205678Y-67745696D01*
X173253289Y-67803711D01*
X173270700Y-67818000D01*
X173253289Y-67832289D01*
X173205678Y-67890304D01*
X173170299Y-67956492D01*
X173148513Y-68028311D01*
X173141157Y-68103000D01*
X173141157Y-68803000D01*
X173148513Y-68877689D01*
X173170299Y-68949508D01*
X173205678Y-69015696D01*
X173253289Y-69073711D01*
X173270700Y-69088000D01*
X173253289Y-69102289D01*
X173205678Y-69160304D01*
X173170299Y-69226492D01*
X173148513Y-69298311D01*
X173141157Y-69373000D01*
X173141157Y-70073000D01*
X173148513Y-70147689D01*
X173170299Y-70219508D01*
X173205678Y-70285696D01*
X173253289Y-70343711D01*
X173270700Y-70358000D01*
X173253289Y-70372289D01*
X173205678Y-70430304D01*
X173170299Y-70496492D01*
X173148513Y-70568311D01*
X173141157Y-70643000D01*
X173141157Y-71343000D01*
X173148513Y-71417689D01*
X173170299Y-71489508D01*
X173205678Y-71555696D01*
X173253289Y-71613711D01*
X173270700Y-71628000D01*
X173253289Y-71642289D01*
X173205678Y-71700304D01*
X173170299Y-71766492D01*
X173148513Y-71838311D01*
X173141157Y-71913000D01*
X173141157Y-72613000D01*
X173148513Y-72687689D01*
X173170299Y-72759508D01*
X173205678Y-72825696D01*
X173253289Y-72883711D01*
X173270700Y-72898000D01*
X173253289Y-72912289D01*
X173205678Y-72970304D01*
X173170299Y-73036492D01*
X173148513Y-73108311D01*
X173141157Y-73183000D01*
X173141157Y-73883000D01*
X173148513Y-73957689D01*
X173170299Y-74029508D01*
X173205678Y-74095696D01*
X173253289Y-74153711D01*
X173270700Y-74168000D01*
X173253289Y-74182289D01*
X173205678Y-74240304D01*
X173170299Y-74306492D01*
X173148513Y-74378311D01*
X173141157Y-74453000D01*
X173141157Y-75153000D01*
X173148513Y-75227689D01*
X173170299Y-75299508D01*
X173205678Y-75365696D01*
X173253289Y-75423711D01*
X173270700Y-75438000D01*
X173253289Y-75452289D01*
X173205678Y-75510304D01*
X173170299Y-75576492D01*
X173148513Y-75648311D01*
X173141157Y-75723000D01*
X173141157Y-76423000D01*
X173148513Y-76497689D01*
X173170299Y-76569508D01*
X173205678Y-76635696D01*
X173253289Y-76693711D01*
X173270700Y-76708000D01*
X173253289Y-76722289D01*
X173205678Y-76780304D01*
X173170299Y-76846492D01*
X173148513Y-76918311D01*
X173141157Y-76993000D01*
X173141157Y-77510157D01*
X172624000Y-77510157D01*
X172549311Y-77517513D01*
X172477492Y-77539299D01*
X172411304Y-77574678D01*
X172353289Y-77622289D01*
X172339000Y-77639700D01*
X172324711Y-77622289D01*
X172266696Y-77574678D01*
X172200508Y-77539299D01*
X172128689Y-77517513D01*
X172054000Y-77510157D01*
X171354000Y-77510157D01*
X171279311Y-77517513D01*
X171207492Y-77539299D01*
X171141304Y-77574678D01*
X171083289Y-77622289D01*
X171069000Y-77639700D01*
X171054711Y-77622289D01*
X170996696Y-77574678D01*
X170930508Y-77539299D01*
X170858689Y-77517513D01*
X170784000Y-77510157D01*
X170084000Y-77510157D01*
X170009311Y-77517513D01*
X169937492Y-77539299D01*
X169871304Y-77574678D01*
X169813289Y-77622289D01*
X169799000Y-77639700D01*
X169784711Y-77622289D01*
X169726696Y-77574678D01*
X169660508Y-77539299D01*
X169588689Y-77517513D01*
X169514000Y-77510157D01*
X168814000Y-77510157D01*
X168739311Y-77517513D01*
X168667492Y-77539299D01*
X168601304Y-77574678D01*
X168543289Y-77622289D01*
X168529000Y-77639700D01*
X168514711Y-77622289D01*
X168456696Y-77574678D01*
X168390508Y-77539299D01*
X168318689Y-77517513D01*
X168244000Y-77510157D01*
X167544000Y-77510157D01*
X167469311Y-77517513D01*
X167397492Y-77539299D01*
X167331304Y-77574678D01*
X167273289Y-77622289D01*
X167259000Y-77639700D01*
X167244711Y-77622289D01*
X167186696Y-77574678D01*
X167120508Y-77539299D01*
X167048689Y-77517513D01*
X166974000Y-77510157D01*
X166274000Y-77510157D01*
X166199311Y-77517513D01*
X166127492Y-77539299D01*
X166061304Y-77574678D01*
X166003289Y-77622289D01*
X165989000Y-77639700D01*
X165974711Y-77622289D01*
X165916696Y-77574678D01*
X165850508Y-77539299D01*
X165778689Y-77517513D01*
X165704000Y-77510157D01*
X165004000Y-77510157D01*
X164929311Y-77517513D01*
X164857492Y-77539299D01*
X164791304Y-77574678D01*
X164733289Y-77622289D01*
X164719000Y-77639700D01*
X164704711Y-77622289D01*
X164646696Y-77574678D01*
X164580508Y-77539299D01*
X164508689Y-77517513D01*
X164434000Y-77510157D01*
X163734000Y-77510157D01*
X163659311Y-77517513D01*
X163587492Y-77539299D01*
X163521304Y-77574678D01*
X163463289Y-77622289D01*
X163449000Y-77639700D01*
X163434711Y-77622289D01*
X163376696Y-77574678D01*
X163310508Y-77539299D01*
X163238689Y-77517513D01*
X163164000Y-77510157D01*
X162464000Y-77510157D01*
X162389311Y-77517513D01*
X162317492Y-77539299D01*
X162251304Y-77574678D01*
X162193289Y-77622289D01*
X162179000Y-77639700D01*
X162164711Y-77622289D01*
X162106696Y-77574678D01*
X162040508Y-77539299D01*
X161968689Y-77517513D01*
X161894000Y-77510157D01*
X161194000Y-77510157D01*
X161119311Y-77517513D01*
X161047492Y-77539299D01*
X160981304Y-77574678D01*
X160923289Y-77622289D01*
X160909000Y-77639700D01*
X160894711Y-77622289D01*
X160836696Y-77574678D01*
X160770508Y-77539299D01*
X160698689Y-77517513D01*
X160624000Y-77510157D01*
X159924000Y-77510157D01*
X159849311Y-77517513D01*
X159777492Y-77539299D01*
X159711304Y-77574678D01*
X159653289Y-77622289D01*
X159639000Y-77639700D01*
X159624711Y-77622289D01*
X159566696Y-77574678D01*
X159500508Y-77539299D01*
X159428689Y-77517513D01*
X159354000Y-77510157D01*
X158654000Y-77510157D01*
X158579311Y-77517513D01*
X158507492Y-77539299D01*
X158441304Y-77574678D01*
X158383289Y-77622289D01*
X158369000Y-77639700D01*
X158354711Y-77622289D01*
X158296696Y-77574678D01*
X158230508Y-77539299D01*
X158158689Y-77517513D01*
X158084000Y-77510157D01*
X157566843Y-77510157D01*
X157566843Y-76993000D01*
X157559487Y-76918311D01*
X157537701Y-76846492D01*
X157502322Y-76780304D01*
X157454711Y-76722289D01*
X157437300Y-76708000D01*
X157454711Y-76693711D01*
X157502322Y-76635696D01*
X157537701Y-76569508D01*
X157559487Y-76497689D01*
X157566843Y-76423000D01*
X157566843Y-75723000D01*
X157559487Y-75648311D01*
X157537701Y-75576492D01*
X157502322Y-75510304D01*
X157454711Y-75452289D01*
X157437300Y-75438000D01*
X157454711Y-75423711D01*
X157502322Y-75365696D01*
X157537701Y-75299508D01*
X157559487Y-75227689D01*
X157566843Y-75153000D01*
X157566843Y-74453000D01*
X157559487Y-74378311D01*
X157537701Y-74306492D01*
X157502322Y-74240304D01*
X157454711Y-74182289D01*
X157437300Y-74168000D01*
X157454711Y-74153711D01*
X157502322Y-74095696D01*
X157537701Y-74029508D01*
X157559487Y-73957689D01*
X157566843Y-73883000D01*
X157566843Y-73183000D01*
X157559487Y-73108311D01*
X157537701Y-73036492D01*
X157502322Y-72970304D01*
X157454711Y-72912289D01*
X157437300Y-72898000D01*
X157454711Y-72883711D01*
X157502322Y-72825696D01*
X157537701Y-72759508D01*
X157559487Y-72687689D01*
X157563325Y-72648718D01*
X159648000Y-72648718D01*
X159648000Y-73147282D01*
X159745265Y-73636265D01*
X159936057Y-74096878D01*
X160213044Y-74511418D01*
X160565582Y-74863956D01*
X160980122Y-75140943D01*
X161440735Y-75331735D01*
X161929718Y-75429000D01*
X162428282Y-75429000D01*
X162917265Y-75331735D01*
X163377878Y-75140943D01*
X163792418Y-74863956D01*
X164144956Y-74511418D01*
X164421943Y-74096878D01*
X164612735Y-73636265D01*
X164710000Y-73147282D01*
X164710000Y-72648718D01*
X165998000Y-72648718D01*
X165998000Y-73147282D01*
X166095265Y-73636265D01*
X166286057Y-74096878D01*
X166563044Y-74511418D01*
X166915582Y-74863956D01*
X167330122Y-75140943D01*
X167790735Y-75331735D01*
X168279718Y-75429000D01*
X168778282Y-75429000D01*
X169267265Y-75331735D01*
X169727878Y-75140943D01*
X170142418Y-74863956D01*
X170494956Y-74511418D01*
X170771943Y-74096878D01*
X170962735Y-73636265D01*
X171060000Y-73147282D01*
X171060000Y-72648718D01*
X170962735Y-72159735D01*
X170771943Y-71699122D01*
X170494956Y-71284582D01*
X170142418Y-70932044D01*
X169727878Y-70655057D01*
X169267265Y-70464265D01*
X168778282Y-70367000D01*
X168279718Y-70367000D01*
X167790735Y-70464265D01*
X167330122Y-70655057D01*
X166915582Y-70932044D01*
X166563044Y-71284582D01*
X166286057Y-71699122D01*
X166095265Y-72159735D01*
X165998000Y-72648718D01*
X164710000Y-72648718D01*
X164612735Y-72159735D01*
X164421943Y-71699122D01*
X164144956Y-71284582D01*
X163792418Y-70932044D01*
X163377878Y-70655057D01*
X162917265Y-70464265D01*
X162428282Y-70367000D01*
X161929718Y-70367000D01*
X161440735Y-70464265D01*
X160980122Y-70655057D01*
X160565582Y-70932044D01*
X160213044Y-71284582D01*
X159936057Y-71699122D01*
X159745265Y-72159735D01*
X159648000Y-72648718D01*
X157563325Y-72648718D01*
X157566843Y-72613000D01*
X157566843Y-71913000D01*
X157559487Y-71838311D01*
X157537701Y-71766492D01*
X157502322Y-71700304D01*
X157454711Y-71642289D01*
X157437300Y-71628000D01*
X157454711Y-71613711D01*
X157502322Y-71555696D01*
X157537701Y-71489508D01*
X157559487Y-71417689D01*
X157566843Y-71343000D01*
X157566843Y-70643000D01*
X157559487Y-70568311D01*
X157537701Y-70496492D01*
X157502322Y-70430304D01*
X157454711Y-70372289D01*
X157437300Y-70358000D01*
X157454711Y-70343711D01*
X157502322Y-70285696D01*
X157537701Y-70219508D01*
X157559487Y-70147689D01*
X157566843Y-70073000D01*
X157565000Y-69945250D01*
X157469750Y-69850000D01*
X156348500Y-69850000D01*
X156348500Y-69870000D01*
X156094500Y-69870000D01*
X156094500Y-69850000D01*
X154973250Y-69850000D01*
X154878000Y-69945250D01*
X154876157Y-70073000D01*
X154883513Y-70147689D01*
X154905299Y-70219508D01*
X154940678Y-70285696D01*
X154988289Y-70343711D01*
X155005700Y-70358000D01*
X154988289Y-70372289D01*
X154940678Y-70430304D01*
X154905299Y-70496492D01*
X154883513Y-70568311D01*
X154876157Y-70643000D01*
X154876157Y-71343000D01*
X154883513Y-71417689D01*
X154905299Y-71489508D01*
X154940678Y-71555696D01*
X154988289Y-71613711D01*
X155005700Y-71628000D01*
X154988289Y-71642289D01*
X154940678Y-71700304D01*
X154905299Y-71766492D01*
X154883513Y-71838311D01*
X154876157Y-71913000D01*
X154876157Y-72613000D01*
X154883513Y-72687689D01*
X154905299Y-72759508D01*
X154940678Y-72825696D01*
X154988289Y-72883711D01*
X155005700Y-72898000D01*
X154988289Y-72912289D01*
X154940678Y-72970304D01*
X154905299Y-73036492D01*
X154883513Y-73108311D01*
X154876157Y-73183000D01*
X154876157Y-73883000D01*
X154883513Y-73957689D01*
X154905299Y-74029508D01*
X154940678Y-74095696D01*
X154988289Y-74153711D01*
X155005700Y-74168000D01*
X154988289Y-74182289D01*
X154940678Y-74240304D01*
X154905299Y-74306492D01*
X154883513Y-74378311D01*
X154876157Y-74453000D01*
X154876157Y-75153000D01*
X154883513Y-75227689D01*
X154905299Y-75299508D01*
X154940678Y-75365696D01*
X154988289Y-75423711D01*
X155005700Y-75438000D01*
X154988289Y-75452289D01*
X154940678Y-75510304D01*
X154905299Y-75576492D01*
X154883513Y-75648311D01*
X154876157Y-75723000D01*
X154876157Y-76423000D01*
X154883513Y-76497689D01*
X154905299Y-76569508D01*
X154940678Y-76635696D01*
X154988289Y-76693711D01*
X155005700Y-76708000D01*
X154988289Y-76722289D01*
X154940678Y-76780304D01*
X154905299Y-76846492D01*
X154883513Y-76918311D01*
X154876157Y-76993000D01*
X154876157Y-77693000D01*
X154883513Y-77767689D01*
X154905299Y-77839508D01*
X154940678Y-77905696D01*
X154988289Y-77963711D01*
X155046304Y-78011322D01*
X155112492Y-78046701D01*
X155184311Y-78068487D01*
X155259000Y-78075843D01*
X157001157Y-78075843D01*
X157001157Y-79818000D01*
X157008513Y-79892689D01*
X157030299Y-79964508D01*
X157065678Y-80030696D01*
X157113289Y-80088711D01*
X157171304Y-80136322D01*
X157237492Y-80171701D01*
X157309311Y-80193487D01*
X157384000Y-80200843D01*
X158084000Y-80200843D01*
X158158689Y-80193487D01*
X158230508Y-80171701D01*
X158296696Y-80136322D01*
X158354711Y-80088711D01*
X158369000Y-80071300D01*
X158383289Y-80088711D01*
X158441304Y-80136322D01*
X158507492Y-80171701D01*
X158579311Y-80193487D01*
X158654000Y-80200843D01*
X159354000Y-80200843D01*
X159428689Y-80193487D01*
X159500508Y-80171701D01*
X159566696Y-80136322D01*
X159624711Y-80088711D01*
X159639000Y-80071300D01*
X159653289Y-80088711D01*
X159711304Y-80136322D01*
X159777492Y-80171701D01*
X159849311Y-80193487D01*
X159924000Y-80200843D01*
X160624000Y-80200843D01*
X160698689Y-80193487D01*
X160770508Y-80171701D01*
X160836696Y-80136322D01*
X160894711Y-80088711D01*
X160909000Y-80071300D01*
X160923289Y-80088711D01*
X160981304Y-80136322D01*
X161047492Y-80171701D01*
X161119311Y-80193487D01*
X161194000Y-80200843D01*
X161894000Y-80200843D01*
X161968689Y-80193487D01*
X162040508Y-80171701D01*
X162106696Y-80136322D01*
X162164711Y-80088711D01*
X162179000Y-80071300D01*
X162193289Y-80088711D01*
X162251304Y-80136322D01*
X162317492Y-80171701D01*
X162389311Y-80193487D01*
X162464000Y-80200843D01*
X163164000Y-80200843D01*
X163238689Y-80193487D01*
X163310508Y-80171701D01*
X163376696Y-80136322D01*
X163434711Y-80088711D01*
X163449000Y-80071300D01*
X163463289Y-80088711D01*
X163521304Y-80136322D01*
X163587492Y-80171701D01*
X163659311Y-80193487D01*
X163734000Y-80200843D01*
X164434000Y-80200843D01*
X164508689Y-80193487D01*
X164580508Y-80171701D01*
X164646696Y-80136322D01*
X164704711Y-80088711D01*
X164719000Y-80071300D01*
X164733289Y-80088711D01*
X164791304Y-80136322D01*
X164857492Y-80171701D01*
X164929311Y-80193487D01*
X165004000Y-80200843D01*
X165704000Y-80200843D01*
X165778689Y-80193487D01*
X165850508Y-80171701D01*
X165916696Y-80136322D01*
X165974711Y-80088711D01*
X165989000Y-80071300D01*
X166003289Y-80088711D01*
X166061304Y-80136322D01*
X166127492Y-80171701D01*
X166199311Y-80193487D01*
X166274000Y-80200843D01*
X166974000Y-80200843D01*
X167048689Y-80193487D01*
X167120508Y-80171701D01*
X167186696Y-80136322D01*
X167244711Y-80088711D01*
X167259000Y-80071300D01*
X167273289Y-80088711D01*
X167331304Y-80136322D01*
X167397492Y-80171701D01*
X167469311Y-80193487D01*
X167544000Y-80200843D01*
X168244000Y-80200843D01*
X168318689Y-80193487D01*
X168390508Y-80171701D01*
X168456696Y-80136322D01*
X168514711Y-80088711D01*
X168529000Y-80071300D01*
X168543289Y-80088711D01*
X168601304Y-80136322D01*
X168667492Y-80171701D01*
X168739311Y-80193487D01*
X168814000Y-80200843D01*
X169514000Y-80200843D01*
X169588689Y-80193487D01*
X169660508Y-80171701D01*
X169726696Y-80136322D01*
X169784711Y-80088711D01*
X169799000Y-80071300D01*
X169813289Y-80088711D01*
X169871304Y-80136322D01*
X169937492Y-80171701D01*
X170009311Y-80193487D01*
X170084000Y-80200843D01*
X170784000Y-80200843D01*
X170858689Y-80193487D01*
X170930508Y-80171701D01*
X170996696Y-80136322D01*
X171054711Y-80088711D01*
X171069000Y-80071300D01*
X171083289Y-80088711D01*
X171141304Y-80136322D01*
X171207492Y-80171701D01*
X171279311Y-80193487D01*
X171354000Y-80200843D01*
X172054000Y-80200843D01*
X172128689Y-80193487D01*
X172200508Y-80171701D01*
X172266696Y-80136322D01*
X172324711Y-80088711D01*
X172339000Y-80071300D01*
X172353289Y-80088711D01*
X172411304Y-80136322D01*
X172477492Y-80171701D01*
X172549311Y-80193487D01*
X172624000Y-80200843D01*
X173324000Y-80200843D01*
X173398689Y-80193487D01*
X173470508Y-80171701D01*
X173536696Y-80136322D01*
X173594711Y-80088711D01*
X173642322Y-80030696D01*
X173677701Y-79964508D01*
X173699487Y-79892689D01*
X173706843Y-79818000D01*
X173706843Y-78075843D01*
X175449000Y-78075843D01*
X175523689Y-78068487D01*
X175595508Y-78046701D01*
X175661696Y-78011322D01*
X175719711Y-77963711D01*
X175767322Y-77905696D01*
X175802701Y-77839508D01*
X175824487Y-77767689D01*
X175831843Y-77693000D01*
X175831843Y-76993000D01*
X175824487Y-76918311D01*
X175802701Y-76846492D01*
X175767322Y-76780304D01*
X175719711Y-76722289D01*
X175702300Y-76708000D01*
X175719711Y-76693711D01*
X175767322Y-76635696D01*
X175802701Y-76569508D01*
X175824487Y-76497689D01*
X175831843Y-76423000D01*
X175831843Y-75723000D01*
X175824487Y-75648311D01*
X175802701Y-75576492D01*
X175767322Y-75510304D01*
X175719711Y-75452289D01*
X175702300Y-75438000D01*
X175719711Y-75423711D01*
X175767322Y-75365696D01*
X175802701Y-75299508D01*
X175824487Y-75227689D01*
X175831843Y-75153000D01*
X175831843Y-74453000D01*
X175824487Y-74378311D01*
X175802701Y-74306492D01*
X175767322Y-74240304D01*
X175719711Y-74182289D01*
X175702300Y-74168000D01*
X175719711Y-74153711D01*
X175767322Y-74095696D01*
X175802701Y-74029508D01*
X175824487Y-73957689D01*
X175831843Y-73883000D01*
X175831843Y-73183000D01*
X175824487Y-73108311D01*
X175802701Y-73036492D01*
X175767322Y-72970304D01*
X175719711Y-72912289D01*
X175702300Y-72898000D01*
X175719711Y-72883711D01*
X175767322Y-72825696D01*
X175802701Y-72759508D01*
X175824487Y-72687689D01*
X175831843Y-72613000D01*
X175831843Y-71913000D01*
X175824487Y-71838311D01*
X175802701Y-71766492D01*
X175767322Y-71700304D01*
X175719711Y-71642289D01*
X175702300Y-71628000D01*
X175719711Y-71613711D01*
X175767322Y-71555696D01*
X175802701Y-71489508D01*
X175824487Y-71417689D01*
X175831843Y-71343000D01*
X175831843Y-70643000D01*
X175824487Y-70568311D01*
X175802701Y-70496492D01*
X175767322Y-70430304D01*
X175719711Y-70372289D01*
X175702300Y-70358000D01*
X175719711Y-70343711D01*
X175767322Y-70285696D01*
X175802701Y-70219508D01*
X175824487Y-70147689D01*
X175831843Y-70073000D01*
X175831843Y-69373000D01*
X175824487Y-69298311D01*
X175802701Y-69226492D01*
X175767322Y-69160304D01*
X175719711Y-69102289D01*
X175702300Y-69088000D01*
X175719711Y-69073711D01*
X175767322Y-69015696D01*
X175802701Y-68949508D01*
X175824487Y-68877689D01*
X175831843Y-68803000D01*
X175831843Y-68103000D01*
X175824487Y-68028311D01*
X175802701Y-67956492D01*
X175767322Y-67890304D01*
X175719711Y-67832289D01*
X175702300Y-67818000D01*
X175719711Y-67803711D01*
X175767322Y-67745696D01*
X175802701Y-67679508D01*
X175824487Y-67607689D01*
X175831843Y-67533000D01*
X175831843Y-66833000D01*
X175824487Y-66758311D01*
X175802701Y-66686492D01*
X175767322Y-66620304D01*
X175719711Y-66562289D01*
X175702300Y-66548000D01*
X175719711Y-66533711D01*
X175767322Y-66475696D01*
X175802701Y-66409508D01*
X175824487Y-66337689D01*
X175831843Y-66263000D01*
X175831843Y-65563000D01*
X175824487Y-65488311D01*
X175802701Y-65416492D01*
X175767322Y-65350304D01*
X175719711Y-65292289D01*
X175702300Y-65278000D01*
X175719711Y-65263711D01*
X175767322Y-65205696D01*
X175802701Y-65139508D01*
X175824487Y-65067689D01*
X175831843Y-64993000D01*
X175831843Y-64293000D01*
X175824487Y-64218311D01*
X175802701Y-64146492D01*
X175767322Y-64080304D01*
X175719711Y-64022289D01*
X175702300Y-64008000D01*
X175719711Y-63993711D01*
X175767322Y-63935696D01*
X175802701Y-63869508D01*
X175824487Y-63797689D01*
X175831843Y-63723000D01*
X175831843Y-63023000D01*
X175824487Y-62948311D01*
X175802701Y-62876492D01*
X175767322Y-62810304D01*
X175719711Y-62752289D01*
X175702300Y-62738000D01*
X175719711Y-62723711D01*
X175767322Y-62665696D01*
X175802701Y-62599508D01*
X175824487Y-62527689D01*
X175831843Y-62453000D01*
X175831843Y-61753000D01*
X175824487Y-61678311D01*
X175802701Y-61606492D01*
X175767322Y-61540304D01*
X175719711Y-61482289D01*
X175661696Y-61434678D01*
X175595508Y-61399299D01*
X175523689Y-61377513D01*
X175449000Y-61370157D01*
X174705976Y-61370157D01*
X174731704Y-61274140D01*
X174748741Y-61144730D01*
X174752000Y-61095000D01*
X174752000Y-31996000D01*
X174748741Y-31946270D01*
X174731704Y-31816860D01*
X174705961Y-31720788D01*
X174656011Y-31600198D01*
X174606279Y-31514060D01*
X174526819Y-31410507D01*
X174456493Y-31340181D01*
X174352940Y-31260721D01*
X174266802Y-31210989D01*
X174146212Y-31161039D01*
X174050140Y-31135296D01*
X173920730Y-31118259D01*
X173871000Y-31115000D01*
X172966000Y-31115000D01*
X172916270Y-31118259D01*
X172786860Y-31135296D01*
X172690788Y-31161039D01*
X172570198Y-31210989D01*
X172484060Y-31260721D01*
X172380507Y-31340181D01*
X172310181Y-31410507D01*
X172230721Y-31514060D01*
X172180989Y-31600198D01*
X172131039Y-31720788D01*
X172105296Y-31816860D01*
X172088259Y-31946270D01*
X172085000Y-31996000D01*
X172085000Y-59248210D01*
X172054000Y-59245157D01*
X171354000Y-59245157D01*
X171279311Y-59252513D01*
X171207492Y-59274299D01*
X171141304Y-59309678D01*
X171083289Y-59357289D01*
X171069000Y-59374700D01*
X171054711Y-59357289D01*
X170996696Y-59309678D01*
X170930508Y-59274299D01*
X170858689Y-59252513D01*
X170784000Y-59245157D01*
X170084000Y-59245157D01*
X170009311Y-59252513D01*
X169937492Y-59274299D01*
X169871304Y-59309678D01*
X169813289Y-59357289D01*
X169799000Y-59374700D01*
X169784711Y-59357289D01*
X169726696Y-59309678D01*
X169660508Y-59274299D01*
X169588689Y-59252513D01*
X169514000Y-59245157D01*
X168814000Y-59245157D01*
X168739311Y-59252513D01*
X168667492Y-59274299D01*
X168601304Y-59309678D01*
X168543289Y-59357289D01*
X168529000Y-59374700D01*
X168514711Y-59357289D01*
X168456696Y-59309678D01*
X168390508Y-59274299D01*
X168318689Y-59252513D01*
X168244000Y-59245157D01*
X167544000Y-59245157D01*
X167469311Y-59252513D01*
X167397492Y-59274299D01*
X167331304Y-59309678D01*
X167273289Y-59357289D01*
X167259000Y-59374700D01*
X167244711Y-59357289D01*
X167186696Y-59309678D01*
X167120508Y-59274299D01*
X167048689Y-59252513D01*
X166974000Y-59245157D01*
X166274000Y-59245157D01*
X166199311Y-59252513D01*
X166127492Y-59274299D01*
X166061304Y-59309678D01*
X166003289Y-59357289D01*
X165989000Y-59374700D01*
X165974711Y-59357289D01*
X165916696Y-59309678D01*
X165850508Y-59274299D01*
X165778689Y-59252513D01*
X165704000Y-59245157D01*
X165004000Y-59245157D01*
X164929311Y-59252513D01*
X164857492Y-59274299D01*
X164791304Y-59309678D01*
X164733289Y-59357289D01*
X164719000Y-59374700D01*
X164704711Y-59357289D01*
X164646696Y-59309678D01*
X164580508Y-59274299D01*
X164508689Y-59252513D01*
X164434000Y-59245157D01*
X163734000Y-59245157D01*
X163659311Y-59252513D01*
X163587492Y-59274299D01*
X163521304Y-59309678D01*
X163463289Y-59357289D01*
X163449000Y-59374700D01*
X163434711Y-59357289D01*
X163376696Y-59309678D01*
X163310508Y-59274299D01*
X163238689Y-59252513D01*
X163164000Y-59245157D01*
X162464000Y-59245157D01*
X162389311Y-59252513D01*
X162317492Y-59274299D01*
X162251304Y-59309678D01*
X162193289Y-59357289D01*
X162179000Y-59374700D01*
X162164711Y-59357289D01*
X162106696Y-59309678D01*
X162040508Y-59274299D01*
X161968689Y-59252513D01*
X161894000Y-59245157D01*
X161194000Y-59245157D01*
X161119311Y-59252513D01*
X161047492Y-59274299D01*
X160981304Y-59309678D01*
X160923289Y-59357289D01*
X160909000Y-59374700D01*
X160894711Y-59357289D01*
X160836696Y-59309678D01*
X160770508Y-59274299D01*
X160698689Y-59252513D01*
X160624000Y-59245157D01*
X159924000Y-59245157D01*
X159849311Y-59252513D01*
X159777492Y-59274299D01*
X159711304Y-59309678D01*
X159653289Y-59357289D01*
X159639000Y-59374700D01*
X159624711Y-59357289D01*
X159566696Y-59309678D01*
X159500508Y-59274299D01*
X159428689Y-59252513D01*
X159354000Y-59245157D01*
X158654000Y-59245157D01*
X158579311Y-59252513D01*
X158507492Y-59274299D01*
X158441304Y-59309678D01*
X158383289Y-59357289D01*
X158369000Y-59374700D01*
X158354711Y-59357289D01*
X158296696Y-59309678D01*
X158230508Y-59274299D01*
X158158689Y-59252513D01*
X158084000Y-59245157D01*
X157384000Y-59245157D01*
X157309311Y-59252513D01*
X157237492Y-59274299D01*
X157171304Y-59309678D01*
X157113289Y-59357289D01*
X157065678Y-59415304D01*
X157030299Y-59481492D01*
X157008513Y-59553311D01*
X157001157Y-59628000D01*
X157001157Y-61370157D01*
X155259000Y-61370157D01*
X155184311Y-61377513D01*
X155112492Y-61399299D01*
X155046304Y-61434678D01*
X154988289Y-61482289D01*
X154940678Y-61540304D01*
X154905299Y-61606492D01*
X154883513Y-61678311D01*
X154876157Y-61753000D01*
X152094000Y-61753000D01*
X152094000Y-25803305D01*
X152118904Y-25549313D01*
X152186189Y-25326455D01*
X152295480Y-25120909D01*
X152442618Y-24940500D01*
X152621986Y-24792115D01*
X152826763Y-24681391D01*
X153049152Y-24612549D01*
X153301753Y-24586000D01*
X177396695Y-24586000D01*
X177650687Y-24610904D01*
G04 #@! TA.AperFunction,Conductor*
D14*
G36*
X177650687Y-24610904D02*
G01*
X177873545Y-24678189D01*
X178079091Y-24787480D01*
X178259500Y-24934618D01*
X178407885Y-25113986D01*
X178518609Y-25318763D01*
X178587451Y-25541152D01*
X178614001Y-25793762D01*
X178614000Y-81726119D01*
X177484119Y-82856000D01*
X152094000Y-82856000D01*
X152094000Y-61753000D01*
X154876157Y-61753000D01*
X154876157Y-62453000D01*
X154883513Y-62527689D01*
X154905299Y-62599508D01*
X154940678Y-62665696D01*
X154988289Y-62723711D01*
X155005700Y-62738000D01*
X154988289Y-62752289D01*
X154940678Y-62810304D01*
X154905299Y-62876492D01*
X154883513Y-62948311D01*
X154876157Y-63023000D01*
X154876157Y-63723000D01*
X154883513Y-63797689D01*
X154905299Y-63869508D01*
X154940678Y-63935696D01*
X154988289Y-63993711D01*
X155005700Y-64008000D01*
X154988289Y-64022289D01*
X154940678Y-64080304D01*
X154905299Y-64146492D01*
X154883513Y-64218311D01*
X154876157Y-64293000D01*
X154876157Y-64993000D01*
X154883513Y-65067689D01*
X154905299Y-65139508D01*
X154940678Y-65205696D01*
X154988289Y-65263711D01*
X155005700Y-65278000D01*
X154988289Y-65292289D01*
X154940678Y-65350304D01*
X154905299Y-65416492D01*
X154883513Y-65488311D01*
X154876157Y-65563000D01*
X154876157Y-66263000D01*
X154883513Y-66337689D01*
X154905299Y-66409508D01*
X154940678Y-66475696D01*
X154988289Y-66533711D01*
X155005700Y-66548000D01*
X154988289Y-66562289D01*
X154940678Y-66620304D01*
X154905299Y-66686492D01*
X154883513Y-66758311D01*
X154876157Y-66833000D01*
X154876157Y-67533000D01*
X154883513Y-67607689D01*
X154905299Y-67679508D01*
X154940678Y-67745696D01*
X154988289Y-67803711D01*
X155005700Y-67818000D01*
X154988289Y-67832289D01*
X154940678Y-67890304D01*
X154905299Y-67956492D01*
X154883513Y-68028311D01*
X154876157Y-68103000D01*
X154876157Y-68803000D01*
X154883513Y-68877689D01*
X154905299Y-68949508D01*
X154940678Y-69015696D01*
X154988289Y-69073711D01*
X155005700Y-69088000D01*
X154988289Y-69102289D01*
X154940678Y-69160304D01*
X154905299Y-69226492D01*
X154883513Y-69298311D01*
X154876157Y-69373000D01*
X154878000Y-69500750D01*
X154973250Y-69596000D01*
X156094500Y-69596000D01*
X156094500Y-69576000D01*
X156348500Y-69576000D01*
X156348500Y-69596000D01*
X157469750Y-69596000D01*
X157565000Y-69500750D01*
X157566843Y-69373000D01*
X157559487Y-69298311D01*
X157537701Y-69226492D01*
X157502322Y-69160304D01*
X157454711Y-69102289D01*
X157437300Y-69088000D01*
X157454711Y-69073711D01*
X157502322Y-69015696D01*
X157537701Y-68949508D01*
X157559487Y-68877689D01*
X157566843Y-68803000D01*
X157566843Y-68103000D01*
X157559487Y-68028311D01*
X157537701Y-67956492D01*
X157502322Y-67890304D01*
X157454711Y-67832289D01*
X157437300Y-67818000D01*
X157454711Y-67803711D01*
X157502322Y-67745696D01*
X157537701Y-67679508D01*
X157559487Y-67607689D01*
X157566843Y-67533000D01*
X157566843Y-66833000D01*
X157559487Y-66758311D01*
X157537701Y-66686492D01*
X157502322Y-66620304D01*
X157454711Y-66562289D01*
X157437300Y-66548000D01*
X157454711Y-66533711D01*
X157502322Y-66475696D01*
X157537701Y-66409508D01*
X157559487Y-66337689D01*
X157563325Y-66298718D01*
X159648000Y-66298718D01*
X159648000Y-66797282D01*
X159745265Y-67286265D01*
X159936057Y-67746878D01*
X160213044Y-68161418D01*
X160565582Y-68513956D01*
X160980122Y-68790943D01*
X161440735Y-68981735D01*
X161929718Y-69079000D01*
X162428282Y-69079000D01*
X162917265Y-68981735D01*
X163377878Y-68790943D01*
X163792418Y-68513956D01*
X164144956Y-68161418D01*
X164421943Y-67746878D01*
X164612735Y-67286265D01*
X164710000Y-66797282D01*
X164710000Y-66298718D01*
X165998000Y-66298718D01*
X165998000Y-66797282D01*
X166095265Y-67286265D01*
X166286057Y-67746878D01*
X166563044Y-68161418D01*
X166915582Y-68513956D01*
X167330122Y-68790943D01*
X167790735Y-68981735D01*
X168279718Y-69079000D01*
X168778282Y-69079000D01*
X169267265Y-68981735D01*
X169727878Y-68790943D01*
X170142418Y-68513956D01*
X170494956Y-68161418D01*
X170771943Y-67746878D01*
X170962735Y-67286265D01*
X171060000Y-66797282D01*
X171060000Y-66298718D01*
X170962735Y-65809735D01*
X170771943Y-65349122D01*
X170494956Y-64934582D01*
X170142418Y-64582044D01*
X169727878Y-64305057D01*
X169267265Y-64114265D01*
X168778282Y-64017000D01*
X168279718Y-64017000D01*
X167790735Y-64114265D01*
X167330122Y-64305057D01*
X166915582Y-64582044D01*
X166563044Y-64934582D01*
X166286057Y-65349122D01*
X166095265Y-65809735D01*
X165998000Y-66298718D01*
X164710000Y-66298718D01*
X164612735Y-65809735D01*
X164421943Y-65349122D01*
X164144956Y-64934582D01*
X163792418Y-64582044D01*
X163377878Y-64305057D01*
X162917265Y-64114265D01*
X162428282Y-64017000D01*
X161929718Y-64017000D01*
X161440735Y-64114265D01*
X160980122Y-64305057D01*
X160565582Y-64582044D01*
X160213044Y-64934582D01*
X159936057Y-65349122D01*
X159745265Y-65809735D01*
X159648000Y-66298718D01*
X157563325Y-66298718D01*
X157566843Y-66263000D01*
X157566843Y-65563000D01*
X157559487Y-65488311D01*
X157537701Y-65416492D01*
X157502322Y-65350304D01*
X157454711Y-65292289D01*
X157437300Y-65278000D01*
X157454711Y-65263711D01*
X157502322Y-65205696D01*
X157537701Y-65139508D01*
X157559487Y-65067689D01*
X157566843Y-64993000D01*
X157566843Y-64293000D01*
X157559487Y-64218311D01*
X157537701Y-64146492D01*
X157502322Y-64080304D01*
X157454711Y-64022289D01*
X157437300Y-64008000D01*
X157454711Y-63993711D01*
X157502322Y-63935696D01*
X157537701Y-63869508D01*
X157559487Y-63797689D01*
X157566843Y-63723000D01*
X157566843Y-63023000D01*
X157559487Y-62948311D01*
X157537701Y-62876492D01*
X157502322Y-62810304D01*
X157454711Y-62752289D01*
X157437300Y-62738000D01*
X157454711Y-62723711D01*
X157502322Y-62665696D01*
X157537701Y-62599508D01*
X157559487Y-62527689D01*
X157566843Y-62453000D01*
X157566843Y-61935843D01*
X158084000Y-61935843D01*
X158158689Y-61928487D01*
X158230508Y-61906701D01*
X158296696Y-61871322D01*
X158354711Y-61823711D01*
X158369000Y-61806300D01*
X158383289Y-61823711D01*
X158441304Y-61871322D01*
X158507492Y-61906701D01*
X158579311Y-61928487D01*
X158654000Y-61935843D01*
X159354000Y-61935843D01*
X159428689Y-61928487D01*
X159500508Y-61906701D01*
X159566696Y-61871322D01*
X159624711Y-61823711D01*
X159639000Y-61806300D01*
X159653289Y-61823711D01*
X159711304Y-61871322D01*
X159777492Y-61906701D01*
X159849311Y-61928487D01*
X159924000Y-61935843D01*
X160624000Y-61935843D01*
X160698689Y-61928487D01*
X160770508Y-61906701D01*
X160836696Y-61871322D01*
X160894711Y-61823711D01*
X160909000Y-61806300D01*
X160923289Y-61823711D01*
X160981304Y-61871322D01*
X161047492Y-61906701D01*
X161119311Y-61928487D01*
X161194000Y-61935843D01*
X161894000Y-61935843D01*
X161968689Y-61928487D01*
X162040508Y-61906701D01*
X162106696Y-61871322D01*
X162164711Y-61823711D01*
X162179000Y-61806300D01*
X162193289Y-61823711D01*
X162251304Y-61871322D01*
X162317492Y-61906701D01*
X162389311Y-61928487D01*
X162464000Y-61935843D01*
X163164000Y-61935843D01*
X163238689Y-61928487D01*
X163310508Y-61906701D01*
X163376696Y-61871322D01*
X163434711Y-61823711D01*
X163449000Y-61806300D01*
X163463289Y-61823711D01*
X163521304Y-61871322D01*
X163587492Y-61906701D01*
X163659311Y-61928487D01*
X163734000Y-61935843D01*
X164434000Y-61935843D01*
X164508689Y-61928487D01*
X164580508Y-61906701D01*
X164646696Y-61871322D01*
X164704711Y-61823711D01*
X164719000Y-61806300D01*
X164733289Y-61823711D01*
X164791304Y-61871322D01*
X164857492Y-61906701D01*
X164929311Y-61928487D01*
X165004000Y-61935843D01*
X165704000Y-61935843D01*
X165778689Y-61928487D01*
X165850508Y-61906701D01*
X165916696Y-61871322D01*
X165974711Y-61823711D01*
X165989000Y-61806300D01*
X166003289Y-61823711D01*
X166061304Y-61871322D01*
X166127492Y-61906701D01*
X166199311Y-61928487D01*
X166274000Y-61935843D01*
X166974000Y-61935843D01*
X167048689Y-61928487D01*
X167120508Y-61906701D01*
X167186696Y-61871322D01*
X167244711Y-61823711D01*
X167259000Y-61806300D01*
X167273289Y-61823711D01*
X167331304Y-61871322D01*
X167397492Y-61906701D01*
X167469311Y-61928487D01*
X167544000Y-61935843D01*
X168244000Y-61935843D01*
X168318689Y-61928487D01*
X168390508Y-61906701D01*
X168456696Y-61871322D01*
X168514711Y-61823711D01*
X168529000Y-61806300D01*
X168543289Y-61823711D01*
X168601304Y-61871322D01*
X168667492Y-61906701D01*
X168739311Y-61928487D01*
X168814000Y-61935843D01*
X169514000Y-61935843D01*
X169588689Y-61928487D01*
X169660508Y-61906701D01*
X169726696Y-61871322D01*
X169784711Y-61823711D01*
X169799000Y-61806300D01*
X169813289Y-61823711D01*
X169871304Y-61871322D01*
X169937492Y-61906701D01*
X170009311Y-61928487D01*
X170084000Y-61935843D01*
X170784000Y-61935843D01*
X170858689Y-61928487D01*
X170930508Y-61906701D01*
X170996696Y-61871322D01*
X171054711Y-61823711D01*
X171069000Y-61806300D01*
X171083289Y-61823711D01*
X171141304Y-61871322D01*
X171207492Y-61906701D01*
X171279311Y-61928487D01*
X171354000Y-61935843D01*
X172054000Y-61935843D01*
X172128689Y-61928487D01*
X172200508Y-61906701D01*
X172266696Y-61871322D01*
X172324711Y-61823711D01*
X172339000Y-61806300D01*
X172353289Y-61823711D01*
X172411304Y-61871322D01*
X172477492Y-61906701D01*
X172549311Y-61928487D01*
X172624000Y-61935843D01*
X172712739Y-61935843D01*
X172786860Y-61955704D01*
X172916270Y-61972741D01*
X172966000Y-61976000D01*
X173141157Y-61976000D01*
X173141157Y-62453000D01*
X173148513Y-62527689D01*
X173170299Y-62599508D01*
X173205678Y-62665696D01*
X173253289Y-62723711D01*
X173270700Y-62738000D01*
X173253289Y-62752289D01*
X173205678Y-62810304D01*
X173170299Y-62876492D01*
X173148513Y-62948311D01*
X173141157Y-63023000D01*
X173141157Y-63723000D01*
X173148513Y-63797689D01*
X173170299Y-63869508D01*
X173205678Y-63935696D01*
X173253289Y-63993711D01*
X173270700Y-64008000D01*
X173253289Y-64022289D01*
X173205678Y-64080304D01*
X173170299Y-64146492D01*
X173148513Y-64218311D01*
X173141157Y-64293000D01*
X173141157Y-64993000D01*
X173148513Y-65067689D01*
X173170299Y-65139508D01*
X173205678Y-65205696D01*
X173253289Y-65263711D01*
X173270700Y-65278000D01*
X173253289Y-65292289D01*
X173205678Y-65350304D01*
X173170299Y-65416492D01*
X173148513Y-65488311D01*
X173141157Y-65563000D01*
X173141157Y-66263000D01*
X173148513Y-66337689D01*
X173170299Y-66409508D01*
X173205678Y-66475696D01*
X173253289Y-66533711D01*
X173270700Y-66548000D01*
X173253289Y-66562289D01*
X173205678Y-66620304D01*
X173170299Y-66686492D01*
X173148513Y-66758311D01*
X173141157Y-66833000D01*
X173141157Y-67533000D01*
X173148513Y-67607689D01*
X173170299Y-67679508D01*
X173205678Y-67745696D01*
X173253289Y-67803711D01*
X173270700Y-67818000D01*
X173253289Y-67832289D01*
X173205678Y-67890304D01*
X173170299Y-67956492D01*
X173148513Y-68028311D01*
X173141157Y-68103000D01*
X173141157Y-68803000D01*
X173148513Y-68877689D01*
X173170299Y-68949508D01*
X173205678Y-69015696D01*
X173253289Y-69073711D01*
X173270700Y-69088000D01*
X173253289Y-69102289D01*
X173205678Y-69160304D01*
X173170299Y-69226492D01*
X173148513Y-69298311D01*
X173141157Y-69373000D01*
X173141157Y-70073000D01*
X173148513Y-70147689D01*
X173170299Y-70219508D01*
X173205678Y-70285696D01*
X173253289Y-70343711D01*
X173270700Y-70358000D01*
X173253289Y-70372289D01*
X173205678Y-70430304D01*
X173170299Y-70496492D01*
X173148513Y-70568311D01*
X173141157Y-70643000D01*
X173141157Y-71343000D01*
X173148513Y-71417689D01*
X173170299Y-71489508D01*
X173205678Y-71555696D01*
X173253289Y-71613711D01*
X173270700Y-71628000D01*
X173253289Y-71642289D01*
X173205678Y-71700304D01*
X173170299Y-71766492D01*
X173148513Y-71838311D01*
X173141157Y-71913000D01*
X173141157Y-72613000D01*
X173148513Y-72687689D01*
X173170299Y-72759508D01*
X173205678Y-72825696D01*
X173253289Y-72883711D01*
X173270700Y-72898000D01*
X173253289Y-72912289D01*
X173205678Y-72970304D01*
X173170299Y-73036492D01*
X173148513Y-73108311D01*
X173141157Y-73183000D01*
X173141157Y-73883000D01*
X173148513Y-73957689D01*
X173170299Y-74029508D01*
X173205678Y-74095696D01*
X173253289Y-74153711D01*
X173270700Y-74168000D01*
X173253289Y-74182289D01*
X173205678Y-74240304D01*
X173170299Y-74306492D01*
X173148513Y-74378311D01*
X173141157Y-74453000D01*
X173141157Y-75153000D01*
X173148513Y-75227689D01*
X173170299Y-75299508D01*
X173205678Y-75365696D01*
X173253289Y-75423711D01*
X173270700Y-75438000D01*
X173253289Y-75452289D01*
X173205678Y-75510304D01*
X173170299Y-75576492D01*
X173148513Y-75648311D01*
X173141157Y-75723000D01*
X173141157Y-76423000D01*
X173148513Y-76497689D01*
X173170299Y-76569508D01*
X173205678Y-76635696D01*
X173253289Y-76693711D01*
X173270700Y-76708000D01*
X173253289Y-76722289D01*
X173205678Y-76780304D01*
X173170299Y-76846492D01*
X173148513Y-76918311D01*
X173141157Y-76993000D01*
X173141157Y-77510157D01*
X172624000Y-77510157D01*
X172549311Y-77517513D01*
X172477492Y-77539299D01*
X172411304Y-77574678D01*
X172353289Y-77622289D01*
X172339000Y-77639700D01*
X172324711Y-77622289D01*
X172266696Y-77574678D01*
X172200508Y-77539299D01*
X172128689Y-77517513D01*
X172054000Y-77510157D01*
X171354000Y-77510157D01*
X171279311Y-77517513D01*
X171207492Y-77539299D01*
X171141304Y-77574678D01*
X171083289Y-77622289D01*
X171069000Y-77639700D01*
X171054711Y-77622289D01*
X170996696Y-77574678D01*
X170930508Y-77539299D01*
X170858689Y-77517513D01*
X170784000Y-77510157D01*
X170084000Y-77510157D01*
X170009311Y-77517513D01*
X169937492Y-77539299D01*
X169871304Y-77574678D01*
X169813289Y-77622289D01*
X169799000Y-77639700D01*
X169784711Y-77622289D01*
X169726696Y-77574678D01*
X169660508Y-77539299D01*
X169588689Y-77517513D01*
X169514000Y-77510157D01*
X168814000Y-77510157D01*
X168739311Y-77517513D01*
X168667492Y-77539299D01*
X168601304Y-77574678D01*
X168543289Y-77622289D01*
X168529000Y-77639700D01*
X168514711Y-77622289D01*
X168456696Y-77574678D01*
X168390508Y-77539299D01*
X168318689Y-77517513D01*
X168244000Y-77510157D01*
X167544000Y-77510157D01*
X167469311Y-77517513D01*
X167397492Y-77539299D01*
X167331304Y-77574678D01*
X167273289Y-77622289D01*
X167259000Y-77639700D01*
X167244711Y-77622289D01*
X167186696Y-77574678D01*
X167120508Y-77539299D01*
X167048689Y-77517513D01*
X166974000Y-77510157D01*
X166274000Y-77510157D01*
X166199311Y-77517513D01*
X166127492Y-77539299D01*
X166061304Y-77574678D01*
X166003289Y-77622289D01*
X165989000Y-77639700D01*
X165974711Y-77622289D01*
X165916696Y-77574678D01*
X165850508Y-77539299D01*
X165778689Y-77517513D01*
X165704000Y-77510157D01*
X165004000Y-77510157D01*
X164929311Y-77517513D01*
X164857492Y-77539299D01*
X164791304Y-77574678D01*
X164733289Y-77622289D01*
X164719000Y-77639700D01*
X164704711Y-77622289D01*
X164646696Y-77574678D01*
X164580508Y-77539299D01*
X164508689Y-77517513D01*
X164434000Y-77510157D01*
X163734000Y-77510157D01*
X163659311Y-77517513D01*
X163587492Y-77539299D01*
X163521304Y-77574678D01*
X163463289Y-77622289D01*
X163449000Y-77639700D01*
X163434711Y-77622289D01*
X163376696Y-77574678D01*
X163310508Y-77539299D01*
X163238689Y-77517513D01*
X163164000Y-77510157D01*
X162464000Y-77510157D01*
X162389311Y-77517513D01*
X162317492Y-77539299D01*
X162251304Y-77574678D01*
X162193289Y-77622289D01*
X162179000Y-77639700D01*
X162164711Y-77622289D01*
X162106696Y-77574678D01*
X162040508Y-77539299D01*
X161968689Y-77517513D01*
X161894000Y-77510157D01*
X161194000Y-77510157D01*
X161119311Y-77517513D01*
X161047492Y-77539299D01*
X160981304Y-77574678D01*
X160923289Y-77622289D01*
X160909000Y-77639700D01*
X160894711Y-77622289D01*
X160836696Y-77574678D01*
X160770508Y-77539299D01*
X160698689Y-77517513D01*
X160624000Y-77510157D01*
X159924000Y-77510157D01*
X159849311Y-77517513D01*
X159777492Y-77539299D01*
X159711304Y-77574678D01*
X159653289Y-77622289D01*
X159639000Y-77639700D01*
X159624711Y-77622289D01*
X159566696Y-77574678D01*
X159500508Y-77539299D01*
X159428689Y-77517513D01*
X159354000Y-77510157D01*
X158654000Y-77510157D01*
X158579311Y-77517513D01*
X158507492Y-77539299D01*
X158441304Y-77574678D01*
X158383289Y-77622289D01*
X158369000Y-77639700D01*
X158354711Y-77622289D01*
X158296696Y-77574678D01*
X158230508Y-77539299D01*
X158158689Y-77517513D01*
X158084000Y-77510157D01*
X157566843Y-77510157D01*
X157566843Y-76993000D01*
X157559487Y-76918311D01*
X157537701Y-76846492D01*
X157502322Y-76780304D01*
X157454711Y-76722289D01*
X157437300Y-76708000D01*
X157454711Y-76693711D01*
X157502322Y-76635696D01*
X157537701Y-76569508D01*
X157559487Y-76497689D01*
X157566843Y-76423000D01*
X157566843Y-75723000D01*
X157559487Y-75648311D01*
X157537701Y-75576492D01*
X157502322Y-75510304D01*
X157454711Y-75452289D01*
X157437300Y-75438000D01*
X157454711Y-75423711D01*
X157502322Y-75365696D01*
X157537701Y-75299508D01*
X157559487Y-75227689D01*
X157566843Y-75153000D01*
X157566843Y-74453000D01*
X157559487Y-74378311D01*
X157537701Y-74306492D01*
X157502322Y-74240304D01*
X157454711Y-74182289D01*
X157437300Y-74168000D01*
X157454711Y-74153711D01*
X157502322Y-74095696D01*
X157537701Y-74029508D01*
X157559487Y-73957689D01*
X157566843Y-73883000D01*
X157566843Y-73183000D01*
X157559487Y-73108311D01*
X157537701Y-73036492D01*
X157502322Y-72970304D01*
X157454711Y-72912289D01*
X157437300Y-72898000D01*
X157454711Y-72883711D01*
X157502322Y-72825696D01*
X157537701Y-72759508D01*
X157559487Y-72687689D01*
X157563325Y-72648718D01*
X159648000Y-72648718D01*
X159648000Y-73147282D01*
X159745265Y-73636265D01*
X159936057Y-74096878D01*
X160213044Y-74511418D01*
X160565582Y-74863956D01*
X160980122Y-75140943D01*
X161440735Y-75331735D01*
X161929718Y-75429000D01*
X162428282Y-75429000D01*
X162917265Y-75331735D01*
X163377878Y-75140943D01*
X163792418Y-74863956D01*
X164144956Y-74511418D01*
X164421943Y-74096878D01*
X164612735Y-73636265D01*
X164710000Y-73147282D01*
X164710000Y-72648718D01*
X165998000Y-72648718D01*
X165998000Y-73147282D01*
X166095265Y-73636265D01*
X166286057Y-74096878D01*
X166563044Y-74511418D01*
X166915582Y-74863956D01*
X167330122Y-75140943D01*
X167790735Y-75331735D01*
X168279718Y-75429000D01*
X168778282Y-75429000D01*
X169267265Y-75331735D01*
X169727878Y-75140943D01*
X170142418Y-74863956D01*
X170494956Y-74511418D01*
X170771943Y-74096878D01*
X170962735Y-73636265D01*
X171060000Y-73147282D01*
X171060000Y-72648718D01*
X170962735Y-72159735D01*
X170771943Y-71699122D01*
X170494956Y-71284582D01*
X170142418Y-70932044D01*
X169727878Y-70655057D01*
X169267265Y-70464265D01*
X168778282Y-70367000D01*
X168279718Y-70367000D01*
X167790735Y-70464265D01*
X167330122Y-70655057D01*
X166915582Y-70932044D01*
X166563044Y-71284582D01*
X166286057Y-71699122D01*
X166095265Y-72159735D01*
X165998000Y-72648718D01*
X164710000Y-72648718D01*
X164612735Y-72159735D01*
X164421943Y-71699122D01*
X164144956Y-71284582D01*
X163792418Y-70932044D01*
X163377878Y-70655057D01*
X162917265Y-70464265D01*
X162428282Y-70367000D01*
X161929718Y-70367000D01*
X161440735Y-70464265D01*
X160980122Y-70655057D01*
X160565582Y-70932044D01*
X160213044Y-71284582D01*
X159936057Y-71699122D01*
X159745265Y-72159735D01*
X159648000Y-72648718D01*
X157563325Y-72648718D01*
X157566843Y-72613000D01*
X157566843Y-71913000D01*
X157559487Y-71838311D01*
X157537701Y-71766492D01*
X157502322Y-71700304D01*
X157454711Y-71642289D01*
X157437300Y-71628000D01*
X157454711Y-71613711D01*
X157502322Y-71555696D01*
X157537701Y-71489508D01*
X157559487Y-71417689D01*
X157566843Y-71343000D01*
X157566843Y-70643000D01*
X157559487Y-70568311D01*
X157537701Y-70496492D01*
X157502322Y-70430304D01*
X157454711Y-70372289D01*
X157437300Y-70358000D01*
X157454711Y-70343711D01*
X157502322Y-70285696D01*
X157537701Y-70219508D01*
X157559487Y-70147689D01*
X157566843Y-70073000D01*
X157565000Y-69945250D01*
X157469750Y-69850000D01*
X156348500Y-69850000D01*
X156348500Y-69870000D01*
X156094500Y-69870000D01*
X156094500Y-69850000D01*
X154973250Y-69850000D01*
X154878000Y-69945250D01*
X154876157Y-70073000D01*
X154883513Y-70147689D01*
X154905299Y-70219508D01*
X154940678Y-70285696D01*
X154988289Y-70343711D01*
X155005700Y-70358000D01*
X154988289Y-70372289D01*
X154940678Y-70430304D01*
X154905299Y-70496492D01*
X154883513Y-70568311D01*
X154876157Y-70643000D01*
X154876157Y-71343000D01*
X154883513Y-71417689D01*
X154905299Y-71489508D01*
X154940678Y-71555696D01*
X154988289Y-71613711D01*
X155005700Y-71628000D01*
X154988289Y-71642289D01*
X154940678Y-71700304D01*
X154905299Y-71766492D01*
X154883513Y-71838311D01*
X154876157Y-71913000D01*
X154876157Y-72613000D01*
X154883513Y-72687689D01*
X154905299Y-72759508D01*
X154940678Y-72825696D01*
X154988289Y-72883711D01*
X155005700Y-72898000D01*
X154988289Y-72912289D01*
X154940678Y-72970304D01*
X154905299Y-73036492D01*
X154883513Y-73108311D01*
X154876157Y-73183000D01*
X154876157Y-73883000D01*
X154883513Y-73957689D01*
X154905299Y-74029508D01*
X154940678Y-74095696D01*
X154988289Y-74153711D01*
X155005700Y-74168000D01*
X154988289Y-74182289D01*
X154940678Y-74240304D01*
X154905299Y-74306492D01*
X154883513Y-74378311D01*
X154876157Y-74453000D01*
X154876157Y-75153000D01*
X154883513Y-75227689D01*
X154905299Y-75299508D01*
X154940678Y-75365696D01*
X154988289Y-75423711D01*
X155005700Y-75438000D01*
X154988289Y-75452289D01*
X154940678Y-75510304D01*
X154905299Y-75576492D01*
X154883513Y-75648311D01*
X154876157Y-75723000D01*
X154876157Y-76423000D01*
X154883513Y-76497689D01*
X154905299Y-76569508D01*
X154940678Y-76635696D01*
X154988289Y-76693711D01*
X155005700Y-76708000D01*
X154988289Y-76722289D01*
X154940678Y-76780304D01*
X154905299Y-76846492D01*
X154883513Y-76918311D01*
X154876157Y-76993000D01*
X154876157Y-77693000D01*
X154883513Y-77767689D01*
X154905299Y-77839508D01*
X154940678Y-77905696D01*
X154988289Y-77963711D01*
X155046304Y-78011322D01*
X155112492Y-78046701D01*
X155184311Y-78068487D01*
X155259000Y-78075843D01*
X157001157Y-78075843D01*
X157001157Y-79818000D01*
X157008513Y-79892689D01*
X157030299Y-79964508D01*
X157065678Y-80030696D01*
X157113289Y-80088711D01*
X157171304Y-80136322D01*
X157237492Y-80171701D01*
X157309311Y-80193487D01*
X157384000Y-80200843D01*
X158084000Y-80200843D01*
X158158689Y-80193487D01*
X158230508Y-80171701D01*
X158296696Y-80136322D01*
X158354711Y-80088711D01*
X158369000Y-80071300D01*
X158383289Y-80088711D01*
X158441304Y-80136322D01*
X158507492Y-80171701D01*
X158579311Y-80193487D01*
X158654000Y-80200843D01*
X159354000Y-80200843D01*
X159428689Y-80193487D01*
X159500508Y-80171701D01*
X159566696Y-80136322D01*
X159624711Y-80088711D01*
X159639000Y-80071300D01*
X159653289Y-80088711D01*
X159711304Y-80136322D01*
X159777492Y-80171701D01*
X159849311Y-80193487D01*
X159924000Y-80200843D01*
X160624000Y-80200843D01*
X160698689Y-80193487D01*
X160770508Y-80171701D01*
X160836696Y-80136322D01*
X160894711Y-80088711D01*
X160909000Y-80071300D01*
X160923289Y-80088711D01*
X160981304Y-80136322D01*
X161047492Y-80171701D01*
X161119311Y-80193487D01*
X161194000Y-80200843D01*
X161894000Y-80200843D01*
X161968689Y-80193487D01*
X162040508Y-80171701D01*
X162106696Y-80136322D01*
X162164711Y-80088711D01*
X162179000Y-80071300D01*
X162193289Y-80088711D01*
X162251304Y-80136322D01*
X162317492Y-80171701D01*
X162389311Y-80193487D01*
X162464000Y-80200843D01*
X163164000Y-80200843D01*
X163238689Y-80193487D01*
X163310508Y-80171701D01*
X163376696Y-80136322D01*
X163434711Y-80088711D01*
X163449000Y-80071300D01*
X163463289Y-80088711D01*
X163521304Y-80136322D01*
X163587492Y-80171701D01*
X163659311Y-80193487D01*
X163734000Y-80200843D01*
X164434000Y-80200843D01*
X164508689Y-80193487D01*
X164580508Y-80171701D01*
X164646696Y-80136322D01*
X164704711Y-80088711D01*
X164719000Y-80071300D01*
X164733289Y-80088711D01*
X164791304Y-80136322D01*
X164857492Y-80171701D01*
X164929311Y-80193487D01*
X165004000Y-80200843D01*
X165704000Y-80200843D01*
X165778689Y-80193487D01*
X165850508Y-80171701D01*
X165916696Y-80136322D01*
X165974711Y-80088711D01*
X165989000Y-80071300D01*
X166003289Y-80088711D01*
X166061304Y-80136322D01*
X166127492Y-80171701D01*
X166199311Y-80193487D01*
X166274000Y-80200843D01*
X166974000Y-80200843D01*
X167048689Y-80193487D01*
X167120508Y-80171701D01*
X167186696Y-80136322D01*
X167244711Y-80088711D01*
X167259000Y-80071300D01*
X167273289Y-80088711D01*
X167331304Y-80136322D01*
X167397492Y-80171701D01*
X167469311Y-80193487D01*
X167544000Y-80200843D01*
X168244000Y-80200843D01*
X168318689Y-80193487D01*
X168390508Y-80171701D01*
X168456696Y-80136322D01*
X168514711Y-80088711D01*
X168529000Y-80071300D01*
X168543289Y-80088711D01*
X168601304Y-80136322D01*
X168667492Y-80171701D01*
X168739311Y-80193487D01*
X168814000Y-80200843D01*
X169514000Y-80200843D01*
X169588689Y-80193487D01*
X169660508Y-80171701D01*
X169726696Y-80136322D01*
X169784711Y-80088711D01*
X169799000Y-80071300D01*
X169813289Y-80088711D01*
X169871304Y-80136322D01*
X169937492Y-80171701D01*
X170009311Y-80193487D01*
X170084000Y-80200843D01*
X170784000Y-80200843D01*
X170858689Y-80193487D01*
X170930508Y-80171701D01*
X170996696Y-80136322D01*
X171054711Y-80088711D01*
X171069000Y-80071300D01*
X171083289Y-80088711D01*
X171141304Y-80136322D01*
X171207492Y-80171701D01*
X171279311Y-80193487D01*
X171354000Y-80200843D01*
X172054000Y-80200843D01*
X172128689Y-80193487D01*
X172200508Y-80171701D01*
X172266696Y-80136322D01*
X172324711Y-80088711D01*
X172339000Y-80071300D01*
X172353289Y-80088711D01*
X172411304Y-80136322D01*
X172477492Y-80171701D01*
X172549311Y-80193487D01*
X172624000Y-80200843D01*
X173324000Y-80200843D01*
X173398689Y-80193487D01*
X173470508Y-80171701D01*
X173536696Y-80136322D01*
X173594711Y-80088711D01*
X173642322Y-80030696D01*
X173677701Y-79964508D01*
X173699487Y-79892689D01*
X173706843Y-79818000D01*
X173706843Y-78075843D01*
X175449000Y-78075843D01*
X175523689Y-78068487D01*
X175595508Y-78046701D01*
X175661696Y-78011322D01*
X175719711Y-77963711D01*
X175767322Y-77905696D01*
X175802701Y-77839508D01*
X175824487Y-77767689D01*
X175831843Y-77693000D01*
X175831843Y-76993000D01*
X175824487Y-76918311D01*
X175802701Y-76846492D01*
X175767322Y-76780304D01*
X175719711Y-76722289D01*
X175702300Y-76708000D01*
X175719711Y-76693711D01*
X175767322Y-76635696D01*
X175802701Y-76569508D01*
X175824487Y-76497689D01*
X175831843Y-76423000D01*
X175831843Y-75723000D01*
X175824487Y-75648311D01*
X175802701Y-75576492D01*
X175767322Y-75510304D01*
X175719711Y-75452289D01*
X175702300Y-75438000D01*
X175719711Y-75423711D01*
X175767322Y-75365696D01*
X175802701Y-75299508D01*
X175824487Y-75227689D01*
X175831843Y-75153000D01*
X175831843Y-74453000D01*
X175824487Y-74378311D01*
X175802701Y-74306492D01*
X175767322Y-74240304D01*
X175719711Y-74182289D01*
X175702300Y-74168000D01*
X175719711Y-74153711D01*
X175767322Y-74095696D01*
X175802701Y-74029508D01*
X175824487Y-73957689D01*
X175831843Y-73883000D01*
X175831843Y-73183000D01*
X175824487Y-73108311D01*
X175802701Y-73036492D01*
X175767322Y-72970304D01*
X175719711Y-72912289D01*
X175702300Y-72898000D01*
X175719711Y-72883711D01*
X175767322Y-72825696D01*
X175802701Y-72759508D01*
X175824487Y-72687689D01*
X175831843Y-72613000D01*
X175831843Y-71913000D01*
X175824487Y-71838311D01*
X175802701Y-71766492D01*
X175767322Y-71700304D01*
X175719711Y-71642289D01*
X175702300Y-71628000D01*
X175719711Y-71613711D01*
X175767322Y-71555696D01*
X175802701Y-71489508D01*
X175824487Y-71417689D01*
X175831843Y-71343000D01*
X175831843Y-70643000D01*
X175824487Y-70568311D01*
X175802701Y-70496492D01*
X175767322Y-70430304D01*
X175719711Y-70372289D01*
X175702300Y-70358000D01*
X175719711Y-70343711D01*
X175767322Y-70285696D01*
X175802701Y-70219508D01*
X175824487Y-70147689D01*
X175831843Y-70073000D01*
X175831843Y-69373000D01*
X175824487Y-69298311D01*
X175802701Y-69226492D01*
X175767322Y-69160304D01*
X175719711Y-69102289D01*
X175702300Y-69088000D01*
X175719711Y-69073711D01*
X175767322Y-69015696D01*
X175802701Y-68949508D01*
X175824487Y-68877689D01*
X175831843Y-68803000D01*
X175831843Y-68103000D01*
X175824487Y-68028311D01*
X175802701Y-67956492D01*
X175767322Y-67890304D01*
X175719711Y-67832289D01*
X175702300Y-67818000D01*
X175719711Y-67803711D01*
X175767322Y-67745696D01*
X175802701Y-67679508D01*
X175824487Y-67607689D01*
X175831843Y-67533000D01*
X175831843Y-66833000D01*
X175824487Y-66758311D01*
X175802701Y-66686492D01*
X175767322Y-66620304D01*
X175719711Y-66562289D01*
X175702300Y-66548000D01*
X175719711Y-66533711D01*
X175767322Y-66475696D01*
X175802701Y-66409508D01*
X175824487Y-66337689D01*
X175831843Y-66263000D01*
X175831843Y-65563000D01*
X175824487Y-65488311D01*
X175802701Y-65416492D01*
X175767322Y-65350304D01*
X175719711Y-65292289D01*
X175702300Y-65278000D01*
X175719711Y-65263711D01*
X175767322Y-65205696D01*
X175802701Y-65139508D01*
X175824487Y-65067689D01*
X175831843Y-64993000D01*
X175831843Y-64293000D01*
X175824487Y-64218311D01*
X175802701Y-64146492D01*
X175767322Y-64080304D01*
X175719711Y-64022289D01*
X175702300Y-64008000D01*
X175719711Y-63993711D01*
X175767322Y-63935696D01*
X175802701Y-63869508D01*
X175824487Y-63797689D01*
X175831843Y-63723000D01*
X175831843Y-63023000D01*
X175824487Y-62948311D01*
X175802701Y-62876492D01*
X175767322Y-62810304D01*
X175719711Y-62752289D01*
X175702300Y-62738000D01*
X175719711Y-62723711D01*
X175767322Y-62665696D01*
X175802701Y-62599508D01*
X175824487Y-62527689D01*
X175831843Y-62453000D01*
X175831843Y-61753000D01*
X175824487Y-61678311D01*
X175802701Y-61606492D01*
X175767322Y-61540304D01*
X175719711Y-61482289D01*
X175661696Y-61434678D01*
X175595508Y-61399299D01*
X175523689Y-61377513D01*
X175449000Y-61370157D01*
X174705976Y-61370157D01*
X174731704Y-61274140D01*
X174748741Y-61144730D01*
X174752000Y-61095000D01*
X174752000Y-31996000D01*
X174748741Y-31946270D01*
X174731704Y-31816860D01*
X174705961Y-31720788D01*
X174656011Y-31600198D01*
X174606279Y-31514060D01*
X174526819Y-31410507D01*
X174456493Y-31340181D01*
X174352940Y-31260721D01*
X174266802Y-31210989D01*
X174146212Y-31161039D01*
X174050140Y-31135296D01*
X173920730Y-31118259D01*
X173871000Y-31115000D01*
X172966000Y-31115000D01*
X172916270Y-31118259D01*
X172786860Y-31135296D01*
X172690788Y-31161039D01*
X172570198Y-31210989D01*
X172484060Y-31260721D01*
X172380507Y-31340181D01*
X172310181Y-31410507D01*
X172230721Y-31514060D01*
X172180989Y-31600198D01*
X172131039Y-31720788D01*
X172105296Y-31816860D01*
X172088259Y-31946270D01*
X172085000Y-31996000D01*
X172085000Y-59248210D01*
X172054000Y-59245157D01*
X171354000Y-59245157D01*
X171279311Y-59252513D01*
X171207492Y-59274299D01*
X171141304Y-59309678D01*
X171083289Y-59357289D01*
X171069000Y-59374700D01*
X171054711Y-59357289D01*
X170996696Y-59309678D01*
X170930508Y-59274299D01*
X170858689Y-59252513D01*
X170784000Y-59245157D01*
X170084000Y-59245157D01*
X170009311Y-59252513D01*
X169937492Y-59274299D01*
X169871304Y-59309678D01*
X169813289Y-59357289D01*
X169799000Y-59374700D01*
X169784711Y-59357289D01*
X169726696Y-59309678D01*
X169660508Y-59274299D01*
X169588689Y-59252513D01*
X169514000Y-59245157D01*
X168814000Y-59245157D01*
X168739311Y-59252513D01*
X168667492Y-59274299D01*
X168601304Y-59309678D01*
X168543289Y-59357289D01*
X168529000Y-59374700D01*
X168514711Y-59357289D01*
X168456696Y-59309678D01*
X168390508Y-59274299D01*
X168318689Y-59252513D01*
X168244000Y-59245157D01*
X167544000Y-59245157D01*
X167469311Y-59252513D01*
X167397492Y-59274299D01*
X167331304Y-59309678D01*
X167273289Y-59357289D01*
X167259000Y-59374700D01*
X167244711Y-59357289D01*
X167186696Y-59309678D01*
X167120508Y-59274299D01*
X167048689Y-59252513D01*
X166974000Y-59245157D01*
X166274000Y-59245157D01*
X166199311Y-59252513D01*
X166127492Y-59274299D01*
X166061304Y-59309678D01*
X166003289Y-59357289D01*
X165989000Y-59374700D01*
X165974711Y-59357289D01*
X165916696Y-59309678D01*
X165850508Y-59274299D01*
X165778689Y-59252513D01*
X165704000Y-59245157D01*
X165004000Y-59245157D01*
X164929311Y-59252513D01*
X164857492Y-59274299D01*
X164791304Y-59309678D01*
X164733289Y-59357289D01*
X164719000Y-59374700D01*
X164704711Y-59357289D01*
X164646696Y-59309678D01*
X164580508Y-59274299D01*
X164508689Y-59252513D01*
X164434000Y-59245157D01*
X163734000Y-59245157D01*
X163659311Y-59252513D01*
X163587492Y-59274299D01*
X163521304Y-59309678D01*
X163463289Y-59357289D01*
X163449000Y-59374700D01*
X163434711Y-59357289D01*
X163376696Y-59309678D01*
X163310508Y-59274299D01*
X163238689Y-59252513D01*
X163164000Y-59245157D01*
X162464000Y-59245157D01*
X162389311Y-59252513D01*
X162317492Y-59274299D01*
X162251304Y-59309678D01*
X162193289Y-59357289D01*
X162179000Y-59374700D01*
X162164711Y-59357289D01*
X162106696Y-59309678D01*
X162040508Y-59274299D01*
X161968689Y-59252513D01*
X161894000Y-59245157D01*
X161194000Y-59245157D01*
X161119311Y-59252513D01*
X161047492Y-59274299D01*
X160981304Y-59309678D01*
X160923289Y-59357289D01*
X160909000Y-59374700D01*
X160894711Y-59357289D01*
X160836696Y-59309678D01*
X160770508Y-59274299D01*
X160698689Y-59252513D01*
X160624000Y-59245157D01*
X159924000Y-59245157D01*
X159849311Y-59252513D01*
X159777492Y-59274299D01*
X159711304Y-59309678D01*
X159653289Y-59357289D01*
X159639000Y-59374700D01*
X159624711Y-59357289D01*
X159566696Y-59309678D01*
X159500508Y-59274299D01*
X159428689Y-59252513D01*
X159354000Y-59245157D01*
X158654000Y-59245157D01*
X158579311Y-59252513D01*
X158507492Y-59274299D01*
X158441304Y-59309678D01*
X158383289Y-59357289D01*
X158369000Y-59374700D01*
X158354711Y-59357289D01*
X158296696Y-59309678D01*
X158230508Y-59274299D01*
X158158689Y-59252513D01*
X158084000Y-59245157D01*
X157384000Y-59245157D01*
X157309311Y-59252513D01*
X157237492Y-59274299D01*
X157171304Y-59309678D01*
X157113289Y-59357289D01*
X157065678Y-59415304D01*
X157030299Y-59481492D01*
X157008513Y-59553311D01*
X157001157Y-59628000D01*
X157001157Y-61370157D01*
X155259000Y-61370157D01*
X155184311Y-61377513D01*
X155112492Y-61399299D01*
X155046304Y-61434678D01*
X154988289Y-61482289D01*
X154940678Y-61540304D01*
X154905299Y-61606492D01*
X154883513Y-61678311D01*
X154876157Y-61753000D01*
X152094000Y-61753000D01*
X152094000Y-25803305D01*
X152118904Y-25549313D01*
X152186189Y-25326455D01*
X152295480Y-25120909D01*
X152442618Y-24940500D01*
X152621986Y-24792115D01*
X152826763Y-24681391D01*
X153049152Y-24612549D01*
X153301753Y-24586000D01*
X177396695Y-24586000D01*
X177650687Y-24610904D01*
G37*
G04 #@! TD.AperFunction*
D13*
X173967257Y-31636769D02*
X174056955Y-31673923D01*
X174133976Y-31733024D01*
X174193077Y-31810045D01*
X174230231Y-31899743D01*
X174244000Y-32004328D01*
X174244000Y-61086672D01*
X174230231Y-61191257D01*
X174193077Y-61280955D01*
X174133976Y-61357976D01*
X174118102Y-61370157D01*
X173961242Y-61370157D01*
X173959000Y-60876250D01*
X173800250Y-60717500D01*
X173101000Y-60717500D01*
X173101000Y-60737500D01*
X172847000Y-60737500D01*
X172847000Y-60717500D01*
X172827000Y-60717500D01*
X172827000Y-60463500D01*
X172847000Y-60463500D01*
X172847000Y-59151750D01*
X173101000Y-59151750D01*
X173101000Y-60463500D01*
X173800250Y-60463500D01*
X173959000Y-60304750D01*
X173962072Y-59628000D01*
X173949812Y-59503518D01*
X173913502Y-59383820D01*
X173854537Y-59273506D01*
X173775185Y-59176815D01*
X173678494Y-59097463D01*
X173568180Y-59038498D01*
X173448482Y-59002188D01*
X173324000Y-58989928D01*
X173259750Y-58993000D01*
X173101000Y-59151750D01*
X172847000Y-59151750D01*
X172688250Y-58993000D01*
X172624000Y-58989928D01*
X172593000Y-58992981D01*
X172593000Y-32004328D01*
X172606769Y-31899743D01*
X172643923Y-31810045D01*
X172703024Y-31733024D01*
X172780045Y-31673923D01*
X172869743Y-31636769D01*
X172974328Y-31623000D01*
X173862672Y-31623000D01*
X173967257Y-31636769D01*
G04 #@! TA.AperFunction,Conductor*
D14*
G36*
X173967257Y-31636769D02*
G01*
X174056955Y-31673923D01*
X174133976Y-31733024D01*
X174193077Y-31810045D01*
X174230231Y-31899743D01*
X174244000Y-32004328D01*
X174244000Y-61086672D01*
X174230231Y-61191257D01*
X174193077Y-61280955D01*
X174133976Y-61357976D01*
X174118102Y-61370157D01*
X173961242Y-61370157D01*
X173959000Y-60876250D01*
X173800250Y-60717500D01*
X173101000Y-60717500D01*
X173101000Y-60737500D01*
X172847000Y-60737500D01*
X172847000Y-60717500D01*
X172827000Y-60717500D01*
X172827000Y-60463500D01*
X172847000Y-60463500D01*
X172847000Y-59151750D01*
X173101000Y-59151750D01*
X173101000Y-60463500D01*
X173800250Y-60463500D01*
X173959000Y-60304750D01*
X173962072Y-59628000D01*
X173949812Y-59503518D01*
X173913502Y-59383820D01*
X173854537Y-59273506D01*
X173775185Y-59176815D01*
X173678494Y-59097463D01*
X173568180Y-59038498D01*
X173448482Y-59002188D01*
X173324000Y-58989928D01*
X173259750Y-58993000D01*
X173101000Y-59151750D01*
X172847000Y-59151750D01*
X172688250Y-58993000D01*
X172624000Y-58989928D01*
X172593000Y-58992981D01*
X172593000Y-32004328D01*
X172606769Y-31899743D01*
X172643923Y-31810045D01*
X172703024Y-31733024D01*
X172780045Y-31673923D01*
X172869743Y-31636769D01*
X172974328Y-31623000D01*
X173862672Y-31623000D01*
X173967257Y-31636769D01*
G37*
G04 #@! TD.AperFunction*
M02*
