G04 #@! TF.GenerationSoftware,KiCad,Pcbnew,(5.1.9)-1*
G04 #@! TF.CreationDate,2021-05-18T14:16:41+01:00*
G04 #@! TF.ProjectId,RGBtoHDMI Amiga Denise PLCC SMT Breakout FFC,52474274-6f48-4444-9d49-20416d696761,1*
G04 #@! TF.SameCoordinates,Original*
G04 #@! TF.FileFunction,Legend,Bot*
G04 #@! TF.FilePolarity,Positive*
%FSLAX46Y46*%
G04 Gerber Fmt 4.6, Leading zero omitted, Abs format (unit mm)*
G04 Created by KiCad (PCBNEW (5.1.9)-1) date 2021-05-18 14:16:41*
%MOMM*%
%LPD*%
G01*
G04 APERTURE LIST*
%ADD10C,0.120000*%
%ADD11C,0.100000*%
%ADD12C,0.150000*%
G04 APERTURE END LIST*
D10*
X166354000Y-82793000D02*
X177424000Y-82793000D01*
X177424000Y-82793000D02*
X178424000Y-81793000D01*
X178424000Y-81793000D02*
X178424000Y-56653000D01*
X178424000Y-56653000D02*
X152284000Y-56653000D01*
X152284000Y-56653000D02*
X152284000Y-82793000D01*
X152284000Y-82793000D02*
X164354000Y-82793000D01*
D11*
X173949000Y-79968000D02*
X174449000Y-79968000D01*
X174449000Y-79968000D02*
X175599000Y-78818000D01*
X175599000Y-78818000D02*
X175599000Y-78318000D01*
X156759000Y-79968000D02*
X155109000Y-79968000D01*
X155109000Y-79968000D02*
X155109000Y-78318000D01*
X173949000Y-59478000D02*
X175599000Y-59478000D01*
X175599000Y-59478000D02*
X175599000Y-61128000D01*
X156759000Y-59478000D02*
X155109000Y-59478000D01*
X155109000Y-59478000D02*
X155109000Y-61128000D01*
D12*
X166115904Y-54570380D02*
X166115904Y-55379904D01*
X166068285Y-55475142D01*
X166020666Y-55522761D01*
X165925428Y-55570380D01*
X165734952Y-55570380D01*
X165639714Y-55522761D01*
X165592095Y-55475142D01*
X165544476Y-55379904D01*
X165544476Y-54570380D01*
X164639714Y-54903714D02*
X164639714Y-55570380D01*
X164877809Y-54522761D02*
X165115904Y-55237047D01*
X164496857Y-55237047D01*
M02*
