M48
; DRILL file {KiCad (5.1.9)-1} date 05/18/21 14:16:38
; FORMAT={-:-/ absolute / inch / decimal}
; #@! TF.CreationDate,2021-05-18T14:16:38+01:00
; #@! TF.GenerationSoftware,Kicad,Pcbnew,(5.1.9)-1
; #@! TF.FileFunction,Plated,1,2,PTH
FMAT,2
INCH
T1C0.0157
%
G90
G05
T1
X6.15Y-2.445
X6.15Y-2.495
X6.15Y-2.545
X6.15Y-2.595
X6.15Y-2.645
X6.15Y-2.695
X6.15Y-2.745
X6.15Y-2.795
X6.15Y-2.845
X6.15Y-2.895
X6.15Y-2.945
X6.15Y-2.995
X6.15Y-3.045
X6.175Y-1.28
X6.21Y-2.385
X6.21Y-3.105
X6.215Y-1.28
X6.26Y-2.385
X6.26Y-3.105
X6.31Y-2.385
X6.31Y-3.105
X6.36Y-2.385
X6.36Y-3.105
X6.41Y-2.385
X6.41Y-3.105
X6.46Y-2.385
X6.46Y-3.105
X6.51Y-2.385
X6.51Y-3.105
X6.56Y-2.385
X6.56Y-3.105
X6.61Y-2.385
X6.61Y-3.105
X6.66Y-2.385
X6.66Y-3.105
X6.71Y-2.385
X6.71Y-3.105
X6.76Y-2.385
X6.76Y-3.105
X6.8056Y-1.285
X6.81Y-2.36
X6.81Y-2.405
X6.81Y-3.105
X6.845Y-1.285
X6.87Y-2.445
X6.87Y-2.495
X6.87Y-2.545
X6.87Y-2.595
X6.87Y-2.645
X6.87Y-2.695
X6.87Y-2.745
X6.87Y-2.795
X6.87Y-2.845
X6.87Y-2.895
X6.87Y-2.945
X6.87Y-2.995
X6.87Y-3.045
T0
M30
