G04 #@! TF.GenerationSoftware,KiCad,Pcbnew,(5.1.9)-1*
G04 #@! TF.CreationDate,2021-04-27T11:27:05+01:00*
G04 #@! TF.ProjectId,RGBtoHDMI Amiga Denise - solarmon - Rev 2 - SOIC,52474274-6f48-4444-9d49-20416d696761,2 (SOIC)*
G04 #@! TF.SameCoordinates,Original*
G04 #@! TF.FileFunction,Legend,Bot*
G04 #@! TF.FilePolarity,Positive*
%FSLAX46Y46*%
G04 Gerber Fmt 4.6, Leading zero omitted, Abs format (unit mm)*
G04 Created by KiCad (PCBNEW (5.1.9)-1) date 2021-04-27 11:27:05*
%MOMM*%
%LPD*%
G01*
G04 APERTURE LIST*
%ADD10C,0.125000*%
%ADD11C,0.120000*%
G04 APERTURE END LIST*
D10*
X209123107Y-80141000D02*
X209170726Y-80117190D01*
X209242154Y-80117190D01*
X209313583Y-80141000D01*
X209361202Y-80188619D01*
X209385011Y-80236238D01*
X209408821Y-80331476D01*
X209408821Y-80402904D01*
X209385011Y-80498142D01*
X209361202Y-80545761D01*
X209313583Y-80593380D01*
X209242154Y-80617190D01*
X209194535Y-80617190D01*
X209123107Y-80593380D01*
X209099297Y-80569571D01*
X209099297Y-80402904D01*
X209194535Y-80402904D01*
X208885011Y-80617190D02*
X208885011Y-80117190D01*
X208599297Y-80617190D01*
X208599297Y-80117190D01*
X208361202Y-80617190D02*
X208361202Y-80117190D01*
X208242154Y-80117190D01*
X208170726Y-80141000D01*
X208123107Y-80188619D01*
X208099297Y-80236238D01*
X208075488Y-80331476D01*
X208075488Y-80402904D01*
X208099297Y-80498142D01*
X208123107Y-80545761D01*
X208170726Y-80593380D01*
X208242154Y-80617190D01*
X208361202Y-80617190D01*
X209512011Y-77886714D02*
X209131059Y-77886714D01*
X209321535Y-78077190D02*
X209321535Y-77696238D01*
X208654869Y-77577190D02*
X208892964Y-77577190D01*
X208916773Y-77815285D01*
X208892964Y-77791476D01*
X208845345Y-77767666D01*
X208726297Y-77767666D01*
X208678678Y-77791476D01*
X208654869Y-77815285D01*
X208631059Y-77862904D01*
X208631059Y-77981952D01*
X208654869Y-78029571D01*
X208678678Y-78053380D01*
X208726297Y-78077190D01*
X208845345Y-78077190D01*
X208892964Y-78053380D01*
X208916773Y-78029571D01*
X208488202Y-77577190D02*
X208321535Y-78077190D01*
X208154869Y-77577190D01*
X204302844Y-74972690D02*
X204302844Y-74472690D01*
X204183797Y-74472690D01*
X204112368Y-74496500D01*
X204064749Y-74544119D01*
X204040940Y-74591738D01*
X204017130Y-74686976D01*
X204017130Y-74758404D01*
X204040940Y-74853642D01*
X204064749Y-74901261D01*
X204112368Y-74948880D01*
X204183797Y-74972690D01*
X204302844Y-74972690D01*
X203802844Y-74972690D02*
X203802844Y-74639357D01*
X203802844Y-74472690D02*
X203826654Y-74496500D01*
X203802844Y-74520309D01*
X203779035Y-74496500D01*
X203802844Y-74472690D01*
X203802844Y-74520309D01*
X203588559Y-74948880D02*
X203540940Y-74972690D01*
X203445702Y-74972690D01*
X203398083Y-74948880D01*
X203374273Y-74901261D01*
X203374273Y-74877452D01*
X203398083Y-74829833D01*
X203445702Y-74806023D01*
X203517130Y-74806023D01*
X203564749Y-74782214D01*
X203588559Y-74734595D01*
X203588559Y-74710785D01*
X203564749Y-74663166D01*
X203517130Y-74639357D01*
X203445702Y-74639357D01*
X203398083Y-74663166D01*
X203159987Y-74639357D02*
X203159987Y-75139357D01*
X203159987Y-74663166D02*
X203112368Y-74639357D01*
X203017130Y-74639357D01*
X202969511Y-74663166D01*
X202945702Y-74686976D01*
X202921892Y-74734595D01*
X202921892Y-74877452D01*
X202945702Y-74925071D01*
X202969511Y-74948880D01*
X203017130Y-74972690D01*
X203112368Y-74972690D01*
X203159987Y-74948880D01*
X202636178Y-74972690D02*
X202683797Y-74948880D01*
X202707606Y-74901261D01*
X202707606Y-74472690D01*
X202231416Y-74972690D02*
X202231416Y-74710785D01*
X202255225Y-74663166D01*
X202302844Y-74639357D01*
X202398083Y-74639357D01*
X202445702Y-74663166D01*
X202231416Y-74948880D02*
X202279035Y-74972690D01*
X202398083Y-74972690D01*
X202445702Y-74948880D01*
X202469511Y-74901261D01*
X202469511Y-74853642D01*
X202445702Y-74806023D01*
X202398083Y-74782214D01*
X202279035Y-74782214D01*
X202231416Y-74758404D01*
X202040940Y-74639357D02*
X201921892Y-74972690D01*
X201802844Y-74639357D02*
X201921892Y-74972690D01*
X201969511Y-75091738D01*
X201993321Y-75115547D01*
X202040940Y-75139357D01*
X201136178Y-74472690D02*
X201040940Y-74472690D01*
X200993321Y-74496500D01*
X200945702Y-74544119D01*
X200921892Y-74639357D01*
X200921892Y-74806023D01*
X200945702Y-74901261D01*
X200993321Y-74948880D01*
X201040940Y-74972690D01*
X201136178Y-74972690D01*
X201183797Y-74948880D01*
X201231416Y-74901261D01*
X201255225Y-74806023D01*
X201255225Y-74639357D01*
X201231416Y-74544119D01*
X201183797Y-74496500D01*
X201136178Y-74472690D01*
X200493321Y-74639357D02*
X200493321Y-74972690D01*
X200707606Y-74639357D02*
X200707606Y-74901261D01*
X200683797Y-74948880D01*
X200636178Y-74972690D01*
X200564749Y-74972690D01*
X200517130Y-74948880D01*
X200493321Y-74925071D01*
X200326654Y-74639357D02*
X200136178Y-74639357D01*
X200255225Y-74472690D02*
X200255225Y-74901261D01*
X200231416Y-74948880D01*
X200183797Y-74972690D01*
X200136178Y-74972690D01*
X199969511Y-74639357D02*
X199969511Y-75139357D01*
X199969511Y-74663166D02*
X199921892Y-74639357D01*
X199826654Y-74639357D01*
X199779035Y-74663166D01*
X199755225Y-74686976D01*
X199731416Y-74734595D01*
X199731416Y-74877452D01*
X199755225Y-74925071D01*
X199779035Y-74948880D01*
X199826654Y-74972690D01*
X199921892Y-74972690D01*
X199969511Y-74948880D01*
X199302844Y-74639357D02*
X199302844Y-74972690D01*
X199517130Y-74639357D02*
X199517130Y-74901261D01*
X199493321Y-74948880D01*
X199445702Y-74972690D01*
X199374273Y-74972690D01*
X199326654Y-74948880D01*
X199302844Y-74925071D01*
X199136178Y-74639357D02*
X198945702Y-74639357D01*
X199064749Y-74472690D02*
X199064749Y-74901261D01*
X199040940Y-74948880D01*
X198993321Y-74972690D01*
X198945702Y-74972690D01*
X202445702Y-76038166D02*
X202469511Y-76014357D01*
X202517130Y-75942928D01*
X202540940Y-75895309D01*
X202564749Y-75823880D01*
X202588559Y-75704833D01*
X202588559Y-75609595D01*
X202564749Y-75490547D01*
X202540940Y-75419119D01*
X202517130Y-75371500D01*
X202469511Y-75300071D01*
X202445702Y-75276261D01*
X202088559Y-75585785D02*
X202017130Y-75609595D01*
X201993321Y-75633404D01*
X201969511Y-75681023D01*
X201969511Y-75752452D01*
X201993321Y-75800071D01*
X202017130Y-75823880D01*
X202064749Y-75847690D01*
X202255225Y-75847690D01*
X202255225Y-75347690D01*
X202088559Y-75347690D01*
X202040940Y-75371500D01*
X202017130Y-75395309D01*
X201993321Y-75442928D01*
X201993321Y-75490547D01*
X202017130Y-75538166D01*
X202040940Y-75561976D01*
X202088559Y-75585785D01*
X202255225Y-75585785D01*
X201540940Y-75514357D02*
X201540940Y-75847690D01*
X201755225Y-75514357D02*
X201755225Y-75776261D01*
X201731416Y-75823880D01*
X201683797Y-75847690D01*
X201612368Y-75847690D01*
X201564749Y-75823880D01*
X201540940Y-75800071D01*
X201374273Y-75514357D02*
X201183797Y-75514357D01*
X201302844Y-75847690D02*
X201302844Y-75419119D01*
X201279035Y-75371500D01*
X201231416Y-75347690D01*
X201183797Y-75347690D01*
X201088559Y-75514357D02*
X200898083Y-75514357D01*
X201017130Y-75847690D02*
X201017130Y-75419119D01*
X200993321Y-75371500D01*
X200945702Y-75347690D01*
X200898083Y-75347690D01*
X200540940Y-75823880D02*
X200588559Y-75847690D01*
X200683797Y-75847690D01*
X200731416Y-75823880D01*
X200755225Y-75776261D01*
X200755225Y-75585785D01*
X200731416Y-75538166D01*
X200683797Y-75514357D01*
X200588559Y-75514357D01*
X200540940Y-75538166D01*
X200517130Y-75585785D01*
X200517130Y-75633404D01*
X200755225Y-75681023D01*
X200302844Y-75847690D02*
X200302844Y-75514357D01*
X200302844Y-75609595D02*
X200279035Y-75561976D01*
X200255225Y-75538166D01*
X200207606Y-75514357D01*
X200159987Y-75514357D01*
X199802844Y-75823880D02*
X199850463Y-75847690D01*
X199945702Y-75847690D01*
X199993321Y-75823880D01*
X200017130Y-75776261D01*
X200017130Y-75585785D01*
X199993321Y-75538166D01*
X199945702Y-75514357D01*
X199850463Y-75514357D01*
X199802844Y-75538166D01*
X199779035Y-75585785D01*
X199779035Y-75633404D01*
X200017130Y-75681023D01*
X199350463Y-75847690D02*
X199350463Y-75347690D01*
X199350463Y-75823880D02*
X199398083Y-75847690D01*
X199493321Y-75847690D01*
X199540940Y-75823880D01*
X199564749Y-75800071D01*
X199588559Y-75752452D01*
X199588559Y-75609595D01*
X199564749Y-75561976D01*
X199540940Y-75538166D01*
X199493321Y-75514357D01*
X199398083Y-75514357D01*
X199350463Y-75538166D01*
X199159987Y-76038166D02*
X199136178Y-76014357D01*
X199088559Y-75942928D01*
X199064749Y-75895309D01*
X199040940Y-75823880D01*
X199017130Y-75704833D01*
X199017130Y-75609595D01*
X199040940Y-75490547D01*
X199064749Y-75419119D01*
X199088559Y-75371500D01*
X199136178Y-75300071D01*
X199159987Y-75276261D01*
X204279036Y-72915428D02*
X204279036Y-72315428D01*
X204136179Y-72315428D01*
X204050464Y-72344000D01*
X203993321Y-72401142D01*
X203964750Y-72458285D01*
X203936179Y-72572571D01*
X203936179Y-72658285D01*
X203964750Y-72772571D01*
X203993321Y-72829714D01*
X204050464Y-72886857D01*
X204136179Y-72915428D01*
X204279036Y-72915428D01*
X203679036Y-72915428D02*
X203679036Y-72515428D01*
X203679036Y-72315428D02*
X203707607Y-72344000D01*
X203679036Y-72372571D01*
X203650464Y-72344000D01*
X203679036Y-72315428D01*
X203679036Y-72372571D01*
X203421893Y-72886857D02*
X203364750Y-72915428D01*
X203250464Y-72915428D01*
X203193321Y-72886857D01*
X203164750Y-72829714D01*
X203164750Y-72801142D01*
X203193321Y-72744000D01*
X203250464Y-72715428D01*
X203336179Y-72715428D01*
X203393321Y-72686857D01*
X203421893Y-72629714D01*
X203421893Y-72601142D01*
X203393321Y-72544000D01*
X203336179Y-72515428D01*
X203250464Y-72515428D01*
X203193321Y-72544000D01*
X202907607Y-72515428D02*
X202907607Y-73115428D01*
X202907607Y-72544000D02*
X202850464Y-72515428D01*
X202736179Y-72515428D01*
X202679036Y-72544000D01*
X202650464Y-72572571D01*
X202621893Y-72629714D01*
X202621893Y-72801142D01*
X202650464Y-72858285D01*
X202679036Y-72886857D01*
X202736179Y-72915428D01*
X202850464Y-72915428D01*
X202907607Y-72886857D01*
X202279036Y-72915428D02*
X202336179Y-72886857D01*
X202364750Y-72829714D01*
X202364750Y-72315428D01*
X201793321Y-72915428D02*
X201793321Y-72601142D01*
X201821893Y-72544000D01*
X201879036Y-72515428D01*
X201993321Y-72515428D01*
X202050464Y-72544000D01*
X201793321Y-72886857D02*
X201850464Y-72915428D01*
X201993321Y-72915428D01*
X202050464Y-72886857D01*
X202079036Y-72829714D01*
X202079036Y-72772571D01*
X202050464Y-72715428D01*
X201993321Y-72686857D01*
X201850464Y-72686857D01*
X201793321Y-72658285D01*
X201564750Y-72515428D02*
X201421893Y-72915428D01*
X201279036Y-72515428D02*
X201421893Y-72915428D01*
X201479036Y-73058285D01*
X201507607Y-73086857D01*
X201564750Y-73115428D01*
X200593321Y-72601142D02*
X200393321Y-72601142D01*
X200307607Y-72915428D02*
X200593321Y-72915428D01*
X200593321Y-72315428D01*
X200307607Y-72315428D01*
X200050464Y-72515428D02*
X200050464Y-72915428D01*
X200050464Y-72572571D02*
X200021893Y-72544000D01*
X199964750Y-72515428D01*
X199879036Y-72515428D01*
X199821893Y-72544000D01*
X199793321Y-72601142D01*
X199793321Y-72915428D01*
X199250464Y-72915428D02*
X199250464Y-72601142D01*
X199279036Y-72544000D01*
X199336179Y-72515428D01*
X199450464Y-72515428D01*
X199507607Y-72544000D01*
X199250464Y-72886857D02*
X199307607Y-72915428D01*
X199450464Y-72915428D01*
X199507607Y-72886857D01*
X199536179Y-72829714D01*
X199536179Y-72772571D01*
X199507607Y-72715428D01*
X199450464Y-72686857D01*
X199307607Y-72686857D01*
X199250464Y-72658285D01*
X198964750Y-72915428D02*
X198964750Y-72315428D01*
X198964750Y-72544000D02*
X198907607Y-72515428D01*
X198793321Y-72515428D01*
X198736179Y-72544000D01*
X198707607Y-72572571D01*
X198679036Y-72629714D01*
X198679036Y-72801142D01*
X198707607Y-72858285D01*
X198736179Y-72886857D01*
X198793321Y-72915428D01*
X198907607Y-72915428D01*
X198964750Y-72886857D01*
X198336179Y-72915428D02*
X198393321Y-72886857D01*
X198421893Y-72829714D01*
X198421893Y-72315428D01*
X197879036Y-72886857D02*
X197936179Y-72915428D01*
X198050464Y-72915428D01*
X198107607Y-72886857D01*
X198136179Y-72829714D01*
X198136179Y-72601142D01*
X198107607Y-72544000D01*
X198050464Y-72515428D01*
X197936179Y-72515428D01*
X197879036Y-72544000D01*
X197850464Y-72601142D01*
X197850464Y-72658285D01*
X198136179Y-72715428D01*
X204279036Y-70629428D02*
X204279036Y-70029428D01*
X204136179Y-70029428D01*
X204050464Y-70058000D01*
X203993322Y-70115142D01*
X203964750Y-70172285D01*
X203936179Y-70286571D01*
X203936179Y-70372285D01*
X203964750Y-70486571D01*
X203993322Y-70543714D01*
X204050464Y-70600857D01*
X204136179Y-70629428D01*
X204279036Y-70629428D01*
X203679036Y-70629428D02*
X203679036Y-70229428D01*
X203679036Y-70029428D02*
X203707607Y-70058000D01*
X203679036Y-70086571D01*
X203650464Y-70058000D01*
X203679036Y-70029428D01*
X203679036Y-70086571D01*
X203421893Y-70600857D02*
X203364750Y-70629428D01*
X203250464Y-70629428D01*
X203193322Y-70600857D01*
X203164750Y-70543714D01*
X203164750Y-70515142D01*
X203193322Y-70458000D01*
X203250464Y-70429428D01*
X203336179Y-70429428D01*
X203393322Y-70400857D01*
X203421893Y-70343714D01*
X203421893Y-70315142D01*
X203393322Y-70258000D01*
X203336179Y-70229428D01*
X203250464Y-70229428D01*
X203193322Y-70258000D01*
X202907607Y-70229428D02*
X202907607Y-70829428D01*
X202907607Y-70258000D02*
X202850464Y-70229428D01*
X202736179Y-70229428D01*
X202679036Y-70258000D01*
X202650464Y-70286571D01*
X202621893Y-70343714D01*
X202621893Y-70515142D01*
X202650464Y-70572285D01*
X202679036Y-70600857D01*
X202736179Y-70629428D01*
X202850464Y-70629428D01*
X202907607Y-70600857D01*
X202279036Y-70629428D02*
X202336179Y-70600857D01*
X202364750Y-70543714D01*
X202364750Y-70029428D01*
X201793322Y-70629428D02*
X201793322Y-70315142D01*
X201821893Y-70258000D01*
X201879036Y-70229428D01*
X201993322Y-70229428D01*
X202050464Y-70258000D01*
X201793322Y-70600857D02*
X201850464Y-70629428D01*
X201993322Y-70629428D01*
X202050464Y-70600857D01*
X202079036Y-70543714D01*
X202079036Y-70486571D01*
X202050464Y-70429428D01*
X201993322Y-70400857D01*
X201850464Y-70400857D01*
X201793322Y-70372285D01*
X201564750Y-70229428D02*
X201421893Y-70629428D01*
X201279036Y-70229428D02*
X201421893Y-70629428D01*
X201479036Y-70772285D01*
X201507607Y-70800857D01*
X201564750Y-70829428D01*
X200479036Y-70029428D02*
X200364750Y-70029428D01*
X200307607Y-70058000D01*
X200250464Y-70115142D01*
X200221893Y-70229428D01*
X200221893Y-70429428D01*
X200250464Y-70543714D01*
X200307607Y-70600857D01*
X200364750Y-70629428D01*
X200479036Y-70629428D01*
X200536179Y-70600857D01*
X200593322Y-70543714D01*
X200621893Y-70429428D01*
X200621893Y-70229428D01*
X200593322Y-70115142D01*
X200536179Y-70058000D01*
X200479036Y-70029428D01*
X199707607Y-70229428D02*
X199707607Y-70629428D01*
X199964750Y-70229428D02*
X199964750Y-70543714D01*
X199936179Y-70600857D01*
X199879036Y-70629428D01*
X199793322Y-70629428D01*
X199736179Y-70600857D01*
X199707607Y-70572285D01*
X199507607Y-70229428D02*
X199279036Y-70229428D01*
X199421893Y-70029428D02*
X199421893Y-70543714D01*
X199393322Y-70600857D01*
X199336179Y-70629428D01*
X199279036Y-70629428D01*
X199079036Y-70229428D02*
X199079036Y-70829428D01*
X199079036Y-70258000D02*
X199021893Y-70229428D01*
X198907607Y-70229428D01*
X198850464Y-70258000D01*
X198821893Y-70286571D01*
X198793322Y-70343714D01*
X198793322Y-70515142D01*
X198821893Y-70572285D01*
X198850464Y-70600857D01*
X198907607Y-70629428D01*
X199021893Y-70629428D01*
X199079036Y-70600857D01*
X198279036Y-70229428D02*
X198279036Y-70629428D01*
X198536179Y-70229428D02*
X198536179Y-70543714D01*
X198507607Y-70600857D01*
X198450464Y-70629428D01*
X198364750Y-70629428D01*
X198307607Y-70600857D01*
X198279036Y-70572285D01*
X198079036Y-70229428D02*
X197850464Y-70229428D01*
X197993322Y-70029428D02*
X197993322Y-70543714D01*
X197964750Y-70600857D01*
X197907607Y-70629428D01*
X197850464Y-70629428D01*
X203917428Y-67905285D02*
X203946000Y-67933857D01*
X204031714Y-67962428D01*
X204088857Y-67962428D01*
X204174571Y-67933857D01*
X204231714Y-67876714D01*
X204260285Y-67819571D01*
X204288857Y-67705285D01*
X204288857Y-67619571D01*
X204260285Y-67505285D01*
X204231714Y-67448142D01*
X204174571Y-67391000D01*
X204088857Y-67362428D01*
X204031714Y-67362428D01*
X203946000Y-67391000D01*
X203917428Y-67419571D01*
X203688857Y-67933857D02*
X203603142Y-67962428D01*
X203460285Y-67962428D01*
X203403142Y-67933857D01*
X203374571Y-67905285D01*
X203346000Y-67848142D01*
X203346000Y-67791000D01*
X203374571Y-67733857D01*
X203403142Y-67705285D01*
X203460285Y-67676714D01*
X203574571Y-67648142D01*
X203631714Y-67619571D01*
X203660285Y-67591000D01*
X203688857Y-67533857D01*
X203688857Y-67476714D01*
X203660285Y-67419571D01*
X203631714Y-67391000D01*
X203574571Y-67362428D01*
X203431714Y-67362428D01*
X203346000Y-67391000D01*
X202974571Y-67676714D02*
X202974571Y-67962428D01*
X203174571Y-67362428D02*
X202974571Y-67676714D01*
X202774571Y-67362428D01*
X202574571Y-67962428D02*
X202574571Y-67362428D01*
X202231714Y-67962428D01*
X202231714Y-67362428D01*
X201603142Y-67905285D02*
X201631714Y-67933857D01*
X201717428Y-67962428D01*
X201774571Y-67962428D01*
X201860285Y-67933857D01*
X201917428Y-67876714D01*
X201946000Y-67819571D01*
X201974571Y-67705285D01*
X201974571Y-67619571D01*
X201946000Y-67505285D01*
X201917428Y-67448142D01*
X201860285Y-67391000D01*
X201774571Y-67362428D01*
X201717428Y-67362428D01*
X201631714Y-67391000D01*
X201603142Y-67419571D01*
D11*
X165033000Y-81721000D02*
X165033000Y-80391000D01*
X163703000Y-81721000D02*
X165033000Y-81721000D01*
X162433000Y-81721000D02*
X162433000Y-79061000D01*
X162433000Y-79061000D02*
X103953000Y-79061000D01*
X162433000Y-81721000D02*
X103953000Y-81721000D01*
X103953000Y-81721000D02*
X103953000Y-79061000D01*
X165033000Y-66481000D02*
X165033000Y-65151000D01*
X163703000Y-66481000D02*
X165033000Y-66481000D01*
X162433000Y-66481000D02*
X162433000Y-63821000D01*
X162433000Y-63821000D02*
X103953000Y-63821000D01*
X162433000Y-66481000D02*
X103953000Y-66481000D01*
X103953000Y-66481000D02*
X103953000Y-63821000D01*
M02*
