G04 #@! TF.GenerationSoftware,KiCad,Pcbnew,(5.1.9)-1*
G04 #@! TF.CreationDate,2021-04-27T11:27:05+01:00*
G04 #@! TF.ProjectId,RGBtoHDMI Amiga Denise - solarmon - Rev 2 - SOIC,52474274-6f48-4444-9d49-20416d696761,2 (SOIC)*
G04 #@! TF.SameCoordinates,Original*
G04 #@! TF.FileFunction,Soldermask,Top*
G04 #@! TF.FilePolarity,Negative*
%FSLAX46Y46*%
G04 Gerber Fmt 4.6, Leading zero omitted, Abs format (unit mm)*
G04 Created by KiCad (PCBNEW (5.1.9)-1) date 2021-04-27 11:27:05*
%MOMM*%
%LPD*%
G01*
G04 APERTURE LIST*
%ADD10O,2.000000X2.000000*%
%ADD11O,1.900000X1.900000*%
%ADD12C,1.900000*%
G04 APERTURE END LIST*
G36*
G01*
X189778000Y-52116000D02*
X189778000Y-51516000D01*
G75*
G02*
X189928000Y-51366000I150000J0D01*
G01*
X191428000Y-51366000D01*
G75*
G02*
X191578000Y-51516000I0J-150000D01*
G01*
X191578000Y-52116000D01*
G75*
G02*
X191428000Y-52266000I-150000J0D01*
G01*
X189928000Y-52266000D01*
G75*
G02*
X189778000Y-52116000I0J150000D01*
G01*
G37*
G36*
G01*
X189778000Y-53386000D02*
X189778000Y-52786000D01*
G75*
G02*
X189928000Y-52636000I150000J0D01*
G01*
X191428000Y-52636000D01*
G75*
G02*
X191578000Y-52786000I0J-150000D01*
G01*
X191578000Y-53386000D01*
G75*
G02*
X191428000Y-53536000I-150000J0D01*
G01*
X189928000Y-53536000D01*
G75*
G02*
X189778000Y-53386000I0J150000D01*
G01*
G37*
G36*
G01*
X189778000Y-54656000D02*
X189778000Y-54056000D01*
G75*
G02*
X189928000Y-53906000I150000J0D01*
G01*
X191428000Y-53906000D01*
G75*
G02*
X191578000Y-54056000I0J-150000D01*
G01*
X191578000Y-54656000D01*
G75*
G02*
X191428000Y-54806000I-150000J0D01*
G01*
X189928000Y-54806000D01*
G75*
G02*
X189778000Y-54656000I0J150000D01*
G01*
G37*
G36*
G01*
X189778000Y-55926000D02*
X189778000Y-55326000D01*
G75*
G02*
X189928000Y-55176000I150000J0D01*
G01*
X191428000Y-55176000D01*
G75*
G02*
X191578000Y-55326000I0J-150000D01*
G01*
X191578000Y-55926000D01*
G75*
G02*
X191428000Y-56076000I-150000J0D01*
G01*
X189928000Y-56076000D01*
G75*
G02*
X189778000Y-55926000I0J150000D01*
G01*
G37*
G36*
G01*
X189778000Y-57196000D02*
X189778000Y-56596000D01*
G75*
G02*
X189928000Y-56446000I150000J0D01*
G01*
X191428000Y-56446000D01*
G75*
G02*
X191578000Y-56596000I0J-150000D01*
G01*
X191578000Y-57196000D01*
G75*
G02*
X191428000Y-57346000I-150000J0D01*
G01*
X189928000Y-57346000D01*
G75*
G02*
X189778000Y-57196000I0J150000D01*
G01*
G37*
G36*
G01*
X189778000Y-58466000D02*
X189778000Y-57866000D01*
G75*
G02*
X189928000Y-57716000I150000J0D01*
G01*
X191428000Y-57716000D01*
G75*
G02*
X191578000Y-57866000I0J-150000D01*
G01*
X191578000Y-58466000D01*
G75*
G02*
X191428000Y-58616000I-150000J0D01*
G01*
X189928000Y-58616000D01*
G75*
G02*
X189778000Y-58466000I0J150000D01*
G01*
G37*
G36*
G01*
X189778000Y-59736000D02*
X189778000Y-59136000D01*
G75*
G02*
X189928000Y-58986000I150000J0D01*
G01*
X191428000Y-58986000D01*
G75*
G02*
X191578000Y-59136000I0J-150000D01*
G01*
X191578000Y-59736000D01*
G75*
G02*
X191428000Y-59886000I-150000J0D01*
G01*
X189928000Y-59886000D01*
G75*
G02*
X189778000Y-59736000I0J150000D01*
G01*
G37*
G36*
G01*
X189778000Y-61006000D02*
X189778000Y-60406000D01*
G75*
G02*
X189928000Y-60256000I150000J0D01*
G01*
X191428000Y-60256000D01*
G75*
G02*
X191578000Y-60406000I0J-150000D01*
G01*
X191578000Y-61006000D01*
G75*
G02*
X191428000Y-61156000I-150000J0D01*
G01*
X189928000Y-61156000D01*
G75*
G02*
X189778000Y-61006000I0J150000D01*
G01*
G37*
G36*
G01*
X189778000Y-62276000D02*
X189778000Y-61676000D01*
G75*
G02*
X189928000Y-61526000I150000J0D01*
G01*
X191428000Y-61526000D01*
G75*
G02*
X191578000Y-61676000I0J-150000D01*
G01*
X191578000Y-62276000D01*
G75*
G02*
X191428000Y-62426000I-150000J0D01*
G01*
X189928000Y-62426000D01*
G75*
G02*
X189778000Y-62276000I0J150000D01*
G01*
G37*
G36*
G01*
X189778000Y-63546000D02*
X189778000Y-62946000D01*
G75*
G02*
X189928000Y-62796000I150000J0D01*
G01*
X191428000Y-62796000D01*
G75*
G02*
X191578000Y-62946000I0J-150000D01*
G01*
X191578000Y-63546000D01*
G75*
G02*
X191428000Y-63696000I-150000J0D01*
G01*
X189928000Y-63696000D01*
G75*
G02*
X189778000Y-63546000I0J150000D01*
G01*
G37*
G36*
G01*
X180278000Y-63546000D02*
X180278000Y-62946000D01*
G75*
G02*
X180428000Y-62796000I150000J0D01*
G01*
X181928000Y-62796000D01*
G75*
G02*
X182078000Y-62946000I0J-150000D01*
G01*
X182078000Y-63546000D01*
G75*
G02*
X181928000Y-63696000I-150000J0D01*
G01*
X180428000Y-63696000D01*
G75*
G02*
X180278000Y-63546000I0J150000D01*
G01*
G37*
G36*
G01*
X180278000Y-62276000D02*
X180278000Y-61676000D01*
G75*
G02*
X180428000Y-61526000I150000J0D01*
G01*
X181928000Y-61526000D01*
G75*
G02*
X182078000Y-61676000I0J-150000D01*
G01*
X182078000Y-62276000D01*
G75*
G02*
X181928000Y-62426000I-150000J0D01*
G01*
X180428000Y-62426000D01*
G75*
G02*
X180278000Y-62276000I0J150000D01*
G01*
G37*
G36*
G01*
X180278000Y-61006000D02*
X180278000Y-60406000D01*
G75*
G02*
X180428000Y-60256000I150000J0D01*
G01*
X181928000Y-60256000D01*
G75*
G02*
X182078000Y-60406000I0J-150000D01*
G01*
X182078000Y-61006000D01*
G75*
G02*
X181928000Y-61156000I-150000J0D01*
G01*
X180428000Y-61156000D01*
G75*
G02*
X180278000Y-61006000I0J150000D01*
G01*
G37*
G36*
G01*
X180278000Y-59736000D02*
X180278000Y-59136000D01*
G75*
G02*
X180428000Y-58986000I150000J0D01*
G01*
X181928000Y-58986000D01*
G75*
G02*
X182078000Y-59136000I0J-150000D01*
G01*
X182078000Y-59736000D01*
G75*
G02*
X181928000Y-59886000I-150000J0D01*
G01*
X180428000Y-59886000D01*
G75*
G02*
X180278000Y-59736000I0J150000D01*
G01*
G37*
G36*
G01*
X180278000Y-52116000D02*
X180278000Y-51516000D01*
G75*
G02*
X180428000Y-51366000I150000J0D01*
G01*
X181928000Y-51366000D01*
G75*
G02*
X182078000Y-51516000I0J-150000D01*
G01*
X182078000Y-52116000D01*
G75*
G02*
X181928000Y-52266000I-150000J0D01*
G01*
X180428000Y-52266000D01*
G75*
G02*
X180278000Y-52116000I0J150000D01*
G01*
G37*
G36*
G01*
X180278000Y-53386000D02*
X180278000Y-52786000D01*
G75*
G02*
X180428000Y-52636000I150000J0D01*
G01*
X181928000Y-52636000D01*
G75*
G02*
X182078000Y-52786000I0J-150000D01*
G01*
X182078000Y-53386000D01*
G75*
G02*
X181928000Y-53536000I-150000J0D01*
G01*
X180428000Y-53536000D01*
G75*
G02*
X180278000Y-53386000I0J150000D01*
G01*
G37*
G36*
G01*
X180278000Y-54656000D02*
X180278000Y-54056000D01*
G75*
G02*
X180428000Y-53906000I150000J0D01*
G01*
X181928000Y-53906000D01*
G75*
G02*
X182078000Y-54056000I0J-150000D01*
G01*
X182078000Y-54656000D01*
G75*
G02*
X181928000Y-54806000I-150000J0D01*
G01*
X180428000Y-54806000D01*
G75*
G02*
X180278000Y-54656000I0J150000D01*
G01*
G37*
G36*
G01*
X180278000Y-55926000D02*
X180278000Y-55326000D01*
G75*
G02*
X180428000Y-55176000I150000J0D01*
G01*
X181928000Y-55176000D01*
G75*
G02*
X182078000Y-55326000I0J-150000D01*
G01*
X182078000Y-55926000D01*
G75*
G02*
X181928000Y-56076000I-150000J0D01*
G01*
X180428000Y-56076000D01*
G75*
G02*
X180278000Y-55926000I0J150000D01*
G01*
G37*
G36*
G01*
X180278000Y-57196000D02*
X180278000Y-56596000D01*
G75*
G02*
X180428000Y-56446000I150000J0D01*
G01*
X181928000Y-56446000D01*
G75*
G02*
X182078000Y-56596000I0J-150000D01*
G01*
X182078000Y-57196000D01*
G75*
G02*
X181928000Y-57346000I-150000J0D01*
G01*
X180428000Y-57346000D01*
G75*
G02*
X180278000Y-57196000I0J150000D01*
G01*
G37*
G36*
G01*
X180278000Y-58466000D02*
X180278000Y-57866000D01*
G75*
G02*
X180428000Y-57716000I150000J0D01*
G01*
X181928000Y-57716000D01*
G75*
G02*
X182078000Y-57866000I0J-150000D01*
G01*
X182078000Y-58466000D01*
G75*
G02*
X181928000Y-58616000I-150000J0D01*
G01*
X180428000Y-58616000D01*
G75*
G02*
X180278000Y-58466000I0J150000D01*
G01*
G37*
G36*
G01*
X195093000Y-80891000D02*
X195093000Y-79891000D01*
G75*
G02*
X195243000Y-79741000I150000J0D01*
G01*
X198243000Y-79741000D01*
G75*
G02*
X198393000Y-79891000I0J-150000D01*
G01*
X198393000Y-80891000D01*
G75*
G02*
X198243000Y-81041000I-150000J0D01*
G01*
X195243000Y-81041000D01*
G75*
G02*
X195093000Y-80891000I0J150000D01*
G01*
G37*
G36*
G01*
X200133000Y-80891000D02*
X200133000Y-79891000D01*
G75*
G02*
X200283000Y-79741000I150000J0D01*
G01*
X203283000Y-79741000D01*
G75*
G02*
X203433000Y-79891000I0J-150000D01*
G01*
X203433000Y-80891000D01*
G75*
G02*
X203283000Y-81041000I-150000J0D01*
G01*
X200283000Y-81041000D01*
G75*
G02*
X200133000Y-80891000I0J150000D01*
G01*
G37*
G36*
G01*
X195093000Y-78351000D02*
X195093000Y-77351000D01*
G75*
G02*
X195243000Y-77201000I150000J0D01*
G01*
X198243000Y-77201000D01*
G75*
G02*
X198393000Y-77351000I0J-150000D01*
G01*
X198393000Y-78351000D01*
G75*
G02*
X198243000Y-78501000I-150000J0D01*
G01*
X195243000Y-78501000D01*
G75*
G02*
X195093000Y-78351000I0J150000D01*
G01*
G37*
G36*
G01*
X200133000Y-78351000D02*
X200133000Y-77351000D01*
G75*
G02*
X200283000Y-77201000I150000J0D01*
G01*
X203283000Y-77201000D01*
G75*
G02*
X203433000Y-77351000I0J-150000D01*
G01*
X203433000Y-78351000D01*
G75*
G02*
X203283000Y-78501000I-150000J0D01*
G01*
X200283000Y-78501000D01*
G75*
G02*
X200133000Y-78351000I0J150000D01*
G01*
G37*
G36*
G01*
X195093000Y-75811000D02*
X195093000Y-74811000D01*
G75*
G02*
X195243000Y-74661000I150000J0D01*
G01*
X198243000Y-74661000D01*
G75*
G02*
X198393000Y-74811000I0J-150000D01*
G01*
X198393000Y-75811000D01*
G75*
G02*
X198243000Y-75961000I-150000J0D01*
G01*
X195243000Y-75961000D01*
G75*
G02*
X195093000Y-75811000I0J150000D01*
G01*
G37*
G36*
G01*
X200133000Y-75811000D02*
X200133000Y-74811000D01*
G75*
G02*
X200283000Y-74661000I150000J0D01*
G01*
X203283000Y-74661000D01*
G75*
G02*
X203433000Y-74811000I0J-150000D01*
G01*
X203433000Y-75811000D01*
G75*
G02*
X203283000Y-75961000I-150000J0D01*
G01*
X200283000Y-75961000D01*
G75*
G02*
X200133000Y-75811000I0J150000D01*
G01*
G37*
G36*
G01*
X195093000Y-73271000D02*
X195093000Y-72271000D01*
G75*
G02*
X195243000Y-72121000I150000J0D01*
G01*
X198243000Y-72121000D01*
G75*
G02*
X198393000Y-72271000I0J-150000D01*
G01*
X198393000Y-73271000D01*
G75*
G02*
X198243000Y-73421000I-150000J0D01*
G01*
X195243000Y-73421000D01*
G75*
G02*
X195093000Y-73271000I0J150000D01*
G01*
G37*
G36*
G01*
X200133000Y-73271000D02*
X200133000Y-72271000D01*
G75*
G02*
X200283000Y-72121000I150000J0D01*
G01*
X203283000Y-72121000D01*
G75*
G02*
X203433000Y-72271000I0J-150000D01*
G01*
X203433000Y-73271000D01*
G75*
G02*
X203283000Y-73421000I-150000J0D01*
G01*
X200283000Y-73421000D01*
G75*
G02*
X200133000Y-73271000I0J150000D01*
G01*
G37*
G36*
G01*
X195093000Y-70731000D02*
X195093000Y-69731000D01*
G75*
G02*
X195243000Y-69581000I150000J0D01*
G01*
X198243000Y-69581000D01*
G75*
G02*
X198393000Y-69731000I0J-150000D01*
G01*
X198393000Y-70731000D01*
G75*
G02*
X198243000Y-70881000I-150000J0D01*
G01*
X195243000Y-70881000D01*
G75*
G02*
X195093000Y-70731000I0J150000D01*
G01*
G37*
G36*
G01*
X200133000Y-70731000D02*
X200133000Y-69731000D01*
G75*
G02*
X200283000Y-69581000I150000J0D01*
G01*
X203283000Y-69581000D01*
G75*
G02*
X203433000Y-69731000I0J-150000D01*
G01*
X203433000Y-70731000D01*
G75*
G02*
X203283000Y-70881000I-150000J0D01*
G01*
X200283000Y-70881000D01*
G75*
G02*
X200133000Y-70731000I0J150000D01*
G01*
G37*
G36*
G01*
X195093000Y-68191000D02*
X195093000Y-67191000D01*
G75*
G02*
X195243000Y-67041000I150000J0D01*
G01*
X198243000Y-67041000D01*
G75*
G02*
X198393000Y-67191000I0J-150000D01*
G01*
X198393000Y-68191000D01*
G75*
G02*
X198243000Y-68341000I-150000J0D01*
G01*
X195243000Y-68341000D01*
G75*
G02*
X195093000Y-68191000I0J150000D01*
G01*
G37*
G36*
G01*
X200133000Y-68191000D02*
X200133000Y-67191000D01*
G75*
G02*
X200283000Y-67041000I150000J0D01*
G01*
X203283000Y-67041000D01*
G75*
G02*
X203433000Y-67191000I0J-150000D01*
G01*
X203433000Y-68191000D01*
G75*
G02*
X203283000Y-68341000I-150000J0D01*
G01*
X200283000Y-68341000D01*
G75*
G02*
X200133000Y-68191000I0J150000D01*
G01*
G37*
G36*
G01*
X195093000Y-65651000D02*
X195093000Y-64651000D01*
G75*
G02*
X195243000Y-64501000I150000J0D01*
G01*
X198243000Y-64501000D01*
G75*
G02*
X198393000Y-64651000I0J-150000D01*
G01*
X198393000Y-65651000D01*
G75*
G02*
X198243000Y-65801000I-150000J0D01*
G01*
X195243000Y-65801000D01*
G75*
G02*
X195093000Y-65651000I0J150000D01*
G01*
G37*
G36*
G01*
X200133000Y-65651000D02*
X200133000Y-64651000D01*
G75*
G02*
X200283000Y-64501000I150000J0D01*
G01*
X203283000Y-64501000D01*
G75*
G02*
X203433000Y-64651000I0J-150000D01*
G01*
X203433000Y-65651000D01*
G75*
G02*
X203283000Y-65801000I-150000J0D01*
G01*
X200283000Y-65801000D01*
G75*
G02*
X200133000Y-65651000I0J150000D01*
G01*
G37*
G36*
G01*
X195093000Y-63111000D02*
X195093000Y-62111000D01*
G75*
G02*
X195243000Y-61961000I150000J0D01*
G01*
X198243000Y-61961000D01*
G75*
G02*
X198393000Y-62111000I0J-150000D01*
G01*
X198393000Y-63111000D01*
G75*
G02*
X198243000Y-63261000I-150000J0D01*
G01*
X195243000Y-63261000D01*
G75*
G02*
X195093000Y-63111000I0J150000D01*
G01*
G37*
G36*
G01*
X200133000Y-63111000D02*
X200133000Y-62111000D01*
G75*
G02*
X200283000Y-61961000I150000J0D01*
G01*
X203283000Y-61961000D01*
G75*
G02*
X203433000Y-62111000I0J-150000D01*
G01*
X203433000Y-63111000D01*
G75*
G02*
X203283000Y-63261000I-150000J0D01*
G01*
X200283000Y-63261000D01*
G75*
G02*
X200133000Y-63111000I0J150000D01*
G01*
G37*
G36*
G01*
X195093000Y-60571000D02*
X195093000Y-59571000D01*
G75*
G02*
X195243000Y-59421000I150000J0D01*
G01*
X198243000Y-59421000D01*
G75*
G02*
X198393000Y-59571000I0J-150000D01*
G01*
X198393000Y-60571000D01*
G75*
G02*
X198243000Y-60721000I-150000J0D01*
G01*
X195243000Y-60721000D01*
G75*
G02*
X195093000Y-60571000I0J150000D01*
G01*
G37*
G36*
G01*
X200133000Y-60571000D02*
X200133000Y-59571000D01*
G75*
G02*
X200283000Y-59421000I150000J0D01*
G01*
X203283000Y-59421000D01*
G75*
G02*
X203433000Y-59571000I0J-150000D01*
G01*
X203433000Y-60571000D01*
G75*
G02*
X203283000Y-60721000I-150000J0D01*
G01*
X200283000Y-60721000D01*
G75*
G02*
X200133000Y-60571000I0J150000D01*
G01*
G37*
G36*
G01*
X195093000Y-58031000D02*
X195093000Y-57031000D01*
G75*
G02*
X195243000Y-56881000I150000J0D01*
G01*
X198243000Y-56881000D01*
G75*
G02*
X198393000Y-57031000I0J-150000D01*
G01*
X198393000Y-58031000D01*
G75*
G02*
X198243000Y-58181000I-150000J0D01*
G01*
X195243000Y-58181000D01*
G75*
G02*
X195093000Y-58031000I0J150000D01*
G01*
G37*
G36*
G01*
X200133000Y-58031000D02*
X200133000Y-57031000D01*
G75*
G02*
X200283000Y-56881000I150000J0D01*
G01*
X203283000Y-56881000D01*
G75*
G02*
X203433000Y-57031000I0J-150000D01*
G01*
X203433000Y-58031000D01*
G75*
G02*
X203283000Y-58181000I-150000J0D01*
G01*
X200283000Y-58181000D01*
G75*
G02*
X200133000Y-58031000I0J150000D01*
G01*
G37*
G36*
G01*
X195093000Y-55491000D02*
X195093000Y-54491000D01*
G75*
G02*
X195243000Y-54341000I150000J0D01*
G01*
X198243000Y-54341000D01*
G75*
G02*
X198393000Y-54491000I0J-150000D01*
G01*
X198393000Y-55491000D01*
G75*
G02*
X198243000Y-55641000I-150000J0D01*
G01*
X195243000Y-55641000D01*
G75*
G02*
X195093000Y-55491000I0J150000D01*
G01*
G37*
G36*
G01*
X200133000Y-55491000D02*
X200133000Y-54491000D01*
G75*
G02*
X200283000Y-54341000I150000J0D01*
G01*
X203283000Y-54341000D01*
G75*
G02*
X203433000Y-54491000I0J-150000D01*
G01*
X203433000Y-55491000D01*
G75*
G02*
X203283000Y-55641000I-150000J0D01*
G01*
X200283000Y-55641000D01*
G75*
G02*
X200133000Y-55491000I0J150000D01*
G01*
G37*
G36*
G01*
X195093000Y-52951000D02*
X195093000Y-51951000D01*
G75*
G02*
X195243000Y-51801000I150000J0D01*
G01*
X198243000Y-51801000D01*
G75*
G02*
X198393000Y-51951000I0J-150000D01*
G01*
X198393000Y-52951000D01*
G75*
G02*
X198243000Y-53101000I-150000J0D01*
G01*
X195243000Y-53101000D01*
G75*
G02*
X195093000Y-52951000I0J150000D01*
G01*
G37*
G36*
G01*
X200133000Y-52951000D02*
X200133000Y-51951000D01*
G75*
G02*
X200283000Y-51801000I150000J0D01*
G01*
X203283000Y-51801000D01*
G75*
G02*
X203433000Y-51951000I0J-150000D01*
G01*
X203433000Y-52951000D01*
G75*
G02*
X203283000Y-53101000I-150000J0D01*
G01*
X200283000Y-53101000D01*
G75*
G02*
X200133000Y-52951000I0J150000D01*
G01*
G37*
G36*
G01*
X195093000Y-50411000D02*
X195093000Y-49411000D01*
G75*
G02*
X195243000Y-49261000I150000J0D01*
G01*
X198243000Y-49261000D01*
G75*
G02*
X198393000Y-49411000I0J-150000D01*
G01*
X198393000Y-50411000D01*
G75*
G02*
X198243000Y-50561000I-150000J0D01*
G01*
X195243000Y-50561000D01*
G75*
G02*
X195093000Y-50411000I0J150000D01*
G01*
G37*
G36*
G01*
X200133000Y-50411000D02*
X200133000Y-49411000D01*
G75*
G02*
X200283000Y-49261000I150000J0D01*
G01*
X203283000Y-49261000D01*
G75*
G02*
X203433000Y-49411000I0J-150000D01*
G01*
X203433000Y-50411000D01*
G75*
G02*
X203283000Y-50561000I-150000J0D01*
G01*
X200283000Y-50561000D01*
G75*
G02*
X200133000Y-50411000I0J150000D01*
G01*
G37*
G36*
G01*
X195093000Y-47871000D02*
X195093000Y-46871000D01*
G75*
G02*
X195243000Y-46721000I150000J0D01*
G01*
X198243000Y-46721000D01*
G75*
G02*
X198393000Y-46871000I0J-150000D01*
G01*
X198393000Y-47871000D01*
G75*
G02*
X198243000Y-48021000I-150000J0D01*
G01*
X195243000Y-48021000D01*
G75*
G02*
X195093000Y-47871000I0J150000D01*
G01*
G37*
G36*
G01*
X200133000Y-47871000D02*
X200133000Y-46871000D01*
G75*
G02*
X200283000Y-46721000I150000J0D01*
G01*
X203283000Y-46721000D01*
G75*
G02*
X203433000Y-46871000I0J-150000D01*
G01*
X203433000Y-47871000D01*
G75*
G02*
X203283000Y-48021000I-150000J0D01*
G01*
X200283000Y-48021000D01*
G75*
G02*
X200133000Y-47871000I0J150000D01*
G01*
G37*
G36*
G01*
X195093000Y-45331000D02*
X195093000Y-44331000D01*
G75*
G02*
X195243000Y-44181000I150000J0D01*
G01*
X198243000Y-44181000D01*
G75*
G02*
X198393000Y-44331000I0J-150000D01*
G01*
X198393000Y-45331000D01*
G75*
G02*
X198243000Y-45481000I-150000J0D01*
G01*
X195243000Y-45481000D01*
G75*
G02*
X195093000Y-45331000I0J150000D01*
G01*
G37*
G36*
G01*
X200133000Y-45331000D02*
X200133000Y-44331000D01*
G75*
G02*
X200283000Y-44181000I150000J0D01*
G01*
X203283000Y-44181000D01*
G75*
G02*
X203433000Y-44331000I0J-150000D01*
G01*
X203433000Y-45331000D01*
G75*
G02*
X203283000Y-45481000I-150000J0D01*
G01*
X200283000Y-45481000D01*
G75*
G02*
X200133000Y-45331000I0J150000D01*
G01*
G37*
G36*
G01*
X195093000Y-42791000D02*
X195093000Y-41791000D01*
G75*
G02*
X195243000Y-41641000I150000J0D01*
G01*
X198243000Y-41641000D01*
G75*
G02*
X198393000Y-41791000I0J-150000D01*
G01*
X198393000Y-42791000D01*
G75*
G02*
X198243000Y-42941000I-150000J0D01*
G01*
X195243000Y-42941000D01*
G75*
G02*
X195093000Y-42791000I0J150000D01*
G01*
G37*
G36*
G01*
X200133000Y-42791000D02*
X200133000Y-41791000D01*
G75*
G02*
X200283000Y-41641000I150000J0D01*
G01*
X203283000Y-41641000D01*
G75*
G02*
X203433000Y-41791000I0J-150000D01*
G01*
X203433000Y-42791000D01*
G75*
G02*
X203283000Y-42941000I-150000J0D01*
G01*
X200283000Y-42941000D01*
G75*
G02*
X200133000Y-42791000I0J150000D01*
G01*
G37*
G36*
G01*
X195093000Y-40251000D02*
X195093000Y-39251000D01*
G75*
G02*
X195243000Y-39101000I150000J0D01*
G01*
X198243000Y-39101000D01*
G75*
G02*
X198393000Y-39251000I0J-150000D01*
G01*
X198393000Y-40251000D01*
G75*
G02*
X198243000Y-40401000I-150000J0D01*
G01*
X195243000Y-40401000D01*
G75*
G02*
X195093000Y-40251000I0J150000D01*
G01*
G37*
G36*
G01*
X200133000Y-40251000D02*
X200133000Y-39251000D01*
G75*
G02*
X200283000Y-39101000I150000J0D01*
G01*
X203283000Y-39101000D01*
G75*
G02*
X203433000Y-39251000I0J-150000D01*
G01*
X203433000Y-40251000D01*
G75*
G02*
X203283000Y-40401000I-150000J0D01*
G01*
X200283000Y-40401000D01*
G75*
G02*
X200133000Y-40251000I0J150000D01*
G01*
G37*
G36*
G01*
X195093000Y-37711000D02*
X195093000Y-36711000D01*
G75*
G02*
X195243000Y-36561000I150000J0D01*
G01*
X198243000Y-36561000D01*
G75*
G02*
X198393000Y-36711000I0J-150000D01*
G01*
X198393000Y-37711000D01*
G75*
G02*
X198243000Y-37861000I-150000J0D01*
G01*
X195243000Y-37861000D01*
G75*
G02*
X195093000Y-37711000I0J150000D01*
G01*
G37*
G36*
G01*
X200133000Y-37711000D02*
X200133000Y-36711000D01*
G75*
G02*
X200283000Y-36561000I150000J0D01*
G01*
X203283000Y-36561000D01*
G75*
G02*
X203433000Y-36711000I0J-150000D01*
G01*
X203433000Y-37711000D01*
G75*
G02*
X203283000Y-37861000I-150000J0D01*
G01*
X200283000Y-37861000D01*
G75*
G02*
X200133000Y-37711000I0J150000D01*
G01*
G37*
G36*
G01*
X195093000Y-35171000D02*
X195093000Y-34171000D01*
G75*
G02*
X195243000Y-34021000I150000J0D01*
G01*
X198243000Y-34021000D01*
G75*
G02*
X198393000Y-34171000I0J-150000D01*
G01*
X198393000Y-35171000D01*
G75*
G02*
X198243000Y-35321000I-150000J0D01*
G01*
X195243000Y-35321000D01*
G75*
G02*
X195093000Y-35171000I0J150000D01*
G01*
G37*
G36*
G01*
X200133000Y-35171000D02*
X200133000Y-34171000D01*
G75*
G02*
X200283000Y-34021000I150000J0D01*
G01*
X203283000Y-34021000D01*
G75*
G02*
X203433000Y-34171000I0J-150000D01*
G01*
X203433000Y-35171000D01*
G75*
G02*
X203283000Y-35321000I-150000J0D01*
G01*
X200283000Y-35321000D01*
G75*
G02*
X200133000Y-35171000I0J150000D01*
G01*
G37*
G36*
G01*
X195093000Y-32631000D02*
X195093000Y-31631000D01*
G75*
G02*
X195243000Y-31481000I150000J0D01*
G01*
X198243000Y-31481000D01*
G75*
G02*
X198393000Y-31631000I0J-150000D01*
G01*
X198393000Y-32631000D01*
G75*
G02*
X198243000Y-32781000I-150000J0D01*
G01*
X195243000Y-32781000D01*
G75*
G02*
X195093000Y-32631000I0J150000D01*
G01*
G37*
G36*
G01*
X200133000Y-32631000D02*
X200133000Y-31631000D01*
G75*
G02*
X200283000Y-31481000I150000J0D01*
G01*
X203283000Y-31481000D01*
G75*
G02*
X203433000Y-31631000I0J-150000D01*
G01*
X203433000Y-32631000D01*
G75*
G02*
X203283000Y-32781000I-150000J0D01*
G01*
X200283000Y-32781000D01*
G75*
G02*
X200133000Y-32631000I0J150000D01*
G01*
G37*
G36*
G01*
X189778000Y-70531000D02*
X189778000Y-69931000D01*
G75*
G02*
X189928000Y-69781000I150000J0D01*
G01*
X191428000Y-69781000D01*
G75*
G02*
X191578000Y-69931000I0J-150000D01*
G01*
X191578000Y-70531000D01*
G75*
G02*
X191428000Y-70681000I-150000J0D01*
G01*
X189928000Y-70681000D01*
G75*
G02*
X189778000Y-70531000I0J150000D01*
G01*
G37*
G36*
G01*
X189778000Y-71801000D02*
X189778000Y-71201000D01*
G75*
G02*
X189928000Y-71051000I150000J0D01*
G01*
X191428000Y-71051000D01*
G75*
G02*
X191578000Y-71201000I0J-150000D01*
G01*
X191578000Y-71801000D01*
G75*
G02*
X191428000Y-71951000I-150000J0D01*
G01*
X189928000Y-71951000D01*
G75*
G02*
X189778000Y-71801000I0J150000D01*
G01*
G37*
G36*
G01*
X189778000Y-73071000D02*
X189778000Y-72471000D01*
G75*
G02*
X189928000Y-72321000I150000J0D01*
G01*
X191428000Y-72321000D01*
G75*
G02*
X191578000Y-72471000I0J-150000D01*
G01*
X191578000Y-73071000D01*
G75*
G02*
X191428000Y-73221000I-150000J0D01*
G01*
X189928000Y-73221000D01*
G75*
G02*
X189778000Y-73071000I0J150000D01*
G01*
G37*
G36*
G01*
X189778000Y-74341000D02*
X189778000Y-73741000D01*
G75*
G02*
X189928000Y-73591000I150000J0D01*
G01*
X191428000Y-73591000D01*
G75*
G02*
X191578000Y-73741000I0J-150000D01*
G01*
X191578000Y-74341000D01*
G75*
G02*
X191428000Y-74491000I-150000J0D01*
G01*
X189928000Y-74491000D01*
G75*
G02*
X189778000Y-74341000I0J150000D01*
G01*
G37*
G36*
G01*
X189778000Y-75611000D02*
X189778000Y-75011000D01*
G75*
G02*
X189928000Y-74861000I150000J0D01*
G01*
X191428000Y-74861000D01*
G75*
G02*
X191578000Y-75011000I0J-150000D01*
G01*
X191578000Y-75611000D01*
G75*
G02*
X191428000Y-75761000I-150000J0D01*
G01*
X189928000Y-75761000D01*
G75*
G02*
X189778000Y-75611000I0J150000D01*
G01*
G37*
G36*
G01*
X189778000Y-76881000D02*
X189778000Y-76281000D01*
G75*
G02*
X189928000Y-76131000I150000J0D01*
G01*
X191428000Y-76131000D01*
G75*
G02*
X191578000Y-76281000I0J-150000D01*
G01*
X191578000Y-76881000D01*
G75*
G02*
X191428000Y-77031000I-150000J0D01*
G01*
X189928000Y-77031000D01*
G75*
G02*
X189778000Y-76881000I0J150000D01*
G01*
G37*
G36*
G01*
X189778000Y-78151000D02*
X189778000Y-77551000D01*
G75*
G02*
X189928000Y-77401000I150000J0D01*
G01*
X191428000Y-77401000D01*
G75*
G02*
X191578000Y-77551000I0J-150000D01*
G01*
X191578000Y-78151000D01*
G75*
G02*
X191428000Y-78301000I-150000J0D01*
G01*
X189928000Y-78301000D01*
G75*
G02*
X189778000Y-78151000I0J150000D01*
G01*
G37*
G36*
G01*
X189778000Y-79421000D02*
X189778000Y-78821000D01*
G75*
G02*
X189928000Y-78671000I150000J0D01*
G01*
X191428000Y-78671000D01*
G75*
G02*
X191578000Y-78821000I0J-150000D01*
G01*
X191578000Y-79421000D01*
G75*
G02*
X191428000Y-79571000I-150000J0D01*
G01*
X189928000Y-79571000D01*
G75*
G02*
X189778000Y-79421000I0J150000D01*
G01*
G37*
G36*
G01*
X189778000Y-80691000D02*
X189778000Y-80091000D01*
G75*
G02*
X189928000Y-79941000I150000J0D01*
G01*
X191428000Y-79941000D01*
G75*
G02*
X191578000Y-80091000I0J-150000D01*
G01*
X191578000Y-80691000D01*
G75*
G02*
X191428000Y-80841000I-150000J0D01*
G01*
X189928000Y-80841000D01*
G75*
G02*
X189778000Y-80691000I0J150000D01*
G01*
G37*
G36*
G01*
X189778000Y-81961000D02*
X189778000Y-81361000D01*
G75*
G02*
X189928000Y-81211000I150000J0D01*
G01*
X191428000Y-81211000D01*
G75*
G02*
X191578000Y-81361000I0J-150000D01*
G01*
X191578000Y-81961000D01*
G75*
G02*
X191428000Y-82111000I-150000J0D01*
G01*
X189928000Y-82111000D01*
G75*
G02*
X189778000Y-81961000I0J150000D01*
G01*
G37*
G36*
G01*
X180278000Y-81961000D02*
X180278000Y-81361000D01*
G75*
G02*
X180428000Y-81211000I150000J0D01*
G01*
X181928000Y-81211000D01*
G75*
G02*
X182078000Y-81361000I0J-150000D01*
G01*
X182078000Y-81961000D01*
G75*
G02*
X181928000Y-82111000I-150000J0D01*
G01*
X180428000Y-82111000D01*
G75*
G02*
X180278000Y-81961000I0J150000D01*
G01*
G37*
G36*
G01*
X180278000Y-80691000D02*
X180278000Y-80091000D01*
G75*
G02*
X180428000Y-79941000I150000J0D01*
G01*
X181928000Y-79941000D01*
G75*
G02*
X182078000Y-80091000I0J-150000D01*
G01*
X182078000Y-80691000D01*
G75*
G02*
X181928000Y-80841000I-150000J0D01*
G01*
X180428000Y-80841000D01*
G75*
G02*
X180278000Y-80691000I0J150000D01*
G01*
G37*
G36*
G01*
X180278000Y-79421000D02*
X180278000Y-78821000D01*
G75*
G02*
X180428000Y-78671000I150000J0D01*
G01*
X181928000Y-78671000D01*
G75*
G02*
X182078000Y-78821000I0J-150000D01*
G01*
X182078000Y-79421000D01*
G75*
G02*
X181928000Y-79571000I-150000J0D01*
G01*
X180428000Y-79571000D01*
G75*
G02*
X180278000Y-79421000I0J150000D01*
G01*
G37*
G36*
G01*
X180278000Y-78151000D02*
X180278000Y-77551000D01*
G75*
G02*
X180428000Y-77401000I150000J0D01*
G01*
X181928000Y-77401000D01*
G75*
G02*
X182078000Y-77551000I0J-150000D01*
G01*
X182078000Y-78151000D01*
G75*
G02*
X181928000Y-78301000I-150000J0D01*
G01*
X180428000Y-78301000D01*
G75*
G02*
X180278000Y-78151000I0J150000D01*
G01*
G37*
G36*
G01*
X180278000Y-70531000D02*
X180278000Y-69931000D01*
G75*
G02*
X180428000Y-69781000I150000J0D01*
G01*
X181928000Y-69781000D01*
G75*
G02*
X182078000Y-69931000I0J-150000D01*
G01*
X182078000Y-70531000D01*
G75*
G02*
X181928000Y-70681000I-150000J0D01*
G01*
X180428000Y-70681000D01*
G75*
G02*
X180278000Y-70531000I0J150000D01*
G01*
G37*
G36*
G01*
X180278000Y-71801000D02*
X180278000Y-71201000D01*
G75*
G02*
X180428000Y-71051000I150000J0D01*
G01*
X181928000Y-71051000D01*
G75*
G02*
X182078000Y-71201000I0J-150000D01*
G01*
X182078000Y-71801000D01*
G75*
G02*
X181928000Y-71951000I-150000J0D01*
G01*
X180428000Y-71951000D01*
G75*
G02*
X180278000Y-71801000I0J150000D01*
G01*
G37*
G36*
G01*
X180278000Y-73071000D02*
X180278000Y-72471000D01*
G75*
G02*
X180428000Y-72321000I150000J0D01*
G01*
X181928000Y-72321000D01*
G75*
G02*
X182078000Y-72471000I0J-150000D01*
G01*
X182078000Y-73071000D01*
G75*
G02*
X181928000Y-73221000I-150000J0D01*
G01*
X180428000Y-73221000D01*
G75*
G02*
X180278000Y-73071000I0J150000D01*
G01*
G37*
G36*
G01*
X180278000Y-74341000D02*
X180278000Y-73741000D01*
G75*
G02*
X180428000Y-73591000I150000J0D01*
G01*
X181928000Y-73591000D01*
G75*
G02*
X182078000Y-73741000I0J-150000D01*
G01*
X182078000Y-74341000D01*
G75*
G02*
X181928000Y-74491000I-150000J0D01*
G01*
X180428000Y-74491000D01*
G75*
G02*
X180278000Y-74341000I0J150000D01*
G01*
G37*
G36*
G01*
X180278000Y-75611000D02*
X180278000Y-75011000D01*
G75*
G02*
X180428000Y-74861000I150000J0D01*
G01*
X181928000Y-74861000D01*
G75*
G02*
X182078000Y-75011000I0J-150000D01*
G01*
X182078000Y-75611000D01*
G75*
G02*
X181928000Y-75761000I-150000J0D01*
G01*
X180428000Y-75761000D01*
G75*
G02*
X180278000Y-75611000I0J150000D01*
G01*
G37*
G36*
G01*
X180278000Y-76881000D02*
X180278000Y-76281000D01*
G75*
G02*
X180428000Y-76131000I150000J0D01*
G01*
X181928000Y-76131000D01*
G75*
G02*
X182078000Y-76281000I0J-150000D01*
G01*
X182078000Y-76881000D01*
G75*
G02*
X181928000Y-77031000I-150000J0D01*
G01*
X180428000Y-77031000D01*
G75*
G02*
X180278000Y-76881000I0J150000D01*
G01*
G37*
G36*
G01*
X173943000Y-61566000D02*
X173943000Y-61116000D01*
G75*
G02*
X174168000Y-60891000I225000J0D01*
G01*
X175968000Y-60891000D01*
G75*
G02*
X176193000Y-61116000I0J-225000D01*
G01*
X176193000Y-61566000D01*
G75*
G02*
X175968000Y-61791000I-225000J0D01*
G01*
X174168000Y-61791000D01*
G75*
G02*
X173943000Y-61566000I0J225000D01*
G01*
G37*
G36*
G01*
X173943000Y-62836000D02*
X173943000Y-62386000D01*
G75*
G02*
X174168000Y-62161000I225000J0D01*
G01*
X175968000Y-62161000D01*
G75*
G02*
X176193000Y-62386000I0J-225000D01*
G01*
X176193000Y-62836000D01*
G75*
G02*
X175968000Y-63061000I-225000J0D01*
G01*
X174168000Y-63061000D01*
G75*
G02*
X173943000Y-62836000I0J225000D01*
G01*
G37*
G36*
G01*
X173943000Y-64106000D02*
X173943000Y-63656000D01*
G75*
G02*
X174168000Y-63431000I225000J0D01*
G01*
X175968000Y-63431000D01*
G75*
G02*
X176193000Y-63656000I0J-225000D01*
G01*
X176193000Y-64106000D01*
G75*
G02*
X175968000Y-64331000I-225000J0D01*
G01*
X174168000Y-64331000D01*
G75*
G02*
X173943000Y-64106000I0J225000D01*
G01*
G37*
G36*
G01*
X173943000Y-65376000D02*
X173943000Y-64926000D01*
G75*
G02*
X174168000Y-64701000I225000J0D01*
G01*
X175968000Y-64701000D01*
G75*
G02*
X176193000Y-64926000I0J-225000D01*
G01*
X176193000Y-65376000D01*
G75*
G02*
X175968000Y-65601000I-225000J0D01*
G01*
X174168000Y-65601000D01*
G75*
G02*
X173943000Y-65376000I0J225000D01*
G01*
G37*
G36*
G01*
X173943000Y-66646000D02*
X173943000Y-66196000D01*
G75*
G02*
X174168000Y-65971000I225000J0D01*
G01*
X175968000Y-65971000D01*
G75*
G02*
X176193000Y-66196000I0J-225000D01*
G01*
X176193000Y-66646000D01*
G75*
G02*
X175968000Y-66871000I-225000J0D01*
G01*
X174168000Y-66871000D01*
G75*
G02*
X173943000Y-66646000I0J225000D01*
G01*
G37*
G36*
G01*
X173943000Y-67916000D02*
X173943000Y-67466000D01*
G75*
G02*
X174168000Y-67241000I225000J0D01*
G01*
X175968000Y-67241000D01*
G75*
G02*
X176193000Y-67466000I0J-225000D01*
G01*
X176193000Y-67916000D01*
G75*
G02*
X175968000Y-68141000I-225000J0D01*
G01*
X174168000Y-68141000D01*
G75*
G02*
X173943000Y-67916000I0J225000D01*
G01*
G37*
G36*
G01*
X173943000Y-69186000D02*
X173943000Y-68736000D01*
G75*
G02*
X174168000Y-68511000I225000J0D01*
G01*
X175968000Y-68511000D01*
G75*
G02*
X176193000Y-68736000I0J-225000D01*
G01*
X176193000Y-69186000D01*
G75*
G02*
X175968000Y-69411000I-225000J0D01*
G01*
X174168000Y-69411000D01*
G75*
G02*
X173943000Y-69186000I0J225000D01*
G01*
G37*
G36*
G01*
X168993000Y-69186000D02*
X168993000Y-68736000D01*
G75*
G02*
X169218000Y-68511000I225000J0D01*
G01*
X171018000Y-68511000D01*
G75*
G02*
X171243000Y-68736000I0J-225000D01*
G01*
X171243000Y-69186000D01*
G75*
G02*
X171018000Y-69411000I-225000J0D01*
G01*
X169218000Y-69411000D01*
G75*
G02*
X168993000Y-69186000I0J225000D01*
G01*
G37*
G36*
G01*
X168993000Y-67916000D02*
X168993000Y-67466000D01*
G75*
G02*
X169218000Y-67241000I225000J0D01*
G01*
X171018000Y-67241000D01*
G75*
G02*
X171243000Y-67466000I0J-225000D01*
G01*
X171243000Y-67916000D01*
G75*
G02*
X171018000Y-68141000I-225000J0D01*
G01*
X169218000Y-68141000D01*
G75*
G02*
X168993000Y-67916000I0J225000D01*
G01*
G37*
G36*
G01*
X168993000Y-66646000D02*
X168993000Y-66196000D01*
G75*
G02*
X169218000Y-65971000I225000J0D01*
G01*
X171018000Y-65971000D01*
G75*
G02*
X171243000Y-66196000I0J-225000D01*
G01*
X171243000Y-66646000D01*
G75*
G02*
X171018000Y-66871000I-225000J0D01*
G01*
X169218000Y-66871000D01*
G75*
G02*
X168993000Y-66646000I0J225000D01*
G01*
G37*
G36*
G01*
X168993000Y-65376000D02*
X168993000Y-64926000D01*
G75*
G02*
X169218000Y-64701000I225000J0D01*
G01*
X171018000Y-64701000D01*
G75*
G02*
X171243000Y-64926000I0J-225000D01*
G01*
X171243000Y-65376000D01*
G75*
G02*
X171018000Y-65601000I-225000J0D01*
G01*
X169218000Y-65601000D01*
G75*
G02*
X168993000Y-65376000I0J225000D01*
G01*
G37*
G36*
G01*
X168993000Y-64106000D02*
X168993000Y-63656000D01*
G75*
G02*
X169218000Y-63431000I225000J0D01*
G01*
X171018000Y-63431000D01*
G75*
G02*
X171243000Y-63656000I0J-225000D01*
G01*
X171243000Y-64106000D01*
G75*
G02*
X171018000Y-64331000I-225000J0D01*
G01*
X169218000Y-64331000D01*
G75*
G02*
X168993000Y-64106000I0J225000D01*
G01*
G37*
G36*
G01*
X168993000Y-62836000D02*
X168993000Y-62386000D01*
G75*
G02*
X169218000Y-62161000I225000J0D01*
G01*
X171018000Y-62161000D01*
G75*
G02*
X171243000Y-62386000I0J-225000D01*
G01*
X171243000Y-62836000D01*
G75*
G02*
X171018000Y-63061000I-225000J0D01*
G01*
X169218000Y-63061000D01*
G75*
G02*
X168993000Y-62836000I0J225000D01*
G01*
G37*
G36*
G01*
X168993000Y-61566000D02*
X168993000Y-61116000D01*
G75*
G02*
X169218000Y-60891000I225000J0D01*
G01*
X171018000Y-60891000D01*
G75*
G02*
X171243000Y-61116000I0J-225000D01*
G01*
X171243000Y-61566000D01*
G75*
G02*
X171018000Y-61791000I-225000J0D01*
G01*
X169218000Y-61791000D01*
G75*
G02*
X168993000Y-61566000I0J225000D01*
G01*
G37*
G36*
G01*
X207345000Y-50619829D02*
X207345000Y-51742171D01*
G75*
G02*
X207031171Y-52056000I-313829J0D01*
G01*
X206183829Y-52056000D01*
G75*
G02*
X205870000Y-51742171I0J313829D01*
G01*
X205870000Y-50619829D01*
G75*
G02*
X206183829Y-50306000I313829J0D01*
G01*
X207031171Y-50306000D01*
G75*
G02*
X207345000Y-50619829I0J-313829D01*
G01*
G37*
G36*
G01*
X209420000Y-50619829D02*
X209420000Y-51742171D01*
G75*
G02*
X209106171Y-52056000I-313829J0D01*
G01*
X208258829Y-52056000D01*
G75*
G02*
X207945000Y-51742171I0J313829D01*
G01*
X207945000Y-50619829D01*
G75*
G02*
X208258829Y-50306000I313829J0D01*
G01*
X209106171Y-50306000D01*
G75*
G02*
X209420000Y-50619829I0J-313829D01*
G01*
G37*
D10*
X189103000Y-43561000D03*
G36*
G01*
X190103000Y-45251000D02*
X190103000Y-46951000D01*
G75*
G02*
X189953000Y-47101000I-150000J0D01*
G01*
X188253000Y-47101000D01*
G75*
G02*
X188103000Y-46951000I0J150000D01*
G01*
X188103000Y-45251000D01*
G75*
G02*
X188253000Y-45101000I150000J0D01*
G01*
X189953000Y-45101000D01*
G75*
G02*
X190103000Y-45251000I0J-150000D01*
G01*
G37*
G36*
G01*
X207345000Y-41094829D02*
X207345000Y-42217171D01*
G75*
G02*
X207031171Y-42531000I-313829J0D01*
G01*
X206183829Y-42531000D01*
G75*
G02*
X205870000Y-42217171I0J313829D01*
G01*
X205870000Y-41094829D01*
G75*
G02*
X206183829Y-40781000I313829J0D01*
G01*
X207031171Y-40781000D01*
G75*
G02*
X207345000Y-41094829I0J-313829D01*
G01*
G37*
G36*
G01*
X209420000Y-41094829D02*
X209420000Y-42217171D01*
G75*
G02*
X209106171Y-42531000I-313829J0D01*
G01*
X208258829Y-42531000D01*
G75*
G02*
X207945000Y-42217171I0J313829D01*
G01*
X207945000Y-41094829D01*
G75*
G02*
X208258829Y-40781000I313829J0D01*
G01*
X209106171Y-40781000D01*
G75*
G02*
X209420000Y-41094829I0J-313829D01*
G01*
G37*
D11*
X105283000Y-80391000D03*
X107823000Y-80391000D03*
X110363000Y-80391000D03*
X112903000Y-80391000D03*
X115443000Y-80391000D03*
X117983000Y-80391000D03*
X120523000Y-80391000D03*
X123063000Y-80391000D03*
X125603000Y-80391000D03*
X128143000Y-80391000D03*
X130683000Y-80391000D03*
X133223000Y-80391000D03*
X135763000Y-80391000D03*
X138303000Y-80391000D03*
X140843000Y-80391000D03*
X143383000Y-80391000D03*
X145923000Y-80391000D03*
X148463000Y-80391000D03*
X151003000Y-80391000D03*
X153543000Y-80391000D03*
X156083000Y-80391000D03*
X158623000Y-80391000D03*
X161163000Y-80391000D03*
G36*
G01*
X164503000Y-81341000D02*
X162903000Y-81341000D01*
G75*
G02*
X162753000Y-81191000I0J150000D01*
G01*
X162753000Y-79591000D01*
G75*
G02*
X162903000Y-79441000I150000J0D01*
G01*
X164503000Y-79441000D01*
G75*
G02*
X164653000Y-79591000I0J-150000D01*
G01*
X164653000Y-81191000D01*
G75*
G02*
X164503000Y-81341000I-150000J0D01*
G01*
G37*
X105283000Y-65151000D03*
X107823000Y-65151000D03*
X110363000Y-65151000D03*
X112903000Y-65151000D03*
X115443000Y-65151000D03*
X117983000Y-65151000D03*
X120523000Y-65151000D03*
X123063000Y-65151000D03*
X125603000Y-65151000D03*
X128143000Y-65151000D03*
X130683000Y-65151000D03*
X133223000Y-65151000D03*
X135763000Y-65151000D03*
X138303000Y-65151000D03*
X140843000Y-65151000D03*
X143383000Y-65151000D03*
X145923000Y-65151000D03*
X148463000Y-65151000D03*
X151003000Y-65151000D03*
X153543000Y-65151000D03*
X156083000Y-65151000D03*
X158623000Y-65151000D03*
X161163000Y-65151000D03*
G36*
G01*
X164503000Y-66101000D02*
X162903000Y-66101000D01*
G75*
G02*
X162753000Y-65951000I0J150000D01*
G01*
X162753000Y-64351000D01*
G75*
G02*
X162903000Y-64201000I150000J0D01*
G01*
X164503000Y-64201000D01*
G75*
G02*
X164653000Y-64351000I0J-150000D01*
G01*
X164653000Y-65951000D01*
G75*
G02*
X164503000Y-66101000I-150000J0D01*
G01*
G37*
D10*
X206502000Y-80391000D03*
X206502000Y-77851000D03*
X206502000Y-75311000D03*
X206502000Y-72771000D03*
X206502000Y-70231000D03*
G36*
G01*
X205502000Y-68541000D02*
X205502000Y-66841000D01*
G75*
G02*
X205652000Y-66691000I150000J0D01*
G01*
X207352000Y-66691000D01*
G75*
G02*
X207502000Y-66841000I0J-150000D01*
G01*
X207502000Y-68541000D01*
G75*
G02*
X207352000Y-68691000I-150000J0D01*
G01*
X205652000Y-68691000D01*
G75*
G02*
X205502000Y-68541000I0J150000D01*
G01*
G37*
G36*
G01*
X209449784Y-60152000D02*
X208380216Y-60152000D01*
G75*
G02*
X208065000Y-59836784I0J315216D01*
G01*
X208065000Y-59017216D01*
G75*
G02*
X208380216Y-58702000I315216J0D01*
G01*
X209449784Y-58702000D01*
G75*
G02*
X209765000Y-59017216I0J-315216D01*
G01*
X209765000Y-59836784D01*
G75*
G02*
X209449784Y-60152000I-315216J0D01*
G01*
G37*
G36*
G01*
X209449784Y-62202000D02*
X208380216Y-62202000D01*
G75*
G02*
X208065000Y-61886784I0J315216D01*
G01*
X208065000Y-61067216D01*
G75*
G02*
X208380216Y-60752000I315216J0D01*
G01*
X209449784Y-60752000D01*
G75*
G02*
X209765000Y-61067216I0J-315216D01*
G01*
X209765000Y-61886784D01*
G75*
G02*
X209449784Y-62202000I-315216J0D01*
G01*
G37*
G36*
G01*
X208470000Y-53671000D02*
X209520000Y-53671000D01*
G75*
G02*
X209590000Y-53741000I0J-70000D01*
G01*
X209590000Y-54341000D01*
G75*
G02*
X209520000Y-54411000I-70000J0D01*
G01*
X208470000Y-54411000D01*
G75*
G02*
X208400000Y-54341000I0J70000D01*
G01*
X208400000Y-53741000D01*
G75*
G02*
X208470000Y-53671000I70000J0D01*
G01*
G37*
G36*
G01*
X208470000Y-55571000D02*
X209520000Y-55571000D01*
G75*
G02*
X209590000Y-55641000I0J-70000D01*
G01*
X209590000Y-56241000D01*
G75*
G02*
X209520000Y-56311000I-70000J0D01*
G01*
X208470000Y-56311000D01*
G75*
G02*
X208400000Y-56241000I0J70000D01*
G01*
X208400000Y-55641000D01*
G75*
G02*
X208470000Y-55571000I70000J0D01*
G01*
G37*
G36*
G01*
X205770000Y-55571000D02*
X206820000Y-55571000D01*
G75*
G02*
X206890000Y-55641000I0J-70000D01*
G01*
X206890000Y-56241000D01*
G75*
G02*
X206820000Y-56311000I-70000J0D01*
G01*
X205770000Y-56311000D01*
G75*
G02*
X205700000Y-56241000I0J70000D01*
G01*
X205700000Y-55641000D01*
G75*
G02*
X205770000Y-55571000I70000J0D01*
G01*
G37*
G36*
G01*
X205770000Y-54621000D02*
X206820000Y-54621000D01*
G75*
G02*
X206890000Y-54691000I0J-70000D01*
G01*
X206890000Y-55291000D01*
G75*
G02*
X206820000Y-55361000I-70000J0D01*
G01*
X205770000Y-55361000D01*
G75*
G02*
X205700000Y-55291000I0J70000D01*
G01*
X205700000Y-54691000D01*
G75*
G02*
X205770000Y-54621000I70000J0D01*
G01*
G37*
G36*
G01*
X205770000Y-53671000D02*
X206820000Y-53671000D01*
G75*
G02*
X206890000Y-53741000I0J-70000D01*
G01*
X206890000Y-54341000D01*
G75*
G02*
X206820000Y-54411000I-70000J0D01*
G01*
X205770000Y-54411000D01*
G75*
G02*
X205700000Y-54341000I0J70000D01*
G01*
X205700000Y-53741000D01*
G75*
G02*
X205770000Y-53671000I70000J0D01*
G01*
G37*
G36*
G01*
X171108000Y-72914000D02*
X172808000Y-72914000D01*
G75*
G02*
X172958000Y-73064000I0J-150000D01*
G01*
X172958000Y-74764000D01*
G75*
G02*
X172808000Y-74914000I-150000J0D01*
G01*
X171108000Y-74914000D01*
G75*
G02*
X170958000Y-74764000I0J150000D01*
G01*
X170958000Y-73064000D01*
G75*
G02*
X171108000Y-72914000I150000J0D01*
G01*
G37*
X169418000Y-73914000D03*
X166878000Y-73914000D03*
X175768000Y-73914000D03*
G36*
G01*
X177458000Y-72914000D02*
X179158000Y-72914000D01*
G75*
G02*
X179308000Y-73064000I0J-150000D01*
G01*
X179308000Y-74764000D01*
G75*
G02*
X179158000Y-74914000I-150000J0D01*
G01*
X177458000Y-74914000D01*
G75*
G02*
X177308000Y-74764000I0J150000D01*
G01*
X177308000Y-73064000D01*
G75*
G02*
X177458000Y-72914000I150000J0D01*
G01*
G37*
G36*
G01*
X206094216Y-60752000D02*
X207163784Y-60752000D01*
G75*
G02*
X207479000Y-61067216I0J-315216D01*
G01*
X207479000Y-61886784D01*
G75*
G02*
X207163784Y-62202000I-315216J0D01*
G01*
X206094216Y-62202000D01*
G75*
G02*
X205779000Y-61886784I0J315216D01*
G01*
X205779000Y-61067216D01*
G75*
G02*
X206094216Y-60752000I315216J0D01*
G01*
G37*
G36*
G01*
X206094216Y-58702000D02*
X207163784Y-58702000D01*
G75*
G02*
X207479000Y-59017216I0J-315216D01*
G01*
X207479000Y-59836784D01*
G75*
G02*
X207163784Y-60152000I-315216J0D01*
G01*
X206094216Y-60152000D01*
G75*
G02*
X205779000Y-59836784I0J315216D01*
G01*
X205779000Y-59017216D01*
G75*
G02*
X206094216Y-58702000I315216J0D01*
G01*
G37*
G36*
G01*
X185628000Y-48741216D02*
X185628000Y-49810784D01*
G75*
G02*
X185312784Y-50126000I-315216J0D01*
G01*
X184493216Y-50126000D01*
G75*
G02*
X184178000Y-49810784I0J315216D01*
G01*
X184178000Y-48741216D01*
G75*
G02*
X184493216Y-48426000I315216J0D01*
G01*
X185312784Y-48426000D01*
G75*
G02*
X185628000Y-48741216I0J-315216D01*
G01*
G37*
G36*
G01*
X187678000Y-48741216D02*
X187678000Y-49810784D01*
G75*
G02*
X187362784Y-50126000I-315216J0D01*
G01*
X186543216Y-50126000D01*
G75*
G02*
X186228000Y-49810784I0J315216D01*
G01*
X186228000Y-48741216D01*
G75*
G02*
X186543216Y-48426000I315216J0D01*
G01*
X187362784Y-48426000D01*
G75*
G02*
X187678000Y-48741216I0J-315216D01*
G01*
G37*
G36*
G01*
X185628000Y-67156216D02*
X185628000Y-68225784D01*
G75*
G02*
X185312784Y-68541000I-315216J0D01*
G01*
X184493216Y-68541000D01*
G75*
G02*
X184178000Y-68225784I0J315216D01*
G01*
X184178000Y-67156216D01*
G75*
G02*
X184493216Y-66841000I315216J0D01*
G01*
X185312784Y-66841000D01*
G75*
G02*
X185628000Y-67156216I0J-315216D01*
G01*
G37*
G36*
G01*
X187678000Y-67156216D02*
X187678000Y-68225784D01*
G75*
G02*
X187362784Y-68541000I-315216J0D01*
G01*
X186543216Y-68541000D01*
G75*
G02*
X186228000Y-68225784I0J315216D01*
G01*
X186228000Y-67156216D01*
G75*
G02*
X186543216Y-66841000I315216J0D01*
G01*
X187362784Y-66841000D01*
G75*
G02*
X187678000Y-67156216I0J-315216D01*
G01*
G37*
G36*
G01*
X172293000Y-58266216D02*
X172293000Y-59335784D01*
G75*
G02*
X171977784Y-59651000I-315216J0D01*
G01*
X171158216Y-59651000D01*
G75*
G02*
X170843000Y-59335784I0J315216D01*
G01*
X170843000Y-58266216D01*
G75*
G02*
X171158216Y-57951000I315216J0D01*
G01*
X171977784Y-57951000D01*
G75*
G02*
X172293000Y-58266216I0J-315216D01*
G01*
G37*
G36*
G01*
X174343000Y-58266216D02*
X174343000Y-59335784D01*
G75*
G02*
X174027784Y-59651000I-315216J0D01*
G01*
X173208216Y-59651000D01*
G75*
G02*
X172893000Y-59335784I0J315216D01*
G01*
X172893000Y-58266216D01*
G75*
G02*
X173208216Y-57951000I315216J0D01*
G01*
X174027784Y-57951000D01*
G75*
G02*
X174343000Y-58266216I0J-315216D01*
G01*
G37*
G36*
G01*
X206983216Y-32159000D02*
X208052784Y-32159000D01*
G75*
G02*
X208368000Y-32474216I0J-315216D01*
G01*
X208368000Y-33293784D01*
G75*
G02*
X208052784Y-33609000I-315216J0D01*
G01*
X206983216Y-33609000D01*
G75*
G02*
X206668000Y-33293784I0J315216D01*
G01*
X206668000Y-32474216D01*
G75*
G02*
X206983216Y-32159000I315216J0D01*
G01*
G37*
G36*
G01*
X206983216Y-34209000D02*
X208052784Y-34209000D01*
G75*
G02*
X208368000Y-34524216I0J-315216D01*
G01*
X208368000Y-35343784D01*
G75*
G02*
X208052784Y-35659000I-315216J0D01*
G01*
X206983216Y-35659000D01*
G75*
G02*
X206668000Y-35343784I0J315216D01*
G01*
X206668000Y-34524216D01*
G75*
G02*
X206983216Y-34209000I315216J0D01*
G01*
G37*
G36*
G01*
X205895000Y-46000784D02*
X205895000Y-44931216D01*
G75*
G02*
X206210216Y-44616000I315216J0D01*
G01*
X207029784Y-44616000D01*
G75*
G02*
X207345000Y-44931216I0J-315216D01*
G01*
X207345000Y-46000784D01*
G75*
G02*
X207029784Y-46316000I-315216J0D01*
G01*
X206210216Y-46316000D01*
G75*
G02*
X205895000Y-46000784I0J315216D01*
G01*
G37*
G36*
G01*
X207945000Y-46000784D02*
X207945000Y-44931216D01*
G75*
G02*
X208260216Y-44616000I315216J0D01*
G01*
X209079784Y-44616000D01*
G75*
G02*
X209395000Y-44931216I0J-315216D01*
G01*
X209395000Y-46000784D01*
G75*
G02*
X209079784Y-46316000I-315216J0D01*
G01*
X208260216Y-46316000D01*
G75*
G02*
X207945000Y-46000784I0J315216D01*
G01*
G37*
G36*
G01*
X162903000Y-57216000D02*
X164503000Y-57216000D01*
G75*
G02*
X164653000Y-57366000I0J-150000D01*
G01*
X164653000Y-58966000D01*
G75*
G02*
X164503000Y-59116000I-150000J0D01*
G01*
X162903000Y-59116000D01*
G75*
G02*
X162753000Y-58966000I0J150000D01*
G01*
X162753000Y-57366000D01*
G75*
G02*
X162903000Y-57216000I150000J0D01*
G01*
G37*
D11*
X135763000Y-73406000D03*
X161163000Y-58166000D03*
X138303000Y-73406000D03*
X158623000Y-58166000D03*
X140843000Y-73406000D03*
X156083000Y-58166000D03*
X143383000Y-73406000D03*
X153543000Y-58166000D03*
X145923000Y-73406000D03*
X151003000Y-58166000D03*
X148463000Y-73406000D03*
X148463000Y-58166000D03*
X151003000Y-73406000D03*
X145923000Y-58166000D03*
X153543000Y-73406000D03*
X143383000Y-58166000D03*
X156083000Y-73406000D03*
X140843000Y-58166000D03*
X158623000Y-73406000D03*
X138303000Y-58166000D03*
X161163000Y-73406000D03*
X135763000Y-58166000D03*
X163703000Y-73406000D03*
D12*
X133223000Y-58166000D03*
D11*
X105283000Y-73406000D03*
X130683000Y-58166000D03*
X107823000Y-73406000D03*
X128143000Y-58166000D03*
X110363000Y-73406000D03*
X125603000Y-58166000D03*
X112903000Y-73406000D03*
X123063000Y-58166000D03*
X115443000Y-73406000D03*
X120523000Y-58166000D03*
X117983000Y-73406000D03*
X117983000Y-58166000D03*
X120523000Y-73406000D03*
X115443000Y-58166000D03*
X123063000Y-73406000D03*
X112903000Y-58166000D03*
X125603000Y-73406000D03*
X110363000Y-58166000D03*
X128143000Y-73406000D03*
X107823000Y-58166000D03*
X130683000Y-73406000D03*
X105283000Y-58166000D03*
X133223000Y-73406000D03*
M02*
