G04 #@! TF.GenerationSoftware,KiCad,Pcbnew,(5.1.9)-1*
G04 #@! TF.CreationDate,2021-04-27T11:27:05+01:00*
G04 #@! TF.ProjectId,RGBtoHDMI Amiga Denise - solarmon - Rev 2 - SOIC,52474274-6f48-4444-9d49-20416d696761,2 (SOIC)*
G04 #@! TF.SameCoordinates,Original*
G04 #@! TF.FileFunction,Legend,Top*
G04 #@! TF.FilePolarity,Positive*
%FSLAX46Y46*%
G04 Gerber Fmt 4.6, Leading zero omitted, Abs format (unit mm)*
G04 Created by KiCad (PCBNEW (5.1.9)-1) date 2021-04-27 11:27:05*
%MOMM*%
%LPD*%
G01*
G04 APERTURE LIST*
%ADD10C,0.150000*%
%ADD11C,0.200000*%
%ADD12C,0.187500*%
%ADD13C,0.125000*%
%ADD14C,0.500000*%
%ADD15C,0.400000*%
%ADD16C,0.120000*%
%ADD17C,0.100000*%
G04 APERTURE END LIST*
D10*
X193421000Y-47879000D02*
X193421000Y-47371000D01*
X194183000Y-47371000D02*
X193421000Y-47371000D01*
X194183000Y-54991000D02*
X193421000Y-54991000D01*
X193421000Y-54991000D02*
X193421000Y-54483000D01*
X193421000Y-67691000D02*
X193421000Y-67183000D01*
X194183000Y-67691000D02*
X193421000Y-67691000D01*
X204343000Y-44831000D02*
X203581000Y-44831000D01*
X204343000Y-45339000D02*
X204343000Y-44831000D01*
D11*
X180723952Y-87677523D02*
X181009666Y-87772761D01*
X181485857Y-87772761D01*
X181676333Y-87677523D01*
X181771571Y-87582285D01*
X181866809Y-87391809D01*
X181866809Y-87201333D01*
X181771571Y-87010857D01*
X181676333Y-86915619D01*
X181485857Y-86820380D01*
X181104904Y-86725142D01*
X180914428Y-86629904D01*
X180819190Y-86534666D01*
X180723952Y-86344190D01*
X180723952Y-86153714D01*
X180819190Y-85963238D01*
X180914428Y-85868000D01*
X181104904Y-85772761D01*
X181581095Y-85772761D01*
X181866809Y-85868000D01*
X183104904Y-85772761D02*
X183485857Y-85772761D01*
X183676333Y-85868000D01*
X183866809Y-86058476D01*
X183962047Y-86439428D01*
X183962047Y-87106095D01*
X183866809Y-87487047D01*
X183676333Y-87677523D01*
X183485857Y-87772761D01*
X183104904Y-87772761D01*
X182914428Y-87677523D01*
X182723952Y-87487047D01*
X182628714Y-87106095D01*
X182628714Y-86439428D01*
X182723952Y-86058476D01*
X182914428Y-85868000D01*
X183104904Y-85772761D01*
X184819190Y-87772761D02*
X184819190Y-85772761D01*
X186914428Y-87582285D02*
X186819190Y-87677523D01*
X186533476Y-87772761D01*
X186343000Y-87772761D01*
X186057285Y-87677523D01*
X185866809Y-87487047D01*
X185771571Y-87296571D01*
X185676333Y-86915619D01*
X185676333Y-86629904D01*
X185771571Y-86248952D01*
X185866809Y-86058476D01*
X186057285Y-85868000D01*
X186343000Y-85772761D01*
X186533476Y-85772761D01*
X186819190Y-85868000D01*
X186914428Y-85963238D01*
X189009666Y-85772761D02*
X189676333Y-87772761D01*
X190343000Y-85772761D01*
X191771571Y-87677523D02*
X191581095Y-87772761D01*
X191200142Y-87772761D01*
X191009666Y-87677523D01*
X190914428Y-87487047D01*
X190914428Y-86725142D01*
X191009666Y-86534666D01*
X191200142Y-86439428D01*
X191581095Y-86439428D01*
X191771571Y-86534666D01*
X191866809Y-86725142D01*
X191866809Y-86915619D01*
X190914428Y-87106095D01*
X192723952Y-87772761D02*
X192723952Y-86439428D01*
X192723952Y-86820380D02*
X192819190Y-86629904D01*
X192914428Y-86534666D01*
X193104904Y-86439428D01*
X193295380Y-86439428D01*
X193866809Y-87677523D02*
X194057285Y-87772761D01*
X194438238Y-87772761D01*
X194628714Y-87677523D01*
X194723952Y-87487047D01*
X194723952Y-87391809D01*
X194628714Y-87201333D01*
X194438238Y-87106095D01*
X194152523Y-87106095D01*
X193962047Y-87010857D01*
X193866809Y-86820380D01*
X193866809Y-86725142D01*
X193962047Y-86534666D01*
X194152523Y-86439428D01*
X194438238Y-86439428D01*
X194628714Y-86534666D01*
X195581095Y-87772761D02*
X195581095Y-86439428D01*
X195581095Y-85772761D02*
X195485857Y-85868000D01*
X195581095Y-85963238D01*
X195676333Y-85868000D01*
X195581095Y-85772761D01*
X195581095Y-85963238D01*
X196819190Y-87772761D02*
X196628714Y-87677523D01*
X196533476Y-87582285D01*
X196438238Y-87391809D01*
X196438238Y-86820380D01*
X196533476Y-86629904D01*
X196628714Y-86534666D01*
X196819190Y-86439428D01*
X197104904Y-86439428D01*
X197295380Y-86534666D01*
X197390619Y-86629904D01*
X197485857Y-86820380D01*
X197485857Y-87391809D01*
X197390619Y-87582285D01*
X197295380Y-87677523D01*
X197104904Y-87772761D01*
X196819190Y-87772761D01*
X198343000Y-86439428D02*
X198343000Y-87772761D01*
X198343000Y-86629904D02*
X198438238Y-86534666D01*
X198628714Y-86439428D01*
X198914428Y-86439428D01*
X199104904Y-86534666D01*
X199200142Y-86725142D01*
X199200142Y-87772761D01*
D10*
X171608333Y-44928666D02*
X171608333Y-44228666D01*
X171875000Y-44228666D01*
X171941666Y-44262000D01*
X171975000Y-44295333D01*
X172008333Y-44362000D01*
X172008333Y-44462000D01*
X171975000Y-44528666D01*
X171941666Y-44562000D01*
X171875000Y-44595333D01*
X171608333Y-44595333D01*
X172308333Y-44928666D02*
X172308333Y-44462000D01*
X172308333Y-44228666D02*
X172275000Y-44262000D01*
X172308333Y-44295333D01*
X172341666Y-44262000D01*
X172308333Y-44228666D01*
X172308333Y-44295333D01*
X173041666Y-44862000D02*
X173008333Y-44895333D01*
X172908333Y-44928666D01*
X172841666Y-44928666D01*
X172741666Y-44895333D01*
X172675000Y-44828666D01*
X172641666Y-44762000D01*
X172608333Y-44628666D01*
X172608333Y-44528666D01*
X172641666Y-44395333D01*
X172675000Y-44328666D01*
X172741666Y-44262000D01*
X172841666Y-44228666D01*
X172908333Y-44228666D01*
X173008333Y-44262000D01*
X173041666Y-44295333D01*
X173675000Y-44928666D02*
X173341666Y-44928666D01*
X173341666Y-44228666D01*
X173908333Y-44928666D02*
X173908333Y-44228666D01*
X174308333Y-44928666D02*
X174008333Y-44528666D01*
X174308333Y-44228666D02*
X173908333Y-44628666D01*
X175141666Y-44928666D02*
X175141666Y-44228666D01*
X175308333Y-44228666D01*
X175408333Y-44262000D01*
X175475000Y-44328666D01*
X175508333Y-44395333D01*
X175541666Y-44528666D01*
X175541666Y-44628666D01*
X175508333Y-44762000D01*
X175475000Y-44828666D01*
X175408333Y-44895333D01*
X175308333Y-44928666D01*
X175141666Y-44928666D01*
X176108333Y-44895333D02*
X176041666Y-44928666D01*
X175908333Y-44928666D01*
X175841666Y-44895333D01*
X175808333Y-44828666D01*
X175808333Y-44562000D01*
X175841666Y-44495333D01*
X175908333Y-44462000D01*
X176041666Y-44462000D01*
X176108333Y-44495333D01*
X176141666Y-44562000D01*
X176141666Y-44628666D01*
X175808333Y-44695333D01*
X176541666Y-44928666D02*
X176475000Y-44895333D01*
X176441666Y-44828666D01*
X176441666Y-44228666D01*
X177108333Y-44928666D02*
X177108333Y-44562000D01*
X177075000Y-44495333D01*
X177008333Y-44462000D01*
X176875000Y-44462000D01*
X176808333Y-44495333D01*
X177108333Y-44895333D02*
X177041666Y-44928666D01*
X176875000Y-44928666D01*
X176808333Y-44895333D01*
X176775000Y-44828666D01*
X176775000Y-44762000D01*
X176808333Y-44695333D01*
X176875000Y-44662000D01*
X177041666Y-44662000D01*
X177108333Y-44628666D01*
X177375000Y-44462000D02*
X177541666Y-44928666D01*
X177708333Y-44462000D02*
X177541666Y-44928666D01*
X177475000Y-45095333D01*
X177441666Y-45128666D01*
X177375000Y-45162000D01*
X172175000Y-46395333D02*
X172141666Y-46362000D01*
X172075000Y-46262000D01*
X172041666Y-46195333D01*
X172008333Y-46095333D01*
X171975000Y-45928666D01*
X171975000Y-45795333D01*
X172008333Y-45628666D01*
X172041666Y-45528666D01*
X172075000Y-45462000D01*
X172141666Y-45362000D01*
X172175000Y-45328666D01*
X172741666Y-45662000D02*
X172741666Y-46128666D01*
X172441666Y-45662000D02*
X172441666Y-46028666D01*
X172475000Y-46095333D01*
X172541666Y-46128666D01*
X172641666Y-46128666D01*
X172708333Y-46095333D01*
X172741666Y-46062000D01*
X173041666Y-46095333D02*
X173108333Y-46128666D01*
X173241666Y-46128666D01*
X173308333Y-46095333D01*
X173341666Y-46028666D01*
X173341666Y-45995333D01*
X173308333Y-45928666D01*
X173241666Y-45895333D01*
X173141666Y-45895333D01*
X173075000Y-45862000D01*
X173041666Y-45795333D01*
X173041666Y-45762000D01*
X173075000Y-45695333D01*
X173141666Y-45662000D01*
X173241666Y-45662000D01*
X173308333Y-45695333D01*
X173641666Y-46128666D02*
X173641666Y-45662000D01*
X173641666Y-45428666D02*
X173608333Y-45462000D01*
X173641666Y-45495333D01*
X173675000Y-45462000D01*
X173641666Y-45428666D01*
X173641666Y-45495333D01*
X173975000Y-45662000D02*
X173975000Y-46128666D01*
X173975000Y-45728666D02*
X174008333Y-45695333D01*
X174075000Y-45662000D01*
X174175000Y-45662000D01*
X174241666Y-45695333D01*
X174275000Y-45762000D01*
X174275000Y-46128666D01*
X174908333Y-45662000D02*
X174908333Y-46228666D01*
X174875000Y-46295333D01*
X174841666Y-46328666D01*
X174775000Y-46362000D01*
X174675000Y-46362000D01*
X174608333Y-46328666D01*
X174908333Y-46095333D02*
X174841666Y-46128666D01*
X174708333Y-46128666D01*
X174641666Y-46095333D01*
X174608333Y-46062000D01*
X174575000Y-45995333D01*
X174575000Y-45795333D01*
X174608333Y-45728666D01*
X174641666Y-45695333D01*
X174708333Y-45662000D01*
X174841666Y-45662000D01*
X174908333Y-45695333D01*
X176175000Y-46062000D02*
X176141666Y-46095333D01*
X176041666Y-46128666D01*
X175975000Y-46128666D01*
X175875000Y-46095333D01*
X175808333Y-46028666D01*
X175775000Y-45962000D01*
X175741666Y-45828666D01*
X175741666Y-45728666D01*
X175775000Y-45595333D01*
X175808333Y-45528666D01*
X175875000Y-45462000D01*
X175975000Y-45428666D01*
X176041666Y-45428666D01*
X176141666Y-45462000D01*
X176175000Y-45495333D01*
X176775000Y-45428666D02*
X176641666Y-45428666D01*
X176575000Y-45462000D01*
X176541666Y-45495333D01*
X176475000Y-45595333D01*
X176441666Y-45728666D01*
X176441666Y-45995333D01*
X176475000Y-46062000D01*
X176508333Y-46095333D01*
X176575000Y-46128666D01*
X176708333Y-46128666D01*
X176775000Y-46095333D01*
X176808333Y-46062000D01*
X176841666Y-45995333D01*
X176841666Y-45828666D01*
X176808333Y-45762000D01*
X176775000Y-45728666D01*
X176708333Y-45695333D01*
X176575000Y-45695333D01*
X176508333Y-45728666D01*
X176475000Y-45762000D01*
X176441666Y-45828666D01*
X177075000Y-46395333D02*
X177108333Y-46362000D01*
X177175000Y-46262000D01*
X177208333Y-46195333D01*
X177241666Y-46095333D01*
X177275000Y-45928666D01*
X177275000Y-45795333D01*
X177241666Y-45628666D01*
X177208333Y-45528666D01*
X177175000Y-45462000D01*
X177108333Y-45362000D01*
X177075000Y-45328666D01*
D12*
X192849571Y-66173000D02*
X192778142Y-66137285D01*
X192671000Y-66137285D01*
X192563857Y-66173000D01*
X192492428Y-66244428D01*
X192456714Y-66315857D01*
X192421000Y-66458714D01*
X192421000Y-66565857D01*
X192456714Y-66708714D01*
X192492428Y-66780142D01*
X192563857Y-66851571D01*
X192671000Y-66887285D01*
X192742428Y-66887285D01*
X192849571Y-66851571D01*
X192885285Y-66815857D01*
X192885285Y-66565857D01*
X192742428Y-66565857D01*
X193206714Y-66887285D02*
X193206714Y-66137285D01*
X193635285Y-66887285D01*
X193635285Y-66137285D01*
X193992428Y-66887285D02*
X193992428Y-66137285D01*
X194171000Y-66137285D01*
X194278142Y-66173000D01*
X194349571Y-66244428D01*
X194385285Y-66315857D01*
X194421000Y-66458714D01*
X194421000Y-66565857D01*
X194385285Y-66708714D01*
X194349571Y-66780142D01*
X194278142Y-66851571D01*
X194171000Y-66887285D01*
X193992428Y-66887285D01*
D13*
X203880892Y-80141000D02*
X203833273Y-80117190D01*
X203761845Y-80117190D01*
X203690416Y-80141000D01*
X203642797Y-80188619D01*
X203618988Y-80236238D01*
X203595178Y-80331476D01*
X203595178Y-80402904D01*
X203618988Y-80498142D01*
X203642797Y-80545761D01*
X203690416Y-80593380D01*
X203761845Y-80617190D01*
X203809464Y-80617190D01*
X203880892Y-80593380D01*
X203904702Y-80569571D01*
X203904702Y-80402904D01*
X203809464Y-80402904D01*
X204118988Y-80617190D02*
X204118988Y-80117190D01*
X204404702Y-80617190D01*
X204404702Y-80117190D01*
X204642797Y-80617190D02*
X204642797Y-80117190D01*
X204761845Y-80117190D01*
X204833273Y-80141000D01*
X204880892Y-80188619D01*
X204904702Y-80236238D01*
X204928511Y-80331476D01*
X204928511Y-80402904D01*
X204904702Y-80498142D01*
X204880892Y-80545761D01*
X204833273Y-80593380D01*
X204761845Y-80617190D01*
X204642797Y-80617190D01*
D10*
X194183000Y-37719000D02*
X194183000Y-37211000D01*
X194945000Y-37211000D02*
X194183000Y-37211000D01*
X193048000Y-74982428D02*
X193048000Y-75411000D01*
X193019428Y-75496714D01*
X192962285Y-75553857D01*
X192876571Y-75582428D01*
X192819428Y-75582428D01*
X193533714Y-75268142D02*
X193619428Y-75296714D01*
X193648000Y-75325285D01*
X193676571Y-75382428D01*
X193676571Y-75468142D01*
X193648000Y-75525285D01*
X193619428Y-75553857D01*
X193562285Y-75582428D01*
X193333714Y-75582428D01*
X193333714Y-74982428D01*
X193533714Y-74982428D01*
X193590857Y-75011000D01*
X193619428Y-75039571D01*
X193648000Y-75096714D01*
X193648000Y-75153857D01*
X193619428Y-75211000D01*
X193590857Y-75239571D01*
X193533714Y-75268142D01*
X193333714Y-75268142D01*
X194248000Y-75582428D02*
X193905142Y-75582428D01*
X194076571Y-75582428D02*
X194076571Y-74982428D01*
X194019428Y-75068142D01*
X193962285Y-75125285D01*
X193905142Y-75153857D01*
X204243000Y-73042428D02*
X204043000Y-72756714D01*
X203900142Y-73042428D02*
X203900142Y-72442428D01*
X204128714Y-72442428D01*
X204185857Y-72471000D01*
X204214428Y-72499571D01*
X204243000Y-72556714D01*
X204243000Y-72642428D01*
X204214428Y-72699571D01*
X204185857Y-72728142D01*
X204128714Y-72756714D01*
X203900142Y-72756714D01*
X204443000Y-72442428D02*
X204814428Y-72442428D01*
X204614428Y-72671000D01*
X204700142Y-72671000D01*
X204757285Y-72699571D01*
X204785857Y-72728142D01*
X204814428Y-72785285D01*
X204814428Y-72928142D01*
X204785857Y-72985285D01*
X204757285Y-73013857D01*
X204700142Y-73042428D01*
X204528714Y-73042428D01*
X204471571Y-73013857D01*
X204443000Y-72985285D01*
D11*
X149240619Y-83292904D02*
X148973952Y-82911952D01*
X148783476Y-83292904D02*
X148783476Y-82492904D01*
X149088238Y-82492904D01*
X149164428Y-82531000D01*
X149202523Y-82569095D01*
X149240619Y-82645285D01*
X149240619Y-82759571D01*
X149202523Y-82835761D01*
X149164428Y-82873857D01*
X149088238Y-82911952D01*
X148783476Y-82911952D01*
X149888238Y-83254809D02*
X149812047Y-83292904D01*
X149659666Y-83292904D01*
X149583476Y-83254809D01*
X149545380Y-83178619D01*
X149545380Y-82873857D01*
X149583476Y-82797666D01*
X149659666Y-82759571D01*
X149812047Y-82759571D01*
X149888238Y-82797666D01*
X149926333Y-82873857D01*
X149926333Y-82950047D01*
X149545380Y-83026238D01*
X150193000Y-82759571D02*
X150383476Y-83292904D01*
X150573952Y-82759571D01*
X151450142Y-82569095D02*
X151488238Y-82531000D01*
X151564428Y-82492904D01*
X151754904Y-82492904D01*
X151831095Y-82531000D01*
X151869190Y-82569095D01*
X151907285Y-82645285D01*
X151907285Y-82721476D01*
X151869190Y-82835761D01*
X151412047Y-83292904D01*
X151907285Y-83292904D01*
X153088238Y-83597666D02*
X153050142Y-83559571D01*
X152973952Y-83445285D01*
X152935857Y-83369095D01*
X152897761Y-83254809D01*
X152859666Y-83064333D01*
X152859666Y-82911952D01*
X152897761Y-82721476D01*
X152935857Y-82607190D01*
X152973952Y-82531000D01*
X153050142Y-82416714D01*
X153088238Y-82378619D01*
X153354904Y-83254809D02*
X153469190Y-83292904D01*
X153659666Y-83292904D01*
X153735857Y-83254809D01*
X153773952Y-83216714D01*
X153812047Y-83140523D01*
X153812047Y-83064333D01*
X153773952Y-82988142D01*
X153735857Y-82950047D01*
X153659666Y-82911952D01*
X153507285Y-82873857D01*
X153431095Y-82835761D01*
X153393000Y-82797666D01*
X153354904Y-82721476D01*
X153354904Y-82645285D01*
X153393000Y-82569095D01*
X153431095Y-82531000D01*
X153507285Y-82492904D01*
X153697761Y-82492904D01*
X153812047Y-82531000D01*
X154307285Y-82492904D02*
X154459666Y-82492904D01*
X154535857Y-82531000D01*
X154612047Y-82607190D01*
X154650142Y-82759571D01*
X154650142Y-83026238D01*
X154612047Y-83178619D01*
X154535857Y-83254809D01*
X154459666Y-83292904D01*
X154307285Y-83292904D01*
X154231095Y-83254809D01*
X154154904Y-83178619D01*
X154116809Y-83026238D01*
X154116809Y-82759571D01*
X154154904Y-82607190D01*
X154231095Y-82531000D01*
X154307285Y-82492904D01*
X154993000Y-83292904D02*
X154993000Y-82492904D01*
X155831095Y-83216714D02*
X155793000Y-83254809D01*
X155678714Y-83292904D01*
X155602523Y-83292904D01*
X155488238Y-83254809D01*
X155412047Y-83178619D01*
X155373952Y-83102428D01*
X155335857Y-82950047D01*
X155335857Y-82835761D01*
X155373952Y-82683380D01*
X155412047Y-82607190D01*
X155488238Y-82531000D01*
X155602523Y-82492904D01*
X155678714Y-82492904D01*
X155793000Y-82531000D01*
X155831095Y-82569095D01*
X156097761Y-83597666D02*
X156135857Y-83559571D01*
X156212047Y-83445285D01*
X156250142Y-83369095D01*
X156288238Y-83254809D01*
X156326333Y-83064333D01*
X156326333Y-82911952D01*
X156288238Y-82721476D01*
X156250142Y-82607190D01*
X156212047Y-82531000D01*
X156135857Y-82416714D01*
X156097761Y-82378619D01*
D10*
X178847333Y-44928666D02*
X178847333Y-44228666D01*
X179114000Y-44228666D01*
X179180666Y-44262000D01*
X179214000Y-44295333D01*
X179247333Y-44362000D01*
X179247333Y-44462000D01*
X179214000Y-44528666D01*
X179180666Y-44562000D01*
X179114000Y-44595333D01*
X178847333Y-44595333D01*
X179547333Y-44928666D02*
X179547333Y-44462000D01*
X179547333Y-44228666D02*
X179514000Y-44262000D01*
X179547333Y-44295333D01*
X179580666Y-44262000D01*
X179547333Y-44228666D01*
X179547333Y-44295333D01*
X180280666Y-44862000D02*
X180247333Y-44895333D01*
X180147333Y-44928666D01*
X180080666Y-44928666D01*
X179980666Y-44895333D01*
X179914000Y-44828666D01*
X179880666Y-44762000D01*
X179847333Y-44628666D01*
X179847333Y-44528666D01*
X179880666Y-44395333D01*
X179914000Y-44328666D01*
X179980666Y-44262000D01*
X180080666Y-44228666D01*
X180147333Y-44228666D01*
X180247333Y-44262000D01*
X180280666Y-44295333D01*
X180914000Y-44928666D02*
X180580666Y-44928666D01*
X180580666Y-44228666D01*
X181147333Y-44928666D02*
X181147333Y-44228666D01*
X181547333Y-44928666D02*
X181247333Y-44528666D01*
X181547333Y-44228666D02*
X181147333Y-44628666D01*
X182380666Y-44928666D02*
X182380666Y-44228666D01*
X182547333Y-44228666D01*
X182647333Y-44262000D01*
X182714000Y-44328666D01*
X182747333Y-44395333D01*
X182780666Y-44528666D01*
X182780666Y-44628666D01*
X182747333Y-44762000D01*
X182714000Y-44828666D01*
X182647333Y-44895333D01*
X182547333Y-44928666D01*
X182380666Y-44928666D01*
X183347333Y-44895333D02*
X183280666Y-44928666D01*
X183147333Y-44928666D01*
X183080666Y-44895333D01*
X183047333Y-44828666D01*
X183047333Y-44562000D01*
X183080666Y-44495333D01*
X183147333Y-44462000D01*
X183280666Y-44462000D01*
X183347333Y-44495333D01*
X183380666Y-44562000D01*
X183380666Y-44628666D01*
X183047333Y-44695333D01*
X183780666Y-44928666D02*
X183714000Y-44895333D01*
X183680666Y-44828666D01*
X183680666Y-44228666D01*
X184347333Y-44928666D02*
X184347333Y-44562000D01*
X184314000Y-44495333D01*
X184247333Y-44462000D01*
X184114000Y-44462000D01*
X184047333Y-44495333D01*
X184347333Y-44895333D02*
X184280666Y-44928666D01*
X184114000Y-44928666D01*
X184047333Y-44895333D01*
X184014000Y-44828666D01*
X184014000Y-44762000D01*
X184047333Y-44695333D01*
X184114000Y-44662000D01*
X184280666Y-44662000D01*
X184347333Y-44628666D01*
X184614000Y-44462000D02*
X184780666Y-44928666D01*
X184947333Y-44462000D02*
X184780666Y-44928666D01*
X184714000Y-45095333D01*
X184680666Y-45128666D01*
X184614000Y-45162000D01*
X179414000Y-46395333D02*
X179380666Y-46362000D01*
X179314000Y-46262000D01*
X179280666Y-46195333D01*
X179247333Y-46095333D01*
X179214000Y-45928666D01*
X179214000Y-45795333D01*
X179247333Y-45628666D01*
X179280666Y-45528666D01*
X179314000Y-45462000D01*
X179380666Y-45362000D01*
X179414000Y-45328666D01*
X179980666Y-45662000D02*
X179980666Y-46128666D01*
X179680666Y-45662000D02*
X179680666Y-46028666D01*
X179714000Y-46095333D01*
X179780666Y-46128666D01*
X179880666Y-46128666D01*
X179947333Y-46095333D01*
X179980666Y-46062000D01*
X180280666Y-46095333D02*
X180347333Y-46128666D01*
X180480666Y-46128666D01*
X180547333Y-46095333D01*
X180580666Y-46028666D01*
X180580666Y-45995333D01*
X180547333Y-45928666D01*
X180480666Y-45895333D01*
X180380666Y-45895333D01*
X180314000Y-45862000D01*
X180280666Y-45795333D01*
X180280666Y-45762000D01*
X180314000Y-45695333D01*
X180380666Y-45662000D01*
X180480666Y-45662000D01*
X180547333Y-45695333D01*
X180880666Y-46128666D02*
X180880666Y-45662000D01*
X180880666Y-45428666D02*
X180847333Y-45462000D01*
X180880666Y-45495333D01*
X180914000Y-45462000D01*
X180880666Y-45428666D01*
X180880666Y-45495333D01*
X181214000Y-45662000D02*
X181214000Y-46128666D01*
X181214000Y-45728666D02*
X181247333Y-45695333D01*
X181314000Y-45662000D01*
X181414000Y-45662000D01*
X181480666Y-45695333D01*
X181514000Y-45762000D01*
X181514000Y-46128666D01*
X182147333Y-45662000D02*
X182147333Y-46228666D01*
X182114000Y-46295333D01*
X182080666Y-46328666D01*
X182014000Y-46362000D01*
X181914000Y-46362000D01*
X181847333Y-46328666D01*
X182147333Y-46095333D02*
X182080666Y-46128666D01*
X181947333Y-46128666D01*
X181880666Y-46095333D01*
X181847333Y-46062000D01*
X181814000Y-45995333D01*
X181814000Y-45795333D01*
X181847333Y-45728666D01*
X181880666Y-45695333D01*
X181947333Y-45662000D01*
X182080666Y-45662000D01*
X182147333Y-45695333D01*
X183414000Y-46062000D02*
X183380666Y-46095333D01*
X183280666Y-46128666D01*
X183214000Y-46128666D01*
X183114000Y-46095333D01*
X183047333Y-46028666D01*
X183014000Y-45962000D01*
X182980666Y-45828666D01*
X182980666Y-45728666D01*
X183014000Y-45595333D01*
X183047333Y-45528666D01*
X183114000Y-45462000D01*
X183214000Y-45428666D01*
X183280666Y-45428666D01*
X183380666Y-45462000D01*
X183414000Y-45495333D01*
X184014000Y-45428666D02*
X183880666Y-45428666D01*
X183814000Y-45462000D01*
X183780666Y-45495333D01*
X183714000Y-45595333D01*
X183680666Y-45728666D01*
X183680666Y-45995333D01*
X183714000Y-46062000D01*
X183747333Y-46095333D01*
X183814000Y-46128666D01*
X183947333Y-46128666D01*
X184014000Y-46095333D01*
X184047333Y-46062000D01*
X184080666Y-45995333D01*
X184080666Y-45828666D01*
X184047333Y-45762000D01*
X184014000Y-45728666D01*
X183947333Y-45695333D01*
X183814000Y-45695333D01*
X183747333Y-45728666D01*
X183714000Y-45762000D01*
X183680666Y-45828666D01*
X184314000Y-46395333D02*
X184347333Y-46362000D01*
X184414000Y-46262000D01*
X184447333Y-46195333D01*
X184480666Y-46095333D01*
X184514000Y-45928666D01*
X184514000Y-45795333D01*
X184480666Y-45628666D01*
X184447333Y-45528666D01*
X184414000Y-45462000D01*
X184347333Y-45362000D01*
X184314000Y-45328666D01*
X194083000Y-70502428D02*
X193883000Y-70216714D01*
X193740142Y-70502428D02*
X193740142Y-69902428D01*
X193968714Y-69902428D01*
X194025857Y-69931000D01*
X194054428Y-69959571D01*
X194083000Y-70016714D01*
X194083000Y-70102428D01*
X194054428Y-70159571D01*
X194025857Y-70188142D01*
X193968714Y-70216714D01*
X193740142Y-70216714D01*
X194311571Y-69959571D02*
X194340142Y-69931000D01*
X194397285Y-69902428D01*
X194540142Y-69902428D01*
X194597285Y-69931000D01*
X194625857Y-69959571D01*
X194654428Y-70016714D01*
X194654428Y-70073857D01*
X194625857Y-70159571D01*
X194283000Y-70502428D01*
X194654428Y-70502428D01*
X204116000Y-60342428D02*
X203916000Y-60056714D01*
X203773142Y-60342428D02*
X203773142Y-59742428D01*
X204001714Y-59742428D01*
X204058857Y-59771000D01*
X204087428Y-59799571D01*
X204116000Y-59856714D01*
X204116000Y-59942428D01*
X204087428Y-59999571D01*
X204058857Y-60028142D01*
X204001714Y-60056714D01*
X203773142Y-60056714D01*
X204687428Y-60342428D02*
X204344571Y-60342428D01*
X204516000Y-60342428D02*
X204516000Y-59742428D01*
X204458857Y-59828142D01*
X204401714Y-59885285D01*
X204344571Y-59913857D01*
X204214428Y-69931000D02*
X204157285Y-69902428D01*
X204071571Y-69902428D01*
X203985857Y-69931000D01*
X203928714Y-69988142D01*
X203900142Y-70045285D01*
X203871571Y-70159571D01*
X203871571Y-70245285D01*
X203900142Y-70359571D01*
X203928714Y-70416714D01*
X203985857Y-70473857D01*
X204071571Y-70502428D01*
X204128714Y-70502428D01*
X204214428Y-70473857D01*
X204243000Y-70445285D01*
X204243000Y-70245285D01*
X204128714Y-70245285D01*
X204614428Y-69902428D02*
X204671571Y-69902428D01*
X204728714Y-69931000D01*
X204757285Y-69959571D01*
X204785857Y-70016714D01*
X204814428Y-70131000D01*
X204814428Y-70273857D01*
X204785857Y-70388142D01*
X204757285Y-70445285D01*
X204728714Y-70473857D01*
X204671571Y-70502428D01*
X204614428Y-70502428D01*
X204557285Y-70473857D01*
X204528714Y-70445285D01*
X204500142Y-70388142D01*
X204471571Y-70273857D01*
X204471571Y-70131000D01*
X204500142Y-70016714D01*
X204528714Y-69959571D01*
X204557285Y-69931000D01*
X204614428Y-69902428D01*
X203973142Y-67648142D02*
X204058857Y-67676714D01*
X204087428Y-67705285D01*
X204116000Y-67762428D01*
X204116000Y-67848142D01*
X204087428Y-67905285D01*
X204058857Y-67933857D01*
X204001714Y-67962428D01*
X203773142Y-67962428D01*
X203773142Y-67362428D01*
X203973142Y-67362428D01*
X204030285Y-67391000D01*
X204058857Y-67419571D01*
X204087428Y-67476714D01*
X204087428Y-67533857D01*
X204058857Y-67591000D01*
X204030285Y-67619571D01*
X203973142Y-67648142D01*
X203773142Y-67648142D01*
X204316000Y-67362428D02*
X204687428Y-67362428D01*
X204487428Y-67591000D01*
X204573142Y-67591000D01*
X204630285Y-67619571D01*
X204658857Y-67648142D01*
X204687428Y-67705285D01*
X204687428Y-67848142D01*
X204658857Y-67905285D01*
X204630285Y-67933857D01*
X204573142Y-67962428D01*
X204401714Y-67962428D01*
X204344571Y-67933857D01*
X204316000Y-67905285D01*
X194054428Y-62311000D02*
X193997285Y-62282428D01*
X193911571Y-62282428D01*
X193825857Y-62311000D01*
X193768714Y-62368142D01*
X193740142Y-62425285D01*
X193711571Y-62539571D01*
X193711571Y-62625285D01*
X193740142Y-62739571D01*
X193768714Y-62796714D01*
X193825857Y-62853857D01*
X193911571Y-62882428D01*
X193968714Y-62882428D01*
X194054428Y-62853857D01*
X194083000Y-62825285D01*
X194083000Y-62625285D01*
X193968714Y-62625285D01*
X194654428Y-62882428D02*
X194311571Y-62882428D01*
X194483000Y-62882428D02*
X194483000Y-62282428D01*
X194425857Y-62368142D01*
X194368714Y-62425285D01*
X194311571Y-62453857D01*
X194054428Y-59771000D02*
X193997285Y-59742428D01*
X193911571Y-59742428D01*
X193825857Y-59771000D01*
X193768714Y-59828142D01*
X193740142Y-59885285D01*
X193711571Y-59999571D01*
X193711571Y-60085285D01*
X193740142Y-60199571D01*
X193768714Y-60256714D01*
X193825857Y-60313857D01*
X193911571Y-60342428D01*
X193968714Y-60342428D01*
X194054428Y-60313857D01*
X194083000Y-60285285D01*
X194083000Y-60085285D01*
X193968714Y-60085285D01*
X194311571Y-59799571D02*
X194340142Y-59771000D01*
X194397285Y-59742428D01*
X194540142Y-59742428D01*
X194597285Y-59771000D01*
X194625857Y-59799571D01*
X194654428Y-59856714D01*
X194654428Y-59913857D01*
X194625857Y-59999571D01*
X194283000Y-60342428D01*
X194654428Y-60342428D01*
X204087428Y-57231000D02*
X204030285Y-57202428D01*
X203944571Y-57202428D01*
X203858857Y-57231000D01*
X203801714Y-57288142D01*
X203773142Y-57345285D01*
X203744571Y-57459571D01*
X203744571Y-57545285D01*
X203773142Y-57659571D01*
X203801714Y-57716714D01*
X203858857Y-57773857D01*
X203944571Y-57802428D01*
X204001714Y-57802428D01*
X204087428Y-57773857D01*
X204116000Y-57745285D01*
X204116000Y-57545285D01*
X204001714Y-57545285D01*
X204316000Y-57202428D02*
X204687428Y-57202428D01*
X204487428Y-57431000D01*
X204573142Y-57431000D01*
X204630285Y-57459571D01*
X204658857Y-57488142D01*
X204687428Y-57545285D01*
X204687428Y-57688142D01*
X204658857Y-57745285D01*
X204630285Y-57773857D01*
X204573142Y-57802428D01*
X204401714Y-57802428D01*
X204344571Y-57773857D01*
X204316000Y-57745285D01*
X204116000Y-55262428D02*
X203916000Y-54976714D01*
X203773142Y-55262428D02*
X203773142Y-54662428D01*
X204001714Y-54662428D01*
X204058857Y-54691000D01*
X204087428Y-54719571D01*
X204116000Y-54776714D01*
X204116000Y-54862428D01*
X204087428Y-54919571D01*
X204058857Y-54948142D01*
X204001714Y-54976714D01*
X203773142Y-54976714D01*
X204487428Y-54662428D02*
X204544571Y-54662428D01*
X204601714Y-54691000D01*
X204630285Y-54719571D01*
X204658857Y-54776714D01*
X204687428Y-54891000D01*
X204687428Y-55033857D01*
X204658857Y-55148142D01*
X204630285Y-55205285D01*
X204601714Y-55233857D01*
X204544571Y-55262428D01*
X204487428Y-55262428D01*
X204430285Y-55233857D01*
X204401714Y-55205285D01*
X204373142Y-55148142D01*
X204344571Y-55033857D01*
X204344571Y-54891000D01*
X204373142Y-54776714D01*
X204401714Y-54719571D01*
X204430285Y-54691000D01*
X204487428Y-54662428D01*
X203973142Y-34628142D02*
X204058857Y-34656714D01*
X204087428Y-34685285D01*
X204116000Y-34742428D01*
X204116000Y-34828142D01*
X204087428Y-34885285D01*
X204058857Y-34913857D01*
X204001714Y-34942428D01*
X203773142Y-34942428D01*
X203773142Y-34342428D01*
X203973142Y-34342428D01*
X204030285Y-34371000D01*
X204058857Y-34399571D01*
X204087428Y-34456714D01*
X204087428Y-34513857D01*
X204058857Y-34571000D01*
X204030285Y-34599571D01*
X203973142Y-34628142D01*
X203773142Y-34628142D01*
X204487428Y-34342428D02*
X204544571Y-34342428D01*
X204601714Y-34371000D01*
X204630285Y-34399571D01*
X204658857Y-34456714D01*
X204687428Y-34571000D01*
X204687428Y-34713857D01*
X204658857Y-34828142D01*
X204630285Y-34885285D01*
X204601714Y-34913857D01*
X204544571Y-34942428D01*
X204487428Y-34942428D01*
X204430285Y-34913857D01*
X204401714Y-34885285D01*
X204373142Y-34828142D01*
X204344571Y-34713857D01*
X204344571Y-34571000D01*
X204373142Y-34456714D01*
X204401714Y-34399571D01*
X204430285Y-34371000D01*
X204487428Y-34342428D01*
X203973142Y-37168142D02*
X204058857Y-37196714D01*
X204087428Y-37225285D01*
X204116000Y-37282428D01*
X204116000Y-37368142D01*
X204087428Y-37425285D01*
X204058857Y-37453857D01*
X204001714Y-37482428D01*
X203773142Y-37482428D01*
X203773142Y-36882428D01*
X203973142Y-36882428D01*
X204030285Y-36911000D01*
X204058857Y-36939571D01*
X204087428Y-36996714D01*
X204087428Y-37053857D01*
X204058857Y-37111000D01*
X204030285Y-37139571D01*
X203973142Y-37168142D01*
X203773142Y-37168142D01*
X204687428Y-37482428D02*
X204344571Y-37482428D01*
X204516000Y-37482428D02*
X204516000Y-36882428D01*
X204458857Y-36968142D01*
X204401714Y-37025285D01*
X204344571Y-37053857D01*
X203973142Y-39708142D02*
X204058857Y-39736714D01*
X204087428Y-39765285D01*
X204116000Y-39822428D01*
X204116000Y-39908142D01*
X204087428Y-39965285D01*
X204058857Y-39993857D01*
X204001714Y-40022428D01*
X203773142Y-40022428D01*
X203773142Y-39422428D01*
X203973142Y-39422428D01*
X204030285Y-39451000D01*
X204058857Y-39479571D01*
X204087428Y-39536714D01*
X204087428Y-39593857D01*
X204058857Y-39651000D01*
X204030285Y-39679571D01*
X203973142Y-39708142D01*
X203773142Y-39708142D01*
X204344571Y-39479571D02*
X204373142Y-39451000D01*
X204430285Y-39422428D01*
X204573142Y-39422428D01*
X204630285Y-39451000D01*
X204658857Y-39479571D01*
X204687428Y-39536714D01*
X204687428Y-39593857D01*
X204658857Y-39679571D01*
X204316000Y-40022428D01*
X204687428Y-40022428D01*
X202692142Y-46499428D02*
X202692142Y-45899428D01*
X202920714Y-45899428D01*
X202977857Y-45928000D01*
X203006428Y-45956571D01*
X203035000Y-46013714D01*
X203035000Y-46099428D01*
X203006428Y-46156571D01*
X202977857Y-46185142D01*
X202920714Y-46213714D01*
X202692142Y-46213714D01*
X203292142Y-46499428D02*
X203292142Y-46099428D01*
X203292142Y-45899428D02*
X203263571Y-45928000D01*
X203292142Y-45956571D01*
X203320714Y-45928000D01*
X203292142Y-45899428D01*
X203292142Y-45956571D01*
X203920714Y-46442285D02*
X203892142Y-46470857D01*
X203806428Y-46499428D01*
X203749285Y-46499428D01*
X203663571Y-46470857D01*
X203606428Y-46413714D01*
X203577857Y-46356571D01*
X203549285Y-46242285D01*
X203549285Y-46156571D01*
X203577857Y-46042285D01*
X203606428Y-45985142D01*
X203663571Y-45928000D01*
X203749285Y-45899428D01*
X203806428Y-45899428D01*
X203892142Y-45928000D01*
X203920714Y-45956571D01*
X204463571Y-46499428D02*
X204177857Y-46499428D01*
X204177857Y-45899428D01*
X204663571Y-46499428D02*
X204663571Y-45899428D01*
X205006428Y-46499428D02*
X204749285Y-46156571D01*
X205006428Y-45899428D02*
X204663571Y-46242285D01*
X192610000Y-51497666D02*
X192610000Y-50797666D01*
X192876666Y-50797666D01*
X192943333Y-50831000D01*
X192976666Y-50864333D01*
X193010000Y-50931000D01*
X193010000Y-51031000D01*
X192976666Y-51097666D01*
X192943333Y-51131000D01*
X192876666Y-51164333D01*
X192610000Y-51164333D01*
X193310000Y-51497666D02*
X193310000Y-51031000D01*
X193310000Y-50797666D02*
X193276666Y-50831000D01*
X193310000Y-50864333D01*
X193343333Y-50831000D01*
X193310000Y-50797666D01*
X193310000Y-50864333D01*
X193610000Y-51464333D02*
X193710000Y-51497666D01*
X193876666Y-51497666D01*
X193943333Y-51464333D01*
X193976666Y-51431000D01*
X194010000Y-51364333D01*
X194010000Y-51297666D01*
X193976666Y-51231000D01*
X193943333Y-51197666D01*
X193876666Y-51164333D01*
X193743333Y-51131000D01*
X193676666Y-51097666D01*
X193643333Y-51064333D01*
X193610000Y-50997666D01*
X193610000Y-50931000D01*
X193643333Y-50864333D01*
X193676666Y-50831000D01*
X193743333Y-50797666D01*
X193910000Y-50797666D01*
X194010000Y-50831000D01*
X194443333Y-51164333D02*
X194443333Y-51497666D01*
X194210000Y-50797666D02*
X194443333Y-51164333D01*
X194676666Y-50797666D01*
X194910000Y-51497666D02*
X194910000Y-50797666D01*
X195310000Y-51497666D01*
X195310000Y-50797666D01*
X196043333Y-51431000D02*
X196010000Y-51464333D01*
X195910000Y-51497666D01*
X195843333Y-51497666D01*
X195743333Y-51464333D01*
X195676666Y-51397666D01*
X195643333Y-51331000D01*
X195610000Y-51197666D01*
X195610000Y-51097666D01*
X195643333Y-50964333D01*
X195676666Y-50897666D01*
X195743333Y-50831000D01*
X195843333Y-50797666D01*
X195910000Y-50797666D01*
X196010000Y-50831000D01*
X196043333Y-50864333D01*
X204089000Y-62611000D02*
X203581000Y-62611000D01*
X204089000Y-63119000D02*
X204089000Y-62611000D01*
D12*
X203263571Y-63506000D02*
X203192142Y-63470285D01*
X203085000Y-63470285D01*
X202977857Y-63506000D01*
X202906428Y-63577428D01*
X202870714Y-63648857D01*
X202835000Y-63791714D01*
X202835000Y-63898857D01*
X202870714Y-64041714D01*
X202906428Y-64113142D01*
X202977857Y-64184571D01*
X203085000Y-64220285D01*
X203156428Y-64220285D01*
X203263571Y-64184571D01*
X203299285Y-64148857D01*
X203299285Y-63898857D01*
X203156428Y-63898857D01*
X203620714Y-64220285D02*
X203620714Y-63470285D01*
X204049285Y-64220285D01*
X204049285Y-63470285D01*
X204406428Y-64220285D02*
X204406428Y-63470285D01*
X204585000Y-63470285D01*
X204692142Y-63506000D01*
X204763571Y-63577428D01*
X204799285Y-63648857D01*
X204835000Y-63791714D01*
X204835000Y-63898857D01*
X204799285Y-64041714D01*
X204763571Y-64113142D01*
X204692142Y-64184571D01*
X204585000Y-64220285D01*
X204406428Y-64220285D01*
D10*
X194183000Y-50419000D02*
X194183000Y-49911000D01*
X194945000Y-49911000D02*
X194183000Y-49911000D01*
D12*
X192722571Y-48393000D02*
X192651142Y-48357285D01*
X192544000Y-48357285D01*
X192436857Y-48393000D01*
X192365428Y-48464428D01*
X192329714Y-48535857D01*
X192294000Y-48678714D01*
X192294000Y-48785857D01*
X192329714Y-48928714D01*
X192365428Y-49000142D01*
X192436857Y-49071571D01*
X192544000Y-49107285D01*
X192615428Y-49107285D01*
X192722571Y-49071571D01*
X192758285Y-49035857D01*
X192758285Y-48785857D01*
X192615428Y-48785857D01*
X193079714Y-49107285D02*
X193079714Y-48357285D01*
X193508285Y-49107285D01*
X193508285Y-48357285D01*
X193865428Y-49107285D02*
X193865428Y-48357285D01*
X194044000Y-48357285D01*
X194151142Y-48393000D01*
X194222571Y-48464428D01*
X194258285Y-48535857D01*
X194294000Y-48678714D01*
X194294000Y-48785857D01*
X194258285Y-48928714D01*
X194222571Y-49000142D01*
X194151142Y-49071571D01*
X194044000Y-49107285D01*
X193865428Y-49107285D01*
X192849571Y-53346000D02*
X192778142Y-53310285D01*
X192671000Y-53310285D01*
X192563857Y-53346000D01*
X192492428Y-53417428D01*
X192456714Y-53488857D01*
X192421000Y-53631714D01*
X192421000Y-53738857D01*
X192456714Y-53881714D01*
X192492428Y-53953142D01*
X192563857Y-54024571D01*
X192671000Y-54060285D01*
X192742428Y-54060285D01*
X192849571Y-54024571D01*
X192885285Y-53988857D01*
X192885285Y-53738857D01*
X192742428Y-53738857D01*
X193206714Y-54060285D02*
X193206714Y-53310285D01*
X193635285Y-54060285D01*
X193635285Y-53310285D01*
X193992428Y-54060285D02*
X193992428Y-53310285D01*
X194171000Y-53310285D01*
X194278142Y-53346000D01*
X194349571Y-53417428D01*
X194385285Y-53488857D01*
X194421000Y-53631714D01*
X194421000Y-53738857D01*
X194385285Y-53881714D01*
X194349571Y-53953142D01*
X194278142Y-54024571D01*
X194171000Y-54060285D01*
X193992428Y-54060285D01*
D10*
X204343000Y-42799000D02*
X204343000Y-42291000D01*
X204343000Y-42291000D02*
X203581000Y-42291000D01*
D12*
X194373571Y-38106000D02*
X194302142Y-38070285D01*
X194195000Y-38070285D01*
X194087857Y-38106000D01*
X194016428Y-38177428D01*
X193980714Y-38248857D01*
X193945000Y-38391714D01*
X193945000Y-38498857D01*
X193980714Y-38641714D01*
X194016428Y-38713142D01*
X194087857Y-38784571D01*
X194195000Y-38820285D01*
X194266428Y-38820285D01*
X194373571Y-38784571D01*
X194409285Y-38748857D01*
X194409285Y-38498857D01*
X194266428Y-38498857D01*
X194730714Y-38820285D02*
X194730714Y-38070285D01*
X195159285Y-38820285D01*
X195159285Y-38070285D01*
X195516428Y-38820285D02*
X195516428Y-38070285D01*
X195695000Y-38070285D01*
X195802142Y-38106000D01*
X195873571Y-38177428D01*
X195909285Y-38248857D01*
X195945000Y-38391714D01*
X195945000Y-38498857D01*
X195909285Y-38641714D01*
X195873571Y-38713142D01*
X195802142Y-38784571D01*
X195695000Y-38820285D01*
X195516428Y-38820285D01*
X203009571Y-43186000D02*
X202938142Y-43150285D01*
X202831000Y-43150285D01*
X202723857Y-43186000D01*
X202652428Y-43257428D01*
X202616714Y-43328857D01*
X202581000Y-43471714D01*
X202581000Y-43578857D01*
X202616714Y-43721714D01*
X202652428Y-43793142D01*
X202723857Y-43864571D01*
X202831000Y-43900285D01*
X202902428Y-43900285D01*
X203009571Y-43864571D01*
X203045285Y-43828857D01*
X203045285Y-43578857D01*
X202902428Y-43578857D01*
X203366714Y-43900285D02*
X203366714Y-43150285D01*
X203795285Y-43900285D01*
X203795285Y-43150285D01*
X204152428Y-43900285D02*
X204152428Y-43150285D01*
X204331000Y-43150285D01*
X204438142Y-43186000D01*
X204509571Y-43257428D01*
X204545285Y-43328857D01*
X204581000Y-43471714D01*
X204581000Y-43578857D01*
X204545285Y-43721714D01*
X204509571Y-43793142D01*
X204438142Y-43864571D01*
X204331000Y-43900285D01*
X204152428Y-43900285D01*
D10*
X204343000Y-52451000D02*
X204343000Y-51943000D01*
X204343000Y-52451000D02*
X203708000Y-52451000D01*
D12*
X202640571Y-51234571D02*
X203212000Y-51234571D01*
X202926285Y-51520285D02*
X202926285Y-50948857D01*
X203497714Y-50770285D02*
X203962000Y-50770285D01*
X203712000Y-51056000D01*
X203819142Y-51056000D01*
X203890571Y-51091714D01*
X203926285Y-51127428D01*
X203962000Y-51198857D01*
X203962000Y-51377428D01*
X203926285Y-51448857D01*
X203890571Y-51484571D01*
X203819142Y-51520285D01*
X203604857Y-51520285D01*
X203533428Y-51484571D01*
X203497714Y-51448857D01*
X204176285Y-50770285D02*
X204426285Y-51520285D01*
X204676285Y-50770285D01*
X204854857Y-50770285D02*
X205319142Y-50770285D01*
X205069142Y-51056000D01*
X205176285Y-51056000D01*
X205247714Y-51091714D01*
X205283428Y-51127428D01*
X205319142Y-51198857D01*
X205319142Y-51377428D01*
X205283428Y-51448857D01*
X205247714Y-51484571D01*
X205176285Y-51520285D01*
X204962000Y-51520285D01*
X204890571Y-51484571D01*
X204854857Y-51448857D01*
X203910571Y-31168571D02*
X204482000Y-31168571D01*
X204196285Y-31454285D02*
X204196285Y-30882857D01*
X204767714Y-30704285D02*
X205232000Y-30704285D01*
X204982000Y-30990000D01*
X205089142Y-30990000D01*
X205160571Y-31025714D01*
X205196285Y-31061428D01*
X205232000Y-31132857D01*
X205232000Y-31311428D01*
X205196285Y-31382857D01*
X205160571Y-31418571D01*
X205089142Y-31454285D01*
X204874857Y-31454285D01*
X204803428Y-31418571D01*
X204767714Y-31382857D01*
X205446285Y-30704285D02*
X205696285Y-31454285D01*
X205946285Y-30704285D01*
X206124857Y-30704285D02*
X206589142Y-30704285D01*
X206339142Y-30990000D01*
X206446285Y-30990000D01*
X206517714Y-31025714D01*
X206553428Y-31061428D01*
X206589142Y-31132857D01*
X206589142Y-31311428D01*
X206553428Y-31382857D01*
X206517714Y-31418571D01*
X206446285Y-31454285D01*
X206232000Y-31454285D01*
X206160571Y-31418571D01*
X206124857Y-31382857D01*
X193853714Y-33454571D02*
X194425142Y-33454571D01*
X194139428Y-33740285D02*
X194139428Y-33168857D01*
X195139428Y-32990285D02*
X194782285Y-32990285D01*
X194746571Y-33347428D01*
X194782285Y-33311714D01*
X194853714Y-33276000D01*
X195032285Y-33276000D01*
X195103714Y-33311714D01*
X195139428Y-33347428D01*
X195175142Y-33418857D01*
X195175142Y-33597428D01*
X195139428Y-33668857D01*
X195103714Y-33704571D01*
X195032285Y-33740285D01*
X194853714Y-33740285D01*
X194782285Y-33704571D01*
X194746571Y-33668857D01*
X195389428Y-32990285D02*
X195639428Y-33740285D01*
X195889428Y-32990285D01*
X165846333Y-84836047D02*
X165846333Y-84931285D01*
X165941571Y-85121761D01*
X166132047Y-85217000D01*
X167084428Y-85217000D01*
X167274904Y-85312238D01*
X167370142Y-85502714D01*
X167465380Y-85312238D01*
X167655857Y-85217000D01*
X168608238Y-85217000D01*
X168798714Y-85121761D01*
X168893952Y-84931285D01*
X168893952Y-84836047D01*
X169529333Y-84836047D02*
X169529333Y-84931285D01*
X169624571Y-85121761D01*
X169815047Y-85217000D01*
X170767428Y-85217000D01*
X170957904Y-85312238D01*
X171053142Y-85502714D01*
X171148380Y-85312238D01*
X171338857Y-85217000D01*
X172291238Y-85217000D01*
X172481714Y-85121761D01*
X172576952Y-84931285D01*
X172576952Y-84836047D01*
X174919000Y-84772571D02*
X174919000Y-84915428D01*
X175061857Y-85201142D01*
X175347571Y-85344000D01*
X176776142Y-85344000D01*
X177061857Y-85486857D01*
X177204714Y-85772571D01*
X177347571Y-85486857D01*
X177633285Y-85344000D01*
X179061857Y-85344000D01*
X179347571Y-85201142D01*
X179490428Y-84915428D01*
X179490428Y-84772571D01*
X170708464Y-86096285D02*
X171458464Y-86096285D01*
X171458464Y-86274857D01*
X171422750Y-86382000D01*
X171351321Y-86453428D01*
X171279892Y-86489142D01*
X171137035Y-86524857D01*
X171029892Y-86524857D01*
X170887035Y-86489142D01*
X170815607Y-86453428D01*
X170744178Y-86382000D01*
X170708464Y-86274857D01*
X170708464Y-86096285D01*
X170744178Y-87132000D02*
X170708464Y-87060571D01*
X170708464Y-86917714D01*
X170744178Y-86846285D01*
X170815607Y-86810571D01*
X171101321Y-86810571D01*
X171172750Y-86846285D01*
X171208464Y-86917714D01*
X171208464Y-87060571D01*
X171172750Y-87132000D01*
X171101321Y-87167714D01*
X171029892Y-87167714D01*
X170958464Y-86810571D01*
X171208464Y-87489142D02*
X170708464Y-87489142D01*
X171137035Y-87489142D02*
X171172750Y-87524857D01*
X171208464Y-87596285D01*
X171208464Y-87703428D01*
X171172750Y-87774857D01*
X171101321Y-87810571D01*
X170708464Y-87810571D01*
X170708464Y-88167714D02*
X171208464Y-88167714D01*
X171458464Y-88167714D02*
X171422750Y-88132000D01*
X171387035Y-88167714D01*
X171422750Y-88203428D01*
X171458464Y-88167714D01*
X171387035Y-88167714D01*
X170744178Y-88489142D02*
X170708464Y-88560571D01*
X170708464Y-88703428D01*
X170744178Y-88774857D01*
X170815607Y-88810571D01*
X170851321Y-88810571D01*
X170922750Y-88774857D01*
X170958464Y-88703428D01*
X170958464Y-88596285D01*
X170994178Y-88524857D01*
X171065607Y-88489142D01*
X171101321Y-88489142D01*
X171172750Y-88524857D01*
X171208464Y-88596285D01*
X171208464Y-88703428D01*
X171172750Y-88774857D01*
X170744178Y-89417714D02*
X170708464Y-89346285D01*
X170708464Y-89203428D01*
X170744178Y-89132000D01*
X170815607Y-89096285D01*
X171101321Y-89096285D01*
X171172750Y-89132000D01*
X171208464Y-89203428D01*
X171208464Y-89346285D01*
X171172750Y-89417714D01*
X171101321Y-89453428D01*
X171029892Y-89453428D01*
X170958464Y-89096285D01*
X167611678Y-86310571D02*
X167575964Y-86417714D01*
X167575964Y-86596285D01*
X167611678Y-86667714D01*
X167647392Y-86703428D01*
X167718821Y-86739142D01*
X167790250Y-86739142D01*
X167861678Y-86703428D01*
X167897392Y-86667714D01*
X167933107Y-86596285D01*
X167968821Y-86453428D01*
X168004535Y-86382000D01*
X168040250Y-86346285D01*
X168111678Y-86310571D01*
X168183107Y-86310571D01*
X168254535Y-86346285D01*
X168290250Y-86382000D01*
X168325964Y-86453428D01*
X168325964Y-86632000D01*
X168290250Y-86739142D01*
X168075964Y-87382000D02*
X167575964Y-87382000D01*
X168075964Y-87060571D02*
X167683107Y-87060571D01*
X167611678Y-87096285D01*
X167575964Y-87167714D01*
X167575964Y-87274857D01*
X167611678Y-87346285D01*
X167647392Y-87382000D01*
X168075964Y-87739142D02*
X167325964Y-87739142D01*
X168040250Y-87739142D02*
X168075964Y-87810571D01*
X168075964Y-87953428D01*
X168040250Y-88024857D01*
X168004535Y-88060571D01*
X167933107Y-88096285D01*
X167718821Y-88096285D01*
X167647392Y-88060571D01*
X167611678Y-88024857D01*
X167575964Y-87953428D01*
X167575964Y-87810571D01*
X167611678Y-87739142D01*
X167611678Y-88703428D02*
X167575964Y-88632000D01*
X167575964Y-88489142D01*
X167611678Y-88417714D01*
X167683107Y-88382000D01*
X167968821Y-88382000D01*
X168040250Y-88417714D01*
X168075964Y-88489142D01*
X168075964Y-88632000D01*
X168040250Y-88703428D01*
X167968821Y-88739142D01*
X167897392Y-88739142D01*
X167825964Y-88382000D01*
X167575964Y-89060571D02*
X168075964Y-89060571D01*
X167933107Y-89060571D02*
X168004535Y-89096285D01*
X168040250Y-89132000D01*
X168075964Y-89203428D01*
X168075964Y-89274857D01*
X166263464Y-86096285D02*
X167013464Y-86096285D01*
X167013464Y-86274857D01*
X166977750Y-86382000D01*
X166906321Y-86453428D01*
X166834892Y-86489142D01*
X166692035Y-86524857D01*
X166584892Y-86524857D01*
X166442035Y-86489142D01*
X166370607Y-86453428D01*
X166299178Y-86382000D01*
X166263464Y-86274857D01*
X166263464Y-86096285D01*
X166299178Y-87132000D02*
X166263464Y-87060571D01*
X166263464Y-86917714D01*
X166299178Y-86846285D01*
X166370607Y-86810571D01*
X166656321Y-86810571D01*
X166727750Y-86846285D01*
X166763464Y-86917714D01*
X166763464Y-87060571D01*
X166727750Y-87132000D01*
X166656321Y-87167714D01*
X166584892Y-87167714D01*
X166513464Y-86810571D01*
X166763464Y-87489142D02*
X166263464Y-87489142D01*
X166692035Y-87489142D02*
X166727750Y-87524857D01*
X166763464Y-87596285D01*
X166763464Y-87703428D01*
X166727750Y-87774857D01*
X166656321Y-87810571D01*
X166263464Y-87810571D01*
X166263464Y-88167714D02*
X166763464Y-88167714D01*
X167013464Y-88167714D02*
X166977750Y-88132000D01*
X166942035Y-88167714D01*
X166977750Y-88203428D01*
X167013464Y-88167714D01*
X166942035Y-88167714D01*
X166299178Y-88489142D02*
X166263464Y-88560571D01*
X166263464Y-88703428D01*
X166299178Y-88774857D01*
X166370607Y-88810571D01*
X166406321Y-88810571D01*
X166477750Y-88774857D01*
X166513464Y-88703428D01*
X166513464Y-88596285D01*
X166549178Y-88524857D01*
X166620607Y-88489142D01*
X166656321Y-88489142D01*
X166727750Y-88524857D01*
X166763464Y-88596285D01*
X166763464Y-88703428D01*
X166727750Y-88774857D01*
X166299178Y-89417714D02*
X166263464Y-89346285D01*
X166263464Y-89203428D01*
X166299178Y-89132000D01*
X166370607Y-89096285D01*
X166656321Y-89096285D01*
X166727750Y-89132000D01*
X166763464Y-89203428D01*
X166763464Y-89346285D01*
X166727750Y-89417714D01*
X166656321Y-89453428D01*
X166584892Y-89453428D01*
X166513464Y-89096285D01*
X177345571Y-86491142D02*
X177309857Y-86598285D01*
X177274142Y-86634000D01*
X177202714Y-86669714D01*
X177095571Y-86669714D01*
X177024142Y-86634000D01*
X176988428Y-86598285D01*
X176952714Y-86526857D01*
X176952714Y-86241142D01*
X177702714Y-86241142D01*
X177702714Y-86491142D01*
X177667000Y-86562571D01*
X177631285Y-86598285D01*
X177559857Y-86634000D01*
X177488428Y-86634000D01*
X177417000Y-86598285D01*
X177381285Y-86562571D01*
X177345571Y-86491142D01*
X177345571Y-86241142D01*
X177452714Y-87312571D02*
X176952714Y-87312571D01*
X177452714Y-86991142D02*
X177059857Y-86991142D01*
X176988428Y-87026857D01*
X176952714Y-87098285D01*
X176952714Y-87205428D01*
X176988428Y-87276857D01*
X177024142Y-87312571D01*
X177452714Y-87562571D02*
X177452714Y-87848285D01*
X177702714Y-87669714D02*
X177059857Y-87669714D01*
X176988428Y-87705428D01*
X176952714Y-87776857D01*
X176952714Y-87848285D01*
X177452714Y-87991142D02*
X177452714Y-88276857D01*
X177702714Y-88098285D02*
X177059857Y-88098285D01*
X176988428Y-88134000D01*
X176952714Y-88205428D01*
X176952714Y-88276857D01*
X176952714Y-88634000D02*
X176988428Y-88562571D01*
X177024142Y-88526857D01*
X177095571Y-88491142D01*
X177309857Y-88491142D01*
X177381285Y-88526857D01*
X177417000Y-88562571D01*
X177452714Y-88634000D01*
X177452714Y-88741142D01*
X177417000Y-88812571D01*
X177381285Y-88848285D01*
X177309857Y-88884000D01*
X177095571Y-88884000D01*
X177024142Y-88848285D01*
X176988428Y-88812571D01*
X176952714Y-88741142D01*
X176952714Y-88634000D01*
X177452714Y-89205428D02*
X176952714Y-89205428D01*
X177381285Y-89205428D02*
X177417000Y-89241142D01*
X177452714Y-89312571D01*
X177452714Y-89419714D01*
X177417000Y-89491142D01*
X177345571Y-89526857D01*
X176952714Y-89526857D01*
D13*
X216858940Y-80426714D02*
X217239892Y-80426714D01*
X217477988Y-80283857D02*
X217858940Y-80426714D01*
X217477988Y-80569571D01*
X218739892Y-80141000D02*
X218692273Y-80117190D01*
X218620845Y-80117190D01*
X218549416Y-80141000D01*
X218501797Y-80188619D01*
X218477988Y-80236238D01*
X218454178Y-80331476D01*
X218454178Y-80402904D01*
X218477988Y-80498142D01*
X218501797Y-80545761D01*
X218549416Y-80593380D01*
X218620845Y-80617190D01*
X218668464Y-80617190D01*
X218739892Y-80593380D01*
X218763702Y-80569571D01*
X218763702Y-80402904D01*
X218668464Y-80402904D01*
X218977988Y-80617190D02*
X218977988Y-80117190D01*
X219263702Y-80617190D01*
X219263702Y-80117190D01*
X219501797Y-80617190D02*
X219501797Y-80117190D01*
X219620845Y-80117190D01*
X219692273Y-80141000D01*
X219739892Y-80188619D01*
X219763702Y-80236238D01*
X219787511Y-80331476D01*
X219787511Y-80402904D01*
X219763702Y-80498142D01*
X219739892Y-80545761D01*
X219692273Y-80593380D01*
X219620845Y-80617190D01*
X219501797Y-80617190D01*
X216858940Y-77886714D02*
X217239892Y-77886714D01*
X217477988Y-77743857D02*
X217858940Y-77886714D01*
X217477988Y-78029571D01*
X218477988Y-77886714D02*
X218858940Y-77886714D01*
X218668464Y-78077190D02*
X218668464Y-77696238D01*
X219335130Y-77577190D02*
X219097035Y-77577190D01*
X219073226Y-77815285D01*
X219097035Y-77791476D01*
X219144654Y-77767666D01*
X219263702Y-77767666D01*
X219311321Y-77791476D01*
X219335130Y-77815285D01*
X219358940Y-77862904D01*
X219358940Y-77981952D01*
X219335130Y-78029571D01*
X219311321Y-78053380D01*
X219263702Y-78077190D01*
X219144654Y-78077190D01*
X219097035Y-78053380D01*
X219073226Y-78029571D01*
X219501797Y-77577190D02*
X219668464Y-78077190D01*
X219835130Y-77577190D01*
X208325892Y-80141000D02*
X208278273Y-80117190D01*
X208206845Y-80117190D01*
X208135416Y-80141000D01*
X208087797Y-80188619D01*
X208063988Y-80236238D01*
X208040178Y-80331476D01*
X208040178Y-80402904D01*
X208063988Y-80498142D01*
X208087797Y-80545761D01*
X208135416Y-80593380D01*
X208206845Y-80617190D01*
X208254464Y-80617190D01*
X208325892Y-80593380D01*
X208349702Y-80569571D01*
X208349702Y-80402904D01*
X208254464Y-80402904D01*
X208563988Y-80617190D02*
X208563988Y-80117190D01*
X208849702Y-80617190D01*
X208849702Y-80117190D01*
X209087797Y-80617190D02*
X209087797Y-80117190D01*
X209206845Y-80117190D01*
X209278273Y-80141000D01*
X209325892Y-80188619D01*
X209349702Y-80236238D01*
X209373511Y-80331476D01*
X209373511Y-80402904D01*
X209349702Y-80498142D01*
X209325892Y-80545761D01*
X209278273Y-80593380D01*
X209206845Y-80617190D01*
X209087797Y-80617190D01*
X208063988Y-77886714D02*
X208444940Y-77886714D01*
X208254464Y-78077190D02*
X208254464Y-77696238D01*
X208921130Y-77577190D02*
X208683035Y-77577190D01*
X208659226Y-77815285D01*
X208683035Y-77791476D01*
X208730654Y-77767666D01*
X208849702Y-77767666D01*
X208897321Y-77791476D01*
X208921130Y-77815285D01*
X208944940Y-77862904D01*
X208944940Y-77981952D01*
X208921130Y-78029571D01*
X208897321Y-78053380D01*
X208849702Y-78077190D01*
X208730654Y-78077190D01*
X208683035Y-78053380D01*
X208659226Y-78029571D01*
X209087797Y-77577190D02*
X209254464Y-78077190D01*
X209421130Y-77577190D01*
D14*
X205432000Y-32131000D02*
G75*
G03*
X205432000Y-32131000I-200000J0D01*
G01*
D13*
X217601000Y-72642428D02*
X217143857Y-72813857D01*
X217601000Y-72985285D01*
X217886714Y-72813857D02*
X218343857Y-72813857D01*
X219201000Y-72442428D02*
X219315285Y-72442428D01*
X219372428Y-72471000D01*
X219429571Y-72528142D01*
X219458142Y-72642428D01*
X219458142Y-72842428D01*
X219429571Y-72956714D01*
X219372428Y-73013857D01*
X219315285Y-73042428D01*
X219201000Y-73042428D01*
X219143857Y-73013857D01*
X219086714Y-72956714D01*
X219058142Y-72842428D01*
X219058142Y-72642428D01*
X219086714Y-72528142D01*
X219143857Y-72471000D01*
X219201000Y-72442428D01*
X219686714Y-73013857D02*
X219772428Y-73042428D01*
X219915285Y-73042428D01*
X219972428Y-73013857D01*
X220001000Y-72985285D01*
X220029571Y-72928142D01*
X220029571Y-72871000D01*
X220001000Y-72813857D01*
X219972428Y-72785285D01*
X219915285Y-72756714D01*
X219801000Y-72728142D01*
X219743857Y-72699571D01*
X219715285Y-72671000D01*
X219686714Y-72613857D01*
X219686714Y-72556714D01*
X219715285Y-72499571D01*
X219743857Y-72471000D01*
X219801000Y-72442428D01*
X219943857Y-72442428D01*
X220029571Y-72471000D01*
X220286714Y-73042428D02*
X220286714Y-72442428D01*
X220429571Y-72442428D01*
X220515285Y-72471000D01*
X220572428Y-72528142D01*
X220601000Y-72585285D01*
X220629571Y-72699571D01*
X220629571Y-72785285D01*
X220601000Y-72899571D01*
X220572428Y-72956714D01*
X220515285Y-73013857D01*
X220429571Y-73042428D01*
X220286714Y-73042428D01*
X221343857Y-73042428D02*
X221343857Y-72442428D01*
X221486714Y-72442428D01*
X221572428Y-72471000D01*
X221629571Y-72528142D01*
X221658142Y-72585285D01*
X221686714Y-72699571D01*
X221686714Y-72785285D01*
X221658142Y-72899571D01*
X221629571Y-72956714D01*
X221572428Y-73013857D01*
X221486714Y-73042428D01*
X221343857Y-73042428D01*
X221943857Y-73042428D02*
X221943857Y-72642428D01*
X221943857Y-72442428D02*
X221915285Y-72471000D01*
X221943857Y-72499571D01*
X221972428Y-72471000D01*
X221943857Y-72442428D01*
X221943857Y-72499571D01*
X222201000Y-73013857D02*
X222258142Y-73042428D01*
X222372428Y-73042428D01*
X222429571Y-73013857D01*
X222458142Y-72956714D01*
X222458142Y-72928142D01*
X222429571Y-72871000D01*
X222372428Y-72842428D01*
X222286714Y-72842428D01*
X222229571Y-72813857D01*
X222201000Y-72756714D01*
X222201000Y-72728142D01*
X222229571Y-72671000D01*
X222286714Y-72642428D01*
X222372428Y-72642428D01*
X222429571Y-72671000D01*
X222715285Y-72642428D02*
X222715285Y-73242428D01*
X222715285Y-72671000D02*
X222772428Y-72642428D01*
X222886714Y-72642428D01*
X222943857Y-72671000D01*
X222972428Y-72699571D01*
X223001000Y-72756714D01*
X223001000Y-72928142D01*
X222972428Y-72985285D01*
X222943857Y-73013857D01*
X222886714Y-73042428D01*
X222772428Y-73042428D01*
X222715285Y-73013857D01*
X223343857Y-73042428D02*
X223286714Y-73013857D01*
X223258142Y-72956714D01*
X223258142Y-72442428D01*
X223829571Y-73042428D02*
X223829571Y-72728142D01*
X223801000Y-72671000D01*
X223743857Y-72642428D01*
X223629571Y-72642428D01*
X223572428Y-72671000D01*
X223829571Y-73013857D02*
X223772428Y-73042428D01*
X223629571Y-73042428D01*
X223572428Y-73013857D01*
X223543857Y-72956714D01*
X223543857Y-72899571D01*
X223572428Y-72842428D01*
X223629571Y-72813857D01*
X223772428Y-72813857D01*
X223829571Y-72785285D01*
X224058142Y-72642428D02*
X224201000Y-73042428D01*
X224343857Y-72642428D02*
X224201000Y-73042428D01*
X224143857Y-73185285D01*
X224115285Y-73213857D01*
X224058142Y-73242428D01*
X225029571Y-72728142D02*
X225229571Y-72728142D01*
X225315285Y-73042428D02*
X225029571Y-73042428D01*
X225029571Y-72442428D01*
X225315285Y-72442428D01*
X225572428Y-72642428D02*
X225572428Y-73042428D01*
X225572428Y-72699571D02*
X225601000Y-72671000D01*
X225658142Y-72642428D01*
X225743857Y-72642428D01*
X225801000Y-72671000D01*
X225829571Y-72728142D01*
X225829571Y-73042428D01*
X226372428Y-73042428D02*
X226372428Y-72728142D01*
X226343857Y-72671000D01*
X226286714Y-72642428D01*
X226172428Y-72642428D01*
X226115285Y-72671000D01*
X226372428Y-73013857D02*
X226315285Y-73042428D01*
X226172428Y-73042428D01*
X226115285Y-73013857D01*
X226086714Y-72956714D01*
X226086714Y-72899571D01*
X226115285Y-72842428D01*
X226172428Y-72813857D01*
X226315285Y-72813857D01*
X226372428Y-72785285D01*
X226658142Y-73042428D02*
X226658142Y-72442428D01*
X226658142Y-72671000D02*
X226715285Y-72642428D01*
X226829571Y-72642428D01*
X226886714Y-72671000D01*
X226915285Y-72699571D01*
X226943857Y-72756714D01*
X226943857Y-72928142D01*
X226915285Y-72985285D01*
X226886714Y-73013857D01*
X226829571Y-73042428D01*
X226715285Y-73042428D01*
X226658142Y-73013857D01*
X227286714Y-73042428D02*
X227229571Y-73013857D01*
X227201000Y-72956714D01*
X227201000Y-72442428D01*
X227743857Y-73013857D02*
X227686714Y-73042428D01*
X227572428Y-73042428D01*
X227515285Y-73013857D01*
X227486714Y-72956714D01*
X227486714Y-72728142D01*
X227515285Y-72671000D01*
X227572428Y-72642428D01*
X227686714Y-72642428D01*
X227743857Y-72671000D01*
X227772428Y-72728142D01*
X227772428Y-72785285D01*
X227486714Y-72842428D01*
X228658142Y-73271000D02*
X228629571Y-73242428D01*
X228572428Y-73156714D01*
X228543857Y-73099571D01*
X228515285Y-73013857D01*
X228486714Y-72871000D01*
X228486714Y-72756714D01*
X228515285Y-72613857D01*
X228543857Y-72528142D01*
X228572428Y-72471000D01*
X228629571Y-72385285D01*
X228658142Y-72356714D01*
X228858142Y-72871000D02*
X229143857Y-72871000D01*
X228801000Y-73042428D02*
X229001000Y-72442428D01*
X229201000Y-73042428D01*
X229715285Y-73042428D02*
X229372428Y-73042428D01*
X229543857Y-73042428D02*
X229543857Y-72442428D01*
X229486714Y-72528142D01*
X229429571Y-72585285D01*
X229372428Y-72613857D01*
X230258142Y-72442428D02*
X229972428Y-72442428D01*
X229943857Y-72728142D01*
X229972428Y-72699571D01*
X230029571Y-72671000D01*
X230172428Y-72671000D01*
X230229571Y-72699571D01*
X230258142Y-72728142D01*
X230286714Y-72785285D01*
X230286714Y-72928142D01*
X230258142Y-72985285D01*
X230229571Y-73013857D01*
X230172428Y-73042428D01*
X230029571Y-73042428D01*
X229972428Y-73013857D01*
X229943857Y-72985285D01*
X230486714Y-73271000D02*
X230515285Y-73242428D01*
X230572428Y-73156714D01*
X230601000Y-73099571D01*
X230629571Y-73013857D01*
X230658142Y-72871000D01*
X230658142Y-72756714D01*
X230629571Y-72613857D01*
X230601000Y-72528142D01*
X230572428Y-72471000D01*
X230515285Y-72385285D01*
X230486714Y-72356714D01*
X217586714Y-69975428D02*
X217129571Y-70146857D01*
X217586714Y-70318285D01*
X217872428Y-70146857D02*
X218329571Y-70146857D01*
X219186714Y-69775428D02*
X219300999Y-69775428D01*
X219358142Y-69804000D01*
X219415285Y-69861142D01*
X219443857Y-69975428D01*
X219443857Y-70175428D01*
X219415285Y-70289714D01*
X219358142Y-70346857D01*
X219300999Y-70375428D01*
X219186714Y-70375428D01*
X219129571Y-70346857D01*
X219072428Y-70289714D01*
X219043857Y-70175428D01*
X219043857Y-69975428D01*
X219072428Y-69861142D01*
X219129571Y-69804000D01*
X219186714Y-69775428D01*
X219672428Y-70346857D02*
X219758142Y-70375428D01*
X219900999Y-70375428D01*
X219958142Y-70346857D01*
X219986714Y-70318285D01*
X220015285Y-70261142D01*
X220015285Y-70204000D01*
X219986714Y-70146857D01*
X219958142Y-70118285D01*
X219900999Y-70089714D01*
X219786714Y-70061142D01*
X219729571Y-70032571D01*
X219700999Y-70004000D01*
X219672428Y-69946857D01*
X219672428Y-69889714D01*
X219700999Y-69832571D01*
X219729571Y-69804000D01*
X219786714Y-69775428D01*
X219929571Y-69775428D01*
X220015285Y-69804000D01*
X220272428Y-70375428D02*
X220272428Y-69775428D01*
X220415285Y-69775428D01*
X220500999Y-69804000D01*
X220558142Y-69861142D01*
X220586714Y-69918285D01*
X220615285Y-70032571D01*
X220615285Y-70118285D01*
X220586714Y-70232571D01*
X220558142Y-70289714D01*
X220500999Y-70346857D01*
X220415285Y-70375428D01*
X220272428Y-70375428D01*
X221329571Y-70375428D02*
X221329571Y-69775428D01*
X221472428Y-69775428D01*
X221558142Y-69804000D01*
X221615285Y-69861142D01*
X221643857Y-69918285D01*
X221672428Y-70032571D01*
X221672428Y-70118285D01*
X221643857Y-70232571D01*
X221615285Y-70289714D01*
X221558142Y-70346857D01*
X221472428Y-70375428D01*
X221329571Y-70375428D01*
X221929571Y-70375428D02*
X221929571Y-69975428D01*
X221929571Y-69775428D02*
X221900999Y-69804000D01*
X221929571Y-69832571D01*
X221958142Y-69804000D01*
X221929571Y-69775428D01*
X221929571Y-69832571D01*
X222186714Y-70346857D02*
X222243857Y-70375428D01*
X222358142Y-70375428D01*
X222415285Y-70346857D01*
X222443857Y-70289714D01*
X222443857Y-70261142D01*
X222415285Y-70204000D01*
X222358142Y-70175428D01*
X222272428Y-70175428D01*
X222215285Y-70146857D01*
X222186714Y-70089714D01*
X222186714Y-70061142D01*
X222215285Y-70004000D01*
X222272428Y-69975428D01*
X222358142Y-69975428D01*
X222415285Y-70004000D01*
X222700999Y-69975428D02*
X222700999Y-70575428D01*
X222700999Y-70004000D02*
X222758142Y-69975428D01*
X222872428Y-69975428D01*
X222929571Y-70004000D01*
X222958142Y-70032571D01*
X222986714Y-70089714D01*
X222986714Y-70261142D01*
X222958142Y-70318285D01*
X222929571Y-70346857D01*
X222872428Y-70375428D01*
X222758142Y-70375428D01*
X222700999Y-70346857D01*
X223329571Y-70375428D02*
X223272428Y-70346857D01*
X223243857Y-70289714D01*
X223243857Y-69775428D01*
X223815285Y-70375428D02*
X223815285Y-70061142D01*
X223786714Y-70004000D01*
X223729571Y-69975428D01*
X223615285Y-69975428D01*
X223558142Y-70004000D01*
X223815285Y-70346857D02*
X223758142Y-70375428D01*
X223615285Y-70375428D01*
X223558142Y-70346857D01*
X223529571Y-70289714D01*
X223529571Y-70232571D01*
X223558142Y-70175428D01*
X223615285Y-70146857D01*
X223758142Y-70146857D01*
X223815285Y-70118285D01*
X224043857Y-69975428D02*
X224186714Y-70375428D01*
X224329571Y-69975428D02*
X224186714Y-70375428D01*
X224129571Y-70518285D01*
X224100999Y-70546857D01*
X224043857Y-70575428D01*
X225129571Y-69775428D02*
X225243857Y-69775428D01*
X225300999Y-69804000D01*
X225358142Y-69861142D01*
X225386714Y-69975428D01*
X225386714Y-70175428D01*
X225358142Y-70289714D01*
X225300999Y-70346857D01*
X225243857Y-70375428D01*
X225129571Y-70375428D01*
X225072428Y-70346857D01*
X225015285Y-70289714D01*
X224986714Y-70175428D01*
X224986714Y-69975428D01*
X225015285Y-69861142D01*
X225072428Y-69804000D01*
X225129571Y-69775428D01*
X225900999Y-69975428D02*
X225900999Y-70375428D01*
X225643857Y-69975428D02*
X225643857Y-70289714D01*
X225672428Y-70346857D01*
X225729571Y-70375428D01*
X225815285Y-70375428D01*
X225872428Y-70346857D01*
X225900999Y-70318285D01*
X226100999Y-69975428D02*
X226329571Y-69975428D01*
X226186714Y-69775428D02*
X226186714Y-70289714D01*
X226215285Y-70346857D01*
X226272428Y-70375428D01*
X226329571Y-70375428D01*
X226529571Y-69975428D02*
X226529571Y-70575428D01*
X226529571Y-70004000D02*
X226586714Y-69975428D01*
X226701000Y-69975428D01*
X226758142Y-70004000D01*
X226786714Y-70032571D01*
X226815285Y-70089714D01*
X226815285Y-70261142D01*
X226786714Y-70318285D01*
X226758142Y-70346857D01*
X226701000Y-70375428D01*
X226586714Y-70375428D01*
X226529571Y-70346857D01*
X227329571Y-69975428D02*
X227329571Y-70375428D01*
X227072428Y-69975428D02*
X227072428Y-70289714D01*
X227101000Y-70346857D01*
X227158142Y-70375428D01*
X227243857Y-70375428D01*
X227301000Y-70346857D01*
X227329571Y-70318285D01*
X227529571Y-69975428D02*
X227758142Y-69975428D01*
X227615285Y-69775428D02*
X227615285Y-70289714D01*
X227643857Y-70346857D01*
X227701000Y-70375428D01*
X227758142Y-70375428D01*
X228586714Y-70604000D02*
X228558142Y-70575428D01*
X228501000Y-70489714D01*
X228472428Y-70432571D01*
X228443857Y-70346857D01*
X228415285Y-70204000D01*
X228415285Y-70089714D01*
X228443857Y-69946857D01*
X228472428Y-69861142D01*
X228501000Y-69804000D01*
X228558142Y-69718285D01*
X228586714Y-69689714D01*
X229015285Y-70061142D02*
X229101000Y-70089714D01*
X229129571Y-70118285D01*
X229158142Y-70175428D01*
X229158142Y-70261142D01*
X229129571Y-70318285D01*
X229101000Y-70346857D01*
X229043857Y-70375428D01*
X228815285Y-70375428D01*
X228815285Y-69775428D01*
X229015285Y-69775428D01*
X229072428Y-69804000D01*
X229101000Y-69832571D01*
X229129571Y-69889714D01*
X229129571Y-69946857D01*
X229101000Y-70004000D01*
X229072428Y-70032571D01*
X229015285Y-70061142D01*
X228815285Y-70061142D01*
X229729571Y-70375428D02*
X229386714Y-70375428D01*
X229558142Y-70375428D02*
X229558142Y-69775428D01*
X229501000Y-69861142D01*
X229443857Y-69918285D01*
X229386714Y-69946857D01*
X230272428Y-69775428D02*
X229986714Y-69775428D01*
X229958142Y-70061142D01*
X229986714Y-70032571D01*
X230043857Y-70004000D01*
X230186714Y-70004000D01*
X230243857Y-70032571D01*
X230272428Y-70061142D01*
X230301000Y-70118285D01*
X230301000Y-70261142D01*
X230272428Y-70318285D01*
X230243857Y-70346857D01*
X230186714Y-70375428D01*
X230043857Y-70375428D01*
X229986714Y-70346857D01*
X229958142Y-70318285D01*
X230501000Y-70604000D02*
X230529571Y-70575428D01*
X230586714Y-70489714D01*
X230615285Y-70432571D01*
X230643857Y-70346857D01*
X230672428Y-70204000D01*
X230672428Y-70089714D01*
X230643857Y-69946857D01*
X230615285Y-69861142D01*
X230586714Y-69804000D01*
X230529571Y-69718285D01*
X230501000Y-69689714D01*
D15*
X205232000Y-54102000D02*
G75*
G03*
X205232000Y-54102000I-127000J0D01*
G01*
D13*
X217029285Y-67733857D02*
X217486428Y-67733857D01*
X217772142Y-67562428D02*
X218229285Y-67733857D01*
X217772142Y-67905285D01*
X219086428Y-67362428D02*
X219200714Y-67362428D01*
X219257857Y-67391000D01*
X219315000Y-67448142D01*
X219343571Y-67562428D01*
X219343571Y-67762428D01*
X219315000Y-67876714D01*
X219257857Y-67933857D01*
X219200714Y-67962428D01*
X219086428Y-67962428D01*
X219029285Y-67933857D01*
X218972142Y-67876714D01*
X218943571Y-67762428D01*
X218943571Y-67562428D01*
X218972142Y-67448142D01*
X219029285Y-67391000D01*
X219086428Y-67362428D01*
X219572142Y-67933857D02*
X219657857Y-67962428D01*
X219800714Y-67962428D01*
X219857857Y-67933857D01*
X219886428Y-67905285D01*
X219915000Y-67848142D01*
X219915000Y-67791000D01*
X219886428Y-67733857D01*
X219857857Y-67705285D01*
X219800714Y-67676714D01*
X219686428Y-67648142D01*
X219629285Y-67619571D01*
X219600714Y-67591000D01*
X219572142Y-67533857D01*
X219572142Y-67476714D01*
X219600714Y-67419571D01*
X219629285Y-67391000D01*
X219686428Y-67362428D01*
X219829285Y-67362428D01*
X219915000Y-67391000D01*
X220172142Y-67962428D02*
X220172142Y-67362428D01*
X220315000Y-67362428D01*
X220400714Y-67391000D01*
X220457857Y-67448142D01*
X220486428Y-67505285D01*
X220515000Y-67619571D01*
X220515000Y-67705285D01*
X220486428Y-67819571D01*
X220457857Y-67876714D01*
X220400714Y-67933857D01*
X220315000Y-67962428D01*
X220172142Y-67962428D01*
X221572142Y-67905285D02*
X221543571Y-67933857D01*
X221457857Y-67962428D01*
X221400714Y-67962428D01*
X221315000Y-67933857D01*
X221257857Y-67876714D01*
X221229285Y-67819571D01*
X221200714Y-67705285D01*
X221200714Y-67619571D01*
X221229285Y-67505285D01*
X221257857Y-67448142D01*
X221315000Y-67391000D01*
X221400714Y-67362428D01*
X221457857Y-67362428D01*
X221543571Y-67391000D01*
X221572142Y-67419571D01*
X221800714Y-67933857D02*
X221886428Y-67962428D01*
X222029285Y-67962428D01*
X222086428Y-67933857D01*
X222115000Y-67905285D01*
X222143571Y-67848142D01*
X222143571Y-67791000D01*
X222115000Y-67733857D01*
X222086428Y-67705285D01*
X222029285Y-67676714D01*
X221915000Y-67648142D01*
X221857857Y-67619571D01*
X221829285Y-67591000D01*
X221800714Y-67533857D01*
X221800714Y-67476714D01*
X221829285Y-67419571D01*
X221857857Y-67391000D01*
X221915000Y-67362428D01*
X222057857Y-67362428D01*
X222143571Y-67391000D01*
X222515000Y-67676714D02*
X222515000Y-67962428D01*
X222315000Y-67362428D02*
X222515000Y-67676714D01*
X222715000Y-67362428D01*
X222915000Y-67962428D02*
X222915000Y-67362428D01*
X223257857Y-67962428D01*
X223257857Y-67362428D01*
X223886428Y-67905285D02*
X223857857Y-67933857D01*
X223772142Y-67962428D01*
X223715000Y-67962428D01*
X223629285Y-67933857D01*
X223572142Y-67876714D01*
X223543571Y-67819571D01*
X223515000Y-67705285D01*
X223515000Y-67619571D01*
X223543571Y-67505285D01*
X223572142Y-67448142D01*
X223629285Y-67391000D01*
X223715000Y-67362428D01*
X223772142Y-67362428D01*
X223857857Y-67391000D01*
X223886428Y-67419571D01*
X224772142Y-68191000D02*
X224743571Y-68162428D01*
X224686428Y-68076714D01*
X224657857Y-68019571D01*
X224629285Y-67933857D01*
X224600714Y-67791000D01*
X224600714Y-67676714D01*
X224629285Y-67533857D01*
X224657857Y-67448142D01*
X224686428Y-67391000D01*
X224743571Y-67305285D01*
X224772142Y-67276714D01*
X224972142Y-67791000D02*
X225257857Y-67791000D01*
X224915000Y-67962428D02*
X225115000Y-67362428D01*
X225315000Y-67962428D01*
X225600714Y-67619571D02*
X225543571Y-67591000D01*
X225515000Y-67562428D01*
X225486428Y-67505285D01*
X225486428Y-67476714D01*
X225515000Y-67419571D01*
X225543571Y-67391000D01*
X225600714Y-67362428D01*
X225715000Y-67362428D01*
X225772142Y-67391000D01*
X225800714Y-67419571D01*
X225829285Y-67476714D01*
X225829285Y-67505285D01*
X225800714Y-67562428D01*
X225772142Y-67591000D01*
X225715000Y-67619571D01*
X225600714Y-67619571D01*
X225543571Y-67648142D01*
X225515000Y-67676714D01*
X225486428Y-67733857D01*
X225486428Y-67848142D01*
X225515000Y-67905285D01*
X225543571Y-67933857D01*
X225600714Y-67962428D01*
X225715000Y-67962428D01*
X225772142Y-67933857D01*
X225800714Y-67905285D01*
X225829285Y-67848142D01*
X225829285Y-67733857D01*
X225800714Y-67676714D01*
X225772142Y-67648142D01*
X225715000Y-67619571D01*
X226029285Y-68191000D02*
X226057857Y-68162428D01*
X226115000Y-68076714D01*
X226143571Y-68019571D01*
X226172142Y-67933857D01*
X226200714Y-67791000D01*
X226200714Y-67676714D01*
X226172142Y-67533857D01*
X226143571Y-67448142D01*
X226115000Y-67391000D01*
X226057857Y-67305285D01*
X226029285Y-67276714D01*
X217065142Y-75353857D02*
X217522285Y-75353857D01*
X217808000Y-75182428D02*
X218265142Y-75353857D01*
X217808000Y-75525285D01*
X219122285Y-74982428D02*
X219236571Y-74982428D01*
X219293714Y-75011000D01*
X219350857Y-75068142D01*
X219379428Y-75182428D01*
X219379428Y-75382428D01*
X219350857Y-75496714D01*
X219293714Y-75553857D01*
X219236571Y-75582428D01*
X219122285Y-75582428D01*
X219065142Y-75553857D01*
X219008000Y-75496714D01*
X218979428Y-75382428D01*
X218979428Y-75182428D01*
X219008000Y-75068142D01*
X219065142Y-75011000D01*
X219122285Y-74982428D01*
X219608000Y-75553857D02*
X219693714Y-75582428D01*
X219836571Y-75582428D01*
X219893714Y-75553857D01*
X219922285Y-75525285D01*
X219950857Y-75468142D01*
X219950857Y-75411000D01*
X219922285Y-75353857D01*
X219893714Y-75325285D01*
X219836571Y-75296714D01*
X219722285Y-75268142D01*
X219665142Y-75239571D01*
X219636571Y-75211000D01*
X219608000Y-75153857D01*
X219608000Y-75096714D01*
X219636571Y-75039571D01*
X219665142Y-75011000D01*
X219722285Y-74982428D01*
X219865142Y-74982428D01*
X219950857Y-75011000D01*
X220208000Y-75582428D02*
X220208000Y-74982428D01*
X220350857Y-74982428D01*
X220436571Y-75011000D01*
X220493714Y-75068142D01*
X220522285Y-75125285D01*
X220550857Y-75239571D01*
X220550857Y-75325285D01*
X220522285Y-75439571D01*
X220493714Y-75496714D01*
X220436571Y-75553857D01*
X220350857Y-75582428D01*
X220208000Y-75582428D01*
X221265142Y-75582428D02*
X221265142Y-74982428D01*
X221408000Y-74982428D01*
X221493714Y-75011000D01*
X221550857Y-75068142D01*
X221579428Y-75125285D01*
X221608000Y-75239571D01*
X221608000Y-75325285D01*
X221579428Y-75439571D01*
X221550857Y-75496714D01*
X221493714Y-75553857D01*
X221408000Y-75582428D01*
X221265142Y-75582428D01*
X221865142Y-75582428D02*
X221865142Y-75182428D01*
X221865142Y-74982428D02*
X221836571Y-75011000D01*
X221865142Y-75039571D01*
X221893714Y-75011000D01*
X221865142Y-74982428D01*
X221865142Y-75039571D01*
X222122285Y-75553857D02*
X222179428Y-75582428D01*
X222293714Y-75582428D01*
X222350857Y-75553857D01*
X222379428Y-75496714D01*
X222379428Y-75468142D01*
X222350857Y-75411000D01*
X222293714Y-75382428D01*
X222208000Y-75382428D01*
X222150857Y-75353857D01*
X222122285Y-75296714D01*
X222122285Y-75268142D01*
X222150857Y-75211000D01*
X222208000Y-75182428D01*
X222293714Y-75182428D01*
X222350857Y-75211000D01*
X222636571Y-75182428D02*
X222636571Y-75782428D01*
X222636571Y-75211000D02*
X222693714Y-75182428D01*
X222808000Y-75182428D01*
X222865142Y-75211000D01*
X222893714Y-75239571D01*
X222922285Y-75296714D01*
X222922285Y-75468142D01*
X222893714Y-75525285D01*
X222865142Y-75553857D01*
X222808000Y-75582428D01*
X222693714Y-75582428D01*
X222636571Y-75553857D01*
X223265142Y-75582428D02*
X223208000Y-75553857D01*
X223179428Y-75496714D01*
X223179428Y-74982428D01*
X223750857Y-75582428D02*
X223750857Y-75268142D01*
X223722285Y-75211000D01*
X223665142Y-75182428D01*
X223550857Y-75182428D01*
X223493714Y-75211000D01*
X223750857Y-75553857D02*
X223693714Y-75582428D01*
X223550857Y-75582428D01*
X223493714Y-75553857D01*
X223465142Y-75496714D01*
X223465142Y-75439571D01*
X223493714Y-75382428D01*
X223550857Y-75353857D01*
X223693714Y-75353857D01*
X223750857Y-75325285D01*
X223979428Y-75182428D02*
X224122285Y-75582428D01*
X224265142Y-75182428D02*
X224122285Y-75582428D01*
X224065142Y-75725285D01*
X224036571Y-75753857D01*
X223979428Y-75782428D01*
X225065142Y-74982428D02*
X225179428Y-74982428D01*
X225236571Y-75011000D01*
X225293714Y-75068142D01*
X225322285Y-75182428D01*
X225322285Y-75382428D01*
X225293714Y-75496714D01*
X225236571Y-75553857D01*
X225179428Y-75582428D01*
X225065142Y-75582428D01*
X225008000Y-75553857D01*
X224950857Y-75496714D01*
X224922285Y-75382428D01*
X224922285Y-75182428D01*
X224950857Y-75068142D01*
X225008000Y-75011000D01*
X225065142Y-74982428D01*
X225836571Y-75182428D02*
X225836571Y-75582428D01*
X225579428Y-75182428D02*
X225579428Y-75496714D01*
X225608000Y-75553857D01*
X225665142Y-75582428D01*
X225750857Y-75582428D01*
X225808000Y-75553857D01*
X225836571Y-75525285D01*
X226036571Y-75182428D02*
X226265142Y-75182428D01*
X226122285Y-74982428D02*
X226122285Y-75496714D01*
X226150857Y-75553857D01*
X226208000Y-75582428D01*
X226265142Y-75582428D01*
X226465142Y-75182428D02*
X226465142Y-75782428D01*
X226465142Y-75211000D02*
X226522285Y-75182428D01*
X226636571Y-75182428D01*
X226693714Y-75211000D01*
X226722285Y-75239571D01*
X226750857Y-75296714D01*
X226750857Y-75468142D01*
X226722285Y-75525285D01*
X226693714Y-75553857D01*
X226636571Y-75582428D01*
X226522285Y-75582428D01*
X226465142Y-75553857D01*
X227265142Y-75182428D02*
X227265142Y-75582428D01*
X227008000Y-75182428D02*
X227008000Y-75496714D01*
X227036571Y-75553857D01*
X227093714Y-75582428D01*
X227179428Y-75582428D01*
X227236571Y-75553857D01*
X227265142Y-75525285D01*
X227465142Y-75182428D02*
X227693714Y-75182428D01*
X227550857Y-74982428D02*
X227550857Y-75496714D01*
X227579428Y-75553857D01*
X227636571Y-75582428D01*
X227693714Y-75582428D01*
X228550857Y-75268142D02*
X228636571Y-75296714D01*
X228665142Y-75325285D01*
X228693714Y-75382428D01*
X228693714Y-75468142D01*
X228665142Y-75525285D01*
X228636571Y-75553857D01*
X228579428Y-75582428D01*
X228350857Y-75582428D01*
X228350857Y-74982428D01*
X228550857Y-74982428D01*
X228608000Y-75011000D01*
X228636571Y-75039571D01*
X228665142Y-75096714D01*
X228665142Y-75153857D01*
X228636571Y-75211000D01*
X228608000Y-75239571D01*
X228550857Y-75268142D01*
X228350857Y-75268142D01*
X229208000Y-75182428D02*
X229208000Y-75582428D01*
X228950857Y-75182428D02*
X228950857Y-75496714D01*
X228979428Y-75553857D01*
X229036571Y-75582428D01*
X229122285Y-75582428D01*
X229179428Y-75553857D01*
X229208000Y-75525285D01*
X229408000Y-75182428D02*
X229636571Y-75182428D01*
X229493714Y-75582428D02*
X229493714Y-75068142D01*
X229522285Y-75011000D01*
X229579428Y-74982428D01*
X229636571Y-74982428D01*
X229750857Y-75182428D02*
X229979428Y-75182428D01*
X229836571Y-75582428D02*
X229836571Y-75068142D01*
X229865142Y-75011000D01*
X229922285Y-74982428D01*
X229979428Y-74982428D01*
X230408000Y-75553857D02*
X230350857Y-75582428D01*
X230236571Y-75582428D01*
X230179428Y-75553857D01*
X230150857Y-75496714D01*
X230150857Y-75268142D01*
X230179428Y-75211000D01*
X230236571Y-75182428D01*
X230350857Y-75182428D01*
X230408000Y-75211000D01*
X230436571Y-75268142D01*
X230436571Y-75325285D01*
X230150857Y-75382428D01*
X230693714Y-75582428D02*
X230693714Y-75182428D01*
X230693714Y-75296714D02*
X230722285Y-75239571D01*
X230750857Y-75211000D01*
X230808000Y-75182428D01*
X230865142Y-75182428D01*
X231293714Y-75553857D02*
X231236571Y-75582428D01*
X231122285Y-75582428D01*
X231065142Y-75553857D01*
X231036571Y-75496714D01*
X231036571Y-75268142D01*
X231065142Y-75211000D01*
X231122285Y-75182428D01*
X231236571Y-75182428D01*
X231293714Y-75211000D01*
X231322285Y-75268142D01*
X231322285Y-75325285D01*
X231036571Y-75382428D01*
X231836571Y-75582428D02*
X231836571Y-74982428D01*
X231836571Y-75553857D02*
X231779428Y-75582428D01*
X231665142Y-75582428D01*
X231608000Y-75553857D01*
X231579428Y-75525285D01*
X231550857Y-75468142D01*
X231550857Y-75296714D01*
X231579428Y-75239571D01*
X231608000Y-75211000D01*
X231665142Y-75182428D01*
X231779428Y-75182428D01*
X231836571Y-75211000D01*
X232579428Y-75353857D02*
X233036571Y-75353857D01*
X233693714Y-74982428D02*
X234036571Y-74982428D01*
X233865142Y-75582428D02*
X233865142Y-74982428D01*
X234322285Y-75582428D02*
X234265142Y-75553857D01*
X234236571Y-75525285D01*
X234208000Y-75468142D01*
X234208000Y-75296714D01*
X234236571Y-75239571D01*
X234265142Y-75211000D01*
X234322285Y-75182428D01*
X234408000Y-75182428D01*
X234465142Y-75211000D01*
X234493714Y-75239571D01*
X234522285Y-75296714D01*
X234522285Y-75468142D01*
X234493714Y-75525285D01*
X234465142Y-75553857D01*
X234408000Y-75582428D01*
X234322285Y-75582428D01*
X235208000Y-75411000D02*
X235493714Y-75411000D01*
X235150857Y-75582428D02*
X235350857Y-74982428D01*
X235550857Y-75582428D01*
X235750857Y-75582428D02*
X235750857Y-75182428D01*
X235750857Y-75239571D02*
X235779428Y-75211000D01*
X235836571Y-75182428D01*
X235922285Y-75182428D01*
X235979428Y-75211000D01*
X236008000Y-75268142D01*
X236008000Y-75582428D01*
X236008000Y-75268142D02*
X236036571Y-75211000D01*
X236093714Y-75182428D01*
X236179428Y-75182428D01*
X236236571Y-75211000D01*
X236265142Y-75268142D01*
X236265142Y-75582428D01*
X236550857Y-75582428D02*
X236550857Y-75182428D01*
X236550857Y-74982428D02*
X236522285Y-75011000D01*
X236550857Y-75039571D01*
X236579428Y-75011000D01*
X236550857Y-74982428D01*
X236550857Y-75039571D01*
X237093714Y-75182428D02*
X237093714Y-75668142D01*
X237065142Y-75725285D01*
X237036571Y-75753857D01*
X236979428Y-75782428D01*
X236893714Y-75782428D01*
X236836571Y-75753857D01*
X237093714Y-75553857D02*
X237036571Y-75582428D01*
X236922285Y-75582428D01*
X236865142Y-75553857D01*
X236836571Y-75525285D01*
X236808000Y-75468142D01*
X236808000Y-75296714D01*
X236836571Y-75239571D01*
X236865142Y-75211000D01*
X236922285Y-75182428D01*
X237036571Y-75182428D01*
X237093714Y-75211000D01*
X237636571Y-75582428D02*
X237636571Y-75268142D01*
X237608000Y-75211000D01*
X237550857Y-75182428D01*
X237436571Y-75182428D01*
X237379428Y-75211000D01*
X237636571Y-75553857D02*
X237579428Y-75582428D01*
X237436571Y-75582428D01*
X237379428Y-75553857D01*
X237350857Y-75496714D01*
X237350857Y-75439571D01*
X237379428Y-75382428D01*
X237436571Y-75353857D01*
X237579428Y-75353857D01*
X237636571Y-75325285D01*
X238722285Y-75582428D02*
X238522285Y-75296714D01*
X238379428Y-75582428D02*
X238379428Y-74982428D01*
X238608000Y-74982428D01*
X238665142Y-75011000D01*
X238693714Y-75039571D01*
X238722285Y-75096714D01*
X238722285Y-75182428D01*
X238693714Y-75239571D01*
X238665142Y-75268142D01*
X238608000Y-75296714D01*
X238379428Y-75296714D01*
X239408000Y-74953857D02*
X238893714Y-75725285D01*
X239922285Y-75011000D02*
X239865142Y-74982428D01*
X239779428Y-74982428D01*
X239693714Y-75011000D01*
X239636571Y-75068142D01*
X239608000Y-75125285D01*
X239579428Y-75239571D01*
X239579428Y-75325285D01*
X239608000Y-75439571D01*
X239636571Y-75496714D01*
X239693714Y-75553857D01*
X239779428Y-75582428D01*
X239836571Y-75582428D01*
X239922285Y-75553857D01*
X239950857Y-75525285D01*
X239950857Y-75325285D01*
X239836571Y-75325285D01*
X240636571Y-74953857D02*
X240122285Y-75725285D01*
X241036571Y-75268142D02*
X241122285Y-75296714D01*
X241150857Y-75325285D01*
X241179428Y-75382428D01*
X241179428Y-75468142D01*
X241150857Y-75525285D01*
X241122285Y-75553857D01*
X241065142Y-75582428D01*
X240836571Y-75582428D01*
X240836571Y-74982428D01*
X241036571Y-74982428D01*
X241093714Y-75011000D01*
X241122285Y-75039571D01*
X241150857Y-75096714D01*
X241150857Y-75153857D01*
X241122285Y-75211000D01*
X241093714Y-75239571D01*
X241036571Y-75268142D01*
X240836571Y-75268142D01*
D12*
X175645142Y-83385428D02*
X175752285Y-83421142D01*
X175788000Y-83456857D01*
X175823714Y-83528285D01*
X175823714Y-83635428D01*
X175788000Y-83706857D01*
X175752285Y-83742571D01*
X175680857Y-83778285D01*
X175395142Y-83778285D01*
X175395142Y-83028285D01*
X175645142Y-83028285D01*
X175716571Y-83064000D01*
X175752285Y-83099714D01*
X175788000Y-83171142D01*
X175788000Y-83242571D01*
X175752285Y-83314000D01*
X175716571Y-83349714D01*
X175645142Y-83385428D01*
X175395142Y-83385428D01*
X176466571Y-83278285D02*
X176466571Y-83778285D01*
X176145142Y-83278285D02*
X176145142Y-83671142D01*
X176180857Y-83742571D01*
X176252285Y-83778285D01*
X176359428Y-83778285D01*
X176430857Y-83742571D01*
X176466571Y-83706857D01*
X176716571Y-83278285D02*
X177002285Y-83278285D01*
X176823714Y-83028285D02*
X176823714Y-83671142D01*
X176859428Y-83742571D01*
X176930857Y-83778285D01*
X177002285Y-83778285D01*
X177145142Y-83278285D02*
X177430857Y-83278285D01*
X177252285Y-83028285D02*
X177252285Y-83671142D01*
X177288000Y-83742571D01*
X177359428Y-83778285D01*
X177430857Y-83778285D01*
X177788000Y-83778285D02*
X177716571Y-83742571D01*
X177680857Y-83706857D01*
X177645142Y-83635428D01*
X177645142Y-83421142D01*
X177680857Y-83349714D01*
X177716571Y-83314000D01*
X177788000Y-83278285D01*
X177895142Y-83278285D01*
X177966571Y-83314000D01*
X178002285Y-83349714D01*
X178038000Y-83421142D01*
X178038000Y-83635428D01*
X178002285Y-83706857D01*
X177966571Y-83742571D01*
X177895142Y-83778285D01*
X177788000Y-83778285D01*
X178359428Y-83278285D02*
X178359428Y-83778285D01*
X178359428Y-83349714D02*
X178395142Y-83314000D01*
X178466571Y-83278285D01*
X178573714Y-83278285D01*
X178645142Y-83314000D01*
X178680857Y-83385428D01*
X178680857Y-83778285D01*
D14*
X166316000Y-58166000D02*
G75*
G03*
X166316000Y-58166000I-200000J0D01*
G01*
D11*
X105730476Y-83292904D02*
X105730476Y-82492904D01*
X106035238Y-82492904D01*
X106111428Y-82531000D01*
X106149523Y-82569095D01*
X106187619Y-82645285D01*
X106187619Y-82759571D01*
X106149523Y-82835761D01*
X106111428Y-82873857D01*
X106035238Y-82911952D01*
X105730476Y-82911952D01*
X106987619Y-83216714D02*
X106949523Y-83254809D01*
X106835238Y-83292904D01*
X106759047Y-83292904D01*
X106644761Y-83254809D01*
X106568571Y-83178619D01*
X106530476Y-83102428D01*
X106492380Y-82950047D01*
X106492380Y-82835761D01*
X106530476Y-82683380D01*
X106568571Y-82607190D01*
X106644761Y-82531000D01*
X106759047Y-82492904D01*
X106835238Y-82492904D01*
X106949523Y-82531000D01*
X106987619Y-82569095D01*
X107597142Y-82873857D02*
X107711428Y-82911952D01*
X107749523Y-82950047D01*
X107787619Y-83026238D01*
X107787619Y-83140523D01*
X107749523Y-83216714D01*
X107711428Y-83254809D01*
X107635238Y-83292904D01*
X107330476Y-83292904D01*
X107330476Y-82492904D01*
X107597142Y-82492904D01*
X107673333Y-82531000D01*
X107711428Y-82569095D01*
X107749523Y-82645285D01*
X107749523Y-82721476D01*
X107711428Y-82797666D01*
X107673333Y-82835761D01*
X107597142Y-82873857D01*
X107330476Y-82873857D01*
X109082857Y-83292904D02*
X109082857Y-82492904D01*
X109082857Y-83254809D02*
X109006666Y-83292904D01*
X108854285Y-83292904D01*
X108778095Y-83254809D01*
X108740000Y-83216714D01*
X108701904Y-83140523D01*
X108701904Y-82911952D01*
X108740000Y-82835761D01*
X108778095Y-82797666D01*
X108854285Y-82759571D01*
X109006666Y-82759571D01*
X109082857Y-82797666D01*
X109768571Y-83254809D02*
X109692380Y-83292904D01*
X109540000Y-83292904D01*
X109463809Y-83254809D01*
X109425714Y-83178619D01*
X109425714Y-82873857D01*
X109463809Y-82797666D01*
X109540000Y-82759571D01*
X109692380Y-82759571D01*
X109768571Y-82797666D01*
X109806666Y-82873857D01*
X109806666Y-82950047D01*
X109425714Y-83026238D01*
X110111428Y-83254809D02*
X110187619Y-83292904D01*
X110340000Y-83292904D01*
X110416190Y-83254809D01*
X110454285Y-83178619D01*
X110454285Y-83140523D01*
X110416190Y-83064333D01*
X110340000Y-83026238D01*
X110225714Y-83026238D01*
X110149523Y-82988142D01*
X110111428Y-82911952D01*
X110111428Y-82873857D01*
X110149523Y-82797666D01*
X110225714Y-82759571D01*
X110340000Y-82759571D01*
X110416190Y-82797666D01*
X110797142Y-83292904D02*
X110797142Y-82759571D01*
X110797142Y-82492904D02*
X110759047Y-82531000D01*
X110797142Y-82569095D01*
X110835238Y-82531000D01*
X110797142Y-82492904D01*
X110797142Y-82569095D01*
X111520952Y-82759571D02*
X111520952Y-83407190D01*
X111482857Y-83483380D01*
X111444761Y-83521476D01*
X111368571Y-83559571D01*
X111254285Y-83559571D01*
X111178095Y-83521476D01*
X111520952Y-83254809D02*
X111444761Y-83292904D01*
X111292380Y-83292904D01*
X111216190Y-83254809D01*
X111178095Y-83216714D01*
X111140000Y-83140523D01*
X111140000Y-82911952D01*
X111178095Y-82835761D01*
X111216190Y-82797666D01*
X111292380Y-82759571D01*
X111444761Y-82759571D01*
X111520952Y-82797666D01*
X111901904Y-82759571D02*
X111901904Y-83292904D01*
X111901904Y-82835761D02*
X111940000Y-82797666D01*
X112016190Y-82759571D01*
X112130476Y-82759571D01*
X112206666Y-82797666D01*
X112244761Y-82873857D01*
X112244761Y-83292904D01*
X113235238Y-83292904D02*
X113235238Y-82492904D01*
X113235238Y-82797666D02*
X113311428Y-82759571D01*
X113463809Y-82759571D01*
X113540000Y-82797666D01*
X113578095Y-82835761D01*
X113616190Y-82911952D01*
X113616190Y-83140523D01*
X113578095Y-83216714D01*
X113540000Y-83254809D01*
X113463809Y-83292904D01*
X113311428Y-83292904D01*
X113235238Y-83254809D01*
X113882857Y-82759571D02*
X114073333Y-83292904D01*
X114263809Y-82759571D02*
X114073333Y-83292904D01*
X113997142Y-83483380D01*
X113959047Y-83521476D01*
X113882857Y-83559571D01*
X115140000Y-83254809D02*
X115216190Y-83292904D01*
X115368571Y-83292904D01*
X115444761Y-83254809D01*
X115482857Y-83178619D01*
X115482857Y-83140523D01*
X115444761Y-83064333D01*
X115368571Y-83026238D01*
X115254285Y-83026238D01*
X115178095Y-82988142D01*
X115140000Y-82911952D01*
X115140000Y-82873857D01*
X115178095Y-82797666D01*
X115254285Y-82759571D01*
X115368571Y-82759571D01*
X115444761Y-82797666D01*
X115940000Y-83292904D02*
X115863809Y-83254809D01*
X115825714Y-83216714D01*
X115787619Y-83140523D01*
X115787619Y-82911952D01*
X115825714Y-82835761D01*
X115863809Y-82797666D01*
X115940000Y-82759571D01*
X116054285Y-82759571D01*
X116130476Y-82797666D01*
X116168571Y-82835761D01*
X116206666Y-82911952D01*
X116206666Y-83140523D01*
X116168571Y-83216714D01*
X116130476Y-83254809D01*
X116054285Y-83292904D01*
X115940000Y-83292904D01*
X116663809Y-83292904D02*
X116587619Y-83254809D01*
X116549523Y-83178619D01*
X116549523Y-82492904D01*
X117311428Y-83292904D02*
X117311428Y-82873857D01*
X117273333Y-82797666D01*
X117197142Y-82759571D01*
X117044761Y-82759571D01*
X116968571Y-82797666D01*
X117311428Y-83254809D02*
X117235238Y-83292904D01*
X117044761Y-83292904D01*
X116968571Y-83254809D01*
X116930476Y-83178619D01*
X116930476Y-83102428D01*
X116968571Y-83026238D01*
X117044761Y-82988142D01*
X117235238Y-82988142D01*
X117311428Y-82950047D01*
X117692380Y-83292904D02*
X117692380Y-82759571D01*
X117692380Y-82911952D02*
X117730476Y-82835761D01*
X117768571Y-82797666D01*
X117844761Y-82759571D01*
X117920952Y-82759571D01*
X118187619Y-83292904D02*
X118187619Y-82759571D01*
X118187619Y-82835761D02*
X118225714Y-82797666D01*
X118301904Y-82759571D01*
X118416190Y-82759571D01*
X118492380Y-82797666D01*
X118530476Y-82873857D01*
X118530476Y-83292904D01*
X118530476Y-82873857D02*
X118568571Y-82797666D01*
X118644761Y-82759571D01*
X118759047Y-82759571D01*
X118835238Y-82797666D01*
X118873333Y-82873857D01*
X118873333Y-83292904D01*
X119368571Y-83292904D02*
X119292380Y-83254809D01*
X119254285Y-83216714D01*
X119216190Y-83140523D01*
X119216190Y-82911952D01*
X119254285Y-82835761D01*
X119292380Y-82797666D01*
X119368571Y-82759571D01*
X119482857Y-82759571D01*
X119559047Y-82797666D01*
X119597142Y-82835761D01*
X119635238Y-82911952D01*
X119635238Y-83140523D01*
X119597142Y-83216714D01*
X119559047Y-83254809D01*
X119482857Y-83292904D01*
X119368571Y-83292904D01*
X119978095Y-82759571D02*
X119978095Y-83292904D01*
X119978095Y-82835761D02*
X120016190Y-82797666D01*
X120092380Y-82759571D01*
X120206666Y-82759571D01*
X120282857Y-82797666D01*
X120320952Y-82873857D01*
X120320952Y-83292904D01*
X121540000Y-83597666D02*
X121501904Y-83559571D01*
X121425714Y-83445285D01*
X121387619Y-83369095D01*
X121349523Y-83254809D01*
X121311428Y-83064333D01*
X121311428Y-82911952D01*
X121349523Y-82721476D01*
X121387619Y-82607190D01*
X121425714Y-82531000D01*
X121501904Y-82416714D01*
X121540000Y-82378619D01*
X121844761Y-83292904D02*
X121844761Y-82492904D01*
X122187619Y-83292904D02*
X122187619Y-82873857D01*
X122149523Y-82797666D01*
X122073333Y-82759571D01*
X121959047Y-82759571D01*
X121882857Y-82797666D01*
X121844761Y-82835761D01*
X122454285Y-82759571D02*
X122759047Y-82759571D01*
X122568571Y-82492904D02*
X122568571Y-83178619D01*
X122606666Y-83254809D01*
X122682857Y-83292904D01*
X122759047Y-83292904D01*
X122911428Y-82759571D02*
X123216190Y-82759571D01*
X123025714Y-82492904D02*
X123025714Y-83178619D01*
X123063809Y-83254809D01*
X123140000Y-83292904D01*
X123216190Y-83292904D01*
X123482857Y-82759571D02*
X123482857Y-83559571D01*
X123482857Y-82797666D02*
X123559047Y-82759571D01*
X123711428Y-82759571D01*
X123787619Y-82797666D01*
X123825714Y-82835761D01*
X123863809Y-82911952D01*
X123863809Y-83140523D01*
X123825714Y-83216714D01*
X123787619Y-83254809D01*
X123711428Y-83292904D01*
X123559047Y-83292904D01*
X123482857Y-83254809D01*
X124168571Y-83254809D02*
X124244761Y-83292904D01*
X124397142Y-83292904D01*
X124473333Y-83254809D01*
X124511428Y-83178619D01*
X124511428Y-83140523D01*
X124473333Y-83064333D01*
X124397142Y-83026238D01*
X124282857Y-83026238D01*
X124206666Y-82988142D01*
X124168571Y-82911952D01*
X124168571Y-82873857D01*
X124206666Y-82797666D01*
X124282857Y-82759571D01*
X124397142Y-82759571D01*
X124473333Y-82797666D01*
X124854285Y-83216714D02*
X124892380Y-83254809D01*
X124854285Y-83292904D01*
X124816190Y-83254809D01*
X124854285Y-83216714D01*
X124854285Y-83292904D01*
X124854285Y-82797666D02*
X124892380Y-82835761D01*
X124854285Y-82873857D01*
X124816190Y-82835761D01*
X124854285Y-82797666D01*
X124854285Y-82873857D01*
X125806666Y-82454809D02*
X125120952Y-83483380D01*
X126644761Y-82454809D02*
X125959047Y-83483380D01*
X127254285Y-82759571D02*
X127254285Y-83407190D01*
X127216190Y-83483380D01*
X127178095Y-83521476D01*
X127101904Y-83559571D01*
X126987619Y-83559571D01*
X126911428Y-83521476D01*
X127254285Y-83254809D02*
X127178095Y-83292904D01*
X127025714Y-83292904D01*
X126949523Y-83254809D01*
X126911428Y-83216714D01*
X126873333Y-83140523D01*
X126873333Y-82911952D01*
X126911428Y-82835761D01*
X126949523Y-82797666D01*
X127025714Y-82759571D01*
X127178095Y-82759571D01*
X127254285Y-82797666D01*
X127635238Y-83292904D02*
X127635238Y-82759571D01*
X127635238Y-82492904D02*
X127597142Y-82531000D01*
X127635238Y-82569095D01*
X127673333Y-82531000D01*
X127635238Y-82492904D01*
X127635238Y-82569095D01*
X127901904Y-82759571D02*
X128206666Y-82759571D01*
X128016190Y-82492904D02*
X128016190Y-83178619D01*
X128054285Y-83254809D01*
X128130476Y-83292904D01*
X128206666Y-83292904D01*
X128473333Y-83292904D02*
X128473333Y-82492904D01*
X128816190Y-83292904D02*
X128816190Y-82873857D01*
X128778095Y-82797666D01*
X128701904Y-82759571D01*
X128587619Y-82759571D01*
X128511428Y-82797666D01*
X128473333Y-82835761D01*
X129540000Y-82759571D02*
X129540000Y-83292904D01*
X129197142Y-82759571D02*
X129197142Y-83178619D01*
X129235238Y-83254809D01*
X129311428Y-83292904D01*
X129425714Y-83292904D01*
X129501904Y-83254809D01*
X129540000Y-83216714D01*
X129920952Y-83292904D02*
X129920952Y-82492904D01*
X129920952Y-82797666D02*
X129997142Y-82759571D01*
X130149523Y-82759571D01*
X130225714Y-82797666D01*
X130263809Y-82835761D01*
X130301904Y-82911952D01*
X130301904Y-83140523D01*
X130263809Y-83216714D01*
X130225714Y-83254809D01*
X130149523Y-83292904D01*
X129997142Y-83292904D01*
X129920952Y-83254809D01*
X130644761Y-83216714D02*
X130682857Y-83254809D01*
X130644761Y-83292904D01*
X130606666Y-83254809D01*
X130644761Y-83216714D01*
X130644761Y-83292904D01*
X131368571Y-83254809D02*
X131292380Y-83292904D01*
X131140000Y-83292904D01*
X131063809Y-83254809D01*
X131025714Y-83216714D01*
X130987619Y-83140523D01*
X130987619Y-82911952D01*
X131025714Y-82835761D01*
X131063809Y-82797666D01*
X131140000Y-82759571D01*
X131292380Y-82759571D01*
X131368571Y-82797666D01*
X131825714Y-83292904D02*
X131749523Y-83254809D01*
X131711428Y-83216714D01*
X131673333Y-83140523D01*
X131673333Y-82911952D01*
X131711428Y-82835761D01*
X131749523Y-82797666D01*
X131825714Y-82759571D01*
X131940000Y-82759571D01*
X132016190Y-82797666D01*
X132054285Y-82835761D01*
X132092380Y-82911952D01*
X132092380Y-83140523D01*
X132054285Y-83216714D01*
X132016190Y-83254809D01*
X131940000Y-83292904D01*
X131825714Y-83292904D01*
X132435238Y-83292904D02*
X132435238Y-82759571D01*
X132435238Y-82835761D02*
X132473333Y-82797666D01*
X132549523Y-82759571D01*
X132663809Y-82759571D01*
X132740000Y-82797666D01*
X132778095Y-82873857D01*
X132778095Y-83292904D01*
X132778095Y-82873857D02*
X132816190Y-82797666D01*
X132892380Y-82759571D01*
X133006666Y-82759571D01*
X133082857Y-82797666D01*
X133120952Y-82873857D01*
X133120952Y-83292904D01*
X134073333Y-82454809D02*
X133387619Y-83483380D01*
X134301904Y-83254809D02*
X134378095Y-83292904D01*
X134530476Y-83292904D01*
X134606666Y-83254809D01*
X134644761Y-83178619D01*
X134644761Y-83140523D01*
X134606666Y-83064333D01*
X134530476Y-83026238D01*
X134416190Y-83026238D01*
X134340000Y-82988142D01*
X134301904Y-82911952D01*
X134301904Y-82873857D01*
X134340000Y-82797666D01*
X134416190Y-82759571D01*
X134530476Y-82759571D01*
X134606666Y-82797666D01*
X135101904Y-83292904D02*
X135025714Y-83254809D01*
X134987619Y-83216714D01*
X134949523Y-83140523D01*
X134949523Y-82911952D01*
X134987619Y-82835761D01*
X135025714Y-82797666D01*
X135101904Y-82759571D01*
X135216190Y-82759571D01*
X135292380Y-82797666D01*
X135330476Y-82835761D01*
X135368571Y-82911952D01*
X135368571Y-83140523D01*
X135330476Y-83216714D01*
X135292380Y-83254809D01*
X135216190Y-83292904D01*
X135101904Y-83292904D01*
X135825714Y-83292904D02*
X135749523Y-83254809D01*
X135711428Y-83178619D01*
X135711428Y-82492904D01*
X136473333Y-83292904D02*
X136473333Y-82873857D01*
X136435238Y-82797666D01*
X136359047Y-82759571D01*
X136206666Y-82759571D01*
X136130476Y-82797666D01*
X136473333Y-83254809D02*
X136397142Y-83292904D01*
X136206666Y-83292904D01*
X136130476Y-83254809D01*
X136092380Y-83178619D01*
X136092380Y-83102428D01*
X136130476Y-83026238D01*
X136206666Y-82988142D01*
X136397142Y-82988142D01*
X136473333Y-82950047D01*
X136854285Y-83292904D02*
X136854285Y-82759571D01*
X136854285Y-82911952D02*
X136892380Y-82835761D01*
X136930476Y-82797666D01*
X137006666Y-82759571D01*
X137082857Y-82759571D01*
X137349523Y-83292904D02*
X137349523Y-82759571D01*
X137349523Y-82835761D02*
X137387619Y-82797666D01*
X137463809Y-82759571D01*
X137578095Y-82759571D01*
X137654285Y-82797666D01*
X137692380Y-82873857D01*
X137692380Y-83292904D01*
X137692380Y-82873857D02*
X137730476Y-82797666D01*
X137806666Y-82759571D01*
X137920952Y-82759571D01*
X137997142Y-82797666D01*
X138035238Y-82873857D01*
X138035238Y-83292904D01*
X138530476Y-83292904D02*
X138454285Y-83254809D01*
X138416190Y-83216714D01*
X138378095Y-83140523D01*
X138378095Y-82911952D01*
X138416190Y-82835761D01*
X138454285Y-82797666D01*
X138530476Y-82759571D01*
X138644761Y-82759571D01*
X138720952Y-82797666D01*
X138759047Y-82835761D01*
X138797142Y-82911952D01*
X138797142Y-83140523D01*
X138759047Y-83216714D01*
X138720952Y-83254809D01*
X138644761Y-83292904D01*
X138530476Y-83292904D01*
X139140000Y-82759571D02*
X139140000Y-83292904D01*
X139140000Y-82835761D02*
X139178095Y-82797666D01*
X139254285Y-82759571D01*
X139368571Y-82759571D01*
X139444761Y-82797666D01*
X139482857Y-82873857D01*
X139482857Y-83292904D01*
X139787619Y-83597666D02*
X139825714Y-83559571D01*
X139901904Y-83445285D01*
X139940000Y-83369095D01*
X139978095Y-83254809D01*
X140016190Y-83064333D01*
X140016190Y-82911952D01*
X139978095Y-82721476D01*
X139940000Y-82607190D01*
X139901904Y-82531000D01*
X139825714Y-82416714D01*
X139787619Y-82378619D01*
D10*
X169418000Y-75311000D02*
X169418000Y-83820000D01*
D15*
X168275000Y-61341000D02*
G75*
G03*
X168275000Y-61341000I-127000J0D01*
G01*
X179705000Y-70231000D02*
G75*
G03*
X179705000Y-70231000I-127000J0D01*
G01*
X179705000Y-51816000D02*
G75*
G03*
X179705000Y-51816000I-127000J0D01*
G01*
D12*
X165431571Y-82451321D02*
X165538714Y-82487035D01*
X165717285Y-82487035D01*
X165788714Y-82451321D01*
X165824428Y-82415607D01*
X165860142Y-82344178D01*
X165860142Y-82272750D01*
X165824428Y-82201321D01*
X165788714Y-82165607D01*
X165717285Y-82129892D01*
X165574428Y-82094178D01*
X165503000Y-82058464D01*
X165467285Y-82022750D01*
X165431571Y-81951321D01*
X165431571Y-81879892D01*
X165467285Y-81808464D01*
X165503000Y-81772750D01*
X165574428Y-81737035D01*
X165753000Y-81737035D01*
X165860142Y-81772750D01*
X166503000Y-81987035D02*
X166503000Y-82487035D01*
X166181571Y-81987035D02*
X166181571Y-82379892D01*
X166217285Y-82451321D01*
X166288714Y-82487035D01*
X166395857Y-82487035D01*
X166467285Y-82451321D01*
X166503000Y-82415607D01*
X166860142Y-81987035D02*
X166860142Y-82737035D01*
X166860142Y-82022750D02*
X166931571Y-81987035D01*
X167074428Y-81987035D01*
X167145857Y-82022750D01*
X167181571Y-82058464D01*
X167217285Y-82129892D01*
X167217285Y-82344178D01*
X167181571Y-82415607D01*
X167145857Y-82451321D01*
X167074428Y-82487035D01*
X166931571Y-82487035D01*
X166860142Y-82451321D01*
X167824428Y-82451321D02*
X167753000Y-82487035D01*
X167610142Y-82487035D01*
X167538714Y-82451321D01*
X167503000Y-82379892D01*
X167503000Y-82094178D01*
X167538714Y-82022750D01*
X167610142Y-81987035D01*
X167753000Y-81987035D01*
X167824428Y-82022750D01*
X167860142Y-82094178D01*
X167860142Y-82165607D01*
X167503000Y-82237035D01*
X168181571Y-82487035D02*
X168181571Y-81987035D01*
X168181571Y-82129892D02*
X168217285Y-82058464D01*
X168253000Y-82022750D01*
X168324428Y-81987035D01*
X168395857Y-81987035D01*
X165217285Y-83799535D02*
X165217285Y-83049535D01*
X165395857Y-83049535D01*
X165503000Y-83085250D01*
X165574428Y-83156678D01*
X165610142Y-83228107D01*
X165645857Y-83370964D01*
X165645857Y-83478107D01*
X165610142Y-83620964D01*
X165574428Y-83692392D01*
X165503000Y-83763821D01*
X165395857Y-83799535D01*
X165217285Y-83799535D01*
X166253000Y-83763821D02*
X166181571Y-83799535D01*
X166038714Y-83799535D01*
X165967285Y-83763821D01*
X165931571Y-83692392D01*
X165931571Y-83406678D01*
X165967285Y-83335250D01*
X166038714Y-83299535D01*
X166181571Y-83299535D01*
X166253000Y-83335250D01*
X166288714Y-83406678D01*
X166288714Y-83478107D01*
X165931571Y-83549535D01*
X166610142Y-83299535D02*
X166610142Y-83799535D01*
X166610142Y-83370964D02*
X166645857Y-83335250D01*
X166717285Y-83299535D01*
X166824428Y-83299535D01*
X166895857Y-83335250D01*
X166931571Y-83406678D01*
X166931571Y-83799535D01*
X167288714Y-83799535D02*
X167288714Y-83299535D01*
X167288714Y-83049535D02*
X167253000Y-83085250D01*
X167288714Y-83120964D01*
X167324428Y-83085250D01*
X167288714Y-83049535D01*
X167288714Y-83120964D01*
X167610142Y-83763821D02*
X167681571Y-83799535D01*
X167824428Y-83799535D01*
X167895857Y-83763821D01*
X167931571Y-83692392D01*
X167931571Y-83656678D01*
X167895857Y-83585250D01*
X167824428Y-83549535D01*
X167717285Y-83549535D01*
X167645857Y-83513821D01*
X167610142Y-83442392D01*
X167610142Y-83406678D01*
X167645857Y-83335250D01*
X167717285Y-83299535D01*
X167824428Y-83299535D01*
X167895857Y-83335250D01*
X168538714Y-83763821D02*
X168467285Y-83799535D01*
X168324428Y-83799535D01*
X168253000Y-83763821D01*
X168217285Y-83692392D01*
X168217285Y-83406678D01*
X168253000Y-83335250D01*
X168324428Y-83299535D01*
X168467285Y-83299535D01*
X168538714Y-83335250D01*
X168574428Y-83406678D01*
X168574428Y-83478107D01*
X168217285Y-83549535D01*
X170297285Y-83799535D02*
X170297285Y-83049535D01*
X170475857Y-83049535D01*
X170583000Y-83085250D01*
X170654428Y-83156678D01*
X170690142Y-83228107D01*
X170725857Y-83370964D01*
X170725857Y-83478107D01*
X170690142Y-83620964D01*
X170654428Y-83692392D01*
X170583000Y-83763821D01*
X170475857Y-83799535D01*
X170297285Y-83799535D01*
X171333000Y-83763821D02*
X171261571Y-83799535D01*
X171118714Y-83799535D01*
X171047285Y-83763821D01*
X171011571Y-83692392D01*
X171011571Y-83406678D01*
X171047285Y-83335250D01*
X171118714Y-83299535D01*
X171261571Y-83299535D01*
X171333000Y-83335250D01*
X171368714Y-83406678D01*
X171368714Y-83478107D01*
X171011571Y-83549535D01*
X171690142Y-83299535D02*
X171690142Y-83799535D01*
X171690142Y-83370964D02*
X171725857Y-83335250D01*
X171797285Y-83299535D01*
X171904428Y-83299535D01*
X171975857Y-83335250D01*
X172011571Y-83406678D01*
X172011571Y-83799535D01*
X172368714Y-83799535D02*
X172368714Y-83299535D01*
X172368714Y-83049535D02*
X172333000Y-83085250D01*
X172368714Y-83120964D01*
X172404428Y-83085250D01*
X172368714Y-83049535D01*
X172368714Y-83120964D01*
X172690142Y-83763821D02*
X172761571Y-83799535D01*
X172904428Y-83799535D01*
X172975857Y-83763821D01*
X173011571Y-83692392D01*
X173011571Y-83656678D01*
X172975857Y-83585250D01*
X172904428Y-83549535D01*
X172797285Y-83549535D01*
X172725857Y-83513821D01*
X172690142Y-83442392D01*
X172690142Y-83406678D01*
X172725857Y-83335250D01*
X172797285Y-83299535D01*
X172904428Y-83299535D01*
X172975857Y-83335250D01*
X173618714Y-83763821D02*
X173547285Y-83799535D01*
X173404428Y-83799535D01*
X173333000Y-83763821D01*
X173297285Y-83692392D01*
X173297285Y-83406678D01*
X173333000Y-83335250D01*
X173404428Y-83299535D01*
X173547285Y-83299535D01*
X173618714Y-83335250D01*
X173654428Y-83406678D01*
X173654428Y-83478107D01*
X173297285Y-83549535D01*
D11*
X105870142Y-75504857D02*
X105984428Y-75542952D01*
X106022523Y-75581047D01*
X106060619Y-75657238D01*
X106060619Y-75771523D01*
X106022523Y-75847714D01*
X105984428Y-75885809D01*
X105908238Y-75923904D01*
X105603476Y-75923904D01*
X105603476Y-75123904D01*
X105870142Y-75123904D01*
X105946333Y-75162000D01*
X105984428Y-75200095D01*
X106022523Y-75276285D01*
X106022523Y-75352476D01*
X105984428Y-75428666D01*
X105946333Y-75466761D01*
X105870142Y-75504857D01*
X105603476Y-75504857D01*
X106746333Y-75923904D02*
X106746333Y-75504857D01*
X106708238Y-75428666D01*
X106632047Y-75390571D01*
X106479666Y-75390571D01*
X106403476Y-75428666D01*
X106746333Y-75885809D02*
X106670142Y-75923904D01*
X106479666Y-75923904D01*
X106403476Y-75885809D01*
X106365380Y-75809619D01*
X106365380Y-75733428D01*
X106403476Y-75657238D01*
X106479666Y-75619142D01*
X106670142Y-75619142D01*
X106746333Y-75581047D01*
X107089190Y-75885809D02*
X107165380Y-75923904D01*
X107317761Y-75923904D01*
X107393952Y-75885809D01*
X107432047Y-75809619D01*
X107432047Y-75771523D01*
X107393952Y-75695333D01*
X107317761Y-75657238D01*
X107203476Y-75657238D01*
X107127285Y-75619142D01*
X107089190Y-75542952D01*
X107089190Y-75504857D01*
X107127285Y-75428666D01*
X107203476Y-75390571D01*
X107317761Y-75390571D01*
X107393952Y-75428666D01*
X108079666Y-75885809D02*
X108003476Y-75923904D01*
X107851095Y-75923904D01*
X107774904Y-75885809D01*
X107736809Y-75809619D01*
X107736809Y-75504857D01*
X107774904Y-75428666D01*
X107851095Y-75390571D01*
X108003476Y-75390571D01*
X108079666Y-75428666D01*
X108117761Y-75504857D01*
X108117761Y-75581047D01*
X107736809Y-75657238D01*
X108803476Y-75923904D02*
X108803476Y-75123904D01*
X108803476Y-75885809D02*
X108727285Y-75923904D01*
X108574904Y-75923904D01*
X108498714Y-75885809D01*
X108460619Y-75847714D01*
X108422523Y-75771523D01*
X108422523Y-75542952D01*
X108460619Y-75466761D01*
X108498714Y-75428666D01*
X108574904Y-75390571D01*
X108727285Y-75390571D01*
X108803476Y-75428666D01*
X109908238Y-75923904D02*
X109832047Y-75885809D01*
X109793952Y-75847714D01*
X109755857Y-75771523D01*
X109755857Y-75542952D01*
X109793952Y-75466761D01*
X109832047Y-75428666D01*
X109908238Y-75390571D01*
X110022523Y-75390571D01*
X110098714Y-75428666D01*
X110136809Y-75466761D01*
X110174904Y-75542952D01*
X110174904Y-75771523D01*
X110136809Y-75847714D01*
X110098714Y-75885809D01*
X110022523Y-75923904D01*
X109908238Y-75923904D01*
X110517761Y-75390571D02*
X110517761Y-75923904D01*
X110517761Y-75466761D02*
X110555857Y-75428666D01*
X110632047Y-75390571D01*
X110746333Y-75390571D01*
X110822523Y-75428666D01*
X110860619Y-75504857D01*
X110860619Y-75923904D01*
X111241571Y-75847714D02*
X111279666Y-75885809D01*
X111241571Y-75923904D01*
X111203476Y-75885809D01*
X111241571Y-75847714D01*
X111241571Y-75923904D01*
X111241571Y-75428666D02*
X111279666Y-75466761D01*
X111241571Y-75504857D01*
X111203476Y-75466761D01*
X111241571Y-75428666D01*
X111241571Y-75504857D01*
X106060619Y-77323904D02*
X105793952Y-76942952D01*
X105603476Y-77323904D02*
X105603476Y-76523904D01*
X105908238Y-76523904D01*
X105984428Y-76562000D01*
X106022523Y-76600095D01*
X106060619Y-76676285D01*
X106060619Y-76790571D01*
X106022523Y-76866761D01*
X105984428Y-76904857D01*
X105908238Y-76942952D01*
X105603476Y-76942952D01*
X106822523Y-76562000D02*
X106746333Y-76523904D01*
X106632047Y-76523904D01*
X106517761Y-76562000D01*
X106441571Y-76638190D01*
X106403476Y-76714380D01*
X106365380Y-76866761D01*
X106365380Y-76981047D01*
X106403476Y-77133428D01*
X106441571Y-77209619D01*
X106517761Y-77285809D01*
X106632047Y-77323904D01*
X106708238Y-77323904D01*
X106822523Y-77285809D01*
X106860619Y-77247714D01*
X106860619Y-76981047D01*
X106708238Y-76981047D01*
X107470142Y-76904857D02*
X107584428Y-76942952D01*
X107622523Y-76981047D01*
X107660619Y-77057238D01*
X107660619Y-77171523D01*
X107622523Y-77247714D01*
X107584428Y-77285809D01*
X107508238Y-77323904D01*
X107203476Y-77323904D01*
X107203476Y-76523904D01*
X107470142Y-76523904D01*
X107546333Y-76562000D01*
X107584428Y-76600095D01*
X107622523Y-76676285D01*
X107622523Y-76752476D01*
X107584428Y-76828666D01*
X107546333Y-76866761D01*
X107470142Y-76904857D01*
X107203476Y-76904857D01*
X107889190Y-76790571D02*
X108193952Y-76790571D01*
X108003476Y-76523904D02*
X108003476Y-77209619D01*
X108041571Y-77285809D01*
X108117761Y-77323904D01*
X108193952Y-77323904D01*
X108574904Y-77323904D02*
X108498714Y-77285809D01*
X108460619Y-77247714D01*
X108422523Y-77171523D01*
X108422523Y-76942952D01*
X108460619Y-76866761D01*
X108498714Y-76828666D01*
X108574904Y-76790571D01*
X108689190Y-76790571D01*
X108765380Y-76828666D01*
X108803476Y-76866761D01*
X108841571Y-76942952D01*
X108841571Y-77171523D01*
X108803476Y-77247714D01*
X108765380Y-77285809D01*
X108689190Y-77323904D01*
X108574904Y-77323904D01*
X109184428Y-77323904D02*
X109184428Y-76523904D01*
X109184428Y-76904857D02*
X109641571Y-76904857D01*
X109641571Y-77323904D02*
X109641571Y-76523904D01*
X110022523Y-77323904D02*
X110022523Y-76523904D01*
X110213000Y-76523904D01*
X110327285Y-76562000D01*
X110403476Y-76638190D01*
X110441571Y-76714380D01*
X110479666Y-76866761D01*
X110479666Y-76981047D01*
X110441571Y-77133428D01*
X110403476Y-77209619D01*
X110327285Y-77285809D01*
X110213000Y-77323904D01*
X110022523Y-77323904D01*
X110822523Y-77323904D02*
X110822523Y-76523904D01*
X111089190Y-77095333D01*
X111355857Y-76523904D01*
X111355857Y-77323904D01*
X111736809Y-77323904D02*
X111736809Y-76523904D01*
X112727285Y-77323904D02*
X112727285Y-76523904D01*
X112727285Y-76828666D02*
X112803476Y-76790571D01*
X112955857Y-76790571D01*
X113032047Y-76828666D01*
X113070142Y-76866761D01*
X113108238Y-76942952D01*
X113108238Y-77171523D01*
X113070142Y-77247714D01*
X113032047Y-77285809D01*
X112955857Y-77323904D01*
X112803476Y-77323904D01*
X112727285Y-77285809D01*
X113374904Y-76790571D02*
X113565380Y-77323904D01*
X113755857Y-76790571D02*
X113565380Y-77323904D01*
X113489190Y-77514380D01*
X113451095Y-77552476D01*
X113374904Y-77590571D01*
X114670142Y-77323904D02*
X114670142Y-76523904D01*
X115013000Y-77323904D02*
X115013000Y-76904857D01*
X114974904Y-76828666D01*
X114898714Y-76790571D01*
X114784428Y-76790571D01*
X114708238Y-76828666D01*
X114670142Y-76866761D01*
X115508238Y-77323904D02*
X115432047Y-77285809D01*
X115393952Y-77247714D01*
X115355857Y-77171523D01*
X115355857Y-76942952D01*
X115393952Y-76866761D01*
X115432047Y-76828666D01*
X115508238Y-76790571D01*
X115622523Y-76790571D01*
X115698714Y-76828666D01*
X115736809Y-76866761D01*
X115774904Y-76942952D01*
X115774904Y-77171523D01*
X115736809Y-77247714D01*
X115698714Y-77285809D01*
X115622523Y-77323904D01*
X115508238Y-77323904D01*
X116460619Y-76790571D02*
X116460619Y-77438190D01*
X116422523Y-77514380D01*
X116384428Y-77552476D01*
X116308238Y-77590571D01*
X116193952Y-77590571D01*
X116117761Y-77552476D01*
X116460619Y-77285809D02*
X116384428Y-77323904D01*
X116232047Y-77323904D01*
X116155857Y-77285809D01*
X116117761Y-77247714D01*
X116079666Y-77171523D01*
X116079666Y-76942952D01*
X116117761Y-76866761D01*
X116155857Y-76828666D01*
X116232047Y-76790571D01*
X116384428Y-76790571D01*
X116460619Y-76828666D01*
X116955857Y-77323904D02*
X116879666Y-77285809D01*
X116841571Y-77209619D01*
X116841571Y-76523904D01*
X117565380Y-77285809D02*
X117489190Y-77323904D01*
X117336809Y-77323904D01*
X117260619Y-77285809D01*
X117222523Y-77209619D01*
X117222523Y-76904857D01*
X117260619Y-76828666D01*
X117336809Y-76790571D01*
X117489190Y-76790571D01*
X117565380Y-76828666D01*
X117603476Y-76904857D01*
X117603476Y-76981047D01*
X117222523Y-77057238D01*
X117832047Y-76790571D02*
X118136809Y-76790571D01*
X117946333Y-76523904D02*
X117946333Y-77209619D01*
X117984428Y-77285809D01*
X118060619Y-77323904D01*
X118136809Y-77323904D01*
X118746333Y-76523904D02*
X118593952Y-76523904D01*
X118517761Y-76562000D01*
X118479666Y-76600095D01*
X118403476Y-76714380D01*
X118365380Y-76866761D01*
X118365380Y-77171523D01*
X118403476Y-77247714D01*
X118441571Y-77285809D01*
X118517761Y-77323904D01*
X118670142Y-77323904D01*
X118746333Y-77285809D01*
X118784428Y-77247714D01*
X118822523Y-77171523D01*
X118822523Y-76981047D01*
X118784428Y-76904857D01*
X118746333Y-76866761D01*
X118670142Y-76828666D01*
X118517761Y-76828666D01*
X118441571Y-76866761D01*
X118403476Y-76904857D01*
X118365380Y-76981047D01*
X119089190Y-76523904D02*
X119622523Y-76523904D01*
X119279666Y-77323904D01*
X120765380Y-77628666D02*
X120727285Y-77590571D01*
X120651095Y-77476285D01*
X120613000Y-77400095D01*
X120574904Y-77285809D01*
X120536809Y-77095333D01*
X120536809Y-76942952D01*
X120574904Y-76752476D01*
X120613000Y-76638190D01*
X120651095Y-76562000D01*
X120727285Y-76447714D01*
X120765380Y-76409619D01*
X121070142Y-77323904D02*
X121070142Y-76523904D01*
X121413000Y-77323904D02*
X121413000Y-76904857D01*
X121374904Y-76828666D01*
X121298714Y-76790571D01*
X121184428Y-76790571D01*
X121108238Y-76828666D01*
X121070142Y-76866761D01*
X121679666Y-76790571D02*
X121984428Y-76790571D01*
X121793952Y-76523904D02*
X121793952Y-77209619D01*
X121832047Y-77285809D01*
X121908238Y-77323904D01*
X121984428Y-77323904D01*
X122136809Y-76790571D02*
X122441571Y-76790571D01*
X122251095Y-76523904D02*
X122251095Y-77209619D01*
X122289190Y-77285809D01*
X122365380Y-77323904D01*
X122441571Y-77323904D01*
X122708238Y-76790571D02*
X122708238Y-77590571D01*
X122708238Y-76828666D02*
X122784428Y-76790571D01*
X122936809Y-76790571D01*
X123013000Y-76828666D01*
X123051095Y-76866761D01*
X123089190Y-76942952D01*
X123089190Y-77171523D01*
X123051095Y-77247714D01*
X123013000Y-77285809D01*
X122936809Y-77323904D01*
X122784428Y-77323904D01*
X122708238Y-77285809D01*
X123393952Y-77285809D02*
X123470142Y-77323904D01*
X123622523Y-77323904D01*
X123698714Y-77285809D01*
X123736809Y-77209619D01*
X123736809Y-77171523D01*
X123698714Y-77095333D01*
X123622523Y-77057238D01*
X123508238Y-77057238D01*
X123432047Y-77019142D01*
X123393952Y-76942952D01*
X123393952Y-76904857D01*
X123432047Y-76828666D01*
X123508238Y-76790571D01*
X123622523Y-76790571D01*
X123698714Y-76828666D01*
X124079666Y-77247714D02*
X124117761Y-77285809D01*
X124079666Y-77323904D01*
X124041571Y-77285809D01*
X124079666Y-77247714D01*
X124079666Y-77323904D01*
X124079666Y-76828666D02*
X124117761Y-76866761D01*
X124079666Y-76904857D01*
X124041571Y-76866761D01*
X124079666Y-76828666D01*
X124079666Y-76904857D01*
X125032047Y-76485809D02*
X124346333Y-77514380D01*
X125870142Y-76485809D02*
X125184428Y-77514380D01*
X126479666Y-76790571D02*
X126479666Y-77438190D01*
X126441571Y-77514380D01*
X126403476Y-77552476D01*
X126327285Y-77590571D01*
X126213000Y-77590571D01*
X126136809Y-77552476D01*
X126479666Y-77285809D02*
X126403476Y-77323904D01*
X126251095Y-77323904D01*
X126174904Y-77285809D01*
X126136809Y-77247714D01*
X126098714Y-77171523D01*
X126098714Y-76942952D01*
X126136809Y-76866761D01*
X126174904Y-76828666D01*
X126251095Y-76790571D01*
X126403476Y-76790571D01*
X126479666Y-76828666D01*
X126860619Y-77323904D02*
X126860619Y-76790571D01*
X126860619Y-76523904D02*
X126822523Y-76562000D01*
X126860619Y-76600095D01*
X126898714Y-76562000D01*
X126860619Y-76523904D01*
X126860619Y-76600095D01*
X127127285Y-76790571D02*
X127432047Y-76790571D01*
X127241571Y-76523904D02*
X127241571Y-77209619D01*
X127279666Y-77285809D01*
X127355857Y-77323904D01*
X127432047Y-77323904D01*
X127698714Y-77323904D02*
X127698714Y-76523904D01*
X128041571Y-77323904D02*
X128041571Y-76904857D01*
X128003476Y-76828666D01*
X127927285Y-76790571D01*
X127813000Y-76790571D01*
X127736809Y-76828666D01*
X127698714Y-76866761D01*
X128765380Y-76790571D02*
X128765380Y-77323904D01*
X128422523Y-76790571D02*
X128422523Y-77209619D01*
X128460619Y-77285809D01*
X128536809Y-77323904D01*
X128651095Y-77323904D01*
X128727285Y-77285809D01*
X128765380Y-77247714D01*
X129146333Y-77323904D02*
X129146333Y-76523904D01*
X129146333Y-76828666D02*
X129222523Y-76790571D01*
X129374904Y-76790571D01*
X129451095Y-76828666D01*
X129489190Y-76866761D01*
X129527285Y-76942952D01*
X129527285Y-77171523D01*
X129489190Y-77247714D01*
X129451095Y-77285809D01*
X129374904Y-77323904D01*
X129222523Y-77323904D01*
X129146333Y-77285809D01*
X129870142Y-77247714D02*
X129908238Y-77285809D01*
X129870142Y-77323904D01*
X129832047Y-77285809D01*
X129870142Y-77247714D01*
X129870142Y-77323904D01*
X130593952Y-77285809D02*
X130517761Y-77323904D01*
X130365380Y-77323904D01*
X130289190Y-77285809D01*
X130251095Y-77247714D01*
X130213000Y-77171523D01*
X130213000Y-76942952D01*
X130251095Y-76866761D01*
X130289190Y-76828666D01*
X130365380Y-76790571D01*
X130517761Y-76790571D01*
X130593952Y-76828666D01*
X131051095Y-77323904D02*
X130974904Y-77285809D01*
X130936809Y-77247714D01*
X130898714Y-77171523D01*
X130898714Y-76942952D01*
X130936809Y-76866761D01*
X130974904Y-76828666D01*
X131051095Y-76790571D01*
X131165380Y-76790571D01*
X131241571Y-76828666D01*
X131279666Y-76866761D01*
X131317761Y-76942952D01*
X131317761Y-77171523D01*
X131279666Y-77247714D01*
X131241571Y-77285809D01*
X131165380Y-77323904D01*
X131051095Y-77323904D01*
X131660619Y-77323904D02*
X131660619Y-76790571D01*
X131660619Y-76866761D02*
X131698714Y-76828666D01*
X131774904Y-76790571D01*
X131889190Y-76790571D01*
X131965380Y-76828666D01*
X132003476Y-76904857D01*
X132003476Y-77323904D01*
X132003476Y-76904857D02*
X132041571Y-76828666D01*
X132117761Y-76790571D01*
X132232047Y-76790571D01*
X132308238Y-76828666D01*
X132346333Y-76904857D01*
X132346333Y-77323904D01*
X133298714Y-76485809D02*
X132613000Y-77514380D01*
X133565380Y-77323904D02*
X133565380Y-76523904D01*
X133908238Y-77323904D02*
X133908238Y-76904857D01*
X133870142Y-76828666D01*
X133793952Y-76790571D01*
X133679666Y-76790571D01*
X133603476Y-76828666D01*
X133565380Y-76866761D01*
X134403476Y-77323904D02*
X134327285Y-77285809D01*
X134289190Y-77247714D01*
X134251095Y-77171523D01*
X134251095Y-76942952D01*
X134289190Y-76866761D01*
X134327285Y-76828666D01*
X134403476Y-76790571D01*
X134517761Y-76790571D01*
X134593952Y-76828666D01*
X134632047Y-76866761D01*
X134670142Y-76942952D01*
X134670142Y-77171523D01*
X134632047Y-77247714D01*
X134593952Y-77285809D01*
X134517761Y-77323904D01*
X134403476Y-77323904D01*
X135355857Y-76790571D02*
X135355857Y-77438190D01*
X135317761Y-77514380D01*
X135279666Y-77552476D01*
X135203476Y-77590571D01*
X135089190Y-77590571D01*
X135013000Y-77552476D01*
X135355857Y-77285809D02*
X135279666Y-77323904D01*
X135127285Y-77323904D01*
X135051095Y-77285809D01*
X135013000Y-77247714D01*
X134974904Y-77171523D01*
X134974904Y-76942952D01*
X135013000Y-76866761D01*
X135051095Y-76828666D01*
X135127285Y-76790571D01*
X135279666Y-76790571D01*
X135355857Y-76828666D01*
X135851095Y-77323904D02*
X135774904Y-77285809D01*
X135736809Y-77209619D01*
X135736809Y-76523904D01*
X136460619Y-77285809D02*
X136384428Y-77323904D01*
X136232047Y-77323904D01*
X136155857Y-77285809D01*
X136117761Y-77209619D01*
X136117761Y-76904857D01*
X136155857Y-76828666D01*
X136232047Y-76790571D01*
X136384428Y-76790571D01*
X136460619Y-76828666D01*
X136498714Y-76904857D01*
X136498714Y-76981047D01*
X136117761Y-77057238D01*
X136727285Y-76790571D02*
X137032047Y-76790571D01*
X136841571Y-76523904D02*
X136841571Y-77209619D01*
X136879666Y-77285809D01*
X136955857Y-77323904D01*
X137032047Y-77323904D01*
X137641571Y-76523904D02*
X137489190Y-76523904D01*
X137413000Y-76562000D01*
X137374904Y-76600095D01*
X137298714Y-76714380D01*
X137260619Y-76866761D01*
X137260619Y-77171523D01*
X137298714Y-77247714D01*
X137336809Y-77285809D01*
X137413000Y-77323904D01*
X137565380Y-77323904D01*
X137641571Y-77285809D01*
X137679666Y-77247714D01*
X137717761Y-77171523D01*
X137717761Y-76981047D01*
X137679666Y-76904857D01*
X137641571Y-76866761D01*
X137565380Y-76828666D01*
X137413000Y-76828666D01*
X137336809Y-76866761D01*
X137298714Y-76904857D01*
X137260619Y-76981047D01*
X137984428Y-76523904D02*
X138517761Y-76523904D01*
X138174904Y-77323904D01*
X139393952Y-76485809D02*
X138708238Y-77514380D01*
X140117761Y-77323904D02*
X139851095Y-76942952D01*
X139660619Y-77323904D02*
X139660619Y-76523904D01*
X139965380Y-76523904D01*
X140041571Y-76562000D01*
X140079666Y-76600095D01*
X140117761Y-76676285D01*
X140117761Y-76790571D01*
X140079666Y-76866761D01*
X140041571Y-76904857D01*
X139965380Y-76942952D01*
X139660619Y-76942952D01*
X140879666Y-76562000D02*
X140803476Y-76523904D01*
X140689190Y-76523904D01*
X140574904Y-76562000D01*
X140498714Y-76638190D01*
X140460619Y-76714380D01*
X140422523Y-76866761D01*
X140422523Y-76981047D01*
X140460619Y-77133428D01*
X140498714Y-77209619D01*
X140574904Y-77285809D01*
X140689190Y-77323904D01*
X140765380Y-77323904D01*
X140879666Y-77285809D01*
X140917761Y-77247714D01*
X140917761Y-76981047D01*
X140765380Y-76981047D01*
X141527285Y-76904857D02*
X141641571Y-76942952D01*
X141679666Y-76981047D01*
X141717761Y-77057238D01*
X141717761Y-77171523D01*
X141679666Y-77247714D01*
X141641571Y-77285809D01*
X141565380Y-77323904D01*
X141260619Y-77323904D01*
X141260619Y-76523904D01*
X141527285Y-76523904D01*
X141603476Y-76562000D01*
X141641571Y-76600095D01*
X141679666Y-76676285D01*
X141679666Y-76752476D01*
X141641571Y-76828666D01*
X141603476Y-76866761D01*
X141527285Y-76904857D01*
X141260619Y-76904857D01*
X141946333Y-76790571D02*
X142251095Y-76790571D01*
X142060619Y-76523904D02*
X142060619Y-77209619D01*
X142098714Y-77285809D01*
X142174904Y-77323904D01*
X142251095Y-77323904D01*
X142632047Y-77323904D02*
X142555857Y-77285809D01*
X142517761Y-77247714D01*
X142479666Y-77171523D01*
X142479666Y-76942952D01*
X142517761Y-76866761D01*
X142555857Y-76828666D01*
X142632047Y-76790571D01*
X142746333Y-76790571D01*
X142822523Y-76828666D01*
X142860619Y-76866761D01*
X142898714Y-76942952D01*
X142898714Y-77171523D01*
X142860619Y-77247714D01*
X142822523Y-77285809D01*
X142746333Y-77323904D01*
X142632047Y-77323904D01*
X143241571Y-77323904D02*
X143241571Y-76523904D01*
X143241571Y-76904857D02*
X143698714Y-76904857D01*
X143698714Y-77323904D02*
X143698714Y-76523904D01*
X144079666Y-77323904D02*
X144079666Y-76523904D01*
X144270142Y-76523904D01*
X144384428Y-76562000D01*
X144460619Y-76638190D01*
X144498714Y-76714380D01*
X144536809Y-76866761D01*
X144536809Y-76981047D01*
X144498714Y-77133428D01*
X144460619Y-77209619D01*
X144384428Y-77285809D01*
X144270142Y-77323904D01*
X144079666Y-77323904D01*
X144879666Y-77323904D02*
X144879666Y-76523904D01*
X145146333Y-77095333D01*
X145413000Y-76523904D01*
X145413000Y-77323904D01*
X145793952Y-77323904D02*
X145793952Y-76523904D01*
X146098714Y-77628666D02*
X146136809Y-77590571D01*
X146213000Y-77476285D01*
X146251095Y-77400095D01*
X146289190Y-77285809D01*
X146327285Y-77095333D01*
X146327285Y-76942952D01*
X146289190Y-76752476D01*
X146251095Y-76638190D01*
X146213000Y-76562000D01*
X146136809Y-76447714D01*
X146098714Y-76409619D01*
X105565380Y-78495333D02*
X105946333Y-78495333D01*
X105489190Y-78723904D02*
X105755857Y-77923904D01*
X106022523Y-78723904D01*
X106289190Y-78723904D02*
X106289190Y-78190571D01*
X106289190Y-78266761D02*
X106327285Y-78228666D01*
X106403476Y-78190571D01*
X106517761Y-78190571D01*
X106593952Y-78228666D01*
X106632047Y-78304857D01*
X106632047Y-78723904D01*
X106632047Y-78304857D02*
X106670142Y-78228666D01*
X106746333Y-78190571D01*
X106860619Y-78190571D01*
X106936809Y-78228666D01*
X106974904Y-78304857D01*
X106974904Y-78723904D01*
X107355857Y-78723904D02*
X107355857Y-78190571D01*
X107355857Y-77923904D02*
X107317761Y-77962000D01*
X107355857Y-78000095D01*
X107393952Y-77962000D01*
X107355857Y-77923904D01*
X107355857Y-78000095D01*
X108079666Y-78190571D02*
X108079666Y-78838190D01*
X108041571Y-78914380D01*
X108003476Y-78952476D01*
X107927285Y-78990571D01*
X107813000Y-78990571D01*
X107736809Y-78952476D01*
X108079666Y-78685809D02*
X108003476Y-78723904D01*
X107851095Y-78723904D01*
X107774904Y-78685809D01*
X107736809Y-78647714D01*
X107698714Y-78571523D01*
X107698714Y-78342952D01*
X107736809Y-78266761D01*
X107774904Y-78228666D01*
X107851095Y-78190571D01*
X108003476Y-78190571D01*
X108079666Y-78228666D01*
X108803476Y-78723904D02*
X108803476Y-78304857D01*
X108765380Y-78228666D01*
X108689190Y-78190571D01*
X108536809Y-78190571D01*
X108460619Y-78228666D01*
X108803476Y-78685809D02*
X108727285Y-78723904D01*
X108536809Y-78723904D01*
X108460619Y-78685809D01*
X108422523Y-78609619D01*
X108422523Y-78533428D01*
X108460619Y-78457238D01*
X108536809Y-78419142D01*
X108727285Y-78419142D01*
X108803476Y-78381047D01*
X109793952Y-78723904D02*
X109793952Y-77923904D01*
X109984428Y-77923904D01*
X110098714Y-77962000D01*
X110174904Y-78038190D01*
X110213000Y-78114380D01*
X110251095Y-78266761D01*
X110251095Y-78381047D01*
X110213000Y-78533428D01*
X110174904Y-78609619D01*
X110098714Y-78685809D01*
X109984428Y-78723904D01*
X109793952Y-78723904D01*
X110898714Y-78685809D02*
X110822523Y-78723904D01*
X110670142Y-78723904D01*
X110593952Y-78685809D01*
X110555857Y-78609619D01*
X110555857Y-78304857D01*
X110593952Y-78228666D01*
X110670142Y-78190571D01*
X110822523Y-78190571D01*
X110898714Y-78228666D01*
X110936809Y-78304857D01*
X110936809Y-78381047D01*
X110555857Y-78457238D01*
X111279666Y-78190571D02*
X111279666Y-78723904D01*
X111279666Y-78266761D02*
X111317761Y-78228666D01*
X111393952Y-78190571D01*
X111508238Y-78190571D01*
X111584428Y-78228666D01*
X111622523Y-78304857D01*
X111622523Y-78723904D01*
X112003476Y-78723904D02*
X112003476Y-78190571D01*
X112003476Y-77923904D02*
X111965380Y-77962000D01*
X112003476Y-78000095D01*
X112041571Y-77962000D01*
X112003476Y-77923904D01*
X112003476Y-78000095D01*
X112346333Y-78685809D02*
X112422523Y-78723904D01*
X112574904Y-78723904D01*
X112651095Y-78685809D01*
X112689190Y-78609619D01*
X112689190Y-78571523D01*
X112651095Y-78495333D01*
X112574904Y-78457238D01*
X112460619Y-78457238D01*
X112384428Y-78419142D01*
X112346333Y-78342952D01*
X112346333Y-78304857D01*
X112384428Y-78228666D01*
X112460619Y-78190571D01*
X112574904Y-78190571D01*
X112651095Y-78228666D01*
X113336809Y-78685809D02*
X113260619Y-78723904D01*
X113108238Y-78723904D01*
X113032047Y-78685809D01*
X112993952Y-78609619D01*
X112993952Y-78304857D01*
X113032047Y-78228666D01*
X113108238Y-78190571D01*
X113260619Y-78190571D01*
X113336809Y-78228666D01*
X113374904Y-78304857D01*
X113374904Y-78381047D01*
X112993952Y-78457238D01*
X114670142Y-78723904D02*
X114670142Y-78304857D01*
X114632047Y-78228666D01*
X114555857Y-78190571D01*
X114403476Y-78190571D01*
X114327285Y-78228666D01*
X114670142Y-78685809D02*
X114593952Y-78723904D01*
X114403476Y-78723904D01*
X114327285Y-78685809D01*
X114289190Y-78609619D01*
X114289190Y-78533428D01*
X114327285Y-78457238D01*
X114403476Y-78419142D01*
X114593952Y-78419142D01*
X114670142Y-78381047D01*
X115393952Y-78723904D02*
X115393952Y-77923904D01*
X115393952Y-78685809D02*
X115317761Y-78723904D01*
X115165380Y-78723904D01*
X115089190Y-78685809D01*
X115051095Y-78647714D01*
X115013000Y-78571523D01*
X115013000Y-78342952D01*
X115051095Y-78266761D01*
X115089190Y-78228666D01*
X115165380Y-78190571D01*
X115317761Y-78190571D01*
X115393952Y-78228666D01*
X116117761Y-78723904D02*
X116117761Y-78304857D01*
X116079666Y-78228666D01*
X116003476Y-78190571D01*
X115851095Y-78190571D01*
X115774904Y-78228666D01*
X116117761Y-78685809D02*
X116041571Y-78723904D01*
X115851095Y-78723904D01*
X115774904Y-78685809D01*
X115736809Y-78609619D01*
X115736809Y-78533428D01*
X115774904Y-78457238D01*
X115851095Y-78419142D01*
X116041571Y-78419142D01*
X116117761Y-78381047D01*
X116498714Y-78190571D02*
X116498714Y-78990571D01*
X116498714Y-78228666D02*
X116574904Y-78190571D01*
X116727285Y-78190571D01*
X116803476Y-78228666D01*
X116841571Y-78266761D01*
X116879666Y-78342952D01*
X116879666Y-78571523D01*
X116841571Y-78647714D01*
X116803476Y-78685809D01*
X116727285Y-78723904D01*
X116574904Y-78723904D01*
X116498714Y-78685809D01*
X117108238Y-78190571D02*
X117413000Y-78190571D01*
X117222523Y-77923904D02*
X117222523Y-78609619D01*
X117260619Y-78685809D01*
X117336809Y-78723904D01*
X117413000Y-78723904D01*
X117984428Y-78685809D02*
X117908238Y-78723904D01*
X117755857Y-78723904D01*
X117679666Y-78685809D01*
X117641571Y-78609619D01*
X117641571Y-78304857D01*
X117679666Y-78228666D01*
X117755857Y-78190571D01*
X117908238Y-78190571D01*
X117984428Y-78228666D01*
X118022523Y-78304857D01*
X118022523Y-78381047D01*
X117641571Y-78457238D01*
X118365380Y-78723904D02*
X118365380Y-78190571D01*
X118365380Y-78342952D02*
X118403476Y-78266761D01*
X118441571Y-78228666D01*
X118517761Y-78190571D01*
X118593952Y-78190571D01*
X119470142Y-78723904D02*
X119470142Y-77923904D01*
X119470142Y-78228666D02*
X119546333Y-78190571D01*
X119698714Y-78190571D01*
X119774904Y-78228666D01*
X119813000Y-78266761D01*
X119851095Y-78342952D01*
X119851095Y-78571523D01*
X119813000Y-78647714D01*
X119774904Y-78685809D01*
X119698714Y-78723904D01*
X119546333Y-78723904D01*
X119470142Y-78685809D01*
X120117761Y-78190571D02*
X120308238Y-78723904D01*
X120498714Y-78190571D02*
X120308238Y-78723904D01*
X120232047Y-78914380D01*
X120193952Y-78952476D01*
X120117761Y-78990571D01*
X121755857Y-78685809D02*
X121679666Y-78723904D01*
X121527285Y-78723904D01*
X121451095Y-78685809D01*
X121413000Y-78647714D01*
X121374904Y-78571523D01*
X121374904Y-78342952D01*
X121413000Y-78266761D01*
X121451095Y-78228666D01*
X121527285Y-78190571D01*
X121679666Y-78190571D01*
X121755857Y-78228666D01*
X122251095Y-77923904D02*
X122327285Y-77923904D01*
X122403476Y-77962000D01*
X122441571Y-78000095D01*
X122479666Y-78076285D01*
X122517761Y-78228666D01*
X122517761Y-78419142D01*
X122479666Y-78571523D01*
X122441571Y-78647714D01*
X122403476Y-78685809D01*
X122327285Y-78723904D01*
X122251095Y-78723904D01*
X122174904Y-78685809D01*
X122136809Y-78647714D01*
X122098714Y-78571523D01*
X122060619Y-78419142D01*
X122060619Y-78228666D01*
X122098714Y-78076285D01*
X122136809Y-78000095D01*
X122174904Y-77962000D01*
X122251095Y-77923904D01*
X122860619Y-78190571D02*
X122860619Y-78990571D01*
X122860619Y-78228666D02*
X122936809Y-78190571D01*
X123089190Y-78190571D01*
X123165380Y-78228666D01*
X123203476Y-78266761D01*
X123241571Y-78342952D01*
X123241571Y-78571523D01*
X123203476Y-78647714D01*
X123165380Y-78685809D01*
X123089190Y-78723904D01*
X122936809Y-78723904D01*
X122860619Y-78685809D01*
X123584428Y-78190571D02*
X123584428Y-78990571D01*
X123584428Y-78228666D02*
X123660619Y-78190571D01*
X123813000Y-78190571D01*
X123889190Y-78228666D01*
X123927285Y-78266761D01*
X123965380Y-78342952D01*
X123965380Y-78571523D01*
X123927285Y-78647714D01*
X123889190Y-78685809D01*
X123813000Y-78723904D01*
X123660619Y-78723904D01*
X123584428Y-78685809D01*
X124613000Y-78685809D02*
X124536809Y-78723904D01*
X124384428Y-78723904D01*
X124308238Y-78685809D01*
X124270142Y-78609619D01*
X124270142Y-78304857D01*
X124308238Y-78228666D01*
X124384428Y-78190571D01*
X124536809Y-78190571D01*
X124613000Y-78228666D01*
X124651095Y-78304857D01*
X124651095Y-78381047D01*
X124270142Y-78457238D01*
X124993952Y-78723904D02*
X124993952Y-78190571D01*
X124993952Y-78342952D02*
X125032047Y-78266761D01*
X125070142Y-78228666D01*
X125146333Y-78190571D01*
X125222523Y-78190571D01*
X125832047Y-78723904D02*
X125832047Y-77923904D01*
X125832047Y-78685809D02*
X125755857Y-78723904D01*
X125603476Y-78723904D01*
X125527285Y-78685809D01*
X125489190Y-78647714D01*
X125451095Y-78571523D01*
X125451095Y-78342952D01*
X125489190Y-78266761D01*
X125527285Y-78228666D01*
X125603476Y-78190571D01*
X125755857Y-78190571D01*
X125832047Y-78228666D01*
X126213000Y-78723904D02*
X126213000Y-78190571D01*
X126213000Y-78342952D02*
X126251095Y-78266761D01*
X126289190Y-78228666D01*
X126365380Y-78190571D01*
X126441571Y-78190571D01*
X127051095Y-78723904D02*
X127051095Y-78304857D01*
X127013000Y-78228666D01*
X126936809Y-78190571D01*
X126784428Y-78190571D01*
X126708238Y-78228666D01*
X127051095Y-78685809D02*
X126974904Y-78723904D01*
X126784428Y-78723904D01*
X126708238Y-78685809D01*
X126670142Y-78609619D01*
X126670142Y-78533428D01*
X126708238Y-78457238D01*
X126784428Y-78419142D01*
X126974904Y-78419142D01*
X127051095Y-78381047D01*
X127774904Y-78190571D02*
X127774904Y-78838190D01*
X127736809Y-78914380D01*
X127698714Y-78952476D01*
X127622523Y-78990571D01*
X127508238Y-78990571D01*
X127432047Y-78952476D01*
X127774904Y-78685809D02*
X127698714Y-78723904D01*
X127546333Y-78723904D01*
X127470142Y-78685809D01*
X127432047Y-78647714D01*
X127393952Y-78571523D01*
X127393952Y-78342952D01*
X127432047Y-78266761D01*
X127470142Y-78228666D01*
X127546333Y-78190571D01*
X127698714Y-78190571D01*
X127774904Y-78228666D01*
X128270142Y-78723904D02*
X128193952Y-78685809D01*
X128155857Y-78647714D01*
X128117761Y-78571523D01*
X128117761Y-78342952D01*
X128155857Y-78266761D01*
X128193952Y-78228666D01*
X128270142Y-78190571D01*
X128384428Y-78190571D01*
X128460619Y-78228666D01*
X128498714Y-78266761D01*
X128536809Y-78342952D01*
X128536809Y-78571523D01*
X128498714Y-78647714D01*
X128460619Y-78685809D01*
X128384428Y-78723904D01*
X128270142Y-78723904D01*
X128879666Y-78190571D02*
X128879666Y-78723904D01*
X128879666Y-78266761D02*
X128917761Y-78228666D01*
X128993952Y-78190571D01*
X129108238Y-78190571D01*
X129184428Y-78228666D01*
X129222523Y-78304857D01*
X129222523Y-78723904D01*
X130441571Y-79028666D02*
X130403476Y-78990571D01*
X130327285Y-78876285D01*
X130289190Y-78800095D01*
X130251095Y-78685809D01*
X130213000Y-78495333D01*
X130213000Y-78342952D01*
X130251095Y-78152476D01*
X130289190Y-78038190D01*
X130327285Y-77962000D01*
X130403476Y-77847714D01*
X130441571Y-77809619D01*
X130746333Y-78723904D02*
X130746333Y-77923904D01*
X131089190Y-78723904D02*
X131089190Y-78304857D01*
X131051095Y-78228666D01*
X130974904Y-78190571D01*
X130860619Y-78190571D01*
X130784428Y-78228666D01*
X130746333Y-78266761D01*
X131355857Y-78190571D02*
X131660619Y-78190571D01*
X131470142Y-77923904D02*
X131470142Y-78609619D01*
X131508238Y-78685809D01*
X131584428Y-78723904D01*
X131660619Y-78723904D01*
X131813000Y-78190571D02*
X132117761Y-78190571D01*
X131927285Y-77923904D02*
X131927285Y-78609619D01*
X131965380Y-78685809D01*
X132041571Y-78723904D01*
X132117761Y-78723904D01*
X132384428Y-78190571D02*
X132384428Y-78990571D01*
X132384428Y-78228666D02*
X132460619Y-78190571D01*
X132613000Y-78190571D01*
X132689190Y-78228666D01*
X132727285Y-78266761D01*
X132765380Y-78342952D01*
X132765380Y-78571523D01*
X132727285Y-78647714D01*
X132689190Y-78685809D01*
X132613000Y-78723904D01*
X132460619Y-78723904D01*
X132384428Y-78685809D01*
X133070142Y-78685809D02*
X133146333Y-78723904D01*
X133298714Y-78723904D01*
X133374904Y-78685809D01*
X133413000Y-78609619D01*
X133413000Y-78571523D01*
X133374904Y-78495333D01*
X133298714Y-78457238D01*
X133184428Y-78457238D01*
X133108238Y-78419142D01*
X133070142Y-78342952D01*
X133070142Y-78304857D01*
X133108238Y-78228666D01*
X133184428Y-78190571D01*
X133298714Y-78190571D01*
X133374904Y-78228666D01*
X133755857Y-78647714D02*
X133793952Y-78685809D01*
X133755857Y-78723904D01*
X133717761Y-78685809D01*
X133755857Y-78647714D01*
X133755857Y-78723904D01*
X133755857Y-78228666D02*
X133793952Y-78266761D01*
X133755857Y-78304857D01*
X133717761Y-78266761D01*
X133755857Y-78228666D01*
X133755857Y-78304857D01*
X134708238Y-77885809D02*
X134022523Y-78914380D01*
X135546333Y-77885809D02*
X134860619Y-78914380D01*
X136155857Y-78190571D02*
X136155857Y-78838190D01*
X136117761Y-78914380D01*
X136079666Y-78952476D01*
X136003476Y-78990571D01*
X135889190Y-78990571D01*
X135813000Y-78952476D01*
X136155857Y-78685809D02*
X136079666Y-78723904D01*
X135927285Y-78723904D01*
X135851095Y-78685809D01*
X135813000Y-78647714D01*
X135774904Y-78571523D01*
X135774904Y-78342952D01*
X135813000Y-78266761D01*
X135851095Y-78228666D01*
X135927285Y-78190571D01*
X136079666Y-78190571D01*
X136155857Y-78228666D01*
X136536809Y-78723904D02*
X136536809Y-78190571D01*
X136536809Y-77923904D02*
X136498714Y-77962000D01*
X136536809Y-78000095D01*
X136574904Y-77962000D01*
X136536809Y-77923904D01*
X136536809Y-78000095D01*
X136803476Y-78190571D02*
X137108238Y-78190571D01*
X136917761Y-77923904D02*
X136917761Y-78609619D01*
X136955857Y-78685809D01*
X137032047Y-78723904D01*
X137108238Y-78723904D01*
X137374904Y-78723904D02*
X137374904Y-77923904D01*
X137717761Y-78723904D02*
X137717761Y-78304857D01*
X137679666Y-78228666D01*
X137603476Y-78190571D01*
X137489190Y-78190571D01*
X137413000Y-78228666D01*
X137374904Y-78266761D01*
X138441571Y-78190571D02*
X138441571Y-78723904D01*
X138098714Y-78190571D02*
X138098714Y-78609619D01*
X138136809Y-78685809D01*
X138213000Y-78723904D01*
X138327285Y-78723904D01*
X138403476Y-78685809D01*
X138441571Y-78647714D01*
X138822523Y-78723904D02*
X138822523Y-77923904D01*
X138822523Y-78228666D02*
X138898714Y-78190571D01*
X139051095Y-78190571D01*
X139127285Y-78228666D01*
X139165380Y-78266761D01*
X139203476Y-78342952D01*
X139203476Y-78571523D01*
X139165380Y-78647714D01*
X139127285Y-78685809D01*
X139051095Y-78723904D01*
X138898714Y-78723904D01*
X138822523Y-78685809D01*
X139546333Y-78647714D02*
X139584428Y-78685809D01*
X139546333Y-78723904D01*
X139508238Y-78685809D01*
X139546333Y-78647714D01*
X139546333Y-78723904D01*
X140270142Y-78685809D02*
X140193952Y-78723904D01*
X140041571Y-78723904D01*
X139965380Y-78685809D01*
X139927285Y-78647714D01*
X139889190Y-78571523D01*
X139889190Y-78342952D01*
X139927285Y-78266761D01*
X139965380Y-78228666D01*
X140041571Y-78190571D01*
X140193952Y-78190571D01*
X140270142Y-78228666D01*
X140727285Y-78723904D02*
X140651095Y-78685809D01*
X140613000Y-78647714D01*
X140574904Y-78571523D01*
X140574904Y-78342952D01*
X140613000Y-78266761D01*
X140651095Y-78228666D01*
X140727285Y-78190571D01*
X140841571Y-78190571D01*
X140917761Y-78228666D01*
X140955857Y-78266761D01*
X140993952Y-78342952D01*
X140993952Y-78571523D01*
X140955857Y-78647714D01*
X140917761Y-78685809D01*
X140841571Y-78723904D01*
X140727285Y-78723904D01*
X141336809Y-78723904D02*
X141336809Y-78190571D01*
X141336809Y-78266761D02*
X141374904Y-78228666D01*
X141451095Y-78190571D01*
X141565380Y-78190571D01*
X141641571Y-78228666D01*
X141679666Y-78304857D01*
X141679666Y-78723904D01*
X141679666Y-78304857D02*
X141717761Y-78228666D01*
X141793952Y-78190571D01*
X141908238Y-78190571D01*
X141984428Y-78228666D01*
X142022523Y-78304857D01*
X142022523Y-78723904D01*
X142974904Y-77885809D02*
X142289190Y-78914380D01*
X143584428Y-78685809D02*
X143508238Y-78723904D01*
X143355857Y-78723904D01*
X143279666Y-78685809D01*
X143241571Y-78647714D01*
X143203476Y-78571523D01*
X143203476Y-78342952D01*
X143241571Y-78266761D01*
X143279666Y-78228666D01*
X143355857Y-78190571D01*
X143508238Y-78190571D01*
X143584428Y-78228666D01*
X144079666Y-77923904D02*
X144155857Y-77923904D01*
X144232047Y-77962000D01*
X144270142Y-78000095D01*
X144308238Y-78076285D01*
X144346333Y-78228666D01*
X144346333Y-78419142D01*
X144308238Y-78571523D01*
X144270142Y-78647714D01*
X144232047Y-78685809D01*
X144155857Y-78723904D01*
X144079666Y-78723904D01*
X144003476Y-78685809D01*
X143965380Y-78647714D01*
X143927285Y-78571523D01*
X143889190Y-78419142D01*
X143889190Y-78228666D01*
X143927285Y-78076285D01*
X143965380Y-78000095D01*
X144003476Y-77962000D01*
X144079666Y-77923904D01*
X144689190Y-78190571D02*
X144689190Y-78990571D01*
X144689190Y-78228666D02*
X144765380Y-78190571D01*
X144917761Y-78190571D01*
X144993952Y-78228666D01*
X145032047Y-78266761D01*
X145070142Y-78342952D01*
X145070142Y-78571523D01*
X145032047Y-78647714D01*
X144993952Y-78685809D01*
X144917761Y-78723904D01*
X144765380Y-78723904D01*
X144689190Y-78685809D01*
X145413000Y-78190571D02*
X145413000Y-78990571D01*
X145413000Y-78228666D02*
X145489190Y-78190571D01*
X145641571Y-78190571D01*
X145717761Y-78228666D01*
X145755857Y-78266761D01*
X145793952Y-78342952D01*
X145793952Y-78571523D01*
X145755857Y-78647714D01*
X145717761Y-78685809D01*
X145641571Y-78723904D01*
X145489190Y-78723904D01*
X145413000Y-78685809D01*
X146441571Y-78685809D02*
X146365380Y-78723904D01*
X146212999Y-78723904D01*
X146136809Y-78685809D01*
X146098714Y-78609619D01*
X146098714Y-78304857D01*
X146136809Y-78228666D01*
X146212999Y-78190571D01*
X146365380Y-78190571D01*
X146441571Y-78228666D01*
X146479666Y-78304857D01*
X146479666Y-78381047D01*
X146098714Y-78457238D01*
X146822523Y-78723904D02*
X146822523Y-78190571D01*
X146822523Y-78342952D02*
X146860619Y-78266761D01*
X146898714Y-78228666D01*
X146974904Y-78190571D01*
X147051095Y-78190571D01*
X147660619Y-78723904D02*
X147660619Y-77923904D01*
X147660619Y-78685809D02*
X147584428Y-78723904D01*
X147432047Y-78723904D01*
X147355857Y-78685809D01*
X147317761Y-78647714D01*
X147279666Y-78571523D01*
X147279666Y-78342952D01*
X147317761Y-78266761D01*
X147355857Y-78228666D01*
X147432047Y-78190571D01*
X147584428Y-78190571D01*
X147660619Y-78228666D01*
X148041571Y-78723904D02*
X148041571Y-78190571D01*
X148041571Y-78342952D02*
X148079666Y-78266761D01*
X148117761Y-78228666D01*
X148193952Y-78190571D01*
X148270142Y-78190571D01*
X148879666Y-78723904D02*
X148879666Y-78304857D01*
X148841571Y-78228666D01*
X148765380Y-78190571D01*
X148612999Y-78190571D01*
X148536809Y-78228666D01*
X148879666Y-78685809D02*
X148803476Y-78723904D01*
X148612999Y-78723904D01*
X148536809Y-78685809D01*
X148498714Y-78609619D01*
X148498714Y-78533428D01*
X148536809Y-78457238D01*
X148612999Y-78419142D01*
X148803476Y-78419142D01*
X148879666Y-78381047D01*
X149603476Y-78190571D02*
X149603476Y-78838190D01*
X149565380Y-78914380D01*
X149527285Y-78952476D01*
X149451095Y-78990571D01*
X149336809Y-78990571D01*
X149260619Y-78952476D01*
X149603476Y-78685809D02*
X149527285Y-78723904D01*
X149374904Y-78723904D01*
X149298714Y-78685809D01*
X149260619Y-78647714D01*
X149222523Y-78571523D01*
X149222523Y-78342952D01*
X149260619Y-78266761D01*
X149298714Y-78228666D01*
X149374904Y-78190571D01*
X149527285Y-78190571D01*
X149603476Y-78228666D01*
X150098714Y-78723904D02*
X150022523Y-78685809D01*
X149984428Y-78647714D01*
X149946333Y-78571523D01*
X149946333Y-78342952D01*
X149984428Y-78266761D01*
X150022523Y-78228666D01*
X150098714Y-78190571D01*
X150212999Y-78190571D01*
X150289190Y-78228666D01*
X150327285Y-78266761D01*
X150365380Y-78342952D01*
X150365380Y-78571523D01*
X150327285Y-78647714D01*
X150289190Y-78685809D01*
X150212999Y-78723904D01*
X150098714Y-78723904D01*
X150708238Y-78190571D02*
X150708238Y-78723904D01*
X150708238Y-78266761D02*
X150746333Y-78228666D01*
X150822523Y-78190571D01*
X150936809Y-78190571D01*
X151012999Y-78228666D01*
X151051095Y-78304857D01*
X151051095Y-78723904D01*
X152003476Y-77885809D02*
X151317761Y-78914380D01*
X152232047Y-78495333D02*
X152612999Y-78495333D01*
X152155857Y-78723904D02*
X152422523Y-77923904D01*
X152689190Y-78723904D01*
X152955857Y-78723904D02*
X152955857Y-78190571D01*
X152955857Y-78266761D02*
X152993952Y-78228666D01*
X153070142Y-78190571D01*
X153184428Y-78190571D01*
X153260619Y-78228666D01*
X153298714Y-78304857D01*
X153298714Y-78723904D01*
X153298714Y-78304857D02*
X153336809Y-78228666D01*
X153412999Y-78190571D01*
X153527285Y-78190571D01*
X153603476Y-78228666D01*
X153641571Y-78304857D01*
X153641571Y-78723904D01*
X154022523Y-78723904D02*
X154022523Y-78190571D01*
X154022523Y-77923904D02*
X153984428Y-77962000D01*
X154022523Y-78000095D01*
X154060619Y-77962000D01*
X154022523Y-77923904D01*
X154022523Y-78000095D01*
X154746333Y-78190571D02*
X154746333Y-78838190D01*
X154708238Y-78914380D01*
X154670142Y-78952476D01*
X154593952Y-78990571D01*
X154479666Y-78990571D01*
X154403476Y-78952476D01*
X154746333Y-78685809D02*
X154670142Y-78723904D01*
X154517761Y-78723904D01*
X154441571Y-78685809D01*
X154403476Y-78647714D01*
X154365380Y-78571523D01*
X154365380Y-78342952D01*
X154403476Y-78266761D01*
X154441571Y-78228666D01*
X154517761Y-78190571D01*
X154670142Y-78190571D01*
X154746333Y-78228666D01*
X155470142Y-78723904D02*
X155470142Y-78304857D01*
X155432047Y-78228666D01*
X155355857Y-78190571D01*
X155203476Y-78190571D01*
X155127285Y-78228666D01*
X155470142Y-78685809D02*
X155393952Y-78723904D01*
X155203476Y-78723904D01*
X155127285Y-78685809D01*
X155089190Y-78609619D01*
X155089190Y-78533428D01*
X155127285Y-78457238D01*
X155203476Y-78419142D01*
X155393952Y-78419142D01*
X155470142Y-78381047D01*
X155851095Y-78419142D02*
X156460619Y-78419142D01*
X156841571Y-78723904D02*
X156841571Y-77923904D01*
X157032047Y-77923904D01*
X157146333Y-77962000D01*
X157222523Y-78038190D01*
X157260619Y-78114380D01*
X157298714Y-78266761D01*
X157298714Y-78381047D01*
X157260619Y-78533428D01*
X157222523Y-78609619D01*
X157146333Y-78685809D01*
X157032047Y-78723904D01*
X156841571Y-78723904D01*
X157641571Y-78723904D02*
X157641571Y-78190571D01*
X157641571Y-77923904D02*
X157603476Y-77962000D01*
X157641571Y-78000095D01*
X157679666Y-77962000D01*
X157641571Y-77923904D01*
X157641571Y-78000095D01*
X158365380Y-78190571D02*
X158365380Y-78838190D01*
X158327285Y-78914380D01*
X158289190Y-78952476D01*
X158212999Y-78990571D01*
X158098714Y-78990571D01*
X158022523Y-78952476D01*
X158365380Y-78685809D02*
X158289190Y-78723904D01*
X158136809Y-78723904D01*
X158060619Y-78685809D01*
X158022523Y-78647714D01*
X157984428Y-78571523D01*
X157984428Y-78342952D01*
X158022523Y-78266761D01*
X158060619Y-78228666D01*
X158136809Y-78190571D01*
X158289190Y-78190571D01*
X158365380Y-78228666D01*
X158746333Y-78723904D02*
X158746333Y-78190571D01*
X158746333Y-77923904D02*
X158708238Y-77962000D01*
X158746333Y-78000095D01*
X158784428Y-77962000D01*
X158746333Y-77923904D01*
X158746333Y-78000095D01*
X159012999Y-78190571D02*
X159317761Y-78190571D01*
X159127285Y-77923904D02*
X159127285Y-78609619D01*
X159165380Y-78685809D01*
X159241571Y-78723904D01*
X159317761Y-78723904D01*
X159927285Y-78723904D02*
X159927285Y-78304857D01*
X159889190Y-78228666D01*
X159812999Y-78190571D01*
X159660619Y-78190571D01*
X159584428Y-78228666D01*
X159927285Y-78685809D02*
X159851095Y-78723904D01*
X159660619Y-78723904D01*
X159584428Y-78685809D01*
X159546333Y-78609619D01*
X159546333Y-78533428D01*
X159584428Y-78457238D01*
X159660619Y-78419142D01*
X159851095Y-78419142D01*
X159927285Y-78381047D01*
X160422523Y-78723904D02*
X160346333Y-78685809D01*
X160308238Y-78609619D01*
X160308238Y-77923904D01*
X160727285Y-78419142D02*
X161336809Y-78419142D01*
X161603476Y-77923904D02*
X161870142Y-78723904D01*
X162136809Y-77923904D01*
X162403476Y-78723904D02*
X162403476Y-78190571D01*
X162403476Y-77923904D02*
X162365380Y-77962000D01*
X162403476Y-78000095D01*
X162441571Y-77962000D01*
X162403476Y-77923904D01*
X162403476Y-78000095D01*
X163127285Y-78723904D02*
X163127285Y-77923904D01*
X163127285Y-78685809D02*
X163051095Y-78723904D01*
X162898714Y-78723904D01*
X162822523Y-78685809D01*
X162784428Y-78647714D01*
X162746333Y-78571523D01*
X162746333Y-78342952D01*
X162784428Y-78266761D01*
X162822523Y-78228666D01*
X162898714Y-78190571D01*
X163051095Y-78190571D01*
X163127285Y-78228666D01*
X163812999Y-78685809D02*
X163736809Y-78723904D01*
X163584428Y-78723904D01*
X163508238Y-78685809D01*
X163470142Y-78609619D01*
X163470142Y-78304857D01*
X163508238Y-78228666D01*
X163584428Y-78190571D01*
X163736809Y-78190571D01*
X163812999Y-78228666D01*
X163851095Y-78304857D01*
X163851095Y-78381047D01*
X163470142Y-78457238D01*
X164308238Y-78723904D02*
X164232047Y-78685809D01*
X164193952Y-78647714D01*
X164155857Y-78571523D01*
X164155857Y-78342952D01*
X164193952Y-78266761D01*
X164232047Y-78228666D01*
X164308238Y-78190571D01*
X164422523Y-78190571D01*
X164498714Y-78228666D01*
X164536809Y-78266761D01*
X164574904Y-78342952D01*
X164574904Y-78571523D01*
X164536809Y-78647714D01*
X164498714Y-78685809D01*
X164422523Y-78723904D01*
X164308238Y-78723904D01*
X164841571Y-79028666D02*
X164879666Y-78990571D01*
X164955857Y-78876285D01*
X164993952Y-78800095D01*
X165032047Y-78685809D01*
X165070142Y-78495333D01*
X165070142Y-78342952D01*
X165032047Y-78152476D01*
X164993952Y-78038190D01*
X164955857Y-77962000D01*
X164879666Y-77847714D01*
X164841571Y-77809619D01*
D16*
X180928000Y-51001000D02*
X185928000Y-51001000D01*
X182928000Y-64061000D02*
X188928000Y-64061000D01*
X201863000Y-31371000D02*
X203223000Y-31371000D01*
X196663000Y-81151000D02*
X196663000Y-81721000D01*
X196663000Y-78611000D02*
X196663000Y-79631000D01*
X196663000Y-76071000D02*
X196663000Y-77091000D01*
X196663000Y-73531000D02*
X196663000Y-74551000D01*
X196663000Y-70991000D02*
X196663000Y-72011000D01*
X196663000Y-68451000D02*
X196663000Y-69471000D01*
X196663000Y-65911000D02*
X196663000Y-66931000D01*
X196663000Y-63371000D02*
X196663000Y-64391000D01*
X196663000Y-60831000D02*
X196663000Y-61851000D01*
X196663000Y-58291000D02*
X196663000Y-59311000D01*
X196663000Y-55751000D02*
X196663000Y-56771000D01*
X196663000Y-53211000D02*
X196663000Y-54231000D01*
X196663000Y-50671000D02*
X196663000Y-51691000D01*
X196663000Y-48131000D02*
X196663000Y-49151000D01*
X196663000Y-45591000D02*
X196663000Y-46611000D01*
X196663000Y-43051000D02*
X196663000Y-44071000D01*
X196663000Y-40511000D02*
X196663000Y-41531000D01*
X196663000Y-37971000D02*
X196663000Y-38991000D01*
X196663000Y-35431000D02*
X196663000Y-36451000D01*
X196663000Y-32891000D02*
X196663000Y-33911000D01*
X196663000Y-30801000D02*
X196663000Y-31371000D01*
X196663000Y-81721000D02*
X201863000Y-81721000D01*
X201863000Y-81151000D02*
X201863000Y-81721000D01*
X201863000Y-78611000D02*
X201863000Y-79631000D01*
X201863000Y-76071000D02*
X201863000Y-77091000D01*
X201863000Y-73531000D02*
X201863000Y-74551000D01*
X201863000Y-70991000D02*
X201863000Y-72011000D01*
X201863000Y-68451000D02*
X201863000Y-69471000D01*
X201863000Y-65911000D02*
X201863000Y-66931000D01*
X201863000Y-63371000D02*
X201863000Y-64391000D01*
X201863000Y-60831000D02*
X201863000Y-61851000D01*
X201863000Y-58291000D02*
X201863000Y-59311000D01*
X201863000Y-55751000D02*
X201863000Y-56771000D01*
X201863000Y-53211000D02*
X201863000Y-54231000D01*
X201863000Y-50671000D02*
X201863000Y-51691000D01*
X201863000Y-48131000D02*
X201863000Y-49151000D01*
X201863000Y-45591000D02*
X201863000Y-46611000D01*
X201863000Y-43051000D02*
X201863000Y-44071000D01*
X201863000Y-40511000D02*
X201863000Y-41531000D01*
X201863000Y-37971000D02*
X201863000Y-38991000D01*
X201863000Y-35431000D02*
X201863000Y-36451000D01*
X201863000Y-32891000D02*
X201863000Y-33911000D01*
X201863000Y-30801000D02*
X201863000Y-31371000D01*
X196663000Y-30801000D02*
X201863000Y-30801000D01*
X180928000Y-69416000D02*
X185928000Y-69416000D01*
X182928000Y-82476000D02*
X188928000Y-82476000D01*
X172593000Y-60716000D02*
X169143000Y-60716000D01*
X172593000Y-60716000D02*
X174543000Y-60716000D01*
X172593000Y-69586000D02*
X170643000Y-69586000D01*
X172593000Y-69586000D02*
X174543000Y-69586000D01*
X207906252Y-50446000D02*
X207383748Y-50446000D01*
X207906252Y-51916000D02*
X207383748Y-51916000D01*
X190373000Y-42291000D02*
X190373000Y-47371000D01*
X190373000Y-47371000D02*
X187833000Y-47371000D01*
X187833000Y-42291000D02*
X187833000Y-47371000D01*
X190373000Y-42291000D02*
X187833000Y-42291000D01*
X207906252Y-42391000D02*
X207383748Y-42391000D01*
X207906252Y-40921000D02*
X207383748Y-40921000D01*
X205232000Y-81661000D02*
X207772000Y-81661000D01*
X207772000Y-81661000D02*
X207772000Y-66421000D01*
X205232000Y-66421000D02*
X207772000Y-66421000D01*
X205232000Y-81661000D02*
X205232000Y-66421000D01*
X208205000Y-60713252D02*
X208205000Y-60190748D01*
X209625000Y-60713252D02*
X209625000Y-60190748D01*
D17*
X208645000Y-53666000D02*
X208645000Y-53341000D01*
X208645000Y-53341000D02*
X208345000Y-53341000D01*
X206645000Y-56316000D02*
X206645000Y-56641000D01*
X206645000Y-56641000D02*
X206945000Y-56641000D01*
X208645000Y-56341000D02*
X208645000Y-56641000D01*
X208645000Y-56641000D02*
X208320000Y-56641000D01*
X206970000Y-53341000D02*
X206645000Y-53566000D01*
X206645000Y-53566000D02*
X206645000Y-53666000D01*
X206645000Y-53666000D02*
X206120000Y-53666000D01*
X206970000Y-53341000D02*
X207345000Y-53341000D01*
D16*
X165608000Y-72644000D02*
X165608000Y-75184000D01*
X165608000Y-75184000D02*
X173228000Y-75184000D01*
X165608000Y-72644000D02*
X173228000Y-72644000D01*
X173228000Y-72644000D02*
X173228000Y-75184000D01*
X174498000Y-75184000D02*
X179578000Y-75184000D01*
X174498000Y-72644000D02*
X174498000Y-75184000D01*
X179578000Y-72644000D02*
X179578000Y-75184000D01*
X174498000Y-72644000D02*
X179578000Y-72644000D01*
X205919000Y-60190748D02*
X205919000Y-60713252D01*
X207339000Y-60190748D02*
X207339000Y-60713252D01*
X186189252Y-49986000D02*
X185666748Y-49986000D01*
X186189252Y-48566000D02*
X185666748Y-48566000D01*
X186189252Y-68401000D02*
X185666748Y-68401000D01*
X186189252Y-66981000D02*
X185666748Y-66981000D01*
X172854252Y-59511000D02*
X172331748Y-59511000D01*
X172854252Y-58091000D02*
X172331748Y-58091000D01*
X208228000Y-33647748D02*
X208228000Y-34170252D01*
X206808000Y-33647748D02*
X206808000Y-34170252D01*
X207383748Y-44756000D02*
X207906252Y-44756000D01*
X207383748Y-46176000D02*
X207906252Y-46176000D01*
X165033000Y-64786000D02*
X165033000Y-59326000D01*
X165033000Y-59326000D02*
X134433000Y-59326000D01*
X134433000Y-59326000D02*
X134433000Y-72246000D01*
X134433000Y-72246000D02*
X165033000Y-72246000D01*
X165033000Y-72246000D02*
X165033000Y-66786000D01*
X165093000Y-56836000D02*
X134373000Y-56836000D01*
X134373000Y-56836000D02*
X134373000Y-74736000D01*
X134373000Y-74736000D02*
X165093000Y-74736000D01*
X165093000Y-74736000D02*
X165093000Y-56836000D01*
X165033000Y-66786000D02*
G75*
G02*
X165033000Y-64786000I0J1000000D01*
G01*
X134553000Y-64786000D02*
X134553000Y-59326000D01*
X134553000Y-59326000D02*
X103953000Y-59326000D01*
X103953000Y-59326000D02*
X103953000Y-72246000D01*
X103953000Y-72246000D02*
X134553000Y-72246000D01*
X134553000Y-72246000D02*
X134553000Y-66786000D01*
X134613000Y-56836000D02*
X103893000Y-56836000D01*
X103893000Y-56836000D02*
X103893000Y-74736000D01*
X103893000Y-74736000D02*
X134613000Y-74736000D01*
X134613000Y-74736000D02*
X134613000Y-56836000D01*
X134553000Y-66786000D02*
G75*
G02*
X134553000Y-64786000I0J1000000D01*
G01*
D10*
X185166095Y-64349380D02*
X185166095Y-65158904D01*
X185213714Y-65254142D01*
X185261333Y-65301761D01*
X185356571Y-65349380D01*
X185547047Y-65349380D01*
X185642285Y-65301761D01*
X185689904Y-65254142D01*
X185737523Y-65158904D01*
X185737523Y-64349380D01*
X186118476Y-64349380D02*
X186737523Y-64349380D01*
X186404190Y-64730333D01*
X186547047Y-64730333D01*
X186642285Y-64777952D01*
X186689904Y-64825571D01*
X186737523Y-64920809D01*
X186737523Y-65158904D01*
X186689904Y-65254142D01*
X186642285Y-65301761D01*
X186547047Y-65349380D01*
X186261333Y-65349380D01*
X186166095Y-65301761D01*
X186118476Y-65254142D01*
X198286809Y-83510380D02*
X198286809Y-82510380D01*
X198667761Y-82510380D01*
X198763000Y-82558000D01*
X198810619Y-82605619D01*
X198858238Y-82700857D01*
X198858238Y-82843714D01*
X198810619Y-82938952D01*
X198763000Y-82986571D01*
X198667761Y-83034190D01*
X198286809Y-83034190D01*
X199286809Y-83510380D02*
X199286809Y-82843714D01*
X199286809Y-82510380D02*
X199239190Y-82558000D01*
X199286809Y-82605619D01*
X199334428Y-82558000D01*
X199286809Y-82510380D01*
X199286809Y-82605619D01*
X199953476Y-82510380D02*
X200048714Y-82510380D01*
X200143952Y-82558000D01*
X200191571Y-82605619D01*
X200239190Y-82700857D01*
X200286809Y-82891333D01*
X200286809Y-83129428D01*
X200239190Y-83319904D01*
X200191571Y-83415142D01*
X200143952Y-83462761D01*
X200048714Y-83510380D01*
X199953476Y-83510380D01*
X199858238Y-83462761D01*
X199810619Y-83415142D01*
X199763000Y-83319904D01*
X199715380Y-83129428D01*
X199715380Y-82891333D01*
X199763000Y-82700857D01*
X199810619Y-82605619D01*
X199858238Y-82558000D01*
X199953476Y-82510380D01*
X185166095Y-82891380D02*
X185166095Y-83700904D01*
X185213714Y-83796142D01*
X185261333Y-83843761D01*
X185356571Y-83891380D01*
X185547047Y-83891380D01*
X185642285Y-83843761D01*
X185689904Y-83796142D01*
X185737523Y-83700904D01*
X185737523Y-82891380D01*
X186166095Y-82986619D02*
X186213714Y-82939000D01*
X186308952Y-82891380D01*
X186547047Y-82891380D01*
X186642285Y-82939000D01*
X186689904Y-82986619D01*
X186737523Y-83081857D01*
X186737523Y-83177095D01*
X186689904Y-83319952D01*
X186118476Y-83891380D01*
X186737523Y-83891380D01*
X171831095Y-69937380D02*
X171831095Y-70746904D01*
X171878714Y-70842142D01*
X171926333Y-70889761D01*
X172021571Y-70937380D01*
X172212047Y-70937380D01*
X172307285Y-70889761D01*
X172354904Y-70842142D01*
X172402523Y-70746904D01*
X172402523Y-69937380D01*
X173402523Y-70937380D02*
X172831095Y-70937380D01*
X173116809Y-70937380D02*
X173116809Y-69937380D01*
X173021571Y-70080238D01*
X172926333Y-70175476D01*
X172831095Y-70223095D01*
X205827333Y-49887142D02*
X205779714Y-49934761D01*
X205636857Y-49982380D01*
X205541619Y-49982380D01*
X205398761Y-49934761D01*
X205303523Y-49839523D01*
X205255904Y-49744285D01*
X205208285Y-49553809D01*
X205208285Y-49410952D01*
X205255904Y-49220476D01*
X205303523Y-49125238D01*
X205398761Y-49030000D01*
X205541619Y-48982380D01*
X205636857Y-48982380D01*
X205779714Y-49030000D01*
X205827333Y-49077619D01*
X206684476Y-49315714D02*
X206684476Y-49982380D01*
X206446380Y-48934761D02*
X206208285Y-49649047D01*
X206827333Y-49649047D01*
X207859428Y-49801428D02*
X207516571Y-49801428D01*
X207688000Y-49801428D02*
X207688000Y-49201428D01*
X207630857Y-49287142D01*
X207573714Y-49344285D01*
X207516571Y-49372857D01*
X208230857Y-49201428D02*
X208288000Y-49201428D01*
X208345142Y-49230000D01*
X208373714Y-49258571D01*
X208402285Y-49315714D01*
X208430857Y-49430000D01*
X208430857Y-49572857D01*
X208402285Y-49687142D01*
X208373714Y-49744285D01*
X208345142Y-49772857D01*
X208288000Y-49801428D01*
X208230857Y-49801428D01*
X208173714Y-49772857D01*
X208145142Y-49744285D01*
X208116571Y-49687142D01*
X208088000Y-49572857D01*
X208088000Y-49430000D01*
X208116571Y-49315714D01*
X208145142Y-49258571D01*
X208173714Y-49230000D01*
X208230857Y-49201428D01*
X208802285Y-49201428D02*
X208859428Y-49201428D01*
X208916571Y-49230000D01*
X208945142Y-49258571D01*
X208973714Y-49315714D01*
X209002285Y-49430000D01*
X209002285Y-49572857D01*
X208973714Y-49687142D01*
X208945142Y-49744285D01*
X208916571Y-49772857D01*
X208859428Y-49801428D01*
X208802285Y-49801428D01*
X208745142Y-49772857D01*
X208716571Y-49744285D01*
X208688000Y-49687142D01*
X208659428Y-49572857D01*
X208659428Y-49430000D01*
X208688000Y-49315714D01*
X208716571Y-49258571D01*
X208745142Y-49230000D01*
X208802285Y-49201428D01*
X209259428Y-49401428D02*
X209259428Y-49801428D01*
X209259428Y-49458571D02*
X209288000Y-49430000D01*
X209345142Y-49401428D01*
X209430857Y-49401428D01*
X209488000Y-49430000D01*
X209516571Y-49487142D01*
X209516571Y-49801428D01*
X210002285Y-49487142D02*
X209802285Y-49487142D01*
X209802285Y-49801428D02*
X209802285Y-49201428D01*
X210088000Y-49201428D01*
X191063666Y-44918380D02*
X191063666Y-45632666D01*
X191016047Y-45775523D01*
X190920809Y-45870761D01*
X190777952Y-45918380D01*
X190682714Y-45918380D01*
X191539857Y-45918380D02*
X191539857Y-44918380D01*
X191920809Y-44918380D01*
X192016047Y-44966000D01*
X192063666Y-45013619D01*
X192111285Y-45108857D01*
X192111285Y-45251714D01*
X192063666Y-45346952D01*
X192016047Y-45394571D01*
X191920809Y-45442190D01*
X191539857Y-45442190D01*
X192492238Y-45013619D02*
X192539857Y-44966000D01*
X192635095Y-44918380D01*
X192873190Y-44918380D01*
X192968428Y-44966000D01*
X193016047Y-45013619D01*
X193063666Y-45108857D01*
X193063666Y-45204095D01*
X193016047Y-45346952D01*
X192444619Y-45918380D01*
X193063666Y-45918380D01*
X206081333Y-40235142D02*
X206033714Y-40282761D01*
X205890857Y-40330380D01*
X205795619Y-40330380D01*
X205652761Y-40282761D01*
X205557523Y-40187523D01*
X205509904Y-40092285D01*
X205462285Y-39901809D01*
X205462285Y-39758952D01*
X205509904Y-39568476D01*
X205557523Y-39473238D01*
X205652761Y-39378000D01*
X205795619Y-39330380D01*
X205890857Y-39330380D01*
X206033714Y-39378000D01*
X206081333Y-39425619D01*
X206938476Y-39330380D02*
X206748000Y-39330380D01*
X206652761Y-39378000D01*
X206605142Y-39425619D01*
X206509904Y-39568476D01*
X206462285Y-39758952D01*
X206462285Y-40139904D01*
X206509904Y-40235142D01*
X206557523Y-40282761D01*
X206652761Y-40330380D01*
X206843238Y-40330380D01*
X206938476Y-40282761D01*
X206986095Y-40235142D01*
X207033714Y-40139904D01*
X207033714Y-39901809D01*
X206986095Y-39806571D01*
X206938476Y-39758952D01*
X206843238Y-39711333D01*
X206652761Y-39711333D01*
X206557523Y-39758952D01*
X206509904Y-39806571D01*
X206462285Y-39901809D01*
X207971333Y-39855000D02*
X207971333Y-40321666D01*
X207804666Y-39588333D02*
X207638000Y-40088333D01*
X208071333Y-40088333D01*
X208271333Y-39621666D02*
X208738000Y-39621666D01*
X208438000Y-40321666D01*
X209004666Y-39855000D02*
X209004666Y-40555000D01*
X209004666Y-39888333D02*
X209071333Y-39855000D01*
X209204666Y-39855000D01*
X209271333Y-39888333D01*
X209304666Y-39921666D01*
X209338000Y-39988333D01*
X209338000Y-40188333D01*
X209304666Y-40255000D01*
X209271333Y-40288333D01*
X209204666Y-40321666D01*
X209071333Y-40321666D01*
X209004666Y-40288333D01*
X209871333Y-39955000D02*
X209638000Y-39955000D01*
X209638000Y-40321666D02*
X209638000Y-39621666D01*
X209971333Y-39621666D01*
X204805571Y-82750428D02*
X204555571Y-82750428D01*
X204555571Y-83143285D02*
X204555571Y-82393285D01*
X204912714Y-82393285D01*
X205448428Y-82750428D02*
X205198428Y-82750428D01*
X205198428Y-83143285D02*
X205198428Y-82393285D01*
X205555571Y-82393285D01*
X205984142Y-82393285D02*
X206127000Y-82393285D01*
X206198428Y-82429000D01*
X206269857Y-82500428D01*
X206305571Y-82643285D01*
X206305571Y-82893285D01*
X206269857Y-83036142D01*
X206198428Y-83107571D01*
X206127000Y-83143285D01*
X205984142Y-83143285D01*
X205912714Y-83107571D01*
X205841285Y-83036142D01*
X205805571Y-82893285D01*
X205805571Y-82643285D01*
X205841285Y-82500428D01*
X205912714Y-82429000D01*
X205984142Y-82393285D01*
X206591285Y-83107571D02*
X206698428Y-83143285D01*
X206877000Y-83143285D01*
X206948428Y-83107571D01*
X206984142Y-83071857D01*
X207019857Y-83000428D01*
X207019857Y-82929000D01*
X206984142Y-82857571D01*
X206948428Y-82821857D01*
X206877000Y-82786142D01*
X206734142Y-82750428D01*
X206662714Y-82714714D01*
X206627000Y-82679000D01*
X206591285Y-82607571D01*
X206591285Y-82536142D01*
X206627000Y-82464714D01*
X206662714Y-82429000D01*
X206734142Y-82393285D01*
X206912714Y-82393285D01*
X207019857Y-82429000D01*
X207341285Y-83143285D02*
X207341285Y-82393285D01*
X207519857Y-82393285D01*
X207627000Y-82429000D01*
X207698428Y-82500428D01*
X207734142Y-82571857D01*
X207769857Y-82714714D01*
X207769857Y-82821857D01*
X207734142Y-82964714D01*
X207698428Y-83036142D01*
X207627000Y-83107571D01*
X207519857Y-83143285D01*
X207341285Y-83143285D01*
X208484142Y-83143285D02*
X208055571Y-83143285D01*
X208269857Y-83143285D02*
X208269857Y-82393285D01*
X208198428Y-82500428D01*
X208127000Y-82571857D01*
X208055571Y-82607571D01*
X208790000Y-63204285D02*
X208540000Y-62847142D01*
X208361428Y-63204285D02*
X208361428Y-62454285D01*
X208647142Y-62454285D01*
X208718571Y-62490000D01*
X208754285Y-62525714D01*
X208790000Y-62597142D01*
X208790000Y-62704285D01*
X208754285Y-62775714D01*
X208718571Y-62811428D01*
X208647142Y-62847142D01*
X208361428Y-62847142D01*
X209040000Y-62454285D02*
X209504285Y-62454285D01*
X209254285Y-62740000D01*
X209361428Y-62740000D01*
X209432857Y-62775714D01*
X209468571Y-62811428D01*
X209504285Y-62882857D01*
X209504285Y-63061428D01*
X209468571Y-63132857D01*
X209432857Y-63168571D01*
X209361428Y-63204285D01*
X209147142Y-63204285D01*
X209075714Y-63168571D01*
X209040000Y-63132857D01*
X207986428Y-63668714D02*
X208022142Y-63633000D01*
X208093571Y-63597285D01*
X208272142Y-63597285D01*
X208343571Y-63633000D01*
X208379285Y-63668714D01*
X208415000Y-63740142D01*
X208415000Y-63811571D01*
X208379285Y-63918714D01*
X207950714Y-64347285D01*
X208415000Y-64347285D01*
X208665000Y-63597285D02*
X209165000Y-63597285D01*
X208843571Y-64347285D01*
X209593571Y-63597285D02*
X209665000Y-63597285D01*
X209736428Y-63633000D01*
X209772142Y-63668714D01*
X209807857Y-63740142D01*
X209843571Y-63883000D01*
X209843571Y-64061571D01*
X209807857Y-64204428D01*
X209772142Y-64275857D01*
X209736428Y-64311571D01*
X209665000Y-64347285D01*
X209593571Y-64347285D01*
X209522142Y-64311571D01*
X209486428Y-64275857D01*
X209450714Y-64204428D01*
X209415000Y-64061571D01*
X209415000Y-63883000D01*
X209450714Y-63740142D01*
X209486428Y-63668714D01*
X209522142Y-63633000D01*
X209593571Y-63597285D01*
X206883095Y-56983380D02*
X206883095Y-57792904D01*
X206930714Y-57888142D01*
X206978333Y-57935761D01*
X207073571Y-57983380D01*
X207264047Y-57983380D01*
X207359285Y-57935761D01*
X207406904Y-57888142D01*
X207454523Y-57792904D01*
X207454523Y-56983380D01*
X208359285Y-57316714D02*
X208359285Y-57983380D01*
X208121190Y-56935761D02*
X207883095Y-57650047D01*
X208502142Y-57650047D01*
X168793000Y-71471285D02*
X168793000Y-72007000D01*
X168757285Y-72114142D01*
X168685857Y-72185571D01*
X168578714Y-72221285D01*
X168507285Y-72221285D01*
X169150142Y-72221285D02*
X169150142Y-71471285D01*
X169435857Y-71471285D01*
X169507285Y-71507000D01*
X169543000Y-71542714D01*
X169578714Y-71614142D01*
X169578714Y-71721285D01*
X169543000Y-71792714D01*
X169507285Y-71828428D01*
X169435857Y-71864142D01*
X169150142Y-71864142D01*
X170293000Y-72221285D02*
X169864428Y-72221285D01*
X170078714Y-72221285D02*
X170078714Y-71471285D01*
X170007285Y-71578428D01*
X169935857Y-71649857D01*
X169864428Y-71685571D01*
X176540000Y-71471285D02*
X176540000Y-72007000D01*
X176504285Y-72114142D01*
X176432857Y-72185571D01*
X176325714Y-72221285D01*
X176254285Y-72221285D01*
X177147142Y-71828428D02*
X177254285Y-71864142D01*
X177290000Y-71899857D01*
X177325714Y-71971285D01*
X177325714Y-72078428D01*
X177290000Y-72149857D01*
X177254285Y-72185571D01*
X177182857Y-72221285D01*
X176897142Y-72221285D01*
X176897142Y-71471285D01*
X177147142Y-71471285D01*
X177218571Y-71507000D01*
X177254285Y-71542714D01*
X177290000Y-71614142D01*
X177290000Y-71685571D01*
X177254285Y-71757000D01*
X177218571Y-71792714D01*
X177147142Y-71828428D01*
X176897142Y-71828428D01*
X178040000Y-72221285D02*
X177611428Y-72221285D01*
X177825714Y-72221285D02*
X177825714Y-71471285D01*
X177754285Y-71578428D01*
X177682857Y-71649857D01*
X177611428Y-71685571D01*
X206504000Y-63204285D02*
X206254000Y-62847142D01*
X206075428Y-63204285D02*
X206075428Y-62454285D01*
X206361142Y-62454285D01*
X206432571Y-62490000D01*
X206468285Y-62525714D01*
X206504000Y-62597142D01*
X206504000Y-62704285D01*
X206468285Y-62775714D01*
X206432571Y-62811428D01*
X206361142Y-62847142D01*
X206075428Y-62847142D01*
X206789714Y-62525714D02*
X206825428Y-62490000D01*
X206896857Y-62454285D01*
X207075428Y-62454285D01*
X207146857Y-62490000D01*
X207182571Y-62525714D01*
X207218285Y-62597142D01*
X207218285Y-62668571D01*
X207182571Y-62775714D01*
X206754000Y-63204285D01*
X207218285Y-63204285D01*
X206539714Y-64347285D02*
X206111142Y-64347285D01*
X206325428Y-64347285D02*
X206325428Y-63597285D01*
X206254000Y-63704428D01*
X206182571Y-63775857D01*
X206111142Y-63811571D01*
X206861142Y-64347285D02*
X206861142Y-63597285D01*
X206932571Y-64061571D02*
X207146857Y-64347285D01*
X207146857Y-63847285D02*
X206861142Y-64133000D01*
X182332333Y-48998142D02*
X182284714Y-49045761D01*
X182141857Y-49093380D01*
X182046619Y-49093380D01*
X181903761Y-49045761D01*
X181808523Y-48950523D01*
X181760904Y-48855285D01*
X181713285Y-48664809D01*
X181713285Y-48521952D01*
X181760904Y-48331476D01*
X181808523Y-48236238D01*
X181903761Y-48141000D01*
X182046619Y-48093380D01*
X182141857Y-48093380D01*
X182284714Y-48141000D01*
X182332333Y-48188619D01*
X182665666Y-48093380D02*
X183284714Y-48093380D01*
X182951380Y-48474333D01*
X183094238Y-48474333D01*
X183189476Y-48521952D01*
X183237095Y-48569571D01*
X183284714Y-48664809D01*
X183284714Y-48902904D01*
X183237095Y-48998142D01*
X183189476Y-49045761D01*
X183094238Y-49093380D01*
X182808523Y-49093380D01*
X182713285Y-49045761D01*
X182665666Y-48998142D01*
D13*
X181697428Y-50182428D02*
X181354571Y-50182428D01*
X181526000Y-50182428D02*
X181526000Y-49582428D01*
X181468857Y-49668142D01*
X181411714Y-49725285D01*
X181354571Y-49753857D01*
X182068857Y-49582428D02*
X182126000Y-49582428D01*
X182183142Y-49611000D01*
X182211714Y-49639571D01*
X182240285Y-49696714D01*
X182268857Y-49811000D01*
X182268857Y-49953857D01*
X182240285Y-50068142D01*
X182211714Y-50125285D01*
X182183142Y-50153857D01*
X182126000Y-50182428D01*
X182068857Y-50182428D01*
X182011714Y-50153857D01*
X181983142Y-50125285D01*
X181954571Y-50068142D01*
X181926000Y-49953857D01*
X181926000Y-49811000D01*
X181954571Y-49696714D01*
X181983142Y-49639571D01*
X182011714Y-49611000D01*
X182068857Y-49582428D01*
X182640285Y-49582428D02*
X182697428Y-49582428D01*
X182754571Y-49611000D01*
X182783142Y-49639571D01*
X182811714Y-49696714D01*
X182840285Y-49811000D01*
X182840285Y-49953857D01*
X182811714Y-50068142D01*
X182783142Y-50125285D01*
X182754571Y-50153857D01*
X182697428Y-50182428D01*
X182640285Y-50182428D01*
X182583142Y-50153857D01*
X182554571Y-50125285D01*
X182526000Y-50068142D01*
X182497428Y-49953857D01*
X182497428Y-49811000D01*
X182526000Y-49696714D01*
X182554571Y-49639571D01*
X182583142Y-49611000D01*
X182640285Y-49582428D01*
X183097428Y-49782428D02*
X183097428Y-50182428D01*
X183097428Y-49839571D02*
X183126000Y-49811000D01*
X183183142Y-49782428D01*
X183268857Y-49782428D01*
X183326000Y-49811000D01*
X183354571Y-49868142D01*
X183354571Y-50182428D01*
X183840285Y-49868142D02*
X183640285Y-49868142D01*
X183640285Y-50182428D02*
X183640285Y-49582428D01*
X183926000Y-49582428D01*
D10*
X182459333Y-67540142D02*
X182411714Y-67587761D01*
X182268857Y-67635380D01*
X182173619Y-67635380D01*
X182030761Y-67587761D01*
X181935523Y-67492523D01*
X181887904Y-67397285D01*
X181840285Y-67206809D01*
X181840285Y-67063952D01*
X181887904Y-66873476D01*
X181935523Y-66778238D01*
X182030761Y-66683000D01*
X182173619Y-66635380D01*
X182268857Y-66635380D01*
X182411714Y-66683000D01*
X182459333Y-66730619D01*
X182840285Y-66730619D02*
X182887904Y-66683000D01*
X182983142Y-66635380D01*
X183221238Y-66635380D01*
X183316476Y-66683000D01*
X183364095Y-66730619D01*
X183411714Y-66825857D01*
X183411714Y-66921095D01*
X183364095Y-67063952D01*
X182792666Y-67635380D01*
X183411714Y-67635380D01*
D13*
X181697428Y-68597428D02*
X181354571Y-68597428D01*
X181526000Y-68597428D02*
X181526000Y-67997428D01*
X181468857Y-68083142D01*
X181411714Y-68140285D01*
X181354571Y-68168857D01*
X182068857Y-67997428D02*
X182126000Y-67997428D01*
X182183142Y-68026000D01*
X182211714Y-68054571D01*
X182240285Y-68111714D01*
X182268857Y-68226000D01*
X182268857Y-68368857D01*
X182240285Y-68483142D01*
X182211714Y-68540285D01*
X182183142Y-68568857D01*
X182126000Y-68597428D01*
X182068857Y-68597428D01*
X182011714Y-68568857D01*
X181983142Y-68540285D01*
X181954571Y-68483142D01*
X181926000Y-68368857D01*
X181926000Y-68226000D01*
X181954571Y-68111714D01*
X181983142Y-68054571D01*
X182011714Y-68026000D01*
X182068857Y-67997428D01*
X182640285Y-67997428D02*
X182697428Y-67997428D01*
X182754571Y-68026000D01*
X182783142Y-68054571D01*
X182811714Y-68111714D01*
X182840285Y-68226000D01*
X182840285Y-68368857D01*
X182811714Y-68483142D01*
X182783142Y-68540285D01*
X182754571Y-68568857D01*
X182697428Y-68597428D01*
X182640285Y-68597428D01*
X182583142Y-68568857D01*
X182554571Y-68540285D01*
X182526000Y-68483142D01*
X182497428Y-68368857D01*
X182497428Y-68226000D01*
X182526000Y-68111714D01*
X182554571Y-68054571D01*
X182583142Y-68026000D01*
X182640285Y-67997428D01*
X183097428Y-68197428D02*
X183097428Y-68597428D01*
X183097428Y-68254571D02*
X183126000Y-68226000D01*
X183183142Y-68197428D01*
X183268857Y-68197428D01*
X183326000Y-68226000D01*
X183354571Y-68283142D01*
X183354571Y-68597428D01*
X183840285Y-68283142D02*
X183640285Y-68283142D01*
X183640285Y-68597428D02*
X183640285Y-67997428D01*
X183926000Y-67997428D01*
D10*
X168997333Y-58523142D02*
X168949714Y-58570761D01*
X168806857Y-58618380D01*
X168711619Y-58618380D01*
X168568761Y-58570761D01*
X168473523Y-58475523D01*
X168425904Y-58380285D01*
X168378285Y-58189809D01*
X168378285Y-58046952D01*
X168425904Y-57856476D01*
X168473523Y-57761238D01*
X168568761Y-57666000D01*
X168711619Y-57618380D01*
X168806857Y-57618380D01*
X168949714Y-57666000D01*
X168997333Y-57713619D01*
X169949714Y-58618380D02*
X169378285Y-58618380D01*
X169664000Y-58618380D02*
X169664000Y-57618380D01*
X169568761Y-57761238D01*
X169473523Y-57856476D01*
X169378285Y-57904095D01*
D13*
X168235428Y-59580428D02*
X167892571Y-59580428D01*
X168064000Y-59580428D02*
X168064000Y-58980428D01*
X168006857Y-59066142D01*
X167949714Y-59123285D01*
X167892571Y-59151857D01*
X168606857Y-58980428D02*
X168664000Y-58980428D01*
X168721142Y-59009000D01*
X168749714Y-59037571D01*
X168778285Y-59094714D01*
X168806857Y-59209000D01*
X168806857Y-59351857D01*
X168778285Y-59466142D01*
X168749714Y-59523285D01*
X168721142Y-59551857D01*
X168664000Y-59580428D01*
X168606857Y-59580428D01*
X168549714Y-59551857D01*
X168521142Y-59523285D01*
X168492571Y-59466142D01*
X168464000Y-59351857D01*
X168464000Y-59209000D01*
X168492571Y-59094714D01*
X168521142Y-59037571D01*
X168549714Y-59009000D01*
X168606857Y-58980428D01*
X169178285Y-58980428D02*
X169235428Y-58980428D01*
X169292571Y-59009000D01*
X169321142Y-59037571D01*
X169349714Y-59094714D01*
X169378285Y-59209000D01*
X169378285Y-59351857D01*
X169349714Y-59466142D01*
X169321142Y-59523285D01*
X169292571Y-59551857D01*
X169235428Y-59580428D01*
X169178285Y-59580428D01*
X169121142Y-59551857D01*
X169092571Y-59523285D01*
X169064000Y-59466142D01*
X169035428Y-59351857D01*
X169035428Y-59209000D01*
X169064000Y-59094714D01*
X169092571Y-59037571D01*
X169121142Y-59009000D01*
X169178285Y-58980428D01*
X169635428Y-59180428D02*
X169635428Y-59580428D01*
X169635428Y-59237571D02*
X169664000Y-59209000D01*
X169721142Y-59180428D01*
X169806857Y-59180428D01*
X169864000Y-59209000D01*
X169892571Y-59266142D01*
X169892571Y-59580428D01*
X170378285Y-59266142D02*
X170178285Y-59266142D01*
X170178285Y-59580428D02*
X170178285Y-58980428D01*
X170464000Y-58980428D01*
D10*
X205954333Y-36933142D02*
X205906714Y-36980761D01*
X205763857Y-37028380D01*
X205668619Y-37028380D01*
X205525761Y-36980761D01*
X205430523Y-36885523D01*
X205382904Y-36790285D01*
X205335285Y-36599809D01*
X205335285Y-36456952D01*
X205382904Y-36266476D01*
X205430523Y-36171238D01*
X205525761Y-36076000D01*
X205668619Y-36028380D01*
X205763857Y-36028380D01*
X205906714Y-36076000D01*
X205954333Y-36123619D01*
X206859095Y-36028380D02*
X206382904Y-36028380D01*
X206335285Y-36504571D01*
X206382904Y-36456952D01*
X206478142Y-36409333D01*
X206716238Y-36409333D01*
X206811476Y-36456952D01*
X206859095Y-36504571D01*
X206906714Y-36599809D01*
X206906714Y-36837904D01*
X206859095Y-36933142D01*
X206811476Y-36980761D01*
X206716238Y-37028380D01*
X206478142Y-37028380D01*
X206382904Y-36980761D01*
X206335285Y-36933142D01*
D13*
X207891142Y-36847428D02*
X207548285Y-36847428D01*
X207719714Y-36847428D02*
X207719714Y-36247428D01*
X207662571Y-36333142D01*
X207605428Y-36390285D01*
X207548285Y-36418857D01*
X208262571Y-36247428D02*
X208319714Y-36247428D01*
X208376857Y-36276000D01*
X208405428Y-36304571D01*
X208434000Y-36361714D01*
X208462571Y-36476000D01*
X208462571Y-36618857D01*
X208434000Y-36733142D01*
X208405428Y-36790285D01*
X208376857Y-36818857D01*
X208319714Y-36847428D01*
X208262571Y-36847428D01*
X208205428Y-36818857D01*
X208176857Y-36790285D01*
X208148285Y-36733142D01*
X208119714Y-36618857D01*
X208119714Y-36476000D01*
X208148285Y-36361714D01*
X208176857Y-36304571D01*
X208205428Y-36276000D01*
X208262571Y-36247428D01*
X208976857Y-36447428D02*
X208976857Y-36847428D01*
X208719714Y-36447428D02*
X208719714Y-36761714D01*
X208748285Y-36818857D01*
X208805428Y-36847428D01*
X208891142Y-36847428D01*
X208948285Y-36818857D01*
X208976857Y-36790285D01*
X209462571Y-36533142D02*
X209262571Y-36533142D01*
X209262571Y-36847428D02*
X209262571Y-36247428D01*
X209548285Y-36247428D01*
D10*
X206462333Y-47569380D02*
X206129000Y-47093190D01*
X205890904Y-47569380D02*
X205890904Y-46569380D01*
X206271857Y-46569380D01*
X206367095Y-46617000D01*
X206414714Y-46664619D01*
X206462333Y-46759857D01*
X206462333Y-46902714D01*
X206414714Y-46997952D01*
X206367095Y-47045571D01*
X206271857Y-47093190D01*
X205890904Y-47093190D01*
X207414714Y-47569380D02*
X206843285Y-47569380D01*
X207129000Y-47569380D02*
X207129000Y-46569380D01*
X207033761Y-46712238D01*
X206938523Y-46807476D01*
X206843285Y-46855095D01*
X208444714Y-47456285D02*
X208016142Y-47456285D01*
X208230428Y-47456285D02*
X208230428Y-46706285D01*
X208159000Y-46813428D01*
X208087571Y-46884857D01*
X208016142Y-46920571D01*
X208766142Y-47456285D02*
X208766142Y-46706285D01*
X208837571Y-47170571D02*
X209051857Y-47456285D01*
X209051857Y-46956285D02*
X208766142Y-47242000D01*
M02*
