M48
; DRILL file {KiCad (5.1.9)-1} date 04/27/21 11:27:02
; FORMAT={-:-/ absolute / inch / decimal}
; #@! TF.CreationDate,2021-04-27T11:27:02+01:00
; #@! TF.GenerationSoftware,Kicad,Pcbnew,(5.1.9)-1
; #@! TF.FileFunction,Plated,1,2,PTH
FMAT,2
INCH
T1C0.0157
T2C0.0315
T3C0.0394
%
G90
G05
T1
X4.1Y-3.015
X4.12Y-3.265
X4.145Y-2.765
X4.195Y-2.415
X4.205Y-2.665
X4.295Y-2.415
X4.305Y-2.665
X4.395Y-2.415
X4.41Y-2.665
X4.495Y-2.415
X4.5Y-2.635
X4.695Y-2.94
X4.745Y-2.665
X4.79Y-2.965
X4.795Y-2.415
X4.845Y-2.665
X4.895Y-2.415
X4.895Y-2.94
X4.945Y-2.665
X4.995Y-2.415
X4.995Y-2.94
X5.045Y-2.665
X5.08Y-2.96
X5.095Y-2.415
X5.145Y-2.665
X5.195Y-2.415
X5.195Y-2.94
X5.245Y-2.665
X5.295Y-2.415
X5.345Y-2.665
X5.395Y-2.415
X5.445Y-2.665
X5.495Y-2.415
X5.495Y-2.94
X5.545Y-2.665
X5.595Y-2.415
X5.595Y-2.94
X5.645Y-2.665
X5.695Y-2.415
X5.695Y-2.94
X5.745Y-2.665
X5.795Y-2.415
X5.795Y-2.94
X5.845Y-2.665
X5.895Y-2.415
X5.895Y-2.94
X5.945Y-2.665
X5.995Y-2.415
X5.995Y-2.94
X6.045Y-2.665
X6.095Y-2.415
X6.095Y-2.94
X6.145Y-2.665
X6.195Y-2.415
X6.195Y-2.94
X6.245Y-2.665
X6.295Y-2.415
X6.295Y-2.94
X6.345Y-2.665
X6.395Y-2.415
X6.395Y-2.94
X6.445Y-2.665
X6.495Y-2.94
X6.555Y-2.615
X6.595Y-2.365
X6.605Y-2.665
X6.62Y-3.165
X6.64Y-2.715
X6.72Y-3.165
X6.755Y-2.715
X6.76Y-2.465
X6.765Y-3.015
X6.815Y-2.495
X6.82Y-2.565
X6.83Y-2.615
X6.835Y-3.0665
X6.845Y-2.915
X6.895Y-2.315
X6.895Y-2.365
X6.925Y-3.2
X6.985Y-3.18
X7.08Y-3.205
X7.135Y-2.52
X7.185Y-2.49
X7.185Y-3.205
X7.195Y-2.09
X7.22Y-2.84
X7.22Y-2.94
X7.22Y-3.04
X7.27Y-2.165
X7.27Y-3.19
X7.32Y-2.415
X7.32Y-2.49
X7.345Y-2.065
X7.395Y-2.315
X7.395Y-2.415
X7.395Y-2.565
X7.395Y-2.84
X7.395Y-2.94
X7.395Y-3.04
X7.395Y-3.19
X7.505Y-1.94
X7.505Y-2.715
X7.505Y-1.99
X7.507Y-2.663
X7.58Y-2.19
X7.58Y-2.24
X7.58Y-2.29
X7.605Y-2.35
X7.63Y-3.085
X7.63Y-3.165
X7.66Y-1.265
X7.66Y-1.365
X7.665Y-1.865
X7.665Y-2.165
X7.665Y-2.665
X7.665Y-2.915
X7.67Y-2.965
X7.745Y-1.225
X7.745Y-1.315
X7.745Y-1.425
X7.745Y-1.505
X7.745Y-1.805
X7.745Y-2.125
X7.745Y-2.205
X7.745Y-2.625
X7.745Y-2.705
X7.745Y-2.805
X7.825Y-1.465
X7.825Y-1.865
X7.825Y-2.065
X7.825Y-2.665
X7.865Y-1.665
X7.865Y-1.765
X7.865Y-2.365
X7.865Y-2.465
X7.865Y-3.165
X7.865Y-2.065
X7.945Y-1.225
X7.945Y-1.305
X7.945Y-1.515
X7.945Y-1.625
X7.945Y-1.705
X7.945Y-2.025
X7.945Y-2.095
X7.945Y-2.21
X7.945Y-2.425
X7.945Y-2.505
X7.945Y-2.905
X7.95Y-3.205
X7.955Y-3.13
X8.02Y-1.265
X8.09Y-1.64
X8.09Y-1.79
X8.095Y-1.36
X8.095Y-1.505
X8.12Y-1.295
X8.12Y-1.9
X8.12Y-2.235
X8.12Y-2.57
X8.135Y-1.715
X8.135Y-2.29
X8.17Y-1.25
X8.22Y-3.21
X8.22Y-1.295
X8.23Y-2.075
X8.255Y-3.275
X8.26Y-2.015
T2
X4.145Y-2.29
X4.145Y-2.565
X4.145Y-2.89
X4.145Y-3.165
X4.245Y-2.29
X4.245Y-2.565
X4.245Y-2.89
X4.245Y-3.165
X4.345Y-2.29
X4.345Y-2.565
X4.345Y-2.89
X4.345Y-3.165
X4.445Y-2.29
X4.445Y-2.565
X4.445Y-2.89
X4.445Y-3.165
X4.545Y-2.29
X4.545Y-2.565
X4.545Y-2.89
X4.545Y-3.165
X4.645Y-2.29
X4.645Y-2.565
X4.645Y-2.89
X4.645Y-3.165
X4.745Y-2.29
X4.745Y-2.565
X4.745Y-2.89
X4.745Y-3.165
X4.845Y-2.29
X4.845Y-2.565
X4.845Y-2.89
X4.845Y-3.165
X4.945Y-2.29
X4.945Y-2.565
X4.945Y-2.89
X4.945Y-3.165
X5.045Y-2.29
X5.045Y-2.565
X5.045Y-2.89
X5.045Y-3.165
X5.145Y-2.29
X5.145Y-2.565
X5.145Y-2.89
X5.145Y-3.165
X5.245Y-2.29
X5.245Y-2.565
X5.245Y-2.89
X5.245Y-3.165
X5.345Y-2.29
X5.345Y-2.565
X5.345Y-2.89
X5.345Y-3.165
X5.445Y-2.29
X5.445Y-2.565
X5.445Y-2.89
X5.445Y-3.165
X5.545Y-2.29
X5.545Y-2.565
X5.545Y-2.89
X5.545Y-3.165
X5.645Y-2.29
X5.645Y-2.565
X5.645Y-2.89
X5.645Y-3.165
X5.745Y-2.29
X5.745Y-2.565
X5.745Y-2.89
X5.745Y-3.165
X5.845Y-2.29
X5.845Y-2.565
X5.845Y-2.89
X5.845Y-3.165
X5.945Y-2.29
X5.945Y-2.565
X5.945Y-2.89
X5.945Y-3.165
X6.045Y-2.29
X6.045Y-2.565
X6.045Y-2.89
X6.045Y-3.165
X6.145Y-2.29
X6.145Y-2.565
X6.145Y-2.89
X6.145Y-3.165
X6.245Y-2.29
X6.245Y-2.565
X6.245Y-2.89
X6.245Y-3.165
X6.345Y-2.29
X6.345Y-2.565
X6.345Y-2.89
X6.345Y-3.165
X6.445Y-2.29
X6.445Y-2.565
X6.445Y-2.89
X6.445Y-3.165
T3
X6.57Y-2.91
X6.67Y-2.91
X6.77Y-2.91
X6.92Y-2.91
X7.02Y-2.91
X7.445Y-1.715
X7.445Y-1.815
X8.13Y-2.665
X8.13Y-2.765
X8.13Y-2.865
X8.13Y-2.965
X8.13Y-3.065
X8.13Y-3.165
T0
M30
