G04 #@! TF.GenerationSoftware,KiCad,Pcbnew,(5.1.9)-1*
G04 #@! TF.CreationDate,2021-04-27T11:27:05+01:00*
G04 #@! TF.ProjectId,RGBtoHDMI Amiga Denise - solarmon - Rev 2 - SOIC,52474274-6f48-4444-9d49-20416d696761,2 (SOIC)*
G04 #@! TF.SameCoordinates,Original*
G04 #@! TF.FileFunction,Soldermask,Bot*
G04 #@! TF.FilePolarity,Negative*
%FSLAX46Y46*%
G04 Gerber Fmt 4.6, Leading zero omitted, Abs format (unit mm)*
G04 Created by KiCad (PCBNEW (5.1.9)-1) date 2021-04-27 11:27:05*
%MOMM*%
%LPD*%
G01*
G04 APERTURE LIST*
%ADD10O,2.000000X2.000000*%
%ADD11O,1.900000X1.900000*%
%ADD12C,1.900000*%
G04 APERTURE END LIST*
D10*
X189103000Y-43561000D03*
G36*
G01*
X190103000Y-45251000D02*
X190103000Y-46951000D01*
G75*
G02*
X189953000Y-47101000I-150000J0D01*
G01*
X188253000Y-47101000D01*
G75*
G02*
X188103000Y-46951000I0J150000D01*
G01*
X188103000Y-45251000D01*
G75*
G02*
X188253000Y-45101000I150000J0D01*
G01*
X189953000Y-45101000D01*
G75*
G02*
X190103000Y-45251000I0J-150000D01*
G01*
G37*
D11*
X105283000Y-80391000D03*
X107823000Y-80391000D03*
X110363000Y-80391000D03*
X112903000Y-80391000D03*
X115443000Y-80391000D03*
X117983000Y-80391000D03*
X120523000Y-80391000D03*
X123063000Y-80391000D03*
X125603000Y-80391000D03*
X128143000Y-80391000D03*
X130683000Y-80391000D03*
X133223000Y-80391000D03*
X135763000Y-80391000D03*
X138303000Y-80391000D03*
X140843000Y-80391000D03*
X143383000Y-80391000D03*
X145923000Y-80391000D03*
X148463000Y-80391000D03*
X151003000Y-80391000D03*
X153543000Y-80391000D03*
X156083000Y-80391000D03*
X158623000Y-80391000D03*
X161163000Y-80391000D03*
G36*
G01*
X164503000Y-81341000D02*
X162903000Y-81341000D01*
G75*
G02*
X162753000Y-81191000I0J150000D01*
G01*
X162753000Y-79591000D01*
G75*
G02*
X162903000Y-79441000I150000J0D01*
G01*
X164503000Y-79441000D01*
G75*
G02*
X164653000Y-79591000I0J-150000D01*
G01*
X164653000Y-81191000D01*
G75*
G02*
X164503000Y-81341000I-150000J0D01*
G01*
G37*
X105283000Y-65151000D03*
X107823000Y-65151000D03*
X110363000Y-65151000D03*
X112903000Y-65151000D03*
X115443000Y-65151000D03*
X117983000Y-65151000D03*
X120523000Y-65151000D03*
X123063000Y-65151000D03*
X125603000Y-65151000D03*
X128143000Y-65151000D03*
X130683000Y-65151000D03*
X133223000Y-65151000D03*
X135763000Y-65151000D03*
X138303000Y-65151000D03*
X140843000Y-65151000D03*
X143383000Y-65151000D03*
X145923000Y-65151000D03*
X148463000Y-65151000D03*
X151003000Y-65151000D03*
X153543000Y-65151000D03*
X156083000Y-65151000D03*
X158623000Y-65151000D03*
X161163000Y-65151000D03*
G36*
G01*
X164503000Y-66101000D02*
X162903000Y-66101000D01*
G75*
G02*
X162753000Y-65951000I0J150000D01*
G01*
X162753000Y-64351000D01*
G75*
G02*
X162903000Y-64201000I150000J0D01*
G01*
X164503000Y-64201000D01*
G75*
G02*
X164653000Y-64351000I0J-150000D01*
G01*
X164653000Y-65951000D01*
G75*
G02*
X164503000Y-66101000I-150000J0D01*
G01*
G37*
D10*
X206502000Y-80391000D03*
X206502000Y-77851000D03*
X206502000Y-75311000D03*
X206502000Y-72771000D03*
X206502000Y-70231000D03*
G36*
G01*
X205502000Y-68541000D02*
X205502000Y-66841000D01*
G75*
G02*
X205652000Y-66691000I150000J0D01*
G01*
X207352000Y-66691000D01*
G75*
G02*
X207502000Y-66841000I0J-150000D01*
G01*
X207502000Y-68541000D01*
G75*
G02*
X207352000Y-68691000I-150000J0D01*
G01*
X205652000Y-68691000D01*
G75*
G02*
X205502000Y-68541000I0J150000D01*
G01*
G37*
G36*
G01*
X171108000Y-72914000D02*
X172808000Y-72914000D01*
G75*
G02*
X172958000Y-73064000I0J-150000D01*
G01*
X172958000Y-74764000D01*
G75*
G02*
X172808000Y-74914000I-150000J0D01*
G01*
X171108000Y-74914000D01*
G75*
G02*
X170958000Y-74764000I0J150000D01*
G01*
X170958000Y-73064000D01*
G75*
G02*
X171108000Y-72914000I150000J0D01*
G01*
G37*
X169418000Y-73914000D03*
X166878000Y-73914000D03*
X175768000Y-73914000D03*
G36*
G01*
X177458000Y-72914000D02*
X179158000Y-72914000D01*
G75*
G02*
X179308000Y-73064000I0J-150000D01*
G01*
X179308000Y-74764000D01*
G75*
G02*
X179158000Y-74914000I-150000J0D01*
G01*
X177458000Y-74914000D01*
G75*
G02*
X177308000Y-74764000I0J150000D01*
G01*
X177308000Y-73064000D01*
G75*
G02*
X177458000Y-72914000I150000J0D01*
G01*
G37*
G36*
G01*
X162903000Y-57216000D02*
X164503000Y-57216000D01*
G75*
G02*
X164653000Y-57366000I0J-150000D01*
G01*
X164653000Y-58966000D01*
G75*
G02*
X164503000Y-59116000I-150000J0D01*
G01*
X162903000Y-59116000D01*
G75*
G02*
X162753000Y-58966000I0J150000D01*
G01*
X162753000Y-57366000D01*
G75*
G02*
X162903000Y-57216000I150000J0D01*
G01*
G37*
D11*
X135763000Y-73406000D03*
X161163000Y-58166000D03*
X138303000Y-73406000D03*
X158623000Y-58166000D03*
X140843000Y-73406000D03*
X156083000Y-58166000D03*
X143383000Y-73406000D03*
X153543000Y-58166000D03*
X145923000Y-73406000D03*
X151003000Y-58166000D03*
X148463000Y-73406000D03*
X148463000Y-58166000D03*
X151003000Y-73406000D03*
X145923000Y-58166000D03*
X153543000Y-73406000D03*
X143383000Y-58166000D03*
X156083000Y-73406000D03*
X140843000Y-58166000D03*
X158623000Y-73406000D03*
X138303000Y-58166000D03*
X161163000Y-73406000D03*
X135763000Y-58166000D03*
X163703000Y-73406000D03*
D12*
X133223000Y-58166000D03*
D11*
X105283000Y-73406000D03*
X130683000Y-58166000D03*
X107823000Y-73406000D03*
X128143000Y-58166000D03*
X110363000Y-73406000D03*
X125603000Y-58166000D03*
X112903000Y-73406000D03*
X123063000Y-58166000D03*
X115443000Y-73406000D03*
X120523000Y-58166000D03*
X117983000Y-73406000D03*
X117983000Y-58166000D03*
X120523000Y-73406000D03*
X115443000Y-58166000D03*
X123063000Y-73406000D03*
X112903000Y-58166000D03*
X125603000Y-73406000D03*
X110363000Y-58166000D03*
X128143000Y-73406000D03*
X107823000Y-58166000D03*
X130683000Y-73406000D03*
X105283000Y-58166000D03*
X133223000Y-73406000D03*
M02*
