M48
; DRILL file {KiCad (5.1.9)-1} date 04/11/21 17:11:58
; FORMAT={-:-/ absolute / inch / decimal}
; #@! TF.CreationDate,2021-04-11T17:11:58+01:00
; #@! TF.GenerationSoftware,Kicad,Pcbnew,(5.1.9)-1
; #@! TF.FileFunction,Plated,1,2,PTH
FMAT,2
INCH
T1C0.0157
T2C0.0394
T3C0.1260
%
G90
G05
T1
X5.055Y-1.85
X5.075Y-6.05
X5.1Y-5.525
X5.1Y-5.815
X5.125Y-4.11
X5.125Y-5.3
X5.15Y-2.55
X5.15Y-2.655
X5.16Y-2.77
X5.41Y-4.93
X5.42Y-3.975
X5.425Y-5.1
X5.425Y-5.2
X5.43Y-1.755
X5.45Y-2.1
X5.45Y-5.575
X5.45Y-5.675
X5.465Y-4.06
X5.475Y-6.05
X5.51Y-5.855
T2
X5.225Y-1.7
X5.225Y-1.8
X5.225Y-1.9
X5.225Y-2.0
X5.225Y-2.1
X5.225Y-2.2
X5.225Y-2.3
X5.225Y-2.4
X5.225Y-2.5
X5.225Y-2.6
X5.225Y-2.7
X5.225Y-2.8
X5.225Y-2.9
X5.225Y-3.0
X5.225Y-3.1
X5.225Y-3.2
X5.225Y-3.3
X5.225Y-3.4
X5.225Y-3.5
X5.225Y-3.6
X5.225Y-4.25
X5.225Y-4.35
X5.225Y-4.45
X5.225Y-4.55
X5.225Y-4.65
X5.225Y-4.75
X5.225Y-4.85
X5.225Y-4.95
X5.225Y-5.05
X5.225Y-5.15
X5.225Y-5.25
X5.225Y-5.35
X5.225Y-5.45
X5.225Y-5.55
X5.225Y-5.65
X5.225Y-5.75
X5.225Y-5.85
X5.225Y-5.95
X5.225Y-6.05
X5.225Y-6.15
X5.325Y-1.7
X5.325Y-1.8
X5.325Y-1.9
X5.325Y-2.0
X5.325Y-2.1
X5.325Y-2.2
X5.325Y-2.3
X5.325Y-2.4
X5.325Y-2.5
X5.325Y-2.6
X5.325Y-2.7
X5.325Y-2.8
X5.325Y-2.9
X5.325Y-3.0
X5.325Y-3.1
X5.325Y-3.2
X5.325Y-3.3
X5.325Y-3.4
X5.325Y-3.5
X5.325Y-3.6
X5.325Y-4.25
X5.325Y-4.35
X5.325Y-4.45
X5.325Y-4.55
X5.325Y-4.65
X5.325Y-4.75
X5.325Y-4.85
X5.325Y-4.95
X5.325Y-5.05
X5.325Y-5.15
X5.325Y-5.25
X5.325Y-5.35
X5.325Y-5.45
X5.325Y-5.55
X5.325Y-5.65
X5.325Y-5.75
X5.325Y-5.85
X5.325Y-5.95
X5.325Y-6.05
X5.325Y-6.15
T3
X5.275Y-1.5
X5.275Y-3.8
T0
M30
