%TF.GenerationSoftware,KiCad,Pcbnew,(5.1.9)-1*%
%TF.CreationDate,2021-04-11T17:11:59+01:00*%
%TF.ProjectId,RGBtoHDMI-Adapter Type B v2,52474274-6f48-4444-9d49-2d4164617074,2*%
%TF.SameCoordinates,Original*%
%TF.FileFunction,Copper,L1,Top*%
%TF.FilePolarity,Positive*%
%FSLAX46Y46*%
G04 Gerber Fmt 4.6, Leading zero omitted, Abs format (unit mm)*
G04 Created by KiCad (PCBNEW (5.1.9)-1) date 2021-04-11 17:11:59*
%MOMM*%
%LPD*%
G01*
G04 APERTURE LIST*
%TA.AperFunction,ComponentPad*%
%ADD10O,1.700000X1.700000*%
%TD*%
%TA.AperFunction,ComponentPad*%
%ADD11R,1.700000X1.700000*%
%TD*%
%TA.AperFunction,ComponentPad*%
%ADD12C,5.700000*%
%TD*%
%TA.AperFunction,ViaPad*%
%ADD13C,0.800000*%
%TD*%
%TA.AperFunction,Conductor*%
%ADD14C,0.500000*%
%TD*%
%TA.AperFunction,Conductor*%
%ADD15C,0.250000*%
%TD*%
%TA.AperFunction,Conductor*%
%ADD16C,0.254000*%
%TD*%
%TA.AperFunction,Conductor*%
%ADD17C,0.100000*%
%TD*%
G04 APERTURE END LIST*
%TO.P,C1,2*%
%TO.N,PiCLK*%
%TA.AperFunction,SMDPad,CuDef*%
G36*
G01*
X130142000Y-57970000D02*
X129192000Y-57970000D01*
G75*
G02*
X128942000Y-57720000I0J250000D01*
G01*
X128942000Y-57045000D01*
G75*
G02*
X129192000Y-56795000I250000J0D01*
G01*
X130142000Y-56795000D01*
G75*
G02*
X130392000Y-57045000I0J-250000D01*
G01*
X130392000Y-57720000D01*
G75*
G02*
X130142000Y-57970000I-250000J0D01*
G01*
G37*
%TD.AperFunction*%
%TO.P,C1,1*%
%TO.N,GND*%
%TA.AperFunction,SMDPad,CuDef*%
G36*
G01*
X130142000Y-60045000D02*
X129192000Y-60045000D01*
G75*
G02*
X128942000Y-59795000I0J250000D01*
G01*
X128942000Y-59120000D01*
G75*
G02*
X129192000Y-58870000I250000J0D01*
G01*
X130142000Y-58870000D01*
G75*
G02*
X130392000Y-59120000I0J-250000D01*
G01*
X130392000Y-59795000D01*
G75*
G02*
X130142000Y-60045000I-250000J0D01*
G01*
G37*
%TD.AperFunction*%
%TD*%
D10*
%TO.P,J2,40*%
%TO.N,Net-(J2-Pad40)*%
X135255000Y-91440000D03*
%TO.P,J2,39*%
%TO.N,GND*%
X132715000Y-91440000D03*
%TO.P,J2,38*%
%TO.N,Net-(J2-Pad38)*%
X135255000Y-88900000D03*
%TO.P,J2,37*%
%TO.N,Net-(J2-Pad37)*%
X132715000Y-88900000D03*
%TO.P,J2,36*%
%TO.N,GPIO16*%
X135255000Y-86360000D03*
%TO.P,J2,35*%
%TO.N,Net-(J2-Pad35)*%
X132715000Y-86360000D03*
%TO.P,J2,34*%
%TO.N,Net-(J2-Pad34)*%
X135255000Y-83820000D03*
%TO.P,J2,33*%
%TO.N,PiR3*%
X132715000Y-83820000D03*
%TO.P,J2,32*%
%TO.N,PiR2*%
X135255000Y-81280000D03*
%TO.P,J2,31*%
%TO.N,PiG0*%
X132715000Y-81280000D03*
%TO.P,J2,30*%
%TO.N,Net-(J2-Pad30)*%
X135255000Y-78740000D03*
%TO.P,J2,29*%
%TO.N,PiB3*%
X132715000Y-78740000D03*
%TO.P,J2,28*%
%TO.N,Net-(J2-Pad28)*%
X135255000Y-76200000D03*
%TO.P,J2,27*%
%TO.N,Net-(J2-Pad27)*%
X132715000Y-76200000D03*
%TO.P,J2,26*%
%TO.N,PiG1*%
X135255000Y-73660000D03*
%TO.P,J2,25*%
%TO.N,GND*%
X132715000Y-73660000D03*
%TO.P,J2,24*%
%TO.N,PiG2*%
X135255000Y-71120000D03*
%TO.P,J2,23*%
%TO.N,PiR1*%
X132715000Y-71120000D03*
%TO.P,J2,22*%
%TO.N,Net-(J2-Pad22)*%
X135255000Y-68580000D03*
%TO.P,J2,21*%
%TO.N,PiG3*%
X132715000Y-68580000D03*
%TO.P,J2,20*%
%TO.N,GND*%
X135255000Y-66040000D03*
%TO.P,J2,19*%
%TO.N,PiR0*%
X132715000Y-66040000D03*
%TO.P,J2,18*%
%TO.N,Net-(J2-Pad18)*%
X135255000Y-63500000D03*
%TO.P,J2,17*%
%TO.N,+3V3*%
X132715000Y-63500000D03*
%TO.P,J2,16*%
%TO.N,PiSYNC*%
X135255000Y-60960000D03*
%TO.P,J2,15*%
%TO.N,Net-(J2-Pad15)*%
X132715000Y-60960000D03*
%TO.P,J2,14*%
%TO.N,GND*%
X135255000Y-58420000D03*
%TO.P,J2,13*%
%TO.N,Net-(J2-Pad13)*%
X132715000Y-58420000D03*
%TO.P,J2,12*%
%TO.N,GPIO18*%
X135255000Y-55880000D03*
%TO.P,J2,11*%
%TO.N,PiCLK*%
X132715000Y-55880000D03*
%TO.P,J2,10*%
%TO.N,Net-(J2-Pad10)*%
X135255000Y-53340000D03*
%TO.P,J2,9*%
%TO.N,GND*%
X132715000Y-53340000D03*
%TO.P,J2,8*%
%TO.N,Net-(J2-Pad8)*%
X135255000Y-50800000D03*
%TO.P,J2,7*%
%TO.N,PiB2*%
X132715000Y-50800000D03*
%TO.P,J2,6*%
%TO.N,GND*%
X135255000Y-48260000D03*
%TO.P,J2,5*%
%TO.N,PiB1*%
X132715000Y-48260000D03*
%TO.P,J2,4*%
%TO.N,+5V*%
X135255000Y-45720000D03*
%TO.P,J2,3*%
%TO.N,PiB0*%
X132715000Y-45720000D03*
%TO.P,J2,2*%
%TO.N,+5V*%
X135255000Y-43180000D03*
D11*
%TO.P,J2,1*%
%TO.N,+3V3*%
X132715000Y-43180000D03*
%TD*%
D12*
%TO.P,H2,1*%
%TO.N,GND*%
X133985000Y-96520000D03*
%TD*%
%TO.P,H1,1*%
%TO.N,GND*%
X133985000Y-38100000D03*
%TD*%
D10*
%TO.P,J1,40*%
%TO.N,Net-(J1-Pad40)*%
X132715000Y-156210000D03*
%TO.P,J1,39*%
%TO.N,GND*%
X135255000Y-156210000D03*
%TO.P,J1,38*%
%TO.N,Net-(J1-Pad38)*%
X132715000Y-153670000D03*
%TO.P,J1,37*%
%TO.N,Net-(J1-Pad37)*%
X135255000Y-153670000D03*
%TO.P,J1,36*%
%TO.N,GPIO16*%
X132715000Y-151130000D03*
%TO.P,J1,35*%
%TO.N,Net-(J1-Pad35)*%
X135255000Y-151130000D03*
%TO.P,J1,34*%
%TO.N,Net-(J1-Pad34)*%
X132715000Y-148590000D03*
%TO.P,J1,33*%
%TO.N,PiR3*%
X135255000Y-148590000D03*
%TO.P,J1,32*%
%TO.N,PiR2*%
X132715000Y-146050000D03*
%TO.P,J1,31*%
%TO.N,PiG0*%
X135255000Y-146050000D03*
%TO.P,J1,30*%
%TO.N,Net-(J1-Pad30)*%
X132715000Y-143510000D03*
%TO.P,J1,29*%
%TO.N,PiB3*%
X135255000Y-143510000D03*
%TO.P,J1,28*%
%TO.N,Net-(J1-Pad28)*%
X132715000Y-140970000D03*
%TO.P,J1,27*%
%TO.N,Net-(J1-Pad27)*%
X135255000Y-140970000D03*
%TO.P,J1,26*%
%TO.N,PiG1*%
X132715000Y-138430000D03*
%TO.P,J1,25*%
%TO.N,GND*%
X135255000Y-138430000D03*
%TO.P,J1,24*%
%TO.N,PiG2*%
X132715000Y-135890000D03*
%TO.P,J1,23*%
%TO.N,PiR1*%
X135255000Y-135890000D03*
%TO.P,J1,22*%
%TO.N,Net-(J1-Pad22)*%
X132715000Y-133350000D03*
%TO.P,J1,21*%
%TO.N,PiG3*%
X135255000Y-133350000D03*
%TO.P,J1,20*%
%TO.N,GND*%
X132715000Y-130810000D03*
%TO.P,J1,19*%
%TO.N,PiR0*%
X135255000Y-130810000D03*
%TO.P,J1,18*%
%TO.N,Net-(J1-Pad18)*%
X132715000Y-128270000D03*
%TO.P,J1,17*%
%TO.N,+3V3*%
X135255000Y-128270000D03*
%TO.P,J1,16*%
%TO.N,PiSYNC*%
X132715000Y-125730000D03*
%TO.P,J1,15*%
%TO.N,Net-(J1-Pad15)*%
X135255000Y-125730000D03*
%TO.P,J1,14*%
%TO.N,GND*%
X132715000Y-123190000D03*
%TO.P,J1,13*%
%TO.N,Net-(J1-Pad13)*%
X135255000Y-123190000D03*
%TO.P,J1,12*%
%TO.N,GPIO18*%
X132715000Y-120650000D03*
%TO.P,J1,11*%
%TO.N,PiCLK*%
X135255000Y-120650000D03*
%TO.P,J1,10*%
%TO.N,Net-(J1-Pad10)*%
X132715000Y-118110000D03*
%TO.P,J1,9*%
%TO.N,GND*%
X135255000Y-118110000D03*
%TO.P,J1,8*%
%TO.N,Net-(J1-Pad8)*%
X132715000Y-115570000D03*
%TO.P,J1,7*%
%TO.N,PiB2*%
X135255000Y-115570000D03*
%TO.P,J1,6*%
%TO.N,GND*%
X132715000Y-113030000D03*
%TO.P,J1,5*%
%TO.N,PiB1*%
X135255000Y-113030000D03*
%TO.P,J1,4*%
%TO.N,+5V*%
X132715000Y-110490000D03*
%TO.P,J1,3*%
%TO.N,PiB0*%
X135255000Y-110490000D03*
%TO.P,J1,2*%
%TO.N,+5V*%
X132715000Y-107950000D03*
D11*
%TO.P,J1,1*%
%TO.N,+3V3*%
X135255000Y-107950000D03*
%TD*%
D13*
%TO.N,GND*%
X128397000Y-46990000D03*
X138430000Y-53340000D03*
X130810000Y-64770000D03*
X129540000Y-147701000D03*
X129540000Y-140335000D03*
X130175000Y-134620000D03*
X138430000Y-141605000D03*
X138430000Y-144145000D03*
X137795000Y-132080000D03*
X137795000Y-129540000D03*
X137414000Y-125222000D03*
X131064000Y-70358000D03*
X130810000Y-67437000D03*
X137922000Y-44577000D03*
X128905000Y-153670000D03*
X139065000Y-153670000D03*
X139954000Y-148717000D03*
X137668000Y-100965000D03*
X138811000Y-103124000D03*
X130175000Y-104394000D03*
%TD*%
D14*
%TO.N,+5V*%
X135255000Y-43180000D02*
X135255000Y-45720000D01*
X132715000Y-107950000D02*
X132715000Y-110490000D01*
X132715000Y-107950000D02*
X139380988Y-101284012D01*
X139380988Y-49845988D02*
X135255000Y-45720000D01*
X139380988Y-101284012D02*
X139380988Y-49845988D01*
D15*
%TO.N,GPIO16*%
X134405001Y-85510001D02*
X135255000Y-86360000D01*
X133985000Y-85090000D02*
X134405001Y-85510001D01*
X131368800Y-85090000D02*
X133985000Y-85090000D01*
X129919589Y-151130000D02*
X127315345Y-148525756D01*
X132715000Y-151130000D02*
X129919589Y-151130000D01*
X127315345Y-148525756D02*
X127315345Y-89143455D01*
X127315345Y-89143455D02*
X131368800Y-85090000D01*
%TO.N,PiR2*%
X131865001Y-145200001D02*
X132715000Y-146050000D01*
X127870791Y-141205791D02*
X131865001Y-145200001D01*
X127870791Y-91737609D02*
X127870791Y-141205791D01*
X131978400Y-87630000D02*
X127870791Y-91737609D01*
X136106402Y-87630000D02*
X131978400Y-87630000D01*
X136430001Y-87306401D02*
X136106402Y-87630000D01*
X136430001Y-82455001D02*
X136430001Y-87306401D01*
X135255000Y-81280000D02*
X136430001Y-82455001D01*
%TO.N,PiG1*%
X128556589Y-93337811D02*
X128556589Y-134271589D01*
X131724400Y-90170000D02*
X128556589Y-93337811D01*
X135724002Y-90170000D02*
X131724400Y-90170000D01*
X137160000Y-88734002D02*
X135724002Y-90170000D01*
X137160000Y-75565000D02*
X137160000Y-88734002D01*
X128556589Y-134271589D02*
X132715000Y-138430000D01*
X135255000Y-73660000D02*
X137160000Y-75565000D01*
%TO.N,PiG2*%
X131292600Y-92964000D02*
X129184400Y-95072200D01*
X136220200Y-92964000D02*
X131292600Y-92964000D01*
X137668000Y-91516200D02*
X136220200Y-92964000D01*
X129184400Y-132359400D02*
X132715000Y-135890000D01*
X137668000Y-73507600D02*
X137668000Y-91516200D01*
X129184400Y-95072200D02*
X129184400Y-132359400D01*
X136455401Y-72295001D02*
X137668000Y-73507600D01*
X136430001Y-72295001D02*
X136455401Y-72295001D01*
X135255000Y-71120000D02*
X136430001Y-72295001D01*
%TO.N,PiSYNC*%
X138355966Y-97969863D02*
X138355966Y-64060966D01*
X130302000Y-106023829D02*
X138355966Y-97969863D01*
X130302000Y-123317000D02*
X130302000Y-106023829D01*
X132715000Y-125730000D02*
X130302000Y-123317000D01*
X138355966Y-64060966D02*
X135255000Y-60960000D01*
%TO.N,GPIO18*%
X138805977Y-59430977D02*
X135255000Y-55880000D01*
X130860800Y-106101440D02*
X138805977Y-98156263D01*
X130860800Y-118795800D02*
X130860800Y-106101440D01*
X132715000Y-120650000D02*
X130860800Y-118795800D01*
X138805977Y-98156263D02*
X138805977Y-59430977D01*
%TO.N,PiCLK*%
X129667000Y-56261000D02*
X129667000Y-57382500D01*
X130048000Y-55880000D02*
X129667000Y-56261000D01*
X132715000Y-55880000D02*
X130048000Y-55880000D01*
D14*
%TO.N,+3V3*%
X134015001Y-41879999D02*
X132715000Y-43180000D01*
X134462999Y-41879999D02*
X134015001Y-41879999D01*
X138399999Y-41879999D02*
X134462999Y-41879999D01*
X140494990Y-43974990D02*
X138399999Y-41879999D01*
X140494990Y-126459010D02*
X140494990Y-43974990D01*
X138684000Y-128270000D02*
X140494990Y-126459010D01*
X135255000Y-128270000D02*
X138684000Y-128270000D01*
X139446000Y-127508000D02*
X138684000Y-128270000D01*
X139446000Y-112141000D02*
X139446000Y-127508000D01*
X135255000Y-107950000D02*
X139446000Y-112141000D01*
X131602001Y-41879999D02*
X134462999Y-41879999D01*
X127127000Y-61595000D02*
X127127000Y-46355000D01*
X129032000Y-63500000D02*
X127127000Y-61595000D01*
X127127000Y-46355000D02*
X131602001Y-41879999D01*
X132715000Y-63500000D02*
X129032000Y-63500000D01*
%TD*%
D16*
%TO.N,GND*%
X138332454Y-34750644D02*
X138849440Y-34906732D01*
X139326262Y-35160262D01*
X139744760Y-35501581D01*
X140088992Y-35917686D01*
X140345845Y-36392724D01*
X140505536Y-36908605D01*
X140563996Y-37464813D01*
X140564001Y-37466122D01*
X140564001Y-43151632D01*
X138868104Y-41455736D01*
X138848342Y-41431656D01*
X138752260Y-41352803D01*
X138642641Y-41294210D01*
X138523697Y-41258129D01*
X138430997Y-41248999D01*
X138430989Y-41248999D01*
X138399999Y-41245947D01*
X138369009Y-41248999D01*
X134045988Y-41248999D01*
X134015000Y-41245947D01*
X133984012Y-41248999D01*
X131632988Y-41248999D01*
X131602000Y-41245947D01*
X131571012Y-41248999D01*
X131571003Y-41248999D01*
X131478303Y-41258129D01*
X131359359Y-41294210D01*
X131249740Y-41352803D01*
X131153658Y-41431656D01*
X131133900Y-41455731D01*
X126702733Y-45886899D01*
X126678658Y-45906657D01*
X126658900Y-45930732D01*
X126658897Y-45930735D01*
X126599804Y-46002740D01*
X126541211Y-46112359D01*
X126505130Y-46231303D01*
X126492948Y-46355000D01*
X126496001Y-46386000D01*
X126496000Y-61564010D01*
X126492948Y-61595000D01*
X126496000Y-61625990D01*
X126496000Y-61625997D01*
X126505130Y-61718697D01*
X126541211Y-61837641D01*
X126599804Y-61947260D01*
X126678657Y-62043343D01*
X126702737Y-62063105D01*
X128563899Y-63924268D01*
X128583657Y-63948343D01*
X128679739Y-64027196D01*
X128789358Y-64085789D01*
X128908302Y-64121870D01*
X129001002Y-64131000D01*
X129001009Y-64131000D01*
X129032000Y-64134052D01*
X129062990Y-64131000D01*
X131656110Y-64131000D01*
X131758820Y-64284717D01*
X131930283Y-64456180D01*
X132131903Y-64590898D01*
X132355931Y-64683693D01*
X132593757Y-64731000D01*
X132836243Y-64731000D01*
X133074069Y-64683693D01*
X133298097Y-64590898D01*
X133499717Y-64456180D01*
X133671180Y-64284717D01*
X133805898Y-64083097D01*
X133898693Y-63859069D01*
X133946000Y-63621243D01*
X133946000Y-63378757D01*
X134024000Y-63378757D01*
X134024000Y-63621243D01*
X134071307Y-63859069D01*
X134164102Y-64083097D01*
X134298820Y-64284717D01*
X134470283Y-64456180D01*
X134671903Y-64590898D01*
X134895931Y-64683693D01*
X135133757Y-64731000D01*
X135376243Y-64731000D01*
X135614069Y-64683693D01*
X135838097Y-64590898D01*
X136039717Y-64456180D01*
X136211180Y-64284717D01*
X136345898Y-64083097D01*
X136438693Y-63859069D01*
X136486000Y-63621243D01*
X136486000Y-63378757D01*
X136438693Y-63140931D01*
X136345898Y-62916903D01*
X136211180Y-62715283D01*
X136039717Y-62543820D01*
X135838097Y-62409102D01*
X135614069Y-62316307D01*
X135376243Y-62269000D01*
X135133757Y-62269000D01*
X134895931Y-62316307D01*
X134671903Y-62409102D01*
X134470283Y-62543820D01*
X134298820Y-62715283D01*
X134164102Y-62916903D01*
X134071307Y-63140931D01*
X134024000Y-63378757D01*
X133946000Y-63378757D01*
X133898693Y-63140931D01*
X133805898Y-62916903D01*
X133671180Y-62715283D01*
X133499717Y-62543820D01*
X133298097Y-62409102D01*
X133074069Y-62316307D01*
X132836243Y-62269000D01*
X132593757Y-62269000D01*
X132355931Y-62316307D01*
X132131903Y-62409102D01*
X131930283Y-62543820D01*
X131758820Y-62715283D01*
X131656110Y-62869000D01*
X129293369Y-62869000D01*
X127758000Y-61333632D01*
X127758000Y-60838757D01*
X131484000Y-60838757D01*
X131484000Y-61081243D01*
X131531307Y-61319069D01*
X131624102Y-61543097D01*
X131758820Y-61744717D01*
X131930283Y-61916180D01*
X132131903Y-62050898D01*
X132355931Y-62143693D01*
X132593757Y-62191000D01*
X132836243Y-62191000D01*
X133074069Y-62143693D01*
X133298097Y-62050898D01*
X133499717Y-61916180D01*
X133671180Y-61744717D01*
X133805898Y-61543097D01*
X133898693Y-61319069D01*
X133946000Y-61081243D01*
X133946000Y-60838757D01*
X133898693Y-60600931D01*
X133805898Y-60376903D01*
X133671180Y-60175283D01*
X133499717Y-60003820D01*
X133298097Y-59869102D01*
X133074069Y-59776307D01*
X132836243Y-59729000D01*
X132593757Y-59729000D01*
X132355931Y-59776307D01*
X132131903Y-59869102D01*
X131930283Y-60003820D01*
X131758820Y-60175283D01*
X131624102Y-60376903D01*
X131531307Y-60600931D01*
X131484000Y-60838757D01*
X127758000Y-60838757D01*
X127758000Y-60045000D01*
X128559157Y-60045000D01*
X128566513Y-60119689D01*
X128588299Y-60191508D01*
X128623678Y-60257696D01*
X128671289Y-60315711D01*
X128729304Y-60363322D01*
X128795492Y-60398701D01*
X128867311Y-60420487D01*
X128942000Y-60427843D01*
X129444750Y-60426000D01*
X129540000Y-60330750D01*
X129540000Y-59584500D01*
X129794000Y-59584500D01*
X129794000Y-60330750D01*
X129889250Y-60426000D01*
X130392000Y-60427843D01*
X130466689Y-60420487D01*
X130538508Y-60398701D01*
X130604696Y-60363322D01*
X130662711Y-60315711D01*
X130710322Y-60257696D01*
X130745701Y-60191508D01*
X130767487Y-60119689D01*
X130774843Y-60045000D01*
X130773000Y-59679750D01*
X130677750Y-59584500D01*
X129794000Y-59584500D01*
X129540000Y-59584500D01*
X128656250Y-59584500D01*
X128561000Y-59679750D01*
X128559157Y-60045000D01*
X127758000Y-60045000D01*
X127758000Y-58870000D01*
X128559157Y-58870000D01*
X128561000Y-59235250D01*
X128656250Y-59330500D01*
X129540000Y-59330500D01*
X129540000Y-58584250D01*
X129794000Y-58584250D01*
X129794000Y-59330500D01*
X130677750Y-59330500D01*
X130773000Y-59235250D01*
X130774843Y-58870000D01*
X130767487Y-58795311D01*
X130745701Y-58723492D01*
X130710322Y-58657304D01*
X130662711Y-58599289D01*
X130604696Y-58551678D01*
X130538508Y-58516299D01*
X130466689Y-58494513D01*
X130392000Y-58487157D01*
X129889250Y-58489000D01*
X129794000Y-58584250D01*
X129540000Y-58584250D01*
X129444750Y-58489000D01*
X128942000Y-58487157D01*
X128867311Y-58494513D01*
X128795492Y-58516299D01*
X128729304Y-58551678D01*
X128671289Y-58599289D01*
X128623678Y-58657304D01*
X128588299Y-58723492D01*
X128566513Y-58795311D01*
X128559157Y-58870000D01*
X127758000Y-58870000D01*
X127758000Y-57045000D01*
X128559157Y-57045000D01*
X128559157Y-57720000D01*
X128571317Y-57843462D01*
X128607329Y-57962179D01*
X128665810Y-58071589D01*
X128744512Y-58167488D01*
X128840411Y-58246190D01*
X128949821Y-58304671D01*
X129068538Y-58340683D01*
X129192000Y-58352843D01*
X130142000Y-58352843D01*
X130265462Y-58340683D01*
X130384179Y-58304671D01*
X130395243Y-58298757D01*
X131484000Y-58298757D01*
X131484000Y-58541243D01*
X131531307Y-58779069D01*
X131624102Y-59003097D01*
X131758820Y-59204717D01*
X131930283Y-59376180D01*
X132131903Y-59510898D01*
X132355931Y-59603693D01*
X132593757Y-59651000D01*
X132836243Y-59651000D01*
X133074069Y-59603693D01*
X133298097Y-59510898D01*
X133499717Y-59376180D01*
X133671180Y-59204717D01*
X133805898Y-59003097D01*
X133898693Y-58779069D01*
X133907065Y-58736980D01*
X134065511Y-58736980D01*
X134089866Y-58817288D01*
X134189761Y-59036961D01*
X134330592Y-59232924D01*
X134506948Y-59397647D01*
X134712051Y-59524799D01*
X134938019Y-59609495D01*
X135128000Y-59549187D01*
X135128000Y-58547000D01*
X135382000Y-58547000D01*
X135382000Y-59549187D01*
X135571981Y-59609495D01*
X135797949Y-59524799D01*
X136003052Y-59397647D01*
X136179408Y-59232924D01*
X136320239Y-59036961D01*
X136420134Y-58817288D01*
X136444489Y-58736980D01*
X136383627Y-58547000D01*
X135382000Y-58547000D01*
X135128000Y-58547000D01*
X134126373Y-58547000D01*
X134065511Y-58736980D01*
X133907065Y-58736980D01*
X133946000Y-58541243D01*
X133946000Y-58298757D01*
X133907066Y-58103020D01*
X134065511Y-58103020D01*
X134126373Y-58293000D01*
X135128000Y-58293000D01*
X135128000Y-57290813D01*
X135382000Y-57290813D01*
X135382000Y-58293000D01*
X136383627Y-58293000D01*
X136444489Y-58103020D01*
X136420134Y-58022712D01*
X136320239Y-57803039D01*
X136179408Y-57607076D01*
X136003052Y-57442353D01*
X135797949Y-57315201D01*
X135571981Y-57230505D01*
X135382000Y-57290813D01*
X135128000Y-57290813D01*
X134938019Y-57230505D01*
X134712051Y-57315201D01*
X134506948Y-57442353D01*
X134330592Y-57607076D01*
X134189761Y-57803039D01*
X134089866Y-58022712D01*
X134065511Y-58103020D01*
X133907066Y-58103020D01*
X133898693Y-58060931D01*
X133805898Y-57836903D01*
X133671180Y-57635283D01*
X133499717Y-57463820D01*
X133298097Y-57329102D01*
X133074069Y-57236307D01*
X132836243Y-57189000D01*
X132593757Y-57189000D01*
X132355931Y-57236307D01*
X132131903Y-57329102D01*
X131930283Y-57463820D01*
X131758820Y-57635283D01*
X131624102Y-57836903D01*
X131531307Y-58060931D01*
X131484000Y-58298757D01*
X130395243Y-58298757D01*
X130493589Y-58246190D01*
X130589488Y-58167488D01*
X130668190Y-58071589D01*
X130726671Y-57962179D01*
X130762683Y-57843462D01*
X130774843Y-57720000D01*
X130774843Y-57045000D01*
X130762683Y-56921538D01*
X130726671Y-56802821D01*
X130668190Y-56693411D01*
X130589488Y-56597512D01*
X130493589Y-56518810D01*
X130384179Y-56460329D01*
X130265462Y-56424317D01*
X130223416Y-56420176D01*
X130257592Y-56386000D01*
X131592168Y-56386000D01*
X131624102Y-56463097D01*
X131758820Y-56664717D01*
X131930283Y-56836180D01*
X132131903Y-56970898D01*
X132355931Y-57063693D01*
X132593757Y-57111000D01*
X132836243Y-57111000D01*
X133074069Y-57063693D01*
X133298097Y-56970898D01*
X133499717Y-56836180D01*
X133671180Y-56664717D01*
X133805898Y-56463097D01*
X133898693Y-56239069D01*
X133946000Y-56001243D01*
X133946000Y-55758757D01*
X133898693Y-55520931D01*
X133805898Y-55296903D01*
X133671180Y-55095283D01*
X133499717Y-54923820D01*
X133298097Y-54789102D01*
X133074069Y-54696307D01*
X132836243Y-54649000D01*
X132593757Y-54649000D01*
X132355931Y-54696307D01*
X132131903Y-54789102D01*
X131930283Y-54923820D01*
X131758820Y-55095283D01*
X131624102Y-55296903D01*
X131592168Y-55374000D01*
X130072845Y-55374000D01*
X130047999Y-55371553D01*
X130023153Y-55374000D01*
X130023146Y-55374000D01*
X129958694Y-55380348D01*
X129948806Y-55381322D01*
X129926607Y-55388056D01*
X129853425Y-55410255D01*
X129765521Y-55457241D01*
X129688473Y-55520473D01*
X129672628Y-55539780D01*
X129326785Y-55885624D01*
X129307473Y-55901473D01*
X129244241Y-55978521D01*
X129197255Y-56066426D01*
X129168322Y-56161808D01*
X129161000Y-56236147D01*
X129161000Y-56236154D01*
X129158553Y-56261000D01*
X129161000Y-56285847D01*
X129161000Y-56415210D01*
X129068538Y-56424317D01*
X128949821Y-56460329D01*
X128840411Y-56518810D01*
X128744512Y-56597512D01*
X128665810Y-56693411D01*
X128607329Y-56802821D01*
X128571317Y-56921538D01*
X128559157Y-57045000D01*
X127758000Y-57045000D01*
X127758000Y-53656980D01*
X131525511Y-53656980D01*
X131549866Y-53737288D01*
X131649761Y-53956961D01*
X131790592Y-54152924D01*
X131966948Y-54317647D01*
X132172051Y-54444799D01*
X132398019Y-54529495D01*
X132588000Y-54469187D01*
X132588000Y-53467000D01*
X132842000Y-53467000D01*
X132842000Y-54469187D01*
X133031981Y-54529495D01*
X133257949Y-54444799D01*
X133463052Y-54317647D01*
X133639408Y-54152924D01*
X133780239Y-53956961D01*
X133880134Y-53737288D01*
X133904489Y-53656980D01*
X133843627Y-53467000D01*
X132842000Y-53467000D01*
X132588000Y-53467000D01*
X131586373Y-53467000D01*
X131525511Y-53656980D01*
X127758000Y-53656980D01*
X127758000Y-53218757D01*
X134024000Y-53218757D01*
X134024000Y-53461243D01*
X134071307Y-53699069D01*
X134164102Y-53923097D01*
X134298820Y-54124717D01*
X134470283Y-54296180D01*
X134671903Y-54430898D01*
X134895931Y-54523693D01*
X135133757Y-54571000D01*
X135376243Y-54571000D01*
X135614069Y-54523693D01*
X135838097Y-54430898D01*
X136039717Y-54296180D01*
X136211180Y-54124717D01*
X136345898Y-53923097D01*
X136438693Y-53699069D01*
X136486000Y-53461243D01*
X136486000Y-53218757D01*
X136438693Y-52980931D01*
X136345898Y-52756903D01*
X136211180Y-52555283D01*
X136039717Y-52383820D01*
X135838097Y-52249102D01*
X135614069Y-52156307D01*
X135376243Y-52109000D01*
X135133757Y-52109000D01*
X134895931Y-52156307D01*
X134671903Y-52249102D01*
X134470283Y-52383820D01*
X134298820Y-52555283D01*
X134164102Y-52756903D01*
X134071307Y-52980931D01*
X134024000Y-53218757D01*
X127758000Y-53218757D01*
X127758000Y-53023020D01*
X131525511Y-53023020D01*
X131586373Y-53213000D01*
X132588000Y-53213000D01*
X132588000Y-52210813D01*
X132842000Y-52210813D01*
X132842000Y-53213000D01*
X133843627Y-53213000D01*
X133904489Y-53023020D01*
X133880134Y-52942712D01*
X133780239Y-52723039D01*
X133639408Y-52527076D01*
X133463052Y-52362353D01*
X133257949Y-52235201D01*
X133031981Y-52150505D01*
X132842000Y-52210813D01*
X132588000Y-52210813D01*
X132398019Y-52150505D01*
X132172051Y-52235201D01*
X131966948Y-52362353D01*
X131790592Y-52527076D01*
X131649761Y-52723039D01*
X131549866Y-52942712D01*
X131525511Y-53023020D01*
X127758000Y-53023020D01*
X127758000Y-50678757D01*
X131484000Y-50678757D01*
X131484000Y-50921243D01*
X131531307Y-51159069D01*
X131624102Y-51383097D01*
X131758820Y-51584717D01*
X131930283Y-51756180D01*
X132131903Y-51890898D01*
X132355931Y-51983693D01*
X132593757Y-52031000D01*
X132836243Y-52031000D01*
X133074069Y-51983693D01*
X133298097Y-51890898D01*
X133499717Y-51756180D01*
X133671180Y-51584717D01*
X133805898Y-51383097D01*
X133898693Y-51159069D01*
X133946000Y-50921243D01*
X133946000Y-50678757D01*
X134024000Y-50678757D01*
X134024000Y-50921243D01*
X134071307Y-51159069D01*
X134164102Y-51383097D01*
X134298820Y-51584717D01*
X134470283Y-51756180D01*
X134671903Y-51890898D01*
X134895931Y-51983693D01*
X135133757Y-52031000D01*
X135376243Y-52031000D01*
X135614069Y-51983693D01*
X135838097Y-51890898D01*
X136039717Y-51756180D01*
X136211180Y-51584717D01*
X136345898Y-51383097D01*
X136438693Y-51159069D01*
X136486000Y-50921243D01*
X136486000Y-50678757D01*
X136438693Y-50440931D01*
X136345898Y-50216903D01*
X136211180Y-50015283D01*
X136039717Y-49843820D01*
X135838097Y-49709102D01*
X135614069Y-49616307D01*
X135376243Y-49569000D01*
X135133757Y-49569000D01*
X134895931Y-49616307D01*
X134671903Y-49709102D01*
X134470283Y-49843820D01*
X134298820Y-50015283D01*
X134164102Y-50216903D01*
X134071307Y-50440931D01*
X134024000Y-50678757D01*
X133946000Y-50678757D01*
X133898693Y-50440931D01*
X133805898Y-50216903D01*
X133671180Y-50015283D01*
X133499717Y-49843820D01*
X133298097Y-49709102D01*
X133074069Y-49616307D01*
X132836243Y-49569000D01*
X132593757Y-49569000D01*
X132355931Y-49616307D01*
X132131903Y-49709102D01*
X131930283Y-49843820D01*
X131758820Y-50015283D01*
X131624102Y-50216903D01*
X131531307Y-50440931D01*
X131484000Y-50678757D01*
X127758000Y-50678757D01*
X127758000Y-48138757D01*
X131484000Y-48138757D01*
X131484000Y-48381243D01*
X131531307Y-48619069D01*
X131624102Y-48843097D01*
X131758820Y-49044717D01*
X131930283Y-49216180D01*
X132131903Y-49350898D01*
X132355931Y-49443693D01*
X132593757Y-49491000D01*
X132836243Y-49491000D01*
X133074069Y-49443693D01*
X133298097Y-49350898D01*
X133499717Y-49216180D01*
X133671180Y-49044717D01*
X133805898Y-48843097D01*
X133898693Y-48619069D01*
X133907065Y-48576980D01*
X134065511Y-48576980D01*
X134089866Y-48657288D01*
X134189761Y-48876961D01*
X134330592Y-49072924D01*
X134506948Y-49237647D01*
X134712051Y-49364799D01*
X134938019Y-49449495D01*
X135128000Y-49389187D01*
X135128000Y-48387000D01*
X135382000Y-48387000D01*
X135382000Y-49389187D01*
X135571981Y-49449495D01*
X135797949Y-49364799D01*
X136003052Y-49237647D01*
X136179408Y-49072924D01*
X136320239Y-48876961D01*
X136420134Y-48657288D01*
X136444489Y-48576980D01*
X136383627Y-48387000D01*
X135382000Y-48387000D01*
X135128000Y-48387000D01*
X134126373Y-48387000D01*
X134065511Y-48576980D01*
X133907065Y-48576980D01*
X133946000Y-48381243D01*
X133946000Y-48138757D01*
X133907066Y-47943020D01*
X134065511Y-47943020D01*
X134126373Y-48133000D01*
X135128000Y-48133000D01*
X135128000Y-47130813D01*
X134938019Y-47070505D01*
X134712051Y-47155201D01*
X134506948Y-47282353D01*
X134330592Y-47447076D01*
X134189761Y-47643039D01*
X134089866Y-47862712D01*
X134065511Y-47943020D01*
X133907066Y-47943020D01*
X133898693Y-47900931D01*
X133805898Y-47676903D01*
X133671180Y-47475283D01*
X133499717Y-47303820D01*
X133298097Y-47169102D01*
X133074069Y-47076307D01*
X132836243Y-47029000D01*
X132593757Y-47029000D01*
X132355931Y-47076307D01*
X132131903Y-47169102D01*
X131930283Y-47303820D01*
X131758820Y-47475283D01*
X131624102Y-47676903D01*
X131531307Y-47900931D01*
X131484000Y-48138757D01*
X127758000Y-48138757D01*
X127758000Y-46616368D01*
X128775611Y-45598757D01*
X131484000Y-45598757D01*
X131484000Y-45841243D01*
X131531307Y-46079069D01*
X131624102Y-46303097D01*
X131758820Y-46504717D01*
X131930283Y-46676180D01*
X132131903Y-46810898D01*
X132355931Y-46903693D01*
X132593757Y-46951000D01*
X132836243Y-46951000D01*
X133074069Y-46903693D01*
X133298097Y-46810898D01*
X133499717Y-46676180D01*
X133671180Y-46504717D01*
X133805898Y-46303097D01*
X133898693Y-46079069D01*
X133946000Y-45841243D01*
X133946000Y-45598757D01*
X133898693Y-45360931D01*
X133805898Y-45136903D01*
X133671180Y-44935283D01*
X133499717Y-44763820D01*
X133298097Y-44629102D01*
X133074069Y-44536307D01*
X132836243Y-44489000D01*
X132593757Y-44489000D01*
X132355931Y-44536307D01*
X132131903Y-44629102D01*
X131930283Y-44763820D01*
X131758820Y-44935283D01*
X131624102Y-45136903D01*
X131531307Y-45360931D01*
X131484000Y-45598757D01*
X128775611Y-45598757D01*
X131482157Y-42892212D01*
X131482157Y-44030000D01*
X131489513Y-44104689D01*
X131511299Y-44176508D01*
X131546678Y-44242696D01*
X131594289Y-44300711D01*
X131652304Y-44348322D01*
X131718492Y-44383701D01*
X131790311Y-44405487D01*
X131865000Y-44412843D01*
X133565000Y-44412843D01*
X133639689Y-44405487D01*
X133711508Y-44383701D01*
X133777696Y-44348322D01*
X133835711Y-44300711D01*
X133883322Y-44242696D01*
X133918701Y-44176508D01*
X133940487Y-44104689D01*
X133947843Y-44030000D01*
X133947843Y-42839526D01*
X134145460Y-42641909D01*
X134071307Y-42820931D01*
X134024000Y-43058757D01*
X134024000Y-43301243D01*
X134071307Y-43539069D01*
X134164102Y-43763097D01*
X134298820Y-43964717D01*
X134470283Y-44136180D01*
X134624000Y-44238891D01*
X134624001Y-44661109D01*
X134470283Y-44763820D01*
X134298820Y-44935283D01*
X134164102Y-45136903D01*
X134071307Y-45360931D01*
X134024000Y-45598757D01*
X134024000Y-45841243D01*
X134071307Y-46079069D01*
X134164102Y-46303097D01*
X134298820Y-46504717D01*
X134470283Y-46676180D01*
X134671903Y-46810898D01*
X134895931Y-46903693D01*
X135133757Y-46951000D01*
X135376243Y-46951000D01*
X135557564Y-46914933D01*
X135797763Y-47155131D01*
X135571981Y-47070505D01*
X135382000Y-47130813D01*
X135382000Y-48133000D01*
X136383627Y-48133000D01*
X136444489Y-47943020D01*
X136420134Y-47862712D01*
X136349069Y-47706437D01*
X138749989Y-50107358D01*
X138749989Y-58659397D01*
X136406758Y-56316167D01*
X136438693Y-56239069D01*
X136486000Y-56001243D01*
X136486000Y-55758757D01*
X136438693Y-55520931D01*
X136345898Y-55296903D01*
X136211180Y-55095283D01*
X136039717Y-54923820D01*
X135838097Y-54789102D01*
X135614069Y-54696307D01*
X135376243Y-54649000D01*
X135133757Y-54649000D01*
X134895931Y-54696307D01*
X134671903Y-54789102D01*
X134470283Y-54923820D01*
X134298820Y-55095283D01*
X134164102Y-55296903D01*
X134071307Y-55520931D01*
X134024000Y-55758757D01*
X134024000Y-56001243D01*
X134071307Y-56239069D01*
X134164102Y-56463097D01*
X134298820Y-56664717D01*
X134470283Y-56836180D01*
X134671903Y-56970898D01*
X134895931Y-57063693D01*
X135133757Y-57111000D01*
X135376243Y-57111000D01*
X135614069Y-57063693D01*
X135691167Y-57031758D01*
X138299978Y-59640570D01*
X138299978Y-63289386D01*
X136406758Y-61396167D01*
X136438693Y-61319069D01*
X136486000Y-61081243D01*
X136486000Y-60838757D01*
X136438693Y-60600931D01*
X136345898Y-60376903D01*
X136211180Y-60175283D01*
X136039717Y-60003820D01*
X135838097Y-59869102D01*
X135614069Y-59776307D01*
X135376243Y-59729000D01*
X135133757Y-59729000D01*
X134895931Y-59776307D01*
X134671903Y-59869102D01*
X134470283Y-60003820D01*
X134298820Y-60175283D01*
X134164102Y-60376903D01*
X134071307Y-60600931D01*
X134024000Y-60838757D01*
X134024000Y-61081243D01*
X134071307Y-61319069D01*
X134164102Y-61543097D01*
X134298820Y-61744717D01*
X134470283Y-61916180D01*
X134671903Y-62050898D01*
X134895931Y-62143693D01*
X135133757Y-62191000D01*
X135376243Y-62191000D01*
X135614069Y-62143693D01*
X135691167Y-62111758D01*
X137849967Y-64270559D01*
X137849967Y-72973975D01*
X136830777Y-71954786D01*
X136814928Y-71935474D01*
X136737880Y-71872242D01*
X136705557Y-71854965D01*
X136406758Y-71556167D01*
X136438693Y-71479069D01*
X136486000Y-71241243D01*
X136486000Y-70998757D01*
X136438693Y-70760931D01*
X136345898Y-70536903D01*
X136211180Y-70335283D01*
X136039717Y-70163820D01*
X135838097Y-70029102D01*
X135614069Y-69936307D01*
X135376243Y-69889000D01*
X135133757Y-69889000D01*
X134895931Y-69936307D01*
X134671903Y-70029102D01*
X134470283Y-70163820D01*
X134298820Y-70335283D01*
X134164102Y-70536903D01*
X134071307Y-70760931D01*
X134024000Y-70998757D01*
X134024000Y-71241243D01*
X134071307Y-71479069D01*
X134164102Y-71703097D01*
X134298820Y-71904717D01*
X134470283Y-72076180D01*
X134671903Y-72210898D01*
X134895931Y-72303693D01*
X135133757Y-72351000D01*
X135376243Y-72351000D01*
X135614069Y-72303693D01*
X135691167Y-72271758D01*
X136054629Y-72635221D01*
X136070474Y-72654528D01*
X136147522Y-72717760D01*
X136179847Y-72735038D01*
X137162000Y-73717192D01*
X137162000Y-74851408D01*
X136406758Y-74096167D01*
X136438693Y-74019069D01*
X136486000Y-73781243D01*
X136486000Y-73538757D01*
X136438693Y-73300931D01*
X136345898Y-73076903D01*
X136211180Y-72875283D01*
X136039717Y-72703820D01*
X135838097Y-72569102D01*
X135614069Y-72476307D01*
X135376243Y-72429000D01*
X135133757Y-72429000D01*
X134895931Y-72476307D01*
X134671903Y-72569102D01*
X134470283Y-72703820D01*
X134298820Y-72875283D01*
X134164102Y-73076903D01*
X134071307Y-73300931D01*
X134024000Y-73538757D01*
X134024000Y-73781243D01*
X134071307Y-74019069D01*
X134164102Y-74243097D01*
X134298820Y-74444717D01*
X134470283Y-74616180D01*
X134671903Y-74750898D01*
X134895931Y-74843693D01*
X135133757Y-74891000D01*
X135376243Y-74891000D01*
X135614069Y-74843693D01*
X135691167Y-74811758D01*
X136654000Y-75774592D01*
X136654000Y-81963409D01*
X136406758Y-81716167D01*
X136438693Y-81639069D01*
X136486000Y-81401243D01*
X136486000Y-81158757D01*
X136438693Y-80920931D01*
X136345898Y-80696903D01*
X136211180Y-80495283D01*
X136039717Y-80323820D01*
X135838097Y-80189102D01*
X135614069Y-80096307D01*
X135376243Y-80049000D01*
X135133757Y-80049000D01*
X134895931Y-80096307D01*
X134671903Y-80189102D01*
X134470283Y-80323820D01*
X134298820Y-80495283D01*
X134164102Y-80696903D01*
X134071307Y-80920931D01*
X134024000Y-81158757D01*
X134024000Y-81401243D01*
X134071307Y-81639069D01*
X134164102Y-81863097D01*
X134298820Y-82064717D01*
X134470283Y-82236180D01*
X134671903Y-82370898D01*
X134895931Y-82463693D01*
X135133757Y-82511000D01*
X135376243Y-82511000D01*
X135614069Y-82463693D01*
X135691167Y-82431758D01*
X135924001Y-82664593D01*
X135924001Y-82786501D01*
X135838097Y-82729102D01*
X135614069Y-82636307D01*
X135376243Y-82589000D01*
X135133757Y-82589000D01*
X134895931Y-82636307D01*
X134671903Y-82729102D01*
X134470283Y-82863820D01*
X134298820Y-83035283D01*
X134164102Y-83236903D01*
X134071307Y-83460931D01*
X134024000Y-83698757D01*
X134024000Y-83941243D01*
X134071307Y-84179069D01*
X134164102Y-84403097D01*
X134298820Y-84604717D01*
X134470283Y-84776180D01*
X134671903Y-84910898D01*
X134895931Y-85003693D01*
X135133757Y-85051000D01*
X135376243Y-85051000D01*
X135614069Y-85003693D01*
X135838097Y-84910898D01*
X135924001Y-84853499D01*
X135924002Y-85326502D01*
X135838097Y-85269102D01*
X135614069Y-85176307D01*
X135376243Y-85129000D01*
X135133757Y-85129000D01*
X134895931Y-85176307D01*
X134818833Y-85208242D01*
X134780375Y-85169784D01*
X134780371Y-85169779D01*
X134360376Y-84749785D01*
X134344527Y-84730473D01*
X134267479Y-84667241D01*
X134179575Y-84620255D01*
X134084193Y-84591322D01*
X134009854Y-84584000D01*
X134009846Y-84584000D01*
X133985000Y-84581553D01*
X133960154Y-84584000D01*
X133685023Y-84584000D01*
X133805898Y-84403097D01*
X133898693Y-84179069D01*
X133946000Y-83941243D01*
X133946000Y-83698757D01*
X133898693Y-83460931D01*
X133805898Y-83236903D01*
X133671180Y-83035283D01*
X133499717Y-82863820D01*
X133298097Y-82729102D01*
X133074069Y-82636307D01*
X132836243Y-82589000D01*
X132593757Y-82589000D01*
X132355931Y-82636307D01*
X132131903Y-82729102D01*
X131930283Y-82863820D01*
X131758820Y-83035283D01*
X131624102Y-83236903D01*
X131531307Y-83460931D01*
X131484000Y-83698757D01*
X131484000Y-83941243D01*
X131531307Y-84179069D01*
X131624102Y-84403097D01*
X131744977Y-84584000D01*
X131393645Y-84584000D01*
X131368799Y-84581553D01*
X131343953Y-84584000D01*
X131343946Y-84584000D01*
X131269607Y-84591322D01*
X131174225Y-84620255D01*
X131086321Y-84667241D01*
X131009273Y-84730473D01*
X130993428Y-84749780D01*
X126975126Y-88768083D01*
X126955819Y-88783928D01*
X126892587Y-88860976D01*
X126867472Y-88907963D01*
X126845600Y-88948881D01*
X126816667Y-89044263D01*
X126806898Y-89143455D01*
X126809346Y-89168311D01*
X126809345Y-148500910D01*
X126806898Y-148525756D01*
X126809345Y-148550602D01*
X126809345Y-148550609D01*
X126816667Y-148624948D01*
X126845600Y-148720330D01*
X126892586Y-148808235D01*
X126955818Y-148885283D01*
X126975130Y-148901132D01*
X129544217Y-151470220D01*
X129560062Y-151489527D01*
X129637110Y-151552759D01*
X129725014Y-151599745D01*
X129820395Y-151628678D01*
X129830283Y-151629652D01*
X129894735Y-151636000D01*
X129894742Y-151636000D01*
X129919588Y-151638447D01*
X129944434Y-151636000D01*
X131592168Y-151636000D01*
X131624102Y-151713097D01*
X131758820Y-151914717D01*
X131930283Y-152086180D01*
X132131903Y-152220898D01*
X132355931Y-152313693D01*
X132593757Y-152361000D01*
X132836243Y-152361000D01*
X133074069Y-152313693D01*
X133298097Y-152220898D01*
X133499717Y-152086180D01*
X133671180Y-151914717D01*
X133805898Y-151713097D01*
X133898693Y-151489069D01*
X133946000Y-151251243D01*
X133946000Y-151008757D01*
X134024000Y-151008757D01*
X134024000Y-151251243D01*
X134071307Y-151489069D01*
X134164102Y-151713097D01*
X134298820Y-151914717D01*
X134470283Y-152086180D01*
X134671903Y-152220898D01*
X134895931Y-152313693D01*
X135133757Y-152361000D01*
X135376243Y-152361000D01*
X135614069Y-152313693D01*
X135838097Y-152220898D01*
X136039717Y-152086180D01*
X136211180Y-151914717D01*
X136345898Y-151713097D01*
X136438693Y-151489069D01*
X136486000Y-151251243D01*
X136486000Y-151008757D01*
X136438693Y-150770931D01*
X136345898Y-150546903D01*
X136211180Y-150345283D01*
X136039717Y-150173820D01*
X135838097Y-150039102D01*
X135614069Y-149946307D01*
X135376243Y-149899000D01*
X135133757Y-149899000D01*
X134895931Y-149946307D01*
X134671903Y-150039102D01*
X134470283Y-150173820D01*
X134298820Y-150345283D01*
X134164102Y-150546903D01*
X134071307Y-150770931D01*
X134024000Y-151008757D01*
X133946000Y-151008757D01*
X133898693Y-150770931D01*
X133805898Y-150546903D01*
X133671180Y-150345283D01*
X133499717Y-150173820D01*
X133298097Y-150039102D01*
X133074069Y-149946307D01*
X132836243Y-149899000D01*
X132593757Y-149899000D01*
X132355931Y-149946307D01*
X132131903Y-150039102D01*
X131930283Y-150173820D01*
X131758820Y-150345283D01*
X131624102Y-150546903D01*
X131592168Y-150624000D01*
X130129181Y-150624000D01*
X127973938Y-148468757D01*
X131484000Y-148468757D01*
X131484000Y-148711243D01*
X131531307Y-148949069D01*
X131624102Y-149173097D01*
X131758820Y-149374717D01*
X131930283Y-149546180D01*
X132131903Y-149680898D01*
X132355931Y-149773693D01*
X132593757Y-149821000D01*
X132836243Y-149821000D01*
X133074069Y-149773693D01*
X133298097Y-149680898D01*
X133499717Y-149546180D01*
X133671180Y-149374717D01*
X133805898Y-149173097D01*
X133898693Y-148949069D01*
X133946000Y-148711243D01*
X133946000Y-148468757D01*
X134024000Y-148468757D01*
X134024000Y-148711243D01*
X134071307Y-148949069D01*
X134164102Y-149173097D01*
X134298820Y-149374717D01*
X134470283Y-149546180D01*
X134671903Y-149680898D01*
X134895931Y-149773693D01*
X135133757Y-149821000D01*
X135376243Y-149821000D01*
X135614069Y-149773693D01*
X135838097Y-149680898D01*
X136039717Y-149546180D01*
X136211180Y-149374717D01*
X136345898Y-149173097D01*
X136438693Y-148949069D01*
X136486000Y-148711243D01*
X136486000Y-148468757D01*
X136438693Y-148230931D01*
X136345898Y-148006903D01*
X136211180Y-147805283D01*
X136039717Y-147633820D01*
X135838097Y-147499102D01*
X135614069Y-147406307D01*
X135376243Y-147359000D01*
X135133757Y-147359000D01*
X134895931Y-147406307D01*
X134671903Y-147499102D01*
X134470283Y-147633820D01*
X134298820Y-147805283D01*
X134164102Y-148006903D01*
X134071307Y-148230931D01*
X134024000Y-148468757D01*
X133946000Y-148468757D01*
X133898693Y-148230931D01*
X133805898Y-148006903D01*
X133671180Y-147805283D01*
X133499717Y-147633820D01*
X133298097Y-147499102D01*
X133074069Y-147406307D01*
X132836243Y-147359000D01*
X132593757Y-147359000D01*
X132355931Y-147406307D01*
X132131903Y-147499102D01*
X131930283Y-147633820D01*
X131758820Y-147805283D01*
X131624102Y-148006903D01*
X131531307Y-148230931D01*
X131484000Y-148468757D01*
X127973938Y-148468757D01*
X127821345Y-148316165D01*
X127821345Y-141871936D01*
X131524779Y-145575371D01*
X131524784Y-145575375D01*
X131563242Y-145613833D01*
X131531307Y-145690931D01*
X131484000Y-145928757D01*
X131484000Y-146171243D01*
X131531307Y-146409069D01*
X131624102Y-146633097D01*
X131758820Y-146834717D01*
X131930283Y-147006180D01*
X132131903Y-147140898D01*
X132355931Y-147233693D01*
X132593757Y-147281000D01*
X132836243Y-147281000D01*
X133074069Y-147233693D01*
X133298097Y-147140898D01*
X133499717Y-147006180D01*
X133671180Y-146834717D01*
X133805898Y-146633097D01*
X133898693Y-146409069D01*
X133946000Y-146171243D01*
X133946000Y-145928757D01*
X134024000Y-145928757D01*
X134024000Y-146171243D01*
X134071307Y-146409069D01*
X134164102Y-146633097D01*
X134298820Y-146834717D01*
X134470283Y-147006180D01*
X134671903Y-147140898D01*
X134895931Y-147233693D01*
X135133757Y-147281000D01*
X135376243Y-147281000D01*
X135614069Y-147233693D01*
X135838097Y-147140898D01*
X136039717Y-147006180D01*
X136211180Y-146834717D01*
X136345898Y-146633097D01*
X136438693Y-146409069D01*
X136486000Y-146171243D01*
X136486000Y-145928757D01*
X136438693Y-145690931D01*
X136345898Y-145466903D01*
X136211180Y-145265283D01*
X136039717Y-145093820D01*
X135838097Y-144959102D01*
X135614069Y-144866307D01*
X135376243Y-144819000D01*
X135133757Y-144819000D01*
X134895931Y-144866307D01*
X134671903Y-144959102D01*
X134470283Y-145093820D01*
X134298820Y-145265283D01*
X134164102Y-145466903D01*
X134071307Y-145690931D01*
X134024000Y-145928757D01*
X133946000Y-145928757D01*
X133898693Y-145690931D01*
X133805898Y-145466903D01*
X133671180Y-145265283D01*
X133499717Y-145093820D01*
X133298097Y-144959102D01*
X133074069Y-144866307D01*
X132836243Y-144819000D01*
X132593757Y-144819000D01*
X132355931Y-144866307D01*
X132278833Y-144898242D01*
X132240375Y-144859784D01*
X132240371Y-144859779D01*
X130769349Y-143388757D01*
X131484000Y-143388757D01*
X131484000Y-143631243D01*
X131531307Y-143869069D01*
X131624102Y-144093097D01*
X131758820Y-144294717D01*
X131930283Y-144466180D01*
X132131903Y-144600898D01*
X132355931Y-144693693D01*
X132593757Y-144741000D01*
X132836243Y-144741000D01*
X133074069Y-144693693D01*
X133298097Y-144600898D01*
X133499717Y-144466180D01*
X133671180Y-144294717D01*
X133805898Y-144093097D01*
X133898693Y-143869069D01*
X133946000Y-143631243D01*
X133946000Y-143388757D01*
X134024000Y-143388757D01*
X134024000Y-143631243D01*
X134071307Y-143869069D01*
X134164102Y-144093097D01*
X134298820Y-144294717D01*
X134470283Y-144466180D01*
X134671903Y-144600898D01*
X134895931Y-144693693D01*
X135133757Y-144741000D01*
X135376243Y-144741000D01*
X135614069Y-144693693D01*
X135838097Y-144600898D01*
X136039717Y-144466180D01*
X136211180Y-144294717D01*
X136345898Y-144093097D01*
X136438693Y-143869069D01*
X136486000Y-143631243D01*
X136486000Y-143388757D01*
X136438693Y-143150931D01*
X136345898Y-142926903D01*
X136211180Y-142725283D01*
X136039717Y-142553820D01*
X135838097Y-142419102D01*
X135614069Y-142326307D01*
X135376243Y-142279000D01*
X135133757Y-142279000D01*
X134895931Y-142326307D01*
X134671903Y-142419102D01*
X134470283Y-142553820D01*
X134298820Y-142725283D01*
X134164102Y-142926903D01*
X134071307Y-143150931D01*
X134024000Y-143388757D01*
X133946000Y-143388757D01*
X133898693Y-143150931D01*
X133805898Y-142926903D01*
X133671180Y-142725283D01*
X133499717Y-142553820D01*
X133298097Y-142419102D01*
X133074069Y-142326307D01*
X132836243Y-142279000D01*
X132593757Y-142279000D01*
X132355931Y-142326307D01*
X132131903Y-142419102D01*
X131930283Y-142553820D01*
X131758820Y-142725283D01*
X131624102Y-142926903D01*
X131531307Y-143150931D01*
X131484000Y-143388757D01*
X130769349Y-143388757D01*
X128376791Y-140996200D01*
X128376791Y-140848757D01*
X131484000Y-140848757D01*
X131484000Y-141091243D01*
X131531307Y-141329069D01*
X131624102Y-141553097D01*
X131758820Y-141754717D01*
X131930283Y-141926180D01*
X132131903Y-142060898D01*
X132355931Y-142153693D01*
X132593757Y-142201000D01*
X132836243Y-142201000D01*
X133074069Y-142153693D01*
X133298097Y-142060898D01*
X133499717Y-141926180D01*
X133671180Y-141754717D01*
X133805898Y-141553097D01*
X133898693Y-141329069D01*
X133946000Y-141091243D01*
X133946000Y-140848757D01*
X134024000Y-140848757D01*
X134024000Y-141091243D01*
X134071307Y-141329069D01*
X134164102Y-141553097D01*
X134298820Y-141754717D01*
X134470283Y-141926180D01*
X134671903Y-142060898D01*
X134895931Y-142153693D01*
X135133757Y-142201000D01*
X135376243Y-142201000D01*
X135614069Y-142153693D01*
X135838097Y-142060898D01*
X136039717Y-141926180D01*
X136211180Y-141754717D01*
X136345898Y-141553097D01*
X136438693Y-141329069D01*
X136486000Y-141091243D01*
X136486000Y-140848757D01*
X136438693Y-140610931D01*
X136345898Y-140386903D01*
X136211180Y-140185283D01*
X136039717Y-140013820D01*
X135838097Y-139879102D01*
X135614069Y-139786307D01*
X135376243Y-139739000D01*
X135133757Y-139739000D01*
X134895931Y-139786307D01*
X134671903Y-139879102D01*
X134470283Y-140013820D01*
X134298820Y-140185283D01*
X134164102Y-140386903D01*
X134071307Y-140610931D01*
X134024000Y-140848757D01*
X133946000Y-140848757D01*
X133898693Y-140610931D01*
X133805898Y-140386903D01*
X133671180Y-140185283D01*
X133499717Y-140013820D01*
X133298097Y-139879102D01*
X133074069Y-139786307D01*
X132836243Y-139739000D01*
X132593757Y-139739000D01*
X132355931Y-139786307D01*
X132131903Y-139879102D01*
X131930283Y-140013820D01*
X131758820Y-140185283D01*
X131624102Y-140386903D01*
X131531307Y-140610931D01*
X131484000Y-140848757D01*
X128376791Y-140848757D01*
X128376791Y-134807382D01*
X131563242Y-137993833D01*
X131531307Y-138070931D01*
X131484000Y-138308757D01*
X131484000Y-138551243D01*
X131531307Y-138789069D01*
X131624102Y-139013097D01*
X131758820Y-139214717D01*
X131930283Y-139386180D01*
X132131903Y-139520898D01*
X132355931Y-139613693D01*
X132593757Y-139661000D01*
X132836243Y-139661000D01*
X133074069Y-139613693D01*
X133298097Y-139520898D01*
X133499717Y-139386180D01*
X133671180Y-139214717D01*
X133805898Y-139013097D01*
X133898693Y-138789069D01*
X133907065Y-138746980D01*
X134065511Y-138746980D01*
X134089866Y-138827288D01*
X134189761Y-139046961D01*
X134330592Y-139242924D01*
X134506948Y-139407647D01*
X134712051Y-139534799D01*
X134938019Y-139619495D01*
X135128000Y-139559187D01*
X135128000Y-138557000D01*
X135382000Y-138557000D01*
X135382000Y-139559187D01*
X135571981Y-139619495D01*
X135797949Y-139534799D01*
X136003052Y-139407647D01*
X136179408Y-139242924D01*
X136320239Y-139046961D01*
X136420134Y-138827288D01*
X136444489Y-138746980D01*
X136383627Y-138557000D01*
X135382000Y-138557000D01*
X135128000Y-138557000D01*
X134126373Y-138557000D01*
X134065511Y-138746980D01*
X133907065Y-138746980D01*
X133946000Y-138551243D01*
X133946000Y-138308757D01*
X133907066Y-138113020D01*
X134065511Y-138113020D01*
X134126373Y-138303000D01*
X135128000Y-138303000D01*
X135128000Y-137300813D01*
X135382000Y-137300813D01*
X135382000Y-138303000D01*
X136383627Y-138303000D01*
X136444489Y-138113020D01*
X136420134Y-138032712D01*
X136320239Y-137813039D01*
X136179408Y-137617076D01*
X136003052Y-137452353D01*
X135797949Y-137325201D01*
X135571981Y-137240505D01*
X135382000Y-137300813D01*
X135128000Y-137300813D01*
X134938019Y-137240505D01*
X134712051Y-137325201D01*
X134506948Y-137452353D01*
X134330592Y-137617076D01*
X134189761Y-137813039D01*
X134089866Y-138032712D01*
X134065511Y-138113020D01*
X133907066Y-138113020D01*
X133898693Y-138070931D01*
X133805898Y-137846903D01*
X133671180Y-137645283D01*
X133499717Y-137473820D01*
X133298097Y-137339102D01*
X133074069Y-137246307D01*
X132836243Y-137199000D01*
X132593757Y-137199000D01*
X132355931Y-137246307D01*
X132278833Y-137278242D01*
X129062589Y-134061998D01*
X129062589Y-132953180D01*
X131563242Y-135453833D01*
X131531307Y-135530931D01*
X131484000Y-135768757D01*
X131484000Y-136011243D01*
X131531307Y-136249069D01*
X131624102Y-136473097D01*
X131758820Y-136674717D01*
X131930283Y-136846180D01*
X132131903Y-136980898D01*
X132355931Y-137073693D01*
X132593757Y-137121000D01*
X132836243Y-137121000D01*
X133074069Y-137073693D01*
X133298097Y-136980898D01*
X133499717Y-136846180D01*
X133671180Y-136674717D01*
X133805898Y-136473097D01*
X133898693Y-136249069D01*
X133946000Y-136011243D01*
X133946000Y-135768757D01*
X134024000Y-135768757D01*
X134024000Y-136011243D01*
X134071307Y-136249069D01*
X134164102Y-136473097D01*
X134298820Y-136674717D01*
X134470283Y-136846180D01*
X134671903Y-136980898D01*
X134895931Y-137073693D01*
X135133757Y-137121000D01*
X135376243Y-137121000D01*
X135614069Y-137073693D01*
X135838097Y-136980898D01*
X136039717Y-136846180D01*
X136211180Y-136674717D01*
X136345898Y-136473097D01*
X136438693Y-136249069D01*
X136486000Y-136011243D01*
X136486000Y-135768757D01*
X136438693Y-135530931D01*
X136345898Y-135306903D01*
X136211180Y-135105283D01*
X136039717Y-134933820D01*
X135838097Y-134799102D01*
X135614069Y-134706307D01*
X135376243Y-134659000D01*
X135133757Y-134659000D01*
X134895931Y-134706307D01*
X134671903Y-134799102D01*
X134470283Y-134933820D01*
X134298820Y-135105283D01*
X134164102Y-135306903D01*
X134071307Y-135530931D01*
X134024000Y-135768757D01*
X133946000Y-135768757D01*
X133898693Y-135530931D01*
X133805898Y-135306903D01*
X133671180Y-135105283D01*
X133499717Y-134933820D01*
X133298097Y-134799102D01*
X133074069Y-134706307D01*
X132836243Y-134659000D01*
X132593757Y-134659000D01*
X132355931Y-134706307D01*
X132278833Y-134738242D01*
X130769348Y-133228757D01*
X131484000Y-133228757D01*
X131484000Y-133471243D01*
X131531307Y-133709069D01*
X131624102Y-133933097D01*
X131758820Y-134134717D01*
X131930283Y-134306180D01*
X132131903Y-134440898D01*
X132355931Y-134533693D01*
X132593757Y-134581000D01*
X132836243Y-134581000D01*
X133074069Y-134533693D01*
X133298097Y-134440898D01*
X133499717Y-134306180D01*
X133671180Y-134134717D01*
X133805898Y-133933097D01*
X133898693Y-133709069D01*
X133946000Y-133471243D01*
X133946000Y-133228757D01*
X134024000Y-133228757D01*
X134024000Y-133471243D01*
X134071307Y-133709069D01*
X134164102Y-133933097D01*
X134298820Y-134134717D01*
X134470283Y-134306180D01*
X134671903Y-134440898D01*
X134895931Y-134533693D01*
X135133757Y-134581000D01*
X135376243Y-134581000D01*
X135614069Y-134533693D01*
X135838097Y-134440898D01*
X136039717Y-134306180D01*
X136211180Y-134134717D01*
X136345898Y-133933097D01*
X136438693Y-133709069D01*
X136486000Y-133471243D01*
X136486000Y-133228757D01*
X136438693Y-132990931D01*
X136345898Y-132766903D01*
X136211180Y-132565283D01*
X136039717Y-132393820D01*
X135838097Y-132259102D01*
X135614069Y-132166307D01*
X135376243Y-132119000D01*
X135133757Y-132119000D01*
X134895931Y-132166307D01*
X134671903Y-132259102D01*
X134470283Y-132393820D01*
X134298820Y-132565283D01*
X134164102Y-132766903D01*
X134071307Y-132990931D01*
X134024000Y-133228757D01*
X133946000Y-133228757D01*
X133898693Y-132990931D01*
X133805898Y-132766903D01*
X133671180Y-132565283D01*
X133499717Y-132393820D01*
X133298097Y-132259102D01*
X133074069Y-132166307D01*
X132836243Y-132119000D01*
X132593757Y-132119000D01*
X132355931Y-132166307D01*
X132131903Y-132259102D01*
X131930283Y-132393820D01*
X131758820Y-132565283D01*
X131624102Y-132766903D01*
X131531307Y-132990931D01*
X131484000Y-133228757D01*
X130769348Y-133228757D01*
X129690400Y-132149809D01*
X129690400Y-131126980D01*
X131525511Y-131126980D01*
X131549866Y-131207288D01*
X131649761Y-131426961D01*
X131790592Y-131622924D01*
X131966948Y-131787647D01*
X132172051Y-131914799D01*
X132398019Y-131999495D01*
X132588000Y-131939187D01*
X132588000Y-130937000D01*
X132842000Y-130937000D01*
X132842000Y-131939187D01*
X133031981Y-131999495D01*
X133257949Y-131914799D01*
X133463052Y-131787647D01*
X133639408Y-131622924D01*
X133780239Y-131426961D01*
X133880134Y-131207288D01*
X133904489Y-131126980D01*
X133843627Y-130937000D01*
X132842000Y-130937000D01*
X132588000Y-130937000D01*
X131586373Y-130937000D01*
X131525511Y-131126980D01*
X129690400Y-131126980D01*
X129690400Y-130688757D01*
X134024000Y-130688757D01*
X134024000Y-130931243D01*
X134071307Y-131169069D01*
X134164102Y-131393097D01*
X134298820Y-131594717D01*
X134470283Y-131766180D01*
X134671903Y-131900898D01*
X134895931Y-131993693D01*
X135133757Y-132041000D01*
X135376243Y-132041000D01*
X135614069Y-131993693D01*
X135838097Y-131900898D01*
X136039717Y-131766180D01*
X136211180Y-131594717D01*
X136345898Y-131393097D01*
X136438693Y-131169069D01*
X136486000Y-130931243D01*
X136486000Y-130688757D01*
X136438693Y-130450931D01*
X136345898Y-130226903D01*
X136211180Y-130025283D01*
X136039717Y-129853820D01*
X135838097Y-129719102D01*
X135614069Y-129626307D01*
X135376243Y-129579000D01*
X135133757Y-129579000D01*
X134895931Y-129626307D01*
X134671903Y-129719102D01*
X134470283Y-129853820D01*
X134298820Y-130025283D01*
X134164102Y-130226903D01*
X134071307Y-130450931D01*
X134024000Y-130688757D01*
X129690400Y-130688757D01*
X129690400Y-130493020D01*
X131525511Y-130493020D01*
X131586373Y-130683000D01*
X132588000Y-130683000D01*
X132588000Y-129680813D01*
X132842000Y-129680813D01*
X132842000Y-130683000D01*
X133843627Y-130683000D01*
X133904489Y-130493020D01*
X133880134Y-130412712D01*
X133780239Y-130193039D01*
X133639408Y-129997076D01*
X133463052Y-129832353D01*
X133257949Y-129705201D01*
X133031981Y-129620505D01*
X132842000Y-129680813D01*
X132588000Y-129680813D01*
X132398019Y-129620505D01*
X132172051Y-129705201D01*
X131966948Y-129832353D01*
X131790592Y-129997076D01*
X131649761Y-130193039D01*
X131549866Y-130412712D01*
X131525511Y-130493020D01*
X129690400Y-130493020D01*
X129690400Y-128148757D01*
X131484000Y-128148757D01*
X131484000Y-128391243D01*
X131531307Y-128629069D01*
X131624102Y-128853097D01*
X131758820Y-129054717D01*
X131930283Y-129226180D01*
X132131903Y-129360898D01*
X132355931Y-129453693D01*
X132593757Y-129501000D01*
X132836243Y-129501000D01*
X133074069Y-129453693D01*
X133298097Y-129360898D01*
X133499717Y-129226180D01*
X133671180Y-129054717D01*
X133805898Y-128853097D01*
X133898693Y-128629069D01*
X133946000Y-128391243D01*
X133946000Y-128148757D01*
X133898693Y-127910931D01*
X133805898Y-127686903D01*
X133671180Y-127485283D01*
X133499717Y-127313820D01*
X133298097Y-127179102D01*
X133074069Y-127086307D01*
X132836243Y-127039000D01*
X132593757Y-127039000D01*
X132355931Y-127086307D01*
X132131903Y-127179102D01*
X131930283Y-127313820D01*
X131758820Y-127485283D01*
X131624102Y-127686903D01*
X131531307Y-127910931D01*
X131484000Y-128148757D01*
X129690400Y-128148757D01*
X129690400Y-95281791D01*
X131502192Y-93470000D01*
X136195354Y-93470000D01*
X136220200Y-93472447D01*
X136245046Y-93470000D01*
X136245054Y-93470000D01*
X136319393Y-93462678D01*
X136414775Y-93433745D01*
X136502679Y-93386759D01*
X136579727Y-93323527D01*
X136595576Y-93304215D01*
X137849966Y-92049826D01*
X137849966Y-97760271D01*
X129961781Y-105648457D01*
X129942474Y-105664302D01*
X129879242Y-105741350D01*
X129868622Y-105761219D01*
X129832255Y-105829255D01*
X129803322Y-105924637D01*
X129793553Y-106023829D01*
X129796001Y-106048685D01*
X129796000Y-123292154D01*
X129793553Y-123317000D01*
X129796000Y-123341846D01*
X129796000Y-123341853D01*
X129803322Y-123416192D01*
X129832255Y-123511574D01*
X129879241Y-123599479D01*
X129942473Y-123676527D01*
X129961785Y-123692376D01*
X131563242Y-125293833D01*
X131531307Y-125370931D01*
X131484000Y-125608757D01*
X131484000Y-125851243D01*
X131531307Y-126089069D01*
X131624102Y-126313097D01*
X131758820Y-126514717D01*
X131930283Y-126686180D01*
X132131903Y-126820898D01*
X132355931Y-126913693D01*
X132593757Y-126961000D01*
X132836243Y-126961000D01*
X133074069Y-126913693D01*
X133298097Y-126820898D01*
X133499717Y-126686180D01*
X133671180Y-126514717D01*
X133805898Y-126313097D01*
X133898693Y-126089069D01*
X133946000Y-125851243D01*
X133946000Y-125608757D01*
X134024000Y-125608757D01*
X134024000Y-125851243D01*
X134071307Y-126089069D01*
X134164102Y-126313097D01*
X134298820Y-126514717D01*
X134470283Y-126686180D01*
X134671903Y-126820898D01*
X134895931Y-126913693D01*
X135133757Y-126961000D01*
X135376243Y-126961000D01*
X135614069Y-126913693D01*
X135838097Y-126820898D01*
X136039717Y-126686180D01*
X136211180Y-126514717D01*
X136345898Y-126313097D01*
X136438693Y-126089069D01*
X136486000Y-125851243D01*
X136486000Y-125608757D01*
X136438693Y-125370931D01*
X136345898Y-125146903D01*
X136211180Y-124945283D01*
X136039717Y-124773820D01*
X135838097Y-124639102D01*
X135614069Y-124546307D01*
X135376243Y-124499000D01*
X135133757Y-124499000D01*
X134895931Y-124546307D01*
X134671903Y-124639102D01*
X134470283Y-124773820D01*
X134298820Y-124945283D01*
X134164102Y-125146903D01*
X134071307Y-125370931D01*
X134024000Y-125608757D01*
X133946000Y-125608757D01*
X133898693Y-125370931D01*
X133805898Y-125146903D01*
X133671180Y-124945283D01*
X133499717Y-124773820D01*
X133298097Y-124639102D01*
X133074069Y-124546307D01*
X132836243Y-124499000D01*
X132593757Y-124499000D01*
X132355931Y-124546307D01*
X132278833Y-124578242D01*
X131207571Y-123506980D01*
X131525511Y-123506980D01*
X131549866Y-123587288D01*
X131649761Y-123806961D01*
X131790592Y-124002924D01*
X131966948Y-124167647D01*
X132172051Y-124294799D01*
X132398019Y-124379495D01*
X132588000Y-124319187D01*
X132588000Y-123317000D01*
X132842000Y-123317000D01*
X132842000Y-124319187D01*
X133031981Y-124379495D01*
X133257949Y-124294799D01*
X133463052Y-124167647D01*
X133639408Y-124002924D01*
X133780239Y-123806961D01*
X133880134Y-123587288D01*
X133904489Y-123506980D01*
X133843627Y-123317000D01*
X132842000Y-123317000D01*
X132588000Y-123317000D01*
X131586373Y-123317000D01*
X131525511Y-123506980D01*
X131207571Y-123506980D01*
X130808000Y-123107409D01*
X130808000Y-123068757D01*
X134024000Y-123068757D01*
X134024000Y-123311243D01*
X134071307Y-123549069D01*
X134164102Y-123773097D01*
X134298820Y-123974717D01*
X134470283Y-124146180D01*
X134671903Y-124280898D01*
X134895931Y-124373693D01*
X135133757Y-124421000D01*
X135376243Y-124421000D01*
X135614069Y-124373693D01*
X135838097Y-124280898D01*
X136039717Y-124146180D01*
X136211180Y-123974717D01*
X136345898Y-123773097D01*
X136438693Y-123549069D01*
X136486000Y-123311243D01*
X136486000Y-123068757D01*
X136438693Y-122830931D01*
X136345898Y-122606903D01*
X136211180Y-122405283D01*
X136039717Y-122233820D01*
X135838097Y-122099102D01*
X135614069Y-122006307D01*
X135376243Y-121959000D01*
X135133757Y-121959000D01*
X134895931Y-122006307D01*
X134671903Y-122099102D01*
X134470283Y-122233820D01*
X134298820Y-122405283D01*
X134164102Y-122606903D01*
X134071307Y-122830931D01*
X134024000Y-123068757D01*
X130808000Y-123068757D01*
X130808000Y-122873020D01*
X131525511Y-122873020D01*
X131586373Y-123063000D01*
X132588000Y-123063000D01*
X132588000Y-122060813D01*
X132842000Y-122060813D01*
X132842000Y-123063000D01*
X133843627Y-123063000D01*
X133904489Y-122873020D01*
X133880134Y-122792712D01*
X133780239Y-122573039D01*
X133639408Y-122377076D01*
X133463052Y-122212353D01*
X133257949Y-122085201D01*
X133031981Y-122000505D01*
X132842000Y-122060813D01*
X132588000Y-122060813D01*
X132398019Y-122000505D01*
X132172051Y-122085201D01*
X131966948Y-122212353D01*
X131790592Y-122377076D01*
X131649761Y-122573039D01*
X131549866Y-122792712D01*
X131525511Y-122873020D01*
X130808000Y-122873020D01*
X130808000Y-119458591D01*
X131563242Y-120213833D01*
X131531307Y-120290931D01*
X131484000Y-120528757D01*
X131484000Y-120771243D01*
X131531307Y-121009069D01*
X131624102Y-121233097D01*
X131758820Y-121434717D01*
X131930283Y-121606180D01*
X132131903Y-121740898D01*
X132355931Y-121833693D01*
X132593757Y-121881000D01*
X132836243Y-121881000D01*
X133074069Y-121833693D01*
X133298097Y-121740898D01*
X133499717Y-121606180D01*
X133671180Y-121434717D01*
X133805898Y-121233097D01*
X133898693Y-121009069D01*
X133946000Y-120771243D01*
X133946000Y-120528757D01*
X134024000Y-120528757D01*
X134024000Y-120771243D01*
X134071307Y-121009069D01*
X134164102Y-121233097D01*
X134298820Y-121434717D01*
X134470283Y-121606180D01*
X134671903Y-121740898D01*
X134895931Y-121833693D01*
X135133757Y-121881000D01*
X135376243Y-121881000D01*
X135614069Y-121833693D01*
X135838097Y-121740898D01*
X136039717Y-121606180D01*
X136211180Y-121434717D01*
X136345898Y-121233097D01*
X136438693Y-121009069D01*
X136486000Y-120771243D01*
X136486000Y-120528757D01*
X136438693Y-120290931D01*
X136345898Y-120066903D01*
X136211180Y-119865283D01*
X136039717Y-119693820D01*
X135838097Y-119559102D01*
X135614069Y-119466307D01*
X135376243Y-119419000D01*
X135133757Y-119419000D01*
X134895931Y-119466307D01*
X134671903Y-119559102D01*
X134470283Y-119693820D01*
X134298820Y-119865283D01*
X134164102Y-120066903D01*
X134071307Y-120290931D01*
X134024000Y-120528757D01*
X133946000Y-120528757D01*
X133898693Y-120290931D01*
X133805898Y-120066903D01*
X133671180Y-119865283D01*
X133499717Y-119693820D01*
X133298097Y-119559102D01*
X133074069Y-119466307D01*
X132836243Y-119419000D01*
X132593757Y-119419000D01*
X132355931Y-119466307D01*
X132278833Y-119498242D01*
X131366800Y-118586209D01*
X131366800Y-117988757D01*
X131484000Y-117988757D01*
X131484000Y-118231243D01*
X131531307Y-118469069D01*
X131624102Y-118693097D01*
X131758820Y-118894717D01*
X131930283Y-119066180D01*
X132131903Y-119200898D01*
X132355931Y-119293693D01*
X132593757Y-119341000D01*
X132836243Y-119341000D01*
X133074069Y-119293693D01*
X133298097Y-119200898D01*
X133499717Y-119066180D01*
X133671180Y-118894717D01*
X133805898Y-118693097D01*
X133898693Y-118469069D01*
X133907065Y-118426980D01*
X134065511Y-118426980D01*
X134089866Y-118507288D01*
X134189761Y-118726961D01*
X134330592Y-118922924D01*
X134506948Y-119087647D01*
X134712051Y-119214799D01*
X134938019Y-119299495D01*
X135128000Y-119239187D01*
X135128000Y-118237000D01*
X135382000Y-118237000D01*
X135382000Y-119239187D01*
X135571981Y-119299495D01*
X135797949Y-119214799D01*
X136003052Y-119087647D01*
X136179408Y-118922924D01*
X136320239Y-118726961D01*
X136420134Y-118507288D01*
X136444489Y-118426980D01*
X136383627Y-118237000D01*
X135382000Y-118237000D01*
X135128000Y-118237000D01*
X134126373Y-118237000D01*
X134065511Y-118426980D01*
X133907065Y-118426980D01*
X133946000Y-118231243D01*
X133946000Y-117988757D01*
X133907066Y-117793020D01*
X134065511Y-117793020D01*
X134126373Y-117983000D01*
X135128000Y-117983000D01*
X135128000Y-116980813D01*
X135382000Y-116980813D01*
X135382000Y-117983000D01*
X136383627Y-117983000D01*
X136444489Y-117793020D01*
X136420134Y-117712712D01*
X136320239Y-117493039D01*
X136179408Y-117297076D01*
X136003052Y-117132353D01*
X135797949Y-117005201D01*
X135571981Y-116920505D01*
X135382000Y-116980813D01*
X135128000Y-116980813D01*
X134938019Y-116920505D01*
X134712051Y-117005201D01*
X134506948Y-117132353D01*
X134330592Y-117297076D01*
X134189761Y-117493039D01*
X134089866Y-117712712D01*
X134065511Y-117793020D01*
X133907066Y-117793020D01*
X133898693Y-117750931D01*
X133805898Y-117526903D01*
X133671180Y-117325283D01*
X133499717Y-117153820D01*
X133298097Y-117019102D01*
X133074069Y-116926307D01*
X132836243Y-116879000D01*
X132593757Y-116879000D01*
X132355931Y-116926307D01*
X132131903Y-117019102D01*
X131930283Y-117153820D01*
X131758820Y-117325283D01*
X131624102Y-117526903D01*
X131531307Y-117750931D01*
X131484000Y-117988757D01*
X131366800Y-117988757D01*
X131366800Y-115448757D01*
X131484000Y-115448757D01*
X131484000Y-115691243D01*
X131531307Y-115929069D01*
X131624102Y-116153097D01*
X131758820Y-116354717D01*
X131930283Y-116526180D01*
X132131903Y-116660898D01*
X132355931Y-116753693D01*
X132593757Y-116801000D01*
X132836243Y-116801000D01*
X133074069Y-116753693D01*
X133298097Y-116660898D01*
X133499717Y-116526180D01*
X133671180Y-116354717D01*
X133805898Y-116153097D01*
X133898693Y-115929069D01*
X133946000Y-115691243D01*
X133946000Y-115448757D01*
X134024000Y-115448757D01*
X134024000Y-115691243D01*
X134071307Y-115929069D01*
X134164102Y-116153097D01*
X134298820Y-116354717D01*
X134470283Y-116526180D01*
X134671903Y-116660898D01*
X134895931Y-116753693D01*
X135133757Y-116801000D01*
X135376243Y-116801000D01*
X135614069Y-116753693D01*
X135838097Y-116660898D01*
X136039717Y-116526180D01*
X136211180Y-116354717D01*
X136345898Y-116153097D01*
X136438693Y-115929069D01*
X136486000Y-115691243D01*
X136486000Y-115448757D01*
X136438693Y-115210931D01*
X136345898Y-114986903D01*
X136211180Y-114785283D01*
X136039717Y-114613820D01*
X135838097Y-114479102D01*
X135614069Y-114386307D01*
X135376243Y-114339000D01*
X135133757Y-114339000D01*
X134895931Y-114386307D01*
X134671903Y-114479102D01*
X134470283Y-114613820D01*
X134298820Y-114785283D01*
X134164102Y-114986903D01*
X134071307Y-115210931D01*
X134024000Y-115448757D01*
X133946000Y-115448757D01*
X133898693Y-115210931D01*
X133805898Y-114986903D01*
X133671180Y-114785283D01*
X133499717Y-114613820D01*
X133298097Y-114479102D01*
X133074069Y-114386307D01*
X132836243Y-114339000D01*
X132593757Y-114339000D01*
X132355931Y-114386307D01*
X132131903Y-114479102D01*
X131930283Y-114613820D01*
X131758820Y-114785283D01*
X131624102Y-114986903D01*
X131531307Y-115210931D01*
X131484000Y-115448757D01*
X131366800Y-115448757D01*
X131366800Y-113346980D01*
X131525511Y-113346980D01*
X131549866Y-113427288D01*
X131649761Y-113646961D01*
X131790592Y-113842924D01*
X131966948Y-114007647D01*
X132172051Y-114134799D01*
X132398019Y-114219495D01*
X132588000Y-114159187D01*
X132588000Y-113157000D01*
X132842000Y-113157000D01*
X132842000Y-114159187D01*
X133031981Y-114219495D01*
X133257949Y-114134799D01*
X133463052Y-114007647D01*
X133639408Y-113842924D01*
X133780239Y-113646961D01*
X133880134Y-113427288D01*
X133904489Y-113346980D01*
X133843627Y-113157000D01*
X132842000Y-113157000D01*
X132588000Y-113157000D01*
X131586373Y-113157000D01*
X131525511Y-113346980D01*
X131366800Y-113346980D01*
X131366800Y-112908757D01*
X134024000Y-112908757D01*
X134024000Y-113151243D01*
X134071307Y-113389069D01*
X134164102Y-113613097D01*
X134298820Y-113814717D01*
X134470283Y-113986180D01*
X134671903Y-114120898D01*
X134895931Y-114213693D01*
X135133757Y-114261000D01*
X135376243Y-114261000D01*
X135614069Y-114213693D01*
X135838097Y-114120898D01*
X136039717Y-113986180D01*
X136211180Y-113814717D01*
X136345898Y-113613097D01*
X136438693Y-113389069D01*
X136486000Y-113151243D01*
X136486000Y-112908757D01*
X136438693Y-112670931D01*
X136345898Y-112446903D01*
X136211180Y-112245283D01*
X136039717Y-112073820D01*
X135838097Y-111939102D01*
X135614069Y-111846307D01*
X135376243Y-111799000D01*
X135133757Y-111799000D01*
X134895931Y-111846307D01*
X134671903Y-111939102D01*
X134470283Y-112073820D01*
X134298820Y-112245283D01*
X134164102Y-112446903D01*
X134071307Y-112670931D01*
X134024000Y-112908757D01*
X131366800Y-112908757D01*
X131366800Y-112713020D01*
X131525511Y-112713020D01*
X131586373Y-112903000D01*
X132588000Y-112903000D01*
X132588000Y-111900813D01*
X132842000Y-111900813D01*
X132842000Y-112903000D01*
X133843627Y-112903000D01*
X133904489Y-112713020D01*
X133880134Y-112632712D01*
X133780239Y-112413039D01*
X133639408Y-112217076D01*
X133463052Y-112052353D01*
X133257949Y-111925201D01*
X133031981Y-111840505D01*
X132842000Y-111900813D01*
X132588000Y-111900813D01*
X132398019Y-111840505D01*
X132172051Y-111925201D01*
X131966948Y-112052353D01*
X131790592Y-112217076D01*
X131649761Y-112413039D01*
X131549866Y-112632712D01*
X131525511Y-112713020D01*
X131366800Y-112713020D01*
X131366800Y-106311031D01*
X138749988Y-98927844D01*
X138749988Y-101022643D01*
X133017564Y-106755067D01*
X132836243Y-106719000D01*
X132593757Y-106719000D01*
X132355931Y-106766307D01*
X132131903Y-106859102D01*
X131930283Y-106993820D01*
X131758820Y-107165283D01*
X131624102Y-107366903D01*
X131531307Y-107590931D01*
X131484000Y-107828757D01*
X131484000Y-108071243D01*
X131531307Y-108309069D01*
X131624102Y-108533097D01*
X131758820Y-108734717D01*
X131930283Y-108906180D01*
X132084000Y-109008891D01*
X132084001Y-109431109D01*
X131930283Y-109533820D01*
X131758820Y-109705283D01*
X131624102Y-109906903D01*
X131531307Y-110130931D01*
X131484000Y-110368757D01*
X131484000Y-110611243D01*
X131531307Y-110849069D01*
X131624102Y-111073097D01*
X131758820Y-111274717D01*
X131930283Y-111446180D01*
X132131903Y-111580898D01*
X132355931Y-111673693D01*
X132593757Y-111721000D01*
X132836243Y-111721000D01*
X133074069Y-111673693D01*
X133298097Y-111580898D01*
X133499717Y-111446180D01*
X133671180Y-111274717D01*
X133805898Y-111073097D01*
X133898693Y-110849069D01*
X133946000Y-110611243D01*
X133946000Y-110368757D01*
X133898693Y-110130931D01*
X133805898Y-109906903D01*
X133671180Y-109705283D01*
X133499717Y-109533820D01*
X133346000Y-109431110D01*
X133346000Y-109008890D01*
X133499717Y-108906180D01*
X133671180Y-108734717D01*
X133805898Y-108533097D01*
X133898693Y-108309069D01*
X133946000Y-108071243D01*
X133946000Y-107828757D01*
X133909933Y-107647436D01*
X134022157Y-107535211D01*
X134022157Y-108800000D01*
X134029513Y-108874689D01*
X134051299Y-108946508D01*
X134086678Y-109012696D01*
X134134289Y-109070711D01*
X134192304Y-109118322D01*
X134258492Y-109153701D01*
X134330311Y-109175487D01*
X134405000Y-109182843D01*
X135595475Y-109182843D01*
X135793092Y-109380461D01*
X135614069Y-109306307D01*
X135376243Y-109259000D01*
X135133757Y-109259000D01*
X134895931Y-109306307D01*
X134671903Y-109399102D01*
X134470283Y-109533820D01*
X134298820Y-109705283D01*
X134164102Y-109906903D01*
X134071307Y-110130931D01*
X134024000Y-110368757D01*
X134024000Y-110611243D01*
X134071307Y-110849069D01*
X134164102Y-111073097D01*
X134298820Y-111274717D01*
X134470283Y-111446180D01*
X134671903Y-111580898D01*
X134895931Y-111673693D01*
X135133757Y-111721000D01*
X135376243Y-111721000D01*
X135614069Y-111673693D01*
X135838097Y-111580898D01*
X136039717Y-111446180D01*
X136211180Y-111274717D01*
X136345898Y-111073097D01*
X136438693Y-110849069D01*
X136486000Y-110611243D01*
X136486000Y-110368757D01*
X136438693Y-110130931D01*
X136364540Y-109951908D01*
X138815000Y-112402369D01*
X138815001Y-127246630D01*
X138422632Y-127639000D01*
X136313890Y-127639000D01*
X136211180Y-127485283D01*
X136039717Y-127313820D01*
X135838097Y-127179102D01*
X135614069Y-127086307D01*
X135376243Y-127039000D01*
X135133757Y-127039000D01*
X134895931Y-127086307D01*
X134671903Y-127179102D01*
X134470283Y-127313820D01*
X134298820Y-127485283D01*
X134164102Y-127686903D01*
X134071307Y-127910931D01*
X134024000Y-128148757D01*
X134024000Y-128391243D01*
X134071307Y-128629069D01*
X134164102Y-128853097D01*
X134298820Y-129054717D01*
X134470283Y-129226180D01*
X134671903Y-129360898D01*
X134895931Y-129453693D01*
X135133757Y-129501000D01*
X135376243Y-129501000D01*
X135614069Y-129453693D01*
X135838097Y-129360898D01*
X136039717Y-129226180D01*
X136211180Y-129054717D01*
X136313890Y-128901000D01*
X138653010Y-128901000D01*
X138684000Y-128904052D01*
X138714990Y-128901000D01*
X138714998Y-128901000D01*
X138807698Y-128891870D01*
X138926642Y-128855789D01*
X139036261Y-128797196D01*
X139132343Y-128718343D01*
X139152105Y-128694263D01*
X139455125Y-128391243D01*
X139870268Y-127976101D01*
X139894343Y-127956343D01*
X139914103Y-127932265D01*
X140564000Y-127282369D01*
X140564000Y-155555146D01*
X140521449Y-155989115D01*
X140401181Y-156387464D01*
X140205831Y-156754862D01*
X139942845Y-157077315D01*
X139622226Y-157342554D01*
X139256204Y-157540461D01*
X138858708Y-157663506D01*
X138425863Y-157709000D01*
X128289854Y-157709000D01*
X127855885Y-157666449D01*
X127457536Y-157546181D01*
X127090138Y-157350831D01*
X126767685Y-157087845D01*
X126502446Y-156767226D01*
X126304539Y-156401204D01*
X126207821Y-156088757D01*
X131484000Y-156088757D01*
X131484000Y-156331243D01*
X131531307Y-156569069D01*
X131624102Y-156793097D01*
X131758820Y-156994717D01*
X131930283Y-157166180D01*
X132131903Y-157300898D01*
X132355931Y-157393693D01*
X132593757Y-157441000D01*
X132836243Y-157441000D01*
X133074069Y-157393693D01*
X133298097Y-157300898D01*
X133499717Y-157166180D01*
X133671180Y-156994717D01*
X133805898Y-156793097D01*
X133898693Y-156569069D01*
X133907065Y-156526980D01*
X134065511Y-156526980D01*
X134089866Y-156607288D01*
X134189761Y-156826961D01*
X134330592Y-157022924D01*
X134506948Y-157187647D01*
X134712051Y-157314799D01*
X134938019Y-157399495D01*
X135128000Y-157339187D01*
X135128000Y-156337000D01*
X135382000Y-156337000D01*
X135382000Y-157339187D01*
X135571981Y-157399495D01*
X135797949Y-157314799D01*
X136003052Y-157187647D01*
X136179408Y-157022924D01*
X136320239Y-156826961D01*
X136420134Y-156607288D01*
X136444489Y-156526980D01*
X136383627Y-156337000D01*
X135382000Y-156337000D01*
X135128000Y-156337000D01*
X134126373Y-156337000D01*
X134065511Y-156526980D01*
X133907065Y-156526980D01*
X133946000Y-156331243D01*
X133946000Y-156088757D01*
X133907066Y-155893020D01*
X134065511Y-155893020D01*
X134126373Y-156083000D01*
X135128000Y-156083000D01*
X135128000Y-155080813D01*
X135382000Y-155080813D01*
X135382000Y-156083000D01*
X136383627Y-156083000D01*
X136444489Y-155893020D01*
X136420134Y-155812712D01*
X136320239Y-155593039D01*
X136179408Y-155397076D01*
X136003052Y-155232353D01*
X135797949Y-155105201D01*
X135571981Y-155020505D01*
X135382000Y-155080813D01*
X135128000Y-155080813D01*
X134938019Y-155020505D01*
X134712051Y-155105201D01*
X134506948Y-155232353D01*
X134330592Y-155397076D01*
X134189761Y-155593039D01*
X134089866Y-155812712D01*
X134065511Y-155893020D01*
X133907066Y-155893020D01*
X133898693Y-155850931D01*
X133805898Y-155626903D01*
X133671180Y-155425283D01*
X133499717Y-155253820D01*
X133298097Y-155119102D01*
X133074069Y-155026307D01*
X132836243Y-154979000D01*
X132593757Y-154979000D01*
X132355931Y-155026307D01*
X132131903Y-155119102D01*
X131930283Y-155253820D01*
X131758820Y-155425283D01*
X131624102Y-155626903D01*
X131531307Y-155850931D01*
X131484000Y-156088757D01*
X126207821Y-156088757D01*
X126181494Y-156003708D01*
X126136000Y-155570863D01*
X126136000Y-153548757D01*
X131484000Y-153548757D01*
X131484000Y-153791243D01*
X131531307Y-154029069D01*
X131624102Y-154253097D01*
X131758820Y-154454717D01*
X131930283Y-154626180D01*
X132131903Y-154760898D01*
X132355931Y-154853693D01*
X132593757Y-154901000D01*
X132836243Y-154901000D01*
X133074069Y-154853693D01*
X133298097Y-154760898D01*
X133499717Y-154626180D01*
X133671180Y-154454717D01*
X133805898Y-154253097D01*
X133898693Y-154029069D01*
X133946000Y-153791243D01*
X133946000Y-153548757D01*
X134024000Y-153548757D01*
X134024000Y-153791243D01*
X134071307Y-154029069D01*
X134164102Y-154253097D01*
X134298820Y-154454717D01*
X134470283Y-154626180D01*
X134671903Y-154760898D01*
X134895931Y-154853693D01*
X135133757Y-154901000D01*
X135376243Y-154901000D01*
X135614069Y-154853693D01*
X135838097Y-154760898D01*
X136039717Y-154626180D01*
X136211180Y-154454717D01*
X136345898Y-154253097D01*
X136438693Y-154029069D01*
X136486000Y-153791243D01*
X136486000Y-153548757D01*
X136438693Y-153310931D01*
X136345898Y-153086903D01*
X136211180Y-152885283D01*
X136039717Y-152713820D01*
X135838097Y-152579102D01*
X135614069Y-152486307D01*
X135376243Y-152439000D01*
X135133757Y-152439000D01*
X134895931Y-152486307D01*
X134671903Y-152579102D01*
X134470283Y-152713820D01*
X134298820Y-152885283D01*
X134164102Y-153086903D01*
X134071307Y-153310931D01*
X134024000Y-153548757D01*
X133946000Y-153548757D01*
X133898693Y-153310931D01*
X133805898Y-153086903D01*
X133671180Y-152885283D01*
X133499717Y-152713820D01*
X133298097Y-152579102D01*
X133074069Y-152486307D01*
X132836243Y-152439000D01*
X132593757Y-152439000D01*
X132355931Y-152486307D01*
X132131903Y-152579102D01*
X131930283Y-152713820D01*
X131758820Y-152885283D01*
X131624102Y-153086903D01*
X131531307Y-153310931D01*
X131484000Y-153548757D01*
X126136000Y-153548757D01*
X126136000Y-81158757D01*
X131484000Y-81158757D01*
X131484000Y-81401243D01*
X131531307Y-81639069D01*
X131624102Y-81863097D01*
X131758820Y-82064717D01*
X131930283Y-82236180D01*
X132131903Y-82370898D01*
X132355931Y-82463693D01*
X132593757Y-82511000D01*
X132836243Y-82511000D01*
X133074069Y-82463693D01*
X133298097Y-82370898D01*
X133499717Y-82236180D01*
X133671180Y-82064717D01*
X133805898Y-81863097D01*
X133898693Y-81639069D01*
X133946000Y-81401243D01*
X133946000Y-81158757D01*
X133898693Y-80920931D01*
X133805898Y-80696903D01*
X133671180Y-80495283D01*
X133499717Y-80323820D01*
X133298097Y-80189102D01*
X133074069Y-80096307D01*
X132836243Y-80049000D01*
X132593757Y-80049000D01*
X132355931Y-80096307D01*
X132131903Y-80189102D01*
X131930283Y-80323820D01*
X131758820Y-80495283D01*
X131624102Y-80696903D01*
X131531307Y-80920931D01*
X131484000Y-81158757D01*
X126136000Y-81158757D01*
X126136000Y-78618757D01*
X131484000Y-78618757D01*
X131484000Y-78861243D01*
X131531307Y-79099069D01*
X131624102Y-79323097D01*
X131758820Y-79524717D01*
X131930283Y-79696180D01*
X132131903Y-79830898D01*
X132355931Y-79923693D01*
X132593757Y-79971000D01*
X132836243Y-79971000D01*
X133074069Y-79923693D01*
X133298097Y-79830898D01*
X133499717Y-79696180D01*
X133671180Y-79524717D01*
X133805898Y-79323097D01*
X133898693Y-79099069D01*
X133946000Y-78861243D01*
X133946000Y-78618757D01*
X134024000Y-78618757D01*
X134024000Y-78861243D01*
X134071307Y-79099069D01*
X134164102Y-79323097D01*
X134298820Y-79524717D01*
X134470283Y-79696180D01*
X134671903Y-79830898D01*
X134895931Y-79923693D01*
X135133757Y-79971000D01*
X135376243Y-79971000D01*
X135614069Y-79923693D01*
X135838097Y-79830898D01*
X136039717Y-79696180D01*
X136211180Y-79524717D01*
X136345898Y-79323097D01*
X136438693Y-79099069D01*
X136486000Y-78861243D01*
X136486000Y-78618757D01*
X136438693Y-78380931D01*
X136345898Y-78156903D01*
X136211180Y-77955283D01*
X136039717Y-77783820D01*
X135838097Y-77649102D01*
X135614069Y-77556307D01*
X135376243Y-77509000D01*
X135133757Y-77509000D01*
X134895931Y-77556307D01*
X134671903Y-77649102D01*
X134470283Y-77783820D01*
X134298820Y-77955283D01*
X134164102Y-78156903D01*
X134071307Y-78380931D01*
X134024000Y-78618757D01*
X133946000Y-78618757D01*
X133898693Y-78380931D01*
X133805898Y-78156903D01*
X133671180Y-77955283D01*
X133499717Y-77783820D01*
X133298097Y-77649102D01*
X133074069Y-77556307D01*
X132836243Y-77509000D01*
X132593757Y-77509000D01*
X132355931Y-77556307D01*
X132131903Y-77649102D01*
X131930283Y-77783820D01*
X131758820Y-77955283D01*
X131624102Y-78156903D01*
X131531307Y-78380931D01*
X131484000Y-78618757D01*
X126136000Y-78618757D01*
X126136000Y-76078757D01*
X131484000Y-76078757D01*
X131484000Y-76321243D01*
X131531307Y-76559069D01*
X131624102Y-76783097D01*
X131758820Y-76984717D01*
X131930283Y-77156180D01*
X132131903Y-77290898D01*
X132355931Y-77383693D01*
X132593757Y-77431000D01*
X132836243Y-77431000D01*
X133074069Y-77383693D01*
X133298097Y-77290898D01*
X133499717Y-77156180D01*
X133671180Y-76984717D01*
X133805898Y-76783097D01*
X133898693Y-76559069D01*
X133946000Y-76321243D01*
X133946000Y-76078757D01*
X134024000Y-76078757D01*
X134024000Y-76321243D01*
X134071307Y-76559069D01*
X134164102Y-76783097D01*
X134298820Y-76984717D01*
X134470283Y-77156180D01*
X134671903Y-77290898D01*
X134895931Y-77383693D01*
X135133757Y-77431000D01*
X135376243Y-77431000D01*
X135614069Y-77383693D01*
X135838097Y-77290898D01*
X136039717Y-77156180D01*
X136211180Y-76984717D01*
X136345898Y-76783097D01*
X136438693Y-76559069D01*
X136486000Y-76321243D01*
X136486000Y-76078757D01*
X136438693Y-75840931D01*
X136345898Y-75616903D01*
X136211180Y-75415283D01*
X136039717Y-75243820D01*
X135838097Y-75109102D01*
X135614069Y-75016307D01*
X135376243Y-74969000D01*
X135133757Y-74969000D01*
X134895931Y-75016307D01*
X134671903Y-75109102D01*
X134470283Y-75243820D01*
X134298820Y-75415283D01*
X134164102Y-75616903D01*
X134071307Y-75840931D01*
X134024000Y-76078757D01*
X133946000Y-76078757D01*
X133898693Y-75840931D01*
X133805898Y-75616903D01*
X133671180Y-75415283D01*
X133499717Y-75243820D01*
X133298097Y-75109102D01*
X133074069Y-75016307D01*
X132836243Y-74969000D01*
X132593757Y-74969000D01*
X132355931Y-75016307D01*
X132131903Y-75109102D01*
X131930283Y-75243820D01*
X131758820Y-75415283D01*
X131624102Y-75616903D01*
X131531307Y-75840931D01*
X131484000Y-76078757D01*
X126136000Y-76078757D01*
X126136000Y-73976980D01*
X131525511Y-73976980D01*
X131549866Y-74057288D01*
X131649761Y-74276961D01*
X131790592Y-74472924D01*
X131966948Y-74637647D01*
X132172051Y-74764799D01*
X132398019Y-74849495D01*
X132588000Y-74789187D01*
X132588000Y-73787000D01*
X132842000Y-73787000D01*
X132842000Y-74789187D01*
X133031981Y-74849495D01*
X133257949Y-74764799D01*
X133463052Y-74637647D01*
X133639408Y-74472924D01*
X133780239Y-74276961D01*
X133880134Y-74057288D01*
X133904489Y-73976980D01*
X133843627Y-73787000D01*
X132842000Y-73787000D01*
X132588000Y-73787000D01*
X131586373Y-73787000D01*
X131525511Y-73976980D01*
X126136000Y-73976980D01*
X126136000Y-73343020D01*
X131525511Y-73343020D01*
X131586373Y-73533000D01*
X132588000Y-73533000D01*
X132588000Y-72530813D01*
X132842000Y-72530813D01*
X132842000Y-73533000D01*
X133843627Y-73533000D01*
X133904489Y-73343020D01*
X133880134Y-73262712D01*
X133780239Y-73043039D01*
X133639408Y-72847076D01*
X133463052Y-72682353D01*
X133257949Y-72555201D01*
X133031981Y-72470505D01*
X132842000Y-72530813D01*
X132588000Y-72530813D01*
X132398019Y-72470505D01*
X132172051Y-72555201D01*
X131966948Y-72682353D01*
X131790592Y-72847076D01*
X131649761Y-73043039D01*
X131549866Y-73262712D01*
X131525511Y-73343020D01*
X126136000Y-73343020D01*
X126136000Y-70998757D01*
X131484000Y-70998757D01*
X131484000Y-71241243D01*
X131531307Y-71479069D01*
X131624102Y-71703097D01*
X131758820Y-71904717D01*
X131930283Y-72076180D01*
X132131903Y-72210898D01*
X132355931Y-72303693D01*
X132593757Y-72351000D01*
X132836243Y-72351000D01*
X133074069Y-72303693D01*
X133298097Y-72210898D01*
X133499717Y-72076180D01*
X133671180Y-71904717D01*
X133805898Y-71703097D01*
X133898693Y-71479069D01*
X133946000Y-71241243D01*
X133946000Y-70998757D01*
X133898693Y-70760931D01*
X133805898Y-70536903D01*
X133671180Y-70335283D01*
X133499717Y-70163820D01*
X133298097Y-70029102D01*
X133074069Y-69936307D01*
X132836243Y-69889000D01*
X132593757Y-69889000D01*
X132355931Y-69936307D01*
X132131903Y-70029102D01*
X131930283Y-70163820D01*
X131758820Y-70335283D01*
X131624102Y-70536903D01*
X131531307Y-70760931D01*
X131484000Y-70998757D01*
X126136000Y-70998757D01*
X126136000Y-68458757D01*
X131484000Y-68458757D01*
X131484000Y-68701243D01*
X131531307Y-68939069D01*
X131624102Y-69163097D01*
X131758820Y-69364717D01*
X131930283Y-69536180D01*
X132131903Y-69670898D01*
X132355931Y-69763693D01*
X132593757Y-69811000D01*
X132836243Y-69811000D01*
X133074069Y-69763693D01*
X133298097Y-69670898D01*
X133499717Y-69536180D01*
X133671180Y-69364717D01*
X133805898Y-69163097D01*
X133898693Y-68939069D01*
X133946000Y-68701243D01*
X133946000Y-68458757D01*
X134024000Y-68458757D01*
X134024000Y-68701243D01*
X134071307Y-68939069D01*
X134164102Y-69163097D01*
X134298820Y-69364717D01*
X134470283Y-69536180D01*
X134671903Y-69670898D01*
X134895931Y-69763693D01*
X135133757Y-69811000D01*
X135376243Y-69811000D01*
X135614069Y-69763693D01*
X135838097Y-69670898D01*
X136039717Y-69536180D01*
X136211180Y-69364717D01*
X136345898Y-69163097D01*
X136438693Y-68939069D01*
X136486000Y-68701243D01*
X136486000Y-68458757D01*
X136438693Y-68220931D01*
X136345898Y-67996903D01*
X136211180Y-67795283D01*
X136039717Y-67623820D01*
X135838097Y-67489102D01*
X135614069Y-67396307D01*
X135376243Y-67349000D01*
X135133757Y-67349000D01*
X134895931Y-67396307D01*
X134671903Y-67489102D01*
X134470283Y-67623820D01*
X134298820Y-67795283D01*
X134164102Y-67996903D01*
X134071307Y-68220931D01*
X134024000Y-68458757D01*
X133946000Y-68458757D01*
X133898693Y-68220931D01*
X133805898Y-67996903D01*
X133671180Y-67795283D01*
X133499717Y-67623820D01*
X133298097Y-67489102D01*
X133074069Y-67396307D01*
X132836243Y-67349000D01*
X132593757Y-67349000D01*
X132355931Y-67396307D01*
X132131903Y-67489102D01*
X131930283Y-67623820D01*
X131758820Y-67795283D01*
X131624102Y-67996903D01*
X131531307Y-68220931D01*
X131484000Y-68458757D01*
X126136000Y-68458757D01*
X126136000Y-65918757D01*
X131484000Y-65918757D01*
X131484000Y-66161243D01*
X131531307Y-66399069D01*
X131624102Y-66623097D01*
X131758820Y-66824717D01*
X131930283Y-66996180D01*
X132131903Y-67130898D01*
X132355931Y-67223693D01*
X132593757Y-67271000D01*
X132836243Y-67271000D01*
X133074069Y-67223693D01*
X133298097Y-67130898D01*
X133499717Y-66996180D01*
X133671180Y-66824717D01*
X133805898Y-66623097D01*
X133898693Y-66399069D01*
X133907065Y-66356980D01*
X134065511Y-66356980D01*
X134089866Y-66437288D01*
X134189761Y-66656961D01*
X134330592Y-66852924D01*
X134506948Y-67017647D01*
X134712051Y-67144799D01*
X134938019Y-67229495D01*
X135128000Y-67169187D01*
X135128000Y-66167000D01*
X135382000Y-66167000D01*
X135382000Y-67169187D01*
X135571981Y-67229495D01*
X135797949Y-67144799D01*
X136003052Y-67017647D01*
X136179408Y-66852924D01*
X136320239Y-66656961D01*
X136420134Y-66437288D01*
X136444489Y-66356980D01*
X136383627Y-66167000D01*
X135382000Y-66167000D01*
X135128000Y-66167000D01*
X134126373Y-66167000D01*
X134065511Y-66356980D01*
X133907065Y-66356980D01*
X133946000Y-66161243D01*
X133946000Y-65918757D01*
X133907066Y-65723020D01*
X134065511Y-65723020D01*
X134126373Y-65913000D01*
X135128000Y-65913000D01*
X135128000Y-64910813D01*
X135382000Y-64910813D01*
X135382000Y-65913000D01*
X136383627Y-65913000D01*
X136444489Y-65723020D01*
X136420134Y-65642712D01*
X136320239Y-65423039D01*
X136179408Y-65227076D01*
X136003052Y-65062353D01*
X135797949Y-64935201D01*
X135571981Y-64850505D01*
X135382000Y-64910813D01*
X135128000Y-64910813D01*
X134938019Y-64850505D01*
X134712051Y-64935201D01*
X134506948Y-65062353D01*
X134330592Y-65227076D01*
X134189761Y-65423039D01*
X134089866Y-65642712D01*
X134065511Y-65723020D01*
X133907066Y-65723020D01*
X133898693Y-65680931D01*
X133805898Y-65456903D01*
X133671180Y-65255283D01*
X133499717Y-65083820D01*
X133298097Y-64949102D01*
X133074069Y-64856307D01*
X132836243Y-64809000D01*
X132593757Y-64809000D01*
X132355931Y-64856307D01*
X132131903Y-64949102D01*
X131930283Y-65083820D01*
X131758820Y-65255283D01*
X131624102Y-65456903D01*
X131531307Y-65680931D01*
X131484000Y-65918757D01*
X126136000Y-65918757D01*
X126136000Y-37484853D01*
X126190644Y-36927546D01*
X126346732Y-36410560D01*
X126600262Y-35933738D01*
X126941581Y-35515240D01*
X127357686Y-35171008D01*
X127832724Y-34914155D01*
X128348605Y-34754464D01*
X128904813Y-34696004D01*
X128905834Y-34696000D01*
X137775147Y-34696000D01*
X138332454Y-34750644D01*
%TA.AperFunction,Conductor*%
D17*
G36*
X138332454Y-34750644D02*
G01*
X138849440Y-34906732D01*
X139326262Y-35160262D01*
X139744760Y-35501581D01*
X140088992Y-35917686D01*
X140345845Y-36392724D01*
X140505536Y-36908605D01*
X140563996Y-37464813D01*
X140564001Y-37466122D01*
X140564001Y-43151632D01*
X138868104Y-41455736D01*
X138848342Y-41431656D01*
X138752260Y-41352803D01*
X138642641Y-41294210D01*
X138523697Y-41258129D01*
X138430997Y-41248999D01*
X138430989Y-41248999D01*
X138399999Y-41245947D01*
X138369009Y-41248999D01*
X134045988Y-41248999D01*
X134015000Y-41245947D01*
X133984012Y-41248999D01*
X131632988Y-41248999D01*
X131602000Y-41245947D01*
X131571012Y-41248999D01*
X131571003Y-41248999D01*
X131478303Y-41258129D01*
X131359359Y-41294210D01*
X131249740Y-41352803D01*
X131153658Y-41431656D01*
X131133900Y-41455731D01*
X126702733Y-45886899D01*
X126678658Y-45906657D01*
X126658900Y-45930732D01*
X126658897Y-45930735D01*
X126599804Y-46002740D01*
X126541211Y-46112359D01*
X126505130Y-46231303D01*
X126492948Y-46355000D01*
X126496001Y-46386000D01*
X126496000Y-61564010D01*
X126492948Y-61595000D01*
X126496000Y-61625990D01*
X126496000Y-61625997D01*
X126505130Y-61718697D01*
X126541211Y-61837641D01*
X126599804Y-61947260D01*
X126678657Y-62043343D01*
X126702737Y-62063105D01*
X128563899Y-63924268D01*
X128583657Y-63948343D01*
X128679739Y-64027196D01*
X128789358Y-64085789D01*
X128908302Y-64121870D01*
X129001002Y-64131000D01*
X129001009Y-64131000D01*
X129032000Y-64134052D01*
X129062990Y-64131000D01*
X131656110Y-64131000D01*
X131758820Y-64284717D01*
X131930283Y-64456180D01*
X132131903Y-64590898D01*
X132355931Y-64683693D01*
X132593757Y-64731000D01*
X132836243Y-64731000D01*
X133074069Y-64683693D01*
X133298097Y-64590898D01*
X133499717Y-64456180D01*
X133671180Y-64284717D01*
X133805898Y-64083097D01*
X133898693Y-63859069D01*
X133946000Y-63621243D01*
X133946000Y-63378757D01*
X134024000Y-63378757D01*
X134024000Y-63621243D01*
X134071307Y-63859069D01*
X134164102Y-64083097D01*
X134298820Y-64284717D01*
X134470283Y-64456180D01*
X134671903Y-64590898D01*
X134895931Y-64683693D01*
X135133757Y-64731000D01*
X135376243Y-64731000D01*
X135614069Y-64683693D01*
X135838097Y-64590898D01*
X136039717Y-64456180D01*
X136211180Y-64284717D01*
X136345898Y-64083097D01*
X136438693Y-63859069D01*
X136486000Y-63621243D01*
X136486000Y-63378757D01*
X136438693Y-63140931D01*
X136345898Y-62916903D01*
X136211180Y-62715283D01*
X136039717Y-62543820D01*
X135838097Y-62409102D01*
X135614069Y-62316307D01*
X135376243Y-62269000D01*
X135133757Y-62269000D01*
X134895931Y-62316307D01*
X134671903Y-62409102D01*
X134470283Y-62543820D01*
X134298820Y-62715283D01*
X134164102Y-62916903D01*
X134071307Y-63140931D01*
X134024000Y-63378757D01*
X133946000Y-63378757D01*
X133898693Y-63140931D01*
X133805898Y-62916903D01*
X133671180Y-62715283D01*
X133499717Y-62543820D01*
X133298097Y-62409102D01*
X133074069Y-62316307D01*
X132836243Y-62269000D01*
X132593757Y-62269000D01*
X132355931Y-62316307D01*
X132131903Y-62409102D01*
X131930283Y-62543820D01*
X131758820Y-62715283D01*
X131656110Y-62869000D01*
X129293369Y-62869000D01*
X127758000Y-61333632D01*
X127758000Y-60838757D01*
X131484000Y-60838757D01*
X131484000Y-61081243D01*
X131531307Y-61319069D01*
X131624102Y-61543097D01*
X131758820Y-61744717D01*
X131930283Y-61916180D01*
X132131903Y-62050898D01*
X132355931Y-62143693D01*
X132593757Y-62191000D01*
X132836243Y-62191000D01*
X133074069Y-62143693D01*
X133298097Y-62050898D01*
X133499717Y-61916180D01*
X133671180Y-61744717D01*
X133805898Y-61543097D01*
X133898693Y-61319069D01*
X133946000Y-61081243D01*
X133946000Y-60838757D01*
X133898693Y-60600931D01*
X133805898Y-60376903D01*
X133671180Y-60175283D01*
X133499717Y-60003820D01*
X133298097Y-59869102D01*
X133074069Y-59776307D01*
X132836243Y-59729000D01*
X132593757Y-59729000D01*
X132355931Y-59776307D01*
X132131903Y-59869102D01*
X131930283Y-60003820D01*
X131758820Y-60175283D01*
X131624102Y-60376903D01*
X131531307Y-60600931D01*
X131484000Y-60838757D01*
X127758000Y-60838757D01*
X127758000Y-60045000D01*
X128559157Y-60045000D01*
X128566513Y-60119689D01*
X128588299Y-60191508D01*
X128623678Y-60257696D01*
X128671289Y-60315711D01*
X128729304Y-60363322D01*
X128795492Y-60398701D01*
X128867311Y-60420487D01*
X128942000Y-60427843D01*
X129444750Y-60426000D01*
X129540000Y-60330750D01*
X129540000Y-59584500D01*
X129794000Y-59584500D01*
X129794000Y-60330750D01*
X129889250Y-60426000D01*
X130392000Y-60427843D01*
X130466689Y-60420487D01*
X130538508Y-60398701D01*
X130604696Y-60363322D01*
X130662711Y-60315711D01*
X130710322Y-60257696D01*
X130745701Y-60191508D01*
X130767487Y-60119689D01*
X130774843Y-60045000D01*
X130773000Y-59679750D01*
X130677750Y-59584500D01*
X129794000Y-59584500D01*
X129540000Y-59584500D01*
X128656250Y-59584500D01*
X128561000Y-59679750D01*
X128559157Y-60045000D01*
X127758000Y-60045000D01*
X127758000Y-58870000D01*
X128559157Y-58870000D01*
X128561000Y-59235250D01*
X128656250Y-59330500D01*
X129540000Y-59330500D01*
X129540000Y-58584250D01*
X129794000Y-58584250D01*
X129794000Y-59330500D01*
X130677750Y-59330500D01*
X130773000Y-59235250D01*
X130774843Y-58870000D01*
X130767487Y-58795311D01*
X130745701Y-58723492D01*
X130710322Y-58657304D01*
X130662711Y-58599289D01*
X130604696Y-58551678D01*
X130538508Y-58516299D01*
X130466689Y-58494513D01*
X130392000Y-58487157D01*
X129889250Y-58489000D01*
X129794000Y-58584250D01*
X129540000Y-58584250D01*
X129444750Y-58489000D01*
X128942000Y-58487157D01*
X128867311Y-58494513D01*
X128795492Y-58516299D01*
X128729304Y-58551678D01*
X128671289Y-58599289D01*
X128623678Y-58657304D01*
X128588299Y-58723492D01*
X128566513Y-58795311D01*
X128559157Y-58870000D01*
X127758000Y-58870000D01*
X127758000Y-57045000D01*
X128559157Y-57045000D01*
X128559157Y-57720000D01*
X128571317Y-57843462D01*
X128607329Y-57962179D01*
X128665810Y-58071589D01*
X128744512Y-58167488D01*
X128840411Y-58246190D01*
X128949821Y-58304671D01*
X129068538Y-58340683D01*
X129192000Y-58352843D01*
X130142000Y-58352843D01*
X130265462Y-58340683D01*
X130384179Y-58304671D01*
X130395243Y-58298757D01*
X131484000Y-58298757D01*
X131484000Y-58541243D01*
X131531307Y-58779069D01*
X131624102Y-59003097D01*
X131758820Y-59204717D01*
X131930283Y-59376180D01*
X132131903Y-59510898D01*
X132355931Y-59603693D01*
X132593757Y-59651000D01*
X132836243Y-59651000D01*
X133074069Y-59603693D01*
X133298097Y-59510898D01*
X133499717Y-59376180D01*
X133671180Y-59204717D01*
X133805898Y-59003097D01*
X133898693Y-58779069D01*
X133907065Y-58736980D01*
X134065511Y-58736980D01*
X134089866Y-58817288D01*
X134189761Y-59036961D01*
X134330592Y-59232924D01*
X134506948Y-59397647D01*
X134712051Y-59524799D01*
X134938019Y-59609495D01*
X135128000Y-59549187D01*
X135128000Y-58547000D01*
X135382000Y-58547000D01*
X135382000Y-59549187D01*
X135571981Y-59609495D01*
X135797949Y-59524799D01*
X136003052Y-59397647D01*
X136179408Y-59232924D01*
X136320239Y-59036961D01*
X136420134Y-58817288D01*
X136444489Y-58736980D01*
X136383627Y-58547000D01*
X135382000Y-58547000D01*
X135128000Y-58547000D01*
X134126373Y-58547000D01*
X134065511Y-58736980D01*
X133907065Y-58736980D01*
X133946000Y-58541243D01*
X133946000Y-58298757D01*
X133907066Y-58103020D01*
X134065511Y-58103020D01*
X134126373Y-58293000D01*
X135128000Y-58293000D01*
X135128000Y-57290813D01*
X135382000Y-57290813D01*
X135382000Y-58293000D01*
X136383627Y-58293000D01*
X136444489Y-58103020D01*
X136420134Y-58022712D01*
X136320239Y-57803039D01*
X136179408Y-57607076D01*
X136003052Y-57442353D01*
X135797949Y-57315201D01*
X135571981Y-57230505D01*
X135382000Y-57290813D01*
X135128000Y-57290813D01*
X134938019Y-57230505D01*
X134712051Y-57315201D01*
X134506948Y-57442353D01*
X134330592Y-57607076D01*
X134189761Y-57803039D01*
X134089866Y-58022712D01*
X134065511Y-58103020D01*
X133907066Y-58103020D01*
X133898693Y-58060931D01*
X133805898Y-57836903D01*
X133671180Y-57635283D01*
X133499717Y-57463820D01*
X133298097Y-57329102D01*
X133074069Y-57236307D01*
X132836243Y-57189000D01*
X132593757Y-57189000D01*
X132355931Y-57236307D01*
X132131903Y-57329102D01*
X131930283Y-57463820D01*
X131758820Y-57635283D01*
X131624102Y-57836903D01*
X131531307Y-58060931D01*
X131484000Y-58298757D01*
X130395243Y-58298757D01*
X130493589Y-58246190D01*
X130589488Y-58167488D01*
X130668190Y-58071589D01*
X130726671Y-57962179D01*
X130762683Y-57843462D01*
X130774843Y-57720000D01*
X130774843Y-57045000D01*
X130762683Y-56921538D01*
X130726671Y-56802821D01*
X130668190Y-56693411D01*
X130589488Y-56597512D01*
X130493589Y-56518810D01*
X130384179Y-56460329D01*
X130265462Y-56424317D01*
X130223416Y-56420176D01*
X130257592Y-56386000D01*
X131592168Y-56386000D01*
X131624102Y-56463097D01*
X131758820Y-56664717D01*
X131930283Y-56836180D01*
X132131903Y-56970898D01*
X132355931Y-57063693D01*
X132593757Y-57111000D01*
X132836243Y-57111000D01*
X133074069Y-57063693D01*
X133298097Y-56970898D01*
X133499717Y-56836180D01*
X133671180Y-56664717D01*
X133805898Y-56463097D01*
X133898693Y-56239069D01*
X133946000Y-56001243D01*
X133946000Y-55758757D01*
X133898693Y-55520931D01*
X133805898Y-55296903D01*
X133671180Y-55095283D01*
X133499717Y-54923820D01*
X133298097Y-54789102D01*
X133074069Y-54696307D01*
X132836243Y-54649000D01*
X132593757Y-54649000D01*
X132355931Y-54696307D01*
X132131903Y-54789102D01*
X131930283Y-54923820D01*
X131758820Y-55095283D01*
X131624102Y-55296903D01*
X131592168Y-55374000D01*
X130072845Y-55374000D01*
X130047999Y-55371553D01*
X130023153Y-55374000D01*
X130023146Y-55374000D01*
X129958694Y-55380348D01*
X129948806Y-55381322D01*
X129926607Y-55388056D01*
X129853425Y-55410255D01*
X129765521Y-55457241D01*
X129688473Y-55520473D01*
X129672628Y-55539780D01*
X129326785Y-55885624D01*
X129307473Y-55901473D01*
X129244241Y-55978521D01*
X129197255Y-56066426D01*
X129168322Y-56161808D01*
X129161000Y-56236147D01*
X129161000Y-56236154D01*
X129158553Y-56261000D01*
X129161000Y-56285847D01*
X129161000Y-56415210D01*
X129068538Y-56424317D01*
X128949821Y-56460329D01*
X128840411Y-56518810D01*
X128744512Y-56597512D01*
X128665810Y-56693411D01*
X128607329Y-56802821D01*
X128571317Y-56921538D01*
X128559157Y-57045000D01*
X127758000Y-57045000D01*
X127758000Y-53656980D01*
X131525511Y-53656980D01*
X131549866Y-53737288D01*
X131649761Y-53956961D01*
X131790592Y-54152924D01*
X131966948Y-54317647D01*
X132172051Y-54444799D01*
X132398019Y-54529495D01*
X132588000Y-54469187D01*
X132588000Y-53467000D01*
X132842000Y-53467000D01*
X132842000Y-54469187D01*
X133031981Y-54529495D01*
X133257949Y-54444799D01*
X133463052Y-54317647D01*
X133639408Y-54152924D01*
X133780239Y-53956961D01*
X133880134Y-53737288D01*
X133904489Y-53656980D01*
X133843627Y-53467000D01*
X132842000Y-53467000D01*
X132588000Y-53467000D01*
X131586373Y-53467000D01*
X131525511Y-53656980D01*
X127758000Y-53656980D01*
X127758000Y-53218757D01*
X134024000Y-53218757D01*
X134024000Y-53461243D01*
X134071307Y-53699069D01*
X134164102Y-53923097D01*
X134298820Y-54124717D01*
X134470283Y-54296180D01*
X134671903Y-54430898D01*
X134895931Y-54523693D01*
X135133757Y-54571000D01*
X135376243Y-54571000D01*
X135614069Y-54523693D01*
X135838097Y-54430898D01*
X136039717Y-54296180D01*
X136211180Y-54124717D01*
X136345898Y-53923097D01*
X136438693Y-53699069D01*
X136486000Y-53461243D01*
X136486000Y-53218757D01*
X136438693Y-52980931D01*
X136345898Y-52756903D01*
X136211180Y-52555283D01*
X136039717Y-52383820D01*
X135838097Y-52249102D01*
X135614069Y-52156307D01*
X135376243Y-52109000D01*
X135133757Y-52109000D01*
X134895931Y-52156307D01*
X134671903Y-52249102D01*
X134470283Y-52383820D01*
X134298820Y-52555283D01*
X134164102Y-52756903D01*
X134071307Y-52980931D01*
X134024000Y-53218757D01*
X127758000Y-53218757D01*
X127758000Y-53023020D01*
X131525511Y-53023020D01*
X131586373Y-53213000D01*
X132588000Y-53213000D01*
X132588000Y-52210813D01*
X132842000Y-52210813D01*
X132842000Y-53213000D01*
X133843627Y-53213000D01*
X133904489Y-53023020D01*
X133880134Y-52942712D01*
X133780239Y-52723039D01*
X133639408Y-52527076D01*
X133463052Y-52362353D01*
X133257949Y-52235201D01*
X133031981Y-52150505D01*
X132842000Y-52210813D01*
X132588000Y-52210813D01*
X132398019Y-52150505D01*
X132172051Y-52235201D01*
X131966948Y-52362353D01*
X131790592Y-52527076D01*
X131649761Y-52723039D01*
X131549866Y-52942712D01*
X131525511Y-53023020D01*
X127758000Y-53023020D01*
X127758000Y-50678757D01*
X131484000Y-50678757D01*
X131484000Y-50921243D01*
X131531307Y-51159069D01*
X131624102Y-51383097D01*
X131758820Y-51584717D01*
X131930283Y-51756180D01*
X132131903Y-51890898D01*
X132355931Y-51983693D01*
X132593757Y-52031000D01*
X132836243Y-52031000D01*
X133074069Y-51983693D01*
X133298097Y-51890898D01*
X133499717Y-51756180D01*
X133671180Y-51584717D01*
X133805898Y-51383097D01*
X133898693Y-51159069D01*
X133946000Y-50921243D01*
X133946000Y-50678757D01*
X134024000Y-50678757D01*
X134024000Y-50921243D01*
X134071307Y-51159069D01*
X134164102Y-51383097D01*
X134298820Y-51584717D01*
X134470283Y-51756180D01*
X134671903Y-51890898D01*
X134895931Y-51983693D01*
X135133757Y-52031000D01*
X135376243Y-52031000D01*
X135614069Y-51983693D01*
X135838097Y-51890898D01*
X136039717Y-51756180D01*
X136211180Y-51584717D01*
X136345898Y-51383097D01*
X136438693Y-51159069D01*
X136486000Y-50921243D01*
X136486000Y-50678757D01*
X136438693Y-50440931D01*
X136345898Y-50216903D01*
X136211180Y-50015283D01*
X136039717Y-49843820D01*
X135838097Y-49709102D01*
X135614069Y-49616307D01*
X135376243Y-49569000D01*
X135133757Y-49569000D01*
X134895931Y-49616307D01*
X134671903Y-49709102D01*
X134470283Y-49843820D01*
X134298820Y-50015283D01*
X134164102Y-50216903D01*
X134071307Y-50440931D01*
X134024000Y-50678757D01*
X133946000Y-50678757D01*
X133898693Y-50440931D01*
X133805898Y-50216903D01*
X133671180Y-50015283D01*
X133499717Y-49843820D01*
X133298097Y-49709102D01*
X133074069Y-49616307D01*
X132836243Y-49569000D01*
X132593757Y-49569000D01*
X132355931Y-49616307D01*
X132131903Y-49709102D01*
X131930283Y-49843820D01*
X131758820Y-50015283D01*
X131624102Y-50216903D01*
X131531307Y-50440931D01*
X131484000Y-50678757D01*
X127758000Y-50678757D01*
X127758000Y-48138757D01*
X131484000Y-48138757D01*
X131484000Y-48381243D01*
X131531307Y-48619069D01*
X131624102Y-48843097D01*
X131758820Y-49044717D01*
X131930283Y-49216180D01*
X132131903Y-49350898D01*
X132355931Y-49443693D01*
X132593757Y-49491000D01*
X132836243Y-49491000D01*
X133074069Y-49443693D01*
X133298097Y-49350898D01*
X133499717Y-49216180D01*
X133671180Y-49044717D01*
X133805898Y-48843097D01*
X133898693Y-48619069D01*
X133907065Y-48576980D01*
X134065511Y-48576980D01*
X134089866Y-48657288D01*
X134189761Y-48876961D01*
X134330592Y-49072924D01*
X134506948Y-49237647D01*
X134712051Y-49364799D01*
X134938019Y-49449495D01*
X135128000Y-49389187D01*
X135128000Y-48387000D01*
X135382000Y-48387000D01*
X135382000Y-49389187D01*
X135571981Y-49449495D01*
X135797949Y-49364799D01*
X136003052Y-49237647D01*
X136179408Y-49072924D01*
X136320239Y-48876961D01*
X136420134Y-48657288D01*
X136444489Y-48576980D01*
X136383627Y-48387000D01*
X135382000Y-48387000D01*
X135128000Y-48387000D01*
X134126373Y-48387000D01*
X134065511Y-48576980D01*
X133907065Y-48576980D01*
X133946000Y-48381243D01*
X133946000Y-48138757D01*
X133907066Y-47943020D01*
X134065511Y-47943020D01*
X134126373Y-48133000D01*
X135128000Y-48133000D01*
X135128000Y-47130813D01*
X134938019Y-47070505D01*
X134712051Y-47155201D01*
X134506948Y-47282353D01*
X134330592Y-47447076D01*
X134189761Y-47643039D01*
X134089866Y-47862712D01*
X134065511Y-47943020D01*
X133907066Y-47943020D01*
X133898693Y-47900931D01*
X133805898Y-47676903D01*
X133671180Y-47475283D01*
X133499717Y-47303820D01*
X133298097Y-47169102D01*
X133074069Y-47076307D01*
X132836243Y-47029000D01*
X132593757Y-47029000D01*
X132355931Y-47076307D01*
X132131903Y-47169102D01*
X131930283Y-47303820D01*
X131758820Y-47475283D01*
X131624102Y-47676903D01*
X131531307Y-47900931D01*
X131484000Y-48138757D01*
X127758000Y-48138757D01*
X127758000Y-46616368D01*
X128775611Y-45598757D01*
X131484000Y-45598757D01*
X131484000Y-45841243D01*
X131531307Y-46079069D01*
X131624102Y-46303097D01*
X131758820Y-46504717D01*
X131930283Y-46676180D01*
X132131903Y-46810898D01*
X132355931Y-46903693D01*
X132593757Y-46951000D01*
X132836243Y-46951000D01*
X133074069Y-46903693D01*
X133298097Y-46810898D01*
X133499717Y-46676180D01*
X133671180Y-46504717D01*
X133805898Y-46303097D01*
X133898693Y-46079069D01*
X133946000Y-45841243D01*
X133946000Y-45598757D01*
X133898693Y-45360931D01*
X133805898Y-45136903D01*
X133671180Y-44935283D01*
X133499717Y-44763820D01*
X133298097Y-44629102D01*
X133074069Y-44536307D01*
X132836243Y-44489000D01*
X132593757Y-44489000D01*
X132355931Y-44536307D01*
X132131903Y-44629102D01*
X131930283Y-44763820D01*
X131758820Y-44935283D01*
X131624102Y-45136903D01*
X131531307Y-45360931D01*
X131484000Y-45598757D01*
X128775611Y-45598757D01*
X131482157Y-42892212D01*
X131482157Y-44030000D01*
X131489513Y-44104689D01*
X131511299Y-44176508D01*
X131546678Y-44242696D01*
X131594289Y-44300711D01*
X131652304Y-44348322D01*
X131718492Y-44383701D01*
X131790311Y-44405487D01*
X131865000Y-44412843D01*
X133565000Y-44412843D01*
X133639689Y-44405487D01*
X133711508Y-44383701D01*
X133777696Y-44348322D01*
X133835711Y-44300711D01*
X133883322Y-44242696D01*
X133918701Y-44176508D01*
X133940487Y-44104689D01*
X133947843Y-44030000D01*
X133947843Y-42839526D01*
X134145460Y-42641909D01*
X134071307Y-42820931D01*
X134024000Y-43058757D01*
X134024000Y-43301243D01*
X134071307Y-43539069D01*
X134164102Y-43763097D01*
X134298820Y-43964717D01*
X134470283Y-44136180D01*
X134624000Y-44238891D01*
X134624001Y-44661109D01*
X134470283Y-44763820D01*
X134298820Y-44935283D01*
X134164102Y-45136903D01*
X134071307Y-45360931D01*
X134024000Y-45598757D01*
X134024000Y-45841243D01*
X134071307Y-46079069D01*
X134164102Y-46303097D01*
X134298820Y-46504717D01*
X134470283Y-46676180D01*
X134671903Y-46810898D01*
X134895931Y-46903693D01*
X135133757Y-46951000D01*
X135376243Y-46951000D01*
X135557564Y-46914933D01*
X135797763Y-47155131D01*
X135571981Y-47070505D01*
X135382000Y-47130813D01*
X135382000Y-48133000D01*
X136383627Y-48133000D01*
X136444489Y-47943020D01*
X136420134Y-47862712D01*
X136349069Y-47706437D01*
X138749989Y-50107358D01*
X138749989Y-58659397D01*
X136406758Y-56316167D01*
X136438693Y-56239069D01*
X136486000Y-56001243D01*
X136486000Y-55758757D01*
X136438693Y-55520931D01*
X136345898Y-55296903D01*
X136211180Y-55095283D01*
X136039717Y-54923820D01*
X135838097Y-54789102D01*
X135614069Y-54696307D01*
X135376243Y-54649000D01*
X135133757Y-54649000D01*
X134895931Y-54696307D01*
X134671903Y-54789102D01*
X134470283Y-54923820D01*
X134298820Y-55095283D01*
X134164102Y-55296903D01*
X134071307Y-55520931D01*
X134024000Y-55758757D01*
X134024000Y-56001243D01*
X134071307Y-56239069D01*
X134164102Y-56463097D01*
X134298820Y-56664717D01*
X134470283Y-56836180D01*
X134671903Y-56970898D01*
X134895931Y-57063693D01*
X135133757Y-57111000D01*
X135376243Y-57111000D01*
X135614069Y-57063693D01*
X135691167Y-57031758D01*
X138299978Y-59640570D01*
X138299978Y-63289386D01*
X136406758Y-61396167D01*
X136438693Y-61319069D01*
X136486000Y-61081243D01*
X136486000Y-60838757D01*
X136438693Y-60600931D01*
X136345898Y-60376903D01*
X136211180Y-60175283D01*
X136039717Y-60003820D01*
X135838097Y-59869102D01*
X135614069Y-59776307D01*
X135376243Y-59729000D01*
X135133757Y-59729000D01*
X134895931Y-59776307D01*
X134671903Y-59869102D01*
X134470283Y-60003820D01*
X134298820Y-60175283D01*
X134164102Y-60376903D01*
X134071307Y-60600931D01*
X134024000Y-60838757D01*
X134024000Y-61081243D01*
X134071307Y-61319069D01*
X134164102Y-61543097D01*
X134298820Y-61744717D01*
X134470283Y-61916180D01*
X134671903Y-62050898D01*
X134895931Y-62143693D01*
X135133757Y-62191000D01*
X135376243Y-62191000D01*
X135614069Y-62143693D01*
X135691167Y-62111758D01*
X137849967Y-64270559D01*
X137849967Y-72973975D01*
X136830777Y-71954786D01*
X136814928Y-71935474D01*
X136737880Y-71872242D01*
X136705557Y-71854965D01*
X136406758Y-71556167D01*
X136438693Y-71479069D01*
X136486000Y-71241243D01*
X136486000Y-70998757D01*
X136438693Y-70760931D01*
X136345898Y-70536903D01*
X136211180Y-70335283D01*
X136039717Y-70163820D01*
X135838097Y-70029102D01*
X135614069Y-69936307D01*
X135376243Y-69889000D01*
X135133757Y-69889000D01*
X134895931Y-69936307D01*
X134671903Y-70029102D01*
X134470283Y-70163820D01*
X134298820Y-70335283D01*
X134164102Y-70536903D01*
X134071307Y-70760931D01*
X134024000Y-70998757D01*
X134024000Y-71241243D01*
X134071307Y-71479069D01*
X134164102Y-71703097D01*
X134298820Y-71904717D01*
X134470283Y-72076180D01*
X134671903Y-72210898D01*
X134895931Y-72303693D01*
X135133757Y-72351000D01*
X135376243Y-72351000D01*
X135614069Y-72303693D01*
X135691167Y-72271758D01*
X136054629Y-72635221D01*
X136070474Y-72654528D01*
X136147522Y-72717760D01*
X136179847Y-72735038D01*
X137162000Y-73717192D01*
X137162000Y-74851408D01*
X136406758Y-74096167D01*
X136438693Y-74019069D01*
X136486000Y-73781243D01*
X136486000Y-73538757D01*
X136438693Y-73300931D01*
X136345898Y-73076903D01*
X136211180Y-72875283D01*
X136039717Y-72703820D01*
X135838097Y-72569102D01*
X135614069Y-72476307D01*
X135376243Y-72429000D01*
X135133757Y-72429000D01*
X134895931Y-72476307D01*
X134671903Y-72569102D01*
X134470283Y-72703820D01*
X134298820Y-72875283D01*
X134164102Y-73076903D01*
X134071307Y-73300931D01*
X134024000Y-73538757D01*
X134024000Y-73781243D01*
X134071307Y-74019069D01*
X134164102Y-74243097D01*
X134298820Y-74444717D01*
X134470283Y-74616180D01*
X134671903Y-74750898D01*
X134895931Y-74843693D01*
X135133757Y-74891000D01*
X135376243Y-74891000D01*
X135614069Y-74843693D01*
X135691167Y-74811758D01*
X136654000Y-75774592D01*
X136654000Y-81963409D01*
X136406758Y-81716167D01*
X136438693Y-81639069D01*
X136486000Y-81401243D01*
X136486000Y-81158757D01*
X136438693Y-80920931D01*
X136345898Y-80696903D01*
X136211180Y-80495283D01*
X136039717Y-80323820D01*
X135838097Y-80189102D01*
X135614069Y-80096307D01*
X135376243Y-80049000D01*
X135133757Y-80049000D01*
X134895931Y-80096307D01*
X134671903Y-80189102D01*
X134470283Y-80323820D01*
X134298820Y-80495283D01*
X134164102Y-80696903D01*
X134071307Y-80920931D01*
X134024000Y-81158757D01*
X134024000Y-81401243D01*
X134071307Y-81639069D01*
X134164102Y-81863097D01*
X134298820Y-82064717D01*
X134470283Y-82236180D01*
X134671903Y-82370898D01*
X134895931Y-82463693D01*
X135133757Y-82511000D01*
X135376243Y-82511000D01*
X135614069Y-82463693D01*
X135691167Y-82431758D01*
X135924001Y-82664593D01*
X135924001Y-82786501D01*
X135838097Y-82729102D01*
X135614069Y-82636307D01*
X135376243Y-82589000D01*
X135133757Y-82589000D01*
X134895931Y-82636307D01*
X134671903Y-82729102D01*
X134470283Y-82863820D01*
X134298820Y-83035283D01*
X134164102Y-83236903D01*
X134071307Y-83460931D01*
X134024000Y-83698757D01*
X134024000Y-83941243D01*
X134071307Y-84179069D01*
X134164102Y-84403097D01*
X134298820Y-84604717D01*
X134470283Y-84776180D01*
X134671903Y-84910898D01*
X134895931Y-85003693D01*
X135133757Y-85051000D01*
X135376243Y-85051000D01*
X135614069Y-85003693D01*
X135838097Y-84910898D01*
X135924001Y-84853499D01*
X135924002Y-85326502D01*
X135838097Y-85269102D01*
X135614069Y-85176307D01*
X135376243Y-85129000D01*
X135133757Y-85129000D01*
X134895931Y-85176307D01*
X134818833Y-85208242D01*
X134780375Y-85169784D01*
X134780371Y-85169779D01*
X134360376Y-84749785D01*
X134344527Y-84730473D01*
X134267479Y-84667241D01*
X134179575Y-84620255D01*
X134084193Y-84591322D01*
X134009854Y-84584000D01*
X134009846Y-84584000D01*
X133985000Y-84581553D01*
X133960154Y-84584000D01*
X133685023Y-84584000D01*
X133805898Y-84403097D01*
X133898693Y-84179069D01*
X133946000Y-83941243D01*
X133946000Y-83698757D01*
X133898693Y-83460931D01*
X133805898Y-83236903D01*
X133671180Y-83035283D01*
X133499717Y-82863820D01*
X133298097Y-82729102D01*
X133074069Y-82636307D01*
X132836243Y-82589000D01*
X132593757Y-82589000D01*
X132355931Y-82636307D01*
X132131903Y-82729102D01*
X131930283Y-82863820D01*
X131758820Y-83035283D01*
X131624102Y-83236903D01*
X131531307Y-83460931D01*
X131484000Y-83698757D01*
X131484000Y-83941243D01*
X131531307Y-84179069D01*
X131624102Y-84403097D01*
X131744977Y-84584000D01*
X131393645Y-84584000D01*
X131368799Y-84581553D01*
X131343953Y-84584000D01*
X131343946Y-84584000D01*
X131269607Y-84591322D01*
X131174225Y-84620255D01*
X131086321Y-84667241D01*
X131009273Y-84730473D01*
X130993428Y-84749780D01*
X126975126Y-88768083D01*
X126955819Y-88783928D01*
X126892587Y-88860976D01*
X126867472Y-88907963D01*
X126845600Y-88948881D01*
X126816667Y-89044263D01*
X126806898Y-89143455D01*
X126809346Y-89168311D01*
X126809345Y-148500910D01*
X126806898Y-148525756D01*
X126809345Y-148550602D01*
X126809345Y-148550609D01*
X126816667Y-148624948D01*
X126845600Y-148720330D01*
X126892586Y-148808235D01*
X126955818Y-148885283D01*
X126975130Y-148901132D01*
X129544217Y-151470220D01*
X129560062Y-151489527D01*
X129637110Y-151552759D01*
X129725014Y-151599745D01*
X129820395Y-151628678D01*
X129830283Y-151629652D01*
X129894735Y-151636000D01*
X129894742Y-151636000D01*
X129919588Y-151638447D01*
X129944434Y-151636000D01*
X131592168Y-151636000D01*
X131624102Y-151713097D01*
X131758820Y-151914717D01*
X131930283Y-152086180D01*
X132131903Y-152220898D01*
X132355931Y-152313693D01*
X132593757Y-152361000D01*
X132836243Y-152361000D01*
X133074069Y-152313693D01*
X133298097Y-152220898D01*
X133499717Y-152086180D01*
X133671180Y-151914717D01*
X133805898Y-151713097D01*
X133898693Y-151489069D01*
X133946000Y-151251243D01*
X133946000Y-151008757D01*
X134024000Y-151008757D01*
X134024000Y-151251243D01*
X134071307Y-151489069D01*
X134164102Y-151713097D01*
X134298820Y-151914717D01*
X134470283Y-152086180D01*
X134671903Y-152220898D01*
X134895931Y-152313693D01*
X135133757Y-152361000D01*
X135376243Y-152361000D01*
X135614069Y-152313693D01*
X135838097Y-152220898D01*
X136039717Y-152086180D01*
X136211180Y-151914717D01*
X136345898Y-151713097D01*
X136438693Y-151489069D01*
X136486000Y-151251243D01*
X136486000Y-151008757D01*
X136438693Y-150770931D01*
X136345898Y-150546903D01*
X136211180Y-150345283D01*
X136039717Y-150173820D01*
X135838097Y-150039102D01*
X135614069Y-149946307D01*
X135376243Y-149899000D01*
X135133757Y-149899000D01*
X134895931Y-149946307D01*
X134671903Y-150039102D01*
X134470283Y-150173820D01*
X134298820Y-150345283D01*
X134164102Y-150546903D01*
X134071307Y-150770931D01*
X134024000Y-151008757D01*
X133946000Y-151008757D01*
X133898693Y-150770931D01*
X133805898Y-150546903D01*
X133671180Y-150345283D01*
X133499717Y-150173820D01*
X133298097Y-150039102D01*
X133074069Y-149946307D01*
X132836243Y-149899000D01*
X132593757Y-149899000D01*
X132355931Y-149946307D01*
X132131903Y-150039102D01*
X131930283Y-150173820D01*
X131758820Y-150345283D01*
X131624102Y-150546903D01*
X131592168Y-150624000D01*
X130129181Y-150624000D01*
X127973938Y-148468757D01*
X131484000Y-148468757D01*
X131484000Y-148711243D01*
X131531307Y-148949069D01*
X131624102Y-149173097D01*
X131758820Y-149374717D01*
X131930283Y-149546180D01*
X132131903Y-149680898D01*
X132355931Y-149773693D01*
X132593757Y-149821000D01*
X132836243Y-149821000D01*
X133074069Y-149773693D01*
X133298097Y-149680898D01*
X133499717Y-149546180D01*
X133671180Y-149374717D01*
X133805898Y-149173097D01*
X133898693Y-148949069D01*
X133946000Y-148711243D01*
X133946000Y-148468757D01*
X134024000Y-148468757D01*
X134024000Y-148711243D01*
X134071307Y-148949069D01*
X134164102Y-149173097D01*
X134298820Y-149374717D01*
X134470283Y-149546180D01*
X134671903Y-149680898D01*
X134895931Y-149773693D01*
X135133757Y-149821000D01*
X135376243Y-149821000D01*
X135614069Y-149773693D01*
X135838097Y-149680898D01*
X136039717Y-149546180D01*
X136211180Y-149374717D01*
X136345898Y-149173097D01*
X136438693Y-148949069D01*
X136486000Y-148711243D01*
X136486000Y-148468757D01*
X136438693Y-148230931D01*
X136345898Y-148006903D01*
X136211180Y-147805283D01*
X136039717Y-147633820D01*
X135838097Y-147499102D01*
X135614069Y-147406307D01*
X135376243Y-147359000D01*
X135133757Y-147359000D01*
X134895931Y-147406307D01*
X134671903Y-147499102D01*
X134470283Y-147633820D01*
X134298820Y-147805283D01*
X134164102Y-148006903D01*
X134071307Y-148230931D01*
X134024000Y-148468757D01*
X133946000Y-148468757D01*
X133898693Y-148230931D01*
X133805898Y-148006903D01*
X133671180Y-147805283D01*
X133499717Y-147633820D01*
X133298097Y-147499102D01*
X133074069Y-147406307D01*
X132836243Y-147359000D01*
X132593757Y-147359000D01*
X132355931Y-147406307D01*
X132131903Y-147499102D01*
X131930283Y-147633820D01*
X131758820Y-147805283D01*
X131624102Y-148006903D01*
X131531307Y-148230931D01*
X131484000Y-148468757D01*
X127973938Y-148468757D01*
X127821345Y-148316165D01*
X127821345Y-141871936D01*
X131524779Y-145575371D01*
X131524784Y-145575375D01*
X131563242Y-145613833D01*
X131531307Y-145690931D01*
X131484000Y-145928757D01*
X131484000Y-146171243D01*
X131531307Y-146409069D01*
X131624102Y-146633097D01*
X131758820Y-146834717D01*
X131930283Y-147006180D01*
X132131903Y-147140898D01*
X132355931Y-147233693D01*
X132593757Y-147281000D01*
X132836243Y-147281000D01*
X133074069Y-147233693D01*
X133298097Y-147140898D01*
X133499717Y-147006180D01*
X133671180Y-146834717D01*
X133805898Y-146633097D01*
X133898693Y-146409069D01*
X133946000Y-146171243D01*
X133946000Y-145928757D01*
X134024000Y-145928757D01*
X134024000Y-146171243D01*
X134071307Y-146409069D01*
X134164102Y-146633097D01*
X134298820Y-146834717D01*
X134470283Y-147006180D01*
X134671903Y-147140898D01*
X134895931Y-147233693D01*
X135133757Y-147281000D01*
X135376243Y-147281000D01*
X135614069Y-147233693D01*
X135838097Y-147140898D01*
X136039717Y-147006180D01*
X136211180Y-146834717D01*
X136345898Y-146633097D01*
X136438693Y-146409069D01*
X136486000Y-146171243D01*
X136486000Y-145928757D01*
X136438693Y-145690931D01*
X136345898Y-145466903D01*
X136211180Y-145265283D01*
X136039717Y-145093820D01*
X135838097Y-144959102D01*
X135614069Y-144866307D01*
X135376243Y-144819000D01*
X135133757Y-144819000D01*
X134895931Y-144866307D01*
X134671903Y-144959102D01*
X134470283Y-145093820D01*
X134298820Y-145265283D01*
X134164102Y-145466903D01*
X134071307Y-145690931D01*
X134024000Y-145928757D01*
X133946000Y-145928757D01*
X133898693Y-145690931D01*
X133805898Y-145466903D01*
X133671180Y-145265283D01*
X133499717Y-145093820D01*
X133298097Y-144959102D01*
X133074069Y-144866307D01*
X132836243Y-144819000D01*
X132593757Y-144819000D01*
X132355931Y-144866307D01*
X132278833Y-144898242D01*
X132240375Y-144859784D01*
X132240371Y-144859779D01*
X130769349Y-143388757D01*
X131484000Y-143388757D01*
X131484000Y-143631243D01*
X131531307Y-143869069D01*
X131624102Y-144093097D01*
X131758820Y-144294717D01*
X131930283Y-144466180D01*
X132131903Y-144600898D01*
X132355931Y-144693693D01*
X132593757Y-144741000D01*
X132836243Y-144741000D01*
X133074069Y-144693693D01*
X133298097Y-144600898D01*
X133499717Y-144466180D01*
X133671180Y-144294717D01*
X133805898Y-144093097D01*
X133898693Y-143869069D01*
X133946000Y-143631243D01*
X133946000Y-143388757D01*
X134024000Y-143388757D01*
X134024000Y-143631243D01*
X134071307Y-143869069D01*
X134164102Y-144093097D01*
X134298820Y-144294717D01*
X134470283Y-144466180D01*
X134671903Y-144600898D01*
X134895931Y-144693693D01*
X135133757Y-144741000D01*
X135376243Y-144741000D01*
X135614069Y-144693693D01*
X135838097Y-144600898D01*
X136039717Y-144466180D01*
X136211180Y-144294717D01*
X136345898Y-144093097D01*
X136438693Y-143869069D01*
X136486000Y-143631243D01*
X136486000Y-143388757D01*
X136438693Y-143150931D01*
X136345898Y-142926903D01*
X136211180Y-142725283D01*
X136039717Y-142553820D01*
X135838097Y-142419102D01*
X135614069Y-142326307D01*
X135376243Y-142279000D01*
X135133757Y-142279000D01*
X134895931Y-142326307D01*
X134671903Y-142419102D01*
X134470283Y-142553820D01*
X134298820Y-142725283D01*
X134164102Y-142926903D01*
X134071307Y-143150931D01*
X134024000Y-143388757D01*
X133946000Y-143388757D01*
X133898693Y-143150931D01*
X133805898Y-142926903D01*
X133671180Y-142725283D01*
X133499717Y-142553820D01*
X133298097Y-142419102D01*
X133074069Y-142326307D01*
X132836243Y-142279000D01*
X132593757Y-142279000D01*
X132355931Y-142326307D01*
X132131903Y-142419102D01*
X131930283Y-142553820D01*
X131758820Y-142725283D01*
X131624102Y-142926903D01*
X131531307Y-143150931D01*
X131484000Y-143388757D01*
X130769349Y-143388757D01*
X128376791Y-140996200D01*
X128376791Y-140848757D01*
X131484000Y-140848757D01*
X131484000Y-141091243D01*
X131531307Y-141329069D01*
X131624102Y-141553097D01*
X131758820Y-141754717D01*
X131930283Y-141926180D01*
X132131903Y-142060898D01*
X132355931Y-142153693D01*
X132593757Y-142201000D01*
X132836243Y-142201000D01*
X133074069Y-142153693D01*
X133298097Y-142060898D01*
X133499717Y-141926180D01*
X133671180Y-141754717D01*
X133805898Y-141553097D01*
X133898693Y-141329069D01*
X133946000Y-141091243D01*
X133946000Y-140848757D01*
X134024000Y-140848757D01*
X134024000Y-141091243D01*
X134071307Y-141329069D01*
X134164102Y-141553097D01*
X134298820Y-141754717D01*
X134470283Y-141926180D01*
X134671903Y-142060898D01*
X134895931Y-142153693D01*
X135133757Y-142201000D01*
X135376243Y-142201000D01*
X135614069Y-142153693D01*
X135838097Y-142060898D01*
X136039717Y-141926180D01*
X136211180Y-141754717D01*
X136345898Y-141553097D01*
X136438693Y-141329069D01*
X136486000Y-141091243D01*
X136486000Y-140848757D01*
X136438693Y-140610931D01*
X136345898Y-140386903D01*
X136211180Y-140185283D01*
X136039717Y-140013820D01*
X135838097Y-139879102D01*
X135614069Y-139786307D01*
X135376243Y-139739000D01*
X135133757Y-139739000D01*
X134895931Y-139786307D01*
X134671903Y-139879102D01*
X134470283Y-140013820D01*
X134298820Y-140185283D01*
X134164102Y-140386903D01*
X134071307Y-140610931D01*
X134024000Y-140848757D01*
X133946000Y-140848757D01*
X133898693Y-140610931D01*
X133805898Y-140386903D01*
X133671180Y-140185283D01*
X133499717Y-140013820D01*
X133298097Y-139879102D01*
X133074069Y-139786307D01*
X132836243Y-139739000D01*
X132593757Y-139739000D01*
X132355931Y-139786307D01*
X132131903Y-139879102D01*
X131930283Y-140013820D01*
X131758820Y-140185283D01*
X131624102Y-140386903D01*
X131531307Y-140610931D01*
X131484000Y-140848757D01*
X128376791Y-140848757D01*
X128376791Y-134807382D01*
X131563242Y-137993833D01*
X131531307Y-138070931D01*
X131484000Y-138308757D01*
X131484000Y-138551243D01*
X131531307Y-138789069D01*
X131624102Y-139013097D01*
X131758820Y-139214717D01*
X131930283Y-139386180D01*
X132131903Y-139520898D01*
X132355931Y-139613693D01*
X132593757Y-139661000D01*
X132836243Y-139661000D01*
X133074069Y-139613693D01*
X133298097Y-139520898D01*
X133499717Y-139386180D01*
X133671180Y-139214717D01*
X133805898Y-139013097D01*
X133898693Y-138789069D01*
X133907065Y-138746980D01*
X134065511Y-138746980D01*
X134089866Y-138827288D01*
X134189761Y-139046961D01*
X134330592Y-139242924D01*
X134506948Y-139407647D01*
X134712051Y-139534799D01*
X134938019Y-139619495D01*
X135128000Y-139559187D01*
X135128000Y-138557000D01*
X135382000Y-138557000D01*
X135382000Y-139559187D01*
X135571981Y-139619495D01*
X135797949Y-139534799D01*
X136003052Y-139407647D01*
X136179408Y-139242924D01*
X136320239Y-139046961D01*
X136420134Y-138827288D01*
X136444489Y-138746980D01*
X136383627Y-138557000D01*
X135382000Y-138557000D01*
X135128000Y-138557000D01*
X134126373Y-138557000D01*
X134065511Y-138746980D01*
X133907065Y-138746980D01*
X133946000Y-138551243D01*
X133946000Y-138308757D01*
X133907066Y-138113020D01*
X134065511Y-138113020D01*
X134126373Y-138303000D01*
X135128000Y-138303000D01*
X135128000Y-137300813D01*
X135382000Y-137300813D01*
X135382000Y-138303000D01*
X136383627Y-138303000D01*
X136444489Y-138113020D01*
X136420134Y-138032712D01*
X136320239Y-137813039D01*
X136179408Y-137617076D01*
X136003052Y-137452353D01*
X135797949Y-137325201D01*
X135571981Y-137240505D01*
X135382000Y-137300813D01*
X135128000Y-137300813D01*
X134938019Y-137240505D01*
X134712051Y-137325201D01*
X134506948Y-137452353D01*
X134330592Y-137617076D01*
X134189761Y-137813039D01*
X134089866Y-138032712D01*
X134065511Y-138113020D01*
X133907066Y-138113020D01*
X133898693Y-138070931D01*
X133805898Y-137846903D01*
X133671180Y-137645283D01*
X133499717Y-137473820D01*
X133298097Y-137339102D01*
X133074069Y-137246307D01*
X132836243Y-137199000D01*
X132593757Y-137199000D01*
X132355931Y-137246307D01*
X132278833Y-137278242D01*
X129062589Y-134061998D01*
X129062589Y-132953180D01*
X131563242Y-135453833D01*
X131531307Y-135530931D01*
X131484000Y-135768757D01*
X131484000Y-136011243D01*
X131531307Y-136249069D01*
X131624102Y-136473097D01*
X131758820Y-136674717D01*
X131930283Y-136846180D01*
X132131903Y-136980898D01*
X132355931Y-137073693D01*
X132593757Y-137121000D01*
X132836243Y-137121000D01*
X133074069Y-137073693D01*
X133298097Y-136980898D01*
X133499717Y-136846180D01*
X133671180Y-136674717D01*
X133805898Y-136473097D01*
X133898693Y-136249069D01*
X133946000Y-136011243D01*
X133946000Y-135768757D01*
X134024000Y-135768757D01*
X134024000Y-136011243D01*
X134071307Y-136249069D01*
X134164102Y-136473097D01*
X134298820Y-136674717D01*
X134470283Y-136846180D01*
X134671903Y-136980898D01*
X134895931Y-137073693D01*
X135133757Y-137121000D01*
X135376243Y-137121000D01*
X135614069Y-137073693D01*
X135838097Y-136980898D01*
X136039717Y-136846180D01*
X136211180Y-136674717D01*
X136345898Y-136473097D01*
X136438693Y-136249069D01*
X136486000Y-136011243D01*
X136486000Y-135768757D01*
X136438693Y-135530931D01*
X136345898Y-135306903D01*
X136211180Y-135105283D01*
X136039717Y-134933820D01*
X135838097Y-134799102D01*
X135614069Y-134706307D01*
X135376243Y-134659000D01*
X135133757Y-134659000D01*
X134895931Y-134706307D01*
X134671903Y-134799102D01*
X134470283Y-134933820D01*
X134298820Y-135105283D01*
X134164102Y-135306903D01*
X134071307Y-135530931D01*
X134024000Y-135768757D01*
X133946000Y-135768757D01*
X133898693Y-135530931D01*
X133805898Y-135306903D01*
X133671180Y-135105283D01*
X133499717Y-134933820D01*
X133298097Y-134799102D01*
X133074069Y-134706307D01*
X132836243Y-134659000D01*
X132593757Y-134659000D01*
X132355931Y-134706307D01*
X132278833Y-134738242D01*
X130769348Y-133228757D01*
X131484000Y-133228757D01*
X131484000Y-133471243D01*
X131531307Y-133709069D01*
X131624102Y-133933097D01*
X131758820Y-134134717D01*
X131930283Y-134306180D01*
X132131903Y-134440898D01*
X132355931Y-134533693D01*
X132593757Y-134581000D01*
X132836243Y-134581000D01*
X133074069Y-134533693D01*
X133298097Y-134440898D01*
X133499717Y-134306180D01*
X133671180Y-134134717D01*
X133805898Y-133933097D01*
X133898693Y-133709069D01*
X133946000Y-133471243D01*
X133946000Y-133228757D01*
X134024000Y-133228757D01*
X134024000Y-133471243D01*
X134071307Y-133709069D01*
X134164102Y-133933097D01*
X134298820Y-134134717D01*
X134470283Y-134306180D01*
X134671903Y-134440898D01*
X134895931Y-134533693D01*
X135133757Y-134581000D01*
X135376243Y-134581000D01*
X135614069Y-134533693D01*
X135838097Y-134440898D01*
X136039717Y-134306180D01*
X136211180Y-134134717D01*
X136345898Y-133933097D01*
X136438693Y-133709069D01*
X136486000Y-133471243D01*
X136486000Y-133228757D01*
X136438693Y-132990931D01*
X136345898Y-132766903D01*
X136211180Y-132565283D01*
X136039717Y-132393820D01*
X135838097Y-132259102D01*
X135614069Y-132166307D01*
X135376243Y-132119000D01*
X135133757Y-132119000D01*
X134895931Y-132166307D01*
X134671903Y-132259102D01*
X134470283Y-132393820D01*
X134298820Y-132565283D01*
X134164102Y-132766903D01*
X134071307Y-132990931D01*
X134024000Y-133228757D01*
X133946000Y-133228757D01*
X133898693Y-132990931D01*
X133805898Y-132766903D01*
X133671180Y-132565283D01*
X133499717Y-132393820D01*
X133298097Y-132259102D01*
X133074069Y-132166307D01*
X132836243Y-132119000D01*
X132593757Y-132119000D01*
X132355931Y-132166307D01*
X132131903Y-132259102D01*
X131930283Y-132393820D01*
X131758820Y-132565283D01*
X131624102Y-132766903D01*
X131531307Y-132990931D01*
X131484000Y-133228757D01*
X130769348Y-133228757D01*
X129690400Y-132149809D01*
X129690400Y-131126980D01*
X131525511Y-131126980D01*
X131549866Y-131207288D01*
X131649761Y-131426961D01*
X131790592Y-131622924D01*
X131966948Y-131787647D01*
X132172051Y-131914799D01*
X132398019Y-131999495D01*
X132588000Y-131939187D01*
X132588000Y-130937000D01*
X132842000Y-130937000D01*
X132842000Y-131939187D01*
X133031981Y-131999495D01*
X133257949Y-131914799D01*
X133463052Y-131787647D01*
X133639408Y-131622924D01*
X133780239Y-131426961D01*
X133880134Y-131207288D01*
X133904489Y-131126980D01*
X133843627Y-130937000D01*
X132842000Y-130937000D01*
X132588000Y-130937000D01*
X131586373Y-130937000D01*
X131525511Y-131126980D01*
X129690400Y-131126980D01*
X129690400Y-130688757D01*
X134024000Y-130688757D01*
X134024000Y-130931243D01*
X134071307Y-131169069D01*
X134164102Y-131393097D01*
X134298820Y-131594717D01*
X134470283Y-131766180D01*
X134671903Y-131900898D01*
X134895931Y-131993693D01*
X135133757Y-132041000D01*
X135376243Y-132041000D01*
X135614069Y-131993693D01*
X135838097Y-131900898D01*
X136039717Y-131766180D01*
X136211180Y-131594717D01*
X136345898Y-131393097D01*
X136438693Y-131169069D01*
X136486000Y-130931243D01*
X136486000Y-130688757D01*
X136438693Y-130450931D01*
X136345898Y-130226903D01*
X136211180Y-130025283D01*
X136039717Y-129853820D01*
X135838097Y-129719102D01*
X135614069Y-129626307D01*
X135376243Y-129579000D01*
X135133757Y-129579000D01*
X134895931Y-129626307D01*
X134671903Y-129719102D01*
X134470283Y-129853820D01*
X134298820Y-130025283D01*
X134164102Y-130226903D01*
X134071307Y-130450931D01*
X134024000Y-130688757D01*
X129690400Y-130688757D01*
X129690400Y-130493020D01*
X131525511Y-130493020D01*
X131586373Y-130683000D01*
X132588000Y-130683000D01*
X132588000Y-129680813D01*
X132842000Y-129680813D01*
X132842000Y-130683000D01*
X133843627Y-130683000D01*
X133904489Y-130493020D01*
X133880134Y-130412712D01*
X133780239Y-130193039D01*
X133639408Y-129997076D01*
X133463052Y-129832353D01*
X133257949Y-129705201D01*
X133031981Y-129620505D01*
X132842000Y-129680813D01*
X132588000Y-129680813D01*
X132398019Y-129620505D01*
X132172051Y-129705201D01*
X131966948Y-129832353D01*
X131790592Y-129997076D01*
X131649761Y-130193039D01*
X131549866Y-130412712D01*
X131525511Y-130493020D01*
X129690400Y-130493020D01*
X129690400Y-128148757D01*
X131484000Y-128148757D01*
X131484000Y-128391243D01*
X131531307Y-128629069D01*
X131624102Y-128853097D01*
X131758820Y-129054717D01*
X131930283Y-129226180D01*
X132131903Y-129360898D01*
X132355931Y-129453693D01*
X132593757Y-129501000D01*
X132836243Y-129501000D01*
X133074069Y-129453693D01*
X133298097Y-129360898D01*
X133499717Y-129226180D01*
X133671180Y-129054717D01*
X133805898Y-128853097D01*
X133898693Y-128629069D01*
X133946000Y-128391243D01*
X133946000Y-128148757D01*
X133898693Y-127910931D01*
X133805898Y-127686903D01*
X133671180Y-127485283D01*
X133499717Y-127313820D01*
X133298097Y-127179102D01*
X133074069Y-127086307D01*
X132836243Y-127039000D01*
X132593757Y-127039000D01*
X132355931Y-127086307D01*
X132131903Y-127179102D01*
X131930283Y-127313820D01*
X131758820Y-127485283D01*
X131624102Y-127686903D01*
X131531307Y-127910931D01*
X131484000Y-128148757D01*
X129690400Y-128148757D01*
X129690400Y-95281791D01*
X131502192Y-93470000D01*
X136195354Y-93470000D01*
X136220200Y-93472447D01*
X136245046Y-93470000D01*
X136245054Y-93470000D01*
X136319393Y-93462678D01*
X136414775Y-93433745D01*
X136502679Y-93386759D01*
X136579727Y-93323527D01*
X136595576Y-93304215D01*
X137849966Y-92049826D01*
X137849966Y-97760271D01*
X129961781Y-105648457D01*
X129942474Y-105664302D01*
X129879242Y-105741350D01*
X129868622Y-105761219D01*
X129832255Y-105829255D01*
X129803322Y-105924637D01*
X129793553Y-106023829D01*
X129796001Y-106048685D01*
X129796000Y-123292154D01*
X129793553Y-123317000D01*
X129796000Y-123341846D01*
X129796000Y-123341853D01*
X129803322Y-123416192D01*
X129832255Y-123511574D01*
X129879241Y-123599479D01*
X129942473Y-123676527D01*
X129961785Y-123692376D01*
X131563242Y-125293833D01*
X131531307Y-125370931D01*
X131484000Y-125608757D01*
X131484000Y-125851243D01*
X131531307Y-126089069D01*
X131624102Y-126313097D01*
X131758820Y-126514717D01*
X131930283Y-126686180D01*
X132131903Y-126820898D01*
X132355931Y-126913693D01*
X132593757Y-126961000D01*
X132836243Y-126961000D01*
X133074069Y-126913693D01*
X133298097Y-126820898D01*
X133499717Y-126686180D01*
X133671180Y-126514717D01*
X133805898Y-126313097D01*
X133898693Y-126089069D01*
X133946000Y-125851243D01*
X133946000Y-125608757D01*
X134024000Y-125608757D01*
X134024000Y-125851243D01*
X134071307Y-126089069D01*
X134164102Y-126313097D01*
X134298820Y-126514717D01*
X134470283Y-126686180D01*
X134671903Y-126820898D01*
X134895931Y-126913693D01*
X135133757Y-126961000D01*
X135376243Y-126961000D01*
X135614069Y-126913693D01*
X135838097Y-126820898D01*
X136039717Y-126686180D01*
X136211180Y-126514717D01*
X136345898Y-126313097D01*
X136438693Y-126089069D01*
X136486000Y-125851243D01*
X136486000Y-125608757D01*
X136438693Y-125370931D01*
X136345898Y-125146903D01*
X136211180Y-124945283D01*
X136039717Y-124773820D01*
X135838097Y-124639102D01*
X135614069Y-124546307D01*
X135376243Y-124499000D01*
X135133757Y-124499000D01*
X134895931Y-124546307D01*
X134671903Y-124639102D01*
X134470283Y-124773820D01*
X134298820Y-124945283D01*
X134164102Y-125146903D01*
X134071307Y-125370931D01*
X134024000Y-125608757D01*
X133946000Y-125608757D01*
X133898693Y-125370931D01*
X133805898Y-125146903D01*
X133671180Y-124945283D01*
X133499717Y-124773820D01*
X133298097Y-124639102D01*
X133074069Y-124546307D01*
X132836243Y-124499000D01*
X132593757Y-124499000D01*
X132355931Y-124546307D01*
X132278833Y-124578242D01*
X131207571Y-123506980D01*
X131525511Y-123506980D01*
X131549866Y-123587288D01*
X131649761Y-123806961D01*
X131790592Y-124002924D01*
X131966948Y-124167647D01*
X132172051Y-124294799D01*
X132398019Y-124379495D01*
X132588000Y-124319187D01*
X132588000Y-123317000D01*
X132842000Y-123317000D01*
X132842000Y-124319187D01*
X133031981Y-124379495D01*
X133257949Y-124294799D01*
X133463052Y-124167647D01*
X133639408Y-124002924D01*
X133780239Y-123806961D01*
X133880134Y-123587288D01*
X133904489Y-123506980D01*
X133843627Y-123317000D01*
X132842000Y-123317000D01*
X132588000Y-123317000D01*
X131586373Y-123317000D01*
X131525511Y-123506980D01*
X131207571Y-123506980D01*
X130808000Y-123107409D01*
X130808000Y-123068757D01*
X134024000Y-123068757D01*
X134024000Y-123311243D01*
X134071307Y-123549069D01*
X134164102Y-123773097D01*
X134298820Y-123974717D01*
X134470283Y-124146180D01*
X134671903Y-124280898D01*
X134895931Y-124373693D01*
X135133757Y-124421000D01*
X135376243Y-124421000D01*
X135614069Y-124373693D01*
X135838097Y-124280898D01*
X136039717Y-124146180D01*
X136211180Y-123974717D01*
X136345898Y-123773097D01*
X136438693Y-123549069D01*
X136486000Y-123311243D01*
X136486000Y-123068757D01*
X136438693Y-122830931D01*
X136345898Y-122606903D01*
X136211180Y-122405283D01*
X136039717Y-122233820D01*
X135838097Y-122099102D01*
X135614069Y-122006307D01*
X135376243Y-121959000D01*
X135133757Y-121959000D01*
X134895931Y-122006307D01*
X134671903Y-122099102D01*
X134470283Y-122233820D01*
X134298820Y-122405283D01*
X134164102Y-122606903D01*
X134071307Y-122830931D01*
X134024000Y-123068757D01*
X130808000Y-123068757D01*
X130808000Y-122873020D01*
X131525511Y-122873020D01*
X131586373Y-123063000D01*
X132588000Y-123063000D01*
X132588000Y-122060813D01*
X132842000Y-122060813D01*
X132842000Y-123063000D01*
X133843627Y-123063000D01*
X133904489Y-122873020D01*
X133880134Y-122792712D01*
X133780239Y-122573039D01*
X133639408Y-122377076D01*
X133463052Y-122212353D01*
X133257949Y-122085201D01*
X133031981Y-122000505D01*
X132842000Y-122060813D01*
X132588000Y-122060813D01*
X132398019Y-122000505D01*
X132172051Y-122085201D01*
X131966948Y-122212353D01*
X131790592Y-122377076D01*
X131649761Y-122573039D01*
X131549866Y-122792712D01*
X131525511Y-122873020D01*
X130808000Y-122873020D01*
X130808000Y-119458591D01*
X131563242Y-120213833D01*
X131531307Y-120290931D01*
X131484000Y-120528757D01*
X131484000Y-120771243D01*
X131531307Y-121009069D01*
X131624102Y-121233097D01*
X131758820Y-121434717D01*
X131930283Y-121606180D01*
X132131903Y-121740898D01*
X132355931Y-121833693D01*
X132593757Y-121881000D01*
X132836243Y-121881000D01*
X133074069Y-121833693D01*
X133298097Y-121740898D01*
X133499717Y-121606180D01*
X133671180Y-121434717D01*
X133805898Y-121233097D01*
X133898693Y-121009069D01*
X133946000Y-120771243D01*
X133946000Y-120528757D01*
X134024000Y-120528757D01*
X134024000Y-120771243D01*
X134071307Y-121009069D01*
X134164102Y-121233097D01*
X134298820Y-121434717D01*
X134470283Y-121606180D01*
X134671903Y-121740898D01*
X134895931Y-121833693D01*
X135133757Y-121881000D01*
X135376243Y-121881000D01*
X135614069Y-121833693D01*
X135838097Y-121740898D01*
X136039717Y-121606180D01*
X136211180Y-121434717D01*
X136345898Y-121233097D01*
X136438693Y-121009069D01*
X136486000Y-120771243D01*
X136486000Y-120528757D01*
X136438693Y-120290931D01*
X136345898Y-120066903D01*
X136211180Y-119865283D01*
X136039717Y-119693820D01*
X135838097Y-119559102D01*
X135614069Y-119466307D01*
X135376243Y-119419000D01*
X135133757Y-119419000D01*
X134895931Y-119466307D01*
X134671903Y-119559102D01*
X134470283Y-119693820D01*
X134298820Y-119865283D01*
X134164102Y-120066903D01*
X134071307Y-120290931D01*
X134024000Y-120528757D01*
X133946000Y-120528757D01*
X133898693Y-120290931D01*
X133805898Y-120066903D01*
X133671180Y-119865283D01*
X133499717Y-119693820D01*
X133298097Y-119559102D01*
X133074069Y-119466307D01*
X132836243Y-119419000D01*
X132593757Y-119419000D01*
X132355931Y-119466307D01*
X132278833Y-119498242D01*
X131366800Y-118586209D01*
X131366800Y-117988757D01*
X131484000Y-117988757D01*
X131484000Y-118231243D01*
X131531307Y-118469069D01*
X131624102Y-118693097D01*
X131758820Y-118894717D01*
X131930283Y-119066180D01*
X132131903Y-119200898D01*
X132355931Y-119293693D01*
X132593757Y-119341000D01*
X132836243Y-119341000D01*
X133074069Y-119293693D01*
X133298097Y-119200898D01*
X133499717Y-119066180D01*
X133671180Y-118894717D01*
X133805898Y-118693097D01*
X133898693Y-118469069D01*
X133907065Y-118426980D01*
X134065511Y-118426980D01*
X134089866Y-118507288D01*
X134189761Y-118726961D01*
X134330592Y-118922924D01*
X134506948Y-119087647D01*
X134712051Y-119214799D01*
X134938019Y-119299495D01*
X135128000Y-119239187D01*
X135128000Y-118237000D01*
X135382000Y-118237000D01*
X135382000Y-119239187D01*
X135571981Y-119299495D01*
X135797949Y-119214799D01*
X136003052Y-119087647D01*
X136179408Y-118922924D01*
X136320239Y-118726961D01*
X136420134Y-118507288D01*
X136444489Y-118426980D01*
X136383627Y-118237000D01*
X135382000Y-118237000D01*
X135128000Y-118237000D01*
X134126373Y-118237000D01*
X134065511Y-118426980D01*
X133907065Y-118426980D01*
X133946000Y-118231243D01*
X133946000Y-117988757D01*
X133907066Y-117793020D01*
X134065511Y-117793020D01*
X134126373Y-117983000D01*
X135128000Y-117983000D01*
X135128000Y-116980813D01*
X135382000Y-116980813D01*
X135382000Y-117983000D01*
X136383627Y-117983000D01*
X136444489Y-117793020D01*
X136420134Y-117712712D01*
X136320239Y-117493039D01*
X136179408Y-117297076D01*
X136003052Y-117132353D01*
X135797949Y-117005201D01*
X135571981Y-116920505D01*
X135382000Y-116980813D01*
X135128000Y-116980813D01*
X134938019Y-116920505D01*
X134712051Y-117005201D01*
X134506948Y-117132353D01*
X134330592Y-117297076D01*
X134189761Y-117493039D01*
X134089866Y-117712712D01*
X134065511Y-117793020D01*
X133907066Y-117793020D01*
X133898693Y-117750931D01*
X133805898Y-117526903D01*
X133671180Y-117325283D01*
X133499717Y-117153820D01*
X133298097Y-117019102D01*
X133074069Y-116926307D01*
X132836243Y-116879000D01*
X132593757Y-116879000D01*
X132355931Y-116926307D01*
X132131903Y-117019102D01*
X131930283Y-117153820D01*
X131758820Y-117325283D01*
X131624102Y-117526903D01*
X131531307Y-117750931D01*
X131484000Y-117988757D01*
X131366800Y-117988757D01*
X131366800Y-115448757D01*
X131484000Y-115448757D01*
X131484000Y-115691243D01*
X131531307Y-115929069D01*
X131624102Y-116153097D01*
X131758820Y-116354717D01*
X131930283Y-116526180D01*
X132131903Y-116660898D01*
X132355931Y-116753693D01*
X132593757Y-116801000D01*
X132836243Y-116801000D01*
X133074069Y-116753693D01*
X133298097Y-116660898D01*
X133499717Y-116526180D01*
X133671180Y-116354717D01*
X133805898Y-116153097D01*
X133898693Y-115929069D01*
X133946000Y-115691243D01*
X133946000Y-115448757D01*
X134024000Y-115448757D01*
X134024000Y-115691243D01*
X134071307Y-115929069D01*
X134164102Y-116153097D01*
X134298820Y-116354717D01*
X134470283Y-116526180D01*
X134671903Y-116660898D01*
X134895931Y-116753693D01*
X135133757Y-116801000D01*
X135376243Y-116801000D01*
X135614069Y-116753693D01*
X135838097Y-116660898D01*
X136039717Y-116526180D01*
X136211180Y-116354717D01*
X136345898Y-116153097D01*
X136438693Y-115929069D01*
X136486000Y-115691243D01*
X136486000Y-115448757D01*
X136438693Y-115210931D01*
X136345898Y-114986903D01*
X136211180Y-114785283D01*
X136039717Y-114613820D01*
X135838097Y-114479102D01*
X135614069Y-114386307D01*
X135376243Y-114339000D01*
X135133757Y-114339000D01*
X134895931Y-114386307D01*
X134671903Y-114479102D01*
X134470283Y-114613820D01*
X134298820Y-114785283D01*
X134164102Y-114986903D01*
X134071307Y-115210931D01*
X134024000Y-115448757D01*
X133946000Y-115448757D01*
X133898693Y-115210931D01*
X133805898Y-114986903D01*
X133671180Y-114785283D01*
X133499717Y-114613820D01*
X133298097Y-114479102D01*
X133074069Y-114386307D01*
X132836243Y-114339000D01*
X132593757Y-114339000D01*
X132355931Y-114386307D01*
X132131903Y-114479102D01*
X131930283Y-114613820D01*
X131758820Y-114785283D01*
X131624102Y-114986903D01*
X131531307Y-115210931D01*
X131484000Y-115448757D01*
X131366800Y-115448757D01*
X131366800Y-113346980D01*
X131525511Y-113346980D01*
X131549866Y-113427288D01*
X131649761Y-113646961D01*
X131790592Y-113842924D01*
X131966948Y-114007647D01*
X132172051Y-114134799D01*
X132398019Y-114219495D01*
X132588000Y-114159187D01*
X132588000Y-113157000D01*
X132842000Y-113157000D01*
X132842000Y-114159187D01*
X133031981Y-114219495D01*
X133257949Y-114134799D01*
X133463052Y-114007647D01*
X133639408Y-113842924D01*
X133780239Y-113646961D01*
X133880134Y-113427288D01*
X133904489Y-113346980D01*
X133843627Y-113157000D01*
X132842000Y-113157000D01*
X132588000Y-113157000D01*
X131586373Y-113157000D01*
X131525511Y-113346980D01*
X131366800Y-113346980D01*
X131366800Y-112908757D01*
X134024000Y-112908757D01*
X134024000Y-113151243D01*
X134071307Y-113389069D01*
X134164102Y-113613097D01*
X134298820Y-113814717D01*
X134470283Y-113986180D01*
X134671903Y-114120898D01*
X134895931Y-114213693D01*
X135133757Y-114261000D01*
X135376243Y-114261000D01*
X135614069Y-114213693D01*
X135838097Y-114120898D01*
X136039717Y-113986180D01*
X136211180Y-113814717D01*
X136345898Y-113613097D01*
X136438693Y-113389069D01*
X136486000Y-113151243D01*
X136486000Y-112908757D01*
X136438693Y-112670931D01*
X136345898Y-112446903D01*
X136211180Y-112245283D01*
X136039717Y-112073820D01*
X135838097Y-111939102D01*
X135614069Y-111846307D01*
X135376243Y-111799000D01*
X135133757Y-111799000D01*
X134895931Y-111846307D01*
X134671903Y-111939102D01*
X134470283Y-112073820D01*
X134298820Y-112245283D01*
X134164102Y-112446903D01*
X134071307Y-112670931D01*
X134024000Y-112908757D01*
X131366800Y-112908757D01*
X131366800Y-112713020D01*
X131525511Y-112713020D01*
X131586373Y-112903000D01*
X132588000Y-112903000D01*
X132588000Y-111900813D01*
X132842000Y-111900813D01*
X132842000Y-112903000D01*
X133843627Y-112903000D01*
X133904489Y-112713020D01*
X133880134Y-112632712D01*
X133780239Y-112413039D01*
X133639408Y-112217076D01*
X133463052Y-112052353D01*
X133257949Y-111925201D01*
X133031981Y-111840505D01*
X132842000Y-111900813D01*
X132588000Y-111900813D01*
X132398019Y-111840505D01*
X132172051Y-111925201D01*
X131966948Y-112052353D01*
X131790592Y-112217076D01*
X131649761Y-112413039D01*
X131549866Y-112632712D01*
X131525511Y-112713020D01*
X131366800Y-112713020D01*
X131366800Y-106311031D01*
X138749988Y-98927844D01*
X138749988Y-101022643D01*
X133017564Y-106755067D01*
X132836243Y-106719000D01*
X132593757Y-106719000D01*
X132355931Y-106766307D01*
X132131903Y-106859102D01*
X131930283Y-106993820D01*
X131758820Y-107165283D01*
X131624102Y-107366903D01*
X131531307Y-107590931D01*
X131484000Y-107828757D01*
X131484000Y-108071243D01*
X131531307Y-108309069D01*
X131624102Y-108533097D01*
X131758820Y-108734717D01*
X131930283Y-108906180D01*
X132084000Y-109008891D01*
X132084001Y-109431109D01*
X131930283Y-109533820D01*
X131758820Y-109705283D01*
X131624102Y-109906903D01*
X131531307Y-110130931D01*
X131484000Y-110368757D01*
X131484000Y-110611243D01*
X131531307Y-110849069D01*
X131624102Y-111073097D01*
X131758820Y-111274717D01*
X131930283Y-111446180D01*
X132131903Y-111580898D01*
X132355931Y-111673693D01*
X132593757Y-111721000D01*
X132836243Y-111721000D01*
X133074069Y-111673693D01*
X133298097Y-111580898D01*
X133499717Y-111446180D01*
X133671180Y-111274717D01*
X133805898Y-111073097D01*
X133898693Y-110849069D01*
X133946000Y-110611243D01*
X133946000Y-110368757D01*
X133898693Y-110130931D01*
X133805898Y-109906903D01*
X133671180Y-109705283D01*
X133499717Y-109533820D01*
X133346000Y-109431110D01*
X133346000Y-109008890D01*
X133499717Y-108906180D01*
X133671180Y-108734717D01*
X133805898Y-108533097D01*
X133898693Y-108309069D01*
X133946000Y-108071243D01*
X133946000Y-107828757D01*
X133909933Y-107647436D01*
X134022157Y-107535211D01*
X134022157Y-108800000D01*
X134029513Y-108874689D01*
X134051299Y-108946508D01*
X134086678Y-109012696D01*
X134134289Y-109070711D01*
X134192304Y-109118322D01*
X134258492Y-109153701D01*
X134330311Y-109175487D01*
X134405000Y-109182843D01*
X135595475Y-109182843D01*
X135793092Y-109380461D01*
X135614069Y-109306307D01*
X135376243Y-109259000D01*
X135133757Y-109259000D01*
X134895931Y-109306307D01*
X134671903Y-109399102D01*
X134470283Y-109533820D01*
X134298820Y-109705283D01*
X134164102Y-109906903D01*
X134071307Y-110130931D01*
X134024000Y-110368757D01*
X134024000Y-110611243D01*
X134071307Y-110849069D01*
X134164102Y-111073097D01*
X134298820Y-111274717D01*
X134470283Y-111446180D01*
X134671903Y-111580898D01*
X134895931Y-111673693D01*
X135133757Y-111721000D01*
X135376243Y-111721000D01*
X135614069Y-111673693D01*
X135838097Y-111580898D01*
X136039717Y-111446180D01*
X136211180Y-111274717D01*
X136345898Y-111073097D01*
X136438693Y-110849069D01*
X136486000Y-110611243D01*
X136486000Y-110368757D01*
X136438693Y-110130931D01*
X136364540Y-109951908D01*
X138815000Y-112402369D01*
X138815001Y-127246630D01*
X138422632Y-127639000D01*
X136313890Y-127639000D01*
X136211180Y-127485283D01*
X136039717Y-127313820D01*
X135838097Y-127179102D01*
X135614069Y-127086307D01*
X135376243Y-127039000D01*
X135133757Y-127039000D01*
X134895931Y-127086307D01*
X134671903Y-127179102D01*
X134470283Y-127313820D01*
X134298820Y-127485283D01*
X134164102Y-127686903D01*
X134071307Y-127910931D01*
X134024000Y-128148757D01*
X134024000Y-128391243D01*
X134071307Y-128629069D01*
X134164102Y-128853097D01*
X134298820Y-129054717D01*
X134470283Y-129226180D01*
X134671903Y-129360898D01*
X134895931Y-129453693D01*
X135133757Y-129501000D01*
X135376243Y-129501000D01*
X135614069Y-129453693D01*
X135838097Y-129360898D01*
X136039717Y-129226180D01*
X136211180Y-129054717D01*
X136313890Y-128901000D01*
X138653010Y-128901000D01*
X138684000Y-128904052D01*
X138714990Y-128901000D01*
X138714998Y-128901000D01*
X138807698Y-128891870D01*
X138926642Y-128855789D01*
X139036261Y-128797196D01*
X139132343Y-128718343D01*
X139152105Y-128694263D01*
X139455125Y-128391243D01*
X139870268Y-127976101D01*
X139894343Y-127956343D01*
X139914103Y-127932265D01*
X140564000Y-127282369D01*
X140564000Y-155555146D01*
X140521449Y-155989115D01*
X140401181Y-156387464D01*
X140205831Y-156754862D01*
X139942845Y-157077315D01*
X139622226Y-157342554D01*
X139256204Y-157540461D01*
X138858708Y-157663506D01*
X138425863Y-157709000D01*
X128289854Y-157709000D01*
X127855885Y-157666449D01*
X127457536Y-157546181D01*
X127090138Y-157350831D01*
X126767685Y-157087845D01*
X126502446Y-156767226D01*
X126304539Y-156401204D01*
X126207821Y-156088757D01*
X131484000Y-156088757D01*
X131484000Y-156331243D01*
X131531307Y-156569069D01*
X131624102Y-156793097D01*
X131758820Y-156994717D01*
X131930283Y-157166180D01*
X132131903Y-157300898D01*
X132355931Y-157393693D01*
X132593757Y-157441000D01*
X132836243Y-157441000D01*
X133074069Y-157393693D01*
X133298097Y-157300898D01*
X133499717Y-157166180D01*
X133671180Y-156994717D01*
X133805898Y-156793097D01*
X133898693Y-156569069D01*
X133907065Y-156526980D01*
X134065511Y-156526980D01*
X134089866Y-156607288D01*
X134189761Y-156826961D01*
X134330592Y-157022924D01*
X134506948Y-157187647D01*
X134712051Y-157314799D01*
X134938019Y-157399495D01*
X135128000Y-157339187D01*
X135128000Y-156337000D01*
X135382000Y-156337000D01*
X135382000Y-157339187D01*
X135571981Y-157399495D01*
X135797949Y-157314799D01*
X136003052Y-157187647D01*
X136179408Y-157022924D01*
X136320239Y-156826961D01*
X136420134Y-156607288D01*
X136444489Y-156526980D01*
X136383627Y-156337000D01*
X135382000Y-156337000D01*
X135128000Y-156337000D01*
X134126373Y-156337000D01*
X134065511Y-156526980D01*
X133907065Y-156526980D01*
X133946000Y-156331243D01*
X133946000Y-156088757D01*
X133907066Y-155893020D01*
X134065511Y-155893020D01*
X134126373Y-156083000D01*
X135128000Y-156083000D01*
X135128000Y-155080813D01*
X135382000Y-155080813D01*
X135382000Y-156083000D01*
X136383627Y-156083000D01*
X136444489Y-155893020D01*
X136420134Y-155812712D01*
X136320239Y-155593039D01*
X136179408Y-155397076D01*
X136003052Y-155232353D01*
X135797949Y-155105201D01*
X135571981Y-155020505D01*
X135382000Y-155080813D01*
X135128000Y-155080813D01*
X134938019Y-155020505D01*
X134712051Y-155105201D01*
X134506948Y-155232353D01*
X134330592Y-155397076D01*
X134189761Y-155593039D01*
X134089866Y-155812712D01*
X134065511Y-155893020D01*
X133907066Y-155893020D01*
X133898693Y-155850931D01*
X133805898Y-155626903D01*
X133671180Y-155425283D01*
X133499717Y-155253820D01*
X133298097Y-155119102D01*
X133074069Y-155026307D01*
X132836243Y-154979000D01*
X132593757Y-154979000D01*
X132355931Y-155026307D01*
X132131903Y-155119102D01*
X131930283Y-155253820D01*
X131758820Y-155425283D01*
X131624102Y-155626903D01*
X131531307Y-155850931D01*
X131484000Y-156088757D01*
X126207821Y-156088757D01*
X126181494Y-156003708D01*
X126136000Y-155570863D01*
X126136000Y-153548757D01*
X131484000Y-153548757D01*
X131484000Y-153791243D01*
X131531307Y-154029069D01*
X131624102Y-154253097D01*
X131758820Y-154454717D01*
X131930283Y-154626180D01*
X132131903Y-154760898D01*
X132355931Y-154853693D01*
X132593757Y-154901000D01*
X132836243Y-154901000D01*
X133074069Y-154853693D01*
X133298097Y-154760898D01*
X133499717Y-154626180D01*
X133671180Y-154454717D01*
X133805898Y-154253097D01*
X133898693Y-154029069D01*
X133946000Y-153791243D01*
X133946000Y-153548757D01*
X134024000Y-153548757D01*
X134024000Y-153791243D01*
X134071307Y-154029069D01*
X134164102Y-154253097D01*
X134298820Y-154454717D01*
X134470283Y-154626180D01*
X134671903Y-154760898D01*
X134895931Y-154853693D01*
X135133757Y-154901000D01*
X135376243Y-154901000D01*
X135614069Y-154853693D01*
X135838097Y-154760898D01*
X136039717Y-154626180D01*
X136211180Y-154454717D01*
X136345898Y-154253097D01*
X136438693Y-154029069D01*
X136486000Y-153791243D01*
X136486000Y-153548757D01*
X136438693Y-153310931D01*
X136345898Y-153086903D01*
X136211180Y-152885283D01*
X136039717Y-152713820D01*
X135838097Y-152579102D01*
X135614069Y-152486307D01*
X135376243Y-152439000D01*
X135133757Y-152439000D01*
X134895931Y-152486307D01*
X134671903Y-152579102D01*
X134470283Y-152713820D01*
X134298820Y-152885283D01*
X134164102Y-153086903D01*
X134071307Y-153310931D01*
X134024000Y-153548757D01*
X133946000Y-153548757D01*
X133898693Y-153310931D01*
X133805898Y-153086903D01*
X133671180Y-152885283D01*
X133499717Y-152713820D01*
X133298097Y-152579102D01*
X133074069Y-152486307D01*
X132836243Y-152439000D01*
X132593757Y-152439000D01*
X132355931Y-152486307D01*
X132131903Y-152579102D01*
X131930283Y-152713820D01*
X131758820Y-152885283D01*
X131624102Y-153086903D01*
X131531307Y-153310931D01*
X131484000Y-153548757D01*
X126136000Y-153548757D01*
X126136000Y-81158757D01*
X131484000Y-81158757D01*
X131484000Y-81401243D01*
X131531307Y-81639069D01*
X131624102Y-81863097D01*
X131758820Y-82064717D01*
X131930283Y-82236180D01*
X132131903Y-82370898D01*
X132355931Y-82463693D01*
X132593757Y-82511000D01*
X132836243Y-82511000D01*
X133074069Y-82463693D01*
X133298097Y-82370898D01*
X133499717Y-82236180D01*
X133671180Y-82064717D01*
X133805898Y-81863097D01*
X133898693Y-81639069D01*
X133946000Y-81401243D01*
X133946000Y-81158757D01*
X133898693Y-80920931D01*
X133805898Y-80696903D01*
X133671180Y-80495283D01*
X133499717Y-80323820D01*
X133298097Y-80189102D01*
X133074069Y-80096307D01*
X132836243Y-80049000D01*
X132593757Y-80049000D01*
X132355931Y-80096307D01*
X132131903Y-80189102D01*
X131930283Y-80323820D01*
X131758820Y-80495283D01*
X131624102Y-80696903D01*
X131531307Y-80920931D01*
X131484000Y-81158757D01*
X126136000Y-81158757D01*
X126136000Y-78618757D01*
X131484000Y-78618757D01*
X131484000Y-78861243D01*
X131531307Y-79099069D01*
X131624102Y-79323097D01*
X131758820Y-79524717D01*
X131930283Y-79696180D01*
X132131903Y-79830898D01*
X132355931Y-79923693D01*
X132593757Y-79971000D01*
X132836243Y-79971000D01*
X133074069Y-79923693D01*
X133298097Y-79830898D01*
X133499717Y-79696180D01*
X133671180Y-79524717D01*
X133805898Y-79323097D01*
X133898693Y-79099069D01*
X133946000Y-78861243D01*
X133946000Y-78618757D01*
X134024000Y-78618757D01*
X134024000Y-78861243D01*
X134071307Y-79099069D01*
X134164102Y-79323097D01*
X134298820Y-79524717D01*
X134470283Y-79696180D01*
X134671903Y-79830898D01*
X134895931Y-79923693D01*
X135133757Y-79971000D01*
X135376243Y-79971000D01*
X135614069Y-79923693D01*
X135838097Y-79830898D01*
X136039717Y-79696180D01*
X136211180Y-79524717D01*
X136345898Y-79323097D01*
X136438693Y-79099069D01*
X136486000Y-78861243D01*
X136486000Y-78618757D01*
X136438693Y-78380931D01*
X136345898Y-78156903D01*
X136211180Y-77955283D01*
X136039717Y-77783820D01*
X135838097Y-77649102D01*
X135614069Y-77556307D01*
X135376243Y-77509000D01*
X135133757Y-77509000D01*
X134895931Y-77556307D01*
X134671903Y-77649102D01*
X134470283Y-77783820D01*
X134298820Y-77955283D01*
X134164102Y-78156903D01*
X134071307Y-78380931D01*
X134024000Y-78618757D01*
X133946000Y-78618757D01*
X133898693Y-78380931D01*
X133805898Y-78156903D01*
X133671180Y-77955283D01*
X133499717Y-77783820D01*
X133298097Y-77649102D01*
X133074069Y-77556307D01*
X132836243Y-77509000D01*
X132593757Y-77509000D01*
X132355931Y-77556307D01*
X132131903Y-77649102D01*
X131930283Y-77783820D01*
X131758820Y-77955283D01*
X131624102Y-78156903D01*
X131531307Y-78380931D01*
X131484000Y-78618757D01*
X126136000Y-78618757D01*
X126136000Y-76078757D01*
X131484000Y-76078757D01*
X131484000Y-76321243D01*
X131531307Y-76559069D01*
X131624102Y-76783097D01*
X131758820Y-76984717D01*
X131930283Y-77156180D01*
X132131903Y-77290898D01*
X132355931Y-77383693D01*
X132593757Y-77431000D01*
X132836243Y-77431000D01*
X133074069Y-77383693D01*
X133298097Y-77290898D01*
X133499717Y-77156180D01*
X133671180Y-76984717D01*
X133805898Y-76783097D01*
X133898693Y-76559069D01*
X133946000Y-76321243D01*
X133946000Y-76078757D01*
X134024000Y-76078757D01*
X134024000Y-76321243D01*
X134071307Y-76559069D01*
X134164102Y-76783097D01*
X134298820Y-76984717D01*
X134470283Y-77156180D01*
X134671903Y-77290898D01*
X134895931Y-77383693D01*
X135133757Y-77431000D01*
X135376243Y-77431000D01*
X135614069Y-77383693D01*
X135838097Y-77290898D01*
X136039717Y-77156180D01*
X136211180Y-76984717D01*
X136345898Y-76783097D01*
X136438693Y-76559069D01*
X136486000Y-76321243D01*
X136486000Y-76078757D01*
X136438693Y-75840931D01*
X136345898Y-75616903D01*
X136211180Y-75415283D01*
X136039717Y-75243820D01*
X135838097Y-75109102D01*
X135614069Y-75016307D01*
X135376243Y-74969000D01*
X135133757Y-74969000D01*
X134895931Y-75016307D01*
X134671903Y-75109102D01*
X134470283Y-75243820D01*
X134298820Y-75415283D01*
X134164102Y-75616903D01*
X134071307Y-75840931D01*
X134024000Y-76078757D01*
X133946000Y-76078757D01*
X133898693Y-75840931D01*
X133805898Y-75616903D01*
X133671180Y-75415283D01*
X133499717Y-75243820D01*
X133298097Y-75109102D01*
X133074069Y-75016307D01*
X132836243Y-74969000D01*
X132593757Y-74969000D01*
X132355931Y-75016307D01*
X132131903Y-75109102D01*
X131930283Y-75243820D01*
X131758820Y-75415283D01*
X131624102Y-75616903D01*
X131531307Y-75840931D01*
X131484000Y-76078757D01*
X126136000Y-76078757D01*
X126136000Y-73976980D01*
X131525511Y-73976980D01*
X131549866Y-74057288D01*
X131649761Y-74276961D01*
X131790592Y-74472924D01*
X131966948Y-74637647D01*
X132172051Y-74764799D01*
X132398019Y-74849495D01*
X132588000Y-74789187D01*
X132588000Y-73787000D01*
X132842000Y-73787000D01*
X132842000Y-74789187D01*
X133031981Y-74849495D01*
X133257949Y-74764799D01*
X133463052Y-74637647D01*
X133639408Y-74472924D01*
X133780239Y-74276961D01*
X133880134Y-74057288D01*
X133904489Y-73976980D01*
X133843627Y-73787000D01*
X132842000Y-73787000D01*
X132588000Y-73787000D01*
X131586373Y-73787000D01*
X131525511Y-73976980D01*
X126136000Y-73976980D01*
X126136000Y-73343020D01*
X131525511Y-73343020D01*
X131586373Y-73533000D01*
X132588000Y-73533000D01*
X132588000Y-72530813D01*
X132842000Y-72530813D01*
X132842000Y-73533000D01*
X133843627Y-73533000D01*
X133904489Y-73343020D01*
X133880134Y-73262712D01*
X133780239Y-73043039D01*
X133639408Y-72847076D01*
X133463052Y-72682353D01*
X133257949Y-72555201D01*
X133031981Y-72470505D01*
X132842000Y-72530813D01*
X132588000Y-72530813D01*
X132398019Y-72470505D01*
X132172051Y-72555201D01*
X131966948Y-72682353D01*
X131790592Y-72847076D01*
X131649761Y-73043039D01*
X131549866Y-73262712D01*
X131525511Y-73343020D01*
X126136000Y-73343020D01*
X126136000Y-70998757D01*
X131484000Y-70998757D01*
X131484000Y-71241243D01*
X131531307Y-71479069D01*
X131624102Y-71703097D01*
X131758820Y-71904717D01*
X131930283Y-72076180D01*
X132131903Y-72210898D01*
X132355931Y-72303693D01*
X132593757Y-72351000D01*
X132836243Y-72351000D01*
X133074069Y-72303693D01*
X133298097Y-72210898D01*
X133499717Y-72076180D01*
X133671180Y-71904717D01*
X133805898Y-71703097D01*
X133898693Y-71479069D01*
X133946000Y-71241243D01*
X133946000Y-70998757D01*
X133898693Y-70760931D01*
X133805898Y-70536903D01*
X133671180Y-70335283D01*
X133499717Y-70163820D01*
X133298097Y-70029102D01*
X133074069Y-69936307D01*
X132836243Y-69889000D01*
X132593757Y-69889000D01*
X132355931Y-69936307D01*
X132131903Y-70029102D01*
X131930283Y-70163820D01*
X131758820Y-70335283D01*
X131624102Y-70536903D01*
X131531307Y-70760931D01*
X131484000Y-70998757D01*
X126136000Y-70998757D01*
X126136000Y-68458757D01*
X131484000Y-68458757D01*
X131484000Y-68701243D01*
X131531307Y-68939069D01*
X131624102Y-69163097D01*
X131758820Y-69364717D01*
X131930283Y-69536180D01*
X132131903Y-69670898D01*
X132355931Y-69763693D01*
X132593757Y-69811000D01*
X132836243Y-69811000D01*
X133074069Y-69763693D01*
X133298097Y-69670898D01*
X133499717Y-69536180D01*
X133671180Y-69364717D01*
X133805898Y-69163097D01*
X133898693Y-68939069D01*
X133946000Y-68701243D01*
X133946000Y-68458757D01*
X134024000Y-68458757D01*
X134024000Y-68701243D01*
X134071307Y-68939069D01*
X134164102Y-69163097D01*
X134298820Y-69364717D01*
X134470283Y-69536180D01*
X134671903Y-69670898D01*
X134895931Y-69763693D01*
X135133757Y-69811000D01*
X135376243Y-69811000D01*
X135614069Y-69763693D01*
X135838097Y-69670898D01*
X136039717Y-69536180D01*
X136211180Y-69364717D01*
X136345898Y-69163097D01*
X136438693Y-68939069D01*
X136486000Y-68701243D01*
X136486000Y-68458757D01*
X136438693Y-68220931D01*
X136345898Y-67996903D01*
X136211180Y-67795283D01*
X136039717Y-67623820D01*
X135838097Y-67489102D01*
X135614069Y-67396307D01*
X135376243Y-67349000D01*
X135133757Y-67349000D01*
X134895931Y-67396307D01*
X134671903Y-67489102D01*
X134470283Y-67623820D01*
X134298820Y-67795283D01*
X134164102Y-67996903D01*
X134071307Y-68220931D01*
X134024000Y-68458757D01*
X133946000Y-68458757D01*
X133898693Y-68220931D01*
X133805898Y-67996903D01*
X133671180Y-67795283D01*
X133499717Y-67623820D01*
X133298097Y-67489102D01*
X133074069Y-67396307D01*
X132836243Y-67349000D01*
X132593757Y-67349000D01*
X132355931Y-67396307D01*
X132131903Y-67489102D01*
X131930283Y-67623820D01*
X131758820Y-67795283D01*
X131624102Y-67996903D01*
X131531307Y-68220931D01*
X131484000Y-68458757D01*
X126136000Y-68458757D01*
X126136000Y-65918757D01*
X131484000Y-65918757D01*
X131484000Y-66161243D01*
X131531307Y-66399069D01*
X131624102Y-66623097D01*
X131758820Y-66824717D01*
X131930283Y-66996180D01*
X132131903Y-67130898D01*
X132355931Y-67223693D01*
X132593757Y-67271000D01*
X132836243Y-67271000D01*
X133074069Y-67223693D01*
X133298097Y-67130898D01*
X133499717Y-66996180D01*
X133671180Y-66824717D01*
X133805898Y-66623097D01*
X133898693Y-66399069D01*
X133907065Y-66356980D01*
X134065511Y-66356980D01*
X134089866Y-66437288D01*
X134189761Y-66656961D01*
X134330592Y-66852924D01*
X134506948Y-67017647D01*
X134712051Y-67144799D01*
X134938019Y-67229495D01*
X135128000Y-67169187D01*
X135128000Y-66167000D01*
X135382000Y-66167000D01*
X135382000Y-67169187D01*
X135571981Y-67229495D01*
X135797949Y-67144799D01*
X136003052Y-67017647D01*
X136179408Y-66852924D01*
X136320239Y-66656961D01*
X136420134Y-66437288D01*
X136444489Y-66356980D01*
X136383627Y-66167000D01*
X135382000Y-66167000D01*
X135128000Y-66167000D01*
X134126373Y-66167000D01*
X134065511Y-66356980D01*
X133907065Y-66356980D01*
X133946000Y-66161243D01*
X133946000Y-65918757D01*
X133907066Y-65723020D01*
X134065511Y-65723020D01*
X134126373Y-65913000D01*
X135128000Y-65913000D01*
X135128000Y-64910813D01*
X135382000Y-64910813D01*
X135382000Y-65913000D01*
X136383627Y-65913000D01*
X136444489Y-65723020D01*
X136420134Y-65642712D01*
X136320239Y-65423039D01*
X136179408Y-65227076D01*
X136003052Y-65062353D01*
X135797949Y-64935201D01*
X135571981Y-64850505D01*
X135382000Y-64910813D01*
X135128000Y-64910813D01*
X134938019Y-64850505D01*
X134712051Y-64935201D01*
X134506948Y-65062353D01*
X134330592Y-65227076D01*
X134189761Y-65423039D01*
X134089866Y-65642712D01*
X134065511Y-65723020D01*
X133907066Y-65723020D01*
X133898693Y-65680931D01*
X133805898Y-65456903D01*
X133671180Y-65255283D01*
X133499717Y-65083820D01*
X133298097Y-64949102D01*
X133074069Y-64856307D01*
X132836243Y-64809000D01*
X132593757Y-64809000D01*
X132355931Y-64856307D01*
X132131903Y-64949102D01*
X131930283Y-65083820D01*
X131758820Y-65255283D01*
X131624102Y-65456903D01*
X131531307Y-65680931D01*
X131484000Y-65918757D01*
X126136000Y-65918757D01*
X126136000Y-37484853D01*
X126190644Y-36927546D01*
X126346732Y-36410560D01*
X126600262Y-35933738D01*
X126941581Y-35515240D01*
X127357686Y-35171008D01*
X127832724Y-34914155D01*
X128348605Y-34754464D01*
X128904813Y-34696004D01*
X128905834Y-34696000D01*
X137775147Y-34696000D01*
X138332454Y-34750644D01*
G37*
%TD.AperFunction*%
D16*
X139863990Y-111666621D02*
X136487843Y-108290475D01*
X136487843Y-107100000D01*
X136480487Y-107025311D01*
X136458701Y-106953492D01*
X136423322Y-106887304D01*
X136375711Y-106829289D01*
X136317696Y-106781678D01*
X136251508Y-106746299D01*
X136179689Y-106724513D01*
X136105000Y-106717157D01*
X134840211Y-106717157D01*
X139805257Y-101752112D01*
X139829331Y-101732355D01*
X139863990Y-101690123D01*
X139863990Y-111666621D01*
%TA.AperFunction,Conductor*%
D17*
G36*
X139863990Y-111666621D02*
G01*
X136487843Y-108290475D01*
X136487843Y-107100000D01*
X136480487Y-107025311D01*
X136458701Y-106953492D01*
X136423322Y-106887304D01*
X136375711Y-106829289D01*
X136317696Y-106781678D01*
X136251508Y-106746299D01*
X136179689Y-106724513D01*
X136105000Y-106717157D01*
X134840211Y-106717157D01*
X139805257Y-101752112D01*
X139829331Y-101732355D01*
X139863990Y-101690123D01*
X139863990Y-111666621D01*
G37*
%TD.AperFunction*%
D16*
X134164102Y-90856903D02*
X134071307Y-91080931D01*
X134024000Y-91318757D01*
X134024000Y-91561243D01*
X134071307Y-91799069D01*
X134164102Y-92023097D01*
X134298820Y-92224717D01*
X134470283Y-92396180D01*
X134562803Y-92458000D01*
X133397960Y-92458000D01*
X133463052Y-92417647D01*
X133639408Y-92252924D01*
X133780239Y-92056961D01*
X133880134Y-91837288D01*
X133904489Y-91756980D01*
X133843627Y-91567000D01*
X132842000Y-91567000D01*
X132842000Y-91587000D01*
X132588000Y-91587000D01*
X132588000Y-91567000D01*
X131586373Y-91567000D01*
X131525511Y-91756980D01*
X131549866Y-91837288D01*
X131649761Y-92056961D01*
X131790592Y-92252924D01*
X131966948Y-92417647D01*
X132032040Y-92458000D01*
X131317445Y-92458000D01*
X131292599Y-92455553D01*
X131267753Y-92458000D01*
X131267746Y-92458000D01*
X131193407Y-92465322D01*
X131098025Y-92494255D01*
X131010121Y-92541241D01*
X130933073Y-92604473D01*
X130917229Y-92623779D01*
X129062589Y-94478420D01*
X129062589Y-93547402D01*
X131542286Y-91067706D01*
X131525511Y-91123020D01*
X131586373Y-91313000D01*
X132588000Y-91313000D01*
X132588000Y-91293000D01*
X132842000Y-91293000D01*
X132842000Y-91313000D01*
X133843627Y-91313000D01*
X133904489Y-91123020D01*
X133880134Y-91042712D01*
X133780239Y-90823039D01*
X133674568Y-90676000D01*
X134284977Y-90676000D01*
X134164102Y-90856903D01*
%TA.AperFunction,Conductor*%
D17*
G36*
X134164102Y-90856903D02*
G01*
X134071307Y-91080931D01*
X134024000Y-91318757D01*
X134024000Y-91561243D01*
X134071307Y-91799069D01*
X134164102Y-92023097D01*
X134298820Y-92224717D01*
X134470283Y-92396180D01*
X134562803Y-92458000D01*
X133397960Y-92458000D01*
X133463052Y-92417647D01*
X133639408Y-92252924D01*
X133780239Y-92056961D01*
X133880134Y-91837288D01*
X133904489Y-91756980D01*
X133843627Y-91567000D01*
X132842000Y-91567000D01*
X132842000Y-91587000D01*
X132588000Y-91587000D01*
X132588000Y-91567000D01*
X131586373Y-91567000D01*
X131525511Y-91756980D01*
X131549866Y-91837288D01*
X131649761Y-92056961D01*
X131790592Y-92252924D01*
X131966948Y-92417647D01*
X132032040Y-92458000D01*
X131317445Y-92458000D01*
X131292599Y-92455553D01*
X131267753Y-92458000D01*
X131267746Y-92458000D01*
X131193407Y-92465322D01*
X131098025Y-92494255D01*
X131010121Y-92541241D01*
X130933073Y-92604473D01*
X130917229Y-92623779D01*
X129062589Y-94478420D01*
X129062589Y-93547402D01*
X131542286Y-91067706D01*
X131525511Y-91123020D01*
X131586373Y-91313000D01*
X132588000Y-91313000D01*
X132588000Y-91293000D01*
X132842000Y-91293000D01*
X132842000Y-91313000D01*
X133843627Y-91313000D01*
X133904489Y-91123020D01*
X133880134Y-91042712D01*
X133780239Y-90823039D01*
X133674568Y-90676000D01*
X134284977Y-90676000D01*
X134164102Y-90856903D01*
G37*
%TD.AperFunction*%
D16*
X139863991Y-44236360D02*
X139863991Y-49439878D01*
X139849091Y-49421722D01*
X139849089Y-49421720D01*
X139829331Y-49397645D01*
X139805256Y-49377887D01*
X136449933Y-46022564D01*
X136486000Y-45841243D01*
X136486000Y-45598757D01*
X136438693Y-45360931D01*
X136345898Y-45136903D01*
X136211180Y-44935283D01*
X136039717Y-44763820D01*
X135886000Y-44661110D01*
X135886000Y-44238890D01*
X136039717Y-44136180D01*
X136211180Y-43964717D01*
X136345898Y-43763097D01*
X136438693Y-43539069D01*
X136486000Y-43301243D01*
X136486000Y-43058757D01*
X136438693Y-42820931D01*
X136345898Y-42596903D01*
X136288499Y-42510999D01*
X138138631Y-42510999D01*
X139863991Y-44236360D01*
%TA.AperFunction,Conductor*%
D17*
G36*
X139863991Y-44236360D02*
G01*
X139863991Y-49439878D01*
X139849091Y-49421722D01*
X139849089Y-49421720D01*
X139829331Y-49397645D01*
X139805256Y-49377887D01*
X136449933Y-46022564D01*
X136486000Y-45841243D01*
X136486000Y-45598757D01*
X136438693Y-45360931D01*
X136345898Y-45136903D01*
X136211180Y-44935283D01*
X136039717Y-44763820D01*
X135886000Y-44661110D01*
X135886000Y-44238890D01*
X136039717Y-44136180D01*
X136211180Y-43964717D01*
X136345898Y-43763097D01*
X136438693Y-43539069D01*
X136486000Y-43301243D01*
X136486000Y-43058757D01*
X136438693Y-42820931D01*
X136345898Y-42596903D01*
X136288499Y-42510999D01*
X138138631Y-42510999D01*
X139863991Y-44236360D01*
G37*
%TD.AperFunction*%
%TD*%
M02*
