%TF.GenerationSoftware,KiCad,Pcbnew,(5.1.9)-1*%
%TF.CreationDate,2021-04-11T17:12:00+01:00*%
%TF.ProjectId,RGBtoHDMI-Adapter Type B v2,52474274-6f48-4444-9d49-2d4164617074,2*%
%TF.SameCoordinates,Original*%
%TF.FileFunction,Legend,Top*%
%TF.FilePolarity,Positive*%
%FSLAX46Y46*%
G04 Gerber Fmt 4.6, Leading zero omitted, Abs format (unit mm)*
G04 Created by KiCad (PCBNEW (5.1.9)-1) date 2021-04-11 17:12:00*
%MOMM*%
%LPD*%
G01*
G04 APERTURE LIST*
%ADD10C,0.150000*%
%ADD11C,0.120000*%
G04 APERTURE END LIST*
D10*
X127786000Y-63553571D02*
X128357428Y-63553571D01*
X128071714Y-63839285D02*
X128071714Y-63267857D01*
X128643142Y-63089285D02*
X129107428Y-63089285D01*
X128857428Y-63375000D01*
X128964571Y-63375000D01*
X129036000Y-63410714D01*
X129071714Y-63446428D01*
X129107428Y-63517857D01*
X129107428Y-63696428D01*
X129071714Y-63767857D01*
X129036000Y-63803571D01*
X128964571Y-63839285D01*
X128750285Y-63839285D01*
X128678857Y-63803571D01*
X128643142Y-63767857D01*
X129428857Y-63767857D02*
X129464571Y-63803571D01*
X129428857Y-63839285D01*
X129393142Y-63803571D01*
X129428857Y-63767857D01*
X129428857Y-63839285D01*
X129714571Y-63089285D02*
X130178857Y-63089285D01*
X129928857Y-63375000D01*
X130036000Y-63375000D01*
X130107428Y-63410714D01*
X130143142Y-63446428D01*
X130178857Y-63517857D01*
X130178857Y-63696428D01*
X130143142Y-63767857D01*
X130107428Y-63803571D01*
X130036000Y-63839285D01*
X129821714Y-63839285D01*
X129750285Y-63803571D01*
X129714571Y-63767857D01*
X130393142Y-63089285D02*
X130643142Y-63839285D01*
X130893142Y-63089285D01*
X127913000Y-43360571D02*
X128484428Y-43360571D01*
X128198714Y-43646285D02*
X128198714Y-43074857D01*
X128770142Y-42896285D02*
X129234428Y-42896285D01*
X128984428Y-43182000D01*
X129091571Y-43182000D01*
X129163000Y-43217714D01*
X129198714Y-43253428D01*
X129234428Y-43324857D01*
X129234428Y-43503428D01*
X129198714Y-43574857D01*
X129163000Y-43610571D01*
X129091571Y-43646285D01*
X128877285Y-43646285D01*
X128805857Y-43610571D01*
X128770142Y-43574857D01*
X129555857Y-43574857D02*
X129591571Y-43610571D01*
X129555857Y-43646285D01*
X129520142Y-43610571D01*
X129555857Y-43574857D01*
X129555857Y-43646285D01*
X129841571Y-42896285D02*
X130305857Y-42896285D01*
X130055857Y-43182000D01*
X130163000Y-43182000D01*
X130234428Y-43217714D01*
X130270142Y-43253428D01*
X130305857Y-43324857D01*
X130305857Y-43503428D01*
X130270142Y-43574857D01*
X130234428Y-43610571D01*
X130163000Y-43646285D01*
X129948714Y-43646285D01*
X129877285Y-43610571D01*
X129841571Y-43574857D01*
X130520142Y-42896285D02*
X130770142Y-43646285D01*
X131020142Y-42896285D01*
X137604571Y-58045000D02*
X137533142Y-58009285D01*
X137426000Y-58009285D01*
X137318857Y-58045000D01*
X137247428Y-58116428D01*
X137211714Y-58187857D01*
X137176000Y-58330714D01*
X137176000Y-58437857D01*
X137211714Y-58580714D01*
X137247428Y-58652142D01*
X137318857Y-58723571D01*
X137426000Y-58759285D01*
X137497428Y-58759285D01*
X137604571Y-58723571D01*
X137640285Y-58687857D01*
X137640285Y-58437857D01*
X137497428Y-58437857D01*
X137961714Y-58759285D02*
X137961714Y-58009285D01*
X138390285Y-58759285D01*
X138390285Y-58009285D01*
X138747428Y-58759285D02*
X138747428Y-58009285D01*
X138926000Y-58009285D01*
X139033142Y-58045000D01*
X139104571Y-58116428D01*
X139140285Y-58187857D01*
X139176000Y-58330714D01*
X139176000Y-58437857D01*
X139140285Y-58580714D01*
X139104571Y-58652142D01*
X139033142Y-58723571D01*
X138926000Y-58759285D01*
X138747428Y-58759285D01*
X137604571Y-65665000D02*
X137533142Y-65629285D01*
X137426000Y-65629285D01*
X137318857Y-65665000D01*
X137247428Y-65736428D01*
X137211714Y-65807857D01*
X137176000Y-65950714D01*
X137176000Y-66057857D01*
X137211714Y-66200714D01*
X137247428Y-66272142D01*
X137318857Y-66343571D01*
X137426000Y-66379285D01*
X137497428Y-66379285D01*
X137604571Y-66343571D01*
X137640285Y-66307857D01*
X137640285Y-66057857D01*
X137497428Y-66057857D01*
X137961714Y-66379285D02*
X137961714Y-65629285D01*
X138390285Y-66379285D01*
X138390285Y-65629285D01*
X138747428Y-66379285D02*
X138747428Y-65629285D01*
X138926000Y-65629285D01*
X139033142Y-65665000D01*
X139104571Y-65736428D01*
X139140285Y-65807857D01*
X139176000Y-65950714D01*
X139176000Y-66057857D01*
X139140285Y-66200714D01*
X139104571Y-66272142D01*
X139033142Y-66343571D01*
X138926000Y-66379285D01*
X138747428Y-66379285D01*
X129222571Y-73285000D02*
X129151142Y-73249285D01*
X129044000Y-73249285D01*
X128936857Y-73285000D01*
X128865428Y-73356428D01*
X128829714Y-73427857D01*
X128794000Y-73570714D01*
X128794000Y-73677857D01*
X128829714Y-73820714D01*
X128865428Y-73892142D01*
X128936857Y-73963571D01*
X129044000Y-73999285D01*
X129115428Y-73999285D01*
X129222571Y-73963571D01*
X129258285Y-73927857D01*
X129258285Y-73677857D01*
X129115428Y-73677857D01*
X129579714Y-73999285D02*
X129579714Y-73249285D01*
X130008285Y-73999285D01*
X130008285Y-73249285D01*
X130365428Y-73999285D02*
X130365428Y-73249285D01*
X130544000Y-73249285D01*
X130651142Y-73285000D01*
X130722571Y-73356428D01*
X130758285Y-73427857D01*
X130794000Y-73570714D01*
X130794000Y-73677857D01*
X130758285Y-73820714D01*
X130722571Y-73892142D01*
X130651142Y-73963571D01*
X130544000Y-73999285D01*
X130365428Y-73999285D01*
X129603571Y-91065000D02*
X129532142Y-91029285D01*
X129425000Y-91029285D01*
X129317857Y-91065000D01*
X129246428Y-91136428D01*
X129210714Y-91207857D01*
X129175000Y-91350714D01*
X129175000Y-91457857D01*
X129210714Y-91600714D01*
X129246428Y-91672142D01*
X129317857Y-91743571D01*
X129425000Y-91779285D01*
X129496428Y-91779285D01*
X129603571Y-91743571D01*
X129639285Y-91707857D01*
X129639285Y-91457857D01*
X129496428Y-91457857D01*
X129960714Y-91779285D02*
X129960714Y-91029285D01*
X130389285Y-91779285D01*
X130389285Y-91029285D01*
X130746428Y-91779285D02*
X130746428Y-91029285D01*
X130925000Y-91029285D01*
X131032142Y-91065000D01*
X131103571Y-91136428D01*
X131139285Y-91207857D01*
X131175000Y-91350714D01*
X131175000Y-91457857D01*
X131139285Y-91600714D01*
X131103571Y-91672142D01*
X131032142Y-91743571D01*
X130925000Y-91779285D01*
X130746428Y-91779285D01*
X137096571Y-155835000D02*
X137025142Y-155799285D01*
X136918000Y-155799285D01*
X136810857Y-155835000D01*
X136739428Y-155906428D01*
X136703714Y-155977857D01*
X136668000Y-156120714D01*
X136668000Y-156227857D01*
X136703714Y-156370714D01*
X136739428Y-156442142D01*
X136810857Y-156513571D01*
X136918000Y-156549285D01*
X136989428Y-156549285D01*
X137096571Y-156513571D01*
X137132285Y-156477857D01*
X137132285Y-156227857D01*
X136989428Y-156227857D01*
X137453714Y-156549285D02*
X137453714Y-155799285D01*
X137882285Y-156549285D01*
X137882285Y-155799285D01*
X138239428Y-156549285D02*
X138239428Y-155799285D01*
X138418000Y-155799285D01*
X138525142Y-155835000D01*
X138596571Y-155906428D01*
X138632285Y-155977857D01*
X138668000Y-156120714D01*
X138668000Y-156227857D01*
X138632285Y-156370714D01*
X138596571Y-156442142D01*
X138525142Y-156513571D01*
X138418000Y-156549285D01*
X138239428Y-156549285D01*
X137223571Y-138055000D02*
X137152142Y-138019285D01*
X137045000Y-138019285D01*
X136937857Y-138055000D01*
X136866428Y-138126428D01*
X136830714Y-138197857D01*
X136795000Y-138340714D01*
X136795000Y-138447857D01*
X136830714Y-138590714D01*
X136866428Y-138662142D01*
X136937857Y-138733571D01*
X137045000Y-138769285D01*
X137116428Y-138769285D01*
X137223571Y-138733571D01*
X137259285Y-138697857D01*
X137259285Y-138447857D01*
X137116428Y-138447857D01*
X137580714Y-138769285D02*
X137580714Y-138019285D01*
X138009285Y-138769285D01*
X138009285Y-138019285D01*
X138366428Y-138769285D02*
X138366428Y-138019285D01*
X138545000Y-138019285D01*
X138652142Y-138055000D01*
X138723571Y-138126428D01*
X138759285Y-138197857D01*
X138795000Y-138340714D01*
X138795000Y-138447857D01*
X138759285Y-138590714D01*
X138723571Y-138662142D01*
X138652142Y-138733571D01*
X138545000Y-138769285D01*
X138366428Y-138769285D01*
X129857571Y-130435000D02*
X129786142Y-130399285D01*
X129679000Y-130399285D01*
X129571857Y-130435000D01*
X129500428Y-130506428D01*
X129464714Y-130577857D01*
X129429000Y-130720714D01*
X129429000Y-130827857D01*
X129464714Y-130970714D01*
X129500428Y-131042142D01*
X129571857Y-131113571D01*
X129679000Y-131149285D01*
X129750428Y-131149285D01*
X129857571Y-131113571D01*
X129893285Y-131077857D01*
X129893285Y-130827857D01*
X129750428Y-130827857D01*
X130214714Y-131149285D02*
X130214714Y-130399285D01*
X130643285Y-131149285D01*
X130643285Y-130399285D01*
X131000428Y-131149285D02*
X131000428Y-130399285D01*
X131179000Y-130399285D01*
X131286142Y-130435000D01*
X131357571Y-130506428D01*
X131393285Y-130577857D01*
X131429000Y-130720714D01*
X131429000Y-130827857D01*
X131393285Y-130970714D01*
X131357571Y-131042142D01*
X131286142Y-131113571D01*
X131179000Y-131149285D01*
X131000428Y-131149285D01*
X129857571Y-122815000D02*
X129786142Y-122779285D01*
X129679000Y-122779285D01*
X129571857Y-122815000D01*
X129500428Y-122886428D01*
X129464714Y-122957857D01*
X129429000Y-123100714D01*
X129429000Y-123207857D01*
X129464714Y-123350714D01*
X129500428Y-123422142D01*
X129571857Y-123493571D01*
X129679000Y-123529285D01*
X129750428Y-123529285D01*
X129857571Y-123493571D01*
X129893285Y-123457857D01*
X129893285Y-123207857D01*
X129750428Y-123207857D01*
X130214714Y-123529285D02*
X130214714Y-122779285D01*
X130643285Y-123529285D01*
X130643285Y-122779285D01*
X131000428Y-123529285D02*
X131000428Y-122779285D01*
X131179000Y-122779285D01*
X131286142Y-122815000D01*
X131357571Y-122886428D01*
X131393285Y-122957857D01*
X131429000Y-123100714D01*
X131429000Y-123207857D01*
X131393285Y-123350714D01*
X131357571Y-123422142D01*
X131286142Y-123493571D01*
X131179000Y-123529285D01*
X131000428Y-123529285D01*
X136468000Y-107992857D02*
X136925142Y-107992857D01*
X136696571Y-108221428D02*
X136696571Y-107764285D01*
X137153714Y-107621428D02*
X137525142Y-107621428D01*
X137325142Y-107850000D01*
X137410857Y-107850000D01*
X137468000Y-107878571D01*
X137496571Y-107907142D01*
X137525142Y-107964285D01*
X137525142Y-108107142D01*
X137496571Y-108164285D01*
X137468000Y-108192857D01*
X137410857Y-108221428D01*
X137239428Y-108221428D01*
X137182285Y-108192857D01*
X137153714Y-108164285D01*
X137782285Y-108164285D02*
X137810857Y-108192857D01*
X137782285Y-108221428D01*
X137753714Y-108192857D01*
X137782285Y-108164285D01*
X137782285Y-108221428D01*
X138010857Y-107621428D02*
X138382285Y-107621428D01*
X138182285Y-107850000D01*
X138268000Y-107850000D01*
X138325142Y-107878571D01*
X138353714Y-107907142D01*
X138382285Y-107964285D01*
X138382285Y-108107142D01*
X138353714Y-108164285D01*
X138325142Y-108192857D01*
X138268000Y-108221428D01*
X138096571Y-108221428D01*
X138039428Y-108192857D01*
X138010857Y-108164285D01*
X138553714Y-107621428D02*
X138753714Y-108221428D01*
X138953714Y-107621428D01*
X137604571Y-48012000D02*
X137533142Y-47976285D01*
X137426000Y-47976285D01*
X137318857Y-48012000D01*
X137247428Y-48083428D01*
X137211714Y-48154857D01*
X137176000Y-48297714D01*
X137176000Y-48404857D01*
X137211714Y-48547714D01*
X137247428Y-48619142D01*
X137318857Y-48690571D01*
X137426000Y-48726285D01*
X137497428Y-48726285D01*
X137604571Y-48690571D01*
X137640285Y-48654857D01*
X137640285Y-48404857D01*
X137497428Y-48404857D01*
X137961714Y-48726285D02*
X137961714Y-47976285D01*
X138390285Y-48726285D01*
X138390285Y-47976285D01*
X138747428Y-48726285D02*
X138747428Y-47976285D01*
X138926000Y-47976285D01*
X139033142Y-48012000D01*
X139104571Y-48083428D01*
X139140285Y-48154857D01*
X139176000Y-48297714D01*
X139176000Y-48404857D01*
X139140285Y-48547714D01*
X139104571Y-48619142D01*
X139033142Y-48690571D01*
X138926000Y-48726285D01*
X138747428Y-48726285D01*
X137211714Y-45900571D02*
X137783142Y-45900571D01*
X137497428Y-46186285D02*
X137497428Y-45614857D01*
X138497428Y-45436285D02*
X138140285Y-45436285D01*
X138104571Y-45793428D01*
X138140285Y-45757714D01*
X138211714Y-45722000D01*
X138390285Y-45722000D01*
X138461714Y-45757714D01*
X138497428Y-45793428D01*
X138533142Y-45864857D01*
X138533142Y-46043428D01*
X138497428Y-46114857D01*
X138461714Y-46150571D01*
X138390285Y-46186285D01*
X138211714Y-46186285D01*
X138140285Y-46150571D01*
X138104571Y-46114857D01*
X138747428Y-45436285D02*
X138997428Y-46186285D01*
X139247428Y-45436285D01*
X137211714Y-43360571D02*
X137783142Y-43360571D01*
X137497428Y-43646285D02*
X137497428Y-43074857D01*
X138497428Y-42896285D02*
X138140285Y-42896285D01*
X138104571Y-43253428D01*
X138140285Y-43217714D01*
X138211714Y-43182000D01*
X138390285Y-43182000D01*
X138461714Y-43217714D01*
X138497428Y-43253428D01*
X138533142Y-43324857D01*
X138533142Y-43503428D01*
X138497428Y-43574857D01*
X138461714Y-43610571D01*
X138390285Y-43646285D01*
X138211714Y-43646285D01*
X138140285Y-43610571D01*
X138104571Y-43574857D01*
X138747428Y-42896285D02*
X138997428Y-43646285D01*
X139247428Y-42896285D01*
X137490285Y-55580000D02*
X137433142Y-55551428D01*
X137347428Y-55551428D01*
X137261714Y-55580000D01*
X137204571Y-55637142D01*
X137175999Y-55694285D01*
X137147428Y-55808571D01*
X137147428Y-55894285D01*
X137175999Y-56008571D01*
X137204571Y-56065714D01*
X137261714Y-56122857D01*
X137347428Y-56151428D01*
X137404571Y-56151428D01*
X137490285Y-56122857D01*
X137518856Y-56094285D01*
X137518856Y-55894285D01*
X137404571Y-55894285D01*
X137775999Y-56151428D02*
X137775999Y-55551428D01*
X138004571Y-55551428D01*
X138061714Y-55580000D01*
X138090285Y-55608571D01*
X138118856Y-55665714D01*
X138118856Y-55751428D01*
X138090285Y-55808571D01*
X138061714Y-55837142D01*
X138004571Y-55865714D01*
X137775999Y-55865714D01*
X138375999Y-56151428D02*
X138375999Y-55551428D01*
X138775999Y-55551428D02*
X138890285Y-55551428D01*
X138947428Y-55580000D01*
X139004571Y-55637142D01*
X139033142Y-55751428D01*
X139033142Y-55951428D01*
X139004571Y-56065714D01*
X138947428Y-56122857D01*
X138890285Y-56151428D01*
X138775999Y-56151428D01*
X138718856Y-56122857D01*
X138661714Y-56065714D01*
X138633142Y-55951428D01*
X138633142Y-55751428D01*
X138661714Y-55637142D01*
X138718856Y-55580000D01*
X138775999Y-55551428D01*
X139604571Y-56151428D02*
X139261714Y-56151428D01*
X139433142Y-56151428D02*
X139433142Y-55551428D01*
X139375999Y-55637142D01*
X139318856Y-55694285D01*
X139261714Y-55722857D01*
X139947428Y-55808571D02*
X139890285Y-55780000D01*
X139861714Y-55751428D01*
X139833142Y-55694285D01*
X139833142Y-55665714D01*
X139861714Y-55608571D01*
X139890285Y-55580000D01*
X139947428Y-55551428D01*
X140061714Y-55551428D01*
X140118856Y-55580000D01*
X140147428Y-55608571D01*
X140175999Y-55665714D01*
X140175999Y-55694285D01*
X140147428Y-55751428D01*
X140118856Y-55780000D01*
X140061714Y-55808571D01*
X139947428Y-55808571D01*
X139890285Y-55837142D01*
X139861714Y-55865714D01*
X139833142Y-55922857D01*
X139833142Y-56037142D01*
X139861714Y-56094285D01*
X139890285Y-56122857D01*
X139947428Y-56151428D01*
X140061714Y-56151428D01*
X140118856Y-56122857D01*
X140147428Y-56094285D01*
X140175999Y-56037142D01*
X140175999Y-55922857D01*
X140147428Y-55865714D01*
X140118856Y-55837142D01*
X140061714Y-55808571D01*
X137490285Y-86187000D02*
X137433142Y-86158428D01*
X137347428Y-86158428D01*
X137261714Y-86187000D01*
X137204571Y-86244142D01*
X137175999Y-86301285D01*
X137147428Y-86415571D01*
X137147428Y-86501285D01*
X137175999Y-86615571D01*
X137204571Y-86672714D01*
X137261714Y-86729857D01*
X137347428Y-86758428D01*
X137404571Y-86758428D01*
X137490285Y-86729857D01*
X137518856Y-86701285D01*
X137518856Y-86501285D01*
X137404571Y-86501285D01*
X137775999Y-86758428D02*
X137775999Y-86158428D01*
X138004571Y-86158428D01*
X138061714Y-86187000D01*
X138090285Y-86215571D01*
X138118856Y-86272714D01*
X138118856Y-86358428D01*
X138090285Y-86415571D01*
X138061714Y-86444142D01*
X138004571Y-86472714D01*
X137775999Y-86472714D01*
X138375999Y-86758428D02*
X138375999Y-86158428D01*
X138775999Y-86158428D02*
X138890285Y-86158428D01*
X138947428Y-86187000D01*
X139004571Y-86244142D01*
X139033142Y-86358428D01*
X139033142Y-86558428D01*
X139004571Y-86672714D01*
X138947428Y-86729857D01*
X138890285Y-86758428D01*
X138775999Y-86758428D01*
X138718856Y-86729857D01*
X138661714Y-86672714D01*
X138633142Y-86558428D01*
X138633142Y-86358428D01*
X138661714Y-86244142D01*
X138718856Y-86187000D01*
X138775999Y-86158428D01*
X139604571Y-86758428D02*
X139261714Y-86758428D01*
X139433142Y-86758428D02*
X139433142Y-86158428D01*
X139375999Y-86244142D01*
X139318856Y-86301285D01*
X139261714Y-86329857D01*
X140118856Y-86158428D02*
X140004571Y-86158428D01*
X139947428Y-86187000D01*
X139918856Y-86215571D01*
X139861714Y-86301285D01*
X139833142Y-86415571D01*
X139833142Y-86644142D01*
X139861714Y-86701285D01*
X139890285Y-86729857D01*
X139947428Y-86758428D01*
X140061714Y-86758428D01*
X140118856Y-86729857D01*
X140147428Y-86701285D01*
X140175999Y-86644142D01*
X140175999Y-86501285D01*
X140147428Y-86444142D01*
X140118856Y-86415571D01*
X140061714Y-86387000D01*
X139947428Y-86387000D01*
X139890285Y-86415571D01*
X139861714Y-86444142D01*
X139833142Y-86501285D01*
X137211714Y-61426285D02*
X137211714Y-60676285D01*
X137497428Y-60676285D01*
X137568857Y-60712000D01*
X137604571Y-60747714D01*
X137640285Y-60819142D01*
X137640285Y-60926285D01*
X137604571Y-60997714D01*
X137568857Y-61033428D01*
X137497428Y-61069142D01*
X137211714Y-61069142D01*
X137961714Y-61426285D02*
X137961714Y-60926285D01*
X137961714Y-60676285D02*
X137926000Y-60712000D01*
X137961714Y-60747714D01*
X137997428Y-60712000D01*
X137961714Y-60676285D01*
X137961714Y-60747714D01*
X138283143Y-61390571D02*
X138390285Y-61426285D01*
X138568857Y-61426285D01*
X138640285Y-61390571D01*
X138676000Y-61354857D01*
X138711714Y-61283428D01*
X138711714Y-61212000D01*
X138676000Y-61140571D01*
X138640285Y-61104857D01*
X138568857Y-61069142D01*
X138426000Y-61033428D01*
X138354571Y-60997714D01*
X138318857Y-60962000D01*
X138283143Y-60890571D01*
X138283143Y-60819142D01*
X138318857Y-60747714D01*
X138354571Y-60712000D01*
X138426000Y-60676285D01*
X138604571Y-60676285D01*
X138711714Y-60712000D01*
X139176000Y-61069142D02*
X139176000Y-61426285D01*
X138926000Y-60676285D02*
X139176000Y-61069142D01*
X139426000Y-60676285D01*
X139676000Y-61426285D02*
X139676000Y-60676285D01*
X140104571Y-61426285D01*
X140104571Y-60676285D01*
X140890285Y-61354857D02*
X140854571Y-61390571D01*
X140747428Y-61426285D01*
X140676000Y-61426285D01*
X140568857Y-61390571D01*
X140497428Y-61319142D01*
X140461714Y-61247714D01*
X140426000Y-61104857D01*
X140426000Y-60997714D01*
X140461714Y-60854857D01*
X140497428Y-60783428D01*
X140568857Y-60712000D01*
X140676000Y-60676285D01*
X140747428Y-60676285D01*
X140854571Y-60712000D01*
X140890285Y-60747714D01*
X137211714Y-71586285D02*
X137211714Y-70836285D01*
X137497428Y-70836285D01*
X137568857Y-70872000D01*
X137604571Y-70907714D01*
X137640285Y-70979142D01*
X137640285Y-71086285D01*
X137604571Y-71157714D01*
X137568857Y-71193428D01*
X137497428Y-71229142D01*
X137211714Y-71229142D01*
X137961714Y-71586285D02*
X137961714Y-71086285D01*
X137961714Y-70836285D02*
X137925999Y-70872000D01*
X137961714Y-70907714D01*
X137997428Y-70872000D01*
X137961714Y-70836285D01*
X137961714Y-70907714D01*
X138711714Y-70872000D02*
X138640285Y-70836285D01*
X138533142Y-70836285D01*
X138425999Y-70872000D01*
X138354571Y-70943428D01*
X138318857Y-71014857D01*
X138283142Y-71157714D01*
X138283142Y-71264857D01*
X138318857Y-71407714D01*
X138354571Y-71479142D01*
X138425999Y-71550571D01*
X138533142Y-71586285D01*
X138604571Y-71586285D01*
X138711714Y-71550571D01*
X138747428Y-71514857D01*
X138747428Y-71264857D01*
X138604571Y-71264857D01*
X139033142Y-70907714D02*
X139068857Y-70872000D01*
X139140285Y-70836285D01*
X139318857Y-70836285D01*
X139390285Y-70872000D01*
X139425999Y-70907714D01*
X139461714Y-70979142D01*
X139461714Y-71050571D01*
X139425999Y-71157714D01*
X138997428Y-71586285D01*
X139461714Y-71586285D01*
X137211714Y-74126285D02*
X137211714Y-73376285D01*
X137497428Y-73376285D01*
X137568857Y-73412000D01*
X137604571Y-73447714D01*
X137640285Y-73519142D01*
X137640285Y-73626285D01*
X137604571Y-73697714D01*
X137568857Y-73733428D01*
X137497428Y-73769142D01*
X137211714Y-73769142D01*
X137961714Y-74126285D02*
X137961714Y-73626285D01*
X137961714Y-73376285D02*
X137925999Y-73412000D01*
X137961714Y-73447714D01*
X137997428Y-73412000D01*
X137961714Y-73376285D01*
X137961714Y-73447714D01*
X138711714Y-73412000D02*
X138640285Y-73376285D01*
X138533142Y-73376285D01*
X138425999Y-73412000D01*
X138354571Y-73483428D01*
X138318857Y-73554857D01*
X138283142Y-73697714D01*
X138283142Y-73804857D01*
X138318857Y-73947714D01*
X138354571Y-74019142D01*
X138425999Y-74090571D01*
X138533142Y-74126285D01*
X138604571Y-74126285D01*
X138711714Y-74090571D01*
X138747428Y-74054857D01*
X138747428Y-73804857D01*
X138604571Y-73804857D01*
X139461714Y-74126285D02*
X139033142Y-74126285D01*
X139247428Y-74126285D02*
X139247428Y-73376285D01*
X139175999Y-73483428D01*
X139104571Y-73554857D01*
X139033142Y-73590571D01*
X137211714Y-81746285D02*
X137211714Y-80996285D01*
X137497428Y-80996285D01*
X137568857Y-81032000D01*
X137604571Y-81067714D01*
X137640285Y-81139142D01*
X137640285Y-81246285D01*
X137604571Y-81317714D01*
X137568857Y-81353428D01*
X137497428Y-81389142D01*
X137211714Y-81389142D01*
X137961714Y-81746285D02*
X137961714Y-81246285D01*
X137961714Y-80996285D02*
X137925999Y-81032000D01*
X137961714Y-81067714D01*
X137997428Y-81032000D01*
X137961714Y-80996285D01*
X137961714Y-81067714D01*
X138747428Y-81746285D02*
X138497428Y-81389142D01*
X138318857Y-81746285D02*
X138318857Y-80996285D01*
X138604571Y-80996285D01*
X138675999Y-81032000D01*
X138711714Y-81067714D01*
X138747428Y-81139142D01*
X138747428Y-81246285D01*
X138711714Y-81317714D01*
X138675999Y-81353428D01*
X138604571Y-81389142D01*
X138318857Y-81389142D01*
X139033142Y-81067714D02*
X139068857Y-81032000D01*
X139140285Y-80996285D01*
X139318857Y-80996285D01*
X139390285Y-81032000D01*
X139425999Y-81067714D01*
X139461714Y-81139142D01*
X139461714Y-81210571D01*
X139425999Y-81317714D01*
X138997428Y-81746285D01*
X139461714Y-81746285D01*
X128559857Y-46186285D02*
X128559857Y-45436285D01*
X128845571Y-45436285D01*
X128917000Y-45472000D01*
X128952714Y-45507714D01*
X128988428Y-45579142D01*
X128988428Y-45686285D01*
X128952714Y-45757714D01*
X128917000Y-45793428D01*
X128845571Y-45829142D01*
X128559857Y-45829142D01*
X129309857Y-46186285D02*
X129309857Y-45686285D01*
X129309857Y-45436285D02*
X129274142Y-45472000D01*
X129309857Y-45507714D01*
X129345571Y-45472000D01*
X129309857Y-45436285D01*
X129309857Y-45507714D01*
X129917000Y-45793428D02*
X130024142Y-45829142D01*
X130059857Y-45864857D01*
X130095571Y-45936285D01*
X130095571Y-46043428D01*
X130059857Y-46114857D01*
X130024142Y-46150571D01*
X129952714Y-46186285D01*
X129667000Y-46186285D01*
X129667000Y-45436285D01*
X129917000Y-45436285D01*
X129988428Y-45472000D01*
X130024142Y-45507714D01*
X130059857Y-45579142D01*
X130059857Y-45650571D01*
X130024142Y-45722000D01*
X129988428Y-45757714D01*
X129917000Y-45793428D01*
X129667000Y-45793428D01*
X130559857Y-45436285D02*
X130631285Y-45436285D01*
X130702714Y-45472000D01*
X130738428Y-45507714D01*
X130774142Y-45579142D01*
X130809857Y-45722000D01*
X130809857Y-45900571D01*
X130774142Y-46043428D01*
X130738428Y-46114857D01*
X130702714Y-46150571D01*
X130631285Y-46186285D01*
X130559857Y-46186285D01*
X130488428Y-46150571D01*
X130452714Y-46114857D01*
X130417000Y-46043428D01*
X130381285Y-45900571D01*
X130381285Y-45722000D01*
X130417000Y-45579142D01*
X130452714Y-45507714D01*
X130488428Y-45472000D01*
X130559857Y-45436285D01*
X128559857Y-48726285D02*
X128559857Y-47976285D01*
X128845571Y-47976285D01*
X128917000Y-48012000D01*
X128952714Y-48047714D01*
X128988428Y-48119142D01*
X128988428Y-48226285D01*
X128952714Y-48297714D01*
X128917000Y-48333428D01*
X128845571Y-48369142D01*
X128559857Y-48369142D01*
X129309857Y-48726285D02*
X129309857Y-48226285D01*
X129309857Y-47976285D02*
X129274142Y-48012000D01*
X129309857Y-48047714D01*
X129345571Y-48012000D01*
X129309857Y-47976285D01*
X129309857Y-48047714D01*
X129917000Y-48333428D02*
X130024142Y-48369142D01*
X130059857Y-48404857D01*
X130095571Y-48476285D01*
X130095571Y-48583428D01*
X130059857Y-48654857D01*
X130024142Y-48690571D01*
X129952714Y-48726285D01*
X129667000Y-48726285D01*
X129667000Y-47976285D01*
X129917000Y-47976285D01*
X129988428Y-48012000D01*
X130024142Y-48047714D01*
X130059857Y-48119142D01*
X130059857Y-48190571D01*
X130024142Y-48262000D01*
X129988428Y-48297714D01*
X129917000Y-48333428D01*
X129667000Y-48333428D01*
X130809857Y-48726285D02*
X130381285Y-48726285D01*
X130595571Y-48726285D02*
X130595571Y-47976285D01*
X130524142Y-48083428D01*
X130452714Y-48154857D01*
X130381285Y-48190571D01*
X127984428Y-56219285D02*
X127984428Y-55469285D01*
X128270142Y-55469285D01*
X128341571Y-55505000D01*
X128377285Y-55540714D01*
X128413000Y-55612142D01*
X128413000Y-55719285D01*
X128377285Y-55790714D01*
X128341571Y-55826428D01*
X128270142Y-55862142D01*
X127984428Y-55862142D01*
X128734428Y-56219285D02*
X128734428Y-55719285D01*
X128734428Y-55469285D02*
X128698714Y-55505000D01*
X128734428Y-55540714D01*
X128770142Y-55505000D01*
X128734428Y-55469285D01*
X128734428Y-55540714D01*
X129520142Y-56147857D02*
X129484428Y-56183571D01*
X129377285Y-56219285D01*
X129305857Y-56219285D01*
X129198714Y-56183571D01*
X129127285Y-56112142D01*
X129091571Y-56040714D01*
X129055857Y-55897857D01*
X129055857Y-55790714D01*
X129091571Y-55647857D01*
X129127285Y-55576428D01*
X129198714Y-55505000D01*
X129305857Y-55469285D01*
X129377285Y-55469285D01*
X129484428Y-55505000D01*
X129520142Y-55540714D01*
X130198714Y-56219285D02*
X129841571Y-56219285D01*
X129841571Y-55469285D01*
X130448714Y-56219285D02*
X130448714Y-55469285D01*
X130877285Y-56219285D02*
X130555857Y-55790714D01*
X130877285Y-55469285D02*
X130448714Y-55897857D01*
X129349571Y-52457000D02*
X129278142Y-52421285D01*
X129171000Y-52421285D01*
X129063857Y-52457000D01*
X128992428Y-52528428D01*
X128956714Y-52599857D01*
X128921000Y-52742714D01*
X128921000Y-52849857D01*
X128956714Y-52992714D01*
X128992428Y-53064142D01*
X129063857Y-53135571D01*
X129171000Y-53171285D01*
X129242428Y-53171285D01*
X129349571Y-53135571D01*
X129385285Y-53099857D01*
X129385285Y-52849857D01*
X129242428Y-52849857D01*
X129706714Y-53171285D02*
X129706714Y-52421285D01*
X130135285Y-53171285D01*
X130135285Y-52421285D01*
X130492428Y-53171285D02*
X130492428Y-52421285D01*
X130671000Y-52421285D01*
X130778142Y-52457000D01*
X130849571Y-52528428D01*
X130885285Y-52599857D01*
X130921000Y-52742714D01*
X130921000Y-52849857D01*
X130885285Y-52992714D01*
X130849571Y-53064142D01*
X130778142Y-53135571D01*
X130671000Y-53171285D01*
X130492428Y-53171285D01*
X128559857Y-51266285D02*
X128559857Y-50516285D01*
X128845571Y-50516285D01*
X128917000Y-50552000D01*
X128952714Y-50587714D01*
X128988428Y-50659142D01*
X128988428Y-50766285D01*
X128952714Y-50837714D01*
X128917000Y-50873428D01*
X128845571Y-50909142D01*
X128559857Y-50909142D01*
X129309857Y-51266285D02*
X129309857Y-50766285D01*
X129309857Y-50516285D02*
X129274142Y-50552000D01*
X129309857Y-50587714D01*
X129345571Y-50552000D01*
X129309857Y-50516285D01*
X129309857Y-50587714D01*
X129917000Y-50873428D02*
X130024142Y-50909142D01*
X130059857Y-50944857D01*
X130095571Y-51016285D01*
X130095571Y-51123428D01*
X130059857Y-51194857D01*
X130024142Y-51230571D01*
X129952714Y-51266285D01*
X129667000Y-51266285D01*
X129667000Y-50516285D01*
X129917000Y-50516285D01*
X129988428Y-50552000D01*
X130024142Y-50587714D01*
X130059857Y-50659142D01*
X130059857Y-50730571D01*
X130024142Y-50802000D01*
X129988428Y-50837714D01*
X129917000Y-50873428D01*
X129667000Y-50873428D01*
X130381285Y-50587714D02*
X130417000Y-50552000D01*
X130488428Y-50516285D01*
X130667000Y-50516285D01*
X130738428Y-50552000D01*
X130774142Y-50587714D01*
X130809857Y-50659142D01*
X130809857Y-50730571D01*
X130774142Y-50837714D01*
X130345571Y-51266285D01*
X130809857Y-51266285D01*
X128559857Y-84413285D02*
X128559857Y-83663285D01*
X128845571Y-83663285D01*
X128917000Y-83699000D01*
X128952714Y-83734714D01*
X128988428Y-83806142D01*
X128988428Y-83913285D01*
X128952714Y-83984714D01*
X128917000Y-84020428D01*
X128845571Y-84056142D01*
X128559857Y-84056142D01*
X129309857Y-84413285D02*
X129309857Y-83913285D01*
X129309857Y-83663285D02*
X129274142Y-83699000D01*
X129309857Y-83734714D01*
X129345571Y-83699000D01*
X129309857Y-83663285D01*
X129309857Y-83734714D01*
X130095571Y-84413285D02*
X129845571Y-84056142D01*
X129667000Y-84413285D02*
X129667000Y-83663285D01*
X129952714Y-83663285D01*
X130024142Y-83699000D01*
X130059857Y-83734714D01*
X130095571Y-83806142D01*
X130095571Y-83913285D01*
X130059857Y-83984714D01*
X130024142Y-84020428D01*
X129952714Y-84056142D01*
X129667000Y-84056142D01*
X130345571Y-83663285D02*
X130809857Y-83663285D01*
X130559857Y-83949000D01*
X130667000Y-83949000D01*
X130738428Y-83984714D01*
X130774142Y-84020428D01*
X130809857Y-84091857D01*
X130809857Y-84270428D01*
X130774142Y-84341857D01*
X130738428Y-84377571D01*
X130667000Y-84413285D01*
X130452714Y-84413285D01*
X130381285Y-84377571D01*
X130345571Y-84341857D01*
X128559857Y-71713285D02*
X128559857Y-70963285D01*
X128845571Y-70963285D01*
X128917000Y-70999000D01*
X128952714Y-71034714D01*
X128988428Y-71106142D01*
X128988428Y-71213285D01*
X128952714Y-71284714D01*
X128917000Y-71320428D01*
X128845571Y-71356142D01*
X128559857Y-71356142D01*
X129309857Y-71713285D02*
X129309857Y-71213285D01*
X129309857Y-70963285D02*
X129274142Y-70999000D01*
X129309857Y-71034714D01*
X129345571Y-70999000D01*
X129309857Y-70963285D01*
X129309857Y-71034714D01*
X130095571Y-71713285D02*
X129845571Y-71356142D01*
X129667000Y-71713285D02*
X129667000Y-70963285D01*
X129952714Y-70963285D01*
X130024142Y-70999000D01*
X130059857Y-71034714D01*
X130095571Y-71106142D01*
X130095571Y-71213285D01*
X130059857Y-71284714D01*
X130024142Y-71320428D01*
X129952714Y-71356142D01*
X129667000Y-71356142D01*
X130809857Y-71713285D02*
X130381285Y-71713285D01*
X130595571Y-71713285D02*
X130595571Y-70963285D01*
X130524142Y-71070428D01*
X130452714Y-71141857D01*
X130381285Y-71177571D01*
X128559857Y-66633285D02*
X128559857Y-65883285D01*
X128845571Y-65883285D01*
X128917000Y-65919000D01*
X128952714Y-65954714D01*
X128988428Y-66026142D01*
X128988428Y-66133285D01*
X128952714Y-66204714D01*
X128917000Y-66240428D01*
X128845571Y-66276142D01*
X128559857Y-66276142D01*
X129309857Y-66633285D02*
X129309857Y-66133285D01*
X129309857Y-65883285D02*
X129274142Y-65919000D01*
X129309857Y-65954714D01*
X129345571Y-65919000D01*
X129309857Y-65883285D01*
X129309857Y-65954714D01*
X130095571Y-66633285D02*
X129845571Y-66276142D01*
X129667000Y-66633285D02*
X129667000Y-65883285D01*
X129952714Y-65883285D01*
X130024142Y-65919000D01*
X130059857Y-65954714D01*
X130095571Y-66026142D01*
X130095571Y-66133285D01*
X130059857Y-66204714D01*
X130024142Y-66240428D01*
X129952714Y-66276142D01*
X129667000Y-66276142D01*
X130559857Y-65883285D02*
X130631285Y-65883285D01*
X130702714Y-65919000D01*
X130738428Y-65954714D01*
X130774142Y-66026142D01*
X130809857Y-66169000D01*
X130809857Y-66347571D01*
X130774142Y-66490428D01*
X130738428Y-66561857D01*
X130702714Y-66597571D01*
X130631285Y-66633285D01*
X130559857Y-66633285D01*
X130488428Y-66597571D01*
X130452714Y-66561857D01*
X130417000Y-66490428D01*
X130381285Y-66347571D01*
X130381285Y-66169000D01*
X130417000Y-66026142D01*
X130452714Y-65954714D01*
X130488428Y-65919000D01*
X130559857Y-65883285D01*
X128559857Y-69046285D02*
X128559857Y-68296285D01*
X128845571Y-68296285D01*
X128917000Y-68332000D01*
X128952714Y-68367714D01*
X128988428Y-68439142D01*
X128988428Y-68546285D01*
X128952714Y-68617714D01*
X128917000Y-68653428D01*
X128845571Y-68689142D01*
X128559857Y-68689142D01*
X129309857Y-69046285D02*
X129309857Y-68546285D01*
X129309857Y-68296285D02*
X129274142Y-68332000D01*
X129309857Y-68367714D01*
X129345571Y-68332000D01*
X129309857Y-68296285D01*
X129309857Y-68367714D01*
X130059857Y-68332000D02*
X129988428Y-68296285D01*
X129881285Y-68296285D01*
X129774142Y-68332000D01*
X129702714Y-68403428D01*
X129667000Y-68474857D01*
X129631285Y-68617714D01*
X129631285Y-68724857D01*
X129667000Y-68867714D01*
X129702714Y-68939142D01*
X129774142Y-69010571D01*
X129881285Y-69046285D01*
X129952714Y-69046285D01*
X130059857Y-69010571D01*
X130095571Y-68974857D01*
X130095571Y-68724857D01*
X129952714Y-68724857D01*
X130345571Y-68296285D02*
X130809857Y-68296285D01*
X130559857Y-68582000D01*
X130667000Y-68582000D01*
X130738428Y-68617714D01*
X130774142Y-68653428D01*
X130809857Y-68724857D01*
X130809857Y-68903428D01*
X130774142Y-68974857D01*
X130738428Y-69010571D01*
X130667000Y-69046285D01*
X130452714Y-69046285D01*
X130381285Y-69010571D01*
X130345571Y-68974857D01*
X128559857Y-81873285D02*
X128559857Y-81123285D01*
X128845571Y-81123285D01*
X128917000Y-81159000D01*
X128952714Y-81194714D01*
X128988428Y-81266142D01*
X128988428Y-81373285D01*
X128952714Y-81444714D01*
X128917000Y-81480428D01*
X128845571Y-81516142D01*
X128559857Y-81516142D01*
X129309857Y-81873285D02*
X129309857Y-81373285D01*
X129309857Y-81123285D02*
X129274142Y-81159000D01*
X129309857Y-81194714D01*
X129345571Y-81159000D01*
X129309857Y-81123285D01*
X129309857Y-81194714D01*
X130059857Y-81159000D02*
X129988428Y-81123285D01*
X129881285Y-81123285D01*
X129774142Y-81159000D01*
X129702714Y-81230428D01*
X129667000Y-81301857D01*
X129631285Y-81444714D01*
X129631285Y-81551857D01*
X129667000Y-81694714D01*
X129702714Y-81766142D01*
X129774142Y-81837571D01*
X129881285Y-81873285D01*
X129952714Y-81873285D01*
X130059857Y-81837571D01*
X130095571Y-81801857D01*
X130095571Y-81551857D01*
X129952714Y-81551857D01*
X130559857Y-81123285D02*
X130631285Y-81123285D01*
X130702714Y-81159000D01*
X130738428Y-81194714D01*
X130774142Y-81266142D01*
X130809857Y-81409000D01*
X130809857Y-81587571D01*
X130774142Y-81730428D01*
X130738428Y-81801857D01*
X130702714Y-81837571D01*
X130631285Y-81873285D01*
X130559857Y-81873285D01*
X130488428Y-81837571D01*
X130452714Y-81801857D01*
X130417000Y-81730428D01*
X130381285Y-81587571D01*
X130381285Y-81409000D01*
X130417000Y-81266142D01*
X130452714Y-81194714D01*
X130488428Y-81159000D01*
X130559857Y-81123285D01*
X128559857Y-79333285D02*
X128559857Y-78583285D01*
X128845571Y-78583285D01*
X128917000Y-78619000D01*
X128952714Y-78654714D01*
X128988428Y-78726142D01*
X128988428Y-78833285D01*
X128952714Y-78904714D01*
X128917000Y-78940428D01*
X128845571Y-78976142D01*
X128559857Y-78976142D01*
X129309857Y-79333285D02*
X129309857Y-78833285D01*
X129309857Y-78583285D02*
X129274142Y-78619000D01*
X129309857Y-78654714D01*
X129345571Y-78619000D01*
X129309857Y-78583285D01*
X129309857Y-78654714D01*
X129917000Y-78940428D02*
X130024142Y-78976142D01*
X130059857Y-79011857D01*
X130095571Y-79083285D01*
X130095571Y-79190428D01*
X130059857Y-79261857D01*
X130024142Y-79297571D01*
X129952714Y-79333285D01*
X129667000Y-79333285D01*
X129667000Y-78583285D01*
X129917000Y-78583285D01*
X129988428Y-78619000D01*
X130024142Y-78654714D01*
X130059857Y-78726142D01*
X130059857Y-78797571D01*
X130024142Y-78869000D01*
X129988428Y-78904714D01*
X129917000Y-78940428D01*
X129667000Y-78940428D01*
X130345571Y-78583285D02*
X130809857Y-78583285D01*
X130559857Y-78869000D01*
X130667000Y-78869000D01*
X130738428Y-78904714D01*
X130774142Y-78940428D01*
X130809857Y-79011857D01*
X130809857Y-79190428D01*
X130774142Y-79261857D01*
X130738428Y-79297571D01*
X130667000Y-79333285D01*
X130452714Y-79333285D01*
X130381285Y-79297571D01*
X130345571Y-79261857D01*
X127821714Y-150755000D02*
X127750285Y-150719285D01*
X127643142Y-150719285D01*
X127536000Y-150755000D01*
X127464571Y-150826428D01*
X127428857Y-150897857D01*
X127393142Y-151040714D01*
X127393142Y-151147857D01*
X127428857Y-151290714D01*
X127464571Y-151362142D01*
X127536000Y-151433571D01*
X127643142Y-151469285D01*
X127714571Y-151469285D01*
X127821714Y-151433571D01*
X127857428Y-151397857D01*
X127857428Y-151147857D01*
X127714571Y-151147857D01*
X128178857Y-151469285D02*
X128178857Y-150719285D01*
X128464571Y-150719285D01*
X128536000Y-150755000D01*
X128571714Y-150790714D01*
X128607428Y-150862142D01*
X128607428Y-150969285D01*
X128571714Y-151040714D01*
X128536000Y-151076428D01*
X128464571Y-151112142D01*
X128178857Y-151112142D01*
X128928857Y-151469285D02*
X128928857Y-150719285D01*
X129428857Y-150719285D02*
X129571714Y-150719285D01*
X129643142Y-150755000D01*
X129714571Y-150826428D01*
X129750285Y-150969285D01*
X129750285Y-151219285D01*
X129714571Y-151362142D01*
X129643142Y-151433571D01*
X129571714Y-151469285D01*
X129428857Y-151469285D01*
X129357428Y-151433571D01*
X129286000Y-151362142D01*
X129250285Y-151219285D01*
X129250285Y-150969285D01*
X129286000Y-150826428D01*
X129357428Y-150755000D01*
X129428857Y-150719285D01*
X130464571Y-151469285D02*
X130036000Y-151469285D01*
X130250285Y-151469285D02*
X130250285Y-150719285D01*
X130178857Y-150826428D01*
X130107428Y-150897857D01*
X130036000Y-150933571D01*
X131107428Y-150719285D02*
X130964571Y-150719285D01*
X130893142Y-150755000D01*
X130857428Y-150790714D01*
X130786000Y-150897857D01*
X130750285Y-151040714D01*
X130750285Y-151326428D01*
X130786000Y-151397857D01*
X130821714Y-151433571D01*
X130893142Y-151469285D01*
X131036000Y-151469285D01*
X131107428Y-151433571D01*
X131143142Y-151397857D01*
X131178857Y-151326428D01*
X131178857Y-151147857D01*
X131143142Y-151076428D01*
X131107428Y-151040714D01*
X131036000Y-151005000D01*
X130893142Y-151005000D01*
X130821714Y-151040714D01*
X130786000Y-151076428D01*
X130750285Y-151147857D01*
X136814857Y-149056285D02*
X136814857Y-148306285D01*
X137100571Y-148306285D01*
X137172000Y-148342000D01*
X137207714Y-148377714D01*
X137243428Y-148449142D01*
X137243428Y-148556285D01*
X137207714Y-148627714D01*
X137172000Y-148663428D01*
X137100571Y-148699142D01*
X136814857Y-148699142D01*
X137564857Y-149056285D02*
X137564857Y-148556285D01*
X137564857Y-148306285D02*
X137529142Y-148342000D01*
X137564857Y-148377714D01*
X137600571Y-148342000D01*
X137564857Y-148306285D01*
X137564857Y-148377714D01*
X138350571Y-149056285D02*
X138100571Y-148699142D01*
X137922000Y-149056285D02*
X137922000Y-148306285D01*
X138207714Y-148306285D01*
X138279142Y-148342000D01*
X138314857Y-148377714D01*
X138350571Y-148449142D01*
X138350571Y-148556285D01*
X138314857Y-148627714D01*
X138279142Y-148663428D01*
X138207714Y-148699142D01*
X137922000Y-148699142D01*
X138600571Y-148306285D02*
X139064857Y-148306285D01*
X138814857Y-148592000D01*
X138922000Y-148592000D01*
X138993428Y-148627714D01*
X139029142Y-148663428D01*
X139064857Y-148734857D01*
X139064857Y-148913428D01*
X139029142Y-148984857D01*
X138993428Y-149020571D01*
X138922000Y-149056285D01*
X138707714Y-149056285D01*
X138636285Y-149020571D01*
X138600571Y-148984857D01*
X128940857Y-146389285D02*
X128940857Y-145639285D01*
X129226571Y-145639285D01*
X129298000Y-145675000D01*
X129333714Y-145710714D01*
X129369428Y-145782142D01*
X129369428Y-145889285D01*
X129333714Y-145960714D01*
X129298000Y-145996428D01*
X129226571Y-146032142D01*
X128940857Y-146032142D01*
X129690857Y-146389285D02*
X129690857Y-145889285D01*
X129690857Y-145639285D02*
X129655142Y-145675000D01*
X129690857Y-145710714D01*
X129726571Y-145675000D01*
X129690857Y-145639285D01*
X129690857Y-145710714D01*
X130476571Y-146389285D02*
X130226571Y-146032142D01*
X130048000Y-146389285D02*
X130048000Y-145639285D01*
X130333714Y-145639285D01*
X130405142Y-145675000D01*
X130440857Y-145710714D01*
X130476571Y-145782142D01*
X130476571Y-145889285D01*
X130440857Y-145960714D01*
X130405142Y-145996428D01*
X130333714Y-146032142D01*
X130048000Y-146032142D01*
X130762285Y-145710714D02*
X130798000Y-145675000D01*
X130869428Y-145639285D01*
X131048000Y-145639285D01*
X131119428Y-145675000D01*
X131155142Y-145710714D01*
X131190857Y-145782142D01*
X131190857Y-145853571D01*
X131155142Y-145960714D01*
X130726571Y-146389285D01*
X131190857Y-146389285D01*
X136814857Y-146516285D02*
X136814857Y-145766285D01*
X137100571Y-145766285D01*
X137172000Y-145802000D01*
X137207714Y-145837714D01*
X137243428Y-145909142D01*
X137243428Y-146016285D01*
X137207714Y-146087714D01*
X137172000Y-146123428D01*
X137100571Y-146159142D01*
X136814857Y-146159142D01*
X137564857Y-146516285D02*
X137564857Y-146016285D01*
X137564857Y-145766285D02*
X137529142Y-145802000D01*
X137564857Y-145837714D01*
X137600571Y-145802000D01*
X137564857Y-145766285D01*
X137564857Y-145837714D01*
X138314857Y-145802000D02*
X138243428Y-145766285D01*
X138136285Y-145766285D01*
X138029142Y-145802000D01*
X137957714Y-145873428D01*
X137922000Y-145944857D01*
X137886285Y-146087714D01*
X137886285Y-146194857D01*
X137922000Y-146337714D01*
X137957714Y-146409142D01*
X138029142Y-146480571D01*
X138136285Y-146516285D01*
X138207714Y-146516285D01*
X138314857Y-146480571D01*
X138350571Y-146444857D01*
X138350571Y-146194857D01*
X138207714Y-146194857D01*
X138814857Y-145766285D02*
X138886285Y-145766285D01*
X138957714Y-145802000D01*
X138993428Y-145837714D01*
X139029142Y-145909142D01*
X139064857Y-146052000D01*
X139064857Y-146230571D01*
X139029142Y-146373428D01*
X138993428Y-146444857D01*
X138957714Y-146480571D01*
X138886285Y-146516285D01*
X138814857Y-146516285D01*
X138743428Y-146480571D01*
X138707714Y-146444857D01*
X138672000Y-146373428D01*
X138636285Y-146230571D01*
X138636285Y-146052000D01*
X138672000Y-145909142D01*
X138707714Y-145837714D01*
X138743428Y-145802000D01*
X138814857Y-145766285D01*
X136814857Y-143976285D02*
X136814857Y-143226285D01*
X137100571Y-143226285D01*
X137172000Y-143262000D01*
X137207714Y-143297714D01*
X137243428Y-143369142D01*
X137243428Y-143476285D01*
X137207714Y-143547714D01*
X137172000Y-143583428D01*
X137100571Y-143619142D01*
X136814857Y-143619142D01*
X137564857Y-143976285D02*
X137564857Y-143476285D01*
X137564857Y-143226285D02*
X137529142Y-143262000D01*
X137564857Y-143297714D01*
X137600571Y-143262000D01*
X137564857Y-143226285D01*
X137564857Y-143297714D01*
X138172000Y-143583428D02*
X138279142Y-143619142D01*
X138314857Y-143654857D01*
X138350571Y-143726285D01*
X138350571Y-143833428D01*
X138314857Y-143904857D01*
X138279142Y-143940571D01*
X138207714Y-143976285D01*
X137922000Y-143976285D01*
X137922000Y-143226285D01*
X138172000Y-143226285D01*
X138243428Y-143262000D01*
X138279142Y-143297714D01*
X138314857Y-143369142D01*
X138314857Y-143440571D01*
X138279142Y-143512000D01*
X138243428Y-143547714D01*
X138172000Y-143583428D01*
X137922000Y-143583428D01*
X138600571Y-143226285D02*
X139064857Y-143226285D01*
X138814857Y-143512000D01*
X138922000Y-143512000D01*
X138993428Y-143547714D01*
X139029142Y-143583428D01*
X139064857Y-143654857D01*
X139064857Y-143833428D01*
X139029142Y-143904857D01*
X138993428Y-143940571D01*
X138922000Y-143976285D01*
X138707714Y-143976285D01*
X138636285Y-143940571D01*
X138600571Y-143904857D01*
X128940857Y-138769285D02*
X128940857Y-138019285D01*
X129226571Y-138019285D01*
X129298000Y-138055000D01*
X129333714Y-138090714D01*
X129369428Y-138162142D01*
X129369428Y-138269285D01*
X129333714Y-138340714D01*
X129298000Y-138376428D01*
X129226571Y-138412142D01*
X128940857Y-138412142D01*
X129690857Y-138769285D02*
X129690857Y-138269285D01*
X129690857Y-138019285D02*
X129655142Y-138055000D01*
X129690857Y-138090714D01*
X129726571Y-138055000D01*
X129690857Y-138019285D01*
X129690857Y-138090714D01*
X130440857Y-138055000D02*
X130369428Y-138019285D01*
X130262285Y-138019285D01*
X130155142Y-138055000D01*
X130083714Y-138126428D01*
X130048000Y-138197857D01*
X130012285Y-138340714D01*
X130012285Y-138447857D01*
X130048000Y-138590714D01*
X130083714Y-138662142D01*
X130155142Y-138733571D01*
X130262285Y-138769285D01*
X130333714Y-138769285D01*
X130440857Y-138733571D01*
X130476571Y-138697857D01*
X130476571Y-138447857D01*
X130333714Y-138447857D01*
X131190857Y-138769285D02*
X130762285Y-138769285D01*
X130976571Y-138769285D02*
X130976571Y-138019285D01*
X130905142Y-138126428D01*
X130833714Y-138197857D01*
X130762285Y-138233571D01*
X128940857Y-136229285D02*
X128940857Y-135479285D01*
X129226571Y-135479285D01*
X129298000Y-135515000D01*
X129333714Y-135550714D01*
X129369428Y-135622142D01*
X129369428Y-135729285D01*
X129333714Y-135800714D01*
X129298000Y-135836428D01*
X129226571Y-135872142D01*
X128940857Y-135872142D01*
X129690857Y-136229285D02*
X129690857Y-135729285D01*
X129690857Y-135479285D02*
X129655142Y-135515000D01*
X129690857Y-135550714D01*
X129726571Y-135515000D01*
X129690857Y-135479285D01*
X129690857Y-135550714D01*
X130440857Y-135515000D02*
X130369428Y-135479285D01*
X130262285Y-135479285D01*
X130155142Y-135515000D01*
X130083714Y-135586428D01*
X130048000Y-135657857D01*
X130012285Y-135800714D01*
X130012285Y-135907857D01*
X130048000Y-136050714D01*
X130083714Y-136122142D01*
X130155142Y-136193571D01*
X130262285Y-136229285D01*
X130333714Y-136229285D01*
X130440857Y-136193571D01*
X130476571Y-136157857D01*
X130476571Y-135907857D01*
X130333714Y-135907857D01*
X130762285Y-135550714D02*
X130798000Y-135515000D01*
X130869428Y-135479285D01*
X131048000Y-135479285D01*
X131119428Y-135515000D01*
X131155142Y-135550714D01*
X131190857Y-135622142D01*
X131190857Y-135693571D01*
X131155142Y-135800714D01*
X130726571Y-136229285D01*
X131190857Y-136229285D01*
X136814857Y-136356285D02*
X136814857Y-135606285D01*
X137100571Y-135606285D01*
X137172000Y-135642000D01*
X137207714Y-135677714D01*
X137243428Y-135749142D01*
X137243428Y-135856285D01*
X137207714Y-135927714D01*
X137172000Y-135963428D01*
X137100571Y-135999142D01*
X136814857Y-135999142D01*
X137564857Y-136356285D02*
X137564857Y-135856285D01*
X137564857Y-135606285D02*
X137529142Y-135642000D01*
X137564857Y-135677714D01*
X137600571Y-135642000D01*
X137564857Y-135606285D01*
X137564857Y-135677714D01*
X138350571Y-136356285D02*
X138100571Y-135999142D01*
X137922000Y-136356285D02*
X137922000Y-135606285D01*
X138207714Y-135606285D01*
X138279142Y-135642000D01*
X138314857Y-135677714D01*
X138350571Y-135749142D01*
X138350571Y-135856285D01*
X138314857Y-135927714D01*
X138279142Y-135963428D01*
X138207714Y-135999142D01*
X137922000Y-135999142D01*
X139064857Y-136356285D02*
X138636285Y-136356285D01*
X138850571Y-136356285D02*
X138850571Y-135606285D01*
X138779142Y-135713428D01*
X138707714Y-135784857D01*
X138636285Y-135820571D01*
X136814857Y-133689285D02*
X136814857Y-132939285D01*
X137100571Y-132939285D01*
X137172000Y-132975000D01*
X137207714Y-133010714D01*
X137243428Y-133082142D01*
X137243428Y-133189285D01*
X137207714Y-133260714D01*
X137172000Y-133296428D01*
X137100571Y-133332142D01*
X136814857Y-133332142D01*
X137564857Y-133689285D02*
X137564857Y-133189285D01*
X137564857Y-132939285D02*
X137529142Y-132975000D01*
X137564857Y-133010714D01*
X137600571Y-132975000D01*
X137564857Y-132939285D01*
X137564857Y-133010714D01*
X138314857Y-132975000D02*
X138243428Y-132939285D01*
X138136285Y-132939285D01*
X138029142Y-132975000D01*
X137957714Y-133046428D01*
X137922000Y-133117857D01*
X137886285Y-133260714D01*
X137886285Y-133367857D01*
X137922000Y-133510714D01*
X137957714Y-133582142D01*
X138029142Y-133653571D01*
X138136285Y-133689285D01*
X138207714Y-133689285D01*
X138314857Y-133653571D01*
X138350571Y-133617857D01*
X138350571Y-133367857D01*
X138207714Y-133367857D01*
X138600571Y-132939285D02*
X139064857Y-132939285D01*
X138814857Y-133225000D01*
X138922000Y-133225000D01*
X138993428Y-133260714D01*
X139029142Y-133296428D01*
X139064857Y-133367857D01*
X139064857Y-133546428D01*
X139029142Y-133617857D01*
X138993428Y-133653571D01*
X138922000Y-133689285D01*
X138707714Y-133689285D01*
X138636285Y-133653571D01*
X138600571Y-133617857D01*
X136814857Y-131276285D02*
X136814857Y-130526285D01*
X137100571Y-130526285D01*
X137172000Y-130562000D01*
X137207714Y-130597714D01*
X137243428Y-130669142D01*
X137243428Y-130776285D01*
X137207714Y-130847714D01*
X137172000Y-130883428D01*
X137100571Y-130919142D01*
X136814857Y-130919142D01*
X137564857Y-131276285D02*
X137564857Y-130776285D01*
X137564857Y-130526285D02*
X137529142Y-130562000D01*
X137564857Y-130597714D01*
X137600571Y-130562000D01*
X137564857Y-130526285D01*
X137564857Y-130597714D01*
X138350571Y-131276285D02*
X138100571Y-130919142D01*
X137922000Y-131276285D02*
X137922000Y-130526285D01*
X138207714Y-130526285D01*
X138279142Y-130562000D01*
X138314857Y-130597714D01*
X138350571Y-130669142D01*
X138350571Y-130776285D01*
X138314857Y-130847714D01*
X138279142Y-130883428D01*
X138207714Y-130919142D01*
X137922000Y-130919142D01*
X138814857Y-130526285D02*
X138886285Y-130526285D01*
X138957714Y-130562000D01*
X138993428Y-130597714D01*
X139029142Y-130669142D01*
X139064857Y-130812000D01*
X139064857Y-130990571D01*
X139029142Y-131133428D01*
X138993428Y-131204857D01*
X138957714Y-131240571D01*
X138886285Y-131276285D01*
X138814857Y-131276285D01*
X138743428Y-131240571D01*
X138707714Y-131204857D01*
X138672000Y-131133428D01*
X138636285Y-130990571D01*
X138636285Y-130812000D01*
X138672000Y-130669142D01*
X138707714Y-130597714D01*
X138743428Y-130562000D01*
X138814857Y-130526285D01*
X127591571Y-126069285D02*
X127591571Y-125319285D01*
X127877285Y-125319285D01*
X127948714Y-125355000D01*
X127984428Y-125390714D01*
X128020142Y-125462142D01*
X128020142Y-125569285D01*
X127984428Y-125640714D01*
X127948714Y-125676428D01*
X127877285Y-125712142D01*
X127591571Y-125712142D01*
X128341571Y-126069285D02*
X128341571Y-125569285D01*
X128341571Y-125319285D02*
X128305857Y-125355000D01*
X128341571Y-125390714D01*
X128377285Y-125355000D01*
X128341571Y-125319285D01*
X128341571Y-125390714D01*
X128663000Y-126033571D02*
X128770142Y-126069285D01*
X128948714Y-126069285D01*
X129020142Y-126033571D01*
X129055857Y-125997857D01*
X129091571Y-125926428D01*
X129091571Y-125855000D01*
X129055857Y-125783571D01*
X129020142Y-125747857D01*
X128948714Y-125712142D01*
X128805857Y-125676428D01*
X128734428Y-125640714D01*
X128698714Y-125605000D01*
X128663000Y-125533571D01*
X128663000Y-125462142D01*
X128698714Y-125390714D01*
X128734428Y-125355000D01*
X128805857Y-125319285D01*
X128984428Y-125319285D01*
X129091571Y-125355000D01*
X129555857Y-125712142D02*
X129555857Y-126069285D01*
X129305857Y-125319285D02*
X129555857Y-125712142D01*
X129805857Y-125319285D01*
X130055857Y-126069285D02*
X130055857Y-125319285D01*
X130484428Y-126069285D01*
X130484428Y-125319285D01*
X131270142Y-125997857D02*
X131234428Y-126033571D01*
X131127285Y-126069285D01*
X131055857Y-126069285D01*
X130948714Y-126033571D01*
X130877285Y-125962142D01*
X130841571Y-125890714D01*
X130805857Y-125747857D01*
X130805857Y-125640714D01*
X130841571Y-125497857D01*
X130877285Y-125426428D01*
X130948714Y-125355000D01*
X131055857Y-125319285D01*
X131127285Y-125319285D01*
X131234428Y-125355000D01*
X131270142Y-125390714D01*
X128749571Y-120350000D02*
X128692428Y-120321428D01*
X128606714Y-120321428D01*
X128521000Y-120350000D01*
X128463857Y-120407142D01*
X128435285Y-120464285D01*
X128406714Y-120578571D01*
X128406714Y-120664285D01*
X128435285Y-120778571D01*
X128463857Y-120835714D01*
X128521000Y-120892857D01*
X128606714Y-120921428D01*
X128663857Y-120921428D01*
X128749571Y-120892857D01*
X128778142Y-120864285D01*
X128778142Y-120664285D01*
X128663857Y-120664285D01*
X129035285Y-120921428D02*
X129035285Y-120321428D01*
X129263857Y-120321428D01*
X129321000Y-120350000D01*
X129349571Y-120378571D01*
X129378142Y-120435714D01*
X129378142Y-120521428D01*
X129349571Y-120578571D01*
X129321000Y-120607142D01*
X129263857Y-120635714D01*
X129035285Y-120635714D01*
X129635285Y-120921428D02*
X129635285Y-120321428D01*
X130035285Y-120321428D02*
X130149571Y-120321428D01*
X130206714Y-120350000D01*
X130263857Y-120407142D01*
X130292428Y-120521428D01*
X130292428Y-120721428D01*
X130263857Y-120835714D01*
X130206714Y-120892857D01*
X130149571Y-120921428D01*
X130035285Y-120921428D01*
X129978142Y-120892857D01*
X129921000Y-120835714D01*
X129892428Y-120721428D01*
X129892428Y-120521428D01*
X129921000Y-120407142D01*
X129978142Y-120350000D01*
X130035285Y-120321428D01*
X130863857Y-120921428D02*
X130521000Y-120921428D01*
X130692428Y-120921428D02*
X130692428Y-120321428D01*
X130635285Y-120407142D01*
X130578142Y-120464285D01*
X130521000Y-120492857D01*
X131206714Y-120578571D02*
X131149571Y-120550000D01*
X131121000Y-120521428D01*
X131092428Y-120464285D01*
X131092428Y-120435714D01*
X131121000Y-120378571D01*
X131149571Y-120350000D01*
X131206714Y-120321428D01*
X131321000Y-120321428D01*
X131378142Y-120350000D01*
X131406714Y-120378571D01*
X131435285Y-120435714D01*
X131435285Y-120464285D01*
X131406714Y-120521428D01*
X131378142Y-120550000D01*
X131321000Y-120578571D01*
X131206714Y-120578571D01*
X131149571Y-120607142D01*
X131121000Y-120635714D01*
X131092428Y-120692857D01*
X131092428Y-120807142D01*
X131121000Y-120864285D01*
X131149571Y-120892857D01*
X131206714Y-120921428D01*
X131321000Y-120921428D01*
X131378142Y-120892857D01*
X131406714Y-120864285D01*
X131435285Y-120807142D01*
X131435285Y-120692857D01*
X131406714Y-120635714D01*
X131378142Y-120607142D01*
X131321000Y-120578571D01*
X136747428Y-120989285D02*
X136747428Y-120239285D01*
X137033142Y-120239285D01*
X137104571Y-120275000D01*
X137140285Y-120310714D01*
X137176000Y-120382142D01*
X137176000Y-120489285D01*
X137140285Y-120560714D01*
X137104571Y-120596428D01*
X137033142Y-120632142D01*
X136747428Y-120632142D01*
X137497428Y-120989285D02*
X137497428Y-120489285D01*
X137497428Y-120239285D02*
X137461714Y-120275000D01*
X137497428Y-120310714D01*
X137533142Y-120275000D01*
X137497428Y-120239285D01*
X137497428Y-120310714D01*
X138283142Y-120917857D02*
X138247428Y-120953571D01*
X138140285Y-120989285D01*
X138068857Y-120989285D01*
X137961714Y-120953571D01*
X137890285Y-120882142D01*
X137854571Y-120810714D01*
X137818857Y-120667857D01*
X137818857Y-120560714D01*
X137854571Y-120417857D01*
X137890285Y-120346428D01*
X137961714Y-120275000D01*
X138068857Y-120239285D01*
X138140285Y-120239285D01*
X138247428Y-120275000D01*
X138283142Y-120310714D01*
X138961714Y-120989285D02*
X138604571Y-120989285D01*
X138604571Y-120239285D01*
X139211714Y-120989285D02*
X139211714Y-120239285D01*
X139640285Y-120989285D02*
X139318857Y-120560714D01*
X139640285Y-120239285D02*
X139211714Y-120667857D01*
X137223571Y-117735000D02*
X137152142Y-117699285D01*
X137045000Y-117699285D01*
X136937857Y-117735000D01*
X136866428Y-117806428D01*
X136830714Y-117877857D01*
X136795000Y-118020714D01*
X136795000Y-118127857D01*
X136830714Y-118270714D01*
X136866428Y-118342142D01*
X136937857Y-118413571D01*
X137045000Y-118449285D01*
X137116428Y-118449285D01*
X137223571Y-118413571D01*
X137259285Y-118377857D01*
X137259285Y-118127857D01*
X137116428Y-118127857D01*
X137580714Y-118449285D02*
X137580714Y-117699285D01*
X138009285Y-118449285D01*
X138009285Y-117699285D01*
X138366428Y-118449285D02*
X138366428Y-117699285D01*
X138545000Y-117699285D01*
X138652142Y-117735000D01*
X138723571Y-117806428D01*
X138759285Y-117877857D01*
X138795000Y-118020714D01*
X138795000Y-118127857D01*
X138759285Y-118270714D01*
X138723571Y-118342142D01*
X138652142Y-118413571D01*
X138545000Y-118449285D01*
X138366428Y-118449285D01*
X136814857Y-115909285D02*
X136814857Y-115159285D01*
X137100571Y-115159285D01*
X137172000Y-115195000D01*
X137207714Y-115230714D01*
X137243428Y-115302142D01*
X137243428Y-115409285D01*
X137207714Y-115480714D01*
X137172000Y-115516428D01*
X137100571Y-115552142D01*
X136814857Y-115552142D01*
X137564857Y-115909285D02*
X137564857Y-115409285D01*
X137564857Y-115159285D02*
X137529142Y-115195000D01*
X137564857Y-115230714D01*
X137600571Y-115195000D01*
X137564857Y-115159285D01*
X137564857Y-115230714D01*
X138172000Y-115516428D02*
X138279142Y-115552142D01*
X138314857Y-115587857D01*
X138350571Y-115659285D01*
X138350571Y-115766428D01*
X138314857Y-115837857D01*
X138279142Y-115873571D01*
X138207714Y-115909285D01*
X137922000Y-115909285D01*
X137922000Y-115159285D01*
X138172000Y-115159285D01*
X138243428Y-115195000D01*
X138279142Y-115230714D01*
X138314857Y-115302142D01*
X138314857Y-115373571D01*
X138279142Y-115445000D01*
X138243428Y-115480714D01*
X138172000Y-115516428D01*
X137922000Y-115516428D01*
X138636285Y-115230714D02*
X138672000Y-115195000D01*
X138743428Y-115159285D01*
X138922000Y-115159285D01*
X138993428Y-115195000D01*
X139029142Y-115230714D01*
X139064857Y-115302142D01*
X139064857Y-115373571D01*
X139029142Y-115480714D01*
X138600571Y-115909285D01*
X139064857Y-115909285D01*
X136814857Y-110829285D02*
X136814857Y-110079285D01*
X137100571Y-110079285D01*
X137172000Y-110115000D01*
X137207714Y-110150714D01*
X137243428Y-110222142D01*
X137243428Y-110329285D01*
X137207714Y-110400714D01*
X137172000Y-110436428D01*
X137100571Y-110472142D01*
X136814857Y-110472142D01*
X137564857Y-110829285D02*
X137564857Y-110329285D01*
X137564857Y-110079285D02*
X137529142Y-110115000D01*
X137564857Y-110150714D01*
X137600571Y-110115000D01*
X137564857Y-110079285D01*
X137564857Y-110150714D01*
X138172000Y-110436428D02*
X138279142Y-110472142D01*
X138314857Y-110507857D01*
X138350571Y-110579285D01*
X138350571Y-110686428D01*
X138314857Y-110757857D01*
X138279142Y-110793571D01*
X138207714Y-110829285D01*
X137922000Y-110829285D01*
X137922000Y-110079285D01*
X138172000Y-110079285D01*
X138243428Y-110115000D01*
X138279142Y-110150714D01*
X138314857Y-110222142D01*
X138314857Y-110293571D01*
X138279142Y-110365000D01*
X138243428Y-110400714D01*
X138172000Y-110436428D01*
X137922000Y-110436428D01*
X138814857Y-110079285D02*
X138886285Y-110079285D01*
X138957714Y-110115000D01*
X138993428Y-110150714D01*
X139029142Y-110222142D01*
X139064857Y-110365000D01*
X139064857Y-110543571D01*
X139029142Y-110686428D01*
X138993428Y-110757857D01*
X138957714Y-110793571D01*
X138886285Y-110829285D01*
X138814857Y-110829285D01*
X138743428Y-110793571D01*
X138707714Y-110757857D01*
X138672000Y-110686428D01*
X138636285Y-110543571D01*
X138636285Y-110365000D01*
X138672000Y-110222142D01*
X138707714Y-110150714D01*
X138743428Y-110115000D01*
X138814857Y-110079285D01*
X136814857Y-113369285D02*
X136814857Y-112619285D01*
X137100571Y-112619285D01*
X137172000Y-112655000D01*
X137207714Y-112690714D01*
X137243428Y-112762142D01*
X137243428Y-112869285D01*
X137207714Y-112940714D01*
X137172000Y-112976428D01*
X137100571Y-113012142D01*
X136814857Y-113012142D01*
X137564857Y-113369285D02*
X137564857Y-112869285D01*
X137564857Y-112619285D02*
X137529142Y-112655000D01*
X137564857Y-112690714D01*
X137600571Y-112655000D01*
X137564857Y-112619285D01*
X137564857Y-112690714D01*
X138172000Y-112976428D02*
X138279142Y-113012142D01*
X138314857Y-113047857D01*
X138350571Y-113119285D01*
X138350571Y-113226428D01*
X138314857Y-113297857D01*
X138279142Y-113333571D01*
X138207714Y-113369285D01*
X137922000Y-113369285D01*
X137922000Y-112619285D01*
X138172000Y-112619285D01*
X138243428Y-112655000D01*
X138279142Y-112690714D01*
X138314857Y-112762142D01*
X138314857Y-112833571D01*
X138279142Y-112905000D01*
X138243428Y-112940714D01*
X138172000Y-112976428D01*
X137922000Y-112976428D01*
X139064857Y-113369285D02*
X138636285Y-113369285D01*
X138850571Y-113369285D02*
X138850571Y-112619285D01*
X138779142Y-112726428D01*
X138707714Y-112797857D01*
X138636285Y-112833571D01*
X129730571Y-112655000D02*
X129659142Y-112619285D01*
X129552000Y-112619285D01*
X129444857Y-112655000D01*
X129373428Y-112726428D01*
X129337714Y-112797857D01*
X129302000Y-112940714D01*
X129302000Y-113047857D01*
X129337714Y-113190714D01*
X129373428Y-113262142D01*
X129444857Y-113333571D01*
X129552000Y-113369285D01*
X129623428Y-113369285D01*
X129730571Y-113333571D01*
X129766285Y-113297857D01*
X129766285Y-113047857D01*
X129623428Y-113047857D01*
X130087714Y-113369285D02*
X130087714Y-112619285D01*
X130516285Y-113369285D01*
X130516285Y-112619285D01*
X130873428Y-113369285D02*
X130873428Y-112619285D01*
X131052000Y-112619285D01*
X131159142Y-112655000D01*
X131230571Y-112726428D01*
X131266285Y-112797857D01*
X131302000Y-112940714D01*
X131302000Y-113047857D01*
X131266285Y-113190714D01*
X131230571Y-113262142D01*
X131159142Y-113333571D01*
X131052000Y-113369285D01*
X130873428Y-113369285D01*
X129210714Y-110543571D02*
X129782142Y-110543571D01*
X129496428Y-110829285D02*
X129496428Y-110257857D01*
X130496428Y-110079285D02*
X130139285Y-110079285D01*
X130103571Y-110436428D01*
X130139285Y-110400714D01*
X130210714Y-110365000D01*
X130389285Y-110365000D01*
X130460714Y-110400714D01*
X130496428Y-110436428D01*
X130532142Y-110507857D01*
X130532142Y-110686428D01*
X130496428Y-110757857D01*
X130460714Y-110793571D01*
X130389285Y-110829285D01*
X130210714Y-110829285D01*
X130139285Y-110793571D01*
X130103571Y-110757857D01*
X130746428Y-110079285D02*
X130996428Y-110829285D01*
X131246428Y-110079285D01*
X129210714Y-108003571D02*
X129782142Y-108003571D01*
X129496428Y-108289285D02*
X129496428Y-107717857D01*
X130496428Y-107539285D02*
X130139285Y-107539285D01*
X130103571Y-107896428D01*
X130139285Y-107860714D01*
X130210714Y-107825000D01*
X130389285Y-107825000D01*
X130460714Y-107860714D01*
X130496428Y-107896428D01*
X130532142Y-107967857D01*
X130532142Y-108146428D01*
X130496428Y-108217857D01*
X130460714Y-108253571D01*
X130389285Y-108289285D01*
X130210714Y-108289285D01*
X130139285Y-108253571D01*
X130103571Y-108217857D01*
X130746428Y-107539285D02*
X130996428Y-108289285D01*
X131246428Y-107539285D01*
X139912285Y-105422857D02*
X139162285Y-105422857D01*
X139912285Y-105101428D02*
X139519428Y-105101428D01*
X139448000Y-105137142D01*
X139412285Y-105208571D01*
X139412285Y-105315714D01*
X139448000Y-105387142D01*
X139483714Y-105422857D01*
X139412285Y-104851428D02*
X139412285Y-104565714D01*
X139162285Y-104744285D02*
X139805142Y-104744285D01*
X139876571Y-104708571D01*
X139912285Y-104637142D01*
X139912285Y-104565714D01*
X139412285Y-104422857D02*
X139412285Y-104137142D01*
X139162285Y-104315714D02*
X139805142Y-104315714D01*
X139876571Y-104280000D01*
X139912285Y-104208571D01*
X139912285Y-104137142D01*
X139412285Y-103887142D02*
X140162285Y-103887142D01*
X139448000Y-103887142D02*
X139412285Y-103815714D01*
X139412285Y-103672857D01*
X139448000Y-103601428D01*
X139483714Y-103565714D01*
X139555142Y-103530000D01*
X139769428Y-103530000D01*
X139840857Y-103565714D01*
X139876571Y-103601428D01*
X139912285Y-103672857D01*
X139912285Y-103815714D01*
X139876571Y-103887142D01*
X139876571Y-103244285D02*
X139912285Y-103172857D01*
X139912285Y-103030000D01*
X139876571Y-102958571D01*
X139805142Y-102922857D01*
X139769428Y-102922857D01*
X139698000Y-102958571D01*
X139662285Y-103030000D01*
X139662285Y-103137142D01*
X139626571Y-103208571D01*
X139555142Y-103244285D01*
X139519428Y-103244285D01*
X139448000Y-103208571D01*
X139412285Y-103137142D01*
X139412285Y-103030000D01*
X139448000Y-102958571D01*
X139840857Y-102601428D02*
X139876571Y-102565714D01*
X139912285Y-102601428D01*
X139876571Y-102637142D01*
X139840857Y-102601428D01*
X139912285Y-102601428D01*
X139448000Y-102601428D02*
X139483714Y-102565714D01*
X139519428Y-102601428D01*
X139483714Y-102637142D01*
X139448000Y-102601428D01*
X139519428Y-102601428D01*
X139126571Y-101708571D02*
X140090857Y-102351428D01*
X139126571Y-100922857D02*
X140090857Y-101565714D01*
X139412285Y-100351428D02*
X140019428Y-100351428D01*
X140090857Y-100387142D01*
X140126571Y-100422857D01*
X140162285Y-100494285D01*
X140162285Y-100601428D01*
X140126571Y-100672857D01*
X139876571Y-100351428D02*
X139912285Y-100422857D01*
X139912285Y-100565714D01*
X139876571Y-100637142D01*
X139840857Y-100672857D01*
X139769428Y-100708571D01*
X139555142Y-100708571D01*
X139483714Y-100672857D01*
X139448000Y-100637142D01*
X139412285Y-100565714D01*
X139412285Y-100422857D01*
X139448000Y-100351428D01*
X139912285Y-99994285D02*
X139412285Y-99994285D01*
X139162285Y-99994285D02*
X139198000Y-100030000D01*
X139233714Y-99994285D01*
X139198000Y-99958571D01*
X139162285Y-99994285D01*
X139233714Y-99994285D01*
X139412285Y-99744285D02*
X139412285Y-99458571D01*
X139162285Y-99637142D02*
X139805142Y-99637142D01*
X139876571Y-99601428D01*
X139912285Y-99530000D01*
X139912285Y-99458571D01*
X139912285Y-99208571D02*
X139162285Y-99208571D01*
X139912285Y-98887142D02*
X139519428Y-98887142D01*
X139448000Y-98922857D01*
X139412285Y-98994285D01*
X139412285Y-99101428D01*
X139448000Y-99172857D01*
X139483714Y-99208571D01*
X139412285Y-98208571D02*
X139912285Y-98208571D01*
X139412285Y-98530000D02*
X139805142Y-98530000D01*
X139876571Y-98494285D01*
X139912285Y-98422857D01*
X139912285Y-98315714D01*
X139876571Y-98244285D01*
X139840857Y-98208571D01*
X139912285Y-97851428D02*
X139162285Y-97851428D01*
X139448000Y-97851428D02*
X139412285Y-97780000D01*
X139412285Y-97637142D01*
X139448000Y-97565714D01*
X139483714Y-97530000D01*
X139555142Y-97494285D01*
X139769428Y-97494285D01*
X139840857Y-97530000D01*
X139876571Y-97565714D01*
X139912285Y-97637142D01*
X139912285Y-97780000D01*
X139876571Y-97851428D01*
X139840857Y-97172857D02*
X139876571Y-97137142D01*
X139912285Y-97172857D01*
X139876571Y-97208571D01*
X139840857Y-97172857D01*
X139912285Y-97172857D01*
X139876571Y-96494285D02*
X139912285Y-96565714D01*
X139912285Y-96708571D01*
X139876571Y-96780000D01*
X139840857Y-96815714D01*
X139769428Y-96851428D01*
X139555142Y-96851428D01*
X139483714Y-96815714D01*
X139448000Y-96780000D01*
X139412285Y-96708571D01*
X139412285Y-96565714D01*
X139448000Y-96494285D01*
X139912285Y-96065714D02*
X139876571Y-96137142D01*
X139840857Y-96172857D01*
X139769428Y-96208571D01*
X139555142Y-96208571D01*
X139483714Y-96172857D01*
X139448000Y-96137142D01*
X139412285Y-96065714D01*
X139412285Y-95958571D01*
X139448000Y-95887142D01*
X139483714Y-95851428D01*
X139555142Y-95815714D01*
X139769428Y-95815714D01*
X139840857Y-95851428D01*
X139876571Y-95887142D01*
X139912285Y-95958571D01*
X139912285Y-96065714D01*
X139912285Y-95494285D02*
X139412285Y-95494285D01*
X139483714Y-95494285D02*
X139448000Y-95458571D01*
X139412285Y-95387142D01*
X139412285Y-95280000D01*
X139448000Y-95208571D01*
X139519428Y-95172857D01*
X139912285Y-95172857D01*
X139519428Y-95172857D02*
X139448000Y-95137142D01*
X139412285Y-95065714D01*
X139412285Y-94958571D01*
X139448000Y-94887142D01*
X139519428Y-94851428D01*
X139912285Y-94851428D01*
X139126571Y-93958571D02*
X140090857Y-94601428D01*
X139876571Y-93744285D02*
X139912285Y-93672857D01*
X139912285Y-93530000D01*
X139876571Y-93458571D01*
X139805142Y-93422857D01*
X139769428Y-93422857D01*
X139698000Y-93458571D01*
X139662285Y-93530000D01*
X139662285Y-93637142D01*
X139626571Y-93708571D01*
X139555142Y-93744285D01*
X139519428Y-93744285D01*
X139448000Y-93708571D01*
X139412285Y-93637142D01*
X139412285Y-93530000D01*
X139448000Y-93458571D01*
X139912285Y-92994285D02*
X139876571Y-93065714D01*
X139840857Y-93101428D01*
X139769428Y-93137142D01*
X139555142Y-93137142D01*
X139483714Y-93101428D01*
X139448000Y-93065714D01*
X139412285Y-92994285D01*
X139412285Y-92887142D01*
X139448000Y-92815714D01*
X139483714Y-92780000D01*
X139555142Y-92744285D01*
X139769428Y-92744285D01*
X139840857Y-92780000D01*
X139876571Y-92815714D01*
X139912285Y-92887142D01*
X139912285Y-92994285D01*
X139912285Y-92315714D02*
X139876571Y-92387142D01*
X139805142Y-92422857D01*
X139162285Y-92422857D01*
X139912285Y-91708571D02*
X139519428Y-91708571D01*
X139448000Y-91744285D01*
X139412285Y-91815714D01*
X139412285Y-91958571D01*
X139448000Y-92030000D01*
X139876571Y-91708571D02*
X139912285Y-91780000D01*
X139912285Y-91958571D01*
X139876571Y-92030000D01*
X139805142Y-92065714D01*
X139733714Y-92065714D01*
X139662285Y-92030000D01*
X139626571Y-91958571D01*
X139626571Y-91780000D01*
X139590857Y-91708571D01*
X139912285Y-91351428D02*
X139412285Y-91351428D01*
X139555142Y-91351428D02*
X139483714Y-91315714D01*
X139448000Y-91280000D01*
X139412285Y-91208571D01*
X139412285Y-91137142D01*
X139912285Y-90887142D02*
X139412285Y-90887142D01*
X139483714Y-90887142D02*
X139448000Y-90851428D01*
X139412285Y-90780000D01*
X139412285Y-90672857D01*
X139448000Y-90601428D01*
X139519428Y-90565714D01*
X139912285Y-90565714D01*
X139519428Y-90565714D02*
X139448000Y-90530000D01*
X139412285Y-90458571D01*
X139412285Y-90351428D01*
X139448000Y-90280000D01*
X139519428Y-90244285D01*
X139912285Y-90244285D01*
X139912285Y-89780000D02*
X139876571Y-89851428D01*
X139840857Y-89887142D01*
X139769428Y-89922857D01*
X139555142Y-89922857D01*
X139483714Y-89887142D01*
X139448000Y-89851428D01*
X139412285Y-89780000D01*
X139412285Y-89672857D01*
X139448000Y-89601428D01*
X139483714Y-89565714D01*
X139555142Y-89530000D01*
X139769428Y-89530000D01*
X139840857Y-89565714D01*
X139876571Y-89601428D01*
X139912285Y-89672857D01*
X139912285Y-89780000D01*
X139412285Y-89208571D02*
X139912285Y-89208571D01*
X139483714Y-89208571D02*
X139448000Y-89172857D01*
X139412285Y-89101428D01*
X139412285Y-88994285D01*
X139448000Y-88922857D01*
X139519428Y-88887142D01*
X139912285Y-88887142D01*
X127579380Y-121703238D02*
X127103190Y-122036571D01*
X127579380Y-122274666D02*
X126579380Y-122274666D01*
X126579380Y-121893714D01*
X126627000Y-121798476D01*
X126674619Y-121750857D01*
X126769857Y-121703238D01*
X126912714Y-121703238D01*
X127007952Y-121750857D01*
X127055571Y-121798476D01*
X127103190Y-121893714D01*
X127103190Y-122274666D01*
X126627000Y-120750857D02*
X126579380Y-120846095D01*
X126579380Y-120988952D01*
X126627000Y-121131809D01*
X126722238Y-121227047D01*
X126817476Y-121274666D01*
X127007952Y-121322285D01*
X127150809Y-121322285D01*
X127341285Y-121274666D01*
X127436523Y-121227047D01*
X127531761Y-121131809D01*
X127579380Y-120988952D01*
X127579380Y-120893714D01*
X127531761Y-120750857D01*
X127484142Y-120703238D01*
X127150809Y-120703238D01*
X127150809Y-120893714D01*
X127055571Y-119941333D02*
X127103190Y-119798476D01*
X127150809Y-119750857D01*
X127246047Y-119703238D01*
X127388904Y-119703238D01*
X127484142Y-119750857D01*
X127531761Y-119798476D01*
X127579380Y-119893714D01*
X127579380Y-120274666D01*
X126579380Y-120274666D01*
X126579380Y-119941333D01*
X126627000Y-119846095D01*
X126674619Y-119798476D01*
X126769857Y-119750857D01*
X126865095Y-119750857D01*
X126960333Y-119798476D01*
X127007952Y-119846095D01*
X127055571Y-119941333D01*
X127055571Y-120274666D01*
X126912714Y-119417523D02*
X126912714Y-119036571D01*
X126579380Y-119274666D02*
X127436523Y-119274666D01*
X127531761Y-119227047D01*
X127579380Y-119131809D01*
X127579380Y-119036571D01*
X127579380Y-118560380D02*
X127531761Y-118655619D01*
X127484142Y-118703238D01*
X127388904Y-118750857D01*
X127103190Y-118750857D01*
X127007952Y-118703238D01*
X126960333Y-118655619D01*
X126912714Y-118560380D01*
X126912714Y-118417523D01*
X126960333Y-118322285D01*
X127007952Y-118274666D01*
X127103190Y-118227047D01*
X127388904Y-118227047D01*
X127484142Y-118274666D01*
X127531761Y-118322285D01*
X127579380Y-118417523D01*
X127579380Y-118560380D01*
X127579380Y-117798476D02*
X126579380Y-117798476D01*
X127055571Y-117798476D02*
X127055571Y-117227047D01*
X127579380Y-117227047D02*
X126579380Y-117227047D01*
X127579380Y-116750857D02*
X126579380Y-116750857D01*
X126579380Y-116512761D01*
X126627000Y-116369904D01*
X126722238Y-116274666D01*
X126817476Y-116227047D01*
X127007952Y-116179428D01*
X127150809Y-116179428D01*
X127341285Y-116227047D01*
X127436523Y-116274666D01*
X127531761Y-116369904D01*
X127579380Y-116512761D01*
X127579380Y-116750857D01*
X127579380Y-115750857D02*
X126579380Y-115750857D01*
X127293666Y-115417523D01*
X126579380Y-115084190D01*
X127579380Y-115084190D01*
X127579380Y-114608000D02*
X126579380Y-114608000D01*
X127293666Y-113417523D02*
X127293666Y-112941333D01*
X127579380Y-113512761D02*
X126579380Y-113179428D01*
X127579380Y-112846095D01*
X127579380Y-112512761D02*
X126912714Y-112512761D01*
X127007952Y-112512761D02*
X126960333Y-112465142D01*
X126912714Y-112369904D01*
X126912714Y-112227047D01*
X126960333Y-112131809D01*
X127055571Y-112084190D01*
X127579380Y-112084190D01*
X127055571Y-112084190D02*
X126960333Y-112036571D01*
X126912714Y-111941333D01*
X126912714Y-111798476D01*
X126960333Y-111703238D01*
X127055571Y-111655619D01*
X127579380Y-111655619D01*
X127579380Y-111179428D02*
X126912714Y-111179428D01*
X126579380Y-111179428D02*
X126627000Y-111227047D01*
X126674619Y-111179428D01*
X126627000Y-111131809D01*
X126579380Y-111179428D01*
X126674619Y-111179428D01*
X126912714Y-110274666D02*
X127722238Y-110274666D01*
X127817476Y-110322285D01*
X127865095Y-110369904D01*
X127912714Y-110465142D01*
X127912714Y-110608000D01*
X127865095Y-110703238D01*
X127531761Y-110274666D02*
X127579380Y-110369904D01*
X127579380Y-110560380D01*
X127531761Y-110655619D01*
X127484142Y-110703238D01*
X127388904Y-110750857D01*
X127103190Y-110750857D01*
X127007952Y-110703238D01*
X126960333Y-110655619D01*
X126912714Y-110560380D01*
X126912714Y-110369904D01*
X126960333Y-110274666D01*
X127579380Y-109369904D02*
X127055571Y-109369904D01*
X126960333Y-109417523D01*
X126912714Y-109512761D01*
X126912714Y-109703238D01*
X126960333Y-109798476D01*
X127531761Y-109369904D02*
X127579380Y-109465142D01*
X127579380Y-109703238D01*
X127531761Y-109798476D01*
X127436523Y-109846095D01*
X127341285Y-109846095D01*
X127246047Y-109798476D01*
X127198428Y-109703238D01*
X127198428Y-109465142D01*
X127150809Y-109369904D01*
X127293666Y-108179428D02*
X127293666Y-107703238D01*
X127579380Y-108274666D02*
X126579380Y-107941333D01*
X127579380Y-107608000D01*
X127579380Y-106846095D02*
X126579380Y-106846095D01*
X127531761Y-106846095D02*
X127579380Y-106941333D01*
X127579380Y-107131809D01*
X127531761Y-107227047D01*
X127484142Y-107274666D01*
X127388904Y-107322285D01*
X127103190Y-107322285D01*
X127007952Y-107274666D01*
X126960333Y-107227047D01*
X126912714Y-107131809D01*
X126912714Y-106941333D01*
X126960333Y-106846095D01*
X127579380Y-105941333D02*
X127055571Y-105941333D01*
X126960333Y-105988952D01*
X126912714Y-106084190D01*
X126912714Y-106274666D01*
X126960333Y-106369904D01*
X127531761Y-105941333D02*
X127579380Y-106036571D01*
X127579380Y-106274666D01*
X127531761Y-106369904D01*
X127436523Y-106417523D01*
X127341285Y-106417523D01*
X127246047Y-106369904D01*
X127198428Y-106274666D01*
X127198428Y-106036571D01*
X127150809Y-105941333D01*
X126912714Y-105465142D02*
X127912714Y-105465142D01*
X126960333Y-105465142D02*
X126912714Y-105369904D01*
X126912714Y-105179428D01*
X126960333Y-105084190D01*
X127007952Y-105036571D01*
X127103190Y-104988952D01*
X127388904Y-104988952D01*
X127484142Y-105036571D01*
X127531761Y-105084190D01*
X127579380Y-105179428D01*
X127579380Y-105369904D01*
X127531761Y-105465142D01*
X126912714Y-104703238D02*
X126912714Y-104322285D01*
X126579380Y-104560380D02*
X127436523Y-104560380D01*
X127531761Y-104512761D01*
X127579380Y-104417523D01*
X127579380Y-104322285D01*
X127531761Y-103608000D02*
X127579380Y-103703238D01*
X127579380Y-103893714D01*
X127531761Y-103988952D01*
X127436523Y-104036571D01*
X127055571Y-104036571D01*
X126960333Y-103988952D01*
X126912714Y-103893714D01*
X126912714Y-103703238D01*
X126960333Y-103608000D01*
X127055571Y-103560380D01*
X127150809Y-103560380D01*
X127246047Y-104036571D01*
X127579380Y-103131809D02*
X126912714Y-103131809D01*
X127103190Y-103131809D02*
X127007952Y-103084190D01*
X126960333Y-103036571D01*
X126912714Y-102941333D01*
X126912714Y-102846095D01*
X127579380Y-101750857D02*
X126579380Y-101750857D01*
X126579380Y-101369904D01*
X126627000Y-101274666D01*
X126674619Y-101227047D01*
X126769857Y-101179428D01*
X126912714Y-101179428D01*
X127007952Y-101227047D01*
X127055571Y-101274666D01*
X127103190Y-101369904D01*
X127103190Y-101750857D01*
X127579380Y-100750857D02*
X126912714Y-100750857D01*
X126579380Y-100750857D02*
X126627000Y-100798476D01*
X126674619Y-100750857D01*
X126627000Y-100703238D01*
X126579380Y-100750857D01*
X126674619Y-100750857D01*
X127579380Y-98941333D02*
X127103190Y-99274666D01*
X127579380Y-99512761D02*
X126579380Y-99512761D01*
X126579380Y-99131809D01*
X126627000Y-99036571D01*
X126674619Y-98988952D01*
X126769857Y-98941333D01*
X126912714Y-98941333D01*
X127007952Y-98988952D01*
X127055571Y-99036571D01*
X127103190Y-99131809D01*
X127103190Y-99512761D01*
X127531761Y-98131809D02*
X127579380Y-98227047D01*
X127579380Y-98417523D01*
X127531761Y-98512761D01*
X127436523Y-98560380D01*
X127055571Y-98560380D01*
X126960333Y-98512761D01*
X126912714Y-98417523D01*
X126912714Y-98227047D01*
X126960333Y-98131809D01*
X127055571Y-98084190D01*
X127150809Y-98084190D01*
X127246047Y-98560380D01*
X127579380Y-97512761D02*
X127531761Y-97608000D01*
X127436523Y-97655619D01*
X126579380Y-97655619D01*
X127579380Y-96988952D02*
X127531761Y-97084190D01*
X127484142Y-97131809D01*
X127388904Y-97179428D01*
X127103190Y-97179428D01*
X127007952Y-97131809D01*
X126960333Y-97084190D01*
X126912714Y-96988952D01*
X126912714Y-96846095D01*
X126960333Y-96750857D01*
X127007952Y-96703238D01*
X127103190Y-96655619D01*
X127388904Y-96655619D01*
X127484142Y-96703238D01*
X127531761Y-96750857D01*
X127579380Y-96846095D01*
X127579380Y-96988952D01*
X127531761Y-95798476D02*
X127579380Y-95893714D01*
X127579380Y-96084190D01*
X127531761Y-96179428D01*
X127484142Y-96227047D01*
X127388904Y-96274666D01*
X127103190Y-96274666D01*
X127007952Y-96227047D01*
X126960333Y-96179428D01*
X126912714Y-96084190D01*
X126912714Y-95893714D01*
X126960333Y-95798476D01*
X127579380Y-94941333D02*
X127055571Y-94941333D01*
X126960333Y-94988952D01*
X126912714Y-95084190D01*
X126912714Y-95274666D01*
X126960333Y-95369904D01*
X127531761Y-94941333D02*
X127579380Y-95036571D01*
X127579380Y-95274666D01*
X127531761Y-95369904D01*
X127436523Y-95417523D01*
X127341285Y-95417523D01*
X127246047Y-95369904D01*
X127198428Y-95274666D01*
X127198428Y-95036571D01*
X127150809Y-94941333D01*
X126912714Y-94608000D02*
X126912714Y-94227047D01*
X126579380Y-94465142D02*
X127436523Y-94465142D01*
X127531761Y-94417523D01*
X127579380Y-94322285D01*
X127579380Y-94227047D01*
X127579380Y-93750857D02*
X127531761Y-93846095D01*
X127484142Y-93893714D01*
X127388904Y-93941333D01*
X127103190Y-93941333D01*
X127007952Y-93893714D01*
X126960333Y-93846095D01*
X126912714Y-93750857D01*
X126912714Y-93608000D01*
X126960333Y-93512761D01*
X127007952Y-93465142D01*
X127103190Y-93417523D01*
X127388904Y-93417523D01*
X127484142Y-93465142D01*
X127531761Y-93512761D01*
X127579380Y-93608000D01*
X127579380Y-93750857D01*
X127579380Y-92988952D02*
X126912714Y-92988952D01*
X127103190Y-92988952D02*
X127007952Y-92941333D01*
X126960333Y-92893714D01*
X126912714Y-92798476D01*
X126912714Y-92703238D01*
X126579380Y-91750857D02*
X126579380Y-91179428D01*
X127579380Y-91465142D02*
X126579380Y-91465142D01*
X126912714Y-90941333D02*
X127579380Y-90703238D01*
X126912714Y-90465142D02*
X127579380Y-90703238D01*
X127817476Y-90798476D01*
X127865095Y-90846095D01*
X127912714Y-90941333D01*
X126912714Y-90084190D02*
X127912714Y-90084190D01*
X126960333Y-90084190D02*
X126912714Y-89988952D01*
X126912714Y-89798476D01*
X126960333Y-89703238D01*
X127007952Y-89655619D01*
X127103190Y-89608000D01*
X127388904Y-89608000D01*
X127484142Y-89655619D01*
X127531761Y-89703238D01*
X127579380Y-89798476D01*
X127579380Y-89988952D01*
X127531761Y-90084190D01*
X127531761Y-88798476D02*
X127579380Y-88893714D01*
X127579380Y-89084190D01*
X127531761Y-89179428D01*
X127436523Y-89227047D01*
X127055571Y-89227047D01*
X126960333Y-89179428D01*
X126912714Y-89084190D01*
X126912714Y-88893714D01*
X126960333Y-88798476D01*
X127055571Y-88750857D01*
X127150809Y-88750857D01*
X127246047Y-89227047D01*
X127055571Y-87227047D02*
X127103190Y-87084190D01*
X127150809Y-87036571D01*
X127246047Y-86988952D01*
X127388904Y-86988952D01*
X127484142Y-87036571D01*
X127531761Y-87084190D01*
X127579380Y-87179428D01*
X127579380Y-87560380D01*
X126579380Y-87560380D01*
X126579380Y-87227047D01*
X126627000Y-87131809D01*
X126674619Y-87084190D01*
X126769857Y-87036571D01*
X126865095Y-87036571D01*
X126960333Y-87084190D01*
X127007952Y-87131809D01*
X127055571Y-87227047D01*
X127055571Y-87560380D01*
X127579380Y-85227047D02*
X127103190Y-85560380D01*
X127579380Y-85798476D02*
X126579380Y-85798476D01*
X126579380Y-85417523D01*
X126627000Y-85322285D01*
X126674619Y-85274666D01*
X126769857Y-85227047D01*
X126912714Y-85227047D01*
X127007952Y-85274666D01*
X127055571Y-85322285D01*
X127103190Y-85417523D01*
X127103190Y-85798476D01*
X127531761Y-84417523D02*
X127579380Y-84512761D01*
X127579380Y-84703238D01*
X127531761Y-84798476D01*
X127436523Y-84846095D01*
X127055571Y-84846095D01*
X126960333Y-84798476D01*
X126912714Y-84703238D01*
X126912714Y-84512761D01*
X126960333Y-84417523D01*
X127055571Y-84369904D01*
X127150809Y-84369904D01*
X127246047Y-84846095D01*
X126912714Y-84036571D02*
X127579380Y-83798476D01*
X126912714Y-83560380D01*
X126674619Y-82465142D02*
X126627000Y-82417523D01*
X126579380Y-82322285D01*
X126579380Y-82084190D01*
X126627000Y-81988952D01*
X126674619Y-81941333D01*
X126769857Y-81893714D01*
X126865095Y-81893714D01*
X127007952Y-81941333D01*
X127579380Y-82512761D01*
X127579380Y-81893714D01*
D11*
%TO.C,C1*%
X128932000Y-58681252D02*
X128932000Y-58158748D01*
X130402000Y-58681252D02*
X130402000Y-58158748D01*
D10*
X127214333Y-57761142D02*
X127166714Y-57808761D01*
X127023857Y-57856380D01*
X126928619Y-57856380D01*
X126785761Y-57808761D01*
X126690523Y-57713523D01*
X126642904Y-57618285D01*
X126595285Y-57427809D01*
X126595285Y-57284952D01*
X126642904Y-57094476D01*
X126690523Y-56999238D01*
X126785761Y-56904000D01*
X126928619Y-56856380D01*
X127023857Y-56856380D01*
X127166714Y-56904000D01*
X127214333Y-56951619D01*
X128166714Y-57856380D02*
X127595285Y-57856380D01*
X127881000Y-57856380D02*
X127881000Y-56856380D01*
X127785761Y-56999238D01*
X127690523Y-57094476D01*
X127595285Y-57142095D01*
X126554000Y-59434428D02*
X126554000Y-59834428D01*
X126411142Y-59205857D02*
X126268285Y-59634428D01*
X126639714Y-59634428D01*
X126811142Y-59234428D02*
X127211142Y-59234428D01*
X126954000Y-59834428D01*
X127439714Y-59434428D02*
X127439714Y-60034428D01*
X127439714Y-59463000D02*
X127496857Y-59434428D01*
X127611142Y-59434428D01*
X127668285Y-59463000D01*
X127696857Y-59491571D01*
X127725428Y-59548714D01*
X127725428Y-59720142D01*
X127696857Y-59777285D01*
X127668285Y-59805857D01*
X127611142Y-59834428D01*
X127496857Y-59834428D01*
X127439714Y-59805857D01*
X128182571Y-59520142D02*
X127982571Y-59520142D01*
X127982571Y-59834428D02*
X127982571Y-59234428D01*
X128268285Y-59234428D01*
%TD*%
M02*
