%TF.GenerationSoftware,KiCad,Pcbnew,(5.1.9)-1*%
%TF.CreationDate,2021-05-22T07:15:07+01:00*%
%TF.ProjectId,RGBtoHDMI Amiga Denise CPLD FFC,52474274-6f48-4444-9d49-20416d696761,rev?*%
%TF.SameCoordinates,Original*%
%TF.FileFunction,Legend,Top*%
%TF.FilePolarity,Positive*%
%FSLAX46Y46*%
G04 Gerber Fmt 4.6, Leading zero omitted, Abs format (unit mm)*
G04 Created by KiCad (PCBNEW (5.1.9)-1) date 2021-05-22 07:15:07*
%MOMM*%
%LPD*%
G01*
G04 APERTURE LIST*
%ADD10C,0.100000*%
%ADD11C,0.120000*%
%ADD12C,0.300000*%
%ADD13C,0.500000*%
%ADD14C,0.150000*%
%ADD15C,1.000000*%
%ADD16C,0.254000*%
G04 APERTURE END LIST*
D10*
X141454285Y-71426428D02*
X141797142Y-71426428D01*
X141625714Y-72026428D02*
X141625714Y-71426428D01*
X141997142Y-72026428D02*
X141997142Y-71426428D01*
X142140000Y-71426428D01*
X142225714Y-71455000D01*
X142282857Y-71512142D01*
X142311428Y-71569285D01*
X142340000Y-71683571D01*
X142340000Y-71769285D01*
X142311428Y-71883571D01*
X142282857Y-71940714D01*
X142225714Y-71997857D01*
X142140000Y-72026428D01*
X141997142Y-72026428D01*
X142711428Y-71426428D02*
X142825714Y-71426428D01*
X142882857Y-71455000D01*
X142940000Y-71512142D01*
X142968571Y-71626428D01*
X142968571Y-71826428D01*
X142940000Y-71940714D01*
X142882857Y-71997857D01*
X142825714Y-72026428D01*
X142711428Y-72026428D01*
X142654285Y-71997857D01*
X142597142Y-71940714D01*
X142568571Y-71826428D01*
X142568571Y-71626428D01*
X142597142Y-71512142D01*
X142654285Y-71455000D01*
X142711428Y-71426428D01*
X128925714Y-77903428D02*
X129268571Y-77903428D01*
X129097142Y-78503428D02*
X129097142Y-77903428D01*
X129468571Y-78503428D02*
X129468571Y-77903428D01*
X129611428Y-77903428D01*
X129697142Y-77932000D01*
X129754285Y-77989142D01*
X129782857Y-78046285D01*
X129811428Y-78160571D01*
X129811428Y-78246285D01*
X129782857Y-78360571D01*
X129754285Y-78417714D01*
X129697142Y-78474857D01*
X129611428Y-78503428D01*
X129468571Y-78503428D01*
X130068571Y-78503428D02*
X130068571Y-77903428D01*
X128740000Y-71426428D02*
X129082857Y-71426428D01*
X128911428Y-72026428D02*
X128911428Y-71426428D01*
X129282857Y-72026428D02*
X129282857Y-71426428D01*
X129482857Y-71855000D01*
X129682857Y-71426428D01*
X129682857Y-72026428D01*
X129940000Y-71997857D02*
X130025714Y-72026428D01*
X130168571Y-72026428D01*
X130225714Y-71997857D01*
X130254285Y-71969285D01*
X130282857Y-71912142D01*
X130282857Y-71855000D01*
X130254285Y-71797857D01*
X130225714Y-71769285D01*
X130168571Y-71740714D01*
X130054285Y-71712142D01*
X129997142Y-71683571D01*
X129968571Y-71655000D01*
X129940000Y-71597857D01*
X129940000Y-71540714D01*
X129968571Y-71483571D01*
X129997142Y-71455000D01*
X130054285Y-71426428D01*
X130197142Y-71426428D01*
X130282857Y-71455000D01*
X116068571Y-71426428D02*
X116411428Y-71426428D01*
X116240000Y-72026428D02*
X116240000Y-71426428D01*
X116954285Y-71969285D02*
X116925714Y-71997857D01*
X116840000Y-72026428D01*
X116782857Y-72026428D01*
X116697142Y-71997857D01*
X116640000Y-71940714D01*
X116611428Y-71883571D01*
X116582857Y-71769285D01*
X116582857Y-71683571D01*
X116611428Y-71569285D01*
X116640000Y-71512142D01*
X116697142Y-71455000D01*
X116782857Y-71426428D01*
X116840000Y-71426428D01*
X116925714Y-71455000D01*
X116954285Y-71483571D01*
X117211428Y-72026428D02*
X117211428Y-71426428D01*
X117554285Y-72026428D02*
X117297142Y-71683571D01*
X117554285Y-71426428D02*
X117211428Y-71769285D01*
X142390785Y-99904428D02*
X142419357Y-99933000D01*
X142447928Y-100018714D01*
X142447928Y-100075857D01*
X142419357Y-100161571D01*
X142362214Y-100218714D01*
X142305071Y-100247285D01*
X142190785Y-100275857D01*
X142105071Y-100275857D01*
X141990785Y-100247285D01*
X141933642Y-100218714D01*
X141876500Y-100161571D01*
X141847928Y-100075857D01*
X141847928Y-100018714D01*
X141876500Y-99933000D01*
X141905071Y-99904428D01*
X142419357Y-99675857D02*
X142447928Y-99590142D01*
X142447928Y-99447285D01*
X142419357Y-99390142D01*
X142390785Y-99361571D01*
X142333642Y-99333000D01*
X142276500Y-99333000D01*
X142219357Y-99361571D01*
X142190785Y-99390142D01*
X142162214Y-99447285D01*
X142133642Y-99561571D01*
X142105071Y-99618714D01*
X142076500Y-99647285D01*
X142019357Y-99675857D01*
X141962214Y-99675857D01*
X141905071Y-99647285D01*
X141876500Y-99618714D01*
X141847928Y-99561571D01*
X141847928Y-99418714D01*
X141876500Y-99333000D01*
X142162214Y-98961571D02*
X142447928Y-98961571D01*
X141847928Y-99161571D02*
X142162214Y-98961571D01*
X141847928Y-98761571D01*
X142447928Y-98561571D02*
X141847928Y-98561571D01*
X142447928Y-98218714D01*
X141847928Y-98218714D01*
X142390785Y-97590142D02*
X142419357Y-97618714D01*
X142447928Y-97704428D01*
X142447928Y-97761571D01*
X142419357Y-97847285D01*
X142362214Y-97904428D01*
X142305071Y-97933000D01*
X142190785Y-97961571D01*
X142105071Y-97961571D01*
X141990785Y-97933000D01*
X141933642Y-97904428D01*
X141876500Y-97847285D01*
X141847928Y-97761571D01*
X141847928Y-97704428D01*
X141876500Y-97618714D01*
X141905071Y-97590142D01*
X145877000Y-99950571D02*
X145848428Y-100007714D01*
X145848428Y-100093428D01*
X145877000Y-100179142D01*
X145934142Y-100236285D01*
X145991285Y-100264857D01*
X146105571Y-100293428D01*
X146191285Y-100293428D01*
X146305571Y-100264857D01*
X146362714Y-100236285D01*
X146419857Y-100179142D01*
X146448428Y-100093428D01*
X146448428Y-100036285D01*
X146419857Y-99950571D01*
X146391285Y-99922000D01*
X146191285Y-99922000D01*
X146191285Y-100036285D01*
X146448428Y-99350571D02*
X146448428Y-99693428D01*
X146448428Y-99522000D02*
X145848428Y-99522000D01*
X145934142Y-99579142D01*
X145991285Y-99636285D01*
X146019857Y-99693428D01*
X146829500Y-99950571D02*
X146800928Y-100007714D01*
X146800928Y-100093428D01*
X146829500Y-100179142D01*
X146886642Y-100236285D01*
X146943785Y-100264857D01*
X147058071Y-100293428D01*
X147143785Y-100293428D01*
X147258071Y-100264857D01*
X147315214Y-100236285D01*
X147372357Y-100179142D01*
X147400928Y-100093428D01*
X147400928Y-100036285D01*
X147372357Y-99950571D01*
X147343785Y-99922000D01*
X147143785Y-99922000D01*
X147143785Y-100036285D01*
X146800928Y-99550571D02*
X146800928Y-99493428D01*
X146829500Y-99436285D01*
X146858071Y-99407714D01*
X146915214Y-99379142D01*
X147029500Y-99350571D01*
X147172357Y-99350571D01*
X147286642Y-99379142D01*
X147343785Y-99407714D01*
X147372357Y-99436285D01*
X147400928Y-99493428D01*
X147400928Y-99550571D01*
X147372357Y-99607714D01*
X147343785Y-99636285D01*
X147286642Y-99664857D01*
X147172357Y-99693428D01*
X147029500Y-99693428D01*
X146915214Y-99664857D01*
X146858071Y-99636285D01*
X146829500Y-99607714D01*
X146800928Y-99550571D01*
X144861000Y-99950571D02*
X144832428Y-100007714D01*
X144832428Y-100093428D01*
X144861000Y-100179142D01*
X144918142Y-100236285D01*
X144975285Y-100264857D01*
X145089571Y-100293428D01*
X145175285Y-100293428D01*
X145289571Y-100264857D01*
X145346714Y-100236285D01*
X145403857Y-100179142D01*
X145432428Y-100093428D01*
X145432428Y-100036285D01*
X145403857Y-99950571D01*
X145375285Y-99922000D01*
X145175285Y-99922000D01*
X145175285Y-100036285D01*
X144889571Y-99693428D02*
X144861000Y-99664857D01*
X144832428Y-99607714D01*
X144832428Y-99464857D01*
X144861000Y-99407714D01*
X144889571Y-99379142D01*
X144946714Y-99350571D01*
X145003857Y-99350571D01*
X145089571Y-99379142D01*
X145432428Y-99722000D01*
X145432428Y-99350571D01*
X143845000Y-99950571D02*
X143816428Y-100007714D01*
X143816428Y-100093428D01*
X143845000Y-100179142D01*
X143902142Y-100236285D01*
X143959285Y-100264857D01*
X144073571Y-100293428D01*
X144159285Y-100293428D01*
X144273571Y-100264857D01*
X144330714Y-100236285D01*
X144387857Y-100179142D01*
X144416428Y-100093428D01*
X144416428Y-100036285D01*
X144387857Y-99950571D01*
X144359285Y-99922000D01*
X144159285Y-99922000D01*
X144159285Y-100036285D01*
X143816428Y-99722000D02*
X143816428Y-99350571D01*
X144045000Y-99550571D01*
X144045000Y-99464857D01*
X144073571Y-99407714D01*
X144102142Y-99379142D01*
X144159285Y-99350571D01*
X144302142Y-99350571D01*
X144359285Y-99379142D01*
X144387857Y-99407714D01*
X144416428Y-99464857D01*
X144416428Y-99636285D01*
X144387857Y-99693428D01*
X144359285Y-99722000D01*
X149118642Y-100064857D02*
X149147214Y-99979142D01*
X149175785Y-99950571D01*
X149232928Y-99922000D01*
X149318642Y-99922000D01*
X149375785Y-99950571D01*
X149404357Y-99979142D01*
X149432928Y-100036285D01*
X149432928Y-100264857D01*
X148832928Y-100264857D01*
X148832928Y-100064857D01*
X148861500Y-100007714D01*
X148890071Y-99979142D01*
X148947214Y-99950571D01*
X149004357Y-99950571D01*
X149061500Y-99979142D01*
X149090071Y-100007714D01*
X149118642Y-100064857D01*
X149118642Y-100264857D01*
X148890071Y-99693428D02*
X148861500Y-99664857D01*
X148832928Y-99607714D01*
X148832928Y-99464857D01*
X148861500Y-99407714D01*
X148890071Y-99379142D01*
X148947214Y-99350571D01*
X149004357Y-99350571D01*
X149090071Y-99379142D01*
X149432928Y-99722000D01*
X149432928Y-99350571D01*
X151087142Y-100064857D02*
X151115714Y-99979142D01*
X151144285Y-99950571D01*
X151201428Y-99922000D01*
X151287142Y-99922000D01*
X151344285Y-99950571D01*
X151372857Y-99979142D01*
X151401428Y-100036285D01*
X151401428Y-100264857D01*
X150801428Y-100264857D01*
X150801428Y-100064857D01*
X150830000Y-100007714D01*
X150858571Y-99979142D01*
X150915714Y-99950571D01*
X150972857Y-99950571D01*
X151030000Y-99979142D01*
X151058571Y-100007714D01*
X151087142Y-100064857D01*
X151087142Y-100264857D01*
X150801428Y-99550571D02*
X150801428Y-99493428D01*
X150830000Y-99436285D01*
X150858571Y-99407714D01*
X150915714Y-99379142D01*
X151030000Y-99350571D01*
X151172857Y-99350571D01*
X151287142Y-99379142D01*
X151344285Y-99407714D01*
X151372857Y-99436285D01*
X151401428Y-99493428D01*
X151401428Y-99550571D01*
X151372857Y-99607714D01*
X151344285Y-99636285D01*
X151287142Y-99664857D01*
X151172857Y-99693428D01*
X151030000Y-99693428D01*
X150915714Y-99664857D01*
X150858571Y-99636285D01*
X150830000Y-99607714D01*
X150801428Y-99550571D01*
X150134642Y-100064857D02*
X150163214Y-99979142D01*
X150191785Y-99950571D01*
X150248928Y-99922000D01*
X150334642Y-99922000D01*
X150391785Y-99950571D01*
X150420357Y-99979142D01*
X150448928Y-100036285D01*
X150448928Y-100264857D01*
X149848928Y-100264857D01*
X149848928Y-100064857D01*
X149877500Y-100007714D01*
X149906071Y-99979142D01*
X149963214Y-99950571D01*
X150020357Y-99950571D01*
X150077500Y-99979142D01*
X150106071Y-100007714D01*
X150134642Y-100064857D01*
X150134642Y-100264857D01*
X150448928Y-99350571D02*
X150448928Y-99693428D01*
X150448928Y-99522000D02*
X149848928Y-99522000D01*
X149934642Y-99579142D01*
X149991785Y-99636285D01*
X150020357Y-99693428D01*
X148102642Y-100064857D02*
X148131214Y-99979142D01*
X148159785Y-99950571D01*
X148216928Y-99922000D01*
X148302642Y-99922000D01*
X148359785Y-99950571D01*
X148388357Y-99979142D01*
X148416928Y-100036285D01*
X148416928Y-100264857D01*
X147816928Y-100264857D01*
X147816928Y-100064857D01*
X147845500Y-100007714D01*
X147874071Y-99979142D01*
X147931214Y-99950571D01*
X147988357Y-99950571D01*
X148045500Y-99979142D01*
X148074071Y-100007714D01*
X148102642Y-100064857D01*
X148102642Y-100264857D01*
X147816928Y-99722000D02*
X147816928Y-99350571D01*
X148045500Y-99550571D01*
X148045500Y-99464857D01*
X148074071Y-99407714D01*
X148102642Y-99379142D01*
X148159785Y-99350571D01*
X148302642Y-99350571D01*
X148359785Y-99379142D01*
X148388357Y-99407714D01*
X148416928Y-99464857D01*
X148416928Y-99636285D01*
X148388357Y-99693428D01*
X148359785Y-99722000D01*
X152353928Y-99922000D02*
X152068214Y-100122000D01*
X152353928Y-100264857D02*
X151753928Y-100264857D01*
X151753928Y-100036285D01*
X151782500Y-99979142D01*
X151811071Y-99950571D01*
X151868214Y-99922000D01*
X151953928Y-99922000D01*
X152011071Y-99950571D01*
X152039642Y-99979142D01*
X152068214Y-100036285D01*
X152068214Y-100264857D01*
X151753928Y-99722000D02*
X151753928Y-99350571D01*
X151982500Y-99550571D01*
X151982500Y-99464857D01*
X152011071Y-99407714D01*
X152039642Y-99379142D01*
X152096785Y-99350571D01*
X152239642Y-99350571D01*
X152296785Y-99379142D01*
X152325357Y-99407714D01*
X152353928Y-99464857D01*
X152353928Y-99636285D01*
X152325357Y-99693428D01*
X152296785Y-99722000D01*
X140131857Y-98379000D02*
X140074714Y-98350428D01*
X139989000Y-98350428D01*
X139903285Y-98379000D01*
X139846142Y-98436142D01*
X139817571Y-98493285D01*
X139789000Y-98607571D01*
X139789000Y-98693285D01*
X139817571Y-98807571D01*
X139846142Y-98864714D01*
X139903285Y-98921857D01*
X139989000Y-98950428D01*
X140046142Y-98950428D01*
X140131857Y-98921857D01*
X140160428Y-98893285D01*
X140160428Y-98693285D01*
X140046142Y-98693285D01*
X140417571Y-98950428D02*
X140417571Y-98350428D01*
X140760428Y-98950428D01*
X140760428Y-98350428D01*
X141046142Y-98950428D02*
X141046142Y-98350428D01*
X141189000Y-98350428D01*
X141274714Y-98379000D01*
X141331857Y-98436142D01*
X141360428Y-98493285D01*
X141389000Y-98607571D01*
X141389000Y-98693285D01*
X141360428Y-98807571D01*
X141331857Y-98864714D01*
X141274714Y-98921857D01*
X141189000Y-98950428D01*
X141046142Y-98950428D01*
X153369928Y-99922000D02*
X153084214Y-100122000D01*
X153369928Y-100264857D02*
X152769928Y-100264857D01*
X152769928Y-100036285D01*
X152798500Y-99979142D01*
X152827071Y-99950571D01*
X152884214Y-99922000D01*
X152969928Y-99922000D01*
X153027071Y-99950571D01*
X153055642Y-99979142D01*
X153084214Y-100036285D01*
X153084214Y-100264857D01*
X152827071Y-99693428D02*
X152798500Y-99664857D01*
X152769928Y-99607714D01*
X152769928Y-99464857D01*
X152798500Y-99407714D01*
X152827071Y-99379142D01*
X152884214Y-99350571D01*
X152941357Y-99350571D01*
X153027071Y-99379142D01*
X153369928Y-99722000D01*
X153369928Y-99350571D01*
X154385928Y-99922000D02*
X154100214Y-100122000D01*
X154385928Y-100264857D02*
X153785928Y-100264857D01*
X153785928Y-100036285D01*
X153814500Y-99979142D01*
X153843071Y-99950571D01*
X153900214Y-99922000D01*
X153985928Y-99922000D01*
X154043071Y-99950571D01*
X154071642Y-99979142D01*
X154100214Y-100036285D01*
X154100214Y-100264857D01*
X154385928Y-99350571D02*
X154385928Y-99693428D01*
X154385928Y-99522000D02*
X153785928Y-99522000D01*
X153871642Y-99579142D01*
X153928785Y-99636285D01*
X153957357Y-99693428D01*
X155338428Y-99922000D02*
X155052714Y-100122000D01*
X155338428Y-100264857D02*
X154738428Y-100264857D01*
X154738428Y-100036285D01*
X154767000Y-99979142D01*
X154795571Y-99950571D01*
X154852714Y-99922000D01*
X154938428Y-99922000D01*
X154995571Y-99950571D01*
X155024142Y-99979142D01*
X155052714Y-100036285D01*
X155052714Y-100264857D01*
X154738428Y-99550571D02*
X154738428Y-99493428D01*
X154767000Y-99436285D01*
X154795571Y-99407714D01*
X154852714Y-99379142D01*
X154967000Y-99350571D01*
X155109857Y-99350571D01*
X155224142Y-99379142D01*
X155281285Y-99407714D01*
X155309857Y-99436285D01*
X155338428Y-99493428D01*
X155338428Y-99550571D01*
X155309857Y-99607714D01*
X155281285Y-99636285D01*
X155224142Y-99664857D01*
X155109857Y-99693428D01*
X154967000Y-99693428D01*
X154852714Y-99664857D01*
X154795571Y-99636285D01*
X154767000Y-99607714D01*
X154738428Y-99550571D01*
X155819571Y-99991857D02*
X156276714Y-99991857D01*
X156048142Y-100220428D02*
X156048142Y-99763285D01*
X156848142Y-99620428D02*
X156562428Y-99620428D01*
X156533857Y-99906142D01*
X156562428Y-99877571D01*
X156619571Y-99849000D01*
X156762428Y-99849000D01*
X156819571Y-99877571D01*
X156848142Y-99906142D01*
X156876714Y-99963285D01*
X156876714Y-100106142D01*
X156848142Y-100163285D01*
X156819571Y-100191857D01*
X156762428Y-100220428D01*
X156619571Y-100220428D01*
X156562428Y-100191857D01*
X156533857Y-100163285D01*
X157048142Y-99620428D02*
X157248142Y-100220428D01*
X157448142Y-99620428D01*
D11*
X140081000Y-99949000D02*
X139700000Y-99314000D01*
X140462000Y-99314000D02*
X140081000Y-99949000D01*
X139700000Y-99314000D02*
X140462000Y-99314000D01*
D10*
X176004000Y-89284285D02*
X176075428Y-89308095D01*
X176099238Y-89331904D01*
X176123047Y-89379523D01*
X176123047Y-89450952D01*
X176099238Y-89498571D01*
X176075428Y-89522380D01*
X176027809Y-89546190D01*
X175837333Y-89546190D01*
X175837333Y-89046190D01*
X176004000Y-89046190D01*
X176051619Y-89070000D01*
X176075428Y-89093809D01*
X176099238Y-89141428D01*
X176099238Y-89189047D01*
X176075428Y-89236666D01*
X176051619Y-89260476D01*
X176004000Y-89284285D01*
X175837333Y-89284285D01*
X176551619Y-89212857D02*
X176551619Y-89546190D01*
X176337333Y-89212857D02*
X176337333Y-89474761D01*
X176361143Y-89522380D01*
X176408762Y-89546190D01*
X176480190Y-89546190D01*
X176527809Y-89522380D01*
X176551619Y-89498571D01*
X176718285Y-89212857D02*
X176908762Y-89212857D01*
X176789714Y-89546190D02*
X176789714Y-89117619D01*
X176813523Y-89070000D01*
X176861143Y-89046190D01*
X176908762Y-89046190D01*
X177004000Y-89212857D02*
X177194476Y-89212857D01*
X177075428Y-89546190D02*
X177075428Y-89117619D01*
X177099238Y-89070000D01*
X177146857Y-89046190D01*
X177194476Y-89046190D01*
X177551619Y-89522380D02*
X177504000Y-89546190D01*
X177408762Y-89546190D01*
X177361143Y-89522380D01*
X177337333Y-89474761D01*
X177337333Y-89284285D01*
X177361143Y-89236666D01*
X177408762Y-89212857D01*
X177504000Y-89212857D01*
X177551619Y-89236666D01*
X177575428Y-89284285D01*
X177575428Y-89331904D01*
X177337333Y-89379523D01*
X177789714Y-89546190D02*
X177789714Y-89212857D01*
X177789714Y-89308095D02*
X177813523Y-89260476D01*
X177837333Y-89236666D01*
X177884952Y-89212857D01*
X177932571Y-89212857D01*
X178289714Y-89522380D02*
X178242095Y-89546190D01*
X178146857Y-89546190D01*
X178099238Y-89522380D01*
X178075428Y-89474761D01*
X178075428Y-89284285D01*
X178099238Y-89236666D01*
X178146857Y-89212857D01*
X178242095Y-89212857D01*
X178289714Y-89236666D01*
X178313523Y-89284285D01*
X178313523Y-89331904D01*
X178075428Y-89379523D01*
X178742095Y-89546190D02*
X178742095Y-89046190D01*
X178742095Y-89522380D02*
X178694476Y-89546190D01*
X178599238Y-89546190D01*
X178551619Y-89522380D01*
X178527809Y-89498571D01*
X178504000Y-89450952D01*
X178504000Y-89308095D01*
X178527809Y-89260476D01*
X178551619Y-89236666D01*
X178599238Y-89212857D01*
X178694476Y-89212857D01*
X178742095Y-89236666D01*
X176289714Y-90396190D02*
X176289714Y-89896190D01*
X176408762Y-89896190D01*
X176480190Y-89920000D01*
X176527809Y-89967619D01*
X176551619Y-90015238D01*
X176575428Y-90110476D01*
X176575428Y-90181904D01*
X176551619Y-90277142D01*
X176527809Y-90324761D01*
X176480190Y-90372380D01*
X176408762Y-90396190D01*
X176289714Y-90396190D01*
X176789714Y-90396190D02*
X176789714Y-90062857D01*
X176789714Y-89896190D02*
X176765904Y-89920000D01*
X176789714Y-89943809D01*
X176813523Y-89920000D01*
X176789714Y-89896190D01*
X176789714Y-89943809D01*
X177004000Y-90372380D02*
X177051619Y-90396190D01*
X177146857Y-90396190D01*
X177194476Y-90372380D01*
X177218285Y-90324761D01*
X177218285Y-90300952D01*
X177194476Y-90253333D01*
X177146857Y-90229523D01*
X177075428Y-90229523D01*
X177027809Y-90205714D01*
X177004000Y-90158095D01*
X177004000Y-90134285D01*
X177027809Y-90086666D01*
X177075428Y-90062857D01*
X177146857Y-90062857D01*
X177194476Y-90086666D01*
X177432571Y-90062857D02*
X177432571Y-90562857D01*
X177432571Y-90086666D02*
X177480190Y-90062857D01*
X177575428Y-90062857D01*
X177623047Y-90086666D01*
X177646857Y-90110476D01*
X177670666Y-90158095D01*
X177670666Y-90300952D01*
X177646857Y-90348571D01*
X177623047Y-90372380D01*
X177575428Y-90396190D01*
X177480190Y-90396190D01*
X177432571Y-90372380D01*
X177956381Y-90396190D02*
X177908762Y-90372380D01*
X177884952Y-90324761D01*
X177884952Y-89896190D01*
X178361143Y-90396190D02*
X178361143Y-90134285D01*
X178337333Y-90086666D01*
X178289714Y-90062857D01*
X178194476Y-90062857D01*
X178146857Y-90086666D01*
X178361143Y-90372380D02*
X178313523Y-90396190D01*
X178194476Y-90396190D01*
X178146857Y-90372380D01*
X178123047Y-90324761D01*
X178123047Y-90277142D01*
X178146857Y-90229523D01*
X178194476Y-90205714D01*
X178313523Y-90205714D01*
X178361143Y-90181904D01*
X178551619Y-90062857D02*
X178670666Y-90396190D01*
X178789714Y-90062857D02*
X178670666Y-90396190D01*
X178623047Y-90515238D01*
X178599238Y-90539047D01*
X178551619Y-90562857D01*
X177813523Y-90746190D02*
X177908762Y-90746190D01*
X177956381Y-90770000D01*
X178004000Y-90817619D01*
X178027809Y-90912857D01*
X178027809Y-91079523D01*
X178004000Y-91174761D01*
X177956381Y-91222380D01*
X177908762Y-91246190D01*
X177813523Y-91246190D01*
X177765904Y-91222380D01*
X177718285Y-91174761D01*
X177694476Y-91079523D01*
X177694476Y-90912857D01*
X177718285Y-90817619D01*
X177765904Y-90770000D01*
X177813523Y-90746190D01*
X178456381Y-90912857D02*
X178456381Y-91246190D01*
X178242095Y-90912857D02*
X178242095Y-91174761D01*
X178265904Y-91222380D01*
X178313523Y-91246190D01*
X178384952Y-91246190D01*
X178432571Y-91222380D01*
X178456381Y-91198571D01*
X178623047Y-90912857D02*
X178813523Y-90912857D01*
X178694476Y-90746190D02*
X178694476Y-91174761D01*
X178718285Y-91222380D01*
X178765904Y-91246190D01*
X178813523Y-91246190D01*
X176289714Y-87431190D02*
X176289714Y-86931190D01*
X176408762Y-86931190D01*
X176480190Y-86955000D01*
X176527809Y-87002619D01*
X176551619Y-87050238D01*
X176575428Y-87145476D01*
X176575428Y-87216904D01*
X176551619Y-87312142D01*
X176527809Y-87359761D01*
X176480190Y-87407380D01*
X176408762Y-87431190D01*
X176289714Y-87431190D01*
X176789714Y-87431190D02*
X176789714Y-87097857D01*
X176789714Y-86931190D02*
X176765904Y-86955000D01*
X176789714Y-86978809D01*
X176813523Y-86955000D01*
X176789714Y-86931190D01*
X176789714Y-86978809D01*
X177004000Y-87407380D02*
X177051619Y-87431190D01*
X177146857Y-87431190D01*
X177194476Y-87407380D01*
X177218285Y-87359761D01*
X177218285Y-87335952D01*
X177194476Y-87288333D01*
X177146857Y-87264523D01*
X177075428Y-87264523D01*
X177027809Y-87240714D01*
X177004000Y-87193095D01*
X177004000Y-87169285D01*
X177027809Y-87121666D01*
X177075428Y-87097857D01*
X177146857Y-87097857D01*
X177194476Y-87121666D01*
X177432571Y-87097857D02*
X177432571Y-87597857D01*
X177432571Y-87121666D02*
X177480190Y-87097857D01*
X177575428Y-87097857D01*
X177623047Y-87121666D01*
X177646857Y-87145476D01*
X177670666Y-87193095D01*
X177670666Y-87335952D01*
X177646857Y-87383571D01*
X177623047Y-87407380D01*
X177575428Y-87431190D01*
X177480190Y-87431190D01*
X177432571Y-87407380D01*
X177956381Y-87431190D02*
X177908762Y-87407380D01*
X177884952Y-87359761D01*
X177884952Y-86931190D01*
X178361143Y-87431190D02*
X178361143Y-87169285D01*
X178337333Y-87121666D01*
X178289714Y-87097857D01*
X178194476Y-87097857D01*
X178146857Y-87121666D01*
X178361143Y-87407380D02*
X178313523Y-87431190D01*
X178194476Y-87431190D01*
X178146857Y-87407380D01*
X178123047Y-87359761D01*
X178123047Y-87312142D01*
X178146857Y-87264523D01*
X178194476Y-87240714D01*
X178313523Y-87240714D01*
X178361143Y-87216904D01*
X178551619Y-87097857D02*
X178670666Y-87431190D01*
X178789714Y-87097857D02*
X178670666Y-87431190D01*
X178623047Y-87550238D01*
X178599238Y-87574047D01*
X178551619Y-87597857D01*
X176480190Y-88019285D02*
X176646857Y-88019285D01*
X176718285Y-88281190D02*
X176480190Y-88281190D01*
X176480190Y-87781190D01*
X176718285Y-87781190D01*
X176932571Y-87947857D02*
X176932571Y-88281190D01*
X176932571Y-87995476D02*
X176956381Y-87971666D01*
X177004000Y-87947857D01*
X177075428Y-87947857D01*
X177123047Y-87971666D01*
X177146857Y-88019285D01*
X177146857Y-88281190D01*
X177599238Y-88281190D02*
X177599238Y-88019285D01*
X177575428Y-87971666D01*
X177527809Y-87947857D01*
X177432571Y-87947857D01*
X177384952Y-87971666D01*
X177599238Y-88257380D02*
X177551619Y-88281190D01*
X177432571Y-88281190D01*
X177384952Y-88257380D01*
X177361143Y-88209761D01*
X177361143Y-88162142D01*
X177384952Y-88114523D01*
X177432571Y-88090714D01*
X177551619Y-88090714D01*
X177599238Y-88066904D01*
X177837333Y-88281190D02*
X177837333Y-87781190D01*
X177837333Y-87971666D02*
X177884952Y-87947857D01*
X177980190Y-87947857D01*
X178027809Y-87971666D01*
X178051619Y-87995476D01*
X178075428Y-88043095D01*
X178075428Y-88185952D01*
X178051619Y-88233571D01*
X178027809Y-88257380D01*
X177980190Y-88281190D01*
X177884952Y-88281190D01*
X177837333Y-88257380D01*
X178361143Y-88281190D02*
X178313523Y-88257380D01*
X178289714Y-88209761D01*
X178289714Y-87781190D01*
X178742095Y-88257380D02*
X178694476Y-88281190D01*
X178599238Y-88281190D01*
X178551619Y-88257380D01*
X178527809Y-88209761D01*
X178527809Y-88019285D01*
X178551619Y-87971666D01*
X178599238Y-87947857D01*
X178694476Y-87947857D01*
X178742095Y-87971666D01*
X178765904Y-88019285D01*
X178765904Y-88066904D01*
X178527809Y-88114523D01*
X176289714Y-84891190D02*
X176289714Y-84391190D01*
X176408762Y-84391190D01*
X176480190Y-84415000D01*
X176527809Y-84462619D01*
X176551619Y-84510238D01*
X176575428Y-84605476D01*
X176575428Y-84676904D01*
X176551619Y-84772142D01*
X176527809Y-84819761D01*
X176480190Y-84867380D01*
X176408762Y-84891190D01*
X176289714Y-84891190D01*
X176789714Y-84891190D02*
X176789714Y-84557857D01*
X176789714Y-84391190D02*
X176765904Y-84415000D01*
X176789714Y-84438809D01*
X176813523Y-84415000D01*
X176789714Y-84391190D01*
X176789714Y-84438809D01*
X177004000Y-84867380D02*
X177051619Y-84891190D01*
X177146857Y-84891190D01*
X177194476Y-84867380D01*
X177218285Y-84819761D01*
X177218285Y-84795952D01*
X177194476Y-84748333D01*
X177146857Y-84724523D01*
X177075428Y-84724523D01*
X177027809Y-84700714D01*
X177004000Y-84653095D01*
X177004000Y-84629285D01*
X177027809Y-84581666D01*
X177075428Y-84557857D01*
X177146857Y-84557857D01*
X177194476Y-84581666D01*
X177432571Y-84557857D02*
X177432571Y-85057857D01*
X177432571Y-84581666D02*
X177480190Y-84557857D01*
X177575428Y-84557857D01*
X177623047Y-84581666D01*
X177646857Y-84605476D01*
X177670666Y-84653095D01*
X177670666Y-84795952D01*
X177646857Y-84843571D01*
X177623047Y-84867380D01*
X177575428Y-84891190D01*
X177480190Y-84891190D01*
X177432571Y-84867380D01*
X177956381Y-84891190D02*
X177908762Y-84867380D01*
X177884952Y-84819761D01*
X177884952Y-84391190D01*
X178361143Y-84891190D02*
X178361143Y-84629285D01*
X178337333Y-84581666D01*
X178289714Y-84557857D01*
X178194476Y-84557857D01*
X178146857Y-84581666D01*
X178361143Y-84867380D02*
X178313523Y-84891190D01*
X178194476Y-84891190D01*
X178146857Y-84867380D01*
X178123047Y-84819761D01*
X178123047Y-84772142D01*
X178146857Y-84724523D01*
X178194476Y-84700714D01*
X178313523Y-84700714D01*
X178361143Y-84676904D01*
X178551619Y-84557857D02*
X178670666Y-84891190D01*
X178789714Y-84557857D02*
X178670666Y-84891190D01*
X178623047Y-85010238D01*
X178599238Y-85034047D01*
X178551619Y-85057857D01*
X177813523Y-85241190D02*
X177908762Y-85241190D01*
X177956381Y-85265000D01*
X178004000Y-85312619D01*
X178027809Y-85407857D01*
X178027809Y-85574523D01*
X178004000Y-85669761D01*
X177956381Y-85717380D01*
X177908762Y-85741190D01*
X177813523Y-85741190D01*
X177765904Y-85717380D01*
X177718285Y-85669761D01*
X177694476Y-85574523D01*
X177694476Y-85407857D01*
X177718285Y-85312619D01*
X177765904Y-85265000D01*
X177813523Y-85241190D01*
X178456381Y-85407857D02*
X178456381Y-85741190D01*
X178242095Y-85407857D02*
X178242095Y-85669761D01*
X178265904Y-85717380D01*
X178313523Y-85741190D01*
X178384952Y-85741190D01*
X178432571Y-85717380D01*
X178456381Y-85693571D01*
X178623047Y-85407857D02*
X178813523Y-85407857D01*
X178694476Y-85241190D02*
X178694476Y-85669761D01*
X178718285Y-85717380D01*
X178765904Y-85741190D01*
X178813523Y-85741190D01*
X176447571Y-82764285D02*
X176419000Y-82792857D01*
X176333285Y-82821428D01*
X176276142Y-82821428D01*
X176190428Y-82792857D01*
X176133285Y-82735714D01*
X176104714Y-82678571D01*
X176076142Y-82564285D01*
X176076142Y-82478571D01*
X176104714Y-82364285D01*
X176133285Y-82307142D01*
X176190428Y-82250000D01*
X176276142Y-82221428D01*
X176333285Y-82221428D01*
X176419000Y-82250000D01*
X176447571Y-82278571D01*
X176676142Y-82792857D02*
X176761857Y-82821428D01*
X176904714Y-82821428D01*
X176961857Y-82792857D01*
X176990428Y-82764285D01*
X177019000Y-82707142D01*
X177019000Y-82650000D01*
X176990428Y-82592857D01*
X176961857Y-82564285D01*
X176904714Y-82535714D01*
X176790428Y-82507142D01*
X176733285Y-82478571D01*
X176704714Y-82450000D01*
X176676142Y-82392857D01*
X176676142Y-82335714D01*
X176704714Y-82278571D01*
X176733285Y-82250000D01*
X176790428Y-82221428D01*
X176933285Y-82221428D01*
X177019000Y-82250000D01*
X177390428Y-82535714D02*
X177390428Y-82821428D01*
X177190428Y-82221428D02*
X177390428Y-82535714D01*
X177590428Y-82221428D01*
X177790428Y-82821428D02*
X177790428Y-82221428D01*
X178133285Y-82821428D01*
X178133285Y-82221428D01*
X178761857Y-82764285D02*
X178733285Y-82792857D01*
X178647571Y-82821428D01*
X178590428Y-82821428D01*
X178504714Y-82792857D01*
X178447571Y-82735714D01*
X178419000Y-82678571D01*
X178390428Y-82564285D01*
X178390428Y-82478571D01*
X178419000Y-82364285D01*
X178447571Y-82307142D01*
X178504714Y-82250000D01*
X178590428Y-82221428D01*
X178647571Y-82221428D01*
X178733285Y-82250000D01*
X178761857Y-82278571D01*
X171740571Y-78630428D02*
X171740571Y-78030428D01*
X172083428Y-78630428D01*
X172083428Y-78030428D01*
X172712000Y-78573285D02*
X172683428Y-78601857D01*
X172597714Y-78630428D01*
X172540571Y-78630428D01*
X172454857Y-78601857D01*
X172397714Y-78544714D01*
X172369142Y-78487571D01*
X172340571Y-78373285D01*
X172340571Y-78287571D01*
X172369142Y-78173285D01*
X172397714Y-78116142D01*
X172454857Y-78059000D01*
X172540571Y-78030428D01*
X172597714Y-78030428D01*
X172683428Y-78059000D01*
X172712000Y-78087571D01*
X171373857Y-75900000D02*
X171316714Y-75871428D01*
X171231000Y-75871428D01*
X171145285Y-75900000D01*
X171088142Y-75957142D01*
X171059571Y-76014285D01*
X171031000Y-76128571D01*
X171031000Y-76214285D01*
X171059571Y-76328571D01*
X171088142Y-76385714D01*
X171145285Y-76442857D01*
X171231000Y-76471428D01*
X171288142Y-76471428D01*
X171373857Y-76442857D01*
X171402428Y-76414285D01*
X171402428Y-76214285D01*
X171288142Y-76214285D01*
X171659571Y-76471428D02*
X171659571Y-75871428D01*
X172002428Y-76471428D01*
X172002428Y-75871428D01*
X172288142Y-76471428D02*
X172288142Y-75871428D01*
X172431000Y-75871428D01*
X172516714Y-75900000D01*
X172573857Y-75957142D01*
X172602428Y-76014285D01*
X172631000Y-76128571D01*
X172631000Y-76214285D01*
X172602428Y-76328571D01*
X172573857Y-76385714D01*
X172516714Y-76442857D01*
X172431000Y-76471428D01*
X172288142Y-76471428D01*
X171373857Y-73360000D02*
X171316714Y-73331428D01*
X171231000Y-73331428D01*
X171145285Y-73360000D01*
X171088142Y-73417142D01*
X171059571Y-73474285D01*
X171031000Y-73588571D01*
X171031000Y-73674285D01*
X171059571Y-73788571D01*
X171088142Y-73845714D01*
X171145285Y-73902857D01*
X171231000Y-73931428D01*
X171288142Y-73931428D01*
X171373857Y-73902857D01*
X171402428Y-73874285D01*
X171402428Y-73674285D01*
X171288142Y-73674285D01*
X171659571Y-73931428D02*
X171659571Y-73331428D01*
X172002428Y-73931428D01*
X172002428Y-73331428D01*
X172288142Y-73931428D02*
X172288142Y-73331428D01*
X172431000Y-73331428D01*
X172516714Y-73360000D01*
X172573857Y-73417142D01*
X172602428Y-73474285D01*
X172631000Y-73588571D01*
X172631000Y-73674285D01*
X172602428Y-73788571D01*
X172573857Y-73845714D01*
X172516714Y-73902857D01*
X172431000Y-73931428D01*
X172288142Y-73931428D01*
X171059571Y-71797857D02*
X171516714Y-71797857D01*
X171288142Y-72026428D02*
X171288142Y-71569285D01*
X172088142Y-71426428D02*
X171802428Y-71426428D01*
X171773857Y-71712142D01*
X171802428Y-71683571D01*
X171859571Y-71655000D01*
X172002428Y-71655000D01*
X172059571Y-71683571D01*
X172088142Y-71712142D01*
X172116714Y-71769285D01*
X172116714Y-71912142D01*
X172088142Y-71969285D01*
X172059571Y-71997857D01*
X172002428Y-72026428D01*
X171859571Y-72026428D01*
X171802428Y-71997857D01*
X171773857Y-71969285D01*
X172288142Y-71426428D02*
X172488142Y-72026428D01*
X172688142Y-71426428D01*
X165430857Y-104155285D02*
X165430857Y-104691000D01*
X165395142Y-104798142D01*
X165323714Y-104869571D01*
X165216571Y-104905285D01*
X165145142Y-104905285D01*
X166109428Y-104405285D02*
X166109428Y-104905285D01*
X165788000Y-104405285D02*
X165788000Y-104798142D01*
X165823714Y-104869571D01*
X165895142Y-104905285D01*
X166002285Y-104905285D01*
X166073714Y-104869571D01*
X166109428Y-104833857D01*
X166466571Y-104905285D02*
X166466571Y-104405285D01*
X166466571Y-104476714D02*
X166502285Y-104441000D01*
X166573714Y-104405285D01*
X166680857Y-104405285D01*
X166752285Y-104441000D01*
X166788000Y-104512428D01*
X166788000Y-104905285D01*
X166788000Y-104512428D02*
X166823714Y-104441000D01*
X166895142Y-104405285D01*
X167002285Y-104405285D01*
X167073714Y-104441000D01*
X167109428Y-104512428D01*
X167109428Y-104905285D01*
X167466571Y-104405285D02*
X167466571Y-105155285D01*
X167466571Y-104441000D02*
X167538000Y-104405285D01*
X167680857Y-104405285D01*
X167752285Y-104441000D01*
X167788000Y-104476714D01*
X167823714Y-104548142D01*
X167823714Y-104762428D01*
X167788000Y-104833857D01*
X167752285Y-104869571D01*
X167680857Y-104905285D01*
X167538000Y-104905285D01*
X167466571Y-104869571D01*
X168430857Y-104869571D02*
X168359428Y-104905285D01*
X168216571Y-104905285D01*
X168145142Y-104869571D01*
X168109428Y-104798142D01*
X168109428Y-104512428D01*
X168145142Y-104441000D01*
X168216571Y-104405285D01*
X168359428Y-104405285D01*
X168430857Y-104441000D01*
X168466571Y-104512428D01*
X168466571Y-104583857D01*
X168109428Y-104655285D01*
X168788000Y-104905285D02*
X168788000Y-104405285D01*
X168788000Y-104548142D02*
X168823714Y-104476714D01*
X168859428Y-104441000D01*
X168930857Y-104405285D01*
X169002285Y-104405285D01*
X170038000Y-104155285D02*
X170038000Y-104691000D01*
X170002285Y-104798142D01*
X169930857Y-104869571D01*
X169823714Y-104905285D01*
X169752285Y-104905285D01*
X170395142Y-104905285D02*
X170395142Y-104155285D01*
X170680857Y-104155285D01*
X170752285Y-104191000D01*
X170788000Y-104226714D01*
X170823714Y-104298142D01*
X170823714Y-104405285D01*
X170788000Y-104476714D01*
X170752285Y-104512428D01*
X170680857Y-104548142D01*
X170395142Y-104548142D01*
X171538000Y-104905285D02*
X171109428Y-104905285D01*
X171323714Y-104905285D02*
X171323714Y-104155285D01*
X171252285Y-104262428D01*
X171180857Y-104333857D01*
X171109428Y-104369571D01*
X165680857Y-105630285D02*
X165966571Y-105630285D01*
X165788000Y-106130285D02*
X165788000Y-105487428D01*
X165823714Y-105416000D01*
X165895142Y-105380285D01*
X165966571Y-105380285D01*
X166323714Y-106130285D02*
X166252285Y-106094571D01*
X166216571Y-106058857D01*
X166180857Y-105987428D01*
X166180857Y-105773142D01*
X166216571Y-105701714D01*
X166252285Y-105666000D01*
X166323714Y-105630285D01*
X166430857Y-105630285D01*
X166502285Y-105666000D01*
X166538000Y-105701714D01*
X166573714Y-105773142D01*
X166573714Y-105987428D01*
X166538000Y-106058857D01*
X166502285Y-106094571D01*
X166430857Y-106130285D01*
X166323714Y-106130285D01*
X166895142Y-106130285D02*
X166895142Y-105630285D01*
X166895142Y-105773142D02*
X166930857Y-105701714D01*
X166966571Y-105666000D01*
X167038000Y-105630285D01*
X167109428Y-105630285D01*
X167930857Y-105844571D02*
X168502285Y-105844571D01*
X168216571Y-106130285D02*
X168216571Y-105558857D01*
X169216571Y-105380285D02*
X168859428Y-105380285D01*
X168823714Y-105737428D01*
X168859428Y-105701714D01*
X168930857Y-105666000D01*
X169109428Y-105666000D01*
X169180857Y-105701714D01*
X169216571Y-105737428D01*
X169252285Y-105808857D01*
X169252285Y-105987428D01*
X169216571Y-106058857D01*
X169180857Y-106094571D01*
X169109428Y-106130285D01*
X168930857Y-106130285D01*
X168859428Y-106094571D01*
X168823714Y-106058857D01*
X169466571Y-105380285D02*
X169716571Y-106130285D01*
X169966571Y-105380285D01*
X165109428Y-106855285D02*
X165395142Y-106855285D01*
X165216571Y-107355285D02*
X165216571Y-106712428D01*
X165252285Y-106641000D01*
X165323714Y-106605285D01*
X165395142Y-106605285D01*
X165645142Y-107355285D02*
X165645142Y-106855285D01*
X165645142Y-106998142D02*
X165680857Y-106926714D01*
X165716571Y-106891000D01*
X165788000Y-106855285D01*
X165859428Y-106855285D01*
X166216571Y-107355285D02*
X166145142Y-107319571D01*
X166109428Y-107283857D01*
X166073714Y-107212428D01*
X166073714Y-106998142D01*
X166109428Y-106926714D01*
X166145142Y-106891000D01*
X166216571Y-106855285D01*
X166323714Y-106855285D01*
X166395142Y-106891000D01*
X166430857Y-106926714D01*
X166466571Y-106998142D01*
X166466571Y-107212428D01*
X166430857Y-107283857D01*
X166395142Y-107319571D01*
X166323714Y-107355285D01*
X166216571Y-107355285D01*
X166788000Y-107355285D02*
X166788000Y-106855285D01*
X166788000Y-106926714D02*
X166823714Y-106891000D01*
X166895142Y-106855285D01*
X167002285Y-106855285D01*
X167073714Y-106891000D01*
X167109428Y-106962428D01*
X167109428Y-107355285D01*
X167109428Y-106962428D02*
X167145142Y-106891000D01*
X167216571Y-106855285D01*
X167323714Y-106855285D01*
X167395142Y-106891000D01*
X167430857Y-106962428D01*
X167430857Y-107355285D01*
X168609428Y-106962428D02*
X168359428Y-106962428D01*
X168359428Y-107355285D02*
X168359428Y-106605285D01*
X168716571Y-106605285D01*
X169252285Y-106962428D02*
X169002285Y-106962428D01*
X169002285Y-107355285D02*
X169002285Y-106605285D01*
X169359428Y-106605285D01*
X170073714Y-107283857D02*
X170038000Y-107319571D01*
X169930857Y-107355285D01*
X169859428Y-107355285D01*
X169752285Y-107319571D01*
X169680857Y-107248142D01*
X169645142Y-107176714D01*
X169609428Y-107033857D01*
X169609428Y-106926714D01*
X169645142Y-106783857D01*
X169680857Y-106712428D01*
X169752285Y-106641000D01*
X169859428Y-106605285D01*
X169930857Y-106605285D01*
X170038000Y-106641000D01*
X170073714Y-106676714D01*
X177963571Y-102827142D02*
X178049285Y-102855714D01*
X178077857Y-102884285D01*
X178106428Y-102941428D01*
X178106428Y-103027142D01*
X178077857Y-103084285D01*
X178049285Y-103112857D01*
X177992142Y-103141428D01*
X177763571Y-103141428D01*
X177763571Y-102541428D01*
X177963571Y-102541428D01*
X178020714Y-102570000D01*
X178049285Y-102598571D01*
X178077857Y-102655714D01*
X178077857Y-102712857D01*
X178049285Y-102770000D01*
X178020714Y-102798571D01*
X177963571Y-102827142D01*
X177763571Y-102827142D01*
X178277857Y-102541428D02*
X178620714Y-102541428D01*
X178449285Y-103141428D02*
X178449285Y-102541428D01*
X178763571Y-102541428D02*
X179135000Y-102541428D01*
X178935000Y-102770000D01*
X179020714Y-102770000D01*
X179077857Y-102798571D01*
X179106428Y-102827142D01*
X179135000Y-102884285D01*
X179135000Y-103027142D01*
X179106428Y-103084285D01*
X179077857Y-103112857D01*
X179020714Y-103141428D01*
X178849285Y-103141428D01*
X178792142Y-103112857D01*
X178763571Y-103084285D01*
X177963571Y-100287142D02*
X178049285Y-100315714D01*
X178077857Y-100344285D01*
X178106428Y-100401428D01*
X178106428Y-100487142D01*
X178077857Y-100544285D01*
X178049285Y-100572857D01*
X177992142Y-100601428D01*
X177763571Y-100601428D01*
X177763571Y-100001428D01*
X177963571Y-100001428D01*
X178020714Y-100030000D01*
X178049285Y-100058571D01*
X178077857Y-100115714D01*
X178077857Y-100172857D01*
X178049285Y-100230000D01*
X178020714Y-100258571D01*
X177963571Y-100287142D01*
X177763571Y-100287142D01*
X178277857Y-100001428D02*
X178620714Y-100001428D01*
X178449285Y-100601428D02*
X178449285Y-100001428D01*
X178792142Y-100058571D02*
X178820714Y-100030000D01*
X178877857Y-100001428D01*
X179020714Y-100001428D01*
X179077857Y-100030000D01*
X179106428Y-100058571D01*
X179135000Y-100115714D01*
X179135000Y-100172857D01*
X179106428Y-100258571D01*
X178763571Y-100601428D01*
X179135000Y-100601428D01*
X177963571Y-97747142D02*
X178049285Y-97775714D01*
X178077857Y-97804285D01*
X178106428Y-97861428D01*
X178106428Y-97947142D01*
X178077857Y-98004285D01*
X178049285Y-98032857D01*
X177992142Y-98061428D01*
X177763571Y-98061428D01*
X177763571Y-97461428D01*
X177963571Y-97461428D01*
X178020714Y-97490000D01*
X178049285Y-97518571D01*
X178077857Y-97575714D01*
X178077857Y-97632857D01*
X178049285Y-97690000D01*
X178020714Y-97718571D01*
X177963571Y-97747142D01*
X177763571Y-97747142D01*
X178277857Y-97461428D02*
X178620714Y-97461428D01*
X178449285Y-98061428D02*
X178449285Y-97461428D01*
X179135000Y-98061428D02*
X178792142Y-98061428D01*
X178963571Y-98061428D02*
X178963571Y-97461428D01*
X178906428Y-97547142D01*
X178849285Y-97604285D01*
X178792142Y-97632857D01*
X107565666Y-70547666D02*
X107332333Y-70214333D01*
X107165666Y-70547666D02*
X107165666Y-69847666D01*
X107432333Y-69847666D01*
X107499000Y-69881000D01*
X107532333Y-69914333D01*
X107565666Y-69981000D01*
X107565666Y-70081000D01*
X107532333Y-70147666D01*
X107499000Y-70181000D01*
X107432333Y-70214333D01*
X107165666Y-70214333D01*
X108232333Y-69881000D02*
X108165666Y-69847666D01*
X108065666Y-69847666D01*
X107965666Y-69881000D01*
X107899000Y-69947666D01*
X107865666Y-70014333D01*
X107832333Y-70147666D01*
X107832333Y-70247666D01*
X107865666Y-70381000D01*
X107899000Y-70447666D01*
X107965666Y-70514333D01*
X108065666Y-70547666D01*
X108132333Y-70547666D01*
X108232333Y-70514333D01*
X108265666Y-70481000D01*
X108265666Y-70247666D01*
X108132333Y-70247666D01*
X108799000Y-70181000D02*
X108899000Y-70214333D01*
X108932333Y-70247666D01*
X108965666Y-70314333D01*
X108965666Y-70414333D01*
X108932333Y-70481000D01*
X108899000Y-70514333D01*
X108832333Y-70547666D01*
X108565666Y-70547666D01*
X108565666Y-69847666D01*
X108799000Y-69847666D01*
X108865666Y-69881000D01*
X108899000Y-69914333D01*
X108932333Y-69981000D01*
X108932333Y-70047666D01*
X108899000Y-70114333D01*
X108865666Y-70147666D01*
X108799000Y-70181000D01*
X108565666Y-70181000D01*
X109165666Y-70081000D02*
X109432333Y-70081000D01*
X109265666Y-69847666D02*
X109265666Y-70447666D01*
X109299000Y-70514333D01*
X109365666Y-70547666D01*
X109432333Y-70547666D01*
X109765666Y-70547666D02*
X109699000Y-70514333D01*
X109665666Y-70481000D01*
X109632333Y-70414333D01*
X109632333Y-70214333D01*
X109665666Y-70147666D01*
X109699000Y-70114333D01*
X109765666Y-70081000D01*
X109865666Y-70081000D01*
X109932333Y-70114333D01*
X109965666Y-70147666D01*
X109999000Y-70214333D01*
X109999000Y-70414333D01*
X109965666Y-70481000D01*
X109932333Y-70514333D01*
X109865666Y-70547666D01*
X109765666Y-70547666D01*
X110299000Y-70547666D02*
X110299000Y-69847666D01*
X110299000Y-70181000D02*
X110699000Y-70181000D01*
X110699000Y-70547666D02*
X110699000Y-69847666D01*
X111032333Y-70547666D02*
X111032333Y-69847666D01*
X111199000Y-69847666D01*
X111299000Y-69881000D01*
X111365666Y-69947666D01*
X111399000Y-70014333D01*
X111432333Y-70147666D01*
X111432333Y-70247666D01*
X111399000Y-70381000D01*
X111365666Y-70447666D01*
X111299000Y-70514333D01*
X111199000Y-70547666D01*
X111032333Y-70547666D01*
X111732333Y-70547666D02*
X111732333Y-69847666D01*
X111965666Y-70347666D01*
X112199000Y-69847666D01*
X112199000Y-70547666D01*
X112532333Y-70547666D02*
X112532333Y-69847666D01*
X113365666Y-70347666D02*
X113699000Y-70347666D01*
X113299000Y-70547666D02*
X113532333Y-69847666D01*
X113765666Y-70547666D01*
X113999000Y-70547666D02*
X113999000Y-70081000D01*
X113999000Y-70147666D02*
X114032333Y-70114333D01*
X114099000Y-70081000D01*
X114199000Y-70081000D01*
X114265666Y-70114333D01*
X114299000Y-70181000D01*
X114299000Y-70547666D01*
X114299000Y-70181000D02*
X114332333Y-70114333D01*
X114399000Y-70081000D01*
X114499000Y-70081000D01*
X114565666Y-70114333D01*
X114599000Y-70181000D01*
X114599000Y-70547666D01*
X114932333Y-70547666D02*
X114932333Y-70081000D01*
X114932333Y-69847666D02*
X114899000Y-69881000D01*
X114932333Y-69914333D01*
X114965666Y-69881000D01*
X114932333Y-69847666D01*
X114932333Y-69914333D01*
X115565666Y-70081000D02*
X115565666Y-70647666D01*
X115532333Y-70714333D01*
X115499000Y-70747666D01*
X115432333Y-70781000D01*
X115332333Y-70781000D01*
X115265666Y-70747666D01*
X115565666Y-70514333D02*
X115499000Y-70547666D01*
X115365666Y-70547666D01*
X115299000Y-70514333D01*
X115265666Y-70481000D01*
X115232333Y-70414333D01*
X115232333Y-70214333D01*
X115265666Y-70147666D01*
X115299000Y-70114333D01*
X115365666Y-70081000D01*
X115499000Y-70081000D01*
X115565666Y-70114333D01*
X116199000Y-70547666D02*
X116199000Y-70181000D01*
X116165666Y-70114333D01*
X116099000Y-70081000D01*
X115965666Y-70081000D01*
X115899000Y-70114333D01*
X116199000Y-70514333D02*
X116132333Y-70547666D01*
X115965666Y-70547666D01*
X115899000Y-70514333D01*
X115865666Y-70447666D01*
X115865666Y-70381000D01*
X115899000Y-70314333D01*
X115965666Y-70281000D01*
X116132333Y-70281000D01*
X116199000Y-70247666D01*
X117065666Y-70547666D02*
X117065666Y-69847666D01*
X117232333Y-69847666D01*
X117332333Y-69881000D01*
X117399000Y-69947666D01*
X117432333Y-70014333D01*
X117465666Y-70147666D01*
X117465666Y-70247666D01*
X117432333Y-70381000D01*
X117399000Y-70447666D01*
X117332333Y-70514333D01*
X117232333Y-70547666D01*
X117065666Y-70547666D01*
X118032333Y-70514333D02*
X117965666Y-70547666D01*
X117832333Y-70547666D01*
X117765666Y-70514333D01*
X117732333Y-70447666D01*
X117732333Y-70181000D01*
X117765666Y-70114333D01*
X117832333Y-70081000D01*
X117965666Y-70081000D01*
X118032333Y-70114333D01*
X118065666Y-70181000D01*
X118065666Y-70247666D01*
X117732333Y-70314333D01*
X118365666Y-70081000D02*
X118365666Y-70547666D01*
X118365666Y-70147666D02*
X118399000Y-70114333D01*
X118465666Y-70081000D01*
X118565666Y-70081000D01*
X118632333Y-70114333D01*
X118665666Y-70181000D01*
X118665666Y-70547666D01*
X118999000Y-70547666D02*
X118999000Y-70081000D01*
X118999000Y-69847666D02*
X118965666Y-69881000D01*
X118999000Y-69914333D01*
X119032333Y-69881000D01*
X118999000Y-69847666D01*
X118999000Y-69914333D01*
X119299000Y-70514333D02*
X119365666Y-70547666D01*
X119499000Y-70547666D01*
X119565666Y-70514333D01*
X119599000Y-70447666D01*
X119599000Y-70414333D01*
X119565666Y-70347666D01*
X119499000Y-70314333D01*
X119399000Y-70314333D01*
X119332333Y-70281000D01*
X119299000Y-70214333D01*
X119299000Y-70181000D01*
X119332333Y-70114333D01*
X119399000Y-70081000D01*
X119499000Y-70081000D01*
X119565666Y-70114333D01*
X120165666Y-70514333D02*
X120099000Y-70547666D01*
X119965666Y-70547666D01*
X119899000Y-70514333D01*
X119865666Y-70447666D01*
X119865666Y-70181000D01*
X119899000Y-70114333D01*
X119965666Y-70081000D01*
X120099000Y-70081000D01*
X120165666Y-70114333D01*
X120199000Y-70181000D01*
X120199000Y-70247666D01*
X119865666Y-70314333D01*
X121432333Y-70481000D02*
X121399000Y-70514333D01*
X121299000Y-70547666D01*
X121232333Y-70547666D01*
X121132333Y-70514333D01*
X121065666Y-70447666D01*
X121032333Y-70381000D01*
X120999000Y-70247666D01*
X120999000Y-70147666D01*
X121032333Y-70014333D01*
X121065666Y-69947666D01*
X121132333Y-69881000D01*
X121232333Y-69847666D01*
X121299000Y-69847666D01*
X121399000Y-69881000D01*
X121432333Y-69914333D01*
X121732333Y-70547666D02*
X121732333Y-69847666D01*
X121999000Y-69847666D01*
X122065666Y-69881000D01*
X122099000Y-69914333D01*
X122132333Y-69981000D01*
X122132333Y-70081000D01*
X122099000Y-70147666D01*
X122065666Y-70181000D01*
X121999000Y-70214333D01*
X121732333Y-70214333D01*
X122765666Y-70547666D02*
X122432333Y-70547666D01*
X122432333Y-69847666D01*
X122999000Y-70547666D02*
X122999000Y-69847666D01*
X123165666Y-69847666D01*
X123265666Y-69881000D01*
X123332333Y-69947666D01*
X123365666Y-70014333D01*
X123399000Y-70147666D01*
X123399000Y-70247666D01*
X123365666Y-70381000D01*
X123332333Y-70447666D01*
X123265666Y-70514333D01*
X123165666Y-70547666D01*
X122999000Y-70547666D01*
X124465666Y-70181000D02*
X124232333Y-70181000D01*
X124232333Y-70547666D02*
X124232333Y-69847666D01*
X124565666Y-69847666D01*
X125065666Y-70181000D02*
X124832333Y-70181000D01*
X124832333Y-70547666D02*
X124832333Y-69847666D01*
X125165666Y-69847666D01*
X125832333Y-70481000D02*
X125799000Y-70514333D01*
X125699000Y-70547666D01*
X125632333Y-70547666D01*
X125532333Y-70514333D01*
X125465666Y-70447666D01*
X125432333Y-70381000D01*
X125399000Y-70247666D01*
X125399000Y-70147666D01*
X125432333Y-70014333D01*
X125465666Y-69947666D01*
X125532333Y-69881000D01*
X125632333Y-69847666D01*
X125699000Y-69847666D01*
X125799000Y-69881000D01*
X125832333Y-69914333D01*
X126832333Y-70781000D02*
X126832333Y-69781000D01*
X127865666Y-70547666D02*
X127865666Y-69847666D01*
X128132333Y-69847666D01*
X128199000Y-69881000D01*
X128232333Y-69914333D01*
X128265666Y-69981000D01*
X128265666Y-70081000D01*
X128232333Y-70147666D01*
X128199000Y-70181000D01*
X128132333Y-70214333D01*
X127865666Y-70214333D01*
X128965666Y-70481000D02*
X128932333Y-70514333D01*
X128832333Y-70547666D01*
X128765666Y-70547666D01*
X128665666Y-70514333D01*
X128599000Y-70447666D01*
X128565666Y-70381000D01*
X128532333Y-70247666D01*
X128532333Y-70147666D01*
X128565666Y-70014333D01*
X128599000Y-69947666D01*
X128665666Y-69881000D01*
X128765666Y-69847666D01*
X128832333Y-69847666D01*
X128932333Y-69881000D01*
X128965666Y-69914333D01*
X129499000Y-70181000D02*
X129599000Y-70214333D01*
X129632333Y-70247666D01*
X129665666Y-70314333D01*
X129665666Y-70414333D01*
X129632333Y-70481000D01*
X129599000Y-70514333D01*
X129532333Y-70547666D01*
X129265666Y-70547666D01*
X129265666Y-69847666D01*
X129499000Y-69847666D01*
X129565666Y-69881000D01*
X129599000Y-69914333D01*
X129632333Y-69981000D01*
X129632333Y-70047666D01*
X129599000Y-70114333D01*
X129565666Y-70147666D01*
X129499000Y-70181000D01*
X129265666Y-70181000D01*
X130499000Y-70547666D02*
X130499000Y-69847666D01*
X130499000Y-70114333D02*
X130565666Y-70081000D01*
X130699000Y-70081000D01*
X130765666Y-70114333D01*
X130799000Y-70147666D01*
X130832333Y-70214333D01*
X130832333Y-70414333D01*
X130799000Y-70481000D01*
X130765666Y-70514333D01*
X130699000Y-70547666D01*
X130565666Y-70547666D01*
X130499000Y-70514333D01*
X131065666Y-70081000D02*
X131232333Y-70547666D01*
X131399000Y-70081000D02*
X131232333Y-70547666D01*
X131165666Y-70714333D01*
X131132333Y-70747666D01*
X131065666Y-70781000D01*
X132165666Y-70514333D02*
X132232333Y-70547666D01*
X132365666Y-70547666D01*
X132432333Y-70514333D01*
X132465666Y-70447666D01*
X132465666Y-70414333D01*
X132432333Y-70347666D01*
X132365666Y-70314333D01*
X132265666Y-70314333D01*
X132199000Y-70281000D01*
X132165666Y-70214333D01*
X132165666Y-70181000D01*
X132199000Y-70114333D01*
X132265666Y-70081000D01*
X132365666Y-70081000D01*
X132432333Y-70114333D01*
X132865666Y-70547666D02*
X132799000Y-70514333D01*
X132765666Y-70481000D01*
X132732333Y-70414333D01*
X132732333Y-70214333D01*
X132765666Y-70147666D01*
X132799000Y-70114333D01*
X132865666Y-70081000D01*
X132965666Y-70081000D01*
X133032333Y-70114333D01*
X133065666Y-70147666D01*
X133099000Y-70214333D01*
X133099000Y-70414333D01*
X133065666Y-70481000D01*
X133032333Y-70514333D01*
X132965666Y-70547666D01*
X132865666Y-70547666D01*
X133499000Y-70547666D02*
X133432333Y-70514333D01*
X133399000Y-70447666D01*
X133399000Y-69847666D01*
X134065666Y-70547666D02*
X134065666Y-70181000D01*
X134032333Y-70114333D01*
X133965666Y-70081000D01*
X133832333Y-70081000D01*
X133765666Y-70114333D01*
X134065666Y-70514333D02*
X133999000Y-70547666D01*
X133832333Y-70547666D01*
X133765666Y-70514333D01*
X133732333Y-70447666D01*
X133732333Y-70381000D01*
X133765666Y-70314333D01*
X133832333Y-70281000D01*
X133999000Y-70281000D01*
X134065666Y-70247666D01*
X134399000Y-70547666D02*
X134399000Y-70081000D01*
X134399000Y-70214333D02*
X134432333Y-70147666D01*
X134465666Y-70114333D01*
X134532333Y-70081000D01*
X134599000Y-70081000D01*
X134832333Y-70547666D02*
X134832333Y-70081000D01*
X134832333Y-70147666D02*
X134865666Y-70114333D01*
X134932333Y-70081000D01*
X135032333Y-70081000D01*
X135099000Y-70114333D01*
X135132333Y-70181000D01*
X135132333Y-70547666D01*
X135132333Y-70181000D02*
X135165666Y-70114333D01*
X135232333Y-70081000D01*
X135332333Y-70081000D01*
X135399000Y-70114333D01*
X135432333Y-70181000D01*
X135432333Y-70547666D01*
X135865666Y-70547666D02*
X135799000Y-70514333D01*
X135765666Y-70481000D01*
X135732333Y-70414333D01*
X135732333Y-70214333D01*
X135765666Y-70147666D01*
X135799000Y-70114333D01*
X135865666Y-70081000D01*
X135965666Y-70081000D01*
X136032333Y-70114333D01*
X136065666Y-70147666D01*
X136099000Y-70214333D01*
X136099000Y-70414333D01*
X136065666Y-70481000D01*
X136032333Y-70514333D01*
X135965666Y-70547666D01*
X135865666Y-70547666D01*
X136399000Y-70081000D02*
X136399000Y-70547666D01*
X136399000Y-70147666D02*
X136432333Y-70114333D01*
X136499000Y-70081000D01*
X136599000Y-70081000D01*
X136665666Y-70114333D01*
X136699000Y-70181000D01*
X136699000Y-70547666D01*
X137732333Y-70781000D02*
X137732333Y-69781000D01*
X138999000Y-70181000D02*
X139099000Y-70214333D01*
X139132333Y-70247666D01*
X139165666Y-70314333D01*
X139165666Y-70414333D01*
X139132333Y-70481000D01*
X139099000Y-70514333D01*
X139032333Y-70547666D01*
X138765666Y-70547666D01*
X138765666Y-69847666D01*
X138999000Y-69847666D01*
X139065666Y-69881000D01*
X139099000Y-69914333D01*
X139132333Y-69981000D01*
X139132333Y-70047666D01*
X139099000Y-70114333D01*
X139065666Y-70147666D01*
X138999000Y-70181000D01*
X138765666Y-70181000D01*
X139765666Y-70547666D02*
X139765666Y-70181000D01*
X139732333Y-70114333D01*
X139665666Y-70081000D01*
X139532333Y-70081000D01*
X139465666Y-70114333D01*
X139765666Y-70514333D02*
X139699000Y-70547666D01*
X139532333Y-70547666D01*
X139465666Y-70514333D01*
X139432333Y-70447666D01*
X139432333Y-70381000D01*
X139465666Y-70314333D01*
X139532333Y-70281000D01*
X139699000Y-70281000D01*
X139765666Y-70247666D01*
X140065666Y-70514333D02*
X140132333Y-70547666D01*
X140265666Y-70547666D01*
X140332333Y-70514333D01*
X140365666Y-70447666D01*
X140365666Y-70414333D01*
X140332333Y-70347666D01*
X140265666Y-70314333D01*
X140165666Y-70314333D01*
X140099000Y-70281000D01*
X140065666Y-70214333D01*
X140065666Y-70181000D01*
X140099000Y-70114333D01*
X140165666Y-70081000D01*
X140265666Y-70081000D01*
X140332333Y-70114333D01*
X140932333Y-70514333D02*
X140865666Y-70547666D01*
X140732333Y-70547666D01*
X140665666Y-70514333D01*
X140632333Y-70447666D01*
X140632333Y-70181000D01*
X140665666Y-70114333D01*
X140732333Y-70081000D01*
X140865666Y-70081000D01*
X140932333Y-70114333D01*
X140965666Y-70181000D01*
X140965666Y-70247666D01*
X140632333Y-70314333D01*
X141565666Y-70547666D02*
X141565666Y-69847666D01*
X141565666Y-70514333D02*
X141499000Y-70547666D01*
X141365666Y-70547666D01*
X141299000Y-70514333D01*
X141265666Y-70481000D01*
X141232333Y-70414333D01*
X141232333Y-70214333D01*
X141265666Y-70147666D01*
X141299000Y-70114333D01*
X141365666Y-70081000D01*
X141499000Y-70081000D01*
X141565666Y-70114333D01*
X142532333Y-70547666D02*
X142465666Y-70514333D01*
X142432333Y-70481000D01*
X142399000Y-70414333D01*
X142399000Y-70214333D01*
X142432333Y-70147666D01*
X142465666Y-70114333D01*
X142532333Y-70081000D01*
X142632333Y-70081000D01*
X142699000Y-70114333D01*
X142732333Y-70147666D01*
X142765666Y-70214333D01*
X142765666Y-70414333D01*
X142732333Y-70481000D01*
X142699000Y-70514333D01*
X142632333Y-70547666D01*
X142532333Y-70547666D01*
X143065666Y-70081000D02*
X143065666Y-70547666D01*
X143065666Y-70147666D02*
X143099000Y-70114333D01*
X143165666Y-70081000D01*
X143265666Y-70081000D01*
X143332333Y-70114333D01*
X143365666Y-70181000D01*
X143365666Y-70547666D01*
X144165666Y-70081000D02*
X144299000Y-70547666D01*
X144432333Y-70214333D01*
X144565666Y-70547666D01*
X144699000Y-70081000D01*
X145065666Y-70547666D02*
X144999000Y-70514333D01*
X144965666Y-70481000D01*
X144932333Y-70414333D01*
X144932333Y-70214333D01*
X144965666Y-70147666D01*
X144999000Y-70114333D01*
X145065666Y-70081000D01*
X145165666Y-70081000D01*
X145232333Y-70114333D01*
X145265666Y-70147666D01*
X145299000Y-70214333D01*
X145299000Y-70414333D01*
X145265666Y-70481000D01*
X145232333Y-70514333D01*
X145165666Y-70547666D01*
X145065666Y-70547666D01*
X145599000Y-70547666D02*
X145599000Y-70081000D01*
X145599000Y-70214333D02*
X145632333Y-70147666D01*
X145665666Y-70114333D01*
X145732333Y-70081000D01*
X145799000Y-70081000D01*
X146032333Y-70547666D02*
X146032333Y-69847666D01*
X146099000Y-70281000D02*
X146299000Y-70547666D01*
X146299000Y-70081000D02*
X146032333Y-70347666D01*
X147132333Y-70547666D02*
X147132333Y-69847666D01*
X147132333Y-70114333D02*
X147199000Y-70081000D01*
X147332333Y-70081000D01*
X147399000Y-70114333D01*
X147432333Y-70147666D01*
X147465666Y-70214333D01*
X147465666Y-70414333D01*
X147432333Y-70481000D01*
X147399000Y-70514333D01*
X147332333Y-70547666D01*
X147199000Y-70547666D01*
X147132333Y-70514333D01*
X147699000Y-70081000D02*
X147865666Y-70547666D01*
X148032333Y-70081000D02*
X147865666Y-70547666D01*
X147799000Y-70714333D01*
X147765666Y-70747666D01*
X147699000Y-70781000D01*
X149165666Y-70547666D02*
X148832333Y-70547666D01*
X148832333Y-69847666D01*
X149399000Y-70547666D02*
X149399000Y-70081000D01*
X149399000Y-69847666D02*
X149365666Y-69881000D01*
X149399000Y-69914333D01*
X149432333Y-69881000D01*
X149399000Y-69847666D01*
X149399000Y-69914333D01*
X149732333Y-70081000D02*
X149732333Y-70547666D01*
X149732333Y-70147666D02*
X149765666Y-70114333D01*
X149832333Y-70081000D01*
X149932333Y-70081000D01*
X149999000Y-70114333D01*
X150032333Y-70181000D01*
X150032333Y-70547666D01*
X150665666Y-70081000D02*
X150665666Y-70547666D01*
X150365666Y-70081000D02*
X150365666Y-70447666D01*
X150399000Y-70514333D01*
X150465666Y-70547666D01*
X150565666Y-70547666D01*
X150632333Y-70514333D01*
X150665666Y-70481000D01*
X150932333Y-70547666D02*
X151299000Y-70081000D01*
X150932333Y-70081000D02*
X151299000Y-70547666D01*
X151765666Y-69847666D02*
X151765666Y-70347666D01*
X151732333Y-70447666D01*
X151665666Y-70514333D01*
X151565666Y-70547666D01*
X151499000Y-70547666D01*
X152365666Y-70514333D02*
X152299000Y-70547666D01*
X152165666Y-70547666D01*
X152099000Y-70514333D01*
X152065666Y-70447666D01*
X152065666Y-70181000D01*
X152099000Y-70114333D01*
X152165666Y-70081000D01*
X152299000Y-70081000D01*
X152365666Y-70114333D01*
X152399000Y-70181000D01*
X152399000Y-70247666D01*
X152065666Y-70314333D01*
X152999000Y-70547666D02*
X152999000Y-69847666D01*
X152999000Y-70514333D02*
X152932333Y-70547666D01*
X152799000Y-70547666D01*
X152732333Y-70514333D01*
X152699000Y-70481000D01*
X152665666Y-70414333D01*
X152665666Y-70214333D01*
X152699000Y-70147666D01*
X152732333Y-70114333D01*
X152799000Y-70081000D01*
X152932333Y-70081000D01*
X152999000Y-70114333D01*
X153332333Y-70547666D02*
X153332333Y-70081000D01*
X153332333Y-69847666D02*
X153299000Y-69881000D01*
X153332333Y-69914333D01*
X153365666Y-69881000D01*
X153332333Y-69847666D01*
X153332333Y-69914333D01*
X153699000Y-70514333D02*
X153699000Y-70547666D01*
X153665666Y-70614333D01*
X153632333Y-70647666D01*
X154532333Y-70547666D02*
X154532333Y-69847666D01*
X155165666Y-70547666D02*
X155165666Y-70181000D01*
X155132333Y-70114333D01*
X155065666Y-70081000D01*
X154932333Y-70081000D01*
X154865666Y-70114333D01*
X155165666Y-70514333D02*
X155099000Y-70547666D01*
X154932333Y-70547666D01*
X154865666Y-70514333D01*
X154832333Y-70447666D01*
X154832333Y-70381000D01*
X154865666Y-70314333D01*
X154932333Y-70281000D01*
X155099000Y-70281000D01*
X155165666Y-70247666D01*
X155499000Y-70081000D02*
X155499000Y-70547666D01*
X155499000Y-70147666D02*
X155532333Y-70114333D01*
X155599000Y-70081000D01*
X155699000Y-70081000D01*
X155765666Y-70114333D01*
X155799000Y-70181000D01*
X155799000Y-70547666D01*
X156099000Y-70514333D02*
X156199000Y-70547666D01*
X156365666Y-70547666D01*
X156432333Y-70514333D01*
X156465666Y-70481000D01*
X156499000Y-70414333D01*
X156499000Y-70347666D01*
X156465666Y-70281000D01*
X156432333Y-70247666D01*
X156365666Y-70214333D01*
X156232333Y-70181000D01*
X156165666Y-70147666D01*
X156132333Y-70114333D01*
X156099000Y-70047666D01*
X156099000Y-69981000D01*
X156132333Y-69914333D01*
X156165666Y-69881000D01*
X156232333Y-69847666D01*
X156399000Y-69847666D01*
X156499000Y-69881000D01*
X157032333Y-70181000D02*
X157132333Y-70214333D01*
X157165666Y-70247666D01*
X157199000Y-70314333D01*
X157199000Y-70414333D01*
X157165666Y-70481000D01*
X157132333Y-70514333D01*
X157065666Y-70547666D01*
X156799000Y-70547666D01*
X156799000Y-69847666D01*
X157032333Y-69847666D01*
X157099000Y-69881000D01*
X157132333Y-69914333D01*
X157165666Y-69981000D01*
X157165666Y-70047666D01*
X157132333Y-70114333D01*
X157099000Y-70147666D01*
X157032333Y-70181000D01*
X156799000Y-70181000D01*
X157532333Y-70514333D02*
X157532333Y-70547666D01*
X157499000Y-70614333D01*
X157465666Y-70647666D01*
X158365666Y-70547666D02*
X158365666Y-69847666D01*
X158665666Y-70547666D02*
X158665666Y-70181000D01*
X158632333Y-70114333D01*
X158565666Y-70081000D01*
X158465666Y-70081000D01*
X158399000Y-70114333D01*
X158365666Y-70147666D01*
X159099000Y-70547666D02*
X159032333Y-70514333D01*
X158999000Y-70481000D01*
X158965666Y-70414333D01*
X158965666Y-70214333D01*
X158999000Y-70147666D01*
X159032333Y-70114333D01*
X159099000Y-70081000D01*
X159199000Y-70081000D01*
X159265666Y-70114333D01*
X159299000Y-70147666D01*
X159332333Y-70214333D01*
X159332333Y-70414333D01*
X159299000Y-70481000D01*
X159265666Y-70514333D01*
X159199000Y-70547666D01*
X159099000Y-70547666D01*
X159932333Y-70081000D02*
X159932333Y-70647666D01*
X159899000Y-70714333D01*
X159865666Y-70747666D01*
X159799000Y-70781000D01*
X159699000Y-70781000D01*
X159632333Y-70747666D01*
X159932333Y-70514333D02*
X159865666Y-70547666D01*
X159732333Y-70547666D01*
X159665666Y-70514333D01*
X159632333Y-70481000D01*
X159599000Y-70414333D01*
X159599000Y-70214333D01*
X159632333Y-70147666D01*
X159665666Y-70114333D01*
X159732333Y-70081000D01*
X159865666Y-70081000D01*
X159932333Y-70114333D01*
X160365666Y-70547666D02*
X160299000Y-70514333D01*
X160265666Y-70447666D01*
X160265666Y-69847666D01*
X160899000Y-70514333D02*
X160832333Y-70547666D01*
X160699000Y-70547666D01*
X160632333Y-70514333D01*
X160599000Y-70447666D01*
X160599000Y-70181000D01*
X160632333Y-70114333D01*
X160699000Y-70081000D01*
X160832333Y-70081000D01*
X160899000Y-70114333D01*
X160932333Y-70181000D01*
X160932333Y-70247666D01*
X160599000Y-70314333D01*
X161132333Y-70081000D02*
X161399000Y-70081000D01*
X161232333Y-69847666D02*
X161232333Y-70447666D01*
X161265666Y-70514333D01*
X161332333Y-70547666D01*
X161399000Y-70547666D01*
X161932333Y-69847666D02*
X161799000Y-69847666D01*
X161732333Y-69881000D01*
X161699000Y-69914333D01*
X161632333Y-70014333D01*
X161599000Y-70147666D01*
X161599000Y-70414333D01*
X161632333Y-70481000D01*
X161665666Y-70514333D01*
X161732333Y-70547666D01*
X161865666Y-70547666D01*
X161932333Y-70514333D01*
X161965666Y-70481000D01*
X161999000Y-70414333D01*
X161999000Y-70247666D01*
X161965666Y-70181000D01*
X161932333Y-70147666D01*
X161865666Y-70114333D01*
X161732333Y-70114333D01*
X161665666Y-70147666D01*
X161632333Y-70181000D01*
X161599000Y-70247666D01*
X162232333Y-69847666D02*
X162699000Y-69847666D01*
X162399000Y-70547666D01*
X163799000Y-70547666D02*
X163799000Y-70181000D01*
X163765666Y-70114333D01*
X163699000Y-70081000D01*
X163565666Y-70081000D01*
X163499000Y-70114333D01*
X163799000Y-70514333D02*
X163732333Y-70547666D01*
X163565666Y-70547666D01*
X163499000Y-70514333D01*
X163465666Y-70447666D01*
X163465666Y-70381000D01*
X163499000Y-70314333D01*
X163565666Y-70281000D01*
X163732333Y-70281000D01*
X163799000Y-70247666D01*
X164132333Y-70081000D02*
X164132333Y-70547666D01*
X164132333Y-70147666D02*
X164165666Y-70114333D01*
X164232333Y-70081000D01*
X164332333Y-70081000D01*
X164399000Y-70114333D01*
X164432333Y-70181000D01*
X164432333Y-70547666D01*
X165065666Y-70547666D02*
X165065666Y-69847666D01*
X165065666Y-70514333D02*
X164999000Y-70547666D01*
X164865666Y-70547666D01*
X164799000Y-70514333D01*
X164765666Y-70481000D01*
X164732333Y-70414333D01*
X164732333Y-70214333D01*
X164765666Y-70147666D01*
X164799000Y-70114333D01*
X164865666Y-70081000D01*
X164999000Y-70081000D01*
X165065666Y-70114333D01*
X165932333Y-70547666D02*
X165932333Y-69847666D01*
X165999000Y-70281000D02*
X166199000Y-70547666D01*
X166199000Y-70081000D02*
X165932333Y-70347666D01*
X166765666Y-70514333D02*
X166699000Y-70547666D01*
X166565666Y-70547666D01*
X166499000Y-70514333D01*
X166465666Y-70447666D01*
X166465666Y-70181000D01*
X166499000Y-70114333D01*
X166565666Y-70081000D01*
X166699000Y-70081000D01*
X166765666Y-70114333D01*
X166799000Y-70181000D01*
X166799000Y-70247666D01*
X166465666Y-70314333D01*
X167099000Y-70547666D02*
X167099000Y-70081000D01*
X167099000Y-69847666D02*
X167065666Y-69881000D01*
X167099000Y-69914333D01*
X167132333Y-69881000D01*
X167099000Y-69847666D01*
X167099000Y-69914333D01*
X167432333Y-70547666D02*
X167432333Y-70081000D01*
X167432333Y-70214333D02*
X167465666Y-70147666D01*
X167499000Y-70114333D01*
X167565666Y-70081000D01*
X167632333Y-70081000D01*
X167765666Y-70081000D02*
X168032333Y-70081000D01*
X167865666Y-70547666D02*
X167865666Y-69947666D01*
X167899000Y-69881000D01*
X167965666Y-69847666D01*
X168032333Y-69847666D01*
X151038714Y-83248476D02*
X151038714Y-82867523D01*
X146974714Y-97345476D02*
X146974714Y-96964523D01*
X155384523Y-90205714D02*
X155765476Y-90205714D01*
X155384523Y-91729714D02*
X155765476Y-91729714D01*
X155575000Y-91920190D02*
X155575000Y-91539238D01*
X141414523Y-87030714D02*
X141795476Y-87030714D01*
X141605000Y-87221190D02*
X141605000Y-86840238D01*
X149987023Y-83093714D02*
X150367976Y-83093714D01*
X150177500Y-83284190D02*
X150177500Y-82903238D01*
X177850857Y-95077000D02*
X177793714Y-95048428D01*
X177708000Y-95048428D01*
X177622285Y-95077000D01*
X177565142Y-95134142D01*
X177536571Y-95191285D01*
X177508000Y-95305571D01*
X177508000Y-95391285D01*
X177536571Y-95505571D01*
X177565142Y-95562714D01*
X177622285Y-95619857D01*
X177708000Y-95648428D01*
X177765142Y-95648428D01*
X177850857Y-95619857D01*
X177879428Y-95591285D01*
X177879428Y-95391285D01*
X177765142Y-95391285D01*
X178136571Y-95648428D02*
X178136571Y-95048428D01*
X178479428Y-95648428D01*
X178479428Y-95048428D01*
X178765142Y-95648428D02*
X178765142Y-95048428D01*
X178908000Y-95048428D01*
X178993714Y-95077000D01*
X179050857Y-95134142D01*
X179079428Y-95191285D01*
X179108000Y-95305571D01*
X179108000Y-95391285D01*
X179079428Y-95505571D01*
X179050857Y-95562714D01*
X178993714Y-95619857D01*
X178908000Y-95648428D01*
X178765142Y-95648428D01*
X177536571Y-92879857D02*
X177993714Y-92879857D01*
X177765142Y-93108428D02*
X177765142Y-92651285D01*
X178565142Y-92508428D02*
X178279428Y-92508428D01*
X178250857Y-92794142D01*
X178279428Y-92765571D01*
X178336571Y-92737000D01*
X178479428Y-92737000D01*
X178536571Y-92765571D01*
X178565142Y-92794142D01*
X178593714Y-92851285D01*
X178593714Y-92994142D01*
X178565142Y-93051285D01*
X178536571Y-93079857D01*
X178479428Y-93108428D01*
X178336571Y-93108428D01*
X178279428Y-93079857D01*
X178250857Y-93051285D01*
X178765142Y-92508428D02*
X178965142Y-93108428D01*
X179165142Y-92508428D01*
X151828571Y-77857000D02*
X151757142Y-77821285D01*
X151650000Y-77821285D01*
X151542857Y-77857000D01*
X151471428Y-77928428D01*
X151435714Y-77999857D01*
X151400000Y-78142714D01*
X151400000Y-78249857D01*
X151435714Y-78392714D01*
X151471428Y-78464142D01*
X151542857Y-78535571D01*
X151650000Y-78571285D01*
X151721428Y-78571285D01*
X151828571Y-78535571D01*
X151864285Y-78499857D01*
X151864285Y-78249857D01*
X151721428Y-78249857D01*
X152185714Y-78571285D02*
X152185714Y-77821285D01*
X152614285Y-78571285D01*
X152614285Y-77821285D01*
X152971428Y-78571285D02*
X152971428Y-77821285D01*
X153150000Y-77821285D01*
X153257142Y-77857000D01*
X153328571Y-77928428D01*
X153364285Y-77999857D01*
X153400000Y-78142714D01*
X153400000Y-78249857D01*
X153364285Y-78392714D01*
X153328571Y-78464142D01*
X153257142Y-78535571D01*
X153150000Y-78571285D01*
X152971428Y-78571285D01*
X161238571Y-78285571D02*
X161810000Y-78285571D01*
X161524285Y-78571285D02*
X161524285Y-77999857D01*
X162095714Y-77821285D02*
X162560000Y-77821285D01*
X162310000Y-78107000D01*
X162417142Y-78107000D01*
X162488571Y-78142714D01*
X162524285Y-78178428D01*
X162560000Y-78249857D01*
X162560000Y-78428428D01*
X162524285Y-78499857D01*
X162488571Y-78535571D01*
X162417142Y-78571285D01*
X162202857Y-78571285D01*
X162131428Y-78535571D01*
X162095714Y-78499857D01*
X162774285Y-77821285D02*
X163024285Y-78571285D01*
X163274285Y-77821285D01*
X163452857Y-77821285D02*
X163917142Y-77821285D01*
X163667142Y-78107000D01*
X163774285Y-78107000D01*
X163845714Y-78142714D01*
X163881428Y-78178428D01*
X163917142Y-78249857D01*
X163917142Y-78428428D01*
X163881428Y-78499857D01*
X163845714Y-78535571D01*
X163774285Y-78571285D01*
X163560000Y-78571285D01*
X163488571Y-78535571D01*
X163452857Y-78499857D01*
X161595714Y-71681571D02*
X162167142Y-71681571D01*
X161881428Y-71967285D02*
X161881428Y-71395857D01*
X162881428Y-71217285D02*
X162524285Y-71217285D01*
X162488571Y-71574428D01*
X162524285Y-71538714D01*
X162595714Y-71503000D01*
X162774285Y-71503000D01*
X162845714Y-71538714D01*
X162881428Y-71574428D01*
X162917142Y-71645857D01*
X162917142Y-71824428D01*
X162881428Y-71895857D01*
X162845714Y-71931571D01*
X162774285Y-71967285D01*
X162595714Y-71967285D01*
X162524285Y-71931571D01*
X162488571Y-71895857D01*
X163131428Y-71217285D02*
X163381428Y-71967285D01*
X163631428Y-71217285D01*
D12*
X169164000Y-92075000D02*
G75*
G03*
X169164000Y-92075000I-127000J0D01*
G01*
D13*
X143510000Y-96266000D02*
G75*
G03*
X143510000Y-96266000I-127000J0D01*
G01*
D14*
X116429285Y-86625857D02*
X116429285Y-86197285D01*
X117179285Y-86411571D02*
X116429285Y-86411571D01*
X117179285Y-85947285D02*
X116429285Y-85947285D01*
X116965000Y-85697285D01*
X116429285Y-85447285D01*
X117179285Y-85447285D01*
X117143571Y-85125857D02*
X117179285Y-85018714D01*
X117179285Y-84840142D01*
X117143571Y-84768714D01*
X117107857Y-84732999D01*
X117036428Y-84697285D01*
X116965000Y-84697285D01*
X116893571Y-84732999D01*
X116857857Y-84768714D01*
X116822142Y-84840142D01*
X116786428Y-84982999D01*
X116750714Y-85054428D01*
X116715000Y-85090142D01*
X116643571Y-85125857D01*
X116572142Y-85125857D01*
X116500714Y-85090142D01*
X116465000Y-85054428D01*
X116429285Y-84982999D01*
X116429285Y-84804428D01*
X116465000Y-84697285D01*
X118969285Y-86161571D02*
X118969285Y-85732999D01*
X119719285Y-85947285D02*
X118969285Y-85947285D01*
X119719285Y-85482999D02*
X118969285Y-85482999D01*
X118969285Y-85304428D01*
X119005000Y-85197285D01*
X119076428Y-85125856D01*
X119147857Y-85090142D01*
X119290714Y-85054428D01*
X119397857Y-85054428D01*
X119540714Y-85090142D01*
X119612142Y-85125856D01*
X119683571Y-85197285D01*
X119719285Y-85304428D01*
X119719285Y-85482999D01*
X119719285Y-84732999D02*
X118969285Y-84732999D01*
X121509285Y-86590142D02*
X121509285Y-86161571D01*
X122259285Y-86375857D02*
X121509285Y-86375857D01*
X122259285Y-85911571D02*
X121509285Y-85911571D01*
X121509285Y-85733000D01*
X121545000Y-85625857D01*
X121616428Y-85554428D01*
X121687857Y-85518714D01*
X121830714Y-85483000D01*
X121937857Y-85483000D01*
X122080714Y-85518714D01*
X122152142Y-85554428D01*
X122223571Y-85625857D01*
X122259285Y-85733000D01*
X122259285Y-85911571D01*
X121509285Y-85018714D02*
X121509285Y-84875857D01*
X121545000Y-84804428D01*
X121616428Y-84733000D01*
X121759285Y-84697285D01*
X122009285Y-84697285D01*
X122152142Y-84733000D01*
X122223571Y-84804428D01*
X122259285Y-84875857D01*
X122259285Y-85018714D01*
X122223571Y-85090142D01*
X122152142Y-85161571D01*
X122009285Y-85197285D01*
X121759285Y-85197285D01*
X121616428Y-85161571D01*
X121545000Y-85090142D01*
X121509285Y-85018714D01*
X124049285Y-86554428D02*
X124049285Y-86125857D01*
X124799285Y-86340143D02*
X124049285Y-86340143D01*
X124727857Y-85447285D02*
X124763571Y-85483000D01*
X124799285Y-85590143D01*
X124799285Y-85661571D01*
X124763571Y-85768714D01*
X124692142Y-85840143D01*
X124620714Y-85875857D01*
X124477857Y-85911571D01*
X124370714Y-85911571D01*
X124227857Y-85875857D01*
X124156428Y-85840143D01*
X124085000Y-85768714D01*
X124049285Y-85661571D01*
X124049285Y-85590143D01*
X124085000Y-85483000D01*
X124120714Y-85447285D01*
X124799285Y-85125857D02*
X124049285Y-85125857D01*
X124799285Y-84697285D02*
X124370714Y-85018714D01*
X124049285Y-84697285D02*
X124477857Y-85125857D01*
X126625000Y-86268713D02*
X126589285Y-86340142D01*
X126589285Y-86447285D01*
X126625000Y-86554427D01*
X126696428Y-86625856D01*
X126767857Y-86661570D01*
X126910714Y-86697285D01*
X127017857Y-86697285D01*
X127160714Y-86661570D01*
X127232142Y-86625856D01*
X127303571Y-86554427D01*
X127339285Y-86447285D01*
X127339285Y-86375856D01*
X127303571Y-86268713D01*
X127267857Y-86232999D01*
X127017857Y-86232999D01*
X127017857Y-86375856D01*
X127339285Y-85911570D02*
X126589285Y-85911570D01*
X127339285Y-85482999D01*
X126589285Y-85482999D01*
X127339285Y-85125856D02*
X126589285Y-85125856D01*
X126589285Y-84947285D01*
X126625000Y-84840142D01*
X126696428Y-84768713D01*
X126767857Y-84732999D01*
X126910714Y-84697285D01*
X127017857Y-84697285D01*
X127160714Y-84732999D01*
X127232142Y-84768713D01*
X127303571Y-84840142D01*
X127339285Y-84947285D01*
X127339285Y-85125856D01*
X129593571Y-87733000D02*
X129593571Y-87161571D01*
X129879285Y-87447285D02*
X129307857Y-87447285D01*
X129129285Y-86875857D02*
X129129285Y-86411571D01*
X129415000Y-86661571D01*
X129415000Y-86554428D01*
X129450714Y-86483000D01*
X129486428Y-86447285D01*
X129557857Y-86411571D01*
X129736428Y-86411571D01*
X129807857Y-86447285D01*
X129843571Y-86483000D01*
X129879285Y-86554428D01*
X129879285Y-86768714D01*
X129843571Y-86840142D01*
X129807857Y-86875857D01*
X129807857Y-86090142D02*
X129843571Y-86054428D01*
X129879285Y-86090142D01*
X129843571Y-86125857D01*
X129807857Y-86090142D01*
X129879285Y-86090142D01*
X129129285Y-85804428D02*
X129129285Y-85340142D01*
X129415000Y-85590142D01*
X129415000Y-85483000D01*
X129450714Y-85411571D01*
X129486428Y-85375857D01*
X129557857Y-85340142D01*
X129736428Y-85340142D01*
X129807857Y-85375857D01*
X129843571Y-85411571D01*
X129879285Y-85483000D01*
X129879285Y-85697285D01*
X129843571Y-85768714D01*
X129807857Y-85804428D01*
X129129285Y-85125857D02*
X129879285Y-84875857D01*
X129129285Y-84625857D01*
D15*
X164973000Y-78359000D02*
G75*
G03*
X164973000Y-78359000I-127000J0D01*
G01*
D14*
X140962000Y-37036619D02*
X141009619Y-36941380D01*
X141009619Y-36798523D01*
X140962000Y-36655666D01*
X140866761Y-36560428D01*
X140771523Y-36512809D01*
X140581047Y-36465190D01*
X140438190Y-36465190D01*
X140247714Y-36512809D01*
X140152476Y-36560428D01*
X140057238Y-36655666D01*
X140009619Y-36798523D01*
X140009619Y-36893761D01*
X140057238Y-37036619D01*
X140104857Y-37084238D01*
X140438190Y-37084238D01*
X140438190Y-36893761D01*
X140009619Y-37512809D02*
X141009619Y-37512809D01*
X141009619Y-37893761D01*
X140962000Y-37989000D01*
X140914380Y-38036619D01*
X140819142Y-38084238D01*
X140676285Y-38084238D01*
X140581047Y-38036619D01*
X140533428Y-37989000D01*
X140485809Y-37893761D01*
X140485809Y-37512809D01*
X140009619Y-38512809D02*
X141009619Y-38512809D01*
X141009619Y-39179476D02*
X141009619Y-39369952D01*
X140962000Y-39465190D01*
X140866761Y-39560428D01*
X140676285Y-39608047D01*
X140342952Y-39608047D01*
X140152476Y-39560428D01*
X140057238Y-39465190D01*
X140009619Y-39369952D01*
X140009619Y-39179476D01*
X140057238Y-39084238D01*
X140152476Y-38989000D01*
X140342952Y-38941380D01*
X140676285Y-38941380D01*
X140866761Y-38989000D01*
X140962000Y-39084238D01*
X141009619Y-39179476D01*
X140914380Y-39989000D02*
X140962000Y-40036619D01*
X141009619Y-40131857D01*
X141009619Y-40369952D01*
X140962000Y-40465190D01*
X140914380Y-40512809D01*
X140819142Y-40560428D01*
X140723904Y-40560428D01*
X140581047Y-40512809D01*
X140009619Y-39941380D01*
X140009619Y-40560428D01*
X140676285Y-41417571D02*
X140009619Y-41417571D01*
X141057238Y-41179476D02*
X140342952Y-40941380D01*
X140342952Y-41560428D01*
X115562000Y-37036619D02*
X115609619Y-36941380D01*
X115609619Y-36798523D01*
X115562000Y-36655666D01*
X115466761Y-36560428D01*
X115371523Y-36512809D01*
X115181047Y-36465190D01*
X115038190Y-36465190D01*
X114847714Y-36512809D01*
X114752476Y-36560428D01*
X114657238Y-36655666D01*
X114609619Y-36798523D01*
X114609619Y-36893761D01*
X114657238Y-37036619D01*
X114704857Y-37084238D01*
X115038190Y-37084238D01*
X115038190Y-36893761D01*
X114609619Y-37512809D02*
X115609619Y-37512809D01*
X115609619Y-37893761D01*
X115562000Y-37989000D01*
X115514380Y-38036619D01*
X115419142Y-38084238D01*
X115276285Y-38084238D01*
X115181047Y-38036619D01*
X115133428Y-37989000D01*
X115085809Y-37893761D01*
X115085809Y-37512809D01*
X114609619Y-38512809D02*
X115609619Y-38512809D01*
X115609619Y-39179476D02*
X115609619Y-39369952D01*
X115562000Y-39465190D01*
X115466761Y-39560428D01*
X115276285Y-39608047D01*
X114942952Y-39608047D01*
X114752476Y-39560428D01*
X114657238Y-39465190D01*
X114609619Y-39369952D01*
X114609619Y-39179476D01*
X114657238Y-39084238D01*
X114752476Y-38989000D01*
X114942952Y-38941380D01*
X115276285Y-38941380D01*
X115466761Y-38989000D01*
X115562000Y-39084238D01*
X115609619Y-39179476D01*
X115514380Y-39989000D02*
X115562000Y-40036619D01*
X115609619Y-40131857D01*
X115609619Y-40369952D01*
X115562000Y-40465190D01*
X115514380Y-40512809D01*
X115419142Y-40560428D01*
X115323904Y-40560428D01*
X115181047Y-40512809D01*
X114609619Y-39941380D01*
X114609619Y-40560428D01*
X115609619Y-41179476D02*
X115609619Y-41274714D01*
X115562000Y-41369952D01*
X115514380Y-41417571D01*
X115419142Y-41465190D01*
X115228666Y-41512809D01*
X114990571Y-41512809D01*
X114800095Y-41465190D01*
X114704857Y-41417571D01*
X114657238Y-41369952D01*
X114609619Y-41274714D01*
X114609619Y-41179476D01*
X114657238Y-41084238D01*
X114704857Y-41036619D01*
X114800095Y-40989000D01*
X114990571Y-40941380D01*
X115228666Y-40941380D01*
X115419142Y-40989000D01*
X115514380Y-41036619D01*
X115562000Y-41084238D01*
X115609619Y-41179476D01*
X128262000Y-48942809D02*
X128309619Y-48847571D01*
X128309619Y-48704714D01*
X128262000Y-48561857D01*
X128166761Y-48466619D01*
X128071523Y-48419000D01*
X127881047Y-48371380D01*
X127738190Y-48371380D01*
X127547714Y-48419000D01*
X127452476Y-48466619D01*
X127357238Y-48561857D01*
X127309619Y-48704714D01*
X127309619Y-48799952D01*
X127357238Y-48942809D01*
X127404857Y-48990428D01*
X127738190Y-48990428D01*
X127738190Y-48799952D01*
X127309619Y-49419000D02*
X128309619Y-49419000D01*
X128309619Y-49799952D01*
X128262000Y-49895190D01*
X128214380Y-49942809D01*
X128119142Y-49990428D01*
X127976285Y-49990428D01*
X127881047Y-49942809D01*
X127833428Y-49895190D01*
X127785809Y-49799952D01*
X127785809Y-49419000D01*
X127309619Y-50419000D02*
X128309619Y-50419000D01*
X128309619Y-51085666D02*
X128309619Y-51276142D01*
X128262000Y-51371380D01*
X128166761Y-51466619D01*
X127976285Y-51514238D01*
X127642952Y-51514238D01*
X127452476Y-51466619D01*
X127357238Y-51371380D01*
X127309619Y-51276142D01*
X127309619Y-51085666D01*
X127357238Y-50990428D01*
X127452476Y-50895190D01*
X127642952Y-50847571D01*
X127976285Y-50847571D01*
X128166761Y-50895190D01*
X128262000Y-50990428D01*
X128309619Y-51085666D01*
X128309619Y-52133285D02*
X128309619Y-52228523D01*
X128262000Y-52323761D01*
X128214380Y-52371380D01*
X128119142Y-52419000D01*
X127928666Y-52466619D01*
X127690571Y-52466619D01*
X127500095Y-52419000D01*
X127404857Y-52371380D01*
X127357238Y-52323761D01*
X127309619Y-52228523D01*
X127309619Y-52133285D01*
X127357238Y-52038047D01*
X127404857Y-51990428D01*
X127500095Y-51942809D01*
X127690571Y-51895190D01*
X127928666Y-51895190D01*
X128119142Y-51942809D01*
X128214380Y-51990428D01*
X128262000Y-52038047D01*
X128309619Y-52133285D01*
X128262000Y-37512809D02*
X128309619Y-37417571D01*
X128309619Y-37274714D01*
X128262000Y-37131857D01*
X128166761Y-37036619D01*
X128071523Y-36989000D01*
X127881047Y-36941380D01*
X127738190Y-36941380D01*
X127547714Y-36989000D01*
X127452476Y-37036619D01*
X127357238Y-37131857D01*
X127309619Y-37274714D01*
X127309619Y-37369952D01*
X127357238Y-37512809D01*
X127404857Y-37560428D01*
X127738190Y-37560428D01*
X127738190Y-37369952D01*
X127309619Y-37989000D02*
X128309619Y-37989000D01*
X128309619Y-38369952D01*
X128262000Y-38465190D01*
X128214380Y-38512809D01*
X128119142Y-38560428D01*
X127976285Y-38560428D01*
X127881047Y-38512809D01*
X127833428Y-38465190D01*
X127785809Y-38369952D01*
X127785809Y-37989000D01*
X127309619Y-38989000D02*
X128309619Y-38989000D01*
X128309619Y-39655666D02*
X128309619Y-39846142D01*
X128262000Y-39941380D01*
X128166761Y-40036619D01*
X127976285Y-40084238D01*
X127642952Y-40084238D01*
X127452476Y-40036619D01*
X127357238Y-39941380D01*
X127309619Y-39846142D01*
X127309619Y-39655666D01*
X127357238Y-39560428D01*
X127452476Y-39465190D01*
X127642952Y-39417571D01*
X127976285Y-39417571D01*
X128166761Y-39465190D01*
X128262000Y-39560428D01*
X128309619Y-39655666D01*
X127309619Y-41036619D02*
X127309619Y-40465190D01*
X127309619Y-40750904D02*
X128309619Y-40750904D01*
X128166761Y-40655666D01*
X128071523Y-40560428D01*
X128023904Y-40465190D01*
X162347714Y-46823285D02*
X162347714Y-46394714D01*
X162347714Y-46609000D02*
X163097714Y-46609000D01*
X162990571Y-46537571D01*
X162919142Y-46466142D01*
X162883428Y-46394714D01*
X163026285Y-42584714D02*
X163062000Y-42620428D01*
X163097714Y-42691857D01*
X163097714Y-42870428D01*
X163062000Y-42941857D01*
X163026285Y-42977571D01*
X162954857Y-43013285D01*
X162883428Y-43013285D01*
X162776285Y-42977571D01*
X162347714Y-42549000D01*
X162347714Y-43013285D01*
D10*
X163957000Y-42799000D02*
G75*
G03*
X163957000Y-42799000I-1270000J0D01*
G01*
D14*
X152187714Y-42656142D02*
X152187714Y-42227571D01*
X152187714Y-42441857D02*
X152937714Y-42441857D01*
X152830571Y-42370428D01*
X152759142Y-42299000D01*
X152723428Y-42227571D01*
X152937714Y-43120428D02*
X152937714Y-43191857D01*
X152902000Y-43263285D01*
X152866285Y-43299000D01*
X152794857Y-43334714D01*
X152652000Y-43370428D01*
X152473428Y-43370428D01*
X152330571Y-43334714D01*
X152259142Y-43299000D01*
X152223428Y-43263285D01*
X152187714Y-43191857D01*
X152187714Y-43120428D01*
X152223428Y-43049000D01*
X152259142Y-43013285D01*
X152330571Y-42977571D01*
X152473428Y-42941857D01*
X152652000Y-42941857D01*
X152794857Y-42977571D01*
X152866285Y-43013285D01*
X152902000Y-43049000D01*
X152937714Y-43120428D01*
X152187714Y-46466142D02*
X152187714Y-46609000D01*
X152223428Y-46680428D01*
X152259142Y-46716142D01*
X152366285Y-46787571D01*
X152509142Y-46823285D01*
X152794857Y-46823285D01*
X152866285Y-46787571D01*
X152902000Y-46751857D01*
X152937714Y-46680428D01*
X152937714Y-46537571D01*
X152902000Y-46466142D01*
X152866285Y-46430428D01*
X152794857Y-46394714D01*
X152616285Y-46394714D01*
X152544857Y-46430428D01*
X152509142Y-46466142D01*
X152473428Y-46537571D01*
X152473428Y-46680428D01*
X152509142Y-46751857D01*
X152544857Y-46787571D01*
X152616285Y-46823285D01*
D10*
X153797000Y-42799000D02*
G75*
G03*
X153797000Y-42799000I-1270000J0D01*
G01*
D14*
X142027714Y-46466142D02*
X142027714Y-46037571D01*
X142027714Y-46251857D02*
X142777714Y-46251857D01*
X142670571Y-46180428D01*
X142599142Y-46109000D01*
X142563428Y-46037571D01*
X142777714Y-46716142D02*
X142777714Y-47216142D01*
X142027714Y-46894714D01*
D10*
X143637000Y-46609000D02*
G75*
G03*
X143637000Y-46609000I-1270000J0D01*
G01*
D14*
X142027714Y-42656142D02*
X142027714Y-42227571D01*
X142027714Y-42441857D02*
X142777714Y-42441857D01*
X142670571Y-42370428D01*
X142599142Y-42299000D01*
X142563428Y-42227571D01*
X142456285Y-43084714D02*
X142492000Y-43013285D01*
X142527714Y-42977571D01*
X142599142Y-42941857D01*
X142634857Y-42941857D01*
X142706285Y-42977571D01*
X142742000Y-43013285D01*
X142777714Y-43084714D01*
X142777714Y-43227571D01*
X142742000Y-43299000D01*
X142706285Y-43334714D01*
X142634857Y-43370428D01*
X142599142Y-43370428D01*
X142527714Y-43334714D01*
X142492000Y-43299000D01*
X142456285Y-43227571D01*
X142456285Y-43084714D01*
X142420571Y-43013285D01*
X142384857Y-42977571D01*
X142313428Y-42941857D01*
X142170571Y-42941857D01*
X142099142Y-42977571D01*
X142063428Y-43013285D01*
X142027714Y-43084714D01*
X142027714Y-43227571D01*
X142063428Y-43299000D01*
X142099142Y-43334714D01*
X142170571Y-43370428D01*
X142313428Y-43370428D01*
X142384857Y-43334714D01*
X142420571Y-43299000D01*
X142456285Y-43227571D01*
X117377714Y-46001857D02*
X117377714Y-46466142D01*
X117092000Y-46216142D01*
X117092000Y-46323285D01*
X117056285Y-46394714D01*
X117020571Y-46430428D01*
X116949142Y-46466142D01*
X116770571Y-46466142D01*
X116699142Y-46430428D01*
X116663428Y-46394714D01*
X116627714Y-46323285D01*
X116627714Y-46109000D01*
X116663428Y-46037571D01*
X116699142Y-46001857D01*
X117377714Y-46716142D02*
X117377714Y-47216142D01*
X116627714Y-46894714D01*
D10*
X118237000Y-46609000D02*
G75*
G03*
X118237000Y-46609000I-1270000J0D01*
G01*
D14*
X117377714Y-42191857D02*
X117377714Y-42656142D01*
X117092000Y-42406142D01*
X117092000Y-42513285D01*
X117056285Y-42584714D01*
X117020571Y-42620428D01*
X116949142Y-42656142D01*
X116770571Y-42656142D01*
X116699142Y-42620428D01*
X116663428Y-42584714D01*
X116627714Y-42513285D01*
X116627714Y-42299000D01*
X116663428Y-42227571D01*
X116699142Y-42191857D01*
X117056285Y-43084714D02*
X117092000Y-43013285D01*
X117127714Y-42977571D01*
X117199142Y-42941857D01*
X117234857Y-42941857D01*
X117306285Y-42977571D01*
X117342000Y-43013285D01*
X117377714Y-43084714D01*
X117377714Y-43227571D01*
X117342000Y-43299000D01*
X117306285Y-43334714D01*
X117234857Y-43370428D01*
X117199142Y-43370428D01*
X117127714Y-43334714D01*
X117092000Y-43299000D01*
X117056285Y-43227571D01*
X117056285Y-43084714D01*
X117020571Y-43013285D01*
X116984857Y-42977571D01*
X116913428Y-42941857D01*
X116770571Y-42941857D01*
X116699142Y-42977571D01*
X116663428Y-43013285D01*
X116627714Y-43084714D01*
X116627714Y-43227571D01*
X116663428Y-43299000D01*
X116699142Y-43334714D01*
X116770571Y-43370428D01*
X116913428Y-43370428D01*
X116984857Y-43334714D01*
X117020571Y-43299000D01*
X117056285Y-43227571D01*
X130006285Y-46037571D02*
X130042000Y-46073285D01*
X130077714Y-46144714D01*
X130077714Y-46323285D01*
X130042000Y-46394714D01*
X130006285Y-46430428D01*
X129934857Y-46466142D01*
X129863428Y-46466142D01*
X129756285Y-46430428D01*
X129327714Y-46001857D01*
X129327714Y-46466142D01*
X130077714Y-46716142D02*
X130077714Y-47216142D01*
X129327714Y-46894714D01*
X130006285Y-42227571D02*
X130042000Y-42263285D01*
X130077714Y-42334714D01*
X130077714Y-42513285D01*
X130042000Y-42584714D01*
X130006285Y-42620428D01*
X129934857Y-42656142D01*
X129863428Y-42656142D01*
X129756285Y-42620428D01*
X129327714Y-42191857D01*
X129327714Y-42656142D01*
X129756285Y-43084714D02*
X129792000Y-43013285D01*
X129827714Y-42977571D01*
X129899142Y-42941857D01*
X129934857Y-42941857D01*
X130006285Y-42977571D01*
X130042000Y-43013285D01*
X130077714Y-43084714D01*
X130077714Y-43227571D01*
X130042000Y-43299000D01*
X130006285Y-43334714D01*
X129934857Y-43370428D01*
X129899142Y-43370428D01*
X129827714Y-43334714D01*
X129792000Y-43299000D01*
X129756285Y-43227571D01*
X129756285Y-43084714D01*
X129720571Y-43013285D01*
X129684857Y-42977571D01*
X129613428Y-42941857D01*
X129470571Y-42941857D01*
X129399142Y-42977571D01*
X129363428Y-43013285D01*
X129327714Y-43084714D01*
X129327714Y-43227571D01*
X129363428Y-43299000D01*
X129399142Y-43334714D01*
X129470571Y-43370428D01*
X129613428Y-43370428D01*
X129684857Y-43334714D01*
X129720571Y-43299000D01*
X129756285Y-43227571D01*
D12*
X153277000Y-49276142D02*
X153348428Y-49133285D01*
X153348428Y-48919000D01*
X153277000Y-48704714D01*
X153134142Y-48561857D01*
X152991285Y-48490428D01*
X152705571Y-48419000D01*
X152491285Y-48419000D01*
X152205571Y-48490428D01*
X152062714Y-48561857D01*
X151919857Y-48704714D01*
X151848428Y-48919000D01*
X151848428Y-49061857D01*
X151919857Y-49276142D01*
X151991285Y-49347571D01*
X152491285Y-49347571D01*
X152491285Y-49061857D01*
X151848428Y-49990428D02*
X153348428Y-49990428D01*
X151848428Y-50847571D01*
X153348428Y-50847571D01*
X151848428Y-51561857D02*
X153348428Y-51561857D01*
X153348428Y-51919000D01*
X153277000Y-52133285D01*
X153134142Y-52276142D01*
X152991285Y-52347571D01*
X152705571Y-52419000D01*
X152491285Y-52419000D01*
X152205571Y-52347571D01*
X152062714Y-52276142D01*
X151919857Y-52133285D01*
X151848428Y-51919000D01*
X151848428Y-51561857D01*
X162579857Y-48411142D02*
X162579857Y-49554000D01*
X162008428Y-48982571D02*
X163151285Y-48982571D01*
X163508428Y-50125428D02*
X163508428Y-51054000D01*
X162937000Y-50554000D01*
X162937000Y-50768285D01*
X162865571Y-50911142D01*
X162794142Y-50982571D01*
X162651285Y-51054000D01*
X162294142Y-51054000D01*
X162151285Y-50982571D01*
X162079857Y-50911142D01*
X162008428Y-50768285D01*
X162008428Y-50339714D01*
X162079857Y-50196857D01*
X162151285Y-50125428D01*
X163508428Y-51482571D02*
X162008428Y-51982571D01*
X163508428Y-52482571D01*
X163508428Y-52839714D02*
X163508428Y-53768285D01*
X162937000Y-53268285D01*
X162937000Y-53482571D01*
X162865571Y-53625428D01*
X162794142Y-53696857D01*
X162651285Y-53768285D01*
X162294142Y-53768285D01*
X162151285Y-53696857D01*
X162079857Y-53625428D01*
X162008428Y-53482571D01*
X162008428Y-53054000D01*
X162079857Y-52911142D01*
X162151285Y-52839714D01*
X130488428Y-48883285D02*
X130488428Y-49740428D01*
X128988428Y-49311857D02*
X130488428Y-49311857D01*
X128988428Y-50240428D02*
X130488428Y-50240428D01*
X130488428Y-50597571D01*
X130417000Y-50811857D01*
X130274142Y-50954714D01*
X130131285Y-51026142D01*
X129845571Y-51097571D01*
X129631285Y-51097571D01*
X129345571Y-51026142D01*
X129202714Y-50954714D01*
X129059857Y-50811857D01*
X128988428Y-50597571D01*
X128988428Y-50240428D01*
X128988428Y-51740428D02*
X130488428Y-51740428D01*
X130488428Y-36989000D02*
X130488428Y-37846142D01*
X128988428Y-37417571D02*
X130488428Y-37417571D01*
X128988428Y-38346142D02*
X130488428Y-38346142D01*
X129417000Y-38846142D01*
X130488428Y-39346142D01*
X128988428Y-39346142D01*
X129059857Y-39989000D02*
X128988428Y-40203285D01*
X128988428Y-40560428D01*
X129059857Y-40703285D01*
X129131285Y-40774714D01*
X129274142Y-40846142D01*
X129417000Y-40846142D01*
X129559857Y-40774714D01*
X129631285Y-40703285D01*
X129702714Y-40560428D01*
X129774142Y-40274714D01*
X129845571Y-40131857D01*
X129917000Y-40060428D01*
X130059857Y-39989000D01*
X130202714Y-39989000D01*
X130345571Y-40060428D01*
X130417000Y-40131857D01*
X130488428Y-40274714D01*
X130488428Y-40631857D01*
X130417000Y-40846142D01*
X117788428Y-37060428D02*
X117788428Y-37917571D01*
X116288428Y-37489000D02*
X117788428Y-37489000D01*
X116431285Y-39274714D02*
X116359857Y-39203285D01*
X116288428Y-38989000D01*
X116288428Y-38846142D01*
X116359857Y-38631857D01*
X116502714Y-38489000D01*
X116645571Y-38417571D01*
X116931285Y-38346142D01*
X117145571Y-38346142D01*
X117431285Y-38417571D01*
X117574142Y-38489000D01*
X117717000Y-38631857D01*
X117788428Y-38846142D01*
X117788428Y-38989000D01*
X117717000Y-39203285D01*
X117645571Y-39274714D01*
X116288428Y-39917571D02*
X117788428Y-39917571D01*
X116288428Y-40774714D02*
X117145571Y-40131857D01*
X117788428Y-40774714D02*
X116931285Y-39917571D01*
X143188428Y-37024714D02*
X143188428Y-37881857D01*
X141688428Y-37453285D02*
X143188428Y-37453285D01*
X141688428Y-38381857D02*
X143188428Y-38381857D01*
X143188428Y-38739000D01*
X143117000Y-38953285D01*
X142974142Y-39096142D01*
X142831285Y-39167571D01*
X142545571Y-39239000D01*
X142331285Y-39239000D01*
X142045571Y-39167571D01*
X141902714Y-39096142D01*
X141759857Y-38953285D01*
X141688428Y-38739000D01*
X141688428Y-38381857D01*
X143188428Y-40167571D02*
X143188428Y-40453285D01*
X143117000Y-40596142D01*
X142974142Y-40739000D01*
X142688428Y-40810428D01*
X142188428Y-40810428D01*
X141902714Y-40739000D01*
X141759857Y-40596142D01*
X141688428Y-40453285D01*
X141688428Y-40167571D01*
X141759857Y-40024714D01*
X141902714Y-39881857D01*
X142188428Y-39810428D01*
X142688428Y-39810428D01*
X142974142Y-39881857D01*
X143117000Y-40024714D01*
X143188428Y-40167571D01*
D16*
%TO.C,FFC18*%
X138811000Y-101600000D02*
G75*
G03*
X138811000Y-101600000I-127000J0D01*
G01*
X137350000Y-100965000D02*
X137350000Y-102364000D01*
X137350000Y-105826000D02*
X137350000Y-107950000D01*
X137350000Y-100965000D02*
X139559000Y-100965000D01*
X137350000Y-107950000D02*
X159830000Y-107950000D01*
X159830000Y-107950000D02*
X159830000Y-105826000D01*
X159830000Y-100965000D02*
X157621000Y-100965000D01*
X159830000Y-102364000D02*
X159830000Y-100965000D01*
D10*
%TO.C,solarmon*%
X107188000Y-85090000D02*
X109093000Y-85090000D01*
X107823000Y-84455000D02*
X107823000Y-89535000D01*
X110998000Y-85725000D02*
X107188000Y-85725000D01*
X107188000Y-85725000D02*
X107188000Y-85090000D01*
X107823000Y-84455000D02*
X110998000Y-84455000D01*
X109093000Y-84455000D02*
X109093000Y-85090000D01*
X109728000Y-84455000D02*
X109728000Y-85090000D01*
X109728000Y-85090000D02*
X110363000Y-85090000D01*
X110363000Y-84455000D02*
X110363000Y-85090000D01*
X110998000Y-84455000D02*
X110998000Y-89535000D01*
X108458000Y-85725000D02*
X108458000Y-86360000D01*
X108458000Y-86360000D02*
X109728000Y-86360000D01*
X109093000Y-85725000D02*
X109093000Y-86995000D01*
X109728000Y-85725000D02*
X109728000Y-86360000D01*
X110363000Y-85725000D02*
X110363000Y-86360000D01*
X107188000Y-86995000D02*
X112268000Y-86995000D01*
X107188000Y-88265000D02*
X107188000Y-86995000D01*
X107188000Y-87630000D02*
X112268000Y-87630000D01*
X107188000Y-88265000D02*
X110998000Y-88265000D01*
X107823000Y-88900000D02*
X110998000Y-88900000D01*
X108458000Y-88900000D02*
X108458000Y-89535000D01*
X110363000Y-88900000D02*
X110363000Y-89535000D01*
X107823000Y-89535000D02*
X108458000Y-89535000D01*
X110363000Y-89535000D02*
X110998000Y-89535000D01*
X111633000Y-89535000D02*
X112268000Y-89535000D01*
X111633000Y-85090000D02*
X111633000Y-89535000D01*
X112268000Y-85090000D02*
X112268000Y-89535000D01*
X111633000Y-85090000D02*
X112268000Y-85090000D01*
X111633000Y-85725000D02*
X112268000Y-85725000D01*
X111633000Y-88900000D02*
X112268000Y-88900000D01*
X109728000Y-87630000D02*
X109728000Y-88265000D01*
X110363000Y-87630000D02*
X110363000Y-88265000D01*
G36*
X109728000Y-86360000D02*
G01*
X109093000Y-86360000D01*
X109093000Y-85725000D01*
X109728000Y-85725000D01*
X109728000Y-86360000D01*
G37*
X109728000Y-86360000D02*
X109093000Y-86360000D01*
X109093000Y-85725000D01*
X109728000Y-85725000D01*
X109728000Y-86360000D01*
G36*
X110998000Y-86360000D02*
G01*
X110363000Y-86360000D01*
X110363000Y-85725000D01*
X110998000Y-85725000D01*
X110998000Y-86360000D01*
G37*
X110998000Y-86360000D02*
X110363000Y-86360000D01*
X110363000Y-85725000D01*
X110998000Y-85725000D01*
X110998000Y-86360000D01*
G36*
X110363000Y-88265000D02*
G01*
X109728000Y-88265000D01*
X109728000Y-87630000D01*
X110363000Y-87630000D01*
X110363000Y-88265000D01*
G37*
X110363000Y-88265000D02*
X109728000Y-88265000D01*
X109728000Y-87630000D01*
X110363000Y-87630000D01*
X110363000Y-88265000D01*
X110363000Y-86360000D02*
X110998000Y-86360000D01*
D11*
%TO.C,JP1*%
X177165000Y-96139000D02*
X177165000Y-97409000D01*
X175895000Y-96139000D02*
X177165000Y-96139000D01*
X172975000Y-98451929D02*
X172975000Y-98849000D01*
X173735000Y-98451929D02*
X173735000Y-98849000D01*
X172975000Y-107509000D02*
X172975000Y-101509000D01*
X173735000Y-107509000D02*
X172975000Y-107509000D01*
X173735000Y-101509000D02*
X173735000Y-107509000D01*
X174625000Y-98849000D02*
X174625000Y-101509000D01*
X175515000Y-98519000D02*
X175515000Y-98849000D01*
X176275000Y-98519000D02*
X176275000Y-98849000D01*
X175615000Y-101509000D02*
X175615000Y-107509000D01*
X175735000Y-101509000D02*
X175735000Y-107509000D01*
X175855000Y-101509000D02*
X175855000Y-107509000D01*
X175975000Y-101509000D02*
X175975000Y-107509000D01*
X176095000Y-101509000D02*
X176095000Y-107509000D01*
X176215000Y-101509000D02*
X176215000Y-107509000D01*
X175515000Y-107509000D02*
X175515000Y-101509000D01*
X176275000Y-107509000D02*
X175515000Y-107509000D01*
X176275000Y-101509000D02*
X176275000Y-107509000D01*
X177225000Y-101509000D02*
X177225000Y-98849000D01*
X172025000Y-101509000D02*
X177225000Y-101509000D01*
X172025000Y-98849000D02*
X172025000Y-101509000D01*
X177225000Y-98849000D02*
X172025000Y-98849000D01*
%TO.C,FFOSD1*%
X181780000Y-81220000D02*
X181780000Y-104200000D01*
X181780000Y-104200000D02*
X184440000Y-104200000D01*
X184440000Y-104200000D02*
X184440000Y-81220000D01*
X184440000Y-81220000D02*
X181780000Y-81220000D01*
X184440000Y-82170000D02*
X190440000Y-82170000D01*
X190440000Y-82170000D02*
X190440000Y-82930000D01*
X190440000Y-82930000D02*
X184440000Y-82930000D01*
X184440000Y-82230000D02*
X190440000Y-82230000D01*
X184440000Y-82350000D02*
X190440000Y-82350000D01*
X184440000Y-82470000D02*
X190440000Y-82470000D01*
X184440000Y-82590000D02*
X190440000Y-82590000D01*
X184440000Y-82710000D02*
X190440000Y-82710000D01*
X184440000Y-82830000D02*
X190440000Y-82830000D01*
X181450000Y-82170000D02*
X181780000Y-82170000D01*
X181450000Y-82930000D02*
X181780000Y-82930000D01*
X181780000Y-83820000D02*
X184440000Y-83820000D01*
X184440000Y-84710000D02*
X190440000Y-84710000D01*
X190440000Y-84710000D02*
X190440000Y-85470000D01*
X190440000Y-85470000D02*
X184440000Y-85470000D01*
X181382929Y-84710000D02*
X181780000Y-84710000D01*
X181382929Y-85470000D02*
X181780000Y-85470000D01*
X181780000Y-86360000D02*
X184440000Y-86360000D01*
X184440000Y-87250000D02*
X190440000Y-87250000D01*
X190440000Y-87250000D02*
X190440000Y-88010000D01*
X190440000Y-88010000D02*
X184440000Y-88010000D01*
X181382929Y-87250000D02*
X181780000Y-87250000D01*
X181382929Y-88010000D02*
X181780000Y-88010000D01*
X181780000Y-88900000D02*
X184440000Y-88900000D01*
X184440000Y-89790000D02*
X190440000Y-89790000D01*
X190440000Y-89790000D02*
X190440000Y-90550000D01*
X190440000Y-90550000D02*
X184440000Y-90550000D01*
X181382929Y-89790000D02*
X181780000Y-89790000D01*
X181382929Y-90550000D02*
X181780000Y-90550000D01*
X181780000Y-91440000D02*
X184440000Y-91440000D01*
X184440000Y-92330000D02*
X190440000Y-92330000D01*
X190440000Y-92330000D02*
X190440000Y-93090000D01*
X190440000Y-93090000D02*
X184440000Y-93090000D01*
X181382929Y-92330000D02*
X181780000Y-92330000D01*
X181382929Y-93090000D02*
X181780000Y-93090000D01*
X181780000Y-93980000D02*
X184440000Y-93980000D01*
X184440000Y-94870000D02*
X190440000Y-94870000D01*
X190440000Y-94870000D02*
X190440000Y-95630000D01*
X190440000Y-95630000D02*
X184440000Y-95630000D01*
X181382929Y-94870000D02*
X181780000Y-94870000D01*
X181382929Y-95630000D02*
X181780000Y-95630000D01*
X181780000Y-96520000D02*
X184440000Y-96520000D01*
X184440000Y-97410000D02*
X190440000Y-97410000D01*
X190440000Y-97410000D02*
X190440000Y-98170000D01*
X190440000Y-98170000D02*
X184440000Y-98170000D01*
X181382929Y-97410000D02*
X181780000Y-97410000D01*
X181382929Y-98170000D02*
X181780000Y-98170000D01*
X181780000Y-99060000D02*
X184440000Y-99060000D01*
X184440000Y-99950000D02*
X190440000Y-99950000D01*
X190440000Y-99950000D02*
X190440000Y-100710000D01*
X190440000Y-100710000D02*
X184440000Y-100710000D01*
X181382929Y-99950000D02*
X181780000Y-99950000D01*
X181382929Y-100710000D02*
X181780000Y-100710000D01*
X181780000Y-101600000D02*
X184440000Y-101600000D01*
X184440000Y-102490000D02*
X190440000Y-102490000D01*
X190440000Y-102490000D02*
X190440000Y-103250000D01*
X190440000Y-103250000D02*
X184440000Y-103250000D01*
X181382929Y-102490000D02*
X181780000Y-102490000D01*
X181382929Y-103250000D02*
X181780000Y-103250000D01*
X179070000Y-82550000D02*
X179070000Y-81280000D01*
X179070000Y-81280000D02*
X180340000Y-81280000D01*
%TO.C,P1*%
X172593000Y-69850000D02*
X173863000Y-69850000D01*
X172593000Y-71120000D02*
X172593000Y-69850000D01*
X174905929Y-79120000D02*
X175303000Y-79120000D01*
X174905929Y-78360000D02*
X175303000Y-78360000D01*
X183963000Y-79120000D02*
X177963000Y-79120000D01*
X183963000Y-78360000D02*
X183963000Y-79120000D01*
X177963000Y-78360000D02*
X183963000Y-78360000D01*
X175303000Y-77470000D02*
X177963000Y-77470000D01*
X174905929Y-76580000D02*
X175303000Y-76580000D01*
X174905929Y-75820000D02*
X175303000Y-75820000D01*
X183963000Y-76580000D02*
X177963000Y-76580000D01*
X183963000Y-75820000D02*
X183963000Y-76580000D01*
X177963000Y-75820000D02*
X183963000Y-75820000D01*
X175303000Y-74930000D02*
X177963000Y-74930000D01*
X174905929Y-74040000D02*
X175303000Y-74040000D01*
X174905929Y-73280000D02*
X175303000Y-73280000D01*
X183963000Y-74040000D02*
X177963000Y-74040000D01*
X183963000Y-73280000D02*
X183963000Y-74040000D01*
X177963000Y-73280000D02*
X183963000Y-73280000D01*
X175303000Y-72390000D02*
X177963000Y-72390000D01*
X174973000Y-71500000D02*
X175303000Y-71500000D01*
X174973000Y-70740000D02*
X175303000Y-70740000D01*
X177963000Y-71400000D02*
X183963000Y-71400000D01*
X177963000Y-71280000D02*
X183963000Y-71280000D01*
X177963000Y-71160000D02*
X183963000Y-71160000D01*
X177963000Y-71040000D02*
X183963000Y-71040000D01*
X177963000Y-70920000D02*
X183963000Y-70920000D01*
X177963000Y-70800000D02*
X183963000Y-70800000D01*
X183963000Y-71500000D02*
X177963000Y-71500000D01*
X183963000Y-70740000D02*
X183963000Y-71500000D01*
X177963000Y-70740000D02*
X183963000Y-70740000D01*
X177963000Y-69790000D02*
X175303000Y-69790000D01*
X177963000Y-80070000D02*
X177963000Y-69790000D01*
X175303000Y-80070000D02*
X177963000Y-80070000D01*
X175303000Y-69790000D02*
X175303000Y-80070000D01*
%TO.C,R7*%
X116105000Y-90323936D02*
X116105000Y-90778064D01*
X117575000Y-90323936D02*
X117575000Y-90778064D01*
%TO.C,R6*%
X122455000Y-90323936D02*
X122455000Y-90778064D01*
X123925000Y-90323936D02*
X123925000Y-90778064D01*
%TO.C,BT3*%
X120650000Y-96139000D02*
X120650000Y-97409000D01*
X119380000Y-96139000D02*
X120650000Y-96139000D01*
X116460000Y-98451929D02*
X116460000Y-98849000D01*
X117220000Y-98451929D02*
X117220000Y-98849000D01*
X116460000Y-107509000D02*
X116460000Y-101509000D01*
X117220000Y-107509000D02*
X116460000Y-107509000D01*
X117220000Y-101509000D02*
X117220000Y-107509000D01*
X118110000Y-98849000D02*
X118110000Y-101509000D01*
X119000000Y-98519000D02*
X119000000Y-98849000D01*
X119760000Y-98519000D02*
X119760000Y-98849000D01*
X119100000Y-101509000D02*
X119100000Y-107509000D01*
X119220000Y-101509000D02*
X119220000Y-107509000D01*
X119340000Y-101509000D02*
X119340000Y-107509000D01*
X119460000Y-101509000D02*
X119460000Y-107509000D01*
X119580000Y-101509000D02*
X119580000Y-107509000D01*
X119700000Y-101509000D02*
X119700000Y-107509000D01*
X119000000Y-107509000D02*
X119000000Y-101509000D01*
X119760000Y-107509000D02*
X119000000Y-107509000D01*
X119760000Y-101509000D02*
X119760000Y-107509000D01*
X120710000Y-101509000D02*
X120710000Y-98849000D01*
X115510000Y-101509000D02*
X120710000Y-101509000D01*
X115510000Y-98849000D02*
X115510000Y-101509000D01*
X120710000Y-98849000D02*
X115510000Y-98849000D01*
%TO.C,BT2*%
X127000000Y-96139000D02*
X127000000Y-97409000D01*
X125730000Y-96139000D02*
X127000000Y-96139000D01*
X122810000Y-98451929D02*
X122810000Y-98849000D01*
X123570000Y-98451929D02*
X123570000Y-98849000D01*
X122810000Y-107509000D02*
X122810000Y-101509000D01*
X123570000Y-107509000D02*
X122810000Y-107509000D01*
X123570000Y-101509000D02*
X123570000Y-107509000D01*
X124460000Y-98849000D02*
X124460000Y-101509000D01*
X125350000Y-98519000D02*
X125350000Y-98849000D01*
X126110000Y-98519000D02*
X126110000Y-98849000D01*
X125450000Y-101509000D02*
X125450000Y-107509000D01*
X125570000Y-101509000D02*
X125570000Y-107509000D01*
X125690000Y-101509000D02*
X125690000Y-107509000D01*
X125810000Y-101509000D02*
X125810000Y-107509000D01*
X125930000Y-101509000D02*
X125930000Y-107509000D01*
X126050000Y-101509000D02*
X126050000Y-107509000D01*
X125350000Y-107509000D02*
X125350000Y-101509000D01*
X126110000Y-107509000D02*
X125350000Y-107509000D01*
X126110000Y-101509000D02*
X126110000Y-107509000D01*
X127060000Y-101509000D02*
X127060000Y-98849000D01*
X121860000Y-101509000D02*
X127060000Y-101509000D01*
X121860000Y-98849000D02*
X121860000Y-101509000D01*
X127060000Y-98849000D02*
X121860000Y-98849000D01*
%TO.C,C5*%
X167378748Y-85625000D02*
X167901252Y-85625000D01*
X167378748Y-87095000D02*
X167901252Y-87095000D01*
D10*
%TO.C,U2*%
X168315000Y-91820000D02*
X167940000Y-91820000D01*
X168640000Y-91495000D02*
X169165000Y-91495000D01*
X168640000Y-91595000D02*
X168640000Y-91495000D01*
X168315000Y-91820000D02*
X168640000Y-91595000D01*
X166640000Y-88520000D02*
X166965000Y-88520000D01*
X166640000Y-88820000D02*
X166640000Y-88520000D01*
X168640000Y-88520000D02*
X168340000Y-88520000D01*
X168640000Y-88845000D02*
X168640000Y-88520000D01*
X166640000Y-91820000D02*
X166940000Y-91820000D01*
X166640000Y-91495000D02*
X166640000Y-91820000D01*
D11*
%TO.C,R5*%
X174090000Y-91847936D02*
X174090000Y-92302064D01*
X172620000Y-91847936D02*
X172620000Y-92302064D01*
%TO.C,R4*%
X174090000Y-86767936D02*
X174090000Y-87222064D01*
X172620000Y-86767936D02*
X172620000Y-87222064D01*
%TO.C,JTAG1*%
X115510000Y-81220000D02*
X115510000Y-83880000D01*
X128270000Y-81220000D02*
X115510000Y-81220000D01*
X128270000Y-83880000D02*
X115510000Y-83880000D01*
X128270000Y-81220000D02*
X128270000Y-83880000D01*
X129540000Y-81220000D02*
X130870000Y-81220000D01*
X130870000Y-81220000D02*
X130870000Y-82550000D01*
%TO.C,C1*%
X163568748Y-81634000D02*
X164091252Y-81634000D01*
X163568748Y-80164000D02*
X164091252Y-80164000D01*
%TO.C,R3*%
X161697936Y-87095000D02*
X162152064Y-87095000D01*
X161697936Y-85625000D02*
X162152064Y-85625000D01*
%TO.C,R2*%
X161697936Y-98144000D02*
X162152064Y-98144000D01*
X161697936Y-96674000D02*
X162152064Y-96674000D01*
%TO.C,R1*%
X128805000Y-90323936D02*
X128805000Y-90778064D01*
X130275000Y-90323936D02*
X130275000Y-90778064D01*
%TO.C,C4*%
X139038000Y-86621252D02*
X139038000Y-86098748D01*
X137568000Y-86621252D02*
X137568000Y-86098748D01*
%TO.C,C3*%
X160174000Y-91940748D02*
X160174000Y-92463252D01*
X161644000Y-91940748D02*
X161644000Y-92463252D01*
%TO.C,C2*%
X148216252Y-79529000D02*
X147693748Y-79529000D01*
X148216252Y-80999000D02*
X147693748Y-80999000D01*
D14*
%TO.C,U1*%
X143415000Y-95345000D02*
X143990000Y-95345000D01*
X143415000Y-84995000D02*
X144090000Y-84995000D01*
X153765000Y-84995000D02*
X153090000Y-84995000D01*
X153765000Y-95345000D02*
X153090000Y-95345000D01*
X143415000Y-95345000D02*
X143415000Y-94670000D01*
X153765000Y-95345000D02*
X153765000Y-94670000D01*
X153765000Y-84995000D02*
X153765000Y-85670000D01*
X143415000Y-84995000D02*
X143415000Y-85670000D01*
X143990000Y-95345000D02*
X143990000Y-96620000D01*
D11*
%TO.C,J1*%
X163890000Y-76200000D02*
X163890000Y-77530000D01*
X163890000Y-77530000D02*
X162560000Y-77530000D01*
X163890000Y-74930000D02*
X161290000Y-74930000D01*
X161290000Y-74930000D02*
X161290000Y-77530000D01*
X161290000Y-77530000D02*
X112970000Y-77530000D01*
X112970000Y-72330000D02*
X112970000Y-77530000D01*
X163890000Y-72330000D02*
X112970000Y-72330000D01*
X163890000Y-72330000D02*
X163890000Y-74930000D01*
%TO.C,BT1*%
X133410000Y-98849000D02*
X128210000Y-98849000D01*
X128210000Y-98849000D02*
X128210000Y-101509000D01*
X128210000Y-101509000D02*
X133410000Y-101509000D01*
X133410000Y-101509000D02*
X133410000Y-98849000D01*
X132460000Y-101509000D02*
X132460000Y-107509000D01*
X132460000Y-107509000D02*
X131700000Y-107509000D01*
X131700000Y-107509000D02*
X131700000Y-101509000D01*
X132400000Y-101509000D02*
X132400000Y-107509000D01*
X132280000Y-101509000D02*
X132280000Y-107509000D01*
X132160000Y-101509000D02*
X132160000Y-107509000D01*
X132040000Y-101509000D02*
X132040000Y-107509000D01*
X131920000Y-101509000D02*
X131920000Y-107509000D01*
X131800000Y-101509000D02*
X131800000Y-107509000D01*
X132460000Y-98519000D02*
X132460000Y-98849000D01*
X131700000Y-98519000D02*
X131700000Y-98849000D01*
X130810000Y-98849000D02*
X130810000Y-101509000D01*
X129920000Y-101509000D02*
X129920000Y-107509000D01*
X129920000Y-107509000D02*
X129160000Y-107509000D01*
X129160000Y-107509000D02*
X129160000Y-101509000D01*
X129920000Y-98451929D02*
X129920000Y-98849000D01*
X129160000Y-98451929D02*
X129160000Y-98849000D01*
X132080000Y-96139000D02*
X133350000Y-96139000D01*
X133350000Y-96139000D02*
X133350000Y-97409000D01*
%TO.C,FFC18*%
D14*
X135019071Y-100149428D02*
X134769071Y-100149428D01*
X134769071Y-100542285D02*
X134769071Y-99792285D01*
X135126214Y-99792285D01*
X135661928Y-100149428D02*
X135411928Y-100149428D01*
X135411928Y-100542285D02*
X135411928Y-99792285D01*
X135769071Y-99792285D01*
X136483357Y-100470857D02*
X136447642Y-100506571D01*
X136340500Y-100542285D01*
X136269071Y-100542285D01*
X136161928Y-100506571D01*
X136090500Y-100435142D01*
X136054785Y-100363714D01*
X136019071Y-100220857D01*
X136019071Y-100113714D01*
X136054785Y-99970857D01*
X136090500Y-99899428D01*
X136161928Y-99828000D01*
X136269071Y-99792285D01*
X136340500Y-99792285D01*
X136447642Y-99828000D01*
X136483357Y-99863714D01*
X137197642Y-100542285D02*
X136769071Y-100542285D01*
X136983357Y-100542285D02*
X136983357Y-99792285D01*
X136911928Y-99899428D01*
X136840500Y-99970857D01*
X136769071Y-100006571D01*
X137626214Y-100113714D02*
X137554785Y-100078000D01*
X137519071Y-100042285D01*
X137483357Y-99970857D01*
X137483357Y-99935142D01*
X137519071Y-99863714D01*
X137554785Y-99828000D01*
X137626214Y-99792285D01*
X137769071Y-99792285D01*
X137840500Y-99828000D01*
X137876214Y-99863714D01*
X137911928Y-99935142D01*
X137911928Y-99970857D01*
X137876214Y-100042285D01*
X137840500Y-100078000D01*
X137769071Y-100113714D01*
X137626214Y-100113714D01*
X137554785Y-100149428D01*
X137519071Y-100185142D01*
X137483357Y-100256571D01*
X137483357Y-100399428D01*
X137519071Y-100470857D01*
X137554785Y-100506571D01*
X137626214Y-100542285D01*
X137769071Y-100542285D01*
X137840500Y-100506571D01*
X137876214Y-100470857D01*
X137911928Y-100399428D01*
X137911928Y-100256571D01*
X137876214Y-100185142D01*
X137840500Y-100149428D01*
X137769071Y-100113714D01*
%TO.C,solarmon*%
X107281571Y-90600571D02*
X107353000Y-90636285D01*
X107495857Y-90636285D01*
X107567285Y-90600571D01*
X107603000Y-90529142D01*
X107603000Y-90493428D01*
X107567285Y-90422000D01*
X107495857Y-90386285D01*
X107388714Y-90386285D01*
X107317285Y-90350571D01*
X107281571Y-90279142D01*
X107281571Y-90243428D01*
X107317285Y-90172000D01*
X107388714Y-90136285D01*
X107495857Y-90136285D01*
X107567285Y-90172000D01*
X108031571Y-90636285D02*
X107960142Y-90600571D01*
X107924428Y-90564857D01*
X107888714Y-90493428D01*
X107888714Y-90279142D01*
X107924428Y-90207714D01*
X107960142Y-90172000D01*
X108031571Y-90136285D01*
X108138714Y-90136285D01*
X108210142Y-90172000D01*
X108245857Y-90207714D01*
X108281571Y-90279142D01*
X108281571Y-90493428D01*
X108245857Y-90564857D01*
X108210142Y-90600571D01*
X108138714Y-90636285D01*
X108031571Y-90636285D01*
X108710142Y-90636285D02*
X108638714Y-90600571D01*
X108603000Y-90529142D01*
X108603000Y-89886285D01*
X109317285Y-90636285D02*
X109317285Y-90243428D01*
X109281571Y-90172000D01*
X109210142Y-90136285D01*
X109067285Y-90136285D01*
X108995857Y-90172000D01*
X109317285Y-90600571D02*
X109245857Y-90636285D01*
X109067285Y-90636285D01*
X108995857Y-90600571D01*
X108960142Y-90529142D01*
X108960142Y-90457714D01*
X108995857Y-90386285D01*
X109067285Y-90350571D01*
X109245857Y-90350571D01*
X109317285Y-90314857D01*
X109674428Y-90636285D02*
X109674428Y-90136285D01*
X109674428Y-90279142D02*
X109710142Y-90207714D01*
X109745857Y-90172000D01*
X109817285Y-90136285D01*
X109888714Y-90136285D01*
X110138714Y-90636285D02*
X110138714Y-90136285D01*
X110138714Y-90207714D02*
X110174428Y-90172000D01*
X110245857Y-90136285D01*
X110353000Y-90136285D01*
X110424428Y-90172000D01*
X110460142Y-90243428D01*
X110460142Y-90636285D01*
X110460142Y-90243428D02*
X110495857Y-90172000D01*
X110567285Y-90136285D01*
X110674428Y-90136285D01*
X110745857Y-90172000D01*
X110781571Y-90243428D01*
X110781571Y-90636285D01*
X111245857Y-90636285D02*
X111174428Y-90600571D01*
X111138714Y-90564857D01*
X111103000Y-90493428D01*
X111103000Y-90279142D01*
X111138714Y-90207714D01*
X111174428Y-90172000D01*
X111245857Y-90136285D01*
X111353000Y-90136285D01*
X111424428Y-90172000D01*
X111460142Y-90207714D01*
X111495857Y-90279142D01*
X111495857Y-90493428D01*
X111460142Y-90564857D01*
X111424428Y-90600571D01*
X111353000Y-90636285D01*
X111245857Y-90636285D01*
X111817285Y-90136285D02*
X111817285Y-90636285D01*
X111817285Y-90207714D02*
X111853000Y-90172000D01*
X111924428Y-90136285D01*
X112031571Y-90136285D01*
X112103000Y-90172000D01*
X112138714Y-90243428D01*
X112138714Y-90636285D01*
%TO.C,JP1*%
X169854666Y-101941380D02*
X169854666Y-102655666D01*
X169807047Y-102798523D01*
X169711809Y-102893761D01*
X169568952Y-102941380D01*
X169473714Y-102941380D01*
X170330857Y-102941380D02*
X170330857Y-101941380D01*
X170711809Y-101941380D01*
X170807047Y-101989000D01*
X170854666Y-102036619D01*
X170902285Y-102131857D01*
X170902285Y-102274714D01*
X170854666Y-102369952D01*
X170807047Y-102417571D01*
X170711809Y-102465190D01*
X170330857Y-102465190D01*
X171854666Y-102941380D02*
X171283238Y-102941380D01*
X171568952Y-102941380D02*
X171568952Y-101941380D01*
X171473714Y-102084238D01*
X171378476Y-102179476D01*
X171283238Y-102227095D01*
%TO.C,FFOSD1*%
X178713095Y-105338571D02*
X178379761Y-105338571D01*
X178379761Y-105862380D02*
X178379761Y-104862380D01*
X178855952Y-104862380D01*
X179570238Y-105338571D02*
X179236904Y-105338571D01*
X179236904Y-105862380D02*
X179236904Y-104862380D01*
X179713095Y-104862380D01*
X180284523Y-104862380D02*
X180475000Y-104862380D01*
X180570238Y-104910000D01*
X180665476Y-105005238D01*
X180713095Y-105195714D01*
X180713095Y-105529047D01*
X180665476Y-105719523D01*
X180570238Y-105814761D01*
X180475000Y-105862380D01*
X180284523Y-105862380D01*
X180189285Y-105814761D01*
X180094047Y-105719523D01*
X180046428Y-105529047D01*
X180046428Y-105195714D01*
X180094047Y-105005238D01*
X180189285Y-104910000D01*
X180284523Y-104862380D01*
X181094047Y-105814761D02*
X181236904Y-105862380D01*
X181475000Y-105862380D01*
X181570238Y-105814761D01*
X181617857Y-105767142D01*
X181665476Y-105671904D01*
X181665476Y-105576666D01*
X181617857Y-105481428D01*
X181570238Y-105433809D01*
X181475000Y-105386190D01*
X181284523Y-105338571D01*
X181189285Y-105290952D01*
X181141666Y-105243333D01*
X181094047Y-105148095D01*
X181094047Y-105052857D01*
X181141666Y-104957619D01*
X181189285Y-104910000D01*
X181284523Y-104862380D01*
X181522619Y-104862380D01*
X181665476Y-104910000D01*
X182094047Y-105862380D02*
X182094047Y-104862380D01*
X182332142Y-104862380D01*
X182475000Y-104910000D01*
X182570238Y-105005238D01*
X182617857Y-105100476D01*
X182665476Y-105290952D01*
X182665476Y-105433809D01*
X182617857Y-105624285D01*
X182570238Y-105719523D01*
X182475000Y-105814761D01*
X182332142Y-105862380D01*
X182094047Y-105862380D01*
X183617857Y-105862380D02*
X183046428Y-105862380D01*
X183332142Y-105862380D02*
X183332142Y-104862380D01*
X183236904Y-105005238D01*
X183141666Y-105100476D01*
X183046428Y-105148095D01*
%TO.C,P1*%
X173124904Y-81097380D02*
X173124904Y-80097380D01*
X173505857Y-80097380D01*
X173601095Y-80145000D01*
X173648714Y-80192619D01*
X173696333Y-80287857D01*
X173696333Y-80430714D01*
X173648714Y-80525952D01*
X173601095Y-80573571D01*
X173505857Y-80621190D01*
X173124904Y-80621190D01*
X174648714Y-81097380D02*
X174077285Y-81097380D01*
X174363000Y-81097380D02*
X174363000Y-80097380D01*
X174267761Y-80240238D01*
X174172523Y-80335476D01*
X174077285Y-80383095D01*
%TO.C,R7*%
X118578333Y-90368380D02*
X118245000Y-89892190D01*
X118006904Y-90368380D02*
X118006904Y-89368380D01*
X118387857Y-89368380D01*
X118483095Y-89416000D01*
X118530714Y-89463619D01*
X118578333Y-89558857D01*
X118578333Y-89701714D01*
X118530714Y-89796952D01*
X118483095Y-89844571D01*
X118387857Y-89892190D01*
X118006904Y-89892190D01*
X118911666Y-89368380D02*
X119578333Y-89368380D01*
X119149761Y-90368380D01*
X118584285Y-91525285D02*
X118155714Y-91525285D01*
X118370000Y-91525285D02*
X118370000Y-90775285D01*
X118298571Y-90882428D01*
X118227142Y-90953857D01*
X118155714Y-90989571D01*
X118905714Y-91525285D02*
X118905714Y-90775285D01*
X119334285Y-91525285D02*
X119012857Y-91096714D01*
X119334285Y-90775285D02*
X118905714Y-91203857D01*
%TO.C,R6*%
X124928333Y-90368380D02*
X124595000Y-89892190D01*
X124356904Y-90368380D02*
X124356904Y-89368380D01*
X124737857Y-89368380D01*
X124833095Y-89416000D01*
X124880714Y-89463619D01*
X124928333Y-89558857D01*
X124928333Y-89701714D01*
X124880714Y-89796952D01*
X124833095Y-89844571D01*
X124737857Y-89892190D01*
X124356904Y-89892190D01*
X125785476Y-89368380D02*
X125595000Y-89368380D01*
X125499761Y-89416000D01*
X125452142Y-89463619D01*
X125356904Y-89606476D01*
X125309285Y-89796952D01*
X125309285Y-90177904D01*
X125356904Y-90273142D01*
X125404523Y-90320761D01*
X125499761Y-90368380D01*
X125690238Y-90368380D01*
X125785476Y-90320761D01*
X125833095Y-90273142D01*
X125880714Y-90177904D01*
X125880714Y-89939809D01*
X125833095Y-89844571D01*
X125785476Y-89796952D01*
X125690238Y-89749333D01*
X125499761Y-89749333D01*
X125404523Y-89796952D01*
X125356904Y-89844571D01*
X125309285Y-89939809D01*
X124934285Y-91525285D02*
X124505714Y-91525285D01*
X124720000Y-91525285D02*
X124720000Y-90775285D01*
X124648571Y-90882428D01*
X124577142Y-90953857D01*
X124505714Y-90989571D01*
X125255714Y-91525285D02*
X125255714Y-90775285D01*
X125684285Y-91525285D02*
X125362857Y-91096714D01*
X125684285Y-90775285D02*
X125255714Y-91203857D01*
%TO.C,BT3*%
X117324285Y-94797571D02*
X117467142Y-94845190D01*
X117514761Y-94892809D01*
X117562380Y-94988047D01*
X117562380Y-95130904D01*
X117514761Y-95226142D01*
X117467142Y-95273761D01*
X117371904Y-95321380D01*
X116990952Y-95321380D01*
X116990952Y-94321380D01*
X117324285Y-94321380D01*
X117419523Y-94369000D01*
X117467142Y-94416619D01*
X117514761Y-94511857D01*
X117514761Y-94607095D01*
X117467142Y-94702333D01*
X117419523Y-94749952D01*
X117324285Y-94797571D01*
X116990952Y-94797571D01*
X117848095Y-94321380D02*
X118419523Y-94321380D01*
X118133809Y-95321380D02*
X118133809Y-94321380D01*
X118657619Y-94321380D02*
X119276666Y-94321380D01*
X118943333Y-94702333D01*
X119086190Y-94702333D01*
X119181428Y-94749952D01*
X119229047Y-94797571D01*
X119276666Y-94892809D01*
X119276666Y-95130904D01*
X119229047Y-95226142D01*
X119181428Y-95273761D01*
X119086190Y-95321380D01*
X118800476Y-95321380D01*
X118705238Y-95273761D01*
X118657619Y-95226142D01*
%TO.C,BT2*%
X123674285Y-94797571D02*
X123817142Y-94845190D01*
X123864761Y-94892809D01*
X123912380Y-94988047D01*
X123912380Y-95130904D01*
X123864761Y-95226142D01*
X123817142Y-95273761D01*
X123721904Y-95321380D01*
X123340952Y-95321380D01*
X123340952Y-94321380D01*
X123674285Y-94321380D01*
X123769523Y-94369000D01*
X123817142Y-94416619D01*
X123864761Y-94511857D01*
X123864761Y-94607095D01*
X123817142Y-94702333D01*
X123769523Y-94749952D01*
X123674285Y-94797571D01*
X123340952Y-94797571D01*
X124198095Y-94321380D02*
X124769523Y-94321380D01*
X124483809Y-95321380D02*
X124483809Y-94321380D01*
X125055238Y-94416619D02*
X125102857Y-94369000D01*
X125198095Y-94321380D01*
X125436190Y-94321380D01*
X125531428Y-94369000D01*
X125579047Y-94416619D01*
X125626666Y-94511857D01*
X125626666Y-94607095D01*
X125579047Y-94749952D01*
X125007619Y-95321380D01*
X125626666Y-95321380D01*
%TO.C,C5*%
X167473333Y-83542142D02*
X167425714Y-83589761D01*
X167282857Y-83637380D01*
X167187619Y-83637380D01*
X167044761Y-83589761D01*
X166949523Y-83494523D01*
X166901904Y-83399285D01*
X166854285Y-83208809D01*
X166854285Y-83065952D01*
X166901904Y-82875476D01*
X166949523Y-82780238D01*
X167044761Y-82685000D01*
X167187619Y-82637380D01*
X167282857Y-82637380D01*
X167425714Y-82685000D01*
X167473333Y-82732619D01*
X168378095Y-82637380D02*
X167901904Y-82637380D01*
X167854285Y-83113571D01*
X167901904Y-83065952D01*
X167997142Y-83018333D01*
X168235238Y-83018333D01*
X168330476Y-83065952D01*
X168378095Y-83113571D01*
X168425714Y-83208809D01*
X168425714Y-83446904D01*
X168378095Y-83542142D01*
X168330476Y-83589761D01*
X168235238Y-83637380D01*
X167997142Y-83637380D01*
X167901904Y-83589761D01*
X167854285Y-83542142D01*
X166479285Y-84667285D02*
X166050714Y-84667285D01*
X166265000Y-84667285D02*
X166265000Y-83917285D01*
X166193571Y-84024428D01*
X166122142Y-84095857D01*
X166050714Y-84131571D01*
X166943571Y-83917285D02*
X167015000Y-83917285D01*
X167086428Y-83953000D01*
X167122142Y-83988714D01*
X167157857Y-84060142D01*
X167193571Y-84203000D01*
X167193571Y-84381571D01*
X167157857Y-84524428D01*
X167122142Y-84595857D01*
X167086428Y-84631571D01*
X167015000Y-84667285D01*
X166943571Y-84667285D01*
X166872142Y-84631571D01*
X166836428Y-84595857D01*
X166800714Y-84524428D01*
X166765000Y-84381571D01*
X166765000Y-84203000D01*
X166800714Y-84060142D01*
X166836428Y-83988714D01*
X166872142Y-83953000D01*
X166943571Y-83917285D01*
X167657857Y-83917285D02*
X167729285Y-83917285D01*
X167800714Y-83953000D01*
X167836428Y-83988714D01*
X167872142Y-84060142D01*
X167907857Y-84203000D01*
X167907857Y-84381571D01*
X167872142Y-84524428D01*
X167836428Y-84595857D01*
X167800714Y-84631571D01*
X167729285Y-84667285D01*
X167657857Y-84667285D01*
X167586428Y-84631571D01*
X167550714Y-84595857D01*
X167515000Y-84524428D01*
X167479285Y-84381571D01*
X167479285Y-84203000D01*
X167515000Y-84060142D01*
X167550714Y-83988714D01*
X167586428Y-83953000D01*
X167657857Y-83917285D01*
X168229285Y-84167285D02*
X168229285Y-84667285D01*
X168229285Y-84238714D02*
X168265000Y-84203000D01*
X168336428Y-84167285D01*
X168443571Y-84167285D01*
X168515000Y-84203000D01*
X168550714Y-84274428D01*
X168550714Y-84667285D01*
X169157857Y-84274428D02*
X168907857Y-84274428D01*
X168907857Y-84667285D02*
X168907857Y-83917285D01*
X169265000Y-83917285D01*
%TO.C,U2*%
X166878095Y-92797380D02*
X166878095Y-93606904D01*
X166925714Y-93702142D01*
X166973333Y-93749761D01*
X167068571Y-93797380D01*
X167259047Y-93797380D01*
X167354285Y-93749761D01*
X167401904Y-93702142D01*
X167449523Y-93606904D01*
X167449523Y-92797380D01*
X167878095Y-92892619D02*
X167925714Y-92845000D01*
X168020952Y-92797380D01*
X168259047Y-92797380D01*
X168354285Y-92845000D01*
X168401904Y-92892619D01*
X168449523Y-92987857D01*
X168449523Y-93083095D01*
X168401904Y-93225952D01*
X167830476Y-93797380D01*
X168449523Y-93797380D01*
%TO.C,R5*%
X171156333Y-91892380D02*
X170823000Y-91416190D01*
X170584904Y-91892380D02*
X170584904Y-90892380D01*
X170965857Y-90892380D01*
X171061095Y-90940000D01*
X171108714Y-90987619D01*
X171156333Y-91082857D01*
X171156333Y-91225714D01*
X171108714Y-91320952D01*
X171061095Y-91368571D01*
X170965857Y-91416190D01*
X170584904Y-91416190D01*
X172061095Y-90892380D02*
X171584904Y-90892380D01*
X171537285Y-91368571D01*
X171584904Y-91320952D01*
X171680142Y-91273333D01*
X171918238Y-91273333D01*
X172013476Y-91320952D01*
X172061095Y-91368571D01*
X172108714Y-91463809D01*
X172108714Y-91701904D01*
X172061095Y-91797142D01*
X172013476Y-91844761D01*
X171918238Y-91892380D01*
X171680142Y-91892380D01*
X171584904Y-91844761D01*
X171537285Y-91797142D01*
X170267428Y-92370714D02*
X170303142Y-92335000D01*
X170374571Y-92299285D01*
X170553142Y-92299285D01*
X170624571Y-92335000D01*
X170660285Y-92370714D01*
X170696000Y-92442142D01*
X170696000Y-92513571D01*
X170660285Y-92620714D01*
X170231714Y-93049285D01*
X170696000Y-93049285D01*
X170946000Y-92299285D02*
X171446000Y-92299285D01*
X171124571Y-93049285D01*
X171874571Y-92299285D02*
X171946000Y-92299285D01*
X172017428Y-92335000D01*
X172053142Y-92370714D01*
X172088857Y-92442142D01*
X172124571Y-92585000D01*
X172124571Y-92763571D01*
X172088857Y-92906428D01*
X172053142Y-92977857D01*
X172017428Y-93013571D01*
X171946000Y-93049285D01*
X171874571Y-93049285D01*
X171803142Y-93013571D01*
X171767428Y-92977857D01*
X171731714Y-92906428D01*
X171696000Y-92763571D01*
X171696000Y-92585000D01*
X171731714Y-92442142D01*
X171767428Y-92370714D01*
X171803142Y-92335000D01*
X171874571Y-92299285D01*
%TO.C,R4*%
X171283333Y-86939380D02*
X170950000Y-86463190D01*
X170711904Y-86939380D02*
X170711904Y-85939380D01*
X171092857Y-85939380D01*
X171188095Y-85987000D01*
X171235714Y-86034619D01*
X171283333Y-86129857D01*
X171283333Y-86272714D01*
X171235714Y-86367952D01*
X171188095Y-86415571D01*
X171092857Y-86463190D01*
X170711904Y-86463190D01*
X172140476Y-86272714D02*
X172140476Y-86939380D01*
X171902380Y-85891761D02*
X171664285Y-86606047D01*
X172283333Y-86606047D01*
X171416285Y-88223285D02*
X170987714Y-88223285D01*
X171202000Y-88223285D02*
X171202000Y-87473285D01*
X171130571Y-87580428D01*
X171059142Y-87651857D01*
X170987714Y-87687571D01*
X171737714Y-88223285D02*
X171737714Y-87473285D01*
X172166285Y-88223285D02*
X171844857Y-87794714D01*
X172166285Y-87473285D02*
X171737714Y-87901857D01*
%TO.C,JTAG1*%
X121547142Y-79462380D02*
X121547142Y-80176666D01*
X121499523Y-80319523D01*
X121404285Y-80414761D01*
X121261428Y-80462380D01*
X121166190Y-80462380D01*
X121880476Y-79462380D02*
X122451904Y-79462380D01*
X122166190Y-80462380D02*
X122166190Y-79462380D01*
X122737619Y-80176666D02*
X123213809Y-80176666D01*
X122642380Y-80462380D02*
X122975714Y-79462380D01*
X123309047Y-80462380D01*
X124166190Y-79510000D02*
X124070952Y-79462380D01*
X123928095Y-79462380D01*
X123785238Y-79510000D01*
X123690000Y-79605238D01*
X123642380Y-79700476D01*
X123594761Y-79890952D01*
X123594761Y-80033809D01*
X123642380Y-80224285D01*
X123690000Y-80319523D01*
X123785238Y-80414761D01*
X123928095Y-80462380D01*
X124023333Y-80462380D01*
X124166190Y-80414761D01*
X124213809Y-80367142D01*
X124213809Y-80033809D01*
X124023333Y-80033809D01*
X125166190Y-80462380D02*
X124594761Y-80462380D01*
X124880476Y-80462380D02*
X124880476Y-79462380D01*
X124785238Y-79605238D01*
X124690000Y-79700476D01*
X124594761Y-79748095D01*
%TO.C,C1*%
X159726333Y-80621142D02*
X159678714Y-80668761D01*
X159535857Y-80716380D01*
X159440619Y-80716380D01*
X159297761Y-80668761D01*
X159202523Y-80573523D01*
X159154904Y-80478285D01*
X159107285Y-80287809D01*
X159107285Y-80144952D01*
X159154904Y-79954476D01*
X159202523Y-79859238D01*
X159297761Y-79764000D01*
X159440619Y-79716380D01*
X159535857Y-79716380D01*
X159678714Y-79764000D01*
X159726333Y-79811619D01*
X160678714Y-80716380D02*
X160107285Y-80716380D01*
X160393000Y-80716380D02*
X160393000Y-79716380D01*
X160297761Y-79859238D01*
X160202523Y-79954476D01*
X160107285Y-80002095D01*
X159089428Y-82000285D02*
X158660857Y-82000285D01*
X158875142Y-82000285D02*
X158875142Y-81250285D01*
X158803714Y-81357428D01*
X158732285Y-81428857D01*
X158660857Y-81464571D01*
X159553714Y-81250285D02*
X159625142Y-81250285D01*
X159696571Y-81286000D01*
X159732285Y-81321714D01*
X159768000Y-81393142D01*
X159803714Y-81536000D01*
X159803714Y-81714571D01*
X159768000Y-81857428D01*
X159732285Y-81928857D01*
X159696571Y-81964571D01*
X159625142Y-82000285D01*
X159553714Y-82000285D01*
X159482285Y-81964571D01*
X159446571Y-81928857D01*
X159410857Y-81857428D01*
X159375142Y-81714571D01*
X159375142Y-81536000D01*
X159410857Y-81393142D01*
X159446571Y-81321714D01*
X159482285Y-81286000D01*
X159553714Y-81250285D01*
X160446571Y-81500285D02*
X160446571Y-82000285D01*
X160125142Y-81500285D02*
X160125142Y-81893142D01*
X160160857Y-81964571D01*
X160232285Y-82000285D01*
X160339428Y-82000285D01*
X160410857Y-81964571D01*
X160446571Y-81928857D01*
X161053714Y-81607428D02*
X160803714Y-81607428D01*
X160803714Y-82000285D02*
X160803714Y-81250285D01*
X161160857Y-81250285D01*
%TO.C,R3*%
X160488333Y-85161380D02*
X160155000Y-84685190D01*
X159916904Y-85161380D02*
X159916904Y-84161380D01*
X160297857Y-84161380D01*
X160393095Y-84209000D01*
X160440714Y-84256619D01*
X160488333Y-84351857D01*
X160488333Y-84494714D01*
X160440714Y-84589952D01*
X160393095Y-84637571D01*
X160297857Y-84685190D01*
X159916904Y-84685190D01*
X160821666Y-84161380D02*
X161440714Y-84161380D01*
X161107380Y-84542333D01*
X161250238Y-84542333D01*
X161345476Y-84589952D01*
X161393095Y-84637571D01*
X161440714Y-84732809D01*
X161440714Y-84970904D01*
X161393095Y-85066142D01*
X161345476Y-85113761D01*
X161250238Y-85161380D01*
X160964523Y-85161380D01*
X160869285Y-85113761D01*
X160821666Y-85066142D01*
X162427142Y-84548285D02*
X162427142Y-85048285D01*
X162248571Y-84262571D02*
X162070000Y-84798285D01*
X162534285Y-84798285D01*
X162820000Y-84976857D02*
X162855714Y-85012571D01*
X162820000Y-85048285D01*
X162784285Y-85012571D01*
X162820000Y-84976857D01*
X162820000Y-85048285D01*
X163105714Y-84298285D02*
X163605714Y-84298285D01*
X163284285Y-85048285D01*
X163891428Y-85048285D02*
X163891428Y-84298285D01*
X164320000Y-85048285D02*
X163998571Y-84619714D01*
X164320000Y-84298285D02*
X163891428Y-84726857D01*
%TO.C,R2*%
X160488333Y-99512380D02*
X160155000Y-99036190D01*
X159916904Y-99512380D02*
X159916904Y-98512380D01*
X160297857Y-98512380D01*
X160393095Y-98560000D01*
X160440714Y-98607619D01*
X160488333Y-98702857D01*
X160488333Y-98845714D01*
X160440714Y-98940952D01*
X160393095Y-98988571D01*
X160297857Y-99036190D01*
X159916904Y-99036190D01*
X160869285Y-98607619D02*
X160916904Y-98560000D01*
X161012142Y-98512380D01*
X161250238Y-98512380D01*
X161345476Y-98560000D01*
X161393095Y-98607619D01*
X161440714Y-98702857D01*
X161440714Y-98798095D01*
X161393095Y-98940952D01*
X160821666Y-99512380D01*
X161440714Y-99512380D01*
X162653285Y-99399285D02*
X162224714Y-99399285D01*
X162439000Y-99399285D02*
X162439000Y-98649285D01*
X162367571Y-98756428D01*
X162296142Y-98827857D01*
X162224714Y-98863571D01*
X162974714Y-99399285D02*
X162974714Y-98649285D01*
X163403285Y-99399285D02*
X163081857Y-98970714D01*
X163403285Y-98649285D02*
X162974714Y-99077857D01*
%TO.C,R1*%
X131278333Y-90368380D02*
X130945000Y-89892190D01*
X130706904Y-90368380D02*
X130706904Y-89368380D01*
X131087857Y-89368380D01*
X131183095Y-89416000D01*
X131230714Y-89463619D01*
X131278333Y-89558857D01*
X131278333Y-89701714D01*
X131230714Y-89796952D01*
X131183095Y-89844571D01*
X131087857Y-89892190D01*
X130706904Y-89892190D01*
X132230714Y-90368380D02*
X131659285Y-90368380D01*
X131945000Y-90368380D02*
X131945000Y-89368380D01*
X131849761Y-89511238D01*
X131754523Y-89606476D01*
X131659285Y-89654095D01*
X131284285Y-91525285D02*
X130855714Y-91525285D01*
X131070000Y-91525285D02*
X131070000Y-90775285D01*
X130998571Y-90882428D01*
X130927142Y-90953857D01*
X130855714Y-90989571D01*
X131605714Y-91525285D02*
X131605714Y-90775285D01*
X132034285Y-91525285D02*
X131712857Y-91096714D01*
X132034285Y-90775285D02*
X131605714Y-91203857D01*
%TO.C,C4*%
X138136333Y-89257142D02*
X138088714Y-89304761D01*
X137945857Y-89352380D01*
X137850619Y-89352380D01*
X137707761Y-89304761D01*
X137612523Y-89209523D01*
X137564904Y-89114285D01*
X137517285Y-88923809D01*
X137517285Y-88780952D01*
X137564904Y-88590476D01*
X137612523Y-88495238D01*
X137707761Y-88400000D01*
X137850619Y-88352380D01*
X137945857Y-88352380D01*
X138088714Y-88400000D01*
X138136333Y-88447619D01*
X138993476Y-88685714D02*
X138993476Y-89352380D01*
X138755380Y-88304761D02*
X138517285Y-89019047D01*
X139136333Y-89019047D01*
X137396285Y-90509285D02*
X136967714Y-90509285D01*
X137182000Y-90509285D02*
X137182000Y-89759285D01*
X137110571Y-89866428D01*
X137039142Y-89937857D01*
X136967714Y-89973571D01*
X137860571Y-89759285D02*
X137932000Y-89759285D01*
X138003428Y-89795000D01*
X138039142Y-89830714D01*
X138074857Y-89902142D01*
X138110571Y-90045000D01*
X138110571Y-90223571D01*
X138074857Y-90366428D01*
X138039142Y-90437857D01*
X138003428Y-90473571D01*
X137932000Y-90509285D01*
X137860571Y-90509285D01*
X137789142Y-90473571D01*
X137753428Y-90437857D01*
X137717714Y-90366428D01*
X137682000Y-90223571D01*
X137682000Y-90045000D01*
X137717714Y-89902142D01*
X137753428Y-89830714D01*
X137789142Y-89795000D01*
X137860571Y-89759285D01*
X138574857Y-89759285D02*
X138646285Y-89759285D01*
X138717714Y-89795000D01*
X138753428Y-89830714D01*
X138789142Y-89902142D01*
X138824857Y-90045000D01*
X138824857Y-90223571D01*
X138789142Y-90366428D01*
X138753428Y-90437857D01*
X138717714Y-90473571D01*
X138646285Y-90509285D01*
X138574857Y-90509285D01*
X138503428Y-90473571D01*
X138467714Y-90437857D01*
X138432000Y-90366428D01*
X138396285Y-90223571D01*
X138396285Y-90045000D01*
X138432000Y-89902142D01*
X138467714Y-89830714D01*
X138503428Y-89795000D01*
X138574857Y-89759285D01*
X139146285Y-90009285D02*
X139146285Y-90509285D01*
X139146285Y-90080714D02*
X139182000Y-90045000D01*
X139253428Y-90009285D01*
X139360571Y-90009285D01*
X139432000Y-90045000D01*
X139467714Y-90116428D01*
X139467714Y-90509285D01*
X140074857Y-90116428D02*
X139824857Y-90116428D01*
X139824857Y-90509285D02*
X139824857Y-89759285D01*
X140182000Y-89759285D01*
%TO.C,C3*%
X160742333Y-89003142D02*
X160694714Y-89050761D01*
X160551857Y-89098380D01*
X160456619Y-89098380D01*
X160313761Y-89050761D01*
X160218523Y-88955523D01*
X160170904Y-88860285D01*
X160123285Y-88669809D01*
X160123285Y-88526952D01*
X160170904Y-88336476D01*
X160218523Y-88241238D01*
X160313761Y-88146000D01*
X160456619Y-88098380D01*
X160551857Y-88098380D01*
X160694714Y-88146000D01*
X160742333Y-88193619D01*
X161075666Y-88098380D02*
X161694714Y-88098380D01*
X161361380Y-88479333D01*
X161504238Y-88479333D01*
X161599476Y-88526952D01*
X161647095Y-88574571D01*
X161694714Y-88669809D01*
X161694714Y-88907904D01*
X161647095Y-89003142D01*
X161599476Y-89050761D01*
X161504238Y-89098380D01*
X161218523Y-89098380D01*
X161123285Y-89050761D01*
X161075666Y-89003142D01*
X159748285Y-90128285D02*
X159319714Y-90128285D01*
X159534000Y-90128285D02*
X159534000Y-89378285D01*
X159462571Y-89485428D01*
X159391142Y-89556857D01*
X159319714Y-89592571D01*
X160212571Y-89378285D02*
X160284000Y-89378285D01*
X160355428Y-89414000D01*
X160391142Y-89449714D01*
X160426857Y-89521142D01*
X160462571Y-89664000D01*
X160462571Y-89842571D01*
X160426857Y-89985428D01*
X160391142Y-90056857D01*
X160355428Y-90092571D01*
X160284000Y-90128285D01*
X160212571Y-90128285D01*
X160141142Y-90092571D01*
X160105428Y-90056857D01*
X160069714Y-89985428D01*
X160034000Y-89842571D01*
X160034000Y-89664000D01*
X160069714Y-89521142D01*
X160105428Y-89449714D01*
X160141142Y-89414000D01*
X160212571Y-89378285D01*
X160926857Y-89378285D02*
X160998285Y-89378285D01*
X161069714Y-89414000D01*
X161105428Y-89449714D01*
X161141142Y-89521142D01*
X161176857Y-89664000D01*
X161176857Y-89842571D01*
X161141142Y-89985428D01*
X161105428Y-90056857D01*
X161069714Y-90092571D01*
X160998285Y-90128285D01*
X160926857Y-90128285D01*
X160855428Y-90092571D01*
X160819714Y-90056857D01*
X160784000Y-89985428D01*
X160748285Y-89842571D01*
X160748285Y-89664000D01*
X160784000Y-89521142D01*
X160819714Y-89449714D01*
X160855428Y-89414000D01*
X160926857Y-89378285D01*
X161498285Y-89628285D02*
X161498285Y-90128285D01*
X161498285Y-89699714D02*
X161534000Y-89664000D01*
X161605428Y-89628285D01*
X161712571Y-89628285D01*
X161784000Y-89664000D01*
X161819714Y-89735428D01*
X161819714Y-90128285D01*
X162426857Y-89735428D02*
X162176857Y-89735428D01*
X162176857Y-90128285D02*
X162176857Y-89378285D01*
X162534000Y-89378285D01*
%TO.C,C2*%
X144168833Y-80049642D02*
X144121214Y-80097261D01*
X143978357Y-80144880D01*
X143883119Y-80144880D01*
X143740261Y-80097261D01*
X143645023Y-80002023D01*
X143597404Y-79906785D01*
X143549785Y-79716309D01*
X143549785Y-79573452D01*
X143597404Y-79382976D01*
X143645023Y-79287738D01*
X143740261Y-79192500D01*
X143883119Y-79144880D01*
X143978357Y-79144880D01*
X144121214Y-79192500D01*
X144168833Y-79240119D01*
X144549785Y-79240119D02*
X144597404Y-79192500D01*
X144692642Y-79144880D01*
X144930738Y-79144880D01*
X145025976Y-79192500D01*
X145073595Y-79240119D01*
X145121214Y-79335357D01*
X145121214Y-79430595D01*
X145073595Y-79573452D01*
X144502166Y-80144880D01*
X145121214Y-80144880D01*
X143174785Y-81174785D02*
X142746214Y-81174785D01*
X142960500Y-81174785D02*
X142960500Y-80424785D01*
X142889071Y-80531928D01*
X142817642Y-80603357D01*
X142746214Y-80639071D01*
X143639071Y-80424785D02*
X143710500Y-80424785D01*
X143781928Y-80460500D01*
X143817642Y-80496214D01*
X143853357Y-80567642D01*
X143889071Y-80710500D01*
X143889071Y-80889071D01*
X143853357Y-81031928D01*
X143817642Y-81103357D01*
X143781928Y-81139071D01*
X143710500Y-81174785D01*
X143639071Y-81174785D01*
X143567642Y-81139071D01*
X143531928Y-81103357D01*
X143496214Y-81031928D01*
X143460500Y-80889071D01*
X143460500Y-80710500D01*
X143496214Y-80567642D01*
X143531928Y-80496214D01*
X143567642Y-80460500D01*
X143639071Y-80424785D01*
X144353357Y-80424785D02*
X144424785Y-80424785D01*
X144496214Y-80460500D01*
X144531928Y-80496214D01*
X144567642Y-80567642D01*
X144603357Y-80710500D01*
X144603357Y-80889071D01*
X144567642Y-81031928D01*
X144531928Y-81103357D01*
X144496214Y-81139071D01*
X144424785Y-81174785D01*
X144353357Y-81174785D01*
X144281928Y-81139071D01*
X144246214Y-81103357D01*
X144210500Y-81031928D01*
X144174785Y-80889071D01*
X144174785Y-80710500D01*
X144210500Y-80567642D01*
X144246214Y-80496214D01*
X144281928Y-80460500D01*
X144353357Y-80424785D01*
X144924785Y-80674785D02*
X144924785Y-81174785D01*
X144924785Y-80746214D02*
X144960500Y-80710500D01*
X145031928Y-80674785D01*
X145139071Y-80674785D01*
X145210500Y-80710500D01*
X145246214Y-80781928D01*
X145246214Y-81174785D01*
X145853357Y-80781928D02*
X145603357Y-80781928D01*
X145603357Y-81174785D02*
X145603357Y-80424785D01*
X145960500Y-80424785D01*
%TO.C,U1*%
X140081095Y-93495880D02*
X140081095Y-94305404D01*
X140128714Y-94400642D01*
X140176333Y-94448261D01*
X140271571Y-94495880D01*
X140462047Y-94495880D01*
X140557285Y-94448261D01*
X140604904Y-94400642D01*
X140652523Y-94305404D01*
X140652523Y-93495880D01*
X141652523Y-94495880D02*
X141081095Y-94495880D01*
X141366809Y-94495880D02*
X141366809Y-93495880D01*
X141271571Y-93638738D01*
X141176333Y-93733976D01*
X141081095Y-93781595D01*
%TO.C,BT1*%
X130024285Y-94797571D02*
X130167142Y-94845190D01*
X130214761Y-94892809D01*
X130262380Y-94988047D01*
X130262380Y-95130904D01*
X130214761Y-95226142D01*
X130167142Y-95273761D01*
X130071904Y-95321380D01*
X129690952Y-95321380D01*
X129690952Y-94321380D01*
X130024285Y-94321380D01*
X130119523Y-94369000D01*
X130167142Y-94416619D01*
X130214761Y-94511857D01*
X130214761Y-94607095D01*
X130167142Y-94702333D01*
X130119523Y-94749952D01*
X130024285Y-94797571D01*
X129690952Y-94797571D01*
X130548095Y-94321380D02*
X131119523Y-94321380D01*
X130833809Y-95321380D02*
X130833809Y-94321380D01*
X131976666Y-95321380D02*
X131405238Y-95321380D01*
X131690952Y-95321380D02*
X131690952Y-94321380D01*
X131595714Y-94464238D01*
X131500476Y-94559476D01*
X131405238Y-94607095D01*
%TD*%
M02*
