M48
; DRILL file {KiCad (5.1.9)-1} date 05/22/21 07:15:01
; FORMAT={-:-/ absolute / inch / decimal}
; #@! TF.CreationDate,2021-05-22T07:15:01+01:00
; #@! TF.GenerationSoftware,Kicad,Pcbnew,(5.1.9)-1
; #@! TF.FileFunction,Plated,1,2,PTH
FMAT,2
INCH
T1C0.0157
T2C0.0197
T3C0.0394
T4C0.1260
%
G90
G05
T1
X4.485Y-3.605
X4.535Y-3.37
X4.6Y-3.16
X4.6Y-3.475
X4.69Y-3.085
X4.735Y-3.55
X4.74Y-3.18
X4.82Y-3.1
X4.85Y-3.305
X4.85Y-3.475
X4.955Y-3.375
X4.995Y-3.08
X4.995Y-3.54
X5.06Y-3.15
X5.1Y-3.475
X5.145Y-3.075
X5.2Y-3.39
X5.205Y-3.145
X5.205Y-3.08
X5.22Y-3.625
X5.27Y-3.675
X5.2725Y-4.07
X5.285Y-3.4
X5.305Y-3.145
X5.31Y-3.255
X5.325Y-3.88
X5.335Y-3.735
X5.355Y-3.545
X5.36Y-3.285
X5.36Y-3.36
X5.395Y-3.44
X5.405Y-3.15
X5.405Y-3.58
X5.415Y-3.815
X5.425Y-3.285
X5.43Y-3.905
X5.435Y-3.645
X5.475Y-3.585
X5.48Y-3.285
X5.495Y-3.44
X5.5045Y-4.1462
X5.505Y-3.745
X5.505Y-4.105
X5.515Y-3.92
X5.515Y-4.065
X5.52Y-3.065
X5.525Y-3.285
X5.53Y-3.805
X5.545Y-3.615
X5.55Y-3.55
X5.555Y-3.92
X5.555Y-4.065
X5.565Y-3.4555
X5.5735Y-3.5184
X5.58Y-3.275
X5.585Y-4.125
X5.635Y-3.915
X5.635Y-4.065
X5.645Y-3.27
X5.6873Y-3.5812
X5.705Y-4.105
X5.72Y-3.7
X5.73Y-3.84
X5.755Y-3.595
X5.765Y-3.255
X5.785Y-3.0725
X5.785Y-3.1125
X5.79Y-3.72
X5.8Y-3.835
X5.8185Y-3.27
X5.825Y-3.7
X5.825Y-4.125
X5.827Y-3.62
X5.8528Y-3.9051
X5.855Y-3.08
X5.865Y-3.205
X5.87Y-3.255
X5.87Y-3.635
X5.905Y-3.9
X5.91Y-4.14
X5.9125Y-3.16
X5.9125Y-3.72
X5.927Y-3.636
X5.94Y-4.085
X5.945Y-3.27
X5.945Y-3.375
X5.945Y-3.43
X5.965Y-3.71
X5.975Y-3.49
X5.975Y-3.8675
X5.98Y-4.145
X5.9878Y-4.0628
X6.0076Y-3.44
X6.022Y-3.6445
X6.025Y-3.55
X6.0272Y-4.115
X6.05Y-3.91
X6.065Y-4.1722
X6.075Y-3.775
X6.1Y-3.09
X6.1275Y-3.7075
X6.144Y-4.08
X6.145Y-3.655
X6.15Y-3.58
X6.16Y-3.535
X6.1731Y-3.4212
X6.184Y-4.08
X6.195Y-3.76
X6.21Y-3.88
X6.21Y-3.32
X6.24Y-3.505
X6.245Y-3.915
X6.265Y-3.35
X6.285Y-3.67
X6.29Y-3.59
X6.32Y-3.28
X6.335Y-3.715
X6.37Y-3.185
X6.385Y-3.59
X6.385Y-3.67
X6.41Y-3.13
X6.41Y-3.23
X6.415Y-3.45
X6.46Y-3.4
X6.49Y-3.135
X6.505Y-3.59
X6.51Y-3.4
X6.535Y-3.175
X6.545Y-3.56
X6.56Y-3.35
X6.64Y-3.35
X6.685Y-3.4
X6.695Y-3.51
T2
X4.2055Y-2.95
X4.2055Y-3.85
X4.2332Y-2.8832
X4.2332Y-3.0168
X4.2332Y-3.7832
X4.2332Y-3.9168
X4.3Y-2.8555
X4.3Y-3.0445
X4.3Y-3.7555
X4.3Y-3.9445
X4.3668Y-2.8832
X4.3668Y-3.0168
X4.3668Y-3.7832
X4.3668Y-3.9168
X4.3945Y-2.95
X4.3945Y-3.85
X6.5055Y-2.95
X6.5055Y-3.85
X6.5332Y-2.8832
X6.5332Y-3.0168
X6.5332Y-3.7832
X6.5332Y-3.9168
X6.6Y-2.8555
X6.6Y-3.0445
X6.6Y-3.7555
X6.6Y-3.9445
X6.6668Y-2.8832
X6.6668Y-3.0168
X6.6668Y-3.7832
X6.6668Y-3.9168
X6.6945Y-2.95
X6.6945Y-3.85
T3
X4.5Y-2.9
X4.5Y-3.0
X4.6Y-2.9
X4.6Y-3.0
X4.6Y-3.25
X4.6Y-3.835
X4.7Y-2.9
X4.7Y-3.0
X4.7Y-3.25
X4.7Y-3.835
X4.8Y-2.9
X4.8Y-3.0
X4.8Y-3.25
X4.85Y-3.835
X4.9Y-2.9
X4.9Y-3.0
X4.9Y-3.25
X4.95Y-3.835
X5.0Y-2.9
X5.0Y-3.0
X5.0Y-3.25
X5.1Y-2.9
X5.1Y-3.0
X5.1Y-3.25
X5.1Y-3.835
X5.2Y-2.9
X5.2Y-3.0
X5.2Y-3.835
X5.3Y-2.9
X5.3Y-3.0
X5.4Y-2.9
X5.4Y-3.0
X5.5Y-2.9
X5.5Y-3.0
X5.6Y-2.9
X5.6Y-3.0
X5.7Y-2.9
X5.7Y-3.0
X5.8Y-2.9
X5.8Y-3.0
X5.9Y-2.9
X5.9Y-3.0
X6.0Y-2.9
X6.0Y-3.0
X6.1Y-2.9
X6.1Y-3.0
X6.2Y-2.9
X6.2Y-3.0
X6.3Y-2.9
X6.3Y-3.0
X6.4Y-2.9
X6.4Y-3.0
X6.825Y-3.835
X6.845Y-2.8
X6.845Y-2.9
X6.845Y-3.0
X6.845Y-3.1
X6.925Y-3.835
X7.1Y-3.25
X7.1Y-3.35
X7.1Y-3.45
X7.1Y-3.55
X7.1Y-3.65
X7.1Y-3.75
X7.1Y-3.85
X7.1Y-3.95
X7.1Y-4.05
T4
X4.3Y-2.95
X4.3Y-3.85
X6.6Y-2.95
X6.6Y-3.85
T0
M30
