%TF.GenerationSoftware,KiCad,Pcbnew,(5.1.9)-1*%
%TF.CreationDate,2021-05-22T07:15:07+01:00*%
%TF.ProjectId,RGBtoHDMI Amiga Denise CPLD FFC,52474274-6f48-4444-9d49-20416d696761,rev?*%
%TF.SameCoordinates,Original*%
%TF.FileFunction,Soldermask,Top*%
%TF.FilePolarity,Negative*%
%FSLAX46Y46*%
G04 Gerber Fmt 4.6, Leading zero omitted, Abs format (unit mm)*
G04 Created by KiCad (PCBNEW (5.1.9)-1) date 2021-05-22 07:15:07*
%MOMM*%
%LPD*%
G01*
G04 APERTURE LIST*
%ADD10C,0.100000*%
%ADD11C,1.100000*%
%ADD12C,6.700000*%
%ADD13O,2.000000X2.000000*%
G04 APERTURE END LIST*
D10*
%TO.C,solarmon*%
G36*
X110363000Y-86360000D02*
G01*
X109728000Y-86360000D01*
X109728000Y-85725000D01*
X110363000Y-85725000D01*
X110363000Y-86360000D01*
G37*
X110363000Y-86360000D02*
X109728000Y-86360000D01*
X109728000Y-85725000D01*
X110363000Y-85725000D01*
X110363000Y-86360000D01*
G36*
X110363000Y-86995000D02*
G01*
X109728000Y-86995000D01*
X109728000Y-86360000D01*
X110363000Y-86360000D01*
X110363000Y-86995000D01*
G37*
X110363000Y-86995000D02*
X109728000Y-86995000D01*
X109728000Y-86360000D01*
X110363000Y-86360000D01*
X110363000Y-86995000D01*
G36*
X110998000Y-86995000D02*
G01*
X110363000Y-86995000D01*
X110363000Y-86360000D01*
X110998000Y-86360000D01*
X110998000Y-86995000D01*
G37*
X110998000Y-86995000D02*
X110363000Y-86995000D01*
X110363000Y-86360000D01*
X110998000Y-86360000D01*
X110998000Y-86995000D01*
G36*
X109728000Y-86995000D02*
G01*
X109093000Y-86995000D01*
X109093000Y-86360000D01*
X109728000Y-86360000D01*
X109728000Y-86995000D01*
G37*
X109728000Y-86995000D02*
X109093000Y-86995000D01*
X109093000Y-86360000D01*
X109728000Y-86360000D01*
X109728000Y-86995000D01*
G36*
X109093000Y-86360000D02*
G01*
X108458000Y-86360000D01*
X108458000Y-85725000D01*
X109093000Y-85725000D01*
X109093000Y-86360000D01*
G37*
X109093000Y-86360000D02*
X108458000Y-86360000D01*
X108458000Y-85725000D01*
X109093000Y-85725000D01*
X109093000Y-86360000D01*
G36*
X112268000Y-85725000D02*
G01*
X111633000Y-85725000D01*
X111633000Y-85090000D01*
X112268000Y-85090000D01*
X112268000Y-85725000D01*
G37*
X112268000Y-85725000D02*
X111633000Y-85725000D01*
X111633000Y-85090000D01*
X112268000Y-85090000D01*
X112268000Y-85725000D01*
G36*
X112268000Y-89535000D02*
G01*
X111633000Y-89535000D01*
X111633000Y-88900000D01*
X112268000Y-88900000D01*
X112268000Y-89535000D01*
G37*
X112268000Y-89535000D02*
X111633000Y-89535000D01*
X111633000Y-88900000D01*
X112268000Y-88900000D01*
X112268000Y-89535000D01*
G36*
X110998000Y-85090000D02*
G01*
X110363000Y-85090000D01*
X110363000Y-84455000D01*
X110998000Y-84455000D01*
X110998000Y-85090000D01*
G37*
X110998000Y-85090000D02*
X110363000Y-85090000D01*
X110363000Y-84455000D01*
X110998000Y-84455000D01*
X110998000Y-85090000D01*
G36*
X110998000Y-85725000D02*
G01*
X110363000Y-85725000D01*
X110363000Y-85090000D01*
X110998000Y-85090000D01*
X110998000Y-85725000D01*
G37*
X110998000Y-85725000D02*
X110363000Y-85725000D01*
X110363000Y-85090000D01*
X110998000Y-85090000D01*
X110998000Y-85725000D01*
G36*
X110363000Y-85725000D02*
G01*
X109728000Y-85725000D01*
X109728000Y-85090000D01*
X110363000Y-85090000D01*
X110363000Y-85725000D01*
G37*
X110363000Y-85725000D02*
X109728000Y-85725000D01*
X109728000Y-85090000D01*
X110363000Y-85090000D01*
X110363000Y-85725000D01*
G36*
X109728000Y-85725000D02*
G01*
X109093000Y-85725000D01*
X109093000Y-85090000D01*
X109728000Y-85090000D01*
X109728000Y-85725000D01*
G37*
X109728000Y-85725000D02*
X109093000Y-85725000D01*
X109093000Y-85090000D01*
X109728000Y-85090000D01*
X109728000Y-85725000D01*
G36*
X109728000Y-85090000D02*
G01*
X109093000Y-85090000D01*
X109093000Y-84455000D01*
X109728000Y-84455000D01*
X109728000Y-85090000D01*
G37*
X109728000Y-85090000D02*
X109093000Y-85090000D01*
X109093000Y-84455000D01*
X109728000Y-84455000D01*
X109728000Y-85090000D01*
G36*
X109093000Y-85725000D02*
G01*
X108458000Y-85725000D01*
X108458000Y-85090000D01*
X109093000Y-85090000D01*
X109093000Y-85725000D01*
G37*
X109093000Y-85725000D02*
X108458000Y-85725000D01*
X108458000Y-85090000D01*
X109093000Y-85090000D01*
X109093000Y-85725000D01*
G36*
X108458000Y-85725000D02*
G01*
X107823000Y-85725000D01*
X107823000Y-85090000D01*
X108458000Y-85090000D01*
X108458000Y-85725000D01*
G37*
X108458000Y-85725000D02*
X107823000Y-85725000D01*
X107823000Y-85090000D01*
X108458000Y-85090000D01*
X108458000Y-85725000D01*
G36*
X107823000Y-88265000D02*
G01*
X107188000Y-88265000D01*
X107188000Y-87630000D01*
X107823000Y-87630000D01*
X107823000Y-88265000D01*
G37*
X107823000Y-88265000D02*
X107188000Y-88265000D01*
X107188000Y-87630000D01*
X107823000Y-87630000D01*
X107823000Y-88265000D01*
G36*
X108458000Y-89535000D02*
G01*
X107823000Y-89535000D01*
X107823000Y-88900000D01*
X108458000Y-88900000D01*
X108458000Y-89535000D01*
G37*
X108458000Y-89535000D02*
X107823000Y-89535000D01*
X107823000Y-88900000D01*
X108458000Y-88900000D01*
X108458000Y-89535000D01*
G36*
X110998000Y-89535000D02*
G01*
X110363000Y-89535000D01*
X110363000Y-88900000D01*
X110998000Y-88900000D01*
X110998000Y-89535000D01*
G37*
X110998000Y-89535000D02*
X110363000Y-89535000D01*
X110363000Y-88900000D01*
X110998000Y-88900000D01*
X110998000Y-89535000D01*
G36*
X112268000Y-87630000D02*
G01*
X111633000Y-87630000D01*
X111633000Y-86995000D01*
X112268000Y-86995000D01*
X112268000Y-87630000D01*
G37*
X112268000Y-87630000D02*
X111633000Y-87630000D01*
X111633000Y-86995000D01*
X112268000Y-86995000D01*
X112268000Y-87630000D01*
%TD*%
%TO.C,FFC18*%
G36*
G01*
X135940000Y-105595000D02*
X135940000Y-102595000D01*
G75*
G02*
X136090000Y-102445000I150000J0D01*
G01*
X138590000Y-102445000D01*
G75*
G02*
X138740000Y-102595000I0J-150000D01*
G01*
X138740000Y-105595000D01*
G75*
G02*
X138590000Y-105745000I-150000J0D01*
G01*
X136090000Y-105745000D01*
G75*
G02*
X135940000Y-105595000I0J150000D01*
G01*
G37*
G36*
G01*
X158440000Y-105595000D02*
X158440000Y-102595000D01*
G75*
G02*
X158590000Y-102445000I150000J0D01*
G01*
X161090000Y-102445000D01*
G75*
G02*
X161240000Y-102595000I0J-150000D01*
G01*
X161240000Y-105595000D01*
G75*
G02*
X161090000Y-105745000I-150000J0D01*
G01*
X158590000Y-105745000D01*
G75*
G02*
X158440000Y-105595000I0J150000D01*
G01*
G37*
G36*
G01*
X156640000Y-102645000D02*
X156640000Y-100645000D01*
G75*
G02*
X156790000Y-100495000I150000J0D01*
G01*
X157390000Y-100495000D01*
G75*
G02*
X157540000Y-100645000I0J-150000D01*
G01*
X157540000Y-102645000D01*
G75*
G02*
X157390000Y-102795000I-150000J0D01*
G01*
X156790000Y-102795000D01*
G75*
G02*
X156640000Y-102645000I0J150000D01*
G01*
G37*
G36*
G01*
X155640000Y-102645000D02*
X155640000Y-100645000D01*
G75*
G02*
X155790000Y-100495000I150000J0D01*
G01*
X156390000Y-100495000D01*
G75*
G02*
X156540000Y-100645000I0J-150000D01*
G01*
X156540000Y-102645000D01*
G75*
G02*
X156390000Y-102795000I-150000J0D01*
G01*
X155790000Y-102795000D01*
G75*
G02*
X155640000Y-102645000I0J150000D01*
G01*
G37*
G36*
G01*
X154640000Y-102645000D02*
X154640000Y-100645000D01*
G75*
G02*
X154790000Y-100495000I150000J0D01*
G01*
X155390000Y-100495000D01*
G75*
G02*
X155540000Y-100645000I0J-150000D01*
G01*
X155540000Y-102645000D01*
G75*
G02*
X155390000Y-102795000I-150000J0D01*
G01*
X154790000Y-102795000D01*
G75*
G02*
X154640000Y-102645000I0J150000D01*
G01*
G37*
G36*
G01*
X153640000Y-102645000D02*
X153640000Y-100645000D01*
G75*
G02*
X153790000Y-100495000I150000J0D01*
G01*
X154390000Y-100495000D01*
G75*
G02*
X154540000Y-100645000I0J-150000D01*
G01*
X154540000Y-102645000D01*
G75*
G02*
X154390000Y-102795000I-150000J0D01*
G01*
X153790000Y-102795000D01*
G75*
G02*
X153640000Y-102645000I0J150000D01*
G01*
G37*
G36*
G01*
X152640000Y-102645000D02*
X152640000Y-100645000D01*
G75*
G02*
X152790000Y-100495000I150000J0D01*
G01*
X153390000Y-100495000D01*
G75*
G02*
X153540000Y-100645000I0J-150000D01*
G01*
X153540000Y-102645000D01*
G75*
G02*
X153390000Y-102795000I-150000J0D01*
G01*
X152790000Y-102795000D01*
G75*
G02*
X152640000Y-102645000I0J150000D01*
G01*
G37*
G36*
G01*
X151640000Y-102645000D02*
X151640000Y-100645000D01*
G75*
G02*
X151790000Y-100495000I150000J0D01*
G01*
X152390000Y-100495000D01*
G75*
G02*
X152540000Y-100645000I0J-150000D01*
G01*
X152540000Y-102645000D01*
G75*
G02*
X152390000Y-102795000I-150000J0D01*
G01*
X151790000Y-102795000D01*
G75*
G02*
X151640000Y-102645000I0J150000D01*
G01*
G37*
G36*
G01*
X150640000Y-102645000D02*
X150640000Y-100645000D01*
G75*
G02*
X150790000Y-100495000I150000J0D01*
G01*
X151390000Y-100495000D01*
G75*
G02*
X151540000Y-100645000I0J-150000D01*
G01*
X151540000Y-102645000D01*
G75*
G02*
X151390000Y-102795000I-150000J0D01*
G01*
X150790000Y-102795000D01*
G75*
G02*
X150640000Y-102645000I0J150000D01*
G01*
G37*
G36*
G01*
X149640000Y-102645000D02*
X149640000Y-100645000D01*
G75*
G02*
X149790000Y-100495000I150000J0D01*
G01*
X150390000Y-100495000D01*
G75*
G02*
X150540000Y-100645000I0J-150000D01*
G01*
X150540000Y-102645000D01*
G75*
G02*
X150390000Y-102795000I-150000J0D01*
G01*
X149790000Y-102795000D01*
G75*
G02*
X149640000Y-102645000I0J150000D01*
G01*
G37*
G36*
G01*
X148640000Y-102645000D02*
X148640000Y-100645000D01*
G75*
G02*
X148790000Y-100495000I150000J0D01*
G01*
X149390000Y-100495000D01*
G75*
G02*
X149540000Y-100645000I0J-150000D01*
G01*
X149540000Y-102645000D01*
G75*
G02*
X149390000Y-102795000I-150000J0D01*
G01*
X148790000Y-102795000D01*
G75*
G02*
X148640000Y-102645000I0J150000D01*
G01*
G37*
G36*
G01*
X147640000Y-102645000D02*
X147640000Y-100645000D01*
G75*
G02*
X147790000Y-100495000I150000J0D01*
G01*
X148390000Y-100495000D01*
G75*
G02*
X148540000Y-100645000I0J-150000D01*
G01*
X148540000Y-102645000D01*
G75*
G02*
X148390000Y-102795000I-150000J0D01*
G01*
X147790000Y-102795000D01*
G75*
G02*
X147640000Y-102645000I0J150000D01*
G01*
G37*
G36*
G01*
X146640000Y-102645000D02*
X146640000Y-100645000D01*
G75*
G02*
X146790000Y-100495000I150000J0D01*
G01*
X147390000Y-100495000D01*
G75*
G02*
X147540000Y-100645000I0J-150000D01*
G01*
X147540000Y-102645000D01*
G75*
G02*
X147390000Y-102795000I-150000J0D01*
G01*
X146790000Y-102795000D01*
G75*
G02*
X146640000Y-102645000I0J150000D01*
G01*
G37*
G36*
G01*
X145640000Y-102645000D02*
X145640000Y-100645000D01*
G75*
G02*
X145790000Y-100495000I150000J0D01*
G01*
X146390000Y-100495000D01*
G75*
G02*
X146540000Y-100645000I0J-150000D01*
G01*
X146540000Y-102645000D01*
G75*
G02*
X146390000Y-102795000I-150000J0D01*
G01*
X145790000Y-102795000D01*
G75*
G02*
X145640000Y-102645000I0J150000D01*
G01*
G37*
G36*
G01*
X144640000Y-102645000D02*
X144640000Y-100645000D01*
G75*
G02*
X144790000Y-100495000I150000J0D01*
G01*
X145390000Y-100495000D01*
G75*
G02*
X145540000Y-100645000I0J-150000D01*
G01*
X145540000Y-102645000D01*
G75*
G02*
X145390000Y-102795000I-150000J0D01*
G01*
X144790000Y-102795000D01*
G75*
G02*
X144640000Y-102645000I0J150000D01*
G01*
G37*
G36*
G01*
X143640000Y-102645000D02*
X143640000Y-100645000D01*
G75*
G02*
X143790000Y-100495000I150000J0D01*
G01*
X144390000Y-100495000D01*
G75*
G02*
X144540000Y-100645000I0J-150000D01*
G01*
X144540000Y-102645000D01*
G75*
G02*
X144390000Y-102795000I-150000J0D01*
G01*
X143790000Y-102795000D01*
G75*
G02*
X143640000Y-102645000I0J150000D01*
G01*
G37*
G36*
G01*
X142640000Y-102645000D02*
X142640000Y-100645000D01*
G75*
G02*
X142790000Y-100495000I150000J0D01*
G01*
X143390000Y-100495000D01*
G75*
G02*
X143540000Y-100645000I0J-150000D01*
G01*
X143540000Y-102645000D01*
G75*
G02*
X143390000Y-102795000I-150000J0D01*
G01*
X142790000Y-102795000D01*
G75*
G02*
X142640000Y-102645000I0J150000D01*
G01*
G37*
G36*
G01*
X141640000Y-102645000D02*
X141640000Y-100645000D01*
G75*
G02*
X141790000Y-100495000I150000J0D01*
G01*
X142390000Y-100495000D01*
G75*
G02*
X142540000Y-100645000I0J-150000D01*
G01*
X142540000Y-102645000D01*
G75*
G02*
X142390000Y-102795000I-150000J0D01*
G01*
X141790000Y-102795000D01*
G75*
G02*
X141640000Y-102645000I0J150000D01*
G01*
G37*
G36*
G01*
X140640000Y-102645000D02*
X140640000Y-100645000D01*
G75*
G02*
X140790000Y-100495000I150000J0D01*
G01*
X141390000Y-100495000D01*
G75*
G02*
X141540000Y-100645000I0J-150000D01*
G01*
X141540000Y-102645000D01*
G75*
G02*
X141390000Y-102795000I-150000J0D01*
G01*
X140790000Y-102795000D01*
G75*
G02*
X140640000Y-102645000I0J150000D01*
G01*
G37*
G36*
G01*
X139640000Y-102645000D02*
X139640000Y-100645000D01*
G75*
G02*
X139790000Y-100495000I150000J0D01*
G01*
X140390000Y-100495000D01*
G75*
G02*
X140540000Y-100645000I0J-150000D01*
G01*
X140540000Y-102645000D01*
G75*
G02*
X140390000Y-102795000I-150000J0D01*
G01*
X139790000Y-102795000D01*
G75*
G02*
X139640000Y-102645000I0J150000D01*
G01*
G37*
%TD*%
D11*
%TO.C,H4*%
X169337056Y-96092944D03*
X167640000Y-95390000D03*
X165942944Y-96092944D03*
X165240000Y-97790000D03*
X165942944Y-99487056D03*
X167640000Y-100190000D03*
X169337056Y-99487056D03*
X170040000Y-97790000D03*
D12*
X167640000Y-97790000D03*
%TD*%
D11*
%TO.C,H3*%
X110917056Y-96092944D03*
X109220000Y-95390000D03*
X107522944Y-96092944D03*
X106820000Y-97790000D03*
X107522944Y-99487056D03*
X109220000Y-100190000D03*
X110917056Y-99487056D03*
X111620000Y-97790000D03*
D12*
X109220000Y-97790000D03*
%TD*%
D11*
%TO.C,H2*%
X169337056Y-73232944D03*
X167640000Y-72530000D03*
X165942944Y-73232944D03*
X165240000Y-74930000D03*
X165942944Y-76627056D03*
X167640000Y-77330000D03*
X169337056Y-76627056D03*
X170040000Y-74930000D03*
D12*
X167640000Y-74930000D03*
%TD*%
D11*
%TO.C,H1*%
X110917056Y-73232944D03*
X109220000Y-72530000D03*
X107522944Y-73232944D03*
X106820000Y-74930000D03*
X107522944Y-76627056D03*
X109220000Y-77330000D03*
X110917056Y-76627056D03*
X111620000Y-74930000D03*
D12*
X109220000Y-74930000D03*
%TD*%
D13*
%TO.C,JP1*%
X173355000Y-97409000D03*
G36*
G01*
X175045000Y-96409000D02*
X176745000Y-96409000D01*
G75*
G02*
X176895000Y-96559000I0J-150000D01*
G01*
X176895000Y-98259000D01*
G75*
G02*
X176745000Y-98409000I-150000J0D01*
G01*
X175045000Y-98409000D01*
G75*
G02*
X174895000Y-98259000I0J150000D01*
G01*
X174895000Y-96559000D01*
G75*
G02*
X175045000Y-96409000I150000J0D01*
G01*
G37*
%TD*%
%TO.C,FFOSD1*%
G36*
G01*
X179340000Y-83400000D02*
X179340000Y-81700000D01*
G75*
G02*
X179490000Y-81550000I150000J0D01*
G01*
X181190000Y-81550000D01*
G75*
G02*
X181340000Y-81700000I0J-150000D01*
G01*
X181340000Y-83400000D01*
G75*
G02*
X181190000Y-83550000I-150000J0D01*
G01*
X179490000Y-83550000D01*
G75*
G02*
X179340000Y-83400000I0J150000D01*
G01*
G37*
X180340000Y-85090000D03*
X180340000Y-87630000D03*
X180340000Y-90170000D03*
X180340000Y-92710000D03*
X180340000Y-95250000D03*
X180340000Y-97790000D03*
X180340000Y-100330000D03*
X180340000Y-102870000D03*
%TD*%
%TO.C,P1*%
X173863000Y-78740000D03*
X173863000Y-76200000D03*
X173863000Y-73660000D03*
G36*
G01*
X172863000Y-71970000D02*
X172863000Y-70270000D01*
G75*
G02*
X173013000Y-70120000I150000J0D01*
G01*
X174713000Y-70120000D01*
G75*
G02*
X174863000Y-70270000I0J-150000D01*
G01*
X174863000Y-71970000D01*
G75*
G02*
X174713000Y-72120000I-150000J0D01*
G01*
X173013000Y-72120000D01*
G75*
G02*
X172863000Y-71970000I0J150000D01*
G01*
G37*
%TD*%
%TO.C,R7*%
G36*
G01*
X116302498Y-90801000D02*
X117377502Y-90801000D01*
G75*
G02*
X117690000Y-91113498I0J-312498D01*
G01*
X117690000Y-91988502D01*
G75*
G02*
X117377502Y-92301000I-312498J0D01*
G01*
X116302498Y-92301000D01*
G75*
G02*
X115990000Y-91988502I0J312498D01*
G01*
X115990000Y-91113498D01*
G75*
G02*
X116302498Y-90801000I312498J0D01*
G01*
G37*
G36*
G01*
X116302498Y-88801000D02*
X117377502Y-88801000D01*
G75*
G02*
X117690000Y-89113498I0J-312498D01*
G01*
X117690000Y-89988502D01*
G75*
G02*
X117377502Y-90301000I-312498J0D01*
G01*
X116302498Y-90301000D01*
G75*
G02*
X115990000Y-89988502I0J312498D01*
G01*
X115990000Y-89113498D01*
G75*
G02*
X116302498Y-88801000I312498J0D01*
G01*
G37*
%TD*%
%TO.C,R6*%
G36*
G01*
X122652498Y-90801000D02*
X123727502Y-90801000D01*
G75*
G02*
X124040000Y-91113498I0J-312498D01*
G01*
X124040000Y-91988502D01*
G75*
G02*
X123727502Y-92301000I-312498J0D01*
G01*
X122652498Y-92301000D01*
G75*
G02*
X122340000Y-91988502I0J312498D01*
G01*
X122340000Y-91113498D01*
G75*
G02*
X122652498Y-90801000I312498J0D01*
G01*
G37*
G36*
G01*
X122652498Y-88801000D02*
X123727502Y-88801000D01*
G75*
G02*
X124040000Y-89113498I0J-312498D01*
G01*
X124040000Y-89988502D01*
G75*
G02*
X123727502Y-90301000I-312498J0D01*
G01*
X122652498Y-90301000D01*
G75*
G02*
X122340000Y-89988502I0J312498D01*
G01*
X122340000Y-89113498D01*
G75*
G02*
X122652498Y-88801000I312498J0D01*
G01*
G37*
%TD*%
%TO.C,BT3*%
X116840000Y-97409000D03*
G36*
G01*
X118530000Y-96409000D02*
X120230000Y-96409000D01*
G75*
G02*
X120380000Y-96559000I0J-150000D01*
G01*
X120380000Y-98259000D01*
G75*
G02*
X120230000Y-98409000I-150000J0D01*
G01*
X118530000Y-98409000D01*
G75*
G02*
X118380000Y-98259000I0J150000D01*
G01*
X118380000Y-96559000D01*
G75*
G02*
X118530000Y-96409000I150000J0D01*
G01*
G37*
%TD*%
%TO.C,BT2*%
X123190000Y-97409000D03*
G36*
G01*
X124880000Y-96409000D02*
X126580000Y-96409000D01*
G75*
G02*
X126730000Y-96559000I0J-150000D01*
G01*
X126730000Y-98259000D01*
G75*
G02*
X126580000Y-98409000I-150000J0D01*
G01*
X124880000Y-98409000D01*
G75*
G02*
X124730000Y-98259000I0J150000D01*
G01*
X124730000Y-96559000D01*
G75*
G02*
X124880000Y-96409000I150000J0D01*
G01*
G37*
%TD*%
%TO.C,C5*%
G36*
G01*
X167940000Y-86921171D02*
X167940000Y-85798829D01*
G75*
G02*
X168253829Y-85485000I313829J0D01*
G01*
X169101171Y-85485000D01*
G75*
G02*
X169415000Y-85798829I0J-313829D01*
G01*
X169415000Y-86921171D01*
G75*
G02*
X169101171Y-87235000I-313829J0D01*
G01*
X168253829Y-87235000D01*
G75*
G02*
X167940000Y-86921171I0J313829D01*
G01*
G37*
G36*
G01*
X165865000Y-86921171D02*
X165865000Y-85798829D01*
G75*
G02*
X166178829Y-85485000I313829J0D01*
G01*
X167026171Y-85485000D01*
G75*
G02*
X167340000Y-85798829I0J-313829D01*
G01*
X167340000Y-86921171D01*
G75*
G02*
X167026171Y-87235000I-313829J0D01*
G01*
X166178829Y-87235000D01*
G75*
G02*
X165865000Y-86921171I0J313829D01*
G01*
G37*
%TD*%
%TO.C,U2*%
G36*
G01*
X169515000Y-91490000D02*
X168465000Y-91490000D01*
G75*
G02*
X168395000Y-91420000I0J70000D01*
G01*
X168395000Y-90820000D01*
G75*
G02*
X168465000Y-90750000I70000J0D01*
G01*
X169515000Y-90750000D01*
G75*
G02*
X169585000Y-90820000I0J-70000D01*
G01*
X169585000Y-91420000D01*
G75*
G02*
X169515000Y-91490000I-70000J0D01*
G01*
G37*
G36*
G01*
X169515000Y-90540000D02*
X168465000Y-90540000D01*
G75*
G02*
X168395000Y-90470000I0J70000D01*
G01*
X168395000Y-89870000D01*
G75*
G02*
X168465000Y-89800000I70000J0D01*
G01*
X169515000Y-89800000D01*
G75*
G02*
X169585000Y-89870000I0J-70000D01*
G01*
X169585000Y-90470000D01*
G75*
G02*
X169515000Y-90540000I-70000J0D01*
G01*
G37*
G36*
G01*
X169515000Y-89590000D02*
X168465000Y-89590000D01*
G75*
G02*
X168395000Y-89520000I0J70000D01*
G01*
X168395000Y-88920000D01*
G75*
G02*
X168465000Y-88850000I70000J0D01*
G01*
X169515000Y-88850000D01*
G75*
G02*
X169585000Y-88920000I0J-70000D01*
G01*
X169585000Y-89520000D01*
G75*
G02*
X169515000Y-89590000I-70000J0D01*
G01*
G37*
G36*
G01*
X166815000Y-89590000D02*
X165765000Y-89590000D01*
G75*
G02*
X165695000Y-89520000I0J70000D01*
G01*
X165695000Y-88920000D01*
G75*
G02*
X165765000Y-88850000I70000J0D01*
G01*
X166815000Y-88850000D01*
G75*
G02*
X166885000Y-88920000I0J-70000D01*
G01*
X166885000Y-89520000D01*
G75*
G02*
X166815000Y-89590000I-70000J0D01*
G01*
G37*
G36*
G01*
X166815000Y-91490000D02*
X165765000Y-91490000D01*
G75*
G02*
X165695000Y-91420000I0J70000D01*
G01*
X165695000Y-90820000D01*
G75*
G02*
X165765000Y-90750000I70000J0D01*
G01*
X166815000Y-90750000D01*
G75*
G02*
X166885000Y-90820000I0J-70000D01*
G01*
X166885000Y-91420000D01*
G75*
G02*
X166815000Y-91490000I-70000J0D01*
G01*
G37*
%TD*%
%TO.C,R5*%
G36*
G01*
X172817498Y-92325000D02*
X173892502Y-92325000D01*
G75*
G02*
X174205000Y-92637498I0J-312498D01*
G01*
X174205000Y-93512502D01*
G75*
G02*
X173892502Y-93825000I-312498J0D01*
G01*
X172817498Y-93825000D01*
G75*
G02*
X172505000Y-93512502I0J312498D01*
G01*
X172505000Y-92637498D01*
G75*
G02*
X172817498Y-92325000I312498J0D01*
G01*
G37*
G36*
G01*
X172817498Y-90325000D02*
X173892502Y-90325000D01*
G75*
G02*
X174205000Y-90637498I0J-312498D01*
G01*
X174205000Y-91512502D01*
G75*
G02*
X173892502Y-91825000I-312498J0D01*
G01*
X172817498Y-91825000D01*
G75*
G02*
X172505000Y-91512502I0J312498D01*
G01*
X172505000Y-90637498D01*
G75*
G02*
X172817498Y-90325000I312498J0D01*
G01*
G37*
%TD*%
%TO.C,R4*%
G36*
G01*
X172817498Y-87245000D02*
X173892502Y-87245000D01*
G75*
G02*
X174205000Y-87557498I0J-312498D01*
G01*
X174205000Y-88432502D01*
G75*
G02*
X173892502Y-88745000I-312498J0D01*
G01*
X172817498Y-88745000D01*
G75*
G02*
X172505000Y-88432502I0J312498D01*
G01*
X172505000Y-87557498D01*
G75*
G02*
X172817498Y-87245000I312498J0D01*
G01*
G37*
G36*
G01*
X172817498Y-85245000D02*
X173892502Y-85245000D01*
G75*
G02*
X174205000Y-85557498I0J-312498D01*
G01*
X174205000Y-86432502D01*
G75*
G02*
X173892502Y-86745000I-312498J0D01*
G01*
X172817498Y-86745000D01*
G75*
G02*
X172505000Y-86432502I0J312498D01*
G01*
X172505000Y-85557498D01*
G75*
G02*
X172817498Y-85245000I312498J0D01*
G01*
G37*
%TD*%
%TO.C,JTAG1*%
X116840000Y-82550000D03*
X119380000Y-82550000D03*
X121920000Y-82550000D03*
X124460000Y-82550000D03*
X127000000Y-82550000D03*
G36*
G01*
X128690000Y-81550000D02*
X130390000Y-81550000D01*
G75*
G02*
X130540000Y-81700000I0J-150000D01*
G01*
X130540000Y-83400000D01*
G75*
G02*
X130390000Y-83550000I-150000J0D01*
G01*
X128690000Y-83550000D01*
G75*
G02*
X128540000Y-83400000I0J150000D01*
G01*
X128540000Y-81700000D01*
G75*
G02*
X128690000Y-81550000I150000J0D01*
G01*
G37*
%TD*%
%TO.C,C1*%
G36*
G01*
X164130000Y-81460171D02*
X164130000Y-80337829D01*
G75*
G02*
X164443829Y-80024000I313829J0D01*
G01*
X165291171Y-80024000D01*
G75*
G02*
X165605000Y-80337829I0J-313829D01*
G01*
X165605000Y-81460171D01*
G75*
G02*
X165291171Y-81774000I-313829J0D01*
G01*
X164443829Y-81774000D01*
G75*
G02*
X164130000Y-81460171I0J313829D01*
G01*
G37*
G36*
G01*
X162055000Y-81460171D02*
X162055000Y-80337829D01*
G75*
G02*
X162368829Y-80024000I313829J0D01*
G01*
X163216171Y-80024000D01*
G75*
G02*
X163530000Y-80337829I0J-313829D01*
G01*
X163530000Y-81460171D01*
G75*
G02*
X163216171Y-81774000I-313829J0D01*
G01*
X162368829Y-81774000D01*
G75*
G02*
X162055000Y-81460171I0J313829D01*
G01*
G37*
%TD*%
%TO.C,R3*%
G36*
G01*
X162175000Y-86897502D02*
X162175000Y-85822498D01*
G75*
G02*
X162487498Y-85510000I312498J0D01*
G01*
X163362502Y-85510000D01*
G75*
G02*
X163675000Y-85822498I0J-312498D01*
G01*
X163675000Y-86897502D01*
G75*
G02*
X163362502Y-87210000I-312498J0D01*
G01*
X162487498Y-87210000D01*
G75*
G02*
X162175000Y-86897502I0J312498D01*
G01*
G37*
G36*
G01*
X160175000Y-86897502D02*
X160175000Y-85822498D01*
G75*
G02*
X160487498Y-85510000I312498J0D01*
G01*
X161362502Y-85510000D01*
G75*
G02*
X161675000Y-85822498I0J-312498D01*
G01*
X161675000Y-86897502D01*
G75*
G02*
X161362502Y-87210000I-312498J0D01*
G01*
X160487498Y-87210000D01*
G75*
G02*
X160175000Y-86897502I0J312498D01*
G01*
G37*
%TD*%
%TO.C,R2*%
G36*
G01*
X162175000Y-97946502D02*
X162175000Y-96871498D01*
G75*
G02*
X162487498Y-96559000I312498J0D01*
G01*
X163362502Y-96559000D01*
G75*
G02*
X163675000Y-96871498I0J-312498D01*
G01*
X163675000Y-97946502D01*
G75*
G02*
X163362502Y-98259000I-312498J0D01*
G01*
X162487498Y-98259000D01*
G75*
G02*
X162175000Y-97946502I0J312498D01*
G01*
G37*
G36*
G01*
X160175000Y-97946502D02*
X160175000Y-96871498D01*
G75*
G02*
X160487498Y-96559000I312498J0D01*
G01*
X161362502Y-96559000D01*
G75*
G02*
X161675000Y-96871498I0J-312498D01*
G01*
X161675000Y-97946502D01*
G75*
G02*
X161362502Y-98259000I-312498J0D01*
G01*
X160487498Y-98259000D01*
G75*
G02*
X160175000Y-97946502I0J312498D01*
G01*
G37*
%TD*%
%TO.C,R1*%
G36*
G01*
X129002498Y-90801000D02*
X130077502Y-90801000D01*
G75*
G02*
X130390000Y-91113498I0J-312498D01*
G01*
X130390000Y-91988502D01*
G75*
G02*
X130077502Y-92301000I-312498J0D01*
G01*
X129002498Y-92301000D01*
G75*
G02*
X128690000Y-91988502I0J312498D01*
G01*
X128690000Y-91113498D01*
G75*
G02*
X129002498Y-90801000I312498J0D01*
G01*
G37*
G36*
G01*
X129002498Y-88801000D02*
X130077502Y-88801000D01*
G75*
G02*
X130390000Y-89113498I0J-312498D01*
G01*
X130390000Y-89988502D01*
G75*
G02*
X130077502Y-90301000I-312498J0D01*
G01*
X129002498Y-90301000D01*
G75*
G02*
X128690000Y-89988502I0J312498D01*
G01*
X128690000Y-89113498D01*
G75*
G02*
X129002498Y-88801000I312498J0D01*
G01*
G37*
%TD*%
%TO.C,C4*%
G36*
G01*
X138864171Y-86060000D02*
X137741829Y-86060000D01*
G75*
G02*
X137428000Y-85746171I0J313829D01*
G01*
X137428000Y-84898829D01*
G75*
G02*
X137741829Y-84585000I313829J0D01*
G01*
X138864171Y-84585000D01*
G75*
G02*
X139178000Y-84898829I0J-313829D01*
G01*
X139178000Y-85746171D01*
G75*
G02*
X138864171Y-86060000I-313829J0D01*
G01*
G37*
G36*
G01*
X138864171Y-88135000D02*
X137741829Y-88135000D01*
G75*
G02*
X137428000Y-87821171I0J313829D01*
G01*
X137428000Y-86973829D01*
G75*
G02*
X137741829Y-86660000I313829J0D01*
G01*
X138864171Y-86660000D01*
G75*
G02*
X139178000Y-86973829I0J-313829D01*
G01*
X139178000Y-87821171D01*
G75*
G02*
X138864171Y-88135000I-313829J0D01*
G01*
G37*
%TD*%
%TO.C,C3*%
G36*
G01*
X160347829Y-92502000D02*
X161470171Y-92502000D01*
G75*
G02*
X161784000Y-92815829I0J-313829D01*
G01*
X161784000Y-93663171D01*
G75*
G02*
X161470171Y-93977000I-313829J0D01*
G01*
X160347829Y-93977000D01*
G75*
G02*
X160034000Y-93663171I0J313829D01*
G01*
X160034000Y-92815829D01*
G75*
G02*
X160347829Y-92502000I313829J0D01*
G01*
G37*
G36*
G01*
X160347829Y-90427000D02*
X161470171Y-90427000D01*
G75*
G02*
X161784000Y-90740829I0J-313829D01*
G01*
X161784000Y-91588171D01*
G75*
G02*
X161470171Y-91902000I-313829J0D01*
G01*
X160347829Y-91902000D01*
G75*
G02*
X160034000Y-91588171I0J313829D01*
G01*
X160034000Y-90740829D01*
G75*
G02*
X160347829Y-90427000I313829J0D01*
G01*
G37*
%TD*%
%TO.C,C2*%
G36*
G01*
X147655000Y-79702829D02*
X147655000Y-80825171D01*
G75*
G02*
X147341171Y-81139000I-313829J0D01*
G01*
X146493829Y-81139000D01*
G75*
G02*
X146180000Y-80825171I0J313829D01*
G01*
X146180000Y-79702829D01*
G75*
G02*
X146493829Y-79389000I313829J0D01*
G01*
X147341171Y-79389000D01*
G75*
G02*
X147655000Y-79702829I0J-313829D01*
G01*
G37*
G36*
G01*
X149730000Y-79702829D02*
X149730000Y-80825171D01*
G75*
G02*
X149416171Y-81139000I-313829J0D01*
G01*
X148568829Y-81139000D01*
G75*
G02*
X148255000Y-80825171I0J313829D01*
G01*
X148255000Y-79702829D01*
G75*
G02*
X148568829Y-79389000I313829J0D01*
G01*
X149416171Y-79389000D01*
G75*
G02*
X149730000Y-79702829I0J-313829D01*
G01*
G37*
%TD*%
%TO.C,U1*%
G36*
G01*
X143790000Y-93895000D02*
X143790000Y-94445000D01*
G75*
G02*
X143640000Y-94595000I-150000J0D01*
G01*
X142140000Y-94595000D01*
G75*
G02*
X141990000Y-94445000I0J150000D01*
G01*
X141990000Y-93895000D01*
G75*
G02*
X142140000Y-93745000I150000J0D01*
G01*
X143640000Y-93745000D01*
G75*
G02*
X143790000Y-93895000I0J-150000D01*
G01*
G37*
G36*
G01*
X143790000Y-93095000D02*
X143790000Y-93645000D01*
G75*
G02*
X143640000Y-93795000I-150000J0D01*
G01*
X142140000Y-93795000D01*
G75*
G02*
X141990000Y-93645000I0J150000D01*
G01*
X141990000Y-93095000D01*
G75*
G02*
X142140000Y-92945000I150000J0D01*
G01*
X143640000Y-92945000D01*
G75*
G02*
X143790000Y-93095000I0J-150000D01*
G01*
G37*
G36*
G01*
X143790000Y-92295000D02*
X143790000Y-92845000D01*
G75*
G02*
X143640000Y-92995000I-150000J0D01*
G01*
X142140000Y-92995000D01*
G75*
G02*
X141990000Y-92845000I0J150000D01*
G01*
X141990000Y-92295000D01*
G75*
G02*
X142140000Y-92145000I150000J0D01*
G01*
X143640000Y-92145000D01*
G75*
G02*
X143790000Y-92295000I0J-150000D01*
G01*
G37*
G36*
G01*
X143790000Y-91495000D02*
X143790000Y-92045000D01*
G75*
G02*
X143640000Y-92195000I-150000J0D01*
G01*
X142140000Y-92195000D01*
G75*
G02*
X141990000Y-92045000I0J150000D01*
G01*
X141990000Y-91495000D01*
G75*
G02*
X142140000Y-91345000I150000J0D01*
G01*
X143640000Y-91345000D01*
G75*
G02*
X143790000Y-91495000I0J-150000D01*
G01*
G37*
G36*
G01*
X143790000Y-90695000D02*
X143790000Y-91245000D01*
G75*
G02*
X143640000Y-91395000I-150000J0D01*
G01*
X142140000Y-91395000D01*
G75*
G02*
X141990000Y-91245000I0J150000D01*
G01*
X141990000Y-90695000D01*
G75*
G02*
X142140000Y-90545000I150000J0D01*
G01*
X143640000Y-90545000D01*
G75*
G02*
X143790000Y-90695000I0J-150000D01*
G01*
G37*
G36*
G01*
X143790000Y-89895000D02*
X143790000Y-90445000D01*
G75*
G02*
X143640000Y-90595000I-150000J0D01*
G01*
X142140000Y-90595000D01*
G75*
G02*
X141990000Y-90445000I0J150000D01*
G01*
X141990000Y-89895000D01*
G75*
G02*
X142140000Y-89745000I150000J0D01*
G01*
X143640000Y-89745000D01*
G75*
G02*
X143790000Y-89895000I0J-150000D01*
G01*
G37*
G36*
G01*
X143790000Y-89095000D02*
X143790000Y-89645000D01*
G75*
G02*
X143640000Y-89795000I-150000J0D01*
G01*
X142140000Y-89795000D01*
G75*
G02*
X141990000Y-89645000I0J150000D01*
G01*
X141990000Y-89095000D01*
G75*
G02*
X142140000Y-88945000I150000J0D01*
G01*
X143640000Y-88945000D01*
G75*
G02*
X143790000Y-89095000I0J-150000D01*
G01*
G37*
G36*
G01*
X143790000Y-88295000D02*
X143790000Y-88845000D01*
G75*
G02*
X143640000Y-88995000I-150000J0D01*
G01*
X142140000Y-88995000D01*
G75*
G02*
X141990000Y-88845000I0J150000D01*
G01*
X141990000Y-88295000D01*
G75*
G02*
X142140000Y-88145000I150000J0D01*
G01*
X143640000Y-88145000D01*
G75*
G02*
X143790000Y-88295000I0J-150000D01*
G01*
G37*
G36*
G01*
X143790000Y-87495000D02*
X143790000Y-88045000D01*
G75*
G02*
X143640000Y-88195000I-150000J0D01*
G01*
X142140000Y-88195000D01*
G75*
G02*
X141990000Y-88045000I0J150000D01*
G01*
X141990000Y-87495000D01*
G75*
G02*
X142140000Y-87345000I150000J0D01*
G01*
X143640000Y-87345000D01*
G75*
G02*
X143790000Y-87495000I0J-150000D01*
G01*
G37*
G36*
G01*
X143790000Y-86695000D02*
X143790000Y-87245000D01*
G75*
G02*
X143640000Y-87395000I-150000J0D01*
G01*
X142140000Y-87395000D01*
G75*
G02*
X141990000Y-87245000I0J150000D01*
G01*
X141990000Y-86695000D01*
G75*
G02*
X142140000Y-86545000I150000J0D01*
G01*
X143640000Y-86545000D01*
G75*
G02*
X143790000Y-86695000I0J-150000D01*
G01*
G37*
G36*
G01*
X143790000Y-85895000D02*
X143790000Y-86445000D01*
G75*
G02*
X143640000Y-86595000I-150000J0D01*
G01*
X142140000Y-86595000D01*
G75*
G02*
X141990000Y-86445000I0J150000D01*
G01*
X141990000Y-85895000D01*
G75*
G02*
X142140000Y-85745000I150000J0D01*
G01*
X143640000Y-85745000D01*
G75*
G02*
X143790000Y-85895000I0J-150000D01*
G01*
G37*
G36*
G01*
X144865000Y-85370000D02*
X144315000Y-85370000D01*
G75*
G02*
X144165000Y-85220000I0J150000D01*
G01*
X144165000Y-83720000D01*
G75*
G02*
X144315000Y-83570000I150000J0D01*
G01*
X144865000Y-83570000D01*
G75*
G02*
X145015000Y-83720000I0J-150000D01*
G01*
X145015000Y-85220000D01*
G75*
G02*
X144865000Y-85370000I-150000J0D01*
G01*
G37*
G36*
G01*
X145665000Y-85370000D02*
X145115000Y-85370000D01*
G75*
G02*
X144965000Y-85220000I0J150000D01*
G01*
X144965000Y-83720000D01*
G75*
G02*
X145115000Y-83570000I150000J0D01*
G01*
X145665000Y-83570000D01*
G75*
G02*
X145815000Y-83720000I0J-150000D01*
G01*
X145815000Y-85220000D01*
G75*
G02*
X145665000Y-85370000I-150000J0D01*
G01*
G37*
G36*
G01*
X146465000Y-85370000D02*
X145915000Y-85370000D01*
G75*
G02*
X145765000Y-85220000I0J150000D01*
G01*
X145765000Y-83720000D01*
G75*
G02*
X145915000Y-83570000I150000J0D01*
G01*
X146465000Y-83570000D01*
G75*
G02*
X146615000Y-83720000I0J-150000D01*
G01*
X146615000Y-85220000D01*
G75*
G02*
X146465000Y-85370000I-150000J0D01*
G01*
G37*
G36*
G01*
X147265000Y-85370000D02*
X146715000Y-85370000D01*
G75*
G02*
X146565000Y-85220000I0J150000D01*
G01*
X146565000Y-83720000D01*
G75*
G02*
X146715000Y-83570000I150000J0D01*
G01*
X147265000Y-83570000D01*
G75*
G02*
X147415000Y-83720000I0J-150000D01*
G01*
X147415000Y-85220000D01*
G75*
G02*
X147265000Y-85370000I-150000J0D01*
G01*
G37*
G36*
G01*
X148065000Y-85370000D02*
X147515000Y-85370000D01*
G75*
G02*
X147365000Y-85220000I0J150000D01*
G01*
X147365000Y-83720000D01*
G75*
G02*
X147515000Y-83570000I150000J0D01*
G01*
X148065000Y-83570000D01*
G75*
G02*
X148215000Y-83720000I0J-150000D01*
G01*
X148215000Y-85220000D01*
G75*
G02*
X148065000Y-85370000I-150000J0D01*
G01*
G37*
G36*
G01*
X148865000Y-85370000D02*
X148315000Y-85370000D01*
G75*
G02*
X148165000Y-85220000I0J150000D01*
G01*
X148165000Y-83720000D01*
G75*
G02*
X148315000Y-83570000I150000J0D01*
G01*
X148865000Y-83570000D01*
G75*
G02*
X149015000Y-83720000I0J-150000D01*
G01*
X149015000Y-85220000D01*
G75*
G02*
X148865000Y-85370000I-150000J0D01*
G01*
G37*
G36*
G01*
X149665000Y-85370000D02*
X149115000Y-85370000D01*
G75*
G02*
X148965000Y-85220000I0J150000D01*
G01*
X148965000Y-83720000D01*
G75*
G02*
X149115000Y-83570000I150000J0D01*
G01*
X149665000Y-83570000D01*
G75*
G02*
X149815000Y-83720000I0J-150000D01*
G01*
X149815000Y-85220000D01*
G75*
G02*
X149665000Y-85370000I-150000J0D01*
G01*
G37*
G36*
G01*
X150465000Y-85370000D02*
X149915000Y-85370000D01*
G75*
G02*
X149765000Y-85220000I0J150000D01*
G01*
X149765000Y-83720000D01*
G75*
G02*
X149915000Y-83570000I150000J0D01*
G01*
X150465000Y-83570000D01*
G75*
G02*
X150615000Y-83720000I0J-150000D01*
G01*
X150615000Y-85220000D01*
G75*
G02*
X150465000Y-85370000I-150000J0D01*
G01*
G37*
G36*
G01*
X151265000Y-85370000D02*
X150715000Y-85370000D01*
G75*
G02*
X150565000Y-85220000I0J150000D01*
G01*
X150565000Y-83720000D01*
G75*
G02*
X150715000Y-83570000I150000J0D01*
G01*
X151265000Y-83570000D01*
G75*
G02*
X151415000Y-83720000I0J-150000D01*
G01*
X151415000Y-85220000D01*
G75*
G02*
X151265000Y-85370000I-150000J0D01*
G01*
G37*
G36*
G01*
X152065000Y-85370000D02*
X151515000Y-85370000D01*
G75*
G02*
X151365000Y-85220000I0J150000D01*
G01*
X151365000Y-83720000D01*
G75*
G02*
X151515000Y-83570000I150000J0D01*
G01*
X152065000Y-83570000D01*
G75*
G02*
X152215000Y-83720000I0J-150000D01*
G01*
X152215000Y-85220000D01*
G75*
G02*
X152065000Y-85370000I-150000J0D01*
G01*
G37*
G36*
G01*
X152865000Y-85370000D02*
X152315000Y-85370000D01*
G75*
G02*
X152165000Y-85220000I0J150000D01*
G01*
X152165000Y-83720000D01*
G75*
G02*
X152315000Y-83570000I150000J0D01*
G01*
X152865000Y-83570000D01*
G75*
G02*
X153015000Y-83720000I0J-150000D01*
G01*
X153015000Y-85220000D01*
G75*
G02*
X152865000Y-85370000I-150000J0D01*
G01*
G37*
G36*
G01*
X155190000Y-85895000D02*
X155190000Y-86445000D01*
G75*
G02*
X155040000Y-86595000I-150000J0D01*
G01*
X153540000Y-86595000D01*
G75*
G02*
X153390000Y-86445000I0J150000D01*
G01*
X153390000Y-85895000D01*
G75*
G02*
X153540000Y-85745000I150000J0D01*
G01*
X155040000Y-85745000D01*
G75*
G02*
X155190000Y-85895000I0J-150000D01*
G01*
G37*
G36*
G01*
X155190000Y-86695000D02*
X155190000Y-87245000D01*
G75*
G02*
X155040000Y-87395000I-150000J0D01*
G01*
X153540000Y-87395000D01*
G75*
G02*
X153390000Y-87245000I0J150000D01*
G01*
X153390000Y-86695000D01*
G75*
G02*
X153540000Y-86545000I150000J0D01*
G01*
X155040000Y-86545000D01*
G75*
G02*
X155190000Y-86695000I0J-150000D01*
G01*
G37*
G36*
G01*
X155190000Y-87495000D02*
X155190000Y-88045000D01*
G75*
G02*
X155040000Y-88195000I-150000J0D01*
G01*
X153540000Y-88195000D01*
G75*
G02*
X153390000Y-88045000I0J150000D01*
G01*
X153390000Y-87495000D01*
G75*
G02*
X153540000Y-87345000I150000J0D01*
G01*
X155040000Y-87345000D01*
G75*
G02*
X155190000Y-87495000I0J-150000D01*
G01*
G37*
G36*
G01*
X155190000Y-88295000D02*
X155190000Y-88845000D01*
G75*
G02*
X155040000Y-88995000I-150000J0D01*
G01*
X153540000Y-88995000D01*
G75*
G02*
X153390000Y-88845000I0J150000D01*
G01*
X153390000Y-88295000D01*
G75*
G02*
X153540000Y-88145000I150000J0D01*
G01*
X155040000Y-88145000D01*
G75*
G02*
X155190000Y-88295000I0J-150000D01*
G01*
G37*
G36*
G01*
X155190000Y-89095000D02*
X155190000Y-89645000D01*
G75*
G02*
X155040000Y-89795000I-150000J0D01*
G01*
X153540000Y-89795000D01*
G75*
G02*
X153390000Y-89645000I0J150000D01*
G01*
X153390000Y-89095000D01*
G75*
G02*
X153540000Y-88945000I150000J0D01*
G01*
X155040000Y-88945000D01*
G75*
G02*
X155190000Y-89095000I0J-150000D01*
G01*
G37*
G36*
G01*
X155190000Y-89895000D02*
X155190000Y-90445000D01*
G75*
G02*
X155040000Y-90595000I-150000J0D01*
G01*
X153540000Y-90595000D01*
G75*
G02*
X153390000Y-90445000I0J150000D01*
G01*
X153390000Y-89895000D01*
G75*
G02*
X153540000Y-89745000I150000J0D01*
G01*
X155040000Y-89745000D01*
G75*
G02*
X155190000Y-89895000I0J-150000D01*
G01*
G37*
G36*
G01*
X155190000Y-90695000D02*
X155190000Y-91245000D01*
G75*
G02*
X155040000Y-91395000I-150000J0D01*
G01*
X153540000Y-91395000D01*
G75*
G02*
X153390000Y-91245000I0J150000D01*
G01*
X153390000Y-90695000D01*
G75*
G02*
X153540000Y-90545000I150000J0D01*
G01*
X155040000Y-90545000D01*
G75*
G02*
X155190000Y-90695000I0J-150000D01*
G01*
G37*
G36*
G01*
X155190000Y-91495000D02*
X155190000Y-92045000D01*
G75*
G02*
X155040000Y-92195000I-150000J0D01*
G01*
X153540000Y-92195000D01*
G75*
G02*
X153390000Y-92045000I0J150000D01*
G01*
X153390000Y-91495000D01*
G75*
G02*
X153540000Y-91345000I150000J0D01*
G01*
X155040000Y-91345000D01*
G75*
G02*
X155190000Y-91495000I0J-150000D01*
G01*
G37*
G36*
G01*
X155190000Y-92295000D02*
X155190000Y-92845000D01*
G75*
G02*
X155040000Y-92995000I-150000J0D01*
G01*
X153540000Y-92995000D01*
G75*
G02*
X153390000Y-92845000I0J150000D01*
G01*
X153390000Y-92295000D01*
G75*
G02*
X153540000Y-92145000I150000J0D01*
G01*
X155040000Y-92145000D01*
G75*
G02*
X155190000Y-92295000I0J-150000D01*
G01*
G37*
G36*
G01*
X155190000Y-93095000D02*
X155190000Y-93645000D01*
G75*
G02*
X155040000Y-93795000I-150000J0D01*
G01*
X153540000Y-93795000D01*
G75*
G02*
X153390000Y-93645000I0J150000D01*
G01*
X153390000Y-93095000D01*
G75*
G02*
X153540000Y-92945000I150000J0D01*
G01*
X155040000Y-92945000D01*
G75*
G02*
X155190000Y-93095000I0J-150000D01*
G01*
G37*
G36*
G01*
X155190000Y-93895000D02*
X155190000Y-94445000D01*
G75*
G02*
X155040000Y-94595000I-150000J0D01*
G01*
X153540000Y-94595000D01*
G75*
G02*
X153390000Y-94445000I0J150000D01*
G01*
X153390000Y-93895000D01*
G75*
G02*
X153540000Y-93745000I150000J0D01*
G01*
X155040000Y-93745000D01*
G75*
G02*
X155190000Y-93895000I0J-150000D01*
G01*
G37*
G36*
G01*
X152865000Y-96770000D02*
X152315000Y-96770000D01*
G75*
G02*
X152165000Y-96620000I0J150000D01*
G01*
X152165000Y-95120000D01*
G75*
G02*
X152315000Y-94970000I150000J0D01*
G01*
X152865000Y-94970000D01*
G75*
G02*
X153015000Y-95120000I0J-150000D01*
G01*
X153015000Y-96620000D01*
G75*
G02*
X152865000Y-96770000I-150000J0D01*
G01*
G37*
G36*
G01*
X152065000Y-96770000D02*
X151515000Y-96770000D01*
G75*
G02*
X151365000Y-96620000I0J150000D01*
G01*
X151365000Y-95120000D01*
G75*
G02*
X151515000Y-94970000I150000J0D01*
G01*
X152065000Y-94970000D01*
G75*
G02*
X152215000Y-95120000I0J-150000D01*
G01*
X152215000Y-96620000D01*
G75*
G02*
X152065000Y-96770000I-150000J0D01*
G01*
G37*
G36*
G01*
X151265000Y-96770000D02*
X150715000Y-96770000D01*
G75*
G02*
X150565000Y-96620000I0J150000D01*
G01*
X150565000Y-95120000D01*
G75*
G02*
X150715000Y-94970000I150000J0D01*
G01*
X151265000Y-94970000D01*
G75*
G02*
X151415000Y-95120000I0J-150000D01*
G01*
X151415000Y-96620000D01*
G75*
G02*
X151265000Y-96770000I-150000J0D01*
G01*
G37*
G36*
G01*
X150465000Y-96770000D02*
X149915000Y-96770000D01*
G75*
G02*
X149765000Y-96620000I0J150000D01*
G01*
X149765000Y-95120000D01*
G75*
G02*
X149915000Y-94970000I150000J0D01*
G01*
X150465000Y-94970000D01*
G75*
G02*
X150615000Y-95120000I0J-150000D01*
G01*
X150615000Y-96620000D01*
G75*
G02*
X150465000Y-96770000I-150000J0D01*
G01*
G37*
G36*
G01*
X149665000Y-96770000D02*
X149115000Y-96770000D01*
G75*
G02*
X148965000Y-96620000I0J150000D01*
G01*
X148965000Y-95120000D01*
G75*
G02*
X149115000Y-94970000I150000J0D01*
G01*
X149665000Y-94970000D01*
G75*
G02*
X149815000Y-95120000I0J-150000D01*
G01*
X149815000Y-96620000D01*
G75*
G02*
X149665000Y-96770000I-150000J0D01*
G01*
G37*
G36*
G01*
X148865000Y-96770000D02*
X148315000Y-96770000D01*
G75*
G02*
X148165000Y-96620000I0J150000D01*
G01*
X148165000Y-95120000D01*
G75*
G02*
X148315000Y-94970000I150000J0D01*
G01*
X148865000Y-94970000D01*
G75*
G02*
X149015000Y-95120000I0J-150000D01*
G01*
X149015000Y-96620000D01*
G75*
G02*
X148865000Y-96770000I-150000J0D01*
G01*
G37*
G36*
G01*
X148065000Y-96770000D02*
X147515000Y-96770000D01*
G75*
G02*
X147365000Y-96620000I0J150000D01*
G01*
X147365000Y-95120000D01*
G75*
G02*
X147515000Y-94970000I150000J0D01*
G01*
X148065000Y-94970000D01*
G75*
G02*
X148215000Y-95120000I0J-150000D01*
G01*
X148215000Y-96620000D01*
G75*
G02*
X148065000Y-96770000I-150000J0D01*
G01*
G37*
G36*
G01*
X147265000Y-96770000D02*
X146715000Y-96770000D01*
G75*
G02*
X146565000Y-96620000I0J150000D01*
G01*
X146565000Y-95120000D01*
G75*
G02*
X146715000Y-94970000I150000J0D01*
G01*
X147265000Y-94970000D01*
G75*
G02*
X147415000Y-95120000I0J-150000D01*
G01*
X147415000Y-96620000D01*
G75*
G02*
X147265000Y-96770000I-150000J0D01*
G01*
G37*
G36*
G01*
X146465000Y-96770000D02*
X145915000Y-96770000D01*
G75*
G02*
X145765000Y-96620000I0J150000D01*
G01*
X145765000Y-95120000D01*
G75*
G02*
X145915000Y-94970000I150000J0D01*
G01*
X146465000Y-94970000D01*
G75*
G02*
X146615000Y-95120000I0J-150000D01*
G01*
X146615000Y-96620000D01*
G75*
G02*
X146465000Y-96770000I-150000J0D01*
G01*
G37*
G36*
G01*
X145665000Y-96770000D02*
X145115000Y-96770000D01*
G75*
G02*
X144965000Y-96620000I0J150000D01*
G01*
X144965000Y-95120000D01*
G75*
G02*
X145115000Y-94970000I150000J0D01*
G01*
X145665000Y-94970000D01*
G75*
G02*
X145815000Y-95120000I0J-150000D01*
G01*
X145815000Y-96620000D01*
G75*
G02*
X145665000Y-96770000I-150000J0D01*
G01*
G37*
G36*
G01*
X144865000Y-96770000D02*
X144315000Y-96770000D01*
G75*
G02*
X144165000Y-96620000I0J150000D01*
G01*
X144165000Y-95120000D01*
G75*
G02*
X144315000Y-94970000I150000J0D01*
G01*
X144865000Y-94970000D01*
G75*
G02*
X145015000Y-95120000I0J-150000D01*
G01*
X145015000Y-96620000D01*
G75*
G02*
X144865000Y-96770000I-150000J0D01*
G01*
G37*
%TD*%
%TO.C,J1*%
G36*
G01*
X161710000Y-75200000D02*
X163410000Y-75200000D01*
G75*
G02*
X163560000Y-75350000I0J-150000D01*
G01*
X163560000Y-77050000D01*
G75*
G02*
X163410000Y-77200000I-150000J0D01*
G01*
X161710000Y-77200000D01*
G75*
G02*
X161560000Y-77050000I0J150000D01*
G01*
X161560000Y-75350000D01*
G75*
G02*
X161710000Y-75200000I150000J0D01*
G01*
G37*
X162560000Y-73660000D03*
X160020000Y-76200000D03*
X160020000Y-73660000D03*
X157480000Y-76200000D03*
X157480000Y-73660000D03*
X154940000Y-76200000D03*
X154940000Y-73660000D03*
X152400000Y-76200000D03*
X152400000Y-73660000D03*
X149860000Y-76200000D03*
X149860000Y-73660000D03*
X147320000Y-76200000D03*
X147320000Y-73660000D03*
X144780000Y-76200000D03*
X144780000Y-73660000D03*
X142240000Y-76200000D03*
X142240000Y-73660000D03*
X139700000Y-76200000D03*
X139700000Y-73660000D03*
X137160000Y-76200000D03*
X137160000Y-73660000D03*
X134620000Y-76200000D03*
X134620000Y-73660000D03*
X132080000Y-76200000D03*
X132080000Y-73660000D03*
X129540000Y-76200000D03*
X129540000Y-73660000D03*
X127000000Y-76200000D03*
X127000000Y-73660000D03*
X124460000Y-76200000D03*
X124460000Y-73660000D03*
X121920000Y-76200000D03*
X121920000Y-73660000D03*
X119380000Y-76200000D03*
X119380000Y-73660000D03*
X116840000Y-76200000D03*
X116840000Y-73660000D03*
X114300000Y-76200000D03*
X114300000Y-73660000D03*
%TD*%
%TO.C,BT1*%
X129540000Y-97409000D03*
G36*
G01*
X131230000Y-96409000D02*
X132930000Y-96409000D01*
G75*
G02*
X133080000Y-96559000I0J-150000D01*
G01*
X133080000Y-98259000D01*
G75*
G02*
X132930000Y-98409000I-150000J0D01*
G01*
X131230000Y-98409000D01*
G75*
G02*
X131080000Y-98259000I0J150000D01*
G01*
X131080000Y-96559000D01*
G75*
G02*
X131230000Y-96409000I150000J0D01*
G01*
G37*
%TD*%
M02*
