M48
INCH,TZ
T1C0.0157
T2C0.0394
T3C0.1260
%
G90
G05
T1
X44750Y-31500
X46250Y-30500
X48250Y-29900
X48500Y-35250
X50000Y-34250
X50300Y-30600
X50300Y-32050
X50800Y-30000
X51250Y-49100
X51250Y-51400
X51250Y-53000
X52900Y-30200
X52900Y-31150
X53150Y-32800
X53200Y-40500
X54250Y-55400
X54400Y-31600
T2
X33250Y-27750
X33250Y-28750
X34250Y-27750
X34250Y-28750
X35250Y-27750
X35250Y-28750
X36250Y-27750
X36250Y-28750
X37250Y-27750
X37250Y-28750
X38250Y-27750
X38250Y-28750
X39250Y-27750
X39250Y-28750
X40250Y-27750
X40250Y-28750
X41250Y-27750
X41250Y-28750
X42250Y-27750
X42250Y-28750
X43250Y-27750
X43250Y-28750
X44250Y-27750
X44250Y-28750
X45250Y-27750
X45250Y-28750
X46250Y-27750
X46250Y-28750
X47250Y-27750
X47250Y-28750
X48250Y-27750
X48250Y-28750
X49250Y-27750
X49250Y-28750
X50250Y-27750
X50250Y-28750
X51250Y-27750
X51250Y-28750
X52250Y-27750
X52250Y-28750
X52250Y-42500
X52250Y-43500
X52250Y-44500
X52250Y-45500
X52250Y-46500
X52250Y-47500
X52250Y-48500
X52250Y-49500
X52250Y-50500
X52250Y-51500
X52250Y-52500
X52250Y-53500
X52250Y-54500
X52250Y-55500
X52250Y-56500
X52250Y-57500
X52250Y-58500
X52250Y-59500
X52250Y-60500
X52250Y-61500
X53250Y-42500
X53250Y-43500
X53250Y-44500
X53250Y-45500
X53250Y-46500
X53250Y-47500
X53250Y-48500
X53250Y-49500
X53250Y-50500
X53250Y-51500
X53250Y-52500
X53250Y-53500
X53250Y-54500
X53250Y-55500
X53250Y-56500
X53250Y-57500
X53250Y-58500
X53250Y-59500
X53250Y-60500
X53250Y-61500
T3
X31250Y-28250
X54250Y-28250
T0
M30
