M48
; DRILL file {KiCad (5.1.9)-1} date 04/11/21 16:39:58
; FORMAT={-:-/ absolute / inch / decimal}
; #@! TF.CreationDate,2021-04-11T16:39:58+01:00
; #@! TF.GenerationSoftware,Kicad,Pcbnew,(5.1.9)-1
; #@! TF.FileFunction,Plated,1,2,PTH
FMAT,2
INCH
T1C0.0157
T2C0.0394
T3C0.1260
%
G90
G05
T1
X4.475Y-3.15
X4.625Y-3.05
X4.825Y-2.99
X4.85Y-3.525
X5.0Y-3.425
X5.03Y-3.06
X5.03Y-3.205
X5.08Y-3.0
X5.125Y-4.91
X5.125Y-5.14
X5.125Y-5.3
X5.29Y-3.02
X5.29Y-3.115
X5.315Y-3.28
X5.32Y-4.05
X5.425Y-5.54
X5.44Y-3.16
T2
X3.325Y-2.775
X3.325Y-2.875
X3.425Y-2.775
X3.425Y-2.875
X3.525Y-2.775
X3.525Y-2.875
X3.625Y-2.775
X3.625Y-2.875
X3.725Y-2.775
X3.725Y-2.875
X3.825Y-2.775
X3.825Y-2.875
X3.925Y-2.775
X3.925Y-2.875
X4.025Y-2.775
X4.025Y-2.875
X4.125Y-2.775
X4.125Y-2.875
X4.225Y-2.775
X4.225Y-2.875
X4.325Y-2.775
X4.325Y-2.875
X4.425Y-2.775
X4.425Y-2.875
X4.525Y-2.775
X4.525Y-2.875
X4.625Y-2.775
X4.625Y-2.875
X4.725Y-2.775
X4.725Y-2.875
X4.825Y-2.775
X4.825Y-2.875
X4.925Y-2.775
X4.925Y-2.875
X5.025Y-2.775
X5.025Y-2.875
X5.125Y-2.775
X5.125Y-2.875
X5.225Y-2.775
X5.225Y-2.875
X5.225Y-4.25
X5.225Y-4.35
X5.225Y-4.45
X5.225Y-4.55
X5.225Y-4.65
X5.225Y-4.75
X5.225Y-4.85
X5.225Y-4.95
X5.225Y-5.05
X5.225Y-5.15
X5.225Y-5.25
X5.225Y-5.35
X5.225Y-5.45
X5.225Y-5.55
X5.225Y-5.65
X5.225Y-5.75
X5.225Y-5.85
X5.225Y-5.95
X5.225Y-6.05
X5.225Y-6.15
X5.325Y-4.25
X5.325Y-4.35
X5.325Y-4.45
X5.325Y-4.55
X5.325Y-4.65
X5.325Y-4.75
X5.325Y-4.85
X5.325Y-4.95
X5.325Y-5.05
X5.325Y-5.15
X5.325Y-5.25
X5.325Y-5.35
X5.325Y-5.45
X5.325Y-5.55
X5.325Y-5.65
X5.325Y-5.75
X5.325Y-5.85
X5.325Y-5.95
X5.325Y-6.05
X5.325Y-6.15
T3
X3.125Y-2.825
X5.425Y-2.825
T0
M30
