%TF.GenerationSoftware,KiCad,Pcbnew,(5.1.9)-1*%
%TF.CreationDate,2021-04-11T16:40:00+01:00*%
%TF.ProjectId,RGBtoHDMI-Adapter Type C Rev 2,52474274-6f48-4444-9d49-2d4164617074,2*%
%TF.SameCoordinates,Original*%
%TF.FileFunction,Copper,L2,Bot*%
%TF.FilePolarity,Positive*%
%FSLAX46Y46*%
G04 Gerber Fmt 4.6, Leading zero omitted, Abs format (unit mm)*
G04 Created by KiCad (PCBNEW (5.1.9)-1) date 2021-04-11 16:40:00*
%MOMM*%
%LPD*%
G01*
G04 APERTURE LIST*
%TA.AperFunction,ComponentPad*%
%ADD10O,1.700000X1.700000*%
%TD*%
%TA.AperFunction,ComponentPad*%
%ADD11R,1.700000X1.700000*%
%TD*%
%TA.AperFunction,ComponentPad*%
%ADD12C,5.700000*%
%TD*%
%TA.AperFunction,ViaPad*%
%ADD13C,0.800000*%
%TD*%
%TA.AperFunction,ViaPad*%
%ADD14C,1.000000*%
%TD*%
%TA.AperFunction,Conductor*%
%ADD15C,0.250000*%
%TD*%
%TA.AperFunction,Conductor*%
%ADD16C,0.254000*%
%TD*%
%TA.AperFunction,Conductor*%
%ADD17C,0.100000*%
%TD*%
G04 APERTURE END LIST*
D10*
%TO.P,J2,40*%
%TO.N,Net-(J2-Pad40)*%
X84455000Y-73025000D03*
%TO.P,J2,39*%
%TO.N,GND*%
X84455000Y-70485000D03*
%TO.P,J2,38*%
%TO.N,Net-(J2-Pad38)*%
X86995000Y-73025000D03*
%TO.P,J2,37*%
%TO.N,Net-(J2-Pad37)*%
X86995000Y-70485000D03*
%TO.P,J2,36*%
%TO.N,GPIO16*%
X89535000Y-73025000D03*
%TO.P,J2,35*%
%TO.N,Net-(J2-Pad35)*%
X89535000Y-70485000D03*
%TO.P,J2,34*%
%TO.N,GND*%
X92075000Y-73025000D03*
%TO.P,J2,33*%
%TO.N,PiR3*%
X92075000Y-70485000D03*
%TO.P,J2,32*%
%TO.N,PiR2*%
X94615000Y-73025000D03*
%TO.P,J2,31*%
%TO.N,PiG0*%
X94615000Y-70485000D03*
%TO.P,J2,30*%
%TO.N,GND*%
X97155000Y-73025000D03*
%TO.P,J2,29*%
%TO.N,PiB3*%
X97155000Y-70485000D03*
%TO.P,J2,28*%
%TO.N,Net-(J2-Pad28)*%
X99695000Y-73025000D03*
%TO.P,J2,27*%
%TO.N,Net-(J2-Pad27)*%
X99695000Y-70485000D03*
%TO.P,J2,26*%
%TO.N,PiG1*%
X102235000Y-73025000D03*
%TO.P,J2,25*%
%TO.N,GND*%
X102235000Y-70485000D03*
%TO.P,J2,24*%
%TO.N,PiG2*%
X104775000Y-73025000D03*
%TO.P,J2,23*%
%TO.N,PiR1*%
X104775000Y-70485000D03*
%TO.P,J2,22*%
%TO.N,Net-(J2-Pad22)*%
X107315000Y-73025000D03*
%TO.P,J2,21*%
%TO.N,PiG3*%
X107315000Y-70485000D03*
%TO.P,J2,20*%
%TO.N,Net-(J2-Pad20)*%
X109855000Y-73025000D03*
%TO.P,J2,19*%
%TO.N,PiR0*%
X109855000Y-70485000D03*
%TO.P,J2,18*%
%TO.N,Net-(J2-Pad18)*%
X112395000Y-73025000D03*
%TO.P,J2,17*%
%TO.N,+3V3*%
X112395000Y-70485000D03*
%TO.P,J2,16*%
%TO.N,PiSYNC*%
X114935000Y-73025000D03*
%TO.P,J2,15*%
%TO.N,Net-(J2-Pad15)*%
X114935000Y-70485000D03*
%TO.P,J2,14*%
%TO.N,GND*%
X117475000Y-73025000D03*
%TO.P,J2,13*%
%TO.N,Net-(J2-Pad13)*%
X117475000Y-70485000D03*
%TO.P,J2,12*%
%TO.N,GPIO18*%
X120015000Y-73025000D03*
%TO.P,J2,11*%
%TO.N,PiCLK*%
X120015000Y-70485000D03*
%TO.P,J2,10*%
%TO.N,Net-(J2-Pad10)*%
X122555000Y-73025000D03*
%TO.P,J2,9*%
%TO.N,GND*%
X122555000Y-70485000D03*
%TO.P,J2,8*%
%TO.N,Net-(J2-Pad8)*%
X125095000Y-73025000D03*
%TO.P,J2,7*%
%TO.N,PiB2*%
X125095000Y-70485000D03*
%TO.P,J2,6*%
%TO.N,GND*%
X127635000Y-73025000D03*
%TO.P,J2,5*%
%TO.N,PiB1*%
X127635000Y-70485000D03*
%TO.P,J2,4*%
%TO.N,+5V*%
X130175000Y-73025000D03*
%TO.P,J2,3*%
%TO.N,PiB0*%
X130175000Y-70485000D03*
%TO.P,J2,2*%
%TO.N,+5V*%
X132715000Y-73025000D03*
D11*
%TO.P,J2,1*%
%TO.N,+3V3*%
X132715000Y-70485000D03*
%TD*%
D12*
%TO.P,H2,1*%
%TO.N,GND*%
X137795000Y-71755000D03*
%TD*%
%TO.P,H1,1*%
%TO.N,GND*%
X79375000Y-71755000D03*
%TD*%
D10*
%TO.P,J1,40*%
%TO.N,Net-(J1-Pad40)*%
X132715000Y-156210000D03*
%TO.P,J1,39*%
%TO.N,GND*%
X135255000Y-156210000D03*
%TO.P,J1,38*%
%TO.N,Net-(J1-Pad38)*%
X132715000Y-153670000D03*
%TO.P,J1,37*%
%TO.N,Net-(J1-Pad37)*%
X135255000Y-153670000D03*
%TO.P,J1,36*%
%TO.N,GPIO16*%
X132715000Y-151130000D03*
%TO.P,J1,35*%
%TO.N,Net-(J1-Pad35)*%
X135255000Y-151130000D03*
%TO.P,J1,34*%
%TO.N,GND*%
X132715000Y-148590000D03*
%TO.P,J1,33*%
%TO.N,PiR3*%
X135255000Y-148590000D03*
%TO.P,J1,32*%
%TO.N,PiR2*%
X132715000Y-146050000D03*
%TO.P,J1,31*%
%TO.N,PiG0*%
X135255000Y-146050000D03*
%TO.P,J1,30*%
%TO.N,GND*%
X132715000Y-143510000D03*
%TO.P,J1,29*%
%TO.N,PiB3*%
X135255000Y-143510000D03*
%TO.P,J1,28*%
%TO.N,Net-(J1-Pad28)*%
X132715000Y-140970000D03*
%TO.P,J1,27*%
%TO.N,Net-(J1-Pad27)*%
X135255000Y-140970000D03*
%TO.P,J1,26*%
%TO.N,PiG1*%
X132715000Y-138430000D03*
%TO.P,J1,25*%
%TO.N,GND*%
X135255000Y-138430000D03*
%TO.P,J1,24*%
%TO.N,PiG2*%
X132715000Y-135890000D03*
%TO.P,J1,23*%
%TO.N,PiR1*%
X135255000Y-135890000D03*
%TO.P,J1,22*%
%TO.N,Net-(J1-Pad22)*%
X132715000Y-133350000D03*
%TO.P,J1,21*%
%TO.N,PiG3*%
X135255000Y-133350000D03*
%TO.P,J1,20*%
%TO.N,Net-(J1-Pad20)*%
X132715000Y-130810000D03*
%TO.P,J1,19*%
%TO.N,PiR0*%
X135255000Y-130810000D03*
%TO.P,J1,18*%
%TO.N,Net-(J1-Pad18)*%
X132715000Y-128270000D03*
%TO.P,J1,17*%
%TO.N,+3V3*%
X135255000Y-128270000D03*
%TO.P,J1,16*%
%TO.N,PiSYNC*%
X132715000Y-125730000D03*
%TO.P,J1,15*%
%TO.N,Net-(J1-Pad15)*%
X135255000Y-125730000D03*
%TO.P,J1,14*%
%TO.N,GND*%
X132715000Y-123190000D03*
%TO.P,J1,13*%
%TO.N,Net-(J1-Pad13)*%
X135255000Y-123190000D03*
%TO.P,J1,12*%
%TO.N,GPIO18*%
X132715000Y-120650000D03*
%TO.P,J1,11*%
%TO.N,PiCLK*%
X135255000Y-120650000D03*
%TO.P,J1,10*%
%TO.N,Net-(J1-Pad10)*%
X132715000Y-118110000D03*
%TO.P,J1,9*%
%TO.N,GND*%
X135255000Y-118110000D03*
%TO.P,J1,8*%
%TO.N,Net-(J1-Pad8)*%
X132715000Y-115570000D03*
%TO.P,J1,7*%
%TO.N,PiB2*%
X135255000Y-115570000D03*
%TO.P,J1,6*%
%TO.N,GND*%
X132715000Y-113030000D03*
%TO.P,J1,5*%
%TO.N,PiB1*%
X135255000Y-113030000D03*
%TO.P,J1,4*%
%TO.N,+5V*%
X132715000Y-110490000D03*
%TO.P,J1,3*%
%TO.N,PiB0*%
X135255000Y-110490000D03*
%TO.P,J1,2*%
%TO.N,+5V*%
X132715000Y-107950000D03*
D11*
%TO.P,J1,1*%
%TO.N,+3V3*%
X135255000Y-107950000D03*
%TD*%
D13*
%TO.N,GND*%
X130175000Y-134620000D03*
X130175000Y-124714000D03*
D14*
X135128000Y-102870000D03*
X127000000Y-86995000D03*
X117475000Y-77470000D03*
X135001000Y-83312000D03*
X137795000Y-140716000D03*
D13*
X123190000Y-89535000D03*
X113665000Y-80010000D03*
X127762000Y-77724000D03*
X134366000Y-76708000D03*
X138176000Y-80264000D03*
X129032000Y-76200000D03*
X122555000Y-75946000D03*
X127762000Y-81407000D03*
X130175000Y-130556000D03*
X134366000Y-79121000D03*
%TD*%
D15*
%TO.N,PiR3*%
X94742000Y-67818000D02*
X92075000Y-70485000D01*
X133350000Y-67818000D02*
X94742000Y-67818000D01*
X134518400Y-68986400D02*
X133350000Y-67818000D01*
X134518400Y-73558400D02*
X134518400Y-68986400D01*
X140462000Y-79502000D02*
X134518400Y-73558400D01*
X140462000Y-143510000D02*
X140462000Y-79502000D01*
X135382000Y-148590000D02*
X140462000Y-143510000D01*
X135255000Y-148590000D02*
X135382000Y-148590000D01*
%TO.N,PiG0*%
X96831989Y-68268011D02*
X94615000Y-70485000D01*
X133038011Y-68268011D02*
X96831989Y-68268011D01*
X134010400Y-74955400D02*
X134010400Y-69240400D01*
X134010400Y-69240400D02*
X133038011Y-68268011D01*
X139827000Y-80772000D02*
X134010400Y-74955400D01*
X139827000Y-141478000D02*
X139827000Y-80772000D01*
X135255000Y-146050000D02*
X139827000Y-141478000D01*
%TO.N,PiB3*%
X98425000Y-74295000D02*
X98425000Y-71755000D01*
X98425000Y-71755000D02*
X97155000Y-70485000D01*
X108839000Y-76454000D02*
X100584000Y-76454000D01*
X100584000Y-76454000D02*
X98425000Y-74295000D01*
X126746000Y-137033000D02*
X126746000Y-94361000D01*
X126746000Y-94361000D02*
X108839000Y-76454000D01*
X131953000Y-142240000D02*
X126746000Y-137033000D01*
X133985000Y-142240000D02*
X131953000Y-142240000D01*
X135255000Y-143510000D02*
X133985000Y-142240000D01*
%TO.N,PiR1*%
X106541978Y-68718022D02*
X104775000Y-70485000D01*
X130871822Y-68718022D02*
X106541978Y-68718022D01*
X131445000Y-69291200D02*
X130871822Y-68718022D01*
X131445000Y-74930000D02*
X131445000Y-69291200D01*
X139192000Y-82677000D02*
X131445000Y-74930000D01*
X139192000Y-131953000D02*
X139192000Y-82677000D01*
X135255000Y-135890000D02*
X139192000Y-131953000D01*
%TO.N,PiG3*%
X108585000Y-71755000D02*
X107315000Y-70485000D01*
X108585000Y-73494002D02*
X108585000Y-71755000D01*
X127889000Y-92798002D02*
X108585000Y-73494002D01*
X127889000Y-129794000D02*
X127889000Y-92798002D01*
X130175000Y-132080000D02*
X127889000Y-129794000D01*
X133985000Y-132080000D02*
X130175000Y-132080000D01*
X135255000Y-133350000D02*
X133985000Y-132080000D01*
%TO.N,PiR0*%
X111125000Y-71755000D02*
X109855000Y-70485000D01*
X111125000Y-74218800D02*
X111125000Y-71755000D01*
X129159000Y-92252800D02*
X111125000Y-74218800D01*
X130175000Y-127000000D02*
X129159000Y-125984000D01*
X133477000Y-127000000D02*
X130175000Y-127000000D01*
X133985000Y-127508000D02*
X133477000Y-127000000D01*
X129159000Y-125984000D02*
X129159000Y-92252800D01*
X133985000Y-129540000D02*
X133985000Y-127508000D01*
X135255000Y-130810000D02*
X133985000Y-129540000D01*
%TO.N,PiCLK*%
X133985000Y-119380000D02*
X135255000Y-120650000D01*
X133731000Y-119380000D02*
X133985000Y-119380000D01*
X133858000Y-119380000D02*
X133731000Y-119380000D01*
X119165001Y-71334999D02*
X120015000Y-70485000D01*
X118745000Y-74422000D02*
X118745000Y-71755000D01*
X130175000Y-85852000D02*
X118745000Y-74422000D01*
X130175000Y-118110000D02*
X130175000Y-85852000D01*
X118745000Y-71755000D02*
X119165001Y-71334999D01*
X131445000Y-119380000D02*
X130175000Y-118110000D01*
X133731000Y-119380000D02*
X131445000Y-119380000D01*
%TO.N,PiB2*%
X123875800Y-75615800D02*
X123875800Y-71704200D01*
X131445000Y-83185000D02*
X123875800Y-75615800D01*
X131445000Y-113588800D02*
X131445000Y-83185000D01*
X123875800Y-71704200D02*
X125095000Y-70485000D01*
X132156200Y-114300000D02*
X131445000Y-113588800D01*
X133985000Y-114300000D02*
X132156200Y-114300000D01*
X135255000Y-115570000D02*
X133985000Y-114300000D01*
%TO.N,PiB1*%
X126390400Y-71729600D02*
X127635000Y-70485000D01*
X126390400Y-74828400D02*
X126390400Y-71729600D01*
X133985000Y-82423000D02*
X126390400Y-74828400D01*
X133985000Y-111760000D02*
X133985000Y-82423000D01*
X135255000Y-113030000D02*
X133985000Y-111760000D01*
%TO.N,PiB0*%
X128905000Y-71755000D02*
X130175000Y-70485000D01*
X128905000Y-74803000D02*
X128905000Y-71755000D01*
X136652000Y-82550000D02*
X128905000Y-74803000D01*
X136652000Y-109093000D02*
X136652000Y-82550000D01*
X135255000Y-110490000D02*
X136652000Y-109093000D01*
%TD*%
D16*
%TO.N,GND*%
X138332454Y-66500644D02*
X138849440Y-66656732D01*
X139326262Y-66910262D01*
X139744760Y-67251581D01*
X140088992Y-67667686D01*
X140345845Y-68142724D01*
X140505536Y-68658605D01*
X140563996Y-69214813D01*
X140564001Y-69216122D01*
X140564001Y-78888409D01*
X135024400Y-73348809D01*
X135024400Y-69011245D01*
X135026847Y-68986399D01*
X135024400Y-68961553D01*
X135024400Y-68961546D01*
X135017078Y-68887207D01*
X135007448Y-68855458D01*
X134988145Y-68791825D01*
X134976310Y-68769683D01*
X134941159Y-68703921D01*
X134877927Y-68626873D01*
X134858620Y-68611028D01*
X133725376Y-67477785D01*
X133709527Y-67458473D01*
X133632479Y-67395241D01*
X133544575Y-67348255D01*
X133449193Y-67319322D01*
X133374854Y-67312000D01*
X133374846Y-67312000D01*
X133350000Y-67309553D01*
X133325154Y-67312000D01*
X94766854Y-67312000D01*
X94742000Y-67309552D01*
X94717146Y-67312000D01*
X94642807Y-67319322D01*
X94547425Y-67348255D01*
X94459521Y-67395241D01*
X94382473Y-67458473D01*
X94366628Y-67477780D01*
X92511167Y-69333242D01*
X92434069Y-69301307D01*
X92196243Y-69254000D01*
X91953757Y-69254000D01*
X91715931Y-69301307D01*
X91491903Y-69394102D01*
X91290283Y-69528820D01*
X91118820Y-69700283D01*
X90984102Y-69901903D01*
X90891307Y-70125931D01*
X90844000Y-70363757D01*
X90844000Y-70606243D01*
X90891307Y-70844069D01*
X90984102Y-71068097D01*
X91118820Y-71269717D01*
X91290283Y-71441180D01*
X91491903Y-71575898D01*
X91715931Y-71668693D01*
X91953757Y-71716000D01*
X92196243Y-71716000D01*
X92434069Y-71668693D01*
X92658097Y-71575898D01*
X92859717Y-71441180D01*
X93031180Y-71269717D01*
X93165898Y-71068097D01*
X93258693Y-70844069D01*
X93306000Y-70606243D01*
X93306000Y-70363757D01*
X93258693Y-70125931D01*
X93226758Y-70048833D01*
X94951592Y-68324000D01*
X96060408Y-68324000D01*
X95051167Y-69333242D01*
X94974069Y-69301307D01*
X94736243Y-69254000D01*
X94493757Y-69254000D01*
X94255931Y-69301307D01*
X94031903Y-69394102D01*
X93830283Y-69528820D01*
X93658820Y-69700283D01*
X93524102Y-69901903D01*
X93431307Y-70125931D01*
X93384000Y-70363757D01*
X93384000Y-70606243D01*
X93431307Y-70844069D01*
X93524102Y-71068097D01*
X93658820Y-71269717D01*
X93830283Y-71441180D01*
X94031903Y-71575898D01*
X94255931Y-71668693D01*
X94493757Y-71716000D01*
X94736243Y-71716000D01*
X94974069Y-71668693D01*
X95198097Y-71575898D01*
X95399717Y-71441180D01*
X95571180Y-71269717D01*
X95705898Y-71068097D01*
X95798693Y-70844069D01*
X95846000Y-70606243D01*
X95846000Y-70363757D01*
X95924000Y-70363757D01*
X95924000Y-70606243D01*
X95971307Y-70844069D01*
X96064102Y-71068097D01*
X96198820Y-71269717D01*
X96370283Y-71441180D01*
X96571903Y-71575898D01*
X96795931Y-71668693D01*
X97033757Y-71716000D01*
X97276243Y-71716000D01*
X97514069Y-71668693D01*
X97591167Y-71636758D01*
X97919001Y-71964593D01*
X97919001Y-72065433D01*
X97771961Y-71959761D01*
X97552288Y-71859866D01*
X97471980Y-71835511D01*
X97282000Y-71896373D01*
X97282000Y-72898000D01*
X97302000Y-72898000D01*
X97302000Y-73152000D01*
X97282000Y-73152000D01*
X97282000Y-74153627D01*
X97471980Y-74214489D01*
X97552288Y-74190134D01*
X97771961Y-74090239D01*
X97919000Y-73984568D01*
X97919000Y-74270154D01*
X97916553Y-74295000D01*
X97919000Y-74319846D01*
X97919000Y-74319853D01*
X97926322Y-74394192D01*
X97955255Y-74489574D01*
X98002241Y-74577479D01*
X98065473Y-74654527D01*
X98084785Y-74670376D01*
X100208628Y-76794220D01*
X100224473Y-76813527D01*
X100301521Y-76876759D01*
X100389425Y-76923745D01*
X100484807Y-76952678D01*
X100559146Y-76960000D01*
X100559153Y-76960000D01*
X100583999Y-76962447D01*
X100608845Y-76960000D01*
X108629409Y-76960000D01*
X126240001Y-94570593D01*
X126240000Y-137008154D01*
X126237553Y-137033000D01*
X126240000Y-137057846D01*
X126240000Y-137057853D01*
X126247322Y-137132192D01*
X126276255Y-137227574D01*
X126323241Y-137315479D01*
X126386473Y-137392527D01*
X126405785Y-137408376D01*
X131577628Y-142580220D01*
X131593473Y-142599527D01*
X131670521Y-142662759D01*
X131758425Y-142709745D01*
X131777360Y-142715489D01*
X131649761Y-142893039D01*
X131549866Y-143112712D01*
X131525511Y-143193020D01*
X131586373Y-143383000D01*
X132588000Y-143383000D01*
X132588000Y-143363000D01*
X132842000Y-143363000D01*
X132842000Y-143383000D01*
X133843627Y-143383000D01*
X133904489Y-143193020D01*
X133880134Y-143112712D01*
X133780239Y-142893039D01*
X133674568Y-142746000D01*
X133775409Y-142746000D01*
X134103242Y-143073833D01*
X134071307Y-143150931D01*
X134024000Y-143388757D01*
X134024000Y-143631243D01*
X134071307Y-143869069D01*
X134164102Y-144093097D01*
X134298820Y-144294717D01*
X134470283Y-144466180D01*
X134671903Y-144600898D01*
X134895931Y-144693693D01*
X135133757Y-144741000D01*
X135376243Y-144741000D01*
X135614069Y-144693693D01*
X135838097Y-144600898D01*
X136039717Y-144466180D01*
X136211180Y-144294717D01*
X136345898Y-144093097D01*
X136438693Y-143869069D01*
X136486000Y-143631243D01*
X136486000Y-143388757D01*
X136438693Y-143150931D01*
X136345898Y-142926903D01*
X136211180Y-142725283D01*
X136039717Y-142553820D01*
X135838097Y-142419102D01*
X135614069Y-142326307D01*
X135376243Y-142279000D01*
X135133757Y-142279000D01*
X134895931Y-142326307D01*
X134818833Y-142358242D01*
X134360376Y-141899785D01*
X134344527Y-141880473D01*
X134267479Y-141817241D01*
X134179575Y-141770255D01*
X134084193Y-141741322D01*
X134009854Y-141734000D01*
X134009846Y-141734000D01*
X133985000Y-141731553D01*
X133960154Y-141734000D01*
X133685023Y-141734000D01*
X133805898Y-141553097D01*
X133898693Y-141329069D01*
X133946000Y-141091243D01*
X133946000Y-140848757D01*
X134024000Y-140848757D01*
X134024000Y-141091243D01*
X134071307Y-141329069D01*
X134164102Y-141553097D01*
X134298820Y-141754717D01*
X134470283Y-141926180D01*
X134671903Y-142060898D01*
X134895931Y-142153693D01*
X135133757Y-142201000D01*
X135376243Y-142201000D01*
X135614069Y-142153693D01*
X135838097Y-142060898D01*
X136039717Y-141926180D01*
X136211180Y-141754717D01*
X136345898Y-141553097D01*
X136438693Y-141329069D01*
X136486000Y-141091243D01*
X136486000Y-140848757D01*
X136438693Y-140610931D01*
X136345898Y-140386903D01*
X136211180Y-140185283D01*
X136039717Y-140013820D01*
X135838097Y-139879102D01*
X135614069Y-139786307D01*
X135376243Y-139739000D01*
X135133757Y-139739000D01*
X134895931Y-139786307D01*
X134671903Y-139879102D01*
X134470283Y-140013820D01*
X134298820Y-140185283D01*
X134164102Y-140386903D01*
X134071307Y-140610931D01*
X134024000Y-140848757D01*
X133946000Y-140848757D01*
X133898693Y-140610931D01*
X133805898Y-140386903D01*
X133671180Y-140185283D01*
X133499717Y-140013820D01*
X133298097Y-139879102D01*
X133074069Y-139786307D01*
X132836243Y-139739000D01*
X132593757Y-139739000D01*
X132355931Y-139786307D01*
X132131903Y-139879102D01*
X131930283Y-140013820D01*
X131758820Y-140185283D01*
X131624102Y-140386903D01*
X131531307Y-140610931D01*
X131484000Y-140848757D01*
X131484000Y-141055408D01*
X128737349Y-138308757D01*
X131484000Y-138308757D01*
X131484000Y-138551243D01*
X131531307Y-138789069D01*
X131624102Y-139013097D01*
X131758820Y-139214717D01*
X131930283Y-139386180D01*
X132131903Y-139520898D01*
X132355931Y-139613693D01*
X132593757Y-139661000D01*
X132836243Y-139661000D01*
X133074069Y-139613693D01*
X133298097Y-139520898D01*
X133499717Y-139386180D01*
X133671180Y-139214717D01*
X133805898Y-139013097D01*
X133898693Y-138789069D01*
X133907065Y-138746980D01*
X134065511Y-138746980D01*
X134089866Y-138827288D01*
X134189761Y-139046961D01*
X134330592Y-139242924D01*
X134506948Y-139407647D01*
X134712051Y-139534799D01*
X134938019Y-139619495D01*
X135128000Y-139559187D01*
X135128000Y-138557000D01*
X135382000Y-138557000D01*
X135382000Y-139559187D01*
X135571981Y-139619495D01*
X135797949Y-139534799D01*
X136003052Y-139407647D01*
X136179408Y-139242924D01*
X136320239Y-139046961D01*
X136420134Y-138827288D01*
X136444489Y-138746980D01*
X136383627Y-138557000D01*
X135382000Y-138557000D01*
X135128000Y-138557000D01*
X134126373Y-138557000D01*
X134065511Y-138746980D01*
X133907065Y-138746980D01*
X133946000Y-138551243D01*
X133946000Y-138308757D01*
X133907066Y-138113020D01*
X134065511Y-138113020D01*
X134126373Y-138303000D01*
X135128000Y-138303000D01*
X135128000Y-137300813D01*
X135382000Y-137300813D01*
X135382000Y-138303000D01*
X136383627Y-138303000D01*
X136444489Y-138113020D01*
X136420134Y-138032712D01*
X136320239Y-137813039D01*
X136179408Y-137617076D01*
X136003052Y-137452353D01*
X135797949Y-137325201D01*
X135571981Y-137240505D01*
X135382000Y-137300813D01*
X135128000Y-137300813D01*
X134938019Y-137240505D01*
X134712051Y-137325201D01*
X134506948Y-137452353D01*
X134330592Y-137617076D01*
X134189761Y-137813039D01*
X134089866Y-138032712D01*
X134065511Y-138113020D01*
X133907066Y-138113020D01*
X133898693Y-138070931D01*
X133805898Y-137846903D01*
X133671180Y-137645283D01*
X133499717Y-137473820D01*
X133298097Y-137339102D01*
X133074069Y-137246307D01*
X132836243Y-137199000D01*
X132593757Y-137199000D01*
X132355931Y-137246307D01*
X132131903Y-137339102D01*
X131930283Y-137473820D01*
X131758820Y-137645283D01*
X131624102Y-137846903D01*
X131531307Y-138070931D01*
X131484000Y-138308757D01*
X128737349Y-138308757D01*
X127252000Y-136823409D01*
X127252000Y-135768757D01*
X131484000Y-135768757D01*
X131484000Y-136011243D01*
X131531307Y-136249069D01*
X131624102Y-136473097D01*
X131758820Y-136674717D01*
X131930283Y-136846180D01*
X132131903Y-136980898D01*
X132355931Y-137073693D01*
X132593757Y-137121000D01*
X132836243Y-137121000D01*
X133074069Y-137073693D01*
X133298097Y-136980898D01*
X133499717Y-136846180D01*
X133671180Y-136674717D01*
X133805898Y-136473097D01*
X133898693Y-136249069D01*
X133946000Y-136011243D01*
X133946000Y-135768757D01*
X133898693Y-135530931D01*
X133805898Y-135306903D01*
X133671180Y-135105283D01*
X133499717Y-134933820D01*
X133298097Y-134799102D01*
X133074069Y-134706307D01*
X132836243Y-134659000D01*
X132593757Y-134659000D01*
X132355931Y-134706307D01*
X132131903Y-134799102D01*
X131930283Y-134933820D01*
X131758820Y-135105283D01*
X131624102Y-135306903D01*
X131531307Y-135530931D01*
X131484000Y-135768757D01*
X127252000Y-135768757D01*
X127252000Y-94385845D01*
X127254447Y-94360999D01*
X127252000Y-94336153D01*
X127252000Y-94336146D01*
X127244678Y-94261807D01*
X127215745Y-94166425D01*
X127168759Y-94078521D01*
X127105527Y-94001473D01*
X127086220Y-93985628D01*
X109214376Y-76113785D01*
X109198527Y-76094473D01*
X109121479Y-76031241D01*
X109033575Y-75984255D01*
X108938193Y-75955322D01*
X108863854Y-75948000D01*
X108863846Y-75948000D01*
X108839000Y-75945553D01*
X108814154Y-75948000D01*
X100793592Y-75948000D01*
X98931000Y-74085409D01*
X98931000Y-73995023D01*
X99111903Y-74115898D01*
X99335931Y-74208693D01*
X99573757Y-74256000D01*
X99816243Y-74256000D01*
X100054069Y-74208693D01*
X100278097Y-74115898D01*
X100479717Y-73981180D01*
X100651180Y-73809717D01*
X100785898Y-73608097D01*
X100878693Y-73384069D01*
X100926000Y-73146243D01*
X100926000Y-72903757D01*
X101004000Y-72903757D01*
X101004000Y-73146243D01*
X101051307Y-73384069D01*
X101144102Y-73608097D01*
X101278820Y-73809717D01*
X101450283Y-73981180D01*
X101651903Y-74115898D01*
X101875931Y-74208693D01*
X102113757Y-74256000D01*
X102356243Y-74256000D01*
X102594069Y-74208693D01*
X102818097Y-74115898D01*
X103019717Y-73981180D01*
X103191180Y-73809717D01*
X103325898Y-73608097D01*
X103418693Y-73384069D01*
X103466000Y-73146243D01*
X103466000Y-72903757D01*
X103544000Y-72903757D01*
X103544000Y-73146243D01*
X103591307Y-73384069D01*
X103684102Y-73608097D01*
X103818820Y-73809717D01*
X103990283Y-73981180D01*
X104191903Y-74115898D01*
X104415931Y-74208693D01*
X104653757Y-74256000D01*
X104896243Y-74256000D01*
X105134069Y-74208693D01*
X105358097Y-74115898D01*
X105559717Y-73981180D01*
X105731180Y-73809717D01*
X105865898Y-73608097D01*
X105958693Y-73384069D01*
X106006000Y-73146243D01*
X106006000Y-72903757D01*
X105958693Y-72665931D01*
X105865898Y-72441903D01*
X105731180Y-72240283D01*
X105559717Y-72068820D01*
X105358097Y-71934102D01*
X105134069Y-71841307D01*
X104896243Y-71794000D01*
X104653757Y-71794000D01*
X104415931Y-71841307D01*
X104191903Y-71934102D01*
X103990283Y-72068820D01*
X103818820Y-72240283D01*
X103684102Y-72441903D01*
X103591307Y-72665931D01*
X103544000Y-72903757D01*
X103466000Y-72903757D01*
X103418693Y-72665931D01*
X103325898Y-72441903D01*
X103191180Y-72240283D01*
X103019717Y-72068820D01*
X102818097Y-71934102D01*
X102594069Y-71841307D01*
X102356243Y-71794000D01*
X102113757Y-71794000D01*
X101875931Y-71841307D01*
X101651903Y-71934102D01*
X101450283Y-72068820D01*
X101278820Y-72240283D01*
X101144102Y-72441903D01*
X101051307Y-72665931D01*
X101004000Y-72903757D01*
X100926000Y-72903757D01*
X100878693Y-72665931D01*
X100785898Y-72441903D01*
X100651180Y-72240283D01*
X100479717Y-72068820D01*
X100278097Y-71934102D01*
X100054069Y-71841307D01*
X99816243Y-71794000D01*
X99573757Y-71794000D01*
X99335931Y-71841307D01*
X99111903Y-71934102D01*
X98931000Y-72054977D01*
X98931000Y-71779845D01*
X98933447Y-71754999D01*
X98931000Y-71730153D01*
X98931000Y-71730146D01*
X98923678Y-71655807D01*
X98922925Y-71653322D01*
X98894745Y-71560425D01*
X98881168Y-71535025D01*
X98847759Y-71472521D01*
X98784527Y-71395473D01*
X98765220Y-71379628D01*
X98306758Y-70921167D01*
X98338693Y-70844069D01*
X98386000Y-70606243D01*
X98386000Y-70363757D01*
X98464000Y-70363757D01*
X98464000Y-70606243D01*
X98511307Y-70844069D01*
X98604102Y-71068097D01*
X98738820Y-71269717D01*
X98910283Y-71441180D01*
X99111903Y-71575898D01*
X99335931Y-71668693D01*
X99573757Y-71716000D01*
X99816243Y-71716000D01*
X100054069Y-71668693D01*
X100278097Y-71575898D01*
X100479717Y-71441180D01*
X100651180Y-71269717D01*
X100785898Y-71068097D01*
X100878693Y-70844069D01*
X100887064Y-70801981D01*
X101045505Y-70801981D01*
X101130201Y-71027949D01*
X101257353Y-71233052D01*
X101422076Y-71409408D01*
X101618039Y-71550239D01*
X101837712Y-71650134D01*
X101918020Y-71674489D01*
X102108000Y-71613627D01*
X102108000Y-70612000D01*
X102362000Y-70612000D01*
X102362000Y-71613627D01*
X102551980Y-71674489D01*
X102632288Y-71650134D01*
X102851961Y-71550239D01*
X103047924Y-71409408D01*
X103212647Y-71233052D01*
X103339799Y-71027949D01*
X103424495Y-70801981D01*
X103364187Y-70612000D01*
X102362000Y-70612000D01*
X102108000Y-70612000D01*
X101105813Y-70612000D01*
X101045505Y-70801981D01*
X100887064Y-70801981D01*
X100926000Y-70606243D01*
X100926000Y-70363757D01*
X100887065Y-70168019D01*
X101045505Y-70168019D01*
X101105813Y-70358000D01*
X102108000Y-70358000D01*
X102108000Y-69356373D01*
X102362000Y-69356373D01*
X102362000Y-70358000D01*
X103364187Y-70358000D01*
X103424495Y-70168019D01*
X103339799Y-69942051D01*
X103212647Y-69736948D01*
X103047924Y-69560592D01*
X102851961Y-69419761D01*
X102632288Y-69319866D01*
X102551980Y-69295511D01*
X102362000Y-69356373D01*
X102108000Y-69356373D01*
X101918020Y-69295511D01*
X101837712Y-69319866D01*
X101618039Y-69419761D01*
X101422076Y-69560592D01*
X101257353Y-69736948D01*
X101130201Y-69942051D01*
X101045505Y-70168019D01*
X100887065Y-70168019D01*
X100878693Y-70125931D01*
X100785898Y-69901903D01*
X100651180Y-69700283D01*
X100479717Y-69528820D01*
X100278097Y-69394102D01*
X100054069Y-69301307D01*
X99816243Y-69254000D01*
X99573757Y-69254000D01*
X99335931Y-69301307D01*
X99111903Y-69394102D01*
X98910283Y-69528820D01*
X98738820Y-69700283D01*
X98604102Y-69901903D01*
X98511307Y-70125931D01*
X98464000Y-70363757D01*
X98386000Y-70363757D01*
X98338693Y-70125931D01*
X98245898Y-69901903D01*
X98111180Y-69700283D01*
X97939717Y-69528820D01*
X97738097Y-69394102D01*
X97514069Y-69301307D01*
X97276243Y-69254000D01*
X97033757Y-69254000D01*
X96795931Y-69301307D01*
X96571903Y-69394102D01*
X96370283Y-69528820D01*
X96198820Y-69700283D01*
X96064102Y-69901903D01*
X95971307Y-70125931D01*
X95924000Y-70363757D01*
X95846000Y-70363757D01*
X95798693Y-70125931D01*
X95766758Y-70048833D01*
X97041581Y-68774011D01*
X105770397Y-68774011D01*
X105211167Y-69333242D01*
X105134069Y-69301307D01*
X104896243Y-69254000D01*
X104653757Y-69254000D01*
X104415931Y-69301307D01*
X104191903Y-69394102D01*
X103990283Y-69528820D01*
X103818820Y-69700283D01*
X103684102Y-69901903D01*
X103591307Y-70125931D01*
X103544000Y-70363757D01*
X103544000Y-70606243D01*
X103591307Y-70844069D01*
X103684102Y-71068097D01*
X103818820Y-71269717D01*
X103990283Y-71441180D01*
X104191903Y-71575898D01*
X104415931Y-71668693D01*
X104653757Y-71716000D01*
X104896243Y-71716000D01*
X105134069Y-71668693D01*
X105358097Y-71575898D01*
X105559717Y-71441180D01*
X105731180Y-71269717D01*
X105865898Y-71068097D01*
X105958693Y-70844069D01*
X106006000Y-70606243D01*
X106006000Y-70363757D01*
X106084000Y-70363757D01*
X106084000Y-70606243D01*
X106131307Y-70844069D01*
X106224102Y-71068097D01*
X106358820Y-71269717D01*
X106530283Y-71441180D01*
X106731903Y-71575898D01*
X106955931Y-71668693D01*
X107193757Y-71716000D01*
X107436243Y-71716000D01*
X107674069Y-71668693D01*
X107751167Y-71636758D01*
X108079001Y-71964593D01*
X108079001Y-72054978D01*
X107898097Y-71934102D01*
X107674069Y-71841307D01*
X107436243Y-71794000D01*
X107193757Y-71794000D01*
X106955931Y-71841307D01*
X106731903Y-71934102D01*
X106530283Y-72068820D01*
X106358820Y-72240283D01*
X106224102Y-72441903D01*
X106131307Y-72665931D01*
X106084000Y-72903757D01*
X106084000Y-73146243D01*
X106131307Y-73384069D01*
X106224102Y-73608097D01*
X106358820Y-73809717D01*
X106530283Y-73981180D01*
X106731903Y-74115898D01*
X106955931Y-74208693D01*
X107193757Y-74256000D01*
X107436243Y-74256000D01*
X107674069Y-74208693D01*
X107898097Y-74115898D01*
X108099717Y-73981180D01*
X108226514Y-73854383D01*
X108244785Y-73869378D01*
X127383001Y-93007595D01*
X127383000Y-129769154D01*
X127380553Y-129794000D01*
X127383000Y-129818846D01*
X127383000Y-129818853D01*
X127390322Y-129893192D01*
X127419255Y-129988574D01*
X127466241Y-130076479D01*
X127529473Y-130153527D01*
X127548785Y-130169376D01*
X129799628Y-132420220D01*
X129815473Y-132439527D01*
X129892521Y-132502759D01*
X129980425Y-132549745D01*
X130075806Y-132578678D01*
X130085694Y-132579652D01*
X130150146Y-132586000D01*
X130150153Y-132586000D01*
X130174999Y-132588447D01*
X130199845Y-132586000D01*
X131744977Y-132586000D01*
X131624102Y-132766903D01*
X131531307Y-132990931D01*
X131484000Y-133228757D01*
X131484000Y-133471243D01*
X131531307Y-133709069D01*
X131624102Y-133933097D01*
X131758820Y-134134717D01*
X131930283Y-134306180D01*
X132131903Y-134440898D01*
X132355931Y-134533693D01*
X132593757Y-134581000D01*
X132836243Y-134581000D01*
X133074069Y-134533693D01*
X133298097Y-134440898D01*
X133499717Y-134306180D01*
X133671180Y-134134717D01*
X133805898Y-133933097D01*
X133898693Y-133709069D01*
X133946000Y-133471243D01*
X133946000Y-133228757D01*
X133898693Y-132990931D01*
X133805898Y-132766903D01*
X133685023Y-132586000D01*
X133775409Y-132586000D01*
X134103242Y-132913833D01*
X134071307Y-132990931D01*
X134024000Y-133228757D01*
X134024000Y-133471243D01*
X134071307Y-133709069D01*
X134164102Y-133933097D01*
X134298820Y-134134717D01*
X134470283Y-134306180D01*
X134671903Y-134440898D01*
X134895931Y-134533693D01*
X135133757Y-134581000D01*
X135376243Y-134581000D01*
X135614069Y-134533693D01*
X135838097Y-134440898D01*
X136039717Y-134306180D01*
X136211180Y-134134717D01*
X136345898Y-133933097D01*
X136438693Y-133709069D01*
X136486000Y-133471243D01*
X136486000Y-133228757D01*
X136438693Y-132990931D01*
X136345898Y-132766903D01*
X136211180Y-132565283D01*
X136039717Y-132393820D01*
X135838097Y-132259102D01*
X135614069Y-132166307D01*
X135376243Y-132119000D01*
X135133757Y-132119000D01*
X134895931Y-132166307D01*
X134818833Y-132198242D01*
X134360376Y-131739785D01*
X134344527Y-131720473D01*
X134267479Y-131657241D01*
X134179575Y-131610255D01*
X134084193Y-131581322D01*
X134009854Y-131574000D01*
X134009846Y-131574000D01*
X133985000Y-131571553D01*
X133960154Y-131574000D01*
X133685023Y-131574000D01*
X133805898Y-131393097D01*
X133898693Y-131169069D01*
X133946000Y-130931243D01*
X133946000Y-130688757D01*
X133898693Y-130450931D01*
X133805898Y-130226903D01*
X133671180Y-130025283D01*
X133499717Y-129853820D01*
X133298097Y-129719102D01*
X133074069Y-129626307D01*
X132836243Y-129579000D01*
X132593757Y-129579000D01*
X132355931Y-129626307D01*
X132131903Y-129719102D01*
X131930283Y-129853820D01*
X131758820Y-130025283D01*
X131624102Y-130226903D01*
X131531307Y-130450931D01*
X131484000Y-130688757D01*
X131484000Y-130931243D01*
X131531307Y-131169069D01*
X131624102Y-131393097D01*
X131744977Y-131574000D01*
X130384592Y-131574000D01*
X128395000Y-129584409D01*
X128395000Y-92822856D01*
X128397448Y-92798002D01*
X128387678Y-92698809D01*
X128358745Y-92603427D01*
X128322318Y-92535278D01*
X128311759Y-92515523D01*
X128248527Y-92438475D01*
X128229220Y-92422630D01*
X110048263Y-74241674D01*
X110214069Y-74208693D01*
X110438097Y-74115898D01*
X110619000Y-73995023D01*
X110619000Y-74193954D01*
X110616553Y-74218800D01*
X110619000Y-74243646D01*
X110619000Y-74243653D01*
X110626322Y-74317992D01*
X110655255Y-74413374D01*
X110702241Y-74501279D01*
X110765473Y-74578327D01*
X110784785Y-74594176D01*
X128653001Y-92462393D01*
X128653000Y-125959154D01*
X128650553Y-125984000D01*
X128653000Y-126008846D01*
X128653000Y-126008853D01*
X128660322Y-126083192D01*
X128689255Y-126178574D01*
X128736241Y-126266479D01*
X128799473Y-126343527D01*
X128818785Y-126359376D01*
X129799628Y-127340220D01*
X129815473Y-127359527D01*
X129892521Y-127422759D01*
X129980425Y-127469745D01*
X130075807Y-127498678D01*
X130150146Y-127506000D01*
X130150154Y-127506000D01*
X130175000Y-127508447D01*
X130199846Y-127506000D01*
X131744977Y-127506000D01*
X131624102Y-127686903D01*
X131531307Y-127910931D01*
X131484000Y-128148757D01*
X131484000Y-128391243D01*
X131531307Y-128629069D01*
X131624102Y-128853097D01*
X131758820Y-129054717D01*
X131930283Y-129226180D01*
X132131903Y-129360898D01*
X132355931Y-129453693D01*
X132593757Y-129501000D01*
X132836243Y-129501000D01*
X133074069Y-129453693D01*
X133298097Y-129360898D01*
X133479000Y-129240023D01*
X133479000Y-129515154D01*
X133476553Y-129540000D01*
X133479000Y-129564846D01*
X133479000Y-129564853D01*
X133486322Y-129639192D01*
X133515255Y-129734574D01*
X133562241Y-129822479D01*
X133625473Y-129899527D01*
X133644785Y-129915376D01*
X134103242Y-130373833D01*
X134071307Y-130450931D01*
X134024000Y-130688757D01*
X134024000Y-130931243D01*
X134071307Y-131169069D01*
X134164102Y-131393097D01*
X134298820Y-131594717D01*
X134470283Y-131766180D01*
X134671903Y-131900898D01*
X134895931Y-131993693D01*
X135133757Y-132041000D01*
X135376243Y-132041000D01*
X135614069Y-131993693D01*
X135838097Y-131900898D01*
X136039717Y-131766180D01*
X136211180Y-131594717D01*
X136345898Y-131393097D01*
X136438693Y-131169069D01*
X136486000Y-130931243D01*
X136486000Y-130688757D01*
X136438693Y-130450931D01*
X136345898Y-130226903D01*
X136211180Y-130025283D01*
X136039717Y-129853820D01*
X135838097Y-129719102D01*
X135614069Y-129626307D01*
X135376243Y-129579000D01*
X135133757Y-129579000D01*
X134895931Y-129626307D01*
X134818833Y-129658242D01*
X134491000Y-129330409D01*
X134491000Y-129240023D01*
X134671903Y-129360898D01*
X134895931Y-129453693D01*
X135133757Y-129501000D01*
X135376243Y-129501000D01*
X135614069Y-129453693D01*
X135838097Y-129360898D01*
X136039717Y-129226180D01*
X136211180Y-129054717D01*
X136345898Y-128853097D01*
X136438693Y-128629069D01*
X136486000Y-128391243D01*
X136486000Y-128148757D01*
X136438693Y-127910931D01*
X136345898Y-127686903D01*
X136211180Y-127485283D01*
X136039717Y-127313820D01*
X135838097Y-127179102D01*
X135614069Y-127086307D01*
X135376243Y-127039000D01*
X135133757Y-127039000D01*
X134895931Y-127086307D01*
X134671903Y-127179102D01*
X134470283Y-127313820D01*
X134458453Y-127325650D01*
X134454745Y-127313425D01*
X134407759Y-127225521D01*
X134344527Y-127148473D01*
X134325220Y-127132628D01*
X133852376Y-126659785D01*
X133836527Y-126640473D01*
X133759479Y-126577241D01*
X133671575Y-126530255D01*
X133659350Y-126526547D01*
X133671180Y-126514717D01*
X133805898Y-126313097D01*
X133898693Y-126089069D01*
X133946000Y-125851243D01*
X133946000Y-125608757D01*
X134024000Y-125608757D01*
X134024000Y-125851243D01*
X134071307Y-126089069D01*
X134164102Y-126313097D01*
X134298820Y-126514717D01*
X134470283Y-126686180D01*
X134671903Y-126820898D01*
X134895931Y-126913693D01*
X135133757Y-126961000D01*
X135376243Y-126961000D01*
X135614069Y-126913693D01*
X135838097Y-126820898D01*
X136039717Y-126686180D01*
X136211180Y-126514717D01*
X136345898Y-126313097D01*
X136438693Y-126089069D01*
X136486000Y-125851243D01*
X136486000Y-125608757D01*
X136438693Y-125370931D01*
X136345898Y-125146903D01*
X136211180Y-124945283D01*
X136039717Y-124773820D01*
X135838097Y-124639102D01*
X135614069Y-124546307D01*
X135376243Y-124499000D01*
X135133757Y-124499000D01*
X134895931Y-124546307D01*
X134671903Y-124639102D01*
X134470283Y-124773820D01*
X134298820Y-124945283D01*
X134164102Y-125146903D01*
X134071307Y-125370931D01*
X134024000Y-125608757D01*
X133946000Y-125608757D01*
X133898693Y-125370931D01*
X133805898Y-125146903D01*
X133671180Y-124945283D01*
X133499717Y-124773820D01*
X133298097Y-124639102D01*
X133074069Y-124546307D01*
X132836243Y-124499000D01*
X132593757Y-124499000D01*
X132355931Y-124546307D01*
X132131903Y-124639102D01*
X131930283Y-124773820D01*
X131758820Y-124945283D01*
X131624102Y-125146903D01*
X131531307Y-125370931D01*
X131484000Y-125608757D01*
X131484000Y-125851243D01*
X131531307Y-126089069D01*
X131624102Y-126313097D01*
X131744977Y-126494000D01*
X130384592Y-126494000D01*
X129665000Y-125774409D01*
X129665000Y-123506980D01*
X131525511Y-123506980D01*
X131549866Y-123587288D01*
X131649761Y-123806961D01*
X131790592Y-124002924D01*
X131966948Y-124167647D01*
X132172051Y-124294799D01*
X132398019Y-124379495D01*
X132588000Y-124319187D01*
X132588000Y-123317000D01*
X132842000Y-123317000D01*
X132842000Y-124319187D01*
X133031981Y-124379495D01*
X133257949Y-124294799D01*
X133463052Y-124167647D01*
X133639408Y-124002924D01*
X133780239Y-123806961D01*
X133880134Y-123587288D01*
X133904489Y-123506980D01*
X133843627Y-123317000D01*
X132842000Y-123317000D01*
X132588000Y-123317000D01*
X131586373Y-123317000D01*
X131525511Y-123506980D01*
X129665000Y-123506980D01*
X129665000Y-123068757D01*
X134024000Y-123068757D01*
X134024000Y-123311243D01*
X134071307Y-123549069D01*
X134164102Y-123773097D01*
X134298820Y-123974717D01*
X134470283Y-124146180D01*
X134671903Y-124280898D01*
X134895931Y-124373693D01*
X135133757Y-124421000D01*
X135376243Y-124421000D01*
X135614069Y-124373693D01*
X135838097Y-124280898D01*
X136039717Y-124146180D01*
X136211180Y-123974717D01*
X136345898Y-123773097D01*
X136438693Y-123549069D01*
X136486000Y-123311243D01*
X136486000Y-123068757D01*
X136438693Y-122830931D01*
X136345898Y-122606903D01*
X136211180Y-122405283D01*
X136039717Y-122233820D01*
X135838097Y-122099102D01*
X135614069Y-122006307D01*
X135376243Y-121959000D01*
X135133757Y-121959000D01*
X134895931Y-122006307D01*
X134671903Y-122099102D01*
X134470283Y-122233820D01*
X134298820Y-122405283D01*
X134164102Y-122606903D01*
X134071307Y-122830931D01*
X134024000Y-123068757D01*
X129665000Y-123068757D01*
X129665000Y-122873020D01*
X131525511Y-122873020D01*
X131586373Y-123063000D01*
X132588000Y-123063000D01*
X132588000Y-122060813D01*
X132842000Y-122060813D01*
X132842000Y-123063000D01*
X133843627Y-123063000D01*
X133904489Y-122873020D01*
X133880134Y-122792712D01*
X133780239Y-122573039D01*
X133639408Y-122377076D01*
X133463052Y-122212353D01*
X133257949Y-122085201D01*
X133031981Y-122000505D01*
X132842000Y-122060813D01*
X132588000Y-122060813D01*
X132398019Y-122000505D01*
X132172051Y-122085201D01*
X131966948Y-122212353D01*
X131790592Y-122377076D01*
X131649761Y-122573039D01*
X131549866Y-122792712D01*
X131525511Y-122873020D01*
X129665000Y-122873020D01*
X129665000Y-92277645D01*
X129667447Y-92252799D01*
X129665000Y-92227953D01*
X129665000Y-92227946D01*
X129657678Y-92153607D01*
X129628745Y-92058225D01*
X129581759Y-91970321D01*
X129518527Y-91893273D01*
X129499220Y-91877428D01*
X111631000Y-74009209D01*
X111631000Y-73995023D01*
X111811903Y-74115898D01*
X112035931Y-74208693D01*
X112273757Y-74256000D01*
X112516243Y-74256000D01*
X112754069Y-74208693D01*
X112978097Y-74115898D01*
X113179717Y-73981180D01*
X113351180Y-73809717D01*
X113485898Y-73608097D01*
X113578693Y-73384069D01*
X113626000Y-73146243D01*
X113626000Y-72903757D01*
X113704000Y-72903757D01*
X113704000Y-73146243D01*
X113751307Y-73384069D01*
X113844102Y-73608097D01*
X113978820Y-73809717D01*
X114150283Y-73981180D01*
X114351903Y-74115898D01*
X114575931Y-74208693D01*
X114813757Y-74256000D01*
X115056243Y-74256000D01*
X115294069Y-74208693D01*
X115518097Y-74115898D01*
X115719717Y-73981180D01*
X115891180Y-73809717D01*
X116025898Y-73608097D01*
X116118693Y-73384069D01*
X116127064Y-73341981D01*
X116285505Y-73341981D01*
X116370201Y-73567949D01*
X116497353Y-73773052D01*
X116662076Y-73949408D01*
X116858039Y-74090239D01*
X117077712Y-74190134D01*
X117158020Y-74214489D01*
X117348000Y-74153627D01*
X117348000Y-73152000D01*
X116345813Y-73152000D01*
X116285505Y-73341981D01*
X116127064Y-73341981D01*
X116166000Y-73146243D01*
X116166000Y-72903757D01*
X116127065Y-72708019D01*
X116285505Y-72708019D01*
X116345813Y-72898000D01*
X117348000Y-72898000D01*
X117348000Y-71896373D01*
X117602000Y-71896373D01*
X117602000Y-72898000D01*
X117622000Y-72898000D01*
X117622000Y-73152000D01*
X117602000Y-73152000D01*
X117602000Y-74153627D01*
X117791980Y-74214489D01*
X117872288Y-74190134D01*
X118091961Y-74090239D01*
X118239000Y-73984568D01*
X118239000Y-74397154D01*
X118236553Y-74422000D01*
X118239000Y-74446846D01*
X118239000Y-74446853D01*
X118246322Y-74521192D01*
X118275255Y-74616574D01*
X118322241Y-74704479D01*
X118385473Y-74781527D01*
X118404785Y-74797376D01*
X129669001Y-86061593D01*
X129669000Y-118085154D01*
X129666553Y-118110000D01*
X129669000Y-118134846D01*
X129669000Y-118134853D01*
X129676322Y-118209192D01*
X129705255Y-118304574D01*
X129752241Y-118392479D01*
X129815473Y-118469527D01*
X129834785Y-118485376D01*
X131069628Y-119720220D01*
X131085473Y-119739527D01*
X131162521Y-119802759D01*
X131250425Y-119849745D01*
X131345806Y-119878678D01*
X131355694Y-119879652D01*
X131420146Y-119886000D01*
X131420153Y-119886000D01*
X131444999Y-119888447D01*
X131469845Y-119886000D01*
X131744977Y-119886000D01*
X131624102Y-120066903D01*
X131531307Y-120290931D01*
X131484000Y-120528757D01*
X131484000Y-120771243D01*
X131531307Y-121009069D01*
X131624102Y-121233097D01*
X131758820Y-121434717D01*
X131930283Y-121606180D01*
X132131903Y-121740898D01*
X132355931Y-121833693D01*
X132593757Y-121881000D01*
X132836243Y-121881000D01*
X133074069Y-121833693D01*
X133298097Y-121740898D01*
X133499717Y-121606180D01*
X133671180Y-121434717D01*
X133805898Y-121233097D01*
X133898693Y-121009069D01*
X133946000Y-120771243D01*
X133946000Y-120528757D01*
X133898693Y-120290931D01*
X133805898Y-120066903D01*
X133685023Y-119886000D01*
X133775409Y-119886000D01*
X134103242Y-120213833D01*
X134071307Y-120290931D01*
X134024000Y-120528757D01*
X134024000Y-120771243D01*
X134071307Y-121009069D01*
X134164102Y-121233097D01*
X134298820Y-121434717D01*
X134470283Y-121606180D01*
X134671903Y-121740898D01*
X134895931Y-121833693D01*
X135133757Y-121881000D01*
X135376243Y-121881000D01*
X135614069Y-121833693D01*
X135838097Y-121740898D01*
X136039717Y-121606180D01*
X136211180Y-121434717D01*
X136345898Y-121233097D01*
X136438693Y-121009069D01*
X136486000Y-120771243D01*
X136486000Y-120528757D01*
X136438693Y-120290931D01*
X136345898Y-120066903D01*
X136211180Y-119865283D01*
X136039717Y-119693820D01*
X135838097Y-119559102D01*
X135614069Y-119466307D01*
X135376243Y-119419000D01*
X135133757Y-119419000D01*
X134895931Y-119466307D01*
X134818833Y-119498242D01*
X134360376Y-119039785D01*
X134344527Y-119020473D01*
X134267479Y-118957241D01*
X134179575Y-118910255D01*
X134084193Y-118881322D01*
X134009854Y-118874000D01*
X134009846Y-118874000D01*
X133985000Y-118871553D01*
X133960154Y-118874000D01*
X133685023Y-118874000D01*
X133805898Y-118693097D01*
X133898693Y-118469069D01*
X133907065Y-118426980D01*
X134065511Y-118426980D01*
X134089866Y-118507288D01*
X134189761Y-118726961D01*
X134330592Y-118922924D01*
X134506948Y-119087647D01*
X134712051Y-119214799D01*
X134938019Y-119299495D01*
X135128000Y-119239187D01*
X135128000Y-118237000D01*
X135382000Y-118237000D01*
X135382000Y-119239187D01*
X135571981Y-119299495D01*
X135797949Y-119214799D01*
X136003052Y-119087647D01*
X136179408Y-118922924D01*
X136320239Y-118726961D01*
X136420134Y-118507288D01*
X136444489Y-118426980D01*
X136383627Y-118237000D01*
X135382000Y-118237000D01*
X135128000Y-118237000D01*
X134126373Y-118237000D01*
X134065511Y-118426980D01*
X133907065Y-118426980D01*
X133946000Y-118231243D01*
X133946000Y-117988757D01*
X133907066Y-117793020D01*
X134065511Y-117793020D01*
X134126373Y-117983000D01*
X135128000Y-117983000D01*
X135128000Y-116980813D01*
X135382000Y-116980813D01*
X135382000Y-117983000D01*
X136383627Y-117983000D01*
X136444489Y-117793020D01*
X136420134Y-117712712D01*
X136320239Y-117493039D01*
X136179408Y-117297076D01*
X136003052Y-117132353D01*
X135797949Y-117005201D01*
X135571981Y-116920505D01*
X135382000Y-116980813D01*
X135128000Y-116980813D01*
X134938019Y-116920505D01*
X134712051Y-117005201D01*
X134506948Y-117132353D01*
X134330592Y-117297076D01*
X134189761Y-117493039D01*
X134089866Y-117712712D01*
X134065511Y-117793020D01*
X133907066Y-117793020D01*
X133898693Y-117750931D01*
X133805898Y-117526903D01*
X133671180Y-117325283D01*
X133499717Y-117153820D01*
X133298097Y-117019102D01*
X133074069Y-116926307D01*
X132836243Y-116879000D01*
X132593757Y-116879000D01*
X132355931Y-116926307D01*
X132131903Y-117019102D01*
X131930283Y-117153820D01*
X131758820Y-117325283D01*
X131624102Y-117526903D01*
X131531307Y-117750931D01*
X131484000Y-117988757D01*
X131484000Y-118231243D01*
X131531307Y-118469069D01*
X131624102Y-118693097D01*
X131744977Y-118874000D01*
X131654592Y-118874000D01*
X130681000Y-117900409D01*
X130681000Y-85876845D01*
X130683447Y-85851999D01*
X130681000Y-85827153D01*
X130681000Y-85827146D01*
X130673678Y-85752807D01*
X130644745Y-85657425D01*
X130597759Y-85569521D01*
X130534527Y-85492473D01*
X130515220Y-85476628D01*
X119251000Y-74212409D01*
X119251000Y-73995023D01*
X119431903Y-74115898D01*
X119655931Y-74208693D01*
X119893757Y-74256000D01*
X120136243Y-74256000D01*
X120374069Y-74208693D01*
X120598097Y-74115898D01*
X120799717Y-73981180D01*
X120971180Y-73809717D01*
X121105898Y-73608097D01*
X121198693Y-73384069D01*
X121246000Y-73146243D01*
X121246000Y-72903757D01*
X121198693Y-72665931D01*
X121105898Y-72441903D01*
X120971180Y-72240283D01*
X120799717Y-72068820D01*
X120598097Y-71934102D01*
X120374069Y-71841307D01*
X120136243Y-71794000D01*
X119893757Y-71794000D01*
X119655931Y-71841307D01*
X119431903Y-71934102D01*
X119251000Y-72054977D01*
X119251000Y-71964591D01*
X119540371Y-71675221D01*
X119540375Y-71675216D01*
X119578833Y-71636758D01*
X119655931Y-71668693D01*
X119893757Y-71716000D01*
X120136243Y-71716000D01*
X120374069Y-71668693D01*
X120598097Y-71575898D01*
X120799717Y-71441180D01*
X120971180Y-71269717D01*
X121105898Y-71068097D01*
X121198693Y-70844069D01*
X121207064Y-70801981D01*
X121365505Y-70801981D01*
X121450201Y-71027949D01*
X121577353Y-71233052D01*
X121742076Y-71409408D01*
X121938039Y-71550239D01*
X122157712Y-71650134D01*
X122238020Y-71674489D01*
X122428000Y-71613627D01*
X122428000Y-70612000D01*
X122682000Y-70612000D01*
X122682000Y-71613627D01*
X122871980Y-71674489D01*
X122952288Y-71650134D01*
X123171961Y-71550239D01*
X123367924Y-71409408D01*
X123532647Y-71233052D01*
X123659799Y-71027949D01*
X123744495Y-70801981D01*
X123684187Y-70612000D01*
X122682000Y-70612000D01*
X122428000Y-70612000D01*
X121425813Y-70612000D01*
X121365505Y-70801981D01*
X121207064Y-70801981D01*
X121246000Y-70606243D01*
X121246000Y-70363757D01*
X121207065Y-70168019D01*
X121365505Y-70168019D01*
X121425813Y-70358000D01*
X122428000Y-70358000D01*
X122428000Y-69356373D01*
X122682000Y-69356373D01*
X122682000Y-70358000D01*
X123684187Y-70358000D01*
X123744495Y-70168019D01*
X123659799Y-69942051D01*
X123532647Y-69736948D01*
X123367924Y-69560592D01*
X123171961Y-69419761D01*
X122952288Y-69319866D01*
X122871980Y-69295511D01*
X122682000Y-69356373D01*
X122428000Y-69356373D01*
X122238020Y-69295511D01*
X122157712Y-69319866D01*
X121938039Y-69419761D01*
X121742076Y-69560592D01*
X121577353Y-69736948D01*
X121450201Y-69942051D01*
X121365505Y-70168019D01*
X121207065Y-70168019D01*
X121198693Y-70125931D01*
X121105898Y-69901903D01*
X120971180Y-69700283D01*
X120799717Y-69528820D01*
X120598097Y-69394102D01*
X120374069Y-69301307D01*
X120136243Y-69254000D01*
X119893757Y-69254000D01*
X119655931Y-69301307D01*
X119431903Y-69394102D01*
X119230283Y-69528820D01*
X119058820Y-69700283D01*
X118924102Y-69901903D01*
X118831307Y-70125931D01*
X118784000Y-70363757D01*
X118784000Y-70606243D01*
X118831307Y-70844069D01*
X118863242Y-70921167D01*
X118824784Y-70959625D01*
X118824779Y-70959629D01*
X118404780Y-71379629D01*
X118385474Y-71395473D01*
X118322242Y-71472521D01*
X118302409Y-71509625D01*
X118275255Y-71560426D01*
X118246322Y-71655808D01*
X118236553Y-71755000D01*
X118239001Y-71779856D01*
X118239001Y-72065433D01*
X118091961Y-71959761D01*
X117872288Y-71859866D01*
X117791980Y-71835511D01*
X117602000Y-71896373D01*
X117348000Y-71896373D01*
X117158020Y-71835511D01*
X117077712Y-71859866D01*
X116858039Y-71959761D01*
X116662076Y-72100592D01*
X116497353Y-72276948D01*
X116370201Y-72482051D01*
X116285505Y-72708019D01*
X116127065Y-72708019D01*
X116118693Y-72665931D01*
X116025898Y-72441903D01*
X115891180Y-72240283D01*
X115719717Y-72068820D01*
X115518097Y-71934102D01*
X115294069Y-71841307D01*
X115056243Y-71794000D01*
X114813757Y-71794000D01*
X114575931Y-71841307D01*
X114351903Y-71934102D01*
X114150283Y-72068820D01*
X113978820Y-72240283D01*
X113844102Y-72441903D01*
X113751307Y-72665931D01*
X113704000Y-72903757D01*
X113626000Y-72903757D01*
X113578693Y-72665931D01*
X113485898Y-72441903D01*
X113351180Y-72240283D01*
X113179717Y-72068820D01*
X112978097Y-71934102D01*
X112754069Y-71841307D01*
X112516243Y-71794000D01*
X112273757Y-71794000D01*
X112035931Y-71841307D01*
X111811903Y-71934102D01*
X111631000Y-72054977D01*
X111631000Y-71779845D01*
X111633447Y-71754999D01*
X111631000Y-71730153D01*
X111631000Y-71730146D01*
X111623678Y-71655807D01*
X111622925Y-71653322D01*
X111594745Y-71560425D01*
X111581168Y-71535025D01*
X111547759Y-71472521D01*
X111484527Y-71395473D01*
X111465220Y-71379628D01*
X111006758Y-70921167D01*
X111038693Y-70844069D01*
X111086000Y-70606243D01*
X111086000Y-70363757D01*
X111164000Y-70363757D01*
X111164000Y-70606243D01*
X111211307Y-70844069D01*
X111304102Y-71068097D01*
X111438820Y-71269717D01*
X111610283Y-71441180D01*
X111811903Y-71575898D01*
X112035931Y-71668693D01*
X112273757Y-71716000D01*
X112516243Y-71716000D01*
X112754069Y-71668693D01*
X112978097Y-71575898D01*
X113179717Y-71441180D01*
X113351180Y-71269717D01*
X113485898Y-71068097D01*
X113578693Y-70844069D01*
X113626000Y-70606243D01*
X113626000Y-70363757D01*
X113704000Y-70363757D01*
X113704000Y-70606243D01*
X113751307Y-70844069D01*
X113844102Y-71068097D01*
X113978820Y-71269717D01*
X114150283Y-71441180D01*
X114351903Y-71575898D01*
X114575931Y-71668693D01*
X114813757Y-71716000D01*
X115056243Y-71716000D01*
X115294069Y-71668693D01*
X115518097Y-71575898D01*
X115719717Y-71441180D01*
X115891180Y-71269717D01*
X116025898Y-71068097D01*
X116118693Y-70844069D01*
X116166000Y-70606243D01*
X116166000Y-70363757D01*
X116244000Y-70363757D01*
X116244000Y-70606243D01*
X116291307Y-70844069D01*
X116384102Y-71068097D01*
X116518820Y-71269717D01*
X116690283Y-71441180D01*
X116891903Y-71575898D01*
X117115931Y-71668693D01*
X117353757Y-71716000D01*
X117596243Y-71716000D01*
X117834069Y-71668693D01*
X118058097Y-71575898D01*
X118259717Y-71441180D01*
X118431180Y-71269717D01*
X118565898Y-71068097D01*
X118658693Y-70844069D01*
X118706000Y-70606243D01*
X118706000Y-70363757D01*
X118658693Y-70125931D01*
X118565898Y-69901903D01*
X118431180Y-69700283D01*
X118259717Y-69528820D01*
X118058097Y-69394102D01*
X117834069Y-69301307D01*
X117596243Y-69254000D01*
X117353757Y-69254000D01*
X117115931Y-69301307D01*
X116891903Y-69394102D01*
X116690283Y-69528820D01*
X116518820Y-69700283D01*
X116384102Y-69901903D01*
X116291307Y-70125931D01*
X116244000Y-70363757D01*
X116166000Y-70363757D01*
X116118693Y-70125931D01*
X116025898Y-69901903D01*
X115891180Y-69700283D01*
X115719717Y-69528820D01*
X115518097Y-69394102D01*
X115294069Y-69301307D01*
X115056243Y-69254000D01*
X114813757Y-69254000D01*
X114575931Y-69301307D01*
X114351903Y-69394102D01*
X114150283Y-69528820D01*
X113978820Y-69700283D01*
X113844102Y-69901903D01*
X113751307Y-70125931D01*
X113704000Y-70363757D01*
X113626000Y-70363757D01*
X113578693Y-70125931D01*
X113485898Y-69901903D01*
X113351180Y-69700283D01*
X113179717Y-69528820D01*
X112978097Y-69394102D01*
X112754069Y-69301307D01*
X112516243Y-69254000D01*
X112273757Y-69254000D01*
X112035931Y-69301307D01*
X111811903Y-69394102D01*
X111610283Y-69528820D01*
X111438820Y-69700283D01*
X111304102Y-69901903D01*
X111211307Y-70125931D01*
X111164000Y-70363757D01*
X111086000Y-70363757D01*
X111038693Y-70125931D01*
X110945898Y-69901903D01*
X110811180Y-69700283D01*
X110639717Y-69528820D01*
X110438097Y-69394102D01*
X110214069Y-69301307D01*
X109976243Y-69254000D01*
X109733757Y-69254000D01*
X109495931Y-69301307D01*
X109271903Y-69394102D01*
X109070283Y-69528820D01*
X108898820Y-69700283D01*
X108764102Y-69901903D01*
X108671307Y-70125931D01*
X108624000Y-70363757D01*
X108624000Y-70606243D01*
X108671307Y-70844069D01*
X108764102Y-71068097D01*
X108898820Y-71269717D01*
X109070283Y-71441180D01*
X109271903Y-71575898D01*
X109495931Y-71668693D01*
X109733757Y-71716000D01*
X109976243Y-71716000D01*
X110214069Y-71668693D01*
X110291167Y-71636758D01*
X110619001Y-71964593D01*
X110619001Y-72054978D01*
X110438097Y-71934102D01*
X110214069Y-71841307D01*
X109976243Y-71794000D01*
X109733757Y-71794000D01*
X109495931Y-71841307D01*
X109271903Y-71934102D01*
X109091000Y-72054977D01*
X109091000Y-71779845D01*
X109093447Y-71754999D01*
X109091000Y-71730153D01*
X109091000Y-71730146D01*
X109083678Y-71655807D01*
X109082925Y-71653322D01*
X109054745Y-71560425D01*
X109041168Y-71535025D01*
X109007759Y-71472521D01*
X108944527Y-71395473D01*
X108925220Y-71379628D01*
X108466758Y-70921167D01*
X108498693Y-70844069D01*
X108546000Y-70606243D01*
X108546000Y-70363757D01*
X108498693Y-70125931D01*
X108405898Y-69901903D01*
X108271180Y-69700283D01*
X108099717Y-69528820D01*
X107898097Y-69394102D01*
X107674069Y-69301307D01*
X107436243Y-69254000D01*
X107193757Y-69254000D01*
X106955931Y-69301307D01*
X106731903Y-69394102D01*
X106530283Y-69528820D01*
X106358820Y-69700283D01*
X106224102Y-69901903D01*
X106131307Y-70125931D01*
X106084000Y-70363757D01*
X106006000Y-70363757D01*
X105958693Y-70125931D01*
X105926758Y-70048833D01*
X106751570Y-69224022D01*
X130662231Y-69224022D01*
X130939001Y-69500793D01*
X130939001Y-69514978D01*
X130758097Y-69394102D01*
X130534069Y-69301307D01*
X130296243Y-69254000D01*
X130053757Y-69254000D01*
X129815931Y-69301307D01*
X129591903Y-69394102D01*
X129390283Y-69528820D01*
X129218820Y-69700283D01*
X129084102Y-69901903D01*
X128991307Y-70125931D01*
X128944000Y-70363757D01*
X128944000Y-70606243D01*
X128991307Y-70844069D01*
X129023242Y-70921167D01*
X128564780Y-71379629D01*
X128545474Y-71395473D01*
X128482242Y-71472521D01*
X128462409Y-71509625D01*
X128435255Y-71560426D01*
X128406322Y-71655808D01*
X128396553Y-71755000D01*
X128399001Y-71779856D01*
X128399001Y-72065433D01*
X128251961Y-71959761D01*
X128032288Y-71859866D01*
X127951980Y-71835511D01*
X127762000Y-71896373D01*
X127762000Y-72898000D01*
X127782000Y-72898000D01*
X127782000Y-73152000D01*
X127762000Y-73152000D01*
X127762000Y-74153627D01*
X127951980Y-74214489D01*
X128032288Y-74190134D01*
X128251961Y-74090239D01*
X128399000Y-73984568D01*
X128399000Y-74778154D01*
X128396553Y-74803000D01*
X128399000Y-74827846D01*
X128399000Y-74827853D01*
X128406322Y-74902192D01*
X128435255Y-74997574D01*
X128482241Y-75085479D01*
X128545473Y-75162527D01*
X128564785Y-75178376D01*
X136146001Y-82759593D01*
X136146000Y-106721195D01*
X136105000Y-106717157D01*
X134491000Y-106717157D01*
X134491000Y-82447845D01*
X134493447Y-82422999D01*
X134491000Y-82398153D01*
X134491000Y-82398146D01*
X134483678Y-82323807D01*
X134454745Y-82228425D01*
X134407759Y-82140521D01*
X134344527Y-82063473D01*
X134325220Y-82047628D01*
X126896400Y-74618809D01*
X126896400Y-74002822D01*
X127018039Y-74090239D01*
X127237712Y-74190134D01*
X127318020Y-74214489D01*
X127508000Y-74153627D01*
X127508000Y-73152000D01*
X127488000Y-73152000D01*
X127488000Y-72898000D01*
X127508000Y-72898000D01*
X127508000Y-71896373D01*
X127318020Y-71835511D01*
X127237712Y-71859866D01*
X127018039Y-71959761D01*
X126896400Y-72047178D01*
X126896400Y-71939191D01*
X127198833Y-71636758D01*
X127275931Y-71668693D01*
X127513757Y-71716000D01*
X127756243Y-71716000D01*
X127994069Y-71668693D01*
X128218097Y-71575898D01*
X128419717Y-71441180D01*
X128591180Y-71269717D01*
X128725898Y-71068097D01*
X128818693Y-70844069D01*
X128866000Y-70606243D01*
X128866000Y-70363757D01*
X128818693Y-70125931D01*
X128725898Y-69901903D01*
X128591180Y-69700283D01*
X128419717Y-69528820D01*
X128218097Y-69394102D01*
X127994069Y-69301307D01*
X127756243Y-69254000D01*
X127513757Y-69254000D01*
X127275931Y-69301307D01*
X127051903Y-69394102D01*
X126850283Y-69528820D01*
X126678820Y-69700283D01*
X126544102Y-69901903D01*
X126451307Y-70125931D01*
X126404000Y-70363757D01*
X126404000Y-70606243D01*
X126451307Y-70844069D01*
X126483242Y-70921167D01*
X126050180Y-71354229D01*
X126030874Y-71370073D01*
X125967642Y-71447121D01*
X125954065Y-71472522D01*
X125920655Y-71535026D01*
X125891722Y-71630408D01*
X125881953Y-71729600D01*
X125884401Y-71754456D01*
X125884401Y-72073504D01*
X125879717Y-72068820D01*
X125678097Y-71934102D01*
X125454069Y-71841307D01*
X125216243Y-71794000D01*
X124973757Y-71794000D01*
X124735931Y-71841307D01*
X124511903Y-71934102D01*
X124381800Y-72021034D01*
X124381800Y-71913791D01*
X124658833Y-71636758D01*
X124735931Y-71668693D01*
X124973757Y-71716000D01*
X125216243Y-71716000D01*
X125454069Y-71668693D01*
X125678097Y-71575898D01*
X125879717Y-71441180D01*
X126051180Y-71269717D01*
X126185898Y-71068097D01*
X126278693Y-70844069D01*
X126326000Y-70606243D01*
X126326000Y-70363757D01*
X126278693Y-70125931D01*
X126185898Y-69901903D01*
X126051180Y-69700283D01*
X125879717Y-69528820D01*
X125678097Y-69394102D01*
X125454069Y-69301307D01*
X125216243Y-69254000D01*
X124973757Y-69254000D01*
X124735931Y-69301307D01*
X124511903Y-69394102D01*
X124310283Y-69528820D01*
X124138820Y-69700283D01*
X124004102Y-69901903D01*
X123911307Y-70125931D01*
X123864000Y-70363757D01*
X123864000Y-70606243D01*
X123911307Y-70844069D01*
X123943242Y-70921167D01*
X123535580Y-71328829D01*
X123516274Y-71344673D01*
X123453042Y-71421721D01*
X123439465Y-71447122D01*
X123406055Y-71509626D01*
X123377122Y-71605008D01*
X123367353Y-71704200D01*
X123369801Y-71729056D01*
X123369801Y-72098904D01*
X123339717Y-72068820D01*
X123138097Y-71934102D01*
X122914069Y-71841307D01*
X122676243Y-71794000D01*
X122433757Y-71794000D01*
X122195931Y-71841307D01*
X121971903Y-71934102D01*
X121770283Y-72068820D01*
X121598820Y-72240283D01*
X121464102Y-72441903D01*
X121371307Y-72665931D01*
X121324000Y-72903757D01*
X121324000Y-73146243D01*
X121371307Y-73384069D01*
X121464102Y-73608097D01*
X121598820Y-73809717D01*
X121770283Y-73981180D01*
X121971903Y-74115898D01*
X122195931Y-74208693D01*
X122433757Y-74256000D01*
X122676243Y-74256000D01*
X122914069Y-74208693D01*
X123138097Y-74115898D01*
X123339717Y-73981180D01*
X123369800Y-73951097D01*
X123369800Y-75590954D01*
X123367353Y-75615800D01*
X123369800Y-75640646D01*
X123369800Y-75640653D01*
X123377122Y-75714992D01*
X123406055Y-75810374D01*
X123453041Y-75898279D01*
X123516273Y-75975327D01*
X123535585Y-75991176D01*
X130939001Y-83394593D01*
X130939000Y-113563954D01*
X130936553Y-113588800D01*
X130939000Y-113613646D01*
X130939000Y-113613653D01*
X130946322Y-113687992D01*
X130975255Y-113783374D01*
X131022241Y-113871279D01*
X131085473Y-113948327D01*
X131104785Y-113964176D01*
X131780828Y-114640220D01*
X131796673Y-114659527D01*
X131844953Y-114699150D01*
X131758820Y-114785283D01*
X131624102Y-114986903D01*
X131531307Y-115210931D01*
X131484000Y-115448757D01*
X131484000Y-115691243D01*
X131531307Y-115929069D01*
X131624102Y-116153097D01*
X131758820Y-116354717D01*
X131930283Y-116526180D01*
X132131903Y-116660898D01*
X132355931Y-116753693D01*
X132593757Y-116801000D01*
X132836243Y-116801000D01*
X133074069Y-116753693D01*
X133298097Y-116660898D01*
X133499717Y-116526180D01*
X133671180Y-116354717D01*
X133805898Y-116153097D01*
X133898693Y-115929069D01*
X133946000Y-115691243D01*
X133946000Y-115448757D01*
X133898693Y-115210931D01*
X133805898Y-114986903D01*
X133685023Y-114806000D01*
X133775409Y-114806000D01*
X134103242Y-115133833D01*
X134071307Y-115210931D01*
X134024000Y-115448757D01*
X134024000Y-115691243D01*
X134071307Y-115929069D01*
X134164102Y-116153097D01*
X134298820Y-116354717D01*
X134470283Y-116526180D01*
X134671903Y-116660898D01*
X134895931Y-116753693D01*
X135133757Y-116801000D01*
X135376243Y-116801000D01*
X135614069Y-116753693D01*
X135838097Y-116660898D01*
X136039717Y-116526180D01*
X136211180Y-116354717D01*
X136345898Y-116153097D01*
X136438693Y-115929069D01*
X136486000Y-115691243D01*
X136486000Y-115448757D01*
X136438693Y-115210931D01*
X136345898Y-114986903D01*
X136211180Y-114785283D01*
X136039717Y-114613820D01*
X135838097Y-114479102D01*
X135614069Y-114386307D01*
X135376243Y-114339000D01*
X135133757Y-114339000D01*
X134895931Y-114386307D01*
X134818833Y-114418242D01*
X134360376Y-113959785D01*
X134344527Y-113940473D01*
X134267479Y-113877241D01*
X134179575Y-113830255D01*
X134084193Y-113801322D01*
X134009854Y-113794000D01*
X134009846Y-113794000D01*
X133985000Y-113791553D01*
X133960154Y-113794000D01*
X133674568Y-113794000D01*
X133780239Y-113646961D01*
X133880134Y-113427288D01*
X133904489Y-113346980D01*
X133843627Y-113157000D01*
X132842000Y-113157000D01*
X132842000Y-113177000D01*
X132588000Y-113177000D01*
X132588000Y-113157000D01*
X132568000Y-113157000D01*
X132568000Y-112903000D01*
X132588000Y-112903000D01*
X132588000Y-111900813D01*
X132842000Y-111900813D01*
X132842000Y-112903000D01*
X133843627Y-112903000D01*
X133904489Y-112713020D01*
X133880134Y-112632712D01*
X133780239Y-112413039D01*
X133639408Y-112217076D01*
X133463052Y-112052353D01*
X133257949Y-111925201D01*
X133031981Y-111840505D01*
X132842000Y-111900813D01*
X132588000Y-111900813D01*
X132398019Y-111840505D01*
X132172051Y-111925201D01*
X131966948Y-112052353D01*
X131951000Y-112067249D01*
X131951000Y-111460023D01*
X132131903Y-111580898D01*
X132355931Y-111673693D01*
X132593757Y-111721000D01*
X132836243Y-111721000D01*
X133074069Y-111673693D01*
X133298097Y-111580898D01*
X133479000Y-111460023D01*
X133479000Y-111735154D01*
X133476553Y-111760000D01*
X133479000Y-111784846D01*
X133479000Y-111784853D01*
X133486322Y-111859192D01*
X133515255Y-111954574D01*
X133562241Y-112042479D01*
X133625473Y-112119527D01*
X133644785Y-112135376D01*
X134103242Y-112593833D01*
X134071307Y-112670931D01*
X134024000Y-112908757D01*
X134024000Y-113151243D01*
X134071307Y-113389069D01*
X134164102Y-113613097D01*
X134298820Y-113814717D01*
X134470283Y-113986180D01*
X134671903Y-114120898D01*
X134895931Y-114213693D01*
X135133757Y-114261000D01*
X135376243Y-114261000D01*
X135614069Y-114213693D01*
X135838097Y-114120898D01*
X136039717Y-113986180D01*
X136211180Y-113814717D01*
X136345898Y-113613097D01*
X136438693Y-113389069D01*
X136486000Y-113151243D01*
X136486000Y-112908757D01*
X136438693Y-112670931D01*
X136345898Y-112446903D01*
X136211180Y-112245283D01*
X136039717Y-112073820D01*
X135838097Y-111939102D01*
X135614069Y-111846307D01*
X135376243Y-111799000D01*
X135133757Y-111799000D01*
X134895931Y-111846307D01*
X134818833Y-111878242D01*
X134491000Y-111550409D01*
X134491000Y-111460023D01*
X134671903Y-111580898D01*
X134895931Y-111673693D01*
X135133757Y-111721000D01*
X135376243Y-111721000D01*
X135614069Y-111673693D01*
X135838097Y-111580898D01*
X136039717Y-111446180D01*
X136211180Y-111274717D01*
X136345898Y-111073097D01*
X136438693Y-110849069D01*
X136486000Y-110611243D01*
X136486000Y-110368757D01*
X136438693Y-110130931D01*
X136406758Y-110053833D01*
X136992220Y-109468372D01*
X137011527Y-109452527D01*
X137074759Y-109375479D01*
X137121745Y-109287575D01*
X137150678Y-109192193D01*
X137158000Y-109117854D01*
X137158000Y-109117847D01*
X137160447Y-109093001D01*
X137158000Y-109068155D01*
X137158000Y-82574845D01*
X137160447Y-82549999D01*
X137158000Y-82525153D01*
X137158000Y-82525146D01*
X137150678Y-82450807D01*
X137121745Y-82355425D01*
X137074759Y-82267521D01*
X137011527Y-82190473D01*
X136992220Y-82174628D01*
X129411000Y-74593409D01*
X129411000Y-73995023D01*
X129591903Y-74115898D01*
X129815931Y-74208693D01*
X130053757Y-74256000D01*
X130296243Y-74256000D01*
X130534069Y-74208693D01*
X130758097Y-74115898D01*
X130939000Y-73995023D01*
X130939000Y-74905154D01*
X130936553Y-74930000D01*
X130939000Y-74954846D01*
X130939000Y-74954853D01*
X130946322Y-75029192D01*
X130975255Y-75124574D01*
X131022241Y-75212479D01*
X131085473Y-75289527D01*
X131104785Y-75305376D01*
X138686001Y-82886593D01*
X138686000Y-131743408D01*
X135691167Y-134738242D01*
X135614069Y-134706307D01*
X135376243Y-134659000D01*
X135133757Y-134659000D01*
X134895931Y-134706307D01*
X134671903Y-134799102D01*
X134470283Y-134933820D01*
X134298820Y-135105283D01*
X134164102Y-135306903D01*
X134071307Y-135530931D01*
X134024000Y-135768757D01*
X134024000Y-136011243D01*
X134071307Y-136249069D01*
X134164102Y-136473097D01*
X134298820Y-136674717D01*
X134470283Y-136846180D01*
X134671903Y-136980898D01*
X134895931Y-137073693D01*
X135133757Y-137121000D01*
X135376243Y-137121000D01*
X135614069Y-137073693D01*
X135838097Y-136980898D01*
X136039717Y-136846180D01*
X136211180Y-136674717D01*
X136345898Y-136473097D01*
X136438693Y-136249069D01*
X136486000Y-136011243D01*
X136486000Y-135768757D01*
X136438693Y-135530931D01*
X136406758Y-135453833D01*
X139321000Y-132539592D01*
X139321000Y-141268408D01*
X135691167Y-144898242D01*
X135614069Y-144866307D01*
X135376243Y-144819000D01*
X135133757Y-144819000D01*
X134895931Y-144866307D01*
X134671903Y-144959102D01*
X134470283Y-145093820D01*
X134298820Y-145265283D01*
X134164102Y-145466903D01*
X134071307Y-145690931D01*
X134024000Y-145928757D01*
X134024000Y-146171243D01*
X134071307Y-146409069D01*
X134164102Y-146633097D01*
X134298820Y-146834717D01*
X134470283Y-147006180D01*
X134671903Y-147140898D01*
X134895931Y-147233693D01*
X135133757Y-147281000D01*
X135376243Y-147281000D01*
X135614069Y-147233693D01*
X135838097Y-147140898D01*
X136039717Y-147006180D01*
X136211180Y-146834717D01*
X136345898Y-146633097D01*
X136438693Y-146409069D01*
X136486000Y-146171243D01*
X136486000Y-145928757D01*
X136438693Y-145690931D01*
X136406758Y-145613833D01*
X139956000Y-142064592D01*
X139956000Y-143300408D01*
X135780970Y-147475439D01*
X135614069Y-147406307D01*
X135376243Y-147359000D01*
X135133757Y-147359000D01*
X134895931Y-147406307D01*
X134671903Y-147499102D01*
X134470283Y-147633820D01*
X134298820Y-147805283D01*
X134164102Y-148006903D01*
X134071307Y-148230931D01*
X134024000Y-148468757D01*
X134024000Y-148711243D01*
X134071307Y-148949069D01*
X134164102Y-149173097D01*
X134298820Y-149374717D01*
X134470283Y-149546180D01*
X134671903Y-149680898D01*
X134895931Y-149773693D01*
X135133757Y-149821000D01*
X135376243Y-149821000D01*
X135614069Y-149773693D01*
X135838097Y-149680898D01*
X136039717Y-149546180D01*
X136211180Y-149374717D01*
X136345898Y-149173097D01*
X136438693Y-148949069D01*
X136486000Y-148711243D01*
X136486000Y-148468757D01*
X136441674Y-148245917D01*
X140564000Y-144123592D01*
X140564000Y-155555146D01*
X140521449Y-155989115D01*
X140401181Y-156387464D01*
X140205831Y-156754862D01*
X139942845Y-157077315D01*
X139622226Y-157342554D01*
X139256204Y-157540461D01*
X138858708Y-157663506D01*
X138425863Y-157709000D01*
X128289854Y-157709000D01*
X127855885Y-157666449D01*
X127457536Y-157546181D01*
X127090138Y-157350831D01*
X126767685Y-157087845D01*
X126502446Y-156767226D01*
X126304539Y-156401204D01*
X126207821Y-156088757D01*
X131484000Y-156088757D01*
X131484000Y-156331243D01*
X131531307Y-156569069D01*
X131624102Y-156793097D01*
X131758820Y-156994717D01*
X131930283Y-157166180D01*
X132131903Y-157300898D01*
X132355931Y-157393693D01*
X132593757Y-157441000D01*
X132836243Y-157441000D01*
X133074069Y-157393693D01*
X133298097Y-157300898D01*
X133499717Y-157166180D01*
X133671180Y-156994717D01*
X133805898Y-156793097D01*
X133898693Y-156569069D01*
X133907065Y-156526980D01*
X134065511Y-156526980D01*
X134089866Y-156607288D01*
X134189761Y-156826961D01*
X134330592Y-157022924D01*
X134506948Y-157187647D01*
X134712051Y-157314799D01*
X134938019Y-157399495D01*
X135128000Y-157339187D01*
X135128000Y-156337000D01*
X135382000Y-156337000D01*
X135382000Y-157339187D01*
X135571981Y-157399495D01*
X135797949Y-157314799D01*
X136003052Y-157187647D01*
X136179408Y-157022924D01*
X136320239Y-156826961D01*
X136420134Y-156607288D01*
X136444489Y-156526980D01*
X136383627Y-156337000D01*
X135382000Y-156337000D01*
X135128000Y-156337000D01*
X134126373Y-156337000D01*
X134065511Y-156526980D01*
X133907065Y-156526980D01*
X133946000Y-156331243D01*
X133946000Y-156088757D01*
X133907066Y-155893020D01*
X134065511Y-155893020D01*
X134126373Y-156083000D01*
X135128000Y-156083000D01*
X135128000Y-155080813D01*
X135382000Y-155080813D01*
X135382000Y-156083000D01*
X136383627Y-156083000D01*
X136444489Y-155893020D01*
X136420134Y-155812712D01*
X136320239Y-155593039D01*
X136179408Y-155397076D01*
X136003052Y-155232353D01*
X135797949Y-155105201D01*
X135571981Y-155020505D01*
X135382000Y-155080813D01*
X135128000Y-155080813D01*
X134938019Y-155020505D01*
X134712051Y-155105201D01*
X134506948Y-155232353D01*
X134330592Y-155397076D01*
X134189761Y-155593039D01*
X134089866Y-155812712D01*
X134065511Y-155893020D01*
X133907066Y-155893020D01*
X133898693Y-155850931D01*
X133805898Y-155626903D01*
X133671180Y-155425283D01*
X133499717Y-155253820D01*
X133298097Y-155119102D01*
X133074069Y-155026307D01*
X132836243Y-154979000D01*
X132593757Y-154979000D01*
X132355931Y-155026307D01*
X132131903Y-155119102D01*
X131930283Y-155253820D01*
X131758820Y-155425283D01*
X131624102Y-155626903D01*
X131531307Y-155850931D01*
X131484000Y-156088757D01*
X126207821Y-156088757D01*
X126181494Y-156003708D01*
X126136000Y-155570863D01*
X126136000Y-153548757D01*
X131484000Y-153548757D01*
X131484000Y-153791243D01*
X131531307Y-154029069D01*
X131624102Y-154253097D01*
X131758820Y-154454717D01*
X131930283Y-154626180D01*
X132131903Y-154760898D01*
X132355931Y-154853693D01*
X132593757Y-154901000D01*
X132836243Y-154901000D01*
X133074069Y-154853693D01*
X133298097Y-154760898D01*
X133499717Y-154626180D01*
X133671180Y-154454717D01*
X133805898Y-154253097D01*
X133898693Y-154029069D01*
X133946000Y-153791243D01*
X133946000Y-153548757D01*
X134024000Y-153548757D01*
X134024000Y-153791243D01*
X134071307Y-154029069D01*
X134164102Y-154253097D01*
X134298820Y-154454717D01*
X134470283Y-154626180D01*
X134671903Y-154760898D01*
X134895931Y-154853693D01*
X135133757Y-154901000D01*
X135376243Y-154901000D01*
X135614069Y-154853693D01*
X135838097Y-154760898D01*
X136039717Y-154626180D01*
X136211180Y-154454717D01*
X136345898Y-154253097D01*
X136438693Y-154029069D01*
X136486000Y-153791243D01*
X136486000Y-153548757D01*
X136438693Y-153310931D01*
X136345898Y-153086903D01*
X136211180Y-152885283D01*
X136039717Y-152713820D01*
X135838097Y-152579102D01*
X135614069Y-152486307D01*
X135376243Y-152439000D01*
X135133757Y-152439000D01*
X134895931Y-152486307D01*
X134671903Y-152579102D01*
X134470283Y-152713820D01*
X134298820Y-152885283D01*
X134164102Y-153086903D01*
X134071307Y-153310931D01*
X134024000Y-153548757D01*
X133946000Y-153548757D01*
X133898693Y-153310931D01*
X133805898Y-153086903D01*
X133671180Y-152885283D01*
X133499717Y-152713820D01*
X133298097Y-152579102D01*
X133074069Y-152486307D01*
X132836243Y-152439000D01*
X132593757Y-152439000D01*
X132355931Y-152486307D01*
X132131903Y-152579102D01*
X131930283Y-152713820D01*
X131758820Y-152885283D01*
X131624102Y-153086903D01*
X131531307Y-153310931D01*
X131484000Y-153548757D01*
X126136000Y-153548757D01*
X126136000Y-151008757D01*
X131484000Y-151008757D01*
X131484000Y-151251243D01*
X131531307Y-151489069D01*
X131624102Y-151713097D01*
X131758820Y-151914717D01*
X131930283Y-152086180D01*
X132131903Y-152220898D01*
X132355931Y-152313693D01*
X132593757Y-152361000D01*
X132836243Y-152361000D01*
X133074069Y-152313693D01*
X133298097Y-152220898D01*
X133499717Y-152086180D01*
X133671180Y-151914717D01*
X133805898Y-151713097D01*
X133898693Y-151489069D01*
X133946000Y-151251243D01*
X133946000Y-151008757D01*
X134024000Y-151008757D01*
X134024000Y-151251243D01*
X134071307Y-151489069D01*
X134164102Y-151713097D01*
X134298820Y-151914717D01*
X134470283Y-152086180D01*
X134671903Y-152220898D01*
X134895931Y-152313693D01*
X135133757Y-152361000D01*
X135376243Y-152361000D01*
X135614069Y-152313693D01*
X135838097Y-152220898D01*
X136039717Y-152086180D01*
X136211180Y-151914717D01*
X136345898Y-151713097D01*
X136438693Y-151489069D01*
X136486000Y-151251243D01*
X136486000Y-151008757D01*
X136438693Y-150770931D01*
X136345898Y-150546903D01*
X136211180Y-150345283D01*
X136039717Y-150173820D01*
X135838097Y-150039102D01*
X135614069Y-149946307D01*
X135376243Y-149899000D01*
X135133757Y-149899000D01*
X134895931Y-149946307D01*
X134671903Y-150039102D01*
X134470283Y-150173820D01*
X134298820Y-150345283D01*
X134164102Y-150546903D01*
X134071307Y-150770931D01*
X134024000Y-151008757D01*
X133946000Y-151008757D01*
X133898693Y-150770931D01*
X133805898Y-150546903D01*
X133671180Y-150345283D01*
X133499717Y-150173820D01*
X133298097Y-150039102D01*
X133074069Y-149946307D01*
X132836243Y-149899000D01*
X132593757Y-149899000D01*
X132355931Y-149946307D01*
X132131903Y-150039102D01*
X131930283Y-150173820D01*
X131758820Y-150345283D01*
X131624102Y-150546903D01*
X131531307Y-150770931D01*
X131484000Y-151008757D01*
X126136000Y-151008757D01*
X126136000Y-148906980D01*
X131525511Y-148906980D01*
X131549866Y-148987288D01*
X131649761Y-149206961D01*
X131790592Y-149402924D01*
X131966948Y-149567647D01*
X132172051Y-149694799D01*
X132398019Y-149779495D01*
X132588000Y-149719187D01*
X132588000Y-148717000D01*
X132842000Y-148717000D01*
X132842000Y-149719187D01*
X133031981Y-149779495D01*
X133257949Y-149694799D01*
X133463052Y-149567647D01*
X133639408Y-149402924D01*
X133780239Y-149206961D01*
X133880134Y-148987288D01*
X133904489Y-148906980D01*
X133843627Y-148717000D01*
X132842000Y-148717000D01*
X132588000Y-148717000D01*
X131586373Y-148717000D01*
X131525511Y-148906980D01*
X126136000Y-148906980D01*
X126136000Y-148273020D01*
X131525511Y-148273020D01*
X131586373Y-148463000D01*
X132588000Y-148463000D01*
X132588000Y-147460813D01*
X132842000Y-147460813D01*
X132842000Y-148463000D01*
X133843627Y-148463000D01*
X133904489Y-148273020D01*
X133880134Y-148192712D01*
X133780239Y-147973039D01*
X133639408Y-147777076D01*
X133463052Y-147612353D01*
X133257949Y-147485201D01*
X133031981Y-147400505D01*
X132842000Y-147460813D01*
X132588000Y-147460813D01*
X132398019Y-147400505D01*
X132172051Y-147485201D01*
X131966948Y-147612353D01*
X131790592Y-147777076D01*
X131649761Y-147973039D01*
X131549866Y-148192712D01*
X131525511Y-148273020D01*
X126136000Y-148273020D01*
X126136000Y-145928757D01*
X131484000Y-145928757D01*
X131484000Y-146171243D01*
X131531307Y-146409069D01*
X131624102Y-146633097D01*
X131758820Y-146834717D01*
X131930283Y-147006180D01*
X132131903Y-147140898D01*
X132355931Y-147233693D01*
X132593757Y-147281000D01*
X132836243Y-147281000D01*
X133074069Y-147233693D01*
X133298097Y-147140898D01*
X133499717Y-147006180D01*
X133671180Y-146834717D01*
X133805898Y-146633097D01*
X133898693Y-146409069D01*
X133946000Y-146171243D01*
X133946000Y-145928757D01*
X133898693Y-145690931D01*
X133805898Y-145466903D01*
X133671180Y-145265283D01*
X133499717Y-145093820D01*
X133298097Y-144959102D01*
X133074069Y-144866307D01*
X132836243Y-144819000D01*
X132593757Y-144819000D01*
X132355931Y-144866307D01*
X132131903Y-144959102D01*
X131930283Y-145093820D01*
X131758820Y-145265283D01*
X131624102Y-145466903D01*
X131531307Y-145690931D01*
X131484000Y-145928757D01*
X126136000Y-145928757D01*
X126136000Y-143826980D01*
X131525511Y-143826980D01*
X131549866Y-143907288D01*
X131649761Y-144126961D01*
X131790592Y-144322924D01*
X131966948Y-144487647D01*
X132172051Y-144614799D01*
X132398019Y-144699495D01*
X132588000Y-144639187D01*
X132588000Y-143637000D01*
X132842000Y-143637000D01*
X132842000Y-144639187D01*
X133031981Y-144699495D01*
X133257949Y-144614799D01*
X133463052Y-144487647D01*
X133639408Y-144322924D01*
X133780239Y-144126961D01*
X133880134Y-143907288D01*
X133904489Y-143826980D01*
X133843627Y-143637000D01*
X132842000Y-143637000D01*
X132588000Y-143637000D01*
X131586373Y-143637000D01*
X131525511Y-143826980D01*
X126136000Y-143826980D01*
X126136000Y-95269932D01*
X126137963Y-95249999D01*
X126136000Y-95230066D01*
X126136000Y-95230059D01*
X126130125Y-95170410D01*
X126106910Y-95093879D01*
X126069210Y-95023347D01*
X126018474Y-94961526D01*
X126002988Y-94948817D01*
X110156193Y-79102024D01*
X110143474Y-79086526D01*
X110081653Y-79035790D01*
X110011121Y-78998090D01*
X109934590Y-78974875D01*
X109874941Y-78969000D01*
X109874933Y-78969000D01*
X109855000Y-78967037D01*
X109835067Y-78969000D01*
X79394853Y-78969000D01*
X78837547Y-78914356D01*
X78320560Y-78758268D01*
X77843737Y-78504737D01*
X77425240Y-78163419D01*
X77081008Y-77747314D01*
X76824154Y-77272274D01*
X76664464Y-76756395D01*
X76606004Y-76200188D01*
X76606000Y-76199166D01*
X76606000Y-72903757D01*
X83224000Y-72903757D01*
X83224000Y-73146243D01*
X83271307Y-73384069D01*
X83364102Y-73608097D01*
X83498820Y-73809717D01*
X83670283Y-73981180D01*
X83871903Y-74115898D01*
X84095931Y-74208693D01*
X84333757Y-74256000D01*
X84576243Y-74256000D01*
X84814069Y-74208693D01*
X85038097Y-74115898D01*
X85239717Y-73981180D01*
X85411180Y-73809717D01*
X85545898Y-73608097D01*
X85638693Y-73384069D01*
X85686000Y-73146243D01*
X85686000Y-72903757D01*
X85764000Y-72903757D01*
X85764000Y-73146243D01*
X85811307Y-73384069D01*
X85904102Y-73608097D01*
X86038820Y-73809717D01*
X86210283Y-73981180D01*
X86411903Y-74115898D01*
X86635931Y-74208693D01*
X86873757Y-74256000D01*
X87116243Y-74256000D01*
X87354069Y-74208693D01*
X87578097Y-74115898D01*
X87779717Y-73981180D01*
X87951180Y-73809717D01*
X88085898Y-73608097D01*
X88178693Y-73384069D01*
X88226000Y-73146243D01*
X88226000Y-72903757D01*
X88304000Y-72903757D01*
X88304000Y-73146243D01*
X88351307Y-73384069D01*
X88444102Y-73608097D01*
X88578820Y-73809717D01*
X88750283Y-73981180D01*
X88951903Y-74115898D01*
X89175931Y-74208693D01*
X89413757Y-74256000D01*
X89656243Y-74256000D01*
X89894069Y-74208693D01*
X90118097Y-74115898D01*
X90319717Y-73981180D01*
X90491180Y-73809717D01*
X90625898Y-73608097D01*
X90718693Y-73384069D01*
X90727064Y-73341981D01*
X90885505Y-73341981D01*
X90970201Y-73567949D01*
X91097353Y-73773052D01*
X91262076Y-73949408D01*
X91458039Y-74090239D01*
X91677712Y-74190134D01*
X91758020Y-74214489D01*
X91948000Y-74153627D01*
X91948000Y-73152000D01*
X92202000Y-73152000D01*
X92202000Y-74153627D01*
X92391980Y-74214489D01*
X92472288Y-74190134D01*
X92691961Y-74090239D01*
X92887924Y-73949408D01*
X93052647Y-73773052D01*
X93179799Y-73567949D01*
X93264495Y-73341981D01*
X93204187Y-73152000D01*
X92202000Y-73152000D01*
X91948000Y-73152000D01*
X90945813Y-73152000D01*
X90885505Y-73341981D01*
X90727064Y-73341981D01*
X90766000Y-73146243D01*
X90766000Y-72903757D01*
X93384000Y-72903757D01*
X93384000Y-73146243D01*
X93431307Y-73384069D01*
X93524102Y-73608097D01*
X93658820Y-73809717D01*
X93830283Y-73981180D01*
X94031903Y-74115898D01*
X94255931Y-74208693D01*
X94493757Y-74256000D01*
X94736243Y-74256000D01*
X94974069Y-74208693D01*
X95198097Y-74115898D01*
X95399717Y-73981180D01*
X95571180Y-73809717D01*
X95705898Y-73608097D01*
X95798693Y-73384069D01*
X95807064Y-73341981D01*
X95965505Y-73341981D01*
X96050201Y-73567949D01*
X96177353Y-73773052D01*
X96342076Y-73949408D01*
X96538039Y-74090239D01*
X96757712Y-74190134D01*
X96838020Y-74214489D01*
X97028000Y-74153627D01*
X97028000Y-73152000D01*
X96025813Y-73152000D01*
X95965505Y-73341981D01*
X95807064Y-73341981D01*
X95846000Y-73146243D01*
X95846000Y-72903757D01*
X95807065Y-72708019D01*
X95965505Y-72708019D01*
X96025813Y-72898000D01*
X97028000Y-72898000D01*
X97028000Y-71896373D01*
X96838020Y-71835511D01*
X96757712Y-71859866D01*
X96538039Y-71959761D01*
X96342076Y-72100592D01*
X96177353Y-72276948D01*
X96050201Y-72482051D01*
X95965505Y-72708019D01*
X95807065Y-72708019D01*
X95798693Y-72665931D01*
X95705898Y-72441903D01*
X95571180Y-72240283D01*
X95399717Y-72068820D01*
X95198097Y-71934102D01*
X94974069Y-71841307D01*
X94736243Y-71794000D01*
X94493757Y-71794000D01*
X94255931Y-71841307D01*
X94031903Y-71934102D01*
X93830283Y-72068820D01*
X93658820Y-72240283D01*
X93524102Y-72441903D01*
X93431307Y-72665931D01*
X93384000Y-72903757D01*
X90766000Y-72903757D01*
X90727065Y-72708019D01*
X90885505Y-72708019D01*
X90945813Y-72898000D01*
X91948000Y-72898000D01*
X91948000Y-71896373D01*
X92202000Y-71896373D01*
X92202000Y-72898000D01*
X93204187Y-72898000D01*
X93264495Y-72708019D01*
X93179799Y-72482051D01*
X93052647Y-72276948D01*
X92887924Y-72100592D01*
X92691961Y-71959761D01*
X92472288Y-71859866D01*
X92391980Y-71835511D01*
X92202000Y-71896373D01*
X91948000Y-71896373D01*
X91758020Y-71835511D01*
X91677712Y-71859866D01*
X91458039Y-71959761D01*
X91262076Y-72100592D01*
X91097353Y-72276948D01*
X90970201Y-72482051D01*
X90885505Y-72708019D01*
X90727065Y-72708019D01*
X90718693Y-72665931D01*
X90625898Y-72441903D01*
X90491180Y-72240283D01*
X90319717Y-72068820D01*
X90118097Y-71934102D01*
X89894069Y-71841307D01*
X89656243Y-71794000D01*
X89413757Y-71794000D01*
X89175931Y-71841307D01*
X88951903Y-71934102D01*
X88750283Y-72068820D01*
X88578820Y-72240283D01*
X88444102Y-72441903D01*
X88351307Y-72665931D01*
X88304000Y-72903757D01*
X88226000Y-72903757D01*
X88178693Y-72665931D01*
X88085898Y-72441903D01*
X87951180Y-72240283D01*
X87779717Y-72068820D01*
X87578097Y-71934102D01*
X87354069Y-71841307D01*
X87116243Y-71794000D01*
X86873757Y-71794000D01*
X86635931Y-71841307D01*
X86411903Y-71934102D01*
X86210283Y-72068820D01*
X86038820Y-72240283D01*
X85904102Y-72441903D01*
X85811307Y-72665931D01*
X85764000Y-72903757D01*
X85686000Y-72903757D01*
X85638693Y-72665931D01*
X85545898Y-72441903D01*
X85411180Y-72240283D01*
X85239717Y-72068820D01*
X85038097Y-71934102D01*
X84814069Y-71841307D01*
X84576243Y-71794000D01*
X84333757Y-71794000D01*
X84095931Y-71841307D01*
X83871903Y-71934102D01*
X83670283Y-72068820D01*
X83498820Y-72240283D01*
X83364102Y-72441903D01*
X83271307Y-72665931D01*
X83224000Y-72903757D01*
X76606000Y-72903757D01*
X76606000Y-70801981D01*
X83265505Y-70801981D01*
X83350201Y-71027949D01*
X83477353Y-71233052D01*
X83642076Y-71409408D01*
X83838039Y-71550239D01*
X84057712Y-71650134D01*
X84138020Y-71674489D01*
X84328000Y-71613627D01*
X84328000Y-70612000D01*
X84582000Y-70612000D01*
X84582000Y-71613627D01*
X84771980Y-71674489D01*
X84852288Y-71650134D01*
X85071961Y-71550239D01*
X85267924Y-71409408D01*
X85432647Y-71233052D01*
X85559799Y-71027949D01*
X85644495Y-70801981D01*
X85584187Y-70612000D01*
X84582000Y-70612000D01*
X84328000Y-70612000D01*
X83325813Y-70612000D01*
X83265505Y-70801981D01*
X76606000Y-70801981D01*
X76606000Y-70363757D01*
X85764000Y-70363757D01*
X85764000Y-70606243D01*
X85811307Y-70844069D01*
X85904102Y-71068097D01*
X86038820Y-71269717D01*
X86210283Y-71441180D01*
X86411903Y-71575898D01*
X86635931Y-71668693D01*
X86873757Y-71716000D01*
X87116243Y-71716000D01*
X87354069Y-71668693D01*
X87578097Y-71575898D01*
X87779717Y-71441180D01*
X87951180Y-71269717D01*
X88085898Y-71068097D01*
X88178693Y-70844069D01*
X88226000Y-70606243D01*
X88226000Y-70363757D01*
X88304000Y-70363757D01*
X88304000Y-70606243D01*
X88351307Y-70844069D01*
X88444102Y-71068097D01*
X88578820Y-71269717D01*
X88750283Y-71441180D01*
X88951903Y-71575898D01*
X89175931Y-71668693D01*
X89413757Y-71716000D01*
X89656243Y-71716000D01*
X89894069Y-71668693D01*
X90118097Y-71575898D01*
X90319717Y-71441180D01*
X90491180Y-71269717D01*
X90625898Y-71068097D01*
X90718693Y-70844069D01*
X90766000Y-70606243D01*
X90766000Y-70363757D01*
X90718693Y-70125931D01*
X90625898Y-69901903D01*
X90491180Y-69700283D01*
X90319717Y-69528820D01*
X90118097Y-69394102D01*
X89894069Y-69301307D01*
X89656243Y-69254000D01*
X89413757Y-69254000D01*
X89175931Y-69301307D01*
X88951903Y-69394102D01*
X88750283Y-69528820D01*
X88578820Y-69700283D01*
X88444102Y-69901903D01*
X88351307Y-70125931D01*
X88304000Y-70363757D01*
X88226000Y-70363757D01*
X88178693Y-70125931D01*
X88085898Y-69901903D01*
X87951180Y-69700283D01*
X87779717Y-69528820D01*
X87578097Y-69394102D01*
X87354069Y-69301307D01*
X87116243Y-69254000D01*
X86873757Y-69254000D01*
X86635931Y-69301307D01*
X86411903Y-69394102D01*
X86210283Y-69528820D01*
X86038820Y-69700283D01*
X85904102Y-69901903D01*
X85811307Y-70125931D01*
X85764000Y-70363757D01*
X76606000Y-70363757D01*
X76606000Y-70168019D01*
X83265505Y-70168019D01*
X83325813Y-70358000D01*
X84328000Y-70358000D01*
X84328000Y-69356373D01*
X84582000Y-69356373D01*
X84582000Y-70358000D01*
X85584187Y-70358000D01*
X85644495Y-70168019D01*
X85559799Y-69942051D01*
X85432647Y-69736948D01*
X85267924Y-69560592D01*
X85071961Y-69419761D01*
X84852288Y-69319866D01*
X84771980Y-69295511D01*
X84582000Y-69356373D01*
X84328000Y-69356373D01*
X84138020Y-69295511D01*
X84057712Y-69319866D01*
X83838039Y-69419761D01*
X83642076Y-69560592D01*
X83477353Y-69736948D01*
X83350201Y-69942051D01*
X83265505Y-70168019D01*
X76606000Y-70168019D01*
X76606000Y-69234853D01*
X76660644Y-68677546D01*
X76816732Y-68160560D01*
X77070262Y-67683738D01*
X77411581Y-67265240D01*
X77827686Y-66921008D01*
X78302724Y-66664155D01*
X78818605Y-66504464D01*
X79374813Y-66446004D01*
X79375834Y-66446000D01*
X137775147Y-66446000D01*
X138332454Y-66500644D01*
%TA.AperFunction,Conductor*%
D17*
G36*
X138332454Y-66500644D02*
G01*
X138849440Y-66656732D01*
X139326262Y-66910262D01*
X139744760Y-67251581D01*
X140088992Y-67667686D01*
X140345845Y-68142724D01*
X140505536Y-68658605D01*
X140563996Y-69214813D01*
X140564001Y-69216122D01*
X140564001Y-78888409D01*
X135024400Y-73348809D01*
X135024400Y-69011245D01*
X135026847Y-68986399D01*
X135024400Y-68961553D01*
X135024400Y-68961546D01*
X135017078Y-68887207D01*
X135007448Y-68855458D01*
X134988145Y-68791825D01*
X134976310Y-68769683D01*
X134941159Y-68703921D01*
X134877927Y-68626873D01*
X134858620Y-68611028D01*
X133725376Y-67477785D01*
X133709527Y-67458473D01*
X133632479Y-67395241D01*
X133544575Y-67348255D01*
X133449193Y-67319322D01*
X133374854Y-67312000D01*
X133374846Y-67312000D01*
X133350000Y-67309553D01*
X133325154Y-67312000D01*
X94766854Y-67312000D01*
X94742000Y-67309552D01*
X94717146Y-67312000D01*
X94642807Y-67319322D01*
X94547425Y-67348255D01*
X94459521Y-67395241D01*
X94382473Y-67458473D01*
X94366628Y-67477780D01*
X92511167Y-69333242D01*
X92434069Y-69301307D01*
X92196243Y-69254000D01*
X91953757Y-69254000D01*
X91715931Y-69301307D01*
X91491903Y-69394102D01*
X91290283Y-69528820D01*
X91118820Y-69700283D01*
X90984102Y-69901903D01*
X90891307Y-70125931D01*
X90844000Y-70363757D01*
X90844000Y-70606243D01*
X90891307Y-70844069D01*
X90984102Y-71068097D01*
X91118820Y-71269717D01*
X91290283Y-71441180D01*
X91491903Y-71575898D01*
X91715931Y-71668693D01*
X91953757Y-71716000D01*
X92196243Y-71716000D01*
X92434069Y-71668693D01*
X92658097Y-71575898D01*
X92859717Y-71441180D01*
X93031180Y-71269717D01*
X93165898Y-71068097D01*
X93258693Y-70844069D01*
X93306000Y-70606243D01*
X93306000Y-70363757D01*
X93258693Y-70125931D01*
X93226758Y-70048833D01*
X94951592Y-68324000D01*
X96060408Y-68324000D01*
X95051167Y-69333242D01*
X94974069Y-69301307D01*
X94736243Y-69254000D01*
X94493757Y-69254000D01*
X94255931Y-69301307D01*
X94031903Y-69394102D01*
X93830283Y-69528820D01*
X93658820Y-69700283D01*
X93524102Y-69901903D01*
X93431307Y-70125931D01*
X93384000Y-70363757D01*
X93384000Y-70606243D01*
X93431307Y-70844069D01*
X93524102Y-71068097D01*
X93658820Y-71269717D01*
X93830283Y-71441180D01*
X94031903Y-71575898D01*
X94255931Y-71668693D01*
X94493757Y-71716000D01*
X94736243Y-71716000D01*
X94974069Y-71668693D01*
X95198097Y-71575898D01*
X95399717Y-71441180D01*
X95571180Y-71269717D01*
X95705898Y-71068097D01*
X95798693Y-70844069D01*
X95846000Y-70606243D01*
X95846000Y-70363757D01*
X95924000Y-70363757D01*
X95924000Y-70606243D01*
X95971307Y-70844069D01*
X96064102Y-71068097D01*
X96198820Y-71269717D01*
X96370283Y-71441180D01*
X96571903Y-71575898D01*
X96795931Y-71668693D01*
X97033757Y-71716000D01*
X97276243Y-71716000D01*
X97514069Y-71668693D01*
X97591167Y-71636758D01*
X97919001Y-71964593D01*
X97919001Y-72065433D01*
X97771961Y-71959761D01*
X97552288Y-71859866D01*
X97471980Y-71835511D01*
X97282000Y-71896373D01*
X97282000Y-72898000D01*
X97302000Y-72898000D01*
X97302000Y-73152000D01*
X97282000Y-73152000D01*
X97282000Y-74153627D01*
X97471980Y-74214489D01*
X97552288Y-74190134D01*
X97771961Y-74090239D01*
X97919000Y-73984568D01*
X97919000Y-74270154D01*
X97916553Y-74295000D01*
X97919000Y-74319846D01*
X97919000Y-74319853D01*
X97926322Y-74394192D01*
X97955255Y-74489574D01*
X98002241Y-74577479D01*
X98065473Y-74654527D01*
X98084785Y-74670376D01*
X100208628Y-76794220D01*
X100224473Y-76813527D01*
X100301521Y-76876759D01*
X100389425Y-76923745D01*
X100484807Y-76952678D01*
X100559146Y-76960000D01*
X100559153Y-76960000D01*
X100583999Y-76962447D01*
X100608845Y-76960000D01*
X108629409Y-76960000D01*
X126240001Y-94570593D01*
X126240000Y-137008154D01*
X126237553Y-137033000D01*
X126240000Y-137057846D01*
X126240000Y-137057853D01*
X126247322Y-137132192D01*
X126276255Y-137227574D01*
X126323241Y-137315479D01*
X126386473Y-137392527D01*
X126405785Y-137408376D01*
X131577628Y-142580220D01*
X131593473Y-142599527D01*
X131670521Y-142662759D01*
X131758425Y-142709745D01*
X131777360Y-142715489D01*
X131649761Y-142893039D01*
X131549866Y-143112712D01*
X131525511Y-143193020D01*
X131586373Y-143383000D01*
X132588000Y-143383000D01*
X132588000Y-143363000D01*
X132842000Y-143363000D01*
X132842000Y-143383000D01*
X133843627Y-143383000D01*
X133904489Y-143193020D01*
X133880134Y-143112712D01*
X133780239Y-142893039D01*
X133674568Y-142746000D01*
X133775409Y-142746000D01*
X134103242Y-143073833D01*
X134071307Y-143150931D01*
X134024000Y-143388757D01*
X134024000Y-143631243D01*
X134071307Y-143869069D01*
X134164102Y-144093097D01*
X134298820Y-144294717D01*
X134470283Y-144466180D01*
X134671903Y-144600898D01*
X134895931Y-144693693D01*
X135133757Y-144741000D01*
X135376243Y-144741000D01*
X135614069Y-144693693D01*
X135838097Y-144600898D01*
X136039717Y-144466180D01*
X136211180Y-144294717D01*
X136345898Y-144093097D01*
X136438693Y-143869069D01*
X136486000Y-143631243D01*
X136486000Y-143388757D01*
X136438693Y-143150931D01*
X136345898Y-142926903D01*
X136211180Y-142725283D01*
X136039717Y-142553820D01*
X135838097Y-142419102D01*
X135614069Y-142326307D01*
X135376243Y-142279000D01*
X135133757Y-142279000D01*
X134895931Y-142326307D01*
X134818833Y-142358242D01*
X134360376Y-141899785D01*
X134344527Y-141880473D01*
X134267479Y-141817241D01*
X134179575Y-141770255D01*
X134084193Y-141741322D01*
X134009854Y-141734000D01*
X134009846Y-141734000D01*
X133985000Y-141731553D01*
X133960154Y-141734000D01*
X133685023Y-141734000D01*
X133805898Y-141553097D01*
X133898693Y-141329069D01*
X133946000Y-141091243D01*
X133946000Y-140848757D01*
X134024000Y-140848757D01*
X134024000Y-141091243D01*
X134071307Y-141329069D01*
X134164102Y-141553097D01*
X134298820Y-141754717D01*
X134470283Y-141926180D01*
X134671903Y-142060898D01*
X134895931Y-142153693D01*
X135133757Y-142201000D01*
X135376243Y-142201000D01*
X135614069Y-142153693D01*
X135838097Y-142060898D01*
X136039717Y-141926180D01*
X136211180Y-141754717D01*
X136345898Y-141553097D01*
X136438693Y-141329069D01*
X136486000Y-141091243D01*
X136486000Y-140848757D01*
X136438693Y-140610931D01*
X136345898Y-140386903D01*
X136211180Y-140185283D01*
X136039717Y-140013820D01*
X135838097Y-139879102D01*
X135614069Y-139786307D01*
X135376243Y-139739000D01*
X135133757Y-139739000D01*
X134895931Y-139786307D01*
X134671903Y-139879102D01*
X134470283Y-140013820D01*
X134298820Y-140185283D01*
X134164102Y-140386903D01*
X134071307Y-140610931D01*
X134024000Y-140848757D01*
X133946000Y-140848757D01*
X133898693Y-140610931D01*
X133805898Y-140386903D01*
X133671180Y-140185283D01*
X133499717Y-140013820D01*
X133298097Y-139879102D01*
X133074069Y-139786307D01*
X132836243Y-139739000D01*
X132593757Y-139739000D01*
X132355931Y-139786307D01*
X132131903Y-139879102D01*
X131930283Y-140013820D01*
X131758820Y-140185283D01*
X131624102Y-140386903D01*
X131531307Y-140610931D01*
X131484000Y-140848757D01*
X131484000Y-141055408D01*
X128737349Y-138308757D01*
X131484000Y-138308757D01*
X131484000Y-138551243D01*
X131531307Y-138789069D01*
X131624102Y-139013097D01*
X131758820Y-139214717D01*
X131930283Y-139386180D01*
X132131903Y-139520898D01*
X132355931Y-139613693D01*
X132593757Y-139661000D01*
X132836243Y-139661000D01*
X133074069Y-139613693D01*
X133298097Y-139520898D01*
X133499717Y-139386180D01*
X133671180Y-139214717D01*
X133805898Y-139013097D01*
X133898693Y-138789069D01*
X133907065Y-138746980D01*
X134065511Y-138746980D01*
X134089866Y-138827288D01*
X134189761Y-139046961D01*
X134330592Y-139242924D01*
X134506948Y-139407647D01*
X134712051Y-139534799D01*
X134938019Y-139619495D01*
X135128000Y-139559187D01*
X135128000Y-138557000D01*
X135382000Y-138557000D01*
X135382000Y-139559187D01*
X135571981Y-139619495D01*
X135797949Y-139534799D01*
X136003052Y-139407647D01*
X136179408Y-139242924D01*
X136320239Y-139046961D01*
X136420134Y-138827288D01*
X136444489Y-138746980D01*
X136383627Y-138557000D01*
X135382000Y-138557000D01*
X135128000Y-138557000D01*
X134126373Y-138557000D01*
X134065511Y-138746980D01*
X133907065Y-138746980D01*
X133946000Y-138551243D01*
X133946000Y-138308757D01*
X133907066Y-138113020D01*
X134065511Y-138113020D01*
X134126373Y-138303000D01*
X135128000Y-138303000D01*
X135128000Y-137300813D01*
X135382000Y-137300813D01*
X135382000Y-138303000D01*
X136383627Y-138303000D01*
X136444489Y-138113020D01*
X136420134Y-138032712D01*
X136320239Y-137813039D01*
X136179408Y-137617076D01*
X136003052Y-137452353D01*
X135797949Y-137325201D01*
X135571981Y-137240505D01*
X135382000Y-137300813D01*
X135128000Y-137300813D01*
X134938019Y-137240505D01*
X134712051Y-137325201D01*
X134506948Y-137452353D01*
X134330592Y-137617076D01*
X134189761Y-137813039D01*
X134089866Y-138032712D01*
X134065511Y-138113020D01*
X133907066Y-138113020D01*
X133898693Y-138070931D01*
X133805898Y-137846903D01*
X133671180Y-137645283D01*
X133499717Y-137473820D01*
X133298097Y-137339102D01*
X133074069Y-137246307D01*
X132836243Y-137199000D01*
X132593757Y-137199000D01*
X132355931Y-137246307D01*
X132131903Y-137339102D01*
X131930283Y-137473820D01*
X131758820Y-137645283D01*
X131624102Y-137846903D01*
X131531307Y-138070931D01*
X131484000Y-138308757D01*
X128737349Y-138308757D01*
X127252000Y-136823409D01*
X127252000Y-135768757D01*
X131484000Y-135768757D01*
X131484000Y-136011243D01*
X131531307Y-136249069D01*
X131624102Y-136473097D01*
X131758820Y-136674717D01*
X131930283Y-136846180D01*
X132131903Y-136980898D01*
X132355931Y-137073693D01*
X132593757Y-137121000D01*
X132836243Y-137121000D01*
X133074069Y-137073693D01*
X133298097Y-136980898D01*
X133499717Y-136846180D01*
X133671180Y-136674717D01*
X133805898Y-136473097D01*
X133898693Y-136249069D01*
X133946000Y-136011243D01*
X133946000Y-135768757D01*
X133898693Y-135530931D01*
X133805898Y-135306903D01*
X133671180Y-135105283D01*
X133499717Y-134933820D01*
X133298097Y-134799102D01*
X133074069Y-134706307D01*
X132836243Y-134659000D01*
X132593757Y-134659000D01*
X132355931Y-134706307D01*
X132131903Y-134799102D01*
X131930283Y-134933820D01*
X131758820Y-135105283D01*
X131624102Y-135306903D01*
X131531307Y-135530931D01*
X131484000Y-135768757D01*
X127252000Y-135768757D01*
X127252000Y-94385845D01*
X127254447Y-94360999D01*
X127252000Y-94336153D01*
X127252000Y-94336146D01*
X127244678Y-94261807D01*
X127215745Y-94166425D01*
X127168759Y-94078521D01*
X127105527Y-94001473D01*
X127086220Y-93985628D01*
X109214376Y-76113785D01*
X109198527Y-76094473D01*
X109121479Y-76031241D01*
X109033575Y-75984255D01*
X108938193Y-75955322D01*
X108863854Y-75948000D01*
X108863846Y-75948000D01*
X108839000Y-75945553D01*
X108814154Y-75948000D01*
X100793592Y-75948000D01*
X98931000Y-74085409D01*
X98931000Y-73995023D01*
X99111903Y-74115898D01*
X99335931Y-74208693D01*
X99573757Y-74256000D01*
X99816243Y-74256000D01*
X100054069Y-74208693D01*
X100278097Y-74115898D01*
X100479717Y-73981180D01*
X100651180Y-73809717D01*
X100785898Y-73608097D01*
X100878693Y-73384069D01*
X100926000Y-73146243D01*
X100926000Y-72903757D01*
X101004000Y-72903757D01*
X101004000Y-73146243D01*
X101051307Y-73384069D01*
X101144102Y-73608097D01*
X101278820Y-73809717D01*
X101450283Y-73981180D01*
X101651903Y-74115898D01*
X101875931Y-74208693D01*
X102113757Y-74256000D01*
X102356243Y-74256000D01*
X102594069Y-74208693D01*
X102818097Y-74115898D01*
X103019717Y-73981180D01*
X103191180Y-73809717D01*
X103325898Y-73608097D01*
X103418693Y-73384069D01*
X103466000Y-73146243D01*
X103466000Y-72903757D01*
X103544000Y-72903757D01*
X103544000Y-73146243D01*
X103591307Y-73384069D01*
X103684102Y-73608097D01*
X103818820Y-73809717D01*
X103990283Y-73981180D01*
X104191903Y-74115898D01*
X104415931Y-74208693D01*
X104653757Y-74256000D01*
X104896243Y-74256000D01*
X105134069Y-74208693D01*
X105358097Y-74115898D01*
X105559717Y-73981180D01*
X105731180Y-73809717D01*
X105865898Y-73608097D01*
X105958693Y-73384069D01*
X106006000Y-73146243D01*
X106006000Y-72903757D01*
X105958693Y-72665931D01*
X105865898Y-72441903D01*
X105731180Y-72240283D01*
X105559717Y-72068820D01*
X105358097Y-71934102D01*
X105134069Y-71841307D01*
X104896243Y-71794000D01*
X104653757Y-71794000D01*
X104415931Y-71841307D01*
X104191903Y-71934102D01*
X103990283Y-72068820D01*
X103818820Y-72240283D01*
X103684102Y-72441903D01*
X103591307Y-72665931D01*
X103544000Y-72903757D01*
X103466000Y-72903757D01*
X103418693Y-72665931D01*
X103325898Y-72441903D01*
X103191180Y-72240283D01*
X103019717Y-72068820D01*
X102818097Y-71934102D01*
X102594069Y-71841307D01*
X102356243Y-71794000D01*
X102113757Y-71794000D01*
X101875931Y-71841307D01*
X101651903Y-71934102D01*
X101450283Y-72068820D01*
X101278820Y-72240283D01*
X101144102Y-72441903D01*
X101051307Y-72665931D01*
X101004000Y-72903757D01*
X100926000Y-72903757D01*
X100878693Y-72665931D01*
X100785898Y-72441903D01*
X100651180Y-72240283D01*
X100479717Y-72068820D01*
X100278097Y-71934102D01*
X100054069Y-71841307D01*
X99816243Y-71794000D01*
X99573757Y-71794000D01*
X99335931Y-71841307D01*
X99111903Y-71934102D01*
X98931000Y-72054977D01*
X98931000Y-71779845D01*
X98933447Y-71754999D01*
X98931000Y-71730153D01*
X98931000Y-71730146D01*
X98923678Y-71655807D01*
X98922925Y-71653322D01*
X98894745Y-71560425D01*
X98881168Y-71535025D01*
X98847759Y-71472521D01*
X98784527Y-71395473D01*
X98765220Y-71379628D01*
X98306758Y-70921167D01*
X98338693Y-70844069D01*
X98386000Y-70606243D01*
X98386000Y-70363757D01*
X98464000Y-70363757D01*
X98464000Y-70606243D01*
X98511307Y-70844069D01*
X98604102Y-71068097D01*
X98738820Y-71269717D01*
X98910283Y-71441180D01*
X99111903Y-71575898D01*
X99335931Y-71668693D01*
X99573757Y-71716000D01*
X99816243Y-71716000D01*
X100054069Y-71668693D01*
X100278097Y-71575898D01*
X100479717Y-71441180D01*
X100651180Y-71269717D01*
X100785898Y-71068097D01*
X100878693Y-70844069D01*
X100887064Y-70801981D01*
X101045505Y-70801981D01*
X101130201Y-71027949D01*
X101257353Y-71233052D01*
X101422076Y-71409408D01*
X101618039Y-71550239D01*
X101837712Y-71650134D01*
X101918020Y-71674489D01*
X102108000Y-71613627D01*
X102108000Y-70612000D01*
X102362000Y-70612000D01*
X102362000Y-71613627D01*
X102551980Y-71674489D01*
X102632288Y-71650134D01*
X102851961Y-71550239D01*
X103047924Y-71409408D01*
X103212647Y-71233052D01*
X103339799Y-71027949D01*
X103424495Y-70801981D01*
X103364187Y-70612000D01*
X102362000Y-70612000D01*
X102108000Y-70612000D01*
X101105813Y-70612000D01*
X101045505Y-70801981D01*
X100887064Y-70801981D01*
X100926000Y-70606243D01*
X100926000Y-70363757D01*
X100887065Y-70168019D01*
X101045505Y-70168019D01*
X101105813Y-70358000D01*
X102108000Y-70358000D01*
X102108000Y-69356373D01*
X102362000Y-69356373D01*
X102362000Y-70358000D01*
X103364187Y-70358000D01*
X103424495Y-70168019D01*
X103339799Y-69942051D01*
X103212647Y-69736948D01*
X103047924Y-69560592D01*
X102851961Y-69419761D01*
X102632288Y-69319866D01*
X102551980Y-69295511D01*
X102362000Y-69356373D01*
X102108000Y-69356373D01*
X101918020Y-69295511D01*
X101837712Y-69319866D01*
X101618039Y-69419761D01*
X101422076Y-69560592D01*
X101257353Y-69736948D01*
X101130201Y-69942051D01*
X101045505Y-70168019D01*
X100887065Y-70168019D01*
X100878693Y-70125931D01*
X100785898Y-69901903D01*
X100651180Y-69700283D01*
X100479717Y-69528820D01*
X100278097Y-69394102D01*
X100054069Y-69301307D01*
X99816243Y-69254000D01*
X99573757Y-69254000D01*
X99335931Y-69301307D01*
X99111903Y-69394102D01*
X98910283Y-69528820D01*
X98738820Y-69700283D01*
X98604102Y-69901903D01*
X98511307Y-70125931D01*
X98464000Y-70363757D01*
X98386000Y-70363757D01*
X98338693Y-70125931D01*
X98245898Y-69901903D01*
X98111180Y-69700283D01*
X97939717Y-69528820D01*
X97738097Y-69394102D01*
X97514069Y-69301307D01*
X97276243Y-69254000D01*
X97033757Y-69254000D01*
X96795931Y-69301307D01*
X96571903Y-69394102D01*
X96370283Y-69528820D01*
X96198820Y-69700283D01*
X96064102Y-69901903D01*
X95971307Y-70125931D01*
X95924000Y-70363757D01*
X95846000Y-70363757D01*
X95798693Y-70125931D01*
X95766758Y-70048833D01*
X97041581Y-68774011D01*
X105770397Y-68774011D01*
X105211167Y-69333242D01*
X105134069Y-69301307D01*
X104896243Y-69254000D01*
X104653757Y-69254000D01*
X104415931Y-69301307D01*
X104191903Y-69394102D01*
X103990283Y-69528820D01*
X103818820Y-69700283D01*
X103684102Y-69901903D01*
X103591307Y-70125931D01*
X103544000Y-70363757D01*
X103544000Y-70606243D01*
X103591307Y-70844069D01*
X103684102Y-71068097D01*
X103818820Y-71269717D01*
X103990283Y-71441180D01*
X104191903Y-71575898D01*
X104415931Y-71668693D01*
X104653757Y-71716000D01*
X104896243Y-71716000D01*
X105134069Y-71668693D01*
X105358097Y-71575898D01*
X105559717Y-71441180D01*
X105731180Y-71269717D01*
X105865898Y-71068097D01*
X105958693Y-70844069D01*
X106006000Y-70606243D01*
X106006000Y-70363757D01*
X106084000Y-70363757D01*
X106084000Y-70606243D01*
X106131307Y-70844069D01*
X106224102Y-71068097D01*
X106358820Y-71269717D01*
X106530283Y-71441180D01*
X106731903Y-71575898D01*
X106955931Y-71668693D01*
X107193757Y-71716000D01*
X107436243Y-71716000D01*
X107674069Y-71668693D01*
X107751167Y-71636758D01*
X108079001Y-71964593D01*
X108079001Y-72054978D01*
X107898097Y-71934102D01*
X107674069Y-71841307D01*
X107436243Y-71794000D01*
X107193757Y-71794000D01*
X106955931Y-71841307D01*
X106731903Y-71934102D01*
X106530283Y-72068820D01*
X106358820Y-72240283D01*
X106224102Y-72441903D01*
X106131307Y-72665931D01*
X106084000Y-72903757D01*
X106084000Y-73146243D01*
X106131307Y-73384069D01*
X106224102Y-73608097D01*
X106358820Y-73809717D01*
X106530283Y-73981180D01*
X106731903Y-74115898D01*
X106955931Y-74208693D01*
X107193757Y-74256000D01*
X107436243Y-74256000D01*
X107674069Y-74208693D01*
X107898097Y-74115898D01*
X108099717Y-73981180D01*
X108226514Y-73854383D01*
X108244785Y-73869378D01*
X127383001Y-93007595D01*
X127383000Y-129769154D01*
X127380553Y-129794000D01*
X127383000Y-129818846D01*
X127383000Y-129818853D01*
X127390322Y-129893192D01*
X127419255Y-129988574D01*
X127466241Y-130076479D01*
X127529473Y-130153527D01*
X127548785Y-130169376D01*
X129799628Y-132420220D01*
X129815473Y-132439527D01*
X129892521Y-132502759D01*
X129980425Y-132549745D01*
X130075806Y-132578678D01*
X130085694Y-132579652D01*
X130150146Y-132586000D01*
X130150153Y-132586000D01*
X130174999Y-132588447D01*
X130199845Y-132586000D01*
X131744977Y-132586000D01*
X131624102Y-132766903D01*
X131531307Y-132990931D01*
X131484000Y-133228757D01*
X131484000Y-133471243D01*
X131531307Y-133709069D01*
X131624102Y-133933097D01*
X131758820Y-134134717D01*
X131930283Y-134306180D01*
X132131903Y-134440898D01*
X132355931Y-134533693D01*
X132593757Y-134581000D01*
X132836243Y-134581000D01*
X133074069Y-134533693D01*
X133298097Y-134440898D01*
X133499717Y-134306180D01*
X133671180Y-134134717D01*
X133805898Y-133933097D01*
X133898693Y-133709069D01*
X133946000Y-133471243D01*
X133946000Y-133228757D01*
X133898693Y-132990931D01*
X133805898Y-132766903D01*
X133685023Y-132586000D01*
X133775409Y-132586000D01*
X134103242Y-132913833D01*
X134071307Y-132990931D01*
X134024000Y-133228757D01*
X134024000Y-133471243D01*
X134071307Y-133709069D01*
X134164102Y-133933097D01*
X134298820Y-134134717D01*
X134470283Y-134306180D01*
X134671903Y-134440898D01*
X134895931Y-134533693D01*
X135133757Y-134581000D01*
X135376243Y-134581000D01*
X135614069Y-134533693D01*
X135838097Y-134440898D01*
X136039717Y-134306180D01*
X136211180Y-134134717D01*
X136345898Y-133933097D01*
X136438693Y-133709069D01*
X136486000Y-133471243D01*
X136486000Y-133228757D01*
X136438693Y-132990931D01*
X136345898Y-132766903D01*
X136211180Y-132565283D01*
X136039717Y-132393820D01*
X135838097Y-132259102D01*
X135614069Y-132166307D01*
X135376243Y-132119000D01*
X135133757Y-132119000D01*
X134895931Y-132166307D01*
X134818833Y-132198242D01*
X134360376Y-131739785D01*
X134344527Y-131720473D01*
X134267479Y-131657241D01*
X134179575Y-131610255D01*
X134084193Y-131581322D01*
X134009854Y-131574000D01*
X134009846Y-131574000D01*
X133985000Y-131571553D01*
X133960154Y-131574000D01*
X133685023Y-131574000D01*
X133805898Y-131393097D01*
X133898693Y-131169069D01*
X133946000Y-130931243D01*
X133946000Y-130688757D01*
X133898693Y-130450931D01*
X133805898Y-130226903D01*
X133671180Y-130025283D01*
X133499717Y-129853820D01*
X133298097Y-129719102D01*
X133074069Y-129626307D01*
X132836243Y-129579000D01*
X132593757Y-129579000D01*
X132355931Y-129626307D01*
X132131903Y-129719102D01*
X131930283Y-129853820D01*
X131758820Y-130025283D01*
X131624102Y-130226903D01*
X131531307Y-130450931D01*
X131484000Y-130688757D01*
X131484000Y-130931243D01*
X131531307Y-131169069D01*
X131624102Y-131393097D01*
X131744977Y-131574000D01*
X130384592Y-131574000D01*
X128395000Y-129584409D01*
X128395000Y-92822856D01*
X128397448Y-92798002D01*
X128387678Y-92698809D01*
X128358745Y-92603427D01*
X128322318Y-92535278D01*
X128311759Y-92515523D01*
X128248527Y-92438475D01*
X128229220Y-92422630D01*
X110048263Y-74241674D01*
X110214069Y-74208693D01*
X110438097Y-74115898D01*
X110619000Y-73995023D01*
X110619000Y-74193954D01*
X110616553Y-74218800D01*
X110619000Y-74243646D01*
X110619000Y-74243653D01*
X110626322Y-74317992D01*
X110655255Y-74413374D01*
X110702241Y-74501279D01*
X110765473Y-74578327D01*
X110784785Y-74594176D01*
X128653001Y-92462393D01*
X128653000Y-125959154D01*
X128650553Y-125984000D01*
X128653000Y-126008846D01*
X128653000Y-126008853D01*
X128660322Y-126083192D01*
X128689255Y-126178574D01*
X128736241Y-126266479D01*
X128799473Y-126343527D01*
X128818785Y-126359376D01*
X129799628Y-127340220D01*
X129815473Y-127359527D01*
X129892521Y-127422759D01*
X129980425Y-127469745D01*
X130075807Y-127498678D01*
X130150146Y-127506000D01*
X130150154Y-127506000D01*
X130175000Y-127508447D01*
X130199846Y-127506000D01*
X131744977Y-127506000D01*
X131624102Y-127686903D01*
X131531307Y-127910931D01*
X131484000Y-128148757D01*
X131484000Y-128391243D01*
X131531307Y-128629069D01*
X131624102Y-128853097D01*
X131758820Y-129054717D01*
X131930283Y-129226180D01*
X132131903Y-129360898D01*
X132355931Y-129453693D01*
X132593757Y-129501000D01*
X132836243Y-129501000D01*
X133074069Y-129453693D01*
X133298097Y-129360898D01*
X133479000Y-129240023D01*
X133479000Y-129515154D01*
X133476553Y-129540000D01*
X133479000Y-129564846D01*
X133479000Y-129564853D01*
X133486322Y-129639192D01*
X133515255Y-129734574D01*
X133562241Y-129822479D01*
X133625473Y-129899527D01*
X133644785Y-129915376D01*
X134103242Y-130373833D01*
X134071307Y-130450931D01*
X134024000Y-130688757D01*
X134024000Y-130931243D01*
X134071307Y-131169069D01*
X134164102Y-131393097D01*
X134298820Y-131594717D01*
X134470283Y-131766180D01*
X134671903Y-131900898D01*
X134895931Y-131993693D01*
X135133757Y-132041000D01*
X135376243Y-132041000D01*
X135614069Y-131993693D01*
X135838097Y-131900898D01*
X136039717Y-131766180D01*
X136211180Y-131594717D01*
X136345898Y-131393097D01*
X136438693Y-131169069D01*
X136486000Y-130931243D01*
X136486000Y-130688757D01*
X136438693Y-130450931D01*
X136345898Y-130226903D01*
X136211180Y-130025283D01*
X136039717Y-129853820D01*
X135838097Y-129719102D01*
X135614069Y-129626307D01*
X135376243Y-129579000D01*
X135133757Y-129579000D01*
X134895931Y-129626307D01*
X134818833Y-129658242D01*
X134491000Y-129330409D01*
X134491000Y-129240023D01*
X134671903Y-129360898D01*
X134895931Y-129453693D01*
X135133757Y-129501000D01*
X135376243Y-129501000D01*
X135614069Y-129453693D01*
X135838097Y-129360898D01*
X136039717Y-129226180D01*
X136211180Y-129054717D01*
X136345898Y-128853097D01*
X136438693Y-128629069D01*
X136486000Y-128391243D01*
X136486000Y-128148757D01*
X136438693Y-127910931D01*
X136345898Y-127686903D01*
X136211180Y-127485283D01*
X136039717Y-127313820D01*
X135838097Y-127179102D01*
X135614069Y-127086307D01*
X135376243Y-127039000D01*
X135133757Y-127039000D01*
X134895931Y-127086307D01*
X134671903Y-127179102D01*
X134470283Y-127313820D01*
X134458453Y-127325650D01*
X134454745Y-127313425D01*
X134407759Y-127225521D01*
X134344527Y-127148473D01*
X134325220Y-127132628D01*
X133852376Y-126659785D01*
X133836527Y-126640473D01*
X133759479Y-126577241D01*
X133671575Y-126530255D01*
X133659350Y-126526547D01*
X133671180Y-126514717D01*
X133805898Y-126313097D01*
X133898693Y-126089069D01*
X133946000Y-125851243D01*
X133946000Y-125608757D01*
X134024000Y-125608757D01*
X134024000Y-125851243D01*
X134071307Y-126089069D01*
X134164102Y-126313097D01*
X134298820Y-126514717D01*
X134470283Y-126686180D01*
X134671903Y-126820898D01*
X134895931Y-126913693D01*
X135133757Y-126961000D01*
X135376243Y-126961000D01*
X135614069Y-126913693D01*
X135838097Y-126820898D01*
X136039717Y-126686180D01*
X136211180Y-126514717D01*
X136345898Y-126313097D01*
X136438693Y-126089069D01*
X136486000Y-125851243D01*
X136486000Y-125608757D01*
X136438693Y-125370931D01*
X136345898Y-125146903D01*
X136211180Y-124945283D01*
X136039717Y-124773820D01*
X135838097Y-124639102D01*
X135614069Y-124546307D01*
X135376243Y-124499000D01*
X135133757Y-124499000D01*
X134895931Y-124546307D01*
X134671903Y-124639102D01*
X134470283Y-124773820D01*
X134298820Y-124945283D01*
X134164102Y-125146903D01*
X134071307Y-125370931D01*
X134024000Y-125608757D01*
X133946000Y-125608757D01*
X133898693Y-125370931D01*
X133805898Y-125146903D01*
X133671180Y-124945283D01*
X133499717Y-124773820D01*
X133298097Y-124639102D01*
X133074069Y-124546307D01*
X132836243Y-124499000D01*
X132593757Y-124499000D01*
X132355931Y-124546307D01*
X132131903Y-124639102D01*
X131930283Y-124773820D01*
X131758820Y-124945283D01*
X131624102Y-125146903D01*
X131531307Y-125370931D01*
X131484000Y-125608757D01*
X131484000Y-125851243D01*
X131531307Y-126089069D01*
X131624102Y-126313097D01*
X131744977Y-126494000D01*
X130384592Y-126494000D01*
X129665000Y-125774409D01*
X129665000Y-123506980D01*
X131525511Y-123506980D01*
X131549866Y-123587288D01*
X131649761Y-123806961D01*
X131790592Y-124002924D01*
X131966948Y-124167647D01*
X132172051Y-124294799D01*
X132398019Y-124379495D01*
X132588000Y-124319187D01*
X132588000Y-123317000D01*
X132842000Y-123317000D01*
X132842000Y-124319187D01*
X133031981Y-124379495D01*
X133257949Y-124294799D01*
X133463052Y-124167647D01*
X133639408Y-124002924D01*
X133780239Y-123806961D01*
X133880134Y-123587288D01*
X133904489Y-123506980D01*
X133843627Y-123317000D01*
X132842000Y-123317000D01*
X132588000Y-123317000D01*
X131586373Y-123317000D01*
X131525511Y-123506980D01*
X129665000Y-123506980D01*
X129665000Y-123068757D01*
X134024000Y-123068757D01*
X134024000Y-123311243D01*
X134071307Y-123549069D01*
X134164102Y-123773097D01*
X134298820Y-123974717D01*
X134470283Y-124146180D01*
X134671903Y-124280898D01*
X134895931Y-124373693D01*
X135133757Y-124421000D01*
X135376243Y-124421000D01*
X135614069Y-124373693D01*
X135838097Y-124280898D01*
X136039717Y-124146180D01*
X136211180Y-123974717D01*
X136345898Y-123773097D01*
X136438693Y-123549069D01*
X136486000Y-123311243D01*
X136486000Y-123068757D01*
X136438693Y-122830931D01*
X136345898Y-122606903D01*
X136211180Y-122405283D01*
X136039717Y-122233820D01*
X135838097Y-122099102D01*
X135614069Y-122006307D01*
X135376243Y-121959000D01*
X135133757Y-121959000D01*
X134895931Y-122006307D01*
X134671903Y-122099102D01*
X134470283Y-122233820D01*
X134298820Y-122405283D01*
X134164102Y-122606903D01*
X134071307Y-122830931D01*
X134024000Y-123068757D01*
X129665000Y-123068757D01*
X129665000Y-122873020D01*
X131525511Y-122873020D01*
X131586373Y-123063000D01*
X132588000Y-123063000D01*
X132588000Y-122060813D01*
X132842000Y-122060813D01*
X132842000Y-123063000D01*
X133843627Y-123063000D01*
X133904489Y-122873020D01*
X133880134Y-122792712D01*
X133780239Y-122573039D01*
X133639408Y-122377076D01*
X133463052Y-122212353D01*
X133257949Y-122085201D01*
X133031981Y-122000505D01*
X132842000Y-122060813D01*
X132588000Y-122060813D01*
X132398019Y-122000505D01*
X132172051Y-122085201D01*
X131966948Y-122212353D01*
X131790592Y-122377076D01*
X131649761Y-122573039D01*
X131549866Y-122792712D01*
X131525511Y-122873020D01*
X129665000Y-122873020D01*
X129665000Y-92277645D01*
X129667447Y-92252799D01*
X129665000Y-92227953D01*
X129665000Y-92227946D01*
X129657678Y-92153607D01*
X129628745Y-92058225D01*
X129581759Y-91970321D01*
X129518527Y-91893273D01*
X129499220Y-91877428D01*
X111631000Y-74009209D01*
X111631000Y-73995023D01*
X111811903Y-74115898D01*
X112035931Y-74208693D01*
X112273757Y-74256000D01*
X112516243Y-74256000D01*
X112754069Y-74208693D01*
X112978097Y-74115898D01*
X113179717Y-73981180D01*
X113351180Y-73809717D01*
X113485898Y-73608097D01*
X113578693Y-73384069D01*
X113626000Y-73146243D01*
X113626000Y-72903757D01*
X113704000Y-72903757D01*
X113704000Y-73146243D01*
X113751307Y-73384069D01*
X113844102Y-73608097D01*
X113978820Y-73809717D01*
X114150283Y-73981180D01*
X114351903Y-74115898D01*
X114575931Y-74208693D01*
X114813757Y-74256000D01*
X115056243Y-74256000D01*
X115294069Y-74208693D01*
X115518097Y-74115898D01*
X115719717Y-73981180D01*
X115891180Y-73809717D01*
X116025898Y-73608097D01*
X116118693Y-73384069D01*
X116127064Y-73341981D01*
X116285505Y-73341981D01*
X116370201Y-73567949D01*
X116497353Y-73773052D01*
X116662076Y-73949408D01*
X116858039Y-74090239D01*
X117077712Y-74190134D01*
X117158020Y-74214489D01*
X117348000Y-74153627D01*
X117348000Y-73152000D01*
X116345813Y-73152000D01*
X116285505Y-73341981D01*
X116127064Y-73341981D01*
X116166000Y-73146243D01*
X116166000Y-72903757D01*
X116127065Y-72708019D01*
X116285505Y-72708019D01*
X116345813Y-72898000D01*
X117348000Y-72898000D01*
X117348000Y-71896373D01*
X117602000Y-71896373D01*
X117602000Y-72898000D01*
X117622000Y-72898000D01*
X117622000Y-73152000D01*
X117602000Y-73152000D01*
X117602000Y-74153627D01*
X117791980Y-74214489D01*
X117872288Y-74190134D01*
X118091961Y-74090239D01*
X118239000Y-73984568D01*
X118239000Y-74397154D01*
X118236553Y-74422000D01*
X118239000Y-74446846D01*
X118239000Y-74446853D01*
X118246322Y-74521192D01*
X118275255Y-74616574D01*
X118322241Y-74704479D01*
X118385473Y-74781527D01*
X118404785Y-74797376D01*
X129669001Y-86061593D01*
X129669000Y-118085154D01*
X129666553Y-118110000D01*
X129669000Y-118134846D01*
X129669000Y-118134853D01*
X129676322Y-118209192D01*
X129705255Y-118304574D01*
X129752241Y-118392479D01*
X129815473Y-118469527D01*
X129834785Y-118485376D01*
X131069628Y-119720220D01*
X131085473Y-119739527D01*
X131162521Y-119802759D01*
X131250425Y-119849745D01*
X131345806Y-119878678D01*
X131355694Y-119879652D01*
X131420146Y-119886000D01*
X131420153Y-119886000D01*
X131444999Y-119888447D01*
X131469845Y-119886000D01*
X131744977Y-119886000D01*
X131624102Y-120066903D01*
X131531307Y-120290931D01*
X131484000Y-120528757D01*
X131484000Y-120771243D01*
X131531307Y-121009069D01*
X131624102Y-121233097D01*
X131758820Y-121434717D01*
X131930283Y-121606180D01*
X132131903Y-121740898D01*
X132355931Y-121833693D01*
X132593757Y-121881000D01*
X132836243Y-121881000D01*
X133074069Y-121833693D01*
X133298097Y-121740898D01*
X133499717Y-121606180D01*
X133671180Y-121434717D01*
X133805898Y-121233097D01*
X133898693Y-121009069D01*
X133946000Y-120771243D01*
X133946000Y-120528757D01*
X133898693Y-120290931D01*
X133805898Y-120066903D01*
X133685023Y-119886000D01*
X133775409Y-119886000D01*
X134103242Y-120213833D01*
X134071307Y-120290931D01*
X134024000Y-120528757D01*
X134024000Y-120771243D01*
X134071307Y-121009069D01*
X134164102Y-121233097D01*
X134298820Y-121434717D01*
X134470283Y-121606180D01*
X134671903Y-121740898D01*
X134895931Y-121833693D01*
X135133757Y-121881000D01*
X135376243Y-121881000D01*
X135614069Y-121833693D01*
X135838097Y-121740898D01*
X136039717Y-121606180D01*
X136211180Y-121434717D01*
X136345898Y-121233097D01*
X136438693Y-121009069D01*
X136486000Y-120771243D01*
X136486000Y-120528757D01*
X136438693Y-120290931D01*
X136345898Y-120066903D01*
X136211180Y-119865283D01*
X136039717Y-119693820D01*
X135838097Y-119559102D01*
X135614069Y-119466307D01*
X135376243Y-119419000D01*
X135133757Y-119419000D01*
X134895931Y-119466307D01*
X134818833Y-119498242D01*
X134360376Y-119039785D01*
X134344527Y-119020473D01*
X134267479Y-118957241D01*
X134179575Y-118910255D01*
X134084193Y-118881322D01*
X134009854Y-118874000D01*
X134009846Y-118874000D01*
X133985000Y-118871553D01*
X133960154Y-118874000D01*
X133685023Y-118874000D01*
X133805898Y-118693097D01*
X133898693Y-118469069D01*
X133907065Y-118426980D01*
X134065511Y-118426980D01*
X134089866Y-118507288D01*
X134189761Y-118726961D01*
X134330592Y-118922924D01*
X134506948Y-119087647D01*
X134712051Y-119214799D01*
X134938019Y-119299495D01*
X135128000Y-119239187D01*
X135128000Y-118237000D01*
X135382000Y-118237000D01*
X135382000Y-119239187D01*
X135571981Y-119299495D01*
X135797949Y-119214799D01*
X136003052Y-119087647D01*
X136179408Y-118922924D01*
X136320239Y-118726961D01*
X136420134Y-118507288D01*
X136444489Y-118426980D01*
X136383627Y-118237000D01*
X135382000Y-118237000D01*
X135128000Y-118237000D01*
X134126373Y-118237000D01*
X134065511Y-118426980D01*
X133907065Y-118426980D01*
X133946000Y-118231243D01*
X133946000Y-117988757D01*
X133907066Y-117793020D01*
X134065511Y-117793020D01*
X134126373Y-117983000D01*
X135128000Y-117983000D01*
X135128000Y-116980813D01*
X135382000Y-116980813D01*
X135382000Y-117983000D01*
X136383627Y-117983000D01*
X136444489Y-117793020D01*
X136420134Y-117712712D01*
X136320239Y-117493039D01*
X136179408Y-117297076D01*
X136003052Y-117132353D01*
X135797949Y-117005201D01*
X135571981Y-116920505D01*
X135382000Y-116980813D01*
X135128000Y-116980813D01*
X134938019Y-116920505D01*
X134712051Y-117005201D01*
X134506948Y-117132353D01*
X134330592Y-117297076D01*
X134189761Y-117493039D01*
X134089866Y-117712712D01*
X134065511Y-117793020D01*
X133907066Y-117793020D01*
X133898693Y-117750931D01*
X133805898Y-117526903D01*
X133671180Y-117325283D01*
X133499717Y-117153820D01*
X133298097Y-117019102D01*
X133074069Y-116926307D01*
X132836243Y-116879000D01*
X132593757Y-116879000D01*
X132355931Y-116926307D01*
X132131903Y-117019102D01*
X131930283Y-117153820D01*
X131758820Y-117325283D01*
X131624102Y-117526903D01*
X131531307Y-117750931D01*
X131484000Y-117988757D01*
X131484000Y-118231243D01*
X131531307Y-118469069D01*
X131624102Y-118693097D01*
X131744977Y-118874000D01*
X131654592Y-118874000D01*
X130681000Y-117900409D01*
X130681000Y-85876845D01*
X130683447Y-85851999D01*
X130681000Y-85827153D01*
X130681000Y-85827146D01*
X130673678Y-85752807D01*
X130644745Y-85657425D01*
X130597759Y-85569521D01*
X130534527Y-85492473D01*
X130515220Y-85476628D01*
X119251000Y-74212409D01*
X119251000Y-73995023D01*
X119431903Y-74115898D01*
X119655931Y-74208693D01*
X119893757Y-74256000D01*
X120136243Y-74256000D01*
X120374069Y-74208693D01*
X120598097Y-74115898D01*
X120799717Y-73981180D01*
X120971180Y-73809717D01*
X121105898Y-73608097D01*
X121198693Y-73384069D01*
X121246000Y-73146243D01*
X121246000Y-72903757D01*
X121198693Y-72665931D01*
X121105898Y-72441903D01*
X120971180Y-72240283D01*
X120799717Y-72068820D01*
X120598097Y-71934102D01*
X120374069Y-71841307D01*
X120136243Y-71794000D01*
X119893757Y-71794000D01*
X119655931Y-71841307D01*
X119431903Y-71934102D01*
X119251000Y-72054977D01*
X119251000Y-71964591D01*
X119540371Y-71675221D01*
X119540375Y-71675216D01*
X119578833Y-71636758D01*
X119655931Y-71668693D01*
X119893757Y-71716000D01*
X120136243Y-71716000D01*
X120374069Y-71668693D01*
X120598097Y-71575898D01*
X120799717Y-71441180D01*
X120971180Y-71269717D01*
X121105898Y-71068097D01*
X121198693Y-70844069D01*
X121207064Y-70801981D01*
X121365505Y-70801981D01*
X121450201Y-71027949D01*
X121577353Y-71233052D01*
X121742076Y-71409408D01*
X121938039Y-71550239D01*
X122157712Y-71650134D01*
X122238020Y-71674489D01*
X122428000Y-71613627D01*
X122428000Y-70612000D01*
X122682000Y-70612000D01*
X122682000Y-71613627D01*
X122871980Y-71674489D01*
X122952288Y-71650134D01*
X123171961Y-71550239D01*
X123367924Y-71409408D01*
X123532647Y-71233052D01*
X123659799Y-71027949D01*
X123744495Y-70801981D01*
X123684187Y-70612000D01*
X122682000Y-70612000D01*
X122428000Y-70612000D01*
X121425813Y-70612000D01*
X121365505Y-70801981D01*
X121207064Y-70801981D01*
X121246000Y-70606243D01*
X121246000Y-70363757D01*
X121207065Y-70168019D01*
X121365505Y-70168019D01*
X121425813Y-70358000D01*
X122428000Y-70358000D01*
X122428000Y-69356373D01*
X122682000Y-69356373D01*
X122682000Y-70358000D01*
X123684187Y-70358000D01*
X123744495Y-70168019D01*
X123659799Y-69942051D01*
X123532647Y-69736948D01*
X123367924Y-69560592D01*
X123171961Y-69419761D01*
X122952288Y-69319866D01*
X122871980Y-69295511D01*
X122682000Y-69356373D01*
X122428000Y-69356373D01*
X122238020Y-69295511D01*
X122157712Y-69319866D01*
X121938039Y-69419761D01*
X121742076Y-69560592D01*
X121577353Y-69736948D01*
X121450201Y-69942051D01*
X121365505Y-70168019D01*
X121207065Y-70168019D01*
X121198693Y-70125931D01*
X121105898Y-69901903D01*
X120971180Y-69700283D01*
X120799717Y-69528820D01*
X120598097Y-69394102D01*
X120374069Y-69301307D01*
X120136243Y-69254000D01*
X119893757Y-69254000D01*
X119655931Y-69301307D01*
X119431903Y-69394102D01*
X119230283Y-69528820D01*
X119058820Y-69700283D01*
X118924102Y-69901903D01*
X118831307Y-70125931D01*
X118784000Y-70363757D01*
X118784000Y-70606243D01*
X118831307Y-70844069D01*
X118863242Y-70921167D01*
X118824784Y-70959625D01*
X118824779Y-70959629D01*
X118404780Y-71379629D01*
X118385474Y-71395473D01*
X118322242Y-71472521D01*
X118302409Y-71509625D01*
X118275255Y-71560426D01*
X118246322Y-71655808D01*
X118236553Y-71755000D01*
X118239001Y-71779856D01*
X118239001Y-72065433D01*
X118091961Y-71959761D01*
X117872288Y-71859866D01*
X117791980Y-71835511D01*
X117602000Y-71896373D01*
X117348000Y-71896373D01*
X117158020Y-71835511D01*
X117077712Y-71859866D01*
X116858039Y-71959761D01*
X116662076Y-72100592D01*
X116497353Y-72276948D01*
X116370201Y-72482051D01*
X116285505Y-72708019D01*
X116127065Y-72708019D01*
X116118693Y-72665931D01*
X116025898Y-72441903D01*
X115891180Y-72240283D01*
X115719717Y-72068820D01*
X115518097Y-71934102D01*
X115294069Y-71841307D01*
X115056243Y-71794000D01*
X114813757Y-71794000D01*
X114575931Y-71841307D01*
X114351903Y-71934102D01*
X114150283Y-72068820D01*
X113978820Y-72240283D01*
X113844102Y-72441903D01*
X113751307Y-72665931D01*
X113704000Y-72903757D01*
X113626000Y-72903757D01*
X113578693Y-72665931D01*
X113485898Y-72441903D01*
X113351180Y-72240283D01*
X113179717Y-72068820D01*
X112978097Y-71934102D01*
X112754069Y-71841307D01*
X112516243Y-71794000D01*
X112273757Y-71794000D01*
X112035931Y-71841307D01*
X111811903Y-71934102D01*
X111631000Y-72054977D01*
X111631000Y-71779845D01*
X111633447Y-71754999D01*
X111631000Y-71730153D01*
X111631000Y-71730146D01*
X111623678Y-71655807D01*
X111622925Y-71653322D01*
X111594745Y-71560425D01*
X111581168Y-71535025D01*
X111547759Y-71472521D01*
X111484527Y-71395473D01*
X111465220Y-71379628D01*
X111006758Y-70921167D01*
X111038693Y-70844069D01*
X111086000Y-70606243D01*
X111086000Y-70363757D01*
X111164000Y-70363757D01*
X111164000Y-70606243D01*
X111211307Y-70844069D01*
X111304102Y-71068097D01*
X111438820Y-71269717D01*
X111610283Y-71441180D01*
X111811903Y-71575898D01*
X112035931Y-71668693D01*
X112273757Y-71716000D01*
X112516243Y-71716000D01*
X112754069Y-71668693D01*
X112978097Y-71575898D01*
X113179717Y-71441180D01*
X113351180Y-71269717D01*
X113485898Y-71068097D01*
X113578693Y-70844069D01*
X113626000Y-70606243D01*
X113626000Y-70363757D01*
X113704000Y-70363757D01*
X113704000Y-70606243D01*
X113751307Y-70844069D01*
X113844102Y-71068097D01*
X113978820Y-71269717D01*
X114150283Y-71441180D01*
X114351903Y-71575898D01*
X114575931Y-71668693D01*
X114813757Y-71716000D01*
X115056243Y-71716000D01*
X115294069Y-71668693D01*
X115518097Y-71575898D01*
X115719717Y-71441180D01*
X115891180Y-71269717D01*
X116025898Y-71068097D01*
X116118693Y-70844069D01*
X116166000Y-70606243D01*
X116166000Y-70363757D01*
X116244000Y-70363757D01*
X116244000Y-70606243D01*
X116291307Y-70844069D01*
X116384102Y-71068097D01*
X116518820Y-71269717D01*
X116690283Y-71441180D01*
X116891903Y-71575898D01*
X117115931Y-71668693D01*
X117353757Y-71716000D01*
X117596243Y-71716000D01*
X117834069Y-71668693D01*
X118058097Y-71575898D01*
X118259717Y-71441180D01*
X118431180Y-71269717D01*
X118565898Y-71068097D01*
X118658693Y-70844069D01*
X118706000Y-70606243D01*
X118706000Y-70363757D01*
X118658693Y-70125931D01*
X118565898Y-69901903D01*
X118431180Y-69700283D01*
X118259717Y-69528820D01*
X118058097Y-69394102D01*
X117834069Y-69301307D01*
X117596243Y-69254000D01*
X117353757Y-69254000D01*
X117115931Y-69301307D01*
X116891903Y-69394102D01*
X116690283Y-69528820D01*
X116518820Y-69700283D01*
X116384102Y-69901903D01*
X116291307Y-70125931D01*
X116244000Y-70363757D01*
X116166000Y-70363757D01*
X116118693Y-70125931D01*
X116025898Y-69901903D01*
X115891180Y-69700283D01*
X115719717Y-69528820D01*
X115518097Y-69394102D01*
X115294069Y-69301307D01*
X115056243Y-69254000D01*
X114813757Y-69254000D01*
X114575931Y-69301307D01*
X114351903Y-69394102D01*
X114150283Y-69528820D01*
X113978820Y-69700283D01*
X113844102Y-69901903D01*
X113751307Y-70125931D01*
X113704000Y-70363757D01*
X113626000Y-70363757D01*
X113578693Y-70125931D01*
X113485898Y-69901903D01*
X113351180Y-69700283D01*
X113179717Y-69528820D01*
X112978097Y-69394102D01*
X112754069Y-69301307D01*
X112516243Y-69254000D01*
X112273757Y-69254000D01*
X112035931Y-69301307D01*
X111811903Y-69394102D01*
X111610283Y-69528820D01*
X111438820Y-69700283D01*
X111304102Y-69901903D01*
X111211307Y-70125931D01*
X111164000Y-70363757D01*
X111086000Y-70363757D01*
X111038693Y-70125931D01*
X110945898Y-69901903D01*
X110811180Y-69700283D01*
X110639717Y-69528820D01*
X110438097Y-69394102D01*
X110214069Y-69301307D01*
X109976243Y-69254000D01*
X109733757Y-69254000D01*
X109495931Y-69301307D01*
X109271903Y-69394102D01*
X109070283Y-69528820D01*
X108898820Y-69700283D01*
X108764102Y-69901903D01*
X108671307Y-70125931D01*
X108624000Y-70363757D01*
X108624000Y-70606243D01*
X108671307Y-70844069D01*
X108764102Y-71068097D01*
X108898820Y-71269717D01*
X109070283Y-71441180D01*
X109271903Y-71575898D01*
X109495931Y-71668693D01*
X109733757Y-71716000D01*
X109976243Y-71716000D01*
X110214069Y-71668693D01*
X110291167Y-71636758D01*
X110619001Y-71964593D01*
X110619001Y-72054978D01*
X110438097Y-71934102D01*
X110214069Y-71841307D01*
X109976243Y-71794000D01*
X109733757Y-71794000D01*
X109495931Y-71841307D01*
X109271903Y-71934102D01*
X109091000Y-72054977D01*
X109091000Y-71779845D01*
X109093447Y-71754999D01*
X109091000Y-71730153D01*
X109091000Y-71730146D01*
X109083678Y-71655807D01*
X109082925Y-71653322D01*
X109054745Y-71560425D01*
X109041168Y-71535025D01*
X109007759Y-71472521D01*
X108944527Y-71395473D01*
X108925220Y-71379628D01*
X108466758Y-70921167D01*
X108498693Y-70844069D01*
X108546000Y-70606243D01*
X108546000Y-70363757D01*
X108498693Y-70125931D01*
X108405898Y-69901903D01*
X108271180Y-69700283D01*
X108099717Y-69528820D01*
X107898097Y-69394102D01*
X107674069Y-69301307D01*
X107436243Y-69254000D01*
X107193757Y-69254000D01*
X106955931Y-69301307D01*
X106731903Y-69394102D01*
X106530283Y-69528820D01*
X106358820Y-69700283D01*
X106224102Y-69901903D01*
X106131307Y-70125931D01*
X106084000Y-70363757D01*
X106006000Y-70363757D01*
X105958693Y-70125931D01*
X105926758Y-70048833D01*
X106751570Y-69224022D01*
X130662231Y-69224022D01*
X130939001Y-69500793D01*
X130939001Y-69514978D01*
X130758097Y-69394102D01*
X130534069Y-69301307D01*
X130296243Y-69254000D01*
X130053757Y-69254000D01*
X129815931Y-69301307D01*
X129591903Y-69394102D01*
X129390283Y-69528820D01*
X129218820Y-69700283D01*
X129084102Y-69901903D01*
X128991307Y-70125931D01*
X128944000Y-70363757D01*
X128944000Y-70606243D01*
X128991307Y-70844069D01*
X129023242Y-70921167D01*
X128564780Y-71379629D01*
X128545474Y-71395473D01*
X128482242Y-71472521D01*
X128462409Y-71509625D01*
X128435255Y-71560426D01*
X128406322Y-71655808D01*
X128396553Y-71755000D01*
X128399001Y-71779856D01*
X128399001Y-72065433D01*
X128251961Y-71959761D01*
X128032288Y-71859866D01*
X127951980Y-71835511D01*
X127762000Y-71896373D01*
X127762000Y-72898000D01*
X127782000Y-72898000D01*
X127782000Y-73152000D01*
X127762000Y-73152000D01*
X127762000Y-74153627D01*
X127951980Y-74214489D01*
X128032288Y-74190134D01*
X128251961Y-74090239D01*
X128399000Y-73984568D01*
X128399000Y-74778154D01*
X128396553Y-74803000D01*
X128399000Y-74827846D01*
X128399000Y-74827853D01*
X128406322Y-74902192D01*
X128435255Y-74997574D01*
X128482241Y-75085479D01*
X128545473Y-75162527D01*
X128564785Y-75178376D01*
X136146001Y-82759593D01*
X136146000Y-106721195D01*
X136105000Y-106717157D01*
X134491000Y-106717157D01*
X134491000Y-82447845D01*
X134493447Y-82422999D01*
X134491000Y-82398153D01*
X134491000Y-82398146D01*
X134483678Y-82323807D01*
X134454745Y-82228425D01*
X134407759Y-82140521D01*
X134344527Y-82063473D01*
X134325220Y-82047628D01*
X126896400Y-74618809D01*
X126896400Y-74002822D01*
X127018039Y-74090239D01*
X127237712Y-74190134D01*
X127318020Y-74214489D01*
X127508000Y-74153627D01*
X127508000Y-73152000D01*
X127488000Y-73152000D01*
X127488000Y-72898000D01*
X127508000Y-72898000D01*
X127508000Y-71896373D01*
X127318020Y-71835511D01*
X127237712Y-71859866D01*
X127018039Y-71959761D01*
X126896400Y-72047178D01*
X126896400Y-71939191D01*
X127198833Y-71636758D01*
X127275931Y-71668693D01*
X127513757Y-71716000D01*
X127756243Y-71716000D01*
X127994069Y-71668693D01*
X128218097Y-71575898D01*
X128419717Y-71441180D01*
X128591180Y-71269717D01*
X128725898Y-71068097D01*
X128818693Y-70844069D01*
X128866000Y-70606243D01*
X128866000Y-70363757D01*
X128818693Y-70125931D01*
X128725898Y-69901903D01*
X128591180Y-69700283D01*
X128419717Y-69528820D01*
X128218097Y-69394102D01*
X127994069Y-69301307D01*
X127756243Y-69254000D01*
X127513757Y-69254000D01*
X127275931Y-69301307D01*
X127051903Y-69394102D01*
X126850283Y-69528820D01*
X126678820Y-69700283D01*
X126544102Y-69901903D01*
X126451307Y-70125931D01*
X126404000Y-70363757D01*
X126404000Y-70606243D01*
X126451307Y-70844069D01*
X126483242Y-70921167D01*
X126050180Y-71354229D01*
X126030874Y-71370073D01*
X125967642Y-71447121D01*
X125954065Y-71472522D01*
X125920655Y-71535026D01*
X125891722Y-71630408D01*
X125881953Y-71729600D01*
X125884401Y-71754456D01*
X125884401Y-72073504D01*
X125879717Y-72068820D01*
X125678097Y-71934102D01*
X125454069Y-71841307D01*
X125216243Y-71794000D01*
X124973757Y-71794000D01*
X124735931Y-71841307D01*
X124511903Y-71934102D01*
X124381800Y-72021034D01*
X124381800Y-71913791D01*
X124658833Y-71636758D01*
X124735931Y-71668693D01*
X124973757Y-71716000D01*
X125216243Y-71716000D01*
X125454069Y-71668693D01*
X125678097Y-71575898D01*
X125879717Y-71441180D01*
X126051180Y-71269717D01*
X126185898Y-71068097D01*
X126278693Y-70844069D01*
X126326000Y-70606243D01*
X126326000Y-70363757D01*
X126278693Y-70125931D01*
X126185898Y-69901903D01*
X126051180Y-69700283D01*
X125879717Y-69528820D01*
X125678097Y-69394102D01*
X125454069Y-69301307D01*
X125216243Y-69254000D01*
X124973757Y-69254000D01*
X124735931Y-69301307D01*
X124511903Y-69394102D01*
X124310283Y-69528820D01*
X124138820Y-69700283D01*
X124004102Y-69901903D01*
X123911307Y-70125931D01*
X123864000Y-70363757D01*
X123864000Y-70606243D01*
X123911307Y-70844069D01*
X123943242Y-70921167D01*
X123535580Y-71328829D01*
X123516274Y-71344673D01*
X123453042Y-71421721D01*
X123439465Y-71447122D01*
X123406055Y-71509626D01*
X123377122Y-71605008D01*
X123367353Y-71704200D01*
X123369801Y-71729056D01*
X123369801Y-72098904D01*
X123339717Y-72068820D01*
X123138097Y-71934102D01*
X122914069Y-71841307D01*
X122676243Y-71794000D01*
X122433757Y-71794000D01*
X122195931Y-71841307D01*
X121971903Y-71934102D01*
X121770283Y-72068820D01*
X121598820Y-72240283D01*
X121464102Y-72441903D01*
X121371307Y-72665931D01*
X121324000Y-72903757D01*
X121324000Y-73146243D01*
X121371307Y-73384069D01*
X121464102Y-73608097D01*
X121598820Y-73809717D01*
X121770283Y-73981180D01*
X121971903Y-74115898D01*
X122195931Y-74208693D01*
X122433757Y-74256000D01*
X122676243Y-74256000D01*
X122914069Y-74208693D01*
X123138097Y-74115898D01*
X123339717Y-73981180D01*
X123369800Y-73951097D01*
X123369800Y-75590954D01*
X123367353Y-75615800D01*
X123369800Y-75640646D01*
X123369800Y-75640653D01*
X123377122Y-75714992D01*
X123406055Y-75810374D01*
X123453041Y-75898279D01*
X123516273Y-75975327D01*
X123535585Y-75991176D01*
X130939001Y-83394593D01*
X130939000Y-113563954D01*
X130936553Y-113588800D01*
X130939000Y-113613646D01*
X130939000Y-113613653D01*
X130946322Y-113687992D01*
X130975255Y-113783374D01*
X131022241Y-113871279D01*
X131085473Y-113948327D01*
X131104785Y-113964176D01*
X131780828Y-114640220D01*
X131796673Y-114659527D01*
X131844953Y-114699150D01*
X131758820Y-114785283D01*
X131624102Y-114986903D01*
X131531307Y-115210931D01*
X131484000Y-115448757D01*
X131484000Y-115691243D01*
X131531307Y-115929069D01*
X131624102Y-116153097D01*
X131758820Y-116354717D01*
X131930283Y-116526180D01*
X132131903Y-116660898D01*
X132355931Y-116753693D01*
X132593757Y-116801000D01*
X132836243Y-116801000D01*
X133074069Y-116753693D01*
X133298097Y-116660898D01*
X133499717Y-116526180D01*
X133671180Y-116354717D01*
X133805898Y-116153097D01*
X133898693Y-115929069D01*
X133946000Y-115691243D01*
X133946000Y-115448757D01*
X133898693Y-115210931D01*
X133805898Y-114986903D01*
X133685023Y-114806000D01*
X133775409Y-114806000D01*
X134103242Y-115133833D01*
X134071307Y-115210931D01*
X134024000Y-115448757D01*
X134024000Y-115691243D01*
X134071307Y-115929069D01*
X134164102Y-116153097D01*
X134298820Y-116354717D01*
X134470283Y-116526180D01*
X134671903Y-116660898D01*
X134895931Y-116753693D01*
X135133757Y-116801000D01*
X135376243Y-116801000D01*
X135614069Y-116753693D01*
X135838097Y-116660898D01*
X136039717Y-116526180D01*
X136211180Y-116354717D01*
X136345898Y-116153097D01*
X136438693Y-115929069D01*
X136486000Y-115691243D01*
X136486000Y-115448757D01*
X136438693Y-115210931D01*
X136345898Y-114986903D01*
X136211180Y-114785283D01*
X136039717Y-114613820D01*
X135838097Y-114479102D01*
X135614069Y-114386307D01*
X135376243Y-114339000D01*
X135133757Y-114339000D01*
X134895931Y-114386307D01*
X134818833Y-114418242D01*
X134360376Y-113959785D01*
X134344527Y-113940473D01*
X134267479Y-113877241D01*
X134179575Y-113830255D01*
X134084193Y-113801322D01*
X134009854Y-113794000D01*
X134009846Y-113794000D01*
X133985000Y-113791553D01*
X133960154Y-113794000D01*
X133674568Y-113794000D01*
X133780239Y-113646961D01*
X133880134Y-113427288D01*
X133904489Y-113346980D01*
X133843627Y-113157000D01*
X132842000Y-113157000D01*
X132842000Y-113177000D01*
X132588000Y-113177000D01*
X132588000Y-113157000D01*
X132568000Y-113157000D01*
X132568000Y-112903000D01*
X132588000Y-112903000D01*
X132588000Y-111900813D01*
X132842000Y-111900813D01*
X132842000Y-112903000D01*
X133843627Y-112903000D01*
X133904489Y-112713020D01*
X133880134Y-112632712D01*
X133780239Y-112413039D01*
X133639408Y-112217076D01*
X133463052Y-112052353D01*
X133257949Y-111925201D01*
X133031981Y-111840505D01*
X132842000Y-111900813D01*
X132588000Y-111900813D01*
X132398019Y-111840505D01*
X132172051Y-111925201D01*
X131966948Y-112052353D01*
X131951000Y-112067249D01*
X131951000Y-111460023D01*
X132131903Y-111580898D01*
X132355931Y-111673693D01*
X132593757Y-111721000D01*
X132836243Y-111721000D01*
X133074069Y-111673693D01*
X133298097Y-111580898D01*
X133479000Y-111460023D01*
X133479000Y-111735154D01*
X133476553Y-111760000D01*
X133479000Y-111784846D01*
X133479000Y-111784853D01*
X133486322Y-111859192D01*
X133515255Y-111954574D01*
X133562241Y-112042479D01*
X133625473Y-112119527D01*
X133644785Y-112135376D01*
X134103242Y-112593833D01*
X134071307Y-112670931D01*
X134024000Y-112908757D01*
X134024000Y-113151243D01*
X134071307Y-113389069D01*
X134164102Y-113613097D01*
X134298820Y-113814717D01*
X134470283Y-113986180D01*
X134671903Y-114120898D01*
X134895931Y-114213693D01*
X135133757Y-114261000D01*
X135376243Y-114261000D01*
X135614069Y-114213693D01*
X135838097Y-114120898D01*
X136039717Y-113986180D01*
X136211180Y-113814717D01*
X136345898Y-113613097D01*
X136438693Y-113389069D01*
X136486000Y-113151243D01*
X136486000Y-112908757D01*
X136438693Y-112670931D01*
X136345898Y-112446903D01*
X136211180Y-112245283D01*
X136039717Y-112073820D01*
X135838097Y-111939102D01*
X135614069Y-111846307D01*
X135376243Y-111799000D01*
X135133757Y-111799000D01*
X134895931Y-111846307D01*
X134818833Y-111878242D01*
X134491000Y-111550409D01*
X134491000Y-111460023D01*
X134671903Y-111580898D01*
X134895931Y-111673693D01*
X135133757Y-111721000D01*
X135376243Y-111721000D01*
X135614069Y-111673693D01*
X135838097Y-111580898D01*
X136039717Y-111446180D01*
X136211180Y-111274717D01*
X136345898Y-111073097D01*
X136438693Y-110849069D01*
X136486000Y-110611243D01*
X136486000Y-110368757D01*
X136438693Y-110130931D01*
X136406758Y-110053833D01*
X136992220Y-109468372D01*
X137011527Y-109452527D01*
X137074759Y-109375479D01*
X137121745Y-109287575D01*
X137150678Y-109192193D01*
X137158000Y-109117854D01*
X137158000Y-109117847D01*
X137160447Y-109093001D01*
X137158000Y-109068155D01*
X137158000Y-82574845D01*
X137160447Y-82549999D01*
X137158000Y-82525153D01*
X137158000Y-82525146D01*
X137150678Y-82450807D01*
X137121745Y-82355425D01*
X137074759Y-82267521D01*
X137011527Y-82190473D01*
X136992220Y-82174628D01*
X129411000Y-74593409D01*
X129411000Y-73995023D01*
X129591903Y-74115898D01*
X129815931Y-74208693D01*
X130053757Y-74256000D01*
X130296243Y-74256000D01*
X130534069Y-74208693D01*
X130758097Y-74115898D01*
X130939000Y-73995023D01*
X130939000Y-74905154D01*
X130936553Y-74930000D01*
X130939000Y-74954846D01*
X130939000Y-74954853D01*
X130946322Y-75029192D01*
X130975255Y-75124574D01*
X131022241Y-75212479D01*
X131085473Y-75289527D01*
X131104785Y-75305376D01*
X138686001Y-82886593D01*
X138686000Y-131743408D01*
X135691167Y-134738242D01*
X135614069Y-134706307D01*
X135376243Y-134659000D01*
X135133757Y-134659000D01*
X134895931Y-134706307D01*
X134671903Y-134799102D01*
X134470283Y-134933820D01*
X134298820Y-135105283D01*
X134164102Y-135306903D01*
X134071307Y-135530931D01*
X134024000Y-135768757D01*
X134024000Y-136011243D01*
X134071307Y-136249069D01*
X134164102Y-136473097D01*
X134298820Y-136674717D01*
X134470283Y-136846180D01*
X134671903Y-136980898D01*
X134895931Y-137073693D01*
X135133757Y-137121000D01*
X135376243Y-137121000D01*
X135614069Y-137073693D01*
X135838097Y-136980898D01*
X136039717Y-136846180D01*
X136211180Y-136674717D01*
X136345898Y-136473097D01*
X136438693Y-136249069D01*
X136486000Y-136011243D01*
X136486000Y-135768757D01*
X136438693Y-135530931D01*
X136406758Y-135453833D01*
X139321000Y-132539592D01*
X139321000Y-141268408D01*
X135691167Y-144898242D01*
X135614069Y-144866307D01*
X135376243Y-144819000D01*
X135133757Y-144819000D01*
X134895931Y-144866307D01*
X134671903Y-144959102D01*
X134470283Y-145093820D01*
X134298820Y-145265283D01*
X134164102Y-145466903D01*
X134071307Y-145690931D01*
X134024000Y-145928757D01*
X134024000Y-146171243D01*
X134071307Y-146409069D01*
X134164102Y-146633097D01*
X134298820Y-146834717D01*
X134470283Y-147006180D01*
X134671903Y-147140898D01*
X134895931Y-147233693D01*
X135133757Y-147281000D01*
X135376243Y-147281000D01*
X135614069Y-147233693D01*
X135838097Y-147140898D01*
X136039717Y-147006180D01*
X136211180Y-146834717D01*
X136345898Y-146633097D01*
X136438693Y-146409069D01*
X136486000Y-146171243D01*
X136486000Y-145928757D01*
X136438693Y-145690931D01*
X136406758Y-145613833D01*
X139956000Y-142064592D01*
X139956000Y-143300408D01*
X135780970Y-147475439D01*
X135614069Y-147406307D01*
X135376243Y-147359000D01*
X135133757Y-147359000D01*
X134895931Y-147406307D01*
X134671903Y-147499102D01*
X134470283Y-147633820D01*
X134298820Y-147805283D01*
X134164102Y-148006903D01*
X134071307Y-148230931D01*
X134024000Y-148468757D01*
X134024000Y-148711243D01*
X134071307Y-148949069D01*
X134164102Y-149173097D01*
X134298820Y-149374717D01*
X134470283Y-149546180D01*
X134671903Y-149680898D01*
X134895931Y-149773693D01*
X135133757Y-149821000D01*
X135376243Y-149821000D01*
X135614069Y-149773693D01*
X135838097Y-149680898D01*
X136039717Y-149546180D01*
X136211180Y-149374717D01*
X136345898Y-149173097D01*
X136438693Y-148949069D01*
X136486000Y-148711243D01*
X136486000Y-148468757D01*
X136441674Y-148245917D01*
X140564000Y-144123592D01*
X140564000Y-155555146D01*
X140521449Y-155989115D01*
X140401181Y-156387464D01*
X140205831Y-156754862D01*
X139942845Y-157077315D01*
X139622226Y-157342554D01*
X139256204Y-157540461D01*
X138858708Y-157663506D01*
X138425863Y-157709000D01*
X128289854Y-157709000D01*
X127855885Y-157666449D01*
X127457536Y-157546181D01*
X127090138Y-157350831D01*
X126767685Y-157087845D01*
X126502446Y-156767226D01*
X126304539Y-156401204D01*
X126207821Y-156088757D01*
X131484000Y-156088757D01*
X131484000Y-156331243D01*
X131531307Y-156569069D01*
X131624102Y-156793097D01*
X131758820Y-156994717D01*
X131930283Y-157166180D01*
X132131903Y-157300898D01*
X132355931Y-157393693D01*
X132593757Y-157441000D01*
X132836243Y-157441000D01*
X133074069Y-157393693D01*
X133298097Y-157300898D01*
X133499717Y-157166180D01*
X133671180Y-156994717D01*
X133805898Y-156793097D01*
X133898693Y-156569069D01*
X133907065Y-156526980D01*
X134065511Y-156526980D01*
X134089866Y-156607288D01*
X134189761Y-156826961D01*
X134330592Y-157022924D01*
X134506948Y-157187647D01*
X134712051Y-157314799D01*
X134938019Y-157399495D01*
X135128000Y-157339187D01*
X135128000Y-156337000D01*
X135382000Y-156337000D01*
X135382000Y-157339187D01*
X135571981Y-157399495D01*
X135797949Y-157314799D01*
X136003052Y-157187647D01*
X136179408Y-157022924D01*
X136320239Y-156826961D01*
X136420134Y-156607288D01*
X136444489Y-156526980D01*
X136383627Y-156337000D01*
X135382000Y-156337000D01*
X135128000Y-156337000D01*
X134126373Y-156337000D01*
X134065511Y-156526980D01*
X133907065Y-156526980D01*
X133946000Y-156331243D01*
X133946000Y-156088757D01*
X133907066Y-155893020D01*
X134065511Y-155893020D01*
X134126373Y-156083000D01*
X135128000Y-156083000D01*
X135128000Y-155080813D01*
X135382000Y-155080813D01*
X135382000Y-156083000D01*
X136383627Y-156083000D01*
X136444489Y-155893020D01*
X136420134Y-155812712D01*
X136320239Y-155593039D01*
X136179408Y-155397076D01*
X136003052Y-155232353D01*
X135797949Y-155105201D01*
X135571981Y-155020505D01*
X135382000Y-155080813D01*
X135128000Y-155080813D01*
X134938019Y-155020505D01*
X134712051Y-155105201D01*
X134506948Y-155232353D01*
X134330592Y-155397076D01*
X134189761Y-155593039D01*
X134089866Y-155812712D01*
X134065511Y-155893020D01*
X133907066Y-155893020D01*
X133898693Y-155850931D01*
X133805898Y-155626903D01*
X133671180Y-155425283D01*
X133499717Y-155253820D01*
X133298097Y-155119102D01*
X133074069Y-155026307D01*
X132836243Y-154979000D01*
X132593757Y-154979000D01*
X132355931Y-155026307D01*
X132131903Y-155119102D01*
X131930283Y-155253820D01*
X131758820Y-155425283D01*
X131624102Y-155626903D01*
X131531307Y-155850931D01*
X131484000Y-156088757D01*
X126207821Y-156088757D01*
X126181494Y-156003708D01*
X126136000Y-155570863D01*
X126136000Y-153548757D01*
X131484000Y-153548757D01*
X131484000Y-153791243D01*
X131531307Y-154029069D01*
X131624102Y-154253097D01*
X131758820Y-154454717D01*
X131930283Y-154626180D01*
X132131903Y-154760898D01*
X132355931Y-154853693D01*
X132593757Y-154901000D01*
X132836243Y-154901000D01*
X133074069Y-154853693D01*
X133298097Y-154760898D01*
X133499717Y-154626180D01*
X133671180Y-154454717D01*
X133805898Y-154253097D01*
X133898693Y-154029069D01*
X133946000Y-153791243D01*
X133946000Y-153548757D01*
X134024000Y-153548757D01*
X134024000Y-153791243D01*
X134071307Y-154029069D01*
X134164102Y-154253097D01*
X134298820Y-154454717D01*
X134470283Y-154626180D01*
X134671903Y-154760898D01*
X134895931Y-154853693D01*
X135133757Y-154901000D01*
X135376243Y-154901000D01*
X135614069Y-154853693D01*
X135838097Y-154760898D01*
X136039717Y-154626180D01*
X136211180Y-154454717D01*
X136345898Y-154253097D01*
X136438693Y-154029069D01*
X136486000Y-153791243D01*
X136486000Y-153548757D01*
X136438693Y-153310931D01*
X136345898Y-153086903D01*
X136211180Y-152885283D01*
X136039717Y-152713820D01*
X135838097Y-152579102D01*
X135614069Y-152486307D01*
X135376243Y-152439000D01*
X135133757Y-152439000D01*
X134895931Y-152486307D01*
X134671903Y-152579102D01*
X134470283Y-152713820D01*
X134298820Y-152885283D01*
X134164102Y-153086903D01*
X134071307Y-153310931D01*
X134024000Y-153548757D01*
X133946000Y-153548757D01*
X133898693Y-153310931D01*
X133805898Y-153086903D01*
X133671180Y-152885283D01*
X133499717Y-152713820D01*
X133298097Y-152579102D01*
X133074069Y-152486307D01*
X132836243Y-152439000D01*
X132593757Y-152439000D01*
X132355931Y-152486307D01*
X132131903Y-152579102D01*
X131930283Y-152713820D01*
X131758820Y-152885283D01*
X131624102Y-153086903D01*
X131531307Y-153310931D01*
X131484000Y-153548757D01*
X126136000Y-153548757D01*
X126136000Y-151008757D01*
X131484000Y-151008757D01*
X131484000Y-151251243D01*
X131531307Y-151489069D01*
X131624102Y-151713097D01*
X131758820Y-151914717D01*
X131930283Y-152086180D01*
X132131903Y-152220898D01*
X132355931Y-152313693D01*
X132593757Y-152361000D01*
X132836243Y-152361000D01*
X133074069Y-152313693D01*
X133298097Y-152220898D01*
X133499717Y-152086180D01*
X133671180Y-151914717D01*
X133805898Y-151713097D01*
X133898693Y-151489069D01*
X133946000Y-151251243D01*
X133946000Y-151008757D01*
X134024000Y-151008757D01*
X134024000Y-151251243D01*
X134071307Y-151489069D01*
X134164102Y-151713097D01*
X134298820Y-151914717D01*
X134470283Y-152086180D01*
X134671903Y-152220898D01*
X134895931Y-152313693D01*
X135133757Y-152361000D01*
X135376243Y-152361000D01*
X135614069Y-152313693D01*
X135838097Y-152220898D01*
X136039717Y-152086180D01*
X136211180Y-151914717D01*
X136345898Y-151713097D01*
X136438693Y-151489069D01*
X136486000Y-151251243D01*
X136486000Y-151008757D01*
X136438693Y-150770931D01*
X136345898Y-150546903D01*
X136211180Y-150345283D01*
X136039717Y-150173820D01*
X135838097Y-150039102D01*
X135614069Y-149946307D01*
X135376243Y-149899000D01*
X135133757Y-149899000D01*
X134895931Y-149946307D01*
X134671903Y-150039102D01*
X134470283Y-150173820D01*
X134298820Y-150345283D01*
X134164102Y-150546903D01*
X134071307Y-150770931D01*
X134024000Y-151008757D01*
X133946000Y-151008757D01*
X133898693Y-150770931D01*
X133805898Y-150546903D01*
X133671180Y-150345283D01*
X133499717Y-150173820D01*
X133298097Y-150039102D01*
X133074069Y-149946307D01*
X132836243Y-149899000D01*
X132593757Y-149899000D01*
X132355931Y-149946307D01*
X132131903Y-150039102D01*
X131930283Y-150173820D01*
X131758820Y-150345283D01*
X131624102Y-150546903D01*
X131531307Y-150770931D01*
X131484000Y-151008757D01*
X126136000Y-151008757D01*
X126136000Y-148906980D01*
X131525511Y-148906980D01*
X131549866Y-148987288D01*
X131649761Y-149206961D01*
X131790592Y-149402924D01*
X131966948Y-149567647D01*
X132172051Y-149694799D01*
X132398019Y-149779495D01*
X132588000Y-149719187D01*
X132588000Y-148717000D01*
X132842000Y-148717000D01*
X132842000Y-149719187D01*
X133031981Y-149779495D01*
X133257949Y-149694799D01*
X133463052Y-149567647D01*
X133639408Y-149402924D01*
X133780239Y-149206961D01*
X133880134Y-148987288D01*
X133904489Y-148906980D01*
X133843627Y-148717000D01*
X132842000Y-148717000D01*
X132588000Y-148717000D01*
X131586373Y-148717000D01*
X131525511Y-148906980D01*
X126136000Y-148906980D01*
X126136000Y-148273020D01*
X131525511Y-148273020D01*
X131586373Y-148463000D01*
X132588000Y-148463000D01*
X132588000Y-147460813D01*
X132842000Y-147460813D01*
X132842000Y-148463000D01*
X133843627Y-148463000D01*
X133904489Y-148273020D01*
X133880134Y-148192712D01*
X133780239Y-147973039D01*
X133639408Y-147777076D01*
X133463052Y-147612353D01*
X133257949Y-147485201D01*
X133031981Y-147400505D01*
X132842000Y-147460813D01*
X132588000Y-147460813D01*
X132398019Y-147400505D01*
X132172051Y-147485201D01*
X131966948Y-147612353D01*
X131790592Y-147777076D01*
X131649761Y-147973039D01*
X131549866Y-148192712D01*
X131525511Y-148273020D01*
X126136000Y-148273020D01*
X126136000Y-145928757D01*
X131484000Y-145928757D01*
X131484000Y-146171243D01*
X131531307Y-146409069D01*
X131624102Y-146633097D01*
X131758820Y-146834717D01*
X131930283Y-147006180D01*
X132131903Y-147140898D01*
X132355931Y-147233693D01*
X132593757Y-147281000D01*
X132836243Y-147281000D01*
X133074069Y-147233693D01*
X133298097Y-147140898D01*
X133499717Y-147006180D01*
X133671180Y-146834717D01*
X133805898Y-146633097D01*
X133898693Y-146409069D01*
X133946000Y-146171243D01*
X133946000Y-145928757D01*
X133898693Y-145690931D01*
X133805898Y-145466903D01*
X133671180Y-145265283D01*
X133499717Y-145093820D01*
X133298097Y-144959102D01*
X133074069Y-144866307D01*
X132836243Y-144819000D01*
X132593757Y-144819000D01*
X132355931Y-144866307D01*
X132131903Y-144959102D01*
X131930283Y-145093820D01*
X131758820Y-145265283D01*
X131624102Y-145466903D01*
X131531307Y-145690931D01*
X131484000Y-145928757D01*
X126136000Y-145928757D01*
X126136000Y-143826980D01*
X131525511Y-143826980D01*
X131549866Y-143907288D01*
X131649761Y-144126961D01*
X131790592Y-144322924D01*
X131966948Y-144487647D01*
X132172051Y-144614799D01*
X132398019Y-144699495D01*
X132588000Y-144639187D01*
X132588000Y-143637000D01*
X132842000Y-143637000D01*
X132842000Y-144639187D01*
X133031981Y-144699495D01*
X133257949Y-144614799D01*
X133463052Y-144487647D01*
X133639408Y-144322924D01*
X133780239Y-144126961D01*
X133880134Y-143907288D01*
X133904489Y-143826980D01*
X133843627Y-143637000D01*
X132842000Y-143637000D01*
X132588000Y-143637000D01*
X131586373Y-143637000D01*
X131525511Y-143826980D01*
X126136000Y-143826980D01*
X126136000Y-95269932D01*
X126137963Y-95249999D01*
X126136000Y-95230066D01*
X126136000Y-95230059D01*
X126130125Y-95170410D01*
X126106910Y-95093879D01*
X126069210Y-95023347D01*
X126018474Y-94961526D01*
X126002988Y-94948817D01*
X110156193Y-79102024D01*
X110143474Y-79086526D01*
X110081653Y-79035790D01*
X110011121Y-78998090D01*
X109934590Y-78974875D01*
X109874941Y-78969000D01*
X109874933Y-78969000D01*
X109855000Y-78967037D01*
X109835067Y-78969000D01*
X79394853Y-78969000D01*
X78837547Y-78914356D01*
X78320560Y-78758268D01*
X77843737Y-78504737D01*
X77425240Y-78163419D01*
X77081008Y-77747314D01*
X76824154Y-77272274D01*
X76664464Y-76756395D01*
X76606004Y-76200188D01*
X76606000Y-76199166D01*
X76606000Y-72903757D01*
X83224000Y-72903757D01*
X83224000Y-73146243D01*
X83271307Y-73384069D01*
X83364102Y-73608097D01*
X83498820Y-73809717D01*
X83670283Y-73981180D01*
X83871903Y-74115898D01*
X84095931Y-74208693D01*
X84333757Y-74256000D01*
X84576243Y-74256000D01*
X84814069Y-74208693D01*
X85038097Y-74115898D01*
X85239717Y-73981180D01*
X85411180Y-73809717D01*
X85545898Y-73608097D01*
X85638693Y-73384069D01*
X85686000Y-73146243D01*
X85686000Y-72903757D01*
X85764000Y-72903757D01*
X85764000Y-73146243D01*
X85811307Y-73384069D01*
X85904102Y-73608097D01*
X86038820Y-73809717D01*
X86210283Y-73981180D01*
X86411903Y-74115898D01*
X86635931Y-74208693D01*
X86873757Y-74256000D01*
X87116243Y-74256000D01*
X87354069Y-74208693D01*
X87578097Y-74115898D01*
X87779717Y-73981180D01*
X87951180Y-73809717D01*
X88085898Y-73608097D01*
X88178693Y-73384069D01*
X88226000Y-73146243D01*
X88226000Y-72903757D01*
X88304000Y-72903757D01*
X88304000Y-73146243D01*
X88351307Y-73384069D01*
X88444102Y-73608097D01*
X88578820Y-73809717D01*
X88750283Y-73981180D01*
X88951903Y-74115898D01*
X89175931Y-74208693D01*
X89413757Y-74256000D01*
X89656243Y-74256000D01*
X89894069Y-74208693D01*
X90118097Y-74115898D01*
X90319717Y-73981180D01*
X90491180Y-73809717D01*
X90625898Y-73608097D01*
X90718693Y-73384069D01*
X90727064Y-73341981D01*
X90885505Y-73341981D01*
X90970201Y-73567949D01*
X91097353Y-73773052D01*
X91262076Y-73949408D01*
X91458039Y-74090239D01*
X91677712Y-74190134D01*
X91758020Y-74214489D01*
X91948000Y-74153627D01*
X91948000Y-73152000D01*
X92202000Y-73152000D01*
X92202000Y-74153627D01*
X92391980Y-74214489D01*
X92472288Y-74190134D01*
X92691961Y-74090239D01*
X92887924Y-73949408D01*
X93052647Y-73773052D01*
X93179799Y-73567949D01*
X93264495Y-73341981D01*
X93204187Y-73152000D01*
X92202000Y-73152000D01*
X91948000Y-73152000D01*
X90945813Y-73152000D01*
X90885505Y-73341981D01*
X90727064Y-73341981D01*
X90766000Y-73146243D01*
X90766000Y-72903757D01*
X93384000Y-72903757D01*
X93384000Y-73146243D01*
X93431307Y-73384069D01*
X93524102Y-73608097D01*
X93658820Y-73809717D01*
X93830283Y-73981180D01*
X94031903Y-74115898D01*
X94255931Y-74208693D01*
X94493757Y-74256000D01*
X94736243Y-74256000D01*
X94974069Y-74208693D01*
X95198097Y-74115898D01*
X95399717Y-73981180D01*
X95571180Y-73809717D01*
X95705898Y-73608097D01*
X95798693Y-73384069D01*
X95807064Y-73341981D01*
X95965505Y-73341981D01*
X96050201Y-73567949D01*
X96177353Y-73773052D01*
X96342076Y-73949408D01*
X96538039Y-74090239D01*
X96757712Y-74190134D01*
X96838020Y-74214489D01*
X97028000Y-74153627D01*
X97028000Y-73152000D01*
X96025813Y-73152000D01*
X95965505Y-73341981D01*
X95807064Y-73341981D01*
X95846000Y-73146243D01*
X95846000Y-72903757D01*
X95807065Y-72708019D01*
X95965505Y-72708019D01*
X96025813Y-72898000D01*
X97028000Y-72898000D01*
X97028000Y-71896373D01*
X96838020Y-71835511D01*
X96757712Y-71859866D01*
X96538039Y-71959761D01*
X96342076Y-72100592D01*
X96177353Y-72276948D01*
X96050201Y-72482051D01*
X95965505Y-72708019D01*
X95807065Y-72708019D01*
X95798693Y-72665931D01*
X95705898Y-72441903D01*
X95571180Y-72240283D01*
X95399717Y-72068820D01*
X95198097Y-71934102D01*
X94974069Y-71841307D01*
X94736243Y-71794000D01*
X94493757Y-71794000D01*
X94255931Y-71841307D01*
X94031903Y-71934102D01*
X93830283Y-72068820D01*
X93658820Y-72240283D01*
X93524102Y-72441903D01*
X93431307Y-72665931D01*
X93384000Y-72903757D01*
X90766000Y-72903757D01*
X90727065Y-72708019D01*
X90885505Y-72708019D01*
X90945813Y-72898000D01*
X91948000Y-72898000D01*
X91948000Y-71896373D01*
X92202000Y-71896373D01*
X92202000Y-72898000D01*
X93204187Y-72898000D01*
X93264495Y-72708019D01*
X93179799Y-72482051D01*
X93052647Y-72276948D01*
X92887924Y-72100592D01*
X92691961Y-71959761D01*
X92472288Y-71859866D01*
X92391980Y-71835511D01*
X92202000Y-71896373D01*
X91948000Y-71896373D01*
X91758020Y-71835511D01*
X91677712Y-71859866D01*
X91458039Y-71959761D01*
X91262076Y-72100592D01*
X91097353Y-72276948D01*
X90970201Y-72482051D01*
X90885505Y-72708019D01*
X90727065Y-72708019D01*
X90718693Y-72665931D01*
X90625898Y-72441903D01*
X90491180Y-72240283D01*
X90319717Y-72068820D01*
X90118097Y-71934102D01*
X89894069Y-71841307D01*
X89656243Y-71794000D01*
X89413757Y-71794000D01*
X89175931Y-71841307D01*
X88951903Y-71934102D01*
X88750283Y-72068820D01*
X88578820Y-72240283D01*
X88444102Y-72441903D01*
X88351307Y-72665931D01*
X88304000Y-72903757D01*
X88226000Y-72903757D01*
X88178693Y-72665931D01*
X88085898Y-72441903D01*
X87951180Y-72240283D01*
X87779717Y-72068820D01*
X87578097Y-71934102D01*
X87354069Y-71841307D01*
X87116243Y-71794000D01*
X86873757Y-71794000D01*
X86635931Y-71841307D01*
X86411903Y-71934102D01*
X86210283Y-72068820D01*
X86038820Y-72240283D01*
X85904102Y-72441903D01*
X85811307Y-72665931D01*
X85764000Y-72903757D01*
X85686000Y-72903757D01*
X85638693Y-72665931D01*
X85545898Y-72441903D01*
X85411180Y-72240283D01*
X85239717Y-72068820D01*
X85038097Y-71934102D01*
X84814069Y-71841307D01*
X84576243Y-71794000D01*
X84333757Y-71794000D01*
X84095931Y-71841307D01*
X83871903Y-71934102D01*
X83670283Y-72068820D01*
X83498820Y-72240283D01*
X83364102Y-72441903D01*
X83271307Y-72665931D01*
X83224000Y-72903757D01*
X76606000Y-72903757D01*
X76606000Y-70801981D01*
X83265505Y-70801981D01*
X83350201Y-71027949D01*
X83477353Y-71233052D01*
X83642076Y-71409408D01*
X83838039Y-71550239D01*
X84057712Y-71650134D01*
X84138020Y-71674489D01*
X84328000Y-71613627D01*
X84328000Y-70612000D01*
X84582000Y-70612000D01*
X84582000Y-71613627D01*
X84771980Y-71674489D01*
X84852288Y-71650134D01*
X85071961Y-71550239D01*
X85267924Y-71409408D01*
X85432647Y-71233052D01*
X85559799Y-71027949D01*
X85644495Y-70801981D01*
X85584187Y-70612000D01*
X84582000Y-70612000D01*
X84328000Y-70612000D01*
X83325813Y-70612000D01*
X83265505Y-70801981D01*
X76606000Y-70801981D01*
X76606000Y-70363757D01*
X85764000Y-70363757D01*
X85764000Y-70606243D01*
X85811307Y-70844069D01*
X85904102Y-71068097D01*
X86038820Y-71269717D01*
X86210283Y-71441180D01*
X86411903Y-71575898D01*
X86635931Y-71668693D01*
X86873757Y-71716000D01*
X87116243Y-71716000D01*
X87354069Y-71668693D01*
X87578097Y-71575898D01*
X87779717Y-71441180D01*
X87951180Y-71269717D01*
X88085898Y-71068097D01*
X88178693Y-70844069D01*
X88226000Y-70606243D01*
X88226000Y-70363757D01*
X88304000Y-70363757D01*
X88304000Y-70606243D01*
X88351307Y-70844069D01*
X88444102Y-71068097D01*
X88578820Y-71269717D01*
X88750283Y-71441180D01*
X88951903Y-71575898D01*
X89175931Y-71668693D01*
X89413757Y-71716000D01*
X89656243Y-71716000D01*
X89894069Y-71668693D01*
X90118097Y-71575898D01*
X90319717Y-71441180D01*
X90491180Y-71269717D01*
X90625898Y-71068097D01*
X90718693Y-70844069D01*
X90766000Y-70606243D01*
X90766000Y-70363757D01*
X90718693Y-70125931D01*
X90625898Y-69901903D01*
X90491180Y-69700283D01*
X90319717Y-69528820D01*
X90118097Y-69394102D01*
X89894069Y-69301307D01*
X89656243Y-69254000D01*
X89413757Y-69254000D01*
X89175931Y-69301307D01*
X88951903Y-69394102D01*
X88750283Y-69528820D01*
X88578820Y-69700283D01*
X88444102Y-69901903D01*
X88351307Y-70125931D01*
X88304000Y-70363757D01*
X88226000Y-70363757D01*
X88178693Y-70125931D01*
X88085898Y-69901903D01*
X87951180Y-69700283D01*
X87779717Y-69528820D01*
X87578097Y-69394102D01*
X87354069Y-69301307D01*
X87116243Y-69254000D01*
X86873757Y-69254000D01*
X86635931Y-69301307D01*
X86411903Y-69394102D01*
X86210283Y-69528820D01*
X86038820Y-69700283D01*
X85904102Y-69901903D01*
X85811307Y-70125931D01*
X85764000Y-70363757D01*
X76606000Y-70363757D01*
X76606000Y-70168019D01*
X83265505Y-70168019D01*
X83325813Y-70358000D01*
X84328000Y-70358000D01*
X84328000Y-69356373D01*
X84582000Y-69356373D01*
X84582000Y-70358000D01*
X85584187Y-70358000D01*
X85644495Y-70168019D01*
X85559799Y-69942051D01*
X85432647Y-69736948D01*
X85267924Y-69560592D01*
X85071961Y-69419761D01*
X84852288Y-69319866D01*
X84771980Y-69295511D01*
X84582000Y-69356373D01*
X84328000Y-69356373D01*
X84138020Y-69295511D01*
X84057712Y-69319866D01*
X83838039Y-69419761D01*
X83642076Y-69560592D01*
X83477353Y-69736948D01*
X83350201Y-69942051D01*
X83265505Y-70168019D01*
X76606000Y-70168019D01*
X76606000Y-69234853D01*
X76660644Y-68677546D01*
X76816732Y-68160560D01*
X77070262Y-67683738D01*
X77411581Y-67265240D01*
X77827686Y-66921008D01*
X78302724Y-66664155D01*
X78818605Y-66504464D01*
X79374813Y-66446004D01*
X79375834Y-66446000D01*
X137775147Y-66446000D01*
X138332454Y-66500644D01*
G37*
%TD.AperFunction*%
D16*
X125884400Y-74803554D02*
X125881953Y-74828400D01*
X125884400Y-74853246D01*
X125884400Y-74853253D01*
X125891722Y-74927592D01*
X125920655Y-75022974D01*
X125967641Y-75110879D01*
X126030873Y-75187927D01*
X126050185Y-75203776D01*
X133479001Y-82632593D01*
X133479000Y-106979977D01*
X133298097Y-106859102D01*
X133074069Y-106766307D01*
X132836243Y-106719000D01*
X132593757Y-106719000D01*
X132355931Y-106766307D01*
X132131903Y-106859102D01*
X131951000Y-106979977D01*
X131951000Y-83209845D01*
X131953447Y-83184999D01*
X131951000Y-83160153D01*
X131951000Y-83160146D01*
X131943678Y-83085807D01*
X131914745Y-82990425D01*
X131867759Y-82902521D01*
X131804527Y-82825473D01*
X131785220Y-82809628D01*
X124381800Y-75406209D01*
X124381800Y-74028966D01*
X124511903Y-74115898D01*
X124735931Y-74208693D01*
X124973757Y-74256000D01*
X125216243Y-74256000D01*
X125454069Y-74208693D01*
X125678097Y-74115898D01*
X125879717Y-73981180D01*
X125884400Y-73976497D01*
X125884400Y-74803554D01*
%TA.AperFunction,Conductor*%
D17*
G36*
X125884400Y-74803554D02*
G01*
X125881953Y-74828400D01*
X125884400Y-74853246D01*
X125884400Y-74853253D01*
X125891722Y-74927592D01*
X125920655Y-75022974D01*
X125967641Y-75110879D01*
X126030873Y-75187927D01*
X126050185Y-75203776D01*
X133479001Y-82632593D01*
X133479000Y-106979977D01*
X133298097Y-106859102D01*
X133074069Y-106766307D01*
X132836243Y-106719000D01*
X132593757Y-106719000D01*
X132355931Y-106766307D01*
X132131903Y-106859102D01*
X131951000Y-106979977D01*
X131951000Y-83209845D01*
X131953447Y-83184999D01*
X131951000Y-83160153D01*
X131951000Y-83160146D01*
X131943678Y-83085807D01*
X131914745Y-82990425D01*
X131867759Y-82902521D01*
X131804527Y-82825473D01*
X131785220Y-82809628D01*
X124381800Y-75406209D01*
X124381800Y-74028966D01*
X124511903Y-74115898D01*
X124735931Y-74208693D01*
X124973757Y-74256000D01*
X125216243Y-74256000D01*
X125454069Y-74208693D01*
X125678097Y-74115898D01*
X125879717Y-73981180D01*
X125884400Y-73976497D01*
X125884400Y-74803554D01*
G37*
%TD.AperFunction*%
D16*
X133504400Y-74930554D02*
X133501953Y-74955400D01*
X133504400Y-74980246D01*
X133504400Y-74980253D01*
X133511722Y-75054592D01*
X133540655Y-75149974D01*
X133587641Y-75237879D01*
X133650873Y-75314927D01*
X133670185Y-75330776D01*
X139321001Y-80981593D01*
X139321001Y-82090409D01*
X131951000Y-74720409D01*
X131951000Y-73995023D01*
X132131903Y-74115898D01*
X132355931Y-74208693D01*
X132593757Y-74256000D01*
X132836243Y-74256000D01*
X133074069Y-74208693D01*
X133298097Y-74115898D01*
X133499717Y-73981180D01*
X133504400Y-73976497D01*
X133504400Y-74930554D01*
%TA.AperFunction,Conductor*%
D17*
G36*
X133504400Y-74930554D02*
G01*
X133501953Y-74955400D01*
X133504400Y-74980246D01*
X133504400Y-74980253D01*
X133511722Y-75054592D01*
X133540655Y-75149974D01*
X133587641Y-75237879D01*
X133650873Y-75314927D01*
X133670185Y-75330776D01*
X139321001Y-80981593D01*
X139321001Y-82090409D01*
X131951000Y-74720409D01*
X131951000Y-73995023D01*
X132131903Y-74115898D01*
X132355931Y-74208693D01*
X132593757Y-74256000D01*
X132836243Y-74256000D01*
X133074069Y-74208693D01*
X133298097Y-74115898D01*
X133499717Y-73981180D01*
X133504400Y-73976497D01*
X133504400Y-74930554D01*
G37*
%TD.AperFunction*%
%TD*%
M02*
