G04 #@! TF.GenerationSoftware,KiCad,Pcbnew,(5.1.9)-1*
G04 #@! TF.CreationDate,2021-05-08T11:49:02+01:00*
G04 #@! TF.ProjectId,RGBtoHDMI Amiga Denise DIP Breakout FFC,52474274-6f48-4444-9d49-20416d696761,v2++ Rev 2*
G04 #@! TF.SameCoordinates,Original*
G04 #@! TF.FileFunction,Legend,Top*
G04 #@! TF.FilePolarity,Positive*
%FSLAX46Y46*%
G04 Gerber Fmt 4.6, Leading zero omitted, Abs format (unit mm)*
G04 Created by KiCad (PCBNEW (5.1.9)-1) date 2021-05-08 11:49:02*
%MOMM*%
%LPD*%
G01*
G04 APERTURE LIST*
%ADD10C,0.200000*%
%ADD11C,0.100000*%
%ADD12C,0.150000*%
%ADD13C,0.400000*%
%ADD14C,0.254000*%
%ADD15C,0.120000*%
G04 APERTURE END LIST*
D10*
X103428238Y-65095380D02*
X103094904Y-64619190D01*
X102856809Y-65095380D02*
X102856809Y-64095380D01*
X103237761Y-64095380D01*
X103333000Y-64143000D01*
X103380619Y-64190619D01*
X103428238Y-64285857D01*
X103428238Y-64428714D01*
X103380619Y-64523952D01*
X103333000Y-64571571D01*
X103237761Y-64619190D01*
X102856809Y-64619190D01*
X104380619Y-64143000D02*
X104285380Y-64095380D01*
X104142523Y-64095380D01*
X103999666Y-64143000D01*
X103904428Y-64238238D01*
X103856809Y-64333476D01*
X103809190Y-64523952D01*
X103809190Y-64666809D01*
X103856809Y-64857285D01*
X103904428Y-64952523D01*
X103999666Y-65047761D01*
X104142523Y-65095380D01*
X104237761Y-65095380D01*
X104380619Y-65047761D01*
X104428238Y-65000142D01*
X104428238Y-64666809D01*
X104237761Y-64666809D01*
X105190142Y-64571571D02*
X105333000Y-64619190D01*
X105380619Y-64666809D01*
X105428238Y-64762047D01*
X105428238Y-64904904D01*
X105380619Y-65000142D01*
X105333000Y-65047761D01*
X105237761Y-65095380D01*
X104856809Y-65095380D01*
X104856809Y-64095380D01*
X105190142Y-64095380D01*
X105285380Y-64143000D01*
X105333000Y-64190619D01*
X105380619Y-64285857D01*
X105380619Y-64381095D01*
X105333000Y-64476333D01*
X105285380Y-64523952D01*
X105190142Y-64571571D01*
X104856809Y-64571571D01*
X105713952Y-64428714D02*
X106094904Y-64428714D01*
X105856809Y-64095380D02*
X105856809Y-64952523D01*
X105904428Y-65047761D01*
X105999666Y-65095380D01*
X106094904Y-65095380D01*
X106571095Y-65095380D02*
X106475857Y-65047761D01*
X106428238Y-65000142D01*
X106380619Y-64904904D01*
X106380619Y-64619190D01*
X106428238Y-64523952D01*
X106475857Y-64476333D01*
X106571095Y-64428714D01*
X106713952Y-64428714D01*
X106809190Y-64476333D01*
X106856809Y-64523952D01*
X106904428Y-64619190D01*
X106904428Y-64904904D01*
X106856809Y-65000142D01*
X106809190Y-65047761D01*
X106713952Y-65095380D01*
X106571095Y-65095380D01*
X107333000Y-65095380D02*
X107333000Y-64095380D01*
X107333000Y-64571571D02*
X107904428Y-64571571D01*
X107904428Y-65095380D02*
X107904428Y-64095380D01*
X108380619Y-65095380D02*
X108380619Y-64095380D01*
X108618714Y-64095380D01*
X108761571Y-64143000D01*
X108856809Y-64238238D01*
X108904428Y-64333476D01*
X108952047Y-64523952D01*
X108952047Y-64666809D01*
X108904428Y-64857285D01*
X108856809Y-64952523D01*
X108761571Y-65047761D01*
X108618714Y-65095380D01*
X108380619Y-65095380D01*
X109380619Y-65095380D02*
X109380619Y-64095380D01*
X109713952Y-64809666D01*
X110047285Y-64095380D01*
X110047285Y-65095380D01*
X110523476Y-65095380D02*
X110523476Y-64095380D01*
X111761571Y-65095380D02*
X111761571Y-64095380D01*
X111999666Y-64095380D01*
X112142523Y-64143000D01*
X112237761Y-64238238D01*
X112285380Y-64333476D01*
X112333000Y-64523952D01*
X112333000Y-64666809D01*
X112285380Y-64857285D01*
X112237761Y-64952523D01*
X112142523Y-65047761D01*
X111999666Y-65095380D01*
X111761571Y-65095380D01*
X113142523Y-65047761D02*
X113047285Y-65095380D01*
X112856809Y-65095380D01*
X112761571Y-65047761D01*
X112713952Y-64952523D01*
X112713952Y-64571571D01*
X112761571Y-64476333D01*
X112856809Y-64428714D01*
X113047285Y-64428714D01*
X113142523Y-64476333D01*
X113190142Y-64571571D01*
X113190142Y-64666809D01*
X112713952Y-64762047D01*
X113618714Y-64428714D02*
X113618714Y-65095380D01*
X113618714Y-64523952D02*
X113666333Y-64476333D01*
X113761571Y-64428714D01*
X113904428Y-64428714D01*
X113999666Y-64476333D01*
X114047285Y-64571571D01*
X114047285Y-65095380D01*
X114523476Y-65095380D02*
X114523476Y-64428714D01*
X114523476Y-64095380D02*
X114475857Y-64143000D01*
X114523476Y-64190619D01*
X114571095Y-64143000D01*
X114523476Y-64095380D01*
X114523476Y-64190619D01*
X114952047Y-65047761D02*
X115047285Y-65095380D01*
X115237761Y-65095380D01*
X115333000Y-65047761D01*
X115380619Y-64952523D01*
X115380619Y-64904904D01*
X115333000Y-64809666D01*
X115237761Y-64762047D01*
X115094904Y-64762047D01*
X114999666Y-64714428D01*
X114952047Y-64619190D01*
X114952047Y-64571571D01*
X114999666Y-64476333D01*
X115094904Y-64428714D01*
X115237761Y-64428714D01*
X115333000Y-64476333D01*
X116190142Y-65047761D02*
X116094904Y-65095380D01*
X115904428Y-65095380D01*
X115809190Y-65047761D01*
X115761571Y-64952523D01*
X115761571Y-64571571D01*
X115809190Y-64476333D01*
X115904428Y-64428714D01*
X116094904Y-64428714D01*
X116190142Y-64476333D01*
X116237761Y-64571571D01*
X116237761Y-64666809D01*
X115761571Y-64762047D01*
X117428238Y-65095380D02*
X117428238Y-64095380D01*
X117666333Y-64095380D01*
X117809190Y-64143000D01*
X117904428Y-64238238D01*
X117952047Y-64333476D01*
X117999666Y-64523952D01*
X117999666Y-64666809D01*
X117952047Y-64857285D01*
X117904428Y-64952523D01*
X117809190Y-65047761D01*
X117666333Y-65095380D01*
X117428238Y-65095380D01*
X118428238Y-65095380D02*
X118428238Y-64095380D01*
X118904428Y-65095380D02*
X118904428Y-64095380D01*
X119285380Y-64095380D01*
X119380619Y-64143000D01*
X119428238Y-64190619D01*
X119475857Y-64285857D01*
X119475857Y-64428714D01*
X119428238Y-64523952D01*
X119380619Y-64571571D01*
X119285380Y-64619190D01*
X118904428Y-64619190D01*
X120999666Y-64571571D02*
X121142523Y-64619190D01*
X121190142Y-64666809D01*
X121237761Y-64762047D01*
X121237761Y-64904904D01*
X121190142Y-65000142D01*
X121142523Y-65047761D01*
X121047285Y-65095380D01*
X120666333Y-65095380D01*
X120666333Y-64095380D01*
X120999666Y-64095380D01*
X121094904Y-64143000D01*
X121142523Y-64190619D01*
X121190142Y-64285857D01*
X121190142Y-64381095D01*
X121142523Y-64476333D01*
X121094904Y-64523952D01*
X120999666Y-64571571D01*
X120666333Y-64571571D01*
X121666333Y-65095380D02*
X121666333Y-64428714D01*
X121666333Y-64619190D02*
X121713952Y-64523952D01*
X121761571Y-64476333D01*
X121856809Y-64428714D01*
X121952047Y-64428714D01*
X122666333Y-65047761D02*
X122571095Y-65095380D01*
X122380619Y-65095380D01*
X122285380Y-65047761D01*
X122237761Y-64952523D01*
X122237761Y-64571571D01*
X122285380Y-64476333D01*
X122380619Y-64428714D01*
X122571095Y-64428714D01*
X122666333Y-64476333D01*
X122713952Y-64571571D01*
X122713952Y-64666809D01*
X122237761Y-64762047D01*
X123571095Y-65095380D02*
X123571095Y-64571571D01*
X123523476Y-64476333D01*
X123428238Y-64428714D01*
X123237761Y-64428714D01*
X123142523Y-64476333D01*
X123571095Y-65047761D02*
X123475857Y-65095380D01*
X123237761Y-65095380D01*
X123142523Y-65047761D01*
X123094904Y-64952523D01*
X123094904Y-64857285D01*
X123142523Y-64762047D01*
X123237761Y-64714428D01*
X123475857Y-64714428D01*
X123571095Y-64666809D01*
X124047285Y-65095380D02*
X124047285Y-64095380D01*
X124142523Y-64714428D02*
X124428238Y-65095380D01*
X124428238Y-64428714D02*
X124047285Y-64809666D01*
X124999666Y-65095380D02*
X124904428Y-65047761D01*
X124856809Y-65000142D01*
X124809190Y-64904904D01*
X124809190Y-64619190D01*
X124856809Y-64523952D01*
X124904428Y-64476333D01*
X124999666Y-64428714D01*
X125142523Y-64428714D01*
X125237761Y-64476333D01*
X125285380Y-64523952D01*
X125332999Y-64619190D01*
X125332999Y-64904904D01*
X125285380Y-65000142D01*
X125237761Y-65047761D01*
X125142523Y-65095380D01*
X124999666Y-65095380D01*
X126190142Y-64428714D02*
X126190142Y-65095380D01*
X125761571Y-64428714D02*
X125761571Y-64952523D01*
X125809190Y-65047761D01*
X125904428Y-65095380D01*
X126047285Y-65095380D01*
X126142523Y-65047761D01*
X126190142Y-65000142D01*
X126523476Y-64428714D02*
X126904428Y-64428714D01*
X126666333Y-64095380D02*
X126666333Y-64952523D01*
X126713952Y-65047761D01*
X126809190Y-65095380D01*
X126904428Y-65095380D01*
X128332999Y-64571571D02*
X127999666Y-64571571D01*
X127999666Y-65095380D02*
X127999666Y-64095380D01*
X128475857Y-64095380D01*
X129190142Y-64571571D02*
X128856809Y-64571571D01*
X128856809Y-65095380D02*
X128856809Y-64095380D01*
X129332999Y-64095380D01*
X130285380Y-65000142D02*
X130237761Y-65047761D01*
X130094904Y-65095380D01*
X129999666Y-65095380D01*
X129856809Y-65047761D01*
X129761571Y-64952523D01*
X129713952Y-64857285D01*
X129666333Y-64666809D01*
X129666333Y-64523952D01*
X129713952Y-64333476D01*
X129761571Y-64238238D01*
X129856809Y-64143000D01*
X129999666Y-64095380D01*
X130094904Y-64095380D01*
X130237761Y-64143000D01*
X130285380Y-64190619D01*
X131713952Y-65428714D02*
X131713952Y-64000142D01*
X133190142Y-65095380D02*
X133190142Y-64095380D01*
X133571095Y-64095380D01*
X133666333Y-64143000D01*
X133713952Y-64190619D01*
X133761571Y-64285857D01*
X133761571Y-64428714D01*
X133713952Y-64523952D01*
X133666333Y-64571571D01*
X133571095Y-64619190D01*
X133190142Y-64619190D01*
X134761571Y-65000142D02*
X134713952Y-65047761D01*
X134571095Y-65095380D01*
X134475857Y-65095380D01*
X134333000Y-65047761D01*
X134237761Y-64952523D01*
X134190142Y-64857285D01*
X134142523Y-64666809D01*
X134142523Y-64523952D01*
X134190142Y-64333476D01*
X134237761Y-64238238D01*
X134333000Y-64143000D01*
X134475857Y-64095380D01*
X134571095Y-64095380D01*
X134713952Y-64143000D01*
X134761571Y-64190619D01*
X135523476Y-64571571D02*
X135666333Y-64619190D01*
X135713952Y-64666809D01*
X135761571Y-64762047D01*
X135761571Y-64904904D01*
X135713952Y-65000142D01*
X135666333Y-65047761D01*
X135571095Y-65095380D01*
X135190142Y-65095380D01*
X135190142Y-64095380D01*
X135523476Y-64095380D01*
X135618714Y-64143000D01*
X135666333Y-64190619D01*
X135713952Y-64285857D01*
X135713952Y-64381095D01*
X135666333Y-64476333D01*
X135618714Y-64523952D01*
X135523476Y-64571571D01*
X135190142Y-64571571D01*
X136952047Y-65095380D02*
X136952047Y-64095380D01*
X136952047Y-64476333D02*
X137047285Y-64428714D01*
X137237761Y-64428714D01*
X137333000Y-64476333D01*
X137380619Y-64523952D01*
X137428238Y-64619190D01*
X137428238Y-64904904D01*
X137380619Y-65000142D01*
X137333000Y-65047761D01*
X137237761Y-65095380D01*
X137047285Y-65095380D01*
X136952047Y-65047761D01*
X137761571Y-64428714D02*
X137999666Y-65095380D01*
X138237761Y-64428714D02*
X137999666Y-65095380D01*
X137904428Y-65333476D01*
X137856809Y-65381095D01*
X137761571Y-65428714D01*
X139333000Y-65047761D02*
X139428238Y-65095380D01*
X139618714Y-65095380D01*
X139713952Y-65047761D01*
X139761571Y-64952523D01*
X139761571Y-64904904D01*
X139713952Y-64809666D01*
X139618714Y-64762047D01*
X139475857Y-64762047D01*
X139380619Y-64714428D01*
X139333000Y-64619190D01*
X139333000Y-64571571D01*
X139380619Y-64476333D01*
X139475857Y-64428714D01*
X139618714Y-64428714D01*
X139713952Y-64476333D01*
X140332999Y-65095380D02*
X140237761Y-65047761D01*
X140190142Y-65000142D01*
X140142523Y-64904904D01*
X140142523Y-64619190D01*
X140190142Y-64523952D01*
X140237761Y-64476333D01*
X140332999Y-64428714D01*
X140475857Y-64428714D01*
X140571095Y-64476333D01*
X140618714Y-64523952D01*
X140666333Y-64619190D01*
X140666333Y-64904904D01*
X140618714Y-65000142D01*
X140571095Y-65047761D01*
X140475857Y-65095380D01*
X140332999Y-65095380D01*
X141237761Y-65095380D02*
X141142523Y-65047761D01*
X141094904Y-64952523D01*
X141094904Y-64095380D01*
X142047285Y-65095380D02*
X142047285Y-64571571D01*
X141999666Y-64476333D01*
X141904428Y-64428714D01*
X141713952Y-64428714D01*
X141618714Y-64476333D01*
X142047285Y-65047761D02*
X141952047Y-65095380D01*
X141713952Y-65095380D01*
X141618714Y-65047761D01*
X141571095Y-64952523D01*
X141571095Y-64857285D01*
X141618714Y-64762047D01*
X141713952Y-64714428D01*
X141952047Y-64714428D01*
X142047285Y-64666809D01*
X142523476Y-65095380D02*
X142523476Y-64428714D01*
X142523476Y-64619190D02*
X142571095Y-64523952D01*
X142618714Y-64476333D01*
X142713952Y-64428714D01*
X142809190Y-64428714D01*
X143142523Y-65095380D02*
X143142523Y-64428714D01*
X143142523Y-64523952D02*
X143190142Y-64476333D01*
X143285380Y-64428714D01*
X143428238Y-64428714D01*
X143523476Y-64476333D01*
X143571095Y-64571571D01*
X143571095Y-65095380D01*
X143571095Y-64571571D02*
X143618714Y-64476333D01*
X143713952Y-64428714D01*
X143856809Y-64428714D01*
X143952047Y-64476333D01*
X143999666Y-64571571D01*
X143999666Y-65095380D01*
X144618714Y-65095380D02*
X144523476Y-65047761D01*
X144475857Y-65000142D01*
X144428238Y-64904904D01*
X144428238Y-64619190D01*
X144475857Y-64523952D01*
X144523476Y-64476333D01*
X144618714Y-64428714D01*
X144761571Y-64428714D01*
X144856809Y-64476333D01*
X144904428Y-64523952D01*
X144952047Y-64619190D01*
X144952047Y-64904904D01*
X144904428Y-65000142D01*
X144856809Y-65047761D01*
X144761571Y-65095380D01*
X144618714Y-65095380D01*
X145380619Y-64428714D02*
X145380619Y-65095380D01*
X145380619Y-64523952D02*
X145428238Y-64476333D01*
X145523476Y-64428714D01*
X145666333Y-64428714D01*
X145761571Y-64476333D01*
X145809190Y-64571571D01*
X145809190Y-65095380D01*
D11*
X165889000Y-80281428D02*
X165689000Y-79995714D01*
X165546142Y-80281428D02*
X165546142Y-79681428D01*
X165774714Y-79681428D01*
X165831857Y-79710000D01*
X165860428Y-79738571D01*
X165889000Y-79795714D01*
X165889000Y-79881428D01*
X165860428Y-79938571D01*
X165831857Y-79967142D01*
X165774714Y-79995714D01*
X165546142Y-79995714D01*
X166117571Y-79738571D02*
X166146142Y-79710000D01*
X166203285Y-79681428D01*
X166346142Y-79681428D01*
X166403285Y-79710000D01*
X166431857Y-79738571D01*
X166460428Y-79795714D01*
X166460428Y-79852857D01*
X166431857Y-79938571D01*
X166089000Y-80281428D01*
X166460428Y-80281428D01*
X165889000Y-79265428D02*
X165689000Y-78979714D01*
X165546142Y-79265428D02*
X165546142Y-78665428D01*
X165774714Y-78665428D01*
X165831857Y-78694000D01*
X165860428Y-78722571D01*
X165889000Y-78779714D01*
X165889000Y-78865428D01*
X165860428Y-78922571D01*
X165831857Y-78951142D01*
X165774714Y-78979714D01*
X165546142Y-78979714D01*
X166089000Y-78665428D02*
X166460428Y-78665428D01*
X166260428Y-78894000D01*
X166346142Y-78894000D01*
X166403285Y-78922571D01*
X166431857Y-78951142D01*
X166460428Y-79008285D01*
X166460428Y-79151142D01*
X166431857Y-79208285D01*
X166403285Y-79236857D01*
X166346142Y-79265428D01*
X166174714Y-79265428D01*
X166117571Y-79236857D01*
X166089000Y-79208285D01*
X165889000Y-82313428D02*
X165689000Y-82027714D01*
X165546142Y-82313428D02*
X165546142Y-81713428D01*
X165774714Y-81713428D01*
X165831857Y-81742000D01*
X165860428Y-81770571D01*
X165889000Y-81827714D01*
X165889000Y-81913428D01*
X165860428Y-81970571D01*
X165831857Y-81999142D01*
X165774714Y-82027714D01*
X165546142Y-82027714D01*
X166260428Y-81713428D02*
X166317571Y-81713428D01*
X166374714Y-81742000D01*
X166403285Y-81770571D01*
X166431857Y-81827714D01*
X166460428Y-81942000D01*
X166460428Y-82084857D01*
X166431857Y-82199142D01*
X166403285Y-82256285D01*
X166374714Y-82284857D01*
X166317571Y-82313428D01*
X166260428Y-82313428D01*
X166203285Y-82284857D01*
X166174714Y-82256285D01*
X166146142Y-82199142D01*
X166117571Y-82084857D01*
X166117571Y-81942000D01*
X166146142Y-81827714D01*
X166174714Y-81770571D01*
X166203285Y-81742000D01*
X166260428Y-81713428D01*
X165889000Y-81297428D02*
X165689000Y-81011714D01*
X165546142Y-81297428D02*
X165546142Y-80697428D01*
X165774714Y-80697428D01*
X165831857Y-80726000D01*
X165860428Y-80754571D01*
X165889000Y-80811714D01*
X165889000Y-80897428D01*
X165860428Y-80954571D01*
X165831857Y-80983142D01*
X165774714Y-81011714D01*
X165546142Y-81011714D01*
X166460428Y-81297428D02*
X166117571Y-81297428D01*
X166289000Y-81297428D02*
X166289000Y-80697428D01*
X166231857Y-80783142D01*
X166174714Y-80840285D01*
X166117571Y-80868857D01*
X165746142Y-75014142D02*
X165831857Y-75042714D01*
X165860428Y-75071285D01*
X165889000Y-75128428D01*
X165889000Y-75214142D01*
X165860428Y-75271285D01*
X165831857Y-75299857D01*
X165774714Y-75328428D01*
X165546142Y-75328428D01*
X165546142Y-74728428D01*
X165746142Y-74728428D01*
X165803285Y-74757000D01*
X165831857Y-74785571D01*
X165860428Y-74842714D01*
X165860428Y-74899857D01*
X165831857Y-74957000D01*
X165803285Y-74985571D01*
X165746142Y-75014142D01*
X165546142Y-75014142D01*
X166089000Y-74728428D02*
X166460428Y-74728428D01*
X166260428Y-74957000D01*
X166346142Y-74957000D01*
X166403285Y-74985571D01*
X166431857Y-75014142D01*
X166460428Y-75071285D01*
X166460428Y-75214142D01*
X166431857Y-75271285D01*
X166403285Y-75299857D01*
X166346142Y-75328428D01*
X166174714Y-75328428D01*
X166117571Y-75299857D01*
X166089000Y-75271285D01*
X165746142Y-76030142D02*
X165831857Y-76058714D01*
X165860428Y-76087285D01*
X165889000Y-76144428D01*
X165889000Y-76230142D01*
X165860428Y-76287285D01*
X165831857Y-76315857D01*
X165774714Y-76344428D01*
X165546142Y-76344428D01*
X165546142Y-75744428D01*
X165746142Y-75744428D01*
X165803285Y-75773000D01*
X165831857Y-75801571D01*
X165860428Y-75858714D01*
X165860428Y-75915857D01*
X165831857Y-75973000D01*
X165803285Y-76001571D01*
X165746142Y-76030142D01*
X165546142Y-76030142D01*
X166117571Y-75801571D02*
X166146142Y-75773000D01*
X166203285Y-75744428D01*
X166346142Y-75744428D01*
X166403285Y-75773000D01*
X166431857Y-75801571D01*
X166460428Y-75858714D01*
X166460428Y-75915857D01*
X166431857Y-76001571D01*
X166089000Y-76344428D01*
X166460428Y-76344428D01*
X165746142Y-77046142D02*
X165831857Y-77074714D01*
X165860428Y-77103285D01*
X165889000Y-77160428D01*
X165889000Y-77246142D01*
X165860428Y-77303285D01*
X165831857Y-77331857D01*
X165774714Y-77360428D01*
X165546142Y-77360428D01*
X165546142Y-76760428D01*
X165746142Y-76760428D01*
X165803285Y-76789000D01*
X165831857Y-76817571D01*
X165860428Y-76874714D01*
X165860428Y-76931857D01*
X165831857Y-76989000D01*
X165803285Y-77017571D01*
X165746142Y-77046142D01*
X165546142Y-77046142D01*
X166460428Y-77360428D02*
X166117571Y-77360428D01*
X166289000Y-77360428D02*
X166289000Y-76760428D01*
X166231857Y-76846142D01*
X166174714Y-76903285D01*
X166117571Y-76931857D01*
X165746142Y-78062142D02*
X165831857Y-78090714D01*
X165860428Y-78119285D01*
X165889000Y-78176428D01*
X165889000Y-78262142D01*
X165860428Y-78319285D01*
X165831857Y-78347857D01*
X165774714Y-78376428D01*
X165546142Y-78376428D01*
X165546142Y-77776428D01*
X165746142Y-77776428D01*
X165803285Y-77805000D01*
X165831857Y-77833571D01*
X165860428Y-77890714D01*
X165860428Y-77947857D01*
X165831857Y-78005000D01*
X165803285Y-78033571D01*
X165746142Y-78062142D01*
X165546142Y-78062142D01*
X166260428Y-77776428D02*
X166317571Y-77776428D01*
X166374714Y-77805000D01*
X166403285Y-77833571D01*
X166431857Y-77890714D01*
X166460428Y-78005000D01*
X166460428Y-78147857D01*
X166431857Y-78262142D01*
X166403285Y-78319285D01*
X166374714Y-78347857D01*
X166317571Y-78376428D01*
X166260428Y-78376428D01*
X166203285Y-78347857D01*
X166174714Y-78319285D01*
X166146142Y-78262142D01*
X166117571Y-78147857D01*
X166117571Y-78005000D01*
X166146142Y-77890714D01*
X166174714Y-77833571D01*
X166203285Y-77805000D01*
X166260428Y-77776428D01*
X165860428Y-73741000D02*
X165803285Y-73712428D01*
X165717571Y-73712428D01*
X165631857Y-73741000D01*
X165574714Y-73798142D01*
X165546142Y-73855285D01*
X165517571Y-73969571D01*
X165517571Y-74055285D01*
X165546142Y-74169571D01*
X165574714Y-74226714D01*
X165631857Y-74283857D01*
X165717571Y-74312428D01*
X165774714Y-74312428D01*
X165860428Y-74283857D01*
X165889000Y-74255285D01*
X165889000Y-74055285D01*
X165774714Y-74055285D01*
X166260428Y-73712428D02*
X166317571Y-73712428D01*
X166374714Y-73741000D01*
X166403285Y-73769571D01*
X166431857Y-73826714D01*
X166460428Y-73941000D01*
X166460428Y-74083857D01*
X166431857Y-74198142D01*
X166403285Y-74255285D01*
X166374714Y-74283857D01*
X166317571Y-74312428D01*
X166260428Y-74312428D01*
X166203285Y-74283857D01*
X166174714Y-74255285D01*
X166146142Y-74198142D01*
X166117571Y-74083857D01*
X166117571Y-73941000D01*
X166146142Y-73826714D01*
X166174714Y-73769571D01*
X166203285Y-73741000D01*
X166260428Y-73712428D01*
X165860428Y-72725000D02*
X165803285Y-72696428D01*
X165717571Y-72696428D01*
X165631857Y-72725000D01*
X165574714Y-72782142D01*
X165546142Y-72839285D01*
X165517571Y-72953571D01*
X165517571Y-73039285D01*
X165546142Y-73153571D01*
X165574714Y-73210714D01*
X165631857Y-73267857D01*
X165717571Y-73296428D01*
X165774714Y-73296428D01*
X165860428Y-73267857D01*
X165889000Y-73239285D01*
X165889000Y-73039285D01*
X165774714Y-73039285D01*
X166460428Y-73296428D02*
X166117571Y-73296428D01*
X166289000Y-73296428D02*
X166289000Y-72696428D01*
X166231857Y-72782142D01*
X166174714Y-72839285D01*
X166117571Y-72867857D01*
X165860428Y-71709000D02*
X165803285Y-71680428D01*
X165717571Y-71680428D01*
X165631857Y-71709000D01*
X165574714Y-71766142D01*
X165546142Y-71823285D01*
X165517571Y-71937571D01*
X165517571Y-72023285D01*
X165546142Y-72137571D01*
X165574714Y-72194714D01*
X165631857Y-72251857D01*
X165717571Y-72280428D01*
X165774714Y-72280428D01*
X165860428Y-72251857D01*
X165889000Y-72223285D01*
X165889000Y-72023285D01*
X165774714Y-72023285D01*
X166117571Y-71737571D02*
X166146142Y-71709000D01*
X166203285Y-71680428D01*
X166346142Y-71680428D01*
X166403285Y-71709000D01*
X166431857Y-71737571D01*
X166460428Y-71794714D01*
X166460428Y-71851857D01*
X166431857Y-71937571D01*
X166089000Y-72280428D01*
X166460428Y-72280428D01*
X165860428Y-70820000D02*
X165803285Y-70791428D01*
X165717571Y-70791428D01*
X165631857Y-70820000D01*
X165574714Y-70877142D01*
X165546142Y-70934285D01*
X165517571Y-71048571D01*
X165517571Y-71134285D01*
X165546142Y-71248571D01*
X165574714Y-71305714D01*
X165631857Y-71362857D01*
X165717571Y-71391428D01*
X165774714Y-71391428D01*
X165860428Y-71362857D01*
X165889000Y-71334285D01*
X165889000Y-71134285D01*
X165774714Y-71134285D01*
X166089000Y-70791428D02*
X166460428Y-70791428D01*
X166260428Y-71020000D01*
X166346142Y-71020000D01*
X166403285Y-71048571D01*
X166431857Y-71077142D01*
X166460428Y-71134285D01*
X166460428Y-71277142D01*
X166431857Y-71334285D01*
X166403285Y-71362857D01*
X166346142Y-71391428D01*
X166174714Y-71391428D01*
X166117571Y-71362857D01*
X166089000Y-71334285D01*
X164128571Y-69302285D02*
X164100000Y-69330857D01*
X164014285Y-69359428D01*
X163957142Y-69359428D01*
X163871428Y-69330857D01*
X163814285Y-69273714D01*
X163785714Y-69216571D01*
X163757142Y-69102285D01*
X163757142Y-69016571D01*
X163785714Y-68902285D01*
X163814285Y-68845142D01*
X163871428Y-68788000D01*
X163957142Y-68759428D01*
X164014285Y-68759428D01*
X164100000Y-68788000D01*
X164128571Y-68816571D01*
X164357142Y-69330857D02*
X164442857Y-69359428D01*
X164585714Y-69359428D01*
X164642857Y-69330857D01*
X164671428Y-69302285D01*
X164700000Y-69245142D01*
X164700000Y-69188000D01*
X164671428Y-69130857D01*
X164642857Y-69102285D01*
X164585714Y-69073714D01*
X164471428Y-69045142D01*
X164414285Y-69016571D01*
X164385714Y-68988000D01*
X164357142Y-68930857D01*
X164357142Y-68873714D01*
X164385714Y-68816571D01*
X164414285Y-68788000D01*
X164471428Y-68759428D01*
X164614285Y-68759428D01*
X164700000Y-68788000D01*
X165071428Y-69073714D02*
X165071428Y-69359428D01*
X164871428Y-68759428D02*
X165071428Y-69073714D01*
X165271428Y-68759428D01*
X165471428Y-69359428D02*
X165471428Y-68759428D01*
X165814285Y-69359428D01*
X165814285Y-68759428D01*
X166442857Y-69302285D02*
X166414285Y-69330857D01*
X166328571Y-69359428D01*
X166271428Y-69359428D01*
X166185714Y-69330857D01*
X166128571Y-69273714D01*
X166100000Y-69216571D01*
X166071428Y-69102285D01*
X166071428Y-69016571D01*
X166100000Y-68902285D01*
X166128571Y-68845142D01*
X166185714Y-68788000D01*
X166271428Y-68759428D01*
X166328571Y-68759428D01*
X166414285Y-68788000D01*
X166442857Y-68816571D01*
D12*
X164274571Y-67189000D02*
X164203142Y-67153285D01*
X164096000Y-67153285D01*
X163988857Y-67189000D01*
X163917428Y-67260428D01*
X163881714Y-67331857D01*
X163846000Y-67474714D01*
X163846000Y-67581857D01*
X163881714Y-67724714D01*
X163917428Y-67796142D01*
X163988857Y-67867571D01*
X164096000Y-67903285D01*
X164167428Y-67903285D01*
X164274571Y-67867571D01*
X164310285Y-67831857D01*
X164310285Y-67581857D01*
X164167428Y-67581857D01*
X164631714Y-67903285D02*
X164631714Y-67153285D01*
X165060285Y-67903285D01*
X165060285Y-67153285D01*
X165417428Y-67903285D02*
X165417428Y-67153285D01*
X165596000Y-67153285D01*
X165703142Y-67189000D01*
X165774571Y-67260428D01*
X165810285Y-67331857D01*
X165846000Y-67474714D01*
X165846000Y-67581857D01*
X165810285Y-67724714D01*
X165774571Y-67796142D01*
X165703142Y-67867571D01*
X165596000Y-67903285D01*
X165417428Y-67903285D01*
X163754714Y-83619571D02*
X164326142Y-83619571D01*
X164040428Y-83905285D02*
X164040428Y-83333857D01*
X165040428Y-83155285D02*
X164683285Y-83155285D01*
X164647571Y-83512428D01*
X164683285Y-83476714D01*
X164754714Y-83441000D01*
X164933285Y-83441000D01*
X165004714Y-83476714D01*
X165040428Y-83512428D01*
X165076142Y-83583857D01*
X165076142Y-83762428D01*
X165040428Y-83833857D01*
X165004714Y-83869571D01*
X164933285Y-83905285D01*
X164754714Y-83905285D01*
X164683285Y-83869571D01*
X164647571Y-83833857D01*
X165290428Y-83155285D02*
X165540428Y-83905285D01*
X165790428Y-83155285D01*
D13*
X162052000Y-87503000D02*
G75*
G03*
X162052000Y-87503000I-127000J0D01*
G01*
D14*
X168404000Y-64325000D02*
X167005000Y-64325000D01*
X167005000Y-64325000D02*
X167005000Y-66534000D01*
X173990000Y-64325000D02*
X171866000Y-64325000D01*
X173990000Y-86805000D02*
X173990000Y-64325000D01*
X167005000Y-86805000D02*
X167005000Y-84596000D01*
X171866000Y-86805000D02*
X173990000Y-86805000D01*
X167005000Y-86805000D02*
X168404000Y-86805000D01*
X167767000Y-85090000D02*
G75*
G03*
X167767000Y-85090000I-127000J0D01*
G01*
D15*
X163255000Y-74565000D02*
X163255000Y-69105000D01*
X163255000Y-69105000D02*
X132655000Y-69105000D01*
X132655000Y-69105000D02*
X132655000Y-82025000D01*
X132655000Y-82025000D02*
X163255000Y-82025000D01*
X163255000Y-82025000D02*
X163255000Y-76565000D01*
X163315000Y-66615000D02*
X132595000Y-66615000D01*
X132595000Y-66615000D02*
X132595000Y-84515000D01*
X132595000Y-84515000D02*
X163315000Y-84515000D01*
X163315000Y-84515000D02*
X163315000Y-66615000D01*
X163255000Y-76565000D02*
G75*
G02*
X163255000Y-74565000I0J1000000D01*
G01*
X132775000Y-74565000D02*
X132775000Y-69105000D01*
X132775000Y-69105000D02*
X102175000Y-69105000D01*
X102175000Y-69105000D02*
X102175000Y-82025000D01*
X102175000Y-82025000D02*
X132775000Y-82025000D01*
X132775000Y-82025000D02*
X132775000Y-76565000D01*
X132835000Y-66615000D02*
X102115000Y-66615000D01*
X102115000Y-66615000D02*
X102115000Y-84515000D01*
X102115000Y-84515000D02*
X132835000Y-84515000D01*
X132835000Y-84515000D02*
X132835000Y-66615000D01*
X132775000Y-76565000D02*
G75*
G02*
X132775000Y-74565000I0J1000000D01*
G01*
D12*
X164760785Y-87703428D02*
X164510785Y-87703428D01*
X164510785Y-88096285D02*
X164510785Y-87346285D01*
X164867928Y-87346285D01*
X165403642Y-87703428D02*
X165153642Y-87703428D01*
X165153642Y-88096285D02*
X165153642Y-87346285D01*
X165510785Y-87346285D01*
X166225071Y-88024857D02*
X166189357Y-88060571D01*
X166082214Y-88096285D01*
X166010785Y-88096285D01*
X165903642Y-88060571D01*
X165832214Y-87989142D01*
X165796500Y-87917714D01*
X165760785Y-87774857D01*
X165760785Y-87667714D01*
X165796500Y-87524857D01*
X165832214Y-87453428D01*
X165903642Y-87382000D01*
X166010785Y-87346285D01*
X166082214Y-87346285D01*
X166189357Y-87382000D01*
X166225071Y-87417714D01*
X166939357Y-88096285D02*
X166510785Y-88096285D01*
X166725071Y-88096285D02*
X166725071Y-87346285D01*
X166653642Y-87453428D01*
X166582214Y-87524857D01*
X166510785Y-87560571D01*
X167367928Y-87667714D02*
X167296500Y-87632000D01*
X167260785Y-87596285D01*
X167225071Y-87524857D01*
X167225071Y-87489142D01*
X167260785Y-87417714D01*
X167296500Y-87382000D01*
X167367928Y-87346285D01*
X167510785Y-87346285D01*
X167582214Y-87382000D01*
X167617928Y-87417714D01*
X167653642Y-87489142D01*
X167653642Y-87524857D01*
X167617928Y-87596285D01*
X167582214Y-87632000D01*
X167510785Y-87667714D01*
X167367928Y-87667714D01*
X167296500Y-87703428D01*
X167260785Y-87739142D01*
X167225071Y-87810571D01*
X167225071Y-87953428D01*
X167260785Y-88024857D01*
X167296500Y-88060571D01*
X167367928Y-88096285D01*
X167510785Y-88096285D01*
X167582214Y-88060571D01*
X167617928Y-88024857D01*
X167653642Y-87953428D01*
X167653642Y-87810571D01*
X167617928Y-87739142D01*
X167582214Y-87703428D01*
X167510785Y-87667714D01*
M02*
