M48
; DRILL file {KiCad (5.1.9)-1} date 05/08/21 11:49:00
; FORMAT={-:-/ absolute / inch / decimal}
; #@! TF.CreationDate,2021-05-08T11:49:00+01:00
; #@! TF.GenerationSoftware,Kicad,Pcbnew,(5.1.9)-1
; #@! TF.FileFunction,Plated,1,2,PTH
FMAT,2
INCH
T1C0.0118
T2C0.0315
%
G90
G05
T1
X4.125Y-3.2
X4.175Y-3.1
X4.275Y-3.05
X4.375Y-3.0
X4.475Y-2.95
X4.575Y-2.9
X4.675Y-2.865
X4.775Y-2.835
X6.4275Y-3.23
X6.455Y-3.19
X6.48Y-3.1525
X6.505Y-3.1125
X6.54Y-2.64
X6.54Y-2.68
X6.54Y-2.76
X6.545Y-3.27
X6.545Y-3.31
X6.605Y-2.525
X6.605Y-2.59
X6.675Y-2.615
X6.675Y-2.685
T2
X4.075Y-2.675
X4.075Y-2.775
X4.075Y-3.275
X4.075Y-3.375
X4.175Y-2.675
X4.175Y-2.775
X4.175Y-3.275
X4.175Y-3.375
X4.275Y-2.675
X4.275Y-2.775
X4.275Y-3.275
X4.275Y-3.375
X4.375Y-2.675
X4.375Y-2.775
X4.375Y-3.275
X4.375Y-3.375
X4.475Y-2.675
X4.475Y-2.775
X4.475Y-3.275
X4.475Y-3.375
X4.575Y-2.675
X4.575Y-2.775
X4.575Y-3.275
X4.575Y-3.375
X4.675Y-2.675
X4.675Y-2.775
X4.675Y-3.275
X4.675Y-3.375
X4.775Y-2.675
X4.775Y-2.775
X4.775Y-3.275
X4.775Y-3.375
X4.875Y-2.675
X4.875Y-2.775
X4.875Y-3.275
X4.875Y-3.375
X4.975Y-2.675
X4.975Y-2.775
X4.975Y-3.275
X4.975Y-3.375
X5.075Y-2.675
X5.075Y-2.775
X5.075Y-3.275
X5.075Y-3.375
X5.175Y-2.675
X5.175Y-2.775
X5.175Y-3.275
X5.175Y-3.375
X5.275Y-2.675
X5.275Y-2.775
X5.275Y-3.275
X5.275Y-3.375
X5.375Y-2.675
X5.375Y-2.775
X5.375Y-3.275
X5.375Y-3.375
X5.475Y-2.675
X5.475Y-2.775
X5.475Y-3.275
X5.475Y-3.375
X5.575Y-2.675
X5.575Y-2.775
X5.575Y-3.275
X5.575Y-3.375
X5.675Y-2.675
X5.675Y-2.775
X5.675Y-3.275
X5.675Y-3.375
X5.775Y-2.675
X5.775Y-2.775
X5.775Y-3.275
X5.775Y-3.375
X5.875Y-2.675
X5.875Y-2.775
X5.875Y-3.275
X5.875Y-3.375
X5.975Y-2.675
X5.975Y-2.775
X5.975Y-3.275
X5.975Y-3.375
X6.075Y-2.675
X6.075Y-2.775
X6.075Y-3.275
X6.075Y-3.375
X6.175Y-2.675
X6.175Y-2.775
X6.175Y-3.275
X6.175Y-3.375
X6.275Y-2.675
X6.275Y-2.775
X6.275Y-3.275
X6.275Y-3.375
X6.375Y-2.675
X6.375Y-2.775
X6.375Y-3.275
X6.375Y-3.375
T0
M30
