G04 #@! TF.GenerationSoftware,KiCad,Pcbnew,(5.1.9)-1*
G04 #@! TF.CreationDate,2021-05-08T11:49:02+01:00*
G04 #@! TF.ProjectId,RGBtoHDMI Amiga Denise DIP Breakout FFC,52474274-6f48-4444-9d49-20416d696761,v2++ Rev 2*
G04 #@! TF.SameCoordinates,Original*
G04 #@! TF.FileFunction,Copper,L1,Top*
G04 #@! TF.FilePolarity,Positive*
%FSLAX46Y46*%
G04 Gerber Fmt 4.6, Leading zero omitted, Abs format (unit mm)*
G04 Created by KiCad (PCBNEW (5.1.9)-1) date 2021-05-08 11:49:02*
%MOMM*%
%LPD*%
G01*
G04 APERTURE LIST*
G04 #@! TA.AperFunction,SMDPad,CuDef*
%ADD10R,3.000000X2.500000*%
G04 #@! TD*
G04 #@! TA.AperFunction,SMDPad,CuDef*
%ADD11R,2.000000X0.600000*%
G04 #@! TD*
G04 #@! TA.AperFunction,ComponentPad*
%ADD12O,1.600000X1.600000*%
G04 #@! TD*
G04 #@! TA.AperFunction,ComponentPad*
%ADD13R,1.600000X1.600000*%
G04 #@! TD*
G04 #@! TA.AperFunction,ViaPad*
%ADD14C,0.600000*%
G04 #@! TD*
G04 #@! TA.AperFunction,Conductor*
%ADD15C,0.500000*%
G04 #@! TD*
G04 #@! TA.AperFunction,Conductor*
%ADD16C,0.250000*%
G04 #@! TD*
G04 #@! TA.AperFunction,Conductor*
%ADD17C,0.254000*%
G04 #@! TD*
G04 #@! TA.AperFunction,Conductor*
%ADD18C,0.100000*%
G04 #@! TD*
G04 APERTURE END LIST*
D10*
X170135000Y-86815000D03*
X170135000Y-64315000D03*
D11*
X167685000Y-67065000D03*
X167685000Y-68065000D03*
X167685000Y-69065000D03*
X167685000Y-70065000D03*
X167685000Y-71065000D03*
X167685000Y-72065000D03*
X167685000Y-73065000D03*
X167685000Y-74065000D03*
X167685000Y-75065000D03*
X167685000Y-76065000D03*
X167685000Y-77065000D03*
X167685000Y-78065000D03*
X167685000Y-79065000D03*
X167685000Y-80065000D03*
X167685000Y-81065000D03*
X167685000Y-82065000D03*
X167685000Y-83065000D03*
X167685000Y-84065000D03*
D12*
X103505000Y-85725000D03*
X106045000Y-85725000D03*
X108585000Y-85725000D03*
X111125000Y-85725000D03*
X113665000Y-85725000D03*
X116205000Y-85725000D03*
X118745000Y-85725000D03*
X121285000Y-85725000D03*
X123825000Y-85725000D03*
X126365000Y-85725000D03*
X128905000Y-85725000D03*
X131445000Y-85725000D03*
X133985000Y-85725000D03*
X136525000Y-85725000D03*
X139065000Y-85725000D03*
X141605000Y-85725000D03*
X144145000Y-85725000D03*
X146685000Y-85725000D03*
X149225000Y-85725000D03*
X151765000Y-85725000D03*
X154305000Y-85725000D03*
X156845000Y-85725000D03*
X159385000Y-85725000D03*
D13*
X161925000Y-85725000D03*
D12*
X103505000Y-70485000D03*
X106045000Y-70485000D03*
X108585000Y-70485000D03*
X111125000Y-70485000D03*
X113665000Y-70485000D03*
X116205000Y-70485000D03*
X118745000Y-70485000D03*
X121285000Y-70485000D03*
X123825000Y-70485000D03*
X126365000Y-70485000D03*
X128905000Y-70485000D03*
X131445000Y-70485000D03*
X133985000Y-70485000D03*
X136525000Y-70485000D03*
X139065000Y-70485000D03*
X141605000Y-70485000D03*
X144145000Y-70485000D03*
X146685000Y-70485000D03*
X149225000Y-70485000D03*
X151765000Y-70485000D03*
X154305000Y-70485000D03*
X156845000Y-70485000D03*
X159385000Y-70485000D03*
D13*
X161925000Y-70485000D03*
X161925000Y-67945000D03*
D12*
X133985000Y-83185000D03*
X159385000Y-67945000D03*
X136525000Y-83185000D03*
X156845000Y-67945000D03*
X139065000Y-83185000D03*
X154305000Y-67945000D03*
X141605000Y-83185000D03*
X151765000Y-67945000D03*
X144145000Y-83185000D03*
X149225000Y-67945000D03*
X146685000Y-83185000D03*
X146685000Y-67945000D03*
X149225000Y-83185000D03*
X144145000Y-67945000D03*
X151765000Y-83185000D03*
X141605000Y-67945000D03*
X154305000Y-83185000D03*
X139065000Y-67945000D03*
X156845000Y-83185000D03*
X136525000Y-67945000D03*
X159385000Y-83185000D03*
X133985000Y-67945000D03*
X161925000Y-83185000D03*
D13*
X131445000Y-67945000D03*
D12*
X103505000Y-83185000D03*
X128905000Y-67945000D03*
X106045000Y-83185000D03*
X126365000Y-67945000D03*
X108585000Y-83185000D03*
X123825000Y-67945000D03*
X111125000Y-83185000D03*
X121285000Y-67945000D03*
X113665000Y-83185000D03*
X118745000Y-67945000D03*
X116205000Y-83185000D03*
X116205000Y-67945000D03*
X118745000Y-83185000D03*
X113665000Y-67945000D03*
X121285000Y-83185000D03*
X111125000Y-67945000D03*
X123825000Y-83185000D03*
X108585000Y-67945000D03*
X126365000Y-83185000D03*
X106045000Y-67945000D03*
X128905000Y-83185000D03*
X103505000Y-67945000D03*
X131445000Y-83185000D03*
D14*
X166116000Y-68072000D03*
X166116000Y-70104000D03*
X166116000Y-67056000D03*
X104775000Y-81280000D03*
X165227000Y-79057500D03*
X164591998Y-80073500D03*
X163957000Y-81026000D03*
X163258500Y-82042000D03*
X166243000Y-83058000D03*
X166243000Y-84074000D03*
X169545000Y-66421000D03*
X167767000Y-64135000D03*
X167767000Y-65786000D03*
X169545000Y-68199000D03*
X121285000Y-72009000D03*
X118745000Y-72771000D03*
X116205000Y-73660000D03*
X113665000Y-74930000D03*
X111125000Y-76200000D03*
X108584986Y-77470000D03*
X106045000Y-78740000D03*
D15*
X103505000Y-67945000D02*
X103505000Y-70485000D01*
D16*
X162079496Y-81280000D02*
X104775000Y-81280000D01*
X165294496Y-78065000D02*
X162079496Y-81280000D01*
X167365000Y-78065000D02*
X165294496Y-78065000D01*
D15*
X106045000Y-67945000D02*
X106045000Y-70485000D01*
D16*
X165234500Y-79065000D02*
X165227000Y-79057500D01*
X167365000Y-79065000D02*
X165234500Y-79065000D01*
D15*
X108585000Y-67945000D02*
X108585000Y-70485000D01*
D16*
X164600498Y-80065000D02*
X164591998Y-80073500D01*
X167365000Y-80065000D02*
X164600498Y-80065000D01*
D15*
X111125000Y-67945000D02*
X111125000Y-70485000D01*
D16*
X167365000Y-81065000D02*
X163996000Y-81065000D01*
X163996000Y-81065000D02*
X163957000Y-81026000D01*
D15*
X113665000Y-67945000D02*
X113665000Y-70485000D01*
D16*
X163281500Y-82065000D02*
X163258500Y-82042000D01*
X167365000Y-82065000D02*
X163281500Y-82065000D01*
X167358000Y-83058000D02*
X167365000Y-83065000D01*
D15*
X146685000Y-83185000D02*
X146685000Y-85725000D01*
X144145000Y-83185000D02*
X144145000Y-85725000D01*
X141605000Y-83185000D02*
X141605000Y-85725000D01*
X139065000Y-83185000D02*
X139065000Y-85725000D01*
X136525000Y-83185000D02*
X136525000Y-85725000D01*
X133985000Y-67945000D02*
X133985000Y-70485000D01*
X136525000Y-67945000D02*
X136525000Y-70485000D01*
X126365000Y-83185000D02*
X126365000Y-85725000D01*
X139065000Y-67945000D02*
X139065000Y-70485000D01*
X141605000Y-67945000D02*
X141605000Y-70485000D01*
X121285000Y-83185000D02*
X121285000Y-85725000D01*
D16*
X165530002Y-69065000D02*
X167365000Y-69065000D01*
X162586002Y-72009000D02*
X165530002Y-69065000D01*
X121285000Y-72009000D02*
X162586002Y-72009000D01*
D15*
X144145000Y-67945000D02*
X144145000Y-70485000D01*
X118745000Y-83185000D02*
X118745000Y-85725000D01*
D16*
X164846000Y-72771000D02*
X118745000Y-72771000D01*
X166552000Y-71065000D02*
X164846000Y-72771000D01*
X167365000Y-71065000D02*
X166552000Y-71065000D01*
D15*
X146685000Y-67945000D02*
X146685000Y-70485000D01*
X116205000Y-83185000D02*
X116205000Y-85725000D01*
D16*
X165100000Y-73660000D02*
X116205000Y-73660000D01*
X166695000Y-72065000D02*
X165100000Y-73660000D01*
X167365000Y-72065000D02*
X166695000Y-72065000D01*
D15*
X149225000Y-67945000D02*
X149225000Y-70485000D01*
X113665000Y-83185000D02*
X113665000Y-85725000D01*
D16*
X164592000Y-74930000D02*
X113665000Y-74930000D01*
X166457000Y-73065000D02*
X164592000Y-74930000D01*
X167365000Y-73065000D02*
X166457000Y-73065000D01*
D15*
X151765000Y-67945000D02*
X151765000Y-70485000D01*
X111125000Y-83185000D02*
X111125000Y-85725000D01*
D16*
X164480000Y-76200000D02*
X111125000Y-76200000D01*
X166615000Y-74065000D02*
X164480000Y-76200000D01*
X167365000Y-74065000D02*
X166615000Y-74065000D01*
D15*
X154305000Y-67945000D02*
X154305000Y-70485000D01*
X108585000Y-83185000D02*
X108585000Y-85725000D01*
D16*
X166385264Y-75065000D02*
X163980264Y-77470000D01*
X163980264Y-77470000D02*
X108584986Y-77470000D01*
X167365000Y-75065000D02*
X166385264Y-75065000D01*
D15*
X156845000Y-67945000D02*
X156845000Y-70485000D01*
X106045000Y-83185000D02*
X106045000Y-85725000D01*
D16*
X167365000Y-76065000D02*
X166021674Y-76065000D01*
X163346674Y-78740000D02*
X106045000Y-78740000D01*
X166021674Y-76065000D02*
X163346674Y-78740000D01*
D15*
X159385000Y-67945000D02*
X159385000Y-70485000D01*
X103505000Y-83185000D02*
X103505000Y-85725000D01*
D16*
X162713085Y-80010000D02*
X165658085Y-77065000D01*
X103505000Y-80645000D02*
X104140000Y-80010000D01*
X103505000Y-83185000D02*
X103505000Y-80645000D01*
X104140000Y-80010000D02*
X162713085Y-80010000D01*
X165658085Y-77065000D02*
X167365000Y-77065000D01*
D15*
X161925000Y-67945000D02*
X161925000Y-70485000D01*
X149225000Y-83185000D02*
X149225000Y-85725000D01*
X151765000Y-83185000D02*
X151765000Y-85725000D01*
X154305000Y-83185000D02*
X154305000Y-85725000D01*
X156845000Y-83185000D02*
X156845000Y-85725000D01*
X159385000Y-83185000D02*
X159385000Y-85725000D01*
X161925000Y-83185000D02*
X161925000Y-85725000D01*
X131445000Y-83185000D02*
X131445000Y-85725000D01*
X123825000Y-83185000D02*
X123825000Y-85725000D01*
X118745000Y-67945000D02*
X118745000Y-70485000D01*
X121285000Y-67945000D02*
X121285000Y-70485000D01*
X123825000Y-67945000D02*
X123825000Y-70485000D01*
X126365000Y-67945000D02*
X126365000Y-70485000D01*
X128905000Y-67945000D02*
X128905000Y-70485000D01*
X131445000Y-67945000D02*
X131445000Y-70485000D01*
X128905000Y-83185000D02*
X128905000Y-85725000D01*
D17*
X172975135Y-63106870D02*
X173098388Y-63144082D01*
X173212068Y-63204526D01*
X173311841Y-63285899D01*
X173393911Y-63385105D01*
X173455147Y-63498357D01*
X173493220Y-63621352D01*
X173509000Y-63771492D01*
X173509001Y-87352470D01*
X173494130Y-87504135D01*
X173456918Y-87627388D01*
X173396474Y-87741067D01*
X173315097Y-87840845D01*
X173215897Y-87922910D01*
X173102640Y-87984148D01*
X172979648Y-88022220D01*
X172829508Y-88038000D01*
X102766520Y-88038000D01*
X102614865Y-88023130D01*
X102491612Y-87985918D01*
X102377933Y-87925474D01*
X102278155Y-87844097D01*
X102196090Y-87744897D01*
X102134852Y-87631640D01*
X102096780Y-87508648D01*
X102081000Y-87358508D01*
X102081000Y-83068682D01*
X102324000Y-83068682D01*
X102324000Y-83301318D01*
X102369386Y-83529485D01*
X102458412Y-83744413D01*
X102587658Y-83937843D01*
X102752157Y-84102342D01*
X102874000Y-84183755D01*
X102874001Y-84726245D01*
X102752157Y-84807658D01*
X102587658Y-84972157D01*
X102458412Y-85165587D01*
X102369386Y-85380515D01*
X102324000Y-85608682D01*
X102324000Y-85841318D01*
X102369386Y-86069485D01*
X102458412Y-86284413D01*
X102587658Y-86477843D01*
X102752157Y-86642342D01*
X102945587Y-86771588D01*
X103160515Y-86860614D01*
X103388682Y-86906000D01*
X103621318Y-86906000D01*
X103849485Y-86860614D01*
X104064413Y-86771588D01*
X104257843Y-86642342D01*
X104422342Y-86477843D01*
X104551588Y-86284413D01*
X104640614Y-86069485D01*
X104686000Y-85841318D01*
X104686000Y-85608682D01*
X104640614Y-85380515D01*
X104551588Y-85165587D01*
X104422342Y-84972157D01*
X104257843Y-84807658D01*
X104136000Y-84726245D01*
X104136000Y-84183755D01*
X104257843Y-84102342D01*
X104422342Y-83937843D01*
X104551588Y-83744413D01*
X104640614Y-83529485D01*
X104686000Y-83301318D01*
X104686000Y-83068682D01*
X104864000Y-83068682D01*
X104864000Y-83301318D01*
X104909386Y-83529485D01*
X104998412Y-83744413D01*
X105127658Y-83937843D01*
X105292157Y-84102342D01*
X105414000Y-84183755D01*
X105414001Y-84726245D01*
X105292157Y-84807658D01*
X105127658Y-84972157D01*
X104998412Y-85165587D01*
X104909386Y-85380515D01*
X104864000Y-85608682D01*
X104864000Y-85841318D01*
X104909386Y-86069485D01*
X104998412Y-86284413D01*
X105127658Y-86477843D01*
X105292157Y-86642342D01*
X105485587Y-86771588D01*
X105700515Y-86860614D01*
X105928682Y-86906000D01*
X106161318Y-86906000D01*
X106389485Y-86860614D01*
X106604413Y-86771588D01*
X106797843Y-86642342D01*
X106962342Y-86477843D01*
X107091588Y-86284413D01*
X107180614Y-86069485D01*
X107226000Y-85841318D01*
X107226000Y-85608682D01*
X107180614Y-85380515D01*
X107091588Y-85165587D01*
X106962342Y-84972157D01*
X106797843Y-84807658D01*
X106676000Y-84726245D01*
X106676000Y-84183755D01*
X106797843Y-84102342D01*
X106962342Y-83937843D01*
X107091588Y-83744413D01*
X107180614Y-83529485D01*
X107226000Y-83301318D01*
X107226000Y-83068682D01*
X107404000Y-83068682D01*
X107404000Y-83301318D01*
X107449386Y-83529485D01*
X107538412Y-83744413D01*
X107667658Y-83937843D01*
X107832157Y-84102342D01*
X107954000Y-84183755D01*
X107954001Y-84726245D01*
X107832157Y-84807658D01*
X107667658Y-84972157D01*
X107538412Y-85165587D01*
X107449386Y-85380515D01*
X107404000Y-85608682D01*
X107404000Y-85841318D01*
X107449386Y-86069485D01*
X107538412Y-86284413D01*
X107667658Y-86477843D01*
X107832157Y-86642342D01*
X108025587Y-86771588D01*
X108240515Y-86860614D01*
X108468682Y-86906000D01*
X108701318Y-86906000D01*
X108929485Y-86860614D01*
X109144413Y-86771588D01*
X109337843Y-86642342D01*
X109502342Y-86477843D01*
X109631588Y-86284413D01*
X109720614Y-86069485D01*
X109766000Y-85841318D01*
X109766000Y-85608682D01*
X109720614Y-85380515D01*
X109631588Y-85165587D01*
X109502342Y-84972157D01*
X109337843Y-84807658D01*
X109216000Y-84726245D01*
X109216000Y-84183755D01*
X109337843Y-84102342D01*
X109502342Y-83937843D01*
X109631588Y-83744413D01*
X109720614Y-83529485D01*
X109766000Y-83301318D01*
X109766000Y-83068682D01*
X109944000Y-83068682D01*
X109944000Y-83301318D01*
X109989386Y-83529485D01*
X110078412Y-83744413D01*
X110207658Y-83937843D01*
X110372157Y-84102342D01*
X110494000Y-84183755D01*
X110494001Y-84726245D01*
X110372157Y-84807658D01*
X110207658Y-84972157D01*
X110078412Y-85165587D01*
X109989386Y-85380515D01*
X109944000Y-85608682D01*
X109944000Y-85841318D01*
X109989386Y-86069485D01*
X110078412Y-86284413D01*
X110207658Y-86477843D01*
X110372157Y-86642342D01*
X110565587Y-86771588D01*
X110780515Y-86860614D01*
X111008682Y-86906000D01*
X111241318Y-86906000D01*
X111469485Y-86860614D01*
X111684413Y-86771588D01*
X111877843Y-86642342D01*
X112042342Y-86477843D01*
X112171588Y-86284413D01*
X112260614Y-86069485D01*
X112306000Y-85841318D01*
X112306000Y-85608682D01*
X112260614Y-85380515D01*
X112171588Y-85165587D01*
X112042342Y-84972157D01*
X111877843Y-84807658D01*
X111756000Y-84726245D01*
X111756000Y-84183755D01*
X111877843Y-84102342D01*
X112042342Y-83937843D01*
X112171588Y-83744413D01*
X112260614Y-83529485D01*
X112306000Y-83301318D01*
X112306000Y-83068682D01*
X112484000Y-83068682D01*
X112484000Y-83301318D01*
X112529386Y-83529485D01*
X112618412Y-83744413D01*
X112747658Y-83937843D01*
X112912157Y-84102342D01*
X113034000Y-84183755D01*
X113034001Y-84726245D01*
X112912157Y-84807658D01*
X112747658Y-84972157D01*
X112618412Y-85165587D01*
X112529386Y-85380515D01*
X112484000Y-85608682D01*
X112484000Y-85841318D01*
X112529386Y-86069485D01*
X112618412Y-86284413D01*
X112747658Y-86477843D01*
X112912157Y-86642342D01*
X113105587Y-86771588D01*
X113320515Y-86860614D01*
X113548682Y-86906000D01*
X113781318Y-86906000D01*
X114009485Y-86860614D01*
X114224413Y-86771588D01*
X114417843Y-86642342D01*
X114582342Y-86477843D01*
X114711588Y-86284413D01*
X114800614Y-86069485D01*
X114846000Y-85841318D01*
X114846000Y-85608682D01*
X114800614Y-85380515D01*
X114711588Y-85165587D01*
X114582342Y-84972157D01*
X114417843Y-84807658D01*
X114296000Y-84726245D01*
X114296000Y-84183755D01*
X114417843Y-84102342D01*
X114582342Y-83937843D01*
X114711588Y-83744413D01*
X114800614Y-83529485D01*
X114846000Y-83301318D01*
X114846000Y-83068682D01*
X115024000Y-83068682D01*
X115024000Y-83301318D01*
X115069386Y-83529485D01*
X115158412Y-83744413D01*
X115287658Y-83937843D01*
X115452157Y-84102342D01*
X115574000Y-84183755D01*
X115574001Y-84726245D01*
X115452157Y-84807658D01*
X115287658Y-84972157D01*
X115158412Y-85165587D01*
X115069386Y-85380515D01*
X115024000Y-85608682D01*
X115024000Y-85841318D01*
X115069386Y-86069485D01*
X115158412Y-86284413D01*
X115287658Y-86477843D01*
X115452157Y-86642342D01*
X115645587Y-86771588D01*
X115860515Y-86860614D01*
X116088682Y-86906000D01*
X116321318Y-86906000D01*
X116549485Y-86860614D01*
X116764413Y-86771588D01*
X116957843Y-86642342D01*
X117122342Y-86477843D01*
X117251588Y-86284413D01*
X117340614Y-86069485D01*
X117386000Y-85841318D01*
X117386000Y-85608682D01*
X117340614Y-85380515D01*
X117251588Y-85165587D01*
X117122342Y-84972157D01*
X116957843Y-84807658D01*
X116836000Y-84726245D01*
X116836000Y-84183755D01*
X116957843Y-84102342D01*
X117122342Y-83937843D01*
X117251588Y-83744413D01*
X117340614Y-83529485D01*
X117386000Y-83301318D01*
X117386000Y-83068682D01*
X117564000Y-83068682D01*
X117564000Y-83301318D01*
X117609386Y-83529485D01*
X117698412Y-83744413D01*
X117827658Y-83937843D01*
X117992157Y-84102342D01*
X118114000Y-84183755D01*
X118114001Y-84726245D01*
X117992157Y-84807658D01*
X117827658Y-84972157D01*
X117698412Y-85165587D01*
X117609386Y-85380515D01*
X117564000Y-85608682D01*
X117564000Y-85841318D01*
X117609386Y-86069485D01*
X117698412Y-86284413D01*
X117827658Y-86477843D01*
X117992157Y-86642342D01*
X118185587Y-86771588D01*
X118400515Y-86860614D01*
X118628682Y-86906000D01*
X118861318Y-86906000D01*
X119089485Y-86860614D01*
X119304413Y-86771588D01*
X119497843Y-86642342D01*
X119662342Y-86477843D01*
X119791588Y-86284413D01*
X119880614Y-86069485D01*
X119926000Y-85841318D01*
X119926000Y-85608682D01*
X119880614Y-85380515D01*
X119791588Y-85165587D01*
X119662342Y-84972157D01*
X119497843Y-84807658D01*
X119376000Y-84726245D01*
X119376000Y-84183755D01*
X119497843Y-84102342D01*
X119662342Y-83937843D01*
X119791588Y-83744413D01*
X119880614Y-83529485D01*
X119926000Y-83301318D01*
X119926000Y-83068682D01*
X120104000Y-83068682D01*
X120104000Y-83301318D01*
X120149386Y-83529485D01*
X120238412Y-83744413D01*
X120367658Y-83937843D01*
X120532157Y-84102342D01*
X120654000Y-84183755D01*
X120654001Y-84726245D01*
X120532157Y-84807658D01*
X120367658Y-84972157D01*
X120238412Y-85165587D01*
X120149386Y-85380515D01*
X120104000Y-85608682D01*
X120104000Y-85841318D01*
X120149386Y-86069485D01*
X120238412Y-86284413D01*
X120367658Y-86477843D01*
X120532157Y-86642342D01*
X120725587Y-86771588D01*
X120940515Y-86860614D01*
X121168682Y-86906000D01*
X121401318Y-86906000D01*
X121629485Y-86860614D01*
X121844413Y-86771588D01*
X122037843Y-86642342D01*
X122202342Y-86477843D01*
X122331588Y-86284413D01*
X122420614Y-86069485D01*
X122466000Y-85841318D01*
X122466000Y-85608682D01*
X122420614Y-85380515D01*
X122331588Y-85165587D01*
X122202342Y-84972157D01*
X122037843Y-84807658D01*
X121916000Y-84726245D01*
X121916000Y-84183755D01*
X122037843Y-84102342D01*
X122202342Y-83937843D01*
X122331588Y-83744413D01*
X122420614Y-83529485D01*
X122466000Y-83301318D01*
X122466000Y-83068682D01*
X122644000Y-83068682D01*
X122644000Y-83301318D01*
X122689386Y-83529485D01*
X122778412Y-83744413D01*
X122907658Y-83937843D01*
X123072157Y-84102342D01*
X123194000Y-84183755D01*
X123194001Y-84726245D01*
X123072157Y-84807658D01*
X122907658Y-84972157D01*
X122778412Y-85165587D01*
X122689386Y-85380515D01*
X122644000Y-85608682D01*
X122644000Y-85841318D01*
X122689386Y-86069485D01*
X122778412Y-86284413D01*
X122907658Y-86477843D01*
X123072157Y-86642342D01*
X123265587Y-86771588D01*
X123480515Y-86860614D01*
X123708682Y-86906000D01*
X123941318Y-86906000D01*
X124169485Y-86860614D01*
X124384413Y-86771588D01*
X124577843Y-86642342D01*
X124742342Y-86477843D01*
X124871588Y-86284413D01*
X124960614Y-86069485D01*
X125006000Y-85841318D01*
X125006000Y-85608682D01*
X124960614Y-85380515D01*
X124871588Y-85165587D01*
X124742342Y-84972157D01*
X124577843Y-84807658D01*
X124456000Y-84726245D01*
X124456000Y-84183755D01*
X124577843Y-84102342D01*
X124742342Y-83937843D01*
X124871588Y-83744413D01*
X124960614Y-83529485D01*
X125006000Y-83301318D01*
X125006000Y-83068682D01*
X125184000Y-83068682D01*
X125184000Y-83301318D01*
X125229386Y-83529485D01*
X125318412Y-83744413D01*
X125447658Y-83937843D01*
X125612157Y-84102342D01*
X125734000Y-84183755D01*
X125734001Y-84726245D01*
X125612157Y-84807658D01*
X125447658Y-84972157D01*
X125318412Y-85165587D01*
X125229386Y-85380515D01*
X125184000Y-85608682D01*
X125184000Y-85841318D01*
X125229386Y-86069485D01*
X125318412Y-86284413D01*
X125447658Y-86477843D01*
X125612157Y-86642342D01*
X125805587Y-86771588D01*
X126020515Y-86860614D01*
X126248682Y-86906000D01*
X126481318Y-86906000D01*
X126709485Y-86860614D01*
X126924413Y-86771588D01*
X127117843Y-86642342D01*
X127282342Y-86477843D01*
X127411588Y-86284413D01*
X127500614Y-86069485D01*
X127546000Y-85841318D01*
X127546000Y-85608682D01*
X127500614Y-85380515D01*
X127411588Y-85165587D01*
X127282342Y-84972157D01*
X127117843Y-84807658D01*
X126996000Y-84726245D01*
X126996000Y-84183755D01*
X127117843Y-84102342D01*
X127282342Y-83937843D01*
X127411588Y-83744413D01*
X127500614Y-83529485D01*
X127546000Y-83301318D01*
X127546000Y-83068682D01*
X127724000Y-83068682D01*
X127724000Y-83301318D01*
X127769386Y-83529485D01*
X127858412Y-83744413D01*
X127987658Y-83937843D01*
X128152157Y-84102342D01*
X128274000Y-84183755D01*
X128274001Y-84726245D01*
X128152157Y-84807658D01*
X127987658Y-84972157D01*
X127858412Y-85165587D01*
X127769386Y-85380515D01*
X127724000Y-85608682D01*
X127724000Y-85841318D01*
X127769386Y-86069485D01*
X127858412Y-86284413D01*
X127987658Y-86477843D01*
X128152157Y-86642342D01*
X128345587Y-86771588D01*
X128560515Y-86860614D01*
X128788682Y-86906000D01*
X129021318Y-86906000D01*
X129249485Y-86860614D01*
X129464413Y-86771588D01*
X129657843Y-86642342D01*
X129822342Y-86477843D01*
X129951588Y-86284413D01*
X130040614Y-86069485D01*
X130086000Y-85841318D01*
X130086000Y-85608682D01*
X130040614Y-85380515D01*
X129951588Y-85165587D01*
X129822342Y-84972157D01*
X129657843Y-84807658D01*
X129536000Y-84726245D01*
X129536000Y-84183755D01*
X129657843Y-84102342D01*
X129822342Y-83937843D01*
X129951588Y-83744413D01*
X130040614Y-83529485D01*
X130086000Y-83301318D01*
X130086000Y-83068682D01*
X130264000Y-83068682D01*
X130264000Y-83301318D01*
X130309386Y-83529485D01*
X130398412Y-83744413D01*
X130527658Y-83937843D01*
X130692157Y-84102342D01*
X130814000Y-84183755D01*
X130814001Y-84726245D01*
X130692157Y-84807658D01*
X130527658Y-84972157D01*
X130398412Y-85165587D01*
X130309386Y-85380515D01*
X130264000Y-85608682D01*
X130264000Y-85841318D01*
X130309386Y-86069485D01*
X130398412Y-86284413D01*
X130527658Y-86477843D01*
X130692157Y-86642342D01*
X130885587Y-86771588D01*
X131100515Y-86860614D01*
X131328682Y-86906000D01*
X131561318Y-86906000D01*
X131789485Y-86860614D01*
X132004413Y-86771588D01*
X132197843Y-86642342D01*
X132362342Y-86477843D01*
X132491588Y-86284413D01*
X132580614Y-86069485D01*
X132587649Y-86034115D01*
X132845165Y-86034115D01*
X132927372Y-86250546D01*
X133050223Y-86446781D01*
X133208997Y-86615278D01*
X133397592Y-86749562D01*
X133608761Y-86844473D01*
X133675886Y-86864829D01*
X133858000Y-86803297D01*
X133858000Y-85852000D01*
X134112000Y-85852000D01*
X134112000Y-86803297D01*
X134294114Y-86864829D01*
X134361239Y-86844473D01*
X134572408Y-86749562D01*
X134761003Y-86615278D01*
X134919777Y-86446781D01*
X135042628Y-86250546D01*
X135124835Y-86034115D01*
X135063908Y-85852000D01*
X134112000Y-85852000D01*
X133858000Y-85852000D01*
X132906092Y-85852000D01*
X132845165Y-86034115D01*
X132587649Y-86034115D01*
X132626000Y-85841318D01*
X132626000Y-85608682D01*
X132587650Y-85415885D01*
X132845165Y-85415885D01*
X132906092Y-85598000D01*
X133858000Y-85598000D01*
X133858000Y-84646703D01*
X134112000Y-84646703D01*
X134112000Y-85598000D01*
X135063908Y-85598000D01*
X135124835Y-85415885D01*
X135042628Y-85199454D01*
X134919777Y-85003219D01*
X134761003Y-84834722D01*
X134572408Y-84700438D01*
X134361239Y-84605527D01*
X134294114Y-84585171D01*
X134112000Y-84646703D01*
X133858000Y-84646703D01*
X133675886Y-84585171D01*
X133608761Y-84605527D01*
X133397592Y-84700438D01*
X133208997Y-84834722D01*
X133050223Y-85003219D01*
X132927372Y-85199454D01*
X132845165Y-85415885D01*
X132587650Y-85415885D01*
X132580614Y-85380515D01*
X132491588Y-85165587D01*
X132362342Y-84972157D01*
X132197843Y-84807658D01*
X132076000Y-84726245D01*
X132076000Y-84183755D01*
X132197843Y-84102342D01*
X132362342Y-83937843D01*
X132491588Y-83744413D01*
X132580614Y-83529485D01*
X132587649Y-83494115D01*
X132845165Y-83494115D01*
X132927372Y-83710546D01*
X133050223Y-83906781D01*
X133208997Y-84075278D01*
X133397592Y-84209562D01*
X133608761Y-84304473D01*
X133675886Y-84324829D01*
X133858000Y-84263297D01*
X133858000Y-83312000D01*
X134112000Y-83312000D01*
X134112000Y-84263297D01*
X134294114Y-84324829D01*
X134361239Y-84304473D01*
X134572408Y-84209562D01*
X134761003Y-84075278D01*
X134919777Y-83906781D01*
X135042628Y-83710546D01*
X135124835Y-83494115D01*
X135063908Y-83312000D01*
X134112000Y-83312000D01*
X133858000Y-83312000D01*
X132906092Y-83312000D01*
X132845165Y-83494115D01*
X132587649Y-83494115D01*
X132626000Y-83301318D01*
X132626000Y-83068682D01*
X135344000Y-83068682D01*
X135344000Y-83301318D01*
X135389386Y-83529485D01*
X135478412Y-83744413D01*
X135607658Y-83937843D01*
X135772157Y-84102342D01*
X135894000Y-84183755D01*
X135894001Y-84726245D01*
X135772157Y-84807658D01*
X135607658Y-84972157D01*
X135478412Y-85165587D01*
X135389386Y-85380515D01*
X135344000Y-85608682D01*
X135344000Y-85841318D01*
X135389386Y-86069485D01*
X135478412Y-86284413D01*
X135607658Y-86477843D01*
X135772157Y-86642342D01*
X135965587Y-86771588D01*
X136180515Y-86860614D01*
X136408682Y-86906000D01*
X136641318Y-86906000D01*
X136869485Y-86860614D01*
X137084413Y-86771588D01*
X137277843Y-86642342D01*
X137442342Y-86477843D01*
X137571588Y-86284413D01*
X137660614Y-86069485D01*
X137706000Y-85841318D01*
X137706000Y-85608682D01*
X137660614Y-85380515D01*
X137571588Y-85165587D01*
X137442342Y-84972157D01*
X137277843Y-84807658D01*
X137156000Y-84726245D01*
X137156000Y-84183755D01*
X137277843Y-84102342D01*
X137442342Y-83937843D01*
X137571588Y-83744413D01*
X137660614Y-83529485D01*
X137706000Y-83301318D01*
X137706000Y-83068682D01*
X137884000Y-83068682D01*
X137884000Y-83301318D01*
X137929386Y-83529485D01*
X138018412Y-83744413D01*
X138147658Y-83937843D01*
X138312157Y-84102342D01*
X138434000Y-84183755D01*
X138434001Y-84726245D01*
X138312157Y-84807658D01*
X138147658Y-84972157D01*
X138018412Y-85165587D01*
X137929386Y-85380515D01*
X137884000Y-85608682D01*
X137884000Y-85841318D01*
X137929386Y-86069485D01*
X138018412Y-86284413D01*
X138147658Y-86477843D01*
X138312157Y-86642342D01*
X138505587Y-86771588D01*
X138720515Y-86860614D01*
X138948682Y-86906000D01*
X139181318Y-86906000D01*
X139409485Y-86860614D01*
X139624413Y-86771588D01*
X139817843Y-86642342D01*
X139982342Y-86477843D01*
X140111588Y-86284413D01*
X140200614Y-86069485D01*
X140246000Y-85841318D01*
X140246000Y-85608682D01*
X140200614Y-85380515D01*
X140111588Y-85165587D01*
X139982342Y-84972157D01*
X139817843Y-84807658D01*
X139696000Y-84726245D01*
X139696000Y-84183755D01*
X139817843Y-84102342D01*
X139982342Y-83937843D01*
X140111588Y-83744413D01*
X140200614Y-83529485D01*
X140246000Y-83301318D01*
X140246000Y-83068682D01*
X140424000Y-83068682D01*
X140424000Y-83301318D01*
X140469386Y-83529485D01*
X140558412Y-83744413D01*
X140687658Y-83937843D01*
X140852157Y-84102342D01*
X140974000Y-84183755D01*
X140974001Y-84726245D01*
X140852157Y-84807658D01*
X140687658Y-84972157D01*
X140558412Y-85165587D01*
X140469386Y-85380515D01*
X140424000Y-85608682D01*
X140424000Y-85841318D01*
X140469386Y-86069485D01*
X140558412Y-86284413D01*
X140687658Y-86477843D01*
X140852157Y-86642342D01*
X141045587Y-86771588D01*
X141260515Y-86860614D01*
X141488682Y-86906000D01*
X141721318Y-86906000D01*
X141949485Y-86860614D01*
X142164413Y-86771588D01*
X142357843Y-86642342D01*
X142522342Y-86477843D01*
X142651588Y-86284413D01*
X142740614Y-86069485D01*
X142786000Y-85841318D01*
X142786000Y-85608682D01*
X142740614Y-85380515D01*
X142651588Y-85165587D01*
X142522342Y-84972157D01*
X142357843Y-84807658D01*
X142236000Y-84726245D01*
X142236000Y-84183755D01*
X142357843Y-84102342D01*
X142522342Y-83937843D01*
X142651588Y-83744413D01*
X142740614Y-83529485D01*
X142786000Y-83301318D01*
X142786000Y-83068682D01*
X142964000Y-83068682D01*
X142964000Y-83301318D01*
X143009386Y-83529485D01*
X143098412Y-83744413D01*
X143227658Y-83937843D01*
X143392157Y-84102342D01*
X143514000Y-84183755D01*
X143514001Y-84726245D01*
X143392157Y-84807658D01*
X143227658Y-84972157D01*
X143098412Y-85165587D01*
X143009386Y-85380515D01*
X142964000Y-85608682D01*
X142964000Y-85841318D01*
X143009386Y-86069485D01*
X143098412Y-86284413D01*
X143227658Y-86477843D01*
X143392157Y-86642342D01*
X143585587Y-86771588D01*
X143800515Y-86860614D01*
X144028682Y-86906000D01*
X144261318Y-86906000D01*
X144489485Y-86860614D01*
X144704413Y-86771588D01*
X144897843Y-86642342D01*
X145062342Y-86477843D01*
X145191588Y-86284413D01*
X145280614Y-86069485D01*
X145326000Y-85841318D01*
X145326000Y-85608682D01*
X145280614Y-85380515D01*
X145191588Y-85165587D01*
X145062342Y-84972157D01*
X144897843Y-84807658D01*
X144776000Y-84726245D01*
X144776000Y-84183755D01*
X144897843Y-84102342D01*
X145062342Y-83937843D01*
X145191588Y-83744413D01*
X145280614Y-83529485D01*
X145326000Y-83301318D01*
X145326000Y-83068682D01*
X145504000Y-83068682D01*
X145504000Y-83301318D01*
X145549386Y-83529485D01*
X145638412Y-83744413D01*
X145767658Y-83937843D01*
X145932157Y-84102342D01*
X146054000Y-84183755D01*
X146054001Y-84726245D01*
X145932157Y-84807658D01*
X145767658Y-84972157D01*
X145638412Y-85165587D01*
X145549386Y-85380515D01*
X145504000Y-85608682D01*
X145504000Y-85841318D01*
X145549386Y-86069485D01*
X145638412Y-86284413D01*
X145767658Y-86477843D01*
X145932157Y-86642342D01*
X146125587Y-86771588D01*
X146340515Y-86860614D01*
X146568682Y-86906000D01*
X146801318Y-86906000D01*
X147029485Y-86860614D01*
X147244413Y-86771588D01*
X147437843Y-86642342D01*
X147602342Y-86477843D01*
X147731588Y-86284413D01*
X147820614Y-86069485D01*
X147866000Y-85841318D01*
X147866000Y-85608682D01*
X147820614Y-85380515D01*
X147731588Y-85165587D01*
X147602342Y-84972157D01*
X147437843Y-84807658D01*
X147316000Y-84726245D01*
X147316000Y-84183755D01*
X147437843Y-84102342D01*
X147602342Y-83937843D01*
X147731588Y-83744413D01*
X147820614Y-83529485D01*
X147866000Y-83301318D01*
X147866000Y-83068682D01*
X148044000Y-83068682D01*
X148044000Y-83301318D01*
X148089386Y-83529485D01*
X148178412Y-83744413D01*
X148307658Y-83937843D01*
X148472157Y-84102342D01*
X148594000Y-84183755D01*
X148594001Y-84726245D01*
X148472157Y-84807658D01*
X148307658Y-84972157D01*
X148178412Y-85165587D01*
X148089386Y-85380515D01*
X148044000Y-85608682D01*
X148044000Y-85841318D01*
X148089386Y-86069485D01*
X148178412Y-86284413D01*
X148307658Y-86477843D01*
X148472157Y-86642342D01*
X148665587Y-86771588D01*
X148880515Y-86860614D01*
X149108682Y-86906000D01*
X149341318Y-86906000D01*
X149569485Y-86860614D01*
X149784413Y-86771588D01*
X149977843Y-86642342D01*
X150142342Y-86477843D01*
X150271588Y-86284413D01*
X150360614Y-86069485D01*
X150406000Y-85841318D01*
X150406000Y-85608682D01*
X150360614Y-85380515D01*
X150271588Y-85165587D01*
X150142342Y-84972157D01*
X149977843Y-84807658D01*
X149856000Y-84726245D01*
X149856000Y-84183755D01*
X149977843Y-84102342D01*
X150142342Y-83937843D01*
X150271588Y-83744413D01*
X150360614Y-83529485D01*
X150406000Y-83301318D01*
X150406000Y-83068682D01*
X150584000Y-83068682D01*
X150584000Y-83301318D01*
X150629386Y-83529485D01*
X150718412Y-83744413D01*
X150847658Y-83937843D01*
X151012157Y-84102342D01*
X151134000Y-84183755D01*
X151134001Y-84726245D01*
X151012157Y-84807658D01*
X150847658Y-84972157D01*
X150718412Y-85165587D01*
X150629386Y-85380515D01*
X150584000Y-85608682D01*
X150584000Y-85841318D01*
X150629386Y-86069485D01*
X150718412Y-86284413D01*
X150847658Y-86477843D01*
X151012157Y-86642342D01*
X151205587Y-86771588D01*
X151420515Y-86860614D01*
X151648682Y-86906000D01*
X151881318Y-86906000D01*
X152109485Y-86860614D01*
X152324413Y-86771588D01*
X152517843Y-86642342D01*
X152682342Y-86477843D01*
X152811588Y-86284413D01*
X152900614Y-86069485D01*
X152946000Y-85841318D01*
X152946000Y-85608682D01*
X152900614Y-85380515D01*
X152811588Y-85165587D01*
X152682342Y-84972157D01*
X152517843Y-84807658D01*
X152396000Y-84726245D01*
X152396000Y-84183755D01*
X152517843Y-84102342D01*
X152682342Y-83937843D01*
X152811588Y-83744413D01*
X152900614Y-83529485D01*
X152946000Y-83301318D01*
X152946000Y-83068682D01*
X153124000Y-83068682D01*
X153124000Y-83301318D01*
X153169386Y-83529485D01*
X153258412Y-83744413D01*
X153387658Y-83937843D01*
X153552157Y-84102342D01*
X153674000Y-84183755D01*
X153674001Y-84726245D01*
X153552157Y-84807658D01*
X153387658Y-84972157D01*
X153258412Y-85165587D01*
X153169386Y-85380515D01*
X153124000Y-85608682D01*
X153124000Y-85841318D01*
X153169386Y-86069485D01*
X153258412Y-86284413D01*
X153387658Y-86477843D01*
X153552157Y-86642342D01*
X153745587Y-86771588D01*
X153960515Y-86860614D01*
X154188682Y-86906000D01*
X154421318Y-86906000D01*
X154649485Y-86860614D01*
X154864413Y-86771588D01*
X155057843Y-86642342D01*
X155222342Y-86477843D01*
X155351588Y-86284413D01*
X155440614Y-86069485D01*
X155486000Y-85841318D01*
X155486000Y-85608682D01*
X155440614Y-85380515D01*
X155351588Y-85165587D01*
X155222342Y-84972157D01*
X155057843Y-84807658D01*
X154936000Y-84726245D01*
X154936000Y-84183755D01*
X155057843Y-84102342D01*
X155222342Y-83937843D01*
X155351588Y-83744413D01*
X155440614Y-83529485D01*
X155486000Y-83301318D01*
X155486000Y-83068682D01*
X155664000Y-83068682D01*
X155664000Y-83301318D01*
X155709386Y-83529485D01*
X155798412Y-83744413D01*
X155927658Y-83937843D01*
X156092157Y-84102342D01*
X156214000Y-84183755D01*
X156214001Y-84726245D01*
X156092157Y-84807658D01*
X155927658Y-84972157D01*
X155798412Y-85165587D01*
X155709386Y-85380515D01*
X155664000Y-85608682D01*
X155664000Y-85841318D01*
X155709386Y-86069485D01*
X155798412Y-86284413D01*
X155927658Y-86477843D01*
X156092157Y-86642342D01*
X156285587Y-86771588D01*
X156500515Y-86860614D01*
X156728682Y-86906000D01*
X156961318Y-86906000D01*
X157189485Y-86860614D01*
X157404413Y-86771588D01*
X157597843Y-86642342D01*
X157762342Y-86477843D01*
X157891588Y-86284413D01*
X157980614Y-86069485D01*
X158026000Y-85841318D01*
X158026000Y-85608682D01*
X157980614Y-85380515D01*
X157891588Y-85165587D01*
X157762342Y-84972157D01*
X157597843Y-84807658D01*
X157476000Y-84726245D01*
X157476000Y-84183755D01*
X157597843Y-84102342D01*
X157762342Y-83937843D01*
X157891588Y-83744413D01*
X157980614Y-83529485D01*
X158026000Y-83301318D01*
X158026000Y-83068682D01*
X158204000Y-83068682D01*
X158204000Y-83301318D01*
X158249386Y-83529485D01*
X158338412Y-83744413D01*
X158467658Y-83937843D01*
X158632157Y-84102342D01*
X158754000Y-84183755D01*
X158754001Y-84726245D01*
X158632157Y-84807658D01*
X158467658Y-84972157D01*
X158338412Y-85165587D01*
X158249386Y-85380515D01*
X158204000Y-85608682D01*
X158204000Y-85841318D01*
X158249386Y-86069485D01*
X158338412Y-86284413D01*
X158467658Y-86477843D01*
X158632157Y-86642342D01*
X158825587Y-86771588D01*
X159040515Y-86860614D01*
X159268682Y-86906000D01*
X159501318Y-86906000D01*
X159729485Y-86860614D01*
X159944413Y-86771588D01*
X160137843Y-86642342D01*
X160302342Y-86477843D01*
X160431588Y-86284413D01*
X160520614Y-86069485D01*
X160566000Y-85841318D01*
X160566000Y-85608682D01*
X160520614Y-85380515D01*
X160431588Y-85165587D01*
X160302342Y-84972157D01*
X160137843Y-84807658D01*
X160016000Y-84726245D01*
X160016000Y-84183755D01*
X160137843Y-84102342D01*
X160302342Y-83937843D01*
X160431588Y-83744413D01*
X160520614Y-83529485D01*
X160566000Y-83301318D01*
X160566000Y-83068682D01*
X160520614Y-82840515D01*
X160431588Y-82625587D01*
X160302342Y-82432157D01*
X160137843Y-82267658D01*
X159944413Y-82138412D01*
X159729485Y-82049386D01*
X159501318Y-82004000D01*
X159268682Y-82004000D01*
X159040515Y-82049386D01*
X158825587Y-82138412D01*
X158632157Y-82267658D01*
X158467658Y-82432157D01*
X158338412Y-82625587D01*
X158249386Y-82840515D01*
X158204000Y-83068682D01*
X158026000Y-83068682D01*
X157980614Y-82840515D01*
X157891588Y-82625587D01*
X157762342Y-82432157D01*
X157597843Y-82267658D01*
X157404413Y-82138412D01*
X157189485Y-82049386D01*
X156961318Y-82004000D01*
X156728682Y-82004000D01*
X156500515Y-82049386D01*
X156285587Y-82138412D01*
X156092157Y-82267658D01*
X155927658Y-82432157D01*
X155798412Y-82625587D01*
X155709386Y-82840515D01*
X155664000Y-83068682D01*
X155486000Y-83068682D01*
X155440614Y-82840515D01*
X155351588Y-82625587D01*
X155222342Y-82432157D01*
X155057843Y-82267658D01*
X154864413Y-82138412D01*
X154649485Y-82049386D01*
X154421318Y-82004000D01*
X154188682Y-82004000D01*
X153960515Y-82049386D01*
X153745587Y-82138412D01*
X153552157Y-82267658D01*
X153387658Y-82432157D01*
X153258412Y-82625587D01*
X153169386Y-82840515D01*
X153124000Y-83068682D01*
X152946000Y-83068682D01*
X152900614Y-82840515D01*
X152811588Y-82625587D01*
X152682342Y-82432157D01*
X152517843Y-82267658D01*
X152324413Y-82138412D01*
X152109485Y-82049386D01*
X151881318Y-82004000D01*
X151648682Y-82004000D01*
X151420515Y-82049386D01*
X151205587Y-82138412D01*
X151012157Y-82267658D01*
X150847658Y-82432157D01*
X150718412Y-82625587D01*
X150629386Y-82840515D01*
X150584000Y-83068682D01*
X150406000Y-83068682D01*
X150360614Y-82840515D01*
X150271588Y-82625587D01*
X150142342Y-82432157D01*
X149977843Y-82267658D01*
X149784413Y-82138412D01*
X149569485Y-82049386D01*
X149341318Y-82004000D01*
X149108682Y-82004000D01*
X148880515Y-82049386D01*
X148665587Y-82138412D01*
X148472157Y-82267658D01*
X148307658Y-82432157D01*
X148178412Y-82625587D01*
X148089386Y-82840515D01*
X148044000Y-83068682D01*
X147866000Y-83068682D01*
X147820614Y-82840515D01*
X147731588Y-82625587D01*
X147602342Y-82432157D01*
X147437843Y-82267658D01*
X147244413Y-82138412D01*
X147029485Y-82049386D01*
X146801318Y-82004000D01*
X146568682Y-82004000D01*
X146340515Y-82049386D01*
X146125587Y-82138412D01*
X145932157Y-82267658D01*
X145767658Y-82432157D01*
X145638412Y-82625587D01*
X145549386Y-82840515D01*
X145504000Y-83068682D01*
X145326000Y-83068682D01*
X145280614Y-82840515D01*
X145191588Y-82625587D01*
X145062342Y-82432157D01*
X144897843Y-82267658D01*
X144704413Y-82138412D01*
X144489485Y-82049386D01*
X144261318Y-82004000D01*
X144028682Y-82004000D01*
X143800515Y-82049386D01*
X143585587Y-82138412D01*
X143392157Y-82267658D01*
X143227658Y-82432157D01*
X143098412Y-82625587D01*
X143009386Y-82840515D01*
X142964000Y-83068682D01*
X142786000Y-83068682D01*
X142740614Y-82840515D01*
X142651588Y-82625587D01*
X142522342Y-82432157D01*
X142357843Y-82267658D01*
X142164413Y-82138412D01*
X141949485Y-82049386D01*
X141721318Y-82004000D01*
X141488682Y-82004000D01*
X141260515Y-82049386D01*
X141045587Y-82138412D01*
X140852157Y-82267658D01*
X140687658Y-82432157D01*
X140558412Y-82625587D01*
X140469386Y-82840515D01*
X140424000Y-83068682D01*
X140246000Y-83068682D01*
X140200614Y-82840515D01*
X140111588Y-82625587D01*
X139982342Y-82432157D01*
X139817843Y-82267658D01*
X139624413Y-82138412D01*
X139409485Y-82049386D01*
X139181318Y-82004000D01*
X138948682Y-82004000D01*
X138720515Y-82049386D01*
X138505587Y-82138412D01*
X138312157Y-82267658D01*
X138147658Y-82432157D01*
X138018412Y-82625587D01*
X137929386Y-82840515D01*
X137884000Y-83068682D01*
X137706000Y-83068682D01*
X137660614Y-82840515D01*
X137571588Y-82625587D01*
X137442342Y-82432157D01*
X137277843Y-82267658D01*
X137084413Y-82138412D01*
X136869485Y-82049386D01*
X136641318Y-82004000D01*
X136408682Y-82004000D01*
X136180515Y-82049386D01*
X135965587Y-82138412D01*
X135772157Y-82267658D01*
X135607658Y-82432157D01*
X135478412Y-82625587D01*
X135389386Y-82840515D01*
X135344000Y-83068682D01*
X132626000Y-83068682D01*
X132587650Y-82875885D01*
X132845165Y-82875885D01*
X132906092Y-83058000D01*
X133858000Y-83058000D01*
X133858000Y-82106703D01*
X134112000Y-82106703D01*
X134112000Y-83058000D01*
X135063908Y-83058000D01*
X135124835Y-82875885D01*
X135042628Y-82659454D01*
X134919777Y-82463219D01*
X134761003Y-82294722D01*
X134572408Y-82160438D01*
X134361239Y-82065527D01*
X134294114Y-82045171D01*
X134112000Y-82106703D01*
X133858000Y-82106703D01*
X133675886Y-82045171D01*
X133608761Y-82065527D01*
X133397592Y-82160438D01*
X133208997Y-82294722D01*
X133050223Y-82463219D01*
X132927372Y-82659454D01*
X132845165Y-82875885D01*
X132587650Y-82875885D01*
X132580614Y-82840515D01*
X132491588Y-82625587D01*
X132362342Y-82432157D01*
X132197843Y-82267658D01*
X132004413Y-82138412D01*
X131789485Y-82049386D01*
X131561318Y-82004000D01*
X131328682Y-82004000D01*
X131100515Y-82049386D01*
X130885587Y-82138412D01*
X130692157Y-82267658D01*
X130527658Y-82432157D01*
X130398412Y-82625587D01*
X130309386Y-82840515D01*
X130264000Y-83068682D01*
X130086000Y-83068682D01*
X130040614Y-82840515D01*
X129951588Y-82625587D01*
X129822342Y-82432157D01*
X129657843Y-82267658D01*
X129464413Y-82138412D01*
X129249485Y-82049386D01*
X129021318Y-82004000D01*
X128788682Y-82004000D01*
X128560515Y-82049386D01*
X128345587Y-82138412D01*
X128152157Y-82267658D01*
X127987658Y-82432157D01*
X127858412Y-82625587D01*
X127769386Y-82840515D01*
X127724000Y-83068682D01*
X127546000Y-83068682D01*
X127500614Y-82840515D01*
X127411588Y-82625587D01*
X127282342Y-82432157D01*
X127117843Y-82267658D01*
X126924413Y-82138412D01*
X126709485Y-82049386D01*
X126481318Y-82004000D01*
X126248682Y-82004000D01*
X126020515Y-82049386D01*
X125805587Y-82138412D01*
X125612157Y-82267658D01*
X125447658Y-82432157D01*
X125318412Y-82625587D01*
X125229386Y-82840515D01*
X125184000Y-83068682D01*
X125006000Y-83068682D01*
X124960614Y-82840515D01*
X124871588Y-82625587D01*
X124742342Y-82432157D01*
X124577843Y-82267658D01*
X124384413Y-82138412D01*
X124169485Y-82049386D01*
X123941318Y-82004000D01*
X123708682Y-82004000D01*
X123480515Y-82049386D01*
X123265587Y-82138412D01*
X123072157Y-82267658D01*
X122907658Y-82432157D01*
X122778412Y-82625587D01*
X122689386Y-82840515D01*
X122644000Y-83068682D01*
X122466000Y-83068682D01*
X122420614Y-82840515D01*
X122331588Y-82625587D01*
X122202342Y-82432157D01*
X122037843Y-82267658D01*
X121844413Y-82138412D01*
X121629485Y-82049386D01*
X121401318Y-82004000D01*
X121168682Y-82004000D01*
X120940515Y-82049386D01*
X120725587Y-82138412D01*
X120532157Y-82267658D01*
X120367658Y-82432157D01*
X120238412Y-82625587D01*
X120149386Y-82840515D01*
X120104000Y-83068682D01*
X119926000Y-83068682D01*
X119880614Y-82840515D01*
X119791588Y-82625587D01*
X119662342Y-82432157D01*
X119497843Y-82267658D01*
X119304413Y-82138412D01*
X119089485Y-82049386D01*
X118861318Y-82004000D01*
X118628682Y-82004000D01*
X118400515Y-82049386D01*
X118185587Y-82138412D01*
X117992157Y-82267658D01*
X117827658Y-82432157D01*
X117698412Y-82625587D01*
X117609386Y-82840515D01*
X117564000Y-83068682D01*
X117386000Y-83068682D01*
X117340614Y-82840515D01*
X117251588Y-82625587D01*
X117122342Y-82432157D01*
X116957843Y-82267658D01*
X116764413Y-82138412D01*
X116549485Y-82049386D01*
X116321318Y-82004000D01*
X116088682Y-82004000D01*
X115860515Y-82049386D01*
X115645587Y-82138412D01*
X115452157Y-82267658D01*
X115287658Y-82432157D01*
X115158412Y-82625587D01*
X115069386Y-82840515D01*
X115024000Y-83068682D01*
X114846000Y-83068682D01*
X114800614Y-82840515D01*
X114711588Y-82625587D01*
X114582342Y-82432157D01*
X114417843Y-82267658D01*
X114224413Y-82138412D01*
X114009485Y-82049386D01*
X113781318Y-82004000D01*
X113548682Y-82004000D01*
X113320515Y-82049386D01*
X113105587Y-82138412D01*
X112912157Y-82267658D01*
X112747658Y-82432157D01*
X112618412Y-82625587D01*
X112529386Y-82840515D01*
X112484000Y-83068682D01*
X112306000Y-83068682D01*
X112260614Y-82840515D01*
X112171588Y-82625587D01*
X112042342Y-82432157D01*
X111877843Y-82267658D01*
X111684413Y-82138412D01*
X111469485Y-82049386D01*
X111241318Y-82004000D01*
X111008682Y-82004000D01*
X110780515Y-82049386D01*
X110565587Y-82138412D01*
X110372157Y-82267658D01*
X110207658Y-82432157D01*
X110078412Y-82625587D01*
X109989386Y-82840515D01*
X109944000Y-83068682D01*
X109766000Y-83068682D01*
X109720614Y-82840515D01*
X109631588Y-82625587D01*
X109502342Y-82432157D01*
X109337843Y-82267658D01*
X109144413Y-82138412D01*
X108929485Y-82049386D01*
X108701318Y-82004000D01*
X108468682Y-82004000D01*
X108240515Y-82049386D01*
X108025587Y-82138412D01*
X107832157Y-82267658D01*
X107667658Y-82432157D01*
X107538412Y-82625587D01*
X107449386Y-82840515D01*
X107404000Y-83068682D01*
X107226000Y-83068682D01*
X107180614Y-82840515D01*
X107091588Y-82625587D01*
X106962342Y-82432157D01*
X106797843Y-82267658D01*
X106604413Y-82138412D01*
X106389485Y-82049386D01*
X106161318Y-82004000D01*
X105928682Y-82004000D01*
X105700515Y-82049386D01*
X105485587Y-82138412D01*
X105292157Y-82267658D01*
X105127658Y-82432157D01*
X104998412Y-82625587D01*
X104909386Y-82840515D01*
X104864000Y-83068682D01*
X104686000Y-83068682D01*
X104640614Y-82840515D01*
X104551588Y-82625587D01*
X104422342Y-82432157D01*
X104257843Y-82267658D01*
X104064413Y-82138412D01*
X104011000Y-82116288D01*
X104011000Y-80854591D01*
X104349592Y-80516000D01*
X162127905Y-80516000D01*
X161869905Y-80774000D01*
X105232079Y-80774000D01*
X105209112Y-80751033D01*
X105097574Y-80676506D01*
X104973640Y-80625171D01*
X104842073Y-80599000D01*
X104707927Y-80599000D01*
X104576360Y-80625171D01*
X104452426Y-80676506D01*
X104340888Y-80751033D01*
X104246033Y-80845888D01*
X104171506Y-80957426D01*
X104120171Y-81081360D01*
X104094000Y-81212927D01*
X104094000Y-81347073D01*
X104120171Y-81478640D01*
X104171506Y-81602574D01*
X104246033Y-81714112D01*
X104340888Y-81808967D01*
X104452426Y-81883494D01*
X104576360Y-81934829D01*
X104707927Y-81961000D01*
X104842073Y-81961000D01*
X104973640Y-81934829D01*
X105097574Y-81883494D01*
X105209112Y-81808967D01*
X105232079Y-81786000D01*
X162054650Y-81786000D01*
X162079496Y-81788447D01*
X162104342Y-81786000D01*
X162104350Y-81786000D01*
X162178689Y-81778678D01*
X162274071Y-81749745D01*
X162361975Y-81702759D01*
X162439023Y-81639527D01*
X162454872Y-81620215D01*
X163340668Y-80734419D01*
X163302171Y-80827360D01*
X163276000Y-80958927D01*
X163276000Y-81093073D01*
X163302171Y-81224640D01*
X163353506Y-81348574D01*
X163367363Y-81369313D01*
X163325573Y-81361000D01*
X163191427Y-81361000D01*
X163059860Y-81387171D01*
X162935926Y-81438506D01*
X162824388Y-81513033D01*
X162729533Y-81607888D01*
X162655006Y-81719426D01*
X162603671Y-81843360D01*
X162577500Y-81974927D01*
X162577500Y-82109073D01*
X162598500Y-82214642D01*
X162484413Y-82138412D01*
X162269485Y-82049386D01*
X162041318Y-82004000D01*
X161808682Y-82004000D01*
X161580515Y-82049386D01*
X161365587Y-82138412D01*
X161172157Y-82267658D01*
X161007658Y-82432157D01*
X160878412Y-82625587D01*
X160789386Y-82840515D01*
X160744000Y-83068682D01*
X160744000Y-83301318D01*
X160789386Y-83529485D01*
X160878412Y-83744413D01*
X161007658Y-83937843D01*
X161172157Y-84102342D01*
X161294000Y-84183755D01*
X161294001Y-84542157D01*
X161125000Y-84542157D01*
X161050311Y-84549513D01*
X160978492Y-84571299D01*
X160912304Y-84606678D01*
X160854289Y-84654289D01*
X160806678Y-84712304D01*
X160771299Y-84778492D01*
X160749513Y-84850311D01*
X160742157Y-84925000D01*
X160742157Y-86525000D01*
X160749513Y-86599689D01*
X160771299Y-86671508D01*
X160806678Y-86737696D01*
X160854289Y-86795711D01*
X160912304Y-86843322D01*
X160978492Y-86878701D01*
X161050311Y-86900487D01*
X161125000Y-86907843D01*
X162725000Y-86907843D01*
X162799689Y-86900487D01*
X162871508Y-86878701D01*
X162937696Y-86843322D01*
X162995711Y-86795711D01*
X163043322Y-86737696D01*
X163078701Y-86671508D01*
X163100487Y-86599689D01*
X163107843Y-86525000D01*
X163107843Y-84925000D01*
X163100487Y-84850311D01*
X163078701Y-84778492D01*
X163043322Y-84712304D01*
X162995711Y-84654289D01*
X162937696Y-84606678D01*
X162871508Y-84571299D01*
X162799689Y-84549513D01*
X162725000Y-84542157D01*
X162556000Y-84542157D01*
X162556000Y-84183755D01*
X162677843Y-84102342D01*
X162842342Y-83937843D01*
X162971588Y-83744413D01*
X163060614Y-83529485D01*
X163106000Y-83301318D01*
X163106000Y-83068682D01*
X163060614Y-82840515D01*
X162988927Y-82667448D01*
X163059860Y-82696829D01*
X163191427Y-82723000D01*
X163325573Y-82723000D01*
X163457140Y-82696829D01*
X163581074Y-82645494D01*
X163692563Y-82571000D01*
X165726688Y-82571000D01*
X165706181Y-82591507D01*
X165626721Y-82695060D01*
X165576989Y-82781198D01*
X165527039Y-82901788D01*
X165501296Y-82997860D01*
X165484259Y-83127270D01*
X165481000Y-83177000D01*
X165481000Y-84463000D01*
X165484259Y-84512730D01*
X165501296Y-84642140D01*
X165527039Y-84738212D01*
X165576989Y-84858802D01*
X165626721Y-84944940D01*
X165706181Y-85048493D01*
X165776507Y-85118819D01*
X165880060Y-85198279D01*
X165966198Y-85248011D01*
X166086788Y-85297961D01*
X166182860Y-85323704D01*
X166312270Y-85340741D01*
X166362000Y-85344000D01*
X169553000Y-85344000D01*
X169602730Y-85340741D01*
X169732140Y-85323704D01*
X169828212Y-85297961D01*
X169948802Y-85248011D01*
X170034940Y-85198279D01*
X170138493Y-85118819D01*
X170208819Y-85048493D01*
X170288279Y-84944940D01*
X170338011Y-84858802D01*
X170387961Y-84738212D01*
X170413704Y-84642140D01*
X170430741Y-84512730D01*
X170434000Y-84463000D01*
X170434000Y-66413000D01*
X170430741Y-66363270D01*
X170413704Y-66233860D01*
X170387961Y-66137788D01*
X170338011Y-66017198D01*
X170288279Y-65931060D01*
X170208819Y-65827507D01*
X170138493Y-65757181D01*
X170034940Y-65677721D01*
X169948802Y-65627989D01*
X169828212Y-65578039D01*
X169732140Y-65552296D01*
X169602730Y-65535259D01*
X169553000Y-65532000D01*
X168799975Y-65532000D01*
X168745048Y-65524769D01*
X168717145Y-65513211D01*
X168693179Y-65494821D01*
X168674789Y-65470855D01*
X168663231Y-65442952D01*
X168656000Y-65388025D01*
X168656000Y-64000000D01*
X168652741Y-63950270D01*
X168635704Y-63820860D01*
X168609961Y-63724788D01*
X168560011Y-63604198D01*
X168510279Y-63518060D01*
X168430819Y-63414507D01*
X168360493Y-63344181D01*
X168256940Y-63264721D01*
X168170802Y-63214989D01*
X168050212Y-63165039D01*
X167954140Y-63139296D01*
X167824730Y-63122259D01*
X167775000Y-63119000D01*
X115308000Y-63119000D01*
X115258270Y-63122259D01*
X115128860Y-63139296D01*
X115032788Y-63165039D01*
X114912198Y-63214989D01*
X114826060Y-63264721D01*
X114722507Y-63344181D01*
X114652181Y-63414507D01*
X114572721Y-63518060D01*
X114522989Y-63604198D01*
X114473039Y-63724788D01*
X114447296Y-63820860D01*
X114430259Y-63950270D01*
X114427000Y-64000000D01*
X114427000Y-67036815D01*
X114417843Y-67027658D01*
X114224413Y-66898412D01*
X114009485Y-66809386D01*
X113781318Y-66764000D01*
X113548682Y-66764000D01*
X113320515Y-66809386D01*
X113105587Y-66898412D01*
X112912157Y-67027658D01*
X112747658Y-67192157D01*
X112618412Y-67385587D01*
X112529386Y-67600515D01*
X112484000Y-67828682D01*
X112484000Y-68061318D01*
X112529386Y-68289485D01*
X112618412Y-68504413D01*
X112747658Y-68697843D01*
X112912157Y-68862342D01*
X113034000Y-68943755D01*
X113034001Y-69486245D01*
X112912157Y-69567658D01*
X112747658Y-69732157D01*
X112618412Y-69925587D01*
X112529386Y-70140515D01*
X112484000Y-70368682D01*
X112484000Y-70601318D01*
X112529386Y-70829485D01*
X112618412Y-71044413D01*
X112747658Y-71237843D01*
X112912157Y-71402342D01*
X113105587Y-71531588D01*
X113320515Y-71620614D01*
X113548682Y-71666000D01*
X113781318Y-71666000D01*
X114009485Y-71620614D01*
X114224413Y-71531588D01*
X114417843Y-71402342D01*
X114427688Y-71392497D01*
X114430259Y-71431730D01*
X114447296Y-71561140D01*
X114473039Y-71657212D01*
X114522989Y-71777802D01*
X114572721Y-71863940D01*
X114652181Y-71967493D01*
X114722507Y-72037819D01*
X114826060Y-72117279D01*
X114912198Y-72167011D01*
X115032788Y-72216961D01*
X115128860Y-72242704D01*
X115258270Y-72259741D01*
X115308000Y-72263000D01*
X117102000Y-72263000D01*
X117151730Y-72259741D01*
X117281140Y-72242704D01*
X117377212Y-72216961D01*
X117497802Y-72167011D01*
X117583940Y-72117279D01*
X117687493Y-72037819D01*
X117757819Y-71967493D01*
X117837279Y-71863940D01*
X117887011Y-71777802D01*
X117936961Y-71657212D01*
X117962704Y-71561140D01*
X117979741Y-71431730D01*
X117982312Y-71392497D01*
X117992157Y-71402342D01*
X118185587Y-71531588D01*
X118400515Y-71620614D01*
X118628682Y-71666000D01*
X118861318Y-71666000D01*
X119089485Y-71620614D01*
X119304413Y-71531588D01*
X119497843Y-71402342D01*
X119662342Y-71237843D01*
X119791588Y-71044413D01*
X119880614Y-70829485D01*
X119926000Y-70601318D01*
X119926000Y-70368682D01*
X119880614Y-70140515D01*
X119791588Y-69925587D01*
X119662342Y-69732157D01*
X119497843Y-69567658D01*
X119376000Y-69486245D01*
X119376000Y-68943755D01*
X119497843Y-68862342D01*
X119662342Y-68697843D01*
X119791588Y-68504413D01*
X119880614Y-68289485D01*
X119926000Y-68061318D01*
X119926000Y-67828682D01*
X119880614Y-67600515D01*
X119791588Y-67385587D01*
X119662342Y-67192157D01*
X119497843Y-67027658D01*
X119304413Y-66898412D01*
X119089485Y-66809386D01*
X118861318Y-66764000D01*
X118628682Y-66764000D01*
X118400515Y-66809386D01*
X118185587Y-66898412D01*
X117992157Y-67027658D01*
X117983000Y-67036815D01*
X117983000Y-65294975D01*
X117990231Y-65240048D01*
X118001789Y-65212145D01*
X118020179Y-65188179D01*
X118044145Y-65169789D01*
X118072048Y-65158231D01*
X118126975Y-65151000D01*
X166353025Y-65151000D01*
X166407952Y-65158231D01*
X166435855Y-65169789D01*
X166459821Y-65188179D01*
X166478211Y-65212145D01*
X166489769Y-65240048D01*
X166497000Y-65294975D01*
X166497000Y-65921000D01*
X166500259Y-65970730D01*
X166517296Y-66100140D01*
X166543039Y-66196212D01*
X166592989Y-66316802D01*
X166633642Y-66387215D01*
X166610311Y-66389513D01*
X166538492Y-66411299D01*
X166472304Y-66446678D01*
X166414289Y-66494289D01*
X166366678Y-66552304D01*
X166331299Y-66618492D01*
X166309513Y-66690311D01*
X166302157Y-66765000D01*
X166304000Y-66842750D01*
X166399250Y-66938000D01*
X167558000Y-66938000D01*
X167558000Y-66918000D01*
X167812000Y-66918000D01*
X167812000Y-66938000D01*
X167832000Y-66938000D01*
X167832000Y-67192000D01*
X167812000Y-67192000D01*
X167812000Y-67938000D01*
X167832000Y-67938000D01*
X167832000Y-68192000D01*
X167812000Y-68192000D01*
X167812000Y-68212000D01*
X167558000Y-68212000D01*
X167558000Y-68192000D01*
X166399250Y-68192000D01*
X166304000Y-68287250D01*
X166302157Y-68365000D01*
X166309513Y-68439689D01*
X166331299Y-68511508D01*
X166356685Y-68559000D01*
X165554856Y-68559000D01*
X165530002Y-68556552D01*
X165505148Y-68559000D01*
X165430809Y-68566322D01*
X165335427Y-68595255D01*
X165247523Y-68642241D01*
X165170475Y-68705473D01*
X165154630Y-68724780D01*
X163107843Y-70771568D01*
X163107843Y-69685000D01*
X163100487Y-69610311D01*
X163078701Y-69538492D01*
X163043322Y-69472304D01*
X162995711Y-69414289D01*
X162937696Y-69366678D01*
X162871508Y-69331299D01*
X162799689Y-69309513D01*
X162725000Y-69302157D01*
X162556000Y-69302157D01*
X162556000Y-69127843D01*
X162725000Y-69127843D01*
X162799689Y-69120487D01*
X162871508Y-69098701D01*
X162937696Y-69063322D01*
X162995711Y-69015711D01*
X163043322Y-68957696D01*
X163078701Y-68891508D01*
X163100487Y-68819689D01*
X163107843Y-68745000D01*
X163107843Y-67365000D01*
X166302157Y-67365000D01*
X166309513Y-67439689D01*
X166331299Y-67511508D01*
X166359892Y-67565000D01*
X166331299Y-67618492D01*
X166309513Y-67690311D01*
X166302157Y-67765000D01*
X166304000Y-67842750D01*
X166399250Y-67938000D01*
X167558000Y-67938000D01*
X167558000Y-67192000D01*
X166399250Y-67192000D01*
X166304000Y-67287250D01*
X166302157Y-67365000D01*
X163107843Y-67365000D01*
X163107843Y-67145000D01*
X163100487Y-67070311D01*
X163078701Y-66998492D01*
X163043322Y-66932304D01*
X162995711Y-66874289D01*
X162937696Y-66826678D01*
X162871508Y-66791299D01*
X162799689Y-66769513D01*
X162725000Y-66762157D01*
X161125000Y-66762157D01*
X161050311Y-66769513D01*
X160978492Y-66791299D01*
X160912304Y-66826678D01*
X160854289Y-66874289D01*
X160806678Y-66932304D01*
X160771299Y-66998492D01*
X160749513Y-67070311D01*
X160742157Y-67145000D01*
X160742157Y-68745000D01*
X160749513Y-68819689D01*
X160771299Y-68891508D01*
X160806678Y-68957696D01*
X160854289Y-69015711D01*
X160912304Y-69063322D01*
X160978492Y-69098701D01*
X161050311Y-69120487D01*
X161125000Y-69127843D01*
X161294000Y-69127843D01*
X161294001Y-69302157D01*
X161125000Y-69302157D01*
X161050311Y-69309513D01*
X160978492Y-69331299D01*
X160912304Y-69366678D01*
X160854289Y-69414289D01*
X160806678Y-69472304D01*
X160771299Y-69538492D01*
X160749513Y-69610311D01*
X160742157Y-69685000D01*
X160742157Y-71285000D01*
X160749513Y-71359689D01*
X160771299Y-71431508D01*
X160806678Y-71497696D01*
X160811031Y-71503000D01*
X159987198Y-71503000D01*
X160137843Y-71402342D01*
X160302342Y-71237843D01*
X160431588Y-71044413D01*
X160520614Y-70829485D01*
X160566000Y-70601318D01*
X160566000Y-70368682D01*
X160520614Y-70140515D01*
X160431588Y-69925587D01*
X160302342Y-69732157D01*
X160137843Y-69567658D01*
X160016000Y-69486245D01*
X160016000Y-68943755D01*
X160137843Y-68862342D01*
X160302342Y-68697843D01*
X160431588Y-68504413D01*
X160520614Y-68289485D01*
X160566000Y-68061318D01*
X160566000Y-67828682D01*
X160520614Y-67600515D01*
X160431588Y-67385587D01*
X160302342Y-67192157D01*
X160137843Y-67027658D01*
X159944413Y-66898412D01*
X159729485Y-66809386D01*
X159501318Y-66764000D01*
X159268682Y-66764000D01*
X159040515Y-66809386D01*
X158825587Y-66898412D01*
X158632157Y-67027658D01*
X158467658Y-67192157D01*
X158338412Y-67385587D01*
X158249386Y-67600515D01*
X158204000Y-67828682D01*
X158204000Y-68061318D01*
X158249386Y-68289485D01*
X158338412Y-68504413D01*
X158467658Y-68697843D01*
X158632157Y-68862342D01*
X158754000Y-68943755D01*
X158754001Y-69486245D01*
X158632157Y-69567658D01*
X158467658Y-69732157D01*
X158338412Y-69925587D01*
X158249386Y-70140515D01*
X158204000Y-70368682D01*
X158204000Y-70601318D01*
X158249386Y-70829485D01*
X158338412Y-71044413D01*
X158467658Y-71237843D01*
X158632157Y-71402342D01*
X158782802Y-71503000D01*
X157447198Y-71503000D01*
X157597843Y-71402342D01*
X157762342Y-71237843D01*
X157891588Y-71044413D01*
X157980614Y-70829485D01*
X158026000Y-70601318D01*
X158026000Y-70368682D01*
X157980614Y-70140515D01*
X157891588Y-69925587D01*
X157762342Y-69732157D01*
X157597843Y-69567658D01*
X157476000Y-69486245D01*
X157476000Y-68943755D01*
X157597843Y-68862342D01*
X157762342Y-68697843D01*
X157891588Y-68504413D01*
X157980614Y-68289485D01*
X158026000Y-68061318D01*
X158026000Y-67828682D01*
X157980614Y-67600515D01*
X157891588Y-67385587D01*
X157762342Y-67192157D01*
X157597843Y-67027658D01*
X157404413Y-66898412D01*
X157189485Y-66809386D01*
X156961318Y-66764000D01*
X156728682Y-66764000D01*
X156500515Y-66809386D01*
X156285587Y-66898412D01*
X156092157Y-67027658D01*
X155927658Y-67192157D01*
X155798412Y-67385587D01*
X155709386Y-67600515D01*
X155664000Y-67828682D01*
X155664000Y-68061318D01*
X155709386Y-68289485D01*
X155798412Y-68504413D01*
X155927658Y-68697843D01*
X156092157Y-68862342D01*
X156214000Y-68943755D01*
X156214001Y-69486245D01*
X156092157Y-69567658D01*
X155927658Y-69732157D01*
X155798412Y-69925587D01*
X155709386Y-70140515D01*
X155664000Y-70368682D01*
X155664000Y-70601318D01*
X155709386Y-70829485D01*
X155798412Y-71044413D01*
X155927658Y-71237843D01*
X156092157Y-71402342D01*
X156242802Y-71503000D01*
X154907198Y-71503000D01*
X155057843Y-71402342D01*
X155222342Y-71237843D01*
X155351588Y-71044413D01*
X155440614Y-70829485D01*
X155486000Y-70601318D01*
X155486000Y-70368682D01*
X155440614Y-70140515D01*
X155351588Y-69925587D01*
X155222342Y-69732157D01*
X155057843Y-69567658D01*
X154936000Y-69486245D01*
X154936000Y-68943755D01*
X155057843Y-68862342D01*
X155222342Y-68697843D01*
X155351588Y-68504413D01*
X155440614Y-68289485D01*
X155486000Y-68061318D01*
X155486000Y-67828682D01*
X155440614Y-67600515D01*
X155351588Y-67385587D01*
X155222342Y-67192157D01*
X155057843Y-67027658D01*
X154864413Y-66898412D01*
X154649485Y-66809386D01*
X154421318Y-66764000D01*
X154188682Y-66764000D01*
X153960515Y-66809386D01*
X153745587Y-66898412D01*
X153552157Y-67027658D01*
X153387658Y-67192157D01*
X153258412Y-67385587D01*
X153169386Y-67600515D01*
X153124000Y-67828682D01*
X153124000Y-68061318D01*
X153169386Y-68289485D01*
X153258412Y-68504413D01*
X153387658Y-68697843D01*
X153552157Y-68862342D01*
X153674000Y-68943755D01*
X153674001Y-69486245D01*
X153552157Y-69567658D01*
X153387658Y-69732157D01*
X153258412Y-69925587D01*
X153169386Y-70140515D01*
X153124000Y-70368682D01*
X153124000Y-70601318D01*
X153169386Y-70829485D01*
X153258412Y-71044413D01*
X153387658Y-71237843D01*
X153552157Y-71402342D01*
X153702802Y-71503000D01*
X152367198Y-71503000D01*
X152517843Y-71402342D01*
X152682342Y-71237843D01*
X152811588Y-71044413D01*
X152900614Y-70829485D01*
X152946000Y-70601318D01*
X152946000Y-70368682D01*
X152900614Y-70140515D01*
X152811588Y-69925587D01*
X152682342Y-69732157D01*
X152517843Y-69567658D01*
X152396000Y-69486245D01*
X152396000Y-68943755D01*
X152517843Y-68862342D01*
X152682342Y-68697843D01*
X152811588Y-68504413D01*
X152900614Y-68289485D01*
X152946000Y-68061318D01*
X152946000Y-67828682D01*
X152900614Y-67600515D01*
X152811588Y-67385587D01*
X152682342Y-67192157D01*
X152517843Y-67027658D01*
X152324413Y-66898412D01*
X152109485Y-66809386D01*
X151881318Y-66764000D01*
X151648682Y-66764000D01*
X151420515Y-66809386D01*
X151205587Y-66898412D01*
X151012157Y-67027658D01*
X150847658Y-67192157D01*
X150718412Y-67385587D01*
X150629386Y-67600515D01*
X150584000Y-67828682D01*
X150584000Y-68061318D01*
X150629386Y-68289485D01*
X150718412Y-68504413D01*
X150847658Y-68697843D01*
X151012157Y-68862342D01*
X151134000Y-68943755D01*
X151134001Y-69486245D01*
X151012157Y-69567658D01*
X150847658Y-69732157D01*
X150718412Y-69925587D01*
X150629386Y-70140515D01*
X150584000Y-70368682D01*
X150584000Y-70601318D01*
X150629386Y-70829485D01*
X150718412Y-71044413D01*
X150847658Y-71237843D01*
X151012157Y-71402342D01*
X151162802Y-71503000D01*
X149827198Y-71503000D01*
X149977843Y-71402342D01*
X150142342Y-71237843D01*
X150271588Y-71044413D01*
X150360614Y-70829485D01*
X150406000Y-70601318D01*
X150406000Y-70368682D01*
X150360614Y-70140515D01*
X150271588Y-69925587D01*
X150142342Y-69732157D01*
X149977843Y-69567658D01*
X149856000Y-69486245D01*
X149856000Y-68943755D01*
X149977843Y-68862342D01*
X150142342Y-68697843D01*
X150271588Y-68504413D01*
X150360614Y-68289485D01*
X150406000Y-68061318D01*
X150406000Y-67828682D01*
X150360614Y-67600515D01*
X150271588Y-67385587D01*
X150142342Y-67192157D01*
X149977843Y-67027658D01*
X149784413Y-66898412D01*
X149569485Y-66809386D01*
X149341318Y-66764000D01*
X149108682Y-66764000D01*
X148880515Y-66809386D01*
X148665587Y-66898412D01*
X148472157Y-67027658D01*
X148307658Y-67192157D01*
X148178412Y-67385587D01*
X148089386Y-67600515D01*
X148044000Y-67828682D01*
X148044000Y-68061318D01*
X148089386Y-68289485D01*
X148178412Y-68504413D01*
X148307658Y-68697843D01*
X148472157Y-68862342D01*
X148594000Y-68943755D01*
X148594001Y-69486245D01*
X148472157Y-69567658D01*
X148307658Y-69732157D01*
X148178412Y-69925587D01*
X148089386Y-70140515D01*
X148044000Y-70368682D01*
X148044000Y-70601318D01*
X148089386Y-70829485D01*
X148178412Y-71044413D01*
X148307658Y-71237843D01*
X148472157Y-71402342D01*
X148622802Y-71503000D01*
X147287198Y-71503000D01*
X147437843Y-71402342D01*
X147602342Y-71237843D01*
X147731588Y-71044413D01*
X147820614Y-70829485D01*
X147866000Y-70601318D01*
X147866000Y-70368682D01*
X147820614Y-70140515D01*
X147731588Y-69925587D01*
X147602342Y-69732157D01*
X147437843Y-69567658D01*
X147316000Y-69486245D01*
X147316000Y-68943755D01*
X147437843Y-68862342D01*
X147602342Y-68697843D01*
X147731588Y-68504413D01*
X147820614Y-68289485D01*
X147866000Y-68061318D01*
X147866000Y-67828682D01*
X147820614Y-67600515D01*
X147731588Y-67385587D01*
X147602342Y-67192157D01*
X147437843Y-67027658D01*
X147244413Y-66898412D01*
X147029485Y-66809386D01*
X146801318Y-66764000D01*
X146568682Y-66764000D01*
X146340515Y-66809386D01*
X146125587Y-66898412D01*
X145932157Y-67027658D01*
X145767658Y-67192157D01*
X145638412Y-67385587D01*
X145549386Y-67600515D01*
X145504000Y-67828682D01*
X145504000Y-68061318D01*
X145549386Y-68289485D01*
X145638412Y-68504413D01*
X145767658Y-68697843D01*
X145932157Y-68862342D01*
X146054000Y-68943755D01*
X146054001Y-69486245D01*
X145932157Y-69567658D01*
X145767658Y-69732157D01*
X145638412Y-69925587D01*
X145549386Y-70140515D01*
X145504000Y-70368682D01*
X145504000Y-70601318D01*
X145549386Y-70829485D01*
X145638412Y-71044413D01*
X145767658Y-71237843D01*
X145932157Y-71402342D01*
X146082802Y-71503000D01*
X144747198Y-71503000D01*
X144897843Y-71402342D01*
X145062342Y-71237843D01*
X145191588Y-71044413D01*
X145280614Y-70829485D01*
X145326000Y-70601318D01*
X145326000Y-70368682D01*
X145280614Y-70140515D01*
X145191588Y-69925587D01*
X145062342Y-69732157D01*
X144897843Y-69567658D01*
X144776000Y-69486245D01*
X144776000Y-68943755D01*
X144897843Y-68862342D01*
X145062342Y-68697843D01*
X145191588Y-68504413D01*
X145280614Y-68289485D01*
X145326000Y-68061318D01*
X145326000Y-67828682D01*
X145280614Y-67600515D01*
X145191588Y-67385587D01*
X145062342Y-67192157D01*
X144897843Y-67027658D01*
X144704413Y-66898412D01*
X144489485Y-66809386D01*
X144261318Y-66764000D01*
X144028682Y-66764000D01*
X143800515Y-66809386D01*
X143585587Y-66898412D01*
X143392157Y-67027658D01*
X143227658Y-67192157D01*
X143098412Y-67385587D01*
X143009386Y-67600515D01*
X142964000Y-67828682D01*
X142964000Y-68061318D01*
X143009386Y-68289485D01*
X143098412Y-68504413D01*
X143227658Y-68697843D01*
X143392157Y-68862342D01*
X143514000Y-68943755D01*
X143514001Y-69486245D01*
X143392157Y-69567658D01*
X143227658Y-69732157D01*
X143098412Y-69925587D01*
X143009386Y-70140515D01*
X142964000Y-70368682D01*
X142964000Y-70601318D01*
X143009386Y-70829485D01*
X143098412Y-71044413D01*
X143227658Y-71237843D01*
X143392157Y-71402342D01*
X143542802Y-71503000D01*
X142207198Y-71503000D01*
X142357843Y-71402342D01*
X142522342Y-71237843D01*
X142651588Y-71044413D01*
X142740614Y-70829485D01*
X142786000Y-70601318D01*
X142786000Y-70368682D01*
X142740614Y-70140515D01*
X142651588Y-69925587D01*
X142522342Y-69732157D01*
X142357843Y-69567658D01*
X142236000Y-69486245D01*
X142236000Y-68943755D01*
X142357843Y-68862342D01*
X142522342Y-68697843D01*
X142651588Y-68504413D01*
X142740614Y-68289485D01*
X142786000Y-68061318D01*
X142786000Y-67828682D01*
X142740614Y-67600515D01*
X142651588Y-67385587D01*
X142522342Y-67192157D01*
X142357843Y-67027658D01*
X142164413Y-66898412D01*
X141949485Y-66809386D01*
X141721318Y-66764000D01*
X141488682Y-66764000D01*
X141260515Y-66809386D01*
X141045587Y-66898412D01*
X140852157Y-67027658D01*
X140687658Y-67192157D01*
X140558412Y-67385587D01*
X140469386Y-67600515D01*
X140424000Y-67828682D01*
X140424000Y-68061318D01*
X140469386Y-68289485D01*
X140558412Y-68504413D01*
X140687658Y-68697843D01*
X140852157Y-68862342D01*
X140974000Y-68943755D01*
X140974001Y-69486245D01*
X140852157Y-69567658D01*
X140687658Y-69732157D01*
X140558412Y-69925587D01*
X140469386Y-70140515D01*
X140424000Y-70368682D01*
X140424000Y-70601318D01*
X140469386Y-70829485D01*
X140558412Y-71044413D01*
X140687658Y-71237843D01*
X140852157Y-71402342D01*
X141002802Y-71503000D01*
X139667198Y-71503000D01*
X139817843Y-71402342D01*
X139982342Y-71237843D01*
X140111588Y-71044413D01*
X140200614Y-70829485D01*
X140246000Y-70601318D01*
X140246000Y-70368682D01*
X140200614Y-70140515D01*
X140111588Y-69925587D01*
X139982342Y-69732157D01*
X139817843Y-69567658D01*
X139696000Y-69486245D01*
X139696000Y-68943755D01*
X139817843Y-68862342D01*
X139982342Y-68697843D01*
X140111588Y-68504413D01*
X140200614Y-68289485D01*
X140246000Y-68061318D01*
X140246000Y-67828682D01*
X140200614Y-67600515D01*
X140111588Y-67385587D01*
X139982342Y-67192157D01*
X139817843Y-67027658D01*
X139624413Y-66898412D01*
X139409485Y-66809386D01*
X139181318Y-66764000D01*
X138948682Y-66764000D01*
X138720515Y-66809386D01*
X138505587Y-66898412D01*
X138312157Y-67027658D01*
X138147658Y-67192157D01*
X138018412Y-67385587D01*
X137929386Y-67600515D01*
X137884000Y-67828682D01*
X137884000Y-68061318D01*
X137929386Y-68289485D01*
X138018412Y-68504413D01*
X138147658Y-68697843D01*
X138312157Y-68862342D01*
X138434000Y-68943755D01*
X138434001Y-69486245D01*
X138312157Y-69567658D01*
X138147658Y-69732157D01*
X138018412Y-69925587D01*
X137929386Y-70140515D01*
X137884000Y-70368682D01*
X137884000Y-70601318D01*
X137929386Y-70829485D01*
X138018412Y-71044413D01*
X138147658Y-71237843D01*
X138312157Y-71402342D01*
X138462802Y-71503000D01*
X137127198Y-71503000D01*
X137277843Y-71402342D01*
X137442342Y-71237843D01*
X137571588Y-71044413D01*
X137660614Y-70829485D01*
X137706000Y-70601318D01*
X137706000Y-70368682D01*
X137660614Y-70140515D01*
X137571588Y-69925587D01*
X137442342Y-69732157D01*
X137277843Y-69567658D01*
X137156000Y-69486245D01*
X137156000Y-68943755D01*
X137277843Y-68862342D01*
X137442342Y-68697843D01*
X137571588Y-68504413D01*
X137660614Y-68289485D01*
X137706000Y-68061318D01*
X137706000Y-67828682D01*
X137660614Y-67600515D01*
X137571588Y-67385587D01*
X137442342Y-67192157D01*
X137277843Y-67027658D01*
X137084413Y-66898412D01*
X136869485Y-66809386D01*
X136641318Y-66764000D01*
X136408682Y-66764000D01*
X136180515Y-66809386D01*
X135965587Y-66898412D01*
X135772157Y-67027658D01*
X135607658Y-67192157D01*
X135478412Y-67385587D01*
X135389386Y-67600515D01*
X135344000Y-67828682D01*
X135344000Y-68061318D01*
X135389386Y-68289485D01*
X135478412Y-68504413D01*
X135607658Y-68697843D01*
X135772157Y-68862342D01*
X135894000Y-68943755D01*
X135894001Y-69486245D01*
X135772157Y-69567658D01*
X135607658Y-69732157D01*
X135478412Y-69925587D01*
X135389386Y-70140515D01*
X135344000Y-70368682D01*
X135344000Y-70601318D01*
X135389386Y-70829485D01*
X135478412Y-71044413D01*
X135607658Y-71237843D01*
X135772157Y-71402342D01*
X135922802Y-71503000D01*
X134587198Y-71503000D01*
X134737843Y-71402342D01*
X134902342Y-71237843D01*
X135031588Y-71044413D01*
X135120614Y-70829485D01*
X135166000Y-70601318D01*
X135166000Y-70368682D01*
X135120614Y-70140515D01*
X135031588Y-69925587D01*
X134902342Y-69732157D01*
X134737843Y-69567658D01*
X134616000Y-69486245D01*
X134616000Y-68943755D01*
X134737843Y-68862342D01*
X134902342Y-68697843D01*
X135031588Y-68504413D01*
X135120614Y-68289485D01*
X135166000Y-68061318D01*
X135166000Y-67828682D01*
X135120614Y-67600515D01*
X135031588Y-67385587D01*
X134902342Y-67192157D01*
X134737843Y-67027658D01*
X134544413Y-66898412D01*
X134329485Y-66809386D01*
X134101318Y-66764000D01*
X133868682Y-66764000D01*
X133640515Y-66809386D01*
X133425587Y-66898412D01*
X133232157Y-67027658D01*
X133067658Y-67192157D01*
X132938412Y-67385587D01*
X132849386Y-67600515D01*
X132804000Y-67828682D01*
X132804000Y-68061318D01*
X132849386Y-68289485D01*
X132938412Y-68504413D01*
X133067658Y-68697843D01*
X133232157Y-68862342D01*
X133354000Y-68943755D01*
X133354001Y-69486245D01*
X133232157Y-69567658D01*
X133067658Y-69732157D01*
X132938412Y-69925587D01*
X132849386Y-70140515D01*
X132804000Y-70368682D01*
X132804000Y-70601318D01*
X132849386Y-70829485D01*
X132938412Y-71044413D01*
X133067658Y-71237843D01*
X133232157Y-71402342D01*
X133382802Y-71503000D01*
X132047198Y-71503000D01*
X132197843Y-71402342D01*
X132362342Y-71237843D01*
X132491588Y-71044413D01*
X132580614Y-70829485D01*
X132626000Y-70601318D01*
X132626000Y-70368682D01*
X132580614Y-70140515D01*
X132491588Y-69925587D01*
X132362342Y-69732157D01*
X132197843Y-69567658D01*
X132076000Y-69486245D01*
X132076000Y-69127843D01*
X132245000Y-69127843D01*
X132319689Y-69120487D01*
X132391508Y-69098701D01*
X132457696Y-69063322D01*
X132515711Y-69015711D01*
X132563322Y-68957696D01*
X132598701Y-68891508D01*
X132620487Y-68819689D01*
X132627843Y-68745000D01*
X132627843Y-67145000D01*
X132620487Y-67070311D01*
X132598701Y-66998492D01*
X132563322Y-66932304D01*
X132515711Y-66874289D01*
X132457696Y-66826678D01*
X132391508Y-66791299D01*
X132319689Y-66769513D01*
X132245000Y-66762157D01*
X130645000Y-66762157D01*
X130570311Y-66769513D01*
X130498492Y-66791299D01*
X130432304Y-66826678D01*
X130374289Y-66874289D01*
X130326678Y-66932304D01*
X130291299Y-66998492D01*
X130269513Y-67070311D01*
X130262157Y-67145000D01*
X130262157Y-68745000D01*
X130269513Y-68819689D01*
X130291299Y-68891508D01*
X130326678Y-68957696D01*
X130374289Y-69015711D01*
X130432304Y-69063322D01*
X130498492Y-69098701D01*
X130570311Y-69120487D01*
X130645000Y-69127843D01*
X130814000Y-69127843D01*
X130814001Y-69486245D01*
X130692157Y-69567658D01*
X130527658Y-69732157D01*
X130398412Y-69925587D01*
X130309386Y-70140515D01*
X130264000Y-70368682D01*
X130264000Y-70601318D01*
X130309386Y-70829485D01*
X130398412Y-71044413D01*
X130527658Y-71237843D01*
X130692157Y-71402342D01*
X130842802Y-71503000D01*
X129507198Y-71503000D01*
X129657843Y-71402342D01*
X129822342Y-71237843D01*
X129951588Y-71044413D01*
X130040614Y-70829485D01*
X130086000Y-70601318D01*
X130086000Y-70368682D01*
X130040614Y-70140515D01*
X129951588Y-69925587D01*
X129822342Y-69732157D01*
X129657843Y-69567658D01*
X129536000Y-69486245D01*
X129536000Y-68943755D01*
X129657843Y-68862342D01*
X129822342Y-68697843D01*
X129951588Y-68504413D01*
X130040614Y-68289485D01*
X130086000Y-68061318D01*
X130086000Y-67828682D01*
X130040614Y-67600515D01*
X129951588Y-67385587D01*
X129822342Y-67192157D01*
X129657843Y-67027658D01*
X129464413Y-66898412D01*
X129249485Y-66809386D01*
X129021318Y-66764000D01*
X128788682Y-66764000D01*
X128560515Y-66809386D01*
X128345587Y-66898412D01*
X128152157Y-67027658D01*
X127987658Y-67192157D01*
X127858412Y-67385587D01*
X127769386Y-67600515D01*
X127724000Y-67828682D01*
X127724000Y-68061318D01*
X127769386Y-68289485D01*
X127858412Y-68504413D01*
X127987658Y-68697843D01*
X128152157Y-68862342D01*
X128274000Y-68943755D01*
X128274001Y-69486245D01*
X128152157Y-69567658D01*
X127987658Y-69732157D01*
X127858412Y-69925587D01*
X127769386Y-70140515D01*
X127724000Y-70368682D01*
X127724000Y-70601318D01*
X127769386Y-70829485D01*
X127858412Y-71044413D01*
X127987658Y-71237843D01*
X128152157Y-71402342D01*
X128302802Y-71503000D01*
X126967198Y-71503000D01*
X127117843Y-71402342D01*
X127282342Y-71237843D01*
X127411588Y-71044413D01*
X127500614Y-70829485D01*
X127546000Y-70601318D01*
X127546000Y-70368682D01*
X127500614Y-70140515D01*
X127411588Y-69925587D01*
X127282342Y-69732157D01*
X127117843Y-69567658D01*
X126996000Y-69486245D01*
X126996000Y-68943755D01*
X127117843Y-68862342D01*
X127282342Y-68697843D01*
X127411588Y-68504413D01*
X127500614Y-68289485D01*
X127546000Y-68061318D01*
X127546000Y-67828682D01*
X127500614Y-67600515D01*
X127411588Y-67385587D01*
X127282342Y-67192157D01*
X127117843Y-67027658D01*
X126924413Y-66898412D01*
X126709485Y-66809386D01*
X126481318Y-66764000D01*
X126248682Y-66764000D01*
X126020515Y-66809386D01*
X125805587Y-66898412D01*
X125612157Y-67027658D01*
X125447658Y-67192157D01*
X125318412Y-67385587D01*
X125229386Y-67600515D01*
X125184000Y-67828682D01*
X125184000Y-68061318D01*
X125229386Y-68289485D01*
X125318412Y-68504413D01*
X125447658Y-68697843D01*
X125612157Y-68862342D01*
X125734000Y-68943755D01*
X125734001Y-69486245D01*
X125612157Y-69567658D01*
X125447658Y-69732157D01*
X125318412Y-69925587D01*
X125229386Y-70140515D01*
X125184000Y-70368682D01*
X125184000Y-70601318D01*
X125229386Y-70829485D01*
X125318412Y-71044413D01*
X125447658Y-71237843D01*
X125612157Y-71402342D01*
X125762802Y-71503000D01*
X124427198Y-71503000D01*
X124577843Y-71402342D01*
X124742342Y-71237843D01*
X124871588Y-71044413D01*
X124960614Y-70829485D01*
X125006000Y-70601318D01*
X125006000Y-70368682D01*
X124960614Y-70140515D01*
X124871588Y-69925587D01*
X124742342Y-69732157D01*
X124577843Y-69567658D01*
X124456000Y-69486245D01*
X124456000Y-68943755D01*
X124577843Y-68862342D01*
X124742342Y-68697843D01*
X124871588Y-68504413D01*
X124960614Y-68289485D01*
X125006000Y-68061318D01*
X125006000Y-67828682D01*
X124960614Y-67600515D01*
X124871588Y-67385587D01*
X124742342Y-67192157D01*
X124577843Y-67027658D01*
X124384413Y-66898412D01*
X124169485Y-66809386D01*
X123941318Y-66764000D01*
X123708682Y-66764000D01*
X123480515Y-66809386D01*
X123265587Y-66898412D01*
X123072157Y-67027658D01*
X122907658Y-67192157D01*
X122778412Y-67385587D01*
X122689386Y-67600515D01*
X122644000Y-67828682D01*
X122644000Y-68061318D01*
X122689386Y-68289485D01*
X122778412Y-68504413D01*
X122907658Y-68697843D01*
X123072157Y-68862342D01*
X123194000Y-68943755D01*
X123194001Y-69486245D01*
X123072157Y-69567658D01*
X122907658Y-69732157D01*
X122778412Y-69925587D01*
X122689386Y-70140515D01*
X122644000Y-70368682D01*
X122644000Y-70601318D01*
X122689386Y-70829485D01*
X122778412Y-71044413D01*
X122907658Y-71237843D01*
X123072157Y-71402342D01*
X123222802Y-71503000D01*
X121887198Y-71503000D01*
X122037843Y-71402342D01*
X122202342Y-71237843D01*
X122331588Y-71044413D01*
X122420614Y-70829485D01*
X122466000Y-70601318D01*
X122466000Y-70368682D01*
X122420614Y-70140515D01*
X122331588Y-69925587D01*
X122202342Y-69732157D01*
X122037843Y-69567658D01*
X121916000Y-69486245D01*
X121916000Y-68943755D01*
X122037843Y-68862342D01*
X122202342Y-68697843D01*
X122331588Y-68504413D01*
X122420614Y-68289485D01*
X122466000Y-68061318D01*
X122466000Y-67828682D01*
X122420614Y-67600515D01*
X122331588Y-67385587D01*
X122202342Y-67192157D01*
X122037843Y-67027658D01*
X121844413Y-66898412D01*
X121629485Y-66809386D01*
X121401318Y-66764000D01*
X121168682Y-66764000D01*
X120940515Y-66809386D01*
X120725587Y-66898412D01*
X120532157Y-67027658D01*
X120367658Y-67192157D01*
X120238412Y-67385587D01*
X120149386Y-67600515D01*
X120104000Y-67828682D01*
X120104000Y-68061318D01*
X120149386Y-68289485D01*
X120238412Y-68504413D01*
X120367658Y-68697843D01*
X120532157Y-68862342D01*
X120654000Y-68943755D01*
X120654001Y-69486245D01*
X120532157Y-69567658D01*
X120367658Y-69732157D01*
X120238412Y-69925587D01*
X120149386Y-70140515D01*
X120104000Y-70368682D01*
X120104000Y-70601318D01*
X120149386Y-70829485D01*
X120238412Y-71044413D01*
X120367658Y-71237843D01*
X120532157Y-71402342D01*
X120725587Y-71531588D01*
X120777733Y-71553188D01*
X120756033Y-71574888D01*
X120681506Y-71686426D01*
X120630171Y-71810360D01*
X120604000Y-71941927D01*
X120604000Y-72076073D01*
X120630171Y-72207640D01*
X120653930Y-72265000D01*
X119202079Y-72265000D01*
X119179112Y-72242033D01*
X119067574Y-72167506D01*
X118943640Y-72116171D01*
X118812073Y-72090000D01*
X118677927Y-72090000D01*
X118546360Y-72116171D01*
X118422426Y-72167506D01*
X118310888Y-72242033D01*
X118216033Y-72336888D01*
X118141506Y-72448426D01*
X118090171Y-72572360D01*
X118064000Y-72703927D01*
X118064000Y-72838073D01*
X118090171Y-72969640D01*
X118141506Y-73093574D01*
X118181881Y-73154000D01*
X116662079Y-73154000D01*
X116639112Y-73131033D01*
X116527574Y-73056506D01*
X116403640Y-73005171D01*
X116272073Y-72979000D01*
X116137927Y-72979000D01*
X116006360Y-73005171D01*
X115882426Y-73056506D01*
X115770888Y-73131033D01*
X115676033Y-73225888D01*
X115601506Y-73337426D01*
X115550171Y-73461360D01*
X115524000Y-73592927D01*
X115524000Y-73727073D01*
X115550171Y-73858640D01*
X115601506Y-73982574D01*
X115676033Y-74094112D01*
X115770888Y-74188967D01*
X115882426Y-74263494D01*
X116006360Y-74314829D01*
X116137927Y-74341000D01*
X116272073Y-74341000D01*
X116403640Y-74314829D01*
X116527574Y-74263494D01*
X116639112Y-74188967D01*
X116662079Y-74166000D01*
X164640409Y-74166000D01*
X164382409Y-74424000D01*
X114122079Y-74424000D01*
X114099112Y-74401033D01*
X113987574Y-74326506D01*
X113863640Y-74275171D01*
X113732073Y-74249000D01*
X113597927Y-74249000D01*
X113466360Y-74275171D01*
X113342426Y-74326506D01*
X113230888Y-74401033D01*
X113136033Y-74495888D01*
X113061506Y-74607426D01*
X113010171Y-74731360D01*
X112984000Y-74862927D01*
X112984000Y-74997073D01*
X113010171Y-75128640D01*
X113061506Y-75252574D01*
X113136033Y-75364112D01*
X113230888Y-75458967D01*
X113342426Y-75533494D01*
X113466360Y-75584829D01*
X113597927Y-75611000D01*
X113732073Y-75611000D01*
X113863640Y-75584829D01*
X113987574Y-75533494D01*
X114099112Y-75458967D01*
X114122079Y-75436000D01*
X164528409Y-75436000D01*
X164270409Y-75694000D01*
X111582079Y-75694000D01*
X111559112Y-75671033D01*
X111447574Y-75596506D01*
X111323640Y-75545171D01*
X111192073Y-75519000D01*
X111057927Y-75519000D01*
X110926360Y-75545171D01*
X110802426Y-75596506D01*
X110690888Y-75671033D01*
X110596033Y-75765888D01*
X110521506Y-75877426D01*
X110470171Y-76001360D01*
X110444000Y-76132927D01*
X110444000Y-76267073D01*
X110470171Y-76398640D01*
X110521506Y-76522574D01*
X110596033Y-76634112D01*
X110690888Y-76728967D01*
X110802426Y-76803494D01*
X110926360Y-76854829D01*
X111057927Y-76881000D01*
X111192073Y-76881000D01*
X111323640Y-76854829D01*
X111447574Y-76803494D01*
X111559112Y-76728967D01*
X111582079Y-76706000D01*
X164028673Y-76706000D01*
X163770673Y-76964000D01*
X109042065Y-76964000D01*
X109019098Y-76941033D01*
X108907560Y-76866506D01*
X108783626Y-76815171D01*
X108652059Y-76789000D01*
X108517913Y-76789000D01*
X108386346Y-76815171D01*
X108262412Y-76866506D01*
X108150874Y-76941033D01*
X108056019Y-77035888D01*
X107981492Y-77147426D01*
X107930157Y-77271360D01*
X107903986Y-77402927D01*
X107903986Y-77537073D01*
X107930157Y-77668640D01*
X107981492Y-77792574D01*
X108056019Y-77904112D01*
X108150874Y-77998967D01*
X108262412Y-78073494D01*
X108386346Y-78124829D01*
X108517913Y-78151000D01*
X108652059Y-78151000D01*
X108783626Y-78124829D01*
X108907560Y-78073494D01*
X109019098Y-77998967D01*
X109042065Y-77976000D01*
X163395083Y-77976000D01*
X163137083Y-78234000D01*
X106502079Y-78234000D01*
X106479112Y-78211033D01*
X106367574Y-78136506D01*
X106243640Y-78085171D01*
X106112073Y-78059000D01*
X105977927Y-78059000D01*
X105846360Y-78085171D01*
X105722426Y-78136506D01*
X105610888Y-78211033D01*
X105516033Y-78305888D01*
X105441506Y-78417426D01*
X105390171Y-78541360D01*
X105364000Y-78672927D01*
X105364000Y-78807073D01*
X105390171Y-78938640D01*
X105441506Y-79062574D01*
X105516033Y-79174112D01*
X105610888Y-79268967D01*
X105722426Y-79343494D01*
X105846360Y-79394829D01*
X105977927Y-79421000D01*
X106112073Y-79421000D01*
X106243640Y-79394829D01*
X106367574Y-79343494D01*
X106479112Y-79268967D01*
X106502079Y-79246000D01*
X162761494Y-79246000D01*
X162503494Y-79504000D01*
X104164854Y-79504000D01*
X104140000Y-79501552D01*
X104115146Y-79504000D01*
X104040807Y-79511322D01*
X103945425Y-79540255D01*
X103857521Y-79587241D01*
X103780473Y-79650473D01*
X103764629Y-79669779D01*
X103164780Y-80269629D01*
X103145474Y-80285473D01*
X103082242Y-80362521D01*
X103059418Y-80405221D01*
X103035255Y-80450426D01*
X103006322Y-80545808D01*
X102996553Y-80645000D01*
X102999001Y-80669856D01*
X102999000Y-82116287D01*
X102945587Y-82138412D01*
X102752157Y-82267658D01*
X102587658Y-82432157D01*
X102458412Y-82625587D01*
X102369386Y-82840515D01*
X102324000Y-83068682D01*
X102081000Y-83068682D01*
X102081000Y-67828682D01*
X102324000Y-67828682D01*
X102324000Y-68061318D01*
X102369386Y-68289485D01*
X102458412Y-68504413D01*
X102587658Y-68697843D01*
X102752157Y-68862342D01*
X102874000Y-68943755D01*
X102874001Y-69486245D01*
X102752157Y-69567658D01*
X102587658Y-69732157D01*
X102458412Y-69925587D01*
X102369386Y-70140515D01*
X102324000Y-70368682D01*
X102324000Y-70601318D01*
X102369386Y-70829485D01*
X102458412Y-71044413D01*
X102587658Y-71237843D01*
X102752157Y-71402342D01*
X102945587Y-71531588D01*
X103160515Y-71620614D01*
X103388682Y-71666000D01*
X103621318Y-71666000D01*
X103849485Y-71620614D01*
X104064413Y-71531588D01*
X104257843Y-71402342D01*
X104422342Y-71237843D01*
X104551588Y-71044413D01*
X104640614Y-70829485D01*
X104686000Y-70601318D01*
X104686000Y-70368682D01*
X104640614Y-70140515D01*
X104551588Y-69925587D01*
X104422342Y-69732157D01*
X104257843Y-69567658D01*
X104136000Y-69486245D01*
X104136000Y-68943755D01*
X104257843Y-68862342D01*
X104422342Y-68697843D01*
X104551588Y-68504413D01*
X104640614Y-68289485D01*
X104686000Y-68061318D01*
X104686000Y-67828682D01*
X104864000Y-67828682D01*
X104864000Y-68061318D01*
X104909386Y-68289485D01*
X104998412Y-68504413D01*
X105127658Y-68697843D01*
X105292157Y-68862342D01*
X105414000Y-68943755D01*
X105414001Y-69486245D01*
X105292157Y-69567658D01*
X105127658Y-69732157D01*
X104998412Y-69925587D01*
X104909386Y-70140515D01*
X104864000Y-70368682D01*
X104864000Y-70601318D01*
X104909386Y-70829485D01*
X104998412Y-71044413D01*
X105127658Y-71237843D01*
X105292157Y-71402342D01*
X105485587Y-71531588D01*
X105700515Y-71620614D01*
X105928682Y-71666000D01*
X106161318Y-71666000D01*
X106389485Y-71620614D01*
X106604413Y-71531588D01*
X106797843Y-71402342D01*
X106962342Y-71237843D01*
X107091588Y-71044413D01*
X107180614Y-70829485D01*
X107226000Y-70601318D01*
X107226000Y-70368682D01*
X107180614Y-70140515D01*
X107091588Y-69925587D01*
X106962342Y-69732157D01*
X106797843Y-69567658D01*
X106676000Y-69486245D01*
X106676000Y-68943755D01*
X106797843Y-68862342D01*
X106962342Y-68697843D01*
X107091588Y-68504413D01*
X107180614Y-68289485D01*
X107226000Y-68061318D01*
X107226000Y-67828682D01*
X107404000Y-67828682D01*
X107404000Y-68061318D01*
X107449386Y-68289485D01*
X107538412Y-68504413D01*
X107667658Y-68697843D01*
X107832157Y-68862342D01*
X107954000Y-68943755D01*
X107954001Y-69486245D01*
X107832157Y-69567658D01*
X107667658Y-69732157D01*
X107538412Y-69925587D01*
X107449386Y-70140515D01*
X107404000Y-70368682D01*
X107404000Y-70601318D01*
X107449386Y-70829485D01*
X107538412Y-71044413D01*
X107667658Y-71237843D01*
X107832157Y-71402342D01*
X108025587Y-71531588D01*
X108240515Y-71620614D01*
X108468682Y-71666000D01*
X108701318Y-71666000D01*
X108929485Y-71620614D01*
X109144413Y-71531588D01*
X109337843Y-71402342D01*
X109502342Y-71237843D01*
X109631588Y-71044413D01*
X109720614Y-70829485D01*
X109766000Y-70601318D01*
X109766000Y-70368682D01*
X109720614Y-70140515D01*
X109631588Y-69925587D01*
X109502342Y-69732157D01*
X109337843Y-69567658D01*
X109216000Y-69486245D01*
X109216000Y-68943755D01*
X109337843Y-68862342D01*
X109502342Y-68697843D01*
X109631588Y-68504413D01*
X109720614Y-68289485D01*
X109766000Y-68061318D01*
X109766000Y-67828682D01*
X109944000Y-67828682D01*
X109944000Y-68061318D01*
X109989386Y-68289485D01*
X110078412Y-68504413D01*
X110207658Y-68697843D01*
X110372157Y-68862342D01*
X110494000Y-68943755D01*
X110494001Y-69486245D01*
X110372157Y-69567658D01*
X110207658Y-69732157D01*
X110078412Y-69925587D01*
X109989386Y-70140515D01*
X109944000Y-70368682D01*
X109944000Y-70601318D01*
X109989386Y-70829485D01*
X110078412Y-71044413D01*
X110207658Y-71237843D01*
X110372157Y-71402342D01*
X110565587Y-71531588D01*
X110780515Y-71620614D01*
X111008682Y-71666000D01*
X111241318Y-71666000D01*
X111469485Y-71620614D01*
X111684413Y-71531588D01*
X111877843Y-71402342D01*
X112042342Y-71237843D01*
X112171588Y-71044413D01*
X112260614Y-70829485D01*
X112306000Y-70601318D01*
X112306000Y-70368682D01*
X112260614Y-70140515D01*
X112171588Y-69925587D01*
X112042342Y-69732157D01*
X111877843Y-69567658D01*
X111756000Y-69486245D01*
X111756000Y-68943755D01*
X111877843Y-68862342D01*
X112042342Y-68697843D01*
X112171588Y-68504413D01*
X112260614Y-68289485D01*
X112306000Y-68061318D01*
X112306000Y-67828682D01*
X112260614Y-67600515D01*
X112171588Y-67385587D01*
X112042342Y-67192157D01*
X111877843Y-67027658D01*
X111684413Y-66898412D01*
X111469485Y-66809386D01*
X111241318Y-66764000D01*
X111008682Y-66764000D01*
X110780515Y-66809386D01*
X110565587Y-66898412D01*
X110372157Y-67027658D01*
X110207658Y-67192157D01*
X110078412Y-67385587D01*
X109989386Y-67600515D01*
X109944000Y-67828682D01*
X109766000Y-67828682D01*
X109720614Y-67600515D01*
X109631588Y-67385587D01*
X109502342Y-67192157D01*
X109337843Y-67027658D01*
X109144413Y-66898412D01*
X108929485Y-66809386D01*
X108701318Y-66764000D01*
X108468682Y-66764000D01*
X108240515Y-66809386D01*
X108025587Y-66898412D01*
X107832157Y-67027658D01*
X107667658Y-67192157D01*
X107538412Y-67385587D01*
X107449386Y-67600515D01*
X107404000Y-67828682D01*
X107226000Y-67828682D01*
X107180614Y-67600515D01*
X107091588Y-67385587D01*
X106962342Y-67192157D01*
X106797843Y-67027658D01*
X106604413Y-66898412D01*
X106389485Y-66809386D01*
X106161318Y-66764000D01*
X105928682Y-66764000D01*
X105700515Y-66809386D01*
X105485587Y-66898412D01*
X105292157Y-67027658D01*
X105127658Y-67192157D01*
X104998412Y-67385587D01*
X104909386Y-67600515D01*
X104864000Y-67828682D01*
X104686000Y-67828682D01*
X104640614Y-67600515D01*
X104551588Y-67385587D01*
X104422342Y-67192157D01*
X104257843Y-67027658D01*
X104064413Y-66898412D01*
X103849485Y-66809386D01*
X103621318Y-66764000D01*
X103388682Y-66764000D01*
X103160515Y-66809386D01*
X102945587Y-66898412D01*
X102752157Y-67027658D01*
X102587658Y-67192157D01*
X102458412Y-67385587D01*
X102369386Y-67600515D01*
X102324000Y-67828682D01*
X102081000Y-67828682D01*
X102081000Y-63777520D01*
X102095870Y-63625865D01*
X102133082Y-63502612D01*
X102193526Y-63388932D01*
X102274899Y-63289159D01*
X102374105Y-63207089D01*
X102487357Y-63145853D01*
X102610352Y-63107780D01*
X102760492Y-63092000D01*
X172823480Y-63092000D01*
X172975135Y-63106870D01*
G04 #@! TA.AperFunction,Conductor*
D18*
G36*
X172975135Y-63106870D02*
G01*
X173098388Y-63144082D01*
X173212068Y-63204526D01*
X173311841Y-63285899D01*
X173393911Y-63385105D01*
X173455147Y-63498357D01*
X173493220Y-63621352D01*
X173509000Y-63771492D01*
X173509001Y-87352470D01*
X173494130Y-87504135D01*
X173456918Y-87627388D01*
X173396474Y-87741067D01*
X173315097Y-87840845D01*
X173215897Y-87922910D01*
X173102640Y-87984148D01*
X172979648Y-88022220D01*
X172829508Y-88038000D01*
X102766520Y-88038000D01*
X102614865Y-88023130D01*
X102491612Y-87985918D01*
X102377933Y-87925474D01*
X102278155Y-87844097D01*
X102196090Y-87744897D01*
X102134852Y-87631640D01*
X102096780Y-87508648D01*
X102081000Y-87358508D01*
X102081000Y-83068682D01*
X102324000Y-83068682D01*
X102324000Y-83301318D01*
X102369386Y-83529485D01*
X102458412Y-83744413D01*
X102587658Y-83937843D01*
X102752157Y-84102342D01*
X102874000Y-84183755D01*
X102874001Y-84726245D01*
X102752157Y-84807658D01*
X102587658Y-84972157D01*
X102458412Y-85165587D01*
X102369386Y-85380515D01*
X102324000Y-85608682D01*
X102324000Y-85841318D01*
X102369386Y-86069485D01*
X102458412Y-86284413D01*
X102587658Y-86477843D01*
X102752157Y-86642342D01*
X102945587Y-86771588D01*
X103160515Y-86860614D01*
X103388682Y-86906000D01*
X103621318Y-86906000D01*
X103849485Y-86860614D01*
X104064413Y-86771588D01*
X104257843Y-86642342D01*
X104422342Y-86477843D01*
X104551588Y-86284413D01*
X104640614Y-86069485D01*
X104686000Y-85841318D01*
X104686000Y-85608682D01*
X104640614Y-85380515D01*
X104551588Y-85165587D01*
X104422342Y-84972157D01*
X104257843Y-84807658D01*
X104136000Y-84726245D01*
X104136000Y-84183755D01*
X104257843Y-84102342D01*
X104422342Y-83937843D01*
X104551588Y-83744413D01*
X104640614Y-83529485D01*
X104686000Y-83301318D01*
X104686000Y-83068682D01*
X104864000Y-83068682D01*
X104864000Y-83301318D01*
X104909386Y-83529485D01*
X104998412Y-83744413D01*
X105127658Y-83937843D01*
X105292157Y-84102342D01*
X105414000Y-84183755D01*
X105414001Y-84726245D01*
X105292157Y-84807658D01*
X105127658Y-84972157D01*
X104998412Y-85165587D01*
X104909386Y-85380515D01*
X104864000Y-85608682D01*
X104864000Y-85841318D01*
X104909386Y-86069485D01*
X104998412Y-86284413D01*
X105127658Y-86477843D01*
X105292157Y-86642342D01*
X105485587Y-86771588D01*
X105700515Y-86860614D01*
X105928682Y-86906000D01*
X106161318Y-86906000D01*
X106389485Y-86860614D01*
X106604413Y-86771588D01*
X106797843Y-86642342D01*
X106962342Y-86477843D01*
X107091588Y-86284413D01*
X107180614Y-86069485D01*
X107226000Y-85841318D01*
X107226000Y-85608682D01*
X107180614Y-85380515D01*
X107091588Y-85165587D01*
X106962342Y-84972157D01*
X106797843Y-84807658D01*
X106676000Y-84726245D01*
X106676000Y-84183755D01*
X106797843Y-84102342D01*
X106962342Y-83937843D01*
X107091588Y-83744413D01*
X107180614Y-83529485D01*
X107226000Y-83301318D01*
X107226000Y-83068682D01*
X107404000Y-83068682D01*
X107404000Y-83301318D01*
X107449386Y-83529485D01*
X107538412Y-83744413D01*
X107667658Y-83937843D01*
X107832157Y-84102342D01*
X107954000Y-84183755D01*
X107954001Y-84726245D01*
X107832157Y-84807658D01*
X107667658Y-84972157D01*
X107538412Y-85165587D01*
X107449386Y-85380515D01*
X107404000Y-85608682D01*
X107404000Y-85841318D01*
X107449386Y-86069485D01*
X107538412Y-86284413D01*
X107667658Y-86477843D01*
X107832157Y-86642342D01*
X108025587Y-86771588D01*
X108240515Y-86860614D01*
X108468682Y-86906000D01*
X108701318Y-86906000D01*
X108929485Y-86860614D01*
X109144413Y-86771588D01*
X109337843Y-86642342D01*
X109502342Y-86477843D01*
X109631588Y-86284413D01*
X109720614Y-86069485D01*
X109766000Y-85841318D01*
X109766000Y-85608682D01*
X109720614Y-85380515D01*
X109631588Y-85165587D01*
X109502342Y-84972157D01*
X109337843Y-84807658D01*
X109216000Y-84726245D01*
X109216000Y-84183755D01*
X109337843Y-84102342D01*
X109502342Y-83937843D01*
X109631588Y-83744413D01*
X109720614Y-83529485D01*
X109766000Y-83301318D01*
X109766000Y-83068682D01*
X109944000Y-83068682D01*
X109944000Y-83301318D01*
X109989386Y-83529485D01*
X110078412Y-83744413D01*
X110207658Y-83937843D01*
X110372157Y-84102342D01*
X110494000Y-84183755D01*
X110494001Y-84726245D01*
X110372157Y-84807658D01*
X110207658Y-84972157D01*
X110078412Y-85165587D01*
X109989386Y-85380515D01*
X109944000Y-85608682D01*
X109944000Y-85841318D01*
X109989386Y-86069485D01*
X110078412Y-86284413D01*
X110207658Y-86477843D01*
X110372157Y-86642342D01*
X110565587Y-86771588D01*
X110780515Y-86860614D01*
X111008682Y-86906000D01*
X111241318Y-86906000D01*
X111469485Y-86860614D01*
X111684413Y-86771588D01*
X111877843Y-86642342D01*
X112042342Y-86477843D01*
X112171588Y-86284413D01*
X112260614Y-86069485D01*
X112306000Y-85841318D01*
X112306000Y-85608682D01*
X112260614Y-85380515D01*
X112171588Y-85165587D01*
X112042342Y-84972157D01*
X111877843Y-84807658D01*
X111756000Y-84726245D01*
X111756000Y-84183755D01*
X111877843Y-84102342D01*
X112042342Y-83937843D01*
X112171588Y-83744413D01*
X112260614Y-83529485D01*
X112306000Y-83301318D01*
X112306000Y-83068682D01*
X112484000Y-83068682D01*
X112484000Y-83301318D01*
X112529386Y-83529485D01*
X112618412Y-83744413D01*
X112747658Y-83937843D01*
X112912157Y-84102342D01*
X113034000Y-84183755D01*
X113034001Y-84726245D01*
X112912157Y-84807658D01*
X112747658Y-84972157D01*
X112618412Y-85165587D01*
X112529386Y-85380515D01*
X112484000Y-85608682D01*
X112484000Y-85841318D01*
X112529386Y-86069485D01*
X112618412Y-86284413D01*
X112747658Y-86477843D01*
X112912157Y-86642342D01*
X113105587Y-86771588D01*
X113320515Y-86860614D01*
X113548682Y-86906000D01*
X113781318Y-86906000D01*
X114009485Y-86860614D01*
X114224413Y-86771588D01*
X114417843Y-86642342D01*
X114582342Y-86477843D01*
X114711588Y-86284413D01*
X114800614Y-86069485D01*
X114846000Y-85841318D01*
X114846000Y-85608682D01*
X114800614Y-85380515D01*
X114711588Y-85165587D01*
X114582342Y-84972157D01*
X114417843Y-84807658D01*
X114296000Y-84726245D01*
X114296000Y-84183755D01*
X114417843Y-84102342D01*
X114582342Y-83937843D01*
X114711588Y-83744413D01*
X114800614Y-83529485D01*
X114846000Y-83301318D01*
X114846000Y-83068682D01*
X115024000Y-83068682D01*
X115024000Y-83301318D01*
X115069386Y-83529485D01*
X115158412Y-83744413D01*
X115287658Y-83937843D01*
X115452157Y-84102342D01*
X115574000Y-84183755D01*
X115574001Y-84726245D01*
X115452157Y-84807658D01*
X115287658Y-84972157D01*
X115158412Y-85165587D01*
X115069386Y-85380515D01*
X115024000Y-85608682D01*
X115024000Y-85841318D01*
X115069386Y-86069485D01*
X115158412Y-86284413D01*
X115287658Y-86477843D01*
X115452157Y-86642342D01*
X115645587Y-86771588D01*
X115860515Y-86860614D01*
X116088682Y-86906000D01*
X116321318Y-86906000D01*
X116549485Y-86860614D01*
X116764413Y-86771588D01*
X116957843Y-86642342D01*
X117122342Y-86477843D01*
X117251588Y-86284413D01*
X117340614Y-86069485D01*
X117386000Y-85841318D01*
X117386000Y-85608682D01*
X117340614Y-85380515D01*
X117251588Y-85165587D01*
X117122342Y-84972157D01*
X116957843Y-84807658D01*
X116836000Y-84726245D01*
X116836000Y-84183755D01*
X116957843Y-84102342D01*
X117122342Y-83937843D01*
X117251588Y-83744413D01*
X117340614Y-83529485D01*
X117386000Y-83301318D01*
X117386000Y-83068682D01*
X117564000Y-83068682D01*
X117564000Y-83301318D01*
X117609386Y-83529485D01*
X117698412Y-83744413D01*
X117827658Y-83937843D01*
X117992157Y-84102342D01*
X118114000Y-84183755D01*
X118114001Y-84726245D01*
X117992157Y-84807658D01*
X117827658Y-84972157D01*
X117698412Y-85165587D01*
X117609386Y-85380515D01*
X117564000Y-85608682D01*
X117564000Y-85841318D01*
X117609386Y-86069485D01*
X117698412Y-86284413D01*
X117827658Y-86477843D01*
X117992157Y-86642342D01*
X118185587Y-86771588D01*
X118400515Y-86860614D01*
X118628682Y-86906000D01*
X118861318Y-86906000D01*
X119089485Y-86860614D01*
X119304413Y-86771588D01*
X119497843Y-86642342D01*
X119662342Y-86477843D01*
X119791588Y-86284413D01*
X119880614Y-86069485D01*
X119926000Y-85841318D01*
X119926000Y-85608682D01*
X119880614Y-85380515D01*
X119791588Y-85165587D01*
X119662342Y-84972157D01*
X119497843Y-84807658D01*
X119376000Y-84726245D01*
X119376000Y-84183755D01*
X119497843Y-84102342D01*
X119662342Y-83937843D01*
X119791588Y-83744413D01*
X119880614Y-83529485D01*
X119926000Y-83301318D01*
X119926000Y-83068682D01*
X120104000Y-83068682D01*
X120104000Y-83301318D01*
X120149386Y-83529485D01*
X120238412Y-83744413D01*
X120367658Y-83937843D01*
X120532157Y-84102342D01*
X120654000Y-84183755D01*
X120654001Y-84726245D01*
X120532157Y-84807658D01*
X120367658Y-84972157D01*
X120238412Y-85165587D01*
X120149386Y-85380515D01*
X120104000Y-85608682D01*
X120104000Y-85841318D01*
X120149386Y-86069485D01*
X120238412Y-86284413D01*
X120367658Y-86477843D01*
X120532157Y-86642342D01*
X120725587Y-86771588D01*
X120940515Y-86860614D01*
X121168682Y-86906000D01*
X121401318Y-86906000D01*
X121629485Y-86860614D01*
X121844413Y-86771588D01*
X122037843Y-86642342D01*
X122202342Y-86477843D01*
X122331588Y-86284413D01*
X122420614Y-86069485D01*
X122466000Y-85841318D01*
X122466000Y-85608682D01*
X122420614Y-85380515D01*
X122331588Y-85165587D01*
X122202342Y-84972157D01*
X122037843Y-84807658D01*
X121916000Y-84726245D01*
X121916000Y-84183755D01*
X122037843Y-84102342D01*
X122202342Y-83937843D01*
X122331588Y-83744413D01*
X122420614Y-83529485D01*
X122466000Y-83301318D01*
X122466000Y-83068682D01*
X122644000Y-83068682D01*
X122644000Y-83301318D01*
X122689386Y-83529485D01*
X122778412Y-83744413D01*
X122907658Y-83937843D01*
X123072157Y-84102342D01*
X123194000Y-84183755D01*
X123194001Y-84726245D01*
X123072157Y-84807658D01*
X122907658Y-84972157D01*
X122778412Y-85165587D01*
X122689386Y-85380515D01*
X122644000Y-85608682D01*
X122644000Y-85841318D01*
X122689386Y-86069485D01*
X122778412Y-86284413D01*
X122907658Y-86477843D01*
X123072157Y-86642342D01*
X123265587Y-86771588D01*
X123480515Y-86860614D01*
X123708682Y-86906000D01*
X123941318Y-86906000D01*
X124169485Y-86860614D01*
X124384413Y-86771588D01*
X124577843Y-86642342D01*
X124742342Y-86477843D01*
X124871588Y-86284413D01*
X124960614Y-86069485D01*
X125006000Y-85841318D01*
X125006000Y-85608682D01*
X124960614Y-85380515D01*
X124871588Y-85165587D01*
X124742342Y-84972157D01*
X124577843Y-84807658D01*
X124456000Y-84726245D01*
X124456000Y-84183755D01*
X124577843Y-84102342D01*
X124742342Y-83937843D01*
X124871588Y-83744413D01*
X124960614Y-83529485D01*
X125006000Y-83301318D01*
X125006000Y-83068682D01*
X125184000Y-83068682D01*
X125184000Y-83301318D01*
X125229386Y-83529485D01*
X125318412Y-83744413D01*
X125447658Y-83937843D01*
X125612157Y-84102342D01*
X125734000Y-84183755D01*
X125734001Y-84726245D01*
X125612157Y-84807658D01*
X125447658Y-84972157D01*
X125318412Y-85165587D01*
X125229386Y-85380515D01*
X125184000Y-85608682D01*
X125184000Y-85841318D01*
X125229386Y-86069485D01*
X125318412Y-86284413D01*
X125447658Y-86477843D01*
X125612157Y-86642342D01*
X125805587Y-86771588D01*
X126020515Y-86860614D01*
X126248682Y-86906000D01*
X126481318Y-86906000D01*
X126709485Y-86860614D01*
X126924413Y-86771588D01*
X127117843Y-86642342D01*
X127282342Y-86477843D01*
X127411588Y-86284413D01*
X127500614Y-86069485D01*
X127546000Y-85841318D01*
X127546000Y-85608682D01*
X127500614Y-85380515D01*
X127411588Y-85165587D01*
X127282342Y-84972157D01*
X127117843Y-84807658D01*
X126996000Y-84726245D01*
X126996000Y-84183755D01*
X127117843Y-84102342D01*
X127282342Y-83937843D01*
X127411588Y-83744413D01*
X127500614Y-83529485D01*
X127546000Y-83301318D01*
X127546000Y-83068682D01*
X127724000Y-83068682D01*
X127724000Y-83301318D01*
X127769386Y-83529485D01*
X127858412Y-83744413D01*
X127987658Y-83937843D01*
X128152157Y-84102342D01*
X128274000Y-84183755D01*
X128274001Y-84726245D01*
X128152157Y-84807658D01*
X127987658Y-84972157D01*
X127858412Y-85165587D01*
X127769386Y-85380515D01*
X127724000Y-85608682D01*
X127724000Y-85841318D01*
X127769386Y-86069485D01*
X127858412Y-86284413D01*
X127987658Y-86477843D01*
X128152157Y-86642342D01*
X128345587Y-86771588D01*
X128560515Y-86860614D01*
X128788682Y-86906000D01*
X129021318Y-86906000D01*
X129249485Y-86860614D01*
X129464413Y-86771588D01*
X129657843Y-86642342D01*
X129822342Y-86477843D01*
X129951588Y-86284413D01*
X130040614Y-86069485D01*
X130086000Y-85841318D01*
X130086000Y-85608682D01*
X130040614Y-85380515D01*
X129951588Y-85165587D01*
X129822342Y-84972157D01*
X129657843Y-84807658D01*
X129536000Y-84726245D01*
X129536000Y-84183755D01*
X129657843Y-84102342D01*
X129822342Y-83937843D01*
X129951588Y-83744413D01*
X130040614Y-83529485D01*
X130086000Y-83301318D01*
X130086000Y-83068682D01*
X130264000Y-83068682D01*
X130264000Y-83301318D01*
X130309386Y-83529485D01*
X130398412Y-83744413D01*
X130527658Y-83937843D01*
X130692157Y-84102342D01*
X130814000Y-84183755D01*
X130814001Y-84726245D01*
X130692157Y-84807658D01*
X130527658Y-84972157D01*
X130398412Y-85165587D01*
X130309386Y-85380515D01*
X130264000Y-85608682D01*
X130264000Y-85841318D01*
X130309386Y-86069485D01*
X130398412Y-86284413D01*
X130527658Y-86477843D01*
X130692157Y-86642342D01*
X130885587Y-86771588D01*
X131100515Y-86860614D01*
X131328682Y-86906000D01*
X131561318Y-86906000D01*
X131789485Y-86860614D01*
X132004413Y-86771588D01*
X132197843Y-86642342D01*
X132362342Y-86477843D01*
X132491588Y-86284413D01*
X132580614Y-86069485D01*
X132587649Y-86034115D01*
X132845165Y-86034115D01*
X132927372Y-86250546D01*
X133050223Y-86446781D01*
X133208997Y-86615278D01*
X133397592Y-86749562D01*
X133608761Y-86844473D01*
X133675886Y-86864829D01*
X133858000Y-86803297D01*
X133858000Y-85852000D01*
X134112000Y-85852000D01*
X134112000Y-86803297D01*
X134294114Y-86864829D01*
X134361239Y-86844473D01*
X134572408Y-86749562D01*
X134761003Y-86615278D01*
X134919777Y-86446781D01*
X135042628Y-86250546D01*
X135124835Y-86034115D01*
X135063908Y-85852000D01*
X134112000Y-85852000D01*
X133858000Y-85852000D01*
X132906092Y-85852000D01*
X132845165Y-86034115D01*
X132587649Y-86034115D01*
X132626000Y-85841318D01*
X132626000Y-85608682D01*
X132587650Y-85415885D01*
X132845165Y-85415885D01*
X132906092Y-85598000D01*
X133858000Y-85598000D01*
X133858000Y-84646703D01*
X134112000Y-84646703D01*
X134112000Y-85598000D01*
X135063908Y-85598000D01*
X135124835Y-85415885D01*
X135042628Y-85199454D01*
X134919777Y-85003219D01*
X134761003Y-84834722D01*
X134572408Y-84700438D01*
X134361239Y-84605527D01*
X134294114Y-84585171D01*
X134112000Y-84646703D01*
X133858000Y-84646703D01*
X133675886Y-84585171D01*
X133608761Y-84605527D01*
X133397592Y-84700438D01*
X133208997Y-84834722D01*
X133050223Y-85003219D01*
X132927372Y-85199454D01*
X132845165Y-85415885D01*
X132587650Y-85415885D01*
X132580614Y-85380515D01*
X132491588Y-85165587D01*
X132362342Y-84972157D01*
X132197843Y-84807658D01*
X132076000Y-84726245D01*
X132076000Y-84183755D01*
X132197843Y-84102342D01*
X132362342Y-83937843D01*
X132491588Y-83744413D01*
X132580614Y-83529485D01*
X132587649Y-83494115D01*
X132845165Y-83494115D01*
X132927372Y-83710546D01*
X133050223Y-83906781D01*
X133208997Y-84075278D01*
X133397592Y-84209562D01*
X133608761Y-84304473D01*
X133675886Y-84324829D01*
X133858000Y-84263297D01*
X133858000Y-83312000D01*
X134112000Y-83312000D01*
X134112000Y-84263297D01*
X134294114Y-84324829D01*
X134361239Y-84304473D01*
X134572408Y-84209562D01*
X134761003Y-84075278D01*
X134919777Y-83906781D01*
X135042628Y-83710546D01*
X135124835Y-83494115D01*
X135063908Y-83312000D01*
X134112000Y-83312000D01*
X133858000Y-83312000D01*
X132906092Y-83312000D01*
X132845165Y-83494115D01*
X132587649Y-83494115D01*
X132626000Y-83301318D01*
X132626000Y-83068682D01*
X135344000Y-83068682D01*
X135344000Y-83301318D01*
X135389386Y-83529485D01*
X135478412Y-83744413D01*
X135607658Y-83937843D01*
X135772157Y-84102342D01*
X135894000Y-84183755D01*
X135894001Y-84726245D01*
X135772157Y-84807658D01*
X135607658Y-84972157D01*
X135478412Y-85165587D01*
X135389386Y-85380515D01*
X135344000Y-85608682D01*
X135344000Y-85841318D01*
X135389386Y-86069485D01*
X135478412Y-86284413D01*
X135607658Y-86477843D01*
X135772157Y-86642342D01*
X135965587Y-86771588D01*
X136180515Y-86860614D01*
X136408682Y-86906000D01*
X136641318Y-86906000D01*
X136869485Y-86860614D01*
X137084413Y-86771588D01*
X137277843Y-86642342D01*
X137442342Y-86477843D01*
X137571588Y-86284413D01*
X137660614Y-86069485D01*
X137706000Y-85841318D01*
X137706000Y-85608682D01*
X137660614Y-85380515D01*
X137571588Y-85165587D01*
X137442342Y-84972157D01*
X137277843Y-84807658D01*
X137156000Y-84726245D01*
X137156000Y-84183755D01*
X137277843Y-84102342D01*
X137442342Y-83937843D01*
X137571588Y-83744413D01*
X137660614Y-83529485D01*
X137706000Y-83301318D01*
X137706000Y-83068682D01*
X137884000Y-83068682D01*
X137884000Y-83301318D01*
X137929386Y-83529485D01*
X138018412Y-83744413D01*
X138147658Y-83937843D01*
X138312157Y-84102342D01*
X138434000Y-84183755D01*
X138434001Y-84726245D01*
X138312157Y-84807658D01*
X138147658Y-84972157D01*
X138018412Y-85165587D01*
X137929386Y-85380515D01*
X137884000Y-85608682D01*
X137884000Y-85841318D01*
X137929386Y-86069485D01*
X138018412Y-86284413D01*
X138147658Y-86477843D01*
X138312157Y-86642342D01*
X138505587Y-86771588D01*
X138720515Y-86860614D01*
X138948682Y-86906000D01*
X139181318Y-86906000D01*
X139409485Y-86860614D01*
X139624413Y-86771588D01*
X139817843Y-86642342D01*
X139982342Y-86477843D01*
X140111588Y-86284413D01*
X140200614Y-86069485D01*
X140246000Y-85841318D01*
X140246000Y-85608682D01*
X140200614Y-85380515D01*
X140111588Y-85165587D01*
X139982342Y-84972157D01*
X139817843Y-84807658D01*
X139696000Y-84726245D01*
X139696000Y-84183755D01*
X139817843Y-84102342D01*
X139982342Y-83937843D01*
X140111588Y-83744413D01*
X140200614Y-83529485D01*
X140246000Y-83301318D01*
X140246000Y-83068682D01*
X140424000Y-83068682D01*
X140424000Y-83301318D01*
X140469386Y-83529485D01*
X140558412Y-83744413D01*
X140687658Y-83937843D01*
X140852157Y-84102342D01*
X140974000Y-84183755D01*
X140974001Y-84726245D01*
X140852157Y-84807658D01*
X140687658Y-84972157D01*
X140558412Y-85165587D01*
X140469386Y-85380515D01*
X140424000Y-85608682D01*
X140424000Y-85841318D01*
X140469386Y-86069485D01*
X140558412Y-86284413D01*
X140687658Y-86477843D01*
X140852157Y-86642342D01*
X141045587Y-86771588D01*
X141260515Y-86860614D01*
X141488682Y-86906000D01*
X141721318Y-86906000D01*
X141949485Y-86860614D01*
X142164413Y-86771588D01*
X142357843Y-86642342D01*
X142522342Y-86477843D01*
X142651588Y-86284413D01*
X142740614Y-86069485D01*
X142786000Y-85841318D01*
X142786000Y-85608682D01*
X142740614Y-85380515D01*
X142651588Y-85165587D01*
X142522342Y-84972157D01*
X142357843Y-84807658D01*
X142236000Y-84726245D01*
X142236000Y-84183755D01*
X142357843Y-84102342D01*
X142522342Y-83937843D01*
X142651588Y-83744413D01*
X142740614Y-83529485D01*
X142786000Y-83301318D01*
X142786000Y-83068682D01*
X142964000Y-83068682D01*
X142964000Y-83301318D01*
X143009386Y-83529485D01*
X143098412Y-83744413D01*
X143227658Y-83937843D01*
X143392157Y-84102342D01*
X143514000Y-84183755D01*
X143514001Y-84726245D01*
X143392157Y-84807658D01*
X143227658Y-84972157D01*
X143098412Y-85165587D01*
X143009386Y-85380515D01*
X142964000Y-85608682D01*
X142964000Y-85841318D01*
X143009386Y-86069485D01*
X143098412Y-86284413D01*
X143227658Y-86477843D01*
X143392157Y-86642342D01*
X143585587Y-86771588D01*
X143800515Y-86860614D01*
X144028682Y-86906000D01*
X144261318Y-86906000D01*
X144489485Y-86860614D01*
X144704413Y-86771588D01*
X144897843Y-86642342D01*
X145062342Y-86477843D01*
X145191588Y-86284413D01*
X145280614Y-86069485D01*
X145326000Y-85841318D01*
X145326000Y-85608682D01*
X145280614Y-85380515D01*
X145191588Y-85165587D01*
X145062342Y-84972157D01*
X144897843Y-84807658D01*
X144776000Y-84726245D01*
X144776000Y-84183755D01*
X144897843Y-84102342D01*
X145062342Y-83937843D01*
X145191588Y-83744413D01*
X145280614Y-83529485D01*
X145326000Y-83301318D01*
X145326000Y-83068682D01*
X145504000Y-83068682D01*
X145504000Y-83301318D01*
X145549386Y-83529485D01*
X145638412Y-83744413D01*
X145767658Y-83937843D01*
X145932157Y-84102342D01*
X146054000Y-84183755D01*
X146054001Y-84726245D01*
X145932157Y-84807658D01*
X145767658Y-84972157D01*
X145638412Y-85165587D01*
X145549386Y-85380515D01*
X145504000Y-85608682D01*
X145504000Y-85841318D01*
X145549386Y-86069485D01*
X145638412Y-86284413D01*
X145767658Y-86477843D01*
X145932157Y-86642342D01*
X146125587Y-86771588D01*
X146340515Y-86860614D01*
X146568682Y-86906000D01*
X146801318Y-86906000D01*
X147029485Y-86860614D01*
X147244413Y-86771588D01*
X147437843Y-86642342D01*
X147602342Y-86477843D01*
X147731588Y-86284413D01*
X147820614Y-86069485D01*
X147866000Y-85841318D01*
X147866000Y-85608682D01*
X147820614Y-85380515D01*
X147731588Y-85165587D01*
X147602342Y-84972157D01*
X147437843Y-84807658D01*
X147316000Y-84726245D01*
X147316000Y-84183755D01*
X147437843Y-84102342D01*
X147602342Y-83937843D01*
X147731588Y-83744413D01*
X147820614Y-83529485D01*
X147866000Y-83301318D01*
X147866000Y-83068682D01*
X148044000Y-83068682D01*
X148044000Y-83301318D01*
X148089386Y-83529485D01*
X148178412Y-83744413D01*
X148307658Y-83937843D01*
X148472157Y-84102342D01*
X148594000Y-84183755D01*
X148594001Y-84726245D01*
X148472157Y-84807658D01*
X148307658Y-84972157D01*
X148178412Y-85165587D01*
X148089386Y-85380515D01*
X148044000Y-85608682D01*
X148044000Y-85841318D01*
X148089386Y-86069485D01*
X148178412Y-86284413D01*
X148307658Y-86477843D01*
X148472157Y-86642342D01*
X148665587Y-86771588D01*
X148880515Y-86860614D01*
X149108682Y-86906000D01*
X149341318Y-86906000D01*
X149569485Y-86860614D01*
X149784413Y-86771588D01*
X149977843Y-86642342D01*
X150142342Y-86477843D01*
X150271588Y-86284413D01*
X150360614Y-86069485D01*
X150406000Y-85841318D01*
X150406000Y-85608682D01*
X150360614Y-85380515D01*
X150271588Y-85165587D01*
X150142342Y-84972157D01*
X149977843Y-84807658D01*
X149856000Y-84726245D01*
X149856000Y-84183755D01*
X149977843Y-84102342D01*
X150142342Y-83937843D01*
X150271588Y-83744413D01*
X150360614Y-83529485D01*
X150406000Y-83301318D01*
X150406000Y-83068682D01*
X150584000Y-83068682D01*
X150584000Y-83301318D01*
X150629386Y-83529485D01*
X150718412Y-83744413D01*
X150847658Y-83937843D01*
X151012157Y-84102342D01*
X151134000Y-84183755D01*
X151134001Y-84726245D01*
X151012157Y-84807658D01*
X150847658Y-84972157D01*
X150718412Y-85165587D01*
X150629386Y-85380515D01*
X150584000Y-85608682D01*
X150584000Y-85841318D01*
X150629386Y-86069485D01*
X150718412Y-86284413D01*
X150847658Y-86477843D01*
X151012157Y-86642342D01*
X151205587Y-86771588D01*
X151420515Y-86860614D01*
X151648682Y-86906000D01*
X151881318Y-86906000D01*
X152109485Y-86860614D01*
X152324413Y-86771588D01*
X152517843Y-86642342D01*
X152682342Y-86477843D01*
X152811588Y-86284413D01*
X152900614Y-86069485D01*
X152946000Y-85841318D01*
X152946000Y-85608682D01*
X152900614Y-85380515D01*
X152811588Y-85165587D01*
X152682342Y-84972157D01*
X152517843Y-84807658D01*
X152396000Y-84726245D01*
X152396000Y-84183755D01*
X152517843Y-84102342D01*
X152682342Y-83937843D01*
X152811588Y-83744413D01*
X152900614Y-83529485D01*
X152946000Y-83301318D01*
X152946000Y-83068682D01*
X153124000Y-83068682D01*
X153124000Y-83301318D01*
X153169386Y-83529485D01*
X153258412Y-83744413D01*
X153387658Y-83937843D01*
X153552157Y-84102342D01*
X153674000Y-84183755D01*
X153674001Y-84726245D01*
X153552157Y-84807658D01*
X153387658Y-84972157D01*
X153258412Y-85165587D01*
X153169386Y-85380515D01*
X153124000Y-85608682D01*
X153124000Y-85841318D01*
X153169386Y-86069485D01*
X153258412Y-86284413D01*
X153387658Y-86477843D01*
X153552157Y-86642342D01*
X153745587Y-86771588D01*
X153960515Y-86860614D01*
X154188682Y-86906000D01*
X154421318Y-86906000D01*
X154649485Y-86860614D01*
X154864413Y-86771588D01*
X155057843Y-86642342D01*
X155222342Y-86477843D01*
X155351588Y-86284413D01*
X155440614Y-86069485D01*
X155486000Y-85841318D01*
X155486000Y-85608682D01*
X155440614Y-85380515D01*
X155351588Y-85165587D01*
X155222342Y-84972157D01*
X155057843Y-84807658D01*
X154936000Y-84726245D01*
X154936000Y-84183755D01*
X155057843Y-84102342D01*
X155222342Y-83937843D01*
X155351588Y-83744413D01*
X155440614Y-83529485D01*
X155486000Y-83301318D01*
X155486000Y-83068682D01*
X155664000Y-83068682D01*
X155664000Y-83301318D01*
X155709386Y-83529485D01*
X155798412Y-83744413D01*
X155927658Y-83937843D01*
X156092157Y-84102342D01*
X156214000Y-84183755D01*
X156214001Y-84726245D01*
X156092157Y-84807658D01*
X155927658Y-84972157D01*
X155798412Y-85165587D01*
X155709386Y-85380515D01*
X155664000Y-85608682D01*
X155664000Y-85841318D01*
X155709386Y-86069485D01*
X155798412Y-86284413D01*
X155927658Y-86477843D01*
X156092157Y-86642342D01*
X156285587Y-86771588D01*
X156500515Y-86860614D01*
X156728682Y-86906000D01*
X156961318Y-86906000D01*
X157189485Y-86860614D01*
X157404413Y-86771588D01*
X157597843Y-86642342D01*
X157762342Y-86477843D01*
X157891588Y-86284413D01*
X157980614Y-86069485D01*
X158026000Y-85841318D01*
X158026000Y-85608682D01*
X157980614Y-85380515D01*
X157891588Y-85165587D01*
X157762342Y-84972157D01*
X157597843Y-84807658D01*
X157476000Y-84726245D01*
X157476000Y-84183755D01*
X157597843Y-84102342D01*
X157762342Y-83937843D01*
X157891588Y-83744413D01*
X157980614Y-83529485D01*
X158026000Y-83301318D01*
X158026000Y-83068682D01*
X158204000Y-83068682D01*
X158204000Y-83301318D01*
X158249386Y-83529485D01*
X158338412Y-83744413D01*
X158467658Y-83937843D01*
X158632157Y-84102342D01*
X158754000Y-84183755D01*
X158754001Y-84726245D01*
X158632157Y-84807658D01*
X158467658Y-84972157D01*
X158338412Y-85165587D01*
X158249386Y-85380515D01*
X158204000Y-85608682D01*
X158204000Y-85841318D01*
X158249386Y-86069485D01*
X158338412Y-86284413D01*
X158467658Y-86477843D01*
X158632157Y-86642342D01*
X158825587Y-86771588D01*
X159040515Y-86860614D01*
X159268682Y-86906000D01*
X159501318Y-86906000D01*
X159729485Y-86860614D01*
X159944413Y-86771588D01*
X160137843Y-86642342D01*
X160302342Y-86477843D01*
X160431588Y-86284413D01*
X160520614Y-86069485D01*
X160566000Y-85841318D01*
X160566000Y-85608682D01*
X160520614Y-85380515D01*
X160431588Y-85165587D01*
X160302342Y-84972157D01*
X160137843Y-84807658D01*
X160016000Y-84726245D01*
X160016000Y-84183755D01*
X160137843Y-84102342D01*
X160302342Y-83937843D01*
X160431588Y-83744413D01*
X160520614Y-83529485D01*
X160566000Y-83301318D01*
X160566000Y-83068682D01*
X160520614Y-82840515D01*
X160431588Y-82625587D01*
X160302342Y-82432157D01*
X160137843Y-82267658D01*
X159944413Y-82138412D01*
X159729485Y-82049386D01*
X159501318Y-82004000D01*
X159268682Y-82004000D01*
X159040515Y-82049386D01*
X158825587Y-82138412D01*
X158632157Y-82267658D01*
X158467658Y-82432157D01*
X158338412Y-82625587D01*
X158249386Y-82840515D01*
X158204000Y-83068682D01*
X158026000Y-83068682D01*
X157980614Y-82840515D01*
X157891588Y-82625587D01*
X157762342Y-82432157D01*
X157597843Y-82267658D01*
X157404413Y-82138412D01*
X157189485Y-82049386D01*
X156961318Y-82004000D01*
X156728682Y-82004000D01*
X156500515Y-82049386D01*
X156285587Y-82138412D01*
X156092157Y-82267658D01*
X155927658Y-82432157D01*
X155798412Y-82625587D01*
X155709386Y-82840515D01*
X155664000Y-83068682D01*
X155486000Y-83068682D01*
X155440614Y-82840515D01*
X155351588Y-82625587D01*
X155222342Y-82432157D01*
X155057843Y-82267658D01*
X154864413Y-82138412D01*
X154649485Y-82049386D01*
X154421318Y-82004000D01*
X154188682Y-82004000D01*
X153960515Y-82049386D01*
X153745587Y-82138412D01*
X153552157Y-82267658D01*
X153387658Y-82432157D01*
X153258412Y-82625587D01*
X153169386Y-82840515D01*
X153124000Y-83068682D01*
X152946000Y-83068682D01*
X152900614Y-82840515D01*
X152811588Y-82625587D01*
X152682342Y-82432157D01*
X152517843Y-82267658D01*
X152324413Y-82138412D01*
X152109485Y-82049386D01*
X151881318Y-82004000D01*
X151648682Y-82004000D01*
X151420515Y-82049386D01*
X151205587Y-82138412D01*
X151012157Y-82267658D01*
X150847658Y-82432157D01*
X150718412Y-82625587D01*
X150629386Y-82840515D01*
X150584000Y-83068682D01*
X150406000Y-83068682D01*
X150360614Y-82840515D01*
X150271588Y-82625587D01*
X150142342Y-82432157D01*
X149977843Y-82267658D01*
X149784413Y-82138412D01*
X149569485Y-82049386D01*
X149341318Y-82004000D01*
X149108682Y-82004000D01*
X148880515Y-82049386D01*
X148665587Y-82138412D01*
X148472157Y-82267658D01*
X148307658Y-82432157D01*
X148178412Y-82625587D01*
X148089386Y-82840515D01*
X148044000Y-83068682D01*
X147866000Y-83068682D01*
X147820614Y-82840515D01*
X147731588Y-82625587D01*
X147602342Y-82432157D01*
X147437843Y-82267658D01*
X147244413Y-82138412D01*
X147029485Y-82049386D01*
X146801318Y-82004000D01*
X146568682Y-82004000D01*
X146340515Y-82049386D01*
X146125587Y-82138412D01*
X145932157Y-82267658D01*
X145767658Y-82432157D01*
X145638412Y-82625587D01*
X145549386Y-82840515D01*
X145504000Y-83068682D01*
X145326000Y-83068682D01*
X145280614Y-82840515D01*
X145191588Y-82625587D01*
X145062342Y-82432157D01*
X144897843Y-82267658D01*
X144704413Y-82138412D01*
X144489485Y-82049386D01*
X144261318Y-82004000D01*
X144028682Y-82004000D01*
X143800515Y-82049386D01*
X143585587Y-82138412D01*
X143392157Y-82267658D01*
X143227658Y-82432157D01*
X143098412Y-82625587D01*
X143009386Y-82840515D01*
X142964000Y-83068682D01*
X142786000Y-83068682D01*
X142740614Y-82840515D01*
X142651588Y-82625587D01*
X142522342Y-82432157D01*
X142357843Y-82267658D01*
X142164413Y-82138412D01*
X141949485Y-82049386D01*
X141721318Y-82004000D01*
X141488682Y-82004000D01*
X141260515Y-82049386D01*
X141045587Y-82138412D01*
X140852157Y-82267658D01*
X140687658Y-82432157D01*
X140558412Y-82625587D01*
X140469386Y-82840515D01*
X140424000Y-83068682D01*
X140246000Y-83068682D01*
X140200614Y-82840515D01*
X140111588Y-82625587D01*
X139982342Y-82432157D01*
X139817843Y-82267658D01*
X139624413Y-82138412D01*
X139409485Y-82049386D01*
X139181318Y-82004000D01*
X138948682Y-82004000D01*
X138720515Y-82049386D01*
X138505587Y-82138412D01*
X138312157Y-82267658D01*
X138147658Y-82432157D01*
X138018412Y-82625587D01*
X137929386Y-82840515D01*
X137884000Y-83068682D01*
X137706000Y-83068682D01*
X137660614Y-82840515D01*
X137571588Y-82625587D01*
X137442342Y-82432157D01*
X137277843Y-82267658D01*
X137084413Y-82138412D01*
X136869485Y-82049386D01*
X136641318Y-82004000D01*
X136408682Y-82004000D01*
X136180515Y-82049386D01*
X135965587Y-82138412D01*
X135772157Y-82267658D01*
X135607658Y-82432157D01*
X135478412Y-82625587D01*
X135389386Y-82840515D01*
X135344000Y-83068682D01*
X132626000Y-83068682D01*
X132587650Y-82875885D01*
X132845165Y-82875885D01*
X132906092Y-83058000D01*
X133858000Y-83058000D01*
X133858000Y-82106703D01*
X134112000Y-82106703D01*
X134112000Y-83058000D01*
X135063908Y-83058000D01*
X135124835Y-82875885D01*
X135042628Y-82659454D01*
X134919777Y-82463219D01*
X134761003Y-82294722D01*
X134572408Y-82160438D01*
X134361239Y-82065527D01*
X134294114Y-82045171D01*
X134112000Y-82106703D01*
X133858000Y-82106703D01*
X133675886Y-82045171D01*
X133608761Y-82065527D01*
X133397592Y-82160438D01*
X133208997Y-82294722D01*
X133050223Y-82463219D01*
X132927372Y-82659454D01*
X132845165Y-82875885D01*
X132587650Y-82875885D01*
X132580614Y-82840515D01*
X132491588Y-82625587D01*
X132362342Y-82432157D01*
X132197843Y-82267658D01*
X132004413Y-82138412D01*
X131789485Y-82049386D01*
X131561318Y-82004000D01*
X131328682Y-82004000D01*
X131100515Y-82049386D01*
X130885587Y-82138412D01*
X130692157Y-82267658D01*
X130527658Y-82432157D01*
X130398412Y-82625587D01*
X130309386Y-82840515D01*
X130264000Y-83068682D01*
X130086000Y-83068682D01*
X130040614Y-82840515D01*
X129951588Y-82625587D01*
X129822342Y-82432157D01*
X129657843Y-82267658D01*
X129464413Y-82138412D01*
X129249485Y-82049386D01*
X129021318Y-82004000D01*
X128788682Y-82004000D01*
X128560515Y-82049386D01*
X128345587Y-82138412D01*
X128152157Y-82267658D01*
X127987658Y-82432157D01*
X127858412Y-82625587D01*
X127769386Y-82840515D01*
X127724000Y-83068682D01*
X127546000Y-83068682D01*
X127500614Y-82840515D01*
X127411588Y-82625587D01*
X127282342Y-82432157D01*
X127117843Y-82267658D01*
X126924413Y-82138412D01*
X126709485Y-82049386D01*
X126481318Y-82004000D01*
X126248682Y-82004000D01*
X126020515Y-82049386D01*
X125805587Y-82138412D01*
X125612157Y-82267658D01*
X125447658Y-82432157D01*
X125318412Y-82625587D01*
X125229386Y-82840515D01*
X125184000Y-83068682D01*
X125006000Y-83068682D01*
X124960614Y-82840515D01*
X124871588Y-82625587D01*
X124742342Y-82432157D01*
X124577843Y-82267658D01*
X124384413Y-82138412D01*
X124169485Y-82049386D01*
X123941318Y-82004000D01*
X123708682Y-82004000D01*
X123480515Y-82049386D01*
X123265587Y-82138412D01*
X123072157Y-82267658D01*
X122907658Y-82432157D01*
X122778412Y-82625587D01*
X122689386Y-82840515D01*
X122644000Y-83068682D01*
X122466000Y-83068682D01*
X122420614Y-82840515D01*
X122331588Y-82625587D01*
X122202342Y-82432157D01*
X122037843Y-82267658D01*
X121844413Y-82138412D01*
X121629485Y-82049386D01*
X121401318Y-82004000D01*
X121168682Y-82004000D01*
X120940515Y-82049386D01*
X120725587Y-82138412D01*
X120532157Y-82267658D01*
X120367658Y-82432157D01*
X120238412Y-82625587D01*
X120149386Y-82840515D01*
X120104000Y-83068682D01*
X119926000Y-83068682D01*
X119880614Y-82840515D01*
X119791588Y-82625587D01*
X119662342Y-82432157D01*
X119497843Y-82267658D01*
X119304413Y-82138412D01*
X119089485Y-82049386D01*
X118861318Y-82004000D01*
X118628682Y-82004000D01*
X118400515Y-82049386D01*
X118185587Y-82138412D01*
X117992157Y-82267658D01*
X117827658Y-82432157D01*
X117698412Y-82625587D01*
X117609386Y-82840515D01*
X117564000Y-83068682D01*
X117386000Y-83068682D01*
X117340614Y-82840515D01*
X117251588Y-82625587D01*
X117122342Y-82432157D01*
X116957843Y-82267658D01*
X116764413Y-82138412D01*
X116549485Y-82049386D01*
X116321318Y-82004000D01*
X116088682Y-82004000D01*
X115860515Y-82049386D01*
X115645587Y-82138412D01*
X115452157Y-82267658D01*
X115287658Y-82432157D01*
X115158412Y-82625587D01*
X115069386Y-82840515D01*
X115024000Y-83068682D01*
X114846000Y-83068682D01*
X114800614Y-82840515D01*
X114711588Y-82625587D01*
X114582342Y-82432157D01*
X114417843Y-82267658D01*
X114224413Y-82138412D01*
X114009485Y-82049386D01*
X113781318Y-82004000D01*
X113548682Y-82004000D01*
X113320515Y-82049386D01*
X113105587Y-82138412D01*
X112912157Y-82267658D01*
X112747658Y-82432157D01*
X112618412Y-82625587D01*
X112529386Y-82840515D01*
X112484000Y-83068682D01*
X112306000Y-83068682D01*
X112260614Y-82840515D01*
X112171588Y-82625587D01*
X112042342Y-82432157D01*
X111877843Y-82267658D01*
X111684413Y-82138412D01*
X111469485Y-82049386D01*
X111241318Y-82004000D01*
X111008682Y-82004000D01*
X110780515Y-82049386D01*
X110565587Y-82138412D01*
X110372157Y-82267658D01*
X110207658Y-82432157D01*
X110078412Y-82625587D01*
X109989386Y-82840515D01*
X109944000Y-83068682D01*
X109766000Y-83068682D01*
X109720614Y-82840515D01*
X109631588Y-82625587D01*
X109502342Y-82432157D01*
X109337843Y-82267658D01*
X109144413Y-82138412D01*
X108929485Y-82049386D01*
X108701318Y-82004000D01*
X108468682Y-82004000D01*
X108240515Y-82049386D01*
X108025587Y-82138412D01*
X107832157Y-82267658D01*
X107667658Y-82432157D01*
X107538412Y-82625587D01*
X107449386Y-82840515D01*
X107404000Y-83068682D01*
X107226000Y-83068682D01*
X107180614Y-82840515D01*
X107091588Y-82625587D01*
X106962342Y-82432157D01*
X106797843Y-82267658D01*
X106604413Y-82138412D01*
X106389485Y-82049386D01*
X106161318Y-82004000D01*
X105928682Y-82004000D01*
X105700515Y-82049386D01*
X105485587Y-82138412D01*
X105292157Y-82267658D01*
X105127658Y-82432157D01*
X104998412Y-82625587D01*
X104909386Y-82840515D01*
X104864000Y-83068682D01*
X104686000Y-83068682D01*
X104640614Y-82840515D01*
X104551588Y-82625587D01*
X104422342Y-82432157D01*
X104257843Y-82267658D01*
X104064413Y-82138412D01*
X104011000Y-82116288D01*
X104011000Y-80854591D01*
X104349592Y-80516000D01*
X162127905Y-80516000D01*
X161869905Y-80774000D01*
X105232079Y-80774000D01*
X105209112Y-80751033D01*
X105097574Y-80676506D01*
X104973640Y-80625171D01*
X104842073Y-80599000D01*
X104707927Y-80599000D01*
X104576360Y-80625171D01*
X104452426Y-80676506D01*
X104340888Y-80751033D01*
X104246033Y-80845888D01*
X104171506Y-80957426D01*
X104120171Y-81081360D01*
X104094000Y-81212927D01*
X104094000Y-81347073D01*
X104120171Y-81478640D01*
X104171506Y-81602574D01*
X104246033Y-81714112D01*
X104340888Y-81808967D01*
X104452426Y-81883494D01*
X104576360Y-81934829D01*
X104707927Y-81961000D01*
X104842073Y-81961000D01*
X104973640Y-81934829D01*
X105097574Y-81883494D01*
X105209112Y-81808967D01*
X105232079Y-81786000D01*
X162054650Y-81786000D01*
X162079496Y-81788447D01*
X162104342Y-81786000D01*
X162104350Y-81786000D01*
X162178689Y-81778678D01*
X162274071Y-81749745D01*
X162361975Y-81702759D01*
X162439023Y-81639527D01*
X162454872Y-81620215D01*
X163340668Y-80734419D01*
X163302171Y-80827360D01*
X163276000Y-80958927D01*
X163276000Y-81093073D01*
X163302171Y-81224640D01*
X163353506Y-81348574D01*
X163367363Y-81369313D01*
X163325573Y-81361000D01*
X163191427Y-81361000D01*
X163059860Y-81387171D01*
X162935926Y-81438506D01*
X162824388Y-81513033D01*
X162729533Y-81607888D01*
X162655006Y-81719426D01*
X162603671Y-81843360D01*
X162577500Y-81974927D01*
X162577500Y-82109073D01*
X162598500Y-82214642D01*
X162484413Y-82138412D01*
X162269485Y-82049386D01*
X162041318Y-82004000D01*
X161808682Y-82004000D01*
X161580515Y-82049386D01*
X161365587Y-82138412D01*
X161172157Y-82267658D01*
X161007658Y-82432157D01*
X160878412Y-82625587D01*
X160789386Y-82840515D01*
X160744000Y-83068682D01*
X160744000Y-83301318D01*
X160789386Y-83529485D01*
X160878412Y-83744413D01*
X161007658Y-83937843D01*
X161172157Y-84102342D01*
X161294000Y-84183755D01*
X161294001Y-84542157D01*
X161125000Y-84542157D01*
X161050311Y-84549513D01*
X160978492Y-84571299D01*
X160912304Y-84606678D01*
X160854289Y-84654289D01*
X160806678Y-84712304D01*
X160771299Y-84778492D01*
X160749513Y-84850311D01*
X160742157Y-84925000D01*
X160742157Y-86525000D01*
X160749513Y-86599689D01*
X160771299Y-86671508D01*
X160806678Y-86737696D01*
X160854289Y-86795711D01*
X160912304Y-86843322D01*
X160978492Y-86878701D01*
X161050311Y-86900487D01*
X161125000Y-86907843D01*
X162725000Y-86907843D01*
X162799689Y-86900487D01*
X162871508Y-86878701D01*
X162937696Y-86843322D01*
X162995711Y-86795711D01*
X163043322Y-86737696D01*
X163078701Y-86671508D01*
X163100487Y-86599689D01*
X163107843Y-86525000D01*
X163107843Y-84925000D01*
X163100487Y-84850311D01*
X163078701Y-84778492D01*
X163043322Y-84712304D01*
X162995711Y-84654289D01*
X162937696Y-84606678D01*
X162871508Y-84571299D01*
X162799689Y-84549513D01*
X162725000Y-84542157D01*
X162556000Y-84542157D01*
X162556000Y-84183755D01*
X162677843Y-84102342D01*
X162842342Y-83937843D01*
X162971588Y-83744413D01*
X163060614Y-83529485D01*
X163106000Y-83301318D01*
X163106000Y-83068682D01*
X163060614Y-82840515D01*
X162988927Y-82667448D01*
X163059860Y-82696829D01*
X163191427Y-82723000D01*
X163325573Y-82723000D01*
X163457140Y-82696829D01*
X163581074Y-82645494D01*
X163692563Y-82571000D01*
X165726688Y-82571000D01*
X165706181Y-82591507D01*
X165626721Y-82695060D01*
X165576989Y-82781198D01*
X165527039Y-82901788D01*
X165501296Y-82997860D01*
X165484259Y-83127270D01*
X165481000Y-83177000D01*
X165481000Y-84463000D01*
X165484259Y-84512730D01*
X165501296Y-84642140D01*
X165527039Y-84738212D01*
X165576989Y-84858802D01*
X165626721Y-84944940D01*
X165706181Y-85048493D01*
X165776507Y-85118819D01*
X165880060Y-85198279D01*
X165966198Y-85248011D01*
X166086788Y-85297961D01*
X166182860Y-85323704D01*
X166312270Y-85340741D01*
X166362000Y-85344000D01*
X169553000Y-85344000D01*
X169602730Y-85340741D01*
X169732140Y-85323704D01*
X169828212Y-85297961D01*
X169948802Y-85248011D01*
X170034940Y-85198279D01*
X170138493Y-85118819D01*
X170208819Y-85048493D01*
X170288279Y-84944940D01*
X170338011Y-84858802D01*
X170387961Y-84738212D01*
X170413704Y-84642140D01*
X170430741Y-84512730D01*
X170434000Y-84463000D01*
X170434000Y-66413000D01*
X170430741Y-66363270D01*
X170413704Y-66233860D01*
X170387961Y-66137788D01*
X170338011Y-66017198D01*
X170288279Y-65931060D01*
X170208819Y-65827507D01*
X170138493Y-65757181D01*
X170034940Y-65677721D01*
X169948802Y-65627989D01*
X169828212Y-65578039D01*
X169732140Y-65552296D01*
X169602730Y-65535259D01*
X169553000Y-65532000D01*
X168799975Y-65532000D01*
X168745048Y-65524769D01*
X168717145Y-65513211D01*
X168693179Y-65494821D01*
X168674789Y-65470855D01*
X168663231Y-65442952D01*
X168656000Y-65388025D01*
X168656000Y-64000000D01*
X168652741Y-63950270D01*
X168635704Y-63820860D01*
X168609961Y-63724788D01*
X168560011Y-63604198D01*
X168510279Y-63518060D01*
X168430819Y-63414507D01*
X168360493Y-63344181D01*
X168256940Y-63264721D01*
X168170802Y-63214989D01*
X168050212Y-63165039D01*
X167954140Y-63139296D01*
X167824730Y-63122259D01*
X167775000Y-63119000D01*
X115308000Y-63119000D01*
X115258270Y-63122259D01*
X115128860Y-63139296D01*
X115032788Y-63165039D01*
X114912198Y-63214989D01*
X114826060Y-63264721D01*
X114722507Y-63344181D01*
X114652181Y-63414507D01*
X114572721Y-63518060D01*
X114522989Y-63604198D01*
X114473039Y-63724788D01*
X114447296Y-63820860D01*
X114430259Y-63950270D01*
X114427000Y-64000000D01*
X114427000Y-67036815D01*
X114417843Y-67027658D01*
X114224413Y-66898412D01*
X114009485Y-66809386D01*
X113781318Y-66764000D01*
X113548682Y-66764000D01*
X113320515Y-66809386D01*
X113105587Y-66898412D01*
X112912157Y-67027658D01*
X112747658Y-67192157D01*
X112618412Y-67385587D01*
X112529386Y-67600515D01*
X112484000Y-67828682D01*
X112484000Y-68061318D01*
X112529386Y-68289485D01*
X112618412Y-68504413D01*
X112747658Y-68697843D01*
X112912157Y-68862342D01*
X113034000Y-68943755D01*
X113034001Y-69486245D01*
X112912157Y-69567658D01*
X112747658Y-69732157D01*
X112618412Y-69925587D01*
X112529386Y-70140515D01*
X112484000Y-70368682D01*
X112484000Y-70601318D01*
X112529386Y-70829485D01*
X112618412Y-71044413D01*
X112747658Y-71237843D01*
X112912157Y-71402342D01*
X113105587Y-71531588D01*
X113320515Y-71620614D01*
X113548682Y-71666000D01*
X113781318Y-71666000D01*
X114009485Y-71620614D01*
X114224413Y-71531588D01*
X114417843Y-71402342D01*
X114427688Y-71392497D01*
X114430259Y-71431730D01*
X114447296Y-71561140D01*
X114473039Y-71657212D01*
X114522989Y-71777802D01*
X114572721Y-71863940D01*
X114652181Y-71967493D01*
X114722507Y-72037819D01*
X114826060Y-72117279D01*
X114912198Y-72167011D01*
X115032788Y-72216961D01*
X115128860Y-72242704D01*
X115258270Y-72259741D01*
X115308000Y-72263000D01*
X117102000Y-72263000D01*
X117151730Y-72259741D01*
X117281140Y-72242704D01*
X117377212Y-72216961D01*
X117497802Y-72167011D01*
X117583940Y-72117279D01*
X117687493Y-72037819D01*
X117757819Y-71967493D01*
X117837279Y-71863940D01*
X117887011Y-71777802D01*
X117936961Y-71657212D01*
X117962704Y-71561140D01*
X117979741Y-71431730D01*
X117982312Y-71392497D01*
X117992157Y-71402342D01*
X118185587Y-71531588D01*
X118400515Y-71620614D01*
X118628682Y-71666000D01*
X118861318Y-71666000D01*
X119089485Y-71620614D01*
X119304413Y-71531588D01*
X119497843Y-71402342D01*
X119662342Y-71237843D01*
X119791588Y-71044413D01*
X119880614Y-70829485D01*
X119926000Y-70601318D01*
X119926000Y-70368682D01*
X119880614Y-70140515D01*
X119791588Y-69925587D01*
X119662342Y-69732157D01*
X119497843Y-69567658D01*
X119376000Y-69486245D01*
X119376000Y-68943755D01*
X119497843Y-68862342D01*
X119662342Y-68697843D01*
X119791588Y-68504413D01*
X119880614Y-68289485D01*
X119926000Y-68061318D01*
X119926000Y-67828682D01*
X119880614Y-67600515D01*
X119791588Y-67385587D01*
X119662342Y-67192157D01*
X119497843Y-67027658D01*
X119304413Y-66898412D01*
X119089485Y-66809386D01*
X118861318Y-66764000D01*
X118628682Y-66764000D01*
X118400515Y-66809386D01*
X118185587Y-66898412D01*
X117992157Y-67027658D01*
X117983000Y-67036815D01*
X117983000Y-65294975D01*
X117990231Y-65240048D01*
X118001789Y-65212145D01*
X118020179Y-65188179D01*
X118044145Y-65169789D01*
X118072048Y-65158231D01*
X118126975Y-65151000D01*
X166353025Y-65151000D01*
X166407952Y-65158231D01*
X166435855Y-65169789D01*
X166459821Y-65188179D01*
X166478211Y-65212145D01*
X166489769Y-65240048D01*
X166497000Y-65294975D01*
X166497000Y-65921000D01*
X166500259Y-65970730D01*
X166517296Y-66100140D01*
X166543039Y-66196212D01*
X166592989Y-66316802D01*
X166633642Y-66387215D01*
X166610311Y-66389513D01*
X166538492Y-66411299D01*
X166472304Y-66446678D01*
X166414289Y-66494289D01*
X166366678Y-66552304D01*
X166331299Y-66618492D01*
X166309513Y-66690311D01*
X166302157Y-66765000D01*
X166304000Y-66842750D01*
X166399250Y-66938000D01*
X167558000Y-66938000D01*
X167558000Y-66918000D01*
X167812000Y-66918000D01*
X167812000Y-66938000D01*
X167832000Y-66938000D01*
X167832000Y-67192000D01*
X167812000Y-67192000D01*
X167812000Y-67938000D01*
X167832000Y-67938000D01*
X167832000Y-68192000D01*
X167812000Y-68192000D01*
X167812000Y-68212000D01*
X167558000Y-68212000D01*
X167558000Y-68192000D01*
X166399250Y-68192000D01*
X166304000Y-68287250D01*
X166302157Y-68365000D01*
X166309513Y-68439689D01*
X166331299Y-68511508D01*
X166356685Y-68559000D01*
X165554856Y-68559000D01*
X165530002Y-68556552D01*
X165505148Y-68559000D01*
X165430809Y-68566322D01*
X165335427Y-68595255D01*
X165247523Y-68642241D01*
X165170475Y-68705473D01*
X165154630Y-68724780D01*
X163107843Y-70771568D01*
X163107843Y-69685000D01*
X163100487Y-69610311D01*
X163078701Y-69538492D01*
X163043322Y-69472304D01*
X162995711Y-69414289D01*
X162937696Y-69366678D01*
X162871508Y-69331299D01*
X162799689Y-69309513D01*
X162725000Y-69302157D01*
X162556000Y-69302157D01*
X162556000Y-69127843D01*
X162725000Y-69127843D01*
X162799689Y-69120487D01*
X162871508Y-69098701D01*
X162937696Y-69063322D01*
X162995711Y-69015711D01*
X163043322Y-68957696D01*
X163078701Y-68891508D01*
X163100487Y-68819689D01*
X163107843Y-68745000D01*
X163107843Y-67365000D01*
X166302157Y-67365000D01*
X166309513Y-67439689D01*
X166331299Y-67511508D01*
X166359892Y-67565000D01*
X166331299Y-67618492D01*
X166309513Y-67690311D01*
X166302157Y-67765000D01*
X166304000Y-67842750D01*
X166399250Y-67938000D01*
X167558000Y-67938000D01*
X167558000Y-67192000D01*
X166399250Y-67192000D01*
X166304000Y-67287250D01*
X166302157Y-67365000D01*
X163107843Y-67365000D01*
X163107843Y-67145000D01*
X163100487Y-67070311D01*
X163078701Y-66998492D01*
X163043322Y-66932304D01*
X162995711Y-66874289D01*
X162937696Y-66826678D01*
X162871508Y-66791299D01*
X162799689Y-66769513D01*
X162725000Y-66762157D01*
X161125000Y-66762157D01*
X161050311Y-66769513D01*
X160978492Y-66791299D01*
X160912304Y-66826678D01*
X160854289Y-66874289D01*
X160806678Y-66932304D01*
X160771299Y-66998492D01*
X160749513Y-67070311D01*
X160742157Y-67145000D01*
X160742157Y-68745000D01*
X160749513Y-68819689D01*
X160771299Y-68891508D01*
X160806678Y-68957696D01*
X160854289Y-69015711D01*
X160912304Y-69063322D01*
X160978492Y-69098701D01*
X161050311Y-69120487D01*
X161125000Y-69127843D01*
X161294000Y-69127843D01*
X161294001Y-69302157D01*
X161125000Y-69302157D01*
X161050311Y-69309513D01*
X160978492Y-69331299D01*
X160912304Y-69366678D01*
X160854289Y-69414289D01*
X160806678Y-69472304D01*
X160771299Y-69538492D01*
X160749513Y-69610311D01*
X160742157Y-69685000D01*
X160742157Y-71285000D01*
X160749513Y-71359689D01*
X160771299Y-71431508D01*
X160806678Y-71497696D01*
X160811031Y-71503000D01*
X159987198Y-71503000D01*
X160137843Y-71402342D01*
X160302342Y-71237843D01*
X160431588Y-71044413D01*
X160520614Y-70829485D01*
X160566000Y-70601318D01*
X160566000Y-70368682D01*
X160520614Y-70140515D01*
X160431588Y-69925587D01*
X160302342Y-69732157D01*
X160137843Y-69567658D01*
X160016000Y-69486245D01*
X160016000Y-68943755D01*
X160137843Y-68862342D01*
X160302342Y-68697843D01*
X160431588Y-68504413D01*
X160520614Y-68289485D01*
X160566000Y-68061318D01*
X160566000Y-67828682D01*
X160520614Y-67600515D01*
X160431588Y-67385587D01*
X160302342Y-67192157D01*
X160137843Y-67027658D01*
X159944413Y-66898412D01*
X159729485Y-66809386D01*
X159501318Y-66764000D01*
X159268682Y-66764000D01*
X159040515Y-66809386D01*
X158825587Y-66898412D01*
X158632157Y-67027658D01*
X158467658Y-67192157D01*
X158338412Y-67385587D01*
X158249386Y-67600515D01*
X158204000Y-67828682D01*
X158204000Y-68061318D01*
X158249386Y-68289485D01*
X158338412Y-68504413D01*
X158467658Y-68697843D01*
X158632157Y-68862342D01*
X158754000Y-68943755D01*
X158754001Y-69486245D01*
X158632157Y-69567658D01*
X158467658Y-69732157D01*
X158338412Y-69925587D01*
X158249386Y-70140515D01*
X158204000Y-70368682D01*
X158204000Y-70601318D01*
X158249386Y-70829485D01*
X158338412Y-71044413D01*
X158467658Y-71237843D01*
X158632157Y-71402342D01*
X158782802Y-71503000D01*
X157447198Y-71503000D01*
X157597843Y-71402342D01*
X157762342Y-71237843D01*
X157891588Y-71044413D01*
X157980614Y-70829485D01*
X158026000Y-70601318D01*
X158026000Y-70368682D01*
X157980614Y-70140515D01*
X157891588Y-69925587D01*
X157762342Y-69732157D01*
X157597843Y-69567658D01*
X157476000Y-69486245D01*
X157476000Y-68943755D01*
X157597843Y-68862342D01*
X157762342Y-68697843D01*
X157891588Y-68504413D01*
X157980614Y-68289485D01*
X158026000Y-68061318D01*
X158026000Y-67828682D01*
X157980614Y-67600515D01*
X157891588Y-67385587D01*
X157762342Y-67192157D01*
X157597843Y-67027658D01*
X157404413Y-66898412D01*
X157189485Y-66809386D01*
X156961318Y-66764000D01*
X156728682Y-66764000D01*
X156500515Y-66809386D01*
X156285587Y-66898412D01*
X156092157Y-67027658D01*
X155927658Y-67192157D01*
X155798412Y-67385587D01*
X155709386Y-67600515D01*
X155664000Y-67828682D01*
X155664000Y-68061318D01*
X155709386Y-68289485D01*
X155798412Y-68504413D01*
X155927658Y-68697843D01*
X156092157Y-68862342D01*
X156214000Y-68943755D01*
X156214001Y-69486245D01*
X156092157Y-69567658D01*
X155927658Y-69732157D01*
X155798412Y-69925587D01*
X155709386Y-70140515D01*
X155664000Y-70368682D01*
X155664000Y-70601318D01*
X155709386Y-70829485D01*
X155798412Y-71044413D01*
X155927658Y-71237843D01*
X156092157Y-71402342D01*
X156242802Y-71503000D01*
X154907198Y-71503000D01*
X155057843Y-71402342D01*
X155222342Y-71237843D01*
X155351588Y-71044413D01*
X155440614Y-70829485D01*
X155486000Y-70601318D01*
X155486000Y-70368682D01*
X155440614Y-70140515D01*
X155351588Y-69925587D01*
X155222342Y-69732157D01*
X155057843Y-69567658D01*
X154936000Y-69486245D01*
X154936000Y-68943755D01*
X155057843Y-68862342D01*
X155222342Y-68697843D01*
X155351588Y-68504413D01*
X155440614Y-68289485D01*
X155486000Y-68061318D01*
X155486000Y-67828682D01*
X155440614Y-67600515D01*
X155351588Y-67385587D01*
X155222342Y-67192157D01*
X155057843Y-67027658D01*
X154864413Y-66898412D01*
X154649485Y-66809386D01*
X154421318Y-66764000D01*
X154188682Y-66764000D01*
X153960515Y-66809386D01*
X153745587Y-66898412D01*
X153552157Y-67027658D01*
X153387658Y-67192157D01*
X153258412Y-67385587D01*
X153169386Y-67600515D01*
X153124000Y-67828682D01*
X153124000Y-68061318D01*
X153169386Y-68289485D01*
X153258412Y-68504413D01*
X153387658Y-68697843D01*
X153552157Y-68862342D01*
X153674000Y-68943755D01*
X153674001Y-69486245D01*
X153552157Y-69567658D01*
X153387658Y-69732157D01*
X153258412Y-69925587D01*
X153169386Y-70140515D01*
X153124000Y-70368682D01*
X153124000Y-70601318D01*
X153169386Y-70829485D01*
X153258412Y-71044413D01*
X153387658Y-71237843D01*
X153552157Y-71402342D01*
X153702802Y-71503000D01*
X152367198Y-71503000D01*
X152517843Y-71402342D01*
X152682342Y-71237843D01*
X152811588Y-71044413D01*
X152900614Y-70829485D01*
X152946000Y-70601318D01*
X152946000Y-70368682D01*
X152900614Y-70140515D01*
X152811588Y-69925587D01*
X152682342Y-69732157D01*
X152517843Y-69567658D01*
X152396000Y-69486245D01*
X152396000Y-68943755D01*
X152517843Y-68862342D01*
X152682342Y-68697843D01*
X152811588Y-68504413D01*
X152900614Y-68289485D01*
X152946000Y-68061318D01*
X152946000Y-67828682D01*
X152900614Y-67600515D01*
X152811588Y-67385587D01*
X152682342Y-67192157D01*
X152517843Y-67027658D01*
X152324413Y-66898412D01*
X152109485Y-66809386D01*
X151881318Y-66764000D01*
X151648682Y-66764000D01*
X151420515Y-66809386D01*
X151205587Y-66898412D01*
X151012157Y-67027658D01*
X150847658Y-67192157D01*
X150718412Y-67385587D01*
X150629386Y-67600515D01*
X150584000Y-67828682D01*
X150584000Y-68061318D01*
X150629386Y-68289485D01*
X150718412Y-68504413D01*
X150847658Y-68697843D01*
X151012157Y-68862342D01*
X151134000Y-68943755D01*
X151134001Y-69486245D01*
X151012157Y-69567658D01*
X150847658Y-69732157D01*
X150718412Y-69925587D01*
X150629386Y-70140515D01*
X150584000Y-70368682D01*
X150584000Y-70601318D01*
X150629386Y-70829485D01*
X150718412Y-71044413D01*
X150847658Y-71237843D01*
X151012157Y-71402342D01*
X151162802Y-71503000D01*
X149827198Y-71503000D01*
X149977843Y-71402342D01*
X150142342Y-71237843D01*
X150271588Y-71044413D01*
X150360614Y-70829485D01*
X150406000Y-70601318D01*
X150406000Y-70368682D01*
X150360614Y-70140515D01*
X150271588Y-69925587D01*
X150142342Y-69732157D01*
X149977843Y-69567658D01*
X149856000Y-69486245D01*
X149856000Y-68943755D01*
X149977843Y-68862342D01*
X150142342Y-68697843D01*
X150271588Y-68504413D01*
X150360614Y-68289485D01*
X150406000Y-68061318D01*
X150406000Y-67828682D01*
X150360614Y-67600515D01*
X150271588Y-67385587D01*
X150142342Y-67192157D01*
X149977843Y-67027658D01*
X149784413Y-66898412D01*
X149569485Y-66809386D01*
X149341318Y-66764000D01*
X149108682Y-66764000D01*
X148880515Y-66809386D01*
X148665587Y-66898412D01*
X148472157Y-67027658D01*
X148307658Y-67192157D01*
X148178412Y-67385587D01*
X148089386Y-67600515D01*
X148044000Y-67828682D01*
X148044000Y-68061318D01*
X148089386Y-68289485D01*
X148178412Y-68504413D01*
X148307658Y-68697843D01*
X148472157Y-68862342D01*
X148594000Y-68943755D01*
X148594001Y-69486245D01*
X148472157Y-69567658D01*
X148307658Y-69732157D01*
X148178412Y-69925587D01*
X148089386Y-70140515D01*
X148044000Y-70368682D01*
X148044000Y-70601318D01*
X148089386Y-70829485D01*
X148178412Y-71044413D01*
X148307658Y-71237843D01*
X148472157Y-71402342D01*
X148622802Y-71503000D01*
X147287198Y-71503000D01*
X147437843Y-71402342D01*
X147602342Y-71237843D01*
X147731588Y-71044413D01*
X147820614Y-70829485D01*
X147866000Y-70601318D01*
X147866000Y-70368682D01*
X147820614Y-70140515D01*
X147731588Y-69925587D01*
X147602342Y-69732157D01*
X147437843Y-69567658D01*
X147316000Y-69486245D01*
X147316000Y-68943755D01*
X147437843Y-68862342D01*
X147602342Y-68697843D01*
X147731588Y-68504413D01*
X147820614Y-68289485D01*
X147866000Y-68061318D01*
X147866000Y-67828682D01*
X147820614Y-67600515D01*
X147731588Y-67385587D01*
X147602342Y-67192157D01*
X147437843Y-67027658D01*
X147244413Y-66898412D01*
X147029485Y-66809386D01*
X146801318Y-66764000D01*
X146568682Y-66764000D01*
X146340515Y-66809386D01*
X146125587Y-66898412D01*
X145932157Y-67027658D01*
X145767658Y-67192157D01*
X145638412Y-67385587D01*
X145549386Y-67600515D01*
X145504000Y-67828682D01*
X145504000Y-68061318D01*
X145549386Y-68289485D01*
X145638412Y-68504413D01*
X145767658Y-68697843D01*
X145932157Y-68862342D01*
X146054000Y-68943755D01*
X146054001Y-69486245D01*
X145932157Y-69567658D01*
X145767658Y-69732157D01*
X145638412Y-69925587D01*
X145549386Y-70140515D01*
X145504000Y-70368682D01*
X145504000Y-70601318D01*
X145549386Y-70829485D01*
X145638412Y-71044413D01*
X145767658Y-71237843D01*
X145932157Y-71402342D01*
X146082802Y-71503000D01*
X144747198Y-71503000D01*
X144897843Y-71402342D01*
X145062342Y-71237843D01*
X145191588Y-71044413D01*
X145280614Y-70829485D01*
X145326000Y-70601318D01*
X145326000Y-70368682D01*
X145280614Y-70140515D01*
X145191588Y-69925587D01*
X145062342Y-69732157D01*
X144897843Y-69567658D01*
X144776000Y-69486245D01*
X144776000Y-68943755D01*
X144897843Y-68862342D01*
X145062342Y-68697843D01*
X145191588Y-68504413D01*
X145280614Y-68289485D01*
X145326000Y-68061318D01*
X145326000Y-67828682D01*
X145280614Y-67600515D01*
X145191588Y-67385587D01*
X145062342Y-67192157D01*
X144897843Y-67027658D01*
X144704413Y-66898412D01*
X144489485Y-66809386D01*
X144261318Y-66764000D01*
X144028682Y-66764000D01*
X143800515Y-66809386D01*
X143585587Y-66898412D01*
X143392157Y-67027658D01*
X143227658Y-67192157D01*
X143098412Y-67385587D01*
X143009386Y-67600515D01*
X142964000Y-67828682D01*
X142964000Y-68061318D01*
X143009386Y-68289485D01*
X143098412Y-68504413D01*
X143227658Y-68697843D01*
X143392157Y-68862342D01*
X143514000Y-68943755D01*
X143514001Y-69486245D01*
X143392157Y-69567658D01*
X143227658Y-69732157D01*
X143098412Y-69925587D01*
X143009386Y-70140515D01*
X142964000Y-70368682D01*
X142964000Y-70601318D01*
X143009386Y-70829485D01*
X143098412Y-71044413D01*
X143227658Y-71237843D01*
X143392157Y-71402342D01*
X143542802Y-71503000D01*
X142207198Y-71503000D01*
X142357843Y-71402342D01*
X142522342Y-71237843D01*
X142651588Y-71044413D01*
X142740614Y-70829485D01*
X142786000Y-70601318D01*
X142786000Y-70368682D01*
X142740614Y-70140515D01*
X142651588Y-69925587D01*
X142522342Y-69732157D01*
X142357843Y-69567658D01*
X142236000Y-69486245D01*
X142236000Y-68943755D01*
X142357843Y-68862342D01*
X142522342Y-68697843D01*
X142651588Y-68504413D01*
X142740614Y-68289485D01*
X142786000Y-68061318D01*
X142786000Y-67828682D01*
X142740614Y-67600515D01*
X142651588Y-67385587D01*
X142522342Y-67192157D01*
X142357843Y-67027658D01*
X142164413Y-66898412D01*
X141949485Y-66809386D01*
X141721318Y-66764000D01*
X141488682Y-66764000D01*
X141260515Y-66809386D01*
X141045587Y-66898412D01*
X140852157Y-67027658D01*
X140687658Y-67192157D01*
X140558412Y-67385587D01*
X140469386Y-67600515D01*
X140424000Y-67828682D01*
X140424000Y-68061318D01*
X140469386Y-68289485D01*
X140558412Y-68504413D01*
X140687658Y-68697843D01*
X140852157Y-68862342D01*
X140974000Y-68943755D01*
X140974001Y-69486245D01*
X140852157Y-69567658D01*
X140687658Y-69732157D01*
X140558412Y-69925587D01*
X140469386Y-70140515D01*
X140424000Y-70368682D01*
X140424000Y-70601318D01*
X140469386Y-70829485D01*
X140558412Y-71044413D01*
X140687658Y-71237843D01*
X140852157Y-71402342D01*
X141002802Y-71503000D01*
X139667198Y-71503000D01*
X139817843Y-71402342D01*
X139982342Y-71237843D01*
X140111588Y-71044413D01*
X140200614Y-70829485D01*
X140246000Y-70601318D01*
X140246000Y-70368682D01*
X140200614Y-70140515D01*
X140111588Y-69925587D01*
X139982342Y-69732157D01*
X139817843Y-69567658D01*
X139696000Y-69486245D01*
X139696000Y-68943755D01*
X139817843Y-68862342D01*
X139982342Y-68697843D01*
X140111588Y-68504413D01*
X140200614Y-68289485D01*
X140246000Y-68061318D01*
X140246000Y-67828682D01*
X140200614Y-67600515D01*
X140111588Y-67385587D01*
X139982342Y-67192157D01*
X139817843Y-67027658D01*
X139624413Y-66898412D01*
X139409485Y-66809386D01*
X139181318Y-66764000D01*
X138948682Y-66764000D01*
X138720515Y-66809386D01*
X138505587Y-66898412D01*
X138312157Y-67027658D01*
X138147658Y-67192157D01*
X138018412Y-67385587D01*
X137929386Y-67600515D01*
X137884000Y-67828682D01*
X137884000Y-68061318D01*
X137929386Y-68289485D01*
X138018412Y-68504413D01*
X138147658Y-68697843D01*
X138312157Y-68862342D01*
X138434000Y-68943755D01*
X138434001Y-69486245D01*
X138312157Y-69567658D01*
X138147658Y-69732157D01*
X138018412Y-69925587D01*
X137929386Y-70140515D01*
X137884000Y-70368682D01*
X137884000Y-70601318D01*
X137929386Y-70829485D01*
X138018412Y-71044413D01*
X138147658Y-71237843D01*
X138312157Y-71402342D01*
X138462802Y-71503000D01*
X137127198Y-71503000D01*
X137277843Y-71402342D01*
X137442342Y-71237843D01*
X137571588Y-71044413D01*
X137660614Y-70829485D01*
X137706000Y-70601318D01*
X137706000Y-70368682D01*
X137660614Y-70140515D01*
X137571588Y-69925587D01*
X137442342Y-69732157D01*
X137277843Y-69567658D01*
X137156000Y-69486245D01*
X137156000Y-68943755D01*
X137277843Y-68862342D01*
X137442342Y-68697843D01*
X137571588Y-68504413D01*
X137660614Y-68289485D01*
X137706000Y-68061318D01*
X137706000Y-67828682D01*
X137660614Y-67600515D01*
X137571588Y-67385587D01*
X137442342Y-67192157D01*
X137277843Y-67027658D01*
X137084413Y-66898412D01*
X136869485Y-66809386D01*
X136641318Y-66764000D01*
X136408682Y-66764000D01*
X136180515Y-66809386D01*
X135965587Y-66898412D01*
X135772157Y-67027658D01*
X135607658Y-67192157D01*
X135478412Y-67385587D01*
X135389386Y-67600515D01*
X135344000Y-67828682D01*
X135344000Y-68061318D01*
X135389386Y-68289485D01*
X135478412Y-68504413D01*
X135607658Y-68697843D01*
X135772157Y-68862342D01*
X135894000Y-68943755D01*
X135894001Y-69486245D01*
X135772157Y-69567658D01*
X135607658Y-69732157D01*
X135478412Y-69925587D01*
X135389386Y-70140515D01*
X135344000Y-70368682D01*
X135344000Y-70601318D01*
X135389386Y-70829485D01*
X135478412Y-71044413D01*
X135607658Y-71237843D01*
X135772157Y-71402342D01*
X135922802Y-71503000D01*
X134587198Y-71503000D01*
X134737843Y-71402342D01*
X134902342Y-71237843D01*
X135031588Y-71044413D01*
X135120614Y-70829485D01*
X135166000Y-70601318D01*
X135166000Y-70368682D01*
X135120614Y-70140515D01*
X135031588Y-69925587D01*
X134902342Y-69732157D01*
X134737843Y-69567658D01*
X134616000Y-69486245D01*
X134616000Y-68943755D01*
X134737843Y-68862342D01*
X134902342Y-68697843D01*
X135031588Y-68504413D01*
X135120614Y-68289485D01*
X135166000Y-68061318D01*
X135166000Y-67828682D01*
X135120614Y-67600515D01*
X135031588Y-67385587D01*
X134902342Y-67192157D01*
X134737843Y-67027658D01*
X134544413Y-66898412D01*
X134329485Y-66809386D01*
X134101318Y-66764000D01*
X133868682Y-66764000D01*
X133640515Y-66809386D01*
X133425587Y-66898412D01*
X133232157Y-67027658D01*
X133067658Y-67192157D01*
X132938412Y-67385587D01*
X132849386Y-67600515D01*
X132804000Y-67828682D01*
X132804000Y-68061318D01*
X132849386Y-68289485D01*
X132938412Y-68504413D01*
X133067658Y-68697843D01*
X133232157Y-68862342D01*
X133354000Y-68943755D01*
X133354001Y-69486245D01*
X133232157Y-69567658D01*
X133067658Y-69732157D01*
X132938412Y-69925587D01*
X132849386Y-70140515D01*
X132804000Y-70368682D01*
X132804000Y-70601318D01*
X132849386Y-70829485D01*
X132938412Y-71044413D01*
X133067658Y-71237843D01*
X133232157Y-71402342D01*
X133382802Y-71503000D01*
X132047198Y-71503000D01*
X132197843Y-71402342D01*
X132362342Y-71237843D01*
X132491588Y-71044413D01*
X132580614Y-70829485D01*
X132626000Y-70601318D01*
X132626000Y-70368682D01*
X132580614Y-70140515D01*
X132491588Y-69925587D01*
X132362342Y-69732157D01*
X132197843Y-69567658D01*
X132076000Y-69486245D01*
X132076000Y-69127843D01*
X132245000Y-69127843D01*
X132319689Y-69120487D01*
X132391508Y-69098701D01*
X132457696Y-69063322D01*
X132515711Y-69015711D01*
X132563322Y-68957696D01*
X132598701Y-68891508D01*
X132620487Y-68819689D01*
X132627843Y-68745000D01*
X132627843Y-67145000D01*
X132620487Y-67070311D01*
X132598701Y-66998492D01*
X132563322Y-66932304D01*
X132515711Y-66874289D01*
X132457696Y-66826678D01*
X132391508Y-66791299D01*
X132319689Y-66769513D01*
X132245000Y-66762157D01*
X130645000Y-66762157D01*
X130570311Y-66769513D01*
X130498492Y-66791299D01*
X130432304Y-66826678D01*
X130374289Y-66874289D01*
X130326678Y-66932304D01*
X130291299Y-66998492D01*
X130269513Y-67070311D01*
X130262157Y-67145000D01*
X130262157Y-68745000D01*
X130269513Y-68819689D01*
X130291299Y-68891508D01*
X130326678Y-68957696D01*
X130374289Y-69015711D01*
X130432304Y-69063322D01*
X130498492Y-69098701D01*
X130570311Y-69120487D01*
X130645000Y-69127843D01*
X130814000Y-69127843D01*
X130814001Y-69486245D01*
X130692157Y-69567658D01*
X130527658Y-69732157D01*
X130398412Y-69925587D01*
X130309386Y-70140515D01*
X130264000Y-70368682D01*
X130264000Y-70601318D01*
X130309386Y-70829485D01*
X130398412Y-71044413D01*
X130527658Y-71237843D01*
X130692157Y-71402342D01*
X130842802Y-71503000D01*
X129507198Y-71503000D01*
X129657843Y-71402342D01*
X129822342Y-71237843D01*
X129951588Y-71044413D01*
X130040614Y-70829485D01*
X130086000Y-70601318D01*
X130086000Y-70368682D01*
X130040614Y-70140515D01*
X129951588Y-69925587D01*
X129822342Y-69732157D01*
X129657843Y-69567658D01*
X129536000Y-69486245D01*
X129536000Y-68943755D01*
X129657843Y-68862342D01*
X129822342Y-68697843D01*
X129951588Y-68504413D01*
X130040614Y-68289485D01*
X130086000Y-68061318D01*
X130086000Y-67828682D01*
X130040614Y-67600515D01*
X129951588Y-67385587D01*
X129822342Y-67192157D01*
X129657843Y-67027658D01*
X129464413Y-66898412D01*
X129249485Y-66809386D01*
X129021318Y-66764000D01*
X128788682Y-66764000D01*
X128560515Y-66809386D01*
X128345587Y-66898412D01*
X128152157Y-67027658D01*
X127987658Y-67192157D01*
X127858412Y-67385587D01*
X127769386Y-67600515D01*
X127724000Y-67828682D01*
X127724000Y-68061318D01*
X127769386Y-68289485D01*
X127858412Y-68504413D01*
X127987658Y-68697843D01*
X128152157Y-68862342D01*
X128274000Y-68943755D01*
X128274001Y-69486245D01*
X128152157Y-69567658D01*
X127987658Y-69732157D01*
X127858412Y-69925587D01*
X127769386Y-70140515D01*
X127724000Y-70368682D01*
X127724000Y-70601318D01*
X127769386Y-70829485D01*
X127858412Y-71044413D01*
X127987658Y-71237843D01*
X128152157Y-71402342D01*
X128302802Y-71503000D01*
X126967198Y-71503000D01*
X127117843Y-71402342D01*
X127282342Y-71237843D01*
X127411588Y-71044413D01*
X127500614Y-70829485D01*
X127546000Y-70601318D01*
X127546000Y-70368682D01*
X127500614Y-70140515D01*
X127411588Y-69925587D01*
X127282342Y-69732157D01*
X127117843Y-69567658D01*
X126996000Y-69486245D01*
X126996000Y-68943755D01*
X127117843Y-68862342D01*
X127282342Y-68697843D01*
X127411588Y-68504413D01*
X127500614Y-68289485D01*
X127546000Y-68061318D01*
X127546000Y-67828682D01*
X127500614Y-67600515D01*
X127411588Y-67385587D01*
X127282342Y-67192157D01*
X127117843Y-67027658D01*
X126924413Y-66898412D01*
X126709485Y-66809386D01*
X126481318Y-66764000D01*
X126248682Y-66764000D01*
X126020515Y-66809386D01*
X125805587Y-66898412D01*
X125612157Y-67027658D01*
X125447658Y-67192157D01*
X125318412Y-67385587D01*
X125229386Y-67600515D01*
X125184000Y-67828682D01*
X125184000Y-68061318D01*
X125229386Y-68289485D01*
X125318412Y-68504413D01*
X125447658Y-68697843D01*
X125612157Y-68862342D01*
X125734000Y-68943755D01*
X125734001Y-69486245D01*
X125612157Y-69567658D01*
X125447658Y-69732157D01*
X125318412Y-69925587D01*
X125229386Y-70140515D01*
X125184000Y-70368682D01*
X125184000Y-70601318D01*
X125229386Y-70829485D01*
X125318412Y-71044413D01*
X125447658Y-71237843D01*
X125612157Y-71402342D01*
X125762802Y-71503000D01*
X124427198Y-71503000D01*
X124577843Y-71402342D01*
X124742342Y-71237843D01*
X124871588Y-71044413D01*
X124960614Y-70829485D01*
X125006000Y-70601318D01*
X125006000Y-70368682D01*
X124960614Y-70140515D01*
X124871588Y-69925587D01*
X124742342Y-69732157D01*
X124577843Y-69567658D01*
X124456000Y-69486245D01*
X124456000Y-68943755D01*
X124577843Y-68862342D01*
X124742342Y-68697843D01*
X124871588Y-68504413D01*
X124960614Y-68289485D01*
X125006000Y-68061318D01*
X125006000Y-67828682D01*
X124960614Y-67600515D01*
X124871588Y-67385587D01*
X124742342Y-67192157D01*
X124577843Y-67027658D01*
X124384413Y-66898412D01*
X124169485Y-66809386D01*
X123941318Y-66764000D01*
X123708682Y-66764000D01*
X123480515Y-66809386D01*
X123265587Y-66898412D01*
X123072157Y-67027658D01*
X122907658Y-67192157D01*
X122778412Y-67385587D01*
X122689386Y-67600515D01*
X122644000Y-67828682D01*
X122644000Y-68061318D01*
X122689386Y-68289485D01*
X122778412Y-68504413D01*
X122907658Y-68697843D01*
X123072157Y-68862342D01*
X123194000Y-68943755D01*
X123194001Y-69486245D01*
X123072157Y-69567658D01*
X122907658Y-69732157D01*
X122778412Y-69925587D01*
X122689386Y-70140515D01*
X122644000Y-70368682D01*
X122644000Y-70601318D01*
X122689386Y-70829485D01*
X122778412Y-71044413D01*
X122907658Y-71237843D01*
X123072157Y-71402342D01*
X123222802Y-71503000D01*
X121887198Y-71503000D01*
X122037843Y-71402342D01*
X122202342Y-71237843D01*
X122331588Y-71044413D01*
X122420614Y-70829485D01*
X122466000Y-70601318D01*
X122466000Y-70368682D01*
X122420614Y-70140515D01*
X122331588Y-69925587D01*
X122202342Y-69732157D01*
X122037843Y-69567658D01*
X121916000Y-69486245D01*
X121916000Y-68943755D01*
X122037843Y-68862342D01*
X122202342Y-68697843D01*
X122331588Y-68504413D01*
X122420614Y-68289485D01*
X122466000Y-68061318D01*
X122466000Y-67828682D01*
X122420614Y-67600515D01*
X122331588Y-67385587D01*
X122202342Y-67192157D01*
X122037843Y-67027658D01*
X121844413Y-66898412D01*
X121629485Y-66809386D01*
X121401318Y-66764000D01*
X121168682Y-66764000D01*
X120940515Y-66809386D01*
X120725587Y-66898412D01*
X120532157Y-67027658D01*
X120367658Y-67192157D01*
X120238412Y-67385587D01*
X120149386Y-67600515D01*
X120104000Y-67828682D01*
X120104000Y-68061318D01*
X120149386Y-68289485D01*
X120238412Y-68504413D01*
X120367658Y-68697843D01*
X120532157Y-68862342D01*
X120654000Y-68943755D01*
X120654001Y-69486245D01*
X120532157Y-69567658D01*
X120367658Y-69732157D01*
X120238412Y-69925587D01*
X120149386Y-70140515D01*
X120104000Y-70368682D01*
X120104000Y-70601318D01*
X120149386Y-70829485D01*
X120238412Y-71044413D01*
X120367658Y-71237843D01*
X120532157Y-71402342D01*
X120725587Y-71531588D01*
X120777733Y-71553188D01*
X120756033Y-71574888D01*
X120681506Y-71686426D01*
X120630171Y-71810360D01*
X120604000Y-71941927D01*
X120604000Y-72076073D01*
X120630171Y-72207640D01*
X120653930Y-72265000D01*
X119202079Y-72265000D01*
X119179112Y-72242033D01*
X119067574Y-72167506D01*
X118943640Y-72116171D01*
X118812073Y-72090000D01*
X118677927Y-72090000D01*
X118546360Y-72116171D01*
X118422426Y-72167506D01*
X118310888Y-72242033D01*
X118216033Y-72336888D01*
X118141506Y-72448426D01*
X118090171Y-72572360D01*
X118064000Y-72703927D01*
X118064000Y-72838073D01*
X118090171Y-72969640D01*
X118141506Y-73093574D01*
X118181881Y-73154000D01*
X116662079Y-73154000D01*
X116639112Y-73131033D01*
X116527574Y-73056506D01*
X116403640Y-73005171D01*
X116272073Y-72979000D01*
X116137927Y-72979000D01*
X116006360Y-73005171D01*
X115882426Y-73056506D01*
X115770888Y-73131033D01*
X115676033Y-73225888D01*
X115601506Y-73337426D01*
X115550171Y-73461360D01*
X115524000Y-73592927D01*
X115524000Y-73727073D01*
X115550171Y-73858640D01*
X115601506Y-73982574D01*
X115676033Y-74094112D01*
X115770888Y-74188967D01*
X115882426Y-74263494D01*
X116006360Y-74314829D01*
X116137927Y-74341000D01*
X116272073Y-74341000D01*
X116403640Y-74314829D01*
X116527574Y-74263494D01*
X116639112Y-74188967D01*
X116662079Y-74166000D01*
X164640409Y-74166000D01*
X164382409Y-74424000D01*
X114122079Y-74424000D01*
X114099112Y-74401033D01*
X113987574Y-74326506D01*
X113863640Y-74275171D01*
X113732073Y-74249000D01*
X113597927Y-74249000D01*
X113466360Y-74275171D01*
X113342426Y-74326506D01*
X113230888Y-74401033D01*
X113136033Y-74495888D01*
X113061506Y-74607426D01*
X113010171Y-74731360D01*
X112984000Y-74862927D01*
X112984000Y-74997073D01*
X113010171Y-75128640D01*
X113061506Y-75252574D01*
X113136033Y-75364112D01*
X113230888Y-75458967D01*
X113342426Y-75533494D01*
X113466360Y-75584829D01*
X113597927Y-75611000D01*
X113732073Y-75611000D01*
X113863640Y-75584829D01*
X113987574Y-75533494D01*
X114099112Y-75458967D01*
X114122079Y-75436000D01*
X164528409Y-75436000D01*
X164270409Y-75694000D01*
X111582079Y-75694000D01*
X111559112Y-75671033D01*
X111447574Y-75596506D01*
X111323640Y-75545171D01*
X111192073Y-75519000D01*
X111057927Y-75519000D01*
X110926360Y-75545171D01*
X110802426Y-75596506D01*
X110690888Y-75671033D01*
X110596033Y-75765888D01*
X110521506Y-75877426D01*
X110470171Y-76001360D01*
X110444000Y-76132927D01*
X110444000Y-76267073D01*
X110470171Y-76398640D01*
X110521506Y-76522574D01*
X110596033Y-76634112D01*
X110690888Y-76728967D01*
X110802426Y-76803494D01*
X110926360Y-76854829D01*
X111057927Y-76881000D01*
X111192073Y-76881000D01*
X111323640Y-76854829D01*
X111447574Y-76803494D01*
X111559112Y-76728967D01*
X111582079Y-76706000D01*
X164028673Y-76706000D01*
X163770673Y-76964000D01*
X109042065Y-76964000D01*
X109019098Y-76941033D01*
X108907560Y-76866506D01*
X108783626Y-76815171D01*
X108652059Y-76789000D01*
X108517913Y-76789000D01*
X108386346Y-76815171D01*
X108262412Y-76866506D01*
X108150874Y-76941033D01*
X108056019Y-77035888D01*
X107981492Y-77147426D01*
X107930157Y-77271360D01*
X107903986Y-77402927D01*
X107903986Y-77537073D01*
X107930157Y-77668640D01*
X107981492Y-77792574D01*
X108056019Y-77904112D01*
X108150874Y-77998967D01*
X108262412Y-78073494D01*
X108386346Y-78124829D01*
X108517913Y-78151000D01*
X108652059Y-78151000D01*
X108783626Y-78124829D01*
X108907560Y-78073494D01*
X109019098Y-77998967D01*
X109042065Y-77976000D01*
X163395083Y-77976000D01*
X163137083Y-78234000D01*
X106502079Y-78234000D01*
X106479112Y-78211033D01*
X106367574Y-78136506D01*
X106243640Y-78085171D01*
X106112073Y-78059000D01*
X105977927Y-78059000D01*
X105846360Y-78085171D01*
X105722426Y-78136506D01*
X105610888Y-78211033D01*
X105516033Y-78305888D01*
X105441506Y-78417426D01*
X105390171Y-78541360D01*
X105364000Y-78672927D01*
X105364000Y-78807073D01*
X105390171Y-78938640D01*
X105441506Y-79062574D01*
X105516033Y-79174112D01*
X105610888Y-79268967D01*
X105722426Y-79343494D01*
X105846360Y-79394829D01*
X105977927Y-79421000D01*
X106112073Y-79421000D01*
X106243640Y-79394829D01*
X106367574Y-79343494D01*
X106479112Y-79268967D01*
X106502079Y-79246000D01*
X162761494Y-79246000D01*
X162503494Y-79504000D01*
X104164854Y-79504000D01*
X104140000Y-79501552D01*
X104115146Y-79504000D01*
X104040807Y-79511322D01*
X103945425Y-79540255D01*
X103857521Y-79587241D01*
X103780473Y-79650473D01*
X103764629Y-79669779D01*
X103164780Y-80269629D01*
X103145474Y-80285473D01*
X103082242Y-80362521D01*
X103059418Y-80405221D01*
X103035255Y-80450426D01*
X103006322Y-80545808D01*
X102996553Y-80645000D01*
X102999001Y-80669856D01*
X102999000Y-82116287D01*
X102945587Y-82138412D01*
X102752157Y-82267658D01*
X102587658Y-82432157D01*
X102458412Y-82625587D01*
X102369386Y-82840515D01*
X102324000Y-83068682D01*
X102081000Y-83068682D01*
X102081000Y-67828682D01*
X102324000Y-67828682D01*
X102324000Y-68061318D01*
X102369386Y-68289485D01*
X102458412Y-68504413D01*
X102587658Y-68697843D01*
X102752157Y-68862342D01*
X102874000Y-68943755D01*
X102874001Y-69486245D01*
X102752157Y-69567658D01*
X102587658Y-69732157D01*
X102458412Y-69925587D01*
X102369386Y-70140515D01*
X102324000Y-70368682D01*
X102324000Y-70601318D01*
X102369386Y-70829485D01*
X102458412Y-71044413D01*
X102587658Y-71237843D01*
X102752157Y-71402342D01*
X102945587Y-71531588D01*
X103160515Y-71620614D01*
X103388682Y-71666000D01*
X103621318Y-71666000D01*
X103849485Y-71620614D01*
X104064413Y-71531588D01*
X104257843Y-71402342D01*
X104422342Y-71237843D01*
X104551588Y-71044413D01*
X104640614Y-70829485D01*
X104686000Y-70601318D01*
X104686000Y-70368682D01*
X104640614Y-70140515D01*
X104551588Y-69925587D01*
X104422342Y-69732157D01*
X104257843Y-69567658D01*
X104136000Y-69486245D01*
X104136000Y-68943755D01*
X104257843Y-68862342D01*
X104422342Y-68697843D01*
X104551588Y-68504413D01*
X104640614Y-68289485D01*
X104686000Y-68061318D01*
X104686000Y-67828682D01*
X104864000Y-67828682D01*
X104864000Y-68061318D01*
X104909386Y-68289485D01*
X104998412Y-68504413D01*
X105127658Y-68697843D01*
X105292157Y-68862342D01*
X105414000Y-68943755D01*
X105414001Y-69486245D01*
X105292157Y-69567658D01*
X105127658Y-69732157D01*
X104998412Y-69925587D01*
X104909386Y-70140515D01*
X104864000Y-70368682D01*
X104864000Y-70601318D01*
X104909386Y-70829485D01*
X104998412Y-71044413D01*
X105127658Y-71237843D01*
X105292157Y-71402342D01*
X105485587Y-71531588D01*
X105700515Y-71620614D01*
X105928682Y-71666000D01*
X106161318Y-71666000D01*
X106389485Y-71620614D01*
X106604413Y-71531588D01*
X106797843Y-71402342D01*
X106962342Y-71237843D01*
X107091588Y-71044413D01*
X107180614Y-70829485D01*
X107226000Y-70601318D01*
X107226000Y-70368682D01*
X107180614Y-70140515D01*
X107091588Y-69925587D01*
X106962342Y-69732157D01*
X106797843Y-69567658D01*
X106676000Y-69486245D01*
X106676000Y-68943755D01*
X106797843Y-68862342D01*
X106962342Y-68697843D01*
X107091588Y-68504413D01*
X107180614Y-68289485D01*
X107226000Y-68061318D01*
X107226000Y-67828682D01*
X107404000Y-67828682D01*
X107404000Y-68061318D01*
X107449386Y-68289485D01*
X107538412Y-68504413D01*
X107667658Y-68697843D01*
X107832157Y-68862342D01*
X107954000Y-68943755D01*
X107954001Y-69486245D01*
X107832157Y-69567658D01*
X107667658Y-69732157D01*
X107538412Y-69925587D01*
X107449386Y-70140515D01*
X107404000Y-70368682D01*
X107404000Y-70601318D01*
X107449386Y-70829485D01*
X107538412Y-71044413D01*
X107667658Y-71237843D01*
X107832157Y-71402342D01*
X108025587Y-71531588D01*
X108240515Y-71620614D01*
X108468682Y-71666000D01*
X108701318Y-71666000D01*
X108929485Y-71620614D01*
X109144413Y-71531588D01*
X109337843Y-71402342D01*
X109502342Y-71237843D01*
X109631588Y-71044413D01*
X109720614Y-70829485D01*
X109766000Y-70601318D01*
X109766000Y-70368682D01*
X109720614Y-70140515D01*
X109631588Y-69925587D01*
X109502342Y-69732157D01*
X109337843Y-69567658D01*
X109216000Y-69486245D01*
X109216000Y-68943755D01*
X109337843Y-68862342D01*
X109502342Y-68697843D01*
X109631588Y-68504413D01*
X109720614Y-68289485D01*
X109766000Y-68061318D01*
X109766000Y-67828682D01*
X109944000Y-67828682D01*
X109944000Y-68061318D01*
X109989386Y-68289485D01*
X110078412Y-68504413D01*
X110207658Y-68697843D01*
X110372157Y-68862342D01*
X110494000Y-68943755D01*
X110494001Y-69486245D01*
X110372157Y-69567658D01*
X110207658Y-69732157D01*
X110078412Y-69925587D01*
X109989386Y-70140515D01*
X109944000Y-70368682D01*
X109944000Y-70601318D01*
X109989386Y-70829485D01*
X110078412Y-71044413D01*
X110207658Y-71237843D01*
X110372157Y-71402342D01*
X110565587Y-71531588D01*
X110780515Y-71620614D01*
X111008682Y-71666000D01*
X111241318Y-71666000D01*
X111469485Y-71620614D01*
X111684413Y-71531588D01*
X111877843Y-71402342D01*
X112042342Y-71237843D01*
X112171588Y-71044413D01*
X112260614Y-70829485D01*
X112306000Y-70601318D01*
X112306000Y-70368682D01*
X112260614Y-70140515D01*
X112171588Y-69925587D01*
X112042342Y-69732157D01*
X111877843Y-69567658D01*
X111756000Y-69486245D01*
X111756000Y-68943755D01*
X111877843Y-68862342D01*
X112042342Y-68697843D01*
X112171588Y-68504413D01*
X112260614Y-68289485D01*
X112306000Y-68061318D01*
X112306000Y-67828682D01*
X112260614Y-67600515D01*
X112171588Y-67385587D01*
X112042342Y-67192157D01*
X111877843Y-67027658D01*
X111684413Y-66898412D01*
X111469485Y-66809386D01*
X111241318Y-66764000D01*
X111008682Y-66764000D01*
X110780515Y-66809386D01*
X110565587Y-66898412D01*
X110372157Y-67027658D01*
X110207658Y-67192157D01*
X110078412Y-67385587D01*
X109989386Y-67600515D01*
X109944000Y-67828682D01*
X109766000Y-67828682D01*
X109720614Y-67600515D01*
X109631588Y-67385587D01*
X109502342Y-67192157D01*
X109337843Y-67027658D01*
X109144413Y-66898412D01*
X108929485Y-66809386D01*
X108701318Y-66764000D01*
X108468682Y-66764000D01*
X108240515Y-66809386D01*
X108025587Y-66898412D01*
X107832157Y-67027658D01*
X107667658Y-67192157D01*
X107538412Y-67385587D01*
X107449386Y-67600515D01*
X107404000Y-67828682D01*
X107226000Y-67828682D01*
X107180614Y-67600515D01*
X107091588Y-67385587D01*
X106962342Y-67192157D01*
X106797843Y-67027658D01*
X106604413Y-66898412D01*
X106389485Y-66809386D01*
X106161318Y-66764000D01*
X105928682Y-66764000D01*
X105700515Y-66809386D01*
X105485587Y-66898412D01*
X105292157Y-67027658D01*
X105127658Y-67192157D01*
X104998412Y-67385587D01*
X104909386Y-67600515D01*
X104864000Y-67828682D01*
X104686000Y-67828682D01*
X104640614Y-67600515D01*
X104551588Y-67385587D01*
X104422342Y-67192157D01*
X104257843Y-67027658D01*
X104064413Y-66898412D01*
X103849485Y-66809386D01*
X103621318Y-66764000D01*
X103388682Y-66764000D01*
X103160515Y-66809386D01*
X102945587Y-66898412D01*
X102752157Y-67027658D01*
X102587658Y-67192157D01*
X102458412Y-67385587D01*
X102369386Y-67600515D01*
X102324000Y-67828682D01*
X102081000Y-67828682D01*
X102081000Y-63777520D01*
X102095870Y-63625865D01*
X102133082Y-63502612D01*
X102193526Y-63388932D01*
X102274899Y-63289159D01*
X102374105Y-63207089D01*
X102487357Y-63145853D01*
X102610352Y-63107780D01*
X102760492Y-63092000D01*
X172823480Y-63092000D01*
X172975135Y-63106870D01*
G37*
G04 #@! TD.AperFunction*
D17*
X166331299Y-69618492D02*
X166309513Y-69690311D01*
X166302157Y-69765000D01*
X166304000Y-69842750D01*
X166399250Y-69938000D01*
X167558000Y-69938000D01*
X167558000Y-69918000D01*
X167812000Y-69918000D01*
X167812000Y-69938000D01*
X167832000Y-69938000D01*
X167832000Y-70192000D01*
X167812000Y-70192000D01*
X167812000Y-70212000D01*
X167558000Y-70212000D01*
X167558000Y-70192000D01*
X166399250Y-70192000D01*
X166304000Y-70287250D01*
X166302157Y-70365000D01*
X166309513Y-70439689D01*
X166331299Y-70511508D01*
X166359892Y-70565000D01*
X166338238Y-70605511D01*
X166269521Y-70642241D01*
X166192473Y-70705473D01*
X166176628Y-70724780D01*
X164636409Y-72265000D01*
X163045593Y-72265000D01*
X165739594Y-69571000D01*
X166356685Y-69571000D01*
X166331299Y-69618492D01*
G04 #@! TA.AperFunction,Conductor*
D18*
G36*
X166331299Y-69618492D02*
G01*
X166309513Y-69690311D01*
X166302157Y-69765000D01*
X166304000Y-69842750D01*
X166399250Y-69938000D01*
X167558000Y-69938000D01*
X167558000Y-69918000D01*
X167812000Y-69918000D01*
X167812000Y-69938000D01*
X167832000Y-69938000D01*
X167832000Y-70192000D01*
X167812000Y-70192000D01*
X167812000Y-70212000D01*
X167558000Y-70212000D01*
X167558000Y-70192000D01*
X166399250Y-70192000D01*
X166304000Y-70287250D01*
X166302157Y-70365000D01*
X166309513Y-70439689D01*
X166331299Y-70511508D01*
X166359892Y-70565000D01*
X166338238Y-70605511D01*
X166269521Y-70642241D01*
X166192473Y-70705473D01*
X166176628Y-70724780D01*
X164636409Y-72265000D01*
X163045593Y-72265000D01*
X165739594Y-69571000D01*
X166356685Y-69571000D01*
X166331299Y-69618492D01*
G37*
G04 #@! TD.AperFunction*
D17*
X167871257Y-63640769D02*
X167960955Y-63677923D01*
X168037976Y-63737024D01*
X168097077Y-63814045D01*
X168134231Y-63903743D01*
X168148000Y-64008328D01*
X168148000Y-65413000D01*
X168149086Y-65429577D01*
X168166123Y-65558987D01*
X168174704Y-65591011D01*
X168224654Y-65711601D01*
X168241232Y-65740313D01*
X168320692Y-65843866D01*
X168344134Y-65867308D01*
X168447687Y-65946768D01*
X168476399Y-65963346D01*
X168596989Y-66013296D01*
X168629013Y-66021877D01*
X168758423Y-66038914D01*
X168775000Y-66040000D01*
X169544672Y-66040000D01*
X169649257Y-66053769D01*
X169738955Y-66090923D01*
X169815976Y-66150024D01*
X169875077Y-66227045D01*
X169912231Y-66316743D01*
X169926000Y-66421328D01*
X169926000Y-84454672D01*
X169912231Y-84559257D01*
X169875077Y-84648955D01*
X169815976Y-84725976D01*
X169738955Y-84785077D01*
X169649257Y-84822231D01*
X169544672Y-84836000D01*
X166370328Y-84836000D01*
X166265743Y-84822231D01*
X166176045Y-84785077D01*
X166099024Y-84725976D01*
X166039923Y-84648955D01*
X166002769Y-84559257D01*
X165989000Y-84454672D01*
X165989000Y-84365000D01*
X166302157Y-84365000D01*
X166309513Y-84439689D01*
X166331299Y-84511508D01*
X166366678Y-84577696D01*
X166414289Y-84635711D01*
X166472304Y-84683322D01*
X166538492Y-84718701D01*
X166610311Y-84740487D01*
X166685000Y-84747843D01*
X167462750Y-84746000D01*
X167558000Y-84650750D01*
X167558000Y-84192000D01*
X167812000Y-84192000D01*
X167812000Y-84650750D01*
X167907250Y-84746000D01*
X168685000Y-84747843D01*
X168759689Y-84740487D01*
X168831508Y-84718701D01*
X168897696Y-84683322D01*
X168955711Y-84635711D01*
X169003322Y-84577696D01*
X169038701Y-84511508D01*
X169060487Y-84439689D01*
X169067843Y-84365000D01*
X169066000Y-84287250D01*
X168970750Y-84192000D01*
X167812000Y-84192000D01*
X167558000Y-84192000D01*
X166399250Y-84192000D01*
X166304000Y-84287250D01*
X166302157Y-84365000D01*
X165989000Y-84365000D01*
X165989000Y-83365000D01*
X166302157Y-83365000D01*
X166309513Y-83439689D01*
X166331299Y-83511508D01*
X166359892Y-83565000D01*
X166331299Y-83618492D01*
X166309513Y-83690311D01*
X166302157Y-83765000D01*
X166304000Y-83842750D01*
X166399250Y-83938000D01*
X167558000Y-83938000D01*
X167558000Y-83192000D01*
X167812000Y-83192000D01*
X167812000Y-83938000D01*
X168970750Y-83938000D01*
X169066000Y-83842750D01*
X169067843Y-83765000D01*
X169060487Y-83690311D01*
X169038701Y-83618492D01*
X169010108Y-83565000D01*
X169038701Y-83511508D01*
X169060487Y-83439689D01*
X169067843Y-83365000D01*
X169066000Y-83287250D01*
X168970750Y-83192000D01*
X167812000Y-83192000D01*
X167558000Y-83192000D01*
X166399250Y-83192000D01*
X166304000Y-83287250D01*
X166302157Y-83365000D01*
X165989000Y-83365000D01*
X165989000Y-83185328D01*
X166002769Y-83080743D01*
X166039923Y-82991045D01*
X166099024Y-82914024D01*
X166176045Y-82854923D01*
X166265743Y-82817769D01*
X166303291Y-82812826D01*
X166304000Y-82842750D01*
X166399250Y-82938000D01*
X167558000Y-82938000D01*
X167558000Y-82918000D01*
X167812000Y-82918000D01*
X167812000Y-82938000D01*
X168970750Y-82938000D01*
X169066000Y-82842750D01*
X169067843Y-82765000D01*
X169060487Y-82690311D01*
X169038701Y-82618492D01*
X169015894Y-82575825D01*
X169070768Y-82504313D01*
X169087346Y-82475601D01*
X169137296Y-82355011D01*
X169145877Y-82322987D01*
X169162914Y-82193577D01*
X169164000Y-82177000D01*
X169164000Y-66921000D01*
X169162914Y-66904423D01*
X169145877Y-66775013D01*
X169137296Y-66742989D01*
X169087346Y-66622399D01*
X169070768Y-66593687D01*
X168991308Y-66490134D01*
X168967866Y-66466692D01*
X168864313Y-66387232D01*
X168835601Y-66370654D01*
X168715011Y-66320704D01*
X168682987Y-66312123D01*
X168553577Y-66295086D01*
X168537000Y-66294000D01*
X167386328Y-66294000D01*
X167281743Y-66280231D01*
X167192045Y-66243077D01*
X167115024Y-66183976D01*
X167055923Y-66106955D01*
X167018769Y-66017257D01*
X167005000Y-65912672D01*
X167005000Y-65270000D01*
X167003914Y-65253423D01*
X166986877Y-65124013D01*
X166978296Y-65091989D01*
X166928346Y-64971399D01*
X166911768Y-64942687D01*
X166832308Y-64839134D01*
X166808866Y-64815692D01*
X166705313Y-64736232D01*
X166676601Y-64719654D01*
X166556011Y-64669704D01*
X166523987Y-64661123D01*
X166394577Y-64644086D01*
X166378000Y-64643000D01*
X118102000Y-64643000D01*
X118085423Y-64644086D01*
X117956013Y-64661123D01*
X117923989Y-64669704D01*
X117803399Y-64719654D01*
X117774687Y-64736232D01*
X117671134Y-64815692D01*
X117647692Y-64839134D01*
X117568232Y-64942687D01*
X117551654Y-64971399D01*
X117501704Y-65091989D01*
X117493123Y-65124013D01*
X117476086Y-65253423D01*
X117475000Y-65270000D01*
X117475000Y-71373672D01*
X117461231Y-71478257D01*
X117424077Y-71567955D01*
X117364976Y-71644976D01*
X117287955Y-71704077D01*
X117198257Y-71741231D01*
X117093672Y-71755000D01*
X115316328Y-71755000D01*
X115211743Y-71741231D01*
X115122045Y-71704077D01*
X115045024Y-71644976D01*
X114985923Y-71567955D01*
X114948769Y-71478257D01*
X114935000Y-71373672D01*
X114935000Y-70794115D01*
X115065165Y-70794115D01*
X115147372Y-71010546D01*
X115270223Y-71206781D01*
X115428997Y-71375278D01*
X115617592Y-71509562D01*
X115828761Y-71604473D01*
X115895886Y-71624829D01*
X116078000Y-71563297D01*
X116078000Y-70612000D01*
X116332000Y-70612000D01*
X116332000Y-71563297D01*
X116514114Y-71624829D01*
X116581239Y-71604473D01*
X116792408Y-71509562D01*
X116981003Y-71375278D01*
X117139777Y-71206781D01*
X117262628Y-71010546D01*
X117344835Y-70794115D01*
X117283908Y-70612000D01*
X116332000Y-70612000D01*
X116078000Y-70612000D01*
X115126092Y-70612000D01*
X115065165Y-70794115D01*
X114935000Y-70794115D01*
X114935000Y-70175885D01*
X115065165Y-70175885D01*
X115126092Y-70358000D01*
X116078000Y-70358000D01*
X116078000Y-69406703D01*
X116332000Y-69406703D01*
X116332000Y-70358000D01*
X117283908Y-70358000D01*
X117344835Y-70175885D01*
X117262628Y-69959454D01*
X117139777Y-69763219D01*
X116981003Y-69594722D01*
X116792408Y-69460438D01*
X116581239Y-69365527D01*
X116514114Y-69345171D01*
X116332000Y-69406703D01*
X116078000Y-69406703D01*
X115895886Y-69345171D01*
X115828761Y-69365527D01*
X115617592Y-69460438D01*
X115428997Y-69594722D01*
X115270223Y-69763219D01*
X115147372Y-69959454D01*
X115065165Y-70175885D01*
X114935000Y-70175885D01*
X114935000Y-68254115D01*
X115065165Y-68254115D01*
X115147372Y-68470546D01*
X115270223Y-68666781D01*
X115428997Y-68835278D01*
X115617592Y-68969562D01*
X115828761Y-69064473D01*
X115895886Y-69084829D01*
X116078000Y-69023297D01*
X116078000Y-68072000D01*
X116332000Y-68072000D01*
X116332000Y-69023297D01*
X116514114Y-69084829D01*
X116581239Y-69064473D01*
X116792408Y-68969562D01*
X116981003Y-68835278D01*
X117139777Y-68666781D01*
X117262628Y-68470546D01*
X117344835Y-68254115D01*
X117283908Y-68072000D01*
X116332000Y-68072000D01*
X116078000Y-68072000D01*
X115126092Y-68072000D01*
X115065165Y-68254115D01*
X114935000Y-68254115D01*
X114935000Y-67635885D01*
X115065165Y-67635885D01*
X115126092Y-67818000D01*
X116078000Y-67818000D01*
X116078000Y-66866703D01*
X116332000Y-66866703D01*
X116332000Y-67818000D01*
X117283908Y-67818000D01*
X117344835Y-67635885D01*
X117262628Y-67419454D01*
X117139777Y-67223219D01*
X116981003Y-67054722D01*
X116792408Y-66920438D01*
X116581239Y-66825527D01*
X116514114Y-66805171D01*
X116332000Y-66866703D01*
X116078000Y-66866703D01*
X115895886Y-66805171D01*
X115828761Y-66825527D01*
X115617592Y-66920438D01*
X115428997Y-67054722D01*
X115270223Y-67223219D01*
X115147372Y-67419454D01*
X115065165Y-67635885D01*
X114935000Y-67635885D01*
X114935000Y-64008328D01*
X114948769Y-63903743D01*
X114985923Y-63814045D01*
X115045024Y-63737024D01*
X115122045Y-63677923D01*
X115211743Y-63640769D01*
X115316328Y-63627000D01*
X167766672Y-63627000D01*
X167871257Y-63640769D01*
G04 #@! TA.AperFunction,Conductor*
D18*
G36*
X167871257Y-63640769D02*
G01*
X167960955Y-63677923D01*
X168037976Y-63737024D01*
X168097077Y-63814045D01*
X168134231Y-63903743D01*
X168148000Y-64008328D01*
X168148000Y-65413000D01*
X168149086Y-65429577D01*
X168166123Y-65558987D01*
X168174704Y-65591011D01*
X168224654Y-65711601D01*
X168241232Y-65740313D01*
X168320692Y-65843866D01*
X168344134Y-65867308D01*
X168447687Y-65946768D01*
X168476399Y-65963346D01*
X168596989Y-66013296D01*
X168629013Y-66021877D01*
X168758423Y-66038914D01*
X168775000Y-66040000D01*
X169544672Y-66040000D01*
X169649257Y-66053769D01*
X169738955Y-66090923D01*
X169815976Y-66150024D01*
X169875077Y-66227045D01*
X169912231Y-66316743D01*
X169926000Y-66421328D01*
X169926000Y-84454672D01*
X169912231Y-84559257D01*
X169875077Y-84648955D01*
X169815976Y-84725976D01*
X169738955Y-84785077D01*
X169649257Y-84822231D01*
X169544672Y-84836000D01*
X166370328Y-84836000D01*
X166265743Y-84822231D01*
X166176045Y-84785077D01*
X166099024Y-84725976D01*
X166039923Y-84648955D01*
X166002769Y-84559257D01*
X165989000Y-84454672D01*
X165989000Y-84365000D01*
X166302157Y-84365000D01*
X166309513Y-84439689D01*
X166331299Y-84511508D01*
X166366678Y-84577696D01*
X166414289Y-84635711D01*
X166472304Y-84683322D01*
X166538492Y-84718701D01*
X166610311Y-84740487D01*
X166685000Y-84747843D01*
X167462750Y-84746000D01*
X167558000Y-84650750D01*
X167558000Y-84192000D01*
X167812000Y-84192000D01*
X167812000Y-84650750D01*
X167907250Y-84746000D01*
X168685000Y-84747843D01*
X168759689Y-84740487D01*
X168831508Y-84718701D01*
X168897696Y-84683322D01*
X168955711Y-84635711D01*
X169003322Y-84577696D01*
X169038701Y-84511508D01*
X169060487Y-84439689D01*
X169067843Y-84365000D01*
X169066000Y-84287250D01*
X168970750Y-84192000D01*
X167812000Y-84192000D01*
X167558000Y-84192000D01*
X166399250Y-84192000D01*
X166304000Y-84287250D01*
X166302157Y-84365000D01*
X165989000Y-84365000D01*
X165989000Y-83365000D01*
X166302157Y-83365000D01*
X166309513Y-83439689D01*
X166331299Y-83511508D01*
X166359892Y-83565000D01*
X166331299Y-83618492D01*
X166309513Y-83690311D01*
X166302157Y-83765000D01*
X166304000Y-83842750D01*
X166399250Y-83938000D01*
X167558000Y-83938000D01*
X167558000Y-83192000D01*
X167812000Y-83192000D01*
X167812000Y-83938000D01*
X168970750Y-83938000D01*
X169066000Y-83842750D01*
X169067843Y-83765000D01*
X169060487Y-83690311D01*
X169038701Y-83618492D01*
X169010108Y-83565000D01*
X169038701Y-83511508D01*
X169060487Y-83439689D01*
X169067843Y-83365000D01*
X169066000Y-83287250D01*
X168970750Y-83192000D01*
X167812000Y-83192000D01*
X167558000Y-83192000D01*
X166399250Y-83192000D01*
X166304000Y-83287250D01*
X166302157Y-83365000D01*
X165989000Y-83365000D01*
X165989000Y-83185328D01*
X166002769Y-83080743D01*
X166039923Y-82991045D01*
X166099024Y-82914024D01*
X166176045Y-82854923D01*
X166265743Y-82817769D01*
X166303291Y-82812826D01*
X166304000Y-82842750D01*
X166399250Y-82938000D01*
X167558000Y-82938000D01*
X167558000Y-82918000D01*
X167812000Y-82918000D01*
X167812000Y-82938000D01*
X168970750Y-82938000D01*
X169066000Y-82842750D01*
X169067843Y-82765000D01*
X169060487Y-82690311D01*
X169038701Y-82618492D01*
X169015894Y-82575825D01*
X169070768Y-82504313D01*
X169087346Y-82475601D01*
X169137296Y-82355011D01*
X169145877Y-82322987D01*
X169162914Y-82193577D01*
X169164000Y-82177000D01*
X169164000Y-66921000D01*
X169162914Y-66904423D01*
X169145877Y-66775013D01*
X169137296Y-66742989D01*
X169087346Y-66622399D01*
X169070768Y-66593687D01*
X168991308Y-66490134D01*
X168967866Y-66466692D01*
X168864313Y-66387232D01*
X168835601Y-66370654D01*
X168715011Y-66320704D01*
X168682987Y-66312123D01*
X168553577Y-66295086D01*
X168537000Y-66294000D01*
X167386328Y-66294000D01*
X167281743Y-66280231D01*
X167192045Y-66243077D01*
X167115024Y-66183976D01*
X167055923Y-66106955D01*
X167018769Y-66017257D01*
X167005000Y-65912672D01*
X167005000Y-65270000D01*
X167003914Y-65253423D01*
X166986877Y-65124013D01*
X166978296Y-65091989D01*
X166928346Y-64971399D01*
X166911768Y-64942687D01*
X166832308Y-64839134D01*
X166808866Y-64815692D01*
X166705313Y-64736232D01*
X166676601Y-64719654D01*
X166556011Y-64669704D01*
X166523987Y-64661123D01*
X166394577Y-64644086D01*
X166378000Y-64643000D01*
X118102000Y-64643000D01*
X118085423Y-64644086D01*
X117956013Y-64661123D01*
X117923989Y-64669704D01*
X117803399Y-64719654D01*
X117774687Y-64736232D01*
X117671134Y-64815692D01*
X117647692Y-64839134D01*
X117568232Y-64942687D01*
X117551654Y-64971399D01*
X117501704Y-65091989D01*
X117493123Y-65124013D01*
X117476086Y-65253423D01*
X117475000Y-65270000D01*
X117475000Y-71373672D01*
X117461231Y-71478257D01*
X117424077Y-71567955D01*
X117364976Y-71644976D01*
X117287955Y-71704077D01*
X117198257Y-71741231D01*
X117093672Y-71755000D01*
X115316328Y-71755000D01*
X115211743Y-71741231D01*
X115122045Y-71704077D01*
X115045024Y-71644976D01*
X114985923Y-71567955D01*
X114948769Y-71478257D01*
X114935000Y-71373672D01*
X114935000Y-70794115D01*
X115065165Y-70794115D01*
X115147372Y-71010546D01*
X115270223Y-71206781D01*
X115428997Y-71375278D01*
X115617592Y-71509562D01*
X115828761Y-71604473D01*
X115895886Y-71624829D01*
X116078000Y-71563297D01*
X116078000Y-70612000D01*
X116332000Y-70612000D01*
X116332000Y-71563297D01*
X116514114Y-71624829D01*
X116581239Y-71604473D01*
X116792408Y-71509562D01*
X116981003Y-71375278D01*
X117139777Y-71206781D01*
X117262628Y-71010546D01*
X117344835Y-70794115D01*
X117283908Y-70612000D01*
X116332000Y-70612000D01*
X116078000Y-70612000D01*
X115126092Y-70612000D01*
X115065165Y-70794115D01*
X114935000Y-70794115D01*
X114935000Y-70175885D01*
X115065165Y-70175885D01*
X115126092Y-70358000D01*
X116078000Y-70358000D01*
X116078000Y-69406703D01*
X116332000Y-69406703D01*
X116332000Y-70358000D01*
X117283908Y-70358000D01*
X117344835Y-70175885D01*
X117262628Y-69959454D01*
X117139777Y-69763219D01*
X116981003Y-69594722D01*
X116792408Y-69460438D01*
X116581239Y-69365527D01*
X116514114Y-69345171D01*
X116332000Y-69406703D01*
X116078000Y-69406703D01*
X115895886Y-69345171D01*
X115828761Y-69365527D01*
X115617592Y-69460438D01*
X115428997Y-69594722D01*
X115270223Y-69763219D01*
X115147372Y-69959454D01*
X115065165Y-70175885D01*
X114935000Y-70175885D01*
X114935000Y-68254115D01*
X115065165Y-68254115D01*
X115147372Y-68470546D01*
X115270223Y-68666781D01*
X115428997Y-68835278D01*
X115617592Y-68969562D01*
X115828761Y-69064473D01*
X115895886Y-69084829D01*
X116078000Y-69023297D01*
X116078000Y-68072000D01*
X116332000Y-68072000D01*
X116332000Y-69023297D01*
X116514114Y-69084829D01*
X116581239Y-69064473D01*
X116792408Y-68969562D01*
X116981003Y-68835278D01*
X117139777Y-68666781D01*
X117262628Y-68470546D01*
X117344835Y-68254115D01*
X117283908Y-68072000D01*
X116332000Y-68072000D01*
X116078000Y-68072000D01*
X115126092Y-68072000D01*
X115065165Y-68254115D01*
X114935000Y-68254115D01*
X114935000Y-67635885D01*
X115065165Y-67635885D01*
X115126092Y-67818000D01*
X116078000Y-67818000D01*
X116078000Y-66866703D01*
X116332000Y-66866703D01*
X116332000Y-67818000D01*
X117283908Y-67818000D01*
X117344835Y-67635885D01*
X117262628Y-67419454D01*
X117139777Y-67223219D01*
X116981003Y-67054722D01*
X116792408Y-66920438D01*
X116581239Y-66825527D01*
X116514114Y-66805171D01*
X116332000Y-66866703D01*
X116078000Y-66866703D01*
X115895886Y-66805171D01*
X115828761Y-66825527D01*
X115617592Y-66920438D01*
X115428997Y-67054722D01*
X115270223Y-67223219D01*
X115147372Y-67419454D01*
X115065165Y-67635885D01*
X114935000Y-67635885D01*
X114935000Y-64008328D01*
X114948769Y-63903743D01*
X114985923Y-63814045D01*
X115045024Y-63737024D01*
X115122045Y-63677923D01*
X115211743Y-63640769D01*
X115316328Y-63627000D01*
X167766672Y-63627000D01*
X167871257Y-63640769D01*
G37*
G04 #@! TD.AperFunction*
M02*
