G04 #@! TF.GenerationSoftware,KiCad,Pcbnew,(5.1.9)-1*
G04 #@! TF.CreationDate,2021-05-08T11:49:02+01:00*
G04 #@! TF.ProjectId,RGBtoHDMI Amiga Denise DIP Breakout FFC,52474274-6f48-4444-9d49-20416d696761,v2++ Rev 2*
G04 #@! TF.SameCoordinates,Original*
G04 #@! TF.FileFunction,Soldermask,Top*
G04 #@! TF.FilePolarity,Negative*
%FSLAX46Y46*%
G04 Gerber Fmt 4.6, Leading zero omitted, Abs format (unit mm)*
G04 Created by KiCad (PCBNEW (5.1.9)-1) date 2021-05-08 11:49:02*
%MOMM*%
%LPD*%
G01*
G04 APERTURE LIST*
%ADD10O,1.900000X1.900000*%
G04 APERTURE END LIST*
G36*
G01*
X171635000Y-88215000D02*
X168635000Y-88215000D01*
G75*
G02*
X168485000Y-88065000I0J150000D01*
G01*
X168485000Y-85565000D01*
G75*
G02*
X168635000Y-85415000I150000J0D01*
G01*
X171635000Y-85415000D01*
G75*
G02*
X171785000Y-85565000I0J-150000D01*
G01*
X171785000Y-88065000D01*
G75*
G02*
X171635000Y-88215000I-150000J0D01*
G01*
G37*
G36*
G01*
X171635000Y-65715000D02*
X168635000Y-65715000D01*
G75*
G02*
X168485000Y-65565000I0J150000D01*
G01*
X168485000Y-63065000D01*
G75*
G02*
X168635000Y-62915000I150000J0D01*
G01*
X171635000Y-62915000D01*
G75*
G02*
X171785000Y-63065000I0J-150000D01*
G01*
X171785000Y-65565000D01*
G75*
G02*
X171635000Y-65715000I-150000J0D01*
G01*
G37*
G36*
G01*
X168685000Y-67515000D02*
X166685000Y-67515000D01*
G75*
G02*
X166535000Y-67365000I0J150000D01*
G01*
X166535000Y-66765000D01*
G75*
G02*
X166685000Y-66615000I150000J0D01*
G01*
X168685000Y-66615000D01*
G75*
G02*
X168835000Y-66765000I0J-150000D01*
G01*
X168835000Y-67365000D01*
G75*
G02*
X168685000Y-67515000I-150000J0D01*
G01*
G37*
G36*
G01*
X168685000Y-68515000D02*
X166685000Y-68515000D01*
G75*
G02*
X166535000Y-68365000I0J150000D01*
G01*
X166535000Y-67765000D01*
G75*
G02*
X166685000Y-67615000I150000J0D01*
G01*
X168685000Y-67615000D01*
G75*
G02*
X168835000Y-67765000I0J-150000D01*
G01*
X168835000Y-68365000D01*
G75*
G02*
X168685000Y-68515000I-150000J0D01*
G01*
G37*
G36*
G01*
X168685000Y-69515000D02*
X166685000Y-69515000D01*
G75*
G02*
X166535000Y-69365000I0J150000D01*
G01*
X166535000Y-68765000D01*
G75*
G02*
X166685000Y-68615000I150000J0D01*
G01*
X168685000Y-68615000D01*
G75*
G02*
X168835000Y-68765000I0J-150000D01*
G01*
X168835000Y-69365000D01*
G75*
G02*
X168685000Y-69515000I-150000J0D01*
G01*
G37*
G36*
G01*
X168685000Y-70515000D02*
X166685000Y-70515000D01*
G75*
G02*
X166535000Y-70365000I0J150000D01*
G01*
X166535000Y-69765000D01*
G75*
G02*
X166685000Y-69615000I150000J0D01*
G01*
X168685000Y-69615000D01*
G75*
G02*
X168835000Y-69765000I0J-150000D01*
G01*
X168835000Y-70365000D01*
G75*
G02*
X168685000Y-70515000I-150000J0D01*
G01*
G37*
G36*
G01*
X168685000Y-71515000D02*
X166685000Y-71515000D01*
G75*
G02*
X166535000Y-71365000I0J150000D01*
G01*
X166535000Y-70765000D01*
G75*
G02*
X166685000Y-70615000I150000J0D01*
G01*
X168685000Y-70615000D01*
G75*
G02*
X168835000Y-70765000I0J-150000D01*
G01*
X168835000Y-71365000D01*
G75*
G02*
X168685000Y-71515000I-150000J0D01*
G01*
G37*
G36*
G01*
X168685000Y-72515000D02*
X166685000Y-72515000D01*
G75*
G02*
X166535000Y-72365000I0J150000D01*
G01*
X166535000Y-71765000D01*
G75*
G02*
X166685000Y-71615000I150000J0D01*
G01*
X168685000Y-71615000D01*
G75*
G02*
X168835000Y-71765000I0J-150000D01*
G01*
X168835000Y-72365000D01*
G75*
G02*
X168685000Y-72515000I-150000J0D01*
G01*
G37*
G36*
G01*
X168685000Y-73515000D02*
X166685000Y-73515000D01*
G75*
G02*
X166535000Y-73365000I0J150000D01*
G01*
X166535000Y-72765000D01*
G75*
G02*
X166685000Y-72615000I150000J0D01*
G01*
X168685000Y-72615000D01*
G75*
G02*
X168835000Y-72765000I0J-150000D01*
G01*
X168835000Y-73365000D01*
G75*
G02*
X168685000Y-73515000I-150000J0D01*
G01*
G37*
G36*
G01*
X168685000Y-74515000D02*
X166685000Y-74515000D01*
G75*
G02*
X166535000Y-74365000I0J150000D01*
G01*
X166535000Y-73765000D01*
G75*
G02*
X166685000Y-73615000I150000J0D01*
G01*
X168685000Y-73615000D01*
G75*
G02*
X168835000Y-73765000I0J-150000D01*
G01*
X168835000Y-74365000D01*
G75*
G02*
X168685000Y-74515000I-150000J0D01*
G01*
G37*
G36*
G01*
X168685000Y-75515000D02*
X166685000Y-75515000D01*
G75*
G02*
X166535000Y-75365000I0J150000D01*
G01*
X166535000Y-74765000D01*
G75*
G02*
X166685000Y-74615000I150000J0D01*
G01*
X168685000Y-74615000D01*
G75*
G02*
X168835000Y-74765000I0J-150000D01*
G01*
X168835000Y-75365000D01*
G75*
G02*
X168685000Y-75515000I-150000J0D01*
G01*
G37*
G36*
G01*
X168685000Y-76515000D02*
X166685000Y-76515000D01*
G75*
G02*
X166535000Y-76365000I0J150000D01*
G01*
X166535000Y-75765000D01*
G75*
G02*
X166685000Y-75615000I150000J0D01*
G01*
X168685000Y-75615000D01*
G75*
G02*
X168835000Y-75765000I0J-150000D01*
G01*
X168835000Y-76365000D01*
G75*
G02*
X168685000Y-76515000I-150000J0D01*
G01*
G37*
G36*
G01*
X168685000Y-77515000D02*
X166685000Y-77515000D01*
G75*
G02*
X166535000Y-77365000I0J150000D01*
G01*
X166535000Y-76765000D01*
G75*
G02*
X166685000Y-76615000I150000J0D01*
G01*
X168685000Y-76615000D01*
G75*
G02*
X168835000Y-76765000I0J-150000D01*
G01*
X168835000Y-77365000D01*
G75*
G02*
X168685000Y-77515000I-150000J0D01*
G01*
G37*
G36*
G01*
X168685000Y-78515000D02*
X166685000Y-78515000D01*
G75*
G02*
X166535000Y-78365000I0J150000D01*
G01*
X166535000Y-77765000D01*
G75*
G02*
X166685000Y-77615000I150000J0D01*
G01*
X168685000Y-77615000D01*
G75*
G02*
X168835000Y-77765000I0J-150000D01*
G01*
X168835000Y-78365000D01*
G75*
G02*
X168685000Y-78515000I-150000J0D01*
G01*
G37*
G36*
G01*
X168685000Y-79515000D02*
X166685000Y-79515000D01*
G75*
G02*
X166535000Y-79365000I0J150000D01*
G01*
X166535000Y-78765000D01*
G75*
G02*
X166685000Y-78615000I150000J0D01*
G01*
X168685000Y-78615000D01*
G75*
G02*
X168835000Y-78765000I0J-150000D01*
G01*
X168835000Y-79365000D01*
G75*
G02*
X168685000Y-79515000I-150000J0D01*
G01*
G37*
G36*
G01*
X168685000Y-80515000D02*
X166685000Y-80515000D01*
G75*
G02*
X166535000Y-80365000I0J150000D01*
G01*
X166535000Y-79765000D01*
G75*
G02*
X166685000Y-79615000I150000J0D01*
G01*
X168685000Y-79615000D01*
G75*
G02*
X168835000Y-79765000I0J-150000D01*
G01*
X168835000Y-80365000D01*
G75*
G02*
X168685000Y-80515000I-150000J0D01*
G01*
G37*
G36*
G01*
X168685000Y-81515000D02*
X166685000Y-81515000D01*
G75*
G02*
X166535000Y-81365000I0J150000D01*
G01*
X166535000Y-80765000D01*
G75*
G02*
X166685000Y-80615000I150000J0D01*
G01*
X168685000Y-80615000D01*
G75*
G02*
X168835000Y-80765000I0J-150000D01*
G01*
X168835000Y-81365000D01*
G75*
G02*
X168685000Y-81515000I-150000J0D01*
G01*
G37*
G36*
G01*
X168685000Y-82515000D02*
X166685000Y-82515000D01*
G75*
G02*
X166535000Y-82365000I0J150000D01*
G01*
X166535000Y-81765000D01*
G75*
G02*
X166685000Y-81615000I150000J0D01*
G01*
X168685000Y-81615000D01*
G75*
G02*
X168835000Y-81765000I0J-150000D01*
G01*
X168835000Y-82365000D01*
G75*
G02*
X168685000Y-82515000I-150000J0D01*
G01*
G37*
G36*
G01*
X168685000Y-83515000D02*
X166685000Y-83515000D01*
G75*
G02*
X166535000Y-83365000I0J150000D01*
G01*
X166535000Y-82765000D01*
G75*
G02*
X166685000Y-82615000I150000J0D01*
G01*
X168685000Y-82615000D01*
G75*
G02*
X168835000Y-82765000I0J-150000D01*
G01*
X168835000Y-83365000D01*
G75*
G02*
X168685000Y-83515000I-150000J0D01*
G01*
G37*
G36*
G01*
X168685000Y-84515000D02*
X166685000Y-84515000D01*
G75*
G02*
X166535000Y-84365000I0J150000D01*
G01*
X166535000Y-83765000D01*
G75*
G02*
X166685000Y-83615000I150000J0D01*
G01*
X168685000Y-83615000D01*
G75*
G02*
X168835000Y-83765000I0J-150000D01*
G01*
X168835000Y-84365000D01*
G75*
G02*
X168685000Y-84515000I-150000J0D01*
G01*
G37*
D10*
X103505000Y-85725000D03*
X106045000Y-85725000D03*
X108585000Y-85725000D03*
X111125000Y-85725000D03*
X113665000Y-85725000D03*
X116205000Y-85725000D03*
X118745000Y-85725000D03*
X121285000Y-85725000D03*
X123825000Y-85725000D03*
X126365000Y-85725000D03*
X128905000Y-85725000D03*
X131445000Y-85725000D03*
X133985000Y-85725000D03*
X136525000Y-85725000D03*
X139065000Y-85725000D03*
X141605000Y-85725000D03*
X144145000Y-85725000D03*
X146685000Y-85725000D03*
X149225000Y-85725000D03*
X151765000Y-85725000D03*
X154305000Y-85725000D03*
X156845000Y-85725000D03*
X159385000Y-85725000D03*
G36*
G01*
X162725000Y-86675000D02*
X161125000Y-86675000D01*
G75*
G02*
X160975000Y-86525000I0J150000D01*
G01*
X160975000Y-84925000D01*
G75*
G02*
X161125000Y-84775000I150000J0D01*
G01*
X162725000Y-84775000D01*
G75*
G02*
X162875000Y-84925000I0J-150000D01*
G01*
X162875000Y-86525000D01*
G75*
G02*
X162725000Y-86675000I-150000J0D01*
G01*
G37*
X103505000Y-70485000D03*
X106045000Y-70485000D03*
X108585000Y-70485000D03*
X111125000Y-70485000D03*
X113665000Y-70485000D03*
X116205000Y-70485000D03*
X118745000Y-70485000D03*
X121285000Y-70485000D03*
X123825000Y-70485000D03*
X126365000Y-70485000D03*
X128905000Y-70485000D03*
X131445000Y-70485000D03*
X133985000Y-70485000D03*
X136525000Y-70485000D03*
X139065000Y-70485000D03*
X141605000Y-70485000D03*
X144145000Y-70485000D03*
X146685000Y-70485000D03*
X149225000Y-70485000D03*
X151765000Y-70485000D03*
X154305000Y-70485000D03*
X156845000Y-70485000D03*
X159385000Y-70485000D03*
G36*
G01*
X162725000Y-71435000D02*
X161125000Y-71435000D01*
G75*
G02*
X160975000Y-71285000I0J150000D01*
G01*
X160975000Y-69685000D01*
G75*
G02*
X161125000Y-69535000I150000J0D01*
G01*
X162725000Y-69535000D01*
G75*
G02*
X162875000Y-69685000I0J-150000D01*
G01*
X162875000Y-71285000D01*
G75*
G02*
X162725000Y-71435000I-150000J0D01*
G01*
G37*
G36*
G01*
X161125000Y-66995000D02*
X162725000Y-66995000D01*
G75*
G02*
X162875000Y-67145000I0J-150000D01*
G01*
X162875000Y-68745000D01*
G75*
G02*
X162725000Y-68895000I-150000J0D01*
G01*
X161125000Y-68895000D01*
G75*
G02*
X160975000Y-68745000I0J150000D01*
G01*
X160975000Y-67145000D01*
G75*
G02*
X161125000Y-66995000I150000J0D01*
G01*
G37*
X133985000Y-83185000D03*
X159385000Y-67945000D03*
X136525000Y-83185000D03*
X156845000Y-67945000D03*
X139065000Y-83185000D03*
X154305000Y-67945000D03*
X141605000Y-83185000D03*
X151765000Y-67945000D03*
X144145000Y-83185000D03*
X149225000Y-67945000D03*
X146685000Y-83185000D03*
X146685000Y-67945000D03*
X149225000Y-83185000D03*
X144145000Y-67945000D03*
X151765000Y-83185000D03*
X141605000Y-67945000D03*
X154305000Y-83185000D03*
X139065000Y-67945000D03*
X156845000Y-83185000D03*
X136525000Y-67945000D03*
X159385000Y-83185000D03*
X133985000Y-67945000D03*
X161925000Y-83185000D03*
G36*
G01*
X130645000Y-66995000D02*
X132245000Y-66995000D01*
G75*
G02*
X132395000Y-67145000I0J-150000D01*
G01*
X132395000Y-68745000D01*
G75*
G02*
X132245000Y-68895000I-150000J0D01*
G01*
X130645000Y-68895000D01*
G75*
G02*
X130495000Y-68745000I0J150000D01*
G01*
X130495000Y-67145000D01*
G75*
G02*
X130645000Y-66995000I150000J0D01*
G01*
G37*
X103505000Y-83185000D03*
X128905000Y-67945000D03*
X106045000Y-83185000D03*
X126365000Y-67945000D03*
X108585000Y-83185000D03*
X123825000Y-67945000D03*
X111125000Y-83185000D03*
X121285000Y-67945000D03*
X113665000Y-83185000D03*
X118745000Y-67945000D03*
X116205000Y-83185000D03*
X116205000Y-67945000D03*
X118745000Y-83185000D03*
X113665000Y-67945000D03*
X121285000Y-83185000D03*
X111125000Y-67945000D03*
X123825000Y-83185000D03*
X108585000Y-67945000D03*
X126365000Y-83185000D03*
X106045000Y-67945000D03*
X128905000Y-83185000D03*
X103505000Y-67945000D03*
X131445000Y-83185000D03*
M02*
