M48
INCH,TZ
T1C0.0157
T2C0.0236
T3C0.0315
T4C0.0394
%
G90
G05
T1
X45550Y-25500
X45550Y-26500
X45550Y-27500
X45550Y-28500
X45550Y-29500
X45550Y-30500
X45550Y-31500
X45550Y-32500
X45550Y-33500
X45550Y-34500
X45550Y-37500
X45550Y-38500
X45550Y-39500
X45550Y-40500
X45550Y-41500
X45550Y-42500
X45550Y-43500
X45550Y-44500
X45550Y-45500
X45550Y-46500
X47500Y-28500
X47500Y-38500
X47850Y-36850
X47850Y-42050
X48000Y-47500
X48100Y-40800
X48100Y-46200
X48400Y-34150
X48450Y-30850
X48500Y-36800
X48544Y-33006
X48556Y-32510
X48600Y-27900
X48600Y-29550
X48700Y-39050
X48750Y-31720
X48845Y-38030
X48850Y-43600
X49000Y-47500
X49050Y-36700
X49150Y-32100
X49400Y-44650
X49500Y-38350
X49550Y-38850
X49600Y-31900
X49700Y-29700
X49750Y-39400
X49850Y-33650
X49900Y-45900
X49950Y-33000
X50000Y-47500
X50035Y-36850
X50050Y-27900
X50225Y-34000
X50500Y-27900
X50900Y-27850
X51000Y-41815
X51000Y-42250
X51000Y-46350
X51000Y-47500
X51100Y-40850
X51223Y-39573
X51298Y-44548
X51300Y-28800
X51341Y-30041
X51355Y-45171
X51450Y-33350
X52500Y-22250
X52500Y-32500
X52500Y-35500
X52500Y-37500
X52500Y-47500
X53473Y-36423
X53500Y-47500
X53650Y-22500
X53654Y-40500
X53654Y-42500
X54500Y-44604
X54900Y-22950
X55000Y-46000
X55000Y-47000
X55050Y-23350
T2
X48750Y-24450
X50500Y-31200
X50500Y-37400
X50500Y-42900
X51015Y-34365
T3
X46000Y-24000
X46000Y-25000
X46000Y-26000
X46000Y-27000
X46000Y-28000
X46000Y-29000
X46000Y-30000
X46000Y-31000
X46000Y-32000
X46000Y-33000
X46000Y-34000
X46000Y-35000
X46000Y-36000
X46000Y-37000
X46000Y-38000
X46000Y-39000
X46000Y-40000
X46000Y-41000
X46000Y-42000
X46000Y-43000
X46000Y-44000
X46000Y-45000
X46000Y-46000
X46000Y-47000
X47000Y-24000
X47000Y-25000
X47000Y-26000
X47000Y-27000
X47000Y-28000
X47000Y-29000
X47000Y-30000
X47000Y-31000
X47000Y-32000
X47000Y-33000
X47000Y-34000
X47000Y-35000
X47000Y-36000
X47000Y-37000
X47000Y-38000
X47000Y-39000
X47000Y-40000
X47000Y-41000
X47000Y-42000
X47000Y-43000
X47000Y-44000
X47000Y-45000
X47000Y-46000
X47000Y-47000
X52000Y-24000
X52000Y-25000
X52000Y-26000
X52000Y-27000
X52000Y-28000
X52000Y-29000
X52000Y-30000
X52000Y-31000
X52000Y-32000
X52000Y-33000
X52000Y-34000
X52000Y-35000
X52000Y-36000
X52000Y-37000
X52000Y-38000
X52000Y-39000
X52000Y-40000
X52000Y-41000
X52000Y-42000
X52000Y-43000
X52000Y-44000
X52000Y-45000
X52000Y-46000
X52000Y-47000
X53000Y-24000
X53000Y-25000
X53000Y-26000
X53000Y-27000
X53000Y-28000
X53000Y-29000
X53000Y-30000
X53000Y-31000
X53000Y-32000
X53000Y-33000
X53000Y-34000
X53000Y-35000
X53000Y-36000
X53000Y-37000
X53000Y-38000
X53000Y-39000
X53000Y-40000
X53000Y-41000
X53000Y-42000
X53000Y-43000
X53000Y-44000
X53000Y-45000
X53000Y-46000
X53000Y-47000
T4
X48000Y-23000
X48000Y-35000
X48000Y-36000
X49000Y-23000
X49000Y-35000
X49000Y-36000
X50000Y-23000
X50000Y-35000
X50000Y-36000
X51000Y-23000
X52000Y-23000
X53000Y-23000
X54000Y-26000
X54000Y-27000
X54000Y-28000
X54000Y-29000
X54000Y-30000
X54000Y-31000
X54000Y-32000
X54000Y-33000
X54000Y-34000
X54000Y-35000
X54000Y-36000
X54000Y-37000
X54000Y-38000
X54000Y-39000
X54000Y-40000
X54000Y-41000
X54000Y-42000
X54000Y-43000
X54000Y-44000
X54000Y-45000
X54000Y-46000
X54000Y-47000
X55000Y-26000
X55000Y-27000
X55000Y-28000
X55000Y-29000
X55000Y-30000
X55000Y-31000
X55000Y-32000
X55000Y-33000
X55000Y-34000
X55000Y-35000
X55000Y-36000
X55000Y-37000
X55000Y-38000
X55000Y-39000
X55000Y-40000
X55000Y-41000
X55000Y-42000
X55000Y-43000
X55000Y-44000
X55000Y-45000
T0
M30
