G04 #@! TF.GenerationSoftware,KiCad,Pcbnew,(5.1.9)-1*
G04 #@! TF.CreationDate,2021-03-21T08:29:29+00:00*
G04 #@! TF.ProjectId,RGBtoHDMI Amiga Denise - v2++ by solarmon,52474274-6f48-4444-9d49-20416d696761,v2++*
G04 #@! TF.SameCoordinates,Original*
G04 #@! TF.FileFunction,Soldermask,Top*
G04 #@! TF.FilePolarity,Negative*
%FSLAX46Y46*%
G04 Gerber Fmt 4.6, Leading zero omitted, Abs format (unit mm)*
G04 Created by KiCad (PCBNEW (5.1.9)-1) date 2021-03-21 08:29:29*
%MOMM*%
%LPD*%
G01*
G04 APERTURE LIST*
%ADD10O,1.900000X1.900000*%
%ADD11O,2.000000X2.000000*%
G04 APERTURE END LIST*
D10*
X134620000Y-119380000D03*
X134620000Y-116840000D03*
X134620000Y-114300000D03*
X134620000Y-111760000D03*
X134620000Y-109220000D03*
X134620000Y-106680000D03*
X134620000Y-104140000D03*
X134620000Y-101600000D03*
X134620000Y-99060000D03*
X134620000Y-96520000D03*
X134620000Y-93980000D03*
X134620000Y-91440000D03*
X134620000Y-88900000D03*
X134620000Y-86360000D03*
X134620000Y-83820000D03*
X134620000Y-81280000D03*
X134620000Y-78740000D03*
X134620000Y-76200000D03*
X134620000Y-73660000D03*
X134620000Y-71120000D03*
X134620000Y-68580000D03*
X134620000Y-66040000D03*
X134620000Y-63500000D03*
G36*
G01*
X135570000Y-60160000D02*
X135570000Y-61760000D01*
G75*
G02*
X135420000Y-61910000I-150000J0D01*
G01*
X133820000Y-61910000D01*
G75*
G02*
X133670000Y-61760000I0J150000D01*
G01*
X133670000Y-60160000D01*
G75*
G02*
X133820000Y-60010000I150000J0D01*
G01*
X135420000Y-60010000D01*
G75*
G02*
X135570000Y-60160000I0J-150000D01*
G01*
G37*
X119380000Y-119380000D03*
X119380000Y-116840000D03*
X119380000Y-114300000D03*
X119380000Y-111760000D03*
X119380000Y-109220000D03*
X119380000Y-106680000D03*
X119380000Y-104140000D03*
X119380000Y-101600000D03*
X119380000Y-99060000D03*
X119380000Y-96520000D03*
X119380000Y-93980000D03*
X119380000Y-91440000D03*
X119380000Y-88900000D03*
X119380000Y-86360000D03*
X119380000Y-83820000D03*
X119380000Y-81280000D03*
X119380000Y-78740000D03*
X119380000Y-76200000D03*
X119380000Y-73660000D03*
X119380000Y-71120000D03*
X119380000Y-68580000D03*
X119380000Y-66040000D03*
X119380000Y-63500000D03*
G36*
G01*
X120330000Y-60160000D02*
X120330000Y-61760000D01*
G75*
G02*
X120180000Y-61910000I-150000J0D01*
G01*
X118580000Y-61910000D01*
G75*
G02*
X118430000Y-61760000I0J150000D01*
G01*
X118430000Y-60160000D01*
G75*
G02*
X118580000Y-60010000I150000J0D01*
G01*
X120180000Y-60010000D01*
G75*
G02*
X120330000Y-60160000I0J-150000D01*
G01*
G37*
D11*
X134620000Y-58420000D03*
X132080000Y-58420000D03*
X129540000Y-58420000D03*
X127000000Y-58420000D03*
X124460000Y-58420000D03*
G36*
G01*
X122770000Y-59420000D02*
X121070000Y-59420000D01*
G75*
G02*
X120920000Y-59270000I0J150000D01*
G01*
X120920000Y-57570000D01*
G75*
G02*
X121070000Y-57420000I150000J0D01*
G01*
X122770000Y-57420000D01*
G75*
G02*
X122920000Y-57570000I0J-150000D01*
G01*
X122920000Y-59270000D01*
G75*
G02*
X122770000Y-59420000I-150000J0D01*
G01*
G37*
G36*
G01*
X139255000Y-59640000D02*
X140305000Y-59640000D01*
G75*
G02*
X140375000Y-59710000I0J-70000D01*
G01*
X140375000Y-60310000D01*
G75*
G02*
X140305000Y-60380000I-70000J0D01*
G01*
X139255000Y-60380000D01*
G75*
G02*
X139185000Y-60310000I0J70000D01*
G01*
X139185000Y-59710000D01*
G75*
G02*
X139255000Y-59640000I70000J0D01*
G01*
G37*
G36*
G01*
X139255000Y-61540000D02*
X140305000Y-61540000D01*
G75*
G02*
X140375000Y-61610000I0J-70000D01*
G01*
X140375000Y-62210000D01*
G75*
G02*
X140305000Y-62280000I-70000J0D01*
G01*
X139255000Y-62280000D01*
G75*
G02*
X139185000Y-62210000I0J70000D01*
G01*
X139185000Y-61610000D01*
G75*
G02*
X139255000Y-61540000I70000J0D01*
G01*
G37*
G36*
G01*
X136555000Y-61540000D02*
X137605000Y-61540000D01*
G75*
G02*
X137675000Y-61610000I0J-70000D01*
G01*
X137675000Y-62210000D01*
G75*
G02*
X137605000Y-62280000I-70000J0D01*
G01*
X136555000Y-62280000D01*
G75*
G02*
X136485000Y-62210000I0J70000D01*
G01*
X136485000Y-61610000D01*
G75*
G02*
X136555000Y-61540000I70000J0D01*
G01*
G37*
G36*
G01*
X136555000Y-60590000D02*
X137605000Y-60590000D01*
G75*
G02*
X137675000Y-60660000I0J-70000D01*
G01*
X137675000Y-61260000D01*
G75*
G02*
X137605000Y-61330000I-70000J0D01*
G01*
X136555000Y-61330000D01*
G75*
G02*
X136485000Y-61260000I0J70000D01*
G01*
X136485000Y-60660000D01*
G75*
G02*
X136555000Y-60590000I70000J0D01*
G01*
G37*
G36*
G01*
X136555000Y-59640000D02*
X137605000Y-59640000D01*
G75*
G02*
X137675000Y-59710000I0J-70000D01*
G01*
X137675000Y-60310000D01*
G75*
G02*
X137605000Y-60380000I-70000J0D01*
G01*
X136555000Y-60380000D01*
G75*
G02*
X136485000Y-60310000I0J70000D01*
G01*
X136485000Y-59710000D01*
G75*
G02*
X136555000Y-59640000I70000J0D01*
G01*
G37*
G36*
G01*
X118390784Y-56596000D02*
X117321216Y-56596000D01*
G75*
G02*
X117006000Y-56280784I0J315216D01*
G01*
X117006000Y-55461216D01*
G75*
G02*
X117321216Y-55146000I315216J0D01*
G01*
X118390784Y-55146000D01*
G75*
G02*
X118706000Y-55461216I0J-315216D01*
G01*
X118706000Y-56280784D01*
G75*
G02*
X118390784Y-56596000I-315216J0D01*
G01*
G37*
G36*
G01*
X118390784Y-58646000D02*
X117321216Y-58646000D01*
G75*
G02*
X117006000Y-58330784I0J315216D01*
G01*
X117006000Y-57511216D01*
G75*
G02*
X117321216Y-57196000I315216J0D01*
G01*
X118390784Y-57196000D01*
G75*
G02*
X118706000Y-57511216I0J-315216D01*
G01*
X118706000Y-58330784D01*
G75*
G02*
X118390784Y-58646000I-315216J0D01*
G01*
G37*
G36*
G01*
X138130000Y-56615216D02*
X138130000Y-57684784D01*
G75*
G02*
X137814784Y-58000000I-315216J0D01*
G01*
X136995216Y-58000000D01*
G75*
G02*
X136680000Y-57684784I0J315216D01*
G01*
X136680000Y-56615216D01*
G75*
G02*
X136995216Y-56300000I315216J0D01*
G01*
X137814784Y-56300000D01*
G75*
G02*
X138130000Y-56615216I0J-315216D01*
G01*
G37*
G36*
G01*
X140180000Y-56615216D02*
X140180000Y-57684784D01*
G75*
G02*
X139864784Y-58000000I-315216J0D01*
G01*
X139045216Y-58000000D01*
G75*
G02*
X138730000Y-57684784I0J315216D01*
G01*
X138730000Y-56615216D01*
G75*
G02*
X139045216Y-56300000I315216J0D01*
G01*
X139864784Y-56300000D01*
G75*
G02*
X140180000Y-56615216I0J-315216D01*
G01*
G37*
G36*
G01*
X123978784Y-72725000D02*
X122909216Y-72725000D01*
G75*
G02*
X122594000Y-72409784I0J315216D01*
G01*
X122594000Y-71590216D01*
G75*
G02*
X122909216Y-71275000I315216J0D01*
G01*
X123978784Y-71275000D01*
G75*
G02*
X124294000Y-71590216I0J-315216D01*
G01*
X124294000Y-72409784D01*
G75*
G02*
X123978784Y-72725000I-315216J0D01*
G01*
G37*
G36*
G01*
X123978784Y-74775000D02*
X122909216Y-74775000D01*
G75*
G02*
X122594000Y-74459784I0J315216D01*
G01*
X122594000Y-73640216D01*
G75*
G02*
X122909216Y-73325000I315216J0D01*
G01*
X123978784Y-73325000D01*
G75*
G02*
X124294000Y-73640216I0J-315216D01*
G01*
X124294000Y-74459784D01*
G75*
G02*
X123978784Y-74775000I-315216J0D01*
G01*
G37*
G36*
G01*
X125141000Y-66574784D02*
X125141000Y-65505216D01*
G75*
G02*
X125456216Y-65190000I315216J0D01*
G01*
X126275784Y-65190000D01*
G75*
G02*
X126591000Y-65505216I0J-315216D01*
G01*
X126591000Y-66574784D01*
G75*
G02*
X126275784Y-66890000I-315216J0D01*
G01*
X125456216Y-66890000D01*
G75*
G02*
X125141000Y-66574784I0J315216D01*
G01*
G37*
G36*
G01*
X123091000Y-66574784D02*
X123091000Y-65505216D01*
G75*
G02*
X123406216Y-65190000I315216J0D01*
G01*
X124225784Y-65190000D01*
G75*
G02*
X124541000Y-65505216I0J-315216D01*
G01*
X124541000Y-66574784D01*
G75*
G02*
X124225784Y-66890000I-315216J0D01*
G01*
X123406216Y-66890000D01*
G75*
G02*
X123091000Y-66574784I0J315216D01*
G01*
G37*
G36*
G01*
X124421000Y-68509000D02*
X124421000Y-69159000D01*
G75*
G02*
X124271000Y-69309000I-150000J0D01*
G01*
X122711000Y-69309000D01*
G75*
G02*
X122561000Y-69159000I0J150000D01*
G01*
X122561000Y-68509000D01*
G75*
G02*
X122711000Y-68359000I150000J0D01*
G01*
X124271000Y-68359000D01*
G75*
G02*
X124421000Y-68509000I0J-150000D01*
G01*
G37*
G36*
G01*
X124421000Y-69459000D02*
X124421000Y-70109000D01*
G75*
G02*
X124271000Y-70259000I-150000J0D01*
G01*
X122711000Y-70259000D01*
G75*
G02*
X122561000Y-70109000I0J150000D01*
G01*
X122561000Y-69459000D01*
G75*
G02*
X122711000Y-69309000I150000J0D01*
G01*
X124271000Y-69309000D01*
G75*
G02*
X124421000Y-69459000I0J-150000D01*
G01*
G37*
G36*
G01*
X124421000Y-67559000D02*
X124421000Y-68209000D01*
G75*
G02*
X124271000Y-68359000I-150000J0D01*
G01*
X122711000Y-68359000D01*
G75*
G02*
X122561000Y-68209000I0J150000D01*
G01*
X122561000Y-67559000D01*
G75*
G02*
X122711000Y-67409000I150000J0D01*
G01*
X124271000Y-67409000D01*
G75*
G02*
X124421000Y-67559000I0J-150000D01*
G01*
G37*
G36*
G01*
X127121000Y-67559000D02*
X127121000Y-68209000D01*
G75*
G02*
X126971000Y-68359000I-150000J0D01*
G01*
X125411000Y-68359000D01*
G75*
G02*
X125261000Y-68209000I0J150000D01*
G01*
X125261000Y-67559000D01*
G75*
G02*
X125411000Y-67409000I150000J0D01*
G01*
X126971000Y-67409000D01*
G75*
G02*
X127121000Y-67559000I0J-150000D01*
G01*
G37*
G36*
G01*
X127121000Y-68509000D02*
X127121000Y-69159000D01*
G75*
G02*
X126971000Y-69309000I-150000J0D01*
G01*
X125411000Y-69309000D01*
G75*
G02*
X125261000Y-69159000I0J150000D01*
G01*
X125261000Y-68509000D01*
G75*
G02*
X125411000Y-68359000I150000J0D01*
G01*
X126971000Y-68359000D01*
G75*
G02*
X127121000Y-68509000I0J-150000D01*
G01*
G37*
G36*
G01*
X127121000Y-69459000D02*
X127121000Y-70109000D01*
G75*
G02*
X126971000Y-70259000I-150000J0D01*
G01*
X125411000Y-70259000D01*
G75*
G02*
X125261000Y-70109000I0J150000D01*
G01*
X125261000Y-69459000D01*
G75*
G02*
X125411000Y-69309000I150000J0D01*
G01*
X126971000Y-69309000D01*
G75*
G02*
X127121000Y-69459000I0J-150000D01*
G01*
G37*
X121920000Y-88900000D03*
X124460000Y-88900000D03*
G36*
G01*
X127850000Y-89900000D02*
X126150000Y-89900000D01*
G75*
G02*
X126000000Y-89750000I0J150000D01*
G01*
X126000000Y-88050000D01*
G75*
G02*
X126150000Y-87900000I150000J0D01*
G01*
X127850000Y-87900000D01*
G75*
G02*
X128000000Y-88050000I0J-150000D01*
G01*
X128000000Y-89750000D01*
G75*
G02*
X127850000Y-89900000I-150000J0D01*
G01*
G37*
G36*
G01*
X124795000Y-108431216D02*
X124795000Y-109500784D01*
G75*
G02*
X124479784Y-109816000I-315216J0D01*
G01*
X123660216Y-109816000D01*
G75*
G02*
X123345000Y-109500784I0J315216D01*
G01*
X123345000Y-108431216D01*
G75*
G02*
X123660216Y-108116000I315216J0D01*
G01*
X124479784Y-108116000D01*
G75*
G02*
X124795000Y-108431216I0J-315216D01*
G01*
G37*
G36*
G01*
X126845000Y-108431216D02*
X126845000Y-109500784D01*
G75*
G02*
X126529784Y-109816000I-315216J0D01*
G01*
X125710216Y-109816000D01*
G75*
G02*
X125395000Y-109500784I0J315216D01*
G01*
X125395000Y-108431216D01*
G75*
G02*
X125710216Y-108116000I315216J0D01*
G01*
X126529784Y-108116000D01*
G75*
G02*
X126845000Y-108431216I0J-315216D01*
G01*
G37*
G36*
G01*
X124795000Y-94461216D02*
X124795000Y-95530784D01*
G75*
G02*
X124479784Y-95846000I-315216J0D01*
G01*
X123660216Y-95846000D01*
G75*
G02*
X123345000Y-95530784I0J315216D01*
G01*
X123345000Y-94461216D01*
G75*
G02*
X123660216Y-94146000I315216J0D01*
G01*
X124479784Y-94146000D01*
G75*
G02*
X124795000Y-94461216I0J-315216D01*
G01*
G37*
G36*
G01*
X126845000Y-94461216D02*
X126845000Y-95530784D01*
G75*
G02*
X126529784Y-95846000I-315216J0D01*
G01*
X125710216Y-95846000D01*
G75*
G02*
X125395000Y-95530784I0J315216D01*
G01*
X125395000Y-94461216D01*
G75*
G02*
X125710216Y-94146000I315216J0D01*
G01*
X126529784Y-94146000D01*
G75*
G02*
X126845000Y-94461216I0J-315216D01*
G01*
G37*
G36*
G01*
X124550000Y-78713216D02*
X124550000Y-79782784D01*
G75*
G02*
X124234784Y-80098000I-315216J0D01*
G01*
X123415216Y-80098000D01*
G75*
G02*
X123100000Y-79782784I0J315216D01*
G01*
X123100000Y-78713216D01*
G75*
G02*
X123415216Y-78398000I315216J0D01*
G01*
X124234784Y-78398000D01*
G75*
G02*
X124550000Y-78713216I0J-315216D01*
G01*
G37*
G36*
G01*
X126600000Y-78713216D02*
X126600000Y-79782784D01*
G75*
G02*
X126284784Y-80098000I-315216J0D01*
G01*
X125465216Y-80098000D01*
G75*
G02*
X125150000Y-79782784I0J315216D01*
G01*
X125150000Y-78713216D01*
G75*
G02*
X125465216Y-78398000I315216J0D01*
G01*
X126284784Y-78398000D01*
G75*
G02*
X126600000Y-78713216I0J-315216D01*
G01*
G37*
G36*
G01*
X121270000Y-81460000D02*
X121270000Y-81010000D01*
G75*
G02*
X121420000Y-80860000I150000J0D01*
G01*
X122870000Y-80860000D01*
G75*
G02*
X123020000Y-81010000I0J-150000D01*
G01*
X123020000Y-81460000D01*
G75*
G02*
X122870000Y-81610000I-150000J0D01*
G01*
X121420000Y-81610000D01*
G75*
G02*
X121270000Y-81460000I0J150000D01*
G01*
G37*
G36*
G01*
X121270000Y-82110000D02*
X121270000Y-81660000D01*
G75*
G02*
X121420000Y-81510000I150000J0D01*
G01*
X122870000Y-81510000D01*
G75*
G02*
X123020000Y-81660000I0J-150000D01*
G01*
X123020000Y-82110000D01*
G75*
G02*
X122870000Y-82260000I-150000J0D01*
G01*
X121420000Y-82260000D01*
G75*
G02*
X121270000Y-82110000I0J150000D01*
G01*
G37*
G36*
G01*
X121270000Y-82760000D02*
X121270000Y-82310000D01*
G75*
G02*
X121420000Y-82160000I150000J0D01*
G01*
X122870000Y-82160000D01*
G75*
G02*
X123020000Y-82310000I0J-150000D01*
G01*
X123020000Y-82760000D01*
G75*
G02*
X122870000Y-82910000I-150000J0D01*
G01*
X121420000Y-82910000D01*
G75*
G02*
X121270000Y-82760000I0J150000D01*
G01*
G37*
G36*
G01*
X121270000Y-83410000D02*
X121270000Y-82960000D01*
G75*
G02*
X121420000Y-82810000I150000J0D01*
G01*
X122870000Y-82810000D01*
G75*
G02*
X123020000Y-82960000I0J-150000D01*
G01*
X123020000Y-83410000D01*
G75*
G02*
X122870000Y-83560000I-150000J0D01*
G01*
X121420000Y-83560000D01*
G75*
G02*
X121270000Y-83410000I0J150000D01*
G01*
G37*
G36*
G01*
X121270000Y-84060000D02*
X121270000Y-83610000D01*
G75*
G02*
X121420000Y-83460000I150000J0D01*
G01*
X122870000Y-83460000D01*
G75*
G02*
X123020000Y-83610000I0J-150000D01*
G01*
X123020000Y-84060000D01*
G75*
G02*
X122870000Y-84210000I-150000J0D01*
G01*
X121420000Y-84210000D01*
G75*
G02*
X121270000Y-84060000I0J150000D01*
G01*
G37*
G36*
G01*
X121270000Y-84710000D02*
X121270000Y-84260000D01*
G75*
G02*
X121420000Y-84110000I150000J0D01*
G01*
X122870000Y-84110000D01*
G75*
G02*
X123020000Y-84260000I0J-150000D01*
G01*
X123020000Y-84710000D01*
G75*
G02*
X122870000Y-84860000I-150000J0D01*
G01*
X121420000Y-84860000D01*
G75*
G02*
X121270000Y-84710000I0J150000D01*
G01*
G37*
G36*
G01*
X121270000Y-85360000D02*
X121270000Y-84910000D01*
G75*
G02*
X121420000Y-84760000I150000J0D01*
G01*
X122870000Y-84760000D01*
G75*
G02*
X123020000Y-84910000I0J-150000D01*
G01*
X123020000Y-85360000D01*
G75*
G02*
X122870000Y-85510000I-150000J0D01*
G01*
X121420000Y-85510000D01*
G75*
G02*
X121270000Y-85360000I0J150000D01*
G01*
G37*
G36*
G01*
X127170000Y-85360000D02*
X127170000Y-84910000D01*
G75*
G02*
X127320000Y-84760000I150000J0D01*
G01*
X128770000Y-84760000D01*
G75*
G02*
X128920000Y-84910000I0J-150000D01*
G01*
X128920000Y-85360000D01*
G75*
G02*
X128770000Y-85510000I-150000J0D01*
G01*
X127320000Y-85510000D01*
G75*
G02*
X127170000Y-85360000I0J150000D01*
G01*
G37*
G36*
G01*
X127170000Y-84710000D02*
X127170000Y-84260000D01*
G75*
G02*
X127320000Y-84110000I150000J0D01*
G01*
X128770000Y-84110000D01*
G75*
G02*
X128920000Y-84260000I0J-150000D01*
G01*
X128920000Y-84710000D01*
G75*
G02*
X128770000Y-84860000I-150000J0D01*
G01*
X127320000Y-84860000D01*
G75*
G02*
X127170000Y-84710000I0J150000D01*
G01*
G37*
G36*
G01*
X127170000Y-84060000D02*
X127170000Y-83610000D01*
G75*
G02*
X127320000Y-83460000I150000J0D01*
G01*
X128770000Y-83460000D01*
G75*
G02*
X128920000Y-83610000I0J-150000D01*
G01*
X128920000Y-84060000D01*
G75*
G02*
X128770000Y-84210000I-150000J0D01*
G01*
X127320000Y-84210000D01*
G75*
G02*
X127170000Y-84060000I0J150000D01*
G01*
G37*
G36*
G01*
X127170000Y-83410000D02*
X127170000Y-82960000D01*
G75*
G02*
X127320000Y-82810000I150000J0D01*
G01*
X128770000Y-82810000D01*
G75*
G02*
X128920000Y-82960000I0J-150000D01*
G01*
X128920000Y-83410000D01*
G75*
G02*
X128770000Y-83560000I-150000J0D01*
G01*
X127320000Y-83560000D01*
G75*
G02*
X127170000Y-83410000I0J150000D01*
G01*
G37*
G36*
G01*
X127170000Y-82760000D02*
X127170000Y-82310000D01*
G75*
G02*
X127320000Y-82160000I150000J0D01*
G01*
X128770000Y-82160000D01*
G75*
G02*
X128920000Y-82310000I0J-150000D01*
G01*
X128920000Y-82760000D01*
G75*
G02*
X128770000Y-82910000I-150000J0D01*
G01*
X127320000Y-82910000D01*
G75*
G02*
X127170000Y-82760000I0J150000D01*
G01*
G37*
G36*
G01*
X127170000Y-82110000D02*
X127170000Y-81660000D01*
G75*
G02*
X127320000Y-81510000I150000J0D01*
G01*
X128770000Y-81510000D01*
G75*
G02*
X128920000Y-81660000I0J-150000D01*
G01*
X128920000Y-82110000D01*
G75*
G02*
X128770000Y-82260000I-150000J0D01*
G01*
X127320000Y-82260000D01*
G75*
G02*
X127170000Y-82110000I0J150000D01*
G01*
G37*
G36*
G01*
X127170000Y-81460000D02*
X127170000Y-81010000D01*
G75*
G02*
X127320000Y-80860000I150000J0D01*
G01*
X128770000Y-80860000D01*
G75*
G02*
X128920000Y-81010000I0J-150000D01*
G01*
X128920000Y-81460000D01*
G75*
G02*
X128770000Y-81610000I-150000J0D01*
G01*
X127320000Y-81610000D01*
G75*
G02*
X127170000Y-81460000I0J150000D01*
G01*
G37*
G36*
G01*
X127170000Y-96995000D02*
X127170000Y-96545000D01*
G75*
G02*
X127320000Y-96395000I150000J0D01*
G01*
X128770000Y-96395000D01*
G75*
G02*
X128920000Y-96545000I0J-150000D01*
G01*
X128920000Y-96995000D01*
G75*
G02*
X128770000Y-97145000I-150000J0D01*
G01*
X127320000Y-97145000D01*
G75*
G02*
X127170000Y-96995000I0J150000D01*
G01*
G37*
G36*
G01*
X127170000Y-97645000D02*
X127170000Y-97195000D01*
G75*
G02*
X127320000Y-97045000I150000J0D01*
G01*
X128770000Y-97045000D01*
G75*
G02*
X128920000Y-97195000I0J-150000D01*
G01*
X128920000Y-97645000D01*
G75*
G02*
X128770000Y-97795000I-150000J0D01*
G01*
X127320000Y-97795000D01*
G75*
G02*
X127170000Y-97645000I0J150000D01*
G01*
G37*
G36*
G01*
X127170000Y-98295000D02*
X127170000Y-97845000D01*
G75*
G02*
X127320000Y-97695000I150000J0D01*
G01*
X128770000Y-97695000D01*
G75*
G02*
X128920000Y-97845000I0J-150000D01*
G01*
X128920000Y-98295000D01*
G75*
G02*
X128770000Y-98445000I-150000J0D01*
G01*
X127320000Y-98445000D01*
G75*
G02*
X127170000Y-98295000I0J150000D01*
G01*
G37*
G36*
G01*
X127170000Y-98945000D02*
X127170000Y-98495000D01*
G75*
G02*
X127320000Y-98345000I150000J0D01*
G01*
X128770000Y-98345000D01*
G75*
G02*
X128920000Y-98495000I0J-150000D01*
G01*
X128920000Y-98945000D01*
G75*
G02*
X128770000Y-99095000I-150000J0D01*
G01*
X127320000Y-99095000D01*
G75*
G02*
X127170000Y-98945000I0J150000D01*
G01*
G37*
G36*
G01*
X127170000Y-99595000D02*
X127170000Y-99145000D01*
G75*
G02*
X127320000Y-98995000I150000J0D01*
G01*
X128770000Y-98995000D01*
G75*
G02*
X128920000Y-99145000I0J-150000D01*
G01*
X128920000Y-99595000D01*
G75*
G02*
X128770000Y-99745000I-150000J0D01*
G01*
X127320000Y-99745000D01*
G75*
G02*
X127170000Y-99595000I0J150000D01*
G01*
G37*
G36*
G01*
X127170000Y-100245000D02*
X127170000Y-99795000D01*
G75*
G02*
X127320000Y-99645000I150000J0D01*
G01*
X128770000Y-99645000D01*
G75*
G02*
X128920000Y-99795000I0J-150000D01*
G01*
X128920000Y-100245000D01*
G75*
G02*
X128770000Y-100395000I-150000J0D01*
G01*
X127320000Y-100395000D01*
G75*
G02*
X127170000Y-100245000I0J150000D01*
G01*
G37*
G36*
G01*
X127170000Y-100895000D02*
X127170000Y-100445000D01*
G75*
G02*
X127320000Y-100295000I150000J0D01*
G01*
X128770000Y-100295000D01*
G75*
G02*
X128920000Y-100445000I0J-150000D01*
G01*
X128920000Y-100895000D01*
G75*
G02*
X128770000Y-101045000I-150000J0D01*
G01*
X127320000Y-101045000D01*
G75*
G02*
X127170000Y-100895000I0J150000D01*
G01*
G37*
G36*
G01*
X127170000Y-101545000D02*
X127170000Y-101095000D01*
G75*
G02*
X127320000Y-100945000I150000J0D01*
G01*
X128770000Y-100945000D01*
G75*
G02*
X128920000Y-101095000I0J-150000D01*
G01*
X128920000Y-101545000D01*
G75*
G02*
X128770000Y-101695000I-150000J0D01*
G01*
X127320000Y-101695000D01*
G75*
G02*
X127170000Y-101545000I0J150000D01*
G01*
G37*
G36*
G01*
X127170000Y-102195000D02*
X127170000Y-101745000D01*
G75*
G02*
X127320000Y-101595000I150000J0D01*
G01*
X128770000Y-101595000D01*
G75*
G02*
X128920000Y-101745000I0J-150000D01*
G01*
X128920000Y-102195000D01*
G75*
G02*
X128770000Y-102345000I-150000J0D01*
G01*
X127320000Y-102345000D01*
G75*
G02*
X127170000Y-102195000I0J150000D01*
G01*
G37*
G36*
G01*
X127170000Y-102845000D02*
X127170000Y-102395000D01*
G75*
G02*
X127320000Y-102245000I150000J0D01*
G01*
X128770000Y-102245000D01*
G75*
G02*
X128920000Y-102395000I0J-150000D01*
G01*
X128920000Y-102845000D01*
G75*
G02*
X128770000Y-102995000I-150000J0D01*
G01*
X127320000Y-102995000D01*
G75*
G02*
X127170000Y-102845000I0J150000D01*
G01*
G37*
G36*
G01*
X121270000Y-102845000D02*
X121270000Y-102395000D01*
G75*
G02*
X121420000Y-102245000I150000J0D01*
G01*
X122870000Y-102245000D01*
G75*
G02*
X123020000Y-102395000I0J-150000D01*
G01*
X123020000Y-102845000D01*
G75*
G02*
X122870000Y-102995000I-150000J0D01*
G01*
X121420000Y-102995000D01*
G75*
G02*
X121270000Y-102845000I0J150000D01*
G01*
G37*
G36*
G01*
X121270000Y-102195000D02*
X121270000Y-101745000D01*
G75*
G02*
X121420000Y-101595000I150000J0D01*
G01*
X122870000Y-101595000D01*
G75*
G02*
X123020000Y-101745000I0J-150000D01*
G01*
X123020000Y-102195000D01*
G75*
G02*
X122870000Y-102345000I-150000J0D01*
G01*
X121420000Y-102345000D01*
G75*
G02*
X121270000Y-102195000I0J150000D01*
G01*
G37*
G36*
G01*
X121270000Y-101545000D02*
X121270000Y-101095000D01*
G75*
G02*
X121420000Y-100945000I150000J0D01*
G01*
X122870000Y-100945000D01*
G75*
G02*
X123020000Y-101095000I0J-150000D01*
G01*
X123020000Y-101545000D01*
G75*
G02*
X122870000Y-101695000I-150000J0D01*
G01*
X121420000Y-101695000D01*
G75*
G02*
X121270000Y-101545000I0J150000D01*
G01*
G37*
G36*
G01*
X121270000Y-100895000D02*
X121270000Y-100445000D01*
G75*
G02*
X121420000Y-100295000I150000J0D01*
G01*
X122870000Y-100295000D01*
G75*
G02*
X123020000Y-100445000I0J-150000D01*
G01*
X123020000Y-100895000D01*
G75*
G02*
X122870000Y-101045000I-150000J0D01*
G01*
X121420000Y-101045000D01*
G75*
G02*
X121270000Y-100895000I0J150000D01*
G01*
G37*
G36*
G01*
X121270000Y-100245000D02*
X121270000Y-99795000D01*
G75*
G02*
X121420000Y-99645000I150000J0D01*
G01*
X122870000Y-99645000D01*
G75*
G02*
X123020000Y-99795000I0J-150000D01*
G01*
X123020000Y-100245000D01*
G75*
G02*
X122870000Y-100395000I-150000J0D01*
G01*
X121420000Y-100395000D01*
G75*
G02*
X121270000Y-100245000I0J150000D01*
G01*
G37*
G36*
G01*
X121270000Y-99595000D02*
X121270000Y-99145000D01*
G75*
G02*
X121420000Y-98995000I150000J0D01*
G01*
X122870000Y-98995000D01*
G75*
G02*
X123020000Y-99145000I0J-150000D01*
G01*
X123020000Y-99595000D01*
G75*
G02*
X122870000Y-99745000I-150000J0D01*
G01*
X121420000Y-99745000D01*
G75*
G02*
X121270000Y-99595000I0J150000D01*
G01*
G37*
G36*
G01*
X121270000Y-98945000D02*
X121270000Y-98495000D01*
G75*
G02*
X121420000Y-98345000I150000J0D01*
G01*
X122870000Y-98345000D01*
G75*
G02*
X123020000Y-98495000I0J-150000D01*
G01*
X123020000Y-98945000D01*
G75*
G02*
X122870000Y-99095000I-150000J0D01*
G01*
X121420000Y-99095000D01*
G75*
G02*
X121270000Y-98945000I0J150000D01*
G01*
G37*
G36*
G01*
X121270000Y-98295000D02*
X121270000Y-97845000D01*
G75*
G02*
X121420000Y-97695000I150000J0D01*
G01*
X122870000Y-97695000D01*
G75*
G02*
X123020000Y-97845000I0J-150000D01*
G01*
X123020000Y-98295000D01*
G75*
G02*
X122870000Y-98445000I-150000J0D01*
G01*
X121420000Y-98445000D01*
G75*
G02*
X121270000Y-98295000I0J150000D01*
G01*
G37*
G36*
G01*
X121270000Y-97645000D02*
X121270000Y-97195000D01*
G75*
G02*
X121420000Y-97045000I150000J0D01*
G01*
X122870000Y-97045000D01*
G75*
G02*
X123020000Y-97195000I0J-150000D01*
G01*
X123020000Y-97645000D01*
G75*
G02*
X122870000Y-97795000I-150000J0D01*
G01*
X121420000Y-97795000D01*
G75*
G02*
X121270000Y-97645000I0J150000D01*
G01*
G37*
G36*
G01*
X121270000Y-96995000D02*
X121270000Y-96545000D01*
G75*
G02*
X121420000Y-96395000I150000J0D01*
G01*
X122870000Y-96395000D01*
G75*
G02*
X123020000Y-96545000I0J-150000D01*
G01*
X123020000Y-96995000D01*
G75*
G02*
X122870000Y-97145000I-150000J0D01*
G01*
X121420000Y-97145000D01*
G75*
G02*
X121270000Y-96995000I0J150000D01*
G01*
G37*
G36*
G01*
X121270000Y-110965000D02*
X121270000Y-110515000D01*
G75*
G02*
X121420000Y-110365000I150000J0D01*
G01*
X122870000Y-110365000D01*
G75*
G02*
X123020000Y-110515000I0J-150000D01*
G01*
X123020000Y-110965000D01*
G75*
G02*
X122870000Y-111115000I-150000J0D01*
G01*
X121420000Y-111115000D01*
G75*
G02*
X121270000Y-110965000I0J150000D01*
G01*
G37*
G36*
G01*
X121270000Y-111615000D02*
X121270000Y-111165000D01*
G75*
G02*
X121420000Y-111015000I150000J0D01*
G01*
X122870000Y-111015000D01*
G75*
G02*
X123020000Y-111165000I0J-150000D01*
G01*
X123020000Y-111615000D01*
G75*
G02*
X122870000Y-111765000I-150000J0D01*
G01*
X121420000Y-111765000D01*
G75*
G02*
X121270000Y-111615000I0J150000D01*
G01*
G37*
G36*
G01*
X121270000Y-112265000D02*
X121270000Y-111815000D01*
G75*
G02*
X121420000Y-111665000I150000J0D01*
G01*
X122870000Y-111665000D01*
G75*
G02*
X123020000Y-111815000I0J-150000D01*
G01*
X123020000Y-112265000D01*
G75*
G02*
X122870000Y-112415000I-150000J0D01*
G01*
X121420000Y-112415000D01*
G75*
G02*
X121270000Y-112265000I0J150000D01*
G01*
G37*
G36*
G01*
X121270000Y-112915000D02*
X121270000Y-112465000D01*
G75*
G02*
X121420000Y-112315000I150000J0D01*
G01*
X122870000Y-112315000D01*
G75*
G02*
X123020000Y-112465000I0J-150000D01*
G01*
X123020000Y-112915000D01*
G75*
G02*
X122870000Y-113065000I-150000J0D01*
G01*
X121420000Y-113065000D01*
G75*
G02*
X121270000Y-112915000I0J150000D01*
G01*
G37*
G36*
G01*
X121270000Y-113565000D02*
X121270000Y-113115000D01*
G75*
G02*
X121420000Y-112965000I150000J0D01*
G01*
X122870000Y-112965000D01*
G75*
G02*
X123020000Y-113115000I0J-150000D01*
G01*
X123020000Y-113565000D01*
G75*
G02*
X122870000Y-113715000I-150000J0D01*
G01*
X121420000Y-113715000D01*
G75*
G02*
X121270000Y-113565000I0J150000D01*
G01*
G37*
G36*
G01*
X121270000Y-114215000D02*
X121270000Y-113765000D01*
G75*
G02*
X121420000Y-113615000I150000J0D01*
G01*
X122870000Y-113615000D01*
G75*
G02*
X123020000Y-113765000I0J-150000D01*
G01*
X123020000Y-114215000D01*
G75*
G02*
X122870000Y-114365000I-150000J0D01*
G01*
X121420000Y-114365000D01*
G75*
G02*
X121270000Y-114215000I0J150000D01*
G01*
G37*
G36*
G01*
X121270000Y-114865000D02*
X121270000Y-114415000D01*
G75*
G02*
X121420000Y-114265000I150000J0D01*
G01*
X122870000Y-114265000D01*
G75*
G02*
X123020000Y-114415000I0J-150000D01*
G01*
X123020000Y-114865000D01*
G75*
G02*
X122870000Y-115015000I-150000J0D01*
G01*
X121420000Y-115015000D01*
G75*
G02*
X121270000Y-114865000I0J150000D01*
G01*
G37*
G36*
G01*
X121270000Y-115515000D02*
X121270000Y-115065000D01*
G75*
G02*
X121420000Y-114915000I150000J0D01*
G01*
X122870000Y-114915000D01*
G75*
G02*
X123020000Y-115065000I0J-150000D01*
G01*
X123020000Y-115515000D01*
G75*
G02*
X122870000Y-115665000I-150000J0D01*
G01*
X121420000Y-115665000D01*
G75*
G02*
X121270000Y-115515000I0J150000D01*
G01*
G37*
G36*
G01*
X121270000Y-116165000D02*
X121270000Y-115715000D01*
G75*
G02*
X121420000Y-115565000I150000J0D01*
G01*
X122870000Y-115565000D01*
G75*
G02*
X123020000Y-115715000I0J-150000D01*
G01*
X123020000Y-116165000D01*
G75*
G02*
X122870000Y-116315000I-150000J0D01*
G01*
X121420000Y-116315000D01*
G75*
G02*
X121270000Y-116165000I0J150000D01*
G01*
G37*
G36*
G01*
X121270000Y-116815000D02*
X121270000Y-116365000D01*
G75*
G02*
X121420000Y-116215000I150000J0D01*
G01*
X122870000Y-116215000D01*
G75*
G02*
X123020000Y-116365000I0J-150000D01*
G01*
X123020000Y-116815000D01*
G75*
G02*
X122870000Y-116965000I-150000J0D01*
G01*
X121420000Y-116965000D01*
G75*
G02*
X121270000Y-116815000I0J150000D01*
G01*
G37*
G36*
G01*
X127170000Y-116815000D02*
X127170000Y-116365000D01*
G75*
G02*
X127320000Y-116215000I150000J0D01*
G01*
X128770000Y-116215000D01*
G75*
G02*
X128920000Y-116365000I0J-150000D01*
G01*
X128920000Y-116815000D01*
G75*
G02*
X128770000Y-116965000I-150000J0D01*
G01*
X127320000Y-116965000D01*
G75*
G02*
X127170000Y-116815000I0J150000D01*
G01*
G37*
G36*
G01*
X127170000Y-116165000D02*
X127170000Y-115715000D01*
G75*
G02*
X127320000Y-115565000I150000J0D01*
G01*
X128770000Y-115565000D01*
G75*
G02*
X128920000Y-115715000I0J-150000D01*
G01*
X128920000Y-116165000D01*
G75*
G02*
X128770000Y-116315000I-150000J0D01*
G01*
X127320000Y-116315000D01*
G75*
G02*
X127170000Y-116165000I0J150000D01*
G01*
G37*
G36*
G01*
X127170000Y-115515000D02*
X127170000Y-115065000D01*
G75*
G02*
X127320000Y-114915000I150000J0D01*
G01*
X128770000Y-114915000D01*
G75*
G02*
X128920000Y-115065000I0J-150000D01*
G01*
X128920000Y-115515000D01*
G75*
G02*
X128770000Y-115665000I-150000J0D01*
G01*
X127320000Y-115665000D01*
G75*
G02*
X127170000Y-115515000I0J150000D01*
G01*
G37*
G36*
G01*
X127170000Y-114865000D02*
X127170000Y-114415000D01*
G75*
G02*
X127320000Y-114265000I150000J0D01*
G01*
X128770000Y-114265000D01*
G75*
G02*
X128920000Y-114415000I0J-150000D01*
G01*
X128920000Y-114865000D01*
G75*
G02*
X128770000Y-115015000I-150000J0D01*
G01*
X127320000Y-115015000D01*
G75*
G02*
X127170000Y-114865000I0J150000D01*
G01*
G37*
G36*
G01*
X127170000Y-114215000D02*
X127170000Y-113765000D01*
G75*
G02*
X127320000Y-113615000I150000J0D01*
G01*
X128770000Y-113615000D01*
G75*
G02*
X128920000Y-113765000I0J-150000D01*
G01*
X128920000Y-114215000D01*
G75*
G02*
X128770000Y-114365000I-150000J0D01*
G01*
X127320000Y-114365000D01*
G75*
G02*
X127170000Y-114215000I0J150000D01*
G01*
G37*
G36*
G01*
X127170000Y-113565000D02*
X127170000Y-113115000D01*
G75*
G02*
X127320000Y-112965000I150000J0D01*
G01*
X128770000Y-112965000D01*
G75*
G02*
X128920000Y-113115000I0J-150000D01*
G01*
X128920000Y-113565000D01*
G75*
G02*
X128770000Y-113715000I-150000J0D01*
G01*
X127320000Y-113715000D01*
G75*
G02*
X127170000Y-113565000I0J150000D01*
G01*
G37*
G36*
G01*
X127170000Y-112915000D02*
X127170000Y-112465000D01*
G75*
G02*
X127320000Y-112315000I150000J0D01*
G01*
X128770000Y-112315000D01*
G75*
G02*
X128920000Y-112465000I0J-150000D01*
G01*
X128920000Y-112915000D01*
G75*
G02*
X128770000Y-113065000I-150000J0D01*
G01*
X127320000Y-113065000D01*
G75*
G02*
X127170000Y-112915000I0J150000D01*
G01*
G37*
G36*
G01*
X127170000Y-112265000D02*
X127170000Y-111815000D01*
G75*
G02*
X127320000Y-111665000I150000J0D01*
G01*
X128770000Y-111665000D01*
G75*
G02*
X128920000Y-111815000I0J-150000D01*
G01*
X128920000Y-112265000D01*
G75*
G02*
X128770000Y-112415000I-150000J0D01*
G01*
X127320000Y-112415000D01*
G75*
G02*
X127170000Y-112265000I0J150000D01*
G01*
G37*
G36*
G01*
X127170000Y-111615000D02*
X127170000Y-111165000D01*
G75*
G02*
X127320000Y-111015000I150000J0D01*
G01*
X128770000Y-111015000D01*
G75*
G02*
X128920000Y-111165000I0J-150000D01*
G01*
X128920000Y-111615000D01*
G75*
G02*
X128770000Y-111765000I-150000J0D01*
G01*
X127320000Y-111765000D01*
G75*
G02*
X127170000Y-111615000I0J150000D01*
G01*
G37*
G36*
G01*
X127170000Y-110965000D02*
X127170000Y-110515000D01*
G75*
G02*
X127320000Y-110365000I150000J0D01*
G01*
X128770000Y-110365000D01*
G75*
G02*
X128920000Y-110515000I0J-150000D01*
G01*
X128920000Y-110965000D01*
G75*
G02*
X128770000Y-111115000I-150000J0D01*
G01*
X127320000Y-111115000D01*
G75*
G02*
X127170000Y-110965000I0J150000D01*
G01*
G37*
G36*
G01*
X138700000Y-66890000D02*
X138700000Y-65190000D01*
G75*
G02*
X138850000Y-65040000I150000J0D01*
G01*
X140550000Y-65040000D01*
G75*
G02*
X140700000Y-65190000I0J-150000D01*
G01*
X140700000Y-66890000D01*
G75*
G02*
X140550000Y-67040000I-150000J0D01*
G01*
X138850000Y-67040000D01*
G75*
G02*
X138700000Y-66890000I0J150000D01*
G01*
G37*
X137160000Y-66040000D03*
X139700000Y-68580000D03*
X137160000Y-68580000D03*
X139700000Y-71120000D03*
X137160000Y-71120000D03*
X139700000Y-73660000D03*
X137160000Y-73660000D03*
X139700000Y-76200000D03*
X137160000Y-76200000D03*
X139700000Y-78740000D03*
X137160000Y-78740000D03*
X139700000Y-81280000D03*
X137160000Y-81280000D03*
X139700000Y-83820000D03*
X137160000Y-83820000D03*
X139700000Y-86360000D03*
X137160000Y-86360000D03*
X139700000Y-88900000D03*
X137160000Y-88900000D03*
X139700000Y-91440000D03*
X137160000Y-91440000D03*
X139700000Y-93980000D03*
X137160000Y-93980000D03*
X139700000Y-96520000D03*
X137160000Y-96520000D03*
X139700000Y-99060000D03*
X137160000Y-99060000D03*
X139700000Y-101600000D03*
X137160000Y-101600000D03*
X139700000Y-104140000D03*
X137160000Y-104140000D03*
X139700000Y-106680000D03*
X137160000Y-106680000D03*
X139700000Y-109220000D03*
X137160000Y-109220000D03*
X139700000Y-111760000D03*
X137160000Y-111760000D03*
X139700000Y-114300000D03*
X137160000Y-114300000D03*
G36*
G01*
X123091000Y-64161784D02*
X123091000Y-63092216D01*
G75*
G02*
X123406216Y-62777000I315216J0D01*
G01*
X124225784Y-62777000D01*
G75*
G02*
X124541000Y-63092216I0J-315216D01*
G01*
X124541000Y-64161784D01*
G75*
G02*
X124225784Y-64477000I-315216J0D01*
G01*
X123406216Y-64477000D01*
G75*
G02*
X123091000Y-64161784I0J315216D01*
G01*
G37*
G36*
G01*
X125141000Y-64161784D02*
X125141000Y-63092216D01*
G75*
G02*
X125456216Y-62777000I315216J0D01*
G01*
X126275784Y-62777000D01*
G75*
G02*
X126591000Y-63092216I0J-315216D01*
G01*
X126591000Y-64161784D01*
G75*
G02*
X126275784Y-64477000I-315216J0D01*
G01*
X125456216Y-64477000D01*
G75*
G02*
X125141000Y-64161784I0J315216D01*
G01*
G37*
G36*
G01*
X125703216Y-71275000D02*
X126772784Y-71275000D01*
G75*
G02*
X127088000Y-71590216I0J-315216D01*
G01*
X127088000Y-72409784D01*
G75*
G02*
X126772784Y-72725000I-315216J0D01*
G01*
X125703216Y-72725000D01*
G75*
G02*
X125388000Y-72409784I0J315216D01*
G01*
X125388000Y-71590216D01*
G75*
G02*
X125703216Y-71275000I315216J0D01*
G01*
G37*
G36*
G01*
X125703216Y-73325000D02*
X126772784Y-73325000D01*
G75*
G02*
X127088000Y-73640216I0J-315216D01*
G01*
X127088000Y-74459784D01*
G75*
G02*
X126772784Y-74775000I-315216J0D01*
G01*
X125703216Y-74775000D01*
G75*
G02*
X125388000Y-74459784I0J315216D01*
G01*
X125388000Y-73640216D01*
G75*
G02*
X125703216Y-73325000I315216J0D01*
G01*
G37*
G36*
G01*
X115890000Y-61760000D02*
X115890000Y-60160000D01*
G75*
G02*
X116040000Y-60010000I150000J0D01*
G01*
X117640000Y-60010000D01*
G75*
G02*
X117790000Y-60160000I0J-150000D01*
G01*
X117790000Y-61760000D01*
G75*
G02*
X117640000Y-61910000I-150000J0D01*
G01*
X116040000Y-61910000D01*
G75*
G02*
X115890000Y-61760000I0J150000D01*
G01*
G37*
D10*
X132080000Y-88900000D03*
X116840000Y-63500000D03*
X132080000Y-86360000D03*
X116840000Y-66040000D03*
X132080000Y-83820000D03*
X116840000Y-68580000D03*
X132080000Y-81280000D03*
X116840000Y-71120000D03*
X132080000Y-78740000D03*
X116840000Y-73660000D03*
X132080000Y-76200000D03*
X116840000Y-76200000D03*
X132080000Y-73660000D03*
X116840000Y-78740000D03*
X132080000Y-71120000D03*
X116840000Y-81280000D03*
X132080000Y-68580000D03*
X116840000Y-83820000D03*
X132080000Y-66040000D03*
X116840000Y-86360000D03*
X132080000Y-63500000D03*
X116840000Y-88900000D03*
X132080000Y-60960000D03*
G36*
G01*
X115890000Y-92240000D02*
X115890000Y-90640000D01*
G75*
G02*
X116040000Y-90490000I150000J0D01*
G01*
X117640000Y-90490000D01*
G75*
G02*
X117790000Y-90640000I0J-150000D01*
G01*
X117790000Y-92240000D01*
G75*
G02*
X117640000Y-92390000I-150000J0D01*
G01*
X116040000Y-92390000D01*
G75*
G02*
X115890000Y-92240000I0J150000D01*
G01*
G37*
X132080000Y-119380000D03*
X116840000Y-93980000D03*
X132080000Y-116840000D03*
X116840000Y-96520000D03*
X132080000Y-114300000D03*
X116840000Y-99060000D03*
X132080000Y-111760000D03*
X116840000Y-101600000D03*
X132080000Y-109220000D03*
X116840000Y-104140000D03*
X132080000Y-106680000D03*
X116840000Y-106680000D03*
X132080000Y-104140000D03*
X116840000Y-109220000D03*
X132080000Y-101600000D03*
X116840000Y-111760000D03*
X132080000Y-99060000D03*
X116840000Y-114300000D03*
X132080000Y-96520000D03*
X116840000Y-116840000D03*
X132080000Y-93980000D03*
X116840000Y-119380000D03*
X132080000Y-91440000D03*
D11*
X137160000Y-119380000D03*
G36*
G01*
X136160000Y-117690000D02*
X136160000Y-115990000D01*
G75*
G02*
X136310000Y-115840000I150000J0D01*
G01*
X138010000Y-115840000D01*
G75*
G02*
X138160000Y-115990000I0J-150000D01*
G01*
X138160000Y-117690000D01*
G75*
G02*
X138010000Y-117840000I-150000J0D01*
G01*
X136310000Y-117840000D01*
G75*
G02*
X136160000Y-117690000I0J150000D01*
G01*
G37*
G36*
G01*
X121070000Y-90440000D02*
X122770000Y-90440000D01*
G75*
G02*
X122920000Y-90590000I0J-150000D01*
G01*
X122920000Y-92290000D01*
G75*
G02*
X122770000Y-92440000I-150000J0D01*
G01*
X121070000Y-92440000D01*
G75*
G02*
X120920000Y-92290000I0J150000D01*
G01*
X120920000Y-90590000D01*
G75*
G02*
X121070000Y-90440000I150000J0D01*
G01*
G37*
X124460000Y-91440000D03*
X127000000Y-91440000D03*
M02*
