G04 #@! TF.GenerationSoftware,KiCad,Pcbnew,(5.1.9)-1*
G04 #@! TF.CreationDate,2021-03-21T08:29:29+00:00*
G04 #@! TF.ProjectId,RGBtoHDMI Amiga Denise - v2++ by solarmon,52474274-6f48-4444-9d49-20416d696761,v2++*
G04 #@! TF.SameCoordinates,Original*
G04 #@! TF.FileFunction,Legend,Bot*
G04 #@! TF.FilePolarity,Positive*
%FSLAX46Y46*%
G04 Gerber Fmt 4.6, Leading zero omitted, Abs format (unit mm)*
G04 Created by KiCad (PCBNEW (5.1.9)-1) date 2021-03-21 08:29:29*
%MOMM*%
%LPD*%
G01*
G04 APERTURE LIST*
%ADD10C,0.125000*%
%ADD11C,0.150000*%
%ADD12C,0.200000*%
%ADD13C,0.187500*%
%ADD14C,0.250000*%
%ADD15C,0.120000*%
G04 APERTURE END LIST*
D10*
X134370000Y-55499047D02*
X134346190Y-55451428D01*
X134346190Y-55380000D01*
X134370000Y-55308571D01*
X134417619Y-55260952D01*
X134465238Y-55237142D01*
X134560476Y-55213333D01*
X134631904Y-55213333D01*
X134727142Y-55237142D01*
X134774761Y-55260952D01*
X134822380Y-55308571D01*
X134846190Y-55380000D01*
X134846190Y-55427619D01*
X134822380Y-55499047D01*
X134798571Y-55522857D01*
X134631904Y-55522857D01*
X134631904Y-55427619D01*
X134846190Y-55737142D02*
X134346190Y-55737142D01*
X134846190Y-56022857D01*
X134346190Y-56022857D01*
X134846190Y-56260952D02*
X134346190Y-56260952D01*
X134346190Y-56380000D01*
X134370000Y-56451428D01*
X134417619Y-56499047D01*
X134465238Y-56522857D01*
X134560476Y-56546666D01*
X134631904Y-56546666D01*
X134727142Y-56522857D01*
X134774761Y-56499047D01*
X134822380Y-56451428D01*
X134846190Y-56380000D01*
X134846190Y-56260952D01*
X132115714Y-55173642D02*
X132115714Y-55554595D01*
X132306190Y-55364119D02*
X131925238Y-55364119D01*
X131806190Y-56030785D02*
X131806190Y-55792690D01*
X132044285Y-55768880D01*
X132020476Y-55792690D01*
X131996666Y-55840309D01*
X131996666Y-55959357D01*
X132020476Y-56006976D01*
X132044285Y-56030785D01*
X132091904Y-56054595D01*
X132210952Y-56054595D01*
X132258571Y-56030785D01*
X132282380Y-56006976D01*
X132306190Y-55959357D01*
X132306190Y-55840309D01*
X132282380Y-55792690D01*
X132258571Y-55768880D01*
X131806190Y-56197452D02*
X132306190Y-56364119D01*
X131806190Y-56530785D01*
X128891190Y-54907809D02*
X128391190Y-54907809D01*
X128391190Y-55026857D01*
X128415000Y-55098285D01*
X128462619Y-55145904D01*
X128510238Y-55169714D01*
X128605476Y-55193523D01*
X128676904Y-55193523D01*
X128772142Y-55169714D01*
X128819761Y-55145904D01*
X128867380Y-55098285D01*
X128891190Y-55026857D01*
X128891190Y-54907809D01*
X128891190Y-55407809D02*
X128557857Y-55407809D01*
X128391190Y-55407809D02*
X128415000Y-55384000D01*
X128438809Y-55407809D01*
X128415000Y-55431619D01*
X128391190Y-55407809D01*
X128438809Y-55407809D01*
X128867380Y-55622095D02*
X128891190Y-55669714D01*
X128891190Y-55764952D01*
X128867380Y-55812571D01*
X128819761Y-55836380D01*
X128795952Y-55836380D01*
X128748333Y-55812571D01*
X128724523Y-55764952D01*
X128724523Y-55693523D01*
X128700714Y-55645904D01*
X128653095Y-55622095D01*
X128629285Y-55622095D01*
X128581666Y-55645904D01*
X128557857Y-55693523D01*
X128557857Y-55764952D01*
X128581666Y-55812571D01*
X128557857Y-56050666D02*
X129057857Y-56050666D01*
X128581666Y-56050666D02*
X128557857Y-56098285D01*
X128557857Y-56193523D01*
X128581666Y-56241142D01*
X128605476Y-56264952D01*
X128653095Y-56288761D01*
X128795952Y-56288761D01*
X128843571Y-56264952D01*
X128867380Y-56241142D01*
X128891190Y-56193523D01*
X128891190Y-56098285D01*
X128867380Y-56050666D01*
X128891190Y-56574476D02*
X128867380Y-56526857D01*
X128819761Y-56503047D01*
X128391190Y-56503047D01*
X128891190Y-56979238D02*
X128629285Y-56979238D01*
X128581666Y-56955428D01*
X128557857Y-56907809D01*
X128557857Y-56812571D01*
X128581666Y-56764952D01*
X128867380Y-56979238D02*
X128891190Y-56931619D01*
X128891190Y-56812571D01*
X128867380Y-56764952D01*
X128819761Y-56741142D01*
X128772142Y-56741142D01*
X128724523Y-56764952D01*
X128700714Y-56812571D01*
X128700714Y-56931619D01*
X128676904Y-56979238D01*
X128557857Y-57169714D02*
X128891190Y-57288761D01*
X128557857Y-57407809D02*
X128891190Y-57288761D01*
X129010238Y-57241142D01*
X129034047Y-57217333D01*
X129057857Y-57169714D01*
X129266190Y-55122095D02*
X129266190Y-55217333D01*
X129290000Y-55264952D01*
X129337619Y-55312571D01*
X129432857Y-55336380D01*
X129599523Y-55336380D01*
X129694761Y-55312571D01*
X129742380Y-55264952D01*
X129766190Y-55217333D01*
X129766190Y-55122095D01*
X129742380Y-55074476D01*
X129694761Y-55026857D01*
X129599523Y-55003047D01*
X129432857Y-55003047D01*
X129337619Y-55026857D01*
X129290000Y-55074476D01*
X129266190Y-55122095D01*
X129432857Y-55764952D02*
X129766190Y-55764952D01*
X129432857Y-55550666D02*
X129694761Y-55550666D01*
X129742380Y-55574476D01*
X129766190Y-55622095D01*
X129766190Y-55693523D01*
X129742380Y-55741142D01*
X129718571Y-55764952D01*
X129432857Y-55931619D02*
X129432857Y-56122095D01*
X129266190Y-56003047D02*
X129694761Y-56003047D01*
X129742380Y-56026857D01*
X129766190Y-56074476D01*
X129766190Y-56122095D01*
X129432857Y-56288761D02*
X129932857Y-56288761D01*
X129456666Y-56288761D02*
X129432857Y-56336380D01*
X129432857Y-56431619D01*
X129456666Y-56479238D01*
X129480476Y-56503047D01*
X129528095Y-56526857D01*
X129670952Y-56526857D01*
X129718571Y-56503047D01*
X129742380Y-56479238D01*
X129766190Y-56431619D01*
X129766190Y-56336380D01*
X129742380Y-56288761D01*
X129432857Y-56955428D02*
X129766190Y-56955428D01*
X129432857Y-56741142D02*
X129694761Y-56741142D01*
X129742380Y-56764952D01*
X129766190Y-56812571D01*
X129766190Y-56884000D01*
X129742380Y-56931619D01*
X129718571Y-56955428D01*
X129432857Y-57122095D02*
X129432857Y-57312571D01*
X129266190Y-57193523D02*
X129694761Y-57193523D01*
X129742380Y-57217333D01*
X129766190Y-57264952D01*
X129766190Y-57312571D01*
X130379285Y-54848285D02*
X130403095Y-54919714D01*
X130426904Y-54943523D01*
X130474523Y-54967333D01*
X130545952Y-54967333D01*
X130593571Y-54943523D01*
X130617380Y-54919714D01*
X130641190Y-54872095D01*
X130641190Y-54681619D01*
X130141190Y-54681619D01*
X130141190Y-54848285D01*
X130165000Y-54895904D01*
X130188809Y-54919714D01*
X130236428Y-54943523D01*
X130284047Y-54943523D01*
X130331666Y-54919714D01*
X130355476Y-54895904D01*
X130379285Y-54848285D01*
X130379285Y-54681619D01*
X130307857Y-55395904D02*
X130641190Y-55395904D01*
X130307857Y-55181619D02*
X130569761Y-55181619D01*
X130617380Y-55205428D01*
X130641190Y-55253047D01*
X130641190Y-55324476D01*
X130617380Y-55372095D01*
X130593571Y-55395904D01*
X130307857Y-55562571D02*
X130307857Y-55753047D01*
X130641190Y-55634000D02*
X130212619Y-55634000D01*
X130165000Y-55657809D01*
X130141190Y-55705428D01*
X130141190Y-55753047D01*
X130307857Y-55848285D02*
X130307857Y-56038761D01*
X130641190Y-55919714D02*
X130212619Y-55919714D01*
X130165000Y-55943523D01*
X130141190Y-55991142D01*
X130141190Y-56038761D01*
X130617380Y-56395904D02*
X130641190Y-56348285D01*
X130641190Y-56253047D01*
X130617380Y-56205428D01*
X130569761Y-56181619D01*
X130379285Y-56181619D01*
X130331666Y-56205428D01*
X130307857Y-56253047D01*
X130307857Y-56348285D01*
X130331666Y-56395904D01*
X130379285Y-56419714D01*
X130426904Y-56419714D01*
X130474523Y-56181619D01*
X130641190Y-56634000D02*
X130307857Y-56634000D01*
X130403095Y-56634000D02*
X130355476Y-56657809D01*
X130331666Y-56681619D01*
X130307857Y-56729238D01*
X130307857Y-56776857D01*
X130617380Y-57134000D02*
X130641190Y-57086380D01*
X130641190Y-56991142D01*
X130617380Y-56943523D01*
X130569761Y-56919714D01*
X130379285Y-56919714D01*
X130331666Y-56943523D01*
X130307857Y-56991142D01*
X130307857Y-57086380D01*
X130331666Y-57134000D01*
X130379285Y-57157809D01*
X130426904Y-57157809D01*
X130474523Y-56919714D01*
X130641190Y-57586380D02*
X130141190Y-57586380D01*
X130617380Y-57586380D02*
X130641190Y-57538761D01*
X130641190Y-57443523D01*
X130617380Y-57395904D01*
X130593571Y-57372095D01*
X130545952Y-57348285D01*
X130403095Y-57348285D01*
X130355476Y-57372095D01*
X130331666Y-57395904D01*
X130307857Y-57443523D01*
X130307857Y-57538761D01*
X130331666Y-57586380D01*
X126788690Y-54717309D02*
X126288690Y-54717309D01*
X126288690Y-54836357D01*
X126312500Y-54907785D01*
X126360119Y-54955404D01*
X126407738Y-54979214D01*
X126502976Y-55003023D01*
X126574404Y-55003023D01*
X126669642Y-54979214D01*
X126717261Y-54955404D01*
X126764880Y-54907785D01*
X126788690Y-54836357D01*
X126788690Y-54717309D01*
X126788690Y-55217309D02*
X126455357Y-55217309D01*
X126288690Y-55217309D02*
X126312500Y-55193500D01*
X126336309Y-55217309D01*
X126312500Y-55241119D01*
X126288690Y-55217309D01*
X126336309Y-55217309D01*
X126764880Y-55431595D02*
X126788690Y-55479214D01*
X126788690Y-55574452D01*
X126764880Y-55622071D01*
X126717261Y-55645880D01*
X126693452Y-55645880D01*
X126645833Y-55622071D01*
X126622023Y-55574452D01*
X126622023Y-55503023D01*
X126598214Y-55455404D01*
X126550595Y-55431595D01*
X126526785Y-55431595D01*
X126479166Y-55455404D01*
X126455357Y-55503023D01*
X126455357Y-55574452D01*
X126479166Y-55622071D01*
X126455357Y-55860166D02*
X126955357Y-55860166D01*
X126479166Y-55860166D02*
X126455357Y-55907785D01*
X126455357Y-56003023D01*
X126479166Y-56050642D01*
X126502976Y-56074452D01*
X126550595Y-56098261D01*
X126693452Y-56098261D01*
X126741071Y-56074452D01*
X126764880Y-56050642D01*
X126788690Y-56003023D01*
X126788690Y-55907785D01*
X126764880Y-55860166D01*
X126788690Y-56383976D02*
X126764880Y-56336357D01*
X126717261Y-56312547D01*
X126288690Y-56312547D01*
X126788690Y-56788738D02*
X126526785Y-56788738D01*
X126479166Y-56764928D01*
X126455357Y-56717309D01*
X126455357Y-56622071D01*
X126479166Y-56574452D01*
X126764880Y-56788738D02*
X126788690Y-56741119D01*
X126788690Y-56622071D01*
X126764880Y-56574452D01*
X126717261Y-56550642D01*
X126669642Y-56550642D01*
X126622023Y-56574452D01*
X126598214Y-56622071D01*
X126598214Y-56741119D01*
X126574404Y-56788738D01*
X126455357Y-56979214D02*
X126788690Y-57098261D01*
X126455357Y-57217309D02*
X126788690Y-57098261D01*
X126907738Y-57050642D01*
X126931547Y-57026833D01*
X126955357Y-56979214D01*
X127401785Y-54812547D02*
X127401785Y-54979214D01*
X127663690Y-55050642D02*
X127663690Y-54812547D01*
X127163690Y-54812547D01*
X127163690Y-55050642D01*
X127330357Y-55264928D02*
X127663690Y-55264928D01*
X127377976Y-55264928D02*
X127354166Y-55288738D01*
X127330357Y-55336357D01*
X127330357Y-55407785D01*
X127354166Y-55455404D01*
X127401785Y-55479214D01*
X127663690Y-55479214D01*
X127663690Y-55931595D02*
X127401785Y-55931595D01*
X127354166Y-55907785D01*
X127330357Y-55860166D01*
X127330357Y-55764928D01*
X127354166Y-55717309D01*
X127639880Y-55931595D02*
X127663690Y-55883976D01*
X127663690Y-55764928D01*
X127639880Y-55717309D01*
X127592261Y-55693500D01*
X127544642Y-55693500D01*
X127497023Y-55717309D01*
X127473214Y-55764928D01*
X127473214Y-55883976D01*
X127449404Y-55931595D01*
X127663690Y-56169690D02*
X127163690Y-56169690D01*
X127354166Y-56169690D02*
X127330357Y-56217309D01*
X127330357Y-56312547D01*
X127354166Y-56360166D01*
X127377976Y-56383976D01*
X127425595Y-56407785D01*
X127568452Y-56407785D01*
X127616071Y-56383976D01*
X127639880Y-56360166D01*
X127663690Y-56312547D01*
X127663690Y-56217309D01*
X127639880Y-56169690D01*
X127663690Y-56693500D02*
X127639880Y-56645880D01*
X127592261Y-56622071D01*
X127163690Y-56622071D01*
X127639880Y-57074452D02*
X127663690Y-57026833D01*
X127663690Y-56931595D01*
X127639880Y-56883976D01*
X127592261Y-56860166D01*
X127401785Y-56860166D01*
X127354166Y-56883976D01*
X127330357Y-56931595D01*
X127330357Y-57026833D01*
X127354166Y-57074452D01*
X127401785Y-57098261D01*
X127449404Y-57098261D01*
X127497023Y-56860166D01*
X124248690Y-54780809D02*
X123748690Y-54780809D01*
X123748690Y-54899857D01*
X123772500Y-54971285D01*
X123820119Y-55018904D01*
X123867738Y-55042714D01*
X123962976Y-55066523D01*
X124034404Y-55066523D01*
X124129642Y-55042714D01*
X124177261Y-55018904D01*
X124224880Y-54971285D01*
X124248690Y-54899857D01*
X124248690Y-54780809D01*
X124248690Y-55280809D02*
X123915357Y-55280809D01*
X123748690Y-55280809D02*
X123772500Y-55257000D01*
X123796309Y-55280809D01*
X123772500Y-55304619D01*
X123748690Y-55280809D01*
X123796309Y-55280809D01*
X124224880Y-55495095D02*
X124248690Y-55542714D01*
X124248690Y-55637952D01*
X124224880Y-55685571D01*
X124177261Y-55709380D01*
X124153452Y-55709380D01*
X124105833Y-55685571D01*
X124082023Y-55637952D01*
X124082023Y-55566523D01*
X124058214Y-55518904D01*
X124010595Y-55495095D01*
X123986785Y-55495095D01*
X123939166Y-55518904D01*
X123915357Y-55566523D01*
X123915357Y-55637952D01*
X123939166Y-55685571D01*
X123915357Y-55923666D02*
X124415357Y-55923666D01*
X123939166Y-55923666D02*
X123915357Y-55971285D01*
X123915357Y-56066523D01*
X123939166Y-56114142D01*
X123962976Y-56137952D01*
X124010595Y-56161761D01*
X124153452Y-56161761D01*
X124201071Y-56137952D01*
X124224880Y-56114142D01*
X124248690Y-56066523D01*
X124248690Y-55971285D01*
X124224880Y-55923666D01*
X124248690Y-56447476D02*
X124224880Y-56399857D01*
X124177261Y-56376047D01*
X123748690Y-56376047D01*
X124248690Y-56852238D02*
X123986785Y-56852238D01*
X123939166Y-56828428D01*
X123915357Y-56780809D01*
X123915357Y-56685571D01*
X123939166Y-56637952D01*
X124224880Y-56852238D02*
X124248690Y-56804619D01*
X124248690Y-56685571D01*
X124224880Y-56637952D01*
X124177261Y-56614142D01*
X124129642Y-56614142D01*
X124082023Y-56637952D01*
X124058214Y-56685571D01*
X124058214Y-56804619D01*
X124034404Y-56852238D01*
X123915357Y-57042714D02*
X124248690Y-57161761D01*
X123915357Y-57280809D02*
X124248690Y-57161761D01*
X124367738Y-57114142D01*
X124391547Y-57090333D01*
X124415357Y-57042714D01*
X124623690Y-54995095D02*
X124623690Y-55090333D01*
X124647500Y-55137952D01*
X124695119Y-55185571D01*
X124790357Y-55209380D01*
X124957023Y-55209380D01*
X125052261Y-55185571D01*
X125099880Y-55137952D01*
X125123690Y-55090333D01*
X125123690Y-54995095D01*
X125099880Y-54947476D01*
X125052261Y-54899857D01*
X124957023Y-54876047D01*
X124790357Y-54876047D01*
X124695119Y-54899857D01*
X124647500Y-54947476D01*
X124623690Y-54995095D01*
X124790357Y-55637952D02*
X125123690Y-55637952D01*
X124790357Y-55423666D02*
X125052261Y-55423666D01*
X125099880Y-55447476D01*
X125123690Y-55495095D01*
X125123690Y-55566523D01*
X125099880Y-55614142D01*
X125076071Y-55637952D01*
X124790357Y-55804619D02*
X124790357Y-55995095D01*
X124623690Y-55876047D02*
X125052261Y-55876047D01*
X125099880Y-55899857D01*
X125123690Y-55947476D01*
X125123690Y-55995095D01*
X124790357Y-56161761D02*
X125290357Y-56161761D01*
X124814166Y-56161761D02*
X124790357Y-56209380D01*
X124790357Y-56304619D01*
X124814166Y-56352238D01*
X124837976Y-56376047D01*
X124885595Y-56399857D01*
X125028452Y-56399857D01*
X125076071Y-56376047D01*
X125099880Y-56352238D01*
X125123690Y-56304619D01*
X125123690Y-56209380D01*
X125099880Y-56161761D01*
X124790357Y-56828428D02*
X125123690Y-56828428D01*
X124790357Y-56614142D02*
X125052261Y-56614142D01*
X125099880Y-56637952D01*
X125123690Y-56685571D01*
X125123690Y-56757000D01*
X125099880Y-56804619D01*
X125076071Y-56828428D01*
X124790357Y-56995095D02*
X124790357Y-57185571D01*
X124623690Y-57066523D02*
X125052261Y-57066523D01*
X125099880Y-57090333D01*
X125123690Y-57137952D01*
X125123690Y-57185571D01*
X122098571Y-55070476D02*
X122122380Y-55046666D01*
X122146190Y-54975238D01*
X122146190Y-54927619D01*
X122122380Y-54856190D01*
X122074761Y-54808571D01*
X122027142Y-54784761D01*
X121931904Y-54760952D01*
X121860476Y-54760952D01*
X121765238Y-54784761D01*
X121717619Y-54808571D01*
X121670000Y-54856190D01*
X121646190Y-54927619D01*
X121646190Y-54975238D01*
X121670000Y-55046666D01*
X121693809Y-55070476D01*
X122122380Y-55260952D02*
X122146190Y-55332380D01*
X122146190Y-55451428D01*
X122122380Y-55499047D01*
X122098571Y-55522857D01*
X122050952Y-55546666D01*
X122003333Y-55546666D01*
X121955714Y-55522857D01*
X121931904Y-55499047D01*
X121908095Y-55451428D01*
X121884285Y-55356190D01*
X121860476Y-55308571D01*
X121836666Y-55284761D01*
X121789047Y-55260952D01*
X121741428Y-55260952D01*
X121693809Y-55284761D01*
X121670000Y-55308571D01*
X121646190Y-55356190D01*
X121646190Y-55475238D01*
X121670000Y-55546666D01*
X121908095Y-55856190D02*
X122146190Y-55856190D01*
X121646190Y-55689523D02*
X121908095Y-55856190D01*
X121646190Y-56022857D01*
X122146190Y-56189523D02*
X121646190Y-56189523D01*
X122146190Y-56475238D01*
X121646190Y-56475238D01*
X122098571Y-56999047D02*
X122122380Y-56975238D01*
X122146190Y-56903809D01*
X122146190Y-56856190D01*
X122122380Y-56784761D01*
X122074761Y-56737142D01*
X122027142Y-56713333D01*
X121931904Y-56689523D01*
X121860476Y-56689523D01*
X121765238Y-56713333D01*
X121717619Y-56737142D01*
X121670000Y-56784761D01*
X121646190Y-56856190D01*
X121646190Y-56903809D01*
X121670000Y-56975238D01*
X121693809Y-56999047D01*
D11*
X129809142Y-101910214D02*
X130709142Y-102210214D01*
X129809142Y-102510214D01*
X130666285Y-103153071D02*
X130709142Y-103067357D01*
X130709142Y-102895928D01*
X130666285Y-102810214D01*
X130580571Y-102767357D01*
X130237714Y-102767357D01*
X130152000Y-102810214D01*
X130109142Y-102895928D01*
X130109142Y-103067357D01*
X130152000Y-103153071D01*
X130237714Y-103195928D01*
X130323428Y-103195928D01*
X130409142Y-102767357D01*
X130709142Y-103581642D02*
X130109142Y-103581642D01*
X130280571Y-103581642D02*
X130194857Y-103624500D01*
X130152000Y-103667357D01*
X130109142Y-103753071D01*
X130109142Y-103838785D01*
X130666285Y-104095928D02*
X130709142Y-104181642D01*
X130709142Y-104353071D01*
X130666285Y-104438785D01*
X130580571Y-104481642D01*
X130537714Y-104481642D01*
X130452000Y-104438785D01*
X130409142Y-104353071D01*
X130409142Y-104224500D01*
X130366285Y-104138785D01*
X130280571Y-104095928D01*
X130237714Y-104095928D01*
X130152000Y-104138785D01*
X130109142Y-104224500D01*
X130109142Y-104353071D01*
X130152000Y-104438785D01*
X130709142Y-104867357D02*
X130109142Y-104867357D01*
X129809142Y-104867357D02*
X129852000Y-104824500D01*
X129894857Y-104867357D01*
X129852000Y-104910214D01*
X129809142Y-104867357D01*
X129894857Y-104867357D01*
X130709142Y-105424500D02*
X130666285Y-105338785D01*
X130623428Y-105295928D01*
X130537714Y-105253071D01*
X130280571Y-105253071D01*
X130194857Y-105295928D01*
X130152000Y-105338785D01*
X130109142Y-105424500D01*
X130109142Y-105553071D01*
X130152000Y-105638785D01*
X130194857Y-105681642D01*
X130280571Y-105724500D01*
X130537714Y-105724500D01*
X130623428Y-105681642D01*
X130666285Y-105638785D01*
X130709142Y-105553071D01*
X130709142Y-105424500D01*
X130109142Y-106110214D02*
X130709142Y-106110214D01*
X130194857Y-106110214D02*
X130152000Y-106153071D01*
X130109142Y-106238785D01*
X130109142Y-106367357D01*
X130152000Y-106453071D01*
X130237714Y-106495928D01*
X130709142Y-106495928D01*
X130109142Y-107524500D02*
X130709142Y-107738785D01*
X130109142Y-107953071D01*
X129894857Y-108253071D02*
X129852000Y-108295928D01*
X129809142Y-108381642D01*
X129809142Y-108595928D01*
X129852000Y-108681642D01*
X129894857Y-108724500D01*
X129980571Y-108767357D01*
X130066285Y-108767357D01*
X130194857Y-108724500D01*
X130709142Y-108210214D01*
X130709142Y-108767357D01*
X130366285Y-109153071D02*
X130366285Y-109838785D01*
X130709142Y-109495928D02*
X130023428Y-109495928D01*
X130366285Y-110267357D02*
X130366285Y-110953071D01*
X130709142Y-110610214D02*
X130023428Y-110610214D01*
X130709142Y-112067357D02*
X129809142Y-112067357D01*
X130152000Y-112067357D02*
X130109142Y-112153071D01*
X130109142Y-112324500D01*
X130152000Y-112410214D01*
X130194857Y-112453071D01*
X130280571Y-112495928D01*
X130537714Y-112495928D01*
X130623428Y-112453071D01*
X130666285Y-112410214D01*
X130709142Y-112324500D01*
X130709142Y-112153071D01*
X130666285Y-112067357D01*
X130109142Y-112795928D02*
X130709142Y-113010214D01*
X130109142Y-113224500D02*
X130709142Y-113010214D01*
X130923428Y-112924500D01*
X130966285Y-112881642D01*
X131009142Y-112795928D01*
X130666285Y-114210214D02*
X130709142Y-114295928D01*
X130709142Y-114467357D01*
X130666285Y-114553071D01*
X130580571Y-114595928D01*
X130537714Y-114595928D01*
X130452000Y-114553071D01*
X130409142Y-114467357D01*
X130409142Y-114338785D01*
X130366285Y-114253071D01*
X130280571Y-114210214D01*
X130237714Y-114210214D01*
X130152000Y-114253071D01*
X130109142Y-114338785D01*
X130109142Y-114467357D01*
X130152000Y-114553071D01*
X130709142Y-115110214D02*
X130666285Y-115024500D01*
X130623428Y-114981642D01*
X130537714Y-114938785D01*
X130280571Y-114938785D01*
X130194857Y-114981642D01*
X130152000Y-115024500D01*
X130109142Y-115110214D01*
X130109142Y-115238785D01*
X130152000Y-115324500D01*
X130194857Y-115367357D01*
X130280571Y-115410214D01*
X130537714Y-115410214D01*
X130623428Y-115367357D01*
X130666285Y-115324500D01*
X130709142Y-115238785D01*
X130709142Y-115110214D01*
X130709142Y-115924500D02*
X130666285Y-115838785D01*
X130580571Y-115795928D01*
X129809142Y-115795928D01*
X130709142Y-116653071D02*
X130237714Y-116653071D01*
X130152000Y-116610214D01*
X130109142Y-116524500D01*
X130109142Y-116353071D01*
X130152000Y-116267357D01*
X130666285Y-116653071D02*
X130709142Y-116567357D01*
X130709142Y-116353071D01*
X130666285Y-116267357D01*
X130580571Y-116224500D01*
X130494857Y-116224500D01*
X130409142Y-116267357D01*
X130366285Y-116353071D01*
X130366285Y-116567357D01*
X130323428Y-116653071D01*
X130709142Y-117081642D02*
X130109142Y-117081642D01*
X130280571Y-117081642D02*
X130194857Y-117124500D01*
X130152000Y-117167357D01*
X130109142Y-117253071D01*
X130109142Y-117338785D01*
X130709142Y-117638785D02*
X130109142Y-117638785D01*
X130194857Y-117638785D02*
X130152000Y-117681642D01*
X130109142Y-117767357D01*
X130109142Y-117895928D01*
X130152000Y-117981642D01*
X130237714Y-118024500D01*
X130709142Y-118024500D01*
X130237714Y-118024500D02*
X130152000Y-118067357D01*
X130109142Y-118153071D01*
X130109142Y-118281642D01*
X130152000Y-118367357D01*
X130237714Y-118410214D01*
X130709142Y-118410214D01*
X130709142Y-118967357D02*
X130666285Y-118881642D01*
X130623428Y-118838785D01*
X130537714Y-118795928D01*
X130280571Y-118795928D01*
X130194857Y-118838785D01*
X130152000Y-118881642D01*
X130109142Y-118967357D01*
X130109142Y-119095928D01*
X130152000Y-119181642D01*
X130194857Y-119224500D01*
X130280571Y-119267357D01*
X130537714Y-119267357D01*
X130623428Y-119224500D01*
X130666285Y-119181642D01*
X130709142Y-119095928D01*
X130709142Y-118967357D01*
X130109142Y-119653071D02*
X130709142Y-119653071D01*
X130194857Y-119653071D02*
X130152000Y-119695928D01*
X130109142Y-119781642D01*
X130109142Y-119910214D01*
X130152000Y-119995928D01*
X130237714Y-120038785D01*
X130709142Y-120038785D01*
D12*
X127508000Y-77216000D02*
X127508000Y-76581000D01*
X124968000Y-77216000D02*
X124968000Y-76581000D01*
X123825000Y-77978000D02*
X123825000Y-77343000D01*
X121285000Y-77978000D02*
X121285000Y-77343000D01*
X124968000Y-76581000D02*
X127508000Y-76581000D01*
X121285000Y-77343000D02*
X123825000Y-77343000D01*
D13*
X122320392Y-71172715D02*
X121420392Y-71172715D01*
X121420392Y-71387000D01*
X121463250Y-71515572D01*
X121548964Y-71601286D01*
X121634678Y-71644143D01*
X121806107Y-71687000D01*
X121934678Y-71687000D01*
X122106107Y-71644143D01*
X122191821Y-71601286D01*
X122277535Y-71515572D01*
X122320392Y-71387000D01*
X122320392Y-71172715D01*
X122277535Y-72415572D02*
X122320392Y-72329857D01*
X122320392Y-72158429D01*
X122277535Y-72072715D01*
X122191821Y-72029857D01*
X121848964Y-72029857D01*
X121763250Y-72072715D01*
X121720392Y-72158429D01*
X121720392Y-72329857D01*
X121763250Y-72415572D01*
X121848964Y-72458429D01*
X121934678Y-72458429D01*
X122020392Y-72029857D01*
X122320392Y-72972715D02*
X122277535Y-72887000D01*
X122191821Y-72844143D01*
X121420392Y-72844143D01*
X122320392Y-73701286D02*
X121848964Y-73701286D01*
X121763250Y-73658429D01*
X121720392Y-73572715D01*
X121720392Y-73401286D01*
X121763250Y-73315572D01*
X122277535Y-73701286D02*
X122320392Y-73615572D01*
X122320392Y-73401286D01*
X122277535Y-73315572D01*
X122191821Y-73272715D01*
X122106107Y-73272715D01*
X122020392Y-73315572D01*
X121977535Y-73401286D01*
X121977535Y-73615572D01*
X121934678Y-73701286D01*
X121720392Y-74044143D02*
X122320392Y-74258429D01*
X121720392Y-74472715D02*
X122320392Y-74258429D01*
X122534678Y-74172715D01*
X122577535Y-74129857D01*
X122620392Y-74044143D01*
X122277535Y-75158429D02*
X122320392Y-75072715D01*
X122320392Y-74901286D01*
X122277535Y-74815572D01*
X122191821Y-74772715D01*
X121848964Y-74772715D01*
X121763250Y-74815572D01*
X121720392Y-74901286D01*
X121720392Y-75072715D01*
X121763250Y-75158429D01*
X121848964Y-75201286D01*
X121934678Y-75201286D01*
X122020392Y-74772715D01*
X122320392Y-75972715D02*
X121420392Y-75972715D01*
X122277535Y-75972715D02*
X122320392Y-75887000D01*
X122320392Y-75715572D01*
X122277535Y-75629857D01*
X122234678Y-75587000D01*
X122148964Y-75544143D01*
X121891821Y-75544143D01*
X121806107Y-75587000D01*
X121763250Y-75629857D01*
X121720392Y-75715572D01*
X121720392Y-75887000D01*
X121763250Y-75972715D01*
X123857892Y-71858429D02*
X122957892Y-71858429D01*
X122957892Y-72201286D01*
X123000750Y-72287000D01*
X123043607Y-72329857D01*
X123129321Y-72372715D01*
X123257892Y-72372715D01*
X123343607Y-72329857D01*
X123386464Y-72287000D01*
X123429321Y-72201286D01*
X123429321Y-71858429D01*
X123857892Y-72758429D02*
X123257892Y-72758429D01*
X122957892Y-72758429D02*
X123000750Y-72715572D01*
X123043607Y-72758429D01*
X123000750Y-72801286D01*
X122957892Y-72758429D01*
X123043607Y-72758429D01*
X123772178Y-73701286D02*
X123815035Y-73658429D01*
X123857892Y-73529857D01*
X123857892Y-73444143D01*
X123815035Y-73315572D01*
X123729321Y-73229857D01*
X123643607Y-73187000D01*
X123472178Y-73144143D01*
X123343607Y-73144143D01*
X123172178Y-73187000D01*
X123086464Y-73229857D01*
X123000750Y-73315572D01*
X122957892Y-73444143D01*
X122957892Y-73529857D01*
X123000750Y-73658429D01*
X123043607Y-73701286D01*
X123857892Y-74515572D02*
X123857892Y-74087000D01*
X122957892Y-74087000D01*
X123857892Y-74815572D02*
X122957892Y-74815572D01*
X123857892Y-75329857D02*
X123343607Y-74944143D01*
X122957892Y-75329857D02*
X123472178Y-74815572D01*
X126257392Y-71601285D02*
X125357392Y-71601285D01*
X126257392Y-72115571D01*
X125357392Y-72115571D01*
X126257392Y-72672714D02*
X126214535Y-72587000D01*
X126171678Y-72544142D01*
X126085964Y-72501285D01*
X125828821Y-72501285D01*
X125743107Y-72544142D01*
X125700250Y-72587000D01*
X125657392Y-72672714D01*
X125657392Y-72801285D01*
X125700250Y-72887000D01*
X125743107Y-72929857D01*
X125828821Y-72972714D01*
X126085964Y-72972714D01*
X126171678Y-72929857D01*
X126214535Y-72887000D01*
X126257392Y-72801285D01*
X126257392Y-72672714D01*
X126257392Y-73358428D02*
X125657392Y-73358428D01*
X125828821Y-73358428D02*
X125743107Y-73401285D01*
X125700250Y-73444142D01*
X125657392Y-73529857D01*
X125657392Y-73615571D01*
X126257392Y-73915571D02*
X125657392Y-73915571D01*
X125743107Y-73915571D02*
X125700250Y-73958428D01*
X125657392Y-74044142D01*
X125657392Y-74172714D01*
X125700250Y-74258428D01*
X125785964Y-74301285D01*
X126257392Y-74301285D01*
X125785964Y-74301285D02*
X125700250Y-74344142D01*
X125657392Y-74429857D01*
X125657392Y-74558428D01*
X125700250Y-74644142D01*
X125785964Y-74687000D01*
X126257392Y-74687000D01*
X126257392Y-75501285D02*
X125785964Y-75501285D01*
X125700250Y-75458428D01*
X125657392Y-75372714D01*
X125657392Y-75201285D01*
X125700250Y-75115571D01*
X126214535Y-75501285D02*
X126257392Y-75415571D01*
X126257392Y-75201285D01*
X126214535Y-75115571D01*
X126128821Y-75072714D01*
X126043107Y-75072714D01*
X125957392Y-75115571D01*
X125914535Y-75201285D01*
X125914535Y-75415571D01*
X125871678Y-75501285D01*
X126257392Y-76058428D02*
X126214535Y-75972714D01*
X126128821Y-75929857D01*
X125357392Y-75929857D01*
X127794892Y-72072714D02*
X126894892Y-72072714D01*
X126894892Y-72415571D01*
X126937750Y-72501285D01*
X126980607Y-72544142D01*
X127066321Y-72587000D01*
X127194892Y-72587000D01*
X127280607Y-72544142D01*
X127323464Y-72501285D01*
X127366321Y-72415571D01*
X127366321Y-72072714D01*
X127794892Y-72972714D02*
X127194892Y-72972714D01*
X126894892Y-72972714D02*
X126937750Y-72929857D01*
X126980607Y-72972714D01*
X126937750Y-73015571D01*
X126894892Y-72972714D01*
X126980607Y-72972714D01*
X127709178Y-73915571D02*
X127752035Y-73872714D01*
X127794892Y-73744142D01*
X127794892Y-73658428D01*
X127752035Y-73529857D01*
X127666321Y-73444142D01*
X127580607Y-73401285D01*
X127409178Y-73358428D01*
X127280607Y-73358428D01*
X127109178Y-73401285D01*
X127023464Y-73444142D01*
X126937750Y-73529857D01*
X126894892Y-73658428D01*
X126894892Y-73744142D01*
X126937750Y-73872714D01*
X126980607Y-73915571D01*
X127794892Y-74729857D02*
X127794892Y-74301285D01*
X126894892Y-74301285D01*
X127794892Y-75029857D02*
X126894892Y-75029857D01*
X127794892Y-75544142D02*
X127280607Y-75158428D01*
X126894892Y-75544142D02*
X127409178Y-75029857D01*
D12*
X121285000Y-103124000D02*
X123825000Y-103124000D01*
X123825000Y-102616000D02*
X123825000Y-103124000D01*
X121285000Y-103124000D02*
X121285000Y-102489000D01*
X127635000Y-103505000D02*
X127635000Y-104013000D01*
X125095000Y-104013000D02*
X127635000Y-104013000D01*
X125095000Y-104013000D02*
X125095000Y-103378000D01*
D14*
X122959761Y-105180095D02*
X123007380Y-105322952D01*
X123007380Y-105561048D01*
X122959761Y-105656286D01*
X122912142Y-105703905D01*
X122816904Y-105751524D01*
X122721666Y-105751524D01*
X122626428Y-105703905D01*
X122578809Y-105656286D01*
X122531190Y-105561048D01*
X122483571Y-105370571D01*
X122435952Y-105275333D01*
X122388333Y-105227714D01*
X122293095Y-105180095D01*
X122197857Y-105180095D01*
X122102619Y-105227714D01*
X122055000Y-105275333D01*
X122007380Y-105370571D01*
X122007380Y-105608667D01*
X122055000Y-105751524D01*
X122340714Y-106608667D02*
X123007380Y-106608667D01*
X122340714Y-106180095D02*
X122864523Y-106180095D01*
X122959761Y-106227714D01*
X123007380Y-106322952D01*
X123007380Y-106465809D01*
X122959761Y-106561048D01*
X122912142Y-106608667D01*
X122340714Y-107084857D02*
X123340714Y-107084857D01*
X122388333Y-107084857D02*
X122340714Y-107180095D01*
X122340714Y-107370571D01*
X122388333Y-107465809D01*
X122435952Y-107513428D01*
X122531190Y-107561048D01*
X122816904Y-107561048D01*
X122912142Y-107513428D01*
X122959761Y-107465809D01*
X123007380Y-107370571D01*
X123007380Y-107180095D01*
X122959761Y-107084857D01*
X122959761Y-108370571D02*
X123007380Y-108275333D01*
X123007380Y-108084857D01*
X122959761Y-107989619D01*
X122864523Y-107942000D01*
X122483571Y-107942000D01*
X122388333Y-107989619D01*
X122340714Y-108084857D01*
X122340714Y-108275333D01*
X122388333Y-108370571D01*
X122483571Y-108418190D01*
X122578809Y-108418190D01*
X122674047Y-107942000D01*
X123007380Y-108846762D02*
X122340714Y-108846762D01*
X122531190Y-108846762D02*
X122435952Y-108894381D01*
X122388333Y-108942000D01*
X122340714Y-109037238D01*
X122340714Y-109132476D01*
X123007380Y-109465809D02*
X122007380Y-109465809D01*
X122007380Y-109703905D01*
X122055000Y-109846762D01*
X122150238Y-109942000D01*
X122245476Y-109989619D01*
X122435952Y-110037238D01*
X122578809Y-110037238D01*
X122769285Y-109989619D01*
X122864523Y-109942000D01*
X122959761Y-109846762D01*
X123007380Y-109703905D01*
X123007380Y-109465809D01*
X122959761Y-110846762D02*
X123007380Y-110751524D01*
X123007380Y-110561048D01*
X122959761Y-110465809D01*
X122864523Y-110418190D01*
X122483571Y-110418190D01*
X122388333Y-110465809D01*
X122340714Y-110561048D01*
X122340714Y-110751524D01*
X122388333Y-110846762D01*
X122483571Y-110894381D01*
X122578809Y-110894381D01*
X122674047Y-110418190D01*
X122340714Y-111322952D02*
X123007380Y-111322952D01*
X122435952Y-111322952D02*
X122388333Y-111370571D01*
X122340714Y-111465809D01*
X122340714Y-111608667D01*
X122388333Y-111703905D01*
X122483571Y-111751524D01*
X123007380Y-111751524D01*
X123007380Y-112227714D02*
X122340714Y-112227714D01*
X122007380Y-112227714D02*
X122055000Y-112180095D01*
X122102619Y-112227714D01*
X122055000Y-112275333D01*
X122007380Y-112227714D01*
X122102619Y-112227714D01*
X122959761Y-112656286D02*
X123007380Y-112751524D01*
X123007380Y-112942000D01*
X122959761Y-113037238D01*
X122864523Y-113084857D01*
X122816904Y-113084857D01*
X122721666Y-113037238D01*
X122674047Y-112942000D01*
X122674047Y-112799143D01*
X122626428Y-112703905D01*
X122531190Y-112656286D01*
X122483571Y-112656286D01*
X122388333Y-112703905D01*
X122340714Y-112799143D01*
X122340714Y-112942000D01*
X122388333Y-113037238D01*
X122959761Y-113894381D02*
X123007380Y-113799143D01*
X123007380Y-113608667D01*
X122959761Y-113513428D01*
X122864523Y-113465809D01*
X122483571Y-113465809D01*
X122388333Y-113513428D01*
X122340714Y-113608667D01*
X122340714Y-113799143D01*
X122388333Y-113894381D01*
X122483571Y-113942000D01*
X122578809Y-113942000D01*
X122674047Y-113465809D01*
X126817380Y-105227714D02*
X125817380Y-105227714D01*
X125817380Y-105465809D01*
X125865000Y-105608666D01*
X125960238Y-105703904D01*
X126055476Y-105751523D01*
X126245952Y-105799142D01*
X126388809Y-105799142D01*
X126579285Y-105751523D01*
X126674523Y-105703904D01*
X126769761Y-105608666D01*
X126817380Y-105465809D01*
X126817380Y-105227714D01*
X126769761Y-106608666D02*
X126817380Y-106513428D01*
X126817380Y-106322952D01*
X126769761Y-106227714D01*
X126674523Y-106180095D01*
X126293571Y-106180095D01*
X126198333Y-106227714D01*
X126150714Y-106322952D01*
X126150714Y-106513428D01*
X126198333Y-106608666D01*
X126293571Y-106656285D01*
X126388809Y-106656285D01*
X126484047Y-106180095D01*
X126150714Y-107084857D02*
X126817380Y-107084857D01*
X126245952Y-107084857D02*
X126198333Y-107132476D01*
X126150714Y-107227714D01*
X126150714Y-107370571D01*
X126198333Y-107465809D01*
X126293571Y-107513428D01*
X126817380Y-107513428D01*
X126817380Y-107989619D02*
X126150714Y-107989619D01*
X125817380Y-107989619D02*
X125865000Y-107942000D01*
X125912619Y-107989619D01*
X125865000Y-108037238D01*
X125817380Y-107989619D01*
X125912619Y-107989619D01*
X126769761Y-108418190D02*
X126817380Y-108513428D01*
X126817380Y-108703904D01*
X126769761Y-108799142D01*
X126674523Y-108846761D01*
X126626904Y-108846761D01*
X126531666Y-108799142D01*
X126484047Y-108703904D01*
X126484047Y-108561047D01*
X126436428Y-108465809D01*
X126341190Y-108418190D01*
X126293571Y-108418190D01*
X126198333Y-108465809D01*
X126150714Y-108561047D01*
X126150714Y-108703904D01*
X126198333Y-108799142D01*
X126769761Y-109656285D02*
X126817380Y-109561047D01*
X126817380Y-109370571D01*
X126769761Y-109275333D01*
X126674523Y-109227714D01*
X126293571Y-109227714D01*
X126198333Y-109275333D01*
X126150714Y-109370571D01*
X126150714Y-109561047D01*
X126198333Y-109656285D01*
X126293571Y-109703904D01*
X126388809Y-109703904D01*
X126484047Y-109227714D01*
D11*
X129540428Y-60057357D02*
X128940428Y-60057357D01*
X129540428Y-60314500D02*
X129226142Y-60314500D01*
X129169000Y-60285928D01*
X129140428Y-60228785D01*
X129140428Y-60143071D01*
X129169000Y-60085928D01*
X129197571Y-60057357D01*
X129140428Y-60514500D02*
X129140428Y-60743071D01*
X128940428Y-60600214D02*
X129454714Y-60600214D01*
X129511857Y-60628785D01*
X129540428Y-60685928D01*
X129540428Y-60743071D01*
X129140428Y-60857357D02*
X129140428Y-61085928D01*
X128940428Y-60943071D02*
X129454714Y-60943071D01*
X129511857Y-60971642D01*
X129540428Y-61028785D01*
X129540428Y-61085928D01*
X129140428Y-61285928D02*
X129740428Y-61285928D01*
X129169000Y-61285928D02*
X129140428Y-61343071D01*
X129140428Y-61457357D01*
X129169000Y-61514500D01*
X129197571Y-61543071D01*
X129254714Y-61571642D01*
X129426142Y-61571642D01*
X129483285Y-61543071D01*
X129511857Y-61514500D01*
X129540428Y-61457357D01*
X129540428Y-61343071D01*
X129511857Y-61285928D01*
X129511857Y-61800214D02*
X129540428Y-61857357D01*
X129540428Y-61971642D01*
X129511857Y-62028785D01*
X129454714Y-62057357D01*
X129426142Y-62057357D01*
X129369000Y-62028785D01*
X129340428Y-61971642D01*
X129340428Y-61885928D01*
X129311857Y-61828785D01*
X129254714Y-61800214D01*
X129226142Y-61800214D01*
X129169000Y-61828785D01*
X129140428Y-61885928D01*
X129140428Y-61971642D01*
X129169000Y-62028785D01*
X129483285Y-62314500D02*
X129511857Y-62343071D01*
X129540428Y-62314500D01*
X129511857Y-62285928D01*
X129483285Y-62314500D01*
X129540428Y-62314500D01*
X129169000Y-62314500D02*
X129197571Y-62343071D01*
X129226142Y-62314500D01*
X129197571Y-62285928D01*
X129169000Y-62314500D01*
X129226142Y-62314500D01*
X128911857Y-63028785D02*
X129683285Y-62514500D01*
X128911857Y-63657357D02*
X129683285Y-63143071D01*
X129140428Y-64114500D02*
X129626142Y-64114500D01*
X129683285Y-64085928D01*
X129711857Y-64057357D01*
X129740428Y-64000214D01*
X129740428Y-63914500D01*
X129711857Y-63857357D01*
X129511857Y-64114500D02*
X129540428Y-64057357D01*
X129540428Y-63943071D01*
X129511857Y-63885928D01*
X129483285Y-63857357D01*
X129426142Y-63828785D01*
X129254714Y-63828785D01*
X129197571Y-63857357D01*
X129169000Y-63885928D01*
X129140428Y-63943071D01*
X129140428Y-64057357D01*
X129169000Y-64114500D01*
X129540428Y-64400214D02*
X129140428Y-64400214D01*
X128940428Y-64400214D02*
X128969000Y-64371642D01*
X128997571Y-64400214D01*
X128969000Y-64428785D01*
X128940428Y-64400214D01*
X128997571Y-64400214D01*
X129140428Y-64600214D02*
X129140428Y-64828785D01*
X128940428Y-64685928D02*
X129454714Y-64685928D01*
X129511857Y-64714500D01*
X129540428Y-64771642D01*
X129540428Y-64828785D01*
X129540428Y-65028785D02*
X128940428Y-65028785D01*
X129540428Y-65285928D02*
X129226142Y-65285928D01*
X129169000Y-65257357D01*
X129140428Y-65200214D01*
X129140428Y-65114500D01*
X129169000Y-65057357D01*
X129197571Y-65028785D01*
X129140428Y-65828785D02*
X129540428Y-65828785D01*
X129140428Y-65571642D02*
X129454714Y-65571642D01*
X129511857Y-65600214D01*
X129540428Y-65657357D01*
X129540428Y-65743071D01*
X129511857Y-65800214D01*
X129483285Y-65828785D01*
X129540428Y-66114500D02*
X128940428Y-66114500D01*
X129169000Y-66114500D02*
X129140428Y-66171642D01*
X129140428Y-66285928D01*
X129169000Y-66343071D01*
X129197571Y-66371642D01*
X129254714Y-66400214D01*
X129426142Y-66400214D01*
X129483285Y-66371642D01*
X129511857Y-66343071D01*
X129540428Y-66285928D01*
X129540428Y-66171642D01*
X129511857Y-66114500D01*
X129483285Y-66657357D02*
X129511857Y-66685928D01*
X129540428Y-66657357D01*
X129511857Y-66628785D01*
X129483285Y-66657357D01*
X129540428Y-66657357D01*
X129511857Y-67200214D02*
X129540428Y-67143071D01*
X129540428Y-67028785D01*
X129511857Y-66971642D01*
X129483285Y-66943071D01*
X129426142Y-66914500D01*
X129254714Y-66914500D01*
X129197571Y-66943071D01*
X129169000Y-66971642D01*
X129140428Y-67028785D01*
X129140428Y-67143071D01*
X129169000Y-67200214D01*
X129540428Y-67543071D02*
X129511857Y-67485928D01*
X129483285Y-67457357D01*
X129426142Y-67428785D01*
X129254714Y-67428785D01*
X129197571Y-67457357D01*
X129169000Y-67485928D01*
X129140428Y-67543071D01*
X129140428Y-67628785D01*
X129169000Y-67685928D01*
X129197571Y-67714500D01*
X129254714Y-67743071D01*
X129426142Y-67743071D01*
X129483285Y-67714500D01*
X129511857Y-67685928D01*
X129540428Y-67628785D01*
X129540428Y-67543071D01*
X129540428Y-68000214D02*
X129140428Y-68000214D01*
X129197571Y-68000214D02*
X129169000Y-68028785D01*
X129140428Y-68085928D01*
X129140428Y-68171642D01*
X129169000Y-68228785D01*
X129226142Y-68257357D01*
X129540428Y-68257357D01*
X129226142Y-68257357D02*
X129169000Y-68285928D01*
X129140428Y-68343071D01*
X129140428Y-68428785D01*
X129169000Y-68485928D01*
X129226142Y-68514500D01*
X129540428Y-68514500D01*
X128911857Y-69228785D02*
X129683285Y-68714500D01*
X129540428Y-69428785D02*
X128940428Y-69428785D01*
X129540428Y-69685928D02*
X129226142Y-69685928D01*
X129169000Y-69657357D01*
X129140428Y-69600214D01*
X129140428Y-69514500D01*
X129169000Y-69457357D01*
X129197571Y-69428785D01*
X129540428Y-70057357D02*
X129511857Y-70000214D01*
X129483285Y-69971642D01*
X129426142Y-69943071D01*
X129254714Y-69943071D01*
X129197571Y-69971642D01*
X129169000Y-70000214D01*
X129140428Y-70057357D01*
X129140428Y-70143071D01*
X129169000Y-70200214D01*
X129197571Y-70228785D01*
X129254714Y-70257357D01*
X129426142Y-70257357D01*
X129483285Y-70228785D01*
X129511857Y-70200214D01*
X129540428Y-70143071D01*
X129540428Y-70057357D01*
X129140428Y-70771642D02*
X129626142Y-70771642D01*
X129683285Y-70743071D01*
X129711857Y-70714500D01*
X129740428Y-70657357D01*
X129740428Y-70571642D01*
X129711857Y-70514500D01*
X129511857Y-70771642D02*
X129540428Y-70714500D01*
X129540428Y-70600214D01*
X129511857Y-70543071D01*
X129483285Y-70514500D01*
X129426142Y-70485928D01*
X129254714Y-70485928D01*
X129197571Y-70514500D01*
X129169000Y-70543071D01*
X129140428Y-70600214D01*
X129140428Y-70714500D01*
X129169000Y-70771642D01*
X129540428Y-71143071D02*
X129511857Y-71085928D01*
X129454714Y-71057357D01*
X128940428Y-71057357D01*
X129511857Y-71600214D02*
X129540428Y-71543071D01*
X129540428Y-71428785D01*
X129511857Y-71371642D01*
X129454714Y-71343071D01*
X129226142Y-71343071D01*
X129169000Y-71371642D01*
X129140428Y-71428785D01*
X129140428Y-71543071D01*
X129169000Y-71600214D01*
X129226142Y-71628785D01*
X129283285Y-71628785D01*
X129340428Y-71343071D01*
X129140428Y-71800214D02*
X129140428Y-72028785D01*
X128940428Y-71885928D02*
X129454714Y-71885928D01*
X129511857Y-71914500D01*
X129540428Y-71971642D01*
X129540428Y-72028785D01*
X128940428Y-72485928D02*
X128940428Y-72371642D01*
X128969000Y-72314500D01*
X128997571Y-72285928D01*
X129083285Y-72228785D01*
X129197571Y-72200214D01*
X129426142Y-72200214D01*
X129483285Y-72228785D01*
X129511857Y-72257357D01*
X129540428Y-72314500D01*
X129540428Y-72428785D01*
X129511857Y-72485928D01*
X129483285Y-72514500D01*
X129426142Y-72543071D01*
X129283285Y-72543071D01*
X129226142Y-72514500D01*
X129197571Y-72485928D01*
X129169000Y-72428785D01*
X129169000Y-72314500D01*
X129197571Y-72257357D01*
X129226142Y-72228785D01*
X129283285Y-72200214D01*
X128940428Y-72743071D02*
X128940428Y-73143071D01*
X129540428Y-72885928D01*
X128911857Y-73800214D02*
X129683285Y-73285928D01*
X129540428Y-74343071D02*
X129254714Y-74143071D01*
X129540428Y-74000214D02*
X128940428Y-74000214D01*
X128940428Y-74228785D01*
X128969000Y-74285928D01*
X128997571Y-74314500D01*
X129054714Y-74343071D01*
X129140428Y-74343071D01*
X129197571Y-74314500D01*
X129226142Y-74285928D01*
X129254714Y-74228785D01*
X129254714Y-74000214D01*
X128969000Y-74914500D02*
X128940428Y-74857357D01*
X128940428Y-74771642D01*
X128969000Y-74685928D01*
X129026142Y-74628785D01*
X129083285Y-74600214D01*
X129197571Y-74571642D01*
X129283285Y-74571642D01*
X129397571Y-74600214D01*
X129454714Y-74628785D01*
X129511857Y-74685928D01*
X129540428Y-74771642D01*
X129540428Y-74828785D01*
X129511857Y-74914500D01*
X129483285Y-74943071D01*
X129283285Y-74943071D01*
X129283285Y-74828785D01*
X129226142Y-75400214D02*
X129254714Y-75485928D01*
X129283285Y-75514500D01*
X129340428Y-75543071D01*
X129426142Y-75543071D01*
X129483285Y-75514500D01*
X129511857Y-75485928D01*
X129540428Y-75428785D01*
X129540428Y-75200214D01*
X128940428Y-75200214D01*
X128940428Y-75400214D01*
X128969000Y-75457357D01*
X128997571Y-75485928D01*
X129054714Y-75514500D01*
X129111857Y-75514500D01*
X129169000Y-75485928D01*
X129197571Y-75457357D01*
X129226142Y-75400214D01*
X129226142Y-75200214D01*
X129140428Y-75714500D02*
X129140428Y-75943071D01*
X128940428Y-75800214D02*
X129454714Y-75800214D01*
X129511857Y-75828785D01*
X129540428Y-75885928D01*
X129540428Y-75943071D01*
X129540428Y-76228785D02*
X129511857Y-76171642D01*
X129483285Y-76143071D01*
X129426142Y-76114500D01*
X129254714Y-76114500D01*
X129197571Y-76143071D01*
X129169000Y-76171642D01*
X129140428Y-76228785D01*
X129140428Y-76314500D01*
X129169000Y-76371642D01*
X129197571Y-76400214D01*
X129254714Y-76428785D01*
X129426142Y-76428785D01*
X129483285Y-76400214D01*
X129511857Y-76371642D01*
X129540428Y-76314500D01*
X129540428Y-76228785D01*
X129540428Y-76685928D02*
X128940428Y-76685928D01*
X129226142Y-76685928D02*
X129226142Y-77028785D01*
X129540428Y-77028785D02*
X128940428Y-77028785D01*
X129540428Y-77314500D02*
X128940428Y-77314500D01*
X128940428Y-77457357D01*
X128969000Y-77543071D01*
X129026142Y-77600214D01*
X129083285Y-77628785D01*
X129197571Y-77657357D01*
X129283285Y-77657357D01*
X129397571Y-77628785D01*
X129454714Y-77600214D01*
X129511857Y-77543071D01*
X129540428Y-77457357D01*
X129540428Y-77314500D01*
X129540428Y-77914500D02*
X128940428Y-77914500D01*
X129369000Y-78114500D01*
X128940428Y-78314500D01*
X129540428Y-78314500D01*
X129540428Y-78600214D02*
X128940428Y-78600214D01*
X130276142Y-60257357D02*
X130304714Y-60343071D01*
X130333285Y-60371642D01*
X130390428Y-60400214D01*
X130476142Y-60400214D01*
X130533285Y-60371642D01*
X130561857Y-60343071D01*
X130590428Y-60285928D01*
X130590428Y-60057357D01*
X129990428Y-60057357D01*
X129990428Y-60257357D01*
X130019000Y-60314500D01*
X130047571Y-60343071D01*
X130104714Y-60371642D01*
X130161857Y-60371642D01*
X130219000Y-60343071D01*
X130247571Y-60314500D01*
X130276142Y-60257357D01*
X130276142Y-60057357D01*
X130590428Y-60914500D02*
X130276142Y-60914500D01*
X130219000Y-60885928D01*
X130190428Y-60828785D01*
X130190428Y-60714500D01*
X130219000Y-60657357D01*
X130561857Y-60914500D02*
X130590428Y-60857357D01*
X130590428Y-60714500D01*
X130561857Y-60657357D01*
X130504714Y-60628785D01*
X130447571Y-60628785D01*
X130390428Y-60657357D01*
X130361857Y-60714500D01*
X130361857Y-60857357D01*
X130333285Y-60914500D01*
X130561857Y-61171642D02*
X130590428Y-61228785D01*
X130590428Y-61343071D01*
X130561857Y-61400214D01*
X130504714Y-61428785D01*
X130476142Y-61428785D01*
X130419000Y-61400214D01*
X130390428Y-61343071D01*
X130390428Y-61257357D01*
X130361857Y-61200214D01*
X130304714Y-61171642D01*
X130276142Y-61171642D01*
X130219000Y-61200214D01*
X130190428Y-61257357D01*
X130190428Y-61343071D01*
X130219000Y-61400214D01*
X130561857Y-61914500D02*
X130590428Y-61857357D01*
X130590428Y-61743071D01*
X130561857Y-61685928D01*
X130504714Y-61657357D01*
X130276142Y-61657357D01*
X130219000Y-61685928D01*
X130190428Y-61743071D01*
X130190428Y-61857357D01*
X130219000Y-61914500D01*
X130276142Y-61943071D01*
X130333285Y-61943071D01*
X130390428Y-61657357D01*
X130590428Y-62457357D02*
X129990428Y-62457357D01*
X130561857Y-62457357D02*
X130590428Y-62400214D01*
X130590428Y-62285928D01*
X130561857Y-62228785D01*
X130533285Y-62200214D01*
X130476142Y-62171642D01*
X130304714Y-62171642D01*
X130247571Y-62200214D01*
X130219000Y-62228785D01*
X130190428Y-62285928D01*
X130190428Y-62400214D01*
X130219000Y-62457357D01*
X130590428Y-63285928D02*
X130561857Y-63228785D01*
X130533285Y-63200214D01*
X130476142Y-63171642D01*
X130304714Y-63171642D01*
X130247571Y-63200214D01*
X130219000Y-63228785D01*
X130190428Y-63285928D01*
X130190428Y-63371642D01*
X130219000Y-63428785D01*
X130247571Y-63457357D01*
X130304714Y-63485928D01*
X130476142Y-63485928D01*
X130533285Y-63457357D01*
X130561857Y-63428785D01*
X130590428Y-63371642D01*
X130590428Y-63285928D01*
X130190428Y-63743071D02*
X130590428Y-63743071D01*
X130247571Y-63743071D02*
X130219000Y-63771642D01*
X130190428Y-63828785D01*
X130190428Y-63914500D01*
X130219000Y-63971642D01*
X130276142Y-64000214D01*
X130590428Y-64000214D01*
X130590428Y-65085928D02*
X130304714Y-64885928D01*
X130590428Y-64743071D02*
X129990428Y-64743071D01*
X129990428Y-64971642D01*
X130019000Y-65028785D01*
X130047571Y-65057357D01*
X130104714Y-65085928D01*
X130190428Y-65085928D01*
X130247571Y-65057357D01*
X130276142Y-65028785D01*
X130304714Y-64971642D01*
X130304714Y-64743071D01*
X130019000Y-65657357D02*
X129990428Y-65600214D01*
X129990428Y-65514500D01*
X130019000Y-65428785D01*
X130076142Y-65371642D01*
X130133285Y-65343071D01*
X130247571Y-65314500D01*
X130333285Y-65314500D01*
X130447571Y-65343071D01*
X130504714Y-65371642D01*
X130561857Y-65428785D01*
X130590428Y-65514500D01*
X130590428Y-65571642D01*
X130561857Y-65657357D01*
X130533285Y-65685928D01*
X130333285Y-65685928D01*
X130333285Y-65571642D01*
X130276142Y-66143071D02*
X130304714Y-66228785D01*
X130333285Y-66257357D01*
X130390428Y-66285928D01*
X130476142Y-66285928D01*
X130533285Y-66257357D01*
X130561857Y-66228785D01*
X130590428Y-66171642D01*
X130590428Y-65943071D01*
X129990428Y-65943071D01*
X129990428Y-66143071D01*
X130019000Y-66200214D01*
X130047571Y-66228785D01*
X130104714Y-66257357D01*
X130161857Y-66257357D01*
X130219000Y-66228785D01*
X130247571Y-66200214D01*
X130276142Y-66143071D01*
X130276142Y-65943071D01*
X130190428Y-66457357D02*
X130190428Y-66685928D01*
X129990428Y-66543071D02*
X130504714Y-66543071D01*
X130561857Y-66571642D01*
X130590428Y-66628785D01*
X130590428Y-66685928D01*
X130590428Y-66971642D02*
X130561857Y-66914500D01*
X130533285Y-66885928D01*
X130476142Y-66857357D01*
X130304714Y-66857357D01*
X130247571Y-66885928D01*
X130219000Y-66914500D01*
X130190428Y-66971642D01*
X130190428Y-67057357D01*
X130219000Y-67114500D01*
X130247571Y-67143071D01*
X130304714Y-67171642D01*
X130476142Y-67171642D01*
X130533285Y-67143071D01*
X130561857Y-67114500D01*
X130590428Y-67057357D01*
X130590428Y-66971642D01*
X130590428Y-67428785D02*
X129990428Y-67428785D01*
X130276142Y-67428785D02*
X130276142Y-67771642D01*
X130590428Y-67771642D02*
X129990428Y-67771642D01*
X130590428Y-68057357D02*
X129990428Y-68057357D01*
X129990428Y-68200214D01*
X130019000Y-68285928D01*
X130076142Y-68343071D01*
X130133285Y-68371642D01*
X130247571Y-68400214D01*
X130333285Y-68400214D01*
X130447571Y-68371642D01*
X130504714Y-68343071D01*
X130561857Y-68285928D01*
X130590428Y-68200214D01*
X130590428Y-68057357D01*
X130590428Y-68657357D02*
X129990428Y-68657357D01*
X130419000Y-68857357D01*
X129990428Y-69057357D01*
X130590428Y-69057357D01*
X130590428Y-69343071D02*
X129990428Y-69343071D01*
X130419000Y-70057357D02*
X130419000Y-70343071D01*
X130590428Y-70000214D02*
X129990428Y-70200214D01*
X130590428Y-70400214D01*
X130590428Y-70600214D02*
X130190428Y-70600214D01*
X130247571Y-70600214D02*
X130219000Y-70628785D01*
X130190428Y-70685928D01*
X130190428Y-70771642D01*
X130219000Y-70828785D01*
X130276142Y-70857357D01*
X130590428Y-70857357D01*
X130276142Y-70857357D02*
X130219000Y-70885928D01*
X130190428Y-70943071D01*
X130190428Y-71028785D01*
X130219000Y-71085928D01*
X130276142Y-71114500D01*
X130590428Y-71114500D01*
X130590428Y-71400214D02*
X130190428Y-71400214D01*
X129990428Y-71400214D02*
X130019000Y-71371642D01*
X130047571Y-71400214D01*
X130019000Y-71428785D01*
X129990428Y-71400214D01*
X130047571Y-71400214D01*
X130190428Y-71943071D02*
X130676142Y-71943071D01*
X130733285Y-71914500D01*
X130761857Y-71885928D01*
X130790428Y-71828785D01*
X130790428Y-71743071D01*
X130761857Y-71685928D01*
X130561857Y-71943071D02*
X130590428Y-71885928D01*
X130590428Y-71771642D01*
X130561857Y-71714500D01*
X130533285Y-71685928D01*
X130476142Y-71657357D01*
X130304714Y-71657357D01*
X130247571Y-71685928D01*
X130219000Y-71714500D01*
X130190428Y-71771642D01*
X130190428Y-71885928D01*
X130219000Y-71943071D01*
X130590428Y-72485928D02*
X130276142Y-72485928D01*
X130219000Y-72457357D01*
X130190428Y-72400214D01*
X130190428Y-72285928D01*
X130219000Y-72228785D01*
X130561857Y-72485928D02*
X130590428Y-72428785D01*
X130590428Y-72285928D01*
X130561857Y-72228785D01*
X130504714Y-72200214D01*
X130447571Y-72200214D01*
X130390428Y-72228785D01*
X130361857Y-72285928D01*
X130361857Y-72428785D01*
X130333285Y-72485928D01*
X130419000Y-73200214D02*
X130419000Y-73485928D01*
X130590428Y-73143071D02*
X129990428Y-73343071D01*
X130590428Y-73543071D01*
X130590428Y-74000214D02*
X129990428Y-74000214D01*
X130561857Y-74000214D02*
X130590428Y-73943071D01*
X130590428Y-73828785D01*
X130561857Y-73771642D01*
X130533285Y-73743071D01*
X130476142Y-73714500D01*
X130304714Y-73714500D01*
X130247571Y-73743071D01*
X130219000Y-73771642D01*
X130190428Y-73828785D01*
X130190428Y-73943071D01*
X130219000Y-74000214D01*
X130590428Y-74543071D02*
X130276142Y-74543071D01*
X130219000Y-74514500D01*
X130190428Y-74457357D01*
X130190428Y-74343071D01*
X130219000Y-74285928D01*
X130561857Y-74543071D02*
X130590428Y-74485928D01*
X130590428Y-74343071D01*
X130561857Y-74285928D01*
X130504714Y-74257357D01*
X130447571Y-74257357D01*
X130390428Y-74285928D01*
X130361857Y-74343071D01*
X130361857Y-74485928D01*
X130333285Y-74543071D01*
X130190428Y-74828785D02*
X130790428Y-74828785D01*
X130219000Y-74828785D02*
X130190428Y-74885928D01*
X130190428Y-75000214D01*
X130219000Y-75057357D01*
X130247571Y-75085928D01*
X130304714Y-75114500D01*
X130476142Y-75114500D01*
X130533285Y-75085928D01*
X130561857Y-75057357D01*
X130590428Y-75000214D01*
X130590428Y-74885928D01*
X130561857Y-74828785D01*
X130190428Y-75285928D02*
X130190428Y-75514500D01*
X129990428Y-75371642D02*
X130504714Y-75371642D01*
X130561857Y-75400214D01*
X130590428Y-75457357D01*
X130590428Y-75514500D01*
X130561857Y-75943071D02*
X130590428Y-75885928D01*
X130590428Y-75771642D01*
X130561857Y-75714500D01*
X130504714Y-75685928D01*
X130276142Y-75685928D01*
X130219000Y-75714500D01*
X130190428Y-75771642D01*
X130190428Y-75885928D01*
X130219000Y-75943071D01*
X130276142Y-75971642D01*
X130333285Y-75971642D01*
X130390428Y-75685928D01*
X130590428Y-76228785D02*
X130190428Y-76228785D01*
X130304714Y-76228785D02*
X130247571Y-76257357D01*
X130219000Y-76285928D01*
X130190428Y-76343071D01*
X130190428Y-76400214D01*
X130190428Y-77000214D02*
X130590428Y-77143071D01*
X130190428Y-77285928D01*
X130047571Y-77485928D02*
X130019000Y-77514500D01*
X129990428Y-77571642D01*
X129990428Y-77714500D01*
X130019000Y-77771642D01*
X130047571Y-77800214D01*
X130104714Y-77828785D01*
X130161857Y-77828785D01*
X130247571Y-77800214D01*
X130590428Y-77457357D01*
X130590428Y-77828785D01*
X130590428Y-78543071D02*
X129990428Y-78543071D01*
X130219000Y-78543071D02*
X130190428Y-78600214D01*
X130190428Y-78714500D01*
X130219000Y-78771642D01*
X130247571Y-78800214D01*
X130304714Y-78828785D01*
X130476142Y-78828785D01*
X130533285Y-78800214D01*
X130561857Y-78771642D01*
X130590428Y-78714500D01*
X130590428Y-78600214D01*
X130561857Y-78543071D01*
X130190428Y-79028785D02*
X130590428Y-79171642D01*
X130190428Y-79314500D02*
X130590428Y-79171642D01*
X130733285Y-79114500D01*
X130761857Y-79085928D01*
X130790428Y-79028785D01*
X130561857Y-80257357D02*
X130590428Y-80200214D01*
X130590428Y-80085928D01*
X130561857Y-80028785D01*
X130533285Y-80000214D01*
X130476142Y-79971642D01*
X130304714Y-79971642D01*
X130247571Y-80000214D01*
X130219000Y-80028785D01*
X130190428Y-80085928D01*
X130190428Y-80200214D01*
X130219000Y-80257357D01*
X129990428Y-80628785D02*
X129990428Y-80685928D01*
X130019000Y-80743071D01*
X130047571Y-80771642D01*
X130104714Y-80800214D01*
X130219000Y-80828785D01*
X130361857Y-80828785D01*
X130476142Y-80800214D01*
X130533285Y-80771642D01*
X130561857Y-80743071D01*
X130590428Y-80685928D01*
X130590428Y-80628785D01*
X130561857Y-80571642D01*
X130533285Y-80543071D01*
X130476142Y-80514500D01*
X130361857Y-80485928D01*
X130219000Y-80485928D01*
X130104714Y-80514500D01*
X130047571Y-80543071D01*
X130019000Y-80571642D01*
X129990428Y-80628785D01*
X130190428Y-81085928D02*
X130790428Y-81085928D01*
X130219000Y-81085928D02*
X130190428Y-81143071D01*
X130190428Y-81257357D01*
X130219000Y-81314500D01*
X130247571Y-81343071D01*
X130304714Y-81371642D01*
X130476142Y-81371642D01*
X130533285Y-81343071D01*
X130561857Y-81314500D01*
X130590428Y-81257357D01*
X130590428Y-81143071D01*
X130561857Y-81085928D01*
X130190428Y-81628785D02*
X130790428Y-81628785D01*
X130219000Y-81628785D02*
X130190428Y-81685928D01*
X130190428Y-81800214D01*
X130219000Y-81857357D01*
X130247571Y-81885928D01*
X130304714Y-81914500D01*
X130476142Y-81914500D01*
X130533285Y-81885928D01*
X130561857Y-81857357D01*
X130590428Y-81800214D01*
X130590428Y-81685928D01*
X130561857Y-81628785D01*
X130561857Y-82400214D02*
X130590428Y-82343071D01*
X130590428Y-82228785D01*
X130561857Y-82171642D01*
X130504714Y-82143071D01*
X130276142Y-82143071D01*
X130219000Y-82171642D01*
X130190428Y-82228785D01*
X130190428Y-82343071D01*
X130219000Y-82400214D01*
X130276142Y-82428785D01*
X130333285Y-82428785D01*
X130390428Y-82143071D01*
X130590428Y-82685928D02*
X130190428Y-82685928D01*
X130304714Y-82685928D02*
X130247571Y-82714500D01*
X130219000Y-82743071D01*
X130190428Y-82800214D01*
X130190428Y-82857357D01*
X130590428Y-83314500D02*
X129990428Y-83314500D01*
X130561857Y-83314500D02*
X130590428Y-83257357D01*
X130590428Y-83143071D01*
X130561857Y-83085928D01*
X130533285Y-83057357D01*
X130476142Y-83028785D01*
X130304714Y-83028785D01*
X130247571Y-83057357D01*
X130219000Y-83085928D01*
X130190428Y-83143071D01*
X130190428Y-83257357D01*
X130219000Y-83314500D01*
X130590428Y-83600214D02*
X130190428Y-83600214D01*
X130304714Y-83600214D02*
X130247571Y-83628785D01*
X130219000Y-83657357D01*
X130190428Y-83714500D01*
X130190428Y-83771642D01*
X130590428Y-84228785D02*
X130276142Y-84228785D01*
X130219000Y-84200214D01*
X130190428Y-84143071D01*
X130190428Y-84028785D01*
X130219000Y-83971642D01*
X130561857Y-84228785D02*
X130590428Y-84171642D01*
X130590428Y-84028785D01*
X130561857Y-83971642D01*
X130504714Y-83943071D01*
X130447571Y-83943071D01*
X130390428Y-83971642D01*
X130361857Y-84028785D01*
X130361857Y-84171642D01*
X130333285Y-84228785D01*
X130190428Y-84771642D02*
X130676142Y-84771642D01*
X130733285Y-84743071D01*
X130761857Y-84714500D01*
X130790428Y-84657357D01*
X130790428Y-84571642D01*
X130761857Y-84514500D01*
X130561857Y-84771642D02*
X130590428Y-84714500D01*
X130590428Y-84600214D01*
X130561857Y-84543071D01*
X130533285Y-84514500D01*
X130476142Y-84485928D01*
X130304714Y-84485928D01*
X130247571Y-84514500D01*
X130219000Y-84543071D01*
X130190428Y-84600214D01*
X130190428Y-84714500D01*
X130219000Y-84771642D01*
X130590428Y-85143071D02*
X130561857Y-85085928D01*
X130533285Y-85057357D01*
X130476142Y-85028785D01*
X130304714Y-85028785D01*
X130247571Y-85057357D01*
X130219000Y-85085928D01*
X130190428Y-85143071D01*
X130190428Y-85228785D01*
X130219000Y-85285928D01*
X130247571Y-85314500D01*
X130304714Y-85343071D01*
X130476142Y-85343071D01*
X130533285Y-85314500D01*
X130561857Y-85285928D01*
X130590428Y-85228785D01*
X130590428Y-85143071D01*
X130190428Y-85600214D02*
X130590428Y-85600214D01*
X130247571Y-85600214D02*
X130219000Y-85628785D01*
X130190428Y-85685928D01*
X130190428Y-85771642D01*
X130219000Y-85828785D01*
X130276142Y-85857357D01*
X130590428Y-85857357D01*
D15*
X135950000Y-59630000D02*
X134620000Y-59630000D01*
X135950000Y-60960000D02*
X135950000Y-59630000D01*
X135950000Y-62230000D02*
X133290000Y-62230000D01*
X133290000Y-62230000D02*
X133290000Y-120710000D01*
X135950000Y-62230000D02*
X135950000Y-120710000D01*
X135950000Y-120710000D02*
X133290000Y-120710000D01*
X120710000Y-59630000D02*
X119380000Y-59630000D01*
X120710000Y-60960000D02*
X120710000Y-59630000D01*
X120710000Y-62230000D02*
X118050000Y-62230000D01*
X118050000Y-62230000D02*
X118050000Y-120710000D01*
X120710000Y-62230000D02*
X120710000Y-120710000D01*
X120710000Y-120710000D02*
X118050000Y-120710000D01*
X128270000Y-90170000D02*
X128270000Y-88900000D01*
X127000000Y-90170000D02*
X128270000Y-90170000D01*
X121540000Y-87857071D02*
X121540000Y-87460000D01*
X122300000Y-87857071D02*
X122300000Y-87460000D01*
X121540000Y-78800000D02*
X121540000Y-84800000D01*
X122300000Y-78800000D02*
X121540000Y-78800000D01*
X122300000Y-84800000D02*
X122300000Y-78800000D01*
X123190000Y-87460000D02*
X123190000Y-84800000D01*
X124080000Y-87857071D02*
X124080000Y-87460000D01*
X124840000Y-87857071D02*
X124840000Y-87460000D01*
X124080000Y-78800000D02*
X124080000Y-84800000D01*
X124840000Y-78800000D02*
X124080000Y-78800000D01*
X124840000Y-84800000D02*
X124840000Y-78800000D01*
X125730000Y-87460000D02*
X125730000Y-84800000D01*
X126620000Y-87790000D02*
X126620000Y-87460000D01*
X127380000Y-87790000D02*
X127380000Y-87460000D01*
X126720000Y-84800000D02*
X126720000Y-78800000D01*
X126840000Y-84800000D02*
X126840000Y-78800000D01*
X126960000Y-84800000D02*
X126960000Y-78800000D01*
X127080000Y-84800000D02*
X127080000Y-78800000D01*
X127200000Y-84800000D02*
X127200000Y-78800000D01*
X127320000Y-84800000D02*
X127320000Y-78800000D01*
X126620000Y-78800000D02*
X126620000Y-84800000D01*
X127380000Y-78800000D02*
X126620000Y-78800000D01*
X127380000Y-84800000D02*
X127380000Y-78800000D01*
X128330000Y-84800000D02*
X128330000Y-87460000D01*
X120590000Y-84800000D02*
X128330000Y-84800000D01*
X120590000Y-87460000D02*
X120590000Y-84800000D01*
X128330000Y-87460000D02*
X120590000Y-87460000D01*
X120590000Y-92880000D02*
X128330000Y-92880000D01*
X128330000Y-92880000D02*
X128330000Y-95540000D01*
X128330000Y-95540000D02*
X120590000Y-95540000D01*
X120590000Y-95540000D02*
X120590000Y-92880000D01*
X121540000Y-95540000D02*
X121540000Y-101540000D01*
X121540000Y-101540000D02*
X122300000Y-101540000D01*
X122300000Y-101540000D02*
X122300000Y-95540000D01*
X121600000Y-95540000D02*
X121600000Y-101540000D01*
X121720000Y-95540000D02*
X121720000Y-101540000D01*
X121840000Y-95540000D02*
X121840000Y-101540000D01*
X121960000Y-95540000D02*
X121960000Y-101540000D01*
X122080000Y-95540000D02*
X122080000Y-101540000D01*
X122200000Y-95540000D02*
X122200000Y-101540000D01*
X121540000Y-92550000D02*
X121540000Y-92880000D01*
X122300000Y-92550000D02*
X122300000Y-92880000D01*
X123190000Y-92880000D02*
X123190000Y-95540000D01*
X124080000Y-95540000D02*
X124080000Y-101540000D01*
X124080000Y-101540000D02*
X124840000Y-101540000D01*
X124840000Y-101540000D02*
X124840000Y-95540000D01*
X124080000Y-92482929D02*
X124080000Y-92880000D01*
X124840000Y-92482929D02*
X124840000Y-92880000D01*
X125730000Y-92880000D02*
X125730000Y-95540000D01*
X126620000Y-95540000D02*
X126620000Y-101540000D01*
X126620000Y-101540000D02*
X127380000Y-101540000D01*
X127380000Y-101540000D02*
X127380000Y-95540000D01*
X126620000Y-92482929D02*
X126620000Y-92880000D01*
X127380000Y-92482929D02*
X127380000Y-92880000D01*
X121920000Y-90170000D02*
X120650000Y-90170000D01*
X120650000Y-90170000D02*
X120650000Y-91440000D01*
D11*
X130333666Y-87953904D02*
X130333666Y-88525333D01*
X130371761Y-88639619D01*
X130447952Y-88715809D01*
X130562238Y-88753904D01*
X130638428Y-88753904D01*
X129952714Y-88753904D02*
X129952714Y-87953904D01*
X129647952Y-87953904D01*
X129571761Y-87992000D01*
X129533666Y-88030095D01*
X129495571Y-88106285D01*
X129495571Y-88220571D01*
X129533666Y-88296761D01*
X129571761Y-88334857D01*
X129647952Y-88372952D01*
X129952714Y-88372952D01*
X129190809Y-88030095D02*
X129152714Y-87992000D01*
X129076523Y-87953904D01*
X128886047Y-87953904D01*
X128809857Y-87992000D01*
X128771761Y-88030095D01*
X128733666Y-88106285D01*
X128733666Y-88182476D01*
X128771761Y-88296761D01*
X129228904Y-88753904D01*
X128733666Y-88753904D01*
X130333666Y-91382904D02*
X130333666Y-91954333D01*
X130371761Y-92068619D01*
X130447952Y-92144809D01*
X130562238Y-92182904D01*
X130638428Y-92182904D01*
X129952714Y-92182904D02*
X129952714Y-91382904D01*
X129647952Y-91382904D01*
X129571761Y-91421000D01*
X129533666Y-91459095D01*
X129495571Y-91535285D01*
X129495571Y-91649571D01*
X129533666Y-91725761D01*
X129571761Y-91763857D01*
X129647952Y-91801952D01*
X129952714Y-91801952D01*
X128733666Y-92182904D02*
X129190809Y-92182904D01*
X128962238Y-92182904D02*
X128962238Y-91382904D01*
X129038428Y-91497190D01*
X129114619Y-91573380D01*
X129190809Y-91611476D01*
M02*
