%TF.GenerationSoftware,KiCad,Pcbnew,(5.1.9)-1*%
%TF.CreationDate,2021-07-28T09:14:02+01:00*%
%TF.ProjectId,RGBtoHDMI Amiga Denise DIP CPLD Rev 1.1,52474274-6f48-4444-9d49-20416d696761,rev?*%
%TF.SameCoordinates,Original*%
%TF.FileFunction,Paste,Bot*%
%TF.FilePolarity,Positive*%
%FSLAX46Y46*%
G04 Gerber Fmt 4.6, Leading zero omitted, Abs format (unit mm)*
G04 Created by KiCad (PCBNEW (5.1.9)-1) date 2021-07-28 09:14:02*
%MOMM*%
%LPD*%
G01*
G04 APERTURE LIST*
G04 APERTURE END LIST*
%TO.C,R7*%
G36*
G01*
X165119000Y-69030001D02*
X165119000Y-68129999D01*
G75*
G02*
X165368999Y-67880000I249999J0D01*
G01*
X166069001Y-67880000D01*
G75*
G02*
X166319000Y-68129999I0J-249999D01*
G01*
X166319000Y-69030001D01*
G75*
G02*
X166069001Y-69280000I-249999J0D01*
G01*
X165368999Y-69280000D01*
G75*
G02*
X165119000Y-69030001I0J249999D01*
G01*
G37*
G36*
G01*
X163119000Y-69030001D02*
X163119000Y-68129999D01*
G75*
G02*
X163368999Y-67880000I249999J0D01*
G01*
X164069001Y-67880000D01*
G75*
G02*
X164319000Y-68129999I0J-249999D01*
G01*
X164319000Y-69030001D01*
G75*
G02*
X164069001Y-69280000I-249999J0D01*
G01*
X163368999Y-69280000D01*
G75*
G02*
X163119000Y-69030001I0J249999D01*
G01*
G37*
%TD*%
%TO.C,R6*%
G36*
G01*
X165119000Y-75380001D02*
X165119000Y-74479999D01*
G75*
G02*
X165368999Y-74230000I249999J0D01*
G01*
X166069001Y-74230000D01*
G75*
G02*
X166319000Y-74479999I0J-249999D01*
G01*
X166319000Y-75380001D01*
G75*
G02*
X166069001Y-75630000I-249999J0D01*
G01*
X165368999Y-75630000D01*
G75*
G02*
X165119000Y-75380001I0J249999D01*
G01*
G37*
G36*
G01*
X163119000Y-75380001D02*
X163119000Y-74479999D01*
G75*
G02*
X163368999Y-74230000I249999J0D01*
G01*
X164069001Y-74230000D01*
G75*
G02*
X164319000Y-74479999I0J-249999D01*
G01*
X164319000Y-75380001D01*
G75*
G02*
X164069001Y-75630000I-249999J0D01*
G01*
X163368999Y-75630000D01*
G75*
G02*
X163119000Y-75380001I0J249999D01*
G01*
G37*
%TD*%
%TO.C,R3*%
G36*
G01*
X165119000Y-95700001D02*
X165119000Y-94799999D01*
G75*
G02*
X165368999Y-94550000I249999J0D01*
G01*
X166069001Y-94550000D01*
G75*
G02*
X166319000Y-94799999I0J-249999D01*
G01*
X166319000Y-95700001D01*
G75*
G02*
X166069001Y-95950000I-249999J0D01*
G01*
X165368999Y-95950000D01*
G75*
G02*
X165119000Y-95700001I0J249999D01*
G01*
G37*
G36*
G01*
X163119000Y-95700001D02*
X163119000Y-94799999D01*
G75*
G02*
X163368999Y-94550000I249999J0D01*
G01*
X164069001Y-94550000D01*
G75*
G02*
X164319000Y-94799999I0J-249999D01*
G01*
X164319000Y-95700001D01*
G75*
G02*
X164069001Y-95950000I-249999J0D01*
G01*
X163368999Y-95950000D01*
G75*
G02*
X163119000Y-95700001I0J249999D01*
G01*
G37*
%TD*%
%TO.C,R2*%
G36*
G01*
X155975000Y-107384001D02*
X155975000Y-106483999D01*
G75*
G02*
X156224999Y-106234000I249999J0D01*
G01*
X156925001Y-106234000D01*
G75*
G02*
X157175000Y-106483999I0J-249999D01*
G01*
X157175000Y-107384001D01*
G75*
G02*
X156925001Y-107634000I-249999J0D01*
G01*
X156224999Y-107634000D01*
G75*
G02*
X155975000Y-107384001I0J249999D01*
G01*
G37*
G36*
G01*
X153975000Y-107384001D02*
X153975000Y-106483999D01*
G75*
G02*
X154224999Y-106234000I249999J0D01*
G01*
X154925001Y-106234000D01*
G75*
G02*
X155175000Y-106483999I0J-249999D01*
G01*
X155175000Y-107384001D01*
G75*
G02*
X154925001Y-107634000I-249999J0D01*
G01*
X154224999Y-107634000D01*
G75*
G02*
X153975000Y-107384001I0J249999D01*
G01*
G37*
%TD*%
%TO.C,R1*%
G36*
G01*
X165119000Y-93160001D02*
X165119000Y-92259999D01*
G75*
G02*
X165368999Y-92010000I249999J0D01*
G01*
X166069001Y-92010000D01*
G75*
G02*
X166319000Y-92259999I0J-249999D01*
G01*
X166319000Y-93160001D01*
G75*
G02*
X166069001Y-93410000I-249999J0D01*
G01*
X165368999Y-93410000D01*
G75*
G02*
X165119000Y-93160001I0J249999D01*
G01*
G37*
G36*
G01*
X163119000Y-93160001D02*
X163119000Y-92259999D01*
G75*
G02*
X163368999Y-92010000I249999J0D01*
G01*
X164069001Y-92010000D01*
G75*
G02*
X164319000Y-92259999I0J-249999D01*
G01*
X164319000Y-93160001D01*
G75*
G02*
X164069001Y-93410000I-249999J0D01*
G01*
X163368999Y-93410000D01*
G75*
G02*
X163119000Y-93160001I0J249999D01*
G01*
G37*
%TD*%
%TO.C,C4*%
G36*
G01*
X150782000Y-94260000D02*
X151732000Y-94260000D01*
G75*
G02*
X151982000Y-94510000I0J-250000D01*
G01*
X151982000Y-95185000D01*
G75*
G02*
X151732000Y-95435000I-250000J0D01*
G01*
X150782000Y-95435000D01*
G75*
G02*
X150532000Y-95185000I0J250000D01*
G01*
X150532000Y-94510000D01*
G75*
G02*
X150782000Y-94260000I250000J0D01*
G01*
G37*
G36*
G01*
X150782000Y-96335000D02*
X151732000Y-96335000D01*
G75*
G02*
X151982000Y-96585000I0J-250000D01*
G01*
X151982000Y-97260000D01*
G75*
G02*
X151732000Y-97510000I-250000J0D01*
G01*
X150782000Y-97510000D01*
G75*
G02*
X150532000Y-97260000I0J250000D01*
G01*
X150532000Y-96585000D01*
G75*
G02*
X150782000Y-96335000I250000J0D01*
G01*
G37*
%TD*%
%TO.C,C3*%
G36*
G01*
X153347000Y-98966000D02*
X153347000Y-99916000D01*
G75*
G02*
X153097000Y-100166000I-250000J0D01*
G01*
X152422000Y-100166000D01*
G75*
G02*
X152172000Y-99916000I0J250000D01*
G01*
X152172000Y-98966000D01*
G75*
G02*
X152422000Y-98716000I250000J0D01*
G01*
X153097000Y-98716000D01*
G75*
G02*
X153347000Y-98966000I0J-250000D01*
G01*
G37*
G36*
G01*
X155422000Y-98966000D02*
X155422000Y-99916000D01*
G75*
G02*
X155172000Y-100166000I-250000J0D01*
G01*
X154497000Y-100166000D01*
G75*
G02*
X154247000Y-99916000I0J250000D01*
G01*
X154247000Y-98966000D01*
G75*
G02*
X154497000Y-98716000I250000J0D01*
G01*
X155172000Y-98716000D01*
G75*
G02*
X155422000Y-98966000I0J-250000D01*
G01*
G37*
%TD*%
%TO.C,C2*%
G36*
G01*
X153728000Y-87663000D02*
X153728000Y-88613000D01*
G75*
G02*
X153478000Y-88863000I-250000J0D01*
G01*
X152803000Y-88863000D01*
G75*
G02*
X152553000Y-88613000I0J250000D01*
G01*
X152553000Y-87663000D01*
G75*
G02*
X152803000Y-87413000I250000J0D01*
G01*
X153478000Y-87413000D01*
G75*
G02*
X153728000Y-87663000I0J-250000D01*
G01*
G37*
G36*
G01*
X155803000Y-87663000D02*
X155803000Y-88613000D01*
G75*
G02*
X155553000Y-88863000I-250000J0D01*
G01*
X154878000Y-88863000D01*
G75*
G02*
X154628000Y-88613000I0J250000D01*
G01*
X154628000Y-87663000D01*
G75*
G02*
X154878000Y-87413000I250000J0D01*
G01*
X155553000Y-87413000D01*
G75*
G02*
X155803000Y-87663000I0J-250000D01*
G01*
G37*
%TD*%
M02*
