%TF.GenerationSoftware,KiCad,Pcbnew,(5.1.9)-1*%
%TF.CreationDate,2021-07-28T09:14:02+01:00*%
%TF.ProjectId,RGBtoHDMI Amiga Denise DIP CPLD Rev 1.1,52474274-6f48-4444-9d49-20416d696761,rev?*%
%TF.SameCoordinates,Original*%
%TF.FileFunction,Paste,Top*%
%TF.FilePolarity,Positive*%
%FSLAX46Y46*%
G04 Gerber Fmt 4.6, Leading zero omitted, Abs format (unit mm)*
G04 Created by KiCad (PCBNEW (5.1.9)-1) date 2021-07-28 09:14:02*
%MOMM*%
%LPD*%
G01*
G04 APERTURE LIST*
%ADD10R,1.050000X0.600000*%
%ADD11R,1.500000X0.550000*%
%ADD12R,0.550000X1.500000*%
G04 APERTURE END LIST*
%TO.C,C5*%
G36*
G01*
X180525000Y-67089000D02*
X180525000Y-68039000D01*
G75*
G02*
X180275000Y-68289000I-250000J0D01*
G01*
X179600000Y-68289000D01*
G75*
G02*
X179350000Y-68039000I0J250000D01*
G01*
X179350000Y-67089000D01*
G75*
G02*
X179600000Y-66839000I250000J0D01*
G01*
X180275000Y-66839000D01*
G75*
G02*
X180525000Y-67089000I0J-250000D01*
G01*
G37*
G36*
G01*
X182600000Y-67089000D02*
X182600000Y-68039000D01*
G75*
G02*
X182350000Y-68289000I-250000J0D01*
G01*
X181675000Y-68289000D01*
G75*
G02*
X181425000Y-68039000I0J250000D01*
G01*
X181425000Y-67089000D01*
G75*
G02*
X181675000Y-66839000I250000J0D01*
G01*
X182350000Y-66839000D01*
G75*
G02*
X182600000Y-67089000I0J-250000D01*
G01*
G37*
%TD*%
D10*
%TO.C,U2*%
X182325000Y-70297000D03*
X182325000Y-72197000D03*
X179625000Y-72197000D03*
X179625000Y-71247000D03*
X179625000Y-70297000D03*
%TD*%
%TO.C,R5*%
G36*
G01*
X182822001Y-76435000D02*
X181921999Y-76435000D01*
G75*
G02*
X181672000Y-76185001I0J249999D01*
G01*
X181672000Y-75484999D01*
G75*
G02*
X181921999Y-75235000I249999J0D01*
G01*
X182822001Y-75235000D01*
G75*
G02*
X183072000Y-75484999I0J-249999D01*
G01*
X183072000Y-76185001D01*
G75*
G02*
X182822001Y-76435000I-249999J0D01*
G01*
G37*
G36*
G01*
X182822001Y-78435000D02*
X181921999Y-78435000D01*
G75*
G02*
X181672000Y-78185001I0J249999D01*
G01*
X181672000Y-77484999D01*
G75*
G02*
X181921999Y-77235000I249999J0D01*
G01*
X182822001Y-77235000D01*
G75*
G02*
X183072000Y-77484999I0J-249999D01*
G01*
X183072000Y-78185001D01*
G75*
G02*
X182822001Y-78435000I-249999J0D01*
G01*
G37*
%TD*%
%TO.C,R4*%
G36*
G01*
X179127999Y-77235000D02*
X180028001Y-77235000D01*
G75*
G02*
X180278000Y-77484999I0J-249999D01*
G01*
X180278000Y-78185001D01*
G75*
G02*
X180028001Y-78435000I-249999J0D01*
G01*
X179127999Y-78435000D01*
G75*
G02*
X178878000Y-78185001I0J249999D01*
G01*
X178878000Y-77484999D01*
G75*
G02*
X179127999Y-77235000I249999J0D01*
G01*
G37*
G36*
G01*
X179127999Y-75235000D02*
X180028001Y-75235000D01*
G75*
G02*
X180278000Y-75484999I0J-249999D01*
G01*
X180278000Y-76185001D01*
G75*
G02*
X180028001Y-76435000I-249999J0D01*
G01*
X179127999Y-76435000D01*
G75*
G02*
X178878000Y-76185001I0J249999D01*
G01*
X178878000Y-75484999D01*
G75*
G02*
X179127999Y-75235000I249999J0D01*
G01*
G37*
%TD*%
%TO.C,C1*%
G36*
G01*
X180500000Y-60521000D02*
X181450000Y-60521000D01*
G75*
G02*
X181700000Y-60771000I0J-250000D01*
G01*
X181700000Y-61446000D01*
G75*
G02*
X181450000Y-61696000I-250000J0D01*
G01*
X180500000Y-61696000D01*
G75*
G02*
X180250000Y-61446000I0J250000D01*
G01*
X180250000Y-60771000D01*
G75*
G02*
X180500000Y-60521000I250000J0D01*
G01*
G37*
G36*
G01*
X180500000Y-58446000D02*
X181450000Y-58446000D01*
G75*
G02*
X181700000Y-58696000I0J-250000D01*
G01*
X181700000Y-59371000D01*
G75*
G02*
X181450000Y-59621000I-250000J0D01*
G01*
X180500000Y-59621000D01*
G75*
G02*
X180250000Y-59371000I0J250000D01*
G01*
X180250000Y-58696000D01*
G75*
G02*
X180500000Y-58446000I250000J0D01*
G01*
G37*
%TD*%
D11*
%TO.C,U1*%
X147970000Y-101790000D03*
X147970000Y-100990000D03*
X147970000Y-100190000D03*
X147970000Y-99390000D03*
X147970000Y-98590000D03*
X147970000Y-97790000D03*
X147970000Y-96990000D03*
X147970000Y-96190000D03*
X147970000Y-95390000D03*
X147970000Y-94590000D03*
X147970000Y-93790000D03*
D12*
X149670000Y-92090000D03*
X150470000Y-92090000D03*
X151270000Y-92090000D03*
X152070000Y-92090000D03*
X152870000Y-92090000D03*
X153670000Y-92090000D03*
X154470000Y-92090000D03*
X155270000Y-92090000D03*
X156070000Y-92090000D03*
X156870000Y-92090000D03*
X157670000Y-92090000D03*
D11*
X159370000Y-93790000D03*
X159370000Y-94590000D03*
X159370000Y-95390000D03*
X159370000Y-96190000D03*
X159370000Y-96990000D03*
X159370000Y-97790000D03*
X159370000Y-98590000D03*
X159370000Y-99390000D03*
X159370000Y-100190000D03*
X159370000Y-100990000D03*
X159370000Y-101790000D03*
D12*
X157670000Y-103490000D03*
X156870000Y-103490000D03*
X156070000Y-103490000D03*
X155270000Y-103490000D03*
X154470000Y-103490000D03*
X153670000Y-103490000D03*
X152870000Y-103490000D03*
X152070000Y-103490000D03*
X151270000Y-103490000D03*
X150470000Y-103490000D03*
X149670000Y-103490000D03*
%TD*%
M02*
