%TF.GenerationSoftware,KiCad,Pcbnew,(5.1.9)-1*%
%TF.CreationDate,2021-07-28T09:14:02+01:00*%
%TF.ProjectId,RGBtoHDMI Amiga Denise DIP CPLD Rev 1.1,52474274-6f48-4444-9d49-20416d696761,rev?*%
%TF.SameCoordinates,Original*%
%TF.FileFunction,Soldermask,Top*%
%TF.FilePolarity,Negative*%
%FSLAX46Y46*%
G04 Gerber Fmt 4.6, Leading zero omitted, Abs format (unit mm)*
G04 Created by KiCad (PCBNEW (5.1.9)-1) date 2021-07-28 09:14:02*
%MOMM*%
%LPD*%
G01*
G04 APERTURE LIST*
%ADD10C,0.100000*%
%ADD11C,1.808000*%
%ADD12C,2.250000*%
%ADD13O,2.000000X2.000000*%
%ADD14O,1.500000X2.300000*%
%ADD15O,1.900000X1.900000*%
G04 APERTURE END LIST*
D10*
%TO.C,solarmon*%
G36*
X144399000Y-84963000D02*
G01*
X143764000Y-84963000D01*
X143764000Y-84328000D01*
X144399000Y-84328000D01*
X144399000Y-84963000D01*
G37*
X144399000Y-84963000D02*
X143764000Y-84963000D01*
X143764000Y-84328000D01*
X144399000Y-84328000D01*
X144399000Y-84963000D01*
G36*
X144399000Y-85598000D02*
G01*
X143764000Y-85598000D01*
X143764000Y-84963000D01*
X144399000Y-84963000D01*
X144399000Y-85598000D01*
G37*
X144399000Y-85598000D02*
X143764000Y-85598000D01*
X143764000Y-84963000D01*
X144399000Y-84963000D01*
X144399000Y-85598000D01*
G36*
X145034000Y-85598000D02*
G01*
X144399000Y-85598000D01*
X144399000Y-84963000D01*
X145034000Y-84963000D01*
X145034000Y-85598000D01*
G37*
X145034000Y-85598000D02*
X144399000Y-85598000D01*
X144399000Y-84963000D01*
X145034000Y-84963000D01*
X145034000Y-85598000D01*
G36*
X143764000Y-85598000D02*
G01*
X143129000Y-85598000D01*
X143129000Y-84963000D01*
X143764000Y-84963000D01*
X143764000Y-85598000D01*
G37*
X143764000Y-85598000D02*
X143129000Y-85598000D01*
X143129000Y-84963000D01*
X143764000Y-84963000D01*
X143764000Y-85598000D01*
G36*
X143129000Y-84963000D02*
G01*
X142494000Y-84963000D01*
X142494000Y-84328000D01*
X143129000Y-84328000D01*
X143129000Y-84963000D01*
G37*
X143129000Y-84963000D02*
X142494000Y-84963000D01*
X142494000Y-84328000D01*
X143129000Y-84328000D01*
X143129000Y-84963000D01*
G36*
X146304000Y-84328000D02*
G01*
X145669000Y-84328000D01*
X145669000Y-83693000D01*
X146304000Y-83693000D01*
X146304000Y-84328000D01*
G37*
X146304000Y-84328000D02*
X145669000Y-84328000D01*
X145669000Y-83693000D01*
X146304000Y-83693000D01*
X146304000Y-84328000D01*
G36*
X146304000Y-88138000D02*
G01*
X145669000Y-88138000D01*
X145669000Y-87503000D01*
X146304000Y-87503000D01*
X146304000Y-88138000D01*
G37*
X146304000Y-88138000D02*
X145669000Y-88138000D01*
X145669000Y-87503000D01*
X146304000Y-87503000D01*
X146304000Y-88138000D01*
G36*
X145034000Y-83693000D02*
G01*
X144399000Y-83693000D01*
X144399000Y-83058000D01*
X145034000Y-83058000D01*
X145034000Y-83693000D01*
G37*
X145034000Y-83693000D02*
X144399000Y-83693000D01*
X144399000Y-83058000D01*
X145034000Y-83058000D01*
X145034000Y-83693000D01*
G36*
X145034000Y-84328000D02*
G01*
X144399000Y-84328000D01*
X144399000Y-83693000D01*
X145034000Y-83693000D01*
X145034000Y-84328000D01*
G37*
X145034000Y-84328000D02*
X144399000Y-84328000D01*
X144399000Y-83693000D01*
X145034000Y-83693000D01*
X145034000Y-84328000D01*
G36*
X144399000Y-84328000D02*
G01*
X143764000Y-84328000D01*
X143764000Y-83693000D01*
X144399000Y-83693000D01*
X144399000Y-84328000D01*
G37*
X144399000Y-84328000D02*
X143764000Y-84328000D01*
X143764000Y-83693000D01*
X144399000Y-83693000D01*
X144399000Y-84328000D01*
G36*
X143764000Y-84328000D02*
G01*
X143129000Y-84328000D01*
X143129000Y-83693000D01*
X143764000Y-83693000D01*
X143764000Y-84328000D01*
G37*
X143764000Y-84328000D02*
X143129000Y-84328000D01*
X143129000Y-83693000D01*
X143764000Y-83693000D01*
X143764000Y-84328000D01*
G36*
X143764000Y-83693000D02*
G01*
X143129000Y-83693000D01*
X143129000Y-83058000D01*
X143764000Y-83058000D01*
X143764000Y-83693000D01*
G37*
X143764000Y-83693000D02*
X143129000Y-83693000D01*
X143129000Y-83058000D01*
X143764000Y-83058000D01*
X143764000Y-83693000D01*
G36*
X143129000Y-84328000D02*
G01*
X142494000Y-84328000D01*
X142494000Y-83693000D01*
X143129000Y-83693000D01*
X143129000Y-84328000D01*
G37*
X143129000Y-84328000D02*
X142494000Y-84328000D01*
X142494000Y-83693000D01*
X143129000Y-83693000D01*
X143129000Y-84328000D01*
G36*
X142494000Y-84328000D02*
G01*
X141859000Y-84328000D01*
X141859000Y-83693000D01*
X142494000Y-83693000D01*
X142494000Y-84328000D01*
G37*
X142494000Y-84328000D02*
X141859000Y-84328000D01*
X141859000Y-83693000D01*
X142494000Y-83693000D01*
X142494000Y-84328000D01*
G36*
X141859000Y-86868000D02*
G01*
X141224000Y-86868000D01*
X141224000Y-86233000D01*
X141859000Y-86233000D01*
X141859000Y-86868000D01*
G37*
X141859000Y-86868000D02*
X141224000Y-86868000D01*
X141224000Y-86233000D01*
X141859000Y-86233000D01*
X141859000Y-86868000D01*
G36*
X142494000Y-88138000D02*
G01*
X141859000Y-88138000D01*
X141859000Y-87503000D01*
X142494000Y-87503000D01*
X142494000Y-88138000D01*
G37*
X142494000Y-88138000D02*
X141859000Y-88138000D01*
X141859000Y-87503000D01*
X142494000Y-87503000D01*
X142494000Y-88138000D01*
G36*
X145034000Y-88138000D02*
G01*
X144399000Y-88138000D01*
X144399000Y-87503000D01*
X145034000Y-87503000D01*
X145034000Y-88138000D01*
G37*
X145034000Y-88138000D02*
X144399000Y-88138000D01*
X144399000Y-87503000D01*
X145034000Y-87503000D01*
X145034000Y-88138000D01*
G36*
X146304000Y-86233000D02*
G01*
X145669000Y-86233000D01*
X145669000Y-85598000D01*
X146304000Y-85598000D01*
X146304000Y-86233000D01*
G37*
X146304000Y-86233000D02*
X145669000Y-86233000D01*
X145669000Y-85598000D01*
X146304000Y-85598000D01*
X146304000Y-86233000D01*
%TD*%
D11*
%TO.C,BT11*%
X163587000Y-103886000D03*
X168137000Y-103886000D03*
D12*
X162362000Y-101386000D03*
X169362000Y-101386000D03*
%TD*%
%TO.C,FFOSD1*%
G36*
G01*
X179086000Y-89750000D02*
X179086000Y-88050000D01*
G75*
G02*
X179236000Y-87900000I150000J0D01*
G01*
X180936000Y-87900000D01*
G75*
G02*
X181086000Y-88050000I0J-150000D01*
G01*
X181086000Y-89750000D01*
G75*
G02*
X180936000Y-89900000I-150000J0D01*
G01*
X179236000Y-89900000D01*
G75*
G02*
X179086000Y-89750000I0J150000D01*
G01*
G37*
D13*
X180086000Y-91440000D03*
X180086000Y-93980000D03*
X180086000Y-96520000D03*
X180086000Y-99060000D03*
X180086000Y-101600000D03*
X180086000Y-104140000D03*
X180086000Y-106680000D03*
X180086000Y-109220000D03*
%TD*%
%TO.C,BT3*%
X168275000Y-68580000D03*
G36*
G01*
X169275000Y-70270000D02*
X169275000Y-71970000D01*
G75*
G02*
X169125000Y-72120000I-150000J0D01*
G01*
X167425000Y-72120000D01*
G75*
G02*
X167275000Y-71970000I0J150000D01*
G01*
X167275000Y-70270000D01*
G75*
G02*
X167425000Y-70120000I150000J0D01*
G01*
X169125000Y-70120000D01*
G75*
G02*
X169275000Y-70270000I0J-150000D01*
G01*
G37*
%TD*%
%TO.C,BT2*%
X168275000Y-74930000D03*
G36*
G01*
X169275000Y-76620000D02*
X169275000Y-78320000D01*
G75*
G02*
X169125000Y-78470000I-150000J0D01*
G01*
X167425000Y-78470000D01*
G75*
G02*
X167275000Y-78320000I0J150000D01*
G01*
X167275000Y-76620000D01*
G75*
G02*
X167425000Y-76470000I150000J0D01*
G01*
X169125000Y-76470000D01*
G75*
G02*
X169275000Y-76620000I0J-150000D01*
G01*
G37*
%TD*%
%TO.C,C5*%
G36*
G01*
X180675000Y-67002829D02*
X180675000Y-68125171D01*
G75*
G02*
X180361171Y-68439000I-313829J0D01*
G01*
X179513829Y-68439000D01*
G75*
G02*
X179200000Y-68125171I0J313829D01*
G01*
X179200000Y-67002829D01*
G75*
G02*
X179513829Y-66689000I313829J0D01*
G01*
X180361171Y-66689000D01*
G75*
G02*
X180675000Y-67002829I0J-313829D01*
G01*
G37*
G36*
G01*
X182750000Y-67002829D02*
X182750000Y-68125171D01*
G75*
G02*
X182436171Y-68439000I-313829J0D01*
G01*
X181588829Y-68439000D01*
G75*
G02*
X181275000Y-68125171I0J313829D01*
G01*
X181275000Y-67002829D01*
G75*
G02*
X181588829Y-66689000I313829J0D01*
G01*
X182436171Y-66689000D01*
G75*
G02*
X182750000Y-67002829I0J-313829D01*
G01*
G37*
%TD*%
%TO.C,U2*%
G36*
G01*
X181800000Y-69927000D02*
X182850000Y-69927000D01*
G75*
G02*
X182920000Y-69997000I0J-70000D01*
G01*
X182920000Y-70597000D01*
G75*
G02*
X182850000Y-70667000I-70000J0D01*
G01*
X181800000Y-70667000D01*
G75*
G02*
X181730000Y-70597000I0J70000D01*
G01*
X181730000Y-69997000D01*
G75*
G02*
X181800000Y-69927000I70000J0D01*
G01*
G37*
G36*
G01*
X181800000Y-71827000D02*
X182850000Y-71827000D01*
G75*
G02*
X182920000Y-71897000I0J-70000D01*
G01*
X182920000Y-72497000D01*
G75*
G02*
X182850000Y-72567000I-70000J0D01*
G01*
X181800000Y-72567000D01*
G75*
G02*
X181730000Y-72497000I0J70000D01*
G01*
X181730000Y-71897000D01*
G75*
G02*
X181800000Y-71827000I70000J0D01*
G01*
G37*
G36*
G01*
X179100000Y-71827000D02*
X180150000Y-71827000D01*
G75*
G02*
X180220000Y-71897000I0J-70000D01*
G01*
X180220000Y-72497000D01*
G75*
G02*
X180150000Y-72567000I-70000J0D01*
G01*
X179100000Y-72567000D01*
G75*
G02*
X179030000Y-72497000I0J70000D01*
G01*
X179030000Y-71897000D01*
G75*
G02*
X179100000Y-71827000I70000J0D01*
G01*
G37*
G36*
G01*
X179100000Y-70877000D02*
X180150000Y-70877000D01*
G75*
G02*
X180220000Y-70947000I0J-70000D01*
G01*
X180220000Y-71547000D01*
G75*
G02*
X180150000Y-71617000I-70000J0D01*
G01*
X179100000Y-71617000D01*
G75*
G02*
X179030000Y-71547000I0J70000D01*
G01*
X179030000Y-70947000D01*
G75*
G02*
X179100000Y-70877000I70000J0D01*
G01*
G37*
G36*
G01*
X179100000Y-69927000D02*
X180150000Y-69927000D01*
G75*
G02*
X180220000Y-69997000I0J-70000D01*
G01*
X180220000Y-70597000D01*
G75*
G02*
X180150000Y-70667000I-70000J0D01*
G01*
X179100000Y-70667000D01*
G75*
G02*
X179030000Y-70597000I0J70000D01*
G01*
X179030000Y-69997000D01*
G75*
G02*
X179100000Y-69927000I70000J0D01*
G01*
G37*
%TD*%
%TO.C,R5*%
G36*
G01*
X182909502Y-76585000D02*
X181834498Y-76585000D01*
G75*
G02*
X181522000Y-76272502I0J312498D01*
G01*
X181522000Y-75397498D01*
G75*
G02*
X181834498Y-75085000I312498J0D01*
G01*
X182909502Y-75085000D01*
G75*
G02*
X183222000Y-75397498I0J-312498D01*
G01*
X183222000Y-76272502D01*
G75*
G02*
X182909502Y-76585000I-312498J0D01*
G01*
G37*
G36*
G01*
X182909502Y-78585000D02*
X181834498Y-78585000D01*
G75*
G02*
X181522000Y-78272502I0J312498D01*
G01*
X181522000Y-77397498D01*
G75*
G02*
X181834498Y-77085000I312498J0D01*
G01*
X182909502Y-77085000D01*
G75*
G02*
X183222000Y-77397498I0J-312498D01*
G01*
X183222000Y-78272502D01*
G75*
G02*
X182909502Y-78585000I-312498J0D01*
G01*
G37*
%TD*%
%TO.C,R4*%
G36*
G01*
X179040498Y-77085000D02*
X180115502Y-77085000D01*
G75*
G02*
X180428000Y-77397498I0J-312498D01*
G01*
X180428000Y-78272502D01*
G75*
G02*
X180115502Y-78585000I-312498J0D01*
G01*
X179040498Y-78585000D01*
G75*
G02*
X178728000Y-78272502I0J312498D01*
G01*
X178728000Y-77397498D01*
G75*
G02*
X179040498Y-77085000I312498J0D01*
G01*
G37*
G36*
G01*
X179040498Y-75085000D02*
X180115502Y-75085000D01*
G75*
G02*
X180428000Y-75397498I0J-312498D01*
G01*
X180428000Y-76272502D01*
G75*
G02*
X180115502Y-76585000I-312498J0D01*
G01*
X179040498Y-76585000D01*
G75*
G02*
X178728000Y-76272502I0J312498D01*
G01*
X178728000Y-75397498D01*
G75*
G02*
X179040498Y-75085000I312498J0D01*
G01*
G37*
%TD*%
%TO.C,JTAG1*%
X149860000Y-81915000D03*
X152400000Y-81915000D03*
X154940000Y-81915000D03*
X157480000Y-81915000D03*
X160020000Y-81915000D03*
G36*
G01*
X161710000Y-80915000D02*
X163410000Y-80915000D01*
G75*
G02*
X163560000Y-81065000I0J-150000D01*
G01*
X163560000Y-82765000D01*
G75*
G02*
X163410000Y-82915000I-150000J0D01*
G01*
X161710000Y-82915000D01*
G75*
G02*
X161560000Y-82765000I0J150000D01*
G01*
X161560000Y-81065000D01*
G75*
G02*
X161710000Y-80915000I150000J0D01*
G01*
G37*
%TD*%
%TO.C,C1*%
G36*
G01*
X180413829Y-60371000D02*
X181536171Y-60371000D01*
G75*
G02*
X181850000Y-60684829I0J-313829D01*
G01*
X181850000Y-61532171D01*
G75*
G02*
X181536171Y-61846000I-313829J0D01*
G01*
X180413829Y-61846000D01*
G75*
G02*
X180100000Y-61532171I0J313829D01*
G01*
X180100000Y-60684829D01*
G75*
G02*
X180413829Y-60371000I313829J0D01*
G01*
G37*
G36*
G01*
X180413829Y-58296000D02*
X181536171Y-58296000D01*
G75*
G02*
X181850000Y-58609829I0J-313829D01*
G01*
X181850000Y-59457171D01*
G75*
G02*
X181536171Y-59771000I-313829J0D01*
G01*
X180413829Y-59771000D01*
G75*
G02*
X180100000Y-59457171I0J313829D01*
G01*
X180100000Y-58609829D01*
G75*
G02*
X180413829Y-58296000I313829J0D01*
G01*
G37*
%TD*%
%TO.C,U1*%
G36*
G01*
X148870000Y-101515000D02*
X148870000Y-102065000D01*
G75*
G02*
X148720000Y-102215000I-150000J0D01*
G01*
X147220000Y-102215000D01*
G75*
G02*
X147070000Y-102065000I0J150000D01*
G01*
X147070000Y-101515000D01*
G75*
G02*
X147220000Y-101365000I150000J0D01*
G01*
X148720000Y-101365000D01*
G75*
G02*
X148870000Y-101515000I0J-150000D01*
G01*
G37*
G36*
G01*
X148870000Y-100715000D02*
X148870000Y-101265000D01*
G75*
G02*
X148720000Y-101415000I-150000J0D01*
G01*
X147220000Y-101415000D01*
G75*
G02*
X147070000Y-101265000I0J150000D01*
G01*
X147070000Y-100715000D01*
G75*
G02*
X147220000Y-100565000I150000J0D01*
G01*
X148720000Y-100565000D01*
G75*
G02*
X148870000Y-100715000I0J-150000D01*
G01*
G37*
G36*
G01*
X148870000Y-99915000D02*
X148870000Y-100465000D01*
G75*
G02*
X148720000Y-100615000I-150000J0D01*
G01*
X147220000Y-100615000D01*
G75*
G02*
X147070000Y-100465000I0J150000D01*
G01*
X147070000Y-99915000D01*
G75*
G02*
X147220000Y-99765000I150000J0D01*
G01*
X148720000Y-99765000D01*
G75*
G02*
X148870000Y-99915000I0J-150000D01*
G01*
G37*
G36*
G01*
X148870000Y-99115000D02*
X148870000Y-99665000D01*
G75*
G02*
X148720000Y-99815000I-150000J0D01*
G01*
X147220000Y-99815000D01*
G75*
G02*
X147070000Y-99665000I0J150000D01*
G01*
X147070000Y-99115000D01*
G75*
G02*
X147220000Y-98965000I150000J0D01*
G01*
X148720000Y-98965000D01*
G75*
G02*
X148870000Y-99115000I0J-150000D01*
G01*
G37*
G36*
G01*
X148870000Y-98315000D02*
X148870000Y-98865000D01*
G75*
G02*
X148720000Y-99015000I-150000J0D01*
G01*
X147220000Y-99015000D01*
G75*
G02*
X147070000Y-98865000I0J150000D01*
G01*
X147070000Y-98315000D01*
G75*
G02*
X147220000Y-98165000I150000J0D01*
G01*
X148720000Y-98165000D01*
G75*
G02*
X148870000Y-98315000I0J-150000D01*
G01*
G37*
G36*
G01*
X148870000Y-97515000D02*
X148870000Y-98065000D01*
G75*
G02*
X148720000Y-98215000I-150000J0D01*
G01*
X147220000Y-98215000D01*
G75*
G02*
X147070000Y-98065000I0J150000D01*
G01*
X147070000Y-97515000D01*
G75*
G02*
X147220000Y-97365000I150000J0D01*
G01*
X148720000Y-97365000D01*
G75*
G02*
X148870000Y-97515000I0J-150000D01*
G01*
G37*
G36*
G01*
X148870000Y-96715000D02*
X148870000Y-97265000D01*
G75*
G02*
X148720000Y-97415000I-150000J0D01*
G01*
X147220000Y-97415000D01*
G75*
G02*
X147070000Y-97265000I0J150000D01*
G01*
X147070000Y-96715000D01*
G75*
G02*
X147220000Y-96565000I150000J0D01*
G01*
X148720000Y-96565000D01*
G75*
G02*
X148870000Y-96715000I0J-150000D01*
G01*
G37*
G36*
G01*
X148870000Y-95915000D02*
X148870000Y-96465000D01*
G75*
G02*
X148720000Y-96615000I-150000J0D01*
G01*
X147220000Y-96615000D01*
G75*
G02*
X147070000Y-96465000I0J150000D01*
G01*
X147070000Y-95915000D01*
G75*
G02*
X147220000Y-95765000I150000J0D01*
G01*
X148720000Y-95765000D01*
G75*
G02*
X148870000Y-95915000I0J-150000D01*
G01*
G37*
G36*
G01*
X148870000Y-95115000D02*
X148870000Y-95665000D01*
G75*
G02*
X148720000Y-95815000I-150000J0D01*
G01*
X147220000Y-95815000D01*
G75*
G02*
X147070000Y-95665000I0J150000D01*
G01*
X147070000Y-95115000D01*
G75*
G02*
X147220000Y-94965000I150000J0D01*
G01*
X148720000Y-94965000D01*
G75*
G02*
X148870000Y-95115000I0J-150000D01*
G01*
G37*
G36*
G01*
X148870000Y-94315000D02*
X148870000Y-94865000D01*
G75*
G02*
X148720000Y-95015000I-150000J0D01*
G01*
X147220000Y-95015000D01*
G75*
G02*
X147070000Y-94865000I0J150000D01*
G01*
X147070000Y-94315000D01*
G75*
G02*
X147220000Y-94165000I150000J0D01*
G01*
X148720000Y-94165000D01*
G75*
G02*
X148870000Y-94315000I0J-150000D01*
G01*
G37*
G36*
G01*
X148870000Y-93515000D02*
X148870000Y-94065000D01*
G75*
G02*
X148720000Y-94215000I-150000J0D01*
G01*
X147220000Y-94215000D01*
G75*
G02*
X147070000Y-94065000I0J150000D01*
G01*
X147070000Y-93515000D01*
G75*
G02*
X147220000Y-93365000I150000J0D01*
G01*
X148720000Y-93365000D01*
G75*
G02*
X148870000Y-93515000I0J-150000D01*
G01*
G37*
G36*
G01*
X149945000Y-92990000D02*
X149395000Y-92990000D01*
G75*
G02*
X149245000Y-92840000I0J150000D01*
G01*
X149245000Y-91340000D01*
G75*
G02*
X149395000Y-91190000I150000J0D01*
G01*
X149945000Y-91190000D01*
G75*
G02*
X150095000Y-91340000I0J-150000D01*
G01*
X150095000Y-92840000D01*
G75*
G02*
X149945000Y-92990000I-150000J0D01*
G01*
G37*
G36*
G01*
X150745000Y-92990000D02*
X150195000Y-92990000D01*
G75*
G02*
X150045000Y-92840000I0J150000D01*
G01*
X150045000Y-91340000D01*
G75*
G02*
X150195000Y-91190000I150000J0D01*
G01*
X150745000Y-91190000D01*
G75*
G02*
X150895000Y-91340000I0J-150000D01*
G01*
X150895000Y-92840000D01*
G75*
G02*
X150745000Y-92990000I-150000J0D01*
G01*
G37*
G36*
G01*
X151545000Y-92990000D02*
X150995000Y-92990000D01*
G75*
G02*
X150845000Y-92840000I0J150000D01*
G01*
X150845000Y-91340000D01*
G75*
G02*
X150995000Y-91190000I150000J0D01*
G01*
X151545000Y-91190000D01*
G75*
G02*
X151695000Y-91340000I0J-150000D01*
G01*
X151695000Y-92840000D01*
G75*
G02*
X151545000Y-92990000I-150000J0D01*
G01*
G37*
G36*
G01*
X152345000Y-92990000D02*
X151795000Y-92990000D01*
G75*
G02*
X151645000Y-92840000I0J150000D01*
G01*
X151645000Y-91340000D01*
G75*
G02*
X151795000Y-91190000I150000J0D01*
G01*
X152345000Y-91190000D01*
G75*
G02*
X152495000Y-91340000I0J-150000D01*
G01*
X152495000Y-92840000D01*
G75*
G02*
X152345000Y-92990000I-150000J0D01*
G01*
G37*
G36*
G01*
X153145000Y-92990000D02*
X152595000Y-92990000D01*
G75*
G02*
X152445000Y-92840000I0J150000D01*
G01*
X152445000Y-91340000D01*
G75*
G02*
X152595000Y-91190000I150000J0D01*
G01*
X153145000Y-91190000D01*
G75*
G02*
X153295000Y-91340000I0J-150000D01*
G01*
X153295000Y-92840000D01*
G75*
G02*
X153145000Y-92990000I-150000J0D01*
G01*
G37*
G36*
G01*
X153945000Y-92990000D02*
X153395000Y-92990000D01*
G75*
G02*
X153245000Y-92840000I0J150000D01*
G01*
X153245000Y-91340000D01*
G75*
G02*
X153395000Y-91190000I150000J0D01*
G01*
X153945000Y-91190000D01*
G75*
G02*
X154095000Y-91340000I0J-150000D01*
G01*
X154095000Y-92840000D01*
G75*
G02*
X153945000Y-92990000I-150000J0D01*
G01*
G37*
G36*
G01*
X154745000Y-92990000D02*
X154195000Y-92990000D01*
G75*
G02*
X154045000Y-92840000I0J150000D01*
G01*
X154045000Y-91340000D01*
G75*
G02*
X154195000Y-91190000I150000J0D01*
G01*
X154745000Y-91190000D01*
G75*
G02*
X154895000Y-91340000I0J-150000D01*
G01*
X154895000Y-92840000D01*
G75*
G02*
X154745000Y-92990000I-150000J0D01*
G01*
G37*
G36*
G01*
X155545000Y-92990000D02*
X154995000Y-92990000D01*
G75*
G02*
X154845000Y-92840000I0J150000D01*
G01*
X154845000Y-91340000D01*
G75*
G02*
X154995000Y-91190000I150000J0D01*
G01*
X155545000Y-91190000D01*
G75*
G02*
X155695000Y-91340000I0J-150000D01*
G01*
X155695000Y-92840000D01*
G75*
G02*
X155545000Y-92990000I-150000J0D01*
G01*
G37*
G36*
G01*
X156345000Y-92990000D02*
X155795000Y-92990000D01*
G75*
G02*
X155645000Y-92840000I0J150000D01*
G01*
X155645000Y-91340000D01*
G75*
G02*
X155795000Y-91190000I150000J0D01*
G01*
X156345000Y-91190000D01*
G75*
G02*
X156495000Y-91340000I0J-150000D01*
G01*
X156495000Y-92840000D01*
G75*
G02*
X156345000Y-92990000I-150000J0D01*
G01*
G37*
G36*
G01*
X157145000Y-92990000D02*
X156595000Y-92990000D01*
G75*
G02*
X156445000Y-92840000I0J150000D01*
G01*
X156445000Y-91340000D01*
G75*
G02*
X156595000Y-91190000I150000J0D01*
G01*
X157145000Y-91190000D01*
G75*
G02*
X157295000Y-91340000I0J-150000D01*
G01*
X157295000Y-92840000D01*
G75*
G02*
X157145000Y-92990000I-150000J0D01*
G01*
G37*
G36*
G01*
X157945000Y-92990000D02*
X157395000Y-92990000D01*
G75*
G02*
X157245000Y-92840000I0J150000D01*
G01*
X157245000Y-91340000D01*
G75*
G02*
X157395000Y-91190000I150000J0D01*
G01*
X157945000Y-91190000D01*
G75*
G02*
X158095000Y-91340000I0J-150000D01*
G01*
X158095000Y-92840000D01*
G75*
G02*
X157945000Y-92990000I-150000J0D01*
G01*
G37*
G36*
G01*
X160270000Y-93515000D02*
X160270000Y-94065000D01*
G75*
G02*
X160120000Y-94215000I-150000J0D01*
G01*
X158620000Y-94215000D01*
G75*
G02*
X158470000Y-94065000I0J150000D01*
G01*
X158470000Y-93515000D01*
G75*
G02*
X158620000Y-93365000I150000J0D01*
G01*
X160120000Y-93365000D01*
G75*
G02*
X160270000Y-93515000I0J-150000D01*
G01*
G37*
G36*
G01*
X160270000Y-94315000D02*
X160270000Y-94865000D01*
G75*
G02*
X160120000Y-95015000I-150000J0D01*
G01*
X158620000Y-95015000D01*
G75*
G02*
X158470000Y-94865000I0J150000D01*
G01*
X158470000Y-94315000D01*
G75*
G02*
X158620000Y-94165000I150000J0D01*
G01*
X160120000Y-94165000D01*
G75*
G02*
X160270000Y-94315000I0J-150000D01*
G01*
G37*
G36*
G01*
X160270000Y-95115000D02*
X160270000Y-95665000D01*
G75*
G02*
X160120000Y-95815000I-150000J0D01*
G01*
X158620000Y-95815000D01*
G75*
G02*
X158470000Y-95665000I0J150000D01*
G01*
X158470000Y-95115000D01*
G75*
G02*
X158620000Y-94965000I150000J0D01*
G01*
X160120000Y-94965000D01*
G75*
G02*
X160270000Y-95115000I0J-150000D01*
G01*
G37*
G36*
G01*
X160270000Y-95915000D02*
X160270000Y-96465000D01*
G75*
G02*
X160120000Y-96615000I-150000J0D01*
G01*
X158620000Y-96615000D01*
G75*
G02*
X158470000Y-96465000I0J150000D01*
G01*
X158470000Y-95915000D01*
G75*
G02*
X158620000Y-95765000I150000J0D01*
G01*
X160120000Y-95765000D01*
G75*
G02*
X160270000Y-95915000I0J-150000D01*
G01*
G37*
G36*
G01*
X160270000Y-96715000D02*
X160270000Y-97265000D01*
G75*
G02*
X160120000Y-97415000I-150000J0D01*
G01*
X158620000Y-97415000D01*
G75*
G02*
X158470000Y-97265000I0J150000D01*
G01*
X158470000Y-96715000D01*
G75*
G02*
X158620000Y-96565000I150000J0D01*
G01*
X160120000Y-96565000D01*
G75*
G02*
X160270000Y-96715000I0J-150000D01*
G01*
G37*
G36*
G01*
X160270000Y-97515000D02*
X160270000Y-98065000D01*
G75*
G02*
X160120000Y-98215000I-150000J0D01*
G01*
X158620000Y-98215000D01*
G75*
G02*
X158470000Y-98065000I0J150000D01*
G01*
X158470000Y-97515000D01*
G75*
G02*
X158620000Y-97365000I150000J0D01*
G01*
X160120000Y-97365000D01*
G75*
G02*
X160270000Y-97515000I0J-150000D01*
G01*
G37*
G36*
G01*
X160270000Y-98315000D02*
X160270000Y-98865000D01*
G75*
G02*
X160120000Y-99015000I-150000J0D01*
G01*
X158620000Y-99015000D01*
G75*
G02*
X158470000Y-98865000I0J150000D01*
G01*
X158470000Y-98315000D01*
G75*
G02*
X158620000Y-98165000I150000J0D01*
G01*
X160120000Y-98165000D01*
G75*
G02*
X160270000Y-98315000I0J-150000D01*
G01*
G37*
G36*
G01*
X160270000Y-99115000D02*
X160270000Y-99665000D01*
G75*
G02*
X160120000Y-99815000I-150000J0D01*
G01*
X158620000Y-99815000D01*
G75*
G02*
X158470000Y-99665000I0J150000D01*
G01*
X158470000Y-99115000D01*
G75*
G02*
X158620000Y-98965000I150000J0D01*
G01*
X160120000Y-98965000D01*
G75*
G02*
X160270000Y-99115000I0J-150000D01*
G01*
G37*
G36*
G01*
X160270000Y-99915000D02*
X160270000Y-100465000D01*
G75*
G02*
X160120000Y-100615000I-150000J0D01*
G01*
X158620000Y-100615000D01*
G75*
G02*
X158470000Y-100465000I0J150000D01*
G01*
X158470000Y-99915000D01*
G75*
G02*
X158620000Y-99765000I150000J0D01*
G01*
X160120000Y-99765000D01*
G75*
G02*
X160270000Y-99915000I0J-150000D01*
G01*
G37*
G36*
G01*
X160270000Y-100715000D02*
X160270000Y-101265000D01*
G75*
G02*
X160120000Y-101415000I-150000J0D01*
G01*
X158620000Y-101415000D01*
G75*
G02*
X158470000Y-101265000I0J150000D01*
G01*
X158470000Y-100715000D01*
G75*
G02*
X158620000Y-100565000I150000J0D01*
G01*
X160120000Y-100565000D01*
G75*
G02*
X160270000Y-100715000I0J-150000D01*
G01*
G37*
G36*
G01*
X160270000Y-101515000D02*
X160270000Y-102065000D01*
G75*
G02*
X160120000Y-102215000I-150000J0D01*
G01*
X158620000Y-102215000D01*
G75*
G02*
X158470000Y-102065000I0J150000D01*
G01*
X158470000Y-101515000D01*
G75*
G02*
X158620000Y-101365000I150000J0D01*
G01*
X160120000Y-101365000D01*
G75*
G02*
X160270000Y-101515000I0J-150000D01*
G01*
G37*
G36*
G01*
X157945000Y-104390000D02*
X157395000Y-104390000D01*
G75*
G02*
X157245000Y-104240000I0J150000D01*
G01*
X157245000Y-102740000D01*
G75*
G02*
X157395000Y-102590000I150000J0D01*
G01*
X157945000Y-102590000D01*
G75*
G02*
X158095000Y-102740000I0J-150000D01*
G01*
X158095000Y-104240000D01*
G75*
G02*
X157945000Y-104390000I-150000J0D01*
G01*
G37*
G36*
G01*
X157145000Y-104390000D02*
X156595000Y-104390000D01*
G75*
G02*
X156445000Y-104240000I0J150000D01*
G01*
X156445000Y-102740000D01*
G75*
G02*
X156595000Y-102590000I150000J0D01*
G01*
X157145000Y-102590000D01*
G75*
G02*
X157295000Y-102740000I0J-150000D01*
G01*
X157295000Y-104240000D01*
G75*
G02*
X157145000Y-104390000I-150000J0D01*
G01*
G37*
G36*
G01*
X156345000Y-104390000D02*
X155795000Y-104390000D01*
G75*
G02*
X155645000Y-104240000I0J150000D01*
G01*
X155645000Y-102740000D01*
G75*
G02*
X155795000Y-102590000I150000J0D01*
G01*
X156345000Y-102590000D01*
G75*
G02*
X156495000Y-102740000I0J-150000D01*
G01*
X156495000Y-104240000D01*
G75*
G02*
X156345000Y-104390000I-150000J0D01*
G01*
G37*
G36*
G01*
X155545000Y-104390000D02*
X154995000Y-104390000D01*
G75*
G02*
X154845000Y-104240000I0J150000D01*
G01*
X154845000Y-102740000D01*
G75*
G02*
X154995000Y-102590000I150000J0D01*
G01*
X155545000Y-102590000D01*
G75*
G02*
X155695000Y-102740000I0J-150000D01*
G01*
X155695000Y-104240000D01*
G75*
G02*
X155545000Y-104390000I-150000J0D01*
G01*
G37*
G36*
G01*
X154745000Y-104390000D02*
X154195000Y-104390000D01*
G75*
G02*
X154045000Y-104240000I0J150000D01*
G01*
X154045000Y-102740000D01*
G75*
G02*
X154195000Y-102590000I150000J0D01*
G01*
X154745000Y-102590000D01*
G75*
G02*
X154895000Y-102740000I0J-150000D01*
G01*
X154895000Y-104240000D01*
G75*
G02*
X154745000Y-104390000I-150000J0D01*
G01*
G37*
G36*
G01*
X153945000Y-104390000D02*
X153395000Y-104390000D01*
G75*
G02*
X153245000Y-104240000I0J150000D01*
G01*
X153245000Y-102740000D01*
G75*
G02*
X153395000Y-102590000I150000J0D01*
G01*
X153945000Y-102590000D01*
G75*
G02*
X154095000Y-102740000I0J-150000D01*
G01*
X154095000Y-104240000D01*
G75*
G02*
X153945000Y-104390000I-150000J0D01*
G01*
G37*
G36*
G01*
X153145000Y-104390000D02*
X152595000Y-104390000D01*
G75*
G02*
X152445000Y-104240000I0J150000D01*
G01*
X152445000Y-102740000D01*
G75*
G02*
X152595000Y-102590000I150000J0D01*
G01*
X153145000Y-102590000D01*
G75*
G02*
X153295000Y-102740000I0J-150000D01*
G01*
X153295000Y-104240000D01*
G75*
G02*
X153145000Y-104390000I-150000J0D01*
G01*
G37*
G36*
G01*
X152345000Y-104390000D02*
X151795000Y-104390000D01*
G75*
G02*
X151645000Y-104240000I0J150000D01*
G01*
X151645000Y-102740000D01*
G75*
G02*
X151795000Y-102590000I150000J0D01*
G01*
X152345000Y-102590000D01*
G75*
G02*
X152495000Y-102740000I0J-150000D01*
G01*
X152495000Y-104240000D01*
G75*
G02*
X152345000Y-104390000I-150000J0D01*
G01*
G37*
G36*
G01*
X151545000Y-104390000D02*
X150995000Y-104390000D01*
G75*
G02*
X150845000Y-104240000I0J150000D01*
G01*
X150845000Y-102740000D01*
G75*
G02*
X150995000Y-102590000I150000J0D01*
G01*
X151545000Y-102590000D01*
G75*
G02*
X151695000Y-102740000I0J-150000D01*
G01*
X151695000Y-104240000D01*
G75*
G02*
X151545000Y-104390000I-150000J0D01*
G01*
G37*
G36*
G01*
X150745000Y-104390000D02*
X150195000Y-104390000D01*
G75*
G02*
X150045000Y-104240000I0J150000D01*
G01*
X150045000Y-102740000D01*
G75*
G02*
X150195000Y-102590000I150000J0D01*
G01*
X150745000Y-102590000D01*
G75*
G02*
X150895000Y-102740000I0J-150000D01*
G01*
X150895000Y-104240000D01*
G75*
G02*
X150745000Y-104390000I-150000J0D01*
G01*
G37*
G36*
G01*
X149945000Y-104390000D02*
X149395000Y-104390000D01*
G75*
G02*
X149245000Y-104240000I0J150000D01*
G01*
X149245000Y-102740000D01*
G75*
G02*
X149395000Y-102590000I150000J0D01*
G01*
X149945000Y-102590000D01*
G75*
G02*
X150095000Y-102740000I0J-150000D01*
G01*
X150095000Y-104240000D01*
G75*
G02*
X149945000Y-104390000I-150000J0D01*
G01*
G37*
%TD*%
D14*
%TO.C,U4*%
X80873600Y-91440000D03*
X80873600Y-106680000D03*
X83413600Y-91440000D03*
X83413600Y-106680000D03*
X85953600Y-91440000D03*
X85953600Y-106680000D03*
X88493600Y-91440000D03*
X88493600Y-106680000D03*
X91033600Y-91440000D03*
X91033600Y-106680000D03*
X93573600Y-91440000D03*
X93573600Y-106680000D03*
X96113600Y-91440000D03*
X96113600Y-106680000D03*
X98653600Y-91440000D03*
X98653600Y-106680000D03*
X101193600Y-91440000D03*
X101193600Y-106680000D03*
X103733600Y-91440000D03*
X103733600Y-106680000D03*
X106273600Y-91440000D03*
X106273600Y-106680000D03*
X108813600Y-91440000D03*
X108813600Y-106680000D03*
X111353600Y-91440000D03*
X111353600Y-106680000D03*
X113893600Y-91440000D03*
X113893600Y-106680000D03*
X116433600Y-91440000D03*
X116433600Y-106680000D03*
X118973600Y-91440000D03*
X118973600Y-106680000D03*
X121513600Y-91440000D03*
X121513600Y-106680000D03*
X124053600Y-91440000D03*
X124053600Y-106680000D03*
X126593600Y-91440000D03*
X126593600Y-106680000D03*
X129133600Y-91440000D03*
X129133600Y-106680000D03*
X131673600Y-91440000D03*
X131673600Y-106680000D03*
X134213600Y-91440000D03*
X134213600Y-106680000D03*
X136753600Y-91440000D03*
X136753600Y-106680000D03*
X139293600Y-91440000D03*
X139293600Y-106680000D03*
%TD*%
D13*
%TO.C,J1*%
X172339000Y-106680000D03*
X174879000Y-106680000D03*
X172339000Y-104140000D03*
X174879000Y-104140000D03*
X172339000Y-101600000D03*
X174879000Y-101600000D03*
X172339000Y-99060000D03*
X174879000Y-99060000D03*
X172339000Y-96520000D03*
X174879000Y-96520000D03*
X172339000Y-93980000D03*
X174879000Y-93980000D03*
X172339000Y-91440000D03*
X174879000Y-91440000D03*
X172339000Y-88900000D03*
X174879000Y-88900000D03*
X172339000Y-86360000D03*
X174879000Y-86360000D03*
X172339000Y-83820000D03*
X174879000Y-83820000D03*
X172339000Y-81280000D03*
X174879000Y-81280000D03*
X172339000Y-78740000D03*
X174879000Y-78740000D03*
X172339000Y-76200000D03*
X174879000Y-76200000D03*
X172339000Y-73660000D03*
X174879000Y-73660000D03*
X172339000Y-71120000D03*
X174879000Y-71120000D03*
X172339000Y-68580000D03*
X174879000Y-68580000D03*
X172339000Y-66040000D03*
X174879000Y-66040000D03*
X172339000Y-63500000D03*
X174879000Y-63500000D03*
X172339000Y-60960000D03*
X174879000Y-60960000D03*
X172339000Y-58420000D03*
G36*
G01*
X173879000Y-59270000D02*
X173879000Y-57570000D01*
G75*
G02*
X174029000Y-57420000I150000J0D01*
G01*
X175729000Y-57420000D01*
G75*
G02*
X175879000Y-57570000I0J-150000D01*
G01*
X175879000Y-59270000D01*
G75*
G02*
X175729000Y-59420000I-150000J0D01*
G01*
X174029000Y-59420000D01*
G75*
G02*
X173879000Y-59270000I0J150000D01*
G01*
G37*
%TD*%
D15*
%TO.C,U3*%
X139315000Y-99695000D03*
X80895000Y-84455000D03*
X136775000Y-99695000D03*
X83435000Y-84455000D03*
X134235000Y-99695000D03*
X85975000Y-84455000D03*
X131695000Y-99695000D03*
X88515000Y-84455000D03*
X129155000Y-99695000D03*
X91055000Y-84455000D03*
X126615000Y-99695000D03*
X93595000Y-84455000D03*
X124075000Y-99695000D03*
X96135000Y-84455000D03*
X121535000Y-99695000D03*
X98675000Y-84455000D03*
X118995000Y-99695000D03*
X101215000Y-84455000D03*
X116455000Y-99695000D03*
X103755000Y-84455000D03*
X113915000Y-99695000D03*
X106295000Y-84455000D03*
X111375000Y-99695000D03*
X108835000Y-84455000D03*
X108835000Y-99695000D03*
X111375000Y-84455000D03*
X106295000Y-99695000D03*
X113915000Y-84455000D03*
X103755000Y-99695000D03*
X116455000Y-84455000D03*
X101215000Y-99695000D03*
X118995000Y-84455000D03*
X98675000Y-99695000D03*
X121535000Y-84455000D03*
X96135000Y-99695000D03*
X124075000Y-84455000D03*
X93595000Y-99695000D03*
X126615000Y-84455000D03*
X91055000Y-99695000D03*
X129155000Y-84455000D03*
X88515000Y-99695000D03*
X131695000Y-84455000D03*
X85975000Y-99695000D03*
X134235000Y-84455000D03*
X83435000Y-99695000D03*
X136775000Y-84455000D03*
X80895000Y-99695000D03*
G36*
G01*
X138515000Y-83505000D02*
X140115000Y-83505000D01*
G75*
G02*
X140265000Y-83655000I0J-150000D01*
G01*
X140265000Y-85255000D01*
G75*
G02*
X140115000Y-85405000I-150000J0D01*
G01*
X138515000Y-85405000D01*
G75*
G02*
X138365000Y-85255000I0J150000D01*
G01*
X138365000Y-83655000D01*
G75*
G02*
X138515000Y-83505000I150000J0D01*
G01*
G37*
%TD*%
D13*
%TO.C,BT1*%
X142367000Y-100330000D03*
G36*
G01*
X144057000Y-99330000D02*
X145757000Y-99330000D01*
G75*
G02*
X145907000Y-99480000I0J-150000D01*
G01*
X145907000Y-101180000D01*
G75*
G02*
X145757000Y-101330000I-150000J0D01*
G01*
X144057000Y-101330000D01*
G75*
G02*
X143907000Y-101180000I0J150000D01*
G01*
X143907000Y-99480000D01*
G75*
G02*
X144057000Y-99330000I150000J0D01*
G01*
G37*
%TD*%
M02*
