G04 #@! TF.GenerationSoftware,KiCad,Pcbnew,(5.1.9)-1*
G04 #@! TF.CreationDate,2021-04-27T11:27:47+01:00*
G04 #@! TF.ProjectId,RGBtoHDMI Amiga Denise - solarmon - Rev 2 - TSSOP,52474274-6f48-4444-9d49-20416d696761,2 (TSSOP)*
G04 #@! TF.SameCoordinates,Original*
G04 #@! TF.FileFunction,Soldermask,Top*
G04 #@! TF.FilePolarity,Negative*
%FSLAX46Y46*%
G04 Gerber Fmt 4.6, Leading zero omitted, Abs format (unit mm)*
G04 Created by KiCad (PCBNEW (5.1.9)-1) date 2021-04-27 11:27:47*
%MOMM*%
%LPD*%
G01*
G04 APERTURE LIST*
%ADD10O,2.000000X2.000000*%
%ADD11O,1.900000X1.900000*%
%ADD12C,1.900000*%
G04 APERTURE END LIST*
G36*
G01*
X207345000Y-51254829D02*
X207345000Y-52377171D01*
G75*
G02*
X207031171Y-52691000I-313829J0D01*
G01*
X206183829Y-52691000D01*
G75*
G02*
X205870000Y-52377171I0J313829D01*
G01*
X205870000Y-51254829D01*
G75*
G02*
X206183829Y-50941000I313829J0D01*
G01*
X207031171Y-50941000D01*
G75*
G02*
X207345000Y-51254829I0J-313829D01*
G01*
G37*
G36*
G01*
X209420000Y-51254829D02*
X209420000Y-52377171D01*
G75*
G02*
X209106171Y-52691000I-313829J0D01*
G01*
X208258829Y-52691000D01*
G75*
G02*
X207945000Y-52377171I0J313829D01*
G01*
X207945000Y-51254829D01*
G75*
G02*
X208258829Y-50941000I313829J0D01*
G01*
X209106171Y-50941000D01*
G75*
G02*
X209420000Y-51254829I0J-313829D01*
G01*
G37*
G36*
G01*
X195093000Y-80891000D02*
X195093000Y-79891000D01*
G75*
G02*
X195243000Y-79741000I150000J0D01*
G01*
X198243000Y-79741000D01*
G75*
G02*
X198393000Y-79891000I0J-150000D01*
G01*
X198393000Y-80891000D01*
G75*
G02*
X198243000Y-81041000I-150000J0D01*
G01*
X195243000Y-81041000D01*
G75*
G02*
X195093000Y-80891000I0J150000D01*
G01*
G37*
G36*
G01*
X200133000Y-80891000D02*
X200133000Y-79891000D01*
G75*
G02*
X200283000Y-79741000I150000J0D01*
G01*
X203283000Y-79741000D01*
G75*
G02*
X203433000Y-79891000I0J-150000D01*
G01*
X203433000Y-80891000D01*
G75*
G02*
X203283000Y-81041000I-150000J0D01*
G01*
X200283000Y-81041000D01*
G75*
G02*
X200133000Y-80891000I0J150000D01*
G01*
G37*
G36*
G01*
X195093000Y-78351000D02*
X195093000Y-77351000D01*
G75*
G02*
X195243000Y-77201000I150000J0D01*
G01*
X198243000Y-77201000D01*
G75*
G02*
X198393000Y-77351000I0J-150000D01*
G01*
X198393000Y-78351000D01*
G75*
G02*
X198243000Y-78501000I-150000J0D01*
G01*
X195243000Y-78501000D01*
G75*
G02*
X195093000Y-78351000I0J150000D01*
G01*
G37*
G36*
G01*
X200133000Y-78351000D02*
X200133000Y-77351000D01*
G75*
G02*
X200283000Y-77201000I150000J0D01*
G01*
X203283000Y-77201000D01*
G75*
G02*
X203433000Y-77351000I0J-150000D01*
G01*
X203433000Y-78351000D01*
G75*
G02*
X203283000Y-78501000I-150000J0D01*
G01*
X200283000Y-78501000D01*
G75*
G02*
X200133000Y-78351000I0J150000D01*
G01*
G37*
G36*
G01*
X195093000Y-75811000D02*
X195093000Y-74811000D01*
G75*
G02*
X195243000Y-74661000I150000J0D01*
G01*
X198243000Y-74661000D01*
G75*
G02*
X198393000Y-74811000I0J-150000D01*
G01*
X198393000Y-75811000D01*
G75*
G02*
X198243000Y-75961000I-150000J0D01*
G01*
X195243000Y-75961000D01*
G75*
G02*
X195093000Y-75811000I0J150000D01*
G01*
G37*
G36*
G01*
X200133000Y-75811000D02*
X200133000Y-74811000D01*
G75*
G02*
X200283000Y-74661000I150000J0D01*
G01*
X203283000Y-74661000D01*
G75*
G02*
X203433000Y-74811000I0J-150000D01*
G01*
X203433000Y-75811000D01*
G75*
G02*
X203283000Y-75961000I-150000J0D01*
G01*
X200283000Y-75961000D01*
G75*
G02*
X200133000Y-75811000I0J150000D01*
G01*
G37*
G36*
G01*
X195093000Y-73271000D02*
X195093000Y-72271000D01*
G75*
G02*
X195243000Y-72121000I150000J0D01*
G01*
X198243000Y-72121000D01*
G75*
G02*
X198393000Y-72271000I0J-150000D01*
G01*
X198393000Y-73271000D01*
G75*
G02*
X198243000Y-73421000I-150000J0D01*
G01*
X195243000Y-73421000D01*
G75*
G02*
X195093000Y-73271000I0J150000D01*
G01*
G37*
G36*
G01*
X200133000Y-73271000D02*
X200133000Y-72271000D01*
G75*
G02*
X200283000Y-72121000I150000J0D01*
G01*
X203283000Y-72121000D01*
G75*
G02*
X203433000Y-72271000I0J-150000D01*
G01*
X203433000Y-73271000D01*
G75*
G02*
X203283000Y-73421000I-150000J0D01*
G01*
X200283000Y-73421000D01*
G75*
G02*
X200133000Y-73271000I0J150000D01*
G01*
G37*
G36*
G01*
X195093000Y-70731000D02*
X195093000Y-69731000D01*
G75*
G02*
X195243000Y-69581000I150000J0D01*
G01*
X198243000Y-69581000D01*
G75*
G02*
X198393000Y-69731000I0J-150000D01*
G01*
X198393000Y-70731000D01*
G75*
G02*
X198243000Y-70881000I-150000J0D01*
G01*
X195243000Y-70881000D01*
G75*
G02*
X195093000Y-70731000I0J150000D01*
G01*
G37*
G36*
G01*
X200133000Y-70731000D02*
X200133000Y-69731000D01*
G75*
G02*
X200283000Y-69581000I150000J0D01*
G01*
X203283000Y-69581000D01*
G75*
G02*
X203433000Y-69731000I0J-150000D01*
G01*
X203433000Y-70731000D01*
G75*
G02*
X203283000Y-70881000I-150000J0D01*
G01*
X200283000Y-70881000D01*
G75*
G02*
X200133000Y-70731000I0J150000D01*
G01*
G37*
G36*
G01*
X195093000Y-68191000D02*
X195093000Y-67191000D01*
G75*
G02*
X195243000Y-67041000I150000J0D01*
G01*
X198243000Y-67041000D01*
G75*
G02*
X198393000Y-67191000I0J-150000D01*
G01*
X198393000Y-68191000D01*
G75*
G02*
X198243000Y-68341000I-150000J0D01*
G01*
X195243000Y-68341000D01*
G75*
G02*
X195093000Y-68191000I0J150000D01*
G01*
G37*
G36*
G01*
X200133000Y-68191000D02*
X200133000Y-67191000D01*
G75*
G02*
X200283000Y-67041000I150000J0D01*
G01*
X203283000Y-67041000D01*
G75*
G02*
X203433000Y-67191000I0J-150000D01*
G01*
X203433000Y-68191000D01*
G75*
G02*
X203283000Y-68341000I-150000J0D01*
G01*
X200283000Y-68341000D01*
G75*
G02*
X200133000Y-68191000I0J150000D01*
G01*
G37*
G36*
G01*
X195093000Y-65651000D02*
X195093000Y-64651000D01*
G75*
G02*
X195243000Y-64501000I150000J0D01*
G01*
X198243000Y-64501000D01*
G75*
G02*
X198393000Y-64651000I0J-150000D01*
G01*
X198393000Y-65651000D01*
G75*
G02*
X198243000Y-65801000I-150000J0D01*
G01*
X195243000Y-65801000D01*
G75*
G02*
X195093000Y-65651000I0J150000D01*
G01*
G37*
G36*
G01*
X200133000Y-65651000D02*
X200133000Y-64651000D01*
G75*
G02*
X200283000Y-64501000I150000J0D01*
G01*
X203283000Y-64501000D01*
G75*
G02*
X203433000Y-64651000I0J-150000D01*
G01*
X203433000Y-65651000D01*
G75*
G02*
X203283000Y-65801000I-150000J0D01*
G01*
X200283000Y-65801000D01*
G75*
G02*
X200133000Y-65651000I0J150000D01*
G01*
G37*
G36*
G01*
X195093000Y-63111000D02*
X195093000Y-62111000D01*
G75*
G02*
X195243000Y-61961000I150000J0D01*
G01*
X198243000Y-61961000D01*
G75*
G02*
X198393000Y-62111000I0J-150000D01*
G01*
X198393000Y-63111000D01*
G75*
G02*
X198243000Y-63261000I-150000J0D01*
G01*
X195243000Y-63261000D01*
G75*
G02*
X195093000Y-63111000I0J150000D01*
G01*
G37*
G36*
G01*
X200133000Y-63111000D02*
X200133000Y-62111000D01*
G75*
G02*
X200283000Y-61961000I150000J0D01*
G01*
X203283000Y-61961000D01*
G75*
G02*
X203433000Y-62111000I0J-150000D01*
G01*
X203433000Y-63111000D01*
G75*
G02*
X203283000Y-63261000I-150000J0D01*
G01*
X200283000Y-63261000D01*
G75*
G02*
X200133000Y-63111000I0J150000D01*
G01*
G37*
G36*
G01*
X195093000Y-60571000D02*
X195093000Y-59571000D01*
G75*
G02*
X195243000Y-59421000I150000J0D01*
G01*
X198243000Y-59421000D01*
G75*
G02*
X198393000Y-59571000I0J-150000D01*
G01*
X198393000Y-60571000D01*
G75*
G02*
X198243000Y-60721000I-150000J0D01*
G01*
X195243000Y-60721000D01*
G75*
G02*
X195093000Y-60571000I0J150000D01*
G01*
G37*
G36*
G01*
X200133000Y-60571000D02*
X200133000Y-59571000D01*
G75*
G02*
X200283000Y-59421000I150000J0D01*
G01*
X203283000Y-59421000D01*
G75*
G02*
X203433000Y-59571000I0J-150000D01*
G01*
X203433000Y-60571000D01*
G75*
G02*
X203283000Y-60721000I-150000J0D01*
G01*
X200283000Y-60721000D01*
G75*
G02*
X200133000Y-60571000I0J150000D01*
G01*
G37*
G36*
G01*
X195093000Y-58031000D02*
X195093000Y-57031000D01*
G75*
G02*
X195243000Y-56881000I150000J0D01*
G01*
X198243000Y-56881000D01*
G75*
G02*
X198393000Y-57031000I0J-150000D01*
G01*
X198393000Y-58031000D01*
G75*
G02*
X198243000Y-58181000I-150000J0D01*
G01*
X195243000Y-58181000D01*
G75*
G02*
X195093000Y-58031000I0J150000D01*
G01*
G37*
G36*
G01*
X200133000Y-58031000D02*
X200133000Y-57031000D01*
G75*
G02*
X200283000Y-56881000I150000J0D01*
G01*
X203283000Y-56881000D01*
G75*
G02*
X203433000Y-57031000I0J-150000D01*
G01*
X203433000Y-58031000D01*
G75*
G02*
X203283000Y-58181000I-150000J0D01*
G01*
X200283000Y-58181000D01*
G75*
G02*
X200133000Y-58031000I0J150000D01*
G01*
G37*
G36*
G01*
X195093000Y-55491000D02*
X195093000Y-54491000D01*
G75*
G02*
X195243000Y-54341000I150000J0D01*
G01*
X198243000Y-54341000D01*
G75*
G02*
X198393000Y-54491000I0J-150000D01*
G01*
X198393000Y-55491000D01*
G75*
G02*
X198243000Y-55641000I-150000J0D01*
G01*
X195243000Y-55641000D01*
G75*
G02*
X195093000Y-55491000I0J150000D01*
G01*
G37*
G36*
G01*
X200133000Y-55491000D02*
X200133000Y-54491000D01*
G75*
G02*
X200283000Y-54341000I150000J0D01*
G01*
X203283000Y-54341000D01*
G75*
G02*
X203433000Y-54491000I0J-150000D01*
G01*
X203433000Y-55491000D01*
G75*
G02*
X203283000Y-55641000I-150000J0D01*
G01*
X200283000Y-55641000D01*
G75*
G02*
X200133000Y-55491000I0J150000D01*
G01*
G37*
G36*
G01*
X195093000Y-52951000D02*
X195093000Y-51951000D01*
G75*
G02*
X195243000Y-51801000I150000J0D01*
G01*
X198243000Y-51801000D01*
G75*
G02*
X198393000Y-51951000I0J-150000D01*
G01*
X198393000Y-52951000D01*
G75*
G02*
X198243000Y-53101000I-150000J0D01*
G01*
X195243000Y-53101000D01*
G75*
G02*
X195093000Y-52951000I0J150000D01*
G01*
G37*
G36*
G01*
X200133000Y-52951000D02*
X200133000Y-51951000D01*
G75*
G02*
X200283000Y-51801000I150000J0D01*
G01*
X203283000Y-51801000D01*
G75*
G02*
X203433000Y-51951000I0J-150000D01*
G01*
X203433000Y-52951000D01*
G75*
G02*
X203283000Y-53101000I-150000J0D01*
G01*
X200283000Y-53101000D01*
G75*
G02*
X200133000Y-52951000I0J150000D01*
G01*
G37*
G36*
G01*
X195093000Y-50411000D02*
X195093000Y-49411000D01*
G75*
G02*
X195243000Y-49261000I150000J0D01*
G01*
X198243000Y-49261000D01*
G75*
G02*
X198393000Y-49411000I0J-150000D01*
G01*
X198393000Y-50411000D01*
G75*
G02*
X198243000Y-50561000I-150000J0D01*
G01*
X195243000Y-50561000D01*
G75*
G02*
X195093000Y-50411000I0J150000D01*
G01*
G37*
G36*
G01*
X200133000Y-50411000D02*
X200133000Y-49411000D01*
G75*
G02*
X200283000Y-49261000I150000J0D01*
G01*
X203283000Y-49261000D01*
G75*
G02*
X203433000Y-49411000I0J-150000D01*
G01*
X203433000Y-50411000D01*
G75*
G02*
X203283000Y-50561000I-150000J0D01*
G01*
X200283000Y-50561000D01*
G75*
G02*
X200133000Y-50411000I0J150000D01*
G01*
G37*
G36*
G01*
X195093000Y-47871000D02*
X195093000Y-46871000D01*
G75*
G02*
X195243000Y-46721000I150000J0D01*
G01*
X198243000Y-46721000D01*
G75*
G02*
X198393000Y-46871000I0J-150000D01*
G01*
X198393000Y-47871000D01*
G75*
G02*
X198243000Y-48021000I-150000J0D01*
G01*
X195243000Y-48021000D01*
G75*
G02*
X195093000Y-47871000I0J150000D01*
G01*
G37*
G36*
G01*
X200133000Y-47871000D02*
X200133000Y-46871000D01*
G75*
G02*
X200283000Y-46721000I150000J0D01*
G01*
X203283000Y-46721000D01*
G75*
G02*
X203433000Y-46871000I0J-150000D01*
G01*
X203433000Y-47871000D01*
G75*
G02*
X203283000Y-48021000I-150000J0D01*
G01*
X200283000Y-48021000D01*
G75*
G02*
X200133000Y-47871000I0J150000D01*
G01*
G37*
G36*
G01*
X195093000Y-45331000D02*
X195093000Y-44331000D01*
G75*
G02*
X195243000Y-44181000I150000J0D01*
G01*
X198243000Y-44181000D01*
G75*
G02*
X198393000Y-44331000I0J-150000D01*
G01*
X198393000Y-45331000D01*
G75*
G02*
X198243000Y-45481000I-150000J0D01*
G01*
X195243000Y-45481000D01*
G75*
G02*
X195093000Y-45331000I0J150000D01*
G01*
G37*
G36*
G01*
X200133000Y-45331000D02*
X200133000Y-44331000D01*
G75*
G02*
X200283000Y-44181000I150000J0D01*
G01*
X203283000Y-44181000D01*
G75*
G02*
X203433000Y-44331000I0J-150000D01*
G01*
X203433000Y-45331000D01*
G75*
G02*
X203283000Y-45481000I-150000J0D01*
G01*
X200283000Y-45481000D01*
G75*
G02*
X200133000Y-45331000I0J150000D01*
G01*
G37*
G36*
G01*
X195093000Y-42791000D02*
X195093000Y-41791000D01*
G75*
G02*
X195243000Y-41641000I150000J0D01*
G01*
X198243000Y-41641000D01*
G75*
G02*
X198393000Y-41791000I0J-150000D01*
G01*
X198393000Y-42791000D01*
G75*
G02*
X198243000Y-42941000I-150000J0D01*
G01*
X195243000Y-42941000D01*
G75*
G02*
X195093000Y-42791000I0J150000D01*
G01*
G37*
G36*
G01*
X200133000Y-42791000D02*
X200133000Y-41791000D01*
G75*
G02*
X200283000Y-41641000I150000J0D01*
G01*
X203283000Y-41641000D01*
G75*
G02*
X203433000Y-41791000I0J-150000D01*
G01*
X203433000Y-42791000D01*
G75*
G02*
X203283000Y-42941000I-150000J0D01*
G01*
X200283000Y-42941000D01*
G75*
G02*
X200133000Y-42791000I0J150000D01*
G01*
G37*
G36*
G01*
X195093000Y-40251000D02*
X195093000Y-39251000D01*
G75*
G02*
X195243000Y-39101000I150000J0D01*
G01*
X198243000Y-39101000D01*
G75*
G02*
X198393000Y-39251000I0J-150000D01*
G01*
X198393000Y-40251000D01*
G75*
G02*
X198243000Y-40401000I-150000J0D01*
G01*
X195243000Y-40401000D01*
G75*
G02*
X195093000Y-40251000I0J150000D01*
G01*
G37*
G36*
G01*
X200133000Y-40251000D02*
X200133000Y-39251000D01*
G75*
G02*
X200283000Y-39101000I150000J0D01*
G01*
X203283000Y-39101000D01*
G75*
G02*
X203433000Y-39251000I0J-150000D01*
G01*
X203433000Y-40251000D01*
G75*
G02*
X203283000Y-40401000I-150000J0D01*
G01*
X200283000Y-40401000D01*
G75*
G02*
X200133000Y-40251000I0J150000D01*
G01*
G37*
G36*
G01*
X195093000Y-37711000D02*
X195093000Y-36711000D01*
G75*
G02*
X195243000Y-36561000I150000J0D01*
G01*
X198243000Y-36561000D01*
G75*
G02*
X198393000Y-36711000I0J-150000D01*
G01*
X198393000Y-37711000D01*
G75*
G02*
X198243000Y-37861000I-150000J0D01*
G01*
X195243000Y-37861000D01*
G75*
G02*
X195093000Y-37711000I0J150000D01*
G01*
G37*
G36*
G01*
X200133000Y-37711000D02*
X200133000Y-36711000D01*
G75*
G02*
X200283000Y-36561000I150000J0D01*
G01*
X203283000Y-36561000D01*
G75*
G02*
X203433000Y-36711000I0J-150000D01*
G01*
X203433000Y-37711000D01*
G75*
G02*
X203283000Y-37861000I-150000J0D01*
G01*
X200283000Y-37861000D01*
G75*
G02*
X200133000Y-37711000I0J150000D01*
G01*
G37*
G36*
G01*
X195093000Y-35171000D02*
X195093000Y-34171000D01*
G75*
G02*
X195243000Y-34021000I150000J0D01*
G01*
X198243000Y-34021000D01*
G75*
G02*
X198393000Y-34171000I0J-150000D01*
G01*
X198393000Y-35171000D01*
G75*
G02*
X198243000Y-35321000I-150000J0D01*
G01*
X195243000Y-35321000D01*
G75*
G02*
X195093000Y-35171000I0J150000D01*
G01*
G37*
G36*
G01*
X200133000Y-35171000D02*
X200133000Y-34171000D01*
G75*
G02*
X200283000Y-34021000I150000J0D01*
G01*
X203283000Y-34021000D01*
G75*
G02*
X203433000Y-34171000I0J-150000D01*
G01*
X203433000Y-35171000D01*
G75*
G02*
X203283000Y-35321000I-150000J0D01*
G01*
X200283000Y-35321000D01*
G75*
G02*
X200133000Y-35171000I0J150000D01*
G01*
G37*
G36*
G01*
X195093000Y-32631000D02*
X195093000Y-31631000D01*
G75*
G02*
X195243000Y-31481000I150000J0D01*
G01*
X198243000Y-31481000D01*
G75*
G02*
X198393000Y-31631000I0J-150000D01*
G01*
X198393000Y-32631000D01*
G75*
G02*
X198243000Y-32781000I-150000J0D01*
G01*
X195243000Y-32781000D01*
G75*
G02*
X195093000Y-32631000I0J150000D01*
G01*
G37*
G36*
G01*
X200133000Y-32631000D02*
X200133000Y-31631000D01*
G75*
G02*
X200283000Y-31481000I150000J0D01*
G01*
X203283000Y-31481000D01*
G75*
G02*
X203433000Y-31631000I0J-150000D01*
G01*
X203433000Y-32631000D01*
G75*
G02*
X203283000Y-32781000I-150000J0D01*
G01*
X200283000Y-32781000D01*
G75*
G02*
X200133000Y-32631000I0J150000D01*
G01*
G37*
D10*
X190373000Y-51181000D03*
G36*
G01*
X191373000Y-52871000D02*
X191373000Y-54571000D01*
G75*
G02*
X191223000Y-54721000I-150000J0D01*
G01*
X189523000Y-54721000D01*
G75*
G02*
X189373000Y-54571000I0J150000D01*
G01*
X189373000Y-52871000D01*
G75*
G02*
X189523000Y-52721000I150000J0D01*
G01*
X191223000Y-52721000D01*
G75*
G02*
X191373000Y-52871000I0J-150000D01*
G01*
G37*
G36*
G01*
X207345000Y-41729829D02*
X207345000Y-42852171D01*
G75*
G02*
X207031171Y-43166000I-313829J0D01*
G01*
X206183829Y-43166000D01*
G75*
G02*
X205870000Y-42852171I0J313829D01*
G01*
X205870000Y-41729829D01*
G75*
G02*
X206183829Y-41416000I313829J0D01*
G01*
X207031171Y-41416000D01*
G75*
G02*
X207345000Y-41729829I0J-313829D01*
G01*
G37*
G36*
G01*
X209420000Y-41729829D02*
X209420000Y-42852171D01*
G75*
G02*
X209106171Y-43166000I-313829J0D01*
G01*
X208258829Y-43166000D01*
G75*
G02*
X207945000Y-42852171I0J313829D01*
G01*
X207945000Y-41729829D01*
G75*
G02*
X208258829Y-41416000I313829J0D01*
G01*
X209106171Y-41416000D01*
G75*
G02*
X209420000Y-41729829I0J-313829D01*
G01*
G37*
D11*
X105283000Y-80391000D03*
X107823000Y-80391000D03*
X110363000Y-80391000D03*
X112903000Y-80391000D03*
X115443000Y-80391000D03*
X117983000Y-80391000D03*
X120523000Y-80391000D03*
X123063000Y-80391000D03*
X125603000Y-80391000D03*
X128143000Y-80391000D03*
X130683000Y-80391000D03*
X133223000Y-80391000D03*
X135763000Y-80391000D03*
X138303000Y-80391000D03*
X140843000Y-80391000D03*
X143383000Y-80391000D03*
X145923000Y-80391000D03*
X148463000Y-80391000D03*
X151003000Y-80391000D03*
X153543000Y-80391000D03*
X156083000Y-80391000D03*
X158623000Y-80391000D03*
X161163000Y-80391000D03*
G36*
G01*
X164503000Y-81341000D02*
X162903000Y-81341000D01*
G75*
G02*
X162753000Y-81191000I0J150000D01*
G01*
X162753000Y-79591000D01*
G75*
G02*
X162903000Y-79441000I150000J0D01*
G01*
X164503000Y-79441000D01*
G75*
G02*
X164653000Y-79591000I0J-150000D01*
G01*
X164653000Y-81191000D01*
G75*
G02*
X164503000Y-81341000I-150000J0D01*
G01*
G37*
X105283000Y-65151000D03*
X107823000Y-65151000D03*
X110363000Y-65151000D03*
X112903000Y-65151000D03*
X115443000Y-65151000D03*
X117983000Y-65151000D03*
X120523000Y-65151000D03*
X123063000Y-65151000D03*
X125603000Y-65151000D03*
X128143000Y-65151000D03*
X130683000Y-65151000D03*
X133223000Y-65151000D03*
X135763000Y-65151000D03*
X138303000Y-65151000D03*
X140843000Y-65151000D03*
X143383000Y-65151000D03*
X145923000Y-65151000D03*
X148463000Y-65151000D03*
X151003000Y-65151000D03*
X153543000Y-65151000D03*
X156083000Y-65151000D03*
X158623000Y-65151000D03*
X161163000Y-65151000D03*
G36*
G01*
X164503000Y-66101000D02*
X162903000Y-66101000D01*
G75*
G02*
X162753000Y-65951000I0J150000D01*
G01*
X162753000Y-64351000D01*
G75*
G02*
X162903000Y-64201000I150000J0D01*
G01*
X164503000Y-64201000D01*
G75*
G02*
X164653000Y-64351000I0J-150000D01*
G01*
X164653000Y-65951000D01*
G75*
G02*
X164503000Y-66101000I-150000J0D01*
G01*
G37*
D10*
X206502000Y-80391000D03*
X206502000Y-77851000D03*
X206502000Y-75311000D03*
X206502000Y-72771000D03*
X206502000Y-70231000D03*
G36*
G01*
X205502000Y-68541000D02*
X205502000Y-66841000D01*
G75*
G02*
X205652000Y-66691000I150000J0D01*
G01*
X207352000Y-66691000D01*
G75*
G02*
X207502000Y-66841000I0J-150000D01*
G01*
X207502000Y-68541000D01*
G75*
G02*
X207352000Y-68691000I-150000J0D01*
G01*
X205652000Y-68691000D01*
G75*
G02*
X205502000Y-68541000I0J150000D01*
G01*
G37*
G36*
G01*
X209449784Y-60152000D02*
X208380216Y-60152000D01*
G75*
G02*
X208065000Y-59836784I0J315216D01*
G01*
X208065000Y-59017216D01*
G75*
G02*
X208380216Y-58702000I315216J0D01*
G01*
X209449784Y-58702000D01*
G75*
G02*
X209765000Y-59017216I0J-315216D01*
G01*
X209765000Y-59836784D01*
G75*
G02*
X209449784Y-60152000I-315216J0D01*
G01*
G37*
G36*
G01*
X209449784Y-62202000D02*
X208380216Y-62202000D01*
G75*
G02*
X208065000Y-61886784I0J315216D01*
G01*
X208065000Y-61067216D01*
G75*
G02*
X208380216Y-60752000I315216J0D01*
G01*
X209449784Y-60752000D01*
G75*
G02*
X209765000Y-61067216I0J-315216D01*
G01*
X209765000Y-61886784D01*
G75*
G02*
X209449784Y-62202000I-315216J0D01*
G01*
G37*
G36*
G01*
X208470000Y-53671000D02*
X209520000Y-53671000D01*
G75*
G02*
X209590000Y-53741000I0J-70000D01*
G01*
X209590000Y-54341000D01*
G75*
G02*
X209520000Y-54411000I-70000J0D01*
G01*
X208470000Y-54411000D01*
G75*
G02*
X208400000Y-54341000I0J70000D01*
G01*
X208400000Y-53741000D01*
G75*
G02*
X208470000Y-53671000I70000J0D01*
G01*
G37*
G36*
G01*
X208470000Y-55571000D02*
X209520000Y-55571000D01*
G75*
G02*
X209590000Y-55641000I0J-70000D01*
G01*
X209590000Y-56241000D01*
G75*
G02*
X209520000Y-56311000I-70000J0D01*
G01*
X208470000Y-56311000D01*
G75*
G02*
X208400000Y-56241000I0J70000D01*
G01*
X208400000Y-55641000D01*
G75*
G02*
X208470000Y-55571000I70000J0D01*
G01*
G37*
G36*
G01*
X205770000Y-55571000D02*
X206820000Y-55571000D01*
G75*
G02*
X206890000Y-55641000I0J-70000D01*
G01*
X206890000Y-56241000D01*
G75*
G02*
X206820000Y-56311000I-70000J0D01*
G01*
X205770000Y-56311000D01*
G75*
G02*
X205700000Y-56241000I0J70000D01*
G01*
X205700000Y-55641000D01*
G75*
G02*
X205770000Y-55571000I70000J0D01*
G01*
G37*
G36*
G01*
X205770000Y-54621000D02*
X206820000Y-54621000D01*
G75*
G02*
X206890000Y-54691000I0J-70000D01*
G01*
X206890000Y-55291000D01*
G75*
G02*
X206820000Y-55361000I-70000J0D01*
G01*
X205770000Y-55361000D01*
G75*
G02*
X205700000Y-55291000I0J70000D01*
G01*
X205700000Y-54691000D01*
G75*
G02*
X205770000Y-54621000I70000J0D01*
G01*
G37*
G36*
G01*
X205770000Y-53671000D02*
X206820000Y-53671000D01*
G75*
G02*
X206890000Y-53741000I0J-70000D01*
G01*
X206890000Y-54341000D01*
G75*
G02*
X206820000Y-54411000I-70000J0D01*
G01*
X205770000Y-54411000D01*
G75*
G02*
X205700000Y-54341000I0J70000D01*
G01*
X205700000Y-53741000D01*
G75*
G02*
X205770000Y-53671000I70000J0D01*
G01*
G37*
G36*
G01*
X171108000Y-72914000D02*
X172808000Y-72914000D01*
G75*
G02*
X172958000Y-73064000I0J-150000D01*
G01*
X172958000Y-74764000D01*
G75*
G02*
X172808000Y-74914000I-150000J0D01*
G01*
X171108000Y-74914000D01*
G75*
G02*
X170958000Y-74764000I0J150000D01*
G01*
X170958000Y-73064000D01*
G75*
G02*
X171108000Y-72914000I150000J0D01*
G01*
G37*
X169418000Y-73914000D03*
X166878000Y-73914000D03*
X175768000Y-73914000D03*
G36*
G01*
X177458000Y-72914000D02*
X179158000Y-72914000D01*
G75*
G02*
X179308000Y-73064000I0J-150000D01*
G01*
X179308000Y-74764000D01*
G75*
G02*
X179158000Y-74914000I-150000J0D01*
G01*
X177458000Y-74914000D01*
G75*
G02*
X177308000Y-74764000I0J150000D01*
G01*
X177308000Y-73064000D01*
G75*
G02*
X177458000Y-72914000I150000J0D01*
G01*
G37*
G36*
G01*
X206094216Y-60752000D02*
X207163784Y-60752000D01*
G75*
G02*
X207479000Y-61067216I0J-315216D01*
G01*
X207479000Y-61886784D01*
G75*
G02*
X207163784Y-62202000I-315216J0D01*
G01*
X206094216Y-62202000D01*
G75*
G02*
X205779000Y-61886784I0J315216D01*
G01*
X205779000Y-61067216D01*
G75*
G02*
X206094216Y-60752000I315216J0D01*
G01*
G37*
G36*
G01*
X206094216Y-58702000D02*
X207163784Y-58702000D01*
G75*
G02*
X207479000Y-59017216I0J-315216D01*
G01*
X207479000Y-59836784D01*
G75*
G02*
X207163784Y-60152000I-315216J0D01*
G01*
X206094216Y-60152000D01*
G75*
G02*
X205779000Y-59836784I0J315216D01*
G01*
X205779000Y-59017216D01*
G75*
G02*
X206094216Y-58702000I315216J0D01*
G01*
G37*
G36*
G01*
X184993000Y-60171216D02*
X184993000Y-61240784D01*
G75*
G02*
X184677784Y-61556000I-315216J0D01*
G01*
X183858216Y-61556000D01*
G75*
G02*
X183543000Y-61240784I0J315216D01*
G01*
X183543000Y-60171216D01*
G75*
G02*
X183858216Y-59856000I315216J0D01*
G01*
X184677784Y-59856000D01*
G75*
G02*
X184993000Y-60171216I0J-315216D01*
G01*
G37*
G36*
G01*
X187043000Y-60171216D02*
X187043000Y-61240784D01*
G75*
G02*
X186727784Y-61556000I-315216J0D01*
G01*
X185908216Y-61556000D01*
G75*
G02*
X185593000Y-61240784I0J315216D01*
G01*
X185593000Y-60171216D01*
G75*
G02*
X185908216Y-59856000I315216J0D01*
G01*
X186727784Y-59856000D01*
G75*
G02*
X187043000Y-60171216I0J-315216D01*
G01*
G37*
G36*
G01*
X184993000Y-72236216D02*
X184993000Y-73305784D01*
G75*
G02*
X184677784Y-73621000I-315216J0D01*
G01*
X183858216Y-73621000D01*
G75*
G02*
X183543000Y-73305784I0J315216D01*
G01*
X183543000Y-72236216D01*
G75*
G02*
X183858216Y-71921000I315216J0D01*
G01*
X184677784Y-71921000D01*
G75*
G02*
X184993000Y-72236216I0J-315216D01*
G01*
G37*
G36*
G01*
X187043000Y-72236216D02*
X187043000Y-73305784D01*
G75*
G02*
X186727784Y-73621000I-315216J0D01*
G01*
X185908216Y-73621000D01*
G75*
G02*
X185593000Y-73305784I0J315216D01*
G01*
X185593000Y-72236216D01*
G75*
G02*
X185908216Y-71921000I315216J0D01*
G01*
X186727784Y-71921000D01*
G75*
G02*
X187043000Y-72236216I0J-315216D01*
G01*
G37*
G36*
G01*
X172928000Y-60806216D02*
X172928000Y-61875784D01*
G75*
G02*
X172612784Y-62191000I-315216J0D01*
G01*
X171793216Y-62191000D01*
G75*
G02*
X171478000Y-61875784I0J315216D01*
G01*
X171478000Y-60806216D01*
G75*
G02*
X171793216Y-60491000I315216J0D01*
G01*
X172612784Y-60491000D01*
G75*
G02*
X172928000Y-60806216I0J-315216D01*
G01*
G37*
G36*
G01*
X174978000Y-60806216D02*
X174978000Y-61875784D01*
G75*
G02*
X174662784Y-62191000I-315216J0D01*
G01*
X173843216Y-62191000D01*
G75*
G02*
X173528000Y-61875784I0J315216D01*
G01*
X173528000Y-60806216D01*
G75*
G02*
X173843216Y-60491000I315216J0D01*
G01*
X174662784Y-60491000D01*
G75*
G02*
X174978000Y-60806216I0J-315216D01*
G01*
G37*
G36*
G01*
X169403000Y-64061000D02*
X169403000Y-63611000D01*
G75*
G02*
X169553000Y-63461000I150000J0D01*
G01*
X171003000Y-63461000D01*
G75*
G02*
X171153000Y-63611000I0J-150000D01*
G01*
X171153000Y-64061000D01*
G75*
G02*
X171003000Y-64211000I-150000J0D01*
G01*
X169553000Y-64211000D01*
G75*
G02*
X169403000Y-64061000I0J150000D01*
G01*
G37*
G36*
G01*
X169403000Y-64711000D02*
X169403000Y-64261000D01*
G75*
G02*
X169553000Y-64111000I150000J0D01*
G01*
X171003000Y-64111000D01*
G75*
G02*
X171153000Y-64261000I0J-150000D01*
G01*
X171153000Y-64711000D01*
G75*
G02*
X171003000Y-64861000I-150000J0D01*
G01*
X169553000Y-64861000D01*
G75*
G02*
X169403000Y-64711000I0J150000D01*
G01*
G37*
G36*
G01*
X169403000Y-65361000D02*
X169403000Y-64911000D01*
G75*
G02*
X169553000Y-64761000I150000J0D01*
G01*
X171003000Y-64761000D01*
G75*
G02*
X171153000Y-64911000I0J-150000D01*
G01*
X171153000Y-65361000D01*
G75*
G02*
X171003000Y-65511000I-150000J0D01*
G01*
X169553000Y-65511000D01*
G75*
G02*
X169403000Y-65361000I0J150000D01*
G01*
G37*
G36*
G01*
X169403000Y-66011000D02*
X169403000Y-65561000D01*
G75*
G02*
X169553000Y-65411000I150000J0D01*
G01*
X171003000Y-65411000D01*
G75*
G02*
X171153000Y-65561000I0J-150000D01*
G01*
X171153000Y-66011000D01*
G75*
G02*
X171003000Y-66161000I-150000J0D01*
G01*
X169553000Y-66161000D01*
G75*
G02*
X169403000Y-66011000I0J150000D01*
G01*
G37*
G36*
G01*
X169403000Y-66661000D02*
X169403000Y-66211000D01*
G75*
G02*
X169553000Y-66061000I150000J0D01*
G01*
X171003000Y-66061000D01*
G75*
G02*
X171153000Y-66211000I0J-150000D01*
G01*
X171153000Y-66661000D01*
G75*
G02*
X171003000Y-66811000I-150000J0D01*
G01*
X169553000Y-66811000D01*
G75*
G02*
X169403000Y-66661000I0J150000D01*
G01*
G37*
G36*
G01*
X169403000Y-67311000D02*
X169403000Y-66861000D01*
G75*
G02*
X169553000Y-66711000I150000J0D01*
G01*
X171003000Y-66711000D01*
G75*
G02*
X171153000Y-66861000I0J-150000D01*
G01*
X171153000Y-67311000D01*
G75*
G02*
X171003000Y-67461000I-150000J0D01*
G01*
X169553000Y-67461000D01*
G75*
G02*
X169403000Y-67311000I0J150000D01*
G01*
G37*
G36*
G01*
X169403000Y-67961000D02*
X169403000Y-67511000D01*
G75*
G02*
X169553000Y-67361000I150000J0D01*
G01*
X171003000Y-67361000D01*
G75*
G02*
X171153000Y-67511000I0J-150000D01*
G01*
X171153000Y-67961000D01*
G75*
G02*
X171003000Y-68111000I-150000J0D01*
G01*
X169553000Y-68111000D01*
G75*
G02*
X169403000Y-67961000I0J150000D01*
G01*
G37*
G36*
G01*
X175303000Y-67961000D02*
X175303000Y-67511000D01*
G75*
G02*
X175453000Y-67361000I150000J0D01*
G01*
X176903000Y-67361000D01*
G75*
G02*
X177053000Y-67511000I0J-150000D01*
G01*
X177053000Y-67961000D01*
G75*
G02*
X176903000Y-68111000I-150000J0D01*
G01*
X175453000Y-68111000D01*
G75*
G02*
X175303000Y-67961000I0J150000D01*
G01*
G37*
G36*
G01*
X175303000Y-67311000D02*
X175303000Y-66861000D01*
G75*
G02*
X175453000Y-66711000I150000J0D01*
G01*
X176903000Y-66711000D01*
G75*
G02*
X177053000Y-66861000I0J-150000D01*
G01*
X177053000Y-67311000D01*
G75*
G02*
X176903000Y-67461000I-150000J0D01*
G01*
X175453000Y-67461000D01*
G75*
G02*
X175303000Y-67311000I0J150000D01*
G01*
G37*
G36*
G01*
X175303000Y-66661000D02*
X175303000Y-66211000D01*
G75*
G02*
X175453000Y-66061000I150000J0D01*
G01*
X176903000Y-66061000D01*
G75*
G02*
X177053000Y-66211000I0J-150000D01*
G01*
X177053000Y-66661000D01*
G75*
G02*
X176903000Y-66811000I-150000J0D01*
G01*
X175453000Y-66811000D01*
G75*
G02*
X175303000Y-66661000I0J150000D01*
G01*
G37*
G36*
G01*
X175303000Y-66011000D02*
X175303000Y-65561000D01*
G75*
G02*
X175453000Y-65411000I150000J0D01*
G01*
X176903000Y-65411000D01*
G75*
G02*
X177053000Y-65561000I0J-150000D01*
G01*
X177053000Y-66011000D01*
G75*
G02*
X176903000Y-66161000I-150000J0D01*
G01*
X175453000Y-66161000D01*
G75*
G02*
X175303000Y-66011000I0J150000D01*
G01*
G37*
G36*
G01*
X175303000Y-65361000D02*
X175303000Y-64911000D01*
G75*
G02*
X175453000Y-64761000I150000J0D01*
G01*
X176903000Y-64761000D01*
G75*
G02*
X177053000Y-64911000I0J-150000D01*
G01*
X177053000Y-65361000D01*
G75*
G02*
X176903000Y-65511000I-150000J0D01*
G01*
X175453000Y-65511000D01*
G75*
G02*
X175303000Y-65361000I0J150000D01*
G01*
G37*
G36*
G01*
X175303000Y-64711000D02*
X175303000Y-64261000D01*
G75*
G02*
X175453000Y-64111000I150000J0D01*
G01*
X176903000Y-64111000D01*
G75*
G02*
X177053000Y-64261000I0J-150000D01*
G01*
X177053000Y-64711000D01*
G75*
G02*
X176903000Y-64861000I-150000J0D01*
G01*
X175453000Y-64861000D01*
G75*
G02*
X175303000Y-64711000I0J150000D01*
G01*
G37*
G36*
G01*
X175303000Y-64061000D02*
X175303000Y-63611000D01*
G75*
G02*
X175453000Y-63461000I150000J0D01*
G01*
X176903000Y-63461000D01*
G75*
G02*
X177053000Y-63611000I0J-150000D01*
G01*
X177053000Y-64061000D01*
G75*
G02*
X176903000Y-64211000I-150000J0D01*
G01*
X175453000Y-64211000D01*
G75*
G02*
X175303000Y-64061000I0J150000D01*
G01*
G37*
G36*
G01*
X187368000Y-75151000D02*
X187368000Y-74701000D01*
G75*
G02*
X187518000Y-74551000I150000J0D01*
G01*
X188968000Y-74551000D01*
G75*
G02*
X189118000Y-74701000I0J-150000D01*
G01*
X189118000Y-75151000D01*
G75*
G02*
X188968000Y-75301000I-150000J0D01*
G01*
X187518000Y-75301000D01*
G75*
G02*
X187368000Y-75151000I0J150000D01*
G01*
G37*
G36*
G01*
X187368000Y-75801000D02*
X187368000Y-75351000D01*
G75*
G02*
X187518000Y-75201000I150000J0D01*
G01*
X188968000Y-75201000D01*
G75*
G02*
X189118000Y-75351000I0J-150000D01*
G01*
X189118000Y-75801000D01*
G75*
G02*
X188968000Y-75951000I-150000J0D01*
G01*
X187518000Y-75951000D01*
G75*
G02*
X187368000Y-75801000I0J150000D01*
G01*
G37*
G36*
G01*
X187368000Y-76451000D02*
X187368000Y-76001000D01*
G75*
G02*
X187518000Y-75851000I150000J0D01*
G01*
X188968000Y-75851000D01*
G75*
G02*
X189118000Y-76001000I0J-150000D01*
G01*
X189118000Y-76451000D01*
G75*
G02*
X188968000Y-76601000I-150000J0D01*
G01*
X187518000Y-76601000D01*
G75*
G02*
X187368000Y-76451000I0J150000D01*
G01*
G37*
G36*
G01*
X187368000Y-77101000D02*
X187368000Y-76651000D01*
G75*
G02*
X187518000Y-76501000I150000J0D01*
G01*
X188968000Y-76501000D01*
G75*
G02*
X189118000Y-76651000I0J-150000D01*
G01*
X189118000Y-77101000D01*
G75*
G02*
X188968000Y-77251000I-150000J0D01*
G01*
X187518000Y-77251000D01*
G75*
G02*
X187368000Y-77101000I0J150000D01*
G01*
G37*
G36*
G01*
X187368000Y-77751000D02*
X187368000Y-77301000D01*
G75*
G02*
X187518000Y-77151000I150000J0D01*
G01*
X188968000Y-77151000D01*
G75*
G02*
X189118000Y-77301000I0J-150000D01*
G01*
X189118000Y-77751000D01*
G75*
G02*
X188968000Y-77901000I-150000J0D01*
G01*
X187518000Y-77901000D01*
G75*
G02*
X187368000Y-77751000I0J150000D01*
G01*
G37*
G36*
G01*
X187368000Y-78401000D02*
X187368000Y-77951000D01*
G75*
G02*
X187518000Y-77801000I150000J0D01*
G01*
X188968000Y-77801000D01*
G75*
G02*
X189118000Y-77951000I0J-150000D01*
G01*
X189118000Y-78401000D01*
G75*
G02*
X188968000Y-78551000I-150000J0D01*
G01*
X187518000Y-78551000D01*
G75*
G02*
X187368000Y-78401000I0J150000D01*
G01*
G37*
G36*
G01*
X187368000Y-79051000D02*
X187368000Y-78601000D01*
G75*
G02*
X187518000Y-78451000I150000J0D01*
G01*
X188968000Y-78451000D01*
G75*
G02*
X189118000Y-78601000I0J-150000D01*
G01*
X189118000Y-79051000D01*
G75*
G02*
X188968000Y-79201000I-150000J0D01*
G01*
X187518000Y-79201000D01*
G75*
G02*
X187368000Y-79051000I0J150000D01*
G01*
G37*
G36*
G01*
X187368000Y-79701000D02*
X187368000Y-79251000D01*
G75*
G02*
X187518000Y-79101000I150000J0D01*
G01*
X188968000Y-79101000D01*
G75*
G02*
X189118000Y-79251000I0J-150000D01*
G01*
X189118000Y-79701000D01*
G75*
G02*
X188968000Y-79851000I-150000J0D01*
G01*
X187518000Y-79851000D01*
G75*
G02*
X187368000Y-79701000I0J150000D01*
G01*
G37*
G36*
G01*
X187368000Y-80351000D02*
X187368000Y-79901000D01*
G75*
G02*
X187518000Y-79751000I150000J0D01*
G01*
X188968000Y-79751000D01*
G75*
G02*
X189118000Y-79901000I0J-150000D01*
G01*
X189118000Y-80351000D01*
G75*
G02*
X188968000Y-80501000I-150000J0D01*
G01*
X187518000Y-80501000D01*
G75*
G02*
X187368000Y-80351000I0J150000D01*
G01*
G37*
G36*
G01*
X187368000Y-81001000D02*
X187368000Y-80551000D01*
G75*
G02*
X187518000Y-80401000I150000J0D01*
G01*
X188968000Y-80401000D01*
G75*
G02*
X189118000Y-80551000I0J-150000D01*
G01*
X189118000Y-81001000D01*
G75*
G02*
X188968000Y-81151000I-150000J0D01*
G01*
X187518000Y-81151000D01*
G75*
G02*
X187368000Y-81001000I0J150000D01*
G01*
G37*
G36*
G01*
X181468000Y-81001000D02*
X181468000Y-80551000D01*
G75*
G02*
X181618000Y-80401000I150000J0D01*
G01*
X183068000Y-80401000D01*
G75*
G02*
X183218000Y-80551000I0J-150000D01*
G01*
X183218000Y-81001000D01*
G75*
G02*
X183068000Y-81151000I-150000J0D01*
G01*
X181618000Y-81151000D01*
G75*
G02*
X181468000Y-81001000I0J150000D01*
G01*
G37*
G36*
G01*
X181468000Y-80351000D02*
X181468000Y-79901000D01*
G75*
G02*
X181618000Y-79751000I150000J0D01*
G01*
X183068000Y-79751000D01*
G75*
G02*
X183218000Y-79901000I0J-150000D01*
G01*
X183218000Y-80351000D01*
G75*
G02*
X183068000Y-80501000I-150000J0D01*
G01*
X181618000Y-80501000D01*
G75*
G02*
X181468000Y-80351000I0J150000D01*
G01*
G37*
G36*
G01*
X181468000Y-79701000D02*
X181468000Y-79251000D01*
G75*
G02*
X181618000Y-79101000I150000J0D01*
G01*
X183068000Y-79101000D01*
G75*
G02*
X183218000Y-79251000I0J-150000D01*
G01*
X183218000Y-79701000D01*
G75*
G02*
X183068000Y-79851000I-150000J0D01*
G01*
X181618000Y-79851000D01*
G75*
G02*
X181468000Y-79701000I0J150000D01*
G01*
G37*
G36*
G01*
X181468000Y-79051000D02*
X181468000Y-78601000D01*
G75*
G02*
X181618000Y-78451000I150000J0D01*
G01*
X183068000Y-78451000D01*
G75*
G02*
X183218000Y-78601000I0J-150000D01*
G01*
X183218000Y-79051000D01*
G75*
G02*
X183068000Y-79201000I-150000J0D01*
G01*
X181618000Y-79201000D01*
G75*
G02*
X181468000Y-79051000I0J150000D01*
G01*
G37*
G36*
G01*
X181468000Y-78401000D02*
X181468000Y-77951000D01*
G75*
G02*
X181618000Y-77801000I150000J0D01*
G01*
X183068000Y-77801000D01*
G75*
G02*
X183218000Y-77951000I0J-150000D01*
G01*
X183218000Y-78401000D01*
G75*
G02*
X183068000Y-78551000I-150000J0D01*
G01*
X181618000Y-78551000D01*
G75*
G02*
X181468000Y-78401000I0J150000D01*
G01*
G37*
G36*
G01*
X181468000Y-77751000D02*
X181468000Y-77301000D01*
G75*
G02*
X181618000Y-77151000I150000J0D01*
G01*
X183068000Y-77151000D01*
G75*
G02*
X183218000Y-77301000I0J-150000D01*
G01*
X183218000Y-77751000D01*
G75*
G02*
X183068000Y-77901000I-150000J0D01*
G01*
X181618000Y-77901000D01*
G75*
G02*
X181468000Y-77751000I0J150000D01*
G01*
G37*
G36*
G01*
X181468000Y-77101000D02*
X181468000Y-76651000D01*
G75*
G02*
X181618000Y-76501000I150000J0D01*
G01*
X183068000Y-76501000D01*
G75*
G02*
X183218000Y-76651000I0J-150000D01*
G01*
X183218000Y-77101000D01*
G75*
G02*
X183068000Y-77251000I-150000J0D01*
G01*
X181618000Y-77251000D01*
G75*
G02*
X181468000Y-77101000I0J150000D01*
G01*
G37*
G36*
G01*
X181468000Y-76451000D02*
X181468000Y-76001000D01*
G75*
G02*
X181618000Y-75851000I150000J0D01*
G01*
X183068000Y-75851000D01*
G75*
G02*
X183218000Y-76001000I0J-150000D01*
G01*
X183218000Y-76451000D01*
G75*
G02*
X183068000Y-76601000I-150000J0D01*
G01*
X181618000Y-76601000D01*
G75*
G02*
X181468000Y-76451000I0J150000D01*
G01*
G37*
G36*
G01*
X181468000Y-75801000D02*
X181468000Y-75351000D01*
G75*
G02*
X181618000Y-75201000I150000J0D01*
G01*
X183068000Y-75201000D01*
G75*
G02*
X183218000Y-75351000I0J-150000D01*
G01*
X183218000Y-75801000D01*
G75*
G02*
X183068000Y-75951000I-150000J0D01*
G01*
X181618000Y-75951000D01*
G75*
G02*
X181468000Y-75801000I0J150000D01*
G01*
G37*
G36*
G01*
X181468000Y-75151000D02*
X181468000Y-74701000D01*
G75*
G02*
X181618000Y-74551000I150000J0D01*
G01*
X183068000Y-74551000D01*
G75*
G02*
X183218000Y-74701000I0J-150000D01*
G01*
X183218000Y-75151000D01*
G75*
G02*
X183068000Y-75301000I-150000J0D01*
G01*
X181618000Y-75301000D01*
G75*
G02*
X181468000Y-75151000I0J150000D01*
G01*
G37*
G36*
G01*
X181468000Y-63086000D02*
X181468000Y-62636000D01*
G75*
G02*
X181618000Y-62486000I150000J0D01*
G01*
X183068000Y-62486000D01*
G75*
G02*
X183218000Y-62636000I0J-150000D01*
G01*
X183218000Y-63086000D01*
G75*
G02*
X183068000Y-63236000I-150000J0D01*
G01*
X181618000Y-63236000D01*
G75*
G02*
X181468000Y-63086000I0J150000D01*
G01*
G37*
G36*
G01*
X181468000Y-63736000D02*
X181468000Y-63286000D01*
G75*
G02*
X181618000Y-63136000I150000J0D01*
G01*
X183068000Y-63136000D01*
G75*
G02*
X183218000Y-63286000I0J-150000D01*
G01*
X183218000Y-63736000D01*
G75*
G02*
X183068000Y-63886000I-150000J0D01*
G01*
X181618000Y-63886000D01*
G75*
G02*
X181468000Y-63736000I0J150000D01*
G01*
G37*
G36*
G01*
X181468000Y-64386000D02*
X181468000Y-63936000D01*
G75*
G02*
X181618000Y-63786000I150000J0D01*
G01*
X183068000Y-63786000D01*
G75*
G02*
X183218000Y-63936000I0J-150000D01*
G01*
X183218000Y-64386000D01*
G75*
G02*
X183068000Y-64536000I-150000J0D01*
G01*
X181618000Y-64536000D01*
G75*
G02*
X181468000Y-64386000I0J150000D01*
G01*
G37*
G36*
G01*
X181468000Y-65036000D02*
X181468000Y-64586000D01*
G75*
G02*
X181618000Y-64436000I150000J0D01*
G01*
X183068000Y-64436000D01*
G75*
G02*
X183218000Y-64586000I0J-150000D01*
G01*
X183218000Y-65036000D01*
G75*
G02*
X183068000Y-65186000I-150000J0D01*
G01*
X181618000Y-65186000D01*
G75*
G02*
X181468000Y-65036000I0J150000D01*
G01*
G37*
G36*
G01*
X181468000Y-65686000D02*
X181468000Y-65236000D01*
G75*
G02*
X181618000Y-65086000I150000J0D01*
G01*
X183068000Y-65086000D01*
G75*
G02*
X183218000Y-65236000I0J-150000D01*
G01*
X183218000Y-65686000D01*
G75*
G02*
X183068000Y-65836000I-150000J0D01*
G01*
X181618000Y-65836000D01*
G75*
G02*
X181468000Y-65686000I0J150000D01*
G01*
G37*
G36*
G01*
X181468000Y-66336000D02*
X181468000Y-65886000D01*
G75*
G02*
X181618000Y-65736000I150000J0D01*
G01*
X183068000Y-65736000D01*
G75*
G02*
X183218000Y-65886000I0J-150000D01*
G01*
X183218000Y-66336000D01*
G75*
G02*
X183068000Y-66486000I-150000J0D01*
G01*
X181618000Y-66486000D01*
G75*
G02*
X181468000Y-66336000I0J150000D01*
G01*
G37*
G36*
G01*
X181468000Y-66986000D02*
X181468000Y-66536000D01*
G75*
G02*
X181618000Y-66386000I150000J0D01*
G01*
X183068000Y-66386000D01*
G75*
G02*
X183218000Y-66536000I0J-150000D01*
G01*
X183218000Y-66986000D01*
G75*
G02*
X183068000Y-67136000I-150000J0D01*
G01*
X181618000Y-67136000D01*
G75*
G02*
X181468000Y-66986000I0J150000D01*
G01*
G37*
G36*
G01*
X181468000Y-67636000D02*
X181468000Y-67186000D01*
G75*
G02*
X181618000Y-67036000I150000J0D01*
G01*
X183068000Y-67036000D01*
G75*
G02*
X183218000Y-67186000I0J-150000D01*
G01*
X183218000Y-67636000D01*
G75*
G02*
X183068000Y-67786000I-150000J0D01*
G01*
X181618000Y-67786000D01*
G75*
G02*
X181468000Y-67636000I0J150000D01*
G01*
G37*
G36*
G01*
X181468000Y-68286000D02*
X181468000Y-67836000D01*
G75*
G02*
X181618000Y-67686000I150000J0D01*
G01*
X183068000Y-67686000D01*
G75*
G02*
X183218000Y-67836000I0J-150000D01*
G01*
X183218000Y-68286000D01*
G75*
G02*
X183068000Y-68436000I-150000J0D01*
G01*
X181618000Y-68436000D01*
G75*
G02*
X181468000Y-68286000I0J150000D01*
G01*
G37*
G36*
G01*
X181468000Y-68936000D02*
X181468000Y-68486000D01*
G75*
G02*
X181618000Y-68336000I150000J0D01*
G01*
X183068000Y-68336000D01*
G75*
G02*
X183218000Y-68486000I0J-150000D01*
G01*
X183218000Y-68936000D01*
G75*
G02*
X183068000Y-69086000I-150000J0D01*
G01*
X181618000Y-69086000D01*
G75*
G02*
X181468000Y-68936000I0J150000D01*
G01*
G37*
G36*
G01*
X187368000Y-68936000D02*
X187368000Y-68486000D01*
G75*
G02*
X187518000Y-68336000I150000J0D01*
G01*
X188968000Y-68336000D01*
G75*
G02*
X189118000Y-68486000I0J-150000D01*
G01*
X189118000Y-68936000D01*
G75*
G02*
X188968000Y-69086000I-150000J0D01*
G01*
X187518000Y-69086000D01*
G75*
G02*
X187368000Y-68936000I0J150000D01*
G01*
G37*
G36*
G01*
X187368000Y-68286000D02*
X187368000Y-67836000D01*
G75*
G02*
X187518000Y-67686000I150000J0D01*
G01*
X188968000Y-67686000D01*
G75*
G02*
X189118000Y-67836000I0J-150000D01*
G01*
X189118000Y-68286000D01*
G75*
G02*
X188968000Y-68436000I-150000J0D01*
G01*
X187518000Y-68436000D01*
G75*
G02*
X187368000Y-68286000I0J150000D01*
G01*
G37*
G36*
G01*
X187368000Y-67636000D02*
X187368000Y-67186000D01*
G75*
G02*
X187518000Y-67036000I150000J0D01*
G01*
X188968000Y-67036000D01*
G75*
G02*
X189118000Y-67186000I0J-150000D01*
G01*
X189118000Y-67636000D01*
G75*
G02*
X188968000Y-67786000I-150000J0D01*
G01*
X187518000Y-67786000D01*
G75*
G02*
X187368000Y-67636000I0J150000D01*
G01*
G37*
G36*
G01*
X187368000Y-66986000D02*
X187368000Y-66536000D01*
G75*
G02*
X187518000Y-66386000I150000J0D01*
G01*
X188968000Y-66386000D01*
G75*
G02*
X189118000Y-66536000I0J-150000D01*
G01*
X189118000Y-66986000D01*
G75*
G02*
X188968000Y-67136000I-150000J0D01*
G01*
X187518000Y-67136000D01*
G75*
G02*
X187368000Y-66986000I0J150000D01*
G01*
G37*
G36*
G01*
X187368000Y-66336000D02*
X187368000Y-65886000D01*
G75*
G02*
X187518000Y-65736000I150000J0D01*
G01*
X188968000Y-65736000D01*
G75*
G02*
X189118000Y-65886000I0J-150000D01*
G01*
X189118000Y-66336000D01*
G75*
G02*
X188968000Y-66486000I-150000J0D01*
G01*
X187518000Y-66486000D01*
G75*
G02*
X187368000Y-66336000I0J150000D01*
G01*
G37*
G36*
G01*
X187368000Y-65686000D02*
X187368000Y-65236000D01*
G75*
G02*
X187518000Y-65086000I150000J0D01*
G01*
X188968000Y-65086000D01*
G75*
G02*
X189118000Y-65236000I0J-150000D01*
G01*
X189118000Y-65686000D01*
G75*
G02*
X188968000Y-65836000I-150000J0D01*
G01*
X187518000Y-65836000D01*
G75*
G02*
X187368000Y-65686000I0J150000D01*
G01*
G37*
G36*
G01*
X187368000Y-65036000D02*
X187368000Y-64586000D01*
G75*
G02*
X187518000Y-64436000I150000J0D01*
G01*
X188968000Y-64436000D01*
G75*
G02*
X189118000Y-64586000I0J-150000D01*
G01*
X189118000Y-65036000D01*
G75*
G02*
X188968000Y-65186000I-150000J0D01*
G01*
X187518000Y-65186000D01*
G75*
G02*
X187368000Y-65036000I0J150000D01*
G01*
G37*
G36*
G01*
X187368000Y-64386000D02*
X187368000Y-63936000D01*
G75*
G02*
X187518000Y-63786000I150000J0D01*
G01*
X188968000Y-63786000D01*
G75*
G02*
X189118000Y-63936000I0J-150000D01*
G01*
X189118000Y-64386000D01*
G75*
G02*
X188968000Y-64536000I-150000J0D01*
G01*
X187518000Y-64536000D01*
G75*
G02*
X187368000Y-64386000I0J150000D01*
G01*
G37*
G36*
G01*
X187368000Y-63736000D02*
X187368000Y-63286000D01*
G75*
G02*
X187518000Y-63136000I150000J0D01*
G01*
X188968000Y-63136000D01*
G75*
G02*
X189118000Y-63286000I0J-150000D01*
G01*
X189118000Y-63736000D01*
G75*
G02*
X188968000Y-63886000I-150000J0D01*
G01*
X187518000Y-63886000D01*
G75*
G02*
X187368000Y-63736000I0J150000D01*
G01*
G37*
G36*
G01*
X187368000Y-63086000D02*
X187368000Y-62636000D01*
G75*
G02*
X187518000Y-62486000I150000J0D01*
G01*
X188968000Y-62486000D01*
G75*
G02*
X189118000Y-62636000I0J-150000D01*
G01*
X189118000Y-63086000D01*
G75*
G02*
X188968000Y-63236000I-150000J0D01*
G01*
X187518000Y-63236000D01*
G75*
G02*
X187368000Y-63086000I0J150000D01*
G01*
G37*
G36*
G01*
X206983216Y-32159000D02*
X208052784Y-32159000D01*
G75*
G02*
X208368000Y-32474216I0J-315216D01*
G01*
X208368000Y-33293784D01*
G75*
G02*
X208052784Y-33609000I-315216J0D01*
G01*
X206983216Y-33609000D01*
G75*
G02*
X206668000Y-33293784I0J315216D01*
G01*
X206668000Y-32474216D01*
G75*
G02*
X206983216Y-32159000I315216J0D01*
G01*
G37*
G36*
G01*
X206983216Y-34209000D02*
X208052784Y-34209000D01*
G75*
G02*
X208368000Y-34524216I0J-315216D01*
G01*
X208368000Y-35343784D01*
G75*
G02*
X208052784Y-35659000I-315216J0D01*
G01*
X206983216Y-35659000D01*
G75*
G02*
X206668000Y-35343784I0J315216D01*
G01*
X206668000Y-34524216D01*
G75*
G02*
X206983216Y-34209000I315216J0D01*
G01*
G37*
G36*
G01*
X205895000Y-46381784D02*
X205895000Y-45312216D01*
G75*
G02*
X206210216Y-44997000I315216J0D01*
G01*
X207029784Y-44997000D01*
G75*
G02*
X207345000Y-45312216I0J-315216D01*
G01*
X207345000Y-46381784D01*
G75*
G02*
X207029784Y-46697000I-315216J0D01*
G01*
X206210216Y-46697000D01*
G75*
G02*
X205895000Y-46381784I0J315216D01*
G01*
G37*
G36*
G01*
X207945000Y-46381784D02*
X207945000Y-45312216D01*
G75*
G02*
X208260216Y-44997000I315216J0D01*
G01*
X209079784Y-44997000D01*
G75*
G02*
X209395000Y-45312216I0J-315216D01*
G01*
X209395000Y-46381784D01*
G75*
G02*
X209079784Y-46697000I-315216J0D01*
G01*
X208260216Y-46697000D01*
G75*
G02*
X207945000Y-46381784I0J315216D01*
G01*
G37*
G36*
G01*
X162903000Y-57216000D02*
X164503000Y-57216000D01*
G75*
G02*
X164653000Y-57366000I0J-150000D01*
G01*
X164653000Y-58966000D01*
G75*
G02*
X164503000Y-59116000I-150000J0D01*
G01*
X162903000Y-59116000D01*
G75*
G02*
X162753000Y-58966000I0J150000D01*
G01*
X162753000Y-57366000D01*
G75*
G02*
X162903000Y-57216000I150000J0D01*
G01*
G37*
D11*
X135763000Y-73406000D03*
X161163000Y-58166000D03*
X138303000Y-73406000D03*
X158623000Y-58166000D03*
X140843000Y-73406000D03*
X156083000Y-58166000D03*
X143383000Y-73406000D03*
X153543000Y-58166000D03*
X145923000Y-73406000D03*
X151003000Y-58166000D03*
X148463000Y-73406000D03*
X148463000Y-58166000D03*
X151003000Y-73406000D03*
X145923000Y-58166000D03*
X153543000Y-73406000D03*
X143383000Y-58166000D03*
X156083000Y-73406000D03*
X140843000Y-58166000D03*
X158623000Y-73406000D03*
X138303000Y-58166000D03*
X161163000Y-73406000D03*
X135763000Y-58166000D03*
X163703000Y-73406000D03*
D12*
X133223000Y-58166000D03*
D11*
X105283000Y-73406000D03*
X130683000Y-58166000D03*
X107823000Y-73406000D03*
X128143000Y-58166000D03*
X110363000Y-73406000D03*
X125603000Y-58166000D03*
X112903000Y-73406000D03*
X123063000Y-58166000D03*
X115443000Y-73406000D03*
X120523000Y-58166000D03*
X117983000Y-73406000D03*
X117983000Y-58166000D03*
X120523000Y-73406000D03*
X115443000Y-58166000D03*
X123063000Y-73406000D03*
X112903000Y-58166000D03*
X125603000Y-73406000D03*
X110363000Y-58166000D03*
X128143000Y-73406000D03*
X107823000Y-58166000D03*
X130683000Y-73406000D03*
X105283000Y-58166000D03*
X133223000Y-73406000D03*
M02*
