G04 #@! TF.GenerationSoftware,KiCad,Pcbnew,(5.1.9)-1*
G04 #@! TF.CreationDate,2021-04-27T19:19:42+01:00*
G04 #@! TF.ProjectId,RGBtoHDMI Amiga Denise - v2++ Rev 2 by solarmon,52474274-6f48-4444-9d49-20416d696761,v2++ Rev 2*
G04 #@! TF.SameCoordinates,Original*
G04 #@! TF.FileFunction,Legend,Top*
G04 #@! TF.FilePolarity,Positive*
%FSLAX46Y46*%
G04 Gerber Fmt 4.6, Leading zero omitted, Abs format (unit mm)*
G04 Created by KiCad (PCBNEW (5.1.9)-1) date 2021-04-27 19:19:42*
%MOMM*%
%LPD*%
G01*
G04 APERTURE LIST*
%ADD10C,0.150000*%
%ADD11C,0.400000*%
%ADD12C,0.120000*%
%ADD13C,0.100000*%
%ADD14C,0.125000*%
G04 APERTURE END LIST*
D10*
X175691857Y-85425000D02*
X175634714Y-85396428D01*
X175549000Y-85396428D01*
X175463285Y-85425000D01*
X175406142Y-85482142D01*
X175377571Y-85539285D01*
X175349000Y-85653571D01*
X175349000Y-85739285D01*
X175377571Y-85853571D01*
X175406142Y-85910714D01*
X175463285Y-85967857D01*
X175549000Y-85996428D01*
X175606142Y-85996428D01*
X175691857Y-85967857D01*
X175720428Y-85939285D01*
X175720428Y-85739285D01*
X175606142Y-85739285D01*
X175977571Y-85996428D02*
X175977571Y-85396428D01*
X176320428Y-85996428D01*
X176320428Y-85396428D01*
X176606142Y-85996428D02*
X176606142Y-85396428D01*
X176749000Y-85396428D01*
X176834714Y-85425000D01*
X176891857Y-85482142D01*
X176920428Y-85539285D01*
X176949000Y-85653571D01*
X176949000Y-85739285D01*
X176920428Y-85853571D01*
X176891857Y-85910714D01*
X176834714Y-85967857D01*
X176749000Y-85996428D01*
X176606142Y-85996428D01*
X175250571Y-83227857D02*
X175707714Y-83227857D01*
X175479142Y-83456428D02*
X175479142Y-82999285D01*
X176279142Y-82856428D02*
X175993428Y-82856428D01*
X175964857Y-83142142D01*
X175993428Y-83113571D01*
X176050571Y-83085000D01*
X176193428Y-83085000D01*
X176250571Y-83113571D01*
X176279142Y-83142142D01*
X176307714Y-83199285D01*
X176307714Y-83342142D01*
X176279142Y-83399285D01*
X176250571Y-83427857D01*
X176193428Y-83456428D01*
X176050571Y-83456428D01*
X175993428Y-83427857D01*
X175964857Y-83399285D01*
X176479142Y-82856428D02*
X176679142Y-83456428D01*
X176879142Y-82856428D01*
X175423571Y-80602142D02*
X175509285Y-80630714D01*
X175537857Y-80659285D01*
X175566428Y-80716428D01*
X175566428Y-80802142D01*
X175537857Y-80859285D01*
X175509285Y-80887857D01*
X175452142Y-80916428D01*
X175223571Y-80916428D01*
X175223571Y-80316428D01*
X175423571Y-80316428D01*
X175480714Y-80345000D01*
X175509285Y-80373571D01*
X175537857Y-80430714D01*
X175537857Y-80487857D01*
X175509285Y-80545000D01*
X175480714Y-80573571D01*
X175423571Y-80602142D01*
X175223571Y-80602142D01*
X176080714Y-80516428D02*
X176080714Y-80916428D01*
X175823571Y-80516428D02*
X175823571Y-80830714D01*
X175852142Y-80887857D01*
X175909285Y-80916428D01*
X175995000Y-80916428D01*
X176052142Y-80887857D01*
X176080714Y-80859285D01*
X176280714Y-80516428D02*
X176509285Y-80516428D01*
X176366428Y-80916428D02*
X176366428Y-80402142D01*
X176395000Y-80345000D01*
X176452142Y-80316428D01*
X176509285Y-80316428D01*
X176623571Y-80516428D02*
X176852142Y-80516428D01*
X176709285Y-80916428D02*
X176709285Y-80402142D01*
X176737857Y-80345000D01*
X176795000Y-80316428D01*
X176852142Y-80316428D01*
X177280714Y-80887857D02*
X177223571Y-80916428D01*
X177109285Y-80916428D01*
X177052142Y-80887857D01*
X177023571Y-80830714D01*
X177023571Y-80602142D01*
X177052142Y-80545000D01*
X177109285Y-80516428D01*
X177223571Y-80516428D01*
X177280714Y-80545000D01*
X177309285Y-80602142D01*
X177309285Y-80659285D01*
X177023571Y-80716428D01*
X177566428Y-80916428D02*
X177566428Y-80516428D01*
X177566428Y-80630714D02*
X177595000Y-80573571D01*
X177623571Y-80545000D01*
X177680714Y-80516428D01*
X177737857Y-80516428D01*
X178166428Y-80887857D02*
X178109285Y-80916428D01*
X177995000Y-80916428D01*
X177937857Y-80887857D01*
X177909285Y-80830714D01*
X177909285Y-80602142D01*
X177937857Y-80545000D01*
X177995000Y-80516428D01*
X178109285Y-80516428D01*
X178166428Y-80545000D01*
X178195000Y-80602142D01*
X178195000Y-80659285D01*
X177909285Y-80716428D01*
X178709285Y-80916428D02*
X178709285Y-80316428D01*
X178709285Y-80887857D02*
X178652142Y-80916428D01*
X178537857Y-80916428D01*
X178480714Y-80887857D01*
X178452142Y-80859285D01*
X178423571Y-80802142D01*
X178423571Y-80630714D01*
X178452142Y-80573571D01*
X178480714Y-80545000D01*
X178537857Y-80516428D01*
X178652142Y-80516428D01*
X178709285Y-80545000D01*
X179452142Y-80916428D02*
X179452142Y-80316428D01*
X179595000Y-80316428D01*
X179680714Y-80345000D01*
X179737857Y-80402142D01*
X179766428Y-80459285D01*
X179795000Y-80573571D01*
X179795000Y-80659285D01*
X179766428Y-80773571D01*
X179737857Y-80830714D01*
X179680714Y-80887857D01*
X179595000Y-80916428D01*
X179452142Y-80916428D01*
X180052142Y-80916428D02*
X180052142Y-80516428D01*
X180052142Y-80316428D02*
X180023571Y-80345000D01*
X180052142Y-80373571D01*
X180080714Y-80345000D01*
X180052142Y-80316428D01*
X180052142Y-80373571D01*
X180309285Y-80887857D02*
X180366428Y-80916428D01*
X180480714Y-80916428D01*
X180537857Y-80887857D01*
X180566428Y-80830714D01*
X180566428Y-80802142D01*
X180537857Y-80745000D01*
X180480714Y-80716428D01*
X180395000Y-80716428D01*
X180337857Y-80687857D01*
X180309285Y-80630714D01*
X180309285Y-80602142D01*
X180337857Y-80545000D01*
X180395000Y-80516428D01*
X180480714Y-80516428D01*
X180537857Y-80545000D01*
X180823571Y-80516428D02*
X180823571Y-81116428D01*
X180823571Y-80545000D02*
X180880714Y-80516428D01*
X180995000Y-80516428D01*
X181052142Y-80545000D01*
X181080714Y-80573571D01*
X181109285Y-80630714D01*
X181109285Y-80802142D01*
X181080714Y-80859285D01*
X181052142Y-80887857D01*
X180995000Y-80916428D01*
X180880714Y-80916428D01*
X180823571Y-80887857D01*
X181452142Y-80916428D02*
X181395000Y-80887857D01*
X181366428Y-80830714D01*
X181366428Y-80316428D01*
X181937857Y-80916428D02*
X181937857Y-80602142D01*
X181909285Y-80545000D01*
X181852142Y-80516428D01*
X181737857Y-80516428D01*
X181680714Y-80545000D01*
X181937857Y-80887857D02*
X181880714Y-80916428D01*
X181737857Y-80916428D01*
X181680714Y-80887857D01*
X181652142Y-80830714D01*
X181652142Y-80773571D01*
X181680714Y-80716428D01*
X181737857Y-80687857D01*
X181880714Y-80687857D01*
X181937857Y-80659285D01*
X182166428Y-80516428D02*
X182309285Y-80916428D01*
X182452142Y-80516428D02*
X182309285Y-80916428D01*
X182252142Y-81059285D01*
X182223571Y-81087857D01*
X182166428Y-81116428D01*
X183252142Y-80316428D02*
X183366428Y-80316428D01*
X183423571Y-80345000D01*
X183480714Y-80402142D01*
X183509285Y-80516428D01*
X183509285Y-80716428D01*
X183480714Y-80830714D01*
X183423571Y-80887857D01*
X183366428Y-80916428D01*
X183252142Y-80916428D01*
X183195000Y-80887857D01*
X183137857Y-80830714D01*
X183109285Y-80716428D01*
X183109285Y-80516428D01*
X183137857Y-80402142D01*
X183195000Y-80345000D01*
X183252142Y-80316428D01*
X184023571Y-80516428D02*
X184023571Y-80916428D01*
X183766428Y-80516428D02*
X183766428Y-80830714D01*
X183795000Y-80887857D01*
X183852142Y-80916428D01*
X183937857Y-80916428D01*
X183995000Y-80887857D01*
X184023571Y-80859285D01*
X184223571Y-80516428D02*
X184452142Y-80516428D01*
X184309285Y-80316428D02*
X184309285Y-80830714D01*
X184337857Y-80887857D01*
X184395000Y-80916428D01*
X184452142Y-80916428D01*
X184652142Y-80516428D02*
X184652142Y-81116428D01*
X184652142Y-80545000D02*
X184709285Y-80516428D01*
X184823571Y-80516428D01*
X184880714Y-80545000D01*
X184909285Y-80573571D01*
X184937857Y-80630714D01*
X184937857Y-80802142D01*
X184909285Y-80859285D01*
X184880714Y-80887857D01*
X184823571Y-80916428D01*
X184709285Y-80916428D01*
X184652142Y-80887857D01*
X185452142Y-80516428D02*
X185452142Y-80916428D01*
X185195000Y-80516428D02*
X185195000Y-80830714D01*
X185223571Y-80887857D01*
X185280714Y-80916428D01*
X185366428Y-80916428D01*
X185423571Y-80887857D01*
X185452142Y-80859285D01*
X185652142Y-80516428D02*
X185880714Y-80516428D01*
X185737857Y-80316428D02*
X185737857Y-80830714D01*
X185766428Y-80887857D01*
X185823571Y-80916428D01*
X185880714Y-80916428D01*
X186709285Y-81145000D02*
X186680714Y-81116428D01*
X186623571Y-81030714D01*
X186595000Y-80973571D01*
X186566428Y-80887857D01*
X186537857Y-80745000D01*
X186537857Y-80630714D01*
X186566428Y-80487857D01*
X186595000Y-80402142D01*
X186623571Y-80345000D01*
X186680714Y-80259285D01*
X186709285Y-80230714D01*
X186852142Y-80316428D02*
X187195000Y-80316428D01*
X187023571Y-80916428D02*
X187023571Y-80316428D01*
X187480714Y-80916428D02*
X187423571Y-80887857D01*
X187395000Y-80859285D01*
X187366428Y-80802142D01*
X187366428Y-80630714D01*
X187395000Y-80573571D01*
X187423571Y-80545000D01*
X187480714Y-80516428D01*
X187566428Y-80516428D01*
X187623571Y-80545000D01*
X187652142Y-80573571D01*
X187680714Y-80630714D01*
X187680714Y-80802142D01*
X187652142Y-80859285D01*
X187623571Y-80887857D01*
X187566428Y-80916428D01*
X187480714Y-80916428D01*
X188366428Y-80745000D02*
X188652142Y-80745000D01*
X188309285Y-80916428D02*
X188509285Y-80316428D01*
X188709285Y-80916428D01*
X188909285Y-80916428D02*
X188909285Y-80516428D01*
X188909285Y-80573571D02*
X188937857Y-80545000D01*
X188995000Y-80516428D01*
X189080714Y-80516428D01*
X189137857Y-80545000D01*
X189166428Y-80602142D01*
X189166428Y-80916428D01*
X189166428Y-80602142D02*
X189195000Y-80545000D01*
X189252142Y-80516428D01*
X189337857Y-80516428D01*
X189395000Y-80545000D01*
X189423571Y-80602142D01*
X189423571Y-80916428D01*
X189709285Y-80916428D02*
X189709285Y-80516428D01*
X189709285Y-80316428D02*
X189680714Y-80345000D01*
X189709285Y-80373571D01*
X189737857Y-80345000D01*
X189709285Y-80316428D01*
X189709285Y-80373571D01*
X190252142Y-80516428D02*
X190252142Y-81002142D01*
X190223571Y-81059285D01*
X190195000Y-81087857D01*
X190137857Y-81116428D01*
X190052142Y-81116428D01*
X189995000Y-81087857D01*
X190252142Y-80887857D02*
X190195000Y-80916428D01*
X190080714Y-80916428D01*
X190023571Y-80887857D01*
X189995000Y-80859285D01*
X189966428Y-80802142D01*
X189966428Y-80630714D01*
X189995000Y-80573571D01*
X190023571Y-80545000D01*
X190080714Y-80516428D01*
X190195000Y-80516428D01*
X190252142Y-80545000D01*
X190795000Y-80916428D02*
X190795000Y-80602142D01*
X190766428Y-80545000D01*
X190709285Y-80516428D01*
X190595000Y-80516428D01*
X190537857Y-80545000D01*
X190795000Y-80887857D02*
X190737857Y-80916428D01*
X190595000Y-80916428D01*
X190537857Y-80887857D01*
X190509285Y-80830714D01*
X190509285Y-80773571D01*
X190537857Y-80716428D01*
X190595000Y-80687857D01*
X190737857Y-80687857D01*
X190795000Y-80659285D01*
X191795000Y-80916428D02*
X191795000Y-80602142D01*
X191766428Y-80545000D01*
X191709285Y-80516428D01*
X191595000Y-80516428D01*
X191537857Y-80545000D01*
X191795000Y-80887857D02*
X191737857Y-80916428D01*
X191595000Y-80916428D01*
X191537857Y-80887857D01*
X191509285Y-80830714D01*
X191509285Y-80773571D01*
X191537857Y-80716428D01*
X191595000Y-80687857D01*
X191737857Y-80687857D01*
X191795000Y-80659285D01*
X192080714Y-80516428D02*
X192080714Y-80916428D01*
X192080714Y-80573571D02*
X192109285Y-80545000D01*
X192166428Y-80516428D01*
X192252142Y-80516428D01*
X192309285Y-80545000D01*
X192337857Y-80602142D01*
X192337857Y-80916428D01*
X192880714Y-80916428D02*
X192880714Y-80602142D01*
X192852142Y-80545000D01*
X192795000Y-80516428D01*
X192680714Y-80516428D01*
X192623571Y-80545000D01*
X192880714Y-80887857D02*
X192823571Y-80916428D01*
X192680714Y-80916428D01*
X192623571Y-80887857D01*
X192595000Y-80830714D01*
X192595000Y-80773571D01*
X192623571Y-80716428D01*
X192680714Y-80687857D01*
X192823571Y-80687857D01*
X192880714Y-80659285D01*
X193252142Y-80916428D02*
X193195000Y-80887857D01*
X193166428Y-80830714D01*
X193166428Y-80316428D01*
X193566428Y-80916428D02*
X193509285Y-80887857D01*
X193480714Y-80859285D01*
X193452142Y-80802142D01*
X193452142Y-80630714D01*
X193480714Y-80573571D01*
X193509285Y-80545000D01*
X193566428Y-80516428D01*
X193652142Y-80516428D01*
X193709285Y-80545000D01*
X193737857Y-80573571D01*
X193766428Y-80630714D01*
X193766428Y-80802142D01*
X193737857Y-80859285D01*
X193709285Y-80887857D01*
X193652142Y-80916428D01*
X193566428Y-80916428D01*
X194280714Y-80516428D02*
X194280714Y-81002142D01*
X194252142Y-81059285D01*
X194223571Y-81087857D01*
X194166428Y-81116428D01*
X194080714Y-81116428D01*
X194023571Y-81087857D01*
X194280714Y-80887857D02*
X194223571Y-80916428D01*
X194109285Y-80916428D01*
X194052142Y-80887857D01*
X194023571Y-80859285D01*
X193995000Y-80802142D01*
X193995000Y-80630714D01*
X194023571Y-80573571D01*
X194052142Y-80545000D01*
X194109285Y-80516428D01*
X194223571Y-80516428D01*
X194280714Y-80545000D01*
X194823571Y-80516428D02*
X194823571Y-80916428D01*
X194566428Y-80516428D02*
X194566428Y-80830714D01*
X194595000Y-80887857D01*
X194652142Y-80916428D01*
X194737857Y-80916428D01*
X194795000Y-80887857D01*
X194823571Y-80859285D01*
X195337857Y-80887857D02*
X195280714Y-80916428D01*
X195166428Y-80916428D01*
X195109285Y-80887857D01*
X195080714Y-80830714D01*
X195080714Y-80602142D01*
X195109285Y-80545000D01*
X195166428Y-80516428D01*
X195280714Y-80516428D01*
X195337857Y-80545000D01*
X195366428Y-80602142D01*
X195366428Y-80659285D01*
X195080714Y-80716428D01*
X196423571Y-80916428D02*
X196223571Y-80630714D01*
X196080714Y-80916428D02*
X196080714Y-80316428D01*
X196309285Y-80316428D01*
X196366428Y-80345000D01*
X196395000Y-80373571D01*
X196423571Y-80430714D01*
X196423571Y-80516428D01*
X196395000Y-80573571D01*
X196366428Y-80602142D01*
X196309285Y-80630714D01*
X196080714Y-80630714D01*
X197109285Y-80287857D02*
X196595000Y-81059285D01*
X197623571Y-80345000D02*
X197566428Y-80316428D01*
X197480714Y-80316428D01*
X197395000Y-80345000D01*
X197337857Y-80402142D01*
X197309285Y-80459285D01*
X197280714Y-80573571D01*
X197280714Y-80659285D01*
X197309285Y-80773571D01*
X197337857Y-80830714D01*
X197395000Y-80887857D01*
X197480714Y-80916428D01*
X197537857Y-80916428D01*
X197623571Y-80887857D01*
X197652142Y-80859285D01*
X197652142Y-80659285D01*
X197537857Y-80659285D01*
X198337857Y-80287857D02*
X197823571Y-81059285D01*
X198737857Y-80602142D02*
X198823571Y-80630714D01*
X198852142Y-80659285D01*
X198880714Y-80716428D01*
X198880714Y-80802142D01*
X198852142Y-80859285D01*
X198823571Y-80887857D01*
X198766428Y-80916428D01*
X198537857Y-80916428D01*
X198537857Y-80316428D01*
X198737857Y-80316428D01*
X198795000Y-80345000D01*
X198823571Y-80373571D01*
X198852142Y-80430714D01*
X198852142Y-80487857D01*
X198823571Y-80545000D01*
X198795000Y-80573571D01*
X198737857Y-80602142D01*
X198537857Y-80602142D01*
X199595000Y-80516428D02*
X199595000Y-81116428D01*
X199595000Y-80545000D02*
X199652142Y-80516428D01*
X199766428Y-80516428D01*
X199823571Y-80545000D01*
X199852142Y-80573571D01*
X199880714Y-80630714D01*
X199880714Y-80802142D01*
X199852142Y-80859285D01*
X199823571Y-80887857D01*
X199766428Y-80916428D01*
X199652142Y-80916428D01*
X199595000Y-80887857D01*
X200223571Y-80916428D02*
X200166428Y-80887857D01*
X200137857Y-80859285D01*
X200109285Y-80802142D01*
X200109285Y-80630714D01*
X200137857Y-80573571D01*
X200166428Y-80545000D01*
X200223571Y-80516428D01*
X200309285Y-80516428D01*
X200366428Y-80545000D01*
X200395000Y-80573571D01*
X200423571Y-80630714D01*
X200423571Y-80802142D01*
X200395000Y-80859285D01*
X200366428Y-80887857D01*
X200309285Y-80916428D01*
X200223571Y-80916428D01*
X200680714Y-80916428D02*
X200680714Y-80516428D01*
X200680714Y-80316428D02*
X200652142Y-80345000D01*
X200680714Y-80373571D01*
X200709285Y-80345000D01*
X200680714Y-80316428D01*
X200680714Y-80373571D01*
X200966428Y-80516428D02*
X200966428Y-80916428D01*
X200966428Y-80573571D02*
X200995000Y-80545000D01*
X201052142Y-80516428D01*
X201137857Y-80516428D01*
X201195000Y-80545000D01*
X201223571Y-80602142D01*
X201223571Y-80916428D01*
X201423571Y-80516428D02*
X201652142Y-80516428D01*
X201509285Y-80316428D02*
X201509285Y-80830714D01*
X201537857Y-80887857D01*
X201595000Y-80916428D01*
X201652142Y-80916428D01*
X201795000Y-81145000D02*
X201823571Y-81116428D01*
X201880714Y-81030714D01*
X201909285Y-80973571D01*
X201937857Y-80887857D01*
X201966428Y-80745000D01*
X201966428Y-80630714D01*
X201937857Y-80487857D01*
X201909285Y-80402142D01*
X201880714Y-80345000D01*
X201823571Y-80259285D01*
X201795000Y-80230714D01*
X175519571Y-78062142D02*
X175319571Y-78062142D01*
X175319571Y-78376428D02*
X175319571Y-77776428D01*
X175605285Y-77776428D01*
X176033857Y-78062142D02*
X175833857Y-78062142D01*
X175833857Y-78376428D02*
X175833857Y-77776428D01*
X176119571Y-77776428D01*
X176919571Y-77776428D02*
X177033857Y-77776428D01*
X177091000Y-77805000D01*
X177148142Y-77862142D01*
X177176714Y-77976428D01*
X177176714Y-78176428D01*
X177148142Y-78290714D01*
X177091000Y-78347857D01*
X177033857Y-78376428D01*
X176919571Y-78376428D01*
X176862428Y-78347857D01*
X176805285Y-78290714D01*
X176776714Y-78176428D01*
X176776714Y-77976428D01*
X176805285Y-77862142D01*
X176862428Y-77805000D01*
X176919571Y-77776428D01*
X177405285Y-78347857D02*
X177491000Y-78376428D01*
X177633857Y-78376428D01*
X177691000Y-78347857D01*
X177719571Y-78319285D01*
X177748142Y-78262142D01*
X177748142Y-78205000D01*
X177719571Y-78147857D01*
X177691000Y-78119285D01*
X177633857Y-78090714D01*
X177519571Y-78062142D01*
X177462428Y-78033571D01*
X177433857Y-78005000D01*
X177405285Y-77947857D01*
X177405285Y-77890714D01*
X177433857Y-77833571D01*
X177462428Y-77805000D01*
X177519571Y-77776428D01*
X177662428Y-77776428D01*
X177748142Y-77805000D01*
X178005285Y-78376428D02*
X178005285Y-77776428D01*
X178148142Y-77776428D01*
X178233857Y-77805000D01*
X178291000Y-77862142D01*
X178319571Y-77919285D01*
X178348142Y-78033571D01*
X178348142Y-78119285D01*
X178319571Y-78233571D01*
X178291000Y-78290714D01*
X178233857Y-78347857D01*
X178148142Y-78376428D01*
X178005285Y-78376428D01*
X178605285Y-78319285D02*
X178633857Y-78347857D01*
X178605285Y-78376428D01*
X178576714Y-78347857D01*
X178605285Y-78319285D01*
X178605285Y-78376428D01*
X178605285Y-78005000D02*
X178633857Y-78033571D01*
X178605285Y-78062142D01*
X178576714Y-78033571D01*
X178605285Y-78005000D01*
X178605285Y-78062142D01*
X179348142Y-78376428D02*
X179348142Y-77776428D01*
X179491000Y-77776428D01*
X179576714Y-77805000D01*
X179633857Y-77862142D01*
X179662428Y-77919285D01*
X179691000Y-78033571D01*
X179691000Y-78119285D01*
X179662428Y-78233571D01*
X179633857Y-78290714D01*
X179576714Y-78347857D01*
X179491000Y-78376428D01*
X179348142Y-78376428D01*
X179948142Y-78376428D02*
X179948142Y-77976428D01*
X179948142Y-77776428D02*
X179919571Y-77805000D01*
X179948142Y-77833571D01*
X179976714Y-77805000D01*
X179948142Y-77776428D01*
X179948142Y-77833571D01*
X180205285Y-78347857D02*
X180262428Y-78376428D01*
X180376714Y-78376428D01*
X180433857Y-78347857D01*
X180462428Y-78290714D01*
X180462428Y-78262142D01*
X180433857Y-78205000D01*
X180376714Y-78176428D01*
X180291000Y-78176428D01*
X180233857Y-78147857D01*
X180205285Y-78090714D01*
X180205285Y-78062142D01*
X180233857Y-78005000D01*
X180291000Y-77976428D01*
X180376714Y-77976428D01*
X180433857Y-78005000D01*
X180719571Y-77976428D02*
X180719571Y-78576428D01*
X180719571Y-78005000D02*
X180776714Y-77976428D01*
X180891000Y-77976428D01*
X180948142Y-78005000D01*
X180976714Y-78033571D01*
X181005285Y-78090714D01*
X181005285Y-78262142D01*
X180976714Y-78319285D01*
X180948142Y-78347857D01*
X180891000Y-78376428D01*
X180776714Y-78376428D01*
X180719571Y-78347857D01*
X181348142Y-78376428D02*
X181291000Y-78347857D01*
X181262428Y-78290714D01*
X181262428Y-77776428D01*
X181833857Y-78376428D02*
X181833857Y-78062142D01*
X181805285Y-78005000D01*
X181748142Y-77976428D01*
X181633857Y-77976428D01*
X181576714Y-78005000D01*
X181833857Y-78347857D02*
X181776714Y-78376428D01*
X181633857Y-78376428D01*
X181576714Y-78347857D01*
X181548142Y-78290714D01*
X181548142Y-78233571D01*
X181576714Y-78176428D01*
X181633857Y-78147857D01*
X181776714Y-78147857D01*
X181833857Y-78119285D01*
X182062428Y-77976428D02*
X182205285Y-78376428D01*
X182348142Y-77976428D02*
X182205285Y-78376428D01*
X182148142Y-78519285D01*
X182119571Y-78547857D01*
X182062428Y-78576428D01*
X183033857Y-78062142D02*
X183233857Y-78062142D01*
X183319571Y-78376428D02*
X183033857Y-78376428D01*
X183033857Y-77776428D01*
X183319571Y-77776428D01*
X183576714Y-77976428D02*
X183576714Y-78376428D01*
X183576714Y-78033571D02*
X183605285Y-78005000D01*
X183662428Y-77976428D01*
X183748142Y-77976428D01*
X183805285Y-78005000D01*
X183833857Y-78062142D01*
X183833857Y-78376428D01*
X184376714Y-78376428D02*
X184376714Y-78062142D01*
X184348142Y-78005000D01*
X184291000Y-77976428D01*
X184176714Y-77976428D01*
X184119571Y-78005000D01*
X184376714Y-78347857D02*
X184319571Y-78376428D01*
X184176714Y-78376428D01*
X184119571Y-78347857D01*
X184091000Y-78290714D01*
X184091000Y-78233571D01*
X184119571Y-78176428D01*
X184176714Y-78147857D01*
X184319571Y-78147857D01*
X184376714Y-78119285D01*
X184662428Y-78376428D02*
X184662428Y-77776428D01*
X184662428Y-78005000D02*
X184719571Y-77976428D01*
X184833857Y-77976428D01*
X184891000Y-78005000D01*
X184919571Y-78033571D01*
X184948142Y-78090714D01*
X184948142Y-78262142D01*
X184919571Y-78319285D01*
X184891000Y-78347857D01*
X184833857Y-78376428D01*
X184719571Y-78376428D01*
X184662428Y-78347857D01*
X185291000Y-78376428D02*
X185233857Y-78347857D01*
X185205285Y-78290714D01*
X185205285Y-77776428D01*
X185748142Y-78347857D02*
X185691000Y-78376428D01*
X185576714Y-78376428D01*
X185519571Y-78347857D01*
X185491000Y-78290714D01*
X185491000Y-78062142D01*
X185519571Y-78005000D01*
X185576714Y-77976428D01*
X185691000Y-77976428D01*
X185748142Y-78005000D01*
X185776714Y-78062142D01*
X185776714Y-78119285D01*
X185491000Y-78176428D01*
X186662428Y-78605000D02*
X186633857Y-78576428D01*
X186576714Y-78490714D01*
X186548142Y-78433571D01*
X186519571Y-78347857D01*
X186491000Y-78205000D01*
X186491000Y-78090714D01*
X186519571Y-77947857D01*
X186548142Y-77862142D01*
X186576714Y-77805000D01*
X186633857Y-77719285D01*
X186662428Y-77690714D01*
X186862428Y-78205000D02*
X187148142Y-78205000D01*
X186805285Y-78376428D02*
X187005285Y-77776428D01*
X187205285Y-78376428D01*
X187719571Y-78376428D02*
X187376714Y-78376428D01*
X187548142Y-78376428D02*
X187548142Y-77776428D01*
X187491000Y-77862142D01*
X187433857Y-77919285D01*
X187376714Y-77947857D01*
X188262428Y-77776428D02*
X187976714Y-77776428D01*
X187948142Y-78062142D01*
X187976714Y-78033571D01*
X188033857Y-78005000D01*
X188176714Y-78005000D01*
X188233857Y-78033571D01*
X188262428Y-78062142D01*
X188291000Y-78119285D01*
X188291000Y-78262142D01*
X188262428Y-78319285D01*
X188233857Y-78347857D01*
X188176714Y-78376428D01*
X188033857Y-78376428D01*
X187976714Y-78347857D01*
X187948142Y-78319285D01*
X188491000Y-78605000D02*
X188519571Y-78576428D01*
X188576714Y-78490714D01*
X188605285Y-78433571D01*
X188633857Y-78347857D01*
X188662428Y-78205000D01*
X188662428Y-78090714D01*
X188633857Y-77947857D01*
X188605285Y-77862142D01*
X188576714Y-77805000D01*
X188519571Y-77719285D01*
X188491000Y-77690714D01*
X175505285Y-75522142D02*
X175305285Y-75522142D01*
X175305285Y-75836428D02*
X175305285Y-75236428D01*
X175591000Y-75236428D01*
X176019571Y-75522142D02*
X175819571Y-75522142D01*
X175819571Y-75836428D02*
X175819571Y-75236428D01*
X176105285Y-75236428D01*
X176905285Y-75236428D02*
X177019571Y-75236428D01*
X177076714Y-75265000D01*
X177133857Y-75322142D01*
X177162428Y-75436428D01*
X177162428Y-75636428D01*
X177133857Y-75750714D01*
X177076714Y-75807857D01*
X177019571Y-75836428D01*
X176905285Y-75836428D01*
X176848142Y-75807857D01*
X176791000Y-75750714D01*
X176762428Y-75636428D01*
X176762428Y-75436428D01*
X176791000Y-75322142D01*
X176848142Y-75265000D01*
X176905285Y-75236428D01*
X177391000Y-75807857D02*
X177476714Y-75836428D01*
X177619571Y-75836428D01*
X177676714Y-75807857D01*
X177705285Y-75779285D01*
X177733857Y-75722142D01*
X177733857Y-75665000D01*
X177705285Y-75607857D01*
X177676714Y-75579285D01*
X177619571Y-75550714D01*
X177505285Y-75522142D01*
X177448142Y-75493571D01*
X177419571Y-75465000D01*
X177391000Y-75407857D01*
X177391000Y-75350714D01*
X177419571Y-75293571D01*
X177448142Y-75265000D01*
X177505285Y-75236428D01*
X177648142Y-75236428D01*
X177733857Y-75265000D01*
X177991000Y-75836428D02*
X177991000Y-75236428D01*
X178133857Y-75236428D01*
X178219571Y-75265000D01*
X178276714Y-75322142D01*
X178305285Y-75379285D01*
X178333857Y-75493571D01*
X178333857Y-75579285D01*
X178305285Y-75693571D01*
X178276714Y-75750714D01*
X178219571Y-75807857D01*
X178133857Y-75836428D01*
X177991000Y-75836428D01*
X178591000Y-75779285D02*
X178619571Y-75807857D01*
X178591000Y-75836428D01*
X178562428Y-75807857D01*
X178591000Y-75779285D01*
X178591000Y-75836428D01*
X178591000Y-75465000D02*
X178619571Y-75493571D01*
X178591000Y-75522142D01*
X178562428Y-75493571D01*
X178591000Y-75465000D01*
X178591000Y-75522142D01*
X179333857Y-75836428D02*
X179333857Y-75236428D01*
X179476714Y-75236428D01*
X179562428Y-75265000D01*
X179619571Y-75322142D01*
X179648142Y-75379285D01*
X179676714Y-75493571D01*
X179676714Y-75579285D01*
X179648142Y-75693571D01*
X179619571Y-75750714D01*
X179562428Y-75807857D01*
X179476714Y-75836428D01*
X179333857Y-75836428D01*
X179933857Y-75836428D02*
X179933857Y-75436428D01*
X179933857Y-75236428D02*
X179905285Y-75265000D01*
X179933857Y-75293571D01*
X179962428Y-75265000D01*
X179933857Y-75236428D01*
X179933857Y-75293571D01*
X180191000Y-75807857D02*
X180248142Y-75836428D01*
X180362428Y-75836428D01*
X180419571Y-75807857D01*
X180448142Y-75750714D01*
X180448142Y-75722142D01*
X180419571Y-75665000D01*
X180362428Y-75636428D01*
X180276714Y-75636428D01*
X180219571Y-75607857D01*
X180191000Y-75550714D01*
X180191000Y-75522142D01*
X180219571Y-75465000D01*
X180276714Y-75436428D01*
X180362428Y-75436428D01*
X180419571Y-75465000D01*
X180705285Y-75436428D02*
X180705285Y-76036428D01*
X180705285Y-75465000D02*
X180762428Y-75436428D01*
X180876714Y-75436428D01*
X180933857Y-75465000D01*
X180962428Y-75493571D01*
X180991000Y-75550714D01*
X180991000Y-75722142D01*
X180962428Y-75779285D01*
X180933857Y-75807857D01*
X180876714Y-75836428D01*
X180762428Y-75836428D01*
X180705285Y-75807857D01*
X181333857Y-75836428D02*
X181276714Y-75807857D01*
X181248142Y-75750714D01*
X181248142Y-75236428D01*
X181819571Y-75836428D02*
X181819571Y-75522142D01*
X181791000Y-75465000D01*
X181733857Y-75436428D01*
X181619571Y-75436428D01*
X181562428Y-75465000D01*
X181819571Y-75807857D02*
X181762428Y-75836428D01*
X181619571Y-75836428D01*
X181562428Y-75807857D01*
X181533857Y-75750714D01*
X181533857Y-75693571D01*
X181562428Y-75636428D01*
X181619571Y-75607857D01*
X181762428Y-75607857D01*
X181819571Y-75579285D01*
X182048142Y-75436428D02*
X182191000Y-75836428D01*
X182333857Y-75436428D02*
X182191000Y-75836428D01*
X182133857Y-75979285D01*
X182105285Y-76007857D01*
X182048142Y-76036428D01*
X183133857Y-75236428D02*
X183248142Y-75236428D01*
X183305285Y-75265000D01*
X183362428Y-75322142D01*
X183391000Y-75436428D01*
X183391000Y-75636428D01*
X183362428Y-75750714D01*
X183305285Y-75807857D01*
X183248142Y-75836428D01*
X183133857Y-75836428D01*
X183076714Y-75807857D01*
X183019571Y-75750714D01*
X182991000Y-75636428D01*
X182991000Y-75436428D01*
X183019571Y-75322142D01*
X183076714Y-75265000D01*
X183133857Y-75236428D01*
X183905285Y-75436428D02*
X183905285Y-75836428D01*
X183648142Y-75436428D02*
X183648142Y-75750714D01*
X183676714Y-75807857D01*
X183733857Y-75836428D01*
X183819571Y-75836428D01*
X183876714Y-75807857D01*
X183905285Y-75779285D01*
X184105285Y-75436428D02*
X184333857Y-75436428D01*
X184191000Y-75236428D02*
X184191000Y-75750714D01*
X184219571Y-75807857D01*
X184276714Y-75836428D01*
X184333857Y-75836428D01*
X184533857Y-75436428D02*
X184533857Y-76036428D01*
X184533857Y-75465000D02*
X184591000Y-75436428D01*
X184705285Y-75436428D01*
X184762428Y-75465000D01*
X184791000Y-75493571D01*
X184819571Y-75550714D01*
X184819571Y-75722142D01*
X184791000Y-75779285D01*
X184762428Y-75807857D01*
X184705285Y-75836428D01*
X184591000Y-75836428D01*
X184533857Y-75807857D01*
X185333857Y-75436428D02*
X185333857Y-75836428D01*
X185076714Y-75436428D02*
X185076714Y-75750714D01*
X185105285Y-75807857D01*
X185162428Y-75836428D01*
X185248142Y-75836428D01*
X185305285Y-75807857D01*
X185333857Y-75779285D01*
X185533857Y-75436428D02*
X185762428Y-75436428D01*
X185619571Y-75236428D02*
X185619571Y-75750714D01*
X185648142Y-75807857D01*
X185705285Y-75836428D01*
X185762428Y-75836428D01*
X186591000Y-76065000D02*
X186562428Y-76036428D01*
X186505285Y-75950714D01*
X186476714Y-75893571D01*
X186448142Y-75807857D01*
X186419571Y-75665000D01*
X186419571Y-75550714D01*
X186448142Y-75407857D01*
X186476714Y-75322142D01*
X186505285Y-75265000D01*
X186562428Y-75179285D01*
X186591000Y-75150714D01*
X187019571Y-75522142D02*
X187105285Y-75550714D01*
X187133857Y-75579285D01*
X187162428Y-75636428D01*
X187162428Y-75722142D01*
X187133857Y-75779285D01*
X187105285Y-75807857D01*
X187048142Y-75836428D01*
X186819571Y-75836428D01*
X186819571Y-75236428D01*
X187019571Y-75236428D01*
X187076714Y-75265000D01*
X187105285Y-75293571D01*
X187133857Y-75350714D01*
X187133857Y-75407857D01*
X187105285Y-75465000D01*
X187076714Y-75493571D01*
X187019571Y-75522142D01*
X186819571Y-75522142D01*
X187733857Y-75836428D02*
X187391000Y-75836428D01*
X187562428Y-75836428D02*
X187562428Y-75236428D01*
X187505285Y-75322142D01*
X187448142Y-75379285D01*
X187391000Y-75407857D01*
X188276714Y-75236428D02*
X187991000Y-75236428D01*
X187962428Y-75522142D01*
X187991000Y-75493571D01*
X188048142Y-75465000D01*
X188191000Y-75465000D01*
X188248142Y-75493571D01*
X188276714Y-75522142D01*
X188305285Y-75579285D01*
X188305285Y-75722142D01*
X188276714Y-75779285D01*
X188248142Y-75807857D01*
X188191000Y-75836428D01*
X188048142Y-75836428D01*
X187991000Y-75807857D01*
X187962428Y-75779285D01*
X188505285Y-76065000D02*
X188533857Y-76036428D01*
X188591000Y-75950714D01*
X188619571Y-75893571D01*
X188648142Y-75807857D01*
X188676714Y-75665000D01*
X188676714Y-75550714D01*
X188648142Y-75407857D01*
X188619571Y-75322142D01*
X188591000Y-75265000D01*
X188533857Y-75179285D01*
X188505285Y-75150714D01*
D11*
X164084000Y-88138000D02*
G75*
G03*
X164084000Y-88138000I-127000J0D01*
G01*
D10*
X103533714Y-100033142D02*
X103619428Y-100061714D01*
X103648000Y-100090285D01*
X103676571Y-100147428D01*
X103676571Y-100233142D01*
X103648000Y-100290285D01*
X103619428Y-100318857D01*
X103562285Y-100347428D01*
X103333714Y-100347428D01*
X103333714Y-99747428D01*
X103533714Y-99747428D01*
X103590857Y-99776000D01*
X103619428Y-99804571D01*
X103648000Y-99861714D01*
X103648000Y-99918857D01*
X103619428Y-99976000D01*
X103590857Y-100004571D01*
X103533714Y-100033142D01*
X103333714Y-100033142D01*
X104190857Y-99947428D02*
X104190857Y-100347428D01*
X103933714Y-99947428D02*
X103933714Y-100261714D01*
X103962285Y-100318857D01*
X104019428Y-100347428D01*
X104105142Y-100347428D01*
X104162285Y-100318857D01*
X104190857Y-100290285D01*
X104390857Y-99947428D02*
X104619428Y-99947428D01*
X104476571Y-99747428D02*
X104476571Y-100261714D01*
X104505142Y-100318857D01*
X104562285Y-100347428D01*
X104619428Y-100347428D01*
X104733714Y-99947428D02*
X104962285Y-99947428D01*
X104819428Y-99747428D02*
X104819428Y-100261714D01*
X104848000Y-100318857D01*
X104905142Y-100347428D01*
X104962285Y-100347428D01*
X105248000Y-100347428D02*
X105190857Y-100318857D01*
X105162285Y-100290285D01*
X105133714Y-100233142D01*
X105133714Y-100061714D01*
X105162285Y-100004571D01*
X105190857Y-99976000D01*
X105248000Y-99947428D01*
X105333714Y-99947428D01*
X105390857Y-99976000D01*
X105419428Y-100004571D01*
X105448000Y-100061714D01*
X105448000Y-100233142D01*
X105419428Y-100290285D01*
X105390857Y-100318857D01*
X105333714Y-100347428D01*
X105248000Y-100347428D01*
X105705142Y-99947428D02*
X105705142Y-100347428D01*
X105705142Y-100004571D02*
X105733714Y-99976000D01*
X105790857Y-99947428D01*
X105876571Y-99947428D01*
X105933714Y-99976000D01*
X105962285Y-100033142D01*
X105962285Y-100347428D01*
X175532000Y-72982142D02*
X175332000Y-72982142D01*
X175332000Y-73296428D02*
X175332000Y-72696428D01*
X175617714Y-72696428D01*
X176046285Y-72982142D02*
X175846285Y-72982142D01*
X175846285Y-73296428D02*
X175846285Y-72696428D01*
X176132000Y-72696428D01*
X176932000Y-72696428D02*
X177046285Y-72696428D01*
X177103428Y-72725000D01*
X177160571Y-72782142D01*
X177189142Y-72896428D01*
X177189142Y-73096428D01*
X177160571Y-73210714D01*
X177103428Y-73267857D01*
X177046285Y-73296428D01*
X176932000Y-73296428D01*
X176874857Y-73267857D01*
X176817714Y-73210714D01*
X176789142Y-73096428D01*
X176789142Y-72896428D01*
X176817714Y-72782142D01*
X176874857Y-72725000D01*
X176932000Y-72696428D01*
X177417714Y-73267857D02*
X177503428Y-73296428D01*
X177646285Y-73296428D01*
X177703428Y-73267857D01*
X177732000Y-73239285D01*
X177760571Y-73182142D01*
X177760571Y-73125000D01*
X177732000Y-73067857D01*
X177703428Y-73039285D01*
X177646285Y-73010714D01*
X177532000Y-72982142D01*
X177474857Y-72953571D01*
X177446285Y-72925000D01*
X177417714Y-72867857D01*
X177417714Y-72810714D01*
X177446285Y-72753571D01*
X177474857Y-72725000D01*
X177532000Y-72696428D01*
X177674857Y-72696428D01*
X177760571Y-72725000D01*
X178017714Y-73296428D02*
X178017714Y-72696428D01*
X178160571Y-72696428D01*
X178246285Y-72725000D01*
X178303428Y-72782142D01*
X178332000Y-72839285D01*
X178360571Y-72953571D01*
X178360571Y-73039285D01*
X178332000Y-73153571D01*
X178303428Y-73210714D01*
X178246285Y-73267857D01*
X178160571Y-73296428D01*
X178017714Y-73296428D01*
X178617714Y-73239285D02*
X178646285Y-73267857D01*
X178617714Y-73296428D01*
X178589142Y-73267857D01*
X178617714Y-73239285D01*
X178617714Y-73296428D01*
X178617714Y-72925000D02*
X178646285Y-72953571D01*
X178617714Y-72982142D01*
X178589142Y-72953571D01*
X178617714Y-72925000D01*
X178617714Y-72982142D01*
X179703428Y-73239285D02*
X179674857Y-73267857D01*
X179589142Y-73296428D01*
X179532000Y-73296428D01*
X179446285Y-73267857D01*
X179389142Y-73210714D01*
X179360571Y-73153571D01*
X179332000Y-73039285D01*
X179332000Y-72953571D01*
X179360571Y-72839285D01*
X179389142Y-72782142D01*
X179446285Y-72725000D01*
X179532000Y-72696428D01*
X179589142Y-72696428D01*
X179674857Y-72725000D01*
X179703428Y-72753571D01*
X179932000Y-73267857D02*
X180017714Y-73296428D01*
X180160571Y-73296428D01*
X180217714Y-73267857D01*
X180246285Y-73239285D01*
X180274857Y-73182142D01*
X180274857Y-73125000D01*
X180246285Y-73067857D01*
X180217714Y-73039285D01*
X180160571Y-73010714D01*
X180046285Y-72982142D01*
X179989142Y-72953571D01*
X179960571Y-72925000D01*
X179932000Y-72867857D01*
X179932000Y-72810714D01*
X179960571Y-72753571D01*
X179989142Y-72725000D01*
X180046285Y-72696428D01*
X180189142Y-72696428D01*
X180274857Y-72725000D01*
X180646285Y-73010714D02*
X180646285Y-73296428D01*
X180446285Y-72696428D02*
X180646285Y-73010714D01*
X180846285Y-72696428D01*
X181046285Y-73296428D02*
X181046285Y-72696428D01*
X181389142Y-73296428D01*
X181389142Y-72696428D01*
X182017714Y-73239285D02*
X181989142Y-73267857D01*
X181903428Y-73296428D01*
X181846285Y-73296428D01*
X181760571Y-73267857D01*
X181703428Y-73210714D01*
X181674857Y-73153571D01*
X181646285Y-73039285D01*
X181646285Y-72953571D01*
X181674857Y-72839285D01*
X181703428Y-72782142D01*
X181760571Y-72725000D01*
X181846285Y-72696428D01*
X181903428Y-72696428D01*
X181989142Y-72725000D01*
X182017714Y-72753571D01*
X182903428Y-73525000D02*
X182874857Y-73496428D01*
X182817714Y-73410714D01*
X182789142Y-73353571D01*
X182760571Y-73267857D01*
X182732000Y-73125000D01*
X182732000Y-73010714D01*
X182760571Y-72867857D01*
X182789142Y-72782142D01*
X182817714Y-72725000D01*
X182874857Y-72639285D01*
X182903428Y-72610714D01*
X183103428Y-73125000D02*
X183389142Y-73125000D01*
X183046285Y-73296428D02*
X183246285Y-72696428D01*
X183446285Y-73296428D01*
X183732000Y-72953571D02*
X183674857Y-72925000D01*
X183646285Y-72896428D01*
X183617714Y-72839285D01*
X183617714Y-72810714D01*
X183646285Y-72753571D01*
X183674857Y-72725000D01*
X183732000Y-72696428D01*
X183846285Y-72696428D01*
X183903428Y-72725000D01*
X183932000Y-72753571D01*
X183960571Y-72810714D01*
X183960571Y-72839285D01*
X183932000Y-72896428D01*
X183903428Y-72925000D01*
X183846285Y-72953571D01*
X183732000Y-72953571D01*
X183674857Y-72982142D01*
X183646285Y-73010714D01*
X183617714Y-73067857D01*
X183617714Y-73182142D01*
X183646285Y-73239285D01*
X183674857Y-73267857D01*
X183732000Y-73296428D01*
X183846285Y-73296428D01*
X183903428Y-73267857D01*
X183932000Y-73239285D01*
X183960571Y-73182142D01*
X183960571Y-73067857D01*
X183932000Y-73010714D01*
X183903428Y-72982142D01*
X183846285Y-72953571D01*
X184160571Y-73525000D02*
X184189142Y-73496428D01*
X184246285Y-73410714D01*
X184274857Y-73353571D01*
X184303428Y-73267857D01*
X184332000Y-73125000D01*
X184332000Y-73010714D01*
X184303428Y-72867857D01*
X184274857Y-72782142D01*
X184246285Y-72725000D01*
X184189142Y-72639285D01*
X184160571Y-72610714D01*
D11*
X141732000Y-71882000D02*
G75*
G03*
X141732000Y-71882000I-127000J0D01*
G01*
X126238000Y-71882000D02*
G75*
G03*
X126238000Y-71882000I-127000J0D01*
G01*
X112268000Y-71755000D02*
G75*
G03*
X112268000Y-71755000I-127000J0D01*
G01*
D12*
X165381000Y-90177252D02*
X165381000Y-89654748D01*
X166851000Y-90177252D02*
X166851000Y-89654748D01*
X151503748Y-76300000D02*
X152026252Y-76300000D01*
X151503748Y-74830000D02*
X152026252Y-74830000D01*
X163195000Y-71755000D02*
X164465000Y-71755000D01*
X163195000Y-73025000D02*
X163195000Y-71755000D01*
X165507929Y-86105000D02*
X165905000Y-86105000D01*
X165507929Y-85345000D02*
X165905000Y-85345000D01*
X174565000Y-86105000D02*
X168565000Y-86105000D01*
X174565000Y-85345000D02*
X174565000Y-86105000D01*
X168565000Y-85345000D02*
X174565000Y-85345000D01*
X165905000Y-84455000D02*
X168565000Y-84455000D01*
X165507929Y-83565000D02*
X165905000Y-83565000D01*
X165507929Y-82805000D02*
X165905000Y-82805000D01*
X174565000Y-83565000D02*
X168565000Y-83565000D01*
X174565000Y-82805000D02*
X174565000Y-83565000D01*
X168565000Y-82805000D02*
X174565000Y-82805000D01*
X165905000Y-81915000D02*
X168565000Y-81915000D01*
X165507929Y-81025000D02*
X165905000Y-81025000D01*
X165507929Y-80265000D02*
X165905000Y-80265000D01*
X174565000Y-81025000D02*
X168565000Y-81025000D01*
X174565000Y-80265000D02*
X174565000Y-81025000D01*
X168565000Y-80265000D02*
X174565000Y-80265000D01*
X165905000Y-79375000D02*
X168565000Y-79375000D01*
X165507929Y-78485000D02*
X165905000Y-78485000D01*
X165507929Y-77725000D02*
X165905000Y-77725000D01*
X174565000Y-78485000D02*
X168565000Y-78485000D01*
X174565000Y-77725000D02*
X174565000Y-78485000D01*
X168565000Y-77725000D02*
X174565000Y-77725000D01*
X165905000Y-76835000D02*
X168565000Y-76835000D01*
X165507929Y-75945000D02*
X165905000Y-75945000D01*
X165507929Y-75185000D02*
X165905000Y-75185000D01*
X174565000Y-75945000D02*
X168565000Y-75945000D01*
X174565000Y-75185000D02*
X174565000Y-75945000D01*
X168565000Y-75185000D02*
X174565000Y-75185000D01*
X165905000Y-74295000D02*
X168565000Y-74295000D01*
X165575000Y-73405000D02*
X165905000Y-73405000D01*
X165575000Y-72645000D02*
X165905000Y-72645000D01*
X168565000Y-73305000D02*
X174565000Y-73305000D01*
X168565000Y-73185000D02*
X174565000Y-73185000D01*
X168565000Y-73065000D02*
X174565000Y-73065000D01*
X168565000Y-72945000D02*
X174565000Y-72945000D01*
X168565000Y-72825000D02*
X174565000Y-72825000D01*
X168565000Y-72705000D02*
X174565000Y-72705000D01*
X174565000Y-73405000D02*
X168565000Y-73405000D01*
X174565000Y-72645000D02*
X174565000Y-73405000D01*
X168565000Y-72645000D02*
X174565000Y-72645000D01*
X168565000Y-71695000D02*
X165905000Y-71695000D01*
X168565000Y-87055000D02*
X168565000Y-71695000D01*
X165905000Y-87055000D02*
X168565000Y-87055000D01*
X165905000Y-71695000D02*
X165905000Y-87055000D01*
D13*
X163575000Y-88860000D02*
X163575000Y-89235000D01*
X163250000Y-88535000D02*
X163250000Y-88010000D01*
X163350000Y-88535000D02*
X163250000Y-88535000D01*
X163575000Y-88860000D02*
X163350000Y-88535000D01*
X160275000Y-90535000D02*
X160275000Y-90210000D01*
X160575000Y-90535000D02*
X160275000Y-90535000D01*
X160275000Y-88535000D02*
X160275000Y-88835000D01*
X160600000Y-88535000D02*
X160275000Y-88535000D01*
X163575000Y-90535000D02*
X163575000Y-90235000D01*
X163250000Y-90535000D02*
X163575000Y-90535000D01*
D12*
X165727748Y-69925000D02*
X166250252Y-69925000D01*
X165727748Y-68505000D02*
X166250252Y-68505000D01*
X156202748Y-77395000D02*
X156725252Y-77395000D01*
X156202748Y-78815000D02*
X156725252Y-78815000D01*
X113209000Y-76461252D02*
X113209000Y-75938748D01*
X114629000Y-76461252D02*
X114629000Y-75938748D01*
X127179000Y-76461252D02*
X127179000Y-75938748D01*
X128599000Y-76461252D02*
X128599000Y-75938748D01*
X142927000Y-76216252D02*
X142927000Y-75693748D01*
X144347000Y-76216252D02*
X144347000Y-75693748D01*
D10*
X142325000Y-73875000D02*
X142200000Y-73875000D01*
X142325000Y-78525000D02*
X142100000Y-78525000D01*
X137075000Y-78525000D02*
X137300000Y-78525000D01*
X137075000Y-73875000D02*
X137300000Y-73875000D01*
X142325000Y-73875000D02*
X142325000Y-78525000D01*
X137075000Y-73875000D02*
X137075000Y-78525000D01*
X142200000Y-73875000D02*
X142200000Y-72525000D01*
X126640000Y-72450000D02*
X126640000Y-78425000D01*
X119740000Y-73975000D02*
X119740000Y-78425000D01*
X105770000Y-73975000D02*
X105770000Y-78425000D01*
X112670000Y-72450000D02*
X112670000Y-78425000D01*
D12*
X158175000Y-86935000D02*
X158175000Y-89535000D01*
X158175000Y-86935000D02*
X107255000Y-86935000D01*
X107255000Y-86935000D02*
X107255000Y-92135000D01*
X155575000Y-92135000D02*
X107255000Y-92135000D01*
X155575000Y-89535000D02*
X155575000Y-92135000D01*
X158175000Y-89535000D02*
X155575000Y-89535000D01*
X158175000Y-92135000D02*
X156845000Y-92135000D01*
X158175000Y-90805000D02*
X158175000Y-92135000D01*
X156725252Y-76275000D02*
X156202748Y-76275000D01*
X156725252Y-74855000D02*
X156202748Y-74855000D01*
X151503748Y-77395000D02*
X152026252Y-77395000D01*
X151503748Y-78815000D02*
X152026252Y-78815000D01*
X163255000Y-74565000D02*
X163255000Y-69105000D01*
X163255000Y-69105000D02*
X132655000Y-69105000D01*
X132655000Y-69105000D02*
X132655000Y-82025000D01*
X132655000Y-82025000D02*
X163255000Y-82025000D01*
X163255000Y-82025000D02*
X163255000Y-76565000D01*
X163315000Y-66615000D02*
X132595000Y-66615000D01*
X132595000Y-66615000D02*
X132595000Y-84515000D01*
X132595000Y-84515000D02*
X163315000Y-84515000D01*
X163315000Y-84515000D02*
X163315000Y-66615000D01*
X163255000Y-76565000D02*
G75*
G02*
X163255000Y-74565000I0J1000000D01*
G01*
X132775000Y-74565000D02*
X132775000Y-69105000D01*
X132775000Y-69105000D02*
X102175000Y-69105000D01*
X102175000Y-69105000D02*
X102175000Y-82025000D01*
X102175000Y-82025000D02*
X132775000Y-82025000D01*
X132775000Y-82025000D02*
X132775000Y-76565000D01*
X132835000Y-66615000D02*
X102115000Y-66615000D01*
X102115000Y-66615000D02*
X102115000Y-84515000D01*
X102115000Y-84515000D02*
X132835000Y-84515000D01*
X132835000Y-84515000D02*
X132835000Y-66615000D01*
X132775000Y-76565000D02*
G75*
G02*
X132775000Y-74565000I0J1000000D01*
G01*
X107315000Y-86995000D02*
X107315000Y-88265000D01*
X106045000Y-86995000D02*
X107315000Y-86995000D01*
X103125000Y-89307929D02*
X103125000Y-89705000D01*
X103885000Y-89307929D02*
X103885000Y-89705000D01*
X103125000Y-98365000D02*
X103125000Y-92365000D01*
X103885000Y-98365000D02*
X103125000Y-98365000D01*
X103885000Y-92365000D02*
X103885000Y-98365000D01*
X104775000Y-89705000D02*
X104775000Y-92365000D01*
X105665000Y-89375000D02*
X105665000Y-89705000D01*
X106425000Y-89375000D02*
X106425000Y-89705000D01*
X105765000Y-92365000D02*
X105765000Y-98365000D01*
X105885000Y-92365000D02*
X105885000Y-98365000D01*
X106005000Y-92365000D02*
X106005000Y-98365000D01*
X106125000Y-92365000D02*
X106125000Y-98365000D01*
X106245000Y-92365000D02*
X106245000Y-98365000D01*
X106365000Y-92365000D02*
X106365000Y-98365000D01*
X105665000Y-98365000D02*
X105665000Y-92365000D01*
X106425000Y-98365000D02*
X105665000Y-98365000D01*
X106425000Y-92365000D02*
X106425000Y-98365000D01*
X107375000Y-92365000D02*
X107375000Y-89705000D01*
X102175000Y-92365000D02*
X107375000Y-92365000D01*
X102175000Y-89705000D02*
X102175000Y-92365000D01*
X107375000Y-89705000D02*
X102175000Y-89705000D01*
D10*
X167282857Y-87971333D02*
X167235238Y-87923714D01*
X167187619Y-87780857D01*
X167187619Y-87685619D01*
X167235238Y-87542761D01*
X167330476Y-87447523D01*
X167425714Y-87399904D01*
X167616190Y-87352285D01*
X167759047Y-87352285D01*
X167949523Y-87399904D01*
X168044761Y-87447523D01*
X168140000Y-87542761D01*
X168187619Y-87685619D01*
X168187619Y-87780857D01*
X168140000Y-87923714D01*
X168092380Y-87971333D01*
X167854285Y-88828476D02*
X167187619Y-88828476D01*
X168235238Y-88590380D02*
X167520952Y-88352285D01*
X167520952Y-88971333D01*
X167368571Y-89876428D02*
X167368571Y-89533571D01*
X167368571Y-89705000D02*
X167968571Y-89705000D01*
X167882857Y-89647857D01*
X167825714Y-89590714D01*
X167797142Y-89533571D01*
X167968571Y-90247857D02*
X167968571Y-90305000D01*
X167940000Y-90362142D01*
X167911428Y-90390714D01*
X167854285Y-90419285D01*
X167740000Y-90447857D01*
X167597142Y-90447857D01*
X167482857Y-90419285D01*
X167425714Y-90390714D01*
X167397142Y-90362142D01*
X167368571Y-90305000D01*
X167368571Y-90247857D01*
X167397142Y-90190714D01*
X167425714Y-90162142D01*
X167482857Y-90133571D01*
X167597142Y-90105000D01*
X167740000Y-90105000D01*
X167854285Y-90133571D01*
X167911428Y-90162142D01*
X167940000Y-90190714D01*
X167968571Y-90247857D01*
X167968571Y-90819285D02*
X167968571Y-90876428D01*
X167940000Y-90933571D01*
X167911428Y-90962142D01*
X167854285Y-90990714D01*
X167740000Y-91019285D01*
X167597142Y-91019285D01*
X167482857Y-90990714D01*
X167425714Y-90962142D01*
X167397142Y-90933571D01*
X167368571Y-90876428D01*
X167368571Y-90819285D01*
X167397142Y-90762142D01*
X167425714Y-90733571D01*
X167482857Y-90705000D01*
X167597142Y-90676428D01*
X167740000Y-90676428D01*
X167854285Y-90705000D01*
X167911428Y-90733571D01*
X167940000Y-90762142D01*
X167968571Y-90819285D01*
X167768571Y-91276428D02*
X167368571Y-91276428D01*
X167711428Y-91276428D02*
X167740000Y-91305000D01*
X167768571Y-91362142D01*
X167768571Y-91447857D01*
X167740000Y-91505000D01*
X167682857Y-91533571D01*
X167368571Y-91533571D01*
X167682857Y-92019285D02*
X167682857Y-91819285D01*
X167368571Y-91819285D02*
X167968571Y-91819285D01*
X167968571Y-92105000D01*
X152423857Y-73112333D02*
X152376238Y-73064714D01*
X152328619Y-72921857D01*
X152328619Y-72826619D01*
X152376238Y-72683761D01*
X152471476Y-72588523D01*
X152566714Y-72540904D01*
X152757190Y-72493285D01*
X152900047Y-72493285D01*
X153090523Y-72540904D01*
X153185761Y-72588523D01*
X153281000Y-72683761D01*
X153328619Y-72826619D01*
X153328619Y-72921857D01*
X153281000Y-73064714D01*
X153233380Y-73112333D01*
X153328619Y-73969476D02*
X153328619Y-73779000D01*
X153281000Y-73683761D01*
X153233380Y-73636142D01*
X153090523Y-73540904D01*
X152900047Y-73493285D01*
X152519095Y-73493285D01*
X152423857Y-73540904D01*
X152376238Y-73588523D01*
X152328619Y-73683761D01*
X152328619Y-73874238D01*
X152376238Y-73969476D01*
X152423857Y-74017095D01*
X152519095Y-74064714D01*
X152757190Y-74064714D01*
X152852428Y-74017095D01*
X152900047Y-73969476D01*
X152947666Y-73874238D01*
X152947666Y-73683761D01*
X152900047Y-73588523D01*
X152852428Y-73540904D01*
X152757190Y-73493285D01*
X150877571Y-72579000D02*
X150477571Y-72579000D01*
X151106142Y-72436142D02*
X150677571Y-72293285D01*
X150677571Y-72664714D01*
X151077571Y-72836142D02*
X151077571Y-73236142D01*
X150477571Y-72979000D01*
X150877571Y-73464714D02*
X150277571Y-73464714D01*
X150849000Y-73464714D02*
X150877571Y-73521857D01*
X150877571Y-73636142D01*
X150849000Y-73693285D01*
X150820428Y-73721857D01*
X150763285Y-73750428D01*
X150591857Y-73750428D01*
X150534714Y-73721857D01*
X150506142Y-73693285D01*
X150477571Y-73636142D01*
X150477571Y-73521857D01*
X150506142Y-73464714D01*
X150791857Y-74207571D02*
X150791857Y-74007571D01*
X150477571Y-74007571D02*
X151077571Y-74007571D01*
X151077571Y-74293285D01*
X164419571Y-70939428D02*
X164169571Y-70939428D01*
X164169571Y-71332285D02*
X164169571Y-70582285D01*
X164526714Y-70582285D01*
X165062428Y-70939428D02*
X164812428Y-70939428D01*
X164812428Y-71332285D02*
X164812428Y-70582285D01*
X165169571Y-70582285D01*
X165598142Y-70582285D02*
X165741000Y-70582285D01*
X165812428Y-70618000D01*
X165883857Y-70689428D01*
X165919571Y-70832285D01*
X165919571Y-71082285D01*
X165883857Y-71225142D01*
X165812428Y-71296571D01*
X165741000Y-71332285D01*
X165598142Y-71332285D01*
X165526714Y-71296571D01*
X165455285Y-71225142D01*
X165419571Y-71082285D01*
X165419571Y-70832285D01*
X165455285Y-70689428D01*
X165526714Y-70618000D01*
X165598142Y-70582285D01*
X166205285Y-71296571D02*
X166312428Y-71332285D01*
X166491000Y-71332285D01*
X166562428Y-71296571D01*
X166598142Y-71260857D01*
X166633857Y-71189428D01*
X166633857Y-71118000D01*
X166598142Y-71046571D01*
X166562428Y-71010857D01*
X166491000Y-70975142D01*
X166348142Y-70939428D01*
X166276714Y-70903714D01*
X166241000Y-70868000D01*
X166205285Y-70796571D01*
X166205285Y-70725142D01*
X166241000Y-70653714D01*
X166276714Y-70618000D01*
X166348142Y-70582285D01*
X166526714Y-70582285D01*
X166633857Y-70618000D01*
X166955285Y-71332285D02*
X166955285Y-70582285D01*
X167133857Y-70582285D01*
X167241000Y-70618000D01*
X167312428Y-70689428D01*
X167348142Y-70760857D01*
X167383857Y-70903714D01*
X167383857Y-71010857D01*
X167348142Y-71153714D01*
X167312428Y-71225142D01*
X167241000Y-71296571D01*
X167133857Y-71332285D01*
X166955285Y-71332285D01*
X168098142Y-71332285D02*
X167669571Y-71332285D01*
X167883857Y-71332285D02*
X167883857Y-70582285D01*
X167812428Y-70689428D01*
X167741000Y-70760857D01*
X167669571Y-70796571D01*
X159932619Y-88773095D02*
X159123095Y-88773095D01*
X159027857Y-88820714D01*
X158980238Y-88868333D01*
X158932619Y-88963571D01*
X158932619Y-89154047D01*
X158980238Y-89249285D01*
X159027857Y-89296904D01*
X159123095Y-89344523D01*
X159932619Y-89344523D01*
X159599285Y-90249285D02*
X158932619Y-90249285D01*
X159980238Y-90011190D02*
X159265952Y-89773095D01*
X159265952Y-90392142D01*
X166665714Y-67312000D02*
X167022857Y-67062000D01*
X166665714Y-66883428D02*
X167415714Y-66883428D01*
X167415714Y-67169142D01*
X167380000Y-67240571D01*
X167344285Y-67276285D01*
X167272857Y-67312000D01*
X167165714Y-67312000D01*
X167094285Y-67276285D01*
X167058571Y-67240571D01*
X167022857Y-67169142D01*
X167022857Y-66883428D01*
X167415714Y-67562000D02*
X167415714Y-68026285D01*
X167130000Y-67776285D01*
X167130000Y-67883428D01*
X167094285Y-67954857D01*
X167058571Y-67990571D01*
X166987142Y-68026285D01*
X166808571Y-68026285D01*
X166737142Y-67990571D01*
X166701428Y-67954857D01*
X166665714Y-67883428D01*
X166665714Y-67669142D01*
X166701428Y-67597714D01*
X166737142Y-67562000D01*
X165244428Y-66567142D02*
X165273000Y-66595714D01*
X165301571Y-66652857D01*
X165301571Y-66795714D01*
X165273000Y-66852857D01*
X165244428Y-66881428D01*
X165187285Y-66910000D01*
X165130142Y-66910000D01*
X165044428Y-66881428D01*
X164701571Y-66538571D01*
X164701571Y-66910000D01*
X165301571Y-67110000D02*
X165301571Y-67510000D01*
X164701571Y-67252857D01*
X165301571Y-67852857D02*
X165301571Y-67910000D01*
X165273000Y-67967142D01*
X165244428Y-67995714D01*
X165187285Y-68024285D01*
X165073000Y-68052857D01*
X164930142Y-68052857D01*
X164815857Y-68024285D01*
X164758714Y-67995714D01*
X164730142Y-67967142D01*
X164701571Y-67910000D01*
X164701571Y-67852857D01*
X164730142Y-67795714D01*
X164758714Y-67767142D01*
X164815857Y-67738571D01*
X164930142Y-67710000D01*
X165073000Y-67710000D01*
X165187285Y-67738571D01*
X165244428Y-67767142D01*
X165273000Y-67795714D01*
X165301571Y-67852857D01*
X157027619Y-79843333D02*
X157503809Y-79510000D01*
X157027619Y-79271904D02*
X158027619Y-79271904D01*
X158027619Y-79652857D01*
X157980000Y-79748095D01*
X157932380Y-79795714D01*
X157837142Y-79843333D01*
X157694285Y-79843333D01*
X157599047Y-79795714D01*
X157551428Y-79748095D01*
X157503809Y-79652857D01*
X157503809Y-79271904D01*
X157932380Y-80224285D02*
X157980000Y-80271904D01*
X158027619Y-80367142D01*
X158027619Y-80605238D01*
X157980000Y-80700476D01*
X157932380Y-80748095D01*
X157837142Y-80795714D01*
X157741904Y-80795714D01*
X157599047Y-80748095D01*
X157027619Y-80176666D01*
X157027619Y-80795714D01*
X155235714Y-79793714D02*
X155235714Y-79365142D01*
X155235714Y-79579428D02*
X155985714Y-79579428D01*
X155878571Y-79508000D01*
X155807142Y-79436571D01*
X155771428Y-79365142D01*
X155235714Y-80115142D02*
X155985714Y-80115142D01*
X155521428Y-80186571D02*
X155235714Y-80400857D01*
X155735714Y-80400857D02*
X155450000Y-80115142D01*
X113561857Y-73112333D02*
X113514238Y-73064714D01*
X113466619Y-72921857D01*
X113466619Y-72826619D01*
X113514238Y-72683761D01*
X113609476Y-72588523D01*
X113704714Y-72540904D01*
X113895190Y-72493285D01*
X114038047Y-72493285D01*
X114228523Y-72540904D01*
X114323761Y-72588523D01*
X114419000Y-72683761D01*
X114466619Y-72826619D01*
X114466619Y-72921857D01*
X114419000Y-73064714D01*
X114371380Y-73112333D01*
X114466619Y-73445666D02*
X114466619Y-74064714D01*
X114085666Y-73731380D01*
X114085666Y-73874238D01*
X114038047Y-73969476D01*
X113990428Y-74017095D01*
X113895190Y-74064714D01*
X113657095Y-74064714D01*
X113561857Y-74017095D01*
X113514238Y-73969476D01*
X113466619Y-73874238D01*
X113466619Y-73588523D01*
X113514238Y-73493285D01*
X113561857Y-73445666D01*
X115044571Y-75271428D02*
X115044571Y-74928571D01*
X115044571Y-75100000D02*
X115644571Y-75100000D01*
X115558857Y-75042857D01*
X115501714Y-74985714D01*
X115473142Y-74928571D01*
X115644571Y-75642857D02*
X115644571Y-75700000D01*
X115616000Y-75757142D01*
X115587428Y-75785714D01*
X115530285Y-75814285D01*
X115416000Y-75842857D01*
X115273142Y-75842857D01*
X115158857Y-75814285D01*
X115101714Y-75785714D01*
X115073142Y-75757142D01*
X115044571Y-75700000D01*
X115044571Y-75642857D01*
X115073142Y-75585714D01*
X115101714Y-75557142D01*
X115158857Y-75528571D01*
X115273142Y-75500000D01*
X115416000Y-75500000D01*
X115530285Y-75528571D01*
X115587428Y-75557142D01*
X115616000Y-75585714D01*
X115644571Y-75642857D01*
X115644571Y-76214285D02*
X115644571Y-76271428D01*
X115616000Y-76328571D01*
X115587428Y-76357142D01*
X115530285Y-76385714D01*
X115416000Y-76414285D01*
X115273142Y-76414285D01*
X115158857Y-76385714D01*
X115101714Y-76357142D01*
X115073142Y-76328571D01*
X115044571Y-76271428D01*
X115044571Y-76214285D01*
X115073142Y-76157142D01*
X115101714Y-76128571D01*
X115158857Y-76100000D01*
X115273142Y-76071428D01*
X115416000Y-76071428D01*
X115530285Y-76100000D01*
X115587428Y-76128571D01*
X115616000Y-76157142D01*
X115644571Y-76214285D01*
X115444571Y-76671428D02*
X115044571Y-76671428D01*
X115387428Y-76671428D02*
X115416000Y-76700000D01*
X115444571Y-76757142D01*
X115444571Y-76842857D01*
X115416000Y-76900000D01*
X115358857Y-76928571D01*
X115044571Y-76928571D01*
X115358857Y-77414285D02*
X115358857Y-77214285D01*
X115044571Y-77214285D02*
X115644571Y-77214285D01*
X115644571Y-77500000D01*
X127531857Y-73112333D02*
X127484238Y-73064714D01*
X127436619Y-72921857D01*
X127436619Y-72826619D01*
X127484238Y-72683761D01*
X127579476Y-72588523D01*
X127674714Y-72540904D01*
X127865190Y-72493285D01*
X128008047Y-72493285D01*
X128198523Y-72540904D01*
X128293761Y-72588523D01*
X128389000Y-72683761D01*
X128436619Y-72826619D01*
X128436619Y-72921857D01*
X128389000Y-73064714D01*
X128341380Y-73112333D01*
X128341380Y-73493285D02*
X128389000Y-73540904D01*
X128436619Y-73636142D01*
X128436619Y-73874238D01*
X128389000Y-73969476D01*
X128341380Y-74017095D01*
X128246142Y-74064714D01*
X128150904Y-74064714D01*
X128008047Y-74017095D01*
X127436619Y-73445666D01*
X127436619Y-74064714D01*
X129014571Y-75271428D02*
X129014571Y-74928571D01*
X129014571Y-75100000D02*
X129614571Y-75100000D01*
X129528857Y-75042857D01*
X129471714Y-74985714D01*
X129443142Y-74928571D01*
X129614571Y-75642857D02*
X129614571Y-75700000D01*
X129586000Y-75757142D01*
X129557428Y-75785714D01*
X129500285Y-75814285D01*
X129386000Y-75842857D01*
X129243142Y-75842857D01*
X129128857Y-75814285D01*
X129071714Y-75785714D01*
X129043142Y-75757142D01*
X129014571Y-75700000D01*
X129014571Y-75642857D01*
X129043142Y-75585714D01*
X129071714Y-75557142D01*
X129128857Y-75528571D01*
X129243142Y-75500000D01*
X129386000Y-75500000D01*
X129500285Y-75528571D01*
X129557428Y-75557142D01*
X129586000Y-75585714D01*
X129614571Y-75642857D01*
X129614571Y-76214285D02*
X129614571Y-76271428D01*
X129586000Y-76328571D01*
X129557428Y-76357142D01*
X129500285Y-76385714D01*
X129386000Y-76414285D01*
X129243142Y-76414285D01*
X129128857Y-76385714D01*
X129071714Y-76357142D01*
X129043142Y-76328571D01*
X129014571Y-76271428D01*
X129014571Y-76214285D01*
X129043142Y-76157142D01*
X129071714Y-76128571D01*
X129128857Y-76100000D01*
X129243142Y-76071428D01*
X129386000Y-76071428D01*
X129500285Y-76100000D01*
X129557428Y-76128571D01*
X129586000Y-76157142D01*
X129614571Y-76214285D01*
X129414571Y-76671428D02*
X129014571Y-76671428D01*
X129357428Y-76671428D02*
X129386000Y-76700000D01*
X129414571Y-76757142D01*
X129414571Y-76842857D01*
X129386000Y-76900000D01*
X129328857Y-76928571D01*
X129014571Y-76928571D01*
X129328857Y-77414285D02*
X129328857Y-77214285D01*
X129014571Y-77214285D02*
X129614571Y-77214285D01*
X129614571Y-77500000D01*
X143279857Y-72994333D02*
X143232238Y-72946714D01*
X143184619Y-72803857D01*
X143184619Y-72708619D01*
X143232238Y-72565761D01*
X143327476Y-72470523D01*
X143422714Y-72422904D01*
X143613190Y-72375285D01*
X143756047Y-72375285D01*
X143946523Y-72422904D01*
X144041761Y-72470523D01*
X144137000Y-72565761D01*
X144184619Y-72708619D01*
X144184619Y-72803857D01*
X144137000Y-72946714D01*
X144089380Y-72994333D01*
X143184619Y-73946714D02*
X143184619Y-73375285D01*
X143184619Y-73661000D02*
X144184619Y-73661000D01*
X144041761Y-73565761D01*
X143946523Y-73470523D01*
X143898904Y-73375285D01*
D14*
X144762571Y-75026428D02*
X144762571Y-74683571D01*
X144762571Y-74855000D02*
X145362571Y-74855000D01*
X145276857Y-74797857D01*
X145219714Y-74740714D01*
X145191142Y-74683571D01*
X145362571Y-75397857D02*
X145362571Y-75455000D01*
X145334000Y-75512142D01*
X145305428Y-75540714D01*
X145248285Y-75569285D01*
X145134000Y-75597857D01*
X144991142Y-75597857D01*
X144876857Y-75569285D01*
X144819714Y-75540714D01*
X144791142Y-75512142D01*
X144762571Y-75455000D01*
X144762571Y-75397857D01*
X144791142Y-75340714D01*
X144819714Y-75312142D01*
X144876857Y-75283571D01*
X144991142Y-75255000D01*
X145134000Y-75255000D01*
X145248285Y-75283571D01*
X145305428Y-75312142D01*
X145334000Y-75340714D01*
X145362571Y-75397857D01*
X145362571Y-75969285D02*
X145362571Y-76026428D01*
X145334000Y-76083571D01*
X145305428Y-76112142D01*
X145248285Y-76140714D01*
X145134000Y-76169285D01*
X144991142Y-76169285D01*
X144876857Y-76140714D01*
X144819714Y-76112142D01*
X144791142Y-76083571D01*
X144762571Y-76026428D01*
X144762571Y-75969285D01*
X144791142Y-75912142D01*
X144819714Y-75883571D01*
X144876857Y-75855000D01*
X144991142Y-75826428D01*
X145134000Y-75826428D01*
X145248285Y-75855000D01*
X145305428Y-75883571D01*
X145334000Y-75912142D01*
X145362571Y-75969285D01*
X145162571Y-76426428D02*
X144762571Y-76426428D01*
X145105428Y-76426428D02*
X145134000Y-76455000D01*
X145162571Y-76512142D01*
X145162571Y-76597857D01*
X145134000Y-76655000D01*
X145076857Y-76683571D01*
X144762571Y-76683571D01*
X145076857Y-77169285D02*
X145076857Y-76969285D01*
X144762571Y-76969285D02*
X145362571Y-76969285D01*
X145362571Y-77255000D01*
D10*
X135469380Y-76961904D02*
X136278904Y-76961904D01*
X136374142Y-76914285D01*
X136421761Y-76866666D01*
X136469380Y-76771428D01*
X136469380Y-76580952D01*
X136421761Y-76485714D01*
X136374142Y-76438095D01*
X136278904Y-76390476D01*
X135469380Y-76390476D01*
X136469380Y-75390476D02*
X136469380Y-75961904D01*
X136469380Y-75676190D02*
X135469380Y-75676190D01*
X135612238Y-75771428D01*
X135707476Y-75866666D01*
X135755095Y-75961904D01*
X119165619Y-75565095D02*
X118356095Y-75565095D01*
X118260857Y-75612714D01*
X118213238Y-75660333D01*
X118165619Y-75755571D01*
X118165619Y-75946047D01*
X118213238Y-76041285D01*
X118260857Y-76088904D01*
X118356095Y-76136523D01*
X119165619Y-76136523D01*
X119070380Y-76565095D02*
X119118000Y-76612714D01*
X119165619Y-76707952D01*
X119165619Y-76946047D01*
X119118000Y-77041285D01*
X119070380Y-77088904D01*
X118975142Y-77136523D01*
X118879904Y-77136523D01*
X118737047Y-77088904D01*
X118165619Y-76517476D01*
X118165619Y-77136523D01*
X105322619Y-75565095D02*
X104513095Y-75565095D01*
X104417857Y-75612714D01*
X104370238Y-75660333D01*
X104322619Y-75755571D01*
X104322619Y-75946047D01*
X104370238Y-76041285D01*
X104417857Y-76088904D01*
X104513095Y-76136523D01*
X105322619Y-76136523D01*
X105322619Y-76517476D02*
X105322619Y-77136523D01*
X104941666Y-76803190D01*
X104941666Y-76946047D01*
X104894047Y-77041285D01*
X104846428Y-77088904D01*
X104751190Y-77136523D01*
X104513095Y-77136523D01*
X104417857Y-77088904D01*
X104370238Y-77041285D01*
X104322619Y-76946047D01*
X104322619Y-76660333D01*
X104370238Y-76565095D01*
X104417857Y-76517476D01*
X157249857Y-73112333D02*
X157202238Y-73064714D01*
X157154619Y-72921857D01*
X157154619Y-72826619D01*
X157202238Y-72683761D01*
X157297476Y-72588523D01*
X157392714Y-72540904D01*
X157583190Y-72493285D01*
X157726047Y-72493285D01*
X157916523Y-72540904D01*
X158011761Y-72588523D01*
X158107000Y-72683761D01*
X158154619Y-72826619D01*
X158154619Y-72921857D01*
X158107000Y-73064714D01*
X158059380Y-73112333D01*
X158154619Y-74017095D02*
X158154619Y-73540904D01*
X157678428Y-73493285D01*
X157726047Y-73540904D01*
X157773666Y-73636142D01*
X157773666Y-73874238D01*
X157726047Y-73969476D01*
X157678428Y-74017095D01*
X157583190Y-74064714D01*
X157345095Y-74064714D01*
X157249857Y-74017095D01*
X157202238Y-73969476D01*
X157154619Y-73874238D01*
X157154619Y-73636142D01*
X157202238Y-73540904D01*
X157249857Y-73493285D01*
D14*
X155176571Y-72636142D02*
X155176571Y-72293285D01*
X155176571Y-72464714D02*
X155776571Y-72464714D01*
X155690857Y-72407571D01*
X155633714Y-72350428D01*
X155605142Y-72293285D01*
X155776571Y-73007571D02*
X155776571Y-73064714D01*
X155748000Y-73121857D01*
X155719428Y-73150428D01*
X155662285Y-73179000D01*
X155548000Y-73207571D01*
X155405142Y-73207571D01*
X155290857Y-73179000D01*
X155233714Y-73150428D01*
X155205142Y-73121857D01*
X155176571Y-73064714D01*
X155176571Y-73007571D01*
X155205142Y-72950428D01*
X155233714Y-72921857D01*
X155290857Y-72893285D01*
X155405142Y-72864714D01*
X155548000Y-72864714D01*
X155662285Y-72893285D01*
X155719428Y-72921857D01*
X155748000Y-72950428D01*
X155776571Y-73007571D01*
X155576571Y-73721857D02*
X155176571Y-73721857D01*
X155576571Y-73464714D02*
X155262285Y-73464714D01*
X155205142Y-73493285D01*
X155176571Y-73550428D01*
X155176571Y-73636142D01*
X155205142Y-73693285D01*
X155233714Y-73721857D01*
X155490857Y-74207571D02*
X155490857Y-74007571D01*
X155176571Y-74007571D02*
X155776571Y-74007571D01*
X155776571Y-74293285D01*
D10*
X152455619Y-79843333D02*
X152931809Y-79510000D01*
X152455619Y-79271904D02*
X153455619Y-79271904D01*
X153455619Y-79652857D01*
X153408000Y-79748095D01*
X153360380Y-79795714D01*
X153265142Y-79843333D01*
X153122285Y-79843333D01*
X153027047Y-79795714D01*
X152979428Y-79748095D01*
X152931809Y-79652857D01*
X152931809Y-79271904D01*
X152455619Y-80795714D02*
X152455619Y-80224285D01*
X152455619Y-80510000D02*
X153455619Y-80510000D01*
X153312761Y-80414761D01*
X153217523Y-80319523D01*
X153169904Y-80224285D01*
X150409714Y-79920714D02*
X150409714Y-79492142D01*
X150409714Y-79706428D02*
X151159714Y-79706428D01*
X151052571Y-79635000D01*
X150981142Y-79563571D01*
X150945428Y-79492142D01*
X150409714Y-80242142D02*
X151159714Y-80242142D01*
X150695428Y-80313571D02*
X150409714Y-80527857D01*
X150909714Y-80527857D02*
X150624000Y-80242142D01*
M02*
