M48
; DRILL file {KiCad (5.1.9)-1} date 04/27/21 19:19:41
; FORMAT={-:-/ absolute / inch / decimal}
; #@! TF.CreationDate,2021-04-27T19:19:41+01:00
; #@! TF.GenerationSoftware,Kicad,Pcbnew,(5.1.9)-1
; #@! TF.FileFunction,Plated,1,2,PTH
FMAT,2
INCH
T1C0.0118
T2C0.0157
T3C0.0236
T4C0.0315
T5C0.0394
%
G90
G05
T1
X5.345Y-2.8525
X5.3825Y-2.8525
X5.62Y-2.86
X5.7Y-2.86
X5.74Y-2.86
X6.3475Y-3.63
X6.4175Y-3.63
X6.4725Y-3.63
X6.5175Y-3.125
X6.52Y-3.025
X6.5225Y-2.9325
T2
X4.03Y-2.875
X4.03Y-2.975
X4.03Y-3.075
X4.03Y-3.175
X4.03Y-3.325
X4.03Y-3.425
X4.075Y-3.575
X4.09Y-2.91
X4.125Y-2.63
X4.125Y-3.325
X4.13Y-3.15
X4.155Y-2.885
X4.175Y-3.2
X4.175Y-3.575
X4.185Y-3.065
X4.225Y-2.63
X4.25Y-3.045
X4.2579Y-3.2105
X4.3146Y-3.525
X4.315Y-3.01
X4.3202Y-3.2048
X4.325Y-2.63
X4.4Y-2.995
X4.42Y-2.95
X4.425Y-2.63
X4.525Y-2.63
X4.525Y-3.4404
X4.55Y-3.175
X4.5935Y-3.175
X4.595Y-2.89
X4.625Y-2.63
X4.69Y-3.185
X4.695Y-2.885
X4.725Y-2.63
X4.725Y-3.4404
X4.8177Y-3.1973
X4.825Y-2.63
X4.835Y-3.05
X4.87Y-2.945
X4.89Y-3.03
X4.925Y-2.825
X4.925Y-2.63
X4.94Y-3.025
X4.98Y-2.96
X5.025Y-2.63
X5.025Y-3.325
X5.085Y-2.875
X5.09Y-3.0785
X5.095Y-2.925
X5.105Y-2.98
X5.1327Y-3.4223
X5.225Y-3.325
X5.325Y-2.63
X5.37Y-2.925
X5.385Y-3.1
X5.415Y-3.06
X5.42Y-2.935
X5.425Y-2.63
X5.44Y-3.22
X5.4744Y-2.9435
X5.475Y-3.07
X5.525Y-2.63
X5.525Y-3.325
X5.5256Y-2.9484
X5.61Y-2.95
X5.625Y-2.63
X5.715Y-2.92
X5.725Y-2.63
X5.73Y-3.15
X5.765Y-3.115
X5.825Y-2.63
X5.825Y-2.825
X5.825Y-2.96
X5.865Y-3.115
X5.885Y-2.975
X5.925Y-2.63
X5.98Y-3.13
X6.025Y-2.63
X6.125Y-2.63
X6.225Y-2.63
X6.4468Y-3.5782
X6.45Y-2.63
X6.485Y-3.58
X6.535Y-2.63
X6.54Y-3.44
X6.55Y-3.2425
X6.55Y-3.325
T3
X4.485Y-3.125
X5.035Y-3.125
X5.3385Y-3.1765
X5.655Y-3.125
X6.265Y-2.975
X6.335Y-2.94
T4
X4.075Y-2.675
X4.075Y-2.775
X4.075Y-3.275
X4.075Y-3.375
X4.175Y-2.675
X4.175Y-2.775
X4.175Y-3.275
X4.175Y-3.375
X4.275Y-2.675
X4.275Y-2.775
X4.275Y-3.275
X4.275Y-3.375
X4.375Y-2.675
X4.375Y-2.775
X4.375Y-3.275
X4.375Y-3.375
X4.475Y-2.675
X4.475Y-2.775
X4.475Y-3.275
X4.475Y-3.375
X4.575Y-2.675
X4.575Y-2.775
X4.575Y-3.275
X4.575Y-3.375
X4.675Y-2.675
X4.675Y-2.775
X4.675Y-3.275
X4.675Y-3.375
X4.775Y-2.675
X4.775Y-2.775
X4.775Y-3.275
X4.775Y-3.375
X4.875Y-2.675
X4.875Y-2.775
X4.875Y-3.275
X4.875Y-3.375
X4.975Y-2.675
X4.975Y-2.775
X4.975Y-3.275
X4.975Y-3.375
X5.075Y-2.675
X5.075Y-2.775
X5.075Y-3.275
X5.075Y-3.375
X5.175Y-2.675
X5.175Y-2.775
X5.175Y-3.275
X5.175Y-3.375
X5.275Y-2.675
X5.275Y-2.775
X5.275Y-3.275
X5.275Y-3.375
X5.375Y-2.675
X5.375Y-2.775
X5.375Y-3.275
X5.375Y-3.375
X5.475Y-2.675
X5.475Y-2.775
X5.475Y-3.275
X5.475Y-3.375
X5.575Y-2.675
X5.575Y-2.775
X5.575Y-3.275
X5.575Y-3.375
X5.675Y-2.675
X5.675Y-2.775
X5.675Y-3.275
X5.675Y-3.375
X5.775Y-2.675
X5.775Y-2.775
X5.775Y-3.275
X5.775Y-3.375
X5.875Y-2.675
X5.875Y-2.775
X5.875Y-3.275
X5.875Y-3.375
X5.975Y-2.675
X5.975Y-2.775
X5.975Y-3.275
X5.975Y-3.375
X6.075Y-2.675
X6.075Y-2.775
X6.075Y-3.275
X6.075Y-3.375
X6.175Y-2.675
X6.175Y-2.775
X6.175Y-3.275
X6.175Y-3.375
X6.275Y-2.675
X6.275Y-2.775
X6.275Y-3.275
X6.275Y-3.375
X6.375Y-2.675
X6.375Y-2.775
X6.375Y-3.275
X6.375Y-3.375
T5
X4.075Y-3.475
X4.175Y-3.475
X4.275Y-3.475
X4.275Y-3.575
X4.375Y-3.475
X4.375Y-3.575
X4.475Y-3.475
X4.475Y-3.575
X4.575Y-3.475
X4.575Y-3.575
X4.675Y-3.475
X4.675Y-3.575
X4.775Y-3.475
X4.775Y-3.575
X4.875Y-3.475
X4.875Y-3.575
X4.975Y-3.475
X4.975Y-3.575
X5.075Y-3.475
X5.075Y-3.575
X5.175Y-2.875
X5.175Y-2.975
X5.175Y-3.075
X5.175Y-3.475
X5.175Y-3.575
X5.275Y-2.975
X5.275Y-3.075
X5.275Y-3.475
X5.275Y-3.575
X5.375Y-3.475
X5.375Y-3.575
X5.475Y-3.475
X5.475Y-3.575
X5.575Y-3.475
X5.575Y-3.575
X5.675Y-3.475
X5.675Y-3.575
X5.775Y-3.475
X5.775Y-3.575
X5.875Y-3.475
X5.875Y-3.575
X5.975Y-3.475
X5.975Y-3.575
X6.075Y-3.475
X6.075Y-3.575
X6.175Y-3.475
X6.175Y-3.575
X6.475Y-2.875
X6.475Y-2.975
X6.475Y-3.075
X6.475Y-3.175
X6.475Y-3.275
X6.475Y-3.375
T0
M30
