G04 #@! TF.GenerationSoftware,KiCad,Pcbnew,(5.1.9)-1*
G04 #@! TF.CreationDate,2021-04-27T19:28:00+01:00*
G04 #@! TF.ProjectId,RGBtoHDMI Amiga Denise - v2++ Rev 2 by solarmon,52474274-6f48-4444-9d49-20416d696761,v2++ Rev 2*
G04 #@! TF.SameCoordinates,Original*
G04 #@! TF.FileFunction,Soldermask,Top*
G04 #@! TF.FilePolarity,Negative*
%FSLAX46Y46*%
G04 Gerber Fmt 4.6, Leading zero omitted, Abs format (unit mm)*
G04 Created by KiCad (PCBNEW (5.1.9)-1) date 2021-04-27 19:28:00*
%MOMM*%
%LPD*%
G01*
G04 APERTURE LIST*
%ADD10O,2.000000X2.000000*%
%ADD11O,1.900000X1.900000*%
G04 APERTURE END LIST*
D10*
X133985000Y-75565000D03*
G36*
G01*
X132985000Y-78955000D02*
X132985000Y-77255000D01*
G75*
G02*
X133135000Y-77105000I150000J0D01*
G01*
X134835000Y-77105000D01*
G75*
G02*
X134985000Y-77255000I0J-150000D01*
G01*
X134985000Y-78955000D01*
G75*
G02*
X134835000Y-79105000I-150000J0D01*
G01*
X133135000Y-79105000D01*
G75*
G02*
X132985000Y-78955000I0J150000D01*
G01*
G37*
G36*
G01*
X166677171Y-89616000D02*
X165554829Y-89616000D01*
G75*
G02*
X165241000Y-89302171I0J313829D01*
G01*
X165241000Y-88454829D01*
G75*
G02*
X165554829Y-88141000I313829J0D01*
G01*
X166677171Y-88141000D01*
G75*
G02*
X166991000Y-88454829I0J-313829D01*
G01*
X166991000Y-89302171D01*
G75*
G02*
X166677171Y-89616000I-313829J0D01*
G01*
G37*
G36*
G01*
X166677171Y-91691000D02*
X165554829Y-91691000D01*
G75*
G02*
X165241000Y-91377171I0J313829D01*
G01*
X165241000Y-90529829D01*
G75*
G02*
X165554829Y-90216000I313829J0D01*
G01*
X166677171Y-90216000D01*
G75*
G02*
X166991000Y-90529829I0J-313829D01*
G01*
X166991000Y-91377171D01*
G75*
G02*
X166677171Y-91691000I-313829J0D01*
G01*
G37*
G36*
G01*
X152065000Y-76126171D02*
X152065000Y-75003829D01*
G75*
G02*
X152378829Y-74690000I313829J0D01*
G01*
X153226171Y-74690000D01*
G75*
G02*
X153540000Y-75003829I0J-313829D01*
G01*
X153540000Y-76126171D01*
G75*
G02*
X153226171Y-76440000I-313829J0D01*
G01*
X152378829Y-76440000D01*
G75*
G02*
X152065000Y-76126171I0J313829D01*
G01*
G37*
G36*
G01*
X149990000Y-76126171D02*
X149990000Y-75003829D01*
G75*
G02*
X150303829Y-74690000I313829J0D01*
G01*
X151151171Y-74690000D01*
G75*
G02*
X151465000Y-75003829I0J-313829D01*
G01*
X151465000Y-76126171D01*
G75*
G02*
X151151171Y-76440000I-313829J0D01*
G01*
X150303829Y-76440000D01*
G75*
G02*
X149990000Y-76126171I0J313829D01*
G01*
G37*
D11*
X103505000Y-85725000D03*
X106045000Y-85725000D03*
X108585000Y-85725000D03*
X111125000Y-85725000D03*
X113665000Y-85725000D03*
X116205000Y-85725000D03*
X118745000Y-85725000D03*
X121285000Y-85725000D03*
X123825000Y-85725000D03*
X126365000Y-85725000D03*
X128905000Y-85725000D03*
X131445000Y-85725000D03*
X133985000Y-85725000D03*
X136525000Y-85725000D03*
X139065000Y-85725000D03*
X141605000Y-85725000D03*
X144145000Y-85725000D03*
X146685000Y-85725000D03*
X149225000Y-85725000D03*
X151765000Y-85725000D03*
X154305000Y-85725000D03*
X156845000Y-85725000D03*
X159385000Y-85725000D03*
G36*
G01*
X162725000Y-86675000D02*
X161125000Y-86675000D01*
G75*
G02*
X160975000Y-86525000I0J150000D01*
G01*
X160975000Y-84925000D01*
G75*
G02*
X161125000Y-84775000I150000J0D01*
G01*
X162725000Y-84775000D01*
G75*
G02*
X162875000Y-84925000I0J-150000D01*
G01*
X162875000Y-86525000D01*
G75*
G02*
X162725000Y-86675000I-150000J0D01*
G01*
G37*
X103505000Y-70485000D03*
X106045000Y-70485000D03*
X108585000Y-70485000D03*
X111125000Y-70485000D03*
X113665000Y-70485000D03*
X116205000Y-70485000D03*
X118745000Y-70485000D03*
X121285000Y-70485000D03*
X123825000Y-70485000D03*
X126365000Y-70485000D03*
X128905000Y-70485000D03*
X131445000Y-70485000D03*
X133985000Y-70485000D03*
X136525000Y-70485000D03*
X139065000Y-70485000D03*
X141605000Y-70485000D03*
X144145000Y-70485000D03*
X146685000Y-70485000D03*
X149225000Y-70485000D03*
X151765000Y-70485000D03*
X154305000Y-70485000D03*
X156845000Y-70485000D03*
X159385000Y-70485000D03*
G36*
G01*
X162725000Y-71435000D02*
X161125000Y-71435000D01*
G75*
G02*
X160975000Y-71285000I0J150000D01*
G01*
X160975000Y-69685000D01*
G75*
G02*
X161125000Y-69535000I150000J0D01*
G01*
X162725000Y-69535000D01*
G75*
G02*
X162875000Y-69685000I0J-150000D01*
G01*
X162875000Y-71285000D01*
G75*
G02*
X162725000Y-71435000I-150000J0D01*
G01*
G37*
D10*
X164465000Y-85725000D03*
X164465000Y-83185000D03*
X164465000Y-80645000D03*
X164465000Y-78105000D03*
X164465000Y-75565000D03*
G36*
G01*
X163465000Y-73875000D02*
X163465000Y-72175000D01*
G75*
G02*
X163615000Y-72025000I150000J0D01*
G01*
X165315000Y-72025000D01*
G75*
G02*
X165465000Y-72175000I0J-150000D01*
G01*
X165465000Y-73875000D01*
G75*
G02*
X165315000Y-74025000I-150000J0D01*
G01*
X163615000Y-74025000D01*
G75*
G02*
X163465000Y-73875000I0J150000D01*
G01*
G37*
G36*
G01*
X163245000Y-90360000D02*
X163245000Y-91410000D01*
G75*
G02*
X163175000Y-91480000I-70000J0D01*
G01*
X162575000Y-91480000D01*
G75*
G02*
X162505000Y-91410000I0J70000D01*
G01*
X162505000Y-90360000D01*
G75*
G02*
X162575000Y-90290000I70000J0D01*
G01*
X163175000Y-90290000D01*
G75*
G02*
X163245000Y-90360000I0J-70000D01*
G01*
G37*
G36*
G01*
X161345000Y-90360000D02*
X161345000Y-91410000D01*
G75*
G02*
X161275000Y-91480000I-70000J0D01*
G01*
X160675000Y-91480000D01*
G75*
G02*
X160605000Y-91410000I0J70000D01*
G01*
X160605000Y-90360000D01*
G75*
G02*
X160675000Y-90290000I70000J0D01*
G01*
X161275000Y-90290000D01*
G75*
G02*
X161345000Y-90360000I0J-70000D01*
G01*
G37*
G36*
G01*
X161345000Y-87660000D02*
X161345000Y-88710000D01*
G75*
G02*
X161275000Y-88780000I-70000J0D01*
G01*
X160675000Y-88780000D01*
G75*
G02*
X160605000Y-88710000I0J70000D01*
G01*
X160605000Y-87660000D01*
G75*
G02*
X160675000Y-87590000I70000J0D01*
G01*
X161275000Y-87590000D01*
G75*
G02*
X161345000Y-87660000I0J-70000D01*
G01*
G37*
G36*
G01*
X162295000Y-87660000D02*
X162295000Y-88710000D01*
G75*
G02*
X162225000Y-88780000I-70000J0D01*
G01*
X161625000Y-88780000D01*
G75*
G02*
X161555000Y-88710000I0J70000D01*
G01*
X161555000Y-87660000D01*
G75*
G02*
X161625000Y-87590000I70000J0D01*
G01*
X162225000Y-87590000D01*
G75*
G02*
X162295000Y-87660000I0J-70000D01*
G01*
G37*
G36*
G01*
X163245000Y-87660000D02*
X163245000Y-88710000D01*
G75*
G02*
X163175000Y-88780000I-70000J0D01*
G01*
X162575000Y-88780000D01*
G75*
G02*
X162505000Y-88710000I0J70000D01*
G01*
X162505000Y-87660000D01*
G75*
G02*
X162575000Y-87590000I70000J0D01*
G01*
X163175000Y-87590000D01*
G75*
G02*
X163245000Y-87660000I0J-70000D01*
G01*
G37*
G36*
G01*
X166289000Y-69749784D02*
X166289000Y-68680216D01*
G75*
G02*
X166604216Y-68365000I315216J0D01*
G01*
X167423784Y-68365000D01*
G75*
G02*
X167739000Y-68680216I0J-315216D01*
G01*
X167739000Y-69749784D01*
G75*
G02*
X167423784Y-70065000I-315216J0D01*
G01*
X166604216Y-70065000D01*
G75*
G02*
X166289000Y-69749784I0J315216D01*
G01*
G37*
G36*
G01*
X164239000Y-69749784D02*
X164239000Y-68680216D01*
G75*
G02*
X164554216Y-68365000I315216J0D01*
G01*
X165373784Y-68365000D01*
G75*
G02*
X165689000Y-68680216I0J-315216D01*
G01*
X165689000Y-69749784D01*
G75*
G02*
X165373784Y-70065000I-315216J0D01*
G01*
X164554216Y-70065000D01*
G75*
G02*
X164239000Y-69749784I0J315216D01*
G01*
G37*
G36*
G01*
X156764000Y-78639784D02*
X156764000Y-77570216D01*
G75*
G02*
X157079216Y-77255000I315216J0D01*
G01*
X157898784Y-77255000D01*
G75*
G02*
X158214000Y-77570216I0J-315216D01*
G01*
X158214000Y-78639784D01*
G75*
G02*
X157898784Y-78955000I-315216J0D01*
G01*
X157079216Y-78955000D01*
G75*
G02*
X156764000Y-78639784I0J315216D01*
G01*
G37*
G36*
G01*
X154714000Y-78639784D02*
X154714000Y-77570216D01*
G75*
G02*
X155029216Y-77255000I315216J0D01*
G01*
X155848784Y-77255000D01*
G75*
G02*
X156164000Y-77570216I0J-315216D01*
G01*
X156164000Y-78639784D01*
G75*
G02*
X155848784Y-78955000I-315216J0D01*
G01*
X155029216Y-78955000D01*
G75*
G02*
X154714000Y-78639784I0J315216D01*
G01*
G37*
G36*
G01*
X114453784Y-75900000D02*
X113384216Y-75900000D01*
G75*
G02*
X113069000Y-75584784I0J315216D01*
G01*
X113069000Y-74765216D01*
G75*
G02*
X113384216Y-74450000I315216J0D01*
G01*
X114453784Y-74450000D01*
G75*
G02*
X114769000Y-74765216I0J-315216D01*
G01*
X114769000Y-75584784D01*
G75*
G02*
X114453784Y-75900000I-315216J0D01*
G01*
G37*
G36*
G01*
X114453784Y-77950000D02*
X113384216Y-77950000D01*
G75*
G02*
X113069000Y-77634784I0J315216D01*
G01*
X113069000Y-76815216D01*
G75*
G02*
X113384216Y-76500000I315216J0D01*
G01*
X114453784Y-76500000D01*
G75*
G02*
X114769000Y-76815216I0J-315216D01*
G01*
X114769000Y-77634784D01*
G75*
G02*
X114453784Y-77950000I-315216J0D01*
G01*
G37*
G36*
G01*
X128423784Y-75900000D02*
X127354216Y-75900000D01*
G75*
G02*
X127039000Y-75584784I0J315216D01*
G01*
X127039000Y-74765216D01*
G75*
G02*
X127354216Y-74450000I315216J0D01*
G01*
X128423784Y-74450000D01*
G75*
G02*
X128739000Y-74765216I0J-315216D01*
G01*
X128739000Y-75584784D01*
G75*
G02*
X128423784Y-75900000I-315216J0D01*
G01*
G37*
G36*
G01*
X128423784Y-77950000D02*
X127354216Y-77950000D01*
G75*
G02*
X127039000Y-77634784I0J315216D01*
G01*
X127039000Y-76815216D01*
G75*
G02*
X127354216Y-76500000I315216J0D01*
G01*
X128423784Y-76500000D01*
G75*
G02*
X128739000Y-76815216I0J-315216D01*
G01*
X128739000Y-77634784D01*
G75*
G02*
X128423784Y-77950000I-315216J0D01*
G01*
G37*
G36*
G01*
X144171784Y-75655000D02*
X143102216Y-75655000D01*
G75*
G02*
X142787000Y-75339784I0J315216D01*
G01*
X142787000Y-74520216D01*
G75*
G02*
X143102216Y-74205000I315216J0D01*
G01*
X144171784Y-74205000D01*
G75*
G02*
X144487000Y-74520216I0J-315216D01*
G01*
X144487000Y-75339784D01*
G75*
G02*
X144171784Y-75655000I-315216J0D01*
G01*
G37*
G36*
G01*
X144171784Y-77705000D02*
X143102216Y-77705000D01*
G75*
G02*
X142787000Y-77389784I0J315216D01*
G01*
X142787000Y-76570216D01*
G75*
G02*
X143102216Y-76255000I315216J0D01*
G01*
X144171784Y-76255000D01*
G75*
G02*
X144487000Y-76570216I0J-315216D01*
G01*
X144487000Y-77389784D01*
G75*
G02*
X144171784Y-77705000I-315216J0D01*
G01*
G37*
G36*
G01*
X141425000Y-72375000D02*
X141875000Y-72375000D01*
G75*
G02*
X142025000Y-72525000I0J-150000D01*
G01*
X142025000Y-73975000D01*
G75*
G02*
X141875000Y-74125000I-150000J0D01*
G01*
X141425000Y-74125000D01*
G75*
G02*
X141275000Y-73975000I0J150000D01*
G01*
X141275000Y-72525000D01*
G75*
G02*
X141425000Y-72375000I150000J0D01*
G01*
G37*
G36*
G01*
X140775000Y-72375000D02*
X141225000Y-72375000D01*
G75*
G02*
X141375000Y-72525000I0J-150000D01*
G01*
X141375000Y-73975000D01*
G75*
G02*
X141225000Y-74125000I-150000J0D01*
G01*
X140775000Y-74125000D01*
G75*
G02*
X140625000Y-73975000I0J150000D01*
G01*
X140625000Y-72525000D01*
G75*
G02*
X140775000Y-72375000I150000J0D01*
G01*
G37*
G36*
G01*
X140125000Y-72375000D02*
X140575000Y-72375000D01*
G75*
G02*
X140725000Y-72525000I0J-150000D01*
G01*
X140725000Y-73975000D01*
G75*
G02*
X140575000Y-74125000I-150000J0D01*
G01*
X140125000Y-74125000D01*
G75*
G02*
X139975000Y-73975000I0J150000D01*
G01*
X139975000Y-72525000D01*
G75*
G02*
X140125000Y-72375000I150000J0D01*
G01*
G37*
G36*
G01*
X139475000Y-72375000D02*
X139925000Y-72375000D01*
G75*
G02*
X140075000Y-72525000I0J-150000D01*
G01*
X140075000Y-73975000D01*
G75*
G02*
X139925000Y-74125000I-150000J0D01*
G01*
X139475000Y-74125000D01*
G75*
G02*
X139325000Y-73975000I0J150000D01*
G01*
X139325000Y-72525000D01*
G75*
G02*
X139475000Y-72375000I150000J0D01*
G01*
G37*
G36*
G01*
X138825000Y-72375000D02*
X139275000Y-72375000D01*
G75*
G02*
X139425000Y-72525000I0J-150000D01*
G01*
X139425000Y-73975000D01*
G75*
G02*
X139275000Y-74125000I-150000J0D01*
G01*
X138825000Y-74125000D01*
G75*
G02*
X138675000Y-73975000I0J150000D01*
G01*
X138675000Y-72525000D01*
G75*
G02*
X138825000Y-72375000I150000J0D01*
G01*
G37*
G36*
G01*
X138175000Y-72375000D02*
X138625000Y-72375000D01*
G75*
G02*
X138775000Y-72525000I0J-150000D01*
G01*
X138775000Y-73975000D01*
G75*
G02*
X138625000Y-74125000I-150000J0D01*
G01*
X138175000Y-74125000D01*
G75*
G02*
X138025000Y-73975000I0J150000D01*
G01*
X138025000Y-72525000D01*
G75*
G02*
X138175000Y-72375000I150000J0D01*
G01*
G37*
G36*
G01*
X137525000Y-72375000D02*
X137975000Y-72375000D01*
G75*
G02*
X138125000Y-72525000I0J-150000D01*
G01*
X138125000Y-73975000D01*
G75*
G02*
X137975000Y-74125000I-150000J0D01*
G01*
X137525000Y-74125000D01*
G75*
G02*
X137375000Y-73975000I0J150000D01*
G01*
X137375000Y-72525000D01*
G75*
G02*
X137525000Y-72375000I150000J0D01*
G01*
G37*
G36*
G01*
X137525000Y-78275000D02*
X137975000Y-78275000D01*
G75*
G02*
X138125000Y-78425000I0J-150000D01*
G01*
X138125000Y-79875000D01*
G75*
G02*
X137975000Y-80025000I-150000J0D01*
G01*
X137525000Y-80025000D01*
G75*
G02*
X137375000Y-79875000I0J150000D01*
G01*
X137375000Y-78425000D01*
G75*
G02*
X137525000Y-78275000I150000J0D01*
G01*
G37*
G36*
G01*
X138175000Y-78275000D02*
X138625000Y-78275000D01*
G75*
G02*
X138775000Y-78425000I0J-150000D01*
G01*
X138775000Y-79875000D01*
G75*
G02*
X138625000Y-80025000I-150000J0D01*
G01*
X138175000Y-80025000D01*
G75*
G02*
X138025000Y-79875000I0J150000D01*
G01*
X138025000Y-78425000D01*
G75*
G02*
X138175000Y-78275000I150000J0D01*
G01*
G37*
G36*
G01*
X138825000Y-78275000D02*
X139275000Y-78275000D01*
G75*
G02*
X139425000Y-78425000I0J-150000D01*
G01*
X139425000Y-79875000D01*
G75*
G02*
X139275000Y-80025000I-150000J0D01*
G01*
X138825000Y-80025000D01*
G75*
G02*
X138675000Y-79875000I0J150000D01*
G01*
X138675000Y-78425000D01*
G75*
G02*
X138825000Y-78275000I150000J0D01*
G01*
G37*
G36*
G01*
X139475000Y-78275000D02*
X139925000Y-78275000D01*
G75*
G02*
X140075000Y-78425000I0J-150000D01*
G01*
X140075000Y-79875000D01*
G75*
G02*
X139925000Y-80025000I-150000J0D01*
G01*
X139475000Y-80025000D01*
G75*
G02*
X139325000Y-79875000I0J150000D01*
G01*
X139325000Y-78425000D01*
G75*
G02*
X139475000Y-78275000I150000J0D01*
G01*
G37*
G36*
G01*
X140125000Y-78275000D02*
X140575000Y-78275000D01*
G75*
G02*
X140725000Y-78425000I0J-150000D01*
G01*
X140725000Y-79875000D01*
G75*
G02*
X140575000Y-80025000I-150000J0D01*
G01*
X140125000Y-80025000D01*
G75*
G02*
X139975000Y-79875000I0J150000D01*
G01*
X139975000Y-78425000D01*
G75*
G02*
X140125000Y-78275000I150000J0D01*
G01*
G37*
G36*
G01*
X140775000Y-78275000D02*
X141225000Y-78275000D01*
G75*
G02*
X141375000Y-78425000I0J-150000D01*
G01*
X141375000Y-79875000D01*
G75*
G02*
X141225000Y-80025000I-150000J0D01*
G01*
X140775000Y-80025000D01*
G75*
G02*
X140625000Y-79875000I0J150000D01*
G01*
X140625000Y-78425000D01*
G75*
G02*
X140775000Y-78275000I150000J0D01*
G01*
G37*
G36*
G01*
X141425000Y-78275000D02*
X141875000Y-78275000D01*
G75*
G02*
X142025000Y-78425000I0J-150000D01*
G01*
X142025000Y-79875000D01*
G75*
G02*
X141875000Y-80025000I-150000J0D01*
G01*
X141425000Y-80025000D01*
G75*
G02*
X141275000Y-79875000I0J150000D01*
G01*
X141275000Y-78425000D01*
G75*
G02*
X141425000Y-78275000I150000J0D01*
G01*
G37*
G36*
G01*
X125890000Y-78275000D02*
X126340000Y-78275000D01*
G75*
G02*
X126490000Y-78425000I0J-150000D01*
G01*
X126490000Y-79875000D01*
G75*
G02*
X126340000Y-80025000I-150000J0D01*
G01*
X125890000Y-80025000D01*
G75*
G02*
X125740000Y-79875000I0J150000D01*
G01*
X125740000Y-78425000D01*
G75*
G02*
X125890000Y-78275000I150000J0D01*
G01*
G37*
G36*
G01*
X125240000Y-78275000D02*
X125690000Y-78275000D01*
G75*
G02*
X125840000Y-78425000I0J-150000D01*
G01*
X125840000Y-79875000D01*
G75*
G02*
X125690000Y-80025000I-150000J0D01*
G01*
X125240000Y-80025000D01*
G75*
G02*
X125090000Y-79875000I0J150000D01*
G01*
X125090000Y-78425000D01*
G75*
G02*
X125240000Y-78275000I150000J0D01*
G01*
G37*
G36*
G01*
X124590000Y-78275000D02*
X125040000Y-78275000D01*
G75*
G02*
X125190000Y-78425000I0J-150000D01*
G01*
X125190000Y-79875000D01*
G75*
G02*
X125040000Y-80025000I-150000J0D01*
G01*
X124590000Y-80025000D01*
G75*
G02*
X124440000Y-79875000I0J150000D01*
G01*
X124440000Y-78425000D01*
G75*
G02*
X124590000Y-78275000I150000J0D01*
G01*
G37*
G36*
G01*
X123940000Y-78275000D02*
X124390000Y-78275000D01*
G75*
G02*
X124540000Y-78425000I0J-150000D01*
G01*
X124540000Y-79875000D01*
G75*
G02*
X124390000Y-80025000I-150000J0D01*
G01*
X123940000Y-80025000D01*
G75*
G02*
X123790000Y-79875000I0J150000D01*
G01*
X123790000Y-78425000D01*
G75*
G02*
X123940000Y-78275000I150000J0D01*
G01*
G37*
G36*
G01*
X123290000Y-78275000D02*
X123740000Y-78275000D01*
G75*
G02*
X123890000Y-78425000I0J-150000D01*
G01*
X123890000Y-79875000D01*
G75*
G02*
X123740000Y-80025000I-150000J0D01*
G01*
X123290000Y-80025000D01*
G75*
G02*
X123140000Y-79875000I0J150000D01*
G01*
X123140000Y-78425000D01*
G75*
G02*
X123290000Y-78275000I150000J0D01*
G01*
G37*
G36*
G01*
X122640000Y-78275000D02*
X123090000Y-78275000D01*
G75*
G02*
X123240000Y-78425000I0J-150000D01*
G01*
X123240000Y-79875000D01*
G75*
G02*
X123090000Y-80025000I-150000J0D01*
G01*
X122640000Y-80025000D01*
G75*
G02*
X122490000Y-79875000I0J150000D01*
G01*
X122490000Y-78425000D01*
G75*
G02*
X122640000Y-78275000I150000J0D01*
G01*
G37*
G36*
G01*
X121990000Y-78275000D02*
X122440000Y-78275000D01*
G75*
G02*
X122590000Y-78425000I0J-150000D01*
G01*
X122590000Y-79875000D01*
G75*
G02*
X122440000Y-80025000I-150000J0D01*
G01*
X121990000Y-80025000D01*
G75*
G02*
X121840000Y-79875000I0J150000D01*
G01*
X121840000Y-78425000D01*
G75*
G02*
X121990000Y-78275000I150000J0D01*
G01*
G37*
G36*
G01*
X121340000Y-78275000D02*
X121790000Y-78275000D01*
G75*
G02*
X121940000Y-78425000I0J-150000D01*
G01*
X121940000Y-79875000D01*
G75*
G02*
X121790000Y-80025000I-150000J0D01*
G01*
X121340000Y-80025000D01*
G75*
G02*
X121190000Y-79875000I0J150000D01*
G01*
X121190000Y-78425000D01*
G75*
G02*
X121340000Y-78275000I150000J0D01*
G01*
G37*
G36*
G01*
X120690000Y-78275000D02*
X121140000Y-78275000D01*
G75*
G02*
X121290000Y-78425000I0J-150000D01*
G01*
X121290000Y-79875000D01*
G75*
G02*
X121140000Y-80025000I-150000J0D01*
G01*
X120690000Y-80025000D01*
G75*
G02*
X120540000Y-79875000I0J150000D01*
G01*
X120540000Y-78425000D01*
G75*
G02*
X120690000Y-78275000I150000J0D01*
G01*
G37*
G36*
G01*
X120040000Y-78275000D02*
X120490000Y-78275000D01*
G75*
G02*
X120640000Y-78425000I0J-150000D01*
G01*
X120640000Y-79875000D01*
G75*
G02*
X120490000Y-80025000I-150000J0D01*
G01*
X120040000Y-80025000D01*
G75*
G02*
X119890000Y-79875000I0J150000D01*
G01*
X119890000Y-78425000D01*
G75*
G02*
X120040000Y-78275000I150000J0D01*
G01*
G37*
G36*
G01*
X120040000Y-72375000D02*
X120490000Y-72375000D01*
G75*
G02*
X120640000Y-72525000I0J-150000D01*
G01*
X120640000Y-73975000D01*
G75*
G02*
X120490000Y-74125000I-150000J0D01*
G01*
X120040000Y-74125000D01*
G75*
G02*
X119890000Y-73975000I0J150000D01*
G01*
X119890000Y-72525000D01*
G75*
G02*
X120040000Y-72375000I150000J0D01*
G01*
G37*
G36*
G01*
X120690000Y-72375000D02*
X121140000Y-72375000D01*
G75*
G02*
X121290000Y-72525000I0J-150000D01*
G01*
X121290000Y-73975000D01*
G75*
G02*
X121140000Y-74125000I-150000J0D01*
G01*
X120690000Y-74125000D01*
G75*
G02*
X120540000Y-73975000I0J150000D01*
G01*
X120540000Y-72525000D01*
G75*
G02*
X120690000Y-72375000I150000J0D01*
G01*
G37*
G36*
G01*
X121340000Y-72375000D02*
X121790000Y-72375000D01*
G75*
G02*
X121940000Y-72525000I0J-150000D01*
G01*
X121940000Y-73975000D01*
G75*
G02*
X121790000Y-74125000I-150000J0D01*
G01*
X121340000Y-74125000D01*
G75*
G02*
X121190000Y-73975000I0J150000D01*
G01*
X121190000Y-72525000D01*
G75*
G02*
X121340000Y-72375000I150000J0D01*
G01*
G37*
G36*
G01*
X121990000Y-72375000D02*
X122440000Y-72375000D01*
G75*
G02*
X122590000Y-72525000I0J-150000D01*
G01*
X122590000Y-73975000D01*
G75*
G02*
X122440000Y-74125000I-150000J0D01*
G01*
X121990000Y-74125000D01*
G75*
G02*
X121840000Y-73975000I0J150000D01*
G01*
X121840000Y-72525000D01*
G75*
G02*
X121990000Y-72375000I150000J0D01*
G01*
G37*
G36*
G01*
X122640000Y-72375000D02*
X123090000Y-72375000D01*
G75*
G02*
X123240000Y-72525000I0J-150000D01*
G01*
X123240000Y-73975000D01*
G75*
G02*
X123090000Y-74125000I-150000J0D01*
G01*
X122640000Y-74125000D01*
G75*
G02*
X122490000Y-73975000I0J150000D01*
G01*
X122490000Y-72525000D01*
G75*
G02*
X122640000Y-72375000I150000J0D01*
G01*
G37*
G36*
G01*
X123290000Y-72375000D02*
X123740000Y-72375000D01*
G75*
G02*
X123890000Y-72525000I0J-150000D01*
G01*
X123890000Y-73975000D01*
G75*
G02*
X123740000Y-74125000I-150000J0D01*
G01*
X123290000Y-74125000D01*
G75*
G02*
X123140000Y-73975000I0J150000D01*
G01*
X123140000Y-72525000D01*
G75*
G02*
X123290000Y-72375000I150000J0D01*
G01*
G37*
G36*
G01*
X123940000Y-72375000D02*
X124390000Y-72375000D01*
G75*
G02*
X124540000Y-72525000I0J-150000D01*
G01*
X124540000Y-73975000D01*
G75*
G02*
X124390000Y-74125000I-150000J0D01*
G01*
X123940000Y-74125000D01*
G75*
G02*
X123790000Y-73975000I0J150000D01*
G01*
X123790000Y-72525000D01*
G75*
G02*
X123940000Y-72375000I150000J0D01*
G01*
G37*
G36*
G01*
X124590000Y-72375000D02*
X125040000Y-72375000D01*
G75*
G02*
X125190000Y-72525000I0J-150000D01*
G01*
X125190000Y-73975000D01*
G75*
G02*
X125040000Y-74125000I-150000J0D01*
G01*
X124590000Y-74125000D01*
G75*
G02*
X124440000Y-73975000I0J150000D01*
G01*
X124440000Y-72525000D01*
G75*
G02*
X124590000Y-72375000I150000J0D01*
G01*
G37*
G36*
G01*
X125240000Y-72375000D02*
X125690000Y-72375000D01*
G75*
G02*
X125840000Y-72525000I0J-150000D01*
G01*
X125840000Y-73975000D01*
G75*
G02*
X125690000Y-74125000I-150000J0D01*
G01*
X125240000Y-74125000D01*
G75*
G02*
X125090000Y-73975000I0J150000D01*
G01*
X125090000Y-72525000D01*
G75*
G02*
X125240000Y-72375000I150000J0D01*
G01*
G37*
G36*
G01*
X125890000Y-72375000D02*
X126340000Y-72375000D01*
G75*
G02*
X126490000Y-72525000I0J-150000D01*
G01*
X126490000Y-73975000D01*
G75*
G02*
X126340000Y-74125000I-150000J0D01*
G01*
X125890000Y-74125000D01*
G75*
G02*
X125740000Y-73975000I0J150000D01*
G01*
X125740000Y-72525000D01*
G75*
G02*
X125890000Y-72375000I150000J0D01*
G01*
G37*
G36*
G01*
X111920000Y-72375000D02*
X112370000Y-72375000D01*
G75*
G02*
X112520000Y-72525000I0J-150000D01*
G01*
X112520000Y-73975000D01*
G75*
G02*
X112370000Y-74125000I-150000J0D01*
G01*
X111920000Y-74125000D01*
G75*
G02*
X111770000Y-73975000I0J150000D01*
G01*
X111770000Y-72525000D01*
G75*
G02*
X111920000Y-72375000I150000J0D01*
G01*
G37*
G36*
G01*
X111270000Y-72375000D02*
X111720000Y-72375000D01*
G75*
G02*
X111870000Y-72525000I0J-150000D01*
G01*
X111870000Y-73975000D01*
G75*
G02*
X111720000Y-74125000I-150000J0D01*
G01*
X111270000Y-74125000D01*
G75*
G02*
X111120000Y-73975000I0J150000D01*
G01*
X111120000Y-72525000D01*
G75*
G02*
X111270000Y-72375000I150000J0D01*
G01*
G37*
G36*
G01*
X110620000Y-72375000D02*
X111070000Y-72375000D01*
G75*
G02*
X111220000Y-72525000I0J-150000D01*
G01*
X111220000Y-73975000D01*
G75*
G02*
X111070000Y-74125000I-150000J0D01*
G01*
X110620000Y-74125000D01*
G75*
G02*
X110470000Y-73975000I0J150000D01*
G01*
X110470000Y-72525000D01*
G75*
G02*
X110620000Y-72375000I150000J0D01*
G01*
G37*
G36*
G01*
X109970000Y-72375000D02*
X110420000Y-72375000D01*
G75*
G02*
X110570000Y-72525000I0J-150000D01*
G01*
X110570000Y-73975000D01*
G75*
G02*
X110420000Y-74125000I-150000J0D01*
G01*
X109970000Y-74125000D01*
G75*
G02*
X109820000Y-73975000I0J150000D01*
G01*
X109820000Y-72525000D01*
G75*
G02*
X109970000Y-72375000I150000J0D01*
G01*
G37*
G36*
G01*
X109320000Y-72375000D02*
X109770000Y-72375000D01*
G75*
G02*
X109920000Y-72525000I0J-150000D01*
G01*
X109920000Y-73975000D01*
G75*
G02*
X109770000Y-74125000I-150000J0D01*
G01*
X109320000Y-74125000D01*
G75*
G02*
X109170000Y-73975000I0J150000D01*
G01*
X109170000Y-72525000D01*
G75*
G02*
X109320000Y-72375000I150000J0D01*
G01*
G37*
G36*
G01*
X108670000Y-72375000D02*
X109120000Y-72375000D01*
G75*
G02*
X109270000Y-72525000I0J-150000D01*
G01*
X109270000Y-73975000D01*
G75*
G02*
X109120000Y-74125000I-150000J0D01*
G01*
X108670000Y-74125000D01*
G75*
G02*
X108520000Y-73975000I0J150000D01*
G01*
X108520000Y-72525000D01*
G75*
G02*
X108670000Y-72375000I150000J0D01*
G01*
G37*
G36*
G01*
X108020000Y-72375000D02*
X108470000Y-72375000D01*
G75*
G02*
X108620000Y-72525000I0J-150000D01*
G01*
X108620000Y-73975000D01*
G75*
G02*
X108470000Y-74125000I-150000J0D01*
G01*
X108020000Y-74125000D01*
G75*
G02*
X107870000Y-73975000I0J150000D01*
G01*
X107870000Y-72525000D01*
G75*
G02*
X108020000Y-72375000I150000J0D01*
G01*
G37*
G36*
G01*
X107370000Y-72375000D02*
X107820000Y-72375000D01*
G75*
G02*
X107970000Y-72525000I0J-150000D01*
G01*
X107970000Y-73975000D01*
G75*
G02*
X107820000Y-74125000I-150000J0D01*
G01*
X107370000Y-74125000D01*
G75*
G02*
X107220000Y-73975000I0J150000D01*
G01*
X107220000Y-72525000D01*
G75*
G02*
X107370000Y-72375000I150000J0D01*
G01*
G37*
G36*
G01*
X106720000Y-72375000D02*
X107170000Y-72375000D01*
G75*
G02*
X107320000Y-72525000I0J-150000D01*
G01*
X107320000Y-73975000D01*
G75*
G02*
X107170000Y-74125000I-150000J0D01*
G01*
X106720000Y-74125000D01*
G75*
G02*
X106570000Y-73975000I0J150000D01*
G01*
X106570000Y-72525000D01*
G75*
G02*
X106720000Y-72375000I150000J0D01*
G01*
G37*
G36*
G01*
X106070000Y-72375000D02*
X106520000Y-72375000D01*
G75*
G02*
X106670000Y-72525000I0J-150000D01*
G01*
X106670000Y-73975000D01*
G75*
G02*
X106520000Y-74125000I-150000J0D01*
G01*
X106070000Y-74125000D01*
G75*
G02*
X105920000Y-73975000I0J150000D01*
G01*
X105920000Y-72525000D01*
G75*
G02*
X106070000Y-72375000I150000J0D01*
G01*
G37*
G36*
G01*
X106070000Y-78275000D02*
X106520000Y-78275000D01*
G75*
G02*
X106670000Y-78425000I0J-150000D01*
G01*
X106670000Y-79875000D01*
G75*
G02*
X106520000Y-80025000I-150000J0D01*
G01*
X106070000Y-80025000D01*
G75*
G02*
X105920000Y-79875000I0J150000D01*
G01*
X105920000Y-78425000D01*
G75*
G02*
X106070000Y-78275000I150000J0D01*
G01*
G37*
G36*
G01*
X106720000Y-78275000D02*
X107170000Y-78275000D01*
G75*
G02*
X107320000Y-78425000I0J-150000D01*
G01*
X107320000Y-79875000D01*
G75*
G02*
X107170000Y-80025000I-150000J0D01*
G01*
X106720000Y-80025000D01*
G75*
G02*
X106570000Y-79875000I0J150000D01*
G01*
X106570000Y-78425000D01*
G75*
G02*
X106720000Y-78275000I150000J0D01*
G01*
G37*
G36*
G01*
X107370000Y-78275000D02*
X107820000Y-78275000D01*
G75*
G02*
X107970000Y-78425000I0J-150000D01*
G01*
X107970000Y-79875000D01*
G75*
G02*
X107820000Y-80025000I-150000J0D01*
G01*
X107370000Y-80025000D01*
G75*
G02*
X107220000Y-79875000I0J150000D01*
G01*
X107220000Y-78425000D01*
G75*
G02*
X107370000Y-78275000I150000J0D01*
G01*
G37*
G36*
G01*
X108020000Y-78275000D02*
X108470000Y-78275000D01*
G75*
G02*
X108620000Y-78425000I0J-150000D01*
G01*
X108620000Y-79875000D01*
G75*
G02*
X108470000Y-80025000I-150000J0D01*
G01*
X108020000Y-80025000D01*
G75*
G02*
X107870000Y-79875000I0J150000D01*
G01*
X107870000Y-78425000D01*
G75*
G02*
X108020000Y-78275000I150000J0D01*
G01*
G37*
G36*
G01*
X108670000Y-78275000D02*
X109120000Y-78275000D01*
G75*
G02*
X109270000Y-78425000I0J-150000D01*
G01*
X109270000Y-79875000D01*
G75*
G02*
X109120000Y-80025000I-150000J0D01*
G01*
X108670000Y-80025000D01*
G75*
G02*
X108520000Y-79875000I0J150000D01*
G01*
X108520000Y-78425000D01*
G75*
G02*
X108670000Y-78275000I150000J0D01*
G01*
G37*
G36*
G01*
X109320000Y-78275000D02*
X109770000Y-78275000D01*
G75*
G02*
X109920000Y-78425000I0J-150000D01*
G01*
X109920000Y-79875000D01*
G75*
G02*
X109770000Y-80025000I-150000J0D01*
G01*
X109320000Y-80025000D01*
G75*
G02*
X109170000Y-79875000I0J150000D01*
G01*
X109170000Y-78425000D01*
G75*
G02*
X109320000Y-78275000I150000J0D01*
G01*
G37*
G36*
G01*
X109970000Y-78275000D02*
X110420000Y-78275000D01*
G75*
G02*
X110570000Y-78425000I0J-150000D01*
G01*
X110570000Y-79875000D01*
G75*
G02*
X110420000Y-80025000I-150000J0D01*
G01*
X109970000Y-80025000D01*
G75*
G02*
X109820000Y-79875000I0J150000D01*
G01*
X109820000Y-78425000D01*
G75*
G02*
X109970000Y-78275000I150000J0D01*
G01*
G37*
G36*
G01*
X110620000Y-78275000D02*
X111070000Y-78275000D01*
G75*
G02*
X111220000Y-78425000I0J-150000D01*
G01*
X111220000Y-79875000D01*
G75*
G02*
X111070000Y-80025000I-150000J0D01*
G01*
X110620000Y-80025000D01*
G75*
G02*
X110470000Y-79875000I0J150000D01*
G01*
X110470000Y-78425000D01*
G75*
G02*
X110620000Y-78275000I150000J0D01*
G01*
G37*
G36*
G01*
X111270000Y-78275000D02*
X111720000Y-78275000D01*
G75*
G02*
X111870000Y-78425000I0J-150000D01*
G01*
X111870000Y-79875000D01*
G75*
G02*
X111720000Y-80025000I-150000J0D01*
G01*
X111270000Y-80025000D01*
G75*
G02*
X111120000Y-79875000I0J150000D01*
G01*
X111120000Y-78425000D01*
G75*
G02*
X111270000Y-78275000I150000J0D01*
G01*
G37*
G36*
G01*
X111920000Y-78275000D02*
X112370000Y-78275000D01*
G75*
G02*
X112520000Y-78425000I0J-150000D01*
G01*
X112520000Y-79875000D01*
G75*
G02*
X112370000Y-80025000I-150000J0D01*
G01*
X111920000Y-80025000D01*
G75*
G02*
X111770000Y-79875000I0J150000D01*
G01*
X111770000Y-78425000D01*
G75*
G02*
X111920000Y-78275000I150000J0D01*
G01*
G37*
G36*
G01*
X155995000Y-89805000D02*
X157695000Y-89805000D01*
G75*
G02*
X157845000Y-89955000I0J-150000D01*
G01*
X157845000Y-91655000D01*
G75*
G02*
X157695000Y-91805000I-150000J0D01*
G01*
X155995000Y-91805000D01*
G75*
G02*
X155845000Y-91655000I0J150000D01*
G01*
X155845000Y-89955000D01*
G75*
G02*
X155995000Y-89805000I150000J0D01*
G01*
G37*
X156845000Y-88265000D03*
X154305000Y-90805000D03*
X154305000Y-88265000D03*
X151765000Y-90805000D03*
X151765000Y-88265000D03*
X149225000Y-90805000D03*
X149225000Y-88265000D03*
X146685000Y-90805000D03*
X146685000Y-88265000D03*
X144145000Y-90805000D03*
X144145000Y-88265000D03*
X141605000Y-90805000D03*
X141605000Y-88265000D03*
X139065000Y-90805000D03*
X139065000Y-88265000D03*
X136525000Y-90805000D03*
X136525000Y-88265000D03*
X133985000Y-90805000D03*
X133985000Y-88265000D03*
X131445000Y-90805000D03*
X131445000Y-88265000D03*
X128905000Y-90805000D03*
X128905000Y-88265000D03*
X126365000Y-90805000D03*
X126365000Y-88265000D03*
X123825000Y-90805000D03*
X123825000Y-88265000D03*
X121285000Y-90805000D03*
X121285000Y-88265000D03*
X118745000Y-90805000D03*
X118745000Y-88265000D03*
X116205000Y-90805000D03*
X116205000Y-88265000D03*
X113665000Y-90805000D03*
X113665000Y-88265000D03*
X111125000Y-90805000D03*
X111125000Y-88265000D03*
X108585000Y-90805000D03*
X108585000Y-88265000D03*
G36*
G01*
X158214000Y-75030216D02*
X158214000Y-76099784D01*
G75*
G02*
X157898784Y-76415000I-315216J0D01*
G01*
X157079216Y-76415000D01*
G75*
G02*
X156764000Y-76099784I0J315216D01*
G01*
X156764000Y-75030216D01*
G75*
G02*
X157079216Y-74715000I315216J0D01*
G01*
X157898784Y-74715000D01*
G75*
G02*
X158214000Y-75030216I0J-315216D01*
G01*
G37*
G36*
G01*
X156164000Y-75030216D02*
X156164000Y-76099784D01*
G75*
G02*
X155848784Y-76415000I-315216J0D01*
G01*
X155029216Y-76415000D01*
G75*
G02*
X154714000Y-76099784I0J315216D01*
G01*
X154714000Y-75030216D01*
G75*
G02*
X155029216Y-74715000I315216J0D01*
G01*
X155848784Y-74715000D01*
G75*
G02*
X156164000Y-75030216I0J-315216D01*
G01*
G37*
G36*
G01*
X150015000Y-78639784D02*
X150015000Y-77570216D01*
G75*
G02*
X150330216Y-77255000I315216J0D01*
G01*
X151149784Y-77255000D01*
G75*
G02*
X151465000Y-77570216I0J-315216D01*
G01*
X151465000Y-78639784D01*
G75*
G02*
X151149784Y-78955000I-315216J0D01*
G01*
X150330216Y-78955000D01*
G75*
G02*
X150015000Y-78639784I0J315216D01*
G01*
G37*
G36*
G01*
X152065000Y-78639784D02*
X152065000Y-77570216D01*
G75*
G02*
X152380216Y-77255000I315216J0D01*
G01*
X153199784Y-77255000D01*
G75*
G02*
X153515000Y-77570216I0J-315216D01*
G01*
X153515000Y-78639784D01*
G75*
G02*
X153199784Y-78955000I-315216J0D01*
G01*
X152380216Y-78955000D01*
G75*
G02*
X152065000Y-78639784I0J315216D01*
G01*
G37*
G36*
G01*
X161125000Y-66995000D02*
X162725000Y-66995000D01*
G75*
G02*
X162875000Y-67145000I0J-150000D01*
G01*
X162875000Y-68745000D01*
G75*
G02*
X162725000Y-68895000I-150000J0D01*
G01*
X161125000Y-68895000D01*
G75*
G02*
X160975000Y-68745000I0J150000D01*
G01*
X160975000Y-67145000D01*
G75*
G02*
X161125000Y-66995000I150000J0D01*
G01*
G37*
D11*
X133985000Y-83185000D03*
X159385000Y-67945000D03*
X136525000Y-83185000D03*
X156845000Y-67945000D03*
X139065000Y-83185000D03*
X154305000Y-67945000D03*
X141605000Y-83185000D03*
X151765000Y-67945000D03*
X144145000Y-83185000D03*
X149225000Y-67945000D03*
X146685000Y-83185000D03*
X146685000Y-67945000D03*
X149225000Y-83185000D03*
X144145000Y-67945000D03*
X151765000Y-83185000D03*
X141605000Y-67945000D03*
X154305000Y-83185000D03*
X139065000Y-67945000D03*
X156845000Y-83185000D03*
X136525000Y-67945000D03*
X159385000Y-83185000D03*
X133985000Y-67945000D03*
X161925000Y-83185000D03*
G36*
G01*
X130645000Y-66995000D02*
X132245000Y-66995000D01*
G75*
G02*
X132395000Y-67145000I0J-150000D01*
G01*
X132395000Y-68745000D01*
G75*
G02*
X132245000Y-68895000I-150000J0D01*
G01*
X130645000Y-68895000D01*
G75*
G02*
X130495000Y-68745000I0J150000D01*
G01*
X130495000Y-67145000D01*
G75*
G02*
X130645000Y-66995000I150000J0D01*
G01*
G37*
X103505000Y-83185000D03*
X128905000Y-67945000D03*
X106045000Y-83185000D03*
X126365000Y-67945000D03*
X108585000Y-83185000D03*
X123825000Y-67945000D03*
X111125000Y-83185000D03*
X121285000Y-67945000D03*
X113665000Y-83185000D03*
X118745000Y-67945000D03*
X116205000Y-83185000D03*
X116205000Y-67945000D03*
X118745000Y-83185000D03*
X113665000Y-67945000D03*
X121285000Y-83185000D03*
X111125000Y-67945000D03*
X123825000Y-83185000D03*
X108585000Y-67945000D03*
X126365000Y-83185000D03*
X106045000Y-67945000D03*
X128905000Y-83185000D03*
X103505000Y-67945000D03*
X131445000Y-83185000D03*
D10*
X103505000Y-88265000D03*
G36*
G01*
X105195000Y-87265000D02*
X106895000Y-87265000D01*
G75*
G02*
X107045000Y-87415000I0J-150000D01*
G01*
X107045000Y-89115000D01*
G75*
G02*
X106895000Y-89265000I-150000J0D01*
G01*
X105195000Y-89265000D01*
G75*
G02*
X105045000Y-89115000I0J150000D01*
G01*
X105045000Y-87415000D01*
G75*
G02*
X105195000Y-87265000I150000J0D01*
G01*
G37*
G36*
G01*
X132445000Y-72175000D02*
X132445000Y-73875000D01*
G75*
G02*
X132295000Y-74025000I-150000J0D01*
G01*
X130595000Y-74025000D01*
G75*
G02*
X130445000Y-73875000I0J150000D01*
G01*
X130445000Y-72175000D01*
G75*
G02*
X130595000Y-72025000I150000J0D01*
G01*
X132295000Y-72025000D01*
G75*
G02*
X132445000Y-72175000I0J-150000D01*
G01*
G37*
X131445000Y-75565000D03*
X131445000Y-78105000D03*
M02*
