M48
; DRILL file {KiCad (5.1.9)-1} date 04/09/21 16:02:06
; FORMAT={-:-/ absolute / inch / decimal}
; #@! TF.CreationDate,2021-04-09T16:02:06+01:00
; #@! TF.GenerationSoftware,Kicad,Pcbnew,(5.1.9)-1
; #@! TF.FileFunction,Plated,1,2,PTH
FMAT,2
INCH
T1C0.0157
T2C0.0315
T3C0.0394
T4C0.1260
%
G90
G05
T1
X5.265Y-2.145
X5.265Y-2.245
X5.265Y-2.345
X5.265Y-2.695
X5.265Y-2.795
X5.265Y-2.895
X5.265Y-2.995
X5.275Y-3.21
X5.315Y-2.095
X5.315Y-2.195
X5.315Y-2.295
X5.315Y-2.745
X5.315Y-2.845
X5.315Y-2.945
X5.33Y-3.26
X5.365Y-2.045
X5.365Y-2.245
X5.365Y-2.345
X5.38Y-2.795
X5.38Y-2.895
X5.38Y-2.995
X5.385Y-3.21
X5.405Y-2.73
X5.415Y-2.295
X5.44Y-2.68
X5.44Y-2.785
X5.44Y-2.845
X5.44Y-2.945
X5.465Y-2.045
X5.465Y-2.345
X5.49Y-2.68
X5.49Y-2.895
X5.515Y-2.295
X5.515Y-2.395
X5.54Y-2.68
X5.54Y-2.845
X5.565Y-2.045
X5.565Y-2.345
X5.565Y-2.445
X5.59Y-2.68
X5.59Y-2.995
X5.615Y-2.295
X5.615Y-2.395
X5.64Y-2.845
X5.665Y-2.045
X5.665Y-2.345
X5.69Y-2.995
X5.715Y-2.295
X5.74Y-2.92
X5.765Y-2.045
X5.79Y-2.845
X5.79Y-2.995
X5.81Y-2.445
X5.815Y-2.545
X5.815Y-3.445
X5.865Y-2.045
X5.89Y-3.05
X5.895Y-2.68
X5.895Y-2.785
X5.915Y-2.445
X5.93Y-3.105
X5.94Y-2.585
X5.955Y-2.88
X5.965Y-2.045
X6.01Y-2.83
X6.01Y-3.01
X6.045Y-2.445
X6.06Y-2.96
X6.065Y-2.045
X6.07Y-3.11
X6.085Y-3.16
X6.1Y-2.255
X6.135Y-3.16
X6.165Y-2.045
X6.165Y-2.145
X6.165Y-2.6
X6.165Y-2.905
X6.215Y-2.095
X6.215Y-3.23
X6.265Y-2.045
X6.265Y-3.205
X6.29Y-2.735
X6.29Y-2.875
X6.295Y-2.955
X6.3Y-3.325
X6.34Y-2.6013
X6.365Y-2.045
X6.365Y-3.21
X6.39Y-2.735
X6.39Y-2.875
X6.4Y-2.655
X6.405Y-2.955
X6.42Y-2.235
X6.46Y-2.99
X6.46Y-3.21
X6.465Y-2.045
X6.465Y-2.525
X6.51Y-2.855
X6.51Y-2.755
X6.51Y-2.955
X6.565Y-2.045
X6.565Y-2.24
X6.565Y-3.01
X6.565Y-3.21
X6.58Y-2.715
X6.6119Y-2.6479
X6.615Y-3.29
X6.62Y-2.955
X6.665Y-2.045
X6.665Y-3.21
X6.6713Y-2.6013
X6.715Y-3.255
X6.725Y-2.855
X6.725Y-2.9
X6.7305Y-2.6544
X6.76Y-2.73
X6.765Y-2.045
X6.765Y-3.0
X6.765Y-3.105
X6.765Y-3.21
X6.865Y-2.045
X6.965Y-2.045
X7.015Y-2.095
X7.015Y-3.055
X7.03Y-2.565
X7.03Y-2.67
X7.065Y-2.045
X7.065Y-2.145
X7.065Y-2.995
X7.065Y-3.12
X7.105Y-2.73
X7.115Y-2.095
X7.115Y-3.35
X7.14Y-2.68
X7.14Y-2.785
X7.165Y-2.045
X7.165Y-2.145
X7.165Y-2.945
X7.1875Y-2.58
X7.215Y-2.095
X7.215Y-2.995
X7.215Y-3.35
X7.265Y-2.045
X7.265Y-2.145
X7.265Y-2.945
X7.265Y-3.045
X7.275Y-2.51
X7.315Y-2.095
X7.365Y-2.045
X7.365Y-2.145
X7.365Y-2.945
X7.365Y-3.045
X7.38Y-3.325
X7.39Y-2.635
X7.415Y-2.095
X7.415Y-2.995
X7.465Y-2.045
X7.465Y-2.145
X7.465Y-2.945
X7.465Y-3.045
X7.515Y-2.095
X7.515Y-2.995
X7.565Y-2.045
X7.565Y-2.145
X7.565Y-3.295
X7.59Y-2.68
X7.59Y-2.785
X7.59Y-3.05
X7.59Y-3.165
X7.615Y-2.095
X7.615Y-2.195
X7.615Y-2.295
X7.615Y-3.245
X7.63Y-3.105
X7.66Y-2.88
X7.665Y-2.045
X7.665Y-2.145
X7.665Y-2.245
X7.665Y-2.345
X7.715Y-2.095
X7.715Y-2.745
X7.715Y-2.83
X7.715Y-3.01
X7.715Y-3.145
X7.715Y-3.245
X7.74Y-2.195
X7.74Y-2.295
X7.765Y-2.395
X7.765Y-2.695
X7.765Y-2.795
X7.765Y-2.96
X7.765Y-3.195
X7.765Y-3.295
T2
X6.115Y-2.455
X6.115Y-2.555
X6.115Y-2.655
X6.115Y-2.755
X6.115Y-2.855
X6.115Y-2.955
X6.115Y-3.055
X6.215Y-2.355
X6.215Y-2.455
X6.215Y-2.555
X6.215Y-2.655
X6.215Y-2.755
X6.215Y-2.855
X6.215Y-2.955
X6.215Y-3.055
X6.215Y-3.155
X6.315Y-2.355
X6.315Y-2.455
X6.315Y-3.055
X6.315Y-3.155
X6.415Y-2.355
X6.415Y-2.455
X6.415Y-3.055
X6.415Y-3.155
X6.515Y-2.355
X6.515Y-2.455
X6.515Y-3.055
X6.515Y-3.155
X6.615Y-2.355
X6.615Y-2.455
X6.615Y-3.055
X6.615Y-3.155
X6.715Y-2.355
X6.715Y-2.455
X6.715Y-3.055
X6.715Y-3.155
X6.815Y-2.355
X6.815Y-2.455
X6.815Y-2.555
X6.815Y-2.655
X6.815Y-2.755
X6.815Y-2.855
X6.815Y-2.955
X6.815Y-3.055
X6.815Y-3.155
X6.915Y-2.455
X6.915Y-2.555
X6.915Y-2.655
X6.915Y-2.755
X6.915Y-2.855
X6.915Y-2.955
X6.915Y-3.055
T3
X5.565Y-3.395
X5.565Y-3.495
X5.665Y-3.395
X5.665Y-3.495
X5.765Y-3.395
X5.765Y-3.495
X5.865Y-3.395
X5.865Y-3.495
X5.965Y-3.395
X5.965Y-3.495
X6.065Y-3.395
X6.065Y-3.495
X6.165Y-3.395
X6.165Y-3.495
X6.265Y-3.395
X6.265Y-3.495
X6.365Y-3.395
X6.365Y-3.495
X6.465Y-3.395
X6.465Y-3.495
X6.565Y-3.395
X6.565Y-3.495
X6.665Y-3.395
X6.665Y-3.495
X6.765Y-3.395
X6.765Y-3.495
X6.865Y-3.395
X6.865Y-3.495
X6.965Y-3.395
X6.965Y-3.495
X7.065Y-3.395
X7.065Y-3.495
X7.115Y-2.395
X7.165Y-3.395
X7.165Y-3.495
X7.215Y-2.395
X7.265Y-3.395
X7.265Y-3.495
X7.36Y-2.395
X7.365Y-3.395
X7.365Y-3.495
X7.46Y-2.395
X7.465Y-3.395
X7.465Y-3.495
T4
X5.373Y-2.54
X5.373Y-3.445
X7.657Y-2.54
X7.657Y-3.445
T0
M30
