G04 #@! TF.GenerationSoftware,KiCad,Pcbnew,(5.1.9)-1*
G04 #@! TF.CreationDate,2021-04-09T16:02:10+01:00*
G04 #@! TF.ProjectId,RGBtoHDMI Amiga Denise ECS PLCC,52474274-6f48-4444-9d49-20416d696761,1*
G04 #@! TF.SameCoordinates,Original*
G04 #@! TF.FileFunction,Soldermask,Top*
G04 #@! TF.FilePolarity,Negative*
%FSLAX46Y46*%
G04 Gerber Fmt 4.6, Leading zero omitted, Abs format (unit mm)*
G04 Created by KiCad (PCBNEW (5.1.9)-1) date 2021-04-09 16:02:10*
%MOMM*%
%LPD*%
G01*
G04 APERTURE LIST*
%ADD10C,1.722400*%
%ADD11O,2.000000X2.000000*%
%ADD12C,6.700000*%
G04 APERTURE END LIST*
D10*
X168021000Y-77597000D03*
X170561000Y-77597000D03*
X173101000Y-77597000D03*
X165481000Y-77597000D03*
X162941000Y-77597000D03*
X160401000Y-77597000D03*
G36*
G01*
X164619800Y-80848200D02*
X164619800Y-79425800D01*
G75*
G02*
X164769800Y-79275800I150000J0D01*
G01*
X166192200Y-79275800D01*
G75*
G02*
X166342200Y-79425800I0J-150000D01*
G01*
X166342200Y-80848200D01*
G75*
G02*
X166192200Y-80998200I-150000J0D01*
G01*
X164769800Y-80998200D01*
G75*
G02*
X164619800Y-80848200I0J150000D01*
G01*
G37*
X168021000Y-80137000D03*
X170561000Y-80137000D03*
X173101000Y-80137000D03*
X162941000Y-80137000D03*
X160401000Y-80137000D03*
X173101000Y-75057000D03*
X173101000Y-72517000D03*
X173101000Y-69977000D03*
X173101000Y-67437000D03*
X173101000Y-64897000D03*
X173101000Y-62357000D03*
X175641000Y-77597000D03*
X175641000Y-75057000D03*
X175641000Y-72517000D03*
X175641000Y-69977000D03*
X175641000Y-67437000D03*
X175641000Y-64897000D03*
X175641000Y-62357000D03*
X170561000Y-62357000D03*
X168021000Y-62357000D03*
X165481000Y-62357000D03*
X162941000Y-62357000D03*
X160401000Y-62357000D03*
X157861000Y-62357000D03*
X155321000Y-62357000D03*
X173101000Y-59817000D03*
X170561000Y-59817000D03*
X168021000Y-59817000D03*
X165481000Y-59817000D03*
X162941000Y-59817000D03*
X160401000Y-59817000D03*
X157861000Y-59817000D03*
X157861000Y-64897000D03*
X157861000Y-67437000D03*
X157861000Y-69977000D03*
X157861000Y-72517000D03*
X157861000Y-75057000D03*
X157861000Y-77597000D03*
X157861000Y-80137000D03*
X155321000Y-64897000D03*
X155321000Y-67437000D03*
X155321000Y-69977000D03*
X155321000Y-72517000D03*
X155321000Y-75057000D03*
X155321000Y-77597000D03*
D11*
X183261000Y-60833000D03*
G36*
G01*
X181571000Y-61833000D02*
X179871000Y-61833000D01*
G75*
G02*
X179721000Y-61683000I0J150000D01*
G01*
X179721000Y-59983000D01*
G75*
G02*
X179871000Y-59833000I150000J0D01*
G01*
X181571000Y-59833000D01*
G75*
G02*
X181721000Y-59983000I0J-150000D01*
G01*
X181721000Y-61683000D01*
G75*
G02*
X181571000Y-61833000I-150000J0D01*
G01*
G37*
D12*
X136474200Y-64516000D03*
X194487800Y-64516000D03*
X194487800Y-87503000D03*
X136474200Y-87503000D03*
G36*
G01*
X142201000Y-87233000D02*
X140501000Y-87233000D01*
G75*
G02*
X140351000Y-87083000I0J150000D01*
G01*
X140351000Y-85383000D01*
G75*
G02*
X140501000Y-85233000I150000J0D01*
G01*
X142201000Y-85233000D01*
G75*
G02*
X142351000Y-85383000I0J-150000D01*
G01*
X142351000Y-87083000D01*
G75*
G02*
X142201000Y-87233000I-150000J0D01*
G01*
G37*
D11*
X141351000Y-88773000D03*
X143891000Y-86233000D03*
X143891000Y-88773000D03*
X146431000Y-86233000D03*
X146431000Y-88773000D03*
X148971000Y-86233000D03*
X148971000Y-88773000D03*
X151511000Y-86233000D03*
X151511000Y-88773000D03*
X154051000Y-86233000D03*
X154051000Y-88773000D03*
X156591000Y-86233000D03*
X156591000Y-88773000D03*
X159131000Y-86233000D03*
X159131000Y-88773000D03*
X161671000Y-86233000D03*
X161671000Y-88773000D03*
X164211000Y-86233000D03*
X164211000Y-88773000D03*
X166751000Y-86233000D03*
X166751000Y-88773000D03*
X169291000Y-86233000D03*
X169291000Y-88773000D03*
X171831000Y-86233000D03*
X171831000Y-88773000D03*
X174371000Y-86233000D03*
X174371000Y-88773000D03*
X176911000Y-86233000D03*
X176911000Y-88773000D03*
X179451000Y-86233000D03*
X179451000Y-88773000D03*
X181991000Y-86233000D03*
X181991000Y-88773000D03*
X184531000Y-86233000D03*
X184531000Y-88773000D03*
X187071000Y-86233000D03*
X187071000Y-88773000D03*
X189611000Y-86233000D03*
X189611000Y-88773000D03*
G36*
G01*
X149306000Y-78018000D02*
X149906000Y-78018000D01*
G75*
G02*
X150056000Y-78168000I0J-150000D01*
G01*
X150056000Y-79668000D01*
G75*
G02*
X149906000Y-79818000I-150000J0D01*
G01*
X149306000Y-79818000D01*
G75*
G02*
X149156000Y-79668000I0J150000D01*
G01*
X149156000Y-78168000D01*
G75*
G02*
X149306000Y-78018000I150000J0D01*
G01*
G37*
G36*
G01*
X148036000Y-78018000D02*
X148636000Y-78018000D01*
G75*
G02*
X148786000Y-78168000I0J-150000D01*
G01*
X148786000Y-79668000D01*
G75*
G02*
X148636000Y-79818000I-150000J0D01*
G01*
X148036000Y-79818000D01*
G75*
G02*
X147886000Y-79668000I0J150000D01*
G01*
X147886000Y-78168000D01*
G75*
G02*
X148036000Y-78018000I150000J0D01*
G01*
G37*
G36*
G01*
X146766000Y-78018000D02*
X147366000Y-78018000D01*
G75*
G02*
X147516000Y-78168000I0J-150000D01*
G01*
X147516000Y-79668000D01*
G75*
G02*
X147366000Y-79818000I-150000J0D01*
G01*
X146766000Y-79818000D01*
G75*
G02*
X146616000Y-79668000I0J150000D01*
G01*
X146616000Y-78168000D01*
G75*
G02*
X146766000Y-78018000I150000J0D01*
G01*
G37*
G36*
G01*
X145496000Y-78018000D02*
X146096000Y-78018000D01*
G75*
G02*
X146246000Y-78168000I0J-150000D01*
G01*
X146246000Y-79668000D01*
G75*
G02*
X146096000Y-79818000I-150000J0D01*
G01*
X145496000Y-79818000D01*
G75*
G02*
X145346000Y-79668000I0J150000D01*
G01*
X145346000Y-78168000D01*
G75*
G02*
X145496000Y-78018000I150000J0D01*
G01*
G37*
G36*
G01*
X144226000Y-78018000D02*
X144826000Y-78018000D01*
G75*
G02*
X144976000Y-78168000I0J-150000D01*
G01*
X144976000Y-79668000D01*
G75*
G02*
X144826000Y-79818000I-150000J0D01*
G01*
X144226000Y-79818000D01*
G75*
G02*
X144076000Y-79668000I0J150000D01*
G01*
X144076000Y-78168000D01*
G75*
G02*
X144226000Y-78018000I150000J0D01*
G01*
G37*
G36*
G01*
X142956000Y-78018000D02*
X143556000Y-78018000D01*
G75*
G02*
X143706000Y-78168000I0J-150000D01*
G01*
X143706000Y-79668000D01*
G75*
G02*
X143556000Y-79818000I-150000J0D01*
G01*
X142956000Y-79818000D01*
G75*
G02*
X142806000Y-79668000I0J150000D01*
G01*
X142806000Y-78168000D01*
G75*
G02*
X142956000Y-78018000I150000J0D01*
G01*
G37*
G36*
G01*
X141686000Y-78018000D02*
X142286000Y-78018000D01*
G75*
G02*
X142436000Y-78168000I0J-150000D01*
G01*
X142436000Y-79668000D01*
G75*
G02*
X142286000Y-79818000I-150000J0D01*
G01*
X141686000Y-79818000D01*
G75*
G02*
X141536000Y-79668000I0J150000D01*
G01*
X141536000Y-78168000D01*
G75*
G02*
X141686000Y-78018000I150000J0D01*
G01*
G37*
G36*
G01*
X140416000Y-78018000D02*
X141016000Y-78018000D01*
G75*
G02*
X141166000Y-78168000I0J-150000D01*
G01*
X141166000Y-79668000D01*
G75*
G02*
X141016000Y-79818000I-150000J0D01*
G01*
X140416000Y-79818000D01*
G75*
G02*
X140266000Y-79668000I0J150000D01*
G01*
X140266000Y-78168000D01*
G75*
G02*
X140416000Y-78018000I150000J0D01*
G01*
G37*
G36*
G01*
X139146000Y-78018000D02*
X139746000Y-78018000D01*
G75*
G02*
X139896000Y-78168000I0J-150000D01*
G01*
X139896000Y-79668000D01*
G75*
G02*
X139746000Y-79818000I-150000J0D01*
G01*
X139146000Y-79818000D01*
G75*
G02*
X138996000Y-79668000I0J150000D01*
G01*
X138996000Y-78168000D01*
G75*
G02*
X139146000Y-78018000I150000J0D01*
G01*
G37*
G36*
G01*
X137876000Y-78018000D02*
X138476000Y-78018000D01*
G75*
G02*
X138626000Y-78168000I0J-150000D01*
G01*
X138626000Y-79668000D01*
G75*
G02*
X138476000Y-79818000I-150000J0D01*
G01*
X137876000Y-79818000D01*
G75*
G02*
X137726000Y-79668000I0J150000D01*
G01*
X137726000Y-78168000D01*
G75*
G02*
X137876000Y-78018000I150000J0D01*
G01*
G37*
G36*
G01*
X137876000Y-68518000D02*
X138476000Y-68518000D01*
G75*
G02*
X138626000Y-68668000I0J-150000D01*
G01*
X138626000Y-70168000D01*
G75*
G02*
X138476000Y-70318000I-150000J0D01*
G01*
X137876000Y-70318000D01*
G75*
G02*
X137726000Y-70168000I0J150000D01*
G01*
X137726000Y-68668000D01*
G75*
G02*
X137876000Y-68518000I150000J0D01*
G01*
G37*
G36*
G01*
X139146000Y-68518000D02*
X139746000Y-68518000D01*
G75*
G02*
X139896000Y-68668000I0J-150000D01*
G01*
X139896000Y-70168000D01*
G75*
G02*
X139746000Y-70318000I-150000J0D01*
G01*
X139146000Y-70318000D01*
G75*
G02*
X138996000Y-70168000I0J150000D01*
G01*
X138996000Y-68668000D01*
G75*
G02*
X139146000Y-68518000I150000J0D01*
G01*
G37*
G36*
G01*
X140416000Y-68518000D02*
X141016000Y-68518000D01*
G75*
G02*
X141166000Y-68668000I0J-150000D01*
G01*
X141166000Y-70168000D01*
G75*
G02*
X141016000Y-70318000I-150000J0D01*
G01*
X140416000Y-70318000D01*
G75*
G02*
X140266000Y-70168000I0J150000D01*
G01*
X140266000Y-68668000D01*
G75*
G02*
X140416000Y-68518000I150000J0D01*
G01*
G37*
G36*
G01*
X141686000Y-68518000D02*
X142286000Y-68518000D01*
G75*
G02*
X142436000Y-68668000I0J-150000D01*
G01*
X142436000Y-70168000D01*
G75*
G02*
X142286000Y-70318000I-150000J0D01*
G01*
X141686000Y-70318000D01*
G75*
G02*
X141536000Y-70168000I0J150000D01*
G01*
X141536000Y-68668000D01*
G75*
G02*
X141686000Y-68518000I150000J0D01*
G01*
G37*
G36*
G01*
X149306000Y-68518000D02*
X149906000Y-68518000D01*
G75*
G02*
X150056000Y-68668000I0J-150000D01*
G01*
X150056000Y-70168000D01*
G75*
G02*
X149906000Y-70318000I-150000J0D01*
G01*
X149306000Y-70318000D01*
G75*
G02*
X149156000Y-70168000I0J150000D01*
G01*
X149156000Y-68668000D01*
G75*
G02*
X149306000Y-68518000I150000J0D01*
G01*
G37*
G36*
G01*
X148036000Y-68518000D02*
X148636000Y-68518000D01*
G75*
G02*
X148786000Y-68668000I0J-150000D01*
G01*
X148786000Y-70168000D01*
G75*
G02*
X148636000Y-70318000I-150000J0D01*
G01*
X148036000Y-70318000D01*
G75*
G02*
X147886000Y-70168000I0J150000D01*
G01*
X147886000Y-68668000D01*
G75*
G02*
X148036000Y-68518000I150000J0D01*
G01*
G37*
G36*
G01*
X146766000Y-68518000D02*
X147366000Y-68518000D01*
G75*
G02*
X147516000Y-68668000I0J-150000D01*
G01*
X147516000Y-70168000D01*
G75*
G02*
X147366000Y-70318000I-150000J0D01*
G01*
X146766000Y-70318000D01*
G75*
G02*
X146616000Y-70168000I0J150000D01*
G01*
X146616000Y-68668000D01*
G75*
G02*
X146766000Y-68518000I150000J0D01*
G01*
G37*
G36*
G01*
X145496000Y-68518000D02*
X146096000Y-68518000D01*
G75*
G02*
X146246000Y-68668000I0J-150000D01*
G01*
X146246000Y-70168000D01*
G75*
G02*
X146096000Y-70318000I-150000J0D01*
G01*
X145496000Y-70318000D01*
G75*
G02*
X145346000Y-70168000I0J150000D01*
G01*
X145346000Y-68668000D01*
G75*
G02*
X145496000Y-68518000I150000J0D01*
G01*
G37*
G36*
G01*
X144226000Y-68518000D02*
X144826000Y-68518000D01*
G75*
G02*
X144976000Y-68668000I0J-150000D01*
G01*
X144976000Y-70168000D01*
G75*
G02*
X144826000Y-70318000I-150000J0D01*
G01*
X144226000Y-70318000D01*
G75*
G02*
X144076000Y-70168000I0J150000D01*
G01*
X144076000Y-68668000D01*
G75*
G02*
X144226000Y-68518000I150000J0D01*
G01*
G37*
G36*
G01*
X142956000Y-68518000D02*
X143556000Y-68518000D01*
G75*
G02*
X143706000Y-68668000I0J-150000D01*
G01*
X143706000Y-70168000D01*
G75*
G02*
X143556000Y-70318000I-150000J0D01*
G01*
X142956000Y-70318000D01*
G75*
G02*
X142806000Y-70168000I0J150000D01*
G01*
X142806000Y-68668000D01*
G75*
G02*
X142956000Y-68518000I150000J0D01*
G01*
G37*
G36*
G01*
X152119216Y-72418000D02*
X153188784Y-72418000D01*
G75*
G02*
X153504000Y-72733216I0J-315216D01*
G01*
X153504000Y-73552784D01*
G75*
G02*
X153188784Y-73868000I-315216J0D01*
G01*
X152119216Y-73868000D01*
G75*
G02*
X151804000Y-73552784I0J315216D01*
G01*
X151804000Y-72733216D01*
G75*
G02*
X152119216Y-72418000I315216J0D01*
G01*
G37*
G36*
G01*
X152119216Y-74468000D02*
X153188784Y-74468000D01*
G75*
G02*
X153504000Y-74783216I0J-315216D01*
G01*
X153504000Y-75602784D01*
G75*
G02*
X153188784Y-75918000I-315216J0D01*
G01*
X152119216Y-75918000D01*
G75*
G02*
X151804000Y-75602784I0J315216D01*
G01*
X151804000Y-74783216D01*
G75*
G02*
X152119216Y-74468000I315216J0D01*
G01*
G37*
G36*
G01*
X160501216Y-68753000D02*
X161570784Y-68753000D01*
G75*
G02*
X161886000Y-69068216I0J-315216D01*
G01*
X161886000Y-69887784D01*
G75*
G02*
X161570784Y-70203000I-315216J0D01*
G01*
X160501216Y-70203000D01*
G75*
G02*
X160186000Y-69887784I0J315216D01*
G01*
X160186000Y-69068216D01*
G75*
G02*
X160501216Y-68753000I315216J0D01*
G01*
G37*
G36*
G01*
X160501216Y-66703000D02*
X161570784Y-66703000D01*
G75*
G02*
X161886000Y-67018216I0J-315216D01*
G01*
X161886000Y-67837784D01*
G75*
G02*
X161570784Y-68153000I-315216J0D01*
G01*
X160501216Y-68153000D01*
G75*
G02*
X160186000Y-67837784I0J315216D01*
G01*
X160186000Y-67018216D01*
G75*
G02*
X160501216Y-66703000I315216J0D01*
G01*
G37*
G36*
G01*
X195426216Y-72418000D02*
X196495784Y-72418000D01*
G75*
G02*
X196811000Y-72733216I0J-315216D01*
G01*
X196811000Y-73552784D01*
G75*
G02*
X196495784Y-73868000I-315216J0D01*
G01*
X195426216Y-73868000D01*
G75*
G02*
X195111000Y-73552784I0J315216D01*
G01*
X195111000Y-72733216D01*
G75*
G02*
X195426216Y-72418000I315216J0D01*
G01*
G37*
G36*
G01*
X195426216Y-74468000D02*
X196495784Y-74468000D01*
G75*
G02*
X196811000Y-74783216I0J-315216D01*
G01*
X196811000Y-75602784D01*
G75*
G02*
X196495784Y-75918000I-315216J0D01*
G01*
X195426216Y-75918000D01*
G75*
G02*
X195111000Y-75602784I0J315216D01*
G01*
X195111000Y-74783216D01*
G75*
G02*
X195426216Y-74468000I315216J0D01*
G01*
G37*
G36*
G01*
X135916784Y-82268000D02*
X134847216Y-82268000D01*
G75*
G02*
X134532000Y-81952784I0J315216D01*
G01*
X134532000Y-81133216D01*
G75*
G02*
X134847216Y-80818000I315216J0D01*
G01*
X135916784Y-80818000D01*
G75*
G02*
X136232000Y-81133216I0J-315216D01*
G01*
X136232000Y-81952784D01*
G75*
G02*
X135916784Y-82268000I-315216J0D01*
G01*
G37*
G36*
G01*
X135916784Y-80218000D02*
X134847216Y-80218000D01*
G75*
G02*
X134532000Y-79902784I0J315216D01*
G01*
X134532000Y-79083216D01*
G75*
G02*
X134847216Y-78768000I315216J0D01*
G01*
X135916784Y-78768000D01*
G75*
G02*
X136232000Y-79083216I0J-315216D01*
G01*
X136232000Y-79902784D01*
G75*
G02*
X135916784Y-80218000I-315216J0D01*
G01*
G37*
G36*
G01*
X161570784Y-75791000D02*
X160501216Y-75791000D01*
G75*
G02*
X160186000Y-75475784I0J315216D01*
G01*
X160186000Y-74656216D01*
G75*
G02*
X160501216Y-74341000I315216J0D01*
G01*
X161570784Y-74341000D01*
G75*
G02*
X161886000Y-74656216I0J-315216D01*
G01*
X161886000Y-75475784D01*
G75*
G02*
X161570784Y-75791000I-315216J0D01*
G01*
G37*
G36*
G01*
X161570784Y-73741000D02*
X160501216Y-73741000D01*
G75*
G02*
X160186000Y-73425784I0J315216D01*
G01*
X160186000Y-72606216D01*
G75*
G02*
X160501216Y-72291000I315216J0D01*
G01*
X161570784Y-72291000D01*
G75*
G02*
X161886000Y-72606216I0J-315216D01*
G01*
X161886000Y-73425784D01*
G75*
G02*
X161570784Y-73741000I-315216J0D01*
G01*
G37*
G36*
G01*
X163151000Y-67737000D02*
X163151000Y-67137000D01*
G75*
G02*
X163301000Y-66987000I150000J0D01*
G01*
X164801000Y-66987000D01*
G75*
G02*
X164951000Y-67137000I0J-150000D01*
G01*
X164951000Y-67737000D01*
G75*
G02*
X164801000Y-67887000I-150000J0D01*
G01*
X163301000Y-67887000D01*
G75*
G02*
X163151000Y-67737000I0J150000D01*
G01*
G37*
G36*
G01*
X163151000Y-69007000D02*
X163151000Y-68407000D01*
G75*
G02*
X163301000Y-68257000I150000J0D01*
G01*
X164801000Y-68257000D01*
G75*
G02*
X164951000Y-68407000I0J-150000D01*
G01*
X164951000Y-69007000D01*
G75*
G02*
X164801000Y-69157000I-150000J0D01*
G01*
X163301000Y-69157000D01*
G75*
G02*
X163151000Y-69007000I0J150000D01*
G01*
G37*
G36*
G01*
X163151000Y-70277000D02*
X163151000Y-69677000D01*
G75*
G02*
X163301000Y-69527000I150000J0D01*
G01*
X164801000Y-69527000D01*
G75*
G02*
X164951000Y-69677000I0J-150000D01*
G01*
X164951000Y-70277000D01*
G75*
G02*
X164801000Y-70427000I-150000J0D01*
G01*
X163301000Y-70427000D01*
G75*
G02*
X163151000Y-70277000I0J150000D01*
G01*
G37*
G36*
G01*
X163151000Y-71547000D02*
X163151000Y-70947000D01*
G75*
G02*
X163301000Y-70797000I150000J0D01*
G01*
X164801000Y-70797000D01*
G75*
G02*
X164951000Y-70947000I0J-150000D01*
G01*
X164951000Y-71547000D01*
G75*
G02*
X164801000Y-71697000I-150000J0D01*
G01*
X163301000Y-71697000D01*
G75*
G02*
X163151000Y-71547000I0J150000D01*
G01*
G37*
G36*
G01*
X163151000Y-72817000D02*
X163151000Y-72217000D01*
G75*
G02*
X163301000Y-72067000I150000J0D01*
G01*
X164801000Y-72067000D01*
G75*
G02*
X164951000Y-72217000I0J-150000D01*
G01*
X164951000Y-72817000D01*
G75*
G02*
X164801000Y-72967000I-150000J0D01*
G01*
X163301000Y-72967000D01*
G75*
G02*
X163151000Y-72817000I0J150000D01*
G01*
G37*
G36*
G01*
X163151000Y-74087000D02*
X163151000Y-73487000D01*
G75*
G02*
X163301000Y-73337000I150000J0D01*
G01*
X164801000Y-73337000D01*
G75*
G02*
X164951000Y-73487000I0J-150000D01*
G01*
X164951000Y-74087000D01*
G75*
G02*
X164801000Y-74237000I-150000J0D01*
G01*
X163301000Y-74237000D01*
G75*
G02*
X163151000Y-74087000I0J150000D01*
G01*
G37*
G36*
G01*
X163151000Y-75357000D02*
X163151000Y-74757000D01*
G75*
G02*
X163301000Y-74607000I150000J0D01*
G01*
X164801000Y-74607000D01*
G75*
G02*
X164951000Y-74757000I0J-150000D01*
G01*
X164951000Y-75357000D01*
G75*
G02*
X164801000Y-75507000I-150000J0D01*
G01*
X163301000Y-75507000D01*
G75*
G02*
X163151000Y-75357000I0J150000D01*
G01*
G37*
G36*
G01*
X168551000Y-75357000D02*
X168551000Y-74757000D01*
G75*
G02*
X168701000Y-74607000I150000J0D01*
G01*
X170201000Y-74607000D01*
G75*
G02*
X170351000Y-74757000I0J-150000D01*
G01*
X170351000Y-75357000D01*
G75*
G02*
X170201000Y-75507000I-150000J0D01*
G01*
X168701000Y-75507000D01*
G75*
G02*
X168551000Y-75357000I0J150000D01*
G01*
G37*
G36*
G01*
X168551000Y-74087000D02*
X168551000Y-73487000D01*
G75*
G02*
X168701000Y-73337000I150000J0D01*
G01*
X170201000Y-73337000D01*
G75*
G02*
X170351000Y-73487000I0J-150000D01*
G01*
X170351000Y-74087000D01*
G75*
G02*
X170201000Y-74237000I-150000J0D01*
G01*
X168701000Y-74237000D01*
G75*
G02*
X168551000Y-74087000I0J150000D01*
G01*
G37*
G36*
G01*
X168551000Y-72817000D02*
X168551000Y-72217000D01*
G75*
G02*
X168701000Y-72067000I150000J0D01*
G01*
X170201000Y-72067000D01*
G75*
G02*
X170351000Y-72217000I0J-150000D01*
G01*
X170351000Y-72817000D01*
G75*
G02*
X170201000Y-72967000I-150000J0D01*
G01*
X168701000Y-72967000D01*
G75*
G02*
X168551000Y-72817000I0J150000D01*
G01*
G37*
G36*
G01*
X168551000Y-71547000D02*
X168551000Y-70947000D01*
G75*
G02*
X168701000Y-70797000I150000J0D01*
G01*
X170201000Y-70797000D01*
G75*
G02*
X170351000Y-70947000I0J-150000D01*
G01*
X170351000Y-71547000D01*
G75*
G02*
X170201000Y-71697000I-150000J0D01*
G01*
X168701000Y-71697000D01*
G75*
G02*
X168551000Y-71547000I0J150000D01*
G01*
G37*
G36*
G01*
X168551000Y-70277000D02*
X168551000Y-69677000D01*
G75*
G02*
X168701000Y-69527000I150000J0D01*
G01*
X170201000Y-69527000D01*
G75*
G02*
X170351000Y-69677000I0J-150000D01*
G01*
X170351000Y-70277000D01*
G75*
G02*
X170201000Y-70427000I-150000J0D01*
G01*
X168701000Y-70427000D01*
G75*
G02*
X168551000Y-70277000I0J150000D01*
G01*
G37*
G36*
G01*
X168551000Y-69007000D02*
X168551000Y-68407000D01*
G75*
G02*
X168701000Y-68257000I150000J0D01*
G01*
X170201000Y-68257000D01*
G75*
G02*
X170351000Y-68407000I0J-150000D01*
G01*
X170351000Y-69007000D01*
G75*
G02*
X170201000Y-69157000I-150000J0D01*
G01*
X168701000Y-69157000D01*
G75*
G02*
X168551000Y-69007000I0J150000D01*
G01*
G37*
G36*
G01*
X168551000Y-67737000D02*
X168551000Y-67137000D01*
G75*
G02*
X168701000Y-66987000I150000J0D01*
G01*
X170201000Y-66987000D01*
G75*
G02*
X170351000Y-67137000I0J-150000D01*
G01*
X170351000Y-67737000D01*
G75*
G02*
X170201000Y-67887000I-150000J0D01*
G01*
X168701000Y-67887000D01*
G75*
G02*
X168551000Y-67737000I0J150000D01*
G01*
G37*
G36*
G01*
X186136000Y-68518000D02*
X186736000Y-68518000D01*
G75*
G02*
X186886000Y-68668000I0J-150000D01*
G01*
X186886000Y-70168000D01*
G75*
G02*
X186736000Y-70318000I-150000J0D01*
G01*
X186136000Y-70318000D01*
G75*
G02*
X185986000Y-70168000I0J150000D01*
G01*
X185986000Y-68668000D01*
G75*
G02*
X186136000Y-68518000I150000J0D01*
G01*
G37*
G36*
G01*
X187406000Y-68518000D02*
X188006000Y-68518000D01*
G75*
G02*
X188156000Y-68668000I0J-150000D01*
G01*
X188156000Y-70168000D01*
G75*
G02*
X188006000Y-70318000I-150000J0D01*
G01*
X187406000Y-70318000D01*
G75*
G02*
X187256000Y-70168000I0J150000D01*
G01*
X187256000Y-68668000D01*
G75*
G02*
X187406000Y-68518000I150000J0D01*
G01*
G37*
G36*
G01*
X188676000Y-68518000D02*
X189276000Y-68518000D01*
G75*
G02*
X189426000Y-68668000I0J-150000D01*
G01*
X189426000Y-70168000D01*
G75*
G02*
X189276000Y-70318000I-150000J0D01*
G01*
X188676000Y-70318000D01*
G75*
G02*
X188526000Y-70168000I0J150000D01*
G01*
X188526000Y-68668000D01*
G75*
G02*
X188676000Y-68518000I150000J0D01*
G01*
G37*
G36*
G01*
X189946000Y-68518000D02*
X190546000Y-68518000D01*
G75*
G02*
X190696000Y-68668000I0J-150000D01*
G01*
X190696000Y-70168000D01*
G75*
G02*
X190546000Y-70318000I-150000J0D01*
G01*
X189946000Y-70318000D01*
G75*
G02*
X189796000Y-70168000I0J150000D01*
G01*
X189796000Y-68668000D01*
G75*
G02*
X189946000Y-68518000I150000J0D01*
G01*
G37*
G36*
G01*
X191216000Y-68518000D02*
X191816000Y-68518000D01*
G75*
G02*
X191966000Y-68668000I0J-150000D01*
G01*
X191966000Y-70168000D01*
G75*
G02*
X191816000Y-70318000I-150000J0D01*
G01*
X191216000Y-70318000D01*
G75*
G02*
X191066000Y-70168000I0J150000D01*
G01*
X191066000Y-68668000D01*
G75*
G02*
X191216000Y-68518000I150000J0D01*
G01*
G37*
G36*
G01*
X192486000Y-68518000D02*
X193086000Y-68518000D01*
G75*
G02*
X193236000Y-68668000I0J-150000D01*
G01*
X193236000Y-70168000D01*
G75*
G02*
X193086000Y-70318000I-150000J0D01*
G01*
X192486000Y-70318000D01*
G75*
G02*
X192336000Y-70168000I0J150000D01*
G01*
X192336000Y-68668000D01*
G75*
G02*
X192486000Y-68518000I150000J0D01*
G01*
G37*
G36*
G01*
X184866000Y-68518000D02*
X185466000Y-68518000D01*
G75*
G02*
X185616000Y-68668000I0J-150000D01*
G01*
X185616000Y-70168000D01*
G75*
G02*
X185466000Y-70318000I-150000J0D01*
G01*
X184866000Y-70318000D01*
G75*
G02*
X184716000Y-70168000I0J150000D01*
G01*
X184716000Y-68668000D01*
G75*
G02*
X184866000Y-68518000I150000J0D01*
G01*
G37*
G36*
G01*
X183596000Y-68518000D02*
X184196000Y-68518000D01*
G75*
G02*
X184346000Y-68668000I0J-150000D01*
G01*
X184346000Y-70168000D01*
G75*
G02*
X184196000Y-70318000I-150000J0D01*
G01*
X183596000Y-70318000D01*
G75*
G02*
X183446000Y-70168000I0J150000D01*
G01*
X183446000Y-68668000D01*
G75*
G02*
X183596000Y-68518000I150000J0D01*
G01*
G37*
G36*
G01*
X182326000Y-68518000D02*
X182926000Y-68518000D01*
G75*
G02*
X183076000Y-68668000I0J-150000D01*
G01*
X183076000Y-70168000D01*
G75*
G02*
X182926000Y-70318000I-150000J0D01*
G01*
X182326000Y-70318000D01*
G75*
G02*
X182176000Y-70168000I0J150000D01*
G01*
X182176000Y-68668000D01*
G75*
G02*
X182326000Y-68518000I150000J0D01*
G01*
G37*
G36*
G01*
X181056000Y-68518000D02*
X181656000Y-68518000D01*
G75*
G02*
X181806000Y-68668000I0J-150000D01*
G01*
X181806000Y-70168000D01*
G75*
G02*
X181656000Y-70318000I-150000J0D01*
G01*
X181056000Y-70318000D01*
G75*
G02*
X180906000Y-70168000I0J150000D01*
G01*
X180906000Y-68668000D01*
G75*
G02*
X181056000Y-68518000I150000J0D01*
G01*
G37*
G36*
G01*
X181056000Y-78018000D02*
X181656000Y-78018000D01*
G75*
G02*
X181806000Y-78168000I0J-150000D01*
G01*
X181806000Y-79668000D01*
G75*
G02*
X181656000Y-79818000I-150000J0D01*
G01*
X181056000Y-79818000D01*
G75*
G02*
X180906000Y-79668000I0J150000D01*
G01*
X180906000Y-78168000D01*
G75*
G02*
X181056000Y-78018000I150000J0D01*
G01*
G37*
G36*
G01*
X182326000Y-78018000D02*
X182926000Y-78018000D01*
G75*
G02*
X183076000Y-78168000I0J-150000D01*
G01*
X183076000Y-79668000D01*
G75*
G02*
X182926000Y-79818000I-150000J0D01*
G01*
X182326000Y-79818000D01*
G75*
G02*
X182176000Y-79668000I0J150000D01*
G01*
X182176000Y-78168000D01*
G75*
G02*
X182326000Y-78018000I150000J0D01*
G01*
G37*
G36*
G01*
X183596000Y-78018000D02*
X184196000Y-78018000D01*
G75*
G02*
X184346000Y-78168000I0J-150000D01*
G01*
X184346000Y-79668000D01*
G75*
G02*
X184196000Y-79818000I-150000J0D01*
G01*
X183596000Y-79818000D01*
G75*
G02*
X183446000Y-79668000I0J150000D01*
G01*
X183446000Y-78168000D01*
G75*
G02*
X183596000Y-78018000I150000J0D01*
G01*
G37*
G36*
G01*
X184866000Y-78018000D02*
X185466000Y-78018000D01*
G75*
G02*
X185616000Y-78168000I0J-150000D01*
G01*
X185616000Y-79668000D01*
G75*
G02*
X185466000Y-79818000I-150000J0D01*
G01*
X184866000Y-79818000D01*
G75*
G02*
X184716000Y-79668000I0J150000D01*
G01*
X184716000Y-78168000D01*
G75*
G02*
X184866000Y-78018000I150000J0D01*
G01*
G37*
G36*
G01*
X186136000Y-78018000D02*
X186736000Y-78018000D01*
G75*
G02*
X186886000Y-78168000I0J-150000D01*
G01*
X186886000Y-79668000D01*
G75*
G02*
X186736000Y-79818000I-150000J0D01*
G01*
X186136000Y-79818000D01*
G75*
G02*
X185986000Y-79668000I0J150000D01*
G01*
X185986000Y-78168000D01*
G75*
G02*
X186136000Y-78018000I150000J0D01*
G01*
G37*
G36*
G01*
X187406000Y-78018000D02*
X188006000Y-78018000D01*
G75*
G02*
X188156000Y-78168000I0J-150000D01*
G01*
X188156000Y-79668000D01*
G75*
G02*
X188006000Y-79818000I-150000J0D01*
G01*
X187406000Y-79818000D01*
G75*
G02*
X187256000Y-79668000I0J150000D01*
G01*
X187256000Y-78168000D01*
G75*
G02*
X187406000Y-78018000I150000J0D01*
G01*
G37*
G36*
G01*
X188676000Y-78018000D02*
X189276000Y-78018000D01*
G75*
G02*
X189426000Y-78168000I0J-150000D01*
G01*
X189426000Y-79668000D01*
G75*
G02*
X189276000Y-79818000I-150000J0D01*
G01*
X188676000Y-79818000D01*
G75*
G02*
X188526000Y-79668000I0J150000D01*
G01*
X188526000Y-78168000D01*
G75*
G02*
X188676000Y-78018000I150000J0D01*
G01*
G37*
G36*
G01*
X189946000Y-78018000D02*
X190546000Y-78018000D01*
G75*
G02*
X190696000Y-78168000I0J-150000D01*
G01*
X190696000Y-79668000D01*
G75*
G02*
X190546000Y-79818000I-150000J0D01*
G01*
X189946000Y-79818000D01*
G75*
G02*
X189796000Y-79668000I0J150000D01*
G01*
X189796000Y-78168000D01*
G75*
G02*
X189946000Y-78018000I150000J0D01*
G01*
G37*
G36*
G01*
X191216000Y-78018000D02*
X191816000Y-78018000D01*
G75*
G02*
X191966000Y-78168000I0J-150000D01*
G01*
X191966000Y-79668000D01*
G75*
G02*
X191816000Y-79818000I-150000J0D01*
G01*
X191216000Y-79818000D01*
G75*
G02*
X191066000Y-79668000I0J150000D01*
G01*
X191066000Y-78168000D01*
G75*
G02*
X191216000Y-78018000I150000J0D01*
G01*
G37*
G36*
G01*
X192486000Y-78018000D02*
X193086000Y-78018000D01*
G75*
G02*
X193236000Y-78168000I0J-150000D01*
G01*
X193236000Y-79668000D01*
G75*
G02*
X193086000Y-79818000I-150000J0D01*
G01*
X192486000Y-79818000D01*
G75*
G02*
X192336000Y-79668000I0J150000D01*
G01*
X192336000Y-78168000D01*
G75*
G02*
X192486000Y-78018000I150000J0D01*
G01*
G37*
G36*
G01*
X187794000Y-61833000D02*
X186094000Y-61833000D01*
G75*
G02*
X185944000Y-61683000I0J150000D01*
G01*
X185944000Y-59983000D01*
G75*
G02*
X186094000Y-59833000I150000J0D01*
G01*
X187794000Y-59833000D01*
G75*
G02*
X187944000Y-59983000I0J-150000D01*
G01*
X187944000Y-61683000D01*
G75*
G02*
X187794000Y-61833000I-150000J0D01*
G01*
G37*
X189484000Y-60833000D03*
M02*
