G04 #@! TF.GenerationSoftware,KiCad,Pcbnew,(5.1.9)-1*
G04 #@! TF.CreationDate,2021-04-09T16:02:10+01:00*
G04 #@! TF.ProjectId,RGBtoHDMI Amiga Denise ECS PLCC,52474274-6f48-4444-9d49-20416d696761,1*
G04 #@! TF.SameCoordinates,Original*
G04 #@! TF.FileFunction,Legend,Bot*
G04 #@! TF.FilePolarity,Positive*
%FSLAX46Y46*%
G04 Gerber Fmt 4.6, Leading zero omitted, Abs format (unit mm)*
G04 Created by KiCad (PCBNEW (5.1.9)-1) date 2021-04-09 16:02:10*
%MOMM*%
%LPD*%
G01*
G04 APERTURE LIST*
%ADD10C,0.150000*%
%ADD11C,0.600000*%
%ADD12C,0.120000*%
G04 APERTURE END LIST*
D10*
X162855142Y-84370857D02*
X162398000Y-84370857D01*
X162626571Y-84599428D02*
X162626571Y-84142285D01*
X162169428Y-83999428D02*
X161798000Y-83999428D01*
X161998000Y-84228000D01*
X161912285Y-84228000D01*
X161855142Y-84256571D01*
X161826571Y-84285142D01*
X161798000Y-84342285D01*
X161798000Y-84485142D01*
X161826571Y-84542285D01*
X161855142Y-84570857D01*
X161912285Y-84599428D01*
X162083714Y-84599428D01*
X162140857Y-84570857D01*
X162169428Y-84542285D01*
X161626571Y-83999428D02*
X161426571Y-84599428D01*
X161226571Y-83999428D01*
X161083714Y-83999428D02*
X160712285Y-83999428D01*
X160912285Y-84228000D01*
X160826571Y-84228000D01*
X160769428Y-84256571D01*
X160740857Y-84285142D01*
X160712285Y-84342285D01*
X160712285Y-84485142D01*
X160740857Y-84542285D01*
X160769428Y-84570857D01*
X160826571Y-84599428D01*
X160998000Y-84599428D01*
X161055142Y-84570857D01*
X161083714Y-84542285D01*
X190068142Y-84028000D02*
X190125285Y-83999428D01*
X190211000Y-83999428D01*
X190296714Y-84028000D01*
X190353857Y-84085142D01*
X190382428Y-84142285D01*
X190411000Y-84256571D01*
X190411000Y-84342285D01*
X190382428Y-84456571D01*
X190353857Y-84513714D01*
X190296714Y-84570857D01*
X190211000Y-84599428D01*
X190153857Y-84599428D01*
X190068142Y-84570857D01*
X190039571Y-84542285D01*
X190039571Y-84342285D01*
X190153857Y-84342285D01*
X189782428Y-84599428D02*
X189782428Y-83999428D01*
X189439571Y-84599428D01*
X189439571Y-83999428D01*
X189153857Y-84599428D02*
X189153857Y-83999428D01*
X189011000Y-83999428D01*
X188925285Y-84028000D01*
X188868142Y-84085142D01*
X188839571Y-84142285D01*
X188811000Y-84256571D01*
X188811000Y-84342285D01*
X188839571Y-84456571D01*
X188868142Y-84513714D01*
X188925285Y-84570857D01*
X189011000Y-84599428D01*
X189153857Y-84599428D01*
X177368142Y-90378000D02*
X177425285Y-90349428D01*
X177511000Y-90349428D01*
X177596714Y-90378000D01*
X177653857Y-90435142D01*
X177682428Y-90492285D01*
X177711000Y-90606571D01*
X177711000Y-90692285D01*
X177682428Y-90806571D01*
X177653857Y-90863714D01*
X177596714Y-90920857D01*
X177511000Y-90949428D01*
X177453857Y-90949428D01*
X177368142Y-90920857D01*
X177339571Y-90892285D01*
X177339571Y-90692285D01*
X177453857Y-90692285D01*
X177082428Y-90949428D02*
X177082428Y-90349428D01*
X176739571Y-90949428D01*
X176739571Y-90349428D01*
X176453857Y-90949428D02*
X176453857Y-90349428D01*
X176311000Y-90349428D01*
X176225285Y-90378000D01*
X176168142Y-90435142D01*
X176139571Y-90492285D01*
X176111000Y-90606571D01*
X176111000Y-90692285D01*
X176139571Y-90806571D01*
X176168142Y-90863714D01*
X176225285Y-90920857D01*
X176311000Y-90949428D01*
X176453857Y-90949428D01*
X172288142Y-84028000D02*
X172345285Y-83999428D01*
X172431000Y-83999428D01*
X172516714Y-84028000D01*
X172573857Y-84085142D01*
X172602428Y-84142285D01*
X172631000Y-84256571D01*
X172631000Y-84342285D01*
X172602428Y-84456571D01*
X172573857Y-84513714D01*
X172516714Y-84570857D01*
X172431000Y-84599428D01*
X172373857Y-84599428D01*
X172288142Y-84570857D01*
X172259571Y-84542285D01*
X172259571Y-84342285D01*
X172373857Y-84342285D01*
X172002428Y-84599428D02*
X172002428Y-83999428D01*
X171659571Y-84599428D01*
X171659571Y-83999428D01*
X171373857Y-84599428D02*
X171373857Y-83999428D01*
X171231000Y-83999428D01*
X171145285Y-84028000D01*
X171088142Y-84085142D01*
X171059571Y-84142285D01*
X171031000Y-84256571D01*
X171031000Y-84342285D01*
X171059571Y-84456571D01*
X171088142Y-84513714D01*
X171145285Y-84570857D01*
X171231000Y-84599428D01*
X171373857Y-84599428D01*
X164668142Y-90378000D02*
X164725285Y-90349428D01*
X164811000Y-90349428D01*
X164896714Y-90378000D01*
X164953857Y-90435142D01*
X164982428Y-90492285D01*
X165011000Y-90606571D01*
X165011000Y-90692285D01*
X164982428Y-90806571D01*
X164953857Y-90863714D01*
X164896714Y-90920857D01*
X164811000Y-90949428D01*
X164753857Y-90949428D01*
X164668142Y-90920857D01*
X164639571Y-90892285D01*
X164639571Y-90692285D01*
X164753857Y-90692285D01*
X164382428Y-90949428D02*
X164382428Y-90349428D01*
X164039571Y-90949428D01*
X164039571Y-90349428D01*
X163753857Y-90949428D02*
X163753857Y-90349428D01*
X163611000Y-90349428D01*
X163525285Y-90378000D01*
X163468142Y-90435142D01*
X163439571Y-90492285D01*
X163411000Y-90606571D01*
X163411000Y-90692285D01*
X163439571Y-90806571D01*
X163468142Y-90863714D01*
X163525285Y-90920857D01*
X163611000Y-90949428D01*
X163753857Y-90949428D01*
X156794142Y-90378000D02*
X156851285Y-90349428D01*
X156937000Y-90349428D01*
X157022714Y-90378000D01*
X157079857Y-90435142D01*
X157108428Y-90492285D01*
X157137000Y-90606571D01*
X157137000Y-90692285D01*
X157108428Y-90806571D01*
X157079857Y-90863714D01*
X157022714Y-90920857D01*
X156937000Y-90949428D01*
X156879857Y-90949428D01*
X156794142Y-90920857D01*
X156765571Y-90892285D01*
X156765571Y-90692285D01*
X156879857Y-90692285D01*
X156508428Y-90949428D02*
X156508428Y-90349428D01*
X156165571Y-90949428D01*
X156165571Y-90349428D01*
X155879857Y-90949428D02*
X155879857Y-90349428D01*
X155737000Y-90349428D01*
X155651285Y-90378000D01*
X155594142Y-90435142D01*
X155565571Y-90492285D01*
X155537000Y-90606571D01*
X155537000Y-90692285D01*
X155565571Y-90806571D01*
X155594142Y-90863714D01*
X155651285Y-90920857D01*
X155737000Y-90949428D01*
X155879857Y-90949428D01*
X146888142Y-90378000D02*
X146945285Y-90349428D01*
X147031000Y-90349428D01*
X147116714Y-90378000D01*
X147173857Y-90435142D01*
X147202428Y-90492285D01*
X147231000Y-90606571D01*
X147231000Y-90692285D01*
X147202428Y-90806571D01*
X147173857Y-90863714D01*
X147116714Y-90920857D01*
X147031000Y-90949428D01*
X146973857Y-90949428D01*
X146888142Y-90920857D01*
X146859571Y-90892285D01*
X146859571Y-90692285D01*
X146973857Y-90692285D01*
X146602428Y-90949428D02*
X146602428Y-90349428D01*
X146259571Y-90949428D01*
X146259571Y-90349428D01*
X145973857Y-90949428D02*
X145973857Y-90349428D01*
X145831000Y-90349428D01*
X145745285Y-90378000D01*
X145688142Y-90435142D01*
X145659571Y-90492285D01*
X145631000Y-90606571D01*
X145631000Y-90692285D01*
X145659571Y-90806571D01*
X145688142Y-90863714D01*
X145745285Y-90920857D01*
X145831000Y-90949428D01*
X145973857Y-90949428D01*
X151968142Y-84028000D02*
X152025285Y-83999428D01*
X152111000Y-83999428D01*
X152196714Y-84028000D01*
X152253857Y-84085142D01*
X152282428Y-84142285D01*
X152311000Y-84256571D01*
X152311000Y-84342285D01*
X152282428Y-84456571D01*
X152253857Y-84513714D01*
X152196714Y-84570857D01*
X152111000Y-84599428D01*
X152053857Y-84599428D01*
X151968142Y-84570857D01*
X151939571Y-84542285D01*
X151939571Y-84342285D01*
X152053857Y-84342285D01*
X151682428Y-84599428D02*
X151682428Y-83999428D01*
X151339571Y-84599428D01*
X151339571Y-83999428D01*
X151053857Y-84599428D02*
X151053857Y-83999428D01*
X150911000Y-83999428D01*
X150825285Y-84028000D01*
X150768142Y-84085142D01*
X150739571Y-84142285D01*
X150711000Y-84256571D01*
X150711000Y-84342285D01*
X150739571Y-84456571D01*
X150768142Y-84513714D01*
X150825285Y-84570857D01*
X150911000Y-84599428D01*
X151053857Y-84599428D01*
X176031428Y-59859857D02*
X175574285Y-59859857D01*
X175802857Y-60088428D02*
X175802857Y-59631285D01*
X175002857Y-59488428D02*
X175288571Y-59488428D01*
X175317142Y-59774142D01*
X175288571Y-59745571D01*
X175231428Y-59717000D01*
X175088571Y-59717000D01*
X175031428Y-59745571D01*
X175002857Y-59774142D01*
X174974285Y-59831285D01*
X174974285Y-59974142D01*
X175002857Y-60031285D01*
X175031428Y-60059857D01*
X175088571Y-60088428D01*
X175231428Y-60088428D01*
X175288571Y-60059857D01*
X175317142Y-60031285D01*
X174802857Y-59488428D02*
X174602857Y-60088428D01*
X174402857Y-59488428D01*
X190690190Y-91308180D02*
X191023523Y-90831990D01*
X191261619Y-91308180D02*
X191261619Y-90308180D01*
X190880666Y-90308180D01*
X190785428Y-90355800D01*
X190737809Y-90403419D01*
X190690190Y-90498657D01*
X190690190Y-90641514D01*
X190737809Y-90736752D01*
X190785428Y-90784371D01*
X190880666Y-90831990D01*
X191261619Y-90831990D01*
X190261619Y-91308180D02*
X190261619Y-90308180D01*
X189880666Y-90308180D01*
X189785428Y-90355800D01*
X189737809Y-90403419D01*
X189690190Y-90498657D01*
X189690190Y-90641514D01*
X189737809Y-90736752D01*
X189785428Y-90784371D01*
X189880666Y-90831990D01*
X190261619Y-90831990D01*
X189261619Y-91308180D02*
X189261619Y-90641514D01*
X189261619Y-90308180D02*
X189309238Y-90355800D01*
X189261619Y-90403419D01*
X189214000Y-90355800D01*
X189261619Y-90308180D01*
X189261619Y-90403419D01*
X188118761Y-90308180D02*
X187452095Y-90308180D01*
X188118761Y-91308180D01*
X187452095Y-91308180D01*
X186690190Y-91260561D02*
X186785428Y-91308180D01*
X186975904Y-91308180D01*
X187071142Y-91260561D01*
X187118761Y-91165323D01*
X187118761Y-90784371D01*
X187071142Y-90689133D01*
X186975904Y-90641514D01*
X186785428Y-90641514D01*
X186690190Y-90689133D01*
X186642571Y-90784371D01*
X186642571Y-90879609D01*
X187118761Y-90974847D01*
X186214000Y-91308180D02*
X186214000Y-90641514D01*
X186214000Y-90831990D02*
X186166380Y-90736752D01*
X186118761Y-90689133D01*
X186023523Y-90641514D01*
X185928285Y-90641514D01*
X185452095Y-91308180D02*
X185547333Y-91260561D01*
X185594952Y-91212942D01*
X185642571Y-91117704D01*
X185642571Y-90831990D01*
X185594952Y-90736752D01*
X185547333Y-90689133D01*
X185452095Y-90641514D01*
X185309238Y-90641514D01*
X185214000Y-90689133D01*
X185166380Y-90736752D01*
X185118761Y-90831990D01*
X185118761Y-91117704D01*
X185166380Y-91212942D01*
X185214000Y-91260561D01*
X185309238Y-91308180D01*
X185452095Y-91308180D01*
X180336714Y-90949428D02*
X180336714Y-90349428D01*
X180108142Y-90349428D01*
X180051000Y-90378000D01*
X180022428Y-90406571D01*
X179993857Y-90463714D01*
X179993857Y-90549428D01*
X180022428Y-90606571D01*
X180051000Y-90635142D01*
X180108142Y-90663714D01*
X180336714Y-90663714D01*
X179736714Y-90949428D02*
X179736714Y-90549428D01*
X179736714Y-90349428D02*
X179765285Y-90378000D01*
X179736714Y-90406571D01*
X179708142Y-90378000D01*
X179736714Y-90349428D01*
X179736714Y-90406571D01*
X179108142Y-90949428D02*
X179308142Y-90663714D01*
X179451000Y-90949428D02*
X179451000Y-90349428D01*
X179222428Y-90349428D01*
X179165285Y-90378000D01*
X179136714Y-90406571D01*
X179108142Y-90463714D01*
X179108142Y-90549428D01*
X179136714Y-90606571D01*
X179165285Y-90635142D01*
X179222428Y-90663714D01*
X179451000Y-90663714D01*
X178879571Y-90406571D02*
X178851000Y-90378000D01*
X178793857Y-90349428D01*
X178651000Y-90349428D01*
X178593857Y-90378000D01*
X178565285Y-90406571D01*
X178536714Y-90463714D01*
X178536714Y-90520857D01*
X178565285Y-90606571D01*
X178908142Y-90949428D01*
X178536714Y-90949428D01*
X172716714Y-90949428D02*
X172716714Y-90349428D01*
X172488142Y-90349428D01*
X172431000Y-90378000D01*
X172402428Y-90406571D01*
X172373857Y-90463714D01*
X172373857Y-90549428D01*
X172402428Y-90606571D01*
X172431000Y-90635142D01*
X172488142Y-90663714D01*
X172716714Y-90663714D01*
X172116714Y-90949428D02*
X172116714Y-90549428D01*
X172116714Y-90349428D02*
X172145285Y-90378000D01*
X172116714Y-90406571D01*
X172088142Y-90378000D01*
X172116714Y-90349428D01*
X172116714Y-90406571D01*
X171516714Y-90378000D02*
X171573857Y-90349428D01*
X171659571Y-90349428D01*
X171745285Y-90378000D01*
X171802428Y-90435142D01*
X171831000Y-90492285D01*
X171859571Y-90606571D01*
X171859571Y-90692285D01*
X171831000Y-90806571D01*
X171802428Y-90863714D01*
X171745285Y-90920857D01*
X171659571Y-90949428D01*
X171602428Y-90949428D01*
X171516714Y-90920857D01*
X171488142Y-90892285D01*
X171488142Y-90692285D01*
X171602428Y-90692285D01*
X170916714Y-90949428D02*
X171259571Y-90949428D01*
X171088142Y-90949428D02*
X171088142Y-90349428D01*
X171145285Y-90435142D01*
X171202428Y-90492285D01*
X171259571Y-90520857D01*
X170176714Y-90949428D02*
X170176714Y-90349428D01*
X169948142Y-90349428D01*
X169891000Y-90378000D01*
X169862428Y-90406571D01*
X169833857Y-90463714D01*
X169833857Y-90549428D01*
X169862428Y-90606571D01*
X169891000Y-90635142D01*
X169948142Y-90663714D01*
X170176714Y-90663714D01*
X169576714Y-90949428D02*
X169576714Y-90549428D01*
X169576714Y-90349428D02*
X169605285Y-90378000D01*
X169576714Y-90406571D01*
X169548142Y-90378000D01*
X169576714Y-90349428D01*
X169576714Y-90406571D01*
X168976714Y-90378000D02*
X169033857Y-90349428D01*
X169119571Y-90349428D01*
X169205285Y-90378000D01*
X169262428Y-90435142D01*
X169291000Y-90492285D01*
X169319571Y-90606571D01*
X169319571Y-90692285D01*
X169291000Y-90806571D01*
X169262428Y-90863714D01*
X169205285Y-90920857D01*
X169119571Y-90949428D01*
X169062428Y-90949428D01*
X168976714Y-90920857D01*
X168948142Y-90892285D01*
X168948142Y-90692285D01*
X169062428Y-90692285D01*
X168719571Y-90406571D02*
X168691000Y-90378000D01*
X168633857Y-90349428D01*
X168491000Y-90349428D01*
X168433857Y-90378000D01*
X168405285Y-90406571D01*
X168376714Y-90463714D01*
X168376714Y-90520857D01*
X168405285Y-90606571D01*
X168748142Y-90949428D01*
X168376714Y-90949428D01*
X161269142Y-90949428D02*
X161269142Y-90349428D01*
X161040571Y-90349428D01*
X160983428Y-90378000D01*
X160954857Y-90406571D01*
X160926285Y-90463714D01*
X160926285Y-90549428D01*
X160954857Y-90606571D01*
X160983428Y-90635142D01*
X161040571Y-90663714D01*
X161269142Y-90663714D01*
X160669142Y-90949428D02*
X160669142Y-90549428D01*
X160669142Y-90349428D02*
X160697714Y-90378000D01*
X160669142Y-90406571D01*
X160640571Y-90378000D01*
X160669142Y-90349428D01*
X160669142Y-90406571D01*
X160040571Y-90892285D02*
X160069142Y-90920857D01*
X160154857Y-90949428D01*
X160212000Y-90949428D01*
X160297714Y-90920857D01*
X160354857Y-90863714D01*
X160383428Y-90806571D01*
X160412000Y-90692285D01*
X160412000Y-90606571D01*
X160383428Y-90492285D01*
X160354857Y-90435142D01*
X160297714Y-90378000D01*
X160212000Y-90349428D01*
X160154857Y-90349428D01*
X160069142Y-90378000D01*
X160040571Y-90406571D01*
X159812000Y-90920857D02*
X159726285Y-90949428D01*
X159583428Y-90949428D01*
X159526285Y-90920857D01*
X159497714Y-90892285D01*
X159469142Y-90835142D01*
X159469142Y-90778000D01*
X159497714Y-90720857D01*
X159526285Y-90692285D01*
X159583428Y-90663714D01*
X159697714Y-90635142D01*
X159754857Y-90606571D01*
X159783428Y-90578000D01*
X159812000Y-90520857D01*
X159812000Y-90463714D01*
X159783428Y-90406571D01*
X159754857Y-90378000D01*
X159697714Y-90349428D01*
X159554857Y-90349428D01*
X159469142Y-90378000D01*
X159097714Y-90663714D02*
X159097714Y-90949428D01*
X159297714Y-90349428D02*
X159097714Y-90663714D01*
X158897714Y-90349428D01*
X158697714Y-90949428D02*
X158697714Y-90349428D01*
X158354857Y-90949428D01*
X158354857Y-90349428D01*
X157726285Y-90892285D02*
X157754857Y-90920857D01*
X157840571Y-90949428D01*
X157897714Y-90949428D01*
X157983428Y-90920857D01*
X158040571Y-90863714D01*
X158069142Y-90806571D01*
X158097714Y-90692285D01*
X158097714Y-90606571D01*
X158069142Y-90492285D01*
X158040571Y-90435142D01*
X157983428Y-90378000D01*
X157897714Y-90349428D01*
X157840571Y-90349428D01*
X157754857Y-90378000D01*
X157726285Y-90406571D01*
X182876714Y-84599428D02*
X182876714Y-83999428D01*
X182648142Y-83999428D01*
X182591000Y-84028000D01*
X182562428Y-84056571D01*
X182533857Y-84113714D01*
X182533857Y-84199428D01*
X182562428Y-84256571D01*
X182591000Y-84285142D01*
X182648142Y-84313714D01*
X182876714Y-84313714D01*
X182276714Y-84599428D02*
X182276714Y-84199428D01*
X182276714Y-83999428D02*
X182305285Y-84028000D01*
X182276714Y-84056571D01*
X182248142Y-84028000D01*
X182276714Y-83999428D01*
X182276714Y-84056571D01*
X181648142Y-84599428D02*
X181848142Y-84313714D01*
X181991000Y-84599428D02*
X181991000Y-83999428D01*
X181762428Y-83999428D01*
X181705285Y-84028000D01*
X181676714Y-84056571D01*
X181648142Y-84113714D01*
X181648142Y-84199428D01*
X181676714Y-84256571D01*
X181705285Y-84285142D01*
X181762428Y-84313714D01*
X181991000Y-84313714D01*
X181448142Y-83999428D02*
X181076714Y-83999428D01*
X181276714Y-84228000D01*
X181191000Y-84228000D01*
X181133857Y-84256571D01*
X181105285Y-84285142D01*
X181076714Y-84342285D01*
X181076714Y-84485142D01*
X181105285Y-84542285D01*
X181133857Y-84570857D01*
X181191000Y-84599428D01*
X181362428Y-84599428D01*
X181419571Y-84570857D01*
X181448142Y-84542285D01*
X180336714Y-84599428D02*
X180336714Y-83999428D01*
X180108142Y-83999428D01*
X180051000Y-84028000D01*
X180022428Y-84056571D01*
X179993857Y-84113714D01*
X179993857Y-84199428D01*
X180022428Y-84256571D01*
X180051000Y-84285142D01*
X180108142Y-84313714D01*
X180336714Y-84313714D01*
X179736714Y-84599428D02*
X179736714Y-84199428D01*
X179736714Y-83999428D02*
X179765285Y-84028000D01*
X179736714Y-84056571D01*
X179708142Y-84028000D01*
X179736714Y-83999428D01*
X179736714Y-84056571D01*
X179136714Y-84028000D02*
X179193857Y-83999428D01*
X179279571Y-83999428D01*
X179365285Y-84028000D01*
X179422428Y-84085142D01*
X179451000Y-84142285D01*
X179479571Y-84256571D01*
X179479571Y-84342285D01*
X179451000Y-84456571D01*
X179422428Y-84513714D01*
X179365285Y-84570857D01*
X179279571Y-84599428D01*
X179222428Y-84599428D01*
X179136714Y-84570857D01*
X179108142Y-84542285D01*
X179108142Y-84342285D01*
X179222428Y-84342285D01*
X178736714Y-83999428D02*
X178679571Y-83999428D01*
X178622428Y-84028000D01*
X178593857Y-84056571D01*
X178565285Y-84113714D01*
X178536714Y-84228000D01*
X178536714Y-84370857D01*
X178565285Y-84485142D01*
X178593857Y-84542285D01*
X178622428Y-84570857D01*
X178679571Y-84599428D01*
X178736714Y-84599428D01*
X178793857Y-84570857D01*
X178822428Y-84542285D01*
X178851000Y-84485142D01*
X178879571Y-84370857D01*
X178879571Y-84228000D01*
X178851000Y-84113714D01*
X178822428Y-84056571D01*
X178793857Y-84028000D01*
X178736714Y-83999428D01*
X177796714Y-84599428D02*
X177796714Y-83999428D01*
X177568142Y-83999428D01*
X177511000Y-84028000D01*
X177482428Y-84056571D01*
X177453857Y-84113714D01*
X177453857Y-84199428D01*
X177482428Y-84256571D01*
X177511000Y-84285142D01*
X177568142Y-84313714D01*
X177796714Y-84313714D01*
X177196714Y-84599428D02*
X177196714Y-84199428D01*
X177196714Y-83999428D02*
X177225285Y-84028000D01*
X177196714Y-84056571D01*
X177168142Y-84028000D01*
X177196714Y-83999428D01*
X177196714Y-84056571D01*
X176711000Y-84285142D02*
X176625285Y-84313714D01*
X176596714Y-84342285D01*
X176568142Y-84399428D01*
X176568142Y-84485142D01*
X176596714Y-84542285D01*
X176625285Y-84570857D01*
X176682428Y-84599428D01*
X176911000Y-84599428D01*
X176911000Y-83999428D01*
X176711000Y-83999428D01*
X176653857Y-84028000D01*
X176625285Y-84056571D01*
X176596714Y-84113714D01*
X176596714Y-84170857D01*
X176625285Y-84228000D01*
X176653857Y-84256571D01*
X176711000Y-84285142D01*
X176911000Y-84285142D01*
X176368142Y-83999428D02*
X175996714Y-83999428D01*
X176196714Y-84228000D01*
X176111000Y-84228000D01*
X176053857Y-84256571D01*
X176025285Y-84285142D01*
X175996714Y-84342285D01*
X175996714Y-84485142D01*
X176025285Y-84542285D01*
X176053857Y-84570857D01*
X176111000Y-84599428D01*
X176282428Y-84599428D01*
X176339571Y-84570857D01*
X176368142Y-84542285D01*
X170176714Y-84599428D02*
X170176714Y-83999428D01*
X169948142Y-83999428D01*
X169891000Y-84028000D01*
X169862428Y-84056571D01*
X169833857Y-84113714D01*
X169833857Y-84199428D01*
X169862428Y-84256571D01*
X169891000Y-84285142D01*
X169948142Y-84313714D01*
X170176714Y-84313714D01*
X169576714Y-84599428D02*
X169576714Y-84199428D01*
X169576714Y-83999428D02*
X169605285Y-84028000D01*
X169576714Y-84056571D01*
X169548142Y-84028000D01*
X169576714Y-83999428D01*
X169576714Y-84056571D01*
X168948142Y-84599428D02*
X169148142Y-84313714D01*
X169291000Y-84599428D02*
X169291000Y-83999428D01*
X169062428Y-83999428D01*
X169005285Y-84028000D01*
X168976714Y-84056571D01*
X168948142Y-84113714D01*
X168948142Y-84199428D01*
X168976714Y-84256571D01*
X169005285Y-84285142D01*
X169062428Y-84313714D01*
X169291000Y-84313714D01*
X168376714Y-84599428D02*
X168719571Y-84599428D01*
X168548142Y-84599428D02*
X168548142Y-83999428D01*
X168605285Y-84085142D01*
X168662428Y-84142285D01*
X168719571Y-84170857D01*
X167636714Y-84599428D02*
X167636714Y-83999428D01*
X167408142Y-83999428D01*
X167351000Y-84028000D01*
X167322428Y-84056571D01*
X167293857Y-84113714D01*
X167293857Y-84199428D01*
X167322428Y-84256571D01*
X167351000Y-84285142D01*
X167408142Y-84313714D01*
X167636714Y-84313714D01*
X167036714Y-84599428D02*
X167036714Y-84199428D01*
X167036714Y-83999428D02*
X167065285Y-84028000D01*
X167036714Y-84056571D01*
X167008142Y-84028000D01*
X167036714Y-83999428D01*
X167036714Y-84056571D01*
X166436714Y-84028000D02*
X166493857Y-83999428D01*
X166579571Y-83999428D01*
X166665285Y-84028000D01*
X166722428Y-84085142D01*
X166751000Y-84142285D01*
X166779571Y-84256571D01*
X166779571Y-84342285D01*
X166751000Y-84456571D01*
X166722428Y-84513714D01*
X166665285Y-84570857D01*
X166579571Y-84599428D01*
X166522428Y-84599428D01*
X166436714Y-84570857D01*
X166408142Y-84542285D01*
X166408142Y-84342285D01*
X166522428Y-84342285D01*
X166208142Y-83999428D02*
X165836714Y-83999428D01*
X166036714Y-84228000D01*
X165951000Y-84228000D01*
X165893857Y-84256571D01*
X165865285Y-84285142D01*
X165836714Y-84342285D01*
X165836714Y-84485142D01*
X165865285Y-84542285D01*
X165893857Y-84570857D01*
X165951000Y-84599428D01*
X166122428Y-84599428D01*
X166179571Y-84570857D01*
X166208142Y-84542285D01*
X165096714Y-84599428D02*
X165096714Y-83999428D01*
X164868142Y-83999428D01*
X164811000Y-84028000D01*
X164782428Y-84056571D01*
X164753857Y-84113714D01*
X164753857Y-84199428D01*
X164782428Y-84256571D01*
X164811000Y-84285142D01*
X164868142Y-84313714D01*
X165096714Y-84313714D01*
X164496714Y-84599428D02*
X164496714Y-84199428D01*
X164496714Y-83999428D02*
X164525285Y-84028000D01*
X164496714Y-84056571D01*
X164468142Y-84028000D01*
X164496714Y-83999428D01*
X164496714Y-84056571D01*
X163868142Y-84599428D02*
X164068142Y-84313714D01*
X164211000Y-84599428D02*
X164211000Y-83999428D01*
X163982428Y-83999428D01*
X163925285Y-84028000D01*
X163896714Y-84056571D01*
X163868142Y-84113714D01*
X163868142Y-84199428D01*
X163896714Y-84256571D01*
X163925285Y-84285142D01*
X163982428Y-84313714D01*
X164211000Y-84313714D01*
X163496714Y-83999428D02*
X163439571Y-83999428D01*
X163382428Y-84028000D01*
X163353857Y-84056571D01*
X163325285Y-84113714D01*
X163296714Y-84228000D01*
X163296714Y-84370857D01*
X163325285Y-84485142D01*
X163353857Y-84542285D01*
X163382428Y-84570857D01*
X163439571Y-84599428D01*
X163496714Y-84599428D01*
X163553857Y-84570857D01*
X163582428Y-84542285D01*
X163611000Y-84485142D01*
X163639571Y-84370857D01*
X163639571Y-84228000D01*
X163611000Y-84113714D01*
X163582428Y-84056571D01*
X163553857Y-84028000D01*
X163496714Y-83999428D01*
X155193857Y-84599428D02*
X155193857Y-83999428D01*
X154965285Y-83999428D01*
X154908142Y-84028000D01*
X154879571Y-84056571D01*
X154851000Y-84113714D01*
X154851000Y-84199428D01*
X154879571Y-84256571D01*
X154908142Y-84285142D01*
X154965285Y-84313714D01*
X155193857Y-84313714D01*
X154593857Y-84599428D02*
X154593857Y-84199428D01*
X154593857Y-83999428D02*
X154622428Y-84028000D01*
X154593857Y-84056571D01*
X154565285Y-84028000D01*
X154593857Y-83999428D01*
X154593857Y-84056571D01*
X153965285Y-84542285D02*
X153993857Y-84570857D01*
X154079571Y-84599428D01*
X154136714Y-84599428D01*
X154222428Y-84570857D01*
X154279571Y-84513714D01*
X154308142Y-84456571D01*
X154336714Y-84342285D01*
X154336714Y-84256571D01*
X154308142Y-84142285D01*
X154279571Y-84085142D01*
X154222428Y-84028000D01*
X154136714Y-83999428D01*
X154079571Y-83999428D01*
X153993857Y-84028000D01*
X153965285Y-84056571D01*
X153422428Y-84599428D02*
X153708142Y-84599428D01*
X153708142Y-83999428D01*
X153222428Y-84599428D02*
X153222428Y-83999428D01*
X152879571Y-84599428D02*
X153136714Y-84256571D01*
X152879571Y-83999428D02*
X153222428Y-84342285D01*
X149856714Y-84599428D02*
X149856714Y-83999428D01*
X149628142Y-83999428D01*
X149571000Y-84028000D01*
X149542428Y-84056571D01*
X149513857Y-84113714D01*
X149513857Y-84199428D01*
X149542428Y-84256571D01*
X149571000Y-84285142D01*
X149628142Y-84313714D01*
X149856714Y-84313714D01*
X149256714Y-84599428D02*
X149256714Y-84199428D01*
X149256714Y-83999428D02*
X149285285Y-84028000D01*
X149256714Y-84056571D01*
X149228142Y-84028000D01*
X149256714Y-83999428D01*
X149256714Y-84056571D01*
X148771000Y-84285142D02*
X148685285Y-84313714D01*
X148656714Y-84342285D01*
X148628142Y-84399428D01*
X148628142Y-84485142D01*
X148656714Y-84542285D01*
X148685285Y-84570857D01*
X148742428Y-84599428D01*
X148971000Y-84599428D01*
X148971000Y-83999428D01*
X148771000Y-83999428D01*
X148713857Y-84028000D01*
X148685285Y-84056571D01*
X148656714Y-84113714D01*
X148656714Y-84170857D01*
X148685285Y-84228000D01*
X148713857Y-84256571D01*
X148771000Y-84285142D01*
X148971000Y-84285142D01*
X148399571Y-84056571D02*
X148371000Y-84028000D01*
X148313857Y-83999428D01*
X148171000Y-83999428D01*
X148113857Y-84028000D01*
X148085285Y-84056571D01*
X148056714Y-84113714D01*
X148056714Y-84170857D01*
X148085285Y-84256571D01*
X148428142Y-84599428D01*
X148056714Y-84599428D01*
X147316714Y-84599428D02*
X147316714Y-83999428D01*
X147088142Y-83999428D01*
X147031000Y-84028000D01*
X147002428Y-84056571D01*
X146973857Y-84113714D01*
X146973857Y-84199428D01*
X147002428Y-84256571D01*
X147031000Y-84285142D01*
X147088142Y-84313714D01*
X147316714Y-84313714D01*
X146716714Y-84599428D02*
X146716714Y-84199428D01*
X146716714Y-83999428D02*
X146745285Y-84028000D01*
X146716714Y-84056571D01*
X146688142Y-84028000D01*
X146716714Y-83999428D01*
X146716714Y-84056571D01*
X146231000Y-84285142D02*
X146145285Y-84313714D01*
X146116714Y-84342285D01*
X146088142Y-84399428D01*
X146088142Y-84485142D01*
X146116714Y-84542285D01*
X146145285Y-84570857D01*
X146202428Y-84599428D01*
X146431000Y-84599428D01*
X146431000Y-83999428D01*
X146231000Y-83999428D01*
X146173857Y-84028000D01*
X146145285Y-84056571D01*
X146116714Y-84113714D01*
X146116714Y-84170857D01*
X146145285Y-84228000D01*
X146173857Y-84256571D01*
X146231000Y-84285142D01*
X146431000Y-84285142D01*
X145516714Y-84599428D02*
X145859571Y-84599428D01*
X145688142Y-84599428D02*
X145688142Y-83999428D01*
X145745285Y-84085142D01*
X145802428Y-84142285D01*
X145859571Y-84170857D01*
X144776714Y-84599428D02*
X144776714Y-83999428D01*
X144548142Y-83999428D01*
X144491000Y-84028000D01*
X144462428Y-84056571D01*
X144433857Y-84113714D01*
X144433857Y-84199428D01*
X144462428Y-84256571D01*
X144491000Y-84285142D01*
X144548142Y-84313714D01*
X144776714Y-84313714D01*
X144176714Y-84599428D02*
X144176714Y-84199428D01*
X144176714Y-83999428D02*
X144205285Y-84028000D01*
X144176714Y-84056571D01*
X144148142Y-84028000D01*
X144176714Y-83999428D01*
X144176714Y-84056571D01*
X143691000Y-84285142D02*
X143605285Y-84313714D01*
X143576714Y-84342285D01*
X143548142Y-84399428D01*
X143548142Y-84485142D01*
X143576714Y-84542285D01*
X143605285Y-84570857D01*
X143662428Y-84599428D01*
X143891000Y-84599428D01*
X143891000Y-83999428D01*
X143691000Y-83999428D01*
X143633857Y-84028000D01*
X143605285Y-84056571D01*
X143576714Y-84113714D01*
X143576714Y-84170857D01*
X143605285Y-84228000D01*
X143633857Y-84256571D01*
X143691000Y-84285142D01*
X143891000Y-84285142D01*
X143176714Y-83999428D02*
X143119571Y-83999428D01*
X143062428Y-84028000D01*
X143033857Y-84056571D01*
X143005285Y-84113714D01*
X142976714Y-84228000D01*
X142976714Y-84370857D01*
X143005285Y-84485142D01*
X143033857Y-84542285D01*
X143062428Y-84570857D01*
X143119571Y-84599428D01*
X143176714Y-84599428D01*
X143233857Y-84570857D01*
X143262428Y-84542285D01*
X143291000Y-84485142D01*
X143319571Y-84370857D01*
X143319571Y-84228000D01*
X143291000Y-84113714D01*
X143262428Y-84056571D01*
X143233857Y-84028000D01*
X143176714Y-83999428D01*
D11*
X139619000Y-84074000D02*
G75*
G03*
X139619000Y-84074000I-300000J0D01*
G01*
D10*
X142408142Y-84370857D02*
X141951000Y-84370857D01*
X142179571Y-84599428D02*
X142179571Y-84142285D01*
X141722428Y-83999428D02*
X141351000Y-83999428D01*
X141551000Y-84228000D01*
X141465285Y-84228000D01*
X141408142Y-84256571D01*
X141379571Y-84285142D01*
X141351000Y-84342285D01*
X141351000Y-84485142D01*
X141379571Y-84542285D01*
X141408142Y-84570857D01*
X141465285Y-84599428D01*
X141636714Y-84599428D01*
X141693857Y-84570857D01*
X141722428Y-84542285D01*
X141179571Y-83999428D02*
X140979571Y-84599428D01*
X140779571Y-83999428D01*
X140636714Y-83999428D02*
X140265285Y-83999428D01*
X140465285Y-84228000D01*
X140379571Y-84228000D01*
X140322428Y-84256571D01*
X140293857Y-84285142D01*
X140265285Y-84342285D01*
X140265285Y-84485142D01*
X140293857Y-84542285D01*
X140322428Y-84570857D01*
X140379571Y-84599428D01*
X140551000Y-84599428D01*
X140608142Y-84570857D01*
X140636714Y-84542285D01*
X144662428Y-90720857D02*
X144205285Y-90720857D01*
X144433857Y-90949428D02*
X144433857Y-90492285D01*
X143633857Y-90349428D02*
X143919571Y-90349428D01*
X143948142Y-90635142D01*
X143919571Y-90606571D01*
X143862428Y-90578000D01*
X143719571Y-90578000D01*
X143662428Y-90606571D01*
X143633857Y-90635142D01*
X143605285Y-90692285D01*
X143605285Y-90835142D01*
X143633857Y-90892285D01*
X143662428Y-90920857D01*
X143719571Y-90949428D01*
X143862428Y-90949428D01*
X143919571Y-90920857D01*
X143948142Y-90892285D01*
X143433857Y-90349428D02*
X143233857Y-90949428D01*
X143033857Y-90349428D01*
X142122428Y-90720857D02*
X141665285Y-90720857D01*
X141893857Y-90949428D02*
X141893857Y-90492285D01*
X141093857Y-90349428D02*
X141379571Y-90349428D01*
X141408142Y-90635142D01*
X141379571Y-90606571D01*
X141322428Y-90578000D01*
X141179571Y-90578000D01*
X141122428Y-90606571D01*
X141093857Y-90635142D01*
X141065285Y-90692285D01*
X141065285Y-90835142D01*
X141093857Y-90892285D01*
X141122428Y-90920857D01*
X141179571Y-90949428D01*
X141322428Y-90949428D01*
X141379571Y-90920857D01*
X141408142Y-90892285D01*
X140893857Y-90349428D02*
X140693857Y-90949428D01*
X140493857Y-90349428D01*
D11*
X165781000Y-83312000D02*
G75*
G03*
X165781000Y-83312000I-300000J0D01*
G01*
D12*
X164481000Y-83017000D02*
X152441000Y-83007200D01*
X177520600Y-83007200D02*
X178520600Y-82007200D01*
X152441000Y-83007200D02*
X152441000Y-56937000D01*
X152441000Y-56937000D02*
X178521000Y-56937000D01*
X178521000Y-56937000D02*
X178520600Y-82007200D01*
X177520600Y-83007200D02*
X166481000Y-83017000D01*
D10*
X166242904Y-55459380D02*
X166242904Y-56268904D01*
X166195285Y-56364142D01*
X166147666Y-56411761D01*
X166052428Y-56459380D01*
X165861952Y-56459380D01*
X165766714Y-56411761D01*
X165719095Y-56364142D01*
X165671476Y-56268904D01*
X165671476Y-55459380D01*
X164766714Y-55792714D02*
X164766714Y-56459380D01*
X165004809Y-55411761D02*
X165242904Y-56126047D01*
X164623857Y-56126047D01*
M02*
