G04 #@! TF.GenerationSoftware,KiCad,Pcbnew,(5.1.9)-1*
G04 #@! TF.CreationDate,2021-04-09T16:02:09+01:00*
G04 #@! TF.ProjectId,RGBtoHDMI Amiga Denise ECS PLCC,52474274-6f48-4444-9d49-20416d696761,1*
G04 #@! TF.SameCoordinates,Original*
G04 #@! TF.FileFunction,Legend,Top*
G04 #@! TF.FilePolarity,Positive*
%FSLAX46Y46*%
G04 Gerber Fmt 4.6, Leading zero omitted, Abs format (unit mm)*
G04 Created by KiCad (PCBNEW (5.1.9)-1) date 2021-04-09 16:02:09*
%MOMM*%
%LPD*%
G01*
G04 APERTURE LIST*
%ADD10C,0.175000*%
%ADD11C,0.150000*%
%ADD12C,0.200000*%
%ADD13C,0.600000*%
%ADD14C,0.125000*%
%ADD15C,0.120000*%
G04 APERTURE END LIST*
D10*
X182727666Y-55403000D02*
X182661000Y-55369666D01*
X182561000Y-55369666D01*
X182461000Y-55403000D01*
X182394333Y-55469666D01*
X182361000Y-55536333D01*
X182327666Y-55669666D01*
X182327666Y-55769666D01*
X182361000Y-55903000D01*
X182394333Y-55969666D01*
X182461000Y-56036333D01*
X182561000Y-56069666D01*
X182627666Y-56069666D01*
X182727666Y-56036333D01*
X182761000Y-56003000D01*
X182761000Y-55769666D01*
X182627666Y-55769666D01*
X183061000Y-56069666D02*
X183061000Y-55369666D01*
X183461000Y-56069666D01*
X183461000Y-55369666D01*
X183794333Y-56069666D02*
X183794333Y-55369666D01*
X183961000Y-55369666D01*
X184061000Y-55403000D01*
X184127666Y-55469666D01*
X184161000Y-55536333D01*
X184194333Y-55669666D01*
X184194333Y-55769666D01*
X184161000Y-55903000D01*
X184127666Y-55969666D01*
X184061000Y-56036333D01*
X183961000Y-56069666D01*
X183794333Y-56069666D01*
X179567000Y-55803000D02*
X180100333Y-55803000D01*
X179833666Y-56069666D02*
X179833666Y-55536333D01*
X180767000Y-55369666D02*
X180433666Y-55369666D01*
X180400333Y-55703000D01*
X180433666Y-55669666D01*
X180500333Y-55636333D01*
X180667000Y-55636333D01*
X180733666Y-55669666D01*
X180767000Y-55703000D01*
X180800333Y-55769666D01*
X180800333Y-55936333D01*
X180767000Y-56003000D01*
X180733666Y-56036333D01*
X180667000Y-56069666D01*
X180500333Y-56069666D01*
X180433666Y-56036333D01*
X180400333Y-56003000D01*
X181000333Y-55369666D02*
X181233666Y-56069666D01*
X181467000Y-55369666D01*
D11*
X156083000Y-63627000D02*
X157099000Y-64135000D01*
X154940000Y-63627000D02*
X156083000Y-63627000D01*
X160613857Y-84370857D02*
X161071000Y-84370857D01*
X160842428Y-84599428D02*
X160842428Y-84142285D01*
X161299571Y-83999428D02*
X161671000Y-83999428D01*
X161471000Y-84228000D01*
X161556714Y-84228000D01*
X161613857Y-84256571D01*
X161642428Y-84285142D01*
X161671000Y-84342285D01*
X161671000Y-84485142D01*
X161642428Y-84542285D01*
X161613857Y-84570857D01*
X161556714Y-84599428D01*
X161385285Y-84599428D01*
X161328142Y-84570857D01*
X161299571Y-84542285D01*
X161842428Y-83999428D02*
X162042428Y-84599428D01*
X162242428Y-83999428D01*
X162385285Y-83999428D02*
X162756714Y-83999428D01*
X162556714Y-84228000D01*
X162642428Y-84228000D01*
X162699571Y-84256571D01*
X162728142Y-84285142D01*
X162756714Y-84342285D01*
X162756714Y-84485142D01*
X162728142Y-84542285D01*
X162699571Y-84570857D01*
X162642428Y-84599428D01*
X162471000Y-84599428D01*
X162413857Y-84570857D01*
X162385285Y-84542285D01*
X189153857Y-84028000D02*
X189096714Y-83999428D01*
X189011000Y-83999428D01*
X188925285Y-84028000D01*
X188868142Y-84085142D01*
X188839571Y-84142285D01*
X188811000Y-84256571D01*
X188811000Y-84342285D01*
X188839571Y-84456571D01*
X188868142Y-84513714D01*
X188925285Y-84570857D01*
X189011000Y-84599428D01*
X189068142Y-84599428D01*
X189153857Y-84570857D01*
X189182428Y-84542285D01*
X189182428Y-84342285D01*
X189068142Y-84342285D01*
X189439571Y-84599428D02*
X189439571Y-83999428D01*
X189782428Y-84599428D01*
X189782428Y-83999428D01*
X190068142Y-84599428D02*
X190068142Y-83999428D01*
X190211000Y-83999428D01*
X190296714Y-84028000D01*
X190353857Y-84085142D01*
X190382428Y-84142285D01*
X190411000Y-84256571D01*
X190411000Y-84342285D01*
X190382428Y-84456571D01*
X190353857Y-84513714D01*
X190296714Y-84570857D01*
X190211000Y-84599428D01*
X190068142Y-84599428D01*
X176453857Y-90378000D02*
X176396714Y-90349428D01*
X176311000Y-90349428D01*
X176225285Y-90378000D01*
X176168142Y-90435142D01*
X176139571Y-90492285D01*
X176111000Y-90606571D01*
X176111000Y-90692285D01*
X176139571Y-90806571D01*
X176168142Y-90863714D01*
X176225285Y-90920857D01*
X176311000Y-90949428D01*
X176368142Y-90949428D01*
X176453857Y-90920857D01*
X176482428Y-90892285D01*
X176482428Y-90692285D01*
X176368142Y-90692285D01*
X176739571Y-90949428D02*
X176739571Y-90349428D01*
X177082428Y-90949428D01*
X177082428Y-90349428D01*
X177368142Y-90949428D02*
X177368142Y-90349428D01*
X177511000Y-90349428D01*
X177596714Y-90378000D01*
X177653857Y-90435142D01*
X177682428Y-90492285D01*
X177711000Y-90606571D01*
X177711000Y-90692285D01*
X177682428Y-90806571D01*
X177653857Y-90863714D01*
X177596714Y-90920857D01*
X177511000Y-90949428D01*
X177368142Y-90949428D01*
X171373857Y-84028000D02*
X171316714Y-83999428D01*
X171231000Y-83999428D01*
X171145285Y-84028000D01*
X171088142Y-84085142D01*
X171059571Y-84142285D01*
X171031000Y-84256571D01*
X171031000Y-84342285D01*
X171059571Y-84456571D01*
X171088142Y-84513714D01*
X171145285Y-84570857D01*
X171231000Y-84599428D01*
X171288142Y-84599428D01*
X171373857Y-84570857D01*
X171402428Y-84542285D01*
X171402428Y-84342285D01*
X171288142Y-84342285D01*
X171659571Y-84599428D02*
X171659571Y-83999428D01*
X172002428Y-84599428D01*
X172002428Y-83999428D01*
X172288142Y-84599428D02*
X172288142Y-83999428D01*
X172431000Y-83999428D01*
X172516714Y-84028000D01*
X172573857Y-84085142D01*
X172602428Y-84142285D01*
X172631000Y-84256571D01*
X172631000Y-84342285D01*
X172602428Y-84456571D01*
X172573857Y-84513714D01*
X172516714Y-84570857D01*
X172431000Y-84599428D01*
X172288142Y-84599428D01*
X163753857Y-90378000D02*
X163696714Y-90349428D01*
X163611000Y-90349428D01*
X163525285Y-90378000D01*
X163468142Y-90435142D01*
X163439571Y-90492285D01*
X163411000Y-90606571D01*
X163411000Y-90692285D01*
X163439571Y-90806571D01*
X163468142Y-90863714D01*
X163525285Y-90920857D01*
X163611000Y-90949428D01*
X163668142Y-90949428D01*
X163753857Y-90920857D01*
X163782428Y-90892285D01*
X163782428Y-90692285D01*
X163668142Y-90692285D01*
X164039571Y-90949428D02*
X164039571Y-90349428D01*
X164382428Y-90949428D01*
X164382428Y-90349428D01*
X164668142Y-90949428D02*
X164668142Y-90349428D01*
X164811000Y-90349428D01*
X164896714Y-90378000D01*
X164953857Y-90435142D01*
X164982428Y-90492285D01*
X165011000Y-90606571D01*
X165011000Y-90692285D01*
X164982428Y-90806571D01*
X164953857Y-90863714D01*
X164896714Y-90920857D01*
X164811000Y-90949428D01*
X164668142Y-90949428D01*
X155879857Y-90378000D02*
X155822714Y-90349428D01*
X155737000Y-90349428D01*
X155651285Y-90378000D01*
X155594142Y-90435142D01*
X155565571Y-90492285D01*
X155537000Y-90606571D01*
X155537000Y-90692285D01*
X155565571Y-90806571D01*
X155594142Y-90863714D01*
X155651285Y-90920857D01*
X155737000Y-90949428D01*
X155794142Y-90949428D01*
X155879857Y-90920857D01*
X155908428Y-90892285D01*
X155908428Y-90692285D01*
X155794142Y-90692285D01*
X156165571Y-90949428D02*
X156165571Y-90349428D01*
X156508428Y-90949428D01*
X156508428Y-90349428D01*
X156794142Y-90949428D02*
X156794142Y-90349428D01*
X156937000Y-90349428D01*
X157022714Y-90378000D01*
X157079857Y-90435142D01*
X157108428Y-90492285D01*
X157137000Y-90606571D01*
X157137000Y-90692285D01*
X157108428Y-90806571D01*
X157079857Y-90863714D01*
X157022714Y-90920857D01*
X156937000Y-90949428D01*
X156794142Y-90949428D01*
X171704000Y-63500000D02*
X171704000Y-58674000D01*
D12*
X186483857Y-55681571D02*
X186626714Y-55729190D01*
X186674333Y-55776809D01*
X186721952Y-55872047D01*
X186721952Y-56014904D01*
X186674333Y-56110142D01*
X186626714Y-56157761D01*
X186531476Y-56205380D01*
X186150523Y-56205380D01*
X186150523Y-55205380D01*
X186483857Y-55205380D01*
X186579095Y-55253000D01*
X186626714Y-55300619D01*
X186674333Y-55395857D01*
X186674333Y-55491095D01*
X186626714Y-55586333D01*
X186579095Y-55633952D01*
X186483857Y-55681571D01*
X186150523Y-55681571D01*
X187579095Y-55538714D02*
X187579095Y-56205380D01*
X187150523Y-55538714D02*
X187150523Y-56062523D01*
X187198142Y-56157761D01*
X187293380Y-56205380D01*
X187436238Y-56205380D01*
X187531476Y-56157761D01*
X187579095Y-56110142D01*
X187912428Y-55538714D02*
X188293380Y-55538714D01*
X188055285Y-55205380D02*
X188055285Y-56062523D01*
X188102904Y-56157761D01*
X188198142Y-56205380D01*
X188293380Y-56205380D01*
X188483857Y-55538714D02*
X188864809Y-55538714D01*
X188626714Y-55205380D02*
X188626714Y-56062523D01*
X188674333Y-56157761D01*
X188769571Y-56205380D01*
X188864809Y-56205380D01*
X189341000Y-56205380D02*
X189245761Y-56157761D01*
X189198142Y-56110142D01*
X189150523Y-56014904D01*
X189150523Y-55729190D01*
X189198142Y-55633952D01*
X189245761Y-55586333D01*
X189341000Y-55538714D01*
X189483857Y-55538714D01*
X189579095Y-55586333D01*
X189626714Y-55633952D01*
X189674333Y-55729190D01*
X189674333Y-56014904D01*
X189626714Y-56110142D01*
X189579095Y-56157761D01*
X189483857Y-56205380D01*
X189341000Y-56205380D01*
X190102904Y-55538714D02*
X190102904Y-56205380D01*
X190102904Y-55633952D02*
X190150523Y-55586333D01*
X190245761Y-55538714D01*
X190388619Y-55538714D01*
X190483857Y-55586333D01*
X190531476Y-55681571D01*
X190531476Y-56205380D01*
D11*
X158877001Y-64897000D02*
G75*
G03*
X158877001Y-64897000I-1023907J0D01*
G01*
X156337001Y-69977000D02*
G75*
G03*
X156337001Y-69977000I-1023907J0D01*
G01*
X156344907Y-67437000D02*
G75*
G03*
X156344907Y-67437000I-1023907J0D01*
G01*
X174124907Y-59817000D02*
G75*
G03*
X174124907Y-59817000I-1023907J0D01*
G01*
X145973857Y-90378000D02*
X145916714Y-90349428D01*
X145831000Y-90349428D01*
X145745285Y-90378000D01*
X145688142Y-90435142D01*
X145659571Y-90492285D01*
X145631000Y-90606571D01*
X145631000Y-90692285D01*
X145659571Y-90806571D01*
X145688142Y-90863714D01*
X145745285Y-90920857D01*
X145831000Y-90949428D01*
X145888142Y-90949428D01*
X145973857Y-90920857D01*
X146002428Y-90892285D01*
X146002428Y-90692285D01*
X145888142Y-90692285D01*
X146259571Y-90949428D02*
X146259571Y-90349428D01*
X146602428Y-90949428D01*
X146602428Y-90349428D01*
X146888142Y-90949428D02*
X146888142Y-90349428D01*
X147031000Y-90349428D01*
X147116714Y-90378000D01*
X147173857Y-90435142D01*
X147202428Y-90492285D01*
X147231000Y-90606571D01*
X147231000Y-90692285D01*
X147202428Y-90806571D01*
X147173857Y-90863714D01*
X147116714Y-90920857D01*
X147031000Y-90949428D01*
X146888142Y-90949428D01*
X151053857Y-84028000D02*
X150996714Y-83999428D01*
X150911000Y-83999428D01*
X150825285Y-84028000D01*
X150768142Y-84085142D01*
X150739571Y-84142285D01*
X150711000Y-84256571D01*
X150711000Y-84342285D01*
X150739571Y-84456571D01*
X150768142Y-84513714D01*
X150825285Y-84570857D01*
X150911000Y-84599428D01*
X150968142Y-84599428D01*
X151053857Y-84570857D01*
X151082428Y-84542285D01*
X151082428Y-84342285D01*
X150968142Y-84342285D01*
X151339571Y-84599428D02*
X151339571Y-83999428D01*
X151682428Y-84599428D01*
X151682428Y-83999428D01*
X151968142Y-84599428D02*
X151968142Y-83999428D01*
X152111000Y-83999428D01*
X152196714Y-84028000D01*
X152253857Y-84085142D01*
X152282428Y-84142285D01*
X152311000Y-84256571D01*
X152311000Y-84342285D01*
X152282428Y-84456571D01*
X152253857Y-84513714D01*
X152196714Y-84570857D01*
X152111000Y-84599428D01*
X151968142Y-84599428D01*
D13*
X139619000Y-84074000D02*
G75*
G03*
X139619000Y-84074000I-300000J0D01*
G01*
D11*
X140293857Y-84370857D02*
X140751000Y-84370857D01*
X140522428Y-84599428D02*
X140522428Y-84142285D01*
X140979571Y-83999428D02*
X141351000Y-83999428D01*
X141151000Y-84228000D01*
X141236714Y-84228000D01*
X141293857Y-84256571D01*
X141322428Y-84285142D01*
X141351000Y-84342285D01*
X141351000Y-84485142D01*
X141322428Y-84542285D01*
X141293857Y-84570857D01*
X141236714Y-84599428D01*
X141065285Y-84599428D01*
X141008142Y-84570857D01*
X140979571Y-84542285D01*
X141522428Y-83999428D02*
X141722428Y-84599428D01*
X141922428Y-83999428D01*
X142065285Y-83999428D02*
X142436714Y-83999428D01*
X142236714Y-84228000D01*
X142322428Y-84228000D01*
X142379571Y-84256571D01*
X142408142Y-84285142D01*
X142436714Y-84342285D01*
X142436714Y-84485142D01*
X142408142Y-84542285D01*
X142379571Y-84570857D01*
X142322428Y-84599428D01*
X142151000Y-84599428D01*
X142093857Y-84570857D01*
X142065285Y-84542285D01*
X143119571Y-90720857D02*
X143576714Y-90720857D01*
X143348142Y-90949428D02*
X143348142Y-90492285D01*
X144148142Y-90349428D02*
X143862428Y-90349428D01*
X143833857Y-90635142D01*
X143862428Y-90606571D01*
X143919571Y-90578000D01*
X144062428Y-90578000D01*
X144119571Y-90606571D01*
X144148142Y-90635142D01*
X144176714Y-90692285D01*
X144176714Y-90835142D01*
X144148142Y-90892285D01*
X144119571Y-90920857D01*
X144062428Y-90949428D01*
X143919571Y-90949428D01*
X143862428Y-90920857D01*
X143833857Y-90892285D01*
X144348142Y-90349428D02*
X144548142Y-90949428D01*
X144748142Y-90349428D01*
X140579571Y-90720857D02*
X141036714Y-90720857D01*
X140808142Y-90949428D02*
X140808142Y-90492285D01*
X141608142Y-90349428D02*
X141322428Y-90349428D01*
X141293857Y-90635142D01*
X141322428Y-90606571D01*
X141379571Y-90578000D01*
X141522428Y-90578000D01*
X141579571Y-90606571D01*
X141608142Y-90635142D01*
X141636714Y-90692285D01*
X141636714Y-90835142D01*
X141608142Y-90892285D01*
X141579571Y-90920857D01*
X141522428Y-90949428D01*
X141379571Y-90949428D01*
X141322428Y-90920857D01*
X141293857Y-90892285D01*
X141808142Y-90349428D02*
X142008142Y-90949428D01*
X142208142Y-90349428D01*
X148085285Y-84599428D02*
X148085285Y-83999428D01*
X148313857Y-83999428D01*
X148371000Y-84028000D01*
X148399571Y-84056571D01*
X148428142Y-84113714D01*
X148428142Y-84199428D01*
X148399571Y-84256571D01*
X148371000Y-84285142D01*
X148313857Y-84313714D01*
X148085285Y-84313714D01*
X148685285Y-84599428D02*
X148685285Y-84199428D01*
X148685285Y-83999428D02*
X148656714Y-84028000D01*
X148685285Y-84056571D01*
X148713857Y-84028000D01*
X148685285Y-83999428D01*
X148685285Y-84056571D01*
X149171000Y-84285142D02*
X149256714Y-84313714D01*
X149285285Y-84342285D01*
X149313857Y-84399428D01*
X149313857Y-84485142D01*
X149285285Y-84542285D01*
X149256714Y-84570857D01*
X149199571Y-84599428D01*
X148971000Y-84599428D01*
X148971000Y-83999428D01*
X149171000Y-83999428D01*
X149228142Y-84028000D01*
X149256714Y-84056571D01*
X149285285Y-84113714D01*
X149285285Y-84170857D01*
X149256714Y-84228000D01*
X149228142Y-84256571D01*
X149171000Y-84285142D01*
X148971000Y-84285142D01*
X149542428Y-84056571D02*
X149571000Y-84028000D01*
X149628142Y-83999428D01*
X149771000Y-83999428D01*
X149828142Y-84028000D01*
X149856714Y-84056571D01*
X149885285Y-84113714D01*
X149885285Y-84170857D01*
X149856714Y-84256571D01*
X149513857Y-84599428D01*
X149885285Y-84599428D01*
X145545285Y-84599428D02*
X145545285Y-83999428D01*
X145773857Y-83999428D01*
X145831000Y-84028000D01*
X145859571Y-84056571D01*
X145888142Y-84113714D01*
X145888142Y-84199428D01*
X145859571Y-84256571D01*
X145831000Y-84285142D01*
X145773857Y-84313714D01*
X145545285Y-84313714D01*
X146145285Y-84599428D02*
X146145285Y-84199428D01*
X146145285Y-83999428D02*
X146116714Y-84028000D01*
X146145285Y-84056571D01*
X146173857Y-84028000D01*
X146145285Y-83999428D01*
X146145285Y-84056571D01*
X146631000Y-84285142D02*
X146716714Y-84313714D01*
X146745285Y-84342285D01*
X146773857Y-84399428D01*
X146773857Y-84485142D01*
X146745285Y-84542285D01*
X146716714Y-84570857D01*
X146659571Y-84599428D01*
X146431000Y-84599428D01*
X146431000Y-83999428D01*
X146631000Y-83999428D01*
X146688142Y-84028000D01*
X146716714Y-84056571D01*
X146745285Y-84113714D01*
X146745285Y-84170857D01*
X146716714Y-84228000D01*
X146688142Y-84256571D01*
X146631000Y-84285142D01*
X146431000Y-84285142D01*
X147345285Y-84599428D02*
X147002428Y-84599428D01*
X147173857Y-84599428D02*
X147173857Y-83999428D01*
X147116714Y-84085142D01*
X147059571Y-84142285D01*
X147002428Y-84170857D01*
X143005285Y-84599428D02*
X143005285Y-83999428D01*
X143233857Y-83999428D01*
X143291000Y-84028000D01*
X143319571Y-84056571D01*
X143348142Y-84113714D01*
X143348142Y-84199428D01*
X143319571Y-84256571D01*
X143291000Y-84285142D01*
X143233857Y-84313714D01*
X143005285Y-84313714D01*
X143605285Y-84599428D02*
X143605285Y-84199428D01*
X143605285Y-83999428D02*
X143576714Y-84028000D01*
X143605285Y-84056571D01*
X143633857Y-84028000D01*
X143605285Y-83999428D01*
X143605285Y-84056571D01*
X144091000Y-84285142D02*
X144176714Y-84313714D01*
X144205285Y-84342285D01*
X144233857Y-84399428D01*
X144233857Y-84485142D01*
X144205285Y-84542285D01*
X144176714Y-84570857D01*
X144119571Y-84599428D01*
X143891000Y-84599428D01*
X143891000Y-83999428D01*
X144091000Y-83999428D01*
X144148142Y-84028000D01*
X144176714Y-84056571D01*
X144205285Y-84113714D01*
X144205285Y-84170857D01*
X144176714Y-84228000D01*
X144148142Y-84256571D01*
X144091000Y-84285142D01*
X143891000Y-84285142D01*
X144605285Y-83999428D02*
X144662428Y-83999428D01*
X144719571Y-84028000D01*
X144748142Y-84056571D01*
X144776714Y-84113714D01*
X144805285Y-84228000D01*
X144805285Y-84370857D01*
X144776714Y-84485142D01*
X144748142Y-84542285D01*
X144719571Y-84570857D01*
X144662428Y-84599428D01*
X144605285Y-84599428D01*
X144548142Y-84570857D01*
X144519571Y-84542285D01*
X144491000Y-84485142D01*
X144462428Y-84370857D01*
X144462428Y-84228000D01*
X144491000Y-84113714D01*
X144519571Y-84056571D01*
X144548142Y-84028000D01*
X144605285Y-83999428D01*
X152908142Y-84599428D02*
X152908142Y-83999428D01*
X153136714Y-83999428D01*
X153193857Y-84028000D01*
X153222428Y-84056571D01*
X153251000Y-84113714D01*
X153251000Y-84199428D01*
X153222428Y-84256571D01*
X153193857Y-84285142D01*
X153136714Y-84313714D01*
X152908142Y-84313714D01*
X153508142Y-84599428D02*
X153508142Y-84199428D01*
X153508142Y-83999428D02*
X153479571Y-84028000D01*
X153508142Y-84056571D01*
X153536714Y-84028000D01*
X153508142Y-83999428D01*
X153508142Y-84056571D01*
X154136714Y-84542285D02*
X154108142Y-84570857D01*
X154022428Y-84599428D01*
X153965285Y-84599428D01*
X153879571Y-84570857D01*
X153822428Y-84513714D01*
X153793857Y-84456571D01*
X153765285Y-84342285D01*
X153765285Y-84256571D01*
X153793857Y-84142285D01*
X153822428Y-84085142D01*
X153879571Y-84028000D01*
X153965285Y-83999428D01*
X154022428Y-83999428D01*
X154108142Y-84028000D01*
X154136714Y-84056571D01*
X154679571Y-84599428D02*
X154393857Y-84599428D01*
X154393857Y-83999428D01*
X154879571Y-84599428D02*
X154879571Y-83999428D01*
X155222428Y-84599428D02*
X154965285Y-84256571D01*
X155222428Y-83999428D02*
X154879571Y-84342285D01*
X157754857Y-90949428D02*
X157754857Y-90349428D01*
X157983428Y-90349428D01*
X158040571Y-90378000D01*
X158069142Y-90406571D01*
X158097714Y-90463714D01*
X158097714Y-90549428D01*
X158069142Y-90606571D01*
X158040571Y-90635142D01*
X157983428Y-90663714D01*
X157754857Y-90663714D01*
X158354857Y-90949428D02*
X158354857Y-90549428D01*
X158354857Y-90349428D02*
X158326285Y-90378000D01*
X158354857Y-90406571D01*
X158383428Y-90378000D01*
X158354857Y-90349428D01*
X158354857Y-90406571D01*
X158983428Y-90892285D02*
X158954857Y-90920857D01*
X158869142Y-90949428D01*
X158812000Y-90949428D01*
X158726285Y-90920857D01*
X158669142Y-90863714D01*
X158640571Y-90806571D01*
X158612000Y-90692285D01*
X158612000Y-90606571D01*
X158640571Y-90492285D01*
X158669142Y-90435142D01*
X158726285Y-90378000D01*
X158812000Y-90349428D01*
X158869142Y-90349428D01*
X158954857Y-90378000D01*
X158983428Y-90406571D01*
X159212000Y-90920857D02*
X159297714Y-90949428D01*
X159440571Y-90949428D01*
X159497714Y-90920857D01*
X159526285Y-90892285D01*
X159554857Y-90835142D01*
X159554857Y-90778000D01*
X159526285Y-90720857D01*
X159497714Y-90692285D01*
X159440571Y-90663714D01*
X159326285Y-90635142D01*
X159269142Y-90606571D01*
X159240571Y-90578000D01*
X159212000Y-90520857D01*
X159212000Y-90463714D01*
X159240571Y-90406571D01*
X159269142Y-90378000D01*
X159326285Y-90349428D01*
X159469142Y-90349428D01*
X159554857Y-90378000D01*
X159926285Y-90663714D02*
X159926285Y-90949428D01*
X159726285Y-90349428D02*
X159926285Y-90663714D01*
X160126285Y-90349428D01*
X160326285Y-90949428D02*
X160326285Y-90349428D01*
X160669142Y-90949428D01*
X160669142Y-90349428D01*
X161297714Y-90892285D02*
X161269142Y-90920857D01*
X161183428Y-90949428D01*
X161126285Y-90949428D01*
X161040571Y-90920857D01*
X160983428Y-90863714D01*
X160954857Y-90806571D01*
X160926285Y-90692285D01*
X160926285Y-90606571D01*
X160954857Y-90492285D01*
X160983428Y-90435142D01*
X161040571Y-90378000D01*
X161126285Y-90349428D01*
X161183428Y-90349428D01*
X161269142Y-90378000D01*
X161297714Y-90406571D01*
X163325285Y-84599428D02*
X163325285Y-83999428D01*
X163553857Y-83999428D01*
X163611000Y-84028000D01*
X163639571Y-84056571D01*
X163668142Y-84113714D01*
X163668142Y-84199428D01*
X163639571Y-84256571D01*
X163611000Y-84285142D01*
X163553857Y-84313714D01*
X163325285Y-84313714D01*
X163925285Y-84599428D02*
X163925285Y-84199428D01*
X163925285Y-83999428D02*
X163896714Y-84028000D01*
X163925285Y-84056571D01*
X163953857Y-84028000D01*
X163925285Y-83999428D01*
X163925285Y-84056571D01*
X164553857Y-84599428D02*
X164353857Y-84313714D01*
X164211000Y-84599428D02*
X164211000Y-83999428D01*
X164439571Y-83999428D01*
X164496714Y-84028000D01*
X164525285Y-84056571D01*
X164553857Y-84113714D01*
X164553857Y-84199428D01*
X164525285Y-84256571D01*
X164496714Y-84285142D01*
X164439571Y-84313714D01*
X164211000Y-84313714D01*
X164925285Y-83999428D02*
X164982428Y-83999428D01*
X165039571Y-84028000D01*
X165068142Y-84056571D01*
X165096714Y-84113714D01*
X165125285Y-84228000D01*
X165125285Y-84370857D01*
X165096714Y-84485142D01*
X165068142Y-84542285D01*
X165039571Y-84570857D01*
X164982428Y-84599428D01*
X164925285Y-84599428D01*
X164868142Y-84570857D01*
X164839571Y-84542285D01*
X164811000Y-84485142D01*
X164782428Y-84370857D01*
X164782428Y-84228000D01*
X164811000Y-84113714D01*
X164839571Y-84056571D01*
X164868142Y-84028000D01*
X164925285Y-83999428D01*
X165865285Y-84599428D02*
X165865285Y-83999428D01*
X166093857Y-83999428D01*
X166151000Y-84028000D01*
X166179571Y-84056571D01*
X166208142Y-84113714D01*
X166208142Y-84199428D01*
X166179571Y-84256571D01*
X166151000Y-84285142D01*
X166093857Y-84313714D01*
X165865285Y-84313714D01*
X166465285Y-84599428D02*
X166465285Y-84199428D01*
X166465285Y-83999428D02*
X166436714Y-84028000D01*
X166465285Y-84056571D01*
X166493857Y-84028000D01*
X166465285Y-83999428D01*
X166465285Y-84056571D01*
X167065285Y-84028000D02*
X167008142Y-83999428D01*
X166922428Y-83999428D01*
X166836714Y-84028000D01*
X166779571Y-84085142D01*
X166751000Y-84142285D01*
X166722428Y-84256571D01*
X166722428Y-84342285D01*
X166751000Y-84456571D01*
X166779571Y-84513714D01*
X166836714Y-84570857D01*
X166922428Y-84599428D01*
X166979571Y-84599428D01*
X167065285Y-84570857D01*
X167093857Y-84542285D01*
X167093857Y-84342285D01*
X166979571Y-84342285D01*
X167293857Y-83999428D02*
X167665285Y-83999428D01*
X167465285Y-84228000D01*
X167551000Y-84228000D01*
X167608142Y-84256571D01*
X167636714Y-84285142D01*
X167665285Y-84342285D01*
X167665285Y-84485142D01*
X167636714Y-84542285D01*
X167608142Y-84570857D01*
X167551000Y-84599428D01*
X167379571Y-84599428D01*
X167322428Y-84570857D01*
X167293857Y-84542285D01*
X168405285Y-84599428D02*
X168405285Y-83999428D01*
X168633857Y-83999428D01*
X168691000Y-84028000D01*
X168719571Y-84056571D01*
X168748142Y-84113714D01*
X168748142Y-84199428D01*
X168719571Y-84256571D01*
X168691000Y-84285142D01*
X168633857Y-84313714D01*
X168405285Y-84313714D01*
X169005285Y-84599428D02*
X169005285Y-84199428D01*
X169005285Y-83999428D02*
X168976714Y-84028000D01*
X169005285Y-84056571D01*
X169033857Y-84028000D01*
X169005285Y-83999428D01*
X169005285Y-84056571D01*
X169633857Y-84599428D02*
X169433857Y-84313714D01*
X169291000Y-84599428D02*
X169291000Y-83999428D01*
X169519571Y-83999428D01*
X169576714Y-84028000D01*
X169605285Y-84056571D01*
X169633857Y-84113714D01*
X169633857Y-84199428D01*
X169605285Y-84256571D01*
X169576714Y-84285142D01*
X169519571Y-84313714D01*
X169291000Y-84313714D01*
X170205285Y-84599428D02*
X169862428Y-84599428D01*
X170033857Y-84599428D02*
X170033857Y-83999428D01*
X169976714Y-84085142D01*
X169919571Y-84142285D01*
X169862428Y-84170857D01*
X168405285Y-90949428D02*
X168405285Y-90349428D01*
X168633857Y-90349428D01*
X168691000Y-90378000D01*
X168719571Y-90406571D01*
X168748142Y-90463714D01*
X168748142Y-90549428D01*
X168719571Y-90606571D01*
X168691000Y-90635142D01*
X168633857Y-90663714D01*
X168405285Y-90663714D01*
X169005285Y-90949428D02*
X169005285Y-90549428D01*
X169005285Y-90349428D02*
X168976714Y-90378000D01*
X169005285Y-90406571D01*
X169033857Y-90378000D01*
X169005285Y-90349428D01*
X169005285Y-90406571D01*
X169605285Y-90378000D02*
X169548142Y-90349428D01*
X169462428Y-90349428D01*
X169376714Y-90378000D01*
X169319571Y-90435142D01*
X169291000Y-90492285D01*
X169262428Y-90606571D01*
X169262428Y-90692285D01*
X169291000Y-90806571D01*
X169319571Y-90863714D01*
X169376714Y-90920857D01*
X169462428Y-90949428D01*
X169519571Y-90949428D01*
X169605285Y-90920857D01*
X169633857Y-90892285D01*
X169633857Y-90692285D01*
X169519571Y-90692285D01*
X169862428Y-90406571D02*
X169891000Y-90378000D01*
X169948142Y-90349428D01*
X170091000Y-90349428D01*
X170148142Y-90378000D01*
X170176714Y-90406571D01*
X170205285Y-90463714D01*
X170205285Y-90520857D01*
X170176714Y-90606571D01*
X169833857Y-90949428D01*
X170205285Y-90949428D01*
X170945285Y-90949428D02*
X170945285Y-90349428D01*
X171173857Y-90349428D01*
X171231000Y-90378000D01*
X171259571Y-90406571D01*
X171288142Y-90463714D01*
X171288142Y-90549428D01*
X171259571Y-90606571D01*
X171231000Y-90635142D01*
X171173857Y-90663714D01*
X170945285Y-90663714D01*
X171545285Y-90949428D02*
X171545285Y-90549428D01*
X171545285Y-90349428D02*
X171516714Y-90378000D01*
X171545285Y-90406571D01*
X171573857Y-90378000D01*
X171545285Y-90349428D01*
X171545285Y-90406571D01*
X172145285Y-90378000D02*
X172088142Y-90349428D01*
X172002428Y-90349428D01*
X171916714Y-90378000D01*
X171859571Y-90435142D01*
X171831000Y-90492285D01*
X171802428Y-90606571D01*
X171802428Y-90692285D01*
X171831000Y-90806571D01*
X171859571Y-90863714D01*
X171916714Y-90920857D01*
X172002428Y-90949428D01*
X172059571Y-90949428D01*
X172145285Y-90920857D01*
X172173857Y-90892285D01*
X172173857Y-90692285D01*
X172059571Y-90692285D01*
X172745285Y-90949428D02*
X172402428Y-90949428D01*
X172573857Y-90949428D02*
X172573857Y-90349428D01*
X172516714Y-90435142D01*
X172459571Y-90492285D01*
X172402428Y-90520857D01*
X176025285Y-84599428D02*
X176025285Y-83999428D01*
X176253857Y-83999428D01*
X176311000Y-84028000D01*
X176339571Y-84056571D01*
X176368142Y-84113714D01*
X176368142Y-84199428D01*
X176339571Y-84256571D01*
X176311000Y-84285142D01*
X176253857Y-84313714D01*
X176025285Y-84313714D01*
X176625285Y-84599428D02*
X176625285Y-84199428D01*
X176625285Y-83999428D02*
X176596714Y-84028000D01*
X176625285Y-84056571D01*
X176653857Y-84028000D01*
X176625285Y-83999428D01*
X176625285Y-84056571D01*
X177111000Y-84285142D02*
X177196714Y-84313714D01*
X177225285Y-84342285D01*
X177253857Y-84399428D01*
X177253857Y-84485142D01*
X177225285Y-84542285D01*
X177196714Y-84570857D01*
X177139571Y-84599428D01*
X176911000Y-84599428D01*
X176911000Y-83999428D01*
X177111000Y-83999428D01*
X177168142Y-84028000D01*
X177196714Y-84056571D01*
X177225285Y-84113714D01*
X177225285Y-84170857D01*
X177196714Y-84228000D01*
X177168142Y-84256571D01*
X177111000Y-84285142D01*
X176911000Y-84285142D01*
X177453857Y-83999428D02*
X177825285Y-83999428D01*
X177625285Y-84228000D01*
X177711000Y-84228000D01*
X177768142Y-84256571D01*
X177796714Y-84285142D01*
X177825285Y-84342285D01*
X177825285Y-84485142D01*
X177796714Y-84542285D01*
X177768142Y-84570857D01*
X177711000Y-84599428D01*
X177539571Y-84599428D01*
X177482428Y-84570857D01*
X177453857Y-84542285D01*
X178565285Y-84599428D02*
X178565285Y-83999428D01*
X178793857Y-83999428D01*
X178851000Y-84028000D01*
X178879571Y-84056571D01*
X178908142Y-84113714D01*
X178908142Y-84199428D01*
X178879571Y-84256571D01*
X178851000Y-84285142D01*
X178793857Y-84313714D01*
X178565285Y-84313714D01*
X179165285Y-84599428D02*
X179165285Y-84199428D01*
X179165285Y-83999428D02*
X179136714Y-84028000D01*
X179165285Y-84056571D01*
X179193857Y-84028000D01*
X179165285Y-83999428D01*
X179165285Y-84056571D01*
X179765285Y-84028000D02*
X179708142Y-83999428D01*
X179622428Y-83999428D01*
X179536714Y-84028000D01*
X179479571Y-84085142D01*
X179451000Y-84142285D01*
X179422428Y-84256571D01*
X179422428Y-84342285D01*
X179451000Y-84456571D01*
X179479571Y-84513714D01*
X179536714Y-84570857D01*
X179622428Y-84599428D01*
X179679571Y-84599428D01*
X179765285Y-84570857D01*
X179793857Y-84542285D01*
X179793857Y-84342285D01*
X179679571Y-84342285D01*
X180165285Y-83999428D02*
X180222428Y-83999428D01*
X180279571Y-84028000D01*
X180308142Y-84056571D01*
X180336714Y-84113714D01*
X180365285Y-84228000D01*
X180365285Y-84370857D01*
X180336714Y-84485142D01*
X180308142Y-84542285D01*
X180279571Y-84570857D01*
X180222428Y-84599428D01*
X180165285Y-84599428D01*
X180108142Y-84570857D01*
X180079571Y-84542285D01*
X180051000Y-84485142D01*
X180022428Y-84370857D01*
X180022428Y-84228000D01*
X180051000Y-84113714D01*
X180079571Y-84056571D01*
X180108142Y-84028000D01*
X180165285Y-83999428D01*
X181105285Y-84599428D02*
X181105285Y-83999428D01*
X181333857Y-83999428D01*
X181391000Y-84028000D01*
X181419571Y-84056571D01*
X181448142Y-84113714D01*
X181448142Y-84199428D01*
X181419571Y-84256571D01*
X181391000Y-84285142D01*
X181333857Y-84313714D01*
X181105285Y-84313714D01*
X181705285Y-84599428D02*
X181705285Y-84199428D01*
X181705285Y-83999428D02*
X181676714Y-84028000D01*
X181705285Y-84056571D01*
X181733857Y-84028000D01*
X181705285Y-83999428D01*
X181705285Y-84056571D01*
X182333857Y-84599428D02*
X182133857Y-84313714D01*
X181991000Y-84599428D02*
X181991000Y-83999428D01*
X182219571Y-83999428D01*
X182276714Y-84028000D01*
X182305285Y-84056571D01*
X182333857Y-84113714D01*
X182333857Y-84199428D01*
X182305285Y-84256571D01*
X182276714Y-84285142D01*
X182219571Y-84313714D01*
X181991000Y-84313714D01*
X182533857Y-83999428D02*
X182905285Y-83999428D01*
X182705285Y-84228000D01*
X182791000Y-84228000D01*
X182848142Y-84256571D01*
X182876714Y-84285142D01*
X182905285Y-84342285D01*
X182905285Y-84485142D01*
X182876714Y-84542285D01*
X182848142Y-84570857D01*
X182791000Y-84599428D01*
X182619571Y-84599428D01*
X182562428Y-84570857D01*
X182533857Y-84542285D01*
X178565285Y-90949428D02*
X178565285Y-90349428D01*
X178793857Y-90349428D01*
X178851000Y-90378000D01*
X178879571Y-90406571D01*
X178908142Y-90463714D01*
X178908142Y-90549428D01*
X178879571Y-90606571D01*
X178851000Y-90635142D01*
X178793857Y-90663714D01*
X178565285Y-90663714D01*
X179165285Y-90949428D02*
X179165285Y-90549428D01*
X179165285Y-90349428D02*
X179136714Y-90378000D01*
X179165285Y-90406571D01*
X179193857Y-90378000D01*
X179165285Y-90349428D01*
X179165285Y-90406571D01*
X179793857Y-90949428D02*
X179593857Y-90663714D01*
X179451000Y-90949428D02*
X179451000Y-90349428D01*
X179679571Y-90349428D01*
X179736714Y-90378000D01*
X179765285Y-90406571D01*
X179793857Y-90463714D01*
X179793857Y-90549428D01*
X179765285Y-90606571D01*
X179736714Y-90635142D01*
X179679571Y-90663714D01*
X179451000Y-90663714D01*
X180022428Y-90406571D02*
X180051000Y-90378000D01*
X180108142Y-90349428D01*
X180251000Y-90349428D01*
X180308142Y-90378000D01*
X180336714Y-90406571D01*
X180365285Y-90463714D01*
X180365285Y-90520857D01*
X180336714Y-90606571D01*
X179993857Y-90949428D01*
X180365285Y-90949428D01*
X185737809Y-91308180D02*
X185404476Y-90831990D01*
X185166380Y-91308180D02*
X185166380Y-90308180D01*
X185547333Y-90308180D01*
X185642571Y-90355800D01*
X185690190Y-90403419D01*
X185737809Y-90498657D01*
X185737809Y-90641514D01*
X185690190Y-90736752D01*
X185642571Y-90784371D01*
X185547333Y-90831990D01*
X185166380Y-90831990D01*
X186166380Y-91308180D02*
X186166380Y-90308180D01*
X186547333Y-90308180D01*
X186642571Y-90355800D01*
X186690190Y-90403419D01*
X186737809Y-90498657D01*
X186737809Y-90641514D01*
X186690190Y-90736752D01*
X186642571Y-90784371D01*
X186547333Y-90831990D01*
X186166380Y-90831990D01*
X187166380Y-91308180D02*
X187166380Y-90641514D01*
X187166380Y-90308180D02*
X187118761Y-90355800D01*
X187166380Y-90403419D01*
X187214000Y-90355800D01*
X187166380Y-90308180D01*
X187166380Y-90403419D01*
X188309238Y-90308180D02*
X188975904Y-90308180D01*
X188309238Y-91308180D01*
X188975904Y-91308180D01*
X189737809Y-91260561D02*
X189642571Y-91308180D01*
X189452095Y-91308180D01*
X189356857Y-91260561D01*
X189309238Y-91165323D01*
X189309238Y-90784371D01*
X189356857Y-90689133D01*
X189452095Y-90641514D01*
X189642571Y-90641514D01*
X189737809Y-90689133D01*
X189785428Y-90784371D01*
X189785428Y-90879609D01*
X189309238Y-90974847D01*
X190214000Y-91308180D02*
X190214000Y-90641514D01*
X190214000Y-90831990D02*
X190261619Y-90736752D01*
X190309238Y-90689133D01*
X190404476Y-90641514D01*
X190499714Y-90641514D01*
X190975904Y-91308180D02*
X190880666Y-91260561D01*
X190833047Y-91212942D01*
X190785428Y-91117704D01*
X190785428Y-90831990D01*
X190833047Y-90736752D01*
X190880666Y-90689133D01*
X190975904Y-90641514D01*
X191118761Y-90641514D01*
X191214000Y-90689133D01*
X191261619Y-90736752D01*
X191309238Y-90831990D01*
X191309238Y-91117704D01*
X191261619Y-91212942D01*
X191214000Y-91260561D01*
X191118761Y-91308180D01*
X190975904Y-91308180D01*
X156591000Y-63500000D02*
X156591000Y-58674000D01*
X166751000Y-64516000D02*
X166751000Y-57531000D01*
X161671000Y-64516000D02*
X161671000Y-57531000D01*
X171704000Y-63500000D02*
X156591000Y-63500000D01*
X156591000Y-58674000D02*
X171704000Y-58674000D01*
X152704857Y-69677000D02*
X152647714Y-69648428D01*
X152562000Y-69648428D01*
X152476285Y-69677000D01*
X152419142Y-69734142D01*
X152390571Y-69791285D01*
X152362000Y-69905571D01*
X152362000Y-69991285D01*
X152390571Y-70105571D01*
X152419142Y-70162714D01*
X152476285Y-70219857D01*
X152562000Y-70248428D01*
X152619142Y-70248428D01*
X152704857Y-70219857D01*
X152733428Y-70191285D01*
X152733428Y-69991285D01*
X152619142Y-69991285D01*
X152990571Y-70248428D02*
X152990571Y-69648428D01*
X153333428Y-70248428D01*
X153333428Y-69648428D01*
X153619142Y-70248428D02*
X153619142Y-69648428D01*
X153762000Y-69648428D01*
X153847714Y-69677000D01*
X153904857Y-69734142D01*
X153933428Y-69791285D01*
X153962000Y-69905571D01*
X153962000Y-69991285D01*
X153933428Y-70105571D01*
X153904857Y-70162714D01*
X153847714Y-70219857D01*
X153762000Y-70248428D01*
X153619142Y-70248428D01*
X174361571Y-59859857D02*
X174818714Y-59859857D01*
X174590142Y-60088428D02*
X174590142Y-59631285D01*
X175390142Y-59488428D02*
X175104428Y-59488428D01*
X175075857Y-59774142D01*
X175104428Y-59745571D01*
X175161571Y-59717000D01*
X175304428Y-59717000D01*
X175361571Y-59745571D01*
X175390142Y-59774142D01*
X175418714Y-59831285D01*
X175418714Y-59974142D01*
X175390142Y-60031285D01*
X175361571Y-60059857D01*
X175304428Y-60088428D01*
X175161571Y-60088428D01*
X175104428Y-60059857D01*
X175075857Y-60031285D01*
X175590142Y-59488428D02*
X175790142Y-60088428D01*
X175990142Y-59488428D01*
X170588000Y-58310428D02*
X170388000Y-58024714D01*
X170245142Y-58310428D02*
X170245142Y-57710428D01*
X170473714Y-57710428D01*
X170530857Y-57739000D01*
X170559428Y-57767571D01*
X170588000Y-57824714D01*
X170588000Y-57910428D01*
X170559428Y-57967571D01*
X170530857Y-57996142D01*
X170473714Y-58024714D01*
X170245142Y-58024714D01*
X171159428Y-58310428D02*
X170816571Y-58310428D01*
X170988000Y-58310428D02*
X170988000Y-57710428D01*
X170930857Y-57796142D01*
X170873714Y-57853285D01*
X170816571Y-57881857D01*
X167921000Y-58183428D02*
X167721000Y-57897714D01*
X167578142Y-58183428D02*
X167578142Y-57583428D01*
X167806714Y-57583428D01*
X167863857Y-57612000D01*
X167892428Y-57640571D01*
X167921000Y-57697714D01*
X167921000Y-57783428D01*
X167892428Y-57840571D01*
X167863857Y-57869142D01*
X167806714Y-57897714D01*
X167578142Y-57897714D01*
X168121000Y-57583428D02*
X168492428Y-57583428D01*
X168292428Y-57812000D01*
X168378142Y-57812000D01*
X168435285Y-57840571D01*
X168463857Y-57869142D01*
X168492428Y-57926285D01*
X168492428Y-58069142D01*
X168463857Y-58126285D01*
X168435285Y-58154857D01*
X168378142Y-58183428D01*
X168206714Y-58183428D01*
X168149571Y-58154857D01*
X168121000Y-58126285D01*
X160272428Y-63962000D02*
X160215285Y-63933428D01*
X160129571Y-63933428D01*
X160043857Y-63962000D01*
X159986714Y-64019142D01*
X159958142Y-64076285D01*
X159929571Y-64190571D01*
X159929571Y-64276285D01*
X159958142Y-64390571D01*
X159986714Y-64447714D01*
X160043857Y-64504857D01*
X160129571Y-64533428D01*
X160186714Y-64533428D01*
X160272428Y-64504857D01*
X160301000Y-64476285D01*
X160301000Y-64276285D01*
X160186714Y-64276285D01*
X160672428Y-63933428D02*
X160729571Y-63933428D01*
X160786714Y-63962000D01*
X160815285Y-63990571D01*
X160843857Y-64047714D01*
X160872428Y-64162000D01*
X160872428Y-64304857D01*
X160843857Y-64419142D01*
X160815285Y-64476285D01*
X160786714Y-64504857D01*
X160729571Y-64533428D01*
X160672428Y-64533428D01*
X160615285Y-64504857D01*
X160586714Y-64476285D01*
X160558142Y-64419142D01*
X160529571Y-64304857D01*
X160529571Y-64162000D01*
X160558142Y-64047714D01*
X160586714Y-63990571D01*
X160615285Y-63962000D01*
X160672428Y-63933428D01*
X152317571Y-63841285D02*
X152289000Y-63869857D01*
X152203285Y-63898428D01*
X152146142Y-63898428D01*
X152060428Y-63869857D01*
X152003285Y-63812714D01*
X151974714Y-63755571D01*
X151946142Y-63641285D01*
X151946142Y-63555571D01*
X151974714Y-63441285D01*
X152003285Y-63384142D01*
X152060428Y-63327000D01*
X152146142Y-63298428D01*
X152203285Y-63298428D01*
X152289000Y-63327000D01*
X152317571Y-63355571D01*
X152546142Y-63869857D02*
X152631857Y-63898428D01*
X152774714Y-63898428D01*
X152831857Y-63869857D01*
X152860428Y-63841285D01*
X152889000Y-63784142D01*
X152889000Y-63727000D01*
X152860428Y-63669857D01*
X152831857Y-63641285D01*
X152774714Y-63612714D01*
X152660428Y-63584142D01*
X152603285Y-63555571D01*
X152574714Y-63527000D01*
X152546142Y-63469857D01*
X152546142Y-63412714D01*
X152574714Y-63355571D01*
X152603285Y-63327000D01*
X152660428Y-63298428D01*
X152803285Y-63298428D01*
X152889000Y-63327000D01*
X153260428Y-63612714D02*
X153260428Y-63898428D01*
X153060428Y-63298428D02*
X153260428Y-63612714D01*
X153460428Y-63298428D01*
X153660428Y-63898428D02*
X153660428Y-63298428D01*
X154003285Y-63898428D01*
X154003285Y-63298428D01*
X154631857Y-63841285D02*
X154603285Y-63869857D01*
X154517571Y-63898428D01*
X154460428Y-63898428D01*
X154374714Y-63869857D01*
X154317571Y-63812714D01*
X154289000Y-63755571D01*
X154260428Y-63641285D01*
X154260428Y-63555571D01*
X154289000Y-63441285D01*
X154317571Y-63384142D01*
X154374714Y-63327000D01*
X154460428Y-63298428D01*
X154517571Y-63298428D01*
X154603285Y-63327000D01*
X154631857Y-63355571D01*
X152873142Y-66981428D02*
X153273142Y-66981428D01*
X153016000Y-67581428D01*
X153501714Y-67581428D02*
X153501714Y-66981428D01*
X153701714Y-67410000D01*
X153901714Y-66981428D01*
X153901714Y-67581428D01*
X157732428Y-57739000D02*
X157675285Y-57710428D01*
X157589571Y-57710428D01*
X157503857Y-57739000D01*
X157446714Y-57796142D01*
X157418142Y-57853285D01*
X157389571Y-57967571D01*
X157389571Y-58053285D01*
X157418142Y-58167571D01*
X157446714Y-58224714D01*
X157503857Y-58281857D01*
X157589571Y-58310428D01*
X157646714Y-58310428D01*
X157732428Y-58281857D01*
X157761000Y-58253285D01*
X157761000Y-58053285D01*
X157646714Y-58053285D01*
X157961000Y-57710428D02*
X158332428Y-57710428D01*
X158132428Y-57939000D01*
X158218142Y-57939000D01*
X158275285Y-57967571D01*
X158303857Y-57996142D01*
X158332428Y-58053285D01*
X158332428Y-58196142D01*
X158303857Y-58253285D01*
X158275285Y-58281857D01*
X158218142Y-58310428D01*
X158046714Y-58310428D01*
X157989571Y-58281857D01*
X157961000Y-58253285D01*
X155573428Y-60533000D02*
X155516285Y-60504428D01*
X155430571Y-60504428D01*
X155344857Y-60533000D01*
X155287714Y-60590142D01*
X155259142Y-60647285D01*
X155230571Y-60761571D01*
X155230571Y-60847285D01*
X155259142Y-60961571D01*
X155287714Y-61018714D01*
X155344857Y-61075857D01*
X155430571Y-61104428D01*
X155487714Y-61104428D01*
X155573428Y-61075857D01*
X155602000Y-61047285D01*
X155602000Y-60847285D01*
X155487714Y-60847285D01*
X155830571Y-60561571D02*
X155859142Y-60533000D01*
X155916285Y-60504428D01*
X156059142Y-60504428D01*
X156116285Y-60533000D01*
X156144857Y-60561571D01*
X156173428Y-60618714D01*
X156173428Y-60675857D01*
X156144857Y-60761571D01*
X155802000Y-61104428D01*
X156173428Y-61104428D01*
X160272428Y-57739000D02*
X160215285Y-57710428D01*
X160129571Y-57710428D01*
X160043857Y-57739000D01*
X159986714Y-57796142D01*
X159958142Y-57853285D01*
X159929571Y-57967571D01*
X159929571Y-58053285D01*
X159958142Y-58167571D01*
X159986714Y-58224714D01*
X160043857Y-58281857D01*
X160129571Y-58310428D01*
X160186714Y-58310428D01*
X160272428Y-58281857D01*
X160301000Y-58253285D01*
X160301000Y-58053285D01*
X160186714Y-58053285D01*
X160872428Y-58310428D02*
X160529571Y-58310428D01*
X160701000Y-58310428D02*
X160701000Y-57710428D01*
X160643857Y-57796142D01*
X160586714Y-57853285D01*
X160529571Y-57881857D01*
X162698142Y-57996142D02*
X162783857Y-58024714D01*
X162812428Y-58053285D01*
X162841000Y-58110428D01*
X162841000Y-58196142D01*
X162812428Y-58253285D01*
X162783857Y-58281857D01*
X162726714Y-58310428D01*
X162498142Y-58310428D01*
X162498142Y-57710428D01*
X162698142Y-57710428D01*
X162755285Y-57739000D01*
X162783857Y-57767571D01*
X162812428Y-57824714D01*
X162812428Y-57881857D01*
X162783857Y-57939000D01*
X162755285Y-57967571D01*
X162698142Y-57996142D01*
X162498142Y-57996142D01*
X163041000Y-57710428D02*
X163412428Y-57710428D01*
X163212428Y-57939000D01*
X163298142Y-57939000D01*
X163355285Y-57967571D01*
X163383857Y-57996142D01*
X163412428Y-58053285D01*
X163412428Y-58196142D01*
X163383857Y-58253285D01*
X163355285Y-58281857D01*
X163298142Y-58310428D01*
X163126714Y-58310428D01*
X163069571Y-58281857D01*
X163041000Y-58253285D01*
X165238142Y-57869142D02*
X165323857Y-57897714D01*
X165352428Y-57926285D01*
X165381000Y-57983428D01*
X165381000Y-58069142D01*
X165352428Y-58126285D01*
X165323857Y-58154857D01*
X165266714Y-58183428D01*
X165038142Y-58183428D01*
X165038142Y-57583428D01*
X165238142Y-57583428D01*
X165295285Y-57612000D01*
X165323857Y-57640571D01*
X165352428Y-57697714D01*
X165352428Y-57754857D01*
X165323857Y-57812000D01*
X165295285Y-57840571D01*
X165238142Y-57869142D01*
X165038142Y-57869142D01*
X165952428Y-58183428D02*
X165609571Y-58183428D01*
X165781000Y-58183428D02*
X165781000Y-57583428D01*
X165723857Y-57669142D01*
X165666714Y-57726285D01*
X165609571Y-57754857D01*
X162698142Y-64092142D02*
X162783857Y-64120714D01*
X162812428Y-64149285D01*
X162841000Y-64206428D01*
X162841000Y-64292142D01*
X162812428Y-64349285D01*
X162783857Y-64377857D01*
X162726714Y-64406428D01*
X162498142Y-64406428D01*
X162498142Y-63806428D01*
X162698142Y-63806428D01*
X162755285Y-63835000D01*
X162783857Y-63863571D01*
X162812428Y-63920714D01*
X162812428Y-63977857D01*
X162783857Y-64035000D01*
X162755285Y-64063571D01*
X162698142Y-64092142D01*
X162498142Y-64092142D01*
X163069571Y-63863571D02*
X163098142Y-63835000D01*
X163155285Y-63806428D01*
X163298142Y-63806428D01*
X163355285Y-63835000D01*
X163383857Y-63863571D01*
X163412428Y-63920714D01*
X163412428Y-63977857D01*
X163383857Y-64063571D01*
X163041000Y-64406428D01*
X163412428Y-64406428D01*
X165238142Y-64092142D02*
X165323857Y-64120714D01*
X165352428Y-64149285D01*
X165381000Y-64206428D01*
X165381000Y-64292142D01*
X165352428Y-64349285D01*
X165323857Y-64377857D01*
X165266714Y-64406428D01*
X165038142Y-64406428D01*
X165038142Y-63806428D01*
X165238142Y-63806428D01*
X165295285Y-63835000D01*
X165323857Y-63863571D01*
X165352428Y-63920714D01*
X165352428Y-63977857D01*
X165323857Y-64035000D01*
X165295285Y-64063571D01*
X165238142Y-64092142D01*
X165038142Y-64092142D01*
X165752428Y-63806428D02*
X165809571Y-63806428D01*
X165866714Y-63835000D01*
X165895285Y-63863571D01*
X165923857Y-63920714D01*
X165952428Y-64035000D01*
X165952428Y-64177857D01*
X165923857Y-64292142D01*
X165895285Y-64349285D01*
X165866714Y-64377857D01*
X165809571Y-64406428D01*
X165752428Y-64406428D01*
X165695285Y-64377857D01*
X165666714Y-64349285D01*
X165638142Y-64292142D01*
X165609571Y-64177857D01*
X165609571Y-64035000D01*
X165638142Y-63920714D01*
X165666714Y-63863571D01*
X165695285Y-63835000D01*
X165752428Y-63806428D01*
X167921000Y-64406428D02*
X167721000Y-64120714D01*
X167578142Y-64406428D02*
X167578142Y-63806428D01*
X167806714Y-63806428D01*
X167863857Y-63835000D01*
X167892428Y-63863571D01*
X167921000Y-63920714D01*
X167921000Y-64006428D01*
X167892428Y-64063571D01*
X167863857Y-64092142D01*
X167806714Y-64120714D01*
X167578142Y-64120714D01*
X168149571Y-63863571D02*
X168178142Y-63835000D01*
X168235285Y-63806428D01*
X168378142Y-63806428D01*
X168435285Y-63835000D01*
X168463857Y-63863571D01*
X168492428Y-63920714D01*
X168492428Y-63977857D01*
X168463857Y-64063571D01*
X168121000Y-64406428D01*
X168492428Y-64406428D01*
X170461000Y-64406428D02*
X170261000Y-64120714D01*
X170118142Y-64406428D02*
X170118142Y-63806428D01*
X170346714Y-63806428D01*
X170403857Y-63835000D01*
X170432428Y-63863571D01*
X170461000Y-63920714D01*
X170461000Y-64006428D01*
X170432428Y-64063571D01*
X170403857Y-64092142D01*
X170346714Y-64120714D01*
X170118142Y-64120714D01*
X170832428Y-63806428D02*
X170889571Y-63806428D01*
X170946714Y-63835000D01*
X170975285Y-63863571D01*
X171003857Y-63920714D01*
X171032428Y-64035000D01*
X171032428Y-64177857D01*
X171003857Y-64292142D01*
X170975285Y-64349285D01*
X170946714Y-64377857D01*
X170889571Y-64406428D01*
X170832428Y-64406428D01*
X170775285Y-64377857D01*
X170746714Y-64349285D01*
X170718142Y-64292142D01*
X170689571Y-64177857D01*
X170689571Y-64035000D01*
X170718142Y-63920714D01*
X170746714Y-63863571D01*
X170775285Y-63835000D01*
X170832428Y-63806428D01*
D14*
X136918916Y-53624666D02*
X136685583Y-53291333D01*
X136518916Y-53624666D02*
X136518916Y-52924666D01*
X136785583Y-52924666D01*
X136852250Y-52958000D01*
X136885583Y-52991333D01*
X136918916Y-53058000D01*
X136918916Y-53158000D01*
X136885583Y-53224666D01*
X136852250Y-53258000D01*
X136785583Y-53291333D01*
X136518916Y-53291333D01*
X137585583Y-52958000D02*
X137518916Y-52924666D01*
X137418916Y-52924666D01*
X137318916Y-52958000D01*
X137252250Y-53024666D01*
X137218916Y-53091333D01*
X137185583Y-53224666D01*
X137185583Y-53324666D01*
X137218916Y-53458000D01*
X137252250Y-53524666D01*
X137318916Y-53591333D01*
X137418916Y-53624666D01*
X137485583Y-53624666D01*
X137585583Y-53591333D01*
X137618916Y-53558000D01*
X137618916Y-53324666D01*
X137485583Y-53324666D01*
X138152250Y-53258000D02*
X138252250Y-53291333D01*
X138285583Y-53324666D01*
X138318916Y-53391333D01*
X138318916Y-53491333D01*
X138285583Y-53558000D01*
X138252250Y-53591333D01*
X138185583Y-53624666D01*
X137918916Y-53624666D01*
X137918916Y-52924666D01*
X138152250Y-52924666D01*
X138218916Y-52958000D01*
X138252250Y-52991333D01*
X138285583Y-53058000D01*
X138285583Y-53124666D01*
X138252250Y-53191333D01*
X138218916Y-53224666D01*
X138152250Y-53258000D01*
X137918916Y-53258000D01*
X138518916Y-53158000D02*
X138785583Y-53158000D01*
X138618916Y-52924666D02*
X138618916Y-53524666D01*
X138652250Y-53591333D01*
X138718916Y-53624666D01*
X138785583Y-53624666D01*
X139118916Y-53624666D02*
X139052250Y-53591333D01*
X139018916Y-53558000D01*
X138985583Y-53491333D01*
X138985583Y-53291333D01*
X139018916Y-53224666D01*
X139052250Y-53191333D01*
X139118916Y-53158000D01*
X139218916Y-53158000D01*
X139285583Y-53191333D01*
X139318916Y-53224666D01*
X139352250Y-53291333D01*
X139352250Y-53491333D01*
X139318916Y-53558000D01*
X139285583Y-53591333D01*
X139218916Y-53624666D01*
X139118916Y-53624666D01*
X139652250Y-53624666D02*
X139652250Y-52924666D01*
X139652250Y-53258000D02*
X140052250Y-53258000D01*
X140052250Y-53624666D02*
X140052250Y-52924666D01*
X140385583Y-53624666D02*
X140385583Y-52924666D01*
X140552250Y-52924666D01*
X140652250Y-52958000D01*
X140718916Y-53024666D01*
X140752250Y-53091333D01*
X140785583Y-53224666D01*
X140785583Y-53324666D01*
X140752250Y-53458000D01*
X140718916Y-53524666D01*
X140652250Y-53591333D01*
X140552250Y-53624666D01*
X140385583Y-53624666D01*
X141085583Y-53624666D02*
X141085583Y-52924666D01*
X141318916Y-53424666D01*
X141552250Y-52924666D01*
X141552250Y-53624666D01*
X141885583Y-53624666D02*
X141885583Y-52924666D01*
X142718916Y-53424666D02*
X143052250Y-53424666D01*
X142652250Y-53624666D02*
X142885583Y-52924666D01*
X143118916Y-53624666D01*
X143352250Y-53624666D02*
X143352250Y-53158000D01*
X143352250Y-53224666D02*
X143385583Y-53191333D01*
X143452250Y-53158000D01*
X143552250Y-53158000D01*
X143618916Y-53191333D01*
X143652250Y-53258000D01*
X143652250Y-53624666D01*
X143652250Y-53258000D02*
X143685583Y-53191333D01*
X143752250Y-53158000D01*
X143852250Y-53158000D01*
X143918916Y-53191333D01*
X143952250Y-53258000D01*
X143952250Y-53624666D01*
X144285583Y-53624666D02*
X144285583Y-53158000D01*
X144285583Y-52924666D02*
X144252250Y-52958000D01*
X144285583Y-52991333D01*
X144318916Y-52958000D01*
X144285583Y-52924666D01*
X144285583Y-52991333D01*
X144918916Y-53158000D02*
X144918916Y-53724666D01*
X144885583Y-53791333D01*
X144852250Y-53824666D01*
X144785583Y-53858000D01*
X144685583Y-53858000D01*
X144618916Y-53824666D01*
X144918916Y-53591333D02*
X144852250Y-53624666D01*
X144718916Y-53624666D01*
X144652250Y-53591333D01*
X144618916Y-53558000D01*
X144585583Y-53491333D01*
X144585583Y-53291333D01*
X144618916Y-53224666D01*
X144652250Y-53191333D01*
X144718916Y-53158000D01*
X144852250Y-53158000D01*
X144918916Y-53191333D01*
X145552250Y-53624666D02*
X145552250Y-53258000D01*
X145518916Y-53191333D01*
X145452250Y-53158000D01*
X145318916Y-53158000D01*
X145252250Y-53191333D01*
X145552250Y-53591333D02*
X145485583Y-53624666D01*
X145318916Y-53624666D01*
X145252250Y-53591333D01*
X145218916Y-53524666D01*
X145218916Y-53458000D01*
X145252250Y-53391333D01*
X145318916Y-53358000D01*
X145485583Y-53358000D01*
X145552250Y-53324666D01*
X146418916Y-53624666D02*
X146418916Y-52924666D01*
X146585583Y-52924666D01*
X146685583Y-52958000D01*
X146752250Y-53024666D01*
X146785583Y-53091333D01*
X146818916Y-53224666D01*
X146818916Y-53324666D01*
X146785583Y-53458000D01*
X146752250Y-53524666D01*
X146685583Y-53591333D01*
X146585583Y-53624666D01*
X146418916Y-53624666D01*
X147385583Y-53591333D02*
X147318916Y-53624666D01*
X147185583Y-53624666D01*
X147118916Y-53591333D01*
X147085583Y-53524666D01*
X147085583Y-53258000D01*
X147118916Y-53191333D01*
X147185583Y-53158000D01*
X147318916Y-53158000D01*
X147385583Y-53191333D01*
X147418916Y-53258000D01*
X147418916Y-53324666D01*
X147085583Y-53391333D01*
X147718916Y-53158000D02*
X147718916Y-53624666D01*
X147718916Y-53224666D02*
X147752250Y-53191333D01*
X147818916Y-53158000D01*
X147918916Y-53158000D01*
X147985583Y-53191333D01*
X148018916Y-53258000D01*
X148018916Y-53624666D01*
X148352250Y-53624666D02*
X148352250Y-53158000D01*
X148352250Y-52924666D02*
X148318916Y-52958000D01*
X148352250Y-52991333D01*
X148385583Y-52958000D01*
X148352250Y-52924666D01*
X148352250Y-52991333D01*
X148652250Y-53591333D02*
X148718916Y-53624666D01*
X148852250Y-53624666D01*
X148918916Y-53591333D01*
X148952250Y-53524666D01*
X148952250Y-53491333D01*
X148918916Y-53424666D01*
X148852250Y-53391333D01*
X148752250Y-53391333D01*
X148685583Y-53358000D01*
X148652250Y-53291333D01*
X148652250Y-53258000D01*
X148685583Y-53191333D01*
X148752250Y-53158000D01*
X148852250Y-53158000D01*
X148918916Y-53191333D01*
X149518916Y-53591333D02*
X149452250Y-53624666D01*
X149318916Y-53624666D01*
X149252250Y-53591333D01*
X149218916Y-53524666D01*
X149218916Y-53258000D01*
X149252250Y-53191333D01*
X149318916Y-53158000D01*
X149452250Y-53158000D01*
X149518916Y-53191333D01*
X149552250Y-53258000D01*
X149552250Y-53324666D01*
X149218916Y-53391333D01*
X150385583Y-53258000D02*
X150618916Y-53258000D01*
X150718916Y-53624666D02*
X150385583Y-53624666D01*
X150385583Y-52924666D01*
X150718916Y-52924666D01*
X151418916Y-53558000D02*
X151385583Y-53591333D01*
X151285583Y-53624666D01*
X151218916Y-53624666D01*
X151118916Y-53591333D01*
X151052250Y-53524666D01*
X151018916Y-53458000D01*
X150985583Y-53324666D01*
X150985583Y-53224666D01*
X151018916Y-53091333D01*
X151052250Y-53024666D01*
X151118916Y-52958000D01*
X151218916Y-52924666D01*
X151285583Y-52924666D01*
X151385583Y-52958000D01*
X151418916Y-52991333D01*
X151685583Y-53591333D02*
X151785583Y-53624666D01*
X151952250Y-53624666D01*
X152018916Y-53591333D01*
X152052250Y-53558000D01*
X152085583Y-53491333D01*
X152085583Y-53424666D01*
X152052250Y-53358000D01*
X152018916Y-53324666D01*
X151952250Y-53291333D01*
X151818916Y-53258000D01*
X151752250Y-53224666D01*
X151718916Y-53191333D01*
X151685583Y-53124666D01*
X151685583Y-53058000D01*
X151718916Y-52991333D01*
X151752250Y-52958000D01*
X151818916Y-52924666D01*
X151985583Y-52924666D01*
X152085583Y-52958000D01*
X152918916Y-53624666D02*
X152918916Y-52924666D01*
X153185583Y-52924666D01*
X153252250Y-52958000D01*
X153285583Y-52991333D01*
X153318916Y-53058000D01*
X153318916Y-53158000D01*
X153285583Y-53224666D01*
X153252250Y-53258000D01*
X153185583Y-53291333D01*
X152918916Y-53291333D01*
X153952250Y-53624666D02*
X153618916Y-53624666D01*
X153618916Y-52924666D01*
X154585583Y-53558000D02*
X154552250Y-53591333D01*
X154452250Y-53624666D01*
X154385583Y-53624666D01*
X154285583Y-53591333D01*
X154218916Y-53524666D01*
X154185583Y-53458000D01*
X154152250Y-53324666D01*
X154152250Y-53224666D01*
X154185583Y-53091333D01*
X154218916Y-53024666D01*
X154285583Y-52958000D01*
X154385583Y-52924666D01*
X154452250Y-52924666D01*
X154552250Y-52958000D01*
X154585583Y-52991333D01*
X155285583Y-53558000D02*
X155252250Y-53591333D01*
X155152250Y-53624666D01*
X155085583Y-53624666D01*
X154985583Y-53591333D01*
X154918916Y-53524666D01*
X154885583Y-53458000D01*
X154852250Y-53324666D01*
X154852250Y-53224666D01*
X154885583Y-53091333D01*
X154918916Y-53024666D01*
X154985583Y-52958000D01*
X155085583Y-52924666D01*
X155152250Y-52924666D01*
X155252250Y-52958000D01*
X155285583Y-52991333D01*
X136518916Y-54799666D02*
X136518916Y-54099666D01*
X136518916Y-54366333D02*
X136585583Y-54333000D01*
X136718916Y-54333000D01*
X136785583Y-54366333D01*
X136818916Y-54399666D01*
X136852250Y-54466333D01*
X136852250Y-54666333D01*
X136818916Y-54733000D01*
X136785583Y-54766333D01*
X136718916Y-54799666D01*
X136585583Y-54799666D01*
X136518916Y-54766333D01*
X137085583Y-54333000D02*
X137252250Y-54799666D01*
X137418916Y-54333000D02*
X137252250Y-54799666D01*
X137185583Y-54966333D01*
X137152250Y-54999666D01*
X137085583Y-55033000D01*
X138185583Y-54766333D02*
X138252250Y-54799666D01*
X138385583Y-54799666D01*
X138452250Y-54766333D01*
X138485583Y-54699666D01*
X138485583Y-54666333D01*
X138452250Y-54599666D01*
X138385583Y-54566333D01*
X138285583Y-54566333D01*
X138218916Y-54533000D01*
X138185583Y-54466333D01*
X138185583Y-54433000D01*
X138218916Y-54366333D01*
X138285583Y-54333000D01*
X138385583Y-54333000D01*
X138452250Y-54366333D01*
X138885583Y-54799666D02*
X138818916Y-54766333D01*
X138785583Y-54733000D01*
X138752250Y-54666333D01*
X138752250Y-54466333D01*
X138785583Y-54399666D01*
X138818916Y-54366333D01*
X138885583Y-54333000D01*
X138985583Y-54333000D01*
X139052250Y-54366333D01*
X139085583Y-54399666D01*
X139118916Y-54466333D01*
X139118916Y-54666333D01*
X139085583Y-54733000D01*
X139052250Y-54766333D01*
X138985583Y-54799666D01*
X138885583Y-54799666D01*
X139518916Y-54799666D02*
X139452250Y-54766333D01*
X139418916Y-54699666D01*
X139418916Y-54099666D01*
X140085583Y-54799666D02*
X140085583Y-54433000D01*
X140052250Y-54366333D01*
X139985583Y-54333000D01*
X139852250Y-54333000D01*
X139785583Y-54366333D01*
X140085583Y-54766333D02*
X140018916Y-54799666D01*
X139852250Y-54799666D01*
X139785583Y-54766333D01*
X139752250Y-54699666D01*
X139752250Y-54633000D01*
X139785583Y-54566333D01*
X139852250Y-54533000D01*
X140018916Y-54533000D01*
X140085583Y-54499666D01*
X140418916Y-54799666D02*
X140418916Y-54333000D01*
X140418916Y-54466333D02*
X140452250Y-54399666D01*
X140485583Y-54366333D01*
X140552250Y-54333000D01*
X140618916Y-54333000D01*
X140852250Y-54799666D02*
X140852250Y-54333000D01*
X140852250Y-54399666D02*
X140885583Y-54366333D01*
X140952250Y-54333000D01*
X141052250Y-54333000D01*
X141118916Y-54366333D01*
X141152250Y-54433000D01*
X141152250Y-54799666D01*
X141152250Y-54433000D02*
X141185583Y-54366333D01*
X141252250Y-54333000D01*
X141352250Y-54333000D01*
X141418916Y-54366333D01*
X141452250Y-54433000D01*
X141452250Y-54799666D01*
X141885583Y-54799666D02*
X141818916Y-54766333D01*
X141785583Y-54733000D01*
X141752250Y-54666333D01*
X141752250Y-54466333D01*
X141785583Y-54399666D01*
X141818916Y-54366333D01*
X141885583Y-54333000D01*
X141985583Y-54333000D01*
X142052250Y-54366333D01*
X142085583Y-54399666D01*
X142118916Y-54466333D01*
X142118916Y-54666333D01*
X142085583Y-54733000D01*
X142052250Y-54766333D01*
X141985583Y-54799666D01*
X141885583Y-54799666D01*
X142418916Y-54333000D02*
X142418916Y-54799666D01*
X142418916Y-54399666D02*
X142452250Y-54366333D01*
X142518916Y-54333000D01*
X142618916Y-54333000D01*
X142685583Y-54366333D01*
X142718916Y-54433000D01*
X142718916Y-54799666D01*
X136518916Y-55974666D02*
X136518916Y-55274666D01*
X136818916Y-55974666D02*
X136818916Y-55608000D01*
X136785583Y-55541333D01*
X136718916Y-55508000D01*
X136618916Y-55508000D01*
X136552250Y-55541333D01*
X136518916Y-55574666D01*
X137052250Y-55508000D02*
X137318916Y-55508000D01*
X137152250Y-55274666D02*
X137152250Y-55874666D01*
X137185583Y-55941333D01*
X137252250Y-55974666D01*
X137318916Y-55974666D01*
X137452250Y-55508000D02*
X137718916Y-55508000D01*
X137552250Y-55274666D02*
X137552250Y-55874666D01*
X137585583Y-55941333D01*
X137652250Y-55974666D01*
X137718916Y-55974666D01*
X137952250Y-55508000D02*
X137952250Y-56208000D01*
X137952250Y-55541333D02*
X138018916Y-55508000D01*
X138152250Y-55508000D01*
X138218916Y-55541333D01*
X138252250Y-55574666D01*
X138285583Y-55641333D01*
X138285583Y-55841333D01*
X138252250Y-55908000D01*
X138218916Y-55941333D01*
X138152250Y-55974666D01*
X138018916Y-55974666D01*
X137952250Y-55941333D01*
X138552250Y-55941333D02*
X138618916Y-55974666D01*
X138752250Y-55974666D01*
X138818916Y-55941333D01*
X138852250Y-55874666D01*
X138852250Y-55841333D01*
X138818916Y-55774666D01*
X138752250Y-55741333D01*
X138652250Y-55741333D01*
X138585583Y-55708000D01*
X138552250Y-55641333D01*
X138552250Y-55608000D01*
X138585583Y-55541333D01*
X138652250Y-55508000D01*
X138752250Y-55508000D01*
X138818916Y-55541333D01*
X139152250Y-55908000D02*
X139185583Y-55941333D01*
X139152250Y-55974666D01*
X139118916Y-55941333D01*
X139152250Y-55908000D01*
X139152250Y-55974666D01*
X139152250Y-55541333D02*
X139185583Y-55574666D01*
X139152250Y-55608000D01*
X139118916Y-55574666D01*
X139152250Y-55541333D01*
X139152250Y-55608000D01*
X139985583Y-55241333D02*
X139385583Y-56141333D01*
X140718916Y-55241333D02*
X140118916Y-56141333D01*
X141252250Y-55508000D02*
X141252250Y-56074666D01*
X141218916Y-56141333D01*
X141185583Y-56174666D01*
X141118916Y-56208000D01*
X141018916Y-56208000D01*
X140952250Y-56174666D01*
X141252250Y-55941333D02*
X141185583Y-55974666D01*
X141052250Y-55974666D01*
X140985583Y-55941333D01*
X140952250Y-55908000D01*
X140918916Y-55841333D01*
X140918916Y-55641333D01*
X140952250Y-55574666D01*
X140985583Y-55541333D01*
X141052250Y-55508000D01*
X141185583Y-55508000D01*
X141252250Y-55541333D01*
X141585583Y-55974666D02*
X141585583Y-55508000D01*
X141585583Y-55274666D02*
X141552250Y-55308000D01*
X141585583Y-55341333D01*
X141618916Y-55308000D01*
X141585583Y-55274666D01*
X141585583Y-55341333D01*
X141818916Y-55508000D02*
X142085583Y-55508000D01*
X141918916Y-55274666D02*
X141918916Y-55874666D01*
X141952250Y-55941333D01*
X142018916Y-55974666D01*
X142085583Y-55974666D01*
X142318916Y-55974666D02*
X142318916Y-55274666D01*
X142618916Y-55974666D02*
X142618916Y-55608000D01*
X142585583Y-55541333D01*
X142518916Y-55508000D01*
X142418916Y-55508000D01*
X142352250Y-55541333D01*
X142318916Y-55574666D01*
X143252250Y-55508000D02*
X143252250Y-55974666D01*
X142952250Y-55508000D02*
X142952250Y-55874666D01*
X142985583Y-55941333D01*
X143052250Y-55974666D01*
X143152250Y-55974666D01*
X143218916Y-55941333D01*
X143252250Y-55908000D01*
X143585583Y-55974666D02*
X143585583Y-55274666D01*
X143585583Y-55541333D02*
X143652250Y-55508000D01*
X143785583Y-55508000D01*
X143852250Y-55541333D01*
X143885583Y-55574666D01*
X143918916Y-55641333D01*
X143918916Y-55841333D01*
X143885583Y-55908000D01*
X143852250Y-55941333D01*
X143785583Y-55974666D01*
X143652250Y-55974666D01*
X143585583Y-55941333D01*
X144218916Y-55908000D02*
X144252250Y-55941333D01*
X144218916Y-55974666D01*
X144185583Y-55941333D01*
X144218916Y-55908000D01*
X144218916Y-55974666D01*
X144852250Y-55941333D02*
X144785583Y-55974666D01*
X144652250Y-55974666D01*
X144585583Y-55941333D01*
X144552250Y-55908000D01*
X144518916Y-55841333D01*
X144518916Y-55641333D01*
X144552250Y-55574666D01*
X144585583Y-55541333D01*
X144652250Y-55508000D01*
X144785583Y-55508000D01*
X144852250Y-55541333D01*
X145252250Y-55974666D02*
X145185583Y-55941333D01*
X145152250Y-55908000D01*
X145118916Y-55841333D01*
X145118916Y-55641333D01*
X145152250Y-55574666D01*
X145185583Y-55541333D01*
X145252250Y-55508000D01*
X145352250Y-55508000D01*
X145418916Y-55541333D01*
X145452250Y-55574666D01*
X145485583Y-55641333D01*
X145485583Y-55841333D01*
X145452250Y-55908000D01*
X145418916Y-55941333D01*
X145352250Y-55974666D01*
X145252250Y-55974666D01*
X145785583Y-55974666D02*
X145785583Y-55508000D01*
X145785583Y-55574666D02*
X145818916Y-55541333D01*
X145885583Y-55508000D01*
X145985583Y-55508000D01*
X146052250Y-55541333D01*
X146085583Y-55608000D01*
X146085583Y-55974666D01*
X146085583Y-55608000D02*
X146118916Y-55541333D01*
X146185583Y-55508000D01*
X146285583Y-55508000D01*
X146352250Y-55541333D01*
X146385583Y-55608000D01*
X146385583Y-55974666D01*
X147218916Y-55241333D02*
X146618916Y-56141333D01*
X147418916Y-55941333D02*
X147485583Y-55974666D01*
X147618916Y-55974666D01*
X147685583Y-55941333D01*
X147718916Y-55874666D01*
X147718916Y-55841333D01*
X147685583Y-55774666D01*
X147618916Y-55741333D01*
X147518916Y-55741333D01*
X147452250Y-55708000D01*
X147418916Y-55641333D01*
X147418916Y-55608000D01*
X147452250Y-55541333D01*
X147518916Y-55508000D01*
X147618916Y-55508000D01*
X147685583Y-55541333D01*
X148118916Y-55974666D02*
X148052250Y-55941333D01*
X148018916Y-55908000D01*
X147985583Y-55841333D01*
X147985583Y-55641333D01*
X148018916Y-55574666D01*
X148052250Y-55541333D01*
X148118916Y-55508000D01*
X148218916Y-55508000D01*
X148285583Y-55541333D01*
X148318916Y-55574666D01*
X148352250Y-55641333D01*
X148352250Y-55841333D01*
X148318916Y-55908000D01*
X148285583Y-55941333D01*
X148218916Y-55974666D01*
X148118916Y-55974666D01*
X148752250Y-55974666D02*
X148685583Y-55941333D01*
X148652250Y-55874666D01*
X148652250Y-55274666D01*
X149318916Y-55974666D02*
X149318916Y-55608000D01*
X149285583Y-55541333D01*
X149218916Y-55508000D01*
X149085583Y-55508000D01*
X149018916Y-55541333D01*
X149318916Y-55941333D02*
X149252250Y-55974666D01*
X149085583Y-55974666D01*
X149018916Y-55941333D01*
X148985583Y-55874666D01*
X148985583Y-55808000D01*
X149018916Y-55741333D01*
X149085583Y-55708000D01*
X149252250Y-55708000D01*
X149318916Y-55674666D01*
X149652250Y-55974666D02*
X149652250Y-55508000D01*
X149652250Y-55641333D02*
X149685583Y-55574666D01*
X149718916Y-55541333D01*
X149785583Y-55508000D01*
X149852250Y-55508000D01*
X150085583Y-55974666D02*
X150085583Y-55508000D01*
X150085583Y-55574666D02*
X150118916Y-55541333D01*
X150185583Y-55508000D01*
X150285583Y-55508000D01*
X150352250Y-55541333D01*
X150385583Y-55608000D01*
X150385583Y-55974666D01*
X150385583Y-55608000D02*
X150418916Y-55541333D01*
X150485583Y-55508000D01*
X150585583Y-55508000D01*
X150652250Y-55541333D01*
X150685583Y-55608000D01*
X150685583Y-55974666D01*
X151118916Y-55974666D02*
X151052250Y-55941333D01*
X151018916Y-55908000D01*
X150985583Y-55841333D01*
X150985583Y-55641333D01*
X151018916Y-55574666D01*
X151052250Y-55541333D01*
X151118916Y-55508000D01*
X151218916Y-55508000D01*
X151285583Y-55541333D01*
X151318916Y-55574666D01*
X151352250Y-55641333D01*
X151352250Y-55841333D01*
X151318916Y-55908000D01*
X151285583Y-55941333D01*
X151218916Y-55974666D01*
X151118916Y-55974666D01*
X151652250Y-55508000D02*
X151652250Y-55974666D01*
X151652250Y-55574666D02*
X151685583Y-55541333D01*
X151752250Y-55508000D01*
X151852250Y-55508000D01*
X151918916Y-55541333D01*
X151952250Y-55608000D01*
X151952250Y-55974666D01*
D13*
X164184000Y-66040000D02*
G75*
G03*
X164184000Y-66040000I-100000J0D01*
G01*
X151230000Y-69469000D02*
G75*
G03*
X151230000Y-69469000I-100000J0D01*
G01*
X194410000Y-69342000D02*
G75*
G03*
X194410000Y-69342000I-100000J0D01*
G01*
X165781000Y-81915000D02*
G75*
G03*
X165781000Y-81915000I-300000J0D01*
G01*
D14*
X160421000Y-53161142D02*
X160506714Y-53189714D01*
X160535285Y-53218285D01*
X160563857Y-53275428D01*
X160563857Y-53361142D01*
X160535285Y-53418285D01*
X160506714Y-53446857D01*
X160449571Y-53475428D01*
X160221000Y-53475428D01*
X160221000Y-52875428D01*
X160421000Y-52875428D01*
X160478142Y-52904000D01*
X160506714Y-52932571D01*
X160535285Y-52989714D01*
X160535285Y-53046857D01*
X160506714Y-53104000D01*
X160478142Y-53132571D01*
X160421000Y-53161142D01*
X160221000Y-53161142D01*
X161078142Y-53475428D02*
X161078142Y-53161142D01*
X161049571Y-53104000D01*
X160992428Y-53075428D01*
X160878142Y-53075428D01*
X160821000Y-53104000D01*
X161078142Y-53446857D02*
X161021000Y-53475428D01*
X160878142Y-53475428D01*
X160821000Y-53446857D01*
X160792428Y-53389714D01*
X160792428Y-53332571D01*
X160821000Y-53275428D01*
X160878142Y-53246857D01*
X161021000Y-53246857D01*
X161078142Y-53218285D01*
X161335285Y-53446857D02*
X161392428Y-53475428D01*
X161506714Y-53475428D01*
X161563857Y-53446857D01*
X161592428Y-53389714D01*
X161592428Y-53361142D01*
X161563857Y-53304000D01*
X161506714Y-53275428D01*
X161421000Y-53275428D01*
X161363857Y-53246857D01*
X161335285Y-53189714D01*
X161335285Y-53161142D01*
X161363857Y-53104000D01*
X161421000Y-53075428D01*
X161506714Y-53075428D01*
X161563857Y-53104000D01*
X162078142Y-53446857D02*
X162021000Y-53475428D01*
X161906714Y-53475428D01*
X161849571Y-53446857D01*
X161821000Y-53389714D01*
X161821000Y-53161142D01*
X161849571Y-53104000D01*
X161906714Y-53075428D01*
X162021000Y-53075428D01*
X162078142Y-53104000D01*
X162106714Y-53161142D01*
X162106714Y-53218285D01*
X161821000Y-53275428D01*
X162621000Y-53475428D02*
X162621000Y-52875428D01*
X162621000Y-53446857D02*
X162563857Y-53475428D01*
X162449571Y-53475428D01*
X162392428Y-53446857D01*
X162363857Y-53418285D01*
X162335285Y-53361142D01*
X162335285Y-53189714D01*
X162363857Y-53132571D01*
X162392428Y-53104000D01*
X162449571Y-53075428D01*
X162563857Y-53075428D01*
X162621000Y-53104000D01*
X163449571Y-53475428D02*
X163392428Y-53446857D01*
X163363857Y-53418285D01*
X163335285Y-53361142D01*
X163335285Y-53189714D01*
X163363857Y-53132571D01*
X163392428Y-53104000D01*
X163449571Y-53075428D01*
X163535285Y-53075428D01*
X163592428Y-53104000D01*
X163621000Y-53132571D01*
X163649571Y-53189714D01*
X163649571Y-53361142D01*
X163621000Y-53418285D01*
X163592428Y-53446857D01*
X163535285Y-53475428D01*
X163449571Y-53475428D01*
X163906714Y-53075428D02*
X163906714Y-53475428D01*
X163906714Y-53132571D02*
X163935285Y-53104000D01*
X163992428Y-53075428D01*
X164078142Y-53075428D01*
X164135285Y-53104000D01*
X164163857Y-53161142D01*
X164163857Y-53475428D01*
X165249571Y-53475428D02*
X165049571Y-53189714D01*
X164906714Y-53475428D02*
X164906714Y-52875428D01*
X165135285Y-52875428D01*
X165192428Y-52904000D01*
X165221000Y-52932571D01*
X165249571Y-52989714D01*
X165249571Y-53075428D01*
X165221000Y-53132571D01*
X165192428Y-53161142D01*
X165135285Y-53189714D01*
X164906714Y-53189714D01*
X165821000Y-52904000D02*
X165763857Y-52875428D01*
X165678142Y-52875428D01*
X165592428Y-52904000D01*
X165535285Y-52961142D01*
X165506714Y-53018285D01*
X165478142Y-53132571D01*
X165478142Y-53218285D01*
X165506714Y-53332571D01*
X165535285Y-53389714D01*
X165592428Y-53446857D01*
X165678142Y-53475428D01*
X165735285Y-53475428D01*
X165821000Y-53446857D01*
X165849571Y-53418285D01*
X165849571Y-53218285D01*
X165735285Y-53218285D01*
X166306714Y-53161142D02*
X166392428Y-53189714D01*
X166421000Y-53218285D01*
X166449571Y-53275428D01*
X166449571Y-53361142D01*
X166421000Y-53418285D01*
X166392428Y-53446857D01*
X166335285Y-53475428D01*
X166106714Y-53475428D01*
X166106714Y-52875428D01*
X166306714Y-52875428D01*
X166363857Y-52904000D01*
X166392428Y-52932571D01*
X166421000Y-52989714D01*
X166421000Y-53046857D01*
X166392428Y-53104000D01*
X166363857Y-53132571D01*
X166306714Y-53161142D01*
X166106714Y-53161142D01*
X166621000Y-53075428D02*
X166849571Y-53075428D01*
X166706714Y-52875428D02*
X166706714Y-53389714D01*
X166735285Y-53446857D01*
X166792428Y-53475428D01*
X166849571Y-53475428D01*
X167135285Y-53475428D02*
X167078142Y-53446857D01*
X167049571Y-53418285D01*
X167021000Y-53361142D01*
X167021000Y-53189714D01*
X167049571Y-53132571D01*
X167078142Y-53104000D01*
X167135285Y-53075428D01*
X167221000Y-53075428D01*
X167278142Y-53104000D01*
X167306714Y-53132571D01*
X167335285Y-53189714D01*
X167335285Y-53361142D01*
X167306714Y-53418285D01*
X167278142Y-53446857D01*
X167221000Y-53475428D01*
X167135285Y-53475428D01*
X167592428Y-53475428D02*
X167592428Y-52875428D01*
X167592428Y-53161142D02*
X167935285Y-53161142D01*
X167935285Y-53475428D02*
X167935285Y-52875428D01*
X168221000Y-53475428D02*
X168221000Y-52875428D01*
X168363857Y-52875428D01*
X168449571Y-52904000D01*
X168506714Y-52961142D01*
X168535285Y-53018285D01*
X168563857Y-53132571D01*
X168563857Y-53218285D01*
X168535285Y-53332571D01*
X168506714Y-53389714D01*
X168449571Y-53446857D01*
X168363857Y-53475428D01*
X168221000Y-53475428D01*
X168821000Y-53475428D02*
X168821000Y-52875428D01*
X169021000Y-53304000D01*
X169221000Y-52875428D01*
X169221000Y-53475428D01*
X169506714Y-53475428D02*
X169506714Y-52875428D01*
X170249571Y-53475428D02*
X170249571Y-52875428D01*
X170249571Y-53104000D02*
X170306714Y-53075428D01*
X170421000Y-53075428D01*
X170478142Y-53104000D01*
X170506714Y-53132571D01*
X170535285Y-53189714D01*
X170535285Y-53361142D01*
X170506714Y-53418285D01*
X170478142Y-53446857D01*
X170421000Y-53475428D01*
X170306714Y-53475428D01*
X170249571Y-53446857D01*
X170735285Y-53075428D02*
X170878142Y-53475428D01*
X171021000Y-53075428D02*
X170878142Y-53475428D01*
X170821000Y-53618285D01*
X170792428Y-53646857D01*
X170735285Y-53675428D01*
X171706714Y-53475428D02*
X171706714Y-52875428D01*
X171963857Y-53475428D02*
X171963857Y-53161142D01*
X171935285Y-53104000D01*
X171878142Y-53075428D01*
X171792428Y-53075428D01*
X171735285Y-53104000D01*
X171706714Y-53132571D01*
X172335285Y-53475428D02*
X172278142Y-53446857D01*
X172249571Y-53418285D01*
X172221000Y-53361142D01*
X172221000Y-53189714D01*
X172249571Y-53132571D01*
X172278142Y-53104000D01*
X172335285Y-53075428D01*
X172421000Y-53075428D01*
X172478142Y-53104000D01*
X172506714Y-53132571D01*
X172535285Y-53189714D01*
X172535285Y-53361142D01*
X172506714Y-53418285D01*
X172478142Y-53446857D01*
X172421000Y-53475428D01*
X172335285Y-53475428D01*
X173049571Y-53075428D02*
X173049571Y-53561142D01*
X173021000Y-53618285D01*
X172992428Y-53646857D01*
X172935285Y-53675428D01*
X172849571Y-53675428D01*
X172792428Y-53646857D01*
X173049571Y-53446857D02*
X172992428Y-53475428D01*
X172878142Y-53475428D01*
X172821000Y-53446857D01*
X172792428Y-53418285D01*
X172763857Y-53361142D01*
X172763857Y-53189714D01*
X172792428Y-53132571D01*
X172821000Y-53104000D01*
X172878142Y-53075428D01*
X172992428Y-53075428D01*
X173049571Y-53104000D01*
X173421000Y-53475428D02*
X173363857Y-53446857D01*
X173335285Y-53389714D01*
X173335285Y-52875428D01*
X173878142Y-53446857D02*
X173821000Y-53475428D01*
X173706714Y-53475428D01*
X173649571Y-53446857D01*
X173621000Y-53389714D01*
X173621000Y-53161142D01*
X173649571Y-53104000D01*
X173706714Y-53075428D01*
X173821000Y-53075428D01*
X173878142Y-53104000D01*
X173906714Y-53161142D01*
X173906714Y-53218285D01*
X173621000Y-53275428D01*
X174078142Y-53075428D02*
X174306714Y-53075428D01*
X174163857Y-52875428D02*
X174163857Y-53389714D01*
X174192428Y-53446857D01*
X174249571Y-53475428D01*
X174306714Y-53475428D01*
X174763857Y-52875428D02*
X174649571Y-52875428D01*
X174592428Y-52904000D01*
X174563857Y-52932571D01*
X174506714Y-53018285D01*
X174478142Y-53132571D01*
X174478142Y-53361142D01*
X174506714Y-53418285D01*
X174535285Y-53446857D01*
X174592428Y-53475428D01*
X174706714Y-53475428D01*
X174763857Y-53446857D01*
X174792428Y-53418285D01*
X174821000Y-53361142D01*
X174821000Y-53218285D01*
X174792428Y-53161142D01*
X174763857Y-53132571D01*
X174706714Y-53104000D01*
X174592428Y-53104000D01*
X174535285Y-53132571D01*
X174506714Y-53161142D01*
X174478142Y-53218285D01*
X175021000Y-52875428D02*
X175421000Y-52875428D01*
X175163857Y-53475428D01*
X158120999Y-54329000D02*
X158406714Y-54329000D01*
X158063857Y-54500428D02*
X158263857Y-53900428D01*
X158463857Y-54500428D01*
X158663857Y-54100428D02*
X158663857Y-54500428D01*
X158663857Y-54157571D02*
X158692428Y-54129000D01*
X158749571Y-54100428D01*
X158835285Y-54100428D01*
X158892428Y-54129000D01*
X158920999Y-54186142D01*
X158920999Y-54500428D01*
X159463857Y-54500428D02*
X159463857Y-53900428D01*
X159463857Y-54471857D02*
X159406714Y-54500428D01*
X159292428Y-54500428D01*
X159235285Y-54471857D01*
X159206714Y-54443285D01*
X159178142Y-54386142D01*
X159178142Y-54214714D01*
X159206714Y-54157571D01*
X159235285Y-54129000D01*
X159292428Y-54100428D01*
X159406714Y-54100428D01*
X159463857Y-54129000D01*
X160178142Y-54329000D02*
X160463857Y-54329000D01*
X160120999Y-54500428D02*
X160320999Y-53900428D01*
X160520999Y-54500428D01*
X160720999Y-54500428D02*
X160720999Y-54100428D01*
X160720999Y-54157571D02*
X160749571Y-54129000D01*
X160806714Y-54100428D01*
X160892428Y-54100428D01*
X160949571Y-54129000D01*
X160978142Y-54186142D01*
X160978142Y-54500428D01*
X160978142Y-54186142D02*
X161006714Y-54129000D01*
X161063857Y-54100428D01*
X161149571Y-54100428D01*
X161206714Y-54129000D01*
X161235285Y-54186142D01*
X161235285Y-54500428D01*
X161520999Y-54500428D02*
X161520999Y-54100428D01*
X161520999Y-53900428D02*
X161492428Y-53929000D01*
X161520999Y-53957571D01*
X161549571Y-53929000D01*
X161520999Y-53900428D01*
X161520999Y-53957571D01*
X162063857Y-54100428D02*
X162063857Y-54586142D01*
X162035285Y-54643285D01*
X162006714Y-54671857D01*
X161949571Y-54700428D01*
X161863857Y-54700428D01*
X161806714Y-54671857D01*
X162063857Y-54471857D02*
X162006714Y-54500428D01*
X161892428Y-54500428D01*
X161835285Y-54471857D01*
X161806714Y-54443285D01*
X161778142Y-54386142D01*
X161778142Y-54214714D01*
X161806714Y-54157571D01*
X161835285Y-54129000D01*
X161892428Y-54100428D01*
X162006714Y-54100428D01*
X162063857Y-54129000D01*
X162606714Y-54500428D02*
X162606714Y-54186142D01*
X162578142Y-54129000D01*
X162520999Y-54100428D01*
X162406714Y-54100428D01*
X162349571Y-54129000D01*
X162606714Y-54471857D02*
X162549571Y-54500428D01*
X162406714Y-54500428D01*
X162349571Y-54471857D01*
X162320999Y-54414714D01*
X162320999Y-54357571D01*
X162349571Y-54300428D01*
X162406714Y-54271857D01*
X162549571Y-54271857D01*
X162606714Y-54243285D01*
X163349571Y-54500428D02*
X163349571Y-53900428D01*
X163492428Y-53900428D01*
X163578142Y-53929000D01*
X163635285Y-53986142D01*
X163663857Y-54043285D01*
X163692428Y-54157571D01*
X163692428Y-54243285D01*
X163663857Y-54357571D01*
X163635285Y-54414714D01*
X163578142Y-54471857D01*
X163492428Y-54500428D01*
X163349571Y-54500428D01*
X164178142Y-54471857D02*
X164120999Y-54500428D01*
X164006714Y-54500428D01*
X163949571Y-54471857D01*
X163920999Y-54414714D01*
X163920999Y-54186142D01*
X163949571Y-54129000D01*
X164006714Y-54100428D01*
X164120999Y-54100428D01*
X164178142Y-54129000D01*
X164206714Y-54186142D01*
X164206714Y-54243285D01*
X163920999Y-54300428D01*
X164463857Y-54100428D02*
X164463857Y-54500428D01*
X164463857Y-54157571D02*
X164492428Y-54129000D01*
X164549571Y-54100428D01*
X164635285Y-54100428D01*
X164692428Y-54129000D01*
X164720999Y-54186142D01*
X164720999Y-54500428D01*
X165006714Y-54500428D02*
X165006714Y-54100428D01*
X165006714Y-53900428D02*
X164978142Y-53929000D01*
X165006714Y-53957571D01*
X165035285Y-53929000D01*
X165006714Y-53900428D01*
X165006714Y-53957571D01*
X165263857Y-54471857D02*
X165320999Y-54500428D01*
X165435285Y-54500428D01*
X165492428Y-54471857D01*
X165520999Y-54414714D01*
X165520999Y-54386142D01*
X165492428Y-54329000D01*
X165435285Y-54300428D01*
X165349571Y-54300428D01*
X165292428Y-54271857D01*
X165263857Y-54214714D01*
X165263857Y-54186142D01*
X165292428Y-54129000D01*
X165349571Y-54100428D01*
X165435285Y-54100428D01*
X165492428Y-54129000D01*
X166006714Y-54471857D02*
X165949571Y-54500428D01*
X165835285Y-54500428D01*
X165778142Y-54471857D01*
X165749571Y-54414714D01*
X165749571Y-54186142D01*
X165778142Y-54129000D01*
X165835285Y-54100428D01*
X165949571Y-54100428D01*
X166006714Y-54129000D01*
X166035285Y-54186142D01*
X166035285Y-54243285D01*
X165749571Y-54300428D01*
X166720999Y-54329000D02*
X167006714Y-54329000D01*
X166663857Y-54500428D02*
X166863857Y-53900428D01*
X167063857Y-54500428D01*
X167520999Y-54500428D02*
X167520999Y-53900428D01*
X167520999Y-54471857D02*
X167463857Y-54500428D01*
X167349571Y-54500428D01*
X167292428Y-54471857D01*
X167263857Y-54443285D01*
X167235285Y-54386142D01*
X167235285Y-54214714D01*
X167263857Y-54157571D01*
X167292428Y-54129000D01*
X167349571Y-54100428D01*
X167463857Y-54100428D01*
X167520999Y-54129000D01*
X168063857Y-54500428D02*
X168063857Y-54186142D01*
X168035285Y-54129000D01*
X167978142Y-54100428D01*
X167863857Y-54100428D01*
X167806714Y-54129000D01*
X168063857Y-54471857D02*
X168006714Y-54500428D01*
X167863857Y-54500428D01*
X167806714Y-54471857D01*
X167778142Y-54414714D01*
X167778142Y-54357571D01*
X167806714Y-54300428D01*
X167863857Y-54271857D01*
X168006714Y-54271857D01*
X168063857Y-54243285D01*
X168349571Y-54100428D02*
X168349571Y-54700428D01*
X168349571Y-54129000D02*
X168406714Y-54100428D01*
X168521000Y-54100428D01*
X168578142Y-54129000D01*
X168606714Y-54157571D01*
X168635285Y-54214714D01*
X168635285Y-54386142D01*
X168606714Y-54443285D01*
X168578142Y-54471857D01*
X168521000Y-54500428D01*
X168406714Y-54500428D01*
X168349571Y-54471857D01*
X168806714Y-54100428D02*
X169035285Y-54100428D01*
X168892428Y-53900428D02*
X168892428Y-54414714D01*
X168921000Y-54471857D01*
X168978142Y-54500428D01*
X169035285Y-54500428D01*
X169463857Y-54471857D02*
X169406714Y-54500428D01*
X169292428Y-54500428D01*
X169235285Y-54471857D01*
X169206714Y-54414714D01*
X169206714Y-54186142D01*
X169235285Y-54129000D01*
X169292428Y-54100428D01*
X169406714Y-54100428D01*
X169463857Y-54129000D01*
X169492428Y-54186142D01*
X169492428Y-54243285D01*
X169206714Y-54300428D01*
X169749571Y-54500428D02*
X169749571Y-54100428D01*
X169749571Y-54214714D02*
X169778142Y-54157571D01*
X169806714Y-54129000D01*
X169863857Y-54100428D01*
X169921000Y-54100428D01*
X170578142Y-54500428D02*
X170578142Y-53900428D01*
X170578142Y-54129000D02*
X170635285Y-54100428D01*
X170749571Y-54100428D01*
X170806714Y-54129000D01*
X170835285Y-54157571D01*
X170863857Y-54214714D01*
X170863857Y-54386142D01*
X170835285Y-54443285D01*
X170806714Y-54471857D01*
X170749571Y-54500428D01*
X170635285Y-54500428D01*
X170578142Y-54471857D01*
X171063857Y-54100428D02*
X171206714Y-54500428D01*
X171349571Y-54100428D02*
X171206714Y-54500428D01*
X171149571Y-54643285D01*
X171121000Y-54671857D01*
X171063857Y-54700428D01*
X172292428Y-54471857D02*
X172235285Y-54500428D01*
X172121000Y-54500428D01*
X172063857Y-54471857D01*
X172035285Y-54443285D01*
X172006714Y-54386142D01*
X172006714Y-54214714D01*
X172035285Y-54157571D01*
X172063857Y-54129000D01*
X172121000Y-54100428D01*
X172235285Y-54100428D01*
X172292428Y-54129000D01*
X172663857Y-53900428D02*
X172721000Y-53900428D01*
X172778142Y-53929000D01*
X172806714Y-53957571D01*
X172835285Y-54014714D01*
X172863857Y-54129000D01*
X172863857Y-54271857D01*
X172835285Y-54386142D01*
X172806714Y-54443285D01*
X172778142Y-54471857D01*
X172721000Y-54500428D01*
X172663857Y-54500428D01*
X172606714Y-54471857D01*
X172578142Y-54443285D01*
X172549571Y-54386142D01*
X172521000Y-54271857D01*
X172521000Y-54129000D01*
X172549571Y-54014714D01*
X172578142Y-53957571D01*
X172606714Y-53929000D01*
X172663857Y-53900428D01*
X173121000Y-54100428D02*
X173121000Y-54700428D01*
X173121000Y-54129000D02*
X173178142Y-54100428D01*
X173292428Y-54100428D01*
X173349571Y-54129000D01*
X173378142Y-54157571D01*
X173406714Y-54214714D01*
X173406714Y-54386142D01*
X173378142Y-54443285D01*
X173349571Y-54471857D01*
X173292428Y-54500428D01*
X173178142Y-54500428D01*
X173121000Y-54471857D01*
X173663857Y-54100428D02*
X173663857Y-54700428D01*
X173663857Y-54129000D02*
X173721000Y-54100428D01*
X173835285Y-54100428D01*
X173892428Y-54129000D01*
X173921000Y-54157571D01*
X173949571Y-54214714D01*
X173949571Y-54386142D01*
X173921000Y-54443285D01*
X173892428Y-54471857D01*
X173835285Y-54500428D01*
X173721000Y-54500428D01*
X173663857Y-54471857D01*
X174435285Y-54471857D02*
X174378142Y-54500428D01*
X174263857Y-54500428D01*
X174206714Y-54471857D01*
X174178142Y-54414714D01*
X174178142Y-54186142D01*
X174206714Y-54129000D01*
X174263857Y-54100428D01*
X174378142Y-54100428D01*
X174435285Y-54129000D01*
X174463857Y-54186142D01*
X174463857Y-54243285D01*
X174178142Y-54300428D01*
X174721000Y-54500428D02*
X174721000Y-54100428D01*
X174721000Y-54214714D02*
X174749571Y-54157571D01*
X174778142Y-54129000D01*
X174835285Y-54100428D01*
X174892428Y-54100428D01*
X175349571Y-54500428D02*
X175349571Y-53900428D01*
X175349571Y-54471857D02*
X175292428Y-54500428D01*
X175178142Y-54500428D01*
X175121000Y-54471857D01*
X175092428Y-54443285D01*
X175063857Y-54386142D01*
X175063857Y-54214714D01*
X175092428Y-54157571D01*
X175121000Y-54129000D01*
X175178142Y-54100428D01*
X175292428Y-54100428D01*
X175349571Y-54129000D01*
X175635285Y-54500428D02*
X175635285Y-54100428D01*
X175635285Y-54214714D02*
X175663857Y-54157571D01*
X175692428Y-54129000D01*
X175749571Y-54100428D01*
X175806714Y-54100428D01*
X176263857Y-54500428D02*
X176263857Y-54186142D01*
X176235285Y-54129000D01*
X176178142Y-54100428D01*
X176063857Y-54100428D01*
X176006714Y-54129000D01*
X176263857Y-54471857D02*
X176206714Y-54500428D01*
X176063857Y-54500428D01*
X176006714Y-54471857D01*
X175978142Y-54414714D01*
X175978142Y-54357571D01*
X176006714Y-54300428D01*
X176063857Y-54271857D01*
X176206714Y-54271857D01*
X176263857Y-54243285D01*
X176806714Y-54100428D02*
X176806714Y-54586142D01*
X176778142Y-54643285D01*
X176749571Y-54671857D01*
X176692428Y-54700428D01*
X176606714Y-54700428D01*
X176549571Y-54671857D01*
X176806714Y-54471857D02*
X176749571Y-54500428D01*
X176635285Y-54500428D01*
X176578142Y-54471857D01*
X176549571Y-54443285D01*
X176520999Y-54386142D01*
X176520999Y-54214714D01*
X176549571Y-54157571D01*
X176578142Y-54129000D01*
X176635285Y-54100428D01*
X176749571Y-54100428D01*
X176806714Y-54129000D01*
X177178142Y-54500428D02*
X177120999Y-54471857D01*
X177092428Y-54443285D01*
X177063857Y-54386142D01*
X177063857Y-54214714D01*
X177092428Y-54157571D01*
X177120999Y-54129000D01*
X177178142Y-54100428D01*
X177263857Y-54100428D01*
X177320999Y-54129000D01*
X177349571Y-54157571D01*
X177378142Y-54214714D01*
X177378142Y-54386142D01*
X177349571Y-54443285D01*
X177320999Y-54471857D01*
X177263857Y-54500428D01*
X177178142Y-54500428D01*
X177635285Y-54100428D02*
X177635285Y-54500428D01*
X177635285Y-54157571D02*
X177663857Y-54129000D01*
X177720999Y-54100428D01*
X177806714Y-54100428D01*
X177863857Y-54129000D01*
X177892428Y-54186142D01*
X177892428Y-54500428D01*
X158749571Y-55525428D02*
X158749571Y-54925428D01*
X159006714Y-55525428D02*
X159006714Y-55211142D01*
X158978142Y-55154000D01*
X158920999Y-55125428D01*
X158835285Y-55125428D01*
X158778142Y-55154000D01*
X158749571Y-55182571D01*
X159206714Y-55125428D02*
X159435285Y-55125428D01*
X159292428Y-54925428D02*
X159292428Y-55439714D01*
X159320999Y-55496857D01*
X159378142Y-55525428D01*
X159435285Y-55525428D01*
X159549571Y-55125428D02*
X159778142Y-55125428D01*
X159635285Y-54925428D02*
X159635285Y-55439714D01*
X159663857Y-55496857D01*
X159720999Y-55525428D01*
X159778142Y-55525428D01*
X159978142Y-55125428D02*
X159978142Y-55725428D01*
X159978142Y-55154000D02*
X160035285Y-55125428D01*
X160149571Y-55125428D01*
X160206714Y-55154000D01*
X160235285Y-55182571D01*
X160263857Y-55239714D01*
X160263857Y-55411142D01*
X160235285Y-55468285D01*
X160206714Y-55496857D01*
X160149571Y-55525428D01*
X160035285Y-55525428D01*
X159978142Y-55496857D01*
X160492428Y-55496857D02*
X160549571Y-55525428D01*
X160663857Y-55525428D01*
X160720999Y-55496857D01*
X160749571Y-55439714D01*
X160749571Y-55411142D01*
X160720999Y-55354000D01*
X160663857Y-55325428D01*
X160578142Y-55325428D01*
X160520999Y-55296857D01*
X160492428Y-55239714D01*
X160492428Y-55211142D01*
X160520999Y-55154000D01*
X160578142Y-55125428D01*
X160663857Y-55125428D01*
X160720999Y-55154000D01*
X161006714Y-55468285D02*
X161035285Y-55496857D01*
X161006714Y-55525428D01*
X160978142Y-55496857D01*
X161006714Y-55468285D01*
X161006714Y-55525428D01*
X161006714Y-55154000D02*
X161035285Y-55182571D01*
X161006714Y-55211142D01*
X160978142Y-55182571D01*
X161006714Y-55154000D01*
X161006714Y-55211142D01*
X161720999Y-54896857D02*
X161206714Y-55668285D01*
X162349571Y-54896857D02*
X161835285Y-55668285D01*
X162806714Y-55125428D02*
X162806714Y-55611142D01*
X162778142Y-55668285D01*
X162749571Y-55696857D01*
X162692428Y-55725428D01*
X162606714Y-55725428D01*
X162549571Y-55696857D01*
X162806714Y-55496857D02*
X162749571Y-55525428D01*
X162635285Y-55525428D01*
X162578142Y-55496857D01*
X162549571Y-55468285D01*
X162520999Y-55411142D01*
X162520999Y-55239714D01*
X162549571Y-55182571D01*
X162578142Y-55154000D01*
X162635285Y-55125428D01*
X162749571Y-55125428D01*
X162806714Y-55154000D01*
X163092428Y-55525428D02*
X163092428Y-55125428D01*
X163092428Y-54925428D02*
X163063857Y-54954000D01*
X163092428Y-54982571D01*
X163120999Y-54954000D01*
X163092428Y-54925428D01*
X163092428Y-54982571D01*
X163292428Y-55125428D02*
X163520999Y-55125428D01*
X163378142Y-54925428D02*
X163378142Y-55439714D01*
X163406714Y-55496857D01*
X163463857Y-55525428D01*
X163520999Y-55525428D01*
X163720999Y-55525428D02*
X163720999Y-54925428D01*
X163978142Y-55525428D02*
X163978142Y-55211142D01*
X163949571Y-55154000D01*
X163892428Y-55125428D01*
X163806714Y-55125428D01*
X163749571Y-55154000D01*
X163720999Y-55182571D01*
X164520999Y-55125428D02*
X164520999Y-55525428D01*
X164263857Y-55125428D02*
X164263857Y-55439714D01*
X164292428Y-55496857D01*
X164349571Y-55525428D01*
X164435285Y-55525428D01*
X164492428Y-55496857D01*
X164520999Y-55468285D01*
X164806714Y-55525428D02*
X164806714Y-54925428D01*
X164806714Y-55154000D02*
X164863857Y-55125428D01*
X164978142Y-55125428D01*
X165035285Y-55154000D01*
X165063857Y-55182571D01*
X165092428Y-55239714D01*
X165092428Y-55411142D01*
X165063857Y-55468285D01*
X165035285Y-55496857D01*
X164978142Y-55525428D01*
X164863857Y-55525428D01*
X164806714Y-55496857D01*
X165349571Y-55468285D02*
X165378142Y-55496857D01*
X165349571Y-55525428D01*
X165320999Y-55496857D01*
X165349571Y-55468285D01*
X165349571Y-55525428D01*
X165892428Y-55496857D02*
X165835285Y-55525428D01*
X165720999Y-55525428D01*
X165663857Y-55496857D01*
X165635285Y-55468285D01*
X165606714Y-55411142D01*
X165606714Y-55239714D01*
X165635285Y-55182571D01*
X165663857Y-55154000D01*
X165720999Y-55125428D01*
X165835285Y-55125428D01*
X165892428Y-55154000D01*
X166235285Y-55525428D02*
X166178142Y-55496857D01*
X166149571Y-55468285D01*
X166120999Y-55411142D01*
X166120999Y-55239714D01*
X166149571Y-55182571D01*
X166178142Y-55154000D01*
X166235285Y-55125428D01*
X166320999Y-55125428D01*
X166378142Y-55154000D01*
X166406714Y-55182571D01*
X166435285Y-55239714D01*
X166435285Y-55411142D01*
X166406714Y-55468285D01*
X166378142Y-55496857D01*
X166320999Y-55525428D01*
X166235285Y-55525428D01*
X166692428Y-55525428D02*
X166692428Y-55125428D01*
X166692428Y-55182571D02*
X166720999Y-55154000D01*
X166778142Y-55125428D01*
X166863857Y-55125428D01*
X166920999Y-55154000D01*
X166949571Y-55211142D01*
X166949571Y-55525428D01*
X166949571Y-55211142D02*
X166978142Y-55154000D01*
X167035285Y-55125428D01*
X167120999Y-55125428D01*
X167178142Y-55154000D01*
X167206714Y-55211142D01*
X167206714Y-55525428D01*
X167920999Y-54896857D02*
X167406714Y-55668285D01*
X168120999Y-55525428D02*
X168120999Y-54925428D01*
X168378142Y-55525428D02*
X168378142Y-55211142D01*
X168349571Y-55154000D01*
X168292428Y-55125428D01*
X168206714Y-55125428D01*
X168149571Y-55154000D01*
X168120999Y-55182571D01*
X168749571Y-55525428D02*
X168692428Y-55496857D01*
X168663857Y-55468285D01*
X168635285Y-55411142D01*
X168635285Y-55239714D01*
X168663857Y-55182571D01*
X168692428Y-55154000D01*
X168749571Y-55125428D01*
X168835285Y-55125428D01*
X168892428Y-55154000D01*
X168920999Y-55182571D01*
X168949571Y-55239714D01*
X168949571Y-55411142D01*
X168920999Y-55468285D01*
X168892428Y-55496857D01*
X168835285Y-55525428D01*
X168749571Y-55525428D01*
X169463857Y-55125428D02*
X169463857Y-55611142D01*
X169435285Y-55668285D01*
X169406714Y-55696857D01*
X169349571Y-55725428D01*
X169263857Y-55725428D01*
X169206714Y-55696857D01*
X169463857Y-55496857D02*
X169406714Y-55525428D01*
X169292428Y-55525428D01*
X169235285Y-55496857D01*
X169206714Y-55468285D01*
X169178142Y-55411142D01*
X169178142Y-55239714D01*
X169206714Y-55182571D01*
X169235285Y-55154000D01*
X169292428Y-55125428D01*
X169406714Y-55125428D01*
X169463857Y-55154000D01*
X169835285Y-55525428D02*
X169778142Y-55496857D01*
X169749571Y-55439714D01*
X169749571Y-54925428D01*
X170292428Y-55496857D02*
X170235285Y-55525428D01*
X170121000Y-55525428D01*
X170063857Y-55496857D01*
X170035285Y-55439714D01*
X170035285Y-55211142D01*
X170063857Y-55154000D01*
X170121000Y-55125428D01*
X170235285Y-55125428D01*
X170292428Y-55154000D01*
X170321000Y-55211142D01*
X170321000Y-55268285D01*
X170035285Y-55325428D01*
X170492428Y-55125428D02*
X170721000Y-55125428D01*
X170578142Y-54925428D02*
X170578142Y-55439714D01*
X170606714Y-55496857D01*
X170663857Y-55525428D01*
X170721000Y-55525428D01*
X171178142Y-54925428D02*
X171063857Y-54925428D01*
X171006714Y-54954000D01*
X170978142Y-54982571D01*
X170921000Y-55068285D01*
X170892428Y-55182571D01*
X170892428Y-55411142D01*
X170921000Y-55468285D01*
X170949571Y-55496857D01*
X171006714Y-55525428D01*
X171121000Y-55525428D01*
X171178142Y-55496857D01*
X171206714Y-55468285D01*
X171235285Y-55411142D01*
X171235285Y-55268285D01*
X171206714Y-55211142D01*
X171178142Y-55182571D01*
X171121000Y-55154000D01*
X171006714Y-55154000D01*
X170949571Y-55182571D01*
X170921000Y-55211142D01*
X170892428Y-55268285D01*
X171435285Y-54925428D02*
X171835285Y-54925428D01*
X171578142Y-55525428D01*
X172492428Y-54896857D02*
X171978142Y-55668285D01*
X173035285Y-55525428D02*
X172835285Y-55239714D01*
X172692428Y-55525428D02*
X172692428Y-54925428D01*
X172921000Y-54925428D01*
X172978142Y-54954000D01*
X173006714Y-54982571D01*
X173035285Y-55039714D01*
X173035285Y-55125428D01*
X173006714Y-55182571D01*
X172978142Y-55211142D01*
X172921000Y-55239714D01*
X172692428Y-55239714D01*
X173606714Y-54954000D02*
X173549571Y-54925428D01*
X173463857Y-54925428D01*
X173378142Y-54954000D01*
X173321000Y-55011142D01*
X173292428Y-55068285D01*
X173263857Y-55182571D01*
X173263857Y-55268285D01*
X173292428Y-55382571D01*
X173321000Y-55439714D01*
X173378142Y-55496857D01*
X173463857Y-55525428D01*
X173521000Y-55525428D01*
X173606714Y-55496857D01*
X173635285Y-55468285D01*
X173635285Y-55268285D01*
X173521000Y-55268285D01*
X174092428Y-55211142D02*
X174178142Y-55239714D01*
X174206714Y-55268285D01*
X174235285Y-55325428D01*
X174235285Y-55411142D01*
X174206714Y-55468285D01*
X174178142Y-55496857D01*
X174121000Y-55525428D01*
X173892428Y-55525428D01*
X173892428Y-54925428D01*
X174092428Y-54925428D01*
X174149571Y-54954000D01*
X174178142Y-54982571D01*
X174206714Y-55039714D01*
X174206714Y-55096857D01*
X174178142Y-55154000D01*
X174149571Y-55182571D01*
X174092428Y-55211142D01*
X173892428Y-55211142D01*
X174406714Y-55125428D02*
X174635285Y-55125428D01*
X174492428Y-54925428D02*
X174492428Y-55439714D01*
X174521000Y-55496857D01*
X174578142Y-55525428D01*
X174635285Y-55525428D01*
X174921000Y-55525428D02*
X174863857Y-55496857D01*
X174835285Y-55468285D01*
X174806714Y-55411142D01*
X174806714Y-55239714D01*
X174835285Y-55182571D01*
X174863857Y-55154000D01*
X174921000Y-55125428D01*
X175006714Y-55125428D01*
X175063857Y-55154000D01*
X175092428Y-55182571D01*
X175121000Y-55239714D01*
X175121000Y-55411142D01*
X175092428Y-55468285D01*
X175063857Y-55496857D01*
X175006714Y-55525428D01*
X174921000Y-55525428D01*
X175378142Y-55525428D02*
X175378142Y-54925428D01*
X175378142Y-55211142D02*
X175721000Y-55211142D01*
X175721000Y-55525428D02*
X175721000Y-54925428D01*
X176006714Y-55525428D02*
X176006714Y-54925428D01*
X176149571Y-54925428D01*
X176235285Y-54954000D01*
X176292428Y-55011142D01*
X176321000Y-55068285D01*
X176349571Y-55182571D01*
X176349571Y-55268285D01*
X176321000Y-55382571D01*
X176292428Y-55439714D01*
X176235285Y-55496857D01*
X176149571Y-55525428D01*
X176006714Y-55525428D01*
X176606714Y-55525428D02*
X176606714Y-54925428D01*
X176806714Y-55354000D01*
X177006714Y-54925428D01*
X177006714Y-55525428D01*
X177292428Y-55525428D02*
X177292428Y-54925428D01*
D15*
X184591000Y-62163000D02*
X184591000Y-59503000D01*
X181991000Y-62163000D02*
X184591000Y-62163000D01*
X181991000Y-59503000D02*
X184591000Y-59503000D01*
X181991000Y-62163000D02*
X181991000Y-59503000D01*
X180721000Y-62163000D02*
X179391000Y-62163000D01*
X179391000Y-62163000D02*
X179391000Y-60833000D01*
X140021000Y-86233000D02*
X140021000Y-84903000D01*
X140021000Y-84903000D02*
X141351000Y-84903000D01*
X140021000Y-87503000D02*
X142621000Y-87503000D01*
X142621000Y-87503000D02*
X142621000Y-84903000D01*
X142621000Y-84903000D02*
X190941000Y-84903000D01*
X190941000Y-90103000D02*
X190941000Y-84903000D01*
X140021000Y-90103000D02*
X190941000Y-90103000D01*
X140021000Y-90103000D02*
X140021000Y-87503000D01*
X137361000Y-71168000D02*
X137361000Y-77168000D01*
X150421000Y-69168000D02*
X150421000Y-74168000D01*
X151944000Y-73906748D02*
X151944000Y-74429252D01*
X153364000Y-73906748D02*
X153364000Y-74429252D01*
X161746000Y-68191748D02*
X161746000Y-68714252D01*
X160326000Y-68191748D02*
X160326000Y-68714252D01*
X195251000Y-73906748D02*
X195251000Y-74429252D01*
X196671000Y-73906748D02*
X196671000Y-74429252D01*
X136092000Y-80779252D02*
X136092000Y-80256748D01*
X134672000Y-80779252D02*
X134672000Y-80256748D01*
X161746000Y-74302252D02*
X161746000Y-73779748D01*
X160326000Y-74302252D02*
X160326000Y-73779748D01*
D11*
X164676000Y-66822000D02*
X163301000Y-66822000D01*
X164676000Y-75697000D02*
X168826000Y-75697000D01*
X164676000Y-66797000D02*
X168826000Y-66797000D01*
X164676000Y-75697000D02*
X164676000Y-75582000D01*
X168826000Y-75697000D02*
X168826000Y-75582000D01*
X168826000Y-66797000D02*
X168826000Y-66912000D01*
X164676000Y-66797000D02*
X164676000Y-66822000D01*
D15*
X193601000Y-69168000D02*
X193601000Y-74168000D01*
X180541000Y-71168000D02*
X180541000Y-77168000D01*
X185614000Y-62163000D02*
X185614000Y-60833000D01*
X186944000Y-62163000D02*
X185614000Y-62163000D01*
X188214000Y-62163000D02*
X188214000Y-59503000D01*
X188214000Y-59503000D02*
X190814000Y-59503000D01*
X188214000Y-62163000D02*
X190814000Y-62163000D01*
X190814000Y-62163000D02*
X190814000Y-59503000D01*
D11*
X181252904Y-63825380D02*
X181252904Y-62825380D01*
X181633857Y-62825380D01*
X181729095Y-62873000D01*
X181776714Y-62920619D01*
X181824333Y-63015857D01*
X181824333Y-63158714D01*
X181776714Y-63253952D01*
X181729095Y-63301571D01*
X181633857Y-63349190D01*
X181252904Y-63349190D01*
X182776714Y-63825380D02*
X182205285Y-63825380D01*
X182491000Y-63825380D02*
X182491000Y-62825380D01*
X182395761Y-62968238D01*
X182300523Y-63063476D01*
X182205285Y-63111095D01*
X135255095Y-73620380D02*
X135255095Y-74429904D01*
X135302714Y-74525142D01*
X135350333Y-74572761D01*
X135445571Y-74620380D01*
X135636047Y-74620380D01*
X135731285Y-74572761D01*
X135778904Y-74525142D01*
X135826523Y-74429904D01*
X135826523Y-73620380D01*
X136255095Y-73715619D02*
X136302714Y-73668000D01*
X136397952Y-73620380D01*
X136636047Y-73620380D01*
X136731285Y-73668000D01*
X136778904Y-73715619D01*
X136826523Y-73810857D01*
X136826523Y-73906095D01*
X136778904Y-74048952D01*
X136207476Y-74620380D01*
X136826523Y-74620380D01*
X152487333Y-77827142D02*
X152439714Y-77874761D01*
X152296857Y-77922380D01*
X152201619Y-77922380D01*
X152058761Y-77874761D01*
X151963523Y-77779523D01*
X151915904Y-77684285D01*
X151868285Y-77493809D01*
X151868285Y-77350952D01*
X151915904Y-77160476D01*
X151963523Y-77065238D01*
X152058761Y-76970000D01*
X152201619Y-76922380D01*
X152296857Y-76922380D01*
X152439714Y-76970000D01*
X152487333Y-77017619D01*
X152868285Y-77017619D02*
X152915904Y-76970000D01*
X153011142Y-76922380D01*
X153249238Y-76922380D01*
X153344476Y-76970000D01*
X153392095Y-77017619D01*
X153439714Y-77112857D01*
X153439714Y-77208095D01*
X153392095Y-77350952D01*
X152820666Y-77922380D01*
X153439714Y-77922380D01*
X151725428Y-78757428D02*
X151382571Y-78757428D01*
X151554000Y-78757428D02*
X151554000Y-78157428D01*
X151496857Y-78243142D01*
X151439714Y-78300285D01*
X151382571Y-78328857D01*
X152096857Y-78157428D02*
X152154000Y-78157428D01*
X152211142Y-78186000D01*
X152239714Y-78214571D01*
X152268285Y-78271714D01*
X152296857Y-78386000D01*
X152296857Y-78528857D01*
X152268285Y-78643142D01*
X152239714Y-78700285D01*
X152211142Y-78728857D01*
X152154000Y-78757428D01*
X152096857Y-78757428D01*
X152039714Y-78728857D01*
X152011142Y-78700285D01*
X151982571Y-78643142D01*
X151954000Y-78528857D01*
X151954000Y-78386000D01*
X151982571Y-78271714D01*
X152011142Y-78214571D01*
X152039714Y-78186000D01*
X152096857Y-78157428D01*
X152668285Y-78157428D02*
X152725428Y-78157428D01*
X152782571Y-78186000D01*
X152811142Y-78214571D01*
X152839714Y-78271714D01*
X152868285Y-78386000D01*
X152868285Y-78528857D01*
X152839714Y-78643142D01*
X152811142Y-78700285D01*
X152782571Y-78728857D01*
X152725428Y-78757428D01*
X152668285Y-78757428D01*
X152611142Y-78728857D01*
X152582571Y-78700285D01*
X152554000Y-78643142D01*
X152525428Y-78528857D01*
X152525428Y-78386000D01*
X152554000Y-78271714D01*
X152582571Y-78214571D01*
X152611142Y-78186000D01*
X152668285Y-78157428D01*
X153125428Y-78357428D02*
X153125428Y-78757428D01*
X153125428Y-78414571D02*
X153154000Y-78386000D01*
X153211142Y-78357428D01*
X153296857Y-78357428D01*
X153354000Y-78386000D01*
X153382571Y-78443142D01*
X153382571Y-78757428D01*
X153868285Y-78443142D02*
X153668285Y-78443142D01*
X153668285Y-78757428D02*
X153668285Y-78157428D01*
X153954000Y-78157428D01*
X159260000Y-68720857D02*
X159224285Y-68756571D01*
X159117142Y-68792285D01*
X159045714Y-68792285D01*
X158938571Y-68756571D01*
X158867142Y-68685142D01*
X158831428Y-68613714D01*
X158795714Y-68470857D01*
X158795714Y-68363714D01*
X158831428Y-68220857D01*
X158867142Y-68149428D01*
X158938571Y-68078000D01*
X159045714Y-68042285D01*
X159117142Y-68042285D01*
X159224285Y-68078000D01*
X159260000Y-68113714D01*
X159974285Y-68792285D02*
X159545714Y-68792285D01*
X159760000Y-68792285D02*
X159760000Y-68042285D01*
X159688571Y-68149428D01*
X159617142Y-68220857D01*
X159545714Y-68256571D01*
D14*
X160389190Y-70965190D02*
X160103476Y-70965190D01*
X160246333Y-70965190D02*
X160246333Y-70465190D01*
X160198714Y-70536619D01*
X160151095Y-70584238D01*
X160103476Y-70608047D01*
X160698714Y-70465190D02*
X160746333Y-70465190D01*
X160793952Y-70489000D01*
X160817761Y-70512809D01*
X160841571Y-70560428D01*
X160865380Y-70655666D01*
X160865380Y-70774714D01*
X160841571Y-70869952D01*
X160817761Y-70917571D01*
X160793952Y-70941380D01*
X160746333Y-70965190D01*
X160698714Y-70965190D01*
X160651095Y-70941380D01*
X160627285Y-70917571D01*
X160603476Y-70869952D01*
X160579666Y-70774714D01*
X160579666Y-70655666D01*
X160603476Y-70560428D01*
X160627285Y-70512809D01*
X160651095Y-70489000D01*
X160698714Y-70465190D01*
X161174904Y-70465190D02*
X161222523Y-70465190D01*
X161270142Y-70489000D01*
X161293952Y-70512809D01*
X161317761Y-70560428D01*
X161341571Y-70655666D01*
X161341571Y-70774714D01*
X161317761Y-70869952D01*
X161293952Y-70917571D01*
X161270142Y-70941380D01*
X161222523Y-70965190D01*
X161174904Y-70965190D01*
X161127285Y-70941380D01*
X161103476Y-70917571D01*
X161079666Y-70869952D01*
X161055857Y-70774714D01*
X161055857Y-70655666D01*
X161079666Y-70560428D01*
X161103476Y-70512809D01*
X161127285Y-70489000D01*
X161174904Y-70465190D01*
X161555857Y-70631857D02*
X161555857Y-70965190D01*
X161555857Y-70679476D02*
X161579666Y-70655666D01*
X161627285Y-70631857D01*
X161698714Y-70631857D01*
X161746333Y-70655666D01*
X161770142Y-70703285D01*
X161770142Y-70965190D01*
X162174904Y-70703285D02*
X162008238Y-70703285D01*
X162008238Y-70965190D02*
X162008238Y-70465190D01*
X162246333Y-70465190D01*
D11*
X195794333Y-77700142D02*
X195746714Y-77747761D01*
X195603857Y-77795380D01*
X195508619Y-77795380D01*
X195365761Y-77747761D01*
X195270523Y-77652523D01*
X195222904Y-77557285D01*
X195175285Y-77366809D01*
X195175285Y-77223952D01*
X195222904Y-77033476D01*
X195270523Y-76938238D01*
X195365761Y-76843000D01*
X195508619Y-76795380D01*
X195603857Y-76795380D01*
X195746714Y-76843000D01*
X195794333Y-76890619D01*
X196127666Y-76795380D02*
X196746714Y-76795380D01*
X196413380Y-77176333D01*
X196556238Y-77176333D01*
X196651476Y-77223952D01*
X196699095Y-77271571D01*
X196746714Y-77366809D01*
X196746714Y-77604904D01*
X196699095Y-77700142D01*
X196651476Y-77747761D01*
X196556238Y-77795380D01*
X196270523Y-77795380D01*
X196175285Y-77747761D01*
X196127666Y-77700142D01*
X195159428Y-78630428D02*
X194816571Y-78630428D01*
X194988000Y-78630428D02*
X194988000Y-78030428D01*
X194930857Y-78116142D01*
X194873714Y-78173285D01*
X194816571Y-78201857D01*
X195530857Y-78030428D02*
X195588000Y-78030428D01*
X195645142Y-78059000D01*
X195673714Y-78087571D01*
X195702285Y-78144714D01*
X195730857Y-78259000D01*
X195730857Y-78401857D01*
X195702285Y-78516142D01*
X195673714Y-78573285D01*
X195645142Y-78601857D01*
X195588000Y-78630428D01*
X195530857Y-78630428D01*
X195473714Y-78601857D01*
X195445142Y-78573285D01*
X195416571Y-78516142D01*
X195388000Y-78401857D01*
X195388000Y-78259000D01*
X195416571Y-78144714D01*
X195445142Y-78087571D01*
X195473714Y-78059000D01*
X195530857Y-78030428D01*
X196102285Y-78030428D02*
X196159428Y-78030428D01*
X196216571Y-78059000D01*
X196245142Y-78087571D01*
X196273714Y-78144714D01*
X196302285Y-78259000D01*
X196302285Y-78401857D01*
X196273714Y-78516142D01*
X196245142Y-78573285D01*
X196216571Y-78601857D01*
X196159428Y-78630428D01*
X196102285Y-78630428D01*
X196045142Y-78601857D01*
X196016571Y-78573285D01*
X195988000Y-78516142D01*
X195959428Y-78401857D01*
X195959428Y-78259000D01*
X195988000Y-78144714D01*
X196016571Y-78087571D01*
X196045142Y-78059000D01*
X196102285Y-78030428D01*
X196559428Y-78230428D02*
X196559428Y-78630428D01*
X196559428Y-78287571D02*
X196588000Y-78259000D01*
X196645142Y-78230428D01*
X196730857Y-78230428D01*
X196788000Y-78259000D01*
X196816571Y-78316142D01*
X196816571Y-78630428D01*
X197302285Y-78316142D02*
X197102285Y-78316142D01*
X197102285Y-78630428D02*
X197102285Y-78030428D01*
X197388000Y-78030428D01*
X135215333Y-77573142D02*
X135167714Y-77620761D01*
X135024857Y-77668380D01*
X134929619Y-77668380D01*
X134786761Y-77620761D01*
X134691523Y-77525523D01*
X134643904Y-77430285D01*
X134596285Y-77239809D01*
X134596285Y-77096952D01*
X134643904Y-76906476D01*
X134691523Y-76811238D01*
X134786761Y-76716000D01*
X134929619Y-76668380D01*
X135024857Y-76668380D01*
X135167714Y-76716000D01*
X135215333Y-76763619D01*
X136072476Y-77001714D02*
X136072476Y-77668380D01*
X135834380Y-76620761D02*
X135596285Y-77335047D01*
X136215333Y-77335047D01*
X134739142Y-78503428D02*
X134396285Y-78503428D01*
X134567714Y-78503428D02*
X134567714Y-77903428D01*
X134510571Y-77989142D01*
X134453428Y-78046285D01*
X134396285Y-78074857D01*
X135110571Y-77903428D02*
X135167714Y-77903428D01*
X135224857Y-77932000D01*
X135253428Y-77960571D01*
X135282000Y-78017714D01*
X135310571Y-78132000D01*
X135310571Y-78274857D01*
X135282000Y-78389142D01*
X135253428Y-78446285D01*
X135224857Y-78474857D01*
X135167714Y-78503428D01*
X135110571Y-78503428D01*
X135053428Y-78474857D01*
X135024857Y-78446285D01*
X134996285Y-78389142D01*
X134967714Y-78274857D01*
X134967714Y-78132000D01*
X134996285Y-78017714D01*
X135024857Y-77960571D01*
X135053428Y-77932000D01*
X135110571Y-77903428D01*
X135824857Y-78103428D02*
X135824857Y-78503428D01*
X135567714Y-78103428D02*
X135567714Y-78417714D01*
X135596285Y-78474857D01*
X135653428Y-78503428D01*
X135739142Y-78503428D01*
X135796285Y-78474857D01*
X135824857Y-78446285D01*
X136310571Y-78189142D02*
X136110571Y-78189142D01*
X136110571Y-78503428D02*
X136110571Y-77903428D01*
X136396285Y-77903428D01*
X159387000Y-74380285D02*
X159137000Y-74023142D01*
X158958428Y-74380285D02*
X158958428Y-73630285D01*
X159244142Y-73630285D01*
X159315571Y-73666000D01*
X159351285Y-73701714D01*
X159387000Y-73773142D01*
X159387000Y-73880285D01*
X159351285Y-73951714D01*
X159315571Y-73987428D01*
X159244142Y-74023142D01*
X158958428Y-74023142D01*
X160101285Y-74380285D02*
X159672714Y-74380285D01*
X159887000Y-74380285D02*
X159887000Y-73630285D01*
X159815571Y-73737428D01*
X159744142Y-73808857D01*
X159672714Y-73844571D01*
D14*
X160428857Y-76053190D02*
X160738380Y-76053190D01*
X160571714Y-76243666D01*
X160643142Y-76243666D01*
X160690761Y-76267476D01*
X160714571Y-76291285D01*
X160738380Y-76338904D01*
X160738380Y-76457952D01*
X160714571Y-76505571D01*
X160690761Y-76529380D01*
X160643142Y-76553190D01*
X160500285Y-76553190D01*
X160452666Y-76529380D01*
X160428857Y-76505571D01*
X160952666Y-76553190D02*
X160952666Y-76053190D01*
X161000285Y-76362714D02*
X161143142Y-76553190D01*
X161143142Y-76219857D02*
X160952666Y-76410333D01*
X161309809Y-76053190D02*
X161619333Y-76053190D01*
X161452666Y-76243666D01*
X161524095Y-76243666D01*
X161571714Y-76267476D01*
X161595523Y-76291285D01*
X161619333Y-76338904D01*
X161619333Y-76457952D01*
X161595523Y-76505571D01*
X161571714Y-76529380D01*
X161524095Y-76553190D01*
X161381238Y-76553190D01*
X161333619Y-76529380D01*
X161309809Y-76505571D01*
D11*
X166116095Y-65365380D02*
X166116095Y-66174904D01*
X166163714Y-66270142D01*
X166211333Y-66317761D01*
X166306571Y-66365380D01*
X166497047Y-66365380D01*
X166592285Y-66317761D01*
X166639904Y-66270142D01*
X166687523Y-66174904D01*
X166687523Y-65365380D01*
X167687523Y-66365380D02*
X167116095Y-66365380D01*
X167401809Y-66365380D02*
X167401809Y-65365380D01*
X167306571Y-65508238D01*
X167211333Y-65603476D01*
X167116095Y-65651095D01*
X178562095Y-73747380D02*
X178562095Y-74556904D01*
X178609714Y-74652142D01*
X178657333Y-74699761D01*
X178752571Y-74747380D01*
X178943047Y-74747380D01*
X179038285Y-74699761D01*
X179085904Y-74652142D01*
X179133523Y-74556904D01*
X179133523Y-73747380D01*
X179514476Y-73747380D02*
X180133523Y-73747380D01*
X179800190Y-74128333D01*
X179943047Y-74128333D01*
X180038285Y-74175952D01*
X180085904Y-74223571D01*
X180133523Y-74318809D01*
X180133523Y-74556904D01*
X180085904Y-74652142D01*
X180038285Y-74699761D01*
X179943047Y-74747380D01*
X179657333Y-74747380D01*
X179562095Y-74699761D01*
X179514476Y-74652142D01*
X188063238Y-63301571D02*
X188206095Y-63349190D01*
X188253714Y-63396809D01*
X188301333Y-63492047D01*
X188301333Y-63634904D01*
X188253714Y-63730142D01*
X188206095Y-63777761D01*
X188110857Y-63825380D01*
X187729904Y-63825380D01*
X187729904Y-62825380D01*
X188063238Y-62825380D01*
X188158476Y-62873000D01*
X188206095Y-62920619D01*
X188253714Y-63015857D01*
X188253714Y-63111095D01*
X188206095Y-63206333D01*
X188158476Y-63253952D01*
X188063238Y-63301571D01*
X187729904Y-63301571D01*
X189253714Y-63825380D02*
X188682285Y-63825380D01*
X188968000Y-63825380D02*
X188968000Y-62825380D01*
X188872761Y-62968238D01*
X188777523Y-63063476D01*
X188682285Y-63111095D01*
M02*
